<svg id="svg" version="1.1" xmlns="http://www.w3.org/2000/svg" xmlns:xlink="http://www.w3.org/1999/xlink" width="400" height="368.67469879518075" viewBox="0, 0, 400,368.67469879518075"><g id="svgg"><path id="path0" d="M74.096 39.098 C 33.343 60.467,0.033 78.575,0.073 79.337 C 0.112 80.099,10.940 93.735,24.134 109.639 C 53.044 144.487,52.918 137.838,25.301 171.084 C -2.557 204.622,-2.757 200.889,27.749 216.750 L 53.012 229.885 53.012 262.748 L 53.012 295.610 126.348 332.745 L 199.683 369.880 273.336 333.138 L 346.988 296.396 347.026 263.258 L 347.064 230.120 372.556 216.867 C 386.577 209.578,398.549 202.805,399.162 201.815 C 399.774 200.825,389.370 186.805,376.041 170.659 C 346.993 135.472,347.164 143.205,374.699 109.948 C 387.289 94.741,397.590 81.282,397.590 80.038 C 397.590 78.795,378.343 67.719,354.819 55.426 C 331.295 43.133,297.894 25.651,280.594 16.576 L 249.139 0.077 224.164 30.270 C 204.430 54.128,198.604 59.808,196.402 57.340 C 194.868 55.622,183.574 42.018,171.302 27.108 C 159.031 12.199,148.811 0.055,148.592 0.123 C 148.372 0.190,114.849 17.729,74.096 39.098 M168.452 39.440 C 179.177 52.518,187.952 63.513,187.952 63.874 C 187.952 67.694,56.623 132.306,54.225 129.666 C 43.704 118.080,16.879 84.277,16.934 82.674 C 17.022 80.113,142.535 14.564,146.163 15.185 C 147.697 15.448,157.727 26.363,168.452 39.440 M316.867 47.184 C 351.325 65.163,380.273 80.607,381.197 81.503 C 382.840 83.098,346.909 128.139,342.937 129.463 C 341.829 129.832,311.518 115.222,275.580 96.995 L 210.238 63.855 230.773 39.157 C 242.066 25.572,251.962 14.466,252.762 14.476 C 253.562 14.486,282.410 29.204,316.867 47.184 M160.877 200.650 L 190.428 216.073 169.436 241.681 L 148.444 267.288 107.355 245.826 C 84.755 234.023,55.169 218.545,41.607 211.432 L 16.949 198.499 37.913 172.904 L 58.877 147.310 95.101 166.268 C 115.025 176.695,144.623 192.167,160.877 200.650 M364.327 174.151 L 384.719 198.904 318.976 232.575 C 276.304 254.430,252.449 265.403,250.999 263.846 C 238.084 249.977,211.684 215.774,213.421 215.161 C 214.654 214.726,243.313 199.779,277.108 181.946 C 310.904 164.113,339.765 149.494,341.245 149.460 C 342.724 149.426,353.111 160.536,364.327 174.151 M194.150 353.641 C 193.537 354.255,164.511 340.159,129.650 322.316 L 66.265 289.876 65.584 264.491 L 64.903 239.106 106.291 260.517 C 156.569 286.527,149.865 286.804,173.939 257.723 L 193.976 233.518 194.621 293.021 C 194.976 325.748,194.764 353.027,194.150 353.641 M229.866 259.639 C 252.403 286.567,247.541 286.434,295.665 261.446 C 317.360 250.181,335.614 240.964,336.230 240.964 C 336.846 240.964,337.349 251.714,337.349 264.854 L 337.349 288.744 273.501 321.481 C 238.384 339.486,209.107 354.217,208.441 354.217 C 207.774 354.217,207.229 326.892,207.229 293.494 C 207.229 260.096,208.125 233.801,209.220 235.060 C 210.315 236.319,219.606 247.380,229.866 259.639 " stroke="none" fill="#56C4C5" fill-rule="evenodd"></path></g></svg>