<?xml version="1.0" encoding="utf-8"?>
<!-- Svg Vector Icons : http://www.onlinewebfonts.com/icon -->
<!DOCTYPE svg PUBLIC "-//W3C//DTD SVG 1.1//EN" "http://www.w3.org/Graphics/SVG/1.1/DTD/svg11.dtd">
<svg version="1.1" xmlns="http://www.w3.org/2000/svg" xmlns:xlink="http://www.w3.org/1999/xlink" x="0px" y="0px" viewBox="0 0 1000 1000" enable-background="new 0 0 1000 1000" xml:space="preserve">
<metadata> Svg Vector Icons : http://www.onlinewebfonts.com/icon </metadata>
<g><g transform="translate(0.000000,511.000000) scale(0.100000,-0.100000)"><path fill="#fff" d="M2127.3,4108.8c-1035.7-345.9-1902.4-639.9-1925.4-651.4c-65.3-34.6-107.6-132.6-96.1-215.2c5.8-53.8,111.5-217.1,411.2-645.6c221-315.1,417-597.6,436.2-626.4l32.7-51.9l-403.5-576.5C103.8,661.5,100,653.8,100,584.6c0-59.6,40.4-148,84.5-184.5c17.3-13.5,213.3-88.4,438.1-163.3L1032,98.5l9.6-1612.2c9.6-1735.2,5.8-1673.7,111.5-1727.5c71.1-36.5,3806.6-1279.7,3845.1-1279.7c36.5,0,3798.9,1252.9,3858.5,1285.5c94.2,50,92.2,9.6,101.8,1721.7l9.6,1614.1l384.3,128.8c211.4,71.1,403.5,138.3,428.5,148C9838.5,404,9900,509.7,9900,580.8c0,73-1.9,76.9-482.3,760.9l-403.5,576.5l32.7,51.9c19.2,28.8,215.2,311.3,436.2,626.4c299.8,428.5,405.5,591.9,411.2,645.6c11.5,82.6-30.8,180.6-94.2,213.3C9723.2,3497.7,5974.2,4741,5926.2,4741c-25,0-69.2-13.5-98-30.7c-28.8-17.3-221-272.9-434.3-576.5C5182.5,3834,5005.8,3588,5000,3588s-182.5,246-393.9,545.7c-213.3,303.6-405.5,559.2-434.3,576.5c-28.8,17.3-76.9,30.7-107.6,28.8C4035.4,4739.1,3163,4454.7,2127.3,4108.8z M4294.8,3762.9c176.8-251.7,320.9-463.1,320.9-468.9c0-11.5-3247.5-1097.2-3255.1-1087.6c-61.5,67.3-645.6,928.1-636,935.8c15.4,17.3,3180.2,1076.1,3220.5,1078C3962.4,4222.2,4100.7,4041.5,4294.8,3762.9z M7661.4,3691.8c876.2-292.1,1602.6-538,1610.3-545.7c11.5-9.6-568.8-872.4-630.3-939.6c-3.8-1.9-739.8,238.3-1633.3,536.1c-1047.3,349.7-1623.7,549.6-1618,564.9c23.1,57.6,636,914.7,655.3,914.7C6056.9,4222.2,6783.2,3983.9,7661.4,3691.8z M6498.8,2419.7L7988,1922L6495,1424.3L5000,926.7l-1493.1,497.7L2012,1922l1479.6,495.8c814.7,272.9,1489.2,495.8,1498.8,495.8C5001.9,2915.5,5680.2,2692.6,6498.8,2419.7z M4615.7,550c0-26.9-647.6-930-664.9-928.1c-9.6,1.9-741.7,244-1627.6,538C1220.3,527,716.8,703.8,722.6,719.1c9.6,23.1,497.7,724.4,599.5,864.7l46.1,59.6l1623.7-540C3885.5,805.6,4615.7,555.8,4615.7,550z M8958.4,1184.2c171-244,313.2-453.5,319-465c5.8-15.4-541.9-205.6-1600.7-559.2c-885.8-294-1618-536.1-1627.6-538c-17.3-1.9-664.9,901.2-664.9,928.1c0,15.4,3234,1095.3,3251.3,1085.7C8641.4,1631.9,8787.4,1428.2,8958.4,1184.2z M2765.2-476.1c686-226.7,1270.2-413.1,1299-413.1c105.7,0,157.6,51.9,417,422.7C4621.4-264.7,4744.4-95.6,4754-89.9c7.7,5.8,15.4-864.7,15.4-1931.2c0-1068.4-5.8-1942.7-13.5-1940.8c-9.6,0-741.7,244-1629.5,541.9L1512.4-2878l-5.8,1408.5c-1.9,772.5,0,1406.6,5.8,1406.6S2081.1-249.3,2765.2-476.1z M8493.4-1469.5l-5.8-1408.5l-1614.1-541.9c-887.8-297.9-1619.9-541.9-1627.6-541.9c-9.6-1.9-15.4,872.4-15.4,1940.8c0,1066.5,7.7,1937,15.4,1931.2c9.6-5.8,130.7-174.8,272.9-376.6c259.4-370.9,309.4-422.7,417-422.7c28.8,0,611.1,186.4,1293.2,413.1C7911.2-249.3,8474.2-62.9,8483.8-62.9C8491.5-62.9,8495.3-697.1,8493.4-1469.5z"/></g></g>
</svg>