<svg id="svg" version="1.1" xmlns="http://www.w3.org/2000/svg" xmlns:xlink="http://www.w3.org/1999/xlink" width="400" height="378.02690582959644" viewBox="0, 0, 400,378.02690582959644"><g id="svgg"><path id="path0" d="M173.991 0.887 C 162.808 3.696,154.396 11.325,151.230 21.528 C 150.524 23.804,150.448 31.017,150.233 116.723 L 150.000 209.454 111.033 170.758 C 89.019 148.897,70.973 131.333,69.554 130.384 C 59.581 123.724,44.588 123.815,34.183 130.598 C 30.320 133.117,12.166 150.740,7.560 156.443 C -2.118 168.424,-2.746 184.888,6.011 197.016 C 9.282 201.545,179.535 371.255,182.585 373.027 C 192.377 378.715,205.355 378.894,215.819 373.486 C 218.993 371.844,389.634 201.979,393.533 196.579 C 400.598 186.793,401.408 173.415,395.620 162.108 C 392.951 156.893,367.179 131.346,362.012 128.794 C 352.326 124.009,339.868 124.427,330.450 129.853 C 328.118 131.197,320.189 138.884,288.229 170.790 L 248.879 210.073 248.879 117.793 C 248.879 15.963,249.061 22.511,246.063 16.663 C 242.524 9.762,235.874 4.293,227.578 1.460 L 223.991 0.235 200.673 0.139 C 179.131 0.050,177.098 0.107,173.991 0.887 " stroke="none" fill="#FCF28C" fill-rule="evenodd"></path></g></svg>