<svg id="svg" version="1.1" xmlns="http://www.w3.org/2000/svg" xmlns:xlink="http://www.w3.org/1999/xlink" width="400" height="178.04878048780486" viewBox="0, 0, 400,178.04878048780486"><g id="svgg"><path id="path0" d="M111.951 21.165 C 65.446 28.782,40.096 79.175,61.621 121.220 C 82.253 161.522,137.682 170.893,170.123 139.564 C 172.775 137.003,172.138 136.752,178.049 142.683 C 180.856 145.500,183.324 147.805,183.533 147.805 C 183.742 147.805,183.856 138.421,183.786 126.951 L 183.659 106.098 162.805 105.970 C 151.335 105.900,141.951 106.014,141.951 106.223 C 141.951 106.432,144.256 108.900,147.073 111.707 C 153.129 117.742,153.007 117.189,149.006 120.518 C 126.594 139.160,92.619 129.207,83.967 101.463 C 73.758 68.729,106.727 38.642,138.400 51.788 C 145.618 54.784,146.145 55.267,191.463 100.443 C 238.095 146.929,237.516 146.404,247.564 151.365 C 278.210 166.498,316.244 156.437,335.130 128.202 C 348.440 108.304,350.563 81.021,340.457 59.750 C 322.360 21.659,274.760 8.667,239.483 32.189 C 235.871 34.597,231.879 38.242,220.976 49.083 L 207.073 62.907 216.825 72.673 C 222.188 78.044,226.784 82.439,227.039 82.439 C 227.293 82.439,233.222 76.765,240.214 69.830 C 258.270 51.922,263.881 48.793,277.962 48.784 C 317.470 48.757,333.431 99.616,301.176 122.753 C 291.043 130.022,276.670 131.887,264.146 127.559 C 255.905 124.710,255.264 124.135,209.024 78.055 C 162.439 31.630,162.948 32.089,152.492 27.098 C 140.749 21.493,124.485 19.113,111.951 21.165 " stroke="none" fill="#A17EE0" fill-rule="evenodd"></path></g></svg>