<svg id="svg" version="1.1" xmlns="http://www.w3.org/2000/svg" xmlns:xlink="http://www.w3.org/1999/xlink" width="400" height="398.3739837398374" viewBox="0, 0, 400,398.3739837398374"><g id="svgg"><path id="path0" d="M196.748 0.637 C 192.295 1.601,189.260 3.391,184.781 7.696 C 175.398 16.713,9.043 180.447,7.964 181.727 C -9.556 202.506,26.487 243.421,50.865 230.427 C 52.730 229.433,68.864 214.231,127.405 158.304 L 201.581 87.441 275.024 157.643 C 315.417 196.255,349.450 228.517,350.651 229.339 C 372.595 244.342,409.311 209.189,397.110 184.855 C 395.496 181.635,397.143 183.281,303.455 91.239 C 262.541 51.043,225.772 14.917,221.748 10.959 C 211.225 0.610,206.287 -1.429,196.748 0.637 M192.945 166.091 C 186.751 167.591,193.117 161.606,94.792 258.365 C -4.072 355.654,2.705 348.663,1.028 355.103 C -4.260 375.403,22.110 402.592,42.438 397.799 C 47.774 396.541,49.157 395.492,63.383 381.911 C 70.643 374.980,104.021 343.098,137.557 311.063 L 198.531 252.817 201.603 255.824 C 204.840 258.992,338.640 386.709,344.010 391.757 C 353.337 400.525,365.287 400.398,378.317 391.392 C 393.559 380.859,400.347 363.222,394.069 350.467 C 392.212 346.694,397.562 352.087,322.561 278.404 C 288.354 244.798,249.390 206.501,235.976 193.299 C 209.684 167.425,209.655 167.400,204.027 166.073 C 200.821 165.317,196.110 165.325,192.945 166.091 " stroke="none" fill="#FCF28C" fill-rule="evenodd"></path></g></svg>