<svg id="svg" version="1.1" xmlns="http://www.w3.org/2000/svg" xmlns:xlink="http://www.w3.org/1999/xlink" width="400" height="400" viewBox="0, 0, 400,400"><g id="svgg"><path id="path0" d="M295.020 25.098 C 294.791 26.978,294.434 31.040,294.226 34.126 C 292.437 60.796,282.982 69.036,248.191 74.253 C 211.052 79.822,197.541 92.006,192.566 124.414 L 192.117 127.344 112.269 127.359 C 67.347 127.368,30.226 127.693,27.403 128.101 C 16.962 129.610,7.618 136.459,2.887 146.069 L 0.391 151.139 0.391 239.827 L 0.391 328.516 2.885 333.782 C 7.161 342.808,14.228 348.639,23.968 351.176 C 30.753 352.943,369.247 352.943,376.032 351.176 C 385.772 348.639,392.839 342.808,397.115 333.782 L 399.609 328.516 399.609 239.827 L 399.609 151.139 397.113 146.069 C 392.382 136.459,383.038 129.610,372.597 128.101 C 369.776 127.693,332.939 127.368,288.477 127.359 C 212.547 127.344,209.375 127.287,209.375 125.924 C 209.375 119.384,214.687 107.143,219.712 102.101 C 225.948 95.844,231.915 93.808,254.297 90.300 C 296.088 83.750,311.650 66.527,311.712 26.758 L 311.719 22.656 307.140 22.656 C 304.622 22.656,300.959 22.437,299.000 22.168 L 295.438 21.680 295.020 25.098 M376.408 147.159 C 378.425 148.556,380.378 150.885,381.615 153.367 L 383.594 157.338 383.594 240.022 C 383.594 312.885,383.450 323.050,382.385 325.600 C 380.837 329.303,378.532 331.754,374.609 333.865 L 371.484 335.547 200.000 335.547 L 28.516 335.547 25.391 333.865 C 21.468 331.754,19.163 329.303,17.615 325.600 C 16.550 323.049,16.408 312.915,16.423 240.064 C 16.443 148.063,16.108 153.921,21.643 148.722 C 26.338 144.312,14.549 144.573,200.848 144.754 L 373.181 144.922 376.408 147.159 M39.844 192.188 L 39.844 208.594 56.250 208.594 L 72.656 208.594 72.656 192.188 L 72.656 175.781 56.250 175.781 L 39.844 175.781 39.844 192.188 M87.500 192.188 L 87.500 208.594 103.906 208.594 L 120.313 208.594 120.313 192.188 L 120.313 175.781 103.906 175.781 L 87.500 175.781 87.500 192.188 M135.938 192.188 L 135.938 208.594 152.344 208.594 L 168.750 208.594 168.750 192.188 L 168.750 175.781 152.344 175.781 L 135.938 175.781 135.938 192.188 M183.594 192.188 L 183.594 208.594 200.000 208.594 L 216.406 208.594 216.406 192.188 L 216.406 175.781 200.000 175.781 L 183.594 175.781 183.594 192.188 M231.250 192.188 L 231.250 208.594 247.656 208.594 L 264.063 208.594 264.063 192.188 L 264.063 175.781 247.656 175.781 L 231.250 175.781 231.250 192.188 M279.688 192.188 L 279.688 208.594 296.094 208.594 L 312.500 208.594 312.500 192.188 L 312.500 175.781 296.094 175.781 L 279.688 175.781 279.688 192.188 M327.344 192.188 L 327.344 208.594 343.750 208.594 L 360.156 208.594 360.156 192.188 L 360.156 175.781 343.750 175.781 L 327.344 175.781 327.344 192.188 M39.844 239.844 L 39.844 256.250 67.969 256.250 L 96.094 256.250 96.094 239.844 L 96.094 223.438 67.969 223.438 L 39.844 223.438 39.844 239.844 M111.719 239.844 L 111.719 256.250 128.125 256.250 L 144.531 256.250 144.531 239.844 L 144.531 223.438 128.125 223.438 L 111.719 223.438 111.719 239.844 M159.375 239.844 L 159.375 256.250 175.781 256.250 L 192.188 256.250 192.188 239.844 L 192.188 223.438 175.781 223.438 L 159.375 223.438 159.375 239.844 M207.813 239.844 L 207.813 256.250 224.219 256.250 L 240.625 256.250 240.625 239.844 L 240.625 223.438 224.219 223.438 L 207.813 223.438 207.813 239.844 M255.469 239.844 L 255.469 256.250 271.875 256.250 L 288.281 256.250 288.281 239.844 L 288.281 223.438 271.875 223.438 L 255.469 223.438 255.469 239.844 M303.906 239.844 L 303.906 256.250 332.031 256.250 L 360.156 256.250 360.156 239.844 L 360.156 223.438 332.031 223.438 L 303.906 223.438 303.906 239.844 M39.844 288.281 L 39.844 304.688 56.250 304.688 L 72.656 304.688 72.656 288.281 L 72.656 271.875 56.250 271.875 L 39.844 271.875 39.844 288.281 M87.500 288.281 L 87.500 304.688 103.906 304.688 L 120.313 304.688 120.313 288.281 L 120.313 271.875 103.906 271.875 L 87.500 271.875 87.500 288.281 M135.938 288.281 L 135.938 304.688 200.000 304.688 L 264.063 304.688 264.063 288.281 L 264.063 271.875 200.000 271.875 L 135.938 271.875 135.938 288.281 M279.688 288.281 L 279.688 304.688 296.094 304.688 L 312.500 304.688 312.500 288.281 L 312.500 271.875 296.094 271.875 L 279.688 271.875 279.688 288.281 M327.344 288.281 L 327.344 304.688 343.750 304.688 L 360.156 304.688 360.156 288.281 L 360.156 271.875 343.750 271.875 L 327.344 271.875 327.344 288.281 " stroke="none" fill="#4CBF56" fill-rule="evenodd"></path></g></svg>