<svg id="svg" version="1.1" xmlns="http://www.w3.org/2000/svg" xmlns:xlink="http://www.w3.org/1999/xlink" width="400" height="400" viewBox="0, 0, 400,400"><g id="svgg"><path id="path0" d="M40.951 0.612 C 23.090 3.844,7.818 17.156,2.334 34.274 C -0.187 42.140,0.000 27.106,0.000 222.317 L 0.000 400.000 177.246 399.998 C 370.657 399.997,357.496 400.149,364.864 397.822 C 414.577 382.118,410.303 311.389,358.984 300.510 C 355.848 299.845,350.566 299.800,263.487 299.700 L 171.309 299.595 279.920 190.911 C 367.138 103.634,388.910 81.650,390.455 79.297 C 401.462 62.535,402.146 41.956,392.250 25.247 C 377.063 -0.394,343.059 -7.085,318.723 10.780 C 317.341 11.795,267.563 61.243,208.105 120.665 L 100.000 228.705 99.999 136.716 C 99.997 35.446,100.146 41.798,97.606 34.180 C 89.742 10.588,65.429 -3.817,40.951 0.612 " stroke="none" fill="#FCF28C" fill-rule="evenodd"></path></g></svg>