<svg id="svg" version="1.1" xmlns="http://www.w3.org/2000/svg" xmlns:xlink="http://www.w3.org/1999/xlink" width="400" height="423.2502965599051" viewBox="0, 0, 400,423.2502965599051"><g id="svgg"><path id="path0" d="M203.468 0.734 C 199.699 1.648,194.974 3.875,191.532 6.361 C 186.740 9.821,7.165 189.970,5.290 193.198 C -0.728 203.559,-0.918 217.292,4.805 228.363 C 6.542 231.723,186.280 412.282,191.995 416.407 C 202.350 423.883,216.505 424.740,228.470 418.616 C 233.988 415.792,261.019 388.522,263.720 383.054 C 268.783 372.806,268.341 359.623,262.599 349.658 C 261.178 347.190,253.043 338.800,219.283 304.982 L 177.716 263.345 275.360 263.345 C 383.109 263.345,376.180 263.538,382.369 260.365 C 389.671 256.621,395.459 249.583,398.454 240.807 L 399.749 237.011 399.899 212.826 C 400.030 191.668,399.950 188.193,399.261 185.068 C 396.562 172.828,388.323 163.465,377.221 160.020 C 374.812 159.273,367.181 159.193,276.493 158.965 L 178.371 158.719 219.316 117.487 C 242.448 94.194,261.034 75.099,262.037 73.596 C 269.085 63.044,268.989 47.179,261.811 36.170 C 259.145 32.082,240.498 12.873,234.464 7.999 C 225.813 1.011,213.869 -1.788,203.468 0.734 " stroke="none" fill="#FCF28C" fill-rule="evenodd"></path></g></svg>