<svg id="svg" version="1.1" xmlns="http://www.w3.org/2000/svg" xmlns:xlink="http://www.w3.org/1999/xlink" width="400" height="400" viewBox="0, 0, 400,400"><g id="svgg"><path id="path0" d="M0.000 177.683 C 0.000 372.894,-0.187 357.860,2.334 365.726 C 16.904 411.205,82.457 411.269,97.606 365.820 C 100.146 358.202,99.997 364.554,99.999 263.284 L 100.000 171.295 208.105 279.335 C 267.563 338.757,317.341 388.205,318.723 389.220 C 343.059 407.085,377.063 400.394,392.250 374.753 C 402.146 358.044,401.462 337.465,390.455 320.703 C 388.910 318.350,367.138 296.366,279.920 209.089 L 171.309 100.405 263.487 100.300 C 350.566 100.200,355.848 100.155,358.984 99.490 C 410.303 88.611,414.577 17.882,364.864 2.178 C 357.496 -0.149,370.657 0.003,177.246 0.002 L 0.000 0.000 0.000 177.683 " stroke="none" fill="#FCF28C" fill-rule="evenodd"></path></g></svg>