<svg id="svg" version="1.1" xmlns="http://www.w3.org/2000/svg" xmlns:xlink="http://www.w3.org/1999/xlink" width="400" height="504.76190476190476" viewBox="0, 0, 400,504.76190476190476"><g id="svgg"><path id="path0" d="M159.524 19.807 C 154.164 22.128,154.048 22.777,154.048 50.238 C 154.048 71.936,154.077 72.670,155.023 74.279 C 157.589 78.648,163.004 80.152,167.611 77.776 C 172.603 75.201,172.835 73.784,172.848 45.871 L 172.857 24.838 170.222 22.490 C 166.474 19.149,163.035 18.286,159.524 19.807 M77.556 42.795 C 74.722 44.592,73.333 47.456,73.333 51.506 L 73.333 54.450 80.119 61.325 C 97.899 79.339,112.981 93.074,115.821 93.838 C 122.093 95.527,127.619 90.811,127.619 83.768 L 127.619 80.140 113.690 66.825 C 85.426 39.805,83.885 38.781,77.556 42.795 M240.238 42.117 C 235.655 44.205,201.241 77.198,199.470 81.202 C 196.238 88.507,204.828 96.706,212.013 93.174 C 216.563 90.937,250.879 57.902,252.603 54.097 C 255.899 46.826,247.584 38.770,240.238 42.117 M157.143 96.170 C 141.989 99.406,127.252 113.432,125.683 126.113 C 125.136 130.539,124.334 207.717,124.305 258.810 C 124.293 279.238,124.142 301.907,123.970 309.184 L 123.656 322.416 117.952 312.755 C 81.589 251.162,81.098 250.497,69.680 247.334 C 41.503 239.528,21.275 263.320,31.177 292.619 C 50.898 350.969,88.030 419.674,118.035 453.333 C 125.741 461.978,127.411 464.415,134.817 477.828 C 140.043 487.291,147.923 488.561,153.070 480.769 C 157.041 474.755,148.772 458.550,132.143 439.762 C 108.844 413.438,86.806 375.479,64.286 322.883 C 54.216 299.366,46.671 279.105,46.668 275.572 C 46.662 269.004,58.153 262.585,64.882 265.396 C 67.670 266.561,74.039 276.726,103.573 327.143 C 124.249 362.440,127.291 367.133,130.306 368.392 C 134.239 370.036,137.735 368.981,142.024 364.857 L 143.810 363.140 143.853 258.356 C 143.903 137.792,144.022 128.923,145.643 125.604 C 152.387 111.792,174.472 111.708,180.773 125.471 C 182.780 129.855,182.850 132.690,182.854 210.523 L 182.857 285.093 185.636 287.744 C 190.339 292.229,195.090 292.225,199.643 287.732 L 202.381 285.030 202.392 270.729 C 202.412 246.015,202.951 242.936,208.195 237.609 C 214.425 231.280,228.454 231.061,235.410 237.184 C 241.143 242.230,241.602 245.179,241.228 274.524 C 240.851 304.099,241.086 305.842,245.855 308.764 C 250.447 311.578,254.134 311.009,258.646 306.789 L 260.952 304.632 260.967 291.959 C 260.990 273.030,261.554 264.968,263.083 261.737 C 268.409 250.478,286.679 248.538,295.587 258.284 C 299.750 262.839,299.595 261.624,300.086 293.571 C 300.588 326.233,300.414 324.249,303.006 326.837 C 306.354 330.181,310.835 330.768,314.999 328.410 C 318.643 326.346,319.134 324.707,319.945 311.905 C 320.808 298.279,325.926 292.110,336.838 291.539 C 352.811 290.703,355.571 300.214,349.012 333.495 C 343.908 359.395,337.973 377.437,325.726 404.286 C 312.942 432.311,302.857 464.437,302.857 477.135 C 302.857 482.558,309.889 487.082,315.461 485.243 C 319.938 483.766,320.897 481.936,323.577 469.762 C 328.159 448.952,332.396 436.834,344.061 411.190 C 360.674 374.669,371.448 334.970,371.589 309.762 C 371.742 282.298,350.052 265.207,326.462 274.205 C 319.468 276.873,319.543 276.919,319.529 269.957 C 319.503 256.787,308.968 242.288,294.351 235.308 L 290.714 233.571 282.194 233.413 C 272.702 233.236,271.576 233.417,265.069 236.162 C 258.281 239.025,259.142 239.235,255.920 233.933 C 244.746 215.548,226.763 208.828,207.948 216.008 C 205.627 216.894,203.662 217.619,203.582 217.619 C 202.826 217.619,202.623 210.319,202.345 173.095 C 201.988 125.198,202.115 126.984,198.554 119.558 C 190.502 102.768,172.872 92.810,157.143 96.170 M57.529 114.758 C 49.723 115.385,45.808 121.641,49.041 128.320 C 51.451 133.298,53.849 133.763,77.143 133.767 C 102.772 133.771,107.175 133.105,109.265 128.911 C 111.605 124.215,110.806 120.773,106.286 116.071 L 104.569 114.286 83.118 114.356 C 71.320 114.394,59.805 114.575,57.529 114.758 M228.331 114.727 C 218.757 115.292,216.190 117.326,216.190 124.348 C 216.190 127.746,216.565 128.575,219.442 131.548 L 221.631 133.810 247.143 133.810 L 272.655 133.810 274.877 131.548 C 280.602 125.719,279.090 116.884,272.077 115.195 C 269.665 114.614,236.286 114.256,228.331 114.727 " stroke="none" fill="#4CBF56" fill-rule="evenodd"></path></g></svg>