<svg id="svg" version="1.1" xmlns="http://www.w3.org/2000/svg" xmlns:xlink="http://www.w3.org/1999/xlink" width="400" height="593.2692307692308" viewBox="0, 0, 400,593.2692307692308"><g id="svgg"><path id="path0" d="M172.115 3.975 C 91.956 12.159,23.034 64.547,9.055 127.915 C 0.245 167.853,17.662 194.356,54.893 197.665 C 82.669 200.135,97.298 188.759,116.194 149.998 C 136.790 107.748,153.229 95.334,190.909 93.576 C 241.220 91.228,272.143 116.277,272.434 159.615 C 272.619 187.054,259.719 207.165,223.317 236.190 C 215.781 242.199,203.289 252.157,195.556 258.319 C 162.424 284.723,146.812 303.761,138.826 327.495 C 122.094 377.226,154.454 417.312,202.123 405.904 C 220.325 401.547,226.751 394.192,239.191 363.473 C 249.392 338.283,255.076 331.984,290.385 306.743 C 368.892 250.621,392.819 216.334,392.723 160.096 C 392.638 110.565,374.894 74.082,336.538 44.577 C 298.527 15.336,228.999 -1.833,172.115 3.975 M177.404 460.258 C 110.445 474.850,103.991 563.665,168.258 586.119 C 217.144 603.198,266.581 553.330,249.656 504.012 C 239.476 474.349,205.938 454.039,177.404 460.258 " stroke="none" fill="#A17EE0" fill-rule="evenodd"></path></g></svg>