<svg id="svg" version="1.1" xmlns="http://www.w3.org/2000/svg" xmlns:xlink="http://www.w3.org/1999/xlink" width="400" height="400" viewBox="0, 0, 400,400"><g id="svgg"><path id="path0" d="M184.726 28.432 C 79.058 37.170,6.335 138.807,32.201 241.600 C 40.204 273.405,59.284 305.274,82.961 326.384 C 180.747 413.571,333.669 367.272,365.187 240.937 C 366.851 234.264,366.365 231.456,363.146 229.160 L 361.800 228.200 337.079 228.091 C 306.722 227.957,309.515 227.234,306.471 236.022 C 282.573 305.025,203.647 334.475,140.937 297.787 C 93.497 270.033,72.531 211.943,91.430 160.624 C 111.371 106.476,167.689 75.822,224.400 88.247 C 241.626 92.022,258.836 100.830,273.129 113.188 L 276.058 115.721 259.651 132.160 C 241.076 150.773,241.048 150.809,241.096 156.177 C 241.158 163.191,245.931 169.499,252.153 170.790 C 256.291 171.649,358.631 171.143,360.928 170.253 C 363.405 169.293,367.352 165.638,368.728 163.031 L 369.800 161.000 369.906 107.130 C 370.010 53.692,370.005 53.243,369.192 51.071 C 367.190 45.720,361.726 42.200,355.422 42.200 C 349.627 42.200,350.041 41.890,332.389 59.460 C 323.912 67.897,316.834 74.800,316.659 74.800 C 316.483 74.800,314.955 73.543,313.263 72.008 C 279.061 40.975,230.820 24.621,184.726 28.432 " stroke="none" fill="#A17EE0" fill-rule="evenodd"></path></g></svg>