<svg id="svg" version="1.1" xmlns="http://www.w3.org/2000/svg" xmlns:xlink="http://www.w3.org/1999/xlink" width="400" height="423.2502965599051" viewBox="0, 0, 400,423.2502965599051"><g id="svgg"><path id="path0" d="M182.094 0.932 C 172.446 2.697,170.420 4.126,153.207 21.317 C 138.942 35.564,138.111 36.490,136.280 40.196 C 131.217 50.445,131.659 63.627,137.401 73.593 C 138.822 76.060,146.957 84.450,180.717 118.268 L 222.284 159.905 124.640 159.905 C 16.891 159.905,23.820 159.712,17.631 162.885 C 10.329 166.629,4.541 173.668,1.546 182.444 L 0.251 186.240 0.101 210.425 C -0.030 231.582,0.050 235.057,0.739 238.183 C 3.438 250.423,11.677 259.785,22.779 263.230 C 25.188 263.977,32.819 264.057,123.507 264.285 L 221.629 264.531 180.684 305.763 C 157.552 329.057,138.966 348.151,137.963 349.654 C 130.915 360.206,131.011 376.071,138.189 387.080 C 140.855 391.168,159.502 410.377,165.536 415.251 C 178.214 425.492,195.635 426.156,208.468 416.889 C 213.260 413.429,392.835 233.280,394.710 230.052 C 400.728 219.691,400.918 205.959,395.195 194.887 C 393.458 191.528,213.720 10.969,208.005 6.843 C 201.138 1.886,190.344 -0.577,182.094 0.932 " stroke="none" fill="#FCF28C" fill-rule="evenodd"></path></g></svg>