<svg id="svg" version="1.1" xmlns="http://www.w3.org/2000/svg" xmlns:xlink="http://www.w3.org/1999/xlink" width="400" height="400" viewBox="0, 0, 400,400"><g id="svgg"><path id="path0" d="M41.577 0.609 C 12.904 5.429,-5.768 34.320,1.504 62.612 C 5.707 78.961,18.678 92.824,34.375 97.745 C 42.817 100.392,34.452 100.183,136.513 100.300 L 228.691 100.405 120.080 209.089 C 32.862 296.366,11.090 318.350,9.545 320.703 C -1.462 337.465,-2.146 358.044,7.750 374.753 C 22.937 400.394,56.941 407.085,81.277 389.220 C 82.659 388.205,132.437 338.757,191.895 279.335 L 300.000 171.295 300.001 263.284 C 300.003 364.554,299.854 358.202,302.394 365.820 C 317.543 411.269,383.096 411.205,397.666 365.726 C 400.187 357.860,400.000 372.894,400.000 177.683 L 400.000 0.000 222.363 0.040 C 74.834 0.073,44.193 0.169,41.577 0.609 " stroke="none" fill="#FCF28C" fill-rule="evenodd"></path></g></svg>