<svg id="svg" version="1.1" xmlns="http://www.w3.org/2000/svg" xmlns:xlink="http://www.w3.org/1999/xlink" width="400" height="400" viewBox="0, 0, 400,400"><g id="svgg"><path id="path0" d="M340.985 0.606 C 323.116 3.842,308.173 16.842,302.394 34.180 C 299.854 41.798,300.003 35.446,300.001 136.716 L 300.000 228.705 191.895 120.665 C 132.437 61.243,82.659 11.795,81.277 10.780 C 56.941 -7.085,22.937 -0.394,7.750 25.247 C -2.146 41.956,-1.462 62.535,9.545 79.297 C 11.090 81.650,32.862 103.634,120.080 190.911 L 228.691 299.595 136.513 299.700 C 49.434 299.800,44.152 299.845,41.016 300.510 C -10.303 311.389,-14.577 382.118,35.136 397.822 C 42.504 400.149,29.343 399.997,222.754 399.998 L 400.000 400.000 400.000 222.317 C 400.000 65.781,399.930 44.232,399.411 41.259 C 394.672 14.078,368.221 -4.326,340.985 0.606 " stroke="none" fill="#FCF28C" fill-rule="evenodd"></path></g></svg>