<svg id="svg" version="1.1" xmlns="http://www.w3.org/2000/svg" xmlns:xlink="http://www.w3.org/1999/xlink" width="400" height="400" viewBox="0, 0, 400,400"><g id="svgg"><path id="path0" d="M50.123 33.008 C 50.622 48.016,55.195 53.002,69.134 53.731 L 76.563 54.119 76.563 61.460 C 76.563 73.824,82.478 81.940,91.545 82.014 C 93.885 82.033,93.975 82.438,94.908 97.263 C 97.138 132.659,110.234 157.557,141.805 186.428 C 156.858 200.193,156.545 202.582,137.710 217.740 C 110.372 239.742,97.459 267.612,94.079 311.914 C 93.621 317.910,93.596 317.969,91.435 317.969 C 82.289 317.969,76.608 325.775,76.580 338.383 L 76.563 345.907 69.336 346.224 C 54.949 346.855,50.014 352.556,50.004 368.555 L 50.000 375.781 200.000 375.781 L 350.000 375.781 350.000 367.156 C 350.000 351.687,344.568 346.109,329.492 346.098 L 323.438 346.094 323.438 338.435 C 323.438 326.201,317.595 318.002,308.859 317.976 L 306.390 317.969 305.909 311.133 C 302.917 268.643,289.274 239.767,261.719 217.608 C 250.869 208.882,246.220 202.764,247.250 198.567 C 247.570 197.262,253.842 190.500,264.035 180.469 C 293.454 151.515,303.040 130.704,305.871 89.648 C 306.382 82.239,306.448 82.031,308.301 82.031 C 317.453 82.031,323.392 73.976,323.420 61.523 L 323.438 53.906 329.155 53.906 C 344.353 53.906,350.000 48.202,350.000 32.851 L 350.000 24.219 199.916 24.219 L 49.831 24.219 50.123 33.008 M281.250 84.406 C 281.250 93.890,277.710 113.640,274.045 124.609 C 268.266 141.901,261.085 151.334,240.411 168.787 C 216.536 188.943,215.822 210.299,238.388 229.337 C 251.004 239.981,263.426 253.065,267.071 259.547 C 274.538 272.827,281.250 299.544,281.250 315.985 L 281.250 317.969 266.914 317.969 L 252.578 317.969 252.084 311.133 C 250.710 292.114,243.841 279.173,221.919 254.297 C 207.859 238.342,206.200 234.753,206.197 220.287 C 206.192 199.185,209.989 190.114,227.245 170.002 C 235.869 159.950,237.882 156.878,238.777 152.406 L 239.258 150.000 200.426 150.000 L 161.595 150.000 162.143 152.539 C 163.098 156.964,165.282 160.327,172.673 168.750 C 190.423 188.979,194.701 198.960,194.773 220.313 C 194.824 235.227,193.661 237.647,177.764 255.722 C 157.190 279.115,150.305 292.301,148.767 311.254 L 148.223 317.969 133.877 317.969 L 119.531 317.969 119.531 313.847 C 119.531 303.006,123.489 282.840,127.845 271.484 C 133.353 257.127,137.306 252.065,157.468 233.551 C 174.715 217.715,178.125 211.862,178.125 198.102 C 178.125 186.612,175.984 183.664,149.850 159.166 C 129.939 140.502,121.775 121.726,119.794 90.039 L 119.294 82.031 200.272 82.031 L 281.250 82.031 281.250 84.406 " stroke="none" fill="#A17EE0" fill-rule="evenodd"></path></g></svg>