<svg id="svg" version="1.1" xmlns="http://www.w3.org/2000/svg" xmlns:xlink="http://www.w3.org/1999/xlink" width="400" height="301.4" viewBox="0, 0, 400,301.4"><g id="svgg"><path id="path0" d="M208.900 8.527 C 164.131 9.516,123.265 21.399,91.200 42.753 C 22.826 88.288,17.904 163.385,80.039 213.038 C 81.557 214.252,82.800 215.352,82.800 215.483 C 82.800 216.926,80.380 225.025,78.687 229.249 C 72.295 245.191,57.709 261.664,34.900 278.699 C 27.697 284.079,16.054 291.862,12.033 293.986 C 11.776 294.121,11.604 294.270,11.650 294.317 C 11.696 294.363,18.432 291.042,26.617 286.935 C 66.912 266.723,98.670 252.275,126.797 241.362 L 129.093 240.471 130.594 241.049 C 163.340 253.658,206.742 258.365,245.333 253.492 C 337.833 241.811,400.887 182.354,389.884 117.185 C 379.231 54.082,300.003 6.516,208.900 8.527 M227.400 18.898 C 335.624 24.964,407.138 98.649,372.305 168.200 C 338.691 235.315,224.093 265.420,132.777 231.123 C 130.840 230.395,129.189 229.800,129.109 229.800 C 127.608 229.800,96.367 242.742,80.634 249.881 C 79.278 250.496,78.133 251.000,78.091 251.000 C 78.048 251.000,78.764 249.898,79.683 248.550 C 86.495 238.556,90.196 229.479,93.005 215.876 L 93.991 211.100 93.354 210.600 C 93.004 210.325,91.319 209.028,89.609 207.719 C 56.351 182.245,41.574 149.960,48.020 116.855 C 59.602 57.372,139.118 13.949,227.400 18.898 " stroke="white" fill="#fff" stroke-width="36" fill-rule="evenodd"></path></g></svg>