<svg id="svg" version="1.1" xmlns="http://www.w3.org/2000/svg" xmlns:xlink="http://www.w3.org/1999/xlink" width="400" height="353.46938775510205" viewBox="0, 0, 400,353.46938775510205"><g id="svgg"><path id="path0" d="M328.957 3.163 C 328.266 4.679,325.949 9.867,323.807 14.694 C 317.675 28.516,312.796 38.367,312.083 38.367 C 311.739 38.367,308.558 37.288,305.015 35.968 C 286.850 29.205,273.504 25.853,252.653 22.817 C 237.673 20.636,202.828 21.435,186.327 24.337 C 45.007 49.192,-36.938 196.442,16.111 330.204 C 19.998 340.005,27.933 355.792,27.188 352.242 C 23.037 332.467,24.752 304.272,31.456 282.041 C 49.013 223.821,95.608 182.636,156.195 171.785 C 162.247 170.701,189.801 170.193,199.388 170.989 C 210.512 171.913,233.307 178.064,244.592 183.188 C 248.545 184.983,248.697 184.316,239.617 205.061 C 234.436 216.898,232.973 220.408,233.219 220.408 C 233.562 220.408,249.535 215.026,270.204 207.947 C 282.439 203.756,295.296 199.352,298.776 198.161 C 337.556 184.884,399.572 163.357,399.928 163.047 C 400.283 162.739,342.203 26.279,331.705 2.755 C 330.405 -0.156,330.474 -0.167,328.957 3.163 " stroke="none" fill="#FCF28C" fill-rule="evenodd"></path></g></svg>