<svg id="svg" version="1.1" xmlns="http://www.w3.org/2000/svg" xmlns:xlink="http://www.w3.org/1999/xlink" width="400" height="353.46938775510205" viewBox="0, 0, 400,353.46938775510205"><g id="svgg"><path id="path0" d="M68.327 2.683 C 57.747 26.397,-0.284 162.739,0.072 163.047 C 0.308 163.253,14.733 168.298,47.786 179.736 C 78.256 190.280,85.645 192.828,101.224 198.161 C 104.704 199.352,117.561 203.756,129.796 207.947 C 150.465 215.026,166.438 220.408,166.781 220.408 C 167.027 220.408,165.564 216.898,160.383 205.061 C 151.303 184.316,151.455 184.983,155.408 183.188 C 166.693 178.064,189.488 171.913,200.612 170.989 C 210.199 170.193,237.753 170.701,243.805 171.785 C 304.392 182.636,350.987 223.821,368.544 282.041 C 375.248 304.272,376.963 332.467,372.812 352.242 C 372.366 354.370,373.948 351.696,377.760 343.878 C 417.186 263.030,403.635 164.239,343.888 96.939 C 305.100 53.248,248.712 25.321,192.611 22.016 C 180.091 21.279,154.845 21.726,147.347 22.817 C 126.496 25.853,113.150 29.205,94.985 35.968 C 86.863 38.992,87.776 39.210,84.950 33.571 C 82.602 28.886,80.916 25.212,73.663 8.980 C 69.359 -0.653,69.658 -0.300,68.327 2.683 " stroke="none" fill="#FCF28C" fill-rule="evenodd"></path></g></svg>