<svg id="svg" version="1.1" xmlns="http://www.w3.org/2000/svg" xmlns:xlink="http://www.w3.org/1999/xlink" width="400" height="378.02690582959644" viewBox="0, 0, 400,378.02690582959644"><g id="svgg"><path id="path0" d="M195.140 0.931 C 191.518 1.401,188.480 2.391,184.529 4.388 C 181.057 6.143,10.810 175.433,6.467 181.448 C -0.598 191.234,-1.408 204.612,4.380 215.919 C 7.049 221.134,32.821 246.681,37.988 249.233 C 47.674 254.018,60.132 253.600,69.550 248.174 C 71.882 246.830,79.811 239.143,111.771 207.237 L 151.121 167.954 151.121 260.234 C 151.121 362.064,150.939 355.516,153.937 361.364 C 157.476 368.265,164.128 373.736,172.422 376.566 L 176.009 377.790 198.865 377.932 C 218.861 378.055,222.145 377.980,225.099 377.328 C 236.666 374.778,245.514 366.992,248.770 356.499 C 249.476 354.222,249.552 347.010,249.767 261.304 L 250.000 168.573 288.967 207.268 C 310.981 229.130,329.027 246.694,330.446 247.643 C 340.419 254.303,355.412 254.212,365.817 247.429 C 369.680 244.909,387.834 227.287,392.440 221.584 C 402.118 209.603,402.746 193.139,393.989 181.011 C 390.718 176.482,220.465 6.772,217.415 5.000 C 211.108 1.336,203.179 -0.112,195.140 0.931 " stroke="none" fill="#FCF28C" fill-rule="evenodd"></path></g></svg>