<svg xmlns="http://www.w3.org/2000/svg" xmlns:xlink="http://www.w3.org/1999/xlink" version="1.1" width="159.2639503479004" height="195.73926162719727" viewBox="-0.3768796920776367 -0.24060845375061035 159.2639503479004 195.73926162719727">
  <!-- Exported by Scratch - http://scratch.mit.edu/ -->
  <g id="ID0.4190730070695281">
    <path id="ID0.6214382075704634" fill="#272525" d="M 78.6563 182.2965 C 75.8938 186.0843 71.5761 189.0025 66.7084 188.7821 C 64.31 188.6729 62.7043 187.0833 60.688 186.7598 C 59.5676 186.5757 58.8962 188.6122 58.0105 189.0875 C 55.2419 188.5879 52.7626 187.146 50.2367 185.9893 C 50.1861 185.425 52.1154 177.352 52.5037 176.4824 C 56.429 177.5926 60.4676 179.0487 64.6133 178.4521 C 67.6205 182.9275 78.6563 182.2965 78.6563 182.2965 Z " stroke-width="2.0223121643066406"/>
    <path id="ID0.35820108419284225" fill="#53C73B" d="M 74.5712 184.0802 C 66.8015 190.0865 63.0865 184.4503 60.7689 183.5868 C 58.2329 182.6464 58.8335 187.7467 54.8435 185.146 C 52.7039 183.7546 54.6959 179.0143 55.3734 176.8464 C 57.784 177.4268 60.2249 177.9951 62.7225 177.985 C 64.041 179.9729 69.3213 184.5555 74.5712 184.0802 Z " stroke-width="2.0223121643066406"/>
    <path id="ID0.00036315666511654854" fill="#9100C1" d="M 61.3235 56.1876 C 38.1821 62.2748 21.7347 73.0456 11.2369 95.9867 C 7.1882 104.9557 9.0892 110.9498 7.7666 120.6549 C 5.451 137.2682 7.4349 146.9692 8.7595 163.7443 C 9.1721 169.5867 6.6118 171.6374 10.7414 175.7528 C 17.7669 182.7439 26.1979 183.1504 36.1983 181.5163 C 54.0492 179.0431 63.8857 175.4312 79.5081 166.7211 C 84.7985 163.7544 93.4499 161.5662 90.7481 156.199 C 86.4507 147.6467 83.6397 139.7455 80.1694 128.8978 C 77.5242 120.5113 87.3607 117.0592 91.739 109.4836 C 95.7897 102.5774 93.8058 104.0476 93.2275 95.9968 C 92.5662 86.7892 80.7478 76.9163 78.1855 68.0404 C 75.9529 60.301 69.0082 54.1693 61.3235 56.1876 Z " stroke-width="2.0223121643066406"/>
    <path id="ID0.6610625782050192" fill="#9100C1" d="M 77.3584 72.633 C 73.6818 74.8131 70.5816 74.1943 66.448 72.9627 C 63.0606 71.9778 59.7541 71.4419 58.8441 68.0303 C 57.0685 61.4112 56.9856 56.8893 59.5054 50.5979 C 60.8684 47.1438 63.3478 45.7039 63.9686 42.0456 C 64.5875 38.4256 62.0272 36.5772 60.6622 33.1636 C 59.5883 30.4092 57.8107 26.8317 55.0422 27.9015 C 52.397 28.9309 49.7113 28.1482 47.9358 25.9277 C 40.4957 31.2727 35.8282 34.2334 26.7783 36.1242 C 23.0593 36.8664 20.4546 34.3567 18.3473 31.1918 C 16.1147 27.8206 22.1068 25.7639 25.7874 23.956 C 34.2993 19.7213 36.6978 14.172 43.8042 8.004 C 50.7468 1.9593 58.4336 0.932 66.9455 4.2223 C 75.5403 7.5085 80.9965 7.4296 90.0868 9.3205 C 97.9394 10.9647 102.526 12.5279 110.4191 11.2943 C 118.478 10.0202 126.99 10.0627 130.4218 17.3794 C 132.2824 21.3674 130.9173 24.7406 128.7676 28.5628 C 127.1558 31.4406 126.9515 33.9887 123.9767 35.469 C 118.1909 30.5366 120.0089 26.4232 115.8774 24.2856 C 113.7924 23.2077 112.2412 24.6153 109.9257 25.1107 C 101.4947 26.9591 96.2468 27.7397 89.4275 33.0018 C 84.2221 37.0302 82.1128 40.3205 78.683 45.8313 C 74.6343 52.327 73.5584 59.7287 78.3534 65.7289 L 77.3584 72.633 Z " stroke-width="2.0223121643066406"/>
    <path id="ID0.9744440978392959" fill="#FFDEAE" d="M 86.9462 35.1373 C 92.73 40.8949 93.0616 46.6079 93.0616 54.5414 C 91.3265 54.4605 88.5155 54.5414 88.93 56.1856 C 89.6318 58.94 90.2506 60.5841 90.2506 63.4234 C 89.1363 62.9704 88.5984 62.5195 87.4416 61.9431 L 90.5823 69.5106 C 92.6491 68.6875 92.0282 67.2072 93.8888 66.0565 C 95.996 64.7804 99.0962 65.3568 99.345 62.93 C 99.4703 61.7388 98.0628 61.4921 97.5269 60.4628 C 102.611 57.9571 105.7921 56.681 111.0825 57.3383 C 112.2109 57.4799 111.9905 58.9824 112.9005 59.6397 C 116.662 62.4365 119.3476 63.7531 123.9767 64.4103 C 129.6776 65.1889 135.2592 64.1636 137.8619 58.9824 C 140.2583 54.2158 131.8698 53.1036 127.6149 49.9366 C 129.8879 49.609 129.7221 46.525 129.1013 44.3449 C 128.1912 41.18 126.3691 39.906 124.636 37.1111 C 121.6187 32.2596 120.4215 29.1331 116.7004 24.775 C 115.214 23.048 112.9814 23.9115 110.7508 24.4454 C 107.1551 25.3109 95.2113 28.2291 86.9462 35.1373 Z " stroke-width="2.0223121643066406"/>
    <path id="ID0.6950778518803418" fill="#FFFFFF" d="M 87.112 34.6439 C 89.5913 35.8775 89.7976 37.8917 90.5823 40.3994 C 92.3174 45.9102 92.6895 49.1156 93.3933 54.8711 C 91.7006 54.8711 90.6247 54.7882 89.0959 54.05 C 89.3871 57.7913 90.4185 60.7904 87.9391 63.5872 C 89.3021 65.3952 89.1383 67.0818 90.4185 69.0151 C 93.9312 67.1222 95.6664 65.4377 99.345 63.9169 C 98.807 62.2303 96.451 61.2029 97.5269 59.8055 C 99.1387 57.7084 101.3693 58.3656 103.974 57.8317 C 107.776 57.0511 109.6345 57.6679 112.7367 59.9693 C 119.0585 64.655 127.2407 66.6692 133.8921 62.2727 C 138.8528 66.7542 141.4131 69.9171 143.8095 76.168 L 138.1915 76.168 L 140.5091 85.0905 L 136.5413 85.0905 L 145.6337 98.2861 C 144.1473 99.1516 142.6528 98.9069 141.6659 100.2619 C 144.2281 102.1548 148.4447 101.9889 148.2788 105.1923 C 148.1535 107.4997 145.3526 109.3522 146.9603 110.9518 C 148.659 112.6425 150.3497 112.8487 152.0869 114.5697 C 156.8413 119.2979 158.0304 128.1779 152.2527 131.5106 C 150.9665 124.9786 144.1088 124.5235 137.7001 122.9583 L 137.7001 127.2314 C 127.5764 128.0545 124.8928 119.5021 116.2131 113.7466 L 115.0543 120.1614 C 110.1785 118.5577 108.1117 115.5586 105.6323 111.1095 C 103.1125 106.5472 99.806 104.8646 98.5239 99.7684 C 96.7058 101.1234 96.3337 102.6482 94.5581 104.0395 C 89.1444 96.5954 89.021 90.6802 87.1201 81.6687 C 84.4344 81.6687 83.2352 85.5779 80.8388 84.4676 C 79.4757 83.8468 79.7649 82.2876 79.3524 80.8497 C 78.319 77.3106 77.8235 75.2964 77.5343 71.634 C 76.9964 64.562 78.4828 60.3697 76.5414 53.5444 C 76.5312 45.17 81.4091 40.8949 87.112 34.6439 Z " stroke-width="2.0223121643066406"/>
    <path id="ID0.7297148094512522" fill="#FFDEAE" d="M 36.0324 133.4844 C 33.5531 138.5806 30.7845 141.335 31.735 146.6396 C 32.1496 148.9814 34.1739 150.9592 36.5299 150.4213 C 39.0093 149.849 39.1751 147.2159 39.8364 144.8276 C 40.4977 148.49 43.1833 153.1271 46.779 152.3951 C 50.2513 151.6529 47.689 147.5435 48.2654 144.0065 C 51.7781 144.87 55.4163 147.5031 57.5235 144.6658 C 58.8461 142.8963 56.9452 141.0479 55.7055 139.2359 C 54.4658 137.3855 53.9299 136.1539 52.399 134.4673 C 54.9613 132.7847 57.4831 132.3721 58.5165 129.5348 C 59.1778 127.7694 58.3911 125.4275 56.5326 125.0999 C 53.2281 124.4791 51.6568 127.4074 48.4332 128.3862 C 46.8215 128.8796 46.4089 126.6996 45.1268 125.5893 C 41.2015 122.1777 36.987 124.2323 31.9029 124.9341 C 30.4144 125.1444 28.7622 124.7258 28.1009 126.0827 C 27.6055 127.1141 29.2172 127.642 30.0848 128.3862 C 32.3559 130.4004 33.636 131.5915 36.0324 133.4844 Z " stroke-width="2.0223121643066406"/>
    <path id="ID0.3979726177640259" fill="#FFA100" d="M 20.9905 110.4604 C 14.875 108.4462 11.6919 105.3217 5.2872 105.5259 C 3.8817 105.5684 2.642 106.7596 2.8058 108.159 C 3.3842 112.8872 12.3107 117.9025 13.882 113.4251 C 16.238 113.4211 19.8762 112.5151 20.9905 110.4604 Z " stroke-width="2.0223121643066406"/>
    <path id="ID0.6019481406547129" fill="#FFA100" d="M 74.0519 128.3862 C 69.4653 128.3862 66.903 127.4397 62.3164 127.2415 C 60.7046 127.1606 59.6308 127.9433 58.1828 127.2415 C 56.0331 126.1758 54.2171 125.5145 52.0673 126.5863 C 49.3392 127.9433 46.3644 127.6541 44.2976 125.4417 C 43.5534 124.6206 41.9012 124.2101 42.3157 123.1322 C 43.1004 121.118 45.6627 122.1028 47.6041 121.1524 C 49.3817 120.2908 50.7043 118.5213 52.397 119.5102 C 61.4893 124.9442 68.8444 119.3484 79.3423 119.3484 C 81.8641 119.3484 83.6397 118.2382 85.7894 119.5102 C 87.3183 120.4162 86.5336 122.7196 85.4577 124.115 C 82.5254 127.8502 78.8043 128.0141 74.0519 128.3862 Z " stroke-width="2.0223121643066406"/>
    <path id="ID0.4532589968293905" fill="#FFFFFF" d="M 114.2211 47.0609 C 113.9117 48.4078 112.2372 50.5979 109.6749 50.515 C 108.2633 50.4685 107.3715 48.5817 107.0297 47.2267 L 114.2211 47.0609 Z " stroke-width="2.0223121643066406"/>
    <path id="ID0.8345099529251456" fill="#272525" d="M 116.0371 46.3207 C 115.3778 50.7597 112.3808 52.4038 109.3433 52.4038 C 106.512 52.4038 105.1894 49.7101 104.6313 46.8951 L 116.0371 46.3207 Z " stroke-width="2.0223121643066406"/>
    <path id="ID0.7083148490637541" fill="#272525" d="M 131.164 46.7333 C 131.2874 48.1509 130.256 49.3239 128.8485 49.5281 C 127.176 49.7748 125.5015 48.6221 125.089 46.978 C 124.9029 46.1974 124.6137 45.7666 124.8827 45.0042 C 125.1517 44.2014 126.268 44.9617 127.1153 45.17 C 128.7655 45.5806 131.0224 45.0467 131.164 46.7333 Z " stroke-width="2.0223121643066406"/>
    <path id="ID0.018777375109493732" fill="#FFFFFF" d="M 126.3287 45.7039 C 126.3287 46.8162 126.6179 48.0276 127.7362 48.1307 C 128.6847 48.2116 129.3864 47.5119 129.5927 46.5675 L 126.3287 45.7039 Z " stroke-width="2.0223121643066406"/>
    <path id="ID0.7915905532427132" fill="#272525" d="M 112.9814 47.6352 C 113.4142 47.6352 113.8065 47.7829 114.0917 48.0215 C 114.3748 48.2601 114.5507 48.5877 114.5507 48.9518 C 114.5507 49.3158 114.3748 49.6434 114.0917 49.882 C 113.8065 50.1207 113.4142 50.2683 112.9814 50.2683 C 112.5486 50.2683 112.1563 50.1207 111.8712 49.882 C 111.588 49.6434 111.4121 49.3158 111.4121 48.9518 C 111.4121 48.5877 111.588 48.2601 111.8712 48.0215 C 112.1563 47.7829 112.5486 47.6352 112.9814 47.6352 Z " stroke-width="2.0223121643066406"/>
    <path id="ID0.5966210798360407" fill="#272525" d="M 128.5997 46.6463 C 128.8505 46.6463 129.077 46.7474 129.2408 46.9133 C 129.4066 47.0771 129.5077 47.3036 129.5077 47.5543 C 129.5077 47.8051 129.4066 48.0316 129.2408 48.1954 C 129.077 48.3612 128.8505 48.4624 128.5997 48.4624 C 128.349 48.4624 128.1225 48.3612 127.9586 48.1954 C 127.7928 48.0316 127.6917 47.8051 127.6917 47.5543 C 127.6917 47.3036 127.7928 47.0771 127.9586 46.9133 C 128.1225 46.7474 128.349 46.6463 128.5997 46.6463 Z " stroke-width="2.0223121643066406"/>
    <path id="ID0.252952110953629" fill="#FFFFFF" d="M 54.3829 88.7488 L 62.3164 82.8316 L 60.9938 91.0523 L 74.5474 97.3032 L 60.6622 95.9867 L 66.2822 110.4604 L 59.0099 104.5391 L 54.0512 109.1439 L 56.0331 96.9756 L 43.4725 100.5895 L 52.0673 92.7004 L 45.786 83.8144 L 54.3829 88.7488 " stroke-width="2.0223121643066406"/>
    <path id="ID0.8529418264515698" fill="#FFFFFF" d="M 19.0066 165.718 L 18.0156 150.5891 L 23.304 160.454 L 39.1751 155.5236 L 28.2647 165.3864 L 38.8434 167.3622 L 29.2557 170.3228 L 25.2879 177.5587 L 23.6357 169.338 L 14.7092 173.6111 L 19.0066 165.718 " stroke-width="2.0223121643066406"/>
    <path id="ID0.5141116785816848" fill="#FFFFFF" d="M 70.074 133.0779 C 66.3044 153.39 77.1925 160.454 77.1925 160.454 C 77.1925 160.454 62.9555 158.6885 62.9555 150.7388 C 62.9555 142.7891 70.074 133.0779 70.074 133.0779 Z " stroke-width="2.0223121643066406"/>
    <path id="ID0.7866597953252494" fill="#FFFFFF" d="M 60.83 14.2529 L 61.3235 8.4934 L 67.9364 12.1133 L 81.49 11.7837 L 71.9042 14.2529 L 73.3926 22.9691 L 69.0932 16.3905 L 65.6229 27.0784 L 64.6299 17.0478 L 53.7196 17.0478 L 60.83 14.2529 " stroke-width="2.0223121643066406"/>
    <path id="ID0.9687107154168189" fill="#FFFFFF" d="M 25.6195 25.5981 L 22.4789 30.8622 L 28.5944 27.4081 L 35.8666 28.395 L 33.2234 24.2816 L 39.3409 19.6788 L 32.2305 20.0084 L 25.6195 25.5981 " stroke-width="2.0223121643066406"/>
    <path id="ID0.034071147441864014" fill="#FFFFFF" d="M 88.4346 92.3688 L 75.87 92.0412 L 85.4577 97.3032 L 81.9874 109.1439 L 93.0616 103.3884 L 88.4346 92.3688 " stroke-width="2.0223121643066406"/>
    <path id="ID0.6214382075704634" fill="#272525" d="M 51.6063 187.6965 C 48.8438 191.4843 44.5261 194.4025 39.6584 194.1821 C 37.26 194.0729 35.6543 192.4833 33.638 192.1598 C 32.5176 191.9757 31.8462 194.0122 30.9605 194.4875 C 28.1919 193.9879 25.7126 192.546 23.1867 191.3893 C 23.1361 190.825 25.0654 182.752 25.4537 181.8824 C 29.379 182.9926 33.4176 184.4487 37.5633 183.8521 C 40.5705 188.3275 51.6063 187.6965 51.6063 187.6965 Z " stroke-width="2.0223121643066406"/>
    <path id="ID0.35820108419284225" fill="#53C73B" d="M 47.5212 189.4802 C 39.7515 195.4865 36.0365 189.8503 33.7189 188.9868 C 31.1829 188.0464 31.7835 193.1467 27.7935 190.546 C 25.6539 189.1546 27.6459 184.4143 28.3234 182.2464 C 30.734 182.8268 33.1749 183.3951 35.6725 183.385 C 36.991 185.3729 42.2713 189.9555 47.5212 189.4802 Z " stroke-width="2.0223121643066406"/>
    <path id="ID0.13978398405015469" fill="#272525" d="M 110.0935 10.8251 C 110.1663 15.6888 89.2091 11.2316 86.0523 11.0597 C 70.7939 10.2285 57.2687 -5.0784 44.6717 11.0597 C 37.9233 19.7031 29.9574 24.6456 20.3939 29.489 C 19.8175 29.7802 19.3301 30.3627 18.8974 30.8217 C 19.1623 33.0382 22.491 34.4336 24.4163 34.9007 C 32.4347 36.8381 41.7616 30.209 46.8801 24.7851 L 47.1167 16.8637 C 49.5111 17.1287 47.0217 25.3777 51.4526 26.4313 C 54.3222 27.1128 60.2597 22.508 62.6461 21.0196 L 63.5925 21.0196 C 63.6431 22.7305 59.6813 25.5111 58.468 26.8216 C 60.4923 29.1594 68.3348 40.5895 62.9615 42.1143 C 60.4195 42.8363 57.4143 31.7662 55.394 29.489 C 54.118 29.9724 51.8267 30.2838 50.5061 29.8814 C 49.1249 29.4587 49.046 27.7458 47.8265 28.1543 C 45.4625 28.9491 40.7444 36.646 35.2154 38.5065 C 30.8229 39.9828 25.3465 40.3711 21.3423 37.7219 C 17.9752 35.4953 12.0579 30.8278 16.0621 26.2736 C 18.3008 23.7234 27.2859 22.1278 31.1971 19.2925 C 38.3419 14.1114 43.0438 4.8108 51.6103 2.0402 C 66.3732 -2.7325 76.5879 7.4296 90.6247 8.2366 C 97.0476 8.6066 104.2652 7.4438 110.0935 10.8251 Z " stroke-width="2.0223121643066406"/>
    <path id="ID0.6837043510749936" fill="#272525" d="M 76.1551 71.088 C 76.9984 69.7533 76.1005 68.1111 76.9438 66.7744 C 61.912 72.631 54.3606 47.2854 75.8396 51.7183 C 78.681 35.7137 94.2912 27.5112 104.5302 23.8003 C 106.512 23.0844 119.7359 19.6667 117.2222 25.3696 C 101.4664 25.6426 81.2978 36.1546 77.1015 52.4241 C 78.7558 53.5889 80.859 55.0773 80.7275 57.3646 C 80.6365 58.9521 80.0339 60.7439 79.8418 62.3759 C 79.3483 66.5985 79.3948 77.9234 81.2776 81.5959 C 81.3464 81.7314 89.2395 77.8324 89.2395 77.8324 C 89.0777 85.859 88.6348 95.3315 94.364 101.7523 C 95.7331 100.5308 97.1507 99.277 98.8556 98.5368 C 101.705 105.7403 107.1005 112.3148 113.9905 116.0217 C 115.2909 113.9185 115.8834 109.1216 115.8834 109.1216 C 119.6227 116.0298 126.9616 122.0543 134.8001 123.5528 C 133.7748 121.3829 133.3966 118.946 131.9628 116.9641 C 134.2602 117.4717 135.7466 119.6397 137.8801 120.5719 C 143.3161 122.9401 151.0575 122.1676 153.7209 128.645 C 156.3539 116.0622 145.4941 112.9519 140.4788 107.2368 C 141.6578 105.5583 143.9733 106.0153 145.6053 105.1195 C 141.5729 102.1285 133.5483 95.5559 133.5483 95.5559 C 136.0257 94.7551 138.2643 96.2961 140.7174 96.2617 C 138.7194 91.0017 133.3036 85.4424 132.2095 82.148 C 134.4058 81.784 136.4443 82.8942 138.5899 83.0884 C 137.7466 79.9255 135.9589 77.072 134.2501 74.3055 C 134.2683 73.0961 142.495 74.9405 142.495 74.9405 C 141.9692 72.0627 136.9296 68.2487 135.2026 65.9938 L 137.4878 64.5013 C 140.6507 68.8149 145.0128 72.8009 146.1595 78.2268 C 144.392 78.3764 142.6305 77.9982 140.8812 77.8364 C 140.9884 81.1551 143.6194 83.7618 143.7165 87.0905 C 142.2362 87.2726 140.8812 86.4596 139.3786 86.7023 C 139.3786 86.7023 146.0361 95.4953 148.839 99.8756 L 142.8267 99.7785 C 145.2757 101.3216 150.6915 103.9951 152.465 106.3086 C 152.2062 108.4017 149.3203 107.346 148.2869 108.8911 C 156.3094 112.5009 163.8264 129.5409 150.8896 137.6686 C 152.9787 124.4164 146.75 128.4165 138.9863 125.6621 C 139.0652 127.1505 140.0905 128.4064 140.4848 129.824 C 130.0254 129.9737 122.6986 124.3294 116.6802 116.4141 C 116.4578 118.4323 117.0604 120.4304 116.838 122.4466 C 107.2401 119.8399 102.6656 109.4775 98.7079 101.3478 C 97.4015 103.2448 97.5471 105.7666 96.0284 107.5402 C 88.3112 103.1133 86.3455 91.6347 85.4658 83.7012 C 83.7792 84.7831 80.5779 88.405 80.5779 88.405 C 77.6536 84.4696 77.6597 79.3471 76.1632 74.8394 C 71.1054 76.6554 63.6896 75.8081 60.0838 71.4682 C 50.9733 60.4951 60.9716 42.264 68.99 33.5903 C 75.7082 26.3241 81.6012 20.8922 90.5883 16.6514 C 101.1185 11.6805 109.6911 9.2882 121.5661 10.457 C 125.817 10.8777 131.2833 14.3318 132.9153 18.3805 C 134.5676 22.4817 132.7192 32.9897 128.4218 35.0848 C 127.3156 35.6227 125.2912 34.2556 125.0324 33.202 C 124.8362 32.4032 130.895 26.4637 129.3662 20.419 C 128.7494 17.9821 125.9687 14.5138 123.457 13.8323 C 112.1017 10.7503 94.6896 17.974 85.3061 24.1825 C 74.7536 31.1675 60.5307 44.0295 59.374 57.3545 C 58.5124 67.1849 66.9495 73.0597 76.1551 71.088 Z " stroke-width="2.0223121643066406"/>
    <path id="ID0.8880664119496942" fill="#272525" d="M 128.5087 37.8594 C 132.3632 33.384 137.957 32.8663 141.5931 37.8594 C 140.4201 38.098 138.8104 39.6329 137.692 43.1963 C 135.1641 51.2612 128.4662 45.3622 123.2285 45.2307 L 120.7511 45.9082 C 120.8826 44.1124 122.0191 40.0111 123.7805 38.7977 C 121.3598 35.2991 119.7561 31.3354 118.3426 27.3494 L 119.287 26.9571 C 122.1708 30.7328 124.8443 34.7673 128.5087 37.8594 Z " stroke-width="2.0223121643066406"/>
    <path id="ID0.8772207787260413" fill="#272525" d="M 110.0491 35.8755 C 117.024 34.5185 119.3881 37.5439 120.6116 44.1872 C 124.8443 46.7636 137.328 52.6769 139.7669 56.1876 C 140.9014 57.8176 139.3867 61.6276 138.0338 62.7763 C 136.5656 64.02 132.614 66.2203 130.7029 66.3821 C 131.7606 69.9959 129.8455 72.995 128.0254 75.9476 C 118.019 70.4287 111.9298 68.3599 100.437 72.0284 C 106.0145 75.2317 115.4648 78.4715 122.5065 75.5573 C 122.7593 77.6585 127.4773 81.5373 127.2347 85.3655 C 125.6835 85.9136 123.9363 84.4797 122.5065 84.0328 C 122.7512 86.1805 124.5066 91.8167 121.5621 93.1271 C 120.8361 92.5791 121.4933 91.8956 121.5621 91.2383 C 121.8492 88.585 118.2758 84.1643 117.6206 81.2016 C 119.0767 80.6738 120.4619 80.9528 121.9564 81.0499 C 121.378 80.0772 120.4963 79.5514 119.4589 79.2804 C 116.1281 79.9558 113.6265 79.4705 111.3939 79.1631 C 108.2411 78.7404 99.8809 75.8465 98.1518 73.1245 C 97.3934 71.9273 99.9557 70.453 100.7525 69.909 C 106.5322 65.9695 118.5529 66.1091 124.2416 70.1436 C 125.3499 70.9282 126.3994 71.8908 127.4773 72.7321 C 128.6321 71.0698 128.3591 68.8392 128.4218 66.9281 C 119.3537 68.0262 112.3403 60.9299 110.2169 58.4587 C 106.4756 58.3838 102.6575 59.031 99.4966 61.1241 C 100.5887 62.0786 102.6514 62.6671 102.3339 64.4953 C 99.2641 65.6641 95.8019 66.376 93.4277 68.8088 C 94.275 69.4762 95.8079 68.9363 96.265 70.1415 C 94.6775 73.3752 93.1142 76.6433 92.0869 80.0994 C 91.7471 80.2026 91.3326 79.8891 91.2982 79.5514 C 91.0595 77.1468 91.921 73.1467 93.1911 71.0819 C 91.8705 70.3478 90.3497 70.0505 88.8552 69.9049 C 90.7562 66.2142 96.2872 63.9391 98.1558 63.5529 C 96.724 62.3334 95.1385 61.6094 93.5834 60.1817 C 98.0426 57.1482 109.1127 56.5739 109.1127 56.5739 C 108.8215 56.0379 107.9074 55.3564 108.324 54.6931 C 119.6854 64.653 130.6119 64.4912 135.7526 56.9682 C 131.9305 54.5617 122.822 48.7839 119.8512 46.8122 C 114.1806 45.3844 102.435 52.3796 98.8657 43.9506 C 97.7352 41.2791 98.0304 36.4498 93.1911 35.4791 C 97.0739 29.6731 106.6758 29.4668 110.0491 35.8755 Z " stroke-width="2.0223121643066406"/>
    <path id="ID0.440462464466691" fill="#FFFFFF" d="M 108.2694 38.7573 C 112.5567 41.8797 116.1342 35.2526 118.1686 43.9546 L 118.6014 45.1721 C 114.5264 44.3692 103.7192 47.8152 102.1539 43.0345 C 100.9972 39.4975 100.1316 36.4822 96.6492 34.9392 C 102.6251 29.9865 105.5514 36.7754 108.2694 38.7573 Z " stroke-width="2.0223121643066406"/>
    <path id="ID0.29329906729981303" fill="#FFFFFF" d="M 138.1086 37.0282 C 135.5059 38.9899 136.1369 45.5462 131.3298 44.8404 C 131.3298 44.8404 125.2144 43.1133 122.733 43.8535 C 123.3943 41.9606 124.7169 40.0718 127.2791 40.4823 C 132.9578 41.3924 133.4775 33.9037 138.1086 37.0282 Z " stroke-width="2.0223121643066406"/>
    <path id="ID0.9228317416273057" fill="#272525" d="M 90.738 55.7932 C 90.5924 58.4769 92.8028 61.6499 90.9746 64.107 C 90.372 63.9047 89.7167 63.7713 89.2395 63.3223 C 89.0231 64.2566 91.0191 68.2325 89.5913 68.3558 C 89.1849 65.8967 85.7045 63.4902 85.0614 61.1261 C 86.7823 60.7095 87.5913 61.1038 88.8451 61.1261 C 88.3456 58.0036 87.0331 55.0814 86.2424 52.0277 C 87.8744 51.6313 91.5226 51.872 91.5226 51.872 C 91.4458 47.3238 88.9766 41.2063 88.1009 36.7795 C 91.3811 35.2728 95.8969 52.145 96.4086 54.5394 C 96.9687 57.1421 91.9918 56.3797 90.738 55.7932 Z " stroke-width="2.0223121643066406"/>
    <path id="ID0.029125411063432693" fill="#FFDEAE" d="M 78.6769 57.128 C 77.8599 71.4803 64.1001 63.472 65.7503 57.3626 C 67.174 52.0843 76.3776 52.8144 78.6769 57.128 Z " stroke-width="2.0223121643066406"/>
    <path id="ID0.6605127989314497" fill="#272525" d="M 76.3917 58.0704 C 76.784 60.5012 73.7121 58.7741 73.0023 60.3434 C 73.791 61.205 74.8143 61.5973 75.9974 61.6761 L 75.9974 62.6165 C 73.9488 63.2455 70.4967 62.026 70.2499 59.9693 C 70.1003 58.7195 71.977 58.3009 73.0003 57.676 C 71.346 56.2644 69.532 57.3626 68.0335 56.7336 C 71.0771 54.5414 75.1298 55.7932 76.3917 58.0704 Z " stroke-width="2.0223121643066406"/>
    <path id="ID0.45127194514498115" fill="#272525" d="M 57.5215 56.8469 C 57.8997 57.9733 57.7824 59.304 56.9694 60.2181 C 36.0668 65.4478 15.2997 83.3614 11.6777 104.9658 C 13.5686 106.3571 20.7539 108.4664 21.9814 110.6222 C 19.7265 113.8255 8.5371 106.8506 5.8433 106.0598 C 5.3499 105.9183 4.5531 106.2681 4.5026 106.8465 C 4.2053 110.3754 12.5958 112.8144 14.871 114.0783 L 14.1631 116.2725 C 13.4776 116.7174 10.076 115.1238 9.3885 114.9257 C 7.7969 130.6471 11.8294 170.9194 11.8355 175.7002 C 25.2899 181.8338 63.641 183.8076 87.9007 156.8785 C 87.9148 156.8623 79.1785 137.1023 79.0126 129.1971 C 73.7425 130.1213 63.7624 129.7694 58.5064 128.9019 C 58.017 128.0161 58.0635 127.0049 58.3486 126.0787 C 65.635 127.3123 77.8538 127.6379 84.1351 123.9391 C 85.2717 123.2697 84.5598 120.6205 83.5568 120.7277 C 74.6727 121.6903 60.6783 123.7692 51.853 121.5083 C 49.4262 120.8814 51.0987 119.2514 52.5628 118.8429 C 64.0232 119.9309 83.4051 117.3565 83.4051 117.3565 C 84.6407 115.6254 91.3912 106.9557 92.8634 106.4501 C 93.6744 106.1711 93.8038 107.3157 94.1254 107.7828 C 94.0991 107.9426 87.8724 117.2857 86.9522 119.2312 C 89.3426 122.4608 88.4326 125.9149 81.8297 128.0929 C 82.4789 135.804 90.8452 151.0745 91.5226 151.7762 C 92.1314 150.7873 93.3913 150.6073 94.362 150.1321 C 95.5956 150.3323 94.9707 152.3647 94.7563 153.119 C 93.1344 158.7916 83.2231 168.0397 78.2826 171.2349 C 60.7673 182.5659 36.0183 188.5641 15.8558 181.1968 C 12.4442 179.9551 7.4511 179.4617 4.6623 177.1947 C 4.5855 176.3938 4.6603 175.4535 5.451 175.0005 C 8.535 175.4332 7.0244 171.4837 7.1073 169.6676 C 7.2549 166.3773 5.2892 118.8489 5.453 113.7547 C 4.5268 111.787 -0.0557 108.157 0.7229 105.6776 C 1.6228 102.7999 4.7574 103.0264 7.1093 103.6371 C 8.1104 102.2458 8.3045 100.5106 8.8424 98.9332 C 15.9387 78.0609 35.3732 60.4284 57.5215 56.8469 Z " stroke-width="2.0223121643066406"/>
    <path id="ID0.8263134639710188" fill="#272525" d="M 43.4422 68.9706 C 31.5409 79.3431 22.938 92.3789 24.3677 108.7293 C 28.7582 108.978 37.6847 107.3339 41.3936 106.4542 C 39.0072 94.836 38.2388 83.5313 48.5667 70.8514 C 49.3655 70.542 50.2351 69.2234 51.0097 69.911 C 51.2079 72.354 48.9206 73.9051 48.0146 75.9476 C 44.2208 84.502 42.1459 96.195 44.3886 105.3561 C 46.7749 105.7808 50.6821 102.7958 52.1907 105.6695 C 53.396 107.9628 55.3192 116.3089 55.7378 119.0795 C 48.775 124.0159 25.0492 129.098 16.5636 127.9392 C 14.6768 122.7257 12.5008 117.6173 13.4108 111.9468 C 15.3583 110.7819 17.7588 111.146 19.7953 110.2197 C 21.2109 91.9866 26.5134 77.254 43.4422 67.8725 L 43.4422 68.9706 Z " stroke-width="2.0223121643066406"/>
    <path id="ID0.2176390546374023" fill="#53C73B" d="M 50.0632 108.3349 C 50.9369 111.4473 52.2635 114.4727 52.3484 117.7387 C 45.784 120.6468 25.1504 123.2454 18.6911 123.5427 C 17.5323 120.6306 16.6587 117.2655 17.3523 114.141 C 23.5244 112.6404 45.3856 109.52 50.0632 108.3349 Z " stroke-width="2.0223121643066406"/>
    <path id="ID0.5753313940949738" fill="#272525" d="M 54.3991 135.08 C 54.3991 135.08 60.739 140.9002 59.3659 144.6456 C 57.8815 148.6902 53.3191 147.402 50.3019 146.5283 C 50.5809 149.6002 51.2402 151.9461 48.1744 153.663 C 44.514 155.7157 40.6453 149.9197 39.6605 147.0723 C 38.7342 148.6113 38.4471 150.5972 36.6674 151.4668 C 35.1891 152.1827 34.3822 151.4102 33.0414 150.5204 C 29.0008 145.2603 31.9797 139.5857 33.8301 134.2933 C 33.3003 132.7847 25.5204 128.4974 26.7803 126.4124 C 27.3547 125.4619 31.5732 126.0848 31.5732 126.0848 C 33.3427 127.7754 37.0274 131.4419 38.9547 132.9627 C 36.6391 136.8576 31.555 143.2987 34.7766 148.0188 C 35.0395 148.399 35.7331 148.4799 36.1174 148.2432 C 37.7999 147.2564 37.8828 140.6414 41.0033 138.4431 C 41.43 140.423 41.9578 150.8723 46.1278 149.578 C 49.5435 148.5243 45.2623 139.7617 45.5757 137.1064 C 46.872 137.1974 49.7619 144.3806 55.5862 144.0874 C 58.4437 141.2986 50.2594 137.2196 49.6749 133.3449 C 52.6235 132.0425 56.7005 131.4136 57.477 127.6966 C 54.4314 123.9047 51.2382 128.6066 46.6779 130.1274 C 45.7941 128.8533 41.6464 124.4386 41.6464 124.4386 C 41.3875 123.4639 42.7485 123.5528 43.1449 122.9542 C 44.7365 122.1959 47.3189 125.4235 48.5708 126.2081 C 50.5627 125.5873 53.3252 124.3051 55.3496 124.1696 C 61.4044 123.7854 60.0716 131.5612 54.3991 135.08 Z " stroke-width="2.0223121643066406"/>
  </g>
</svg>