<svg xmlns="http://www.w3.org/2000/svg" xmlns:xlink="http://www.w3.org/1999/xlink" version="1.1" width="80.73590087890625" height="38.03010177612305" viewBox="-0.35089999437332153 0.3295000195503235 80.73590087890625 38.03010177612305">
  <defs>
    <radialGradient id="grad_1" cx="0.2" cy="0.2826" r="1.04">
      <stop offset="0" stop-color="#FFFF99" stop-opacity="1"/>
      <stop offset="1" stop-color="#CC7700" stop-opacity="1"/>
    </radialGradient>
    <radialGradient id="grad_2" cx="0.2" cy="0.2826" r="1.04">
      <stop offset="0" stop-color="#FFFF99" stop-opacity="1"/>
      <stop offset="1" stop-color="#CC7700" stop-opacity="1"/>
    </radialGradient>
    <radialGradient id="grad_3" cx="0.3284" cy="0.3738" r="0.87308">
      <stop offset="0" stop-color="#FFFF99" stop-opacity="1"/>
      <stop offset="1" stop-color="#CC7700" stop-opacity="1"/>
    </radialGradient>
    <radialGradient id="grad_4" cx="0.2789" cy="0.3757" r="0.93743">
      <stop offset="0" stop-color="#FFFF99" stop-opacity="1"/>
      <stop offset="1" stop-color="#CC7700" stop-opacity="1"/>
    </radialGradient>
    <radialGradient id="grad_5" cx="0.42590000000000006" cy="0.33630000000000004" r="0.8628100000000001">
      <stop offset="0" stop-color="#FFFF99" stop-opacity="1"/>
      <stop offset="1" stop-color="#CC7700" stop-opacity="1"/>
    </radialGradient>
    <radialGradient id="grad_6" cx="0.5" cy="0.33630000000000004" r="0.8628100000000001">
      <stop offset="0" stop-color="#FFFF99" stop-opacity="1"/>
      <stop offset="1" stop-color="#CC7700" stop-opacity="1"/>
    </radialGradient>
    <radialGradient id="grad_7" cx="0.33990000000000004" cy="0.37329999999999997" r="0.8581300000000001">
      <stop offset="0" stop-color="#FF0000" stop-opacity="1"/>
      <stop offset="1" stop-color="#990000" stop-opacity="1"/>
    </radialGradient>
  <radialGradient id="grad_1-.8573749661445618,0,0,0.8573749661445618,-32.30000000000001,-48.150000000000006" cx="65.4565" cy="6.9792" r="11.3792" gradientUnits="userSpaceOnUse">
      <stop offset="0" stop-color="#FFFF99" stop-opacity="1"/>
      <stop offset="1" stop-color="#CC7700" stop-opacity="1"/>
    </radialGradient><radialGradient id="grad_2-0.8573749661445618,0,0,0.8573749661445618,176.3,-48.10000000000001" cx="78.5435" cy="7.0292" r="11.3792" gradientUnits="userSpaceOnUse">
      <stop offset="0" stop-color="#FFFF99" stop-opacity="1"/>
      <stop offset="1" stop-color="#CC7700" stop-opacity="1"/>
    </radialGradient><radialGradient id="grad_3-.8573749661445618,0,0,0.8573749661445618,-23,-48.10000000000001" cx="11.6439" cy="14.6714" r="31.4575" gradientUnits="userSpaceOnUse">
      <stop offset="0" stop-color="#FFFF99" stop-opacity="1"/>
      <stop offset="1" stop-color="#CC7700" stop-opacity="1"/>
    </radialGradient><radialGradient id="grad_4-.8573749661445618,0,0,0.8573749661445618,-23,-48.10000000000001" cx="44.861" cy="18.5153" r="32.5672" gradientUnits="userSpaceOnUse">
      <stop offset="0" stop-color="#FFFF99" stop-opacity="1"/>
      <stop offset="1" stop-color="#CC7700" stop-opacity="1"/>
    </radialGradient><radialGradient id="grad_5-.8573749661445618,0,0,0.8573749661445618,-23,-48.10000000000001" cx="32.8564" cy="17.8691" r="6.0123" gradientUnits="userSpaceOnUse">
      <stop offset="0" stop-color="#FFFF99" stop-opacity="1"/>
      <stop offset="1" stop-color="#CC7700" stop-opacity="1"/>
    </radialGradient><radialGradient id="grad_6-.8573749661445618,0,0,0.8573749661445618,-23,-48.10000000000001" cx="35.6479" cy="17.8691" r="6.0123" gradientUnits="userSpaceOnUse">
      <stop offset="0" stop-color="#FFFF99" stop-opacity="1"/>
      <stop offset="1" stop-color="#CC7700" stop-opacity="1"/>
    </radialGradient><radialGradient id="grad_7-,0,0,1,-199.35,-165.65" cx="17.2485" cy="17.4495" r="12.872" gradientUnits="userSpaceOnUse">
      <stop offset="0" stop-color="#FF0000" stop-opacity="1"/>
      <stop offset="1" stop-color="#990000" stop-opacity="1"/>
    </radialGradient></defs>
  <!-- Exported by Scratch - http://scratch.mit.edu/ -->
  <g id="ID0.13348541734740138">
    <path id="ID0.8694397993385792" fill="url(#grad_1-.8573749661445618,0,0,0.8573749661445618,-32.30000000000001,-48.150000000000006)" d="M 64.1744 2.9993 L 70.585 2.9993 L 70.585 5.0758 L 67.2447 5.0758 L 67.2447 7.8743 L 70.585 7.8743 L 70.585 10.2227 L 67.2447 10.2227 L 67.2447 13.0203 L 70.585 13.0203 L 70.585 17.0825 L 64.1744 17.0825 L 64.1744 2.9993 " stroke-width="0.8573749661445618"/>
    <path id="ID0.8694397993385792" fill="url(#grad_2-0.8573749661445618,0,0,0.8573749661445618,176.3,-48.10000000000001)" d="M 79.8256 3.0493 L 73.415 3.0493 L 73.415 5.1258 L 76.7553 5.1258 L 76.7553 7.9243 L 73.415 7.9243 L 73.415 10.2727 L 76.7553 10.2727 L 76.7553 13.0703 L 73.415 13.0703 L 73.415 17.1325 L 79.8256 17.1325 L 79.8256 3.0493 " stroke-width="0.8573749661445618"/>
    <path id="ID0.7121701026335359" fill="url(#grad_3-.8573749661445618,0,0,0.8573749661445618,-23,-48.10000000000001)" d="M 19.7324 23.1093 C 21.8964 23.1093 23.6506 21.3551 23.6506 19.1911 C 23.6506 17.0288 21.8964 15.2746 19.7324 15.2746 C 17.5684 15.2746 15.8142 17.0288 15.8142 19.1911 C 15.8142 21.3551 17.5684 23.1093 19.7324 23.1093 L 19.7324 23.1093 L 19.7324 23.1093 Z M 7.454 23.1093 C 9.618 23.1093 11.3722 21.3551 11.3722 19.1911 C 11.3722 17.0288 9.618 15.2746 7.454 15.2746 C 5.2899 15.2746 3.5358 17.0288 3.5358 19.1911 C 3.5358 21.3551 5.2899 23.1093 7.454 23.1093 L 7.454 23.1093 L 7.454 23.1093 Z M 26.1224 28.0795 C 26.1224 27.0618 25.8927 26.0989 25.4828 25.2399 C 23.9807 26.7025 21.9273 27.6054 19.6621 27.6054 C 17.2923 27.6054 15.154 26.6185 13.6365 25.0332 C 13.1624 25.9446 12.894 26.9803 12.894 28.0821 C 12.894 31.7353 15.8554 34.695 19.5078 34.695 C 23.1619 34.6933 26.1224 31.7328 26.1224 28.0795 L 26.1224 28.0795 L 26.1224 28.0795 Z M 25.5806 13.3746 C 25.9295 12.5696 26.1233 11.6805 26.1233 10.7468 C 26.1233 7.0935 23.1619 4.1321 19.5095 4.1321 C 15.8571 4.1321 12.8957 7.0935 12.8957 10.7468 C 12.8957 11.8391 13.1598 12.8671 13.525 13.6061 C 15.0494 11.9514 17.2349 10.9131 19.6638 10.9131 C 21.9762 10.9131 24.0699 11.8545 25.5806 13.3746 L 25.5806 13.3746 L 25.5806 13.3746 Z M 27.6837 16.2083 C 28.1999 17.8553 28.3808 20.6092 27.6837 22.4542 L 30.9075 19.3643 L 27.6837 16.2083 L 27.6837 16.2083 L 27.6837 16.2083 Z M 9.7294 10.6782 C 9.7294 5.239 14.1389 0.8295 19.5781 0.8295 C 25.0173 0.8295 29.4268 5.239 29.4268 10.6782 C 29.4268 12.6047 33.2558 17.4034 35.1515 19.6609 C 33.1649 21.2865 29.4268 26.0724 29.4268 28.0117 C 29.4268 33.4509 25.0173 37.8596 19.5781 37.8596 C 14.1389 37.8596 9.7294 33.4492 9.7294 28.0117 C 9.7294 27.3473 9.7954 26.6974 9.9215 26.0681 C 9.1507 26.3442 8.3199 26.4951 7.4548 26.4951 C 3.4192 26.4951 0.1491 23.2259 0.1491 19.1894 C 0.1491 15.1546 3.4192 11.8837 7.4548 11.8837 C 8.2976 11.8837 9.1078 12.0268 9.8623 12.2892 C 9.7749 11.7671 9.7294 11.2278 9.7294 10.6782 L 9.7294 10.6782 L 9.7294 10.6782 Z " stroke-width="0.8573749661445618"/>
    <path id="ID0.7789692673832178" fill="url(#grad_4-.8573749661445618,0,0,0.8573749661445618,-23,-48.10000000000001)" d="M 31.3147 15.7341 L 79.885 15.7341 L 79.885 23.1367 L 31.3147 23.1367 L 31.3147 15.7341 L 31.3147 15.7341 Z " stroke-width="0.8573749661445618"/>
    <path id="ID0.578137279022485" fill="url(#grad_5-.8573749661445618,0,0,0.8573749661445618,-23,-48.10000000000001)" d="M 31.8566 15.9142 C 31.8566 15.2171 32.3821 14.6504 33.0303 14.6504 L 33.0303 14.6504 C 33.6785 14.6504 34.2041 15.2163 34.2041 15.9142 L 34.2041 22.9567 C 34.2041 23.6546 33.6785 24.2213 33.0303 24.2213 L 33.0303 24.2213 C 32.3821 24.2213 31.8566 23.6554 31.8566 22.9567 L 31.8566 15.9142 L 31.8566 15.9142 L 31.8566 15.9142 L 31.8566 15.9142 Z " stroke-width="0.8573749661445618"/>
    <path id="ID0.029240664094686508" fill="url(#grad_6-.8573749661445618,0,0,0.8573749661445618,-23,-48.10000000000001)" d="M 34.4741 15.9142 C 34.4741 15.2171 34.9997 14.6504 35.6479 14.6504 L 35.6479 14.6504 C 36.2961 14.6504 36.8216 15.2163 36.8216 15.9142 L 36.8216 22.9567 C 36.8216 23.6546 36.2961 24.2213 35.6479 24.2213 L 35.6479 24.2213 C 34.9997 24.2213 34.4741 23.6554 34.4741 22.9567 L 34.4741 15.9142 L 34.4741 15.9142 L 34.4741 15.9142 L 34.4741 15.9142 Z " stroke-width="0.8573749661445618"/>
    <path id="ID0.2235101368278265" fill="url(#grad_7-,0,0,1,-199.35,-165.65)" stroke="none" d="M 19.65 11.85 C 21.719 11.85 23.594 12.69 24.952 14.048 C 26.31 15.406 27.15 17.281 27.15 19.35 C 27.15 21.419 26.31 23.294 24.952 24.652 C 23.594 26.01 21.719 26.85 19.65 26.85 C 17.581 26.85 15.706 26.01 14.348 24.652 C 12.99 23.294 12.15 21.419 12.15 19.35 C 12.15 17.281 12.99 15.406 14.348 14.048 C 15.706 12.69 17.581 11.85 19.65 11.85 Z " stroke-width="1"/>
  </g>
</svg>