<svg xmlns="http://www.w3.org/2000/svg" xmlns:xlink="http://www.w3.org/1999/xlink" version="1.1" width="151.53449462433832" height="206.61838744660395" viewBox="0.874405987162497 0.12620604743471375 151.53449462433832 206.61838744660395">
  <defs>
    <radialGradient id="grad_1" cx="0.8636" cy="0.9573" r="1.2444899999999999">
      <stop offset="0" stop-color="#000000" stop-opacity="1"/>
      <stop offset="1" stop-color="#E5E5E5" stop-opacity="1"/>
    </radialGradient>
    <radialGradient id="grad_2" cx="0.9677" cy="0.9786" r="1.27218">
      <stop offset="0" stop-color="#666666" stop-opacity="1"/>
      <stop offset="1" stop-color="#FFFFFF" stop-opacity="1"/>
    </radialGradient>
    <radialGradient id="grad_3" cx="0.3464" cy="0.3225" r="0.88075">
      <stop offset="0" stop-color="#FF9400" stop-opacity="1"/>
      <stop offset="1" stop-color="#995900" stop-opacity="1"/>
    </radialGradient>
    <radialGradient id="grad_4" cx="0.3464" cy="0.3225" r="0.88075">
      <stop offset="0" stop-color="#FF9400" stop-opacity="1"/>
      <stop offset="1" stop-color="#995900" stop-opacity="1"/>
    </radialGradient>
    <radialGradient id="grad_5" cx="0.3464" cy="0.3225" r="0.88075">
      <stop offset="0" stop-color="#FF9400" stop-opacity="1"/>
      <stop offset="1" stop-color="#995900" stop-opacity="1"/>
    </radialGradient>
    <radialGradient id="grad_6" cx="0.3464" cy="0.3225" r="0.88075">
      <stop offset="0" stop-color="#FF9400" stop-opacity="1"/>
      <stop offset="1" stop-color="#995900" stop-opacity="1"/>
    </radialGradient>
    <radialGradient id="grad_7" cx="0.3464" cy="0.3225" r="0.88075">
      <stop offset="0" stop-color="#FF9400" stop-opacity="1"/>
      <stop offset="1" stop-color="#995900" stop-opacity="1"/>
    </radialGradient>
    <radialGradient id="grad_8" cx="0.3215" cy="0.4019" r="0.88205">
      <stop offset="0" stop-color="#FF0000" stop-opacity="1"/>
      <stop offset="1" stop-color="#990000" stop-opacity="1"/>
    </radialGradient>
  <radialGradient id="grad_1-.998395994571112,0,0,0.998395994571112,-176.81219592392443,-75.30227427184582" cx="131.594" cy="196.9978" r="210.7917" gradientUnits="userSpaceOnUse">
      <stop offset="0" stop-color="#000000" stop-opacity="1"/>
      <stop offset="1" stop-color="#E5E5E5" stop-opacity="1"/>
    </radialGradient><radialGradient id="grad_2-.998395994571112,0,0,0.998395994571112,-182.58083091676235,-84.73741455674173" cx="140.5312" cy="191.6562" r="216.817" gradientUnits="userSpaceOnUse">
      <stop offset="0" stop-color="#666666" stop-opacity="1"/>
      <stop offset="1" stop-color="#FFFFFF" stop-opacity="1"/>
    </radialGradient><radialGradient id="grad_3-.5220371369612273,0,0,0.5252884987564812,-20.961277642846106,1.0588092774152758" cx="39.5745" cy="52.2094" r="33.6737" gradientUnits="userSpaceOnUse">
      <stop offset="0" stop-color="#FF9400" stop-opacity="1"/>
      <stop offset="1" stop-color="#995900" stop-opacity="1"/>
    </radialGradient><radialGradient id="grad_4-.5220371369612273,0,0,0.5252884987564812,34.5740558475256,1.0588092774152758" cx="95.1098" cy="52.2094" r="33.6737" gradientUnits="userSpaceOnUse">
      <stop offset="0" stop-color="#FF9400" stop-opacity="1"/>
      <stop offset="1" stop-color="#995900" stop-opacity="1"/>
    </radialGradient><radialGradient id="grad_5-.5220371369612273,0,0,0.5252884987564812,-21.156824591755864,49.261132183670995" cx="39.3789" cy="100.4117" r="33.6737" gradientUnits="userSpaceOnUse">
      <stop offset="0" stop-color="#FF9400" stop-opacity="1"/>
      <stop offset="1" stop-color="#995900" stop-opacity="1"/>
    </radialGradient><radialGradient id="grad_6-.5220371369612273,0,0,0.5252884987564812,34.18296194970608,49.261132183670995" cx="94.7187" cy="100.4117" r="33.6737" gradientUnits="userSpaceOnUse">
      <stop offset="0" stop-color="#FF9400" stop-opacity="1"/>
      <stop offset="1" stop-color="#995900" stop-opacity="1"/>
    </radialGradient><radialGradient id="grad_7-.5220371369612273,0,0,0.5252884987564812,-22.085672599077228,97.70788877606392" cx="38.4501" cy="148.8585" r="33.6737" gradientUnits="userSpaceOnUse">
      <stop offset="0" stop-color="#FF9400" stop-opacity="1"/>
      <stop offset="1" stop-color="#995900" stop-opacity="1"/>
    </radialGradient><radialGradient id="grad_8-.5220371369612273,0,0,0.5252884987564812,34.18296194970608,97.70788877606392" cx="93.7633" cy="151.8829" r="33.7234" gradientUnits="userSpaceOnUse">
      <stop offset="0" stop-color="#FF0000" stop-opacity="1"/>
      <stop offset="1" stop-color="#990000" stop-opacity="1"/>
    </radialGradient></defs>
  <!-- Exported by Scratch - http://scratch.mit.edu/ -->
  <g id="ID0.4760909271426499">
    <path id="ID0.26244490034878254" fill="url(#grad_1-.998395994571112,0,0,0.998395994571112,-176.81219592392443,-75.30227427184582)" stroke="#000000" stroke-width="2.995187983713336" d="M 9.3887 190.1213 L 128.3475 196.6109 L 137.9821 191.5191 L 145.8195 12.0574 L 150.9113 19.5453 L 143.9225 199.2566 L 133.9386 205.247 L 23.6158 205.247 L 13.4821 199.7558 L 9.2888 192.0183 L 9.3887 190.1213 Z "/>
    <path id="ID0.26244490034878254" fill="url(#grad_2-.998395994571112,0,0,0.998395994571112,-182.58083091676235,-84.73741455674173)" stroke="#000000" stroke-width="2.995187983713336" d="M 2.372 10.6094 L 8.3624 1.6238 L 139.6515 1.6238 L 145.1427 10.1102 L 138.1539 189.8215 L 128.1699 195.8119 L 17.8472 195.8119 L 8.8616 190.3207 L 2.372 10.6094 Z "/>
    <path id="ID0.7293737544678152" fill="url(#grad_3-.5220371369612273,0,0,0.5252884987564812,-20.961277642846106,1.0588092774152758)" stroke="#000000" stroke-width="1.5709960238066514" d="M 45.4679 39.9302 C 50.6779 40.0011 56.9267 40.5763 60.7114 44.2638 C 64.2597 47.8552 64.634 53.9396 64.6528 58.9719 C 64.6732 64.1323 64.1762 70.2729 60.5548 73.9163 C 56.827 77.5676 50.669 78.0619 45.4679 78.0136 C 40.4449 77.9679 34.4305 77.4515 30.7726 73.9163 C 27.1512 70.2272 26.2904 64.167 26.2831 58.9719 C 26.2742 53.8844 26.8782 47.7328 30.4855 44.0537 C 34.1987 40.467 40.2966 39.8582 45.4679 39.9302 Z "/>
    <path id="ID0.7293737544678152" fill="url(#grad_4-.5220371369612273,0,0,0.5252884987564812,34.5740558475256,1.0588092774152758)" stroke="#000000" stroke-width="1.5709960238066514" d="M 101.0033 39.9302 C 106.2132 40.0011 112.462 40.5763 116.2468 44.2638 C 119.7951 47.8552 120.1694 53.9396 120.1881 58.9719 C 120.2085 64.1323 119.7115 70.2729 116.0902 73.9163 C 112.3623 77.5676 106.2043 78.0619 101.0033 78.0136 C 95.9802 77.9679 89.9659 77.4515 86.3079 73.9163 C 82.6866 70.2272 81.8257 64.167 81.8184 58.9719 C 81.8095 53.8844 82.4135 47.7328 86.0208 44.0537 C 89.7341 40.467 95.832 39.8582 101.0033 39.9302 Z "/>
    <path id="ID0.7293737544678152" fill="url(#grad_5-.5220371369612273,0,0,0.5252884987564812,-21.156824591755864,49.261132183670995)" stroke="#000000" stroke-width="1.5709960238066514" d="M 45.2724 88.1325 C 50.4823 88.2034 56.7311 88.7786 60.5159 92.4661 C 64.0642 96.0575 64.4385 102.1419 64.4573 107.1742 C 64.4776 112.3346 63.9806 118.4752 60.3593 122.1186 C 56.6314 125.7699 50.4735 126.2642 45.2724 126.2159 C 40.2494 126.1702 34.235 125.6538 30.5771 122.1186 C 26.9557 118.4295 26.0948 112.3693 26.0875 107.1742 C 26.0787 102.0868 26.6827 95.9351 30.2899 92.256 C 34.0032 88.6693 40.1011 88.0605 45.2724 88.1325 Z "/>
    <path id="ID0.7293737544678152" fill="url(#grad_6-.5220371369612273,0,0,0.5252884987564812,34.18296194970608,49.261132183670995)" stroke="#000000" stroke-width="1.5709960238066514" d="M 100.6122 88.1325 C 105.8221 88.2034 112.0709 88.7786 115.8557 92.4661 C 119.404 96.0575 119.7783 102.1419 119.7971 107.1742 C 119.8174 112.3346 119.3204 118.4752 115.6991 122.1186 C 111.9712 125.7699 105.8132 126.2642 100.6122 126.2159 C 95.5891 126.1702 89.5748 125.6538 85.9168 122.1186 C 82.2955 118.4295 81.4346 112.3693 81.4273 107.1742 C 81.4184 102.0868 82.0224 95.9351 85.6297 92.256 C 89.343 88.6693 95.4409 88.0605 100.6122 88.1325 Z "/>
    <path id="ID0.7293737544678152" fill="url(#grad_7-.5220371369612273,0,0,0.5252884987564812,-22.085672599077228,97.70788877606392)" stroke="#000000" stroke-width="1.5709960238066514" d="M 44.3436 136.5792 C 49.5535 136.6502 55.8023 137.2253 59.587 140.9129 C 63.1353 144.5043 63.5096 150.5887 63.5284 155.6209 C 63.5488 160.7814 63.0518 166.922 59.4304 170.5654 C 55.7026 174.2167 49.5446 174.711 44.3436 174.6627 C 39.3205 174.617 33.3061 174.1006 29.6482 170.5654 C 26.0268 166.8763 25.166 160.816 25.1587 155.6209 C 25.1498 150.5335 25.7538 144.3819 29.3611 140.7028 C 33.0743 137.1161 39.1723 136.5073 44.3436 136.5792 Z "/>
    <path id="ID0.7293737544678152" fill="url(#grad_8-.5220371369612273,0,0,0.5252884987564812,34.18296194970608,97.70788877606392)" stroke="#000000" stroke-width="1.5709960238066514" d="M 100.6122 136.5792 C 105.8221 136.6502 112.0709 137.2253 115.8557 140.9129 C 119.404 144.5043 119.7783 150.5887 119.7971 155.6209 C 119.8174 160.7814 119.3204 166.922 115.6991 170.5654 C 111.9712 174.2167 105.8132 174.711 100.6122 174.6627 C 95.5891 174.617 89.5748 174.1006 85.9168 170.5654 C 82.2955 166.8763 81.4346 160.816 81.4273 155.6209 C 81.4184 150.5335 82.0224 144.3819 85.6297 140.7028 C 89.343 137.1161 95.4409 136.5073 100.6122 136.5792 Z "/>
    <g id="ID0.6030499343760312">
      <path id="ID0.21581144677475095" fill="#003FFF" stroke="#000000" stroke-width="0.45108227333192785" d="M 72.9971 10.8719 C 76.5017 10.8719 79.6771 11.2989 81.9765 11.9888 C 84.2761 12.6785 85.6994 13.6313 85.6994 14.6825 C 85.6994 15.7338 84.2761 16.6866 81.9765 17.3763 C 79.6771 18.0662 76.5017 18.4932 72.9971 18.4932 C 69.4926 18.4932 66.3172 18.0662 64.0178 17.3763 C 61.7182 16.6866 60.2949 15.7338 60.2949 14.6825 C 60.2949 13.6313 61.7182 12.6785 64.0178 11.9888 C 66.3172 11.2989 69.4926 10.8719 72.9971 10.8719 Z "/>
      <path id="ID0.43453060975298285" fill="#003FFF" stroke="none" stroke-linecap="round" d="M 66.8821 13.8763 L 67.9287 13.3004 L 70.6617 12.9045 L 73.2056 12.7065 L 76.1129 12.7875 L 78.2935 13.3004 L 79.5872 13.8853 L 79.5872 20.4094 L 80.1106 21.4443 L 81.6951 22.0112 L 83.3959 22.4341 L 63.1171 22.4341 L 65.1086 21.9842 L 66.1698 21.4893 L 66.8821 20.3374 L 66.8821 13.8763 Z " stroke-width="0.2417828332862318"/>
      <path id="ID0.21581144677475095" fill="#003FFF" stroke="#000000" stroke-width="0.676623400651078" d="M 73.314 32.8305 C 78.5707 32.8305 83.3339 32.19 86.783 31.1551 C 90.2324 30.1206 92.3673 28.6914 92.3673 27.1145 C 92.3673 25.5376 90.2324 24.1084 86.783 23.0739 C 83.3339 22.0391 78.5707 21.3985 73.314 21.3985 C 68.0572 21.3985 63.294 22.0391 59.8449 23.0739 C 56.3955 24.1084 54.2606 25.5376 54.2606 27.1145 C 54.2606 28.6914 56.3955 30.1206 59.8449 31.1551 C 63.294 32.19 68.0572 32.8305 73.314 32.8305 Z "/>
      <path id="ID0.2213963670656085" fill="#003FFF" stroke="#000000" stroke-width="0.7267044266222955" d="M 73.5445 33.5813 C 77.7521 33.5813 81.5645 33.1097 84.3254 32.3482 C 87.0863 31.5864 88.7952 30.5347 88.7952 29.3737 C 88.7952 28.2127 87.0863 27.161 84.3254 26.3992 C 81.5645 25.6377 77.7521 25.1661 73.5445 25.1661 C 69.337 25.1661 65.5245 25.6377 62.7637 26.3992 C 60.0028 27.161 58.2939 28.2127 58.2939 29.3737 C 58.2939 30.5347 60.0028 31.5864 62.7637 32.3482 C 65.5245 33.1097 69.337 33.5813 73.5445 33.5813 Z "/>
    </g>
  </g>
</svg>