<svg version="1.1" xmlns="http://www.w3.org/2000/svg" xmlns:xlink="http://www.w3.org/1999/xlink" width="22.52" height="26.52"><g transform="translate(-228.69,-153.69)"><g data-paper-data="{&quot;isPaintingLayer&quot;:true}" fill="none" fill-rule="nonzero" stroke="none" stroke-width="1" stroke-linecap="butt" stroke-linejoin="miter" stroke-miterlimit="10" stroke-dasharray="" stroke-dashoffset="0" font-family="none" font-weight="none" font-size="none" text-anchor="none" style="mix-blend-mode: normal"><path d="M242.42,180.21c-2.32,0 -3.99,-1.63 -3.99,-3.89c0,-0.42 0.06,-0.84 0.18,-1.22l-3.87,0.57c-0.62,0.27 -1.33,0.43 -2,0.43c-2.39,0 -4.05,-1.73 -4.05,-4.21c0,-1.45 0.87,-2.59 1.77,-3.26l8.16,-9.51c0.63,-1.45 2.21,-2.44 4.06,-2.44c2.7,0 4.32,2.04 4.32,4.02c0,0.57 -0.07,1.08 -0.22,1.54v3.57c0.16,-0.02 0.32,-0.03 0.48,-0.03c2.36,0 3.94,1.63 3.94,4.07c0,2.83 -1.98,4.35 -3.85,4.35c-0.19,0 -0.37,-0.01 -0.56,-0.04v0.37c0.25,0.51 0.39,1.06 0.39,1.61c0,2.02 -1.47,4.07 -4.76,4.07z" data-paper-data="{&quot;origPos&quot;:null}" fill="#000000" opacity="0.35"/><path d="M238.43,173.33c0,-0.42 0.06,-0.84 0.18,-1.22l-3.87,0.57c-0.62,0.27 -1.34,0.43 -2,0.43c-2.38,0 -4.05,-1.73 -4.05,-4.21c0,-1.45 0.88,-2.59 1.78,-3.26l8.16,-9.51c0.63,-1.46 2.21,-2.44 4.06,-2.44c2.71,0 4.32,2.04 4.32,4.02c0,0.57 -0.07,1.08 -0.22,1.54v3.57c0.16,-0.02 0.32,-0.03 0.48,-0.03c2.35,0 3.94,1.64 3.94,4.07c0,2.83 -1.99,4.35 -3.85,4.35c-0.18,0 -0.37,-0.01 -0.56,-0.04v0.37c0.25,0.51 0.39,1.06 0.39,1.61c-0.01,2.02 -1.48,4.06 -4.77,4.06c-2.31,0 -3.99,-1.63 -3.99,-3.88z" data-paper-data="{&quot;origPos&quot;:null}" fill="#ffffff"/><path d="M242.42,174.71c-0.93,0 -1.49,-0.52 -1.49,-1.38c0,-0.34 0.09,-0.63 0.25,-0.82v-3.3l-7.19,1.05c-0.28,0.17 -0.77,0.34 -1.25,0.34c-0.71,0 -1.55,-0.3 -1.55,-1.71c0,-0.54 0.49,-1.11 0.95,-1.38l8.71,-10.14c0.09,-0.6 0.78,-1.19 1.84,-1.19c1.18,0 1.82,0.78 1.82,1.52c0,0.46 -0.07,0.8 -0.22,1.04v7.21l2.09,-0.33c0.25,-0.22 0.58,-0.35 0.89,-0.35c0.95,0 1.44,0.53 1.44,1.57c0,1.28 -0.68,1.85 -1.35,1.85c-0.28,0 -0.61,-0.11 -0.84,-0.26l-2.22,0.29v3.53c0.2,0.22 0.39,0.56 0.39,0.88c-0.01,0.48 -0.23,1.58 -2.27,1.58zM235.82,167.23l5.36,-0.78v-5.48z" data-paper-data="{&quot;origPos&quot;:null}" fill="#f7931e"/></g></g></svg>