<svg xmlns="http://www.w3.org/2000/svg" xmlns:xlink="http://www.w3.org/1999/xlink" version="1.1" width="39.578399658203125" height="39.464698791503906" viewBox="0.3873000144958496 0.5170999765396118 39.578399658203125 39.464698791503906">
  <!-- Exported by Scratch - http://scratch.mit.edu/ -->
  <path id="ID0.6994185303337872" fill="#00FFFF" stroke="#000000" stroke-width="0.8527569463995485" d="M 0.8873 1.0171 L 39.4657 1.0171 L 39.4657 39.4818 L 0.8873 39.4818 L 0.8873 1.0171 Z "/>
  <g id="ID0.5521168457344174">
    <path id="ID0.9095093756914139" fill="none" stroke="#000000" stroke-width="0.5915334501757101" stroke-linecap="round" d="M 9.9855 5.4383 L 10.4933 6.8481 "/>
    <path id="ID0.9095093756914139" fill="none" stroke="#000000" stroke-width="0.5915334501757101" stroke-linecap="round" d="M 17.3873 5.3727 L 17.895 6.7826 "/>
    <path id="ID0.9095093756914139" fill="none" stroke="#000000" stroke-width="0.5915334501757101" stroke-linecap="round" d="M 19.2213 5.4383 L 19.7291 6.8481 "/>
    <path id="ID0.9095093756914139" fill="none" stroke="#000000" stroke-width="0.5915334501757101" stroke-linecap="round" d="M 11.8196 5.5038 L 12.3273 6.9136 "/>
    <path id="ID0.9095093756914139" fill="none" stroke="#000000" stroke-width="0.5915334501757101" stroke-linecap="round" d="M 20.9899 5.3727 L 21.4976 6.7826 "/>
    <path id="ID0.9095093756914139" fill="none" stroke="#000000" stroke-width="0.5915334501757101" stroke-linecap="round" d="M 22.824 5.4383 L 23.3317 6.8481 "/>
    <path id="ID0.9095093756914139" fill="none" stroke="#000000" stroke-width="0.5915334501757101" stroke-linecap="round" d="M 24.658 5.4383 L 25.1658 6.8481 "/>
    <path id="ID0.9095093756914139" fill="none" stroke="#000000" stroke-width="0.5915334501757101" stroke-linecap="round" d="M 32.0598 5.5038 L 32.5675 6.9136 "/>
    <path id="ID0.9095093756914139" fill="none" stroke="#000000" stroke-width="0.5915334501757101" stroke-linecap="round" d="M 30.1602 5.5038 L 30.6679 6.9136 "/>
    <path id="ID0.9095093756914139" fill="none" stroke="#000000" stroke-width="0.5915334501757101" stroke-linecap="round" d="M 15.5532 5.3727 L 16.061 6.7826 "/>
    <path id="ID0.9095093756914139" fill="none" stroke="#000000" stroke-width="0.5915334501757101" stroke-linecap="round" d="M 26.4266 5.5038 L 26.9343 6.9136 "/>
    <path id="ID0.9095093756914139" fill="none" stroke="#000000" stroke-width="0.5915334501757101" stroke-linecap="round" d="M 13.7192 5.5038 L 14.2269 6.9136 "/>
    <path id="ID0.9095093756914139" fill="none" stroke="#000000" stroke-width="0.5915334501757101" stroke-linecap="round" d="M 28.3262 5.4383 L 28.8339 6.8481 "/>
    <path id="ID0.9095093756914139" fill="none" stroke="#000000" stroke-width="0.5915334501757101" stroke-linecap="round" d="M 8.217 5.4383 L 8.7247 6.8481 "/>
    <path id="ID0.07590068271383643" fill="#CCCCCC" stroke="none" d="M 6.6713 7.3669 L 33.8293 7.3669 L 33.8293 35.0734 L 6.6713 35.0734 L 6.6713 7.3669 Z " stroke-width="0.12327950531904606"/>
    <path id="ID0.07590068271383643" fill="#E5E5E5" stroke="none" d="M 6.3438 7.1704 L 33.5018 7.1704 L 33.5018 34.8769 L 6.3438 34.8769 L 6.3438 7.1704 Z " stroke-width="0.12327950531904606"/>
    <path id="ID0.07590068271383643" fill="#FFFFFF" stroke="none" d="M 6.0163 6.8429 L 33.1742 6.8429 L 33.1742 34.5494 L 6.0163 34.5494 L 6.0163 6.8429 Z " stroke-width="0.12327950531904606"/>
    <path id="ID0.36722757993265986" fill="#CCCCCC" stroke="none" d="M 7.3139 7.4089 C 7.5003 7.4089 7.6694 7.4862 7.7917 7.6112 C 7.9141 7.7361 7.9898 7.9087 7.9898 8.099 C 7.9898 8.2894 7.9141 8.462 7.7917 8.5869 C 7.6694 8.7119 7.5003 8.7892 7.3139 8.7892 C 7.1275 8.7892 6.9585 8.7119 6.8361 8.5869 C 6.7137 8.462 6.638 8.2894 6.638 8.099 C 6.638 7.9087 6.7137 7.7361 6.8361 7.6112 C 6.9585 7.4862 7.1275 7.4089 7.3139 7.4089 Z " stroke-width="0.10201306163749417"/>
    <path id="ID0.272235160227865" fill="none" stroke="#000000" stroke-width="0.5915334501757101" stroke-linecap="round" d="M 7.2588 8.2001 L 8.1609 5.4297 "/>
    <path id="ID0.36722757993265986" fill="#CCCCCC" stroke="none" d="M 9.148 7.4089 C 9.3344 7.4089 9.5034 7.4862 9.6258 7.6112 C 9.7481 7.7361 9.8238 7.9087 9.8238 8.099 C 9.8238 8.2894 9.7481 8.462 9.6258 8.5869 C 9.5034 8.7119 9.3344 8.7892 9.148 8.7892 C 8.9615 8.7892 8.7925 8.7119 8.6702 8.5869 C 8.5478 8.462 8.4721 8.2894 8.4721 8.099 C 8.4721 7.9087 8.5478 7.7361 8.6702 7.6112 C 8.7925 7.4862 8.9615 7.4089 9.148 7.4089 Z " stroke-width="0.10201306163749417"/>
    <path id="ID0.272235160227865" fill="none" stroke="#000000" stroke-width="0.5915334501757101" stroke-linecap="round" d="M 9.0929 8.2001 L 9.995 5.4297 "/>
    <path id="ID0.36722757993265986" fill="#CCCCCC" stroke="none" d="M 10.9165 7.4744 C 11.1029 7.4744 11.272 7.5517 11.3943 7.6767 C 11.5167 7.8016 11.5924 7.9742 11.5924 8.1645 C 11.5924 8.3549 11.5167 8.5275 11.3943 8.6524 C 11.272 8.7774 11.1029 8.8547 10.9165 8.8547 C 10.7301 8.8547 10.5611 8.7774 10.4387 8.6524 C 10.3164 8.5275 10.2407 8.3549 10.2407 8.1645 C 10.2407 7.9742 10.3164 7.8016 10.4387 7.6767 C 10.5611 7.5517 10.7301 7.4744 10.9165 7.4744 Z " stroke-width="0.10201306163749417"/>
    <path id="ID0.272235160227865" fill="none" stroke="#000000" stroke-width="0.5915334501757101" stroke-linecap="round" d="M 10.9269 8.2656 L 11.829 5.4952 "/>
    <path id="ID0.36722757993265986" fill="#CCCCCC" stroke="none" d="M 12.8161 7.4089 C 13.0025 7.4089 13.1715 7.4862 13.2939 7.6112 C 13.4163 7.7361 13.4919 7.9087 13.4919 8.099 C 13.4919 8.2894 13.4163 8.462 13.2939 8.5869 C 13.1715 8.7119 13.0025 8.7892 12.8161 8.7892 C 12.6297 8.7892 12.4606 8.7119 12.3383 8.5869 C 12.2159 8.462 12.1402 8.2894 12.1402 8.099 C 12.1402 7.9087 12.2159 7.7361 12.3383 7.6112 C 12.4606 7.4862 12.6297 7.4089 12.8161 7.4089 Z " stroke-width="0.10201306163749417"/>
    <path id="ID0.272235160227865" fill="none" stroke="#000000" stroke-width="0.5915334501757101" stroke-linecap="round" d="M 12.761 8.2656 L 13.6631 5.4952 "/>
    <path id="ID0.36722757993265986" fill="#CCCCCC" stroke="none" d="M 14.7157 7.3434 C 14.9021 7.3434 15.0711 7.4207 15.1935 7.5457 C 15.3158 7.6706 15.3915 7.8432 15.3915 8.0335 C 15.3915 8.2239 15.3158 8.3965 15.1935 8.5214 C 15.0711 8.6464 14.9021 8.7237 14.7157 8.7237 C 14.5292 8.7237 14.3602 8.6464 14.2379 8.5214 C 14.1155 8.3965 14.0398 8.2239 14.0398 8.0335 C 14.0398 7.8432 14.1155 7.6706 14.2379 7.5457 C 14.3602 7.4207 14.5292 7.3434 14.7157 7.3434 Z " stroke-width="0.10201306163749417"/>
    <path id="ID0.272235160227865" fill="none" stroke="#000000" stroke-width="0.5915334501757101" stroke-linecap="round" d="M 14.5951 8.1346 L 15.4971 5.3642 "/>
    <path id="ID0.36722757993265986" fill="#CCCCCC" stroke="none" d="M 16.4842 7.3434 C 16.6706 7.3434 16.8397 7.4207 16.962 7.5457 C 17.0844 7.6706 17.1601 7.8432 17.1601 8.0335 C 17.1601 8.2239 17.0844 8.3965 16.962 8.5214 C 16.8397 8.6464 16.6706 8.7237 16.4842 8.7237 C 16.2978 8.7237 16.1288 8.6464 16.0064 8.5214 C 15.8841 8.3965 15.8084 8.2239 15.8084 8.0335 C 15.8084 7.8432 15.8841 7.6706 16.0064 7.5457 C 16.1288 7.4207 16.2978 7.3434 16.4842 7.3434 Z " stroke-width="0.10201306163749417"/>
    <path id="ID0.272235160227865" fill="none" stroke="#000000" stroke-width="0.5915334501757101" stroke-linecap="round" d="M 16.4291 8.2001 L 17.3312 5.4297 "/>
    <path id="ID0.36722757993265986" fill="#CCCCCC" stroke="none" d="M 18.3183 7.4089 C 18.5047 7.4089 18.6737 7.4862 18.7961 7.6112 C 18.9184 7.7361 18.9941 7.9087 18.9941 8.099 C 18.9941 8.2894 18.9184 8.462 18.7961 8.5869 C 18.6737 8.7119 18.5047 8.7892 18.3183 8.7892 C 18.1319 8.7892 17.9628 8.7119 17.8405 8.5869 C 17.7181 8.462 17.6424 8.2894 17.6424 8.099 C 17.6424 7.9087 17.7181 7.7361 17.8405 7.6112 C 17.9628 7.4862 18.1319 7.4089 18.3183 7.4089 Z " stroke-width="0.10201306163749417"/>
    <path id="ID0.272235160227865" fill="none" stroke="#000000" stroke-width="0.5915334501757101" stroke-linecap="round" d="M 18.1977 8.2001 L 19.0998 5.4297 "/>
    <path id="ID0.36722757993265986" fill="#CCCCCC" stroke="none" d="M 20.2178 7.4089 C 20.4043 7.4089 20.5733 7.4862 20.6956 7.6112 C 20.818 7.7361 20.8937 7.9087 20.8937 8.099 C 20.8937 8.2894 20.818 8.462 20.6956 8.5869 C 20.5733 8.7119 20.4043 8.7892 20.2178 8.7892 C 20.0314 8.7892 19.8624 8.7119 19.74 8.5869 C 19.6177 8.462 19.542 8.2894 19.542 8.099 C 19.542 7.9087 19.6177 7.7361 19.74 7.6112 C 19.8624 7.4862 20.0314 7.4089 20.2178 7.4089 Z " stroke-width="0.10201306163749417"/>
    <path id="ID0.272235160227865" fill="none" stroke="#000000" stroke-width="0.5915334501757101" stroke-linecap="round" d="M 20.0317 8.2001 L 20.9338 5.4297 "/>
    <path id="ID0.36722757993265986" fill="#CCCCCC" stroke="none" d="M 21.9864 7.3434 C 22.1728 7.3434 22.3418 7.4207 22.4642 7.5457 C 22.5866 7.6706 22.6623 7.8432 22.6623 8.0335 C 22.6623 8.2239 22.5866 8.3965 22.4642 8.5214 C 22.3418 8.6464 22.1728 8.7237 21.9864 8.7237 C 21.8 8.7237 21.631 8.6464 21.5086 8.5214 C 21.3862 8.3965 21.3105 8.2239 21.3105 8.0335 C 21.3105 7.8432 21.3862 7.6706 21.5086 7.5457 C 21.631 7.4207 21.8 7.3434 21.9864 7.3434 Z " stroke-width="0.10201306163749417"/>
    <path id="ID0.272235160227865" fill="none" stroke="#000000" stroke-width="0.5915334501757101" stroke-linecap="round" d="M 21.8658 8.2001 L 22.7679 5.4297 "/>
    <path id="ID0.36722757993265986" fill="#CCCCCC" stroke="none" d="M 23.8205 7.4089 C 24.0069 7.4089 24.1759 7.4862 24.2983 7.6112 C 24.4206 7.7361 24.4963 7.9087 24.4963 8.099 C 24.4963 8.2894 24.4206 8.462 24.2983 8.5869 C 24.1759 8.7119 24.0069 8.7892 23.8205 8.7892 C 23.634 8.7892 23.465 8.7119 23.3427 8.5869 C 23.2203 8.462 23.1446 8.2894 23.1446 8.099 C 23.1446 7.9087 23.2203 7.7361 23.3427 7.6112 C 23.465 7.4862 23.634 7.4089 23.8205 7.4089 Z " stroke-width="0.10201306163749417"/>
    <path id="ID0.272235160227865" fill="none" stroke="#000000" stroke-width="0.5915334501757101" stroke-linecap="round" d="M 23.6999 8.2001 L 24.6019 5.4297 "/>
    <path id="ID0.36722757993265986" fill="#CCCCCC" stroke="none" d="M 25.72 7.4089 C 25.9064 7.4089 26.0755 7.4862 26.1978 7.6112 C 26.3202 7.7361 26.3959 7.9087 26.3959 8.099 C 26.3959 8.2894 26.3202 8.462 26.1978 8.5869 C 26.0755 8.7119 25.9064 8.7892 25.72 8.7892 C 25.5336 8.7892 25.3646 8.7119 25.2422 8.5869 C 25.1199 8.462 25.0442 8.2894 25.0442 8.099 C 25.0442 7.9087 25.1199 7.7361 25.2422 7.6112 C 25.3646 7.4862 25.5336 7.4089 25.72 7.4089 Z " stroke-width="0.10201306163749417"/>
    <path id="ID0.272235160227865" fill="none" stroke="#000000" stroke-width="0.5915334501757101" stroke-linecap="round" d="M 25.5339 8.2001 L 26.436 5.4297 "/>
    <path id="ID0.36722757993265986" fill="#CCCCCC" stroke="none" d="M 27.5541 7.4089 C 27.7405 7.4089 27.9095 7.4862 28.0319 7.6112 C 28.1542 7.7361 28.2299 7.9087 28.2299 8.099 C 28.2299 8.2894 28.1542 8.462 28.0319 8.5869 C 27.9095 8.7119 27.7405 8.7892 27.5541 8.7892 C 27.3677 8.7892 27.1986 8.7119 27.0763 8.5869 C 26.9539 8.462 26.8782 8.2894 26.8782 8.099 C 26.8782 7.9087 26.9539 7.7361 27.0763 7.6112 C 27.1986 7.4862 27.3677 7.4089 27.5541 7.4089 Z " stroke-width="0.10201306163749417"/>
    <path id="ID0.272235160227865" fill="none" stroke="#000000" stroke-width="0.5915334501757101" stroke-linecap="round" d="M 27.4335 8.2001 L 28.3356 5.4297 "/>
    <path id="ID0.36722757993265986" fill="#CCCCCC" stroke="none" d="M 29.3881 7.4089 C 29.5746 7.4089 29.7436 7.4862 29.8659 7.6112 C 29.9883 7.7361 30.064 7.9087 30.064 8.099 C 30.064 8.2894 29.9883 8.462 29.8659 8.5869 C 29.7436 8.7119 29.5746 8.7892 29.3881 8.7892 C 29.2017 8.7892 29.0327 8.7119 28.9103 8.5869 C 28.788 8.462 28.7123 8.2894 28.7123 8.099 C 28.7123 7.9087 28.788 7.7361 28.9103 7.6112 C 29.0327 7.4862 29.2017 7.4089 29.3881 7.4089 Z " stroke-width="0.10201306163749417"/>
    <path id="ID0.272235160227865" fill="none" stroke="#000000" stroke-width="0.5915334501757101" stroke-linecap="round" d="M 29.2675 8.2656 L 30.1696 5.4952 "/>
    <path id="ID0.36722757993265986" fill="#CCCCCC" stroke="none" d="M 31.2222 7.4089 C 31.4086 7.4089 31.5776 7.4862 31.7 7.6112 C 31.8224 7.7361 31.8981 7.9087 31.8981 8.099 C 31.8981 8.2894 31.8224 8.462 31.7 8.5869 C 31.5776 8.7119 31.4086 8.7892 31.2222 8.7892 C 31.0358 8.7892 30.8668 8.7119 30.7444 8.5869 C 30.622 8.462 30.5463 8.2894 30.5463 8.099 C 30.5463 7.9087 30.622 7.7361 30.7444 7.6112 C 30.8668 7.4862 31.0358 7.4089 31.2222 7.4089 Z " stroke-width="0.10201306163749417"/>
    <path id="ID0.272235160227865" fill="none" stroke="#000000" stroke-width="0.5915334501757101" stroke-linecap="round" d="M 31.1016 8.2001 L 32.0037 5.4297 "/>
  </g>
</svg>