<svg version="1.1" xmlns="http://www.w3.org/2000/svg" xmlns:xlink="http://www.w3.org/1999/xlink" width="45.2656" height="45" viewBox="0,0,45.2656,45"><g transform="translate(-217.7344,-158)"><g data-paper-data="{&quot;isPaintingLayer&quot;:true}" fill="none" fill-rule="nonzero" stroke="none" stroke-width="none" stroke-linecap="none" stroke-linejoin="miter" stroke-miterlimit="10" stroke-dasharray="" stroke-dashoffset="0" font-family="none" font-weight="none" font-size="none" text-anchor="none" style="mix-blend-mode: normal"><path d="M218,180.5c0,-12.4264 10.0736,-22.5 22.5,-22.5c12.4264,0 22.5,10.0736 22.5,22.5c0,12.4264 -10.0736,22.5 -22.5,22.5c-12.4264,0 -22.5,-10.0736 -22.5,-22.5z" data-paper-data="{&quot;origPos&quot;:null}" fill="#f15f5f" stroke="none" stroke-width="1" stroke-linecap="butt"/><path d="M255.6,195.6l-35.4,-15.4l34.33333,-15.53333" data-paper-data="{&quot;origPos&quot;:null}" fill="none" stroke="#fff808" stroke-width="2" stroke-linecap="round"/><path d="M228.50001,171.07292c0,1.52454 -1.21723,2.76042 -2.71875,2.76042c-1.50152,0 -2.71875,-1.23588 -2.71875,-2.76042c0,-1.52454 1.21723,-2.76042 2.71875,-2.76042c1.50152,0 2.71875,1.23588 2.71875,2.76042z" data-paper-data="{&quot;origPos&quot;:null}" fill="#fafafa" stroke="#000000" stroke-width="0" stroke-linecap="butt"/><path d="M236.87502,167.07292c0,1.52454 -1.21723,2.76042 -2.71875,2.76042c-1.50152,0 -2.71875,-1.23588 -2.71875,-2.76042c0,-1.52454 1.21723,-2.76042 2.71875,-2.76042c1.50152,0 2.71875,1.23588 2.71875,2.76042z" data-paper-data="{&quot;origPos&quot;:null}" fill="#fafafa" stroke="#000000" stroke-width="0" stroke-linecap="butt"/><path d="M245.62502,163.26042c0,1.52454 -1.21723,2.76042 -2.71875,2.76042c-1.50152,0 -2.71875,-1.23588 -2.71875,-2.76042c0,-1.52454 1.21723,-2.76042 2.71875,-2.76042c1.50152,0 2.71875,1.23588 2.71875,2.76042z" data-paper-data="{&quot;origPos&quot;:null}" fill="#fafafa" stroke="#000000" stroke-width="0" stroke-linecap="butt"/><path d="M228.5,190.07292c0,1.52454 -1.21723,2.76042 -2.71875,2.76042c-1.50152,0 -2.71875,-1.23588 -2.71875,-2.76042c0,-1.52454 1.21723,-2.76042 2.71875,-2.76042c1.50152,0 2.71875,1.23588 2.71875,2.76042z" data-paper-data="{&quot;origPos&quot;:null}" fill="#fafafa" stroke="#000000" stroke-width="0" stroke-linecap="butt"/><path d="M236.87501,194.07292c0,1.52454 -1.21723,2.76042 -2.71875,2.76042c-1.50152,0 -2.71875,-1.23588 -2.71875,-2.76042c0,-1.52454 1.21723,-2.76042 2.71875,-2.76042c1.50152,0 2.71875,1.23588 2.71875,2.76042z" data-paper-data="{&quot;origPos&quot;:null}" fill="#fafafa" stroke="#000000" stroke-width="0" stroke-linecap="butt"/></g></g></svg>