<svg version="1.1" xmlns="http://www.w3.org/2000/svg" xmlns:xlink="http://www.w3.org/1999/xlink" width="221.43931" height="176.8252" viewBox="0,0,221.43931,176.8252"><g transform="translate(-141.80461,-11.01562)"><g data-paper-data="{&quot;isPaintingLayer&quot;:true}" fill="#9966ff" fill-rule="nonzero" stroke="none" stroke-width="0.5" stroke-linecap="butt" stroke-linejoin="miter" stroke-miterlimit="10" stroke-dasharray="" stroke-dashoffset="0" style="mix-blend-mode: normal"><path d="M237.65704,176.80571c1.34273,-0.79024 2.80433,-0.79024 2.80433,-0.79024c7.69297,0 16.38142,-1.11709 24.00028,0.06456c0.89501,0.13881 1.67579,0.77638 2.57771,0.85924c5.58761,0.51329 11.60686,-0.06456 17.24304,-0.06456c2.19524,0 4.43397,0.57524 6.58436,0.13376c1.0583,-0.21727 1.8408,-1.1586 2.85098,-1.54165c1.79435,-0.68041 3.71929,-0.95357 5.55263,-1.52062c2.67839,-1.81694 5.73869,-3.00179 8.68538,-4.34049c2.74753,-1.24823 5.16819,-3.14862 7.92345,-4.37969c1.04245,-0.46578 2.27154,-0.37836 3.32759,-0.81241c2.63528,-1.08312 4.86657,-3.71247 7.42815,-5.00796c4.05849,-2.05252 10.40564,-3.7236 13.59285,-7.02711c2.43429,-2.52312 4.77789,-5.17867 6.68292,-8.12193c1.39677,-2.158 1.42901,-5.96618 2.39725,-8.2257c0.99121,-2.31311 3.73976,-4.6696 3.93331,-7.3705c0.12424,-1.7336 -0.04304,-3.47583 -0.06456,-5.21374c0,-4.869 0,-9.73801 0,-14.60701c0,-1.62257 0.56661,-3.30211 0.13376,-4.86589c-0.3417,-1.23445 -1.43033,-2.1889 -1.71847,-3.43694c-0.4914,-2.12841 0.20184,-4.38854 -0.09629,-6.5525c-0.46866,-3.40177 -1.60808,-3.3093 -2.52495,-7.3985c-0.22237,-0.99177 0.33408,-2.06086 0.09121,-3.04781c-0.7003,-2.84583 -2.05548,-1.91157 -3.87237,-3.81379c-1.01077,-1.05823 -1.77274,-2.33804 -2.50749,-3.60361c-2.61975,-4.51241 -5.22477,-9.17499 -7.73312,-13.74777c-0.46078,-0.84002 -0.52138,-1.90791 -1.14231,-2.63756c-0.61952,-0.728 -1.8189,-0.79817 -2.41644,-1.54431c-1.79053,-2.23578 -3.0813,-4.82954 -4.62195,-7.24431c-4.03065,-4.0377 -5.50709,-4.76091 -7.77957,-10.37045c-0.25142,-0.62063 0.44935,-1.37783 0.19918,-1.99896c-0.51384,-1.27574 -2.90622,-1.31288 -3.71579,-1.7807c-0.35049,-0.20253 -7.33774,-5.37588 -7.82936,-5.80704c-0.66926,-0.58695 -0.9922,-1.56249 -1.76519,-2.00398c-0.75623,-0.43192 -1.74906,-0.1803 -2.56969,-0.47188c-2.11553,-0.75168 -4.10032,-1.83531 -6.19532,-2.64246c-7.82172,-3.01352 -16.12173,-3.88644 -24.41258,-4.84606c-1.95707,-0.22652 -3.89442,0.60446 -5.85057,0.83881c-5.47293,0.65567 -11.44587,0.03746 -16.9364,0.03746c-6.03866,-0.02649 -11.95463,0.85924 -18.04395,0.85924c-12.70709,0 -25.66174,-1.10654 -37.61143,3.91558c-3.18956,1.34048 -5.73367,3.65508 -8.59151,5.55551c-0.94614,0.62917 -1.82914,1.367 -2.84157,1.88277c-0.67434,0.34353 -1.65179,0.11774 -2.16931,0.66993c-0.57884,0.61762 -0.13032,1.83931 -0.7363,2.43034c-0.22872,0.22307 -5.91485,3.93041 -7.60415,5.03425c-1.56449,1.39654 -2.88077,3.13508 -4.69347,4.18963c-0.65112,0.37879 -1.55052,-0.41384 -2.25506,-0.14726c-0.3595,0.13602 -0.1983,0.74274 -0.29909,1.11367c-0.33988,1.25082 -0.37457,2.62921 -1.02292,3.75158c-0.72888,1.26179 -2.1184,2.02177 -2.98768,3.19127c-0.99627,1.34034 -1.57568,2.96013 -2.57771,4.29618c-0.95538,1.27385 -2.98293,2.28685 -3.37096,4.08635c-0.15675,0.72693 0.23277,1.50443 0.06919,2.22985c-0.62351,2.76505 -2.09053,5.30164 -2.6469,8.08098c-0.85371,4.26469 -0.72548,8.29823 -0.72548,12.59901c0,9.10972 0.33773,17.57965 4.47997,25.84515c0.67111,1.05797 1.56341,2.00462 2.01332,3.17392c0.53845,1.39941 0.3475,3.01406 0.90345,4.40661c0.5812,1.4558 1.75518,2.60807 2.45666,4.00988c0.31572,0.63092 0.17308,1.45503 0.56993,2.03834c0.58295,0.85686 1.64181,1.30161 2.26548,2.1293c2.16961,2.87936 3.71853,6.26721 6.27477,8.80956c0.94751,0.94236 2.38205,1.35312 3.20934,2.4026c1.05951,1.34407 1.74675,5.65817 3.35761,6.79456c0.74009,0.5221 1.88641,0.27407 2.57771,0.85924c1.93346,1.63662 2.5225,4.52348 4.46495,6.14943c1.88293,1.57613 4.57847,2.03611 6.34645,3.74017c0.59089,0.56953 0.57778,1.62614 1.21791,2.13971c0.58432,0.4688 1.57094,0.13157 2.17139,0.57952c1.09632,0.81787 1.53825,2.38504 2.72171,3.0708c0.74344,0.43079 1.82965,-0.42273 2.57771,0c1.63402,0.92339 2.76812,2.53539 4.15218,3.80309c2.87751,0.83264 4.70795,2.7527 7.30122,4.05786c2.42961,1.22279 5.60526,2.22634 8.13033,3.23909c2.57047,1.03096 4.81843,0.16188 7.46854,0.58612c1.64806,0.26383 3.3002,0.62666 4.8488,1.2492c0.77519,0.31163 1.21397,1.23337 2.00386,1.50558c0.60997,0.21021 1.2937,-0.25838 1.9297,-0.14998c0.8274,0.14103 1.61702,0.43912 2.40941,0.72568zM241.66123,186.01547c-0.07672,0.08464 -0.15734,0.16932 -0.24203,0.25401c-3.20867,3.20867 -6.41734,0.59329 -6.98321,0.08227c-1.32347,-0.23568 -2.7351,-0.13281 -4.0159,-0.55082c-1.8082,-0.59014 -3.28561,-2.19607 -5.17665,-2.40063c-3.5796,-0.38721 -6.05983,0.17381 -9.71617,-1.13235c-2.56619,-0.91672 -6.57365,-2.39951 -9.05438,-3.63479c-3.06577,-1.5266 -4.91303,-3.34855 -8.16502,-4.5345c-0.90724,-1.0236 -1.53825,-2.38504 -2.72171,-3.0708c-0.74344,-0.43079 -1.82965,0.42273 -2.57771,0c-1.63402,-0.92339 -2.60919,-2.73452 -4.15218,-3.80309c-0.87527,-0.60615 -2.15205,-0.47462 -2.98402,-1.13896c-0.97527,-0.77876 -1.35669,-2.1135 -2.21904,-3.01571c-1.49468,-1.56377 -4.04995,-1.71489 -5.68285,-3.13372c-1.40534,-1.2211 -2.38603,-2.86404 -3.45567,-4.38784c-0.31337,-0.44642 -0.22986,-1.1723 -0.67174,-1.49204c-0.73377,-0.53095 -1.88941,-0.27054 -2.57771,-0.85924c-0.61084,-0.52245 -4.36146,-5.84308 -4.89355,-6.93219c-0.25938,-0.53091 0.03472,-1.28361 -0.34119,-1.7395c-0.46737,-0.56679 -1.42799,-0.51352 -1.94608,-1.03435c-2.95238,-2.96794 -4.96819,-6.73936 -7.47301,-10.09363c-0.83456,-1.11757 -2.12374,-1.86061 -2.88993,-3.02611c-0.60827,-0.92528 -0.65359,-2.12654 -1.14855,-3.11708c-0.79237,-1.58576 -2.03934,-2.93698 -2.69875,-4.58248c-0.81352,-2.03005 -0.96258,-4.39112 -2.23865,-6.16724c-1.97338,-3.95315 -4.09577,-8.51503 -4.90707,-12.87879c-0.27334,-1.47023 0.13915,-3.00003 -0.0271,-4.48617c-0.50491,-4.51349 -0.8967,-8.87679 -0.8967,-13.49945c0,-5.11771 -0.02467,-9.80476 0.99299,-14.89654c0.50955,-2.54947 1.95339,-4.84534 2.50852,-7.38527c0.20828,-0.95296 -0.22746,-1.9963 0.06919,-2.92556c0.58721,-1.83945 1.46785,-3.59823 2.52851,-5.21173c0.70229,-1.06835 1.92578,-1.70842 2.69289,-2.73122c1.00204,-1.33604 1.56886,-2.96528 2.57771,-4.29618c0.58902,-0.77706 1.68942,-1.11444 2.16774,-1.96414c0.52306,-0.92918 0.1304,-2.21812 0.69555,-3.12231c1.33109,-2.12963 2.85839,-4.23859 4.85633,-5.76022c0.77012,-0.58652 2.05477,0.32398 2.90036,-0.14726c1.00694,-0.56117 1.45361,-1.7895 2.18042,-2.68426c1.96093,-1.32485 4.50182,-1.85371 6.14362,-3.55811c0.66986,-0.6954 0.28764,-2.05432 0.98218,-2.72508c1.30866,-1.26386 3.15535,-1.81317 4.70458,-2.76701c4.29126,-2.64209 7.95987,-6.00117 12.62552,-8.02797c13.12104,-5.6999 27.45622,-4.67678 41.43827,-4.67678c6.09862,0 11.97706,-0.83728 18.04395,-0.85924c5.05377,0 10.68483,0.69742 15.71457,0.03746c2.62617,-0.34458 5.2589,-1.11383 7.89721,-0.87966c3.47071,0.30805 6.84052,1.40597 10.31083,1.71847c1.51965,0.13684 3.07287,-0.22325 4.57728,0.03129c6.37682,1.07893 12.11008,4.01137 18.08745,6.22797c1.4005,0.51935 3.0074,0.50536 4.3042,1.24659c3.33771,1.90779 5.86203,5.71081 9.30863,7.65523c0.89006,0.50213 2.09535,0.3872 2.88583,1.03488c2.04378,1.67457 4.01949,3.54112 5.42769,5.77678c0.56188,0.89204 -0.13356,2.1561 0.19918,3.15646c0.70606,2.12274 5.12017,5.96774 5.96821,6.81427c1.32347,2.16782 2.38484,4.51929 3.97041,6.50347c0.69279,0.86695 2.03464,1.03504 2.73897,1.89263c1.67299,2.03705 2.70529,4.52535 4.0131,6.81403c1.14565,2.00488 2.31553,3.99611 3.43694,6.01465c1.22525,2.20545 1.6639,4.98455 3.50716,6.70722c0.78283,0.73162 1.99988,0.96022 2.66081,1.80358c1.53017,1.95251 2.90074,4.09143 3.77764,6.41194c0.45096,1.19336 -0.18304,2.58018 0.09121,3.82607c0.60806,2.76245 2.22217,5.26879 2.63046,8.06774c0.26356,1.80676 -0.58338,3.71709 -0.09629,5.4768c0.3417,1.23445 1.43033,2.1889 1.71847,3.43694c0.15881,0.68785 0.13376,5.7292 0.13376,7.16342c0,4.869 0,9.73801 0,14.60701c-0.02152,2.27185 0.20171,4.55926 -0.06456,6.81556c-0.45451,3.8513 -3.23593,6.49424 -4.65905,9.81422c-1.20041,2.80044 -1.11764,6.27435 -2.75817,8.95902c-0.86121,1.40935 -7.95609,9.97422 -8.78333,10.78126c-4.06835,3.96903 -10.61979,5.97111 -15.62117,8.43914c-2.84743,1.40512 -5.11517,4.0117 -8.0381,5.30288c-1.11603,0.493 -2.4303,0.41298 -3.54629,0.90606c-2.63416,1.16386 -4.92134,3.02048 -7.5428,4.21267c-2.88364,1.31143 -5.85121,2.51329 -8.49934,4.25187c-2.12766,0.73616 -4.36592,1.13302 -6.47668,1.91632c-1.38973,0.51573 -2.56838,1.60951 -4.02291,1.89529c-0.77353,0.15198 -6.8144,0.13376 -8.88189,0.13376c-7.17917,0 -14.43432,0.35152 -21.42257,-0.9238c-2.29915,-0.41958 -5.48828,0.06456 -7.79145,0.06456c-4.46905,0 -8.9381,0 -13.40715,0zM234.99494,186.47538l0.44835,0.14273c-0.14759,-0.05478 -0.29716,-0.10191 -0.44835,-0.14273z"/></g></g></svg>