<svg xmlns="http://www.w3.org/2000/svg" xmlns:xlink="http://www.w3.org/1999/xlink" version="1.1" width="63.603110172178965" height="162.39151654424927" viewBox="3.493344377564083 0.16344435124267187 63.603110172178965 162.39151654424927">
  <defs>
    <radialGradient id="grad_1" cx="0.39299999999999996" cy="0.4117" r="0.7890999999999999">
      <stop offset="0" stop-color="#00FF55" stop-opacity="1"/>
      <stop offset="1" stop-color="#009933" stop-opacity="1"/>
    </radialGradient>
    <radialGradient id="grad_2" cx="0.0837" cy="0.2682" r="1.19119">
      <stop offset="0" stop-color="#FFFFFF" stop-opacity="1"/>
      <stop offset="1" stop-color="#666666" stop-opacity="1"/>
    </radialGradient>
    <radialGradient id="grad_3" cx="0.1673" cy="0.1648" r="1.0857599999999998">
      <stop offset="0" stop-color="#FF9400" stop-opacity="1"/>
      <stop offset="1" stop-color="#995900" stop-opacity="1"/>
    </radialGradient>
    <radialGradient id="grad_4" cx="0.102" cy="0.1648" r="1.1674">
      <stop offset="0" stop-color="#FF9400" stop-opacity="1"/>
      <stop offset="1" stop-color="#995900" stop-opacity="1"/>
    </radialGradient>
    <radialGradient id="grad_5" cx="0.1959" cy="0.1791" r="1.06717">
      <stop offset="0" stop-color="#FF9400" stop-opacity="1"/>
      <stop offset="1" stop-color="#995900" stop-opacity="1"/>
    </radialGradient>
    <radialGradient id="grad_6" cx="0.0897" cy="0.1461" r="1.18339">
      <stop offset="0" stop-color="#FF9400" stop-opacity="1"/>
      <stop offset="1" stop-color="#995900" stop-opacity="1"/>
    </radialGradient>
    <radialGradient id="grad_7" cx="0.6829000000000001" cy="0.0712" r="1.20744">
      <stop offset="0" stop-color="#003FFF" stop-opacity="1"/>
      <stop offset="1" stop-color="#002699" stop-opacity="1"/>
    </radialGradient>
    <radialGradient id="grad_8" cx="0.6685" cy="0.053899999999999997" r="1.22993">
      <stop offset="0" stop-color="#003FFF" stop-opacity="1"/>
      <stop offset="1" stop-color="#002699" stop-opacity="1"/>
    </radialGradient>
    <radialGradient id="grad_9" cx="0.1536" cy="0.22519999999999998" r="1.10032">
      <stop offset="0" stop-color="#003FFF" stop-opacity="1"/>
      <stop offset="1" stop-color="#002699" stop-opacity="1"/>
    </radialGradient>
    <radialGradient id="grad_10" cx="0.0492" cy="0.22519999999999998" r="1.23604">
      <stop offset="0" stop-color="#003FFF" stop-opacity="1"/>
      <stop offset="1" stop-color="#002699" stop-opacity="1"/>
    </radialGradient>
    <radialGradient id="grad_11" cx="0.2842" cy="0.233" r="0.9971">
      <stop offset="0" stop-color="#003FFF" stop-opacity="1"/>
      <stop offset="1" stop-color="#002699" stop-opacity="1"/>
    </radialGradient>
    <radialGradient id="grad_12" cx="0.040999999999999995" cy="0.1319" r="1.2467">
      <stop offset="0" stop-color="#003FFF" stop-opacity="1"/>
      <stop offset="1" stop-color="#002699" stop-opacity="1"/>
    </radialGradient>
  <radialGradient id="grad_1-.275246798992157,0,0,0.275246798992157,-37.5,116.05" cx="13.9265" cy="150.9448" r="10.9718" gradientUnits="userSpaceOnUse">
      <stop offset="0" stop-color="#00FF55" stop-opacity="1"/>
      <stop offset="1" stop-color="#009933" stop-opacity="1"/>
    </radialGradient><radialGradient id="grad_3-.0613114833831787,0,0,0.92707359790802,-220.85,-116.85" cx="41.2566" cy="95.1428" r="34.1901" gradientUnits="userSpaceOnUse">
      <stop offset="0" stop-color="#FF9400" stop-opacity="1"/>
      <stop offset="1" stop-color="#995900" stop-opacity="1"/>
    </radialGradient><radialGradient id="grad_5-.0613114833831787,0,0,0.92707359790802,-240,-116.75" cx="22.4177" cy="95.8195" r="33.6047" gradientUnits="userSpaceOnUse">
      <stop offset="0" stop-color="#FF9400" stop-opacity="1"/>
      <stop offset="1" stop-color="#995900" stop-opacity="1"/>
    </radialGradient><radialGradient id="grad_7-,0,0,1,-279.35,-86.75" cx="15.5325" cy="41.3071" r="42.3358" gradientUnits="userSpaceOnUse">
      <stop offset="0" stop-color="#003FFF" stop-opacity="1"/>
      <stop offset="1" stop-color="#002699" stop-opacity="1"/>
    </radialGradient><radialGradient id="grad_9-,0,0,1,-217.9,-89.5" cx="53.1924" cy="48.047" r="38.8151" gradientUnits="userSpaceOnUse">
      <stop offset="0" stop-color="#003FFF" stop-opacity="1"/>
      <stop offset="1" stop-color="#002699" stop-opacity="1"/>
    </radialGradient><radialGradient id="grad_11-.8348466157913208,0,0,0.8348466157913208,-161.75,-91" cx="26.5725" cy="49.0726" r="46.5081" gradientUnits="userSpaceOnUse">
      <stop offset="0" stop-color="#003FFF" stop-opacity="1"/>
      <stop offset="1" stop-color="#002699" stop-opacity="1"/>
    </radialGradient></defs>
  <!-- Exported by Scratch - http://scratch.mit.edu/ -->
  <g id="ID0.9854236710816622">
    <path id="ID0.3515064688399434" fill="#FFFFFF" stroke="#000000" stroke-width="0.7439915734681651" d="M 4.4898 141.8907 L 65.8943 141.8907 L 65.8943 161.5585 L 4.4898 161.5585 L 4.4898 141.8907 Z "/>
    <text id="ID0.9115317738614976" fill="#000000" text-anchor="start" font-family="Sans Serif" font-size="22" transform="matrix(0.612951 0 0 0.612951 24.6259 141.161)" stroke-width="1" alignment-baseline="text-before-edge" xml:space="preserve"><tspan x="0" style="white-space: pre" dy="1.13em">Bob</tspan></text>
    <path id="ID0.25286548025906086" fill="url(#grad_1-.275246798992157,0,0,0.275246798992157,-37.5,116.05)" stroke="url(#grad_2)" stroke-width="1.651480793952942" d="M 15.4506 145.3638 C 17.4156 145.3638 19.1959 146.1232 20.4854 147.3502 C 21.7747 148.5773 22.5726 150.2717 22.5726 152.1417 C 22.5726 154.0118 21.7747 155.7062 20.4854 156.9332 C 19.1959 158.1603 17.4156 158.9197 15.4506 158.9197 C 13.4856 158.9197 11.7053 158.1603 10.4158 156.9332 C 9.1265 155.7062 8.3286 154.0118 8.3286 152.1417 C 8.3286 150.2717 9.1265 148.5773 10.4158 147.3502 C 11.7053 146.1232 13.4856 145.3638 15.4506 145.3638 Z "/>
  </g>
  <g id="ID0.5819202535785735">
    <g id="ID0.7356321816332638">
      <path id="ID0.8654622961767018" fill="#000000" stroke="#000000" stroke-width="1.6696932315826416" d="M 44.8267 128.7223 C 46.842 128.7223 48.6686 129.2015 49.991 129.9762 C 51.3134 130.7509 52.1316 131.8204 52.1316 133.0009 C 52.1316 134.1813 51.1047 135.4854 49.991 136.0255 C 48.4491 136.7727 46.5498 136.5899 44.7849 136.6116 C 43.0894 136.5899 41.2285 136.776 39.6623 136.0255 C 38.547 135.4895 37.5218 134.1813 37.5218 133.0009 C 37.5218 131.8204 38.3399 130.7509 39.6623 129.9762 C 40.9847 129.2015 42.8114 128.7223 44.8267 128.7223 Z "/>
      <path id="ID0.47236768435686827" fill="url(#grad_3-.0613114833831787,0,0,0.92707359790802,-220.85,-116.85)" stroke="url(#grad_4)" stroke-width="1.992911197569588" d="M 39.4366 88.4968 L 50.3151 88.4968 L 50.3151 128.8245 L 39.4366 128.8245 L 39.4366 88.4968 Z "/>
    </g>
    <g id="ID0.7477488755248487">
      <path id="ID0.8654622961767018" fill="#000000" stroke="#000000" stroke-width="1.6696932315826416" d="M 25.6767 128.8223 C 27.692 128.8223 29.5186 129.3015 30.841 130.0762 C 32.1634 130.8509 32.9816 131.9204 32.9816 133.1009 C 32.9816 134.2813 31.9639 135.5845 30.841 136.1255 C 29.2056 136.9111 27.2328 136.745 25.468 136.7533 C 23.7682 136.745 21.9599 136.8769 20.5123 136.1255 C 19.4062 135.5503 18.3718 134.2813 18.3718 133.1009 C 18.3718 131.9204 19.1899 130.8509 20.5123 130.0762 C 21.8347 129.3015 23.6614 128.8223 25.6767 128.8223 Z "/>
      <path id="ID0.47236768435686827" fill="url(#grad_5-.0613114833831787,0,0,0.92707359790802,-240,-116.75)" stroke="url(#grad_6)" stroke-width="1.992911197569588" d="M 20.2866 88.5968 L 31.1651 88.5968 L 31.1651 128.9245 L 20.2866 128.9245 L 20.2866 88.5968 Z "/>
    </g>
    <g id="ID0.9803413534536958">
      <path id="ID0.7297148094512522" fill="#FFDEAE" d="M 7.9078 85.2985 C 7.3566 86.5604 6.3433 87.8027 6.4466 89.2459 C 6.6326 91.8395 7.5235 94.3991 8.6743 96.7389 C 8.9497 97.3225 9.969 97.4982 10.4496 97.1395 C 10.8445 96.864 10.5155 96.058 10.4284 95.4646 C 10.1908 94.0527 9.5895 92.7324 9.3859 91.2829 C 9.2544 90.4201 9.0187 89.4604 9.3578 88.6564 C 10.4342 87.417 11.2189 87.7388 11.9849 87.4488 C 13.6225 87.7765 14.061 85.8685 14.4437 84.4093 C 14.7775 83.2551 15.7616 81.6983 14.9434 80.7728 C 13.8977 79.568 11.8442 79.1567 10.2625 79.63 C 9.2379 79.9427 9.5146 81.6686 9.0986 82.6359 C 8.7155 83.5282 8.2409 84.3558 7.9078 85.2985 Z " stroke-width="1.0756632577153913"/>
      <path id="ID0.7297148094512522" fill="#FFD499" d="M 13.8301 84.7224 C 12.8151 84.2743 11.7192 85.4127 10.7444 85.991 C 9.9923 86.439 9.0989 86.8792 8.7841 87.7532 C 8.3911 88.8537 8.8177 90.0945 8.9736 91.2601 C 9.1389 92.4832 9.2606 93.7634 9.8447 94.8655 C 10.1617 95.525 11.1667 96.5792 11.5483 96.2911 C 12.0072 95.9424 11.641 94.4373 11.486 93.5494 C 11.2499 92.2069 10.7782 90.9053 10.5513 89.5615 C 10.4586 89.0235 10.3081 88.4379 10.5644 88.0018 C 10.8318 87.5966 11.4263 87.2683 11.8766 87.436 C 12.3698 87.6196 12.5132 88.2841 12.7465 88.7583 C 13.1396 89.5573 13.2567 90.4911 13.6918 91.2626 C 13.9593 91.7386 14.2571 92.3808 14.7579 92.401 C 15.2783 92.431 15.8224 91.8728 15.8571 91.3716 C 15.9392 90.1689 15.4739 88.9938 15.1355 87.8473 C 14.8178 86.7684 14.8846 85.1481 13.8301 84.7224 Z " stroke-width="1.0756632577153913"/>
    </g>
    <path id="ID0.012270784005522728" fill="url(#grad_7-,0,0,1,-279.35,-86.75)" stroke="url(#grad_8)" stroke-linecap="round" d="M 14.55 39.75 L 16.9 37.95 L 20.4 46.75 L 17.55 85.1 L 5.05 80.6 L 14.55 39.75 Z " stroke-width="1"/>
    <g id="ID0.9803413534536958">
      <path id="ID0.7297148094512522" fill="#FFDEAE" d="M 62.9922 85.1985 C 63.5434 86.4604 64.5567 87.7027 64.4534 89.1459 C 64.2674 91.7395 63.3765 94.2991 62.2257 96.6389 C 61.9503 97.2225 60.931 97.3982 60.4504 97.0395 C 60.0555 96.764 60.3845 95.958 60.4716 95.3646 C 60.7092 93.9527 61.3105 92.6324 61.5141 91.1829 C 61.6456 90.3201 61.8813 89.3604 61.5422 88.5564 C 60.4658 87.317 59.6811 87.6388 58.9151 87.3488 C 57.2775 87.6765 56.839 85.7685 56.4563 84.3093 C 56.1225 83.1551 55.1384 81.5983 55.9566 80.6728 C 57.0023 79.468 59.0558 79.0567 60.6375 79.53 C 61.6621 79.8427 61.3854 81.5686 61.8014 82.5359 C 62.1845 83.4282 62.6591 84.2558 62.9922 85.1985 Z " stroke-width="1.0756632577153913"/>
      <path id="ID0.7297148094512522" fill="#FFD499" d="M 57.0699 84.6224 C 58.0849 84.1743 59.1808 85.3127 60.1556 85.891 C 60.9077 86.339 61.8011 86.7792 62.1159 87.6532 C 62.5089 88.7537 62.0823 89.9945 61.9264 91.1601 C 61.7611 92.3832 61.6394 93.6634 61.0553 94.7655 C 60.7383 95.425 59.7333 96.4792 59.3517 96.1911 C 58.8928 95.8424 59.259 94.3373 59.414 93.4494 C 59.6501 92.1069 60.1218 90.8053 60.3487 89.4615 C 60.4414 88.9235 60.5919 88.3379 60.3356 87.9018 C 60.0682 87.4966 59.4737 87.1683 59.0234 87.336 C 58.5302 87.5196 58.3868 88.1841 58.1535 88.6583 C 57.7604 89.4573 57.6433 90.3911 57.2082 91.1626 C 56.9407 91.6386 56.6429 92.2808 56.1421 92.301 C 55.6217 92.331 55.0776 91.7728 55.0429 91.2716 C 54.9608 90.0689 55.4261 88.8938 55.7645 87.7473 C 56.0822 86.6684 56.0154 85.0481 57.0699 84.6224 Z " stroke-width="1.0756632577153913"/>
    </g>
    <path id="ID0.633912967517972" fill="url(#grad_9-,0,0,1,-217.9,-89.5)" stroke="url(#grad_10)" stroke-linecap="round" d="M 50.85 47.1 L 53.85 37.35 L 56.6 39.7 L 66.1 80.1 L 53.5 84.85 L 50.85 47.1 Z " stroke-width="1"/>
    <path id="ID0.43916446389630437" fill="url(#grad_11-.8348466157913208,0,0,0.8348466157913208,-161.75,-91)" stroke="url(#grad_12)" d="M 15.1957 39.6118 L 16.9907 37.7751 L 19.2865 36.9402 L 51.3446 36.8568 L 53.6822 37.6916 L 55.2266 39.4865 L 52.3047 67.9548 L 52.3047 89.2851 L 18.4516 89.2851 L 18.4516 67.7461 L 15.1957 39.6118 Z " stroke-width="0.8348466157913208"/>
    <g id="ID0.06994365435093641">
      <g id="ID0.2824689648114145">
        <path id="ID0.8757698251865804" fill="#995900" stroke="#995900" stroke-width="0.38399542291352456" d="M 14.525 11.8526 L 17.6824 12.1111 L 16.4998 26.5586 L 13.3424 26.3001 L 14.525 11.8526 Z "/>
        <path id="ID0.6422801343724132" fill="none" stroke="#000000" stroke-width="0.38399542291352456" stroke-linecap="round" d="M 15.1886 13.1591 C 15.1886 13.1591 15.6352 13.2409 15.8505 13.3096 C 16.0432 13.371 16.2145 13.4922 16.4089 13.548 C 16.5318 13.5833 16.7917 13.5793 16.7917 13.5793 "/>
        <path id="ID0.7584992088377476" fill="none" stroke="#000000" stroke-width="0.38399542291352456" stroke-linecap="round" d="M 15.1198 15.1762 C 15.1198 15.1762 15.6715 15.414 15.9653 15.438 C 16.1369 15.4521 16.4593 15.2858 16.4593 15.2858 "/>
        <path id="ID0.40438934741541743" fill="none" stroke="#000000" stroke-width="0.38399542291352456" stroke-linecap="round" d="M 15.0057 18.9233 C 15.308 18.7556 15.6184 18.5996 15.9138 18.4198 C 15.9911 18.3727 16.1208 18.2441 16.1208 18.2441 "/>
        <path id="ID0.7633831659331918" fill="none" stroke="#000000" stroke-width="0.38399542291352456" stroke-linecap="round" d="M 14.242 20.0167 C 14.242 20.0167 14.8734 20.1417 15.1909 20.1907 C 15.3173 20.2101 15.4462 20.2116 15.5737 20.222 C 15.7331 20.235 15.8926 20.2481 16.0521 20.2611 C 16.0919 20.2644 16.0521 20.2611 16.0521 20.2611 "/>
        <path id="ID0.8195131137035787" fill="none" stroke="#000000" stroke-width="0.38399542291352456" stroke-linecap="round" d="M 14.6203 22.4556 C 14.6203 22.4556 14.8598 22.6681 14.9795 22.774 C 15.0991 22.8799 15.2157 22.9904 15.3387 23.0923 C 15.5162 23.2396 15.7007 23.379 15.8814 23.5221 C 15.9267 23.5577 15.8814 23.5221 15.8814 23.5221 "/>
        <path id="ID0.923992021009326" fill="none" stroke="#000000" stroke-width="0.38399542291352456" stroke-linecap="round" d="M 14.5123 24.9511 C 14.5123 24.9511 16.1388 25.0842 16.1388 25.0842 "/>
      </g>
      <g id="ID0.2824689648114145">
        <path id="ID0.8757698251865804" fill="#995900" stroke="#995900" stroke-width="0.3839954137802124" d="M 41.1599 2.8599 L 44.3279 2.8599 L 44.3279 17.3557 L 41.1599 17.3557 L 41.1599 2.8599 Z "/>
        <path id="ID0.6422801343724132" fill="none" stroke="#000000" stroke-width="0.3839954137802124" stroke-linecap="round" d="M 41.9279 4.1079 C 41.9279 4.1079 42.3797 4.153 42.5999 4.2039 C 42.7969 4.2494 42.9776 4.3561 43.1759 4.3959 C 43.3013 4.421 43.5599 4.3959 43.5599 4.3959 "/>
        <path id="ID0.7584992088377476" fill="none" stroke="#000000" stroke-width="0.3839954137802124" stroke-linecap="round" d="M 42.0239 6.1239 C 42.0239 6.1239 42.5932 6.3159 42.8879 6.3159 C 43.0601 6.3159 43.3679 6.1239 43.3679 6.1239 "/>
        <path id="ID0.40438934741541743" fill="none" stroke="#000000" stroke-width="0.3839954137802124" stroke-linecap="round" d="M 42.2159 9.8678 C 42.5035 9.676 42.8002 9.4952 43.0799 9.2918 C 43.1531 9.2386 43.2719 9.0998 43.2719 9.0998 "/>
        <path id="ID0.7633831659331918" fill="none" stroke="#000000" stroke-width="0.3839954137802124" stroke-linecap="round" d="M 41.5439 11.0198 C 41.5439 11.0198 42.1835 11.093 42.5039 11.1158 C 42.6314 11.1248 42.76 11.1158 42.8879 11.1158 C 43.0478 11.1158 43.208 11.1158 43.3679 11.1158 C 43.4078 11.1158 43.3679 11.1158 43.3679 11.1158 "/>
        <path id="ID0.8195131137035787" fill="none" stroke="#000000" stroke-width="0.3839954137802124" stroke-linecap="round" d="M 42.1199 13.4198 C 42.1199 13.4198 42.376 13.612 42.5039 13.7078 C 42.6318 13.8036 42.757 13.9042 42.8879 13.9958 C 43.0768 14.1281 43.2721 14.2519 43.4639 14.3798 C 43.5119 14.4116 43.4639 14.3798 43.4639 14.3798 "/>
        <path id="ID0.923992021009326" fill="none" stroke="#000000" stroke-width="0.3839954137802124" stroke-linecap="round" d="M 42.2159 15.9157 C 42.2159 15.9157 43.8479 15.9157 43.8479 15.9157 "/>
      </g>
      <g id="ID0.2824689648114145">
        <path id="ID0.8757698251865804" fill="#995900" stroke="#995900" stroke-width="0.3839954137802124" d="M 22.7099 5.0099 L 25.8779 5.0099 L 25.8779 19.5057 L 22.7099 19.5057 L 22.7099 5.0099 Z "/>
        <path id="ID0.6422801343724132" fill="none" stroke="#000000" stroke-width="0.3839954137802124" stroke-linecap="round" d="M 23.4779 6.2579 C 23.4779 6.2579 23.9297 6.303 24.1499 6.3539 C 24.3469 6.3994 24.5276 6.5061 24.7259 6.5459 C 24.8513 6.571 25.1099 6.5459 25.1099 6.5459 "/>
        <path id="ID0.7584992088377476" fill="none" stroke="#000000" stroke-width="0.3839954137802124" stroke-linecap="round" d="M 23.5739 8.2739 C 23.5739 8.2739 24.1432 8.4659 24.4379 8.4659 C 24.6101 8.4659 24.9179 8.2739 24.9179 8.2739 "/>
        <path id="ID0.40438934741541743" fill="none" stroke="#000000" stroke-width="0.3839954137802124" stroke-linecap="round" d="M 23.7659 12.0178 C 24.0535 11.826 24.3502 11.6452 24.6299 11.4418 C 24.7031 11.3886 24.8219 11.2498 24.8219 11.2498 "/>
        <path id="ID0.7633831659331918" fill="none" stroke="#000000" stroke-width="0.3839954137802124" stroke-linecap="round" d="M 23.0939 13.1698 C 23.0939 13.1698 23.7335 13.243 24.0539 13.2658 C 24.1814 13.2748 24.31 13.2658 24.4379 13.2658 C 24.5978 13.2658 24.758 13.2658 24.9179 13.2658 C 24.9578 13.2658 24.9179 13.2658 24.9179 13.2658 "/>
        <path id="ID0.8195131137035787" fill="none" stroke="#000000" stroke-width="0.3839954137802124" stroke-linecap="round" d="M 23.6699 15.5698 C 23.6699 15.5698 23.926 15.762 24.0539 15.8578 C 24.1818 15.9536 24.307 16.0542 24.4379 16.1458 C 24.6268 16.2781 24.8221 16.4019 25.0139 16.5298 C 25.0619 16.5616 25.0139 16.5298 25.0139 16.5298 "/>
        <path id="ID0.923992021009326" fill="none" stroke="#000000" stroke-width="0.3839954137802124" stroke-linecap="round" d="M 23.7659 18.0657 C 23.7659 18.0657 25.3979 18.0657 25.3979 18.0657 "/>
      </g>
      <g id="ID0.2824689648114145">
        <path id="ID0.8757698251865804" fill="#995900" stroke="#995900" stroke-width="0.3839954137802124" d="M 19.3099 7.0099 L 22.4779 7.0099 L 22.4779 21.5057 L 19.3099 21.5057 L 19.3099 7.0099 Z "/>
        <path id="ID0.6422801343724132" fill="none" stroke="#000000" stroke-width="0.3839954137802124" stroke-linecap="round" d="M 20.0779 8.2579 C 20.0779 8.2579 20.5297 8.303 20.7499 8.3539 C 20.9469 8.3994 21.1276 8.5061 21.3259 8.5459 C 21.4513 8.571 21.7099 8.5459 21.7099 8.5459 "/>
        <path id="ID0.7584992088377476" fill="none" stroke="#000000" stroke-width="0.3839954137802124" stroke-linecap="round" d="M 20.1739 10.2739 C 20.1739 10.2739 20.7432 10.4659 21.0379 10.4659 C 21.2101 10.4659 21.5179 10.2739 21.5179 10.2739 "/>
        <path id="ID0.40438934741541743" fill="none" stroke="#000000" stroke-width="0.3839954137802124" stroke-linecap="round" d="M 20.3659 14.0178 C 20.6535 13.826 20.9502 13.6452 21.2299 13.4418 C 21.3031 13.3886 21.4219 13.2498 21.4219 13.2498 "/>
        <path id="ID0.7633831659331918" fill="none" stroke="#000000" stroke-width="0.3839954137802124" stroke-linecap="round" d="M 19.6939 15.1698 C 19.6939 15.1698 20.3335 15.243 20.6539 15.2658 C 20.7814 15.2748 20.91 15.2658 21.0379 15.2658 C 21.1978 15.2658 21.358 15.2658 21.5179 15.2658 C 21.5578 15.2658 21.5179 15.2658 21.5179 15.2658 "/>
        <path id="ID0.8195131137035787" fill="none" stroke="#000000" stroke-width="0.3839954137802124" stroke-linecap="round" d="M 20.2699 17.5698 C 20.2699 17.5698 20.526 17.762 20.6539 17.8578 C 20.7818 17.9536 20.907 18.0542 21.0379 18.1458 C 21.2268 18.2781 21.4221 18.4019 21.6139 18.5298 C 21.6619 18.5616 21.6139 18.5298 21.6139 18.5298 "/>
        <path id="ID0.923992021009326" fill="none" stroke="#000000" stroke-width="0.3839954137802124" stroke-linecap="round" d="M 20.3659 20.0657 C 20.3659 20.0657 21.9979 20.0657 21.9979 20.0657 "/>
      </g>
      <g id="ID0.2824689648114145">
        <path id="ID0.8757698251865804" fill="#995900" stroke="#995900" stroke-width="0.38399544251400886" d="M 52.4101 11.3878 L 55.5594 11.0446 L 57.13 25.455 L 53.9807 25.7983 L 52.4101 11.3878 Z "/>
        <path id="ID0.6422801343724132" fill="none" stroke="#000000" stroke-width="0.38399544251400886" stroke-linecap="round" d="M 53.3088 12.5452 C 53.3088 12.5452 53.7628 12.5411 53.9872 12.5678 C 54.188 12.5917 54.3792 12.6783 54.5807 12.6963 C 54.708 12.7077 54.9624 12.6547 54.9624 12.6547 "/>
        <path id="ID0.7584992088377476" fill="none" stroke="#000000" stroke-width="0.38399544251400886" stroke-linecap="round" d="M 53.6227 14.5389 C 53.6227 14.5389 54.2094 14.6681 54.5024 14.6362 C 54.6736 14.6175 54.9587 14.3933 54.9587 14.3933 "/>
        <path id="ID0.40438934741541743" fill="none" stroke="#000000" stroke-width="0.38399544251400886" stroke-linecap="round" d="M 54.2192 18.24 C 54.4843 18.0182 54.7596 17.8063 55.0157 17.5738 C 55.0826 17.513 55.1857 17.3622 55.1857 17.3622 "/>
        <path id="ID0.7633831659331918" fill="none" stroke="#000000" stroke-width="0.38399544251400886" stroke-linecap="round" d="M 53.676 19.4581 C 53.676 19.4581 54.3197 19.4615 54.6407 19.4495 C 54.7684 19.4446 54.8953 19.4217 55.0224 19.4079 C 55.1814 19.3905 55.3406 19.3732 55.4996 19.3559 C 55.5393 19.3515 55.4996 19.3559 55.4996 19.3559 "/>
        <path id="ID0.8195131137035787" fill="none" stroke="#000000" stroke-width="0.38399544251400886" stroke-linecap="round" d="M 54.5086 21.7815 C 54.5086 21.7815 54.784 21.9448 54.9215 22.0262 C 55.059 22.1076 55.1944 22.194 55.3345 22.2709 C 55.5366 22.3819 55.7441 22.4839 55.9487 22.5902 C 55.9998 22.6167 55.9487 22.5902 55.9487 22.5902 "/>
        <path id="ID0.923992021009326" fill="none" stroke="#000000" stroke-width="0.38399544251400886" stroke-linecap="round" d="M 54.8745 24.2524 C 54.8745 24.2524 56.4968 24.0755 56.4968 24.0755 "/>
      </g>
      <g id="ID0.2824689648114145">
        <path id="ID0.8757698251865804" fill="#995900" stroke="#995900" stroke-width="0.3839954137802124" d="M 16.0099 9.5099 L 19.1779 9.5099 L 19.1779 24.0057 L 16.0099 24.0057 L 16.0099 9.5099 Z "/>
        <path id="ID0.6422801343724132" fill="none" stroke="#000000" stroke-width="0.3839954137802124" stroke-linecap="round" d="M 16.7779 10.7579 C 16.7779 10.7579 17.2297 10.803 17.4499 10.8539 C 17.6469 10.8994 17.8276 11.0061 18.0259 11.0459 C 18.1513 11.071 18.4099 11.0459 18.4099 11.0459 "/>
        <path id="ID0.7584992088377476" fill="none" stroke="#000000" stroke-width="0.3839954137802124" stroke-linecap="round" d="M 16.8739 12.7739 C 16.8739 12.7739 17.4432 12.9659 17.7379 12.9659 C 17.9101 12.9659 18.2179 12.7739 18.2179 12.7739 "/>
        <path id="ID0.40438934741541743" fill="none" stroke="#000000" stroke-width="0.3839954137802124" stroke-linecap="round" d="M 17.0659 16.5178 C 17.3535 16.326 17.6502 16.1452 17.9299 15.9418 C 18.0031 15.8886 18.1219 15.7498 18.1219 15.7498 "/>
        <path id="ID0.7633831659331918" fill="none" stroke="#000000" stroke-width="0.3839954137802124" stroke-linecap="round" d="M 16.3939 17.6698 C 16.3939 17.6698 17.0335 17.743 17.3539 17.7658 C 17.4814 17.7748 17.61 17.7658 17.7379 17.7658 C 17.8978 17.7658 18.058 17.7658 18.2179 17.7658 C 18.2578 17.7658 18.2179 17.7658 18.2179 17.7658 "/>
        <path id="ID0.8195131137035787" fill="none" stroke="#000000" stroke-width="0.3839954137802124" stroke-linecap="round" d="M 16.9699 20.0698 C 16.9699 20.0698 17.226 20.262 17.3539 20.3578 C 17.4818 20.4536 17.607 20.5542 17.7379 20.6458 C 17.9268 20.7781 18.1221 20.9019 18.3139 21.0298 C 18.3619 21.0616 18.3139 21.0298 18.3139 21.0298 "/>
        <path id="ID0.923992021009326" fill="none" stroke="#000000" stroke-width="0.3839954137802124" stroke-linecap="round" d="M 17.0659 22.5657 C 17.0659 22.5657 18.6979 22.5657 18.6979 22.5657 "/>
      </g>
      <g id="ID0.2824689648114145">
        <path id="ID0.8757698251865804" fill="#995900" stroke="#995900" stroke-width="0.3839954137802124" d="M 44.5599 4.7599 L 47.7279 4.7599 L 47.7279 19.2557 L 44.5599 19.2557 L 44.5599 4.7599 Z "/>
        <path id="ID0.6422801343724132" fill="none" stroke="#000000" stroke-width="0.3839954137802124" stroke-linecap="round" d="M 45.3279 6.0079 C 45.3279 6.0079 45.7797 6.053 45.9999 6.1039 C 46.1969 6.1494 46.3776 6.2561 46.5759 6.2959 C 46.7013 6.321 46.9599 6.2959 46.9599 6.2959 "/>
        <path id="ID0.7584992088377476" fill="none" stroke="#000000" stroke-width="0.3839954137802124" stroke-linecap="round" d="M 45.4239 8.0239 C 45.4239 8.0239 45.9932 8.2159 46.2879 8.2159 C 46.4601 8.2159 46.7679 8.0239 46.7679 8.0239 "/>
        <path id="ID0.40438934741541743" fill="none" stroke="#000000" stroke-width="0.3839954137802124" stroke-linecap="round" d="M 45.6159 11.7678 C 45.9035 11.576 46.2002 11.3952 46.4799 11.1918 C 46.5531 11.1386 46.6719 10.9998 46.6719 10.9998 "/>
        <path id="ID0.7633831659331918" fill="none" stroke="#000000" stroke-width="0.3839954137802124" stroke-linecap="round" d="M 44.9439 12.9198 C 44.9439 12.9198 45.5835 12.993 45.9039 13.0158 C 46.0314 13.0248 46.16 13.0158 46.2879 13.0158 C 46.4478 13.0158 46.608 13.0158 46.7679 13.0158 C 46.8078 13.0158 46.7679 13.0158 46.7679 13.0158 "/>
        <path id="ID0.8195131137035787" fill="none" stroke="#000000" stroke-width="0.3839954137802124" stroke-linecap="round" d="M 45.5199 15.3198 C 45.5199 15.3198 45.776 15.512 45.9039 15.6078 C 46.0318 15.7036 46.157 15.8042 46.2879 15.8958 C 46.4768 16.0281 46.6721 16.1519 46.8639 16.2798 C 46.9119 16.3116 46.8639 16.2798 46.8639 16.2798 "/>
        <path id="ID0.923992021009326" fill="none" stroke="#000000" stroke-width="0.3839954137802124" stroke-linecap="round" d="M 45.6159 17.8157 C 45.6159 17.8157 47.2479 17.8157 47.2479 17.8157 "/>
      </g>
      <g id="ID0.2824689648114145">
        <path id="ID0.8757698251865804" fill="#995900" stroke="#995900" stroke-width="0.3839954137802124" d="M 47.7599 7.0599 L 50.9279 7.0599 L 50.9279 21.5557 L 47.7599 21.5557 L 47.7599 7.0599 Z "/>
        <path id="ID0.6422801343724132" fill="none" stroke="#000000" stroke-width="0.3839954137802124" stroke-linecap="round" d="M 48.5279 8.3079 C 48.5279 8.3079 48.9797 8.353 49.1999 8.4039 C 49.3969 8.4494 49.5776 8.5561 49.7759 8.5959 C 49.9013 8.621 50.1599 8.5959 50.1599 8.5959 "/>
        <path id="ID0.7584992088377476" fill="none" stroke="#000000" stroke-width="0.3839954137802124" stroke-linecap="round" d="M 48.6239 10.3239 C 48.6239 10.3239 49.1932 10.5159 49.4879 10.5159 C 49.6601 10.5159 49.9679 10.3239 49.9679 10.3239 "/>
        <path id="ID0.40438934741541743" fill="none" stroke="#000000" stroke-width="0.3839954137802124" stroke-linecap="round" d="M 48.8159 14.0678 C 49.1035 13.876 49.4002 13.6952 49.6799 13.4918 C 49.7531 13.4386 49.8719 13.2998 49.8719 13.2998 "/>
        <path id="ID0.7633831659331918" fill="none" stroke="#000000" stroke-width="0.3839954137802124" stroke-linecap="round" d="M 48.1439 15.2198 C 48.1439 15.2198 48.7835 15.293 49.1039 15.3158 C 49.2314 15.3248 49.36 15.3158 49.4879 15.3158 C 49.6478 15.3158 49.808 15.3158 49.9679 15.3158 C 50.0078 15.3158 49.9679 15.3158 49.9679 15.3158 "/>
        <path id="ID0.8195131137035787" fill="none" stroke="#000000" stroke-width="0.3839954137802124" stroke-linecap="round" d="M 48.7199 17.6198 C 48.7199 17.6198 48.976 17.812 49.1039 17.9078 C 49.2318 18.0036 49.357 18.1042 49.4879 18.1958 C 49.6768 18.3281 49.8721 18.4519 50.0639 18.5798 C 50.1119 18.6116 50.0639 18.5798 50.0639 18.5798 "/>
        <path id="ID0.923992021009326" fill="none" stroke="#000000" stroke-width="0.3839954137802124" stroke-linecap="round" d="M 48.8159 20.1157 C 48.8159 20.1157 50.4479 20.1157 50.4479 20.1157 "/>
      </g>
      <g id="ID0.2824689648114145">
        <path id="ID0.8757698251865804" fill="#995900" stroke="#995900" stroke-width="0.3839954137802124" d="M 38.0099 1.8099 L 41.1779 1.8099 L 41.1779 16.3057 L 38.0099 16.3057 L 38.0099 1.8099 Z "/>
        <path id="ID0.6422801343724132" fill="none" stroke="#000000" stroke-width="0.3839954137802124" stroke-linecap="round" d="M 38.7779 3.0579 C 38.7779 3.0579 39.2297 3.103 39.4499 3.1539 C 39.6469 3.1994 39.8276 3.3061 40.0259 3.3459 C 40.1513 3.371 40.4099 3.3459 40.4099 3.3459 "/>
        <path id="ID0.7584992088377476" fill="none" stroke="#000000" stroke-width="0.3839954137802124" stroke-linecap="round" d="M 38.8739 5.0739 C 38.8739 5.0739 39.4432 5.2659 39.7379 5.2659 C 39.9101 5.2659 40.2179 5.0739 40.2179 5.0739 "/>
        <path id="ID0.40438934741541743" fill="none" stroke="#000000" stroke-width="0.3839954137802124" stroke-linecap="round" d="M 39.0659 8.8178 C 39.3535 8.626 39.6502 8.4452 39.9299 8.2418 C 40.0031 8.1886 40.1219 8.0498 40.1219 8.0498 "/>
        <path id="ID0.7633831659331918" fill="none" stroke="#000000" stroke-width="0.3839954137802124" stroke-linecap="round" d="M 38.3939 9.9698 C 38.3939 9.9698 39.0335 10.043 39.3539 10.0658 C 39.4814 10.0748 39.61 10.0658 39.7379 10.0658 C 39.8978 10.0658 40.058 10.0658 40.2179 10.0658 C 40.2578 10.0658 40.2179 10.0658 40.2179 10.0658 "/>
        <path id="ID0.8195131137035787" fill="none" stroke="#000000" stroke-width="0.3839954137802124" stroke-linecap="round" d="M 38.9699 12.3698 C 38.9699 12.3698 39.226 12.562 39.3539 12.6578 C 39.4818 12.7536 39.607 12.8542 39.7379 12.9458 C 39.9268 13.0781 40.1221 13.2019 40.3139 13.3298 C 40.3619 13.3616 40.3139 13.3298 40.3139 13.3298 "/>
        <path id="ID0.923992021009326" fill="none" stroke="#000000" stroke-width="0.3839954137802124" stroke-linecap="round" d="M 39.0659 14.8657 C 39.0659 14.8657 40.6979 14.8657 40.6979 14.8657 "/>
      </g>
      <g id="ID0.2824689648114145">
        <path id="ID0.8757698251865804" fill="#995900" stroke="#995900" stroke-width="0.3839954137802124" d="M 31.7099 1.1599 L 34.8779 1.1599 L 34.8779 15.6557 L 31.7099 15.6557 L 31.7099 1.1599 Z "/>
        <path id="ID0.6422801343724132" fill="none" stroke="#000000" stroke-width="0.3839954137802124" stroke-linecap="round" d="M 32.4779 2.4079 C 32.4779 2.4079 32.9297 2.453 33.1499 2.5039 C 33.3469 2.5494 33.5276 2.6561 33.7259 2.6959 C 33.8513 2.721 34.1099 2.6959 34.1099 2.6959 "/>
        <path id="ID0.7584992088377476" fill="none" stroke="#000000" stroke-width="0.3839954137802124" stroke-linecap="round" d="M 32.5739 4.4239 C 32.5739 4.4239 33.1432 4.6159 33.4379 4.6159 C 33.6101 4.6159 33.9179 4.4239 33.9179 4.4239 "/>
        <path id="ID0.40438934741541743" fill="none" stroke="#000000" stroke-width="0.3839954137802124" stroke-linecap="round" d="M 32.7659 8.1678 C 33.0535 7.976 33.3502 7.7952 33.6299 7.5918 C 33.7031 7.5386 33.8219 7.3998 33.8219 7.3998 "/>
        <path id="ID0.7633831659331918" fill="none" stroke="#000000" stroke-width="0.3839954137802124" stroke-linecap="round" d="M 32.0939 9.3198 C 32.0939 9.3198 32.7335 9.393 33.0539 9.4158 C 33.1814 9.4248 33.31 9.4158 33.4379 9.4158 C 33.5978 9.4158 33.758 9.4158 33.9179 9.4158 C 33.9578 9.4158 33.9179 9.4158 33.9179 9.4158 "/>
        <path id="ID0.8195131137035787" fill="none" stroke="#000000" stroke-width="0.3839954137802124" stroke-linecap="round" d="M 32.6699 11.7198 C 32.6699 11.7198 32.926 11.912 33.0539 12.0078 C 33.1818 12.1036 33.307 12.2042 33.4379 12.2958 C 33.6268 12.4281 33.8221 12.5519 34.0139 12.6798 C 34.0619 12.7116 34.0139 12.6798 34.0139 12.6798 "/>
        <path id="ID0.923992021009326" fill="none" stroke="#000000" stroke-width="0.3839954137802124" stroke-linecap="round" d="M 32.7659 14.2157 C 32.7659 14.2157 34.3979 14.2157 34.3979 14.2157 "/>
      </g>
      <g id="ID0.2824689648114145">
        <path id="ID0.8757698251865804" fill="#995900" stroke="#995900" stroke-width="0.3839954137802124" d="M 28.7599 1.9099 L 31.9279 1.9099 L 31.9279 16.4057 L 28.7599 16.4057 L 28.7599 1.9099 Z "/>
        <path id="ID0.6422801343724132" fill="none" stroke="#000000" stroke-width="0.3839954137802124" stroke-linecap="round" d="M 29.5279 3.1579 C 29.5279 3.1579 29.9797 3.203 30.1999 3.2539 C 30.3969 3.2994 30.5776 3.4061 30.7759 3.4459 C 30.9013 3.471 31.1599 3.4459 31.1599 3.4459 "/>
        <path id="ID0.7584992088377476" fill="none" stroke="#000000" stroke-width="0.3839954137802124" stroke-linecap="round" d="M 29.6239 5.1739 C 29.6239 5.1739 30.1932 5.3659 30.4879 5.3659 C 30.6601 5.3659 30.9679 5.1739 30.9679 5.1739 "/>
        <path id="ID0.40438934741541743" fill="none" stroke="#000000" stroke-width="0.3839954137802124" stroke-linecap="round" d="M 29.8159 8.9178 C 30.1035 8.726 30.4002 8.5452 30.6799 8.3418 C 30.7531 8.2886 30.8719 8.1498 30.8719 8.1498 "/>
        <path id="ID0.7633831659331918" fill="none" stroke="#000000" stroke-width="0.3839954137802124" stroke-linecap="round" d="M 29.1439 10.0698 C 29.1439 10.0698 29.7835 10.143 30.1039 10.1658 C 30.2314 10.1748 30.36 10.1658 30.4879 10.1658 C 30.6478 10.1658 30.808 10.1658 30.9679 10.1658 C 31.0078 10.1658 30.9679 10.1658 30.9679 10.1658 "/>
        <path id="ID0.8195131137035787" fill="none" stroke="#000000" stroke-width="0.3839954137802124" stroke-linecap="round" d="M 29.7199 12.4698 C 29.7199 12.4698 29.976 12.662 30.1039 12.7578 C 30.2318 12.8536 30.357 12.9542 30.4879 13.0458 C 30.6768 13.1781 30.8721 13.3019 31.0639 13.4298 C 31.1119 13.4616 31.0639 13.4298 31.0639 13.4298 "/>
        <path id="ID0.923992021009326" fill="none" stroke="#000000" stroke-width="0.3839954137802124" stroke-linecap="round" d="M 29.8159 14.9657 C 29.8159 14.9657 31.4479 14.9657 31.4479 14.9657 "/>
      </g>
      <g id="ID0.2824689648114145">
        <path id="ID0.8757698251865804" fill="#995900" stroke="#995900" stroke-width="0.3839954137802124" d="M 25.5599 3.6099 L 28.7279 3.6099 L 28.7279 18.1057 L 25.5599 18.1057 L 25.5599 3.6099 Z "/>
        <path id="ID0.6422801343724132" fill="none" stroke="#000000" stroke-width="0.3839954137802124" stroke-linecap="round" d="M 26.3279 4.8579 C 26.3279 4.8579 26.7797 4.903 26.9999 4.9539 C 27.1969 4.9994 27.3776 5.1061 27.5759 5.1459 C 27.7013 5.171 27.9599 5.1459 27.9599 5.1459 "/>
        <path id="ID0.7584992088377476" fill="none" stroke="#000000" stroke-width="0.3839954137802124" stroke-linecap="round" d="M 26.4239 6.8739 C 26.4239 6.8739 26.9932 7.0659 27.2879 7.0659 C 27.4601 7.0659 27.7679 6.8739 27.7679 6.8739 "/>
        <path id="ID0.40438934741541743" fill="none" stroke="#000000" stroke-width="0.3839954137802124" stroke-linecap="round" d="M 26.6159 10.6178 C 26.9035 10.426 27.2002 10.2452 27.4799 10.0418 C 27.5531 9.9886 27.6719 9.8498 27.6719 9.8498 "/>
        <path id="ID0.7633831659331918" fill="none" stroke="#000000" stroke-width="0.3839954137802124" stroke-linecap="round" d="M 25.9439 11.7698 C 25.9439 11.7698 26.5835 11.843 26.9039 11.8658 C 27.0314 11.8748 27.16 11.8658 27.2879 11.8658 C 27.4478 11.8658 27.608 11.8658 27.7679 11.8658 C 27.8078 11.8658 27.7679 11.8658 27.7679 11.8658 "/>
        <path id="ID0.8195131137035787" fill="none" stroke="#000000" stroke-width="0.3839954137802124" stroke-linecap="round" d="M 26.5199 14.1698 C 26.5199 14.1698 26.776 14.362 26.9039 14.4578 C 27.0318 14.5536 27.157 14.6542 27.2879 14.7458 C 27.4768 14.8781 27.6721 15.0019 27.8639 15.1298 C 27.9119 15.1616 27.8639 15.1298 27.8639 15.1298 "/>
        <path id="ID0.923992021009326" fill="none" stroke="#000000" stroke-width="0.3839954137802124" stroke-linecap="round" d="M 26.6159 16.6657 C 26.6159 16.6657 28.2479 16.6657 28.2479 16.6657 "/>
      </g>
      <g id="ID0.2824689648114145">
        <path id="ID0.8757698251865804" fill="#995900" stroke="#995900" stroke-width="0.3839954137802124" d="M 35.0099 1.2099 L 38.1779 1.2099 L 38.1779 15.7057 L 35.0099 15.7057 L 35.0099 1.2099 Z "/>
        <path id="ID0.6422801343724132" fill="none" stroke="#000000" stroke-width="0.3839954137802124" stroke-linecap="round" d="M 35.7779 2.4579 C 35.7779 2.4579 36.2297 2.503 36.4499 2.5539 C 36.6469 2.5994 36.8276 2.7061 37.0259 2.7459 C 37.1513 2.771 37.4099 2.7459 37.4099 2.7459 "/>
        <path id="ID0.7584992088377476" fill="none" stroke="#000000" stroke-width="0.3839954137802124" stroke-linecap="round" d="M 35.8739 4.4739 C 35.8739 4.4739 36.4432 4.6659 36.7379 4.6659 C 36.9101 4.6659 37.2179 4.4739 37.2179 4.4739 "/>
        <path id="ID0.40438934741541743" fill="none" stroke="#000000" stroke-width="0.3839954137802124" stroke-linecap="round" d="M 36.0659 8.2178 C 36.3535 8.026 36.6502 7.8452 36.9299 7.6418 C 37.0031 7.5886 37.1219 7.4498 37.1219 7.4498 "/>
        <path id="ID0.7633831659331918" fill="none" stroke="#000000" stroke-width="0.3839954137802124" stroke-linecap="round" d="M 35.3939 9.3698 C 35.3939 9.3698 36.0335 9.443 36.3539 9.4658 C 36.4814 9.4748 36.61 9.4658 36.7379 9.4658 C 36.8978 9.4658 37.058 9.4658 37.2179 9.4658 C 37.2578 9.4658 37.2179 9.4658 37.2179 9.4658 "/>
        <path id="ID0.8195131137035787" fill="none" stroke="#000000" stroke-width="0.3839954137802124" stroke-linecap="round" d="M 35.9699 11.7698 C 35.9699 11.7698 36.226 11.962 36.3539 12.0578 C 36.4818 12.1536 36.607 12.2542 36.7379 12.3458 C 36.9268 12.4781 37.1221 12.6019 37.3139 12.7298 C 37.3619 12.7616 37.3139 12.7298 37.3139 12.7298 "/>
        <path id="ID0.923992021009326" fill="none" stroke="#000000" stroke-width="0.3839954137802124" stroke-linecap="round" d="M 36.0659 14.2657 C 36.0659 14.2657 37.6979 14.2657 37.6979 14.2657 "/>
      </g>
      <g id="ID0.2824689648114145">
        <path id="ID0.8757698251865804" fill="#995900" stroke="#995900" stroke-width="0.3839954137802124" d="M 51.0599 9.0599 L 54.2279 9.0599 L 54.2279 23.5557 L 51.0599 23.5557 L 51.0599 9.0599 Z "/>
        <path id="ID0.6422801343724132" fill="none" stroke="#000000" stroke-width="0.3839954137802124" stroke-linecap="round" d="M 51.8279 10.3079 C 51.8279 10.3079 52.2797 10.353 52.4999 10.4039 C 52.6969 10.4494 52.8776 10.5561 53.0759 10.5959 C 53.2013 10.621 53.4599 10.5959 53.4599 10.5959 "/>
        <path id="ID0.7584992088377476" fill="none" stroke="#000000" stroke-width="0.3839954137802124" stroke-linecap="round" d="M 51.9239 12.3239 C 51.9239 12.3239 52.4932 12.5159 52.7879 12.5159 C 52.9601 12.5159 53.2679 12.3239 53.2679 12.3239 "/>
        <path id="ID0.40438934741541743" fill="none" stroke="#000000" stroke-width="0.3839954137802124" stroke-linecap="round" d="M 52.1159 16.0678 C 52.4035 15.876 52.7002 15.6952 52.9799 15.4918 C 53.0531 15.4386 53.1719 15.2998 53.1719 15.2998 "/>
        <path id="ID0.7633831659331918" fill="none" stroke="#000000" stroke-width="0.3839954137802124" stroke-linecap="round" d="M 51.4439 17.2198 C 51.4439 17.2198 52.0835 17.293 52.4039 17.3158 C 52.5314 17.3248 52.66 17.3158 52.7879 17.3158 C 52.9478 17.3158 53.108 17.3158 53.2679 17.3158 C 53.3078 17.3158 53.2679 17.3158 53.2679 17.3158 "/>
        <path id="ID0.8195131137035787" fill="none" stroke="#000000" stroke-width="0.3839954137802124" stroke-linecap="round" d="M 52.0199 19.6198 C 52.0199 19.6198 52.276 19.812 52.4039 19.9078 C 52.5318 20.0036 52.657 20.1042 52.7879 20.1958 C 52.9768 20.3281 53.1721 20.4519 53.3639 20.5798 C 53.4119 20.6116 53.3639 20.5798 53.3639 20.5798 "/>
        <path id="ID0.923992021009326" fill="none" stroke="#000000" stroke-width="0.3839954137802124" stroke-linecap="round" d="M 52.1159 22.1157 C 52.1159 22.1157 53.7479 22.1157 53.7479 22.1157 "/>
      </g>
      <g id="ID0.2824689648114145">
        <path id="ID0.8757698251865804" fill="#995900" stroke="#995900" stroke-width="0.3839954137802124" d="M 41.2599 39.9901 L 44.4279 39.9901 L 44.4279 25.4943 L 41.2599 25.4943 L 41.2599 39.9901 Z "/>
        <path id="ID0.6422801343724132" fill="none" stroke="#000000" stroke-width="0.3839954137802124" stroke-linecap="round" d="M 42.0279 38.7421 C 42.0279 38.7421 42.4797 38.697 42.6999 38.6461 C 42.8969 38.6006 43.0776 38.4939 43.2759 38.4541 C 43.4013 38.429 43.6599 38.4541 43.6599 38.4541 "/>
        <path id="ID0.7584992088377476" fill="none" stroke="#000000" stroke-width="0.3839954137802124" stroke-linecap="round" d="M 42.1239 36.7261 C 42.1239 36.7261 42.6932 36.5341 42.9879 36.5341 C 43.1601 36.5341 43.4679 36.7261 43.4679 36.7261 "/>
        <path id="ID0.40438934741541743" fill="none" stroke="#000000" stroke-width="0.3839954137802124" stroke-linecap="round" d="M 42.3159 32.9822 C 42.6035 33.174 42.9002 33.3548 43.1799 33.5582 C 43.2531 33.6114 43.3719 33.7502 43.3719 33.7502 "/>
        <path id="ID0.7633831659331918" fill="none" stroke="#000000" stroke-width="0.3839954137802124" stroke-linecap="round" d="M 41.6439 31.8302 C 41.6439 31.8302 42.2835 31.757 42.6039 31.7342 C 42.7314 31.7252 42.86 31.7342 42.9879 31.7342 C 43.1478 31.7342 43.308 31.7342 43.4679 31.7342 C 43.5078 31.7342 43.4679 31.7342 43.4679 31.7342 "/>
        <path id="ID0.8195131137035787" fill="none" stroke="#000000" stroke-width="0.3839954137802124" stroke-linecap="round" d="M 42.2199 29.4302 C 42.2199 29.4302 42.476 29.238 42.6039 29.1422 C 42.7318 29.0464 42.857 28.9458 42.9879 28.8542 C 43.1768 28.7219 43.3721 28.5981 43.5639 28.4702 C 43.6119 28.4384 43.5639 28.4702 43.5639 28.4702 "/>
        <path id="ID0.923992021009326" fill="none" stroke="#000000" stroke-width="0.3839954137802124" stroke-linecap="round" d="M 42.3159 26.9343 C 42.3159 26.9343 43.9479 26.9343 43.9479 26.9343 "/>
      </g>
      <g id="ID0.2824689648114145">
        <path id="ID0.8757698251865804" fill="#995900" stroke="#995900" stroke-width="0.3839954137802124" d="M 22.8099 37.8401 L 25.9779 37.8401 L 25.9779 23.3443 L 22.8099 23.3443 L 22.8099 37.8401 Z "/>
        <path id="ID0.6422801343724132" fill="none" stroke="#000000" stroke-width="0.3839954137802124" stroke-linecap="round" d="M 23.5779 36.5921 C 23.5779 36.5921 24.0297 36.547 24.2499 36.4961 C 24.4469 36.4506 24.6276 36.3439 24.8259 36.3041 C 24.9513 36.279 25.2099 36.3041 25.2099 36.3041 "/>
        <path id="ID0.7584992088377476" fill="none" stroke="#000000" stroke-width="0.3839954137802124" stroke-linecap="round" d="M 23.6739 34.5761 C 23.6739 34.5761 24.2432 34.3841 24.5379 34.3841 C 24.7101 34.3841 25.0179 34.5761 25.0179 34.5761 "/>
        <path id="ID0.40438934741541743" fill="none" stroke="#000000" stroke-width="0.3839954137802124" stroke-linecap="round" d="M 23.8659 30.8322 C 24.1535 31.024 24.4502 31.2048 24.7299 31.4082 C 24.8031 31.4614 24.9219 31.6002 24.9219 31.6002 "/>
        <path id="ID0.7633831659331918" fill="none" stroke="#000000" stroke-width="0.3839954137802124" stroke-linecap="round" d="M 23.1939 29.6802 C 23.1939 29.6802 23.8335 29.607 24.1539 29.5842 C 24.2814 29.5752 24.41 29.5842 24.5379 29.5842 C 24.6978 29.5842 24.858 29.5842 25.0179 29.5842 C 25.0578 29.5842 25.0179 29.5842 25.0179 29.5842 "/>
        <path id="ID0.8195131137035787" fill="none" stroke="#000000" stroke-width="0.3839954137802124" stroke-linecap="round" d="M 23.7699 27.2802 C 23.7699 27.2802 24.026 27.088 24.1539 26.9922 C 24.2818 26.8964 24.407 26.7958 24.5379 26.7042 C 24.7268 26.5719 24.9221 26.4481 25.1139 26.3202 C 25.1619 26.2884 25.1139 26.3202 25.1139 26.3202 "/>
        <path id="ID0.923992021009326" fill="none" stroke="#000000" stroke-width="0.3839954137802124" stroke-linecap="round" d="M 23.8659 24.7843 C 23.8659 24.7843 25.4979 24.7843 25.4979 24.7843 "/>
      </g>
      <g id="ID0.2824689648114145">
        <path id="ID0.8757698251865804" fill="#995900" stroke="#995900" stroke-width="0.3839954137802124" d="M 19.4099 35.8901 L 22.5779 35.8901 L 22.5779 21.3943 L 19.4099 21.3943 L 19.4099 35.8901 Z "/>
        <path id="ID0.6422801343724132" fill="none" stroke="#000000" stroke-width="0.3839954137802124" stroke-linecap="round" d="M 20.1779 34.6421 C 20.1779 34.6421 20.6297 34.597 20.8499 34.5461 C 21.0469 34.5006 21.2276 34.3939 21.4259 34.3541 C 21.5513 34.329 21.8099 34.3541 21.8099 34.3541 "/>
        <path id="ID0.7584992088377476" fill="none" stroke="#000000" stroke-width="0.3839954137802124" stroke-linecap="round" d="M 20.2739 32.6261 C 20.2739 32.6261 20.8432 32.4341 21.1379 32.4341 C 21.3101 32.4341 21.6179 32.6261 21.6179 32.6261 "/>
        <path id="ID0.40438934741541743" fill="none" stroke="#000000" stroke-width="0.3839954137802124" stroke-linecap="round" d="M 20.4659 28.8822 C 20.7535 29.074 21.0502 29.2548 21.3299 29.4582 C 21.4031 29.5114 21.5219 29.6502 21.5219 29.6502 "/>
        <path id="ID0.7633831659331918" fill="none" stroke="#000000" stroke-width="0.3839954137802124" stroke-linecap="round" d="M 19.7939 27.7302 C 19.7939 27.7302 20.4335 27.657 20.7539 27.6342 C 20.8814 27.6252 21.01 27.6342 21.1379 27.6342 C 21.2978 27.6342 21.458 27.6342 21.6179 27.6342 C 21.6578 27.6342 21.6179 27.6342 21.6179 27.6342 "/>
        <path id="ID0.8195131137035787" fill="none" stroke="#000000" stroke-width="0.3839954137802124" stroke-linecap="round" d="M 20.3699 25.3302 C 20.3699 25.3302 20.626 25.138 20.7539 25.0422 C 20.8818 24.9464 21.007 24.8458 21.1379 24.7542 C 21.3268 24.6219 21.5221 24.4981 21.7139 24.3702 C 21.7619 24.3384 21.7139 24.3702 21.7139 24.3702 "/>
        <path id="ID0.923992021009326" fill="none" stroke="#000000" stroke-width="0.3839954137802124" stroke-linecap="round" d="M 20.4659 22.8343 C 20.4659 22.8343 22.0979 22.8343 22.0979 22.8343 "/>
      </g>
      <g id="ID0.2824689648114145">
        <path id="ID0.8757698251865804" fill="#995900" stroke="#995900" stroke-width="0.3839954137802124" d="M 16.1099 33.2401 L 19.2779 33.2401 L 19.2779 18.7443 L 16.1099 18.7443 L 16.1099 33.2401 Z "/>
        <path id="ID0.6422801343724132" fill="none" stroke="#000000" stroke-width="0.3839954137802124" stroke-linecap="round" d="M 16.8779 31.9921 C 16.8779 31.9921 17.3297 31.947 17.5499 31.8961 C 17.7469 31.8506 17.9276 31.7439 18.1259 31.7041 C 18.2513 31.679 18.5099 31.7041 18.5099 31.7041 "/>
        <path id="ID0.7584992088377476" fill="none" stroke="#000000" stroke-width="0.3839954137802124" stroke-linecap="round" d="M 16.9739 29.9761 C 16.9739 29.9761 17.5432 29.7841 17.8379 29.7841 C 18.0101 29.7841 18.3179 29.9761 18.3179 29.9761 "/>
        <path id="ID0.40438934741541743" fill="none" stroke="#000000" stroke-width="0.3839954137802124" stroke-linecap="round" d="M 17.1659 26.2322 C 17.4535 26.424 17.7502 26.6048 18.0299 26.8082 C 18.1031 26.8614 18.2219 27.0002 18.2219 27.0002 "/>
        <path id="ID0.7633831659331918" fill="none" stroke="#000000" stroke-width="0.3839954137802124" stroke-linecap="round" d="M 16.4939 25.0802 C 16.4939 25.0802 17.1335 25.007 17.4539 24.9842 C 17.5814 24.9752 17.71 24.9842 17.8379 24.9842 C 17.9978 24.9842 18.158 24.9842 18.3179 24.9842 C 18.3578 24.9842 18.3179 24.9842 18.3179 24.9842 "/>
        <path id="ID0.8195131137035787" fill="none" stroke="#000000" stroke-width="0.3839954137802124" stroke-linecap="round" d="M 17.0699 22.6802 C 17.0699 22.6802 17.326 22.488 17.4539 22.3922 C 17.5818 22.2964 17.707 22.1958 17.8379 22.1042 C 18.0268 21.9719 18.2221 21.8481 18.4139 21.7202 C 18.4619 21.6884 18.4139 21.7202 18.4139 21.7202 "/>
        <path id="ID0.923992021009326" fill="none" stroke="#000000" stroke-width="0.3839954137802124" stroke-linecap="round" d="M 17.1659 20.1843 C 17.1659 20.1843 18.7979 20.1843 18.7979 20.1843 "/>
      </g>
      <g id="ID0.2824689648114145">
        <path id="ID0.8757698251865804" fill="#995900" stroke="#995900" stroke-width="0.3839954137802124" d="M 44.6099 38.1401 L 47.7779 38.1401 L 47.7779 23.6443 L 44.6099 23.6443 L 44.6099 38.1401 Z "/>
        <path id="ID0.6422801343724132" fill="none" stroke="#000000" stroke-width="0.3839954137802124" stroke-linecap="round" d="M 45.3779 36.8921 C 45.3779 36.8921 45.8297 36.847 46.0499 36.7961 C 46.2469 36.7506 46.4276 36.6439 46.6259 36.6041 C 46.7513 36.579 47.0099 36.6041 47.0099 36.6041 "/>
        <path id="ID0.7584992088377476" fill="none" stroke="#000000" stroke-width="0.3839954137802124" stroke-linecap="round" d="M 45.4739 34.8761 C 45.4739 34.8761 46.0432 34.6841 46.3379 34.6841 C 46.5101 34.6841 46.8179 34.8761 46.8179 34.8761 "/>
        <path id="ID0.40438934741541743" fill="none" stroke="#000000" stroke-width="0.3839954137802124" stroke-linecap="round" d="M 45.6659 31.1322 C 45.9535 31.324 46.2502 31.5048 46.5299 31.7082 C 46.6031 31.7614 46.7219 31.9002 46.7219 31.9002 "/>
        <path id="ID0.7633831659331918" fill="none" stroke="#000000" stroke-width="0.3839954137802124" stroke-linecap="round" d="M 44.9939 29.9802 C 44.9939 29.9802 45.6335 29.907 45.9539 29.8842 C 46.0814 29.8752 46.21 29.8842 46.3379 29.8842 C 46.4978 29.8842 46.658 29.8842 46.8179 29.8842 C 46.8578 29.8842 46.8179 29.8842 46.8179 29.8842 "/>
        <path id="ID0.8195131137035787" fill="none" stroke="#000000" stroke-width="0.3839954137802124" stroke-linecap="round" d="M 45.5699 27.5802 C 45.5699 27.5802 45.826 27.388 45.9539 27.2922 C 46.0818 27.1964 46.207 27.0958 46.3379 27.0042 C 46.5268 26.8719 46.7221 26.7481 46.9139 26.6202 C 46.9619 26.5884 46.9139 26.6202 46.9139 26.6202 "/>
        <path id="ID0.923992021009326" fill="none" stroke="#000000" stroke-width="0.3839954137802124" stroke-linecap="round" d="M 45.6659 25.0843 C 45.6659 25.0843 47.2979 25.0843 47.2979 25.0843 "/>
      </g>
      <g id="ID0.2824689648114145">
        <path id="ID0.8757698251865804" fill="#995900" stroke="#995900" stroke-width="0.3839954137802124" d="M 47.9099 35.8401 L 51.0779 35.8401 L 51.0779 21.3443 L 47.9099 21.3443 L 47.9099 35.8401 Z "/>
        <path id="ID0.6422801343724132" fill="none" stroke="#000000" stroke-width="0.3839954137802124" stroke-linecap="round" d="M 48.6779 34.5921 C 48.6779 34.5921 49.1297 34.547 49.3499 34.4961 C 49.5469 34.4506 49.7276 34.3439 49.9259 34.3041 C 50.0513 34.279 50.3099 34.3041 50.3099 34.3041 "/>
        <path id="ID0.7584992088377476" fill="none" stroke="#000000" stroke-width="0.3839954137802124" stroke-linecap="round" d="M 48.7739 32.5761 C 48.7739 32.5761 49.3432 32.3841 49.6379 32.3841 C 49.8101 32.3841 50.1179 32.5761 50.1179 32.5761 "/>
        <path id="ID0.40438934741541743" fill="none" stroke="#000000" stroke-width="0.3839954137802124" stroke-linecap="round" d="M 48.9659 28.8322 C 49.2535 29.024 49.5502 29.2048 49.8299 29.4082 C 49.9031 29.4614 50.0219 29.6002 50.0219 29.6002 "/>
        <path id="ID0.7633831659331918" fill="none" stroke="#000000" stroke-width="0.3839954137802124" stroke-linecap="round" d="M 48.2939 27.6802 C 48.2939 27.6802 48.9335 27.607 49.2539 27.5842 C 49.3814 27.5752 49.51 27.5842 49.6379 27.5842 C 49.7978 27.5842 49.958 27.5842 50.1179 27.5842 C 50.1578 27.5842 50.1179 27.5842 50.1179 27.5842 "/>
        <path id="ID0.8195131137035787" fill="none" stroke="#000000" stroke-width="0.3839954137802124" stroke-linecap="round" d="M 48.8699 25.2802 C 48.8699 25.2802 49.126 25.088 49.2539 24.9922 C 49.3818 24.8964 49.507 24.7958 49.6379 24.7042 C 49.8268 24.5719 50.0221 24.4481 50.2139 24.3202 C 50.2619 24.2884 50.2139 24.3202 50.2139 24.3202 "/>
        <path id="ID0.923992021009326" fill="none" stroke="#000000" stroke-width="0.3839954137802124" stroke-linecap="round" d="M 48.9659 22.7843 C 48.9659 22.7843 50.5979 22.7843 50.5979 22.7843 "/>
      </g>
      <g id="ID0.2824689648114145">
        <path id="ID0.8757698251865804" fill="#995900" stroke="#995900" stroke-width="0.3839954137802124" d="M 38.1099 41.0401 L 41.2779 41.0401 L 41.2779 26.5443 L 38.1099 26.5443 L 38.1099 41.0401 Z "/>
        <path id="ID0.6422801343724132" fill="none" stroke="#000000" stroke-width="0.3839954137802124" stroke-linecap="round" d="M 38.8779 39.7921 C 38.8779 39.7921 39.3297 39.747 39.5499 39.6961 C 39.7469 39.6506 39.9276 39.5439 40.1259 39.5041 C 40.2513 39.479 40.5099 39.5041 40.5099 39.5041 "/>
        <path id="ID0.7584992088377476" fill="none" stroke="#000000" stroke-width="0.3839954137802124" stroke-linecap="round" d="M 38.9739 37.7761 C 38.9739 37.7761 39.5432 37.5841 39.8379 37.5841 C 40.0101 37.5841 40.3179 37.7761 40.3179 37.7761 "/>
        <path id="ID0.40438934741541743" fill="none" stroke="#000000" stroke-width="0.3839954137802124" stroke-linecap="round" d="M 39.1659 34.0322 C 39.4535 34.224 39.7502 34.4048 40.0299 34.6082 C 40.1031 34.6614 40.2219 34.8002 40.2219 34.8002 "/>
        <path id="ID0.7633831659331918" fill="none" stroke="#000000" stroke-width="0.3839954137802124" stroke-linecap="round" d="M 38.4939 32.8802 C 38.4939 32.8802 39.1335 32.807 39.4539 32.7842 C 39.5814 32.7752 39.71 32.7842 39.8379 32.7842 C 39.9978 32.7842 40.158 32.7842 40.3179 32.7842 C 40.3578 32.7842 40.3179 32.7842 40.3179 32.7842 "/>
        <path id="ID0.8195131137035787" fill="none" stroke="#000000" stroke-width="0.3839954137802124" stroke-linecap="round" d="M 39.0699 30.4802 C 39.0699 30.4802 39.326 30.288 39.4539 30.1922 C 39.5818 30.0964 39.707 29.9958 39.8379 29.9042 C 40.0268 29.7719 40.2221 29.6481 40.4139 29.5202 C 40.4619 29.4884 40.4139 29.5202 40.4139 29.5202 "/>
        <path id="ID0.923992021009326" fill="none" stroke="#000000" stroke-width="0.3839954137802124" stroke-linecap="round" d="M 39.1659 27.9843 C 39.1659 27.9843 40.7979 27.9843 40.7979 27.9843 "/>
      </g>
      <g id="ID0.2824689648114145">
        <path id="ID0.8757698251865804" fill="#995900" stroke="#995900" stroke-width="0.3839954137802124" d="M 31.8099 41.7401 L 34.9779 41.7401 L 34.9779 27.2443 L 31.8099 27.2443 L 31.8099 41.7401 Z "/>
        <path id="ID0.6422801343724132" fill="none" stroke="#000000" stroke-width="0.3839954137802124" stroke-linecap="round" d="M 32.5779 40.4921 C 32.5779 40.4921 33.0297 40.447 33.2499 40.3961 C 33.4469 40.3506 33.6276 40.2439 33.8259 40.2041 C 33.9513 40.179 34.2099 40.2041 34.2099 40.2041 "/>
        <path id="ID0.7584992088377476" fill="none" stroke="#000000" stroke-width="0.3839954137802124" stroke-linecap="round" d="M 32.6739 38.4761 C 32.6739 38.4761 33.2432 38.2841 33.5379 38.2841 C 33.7101 38.2841 34.0179 38.4761 34.0179 38.4761 "/>
        <path id="ID0.40438934741541743" fill="none" stroke="#000000" stroke-width="0.3839954137802124" stroke-linecap="round" d="M 32.8659 34.7322 C 33.1535 34.924 33.4502 35.1048 33.7299 35.3082 C 33.8031 35.3614 33.9219 35.5002 33.9219 35.5002 "/>
        <path id="ID0.7633831659331918" fill="none" stroke="#000000" stroke-width="0.3839954137802124" stroke-linecap="round" d="M 32.1939 33.5802 C 32.1939 33.5802 32.8335 33.507 33.1539 33.4842 C 33.2814 33.4752 33.41 33.4842 33.5379 33.4842 C 33.6978 33.4842 33.858 33.4842 34.0179 33.4842 C 34.0578 33.4842 34.0179 33.4842 34.0179 33.4842 "/>
        <path id="ID0.8195131137035787" fill="none" stroke="#000000" stroke-width="0.3839954137802124" stroke-linecap="round" d="M 32.7699 31.1802 C 32.7699 31.1802 33.026 30.988 33.1539 30.8922 C 33.2818 30.7964 33.407 30.6958 33.5379 30.6042 C 33.7268 30.4719 33.9221 30.3481 34.1139 30.2202 C 34.1619 30.1884 34.1139 30.2202 34.1139 30.2202 "/>
        <path id="ID0.923992021009326" fill="none" stroke="#000000" stroke-width="0.3839954137802124" stroke-linecap="round" d="M 32.8659 28.6843 C 32.8659 28.6843 34.4979 28.6843 34.4979 28.6843 "/>
      </g>
      <g id="ID0.2824689648114145">
        <path id="ID0.8757698251865804" fill="#995900" stroke="#995900" stroke-width="0.3839954137802124" d="M 28.8099 40.9401 L 31.9779 40.9401 L 31.9779 26.4443 L 28.8099 26.4443 L 28.8099 40.9401 Z "/>
        <path id="ID0.6422801343724132" fill="none" stroke="#000000" stroke-width="0.3839954137802124" stroke-linecap="round" d="M 29.5779 39.6921 C 29.5779 39.6921 30.0297 39.647 30.2499 39.5961 C 30.4469 39.5506 30.6276 39.4439 30.8259 39.4041 C 30.9513 39.379 31.2099 39.4041 31.2099 39.4041 "/>
        <path id="ID0.7584992088377476" fill="none" stroke="#000000" stroke-width="0.3839954137802124" stroke-linecap="round" d="M 29.6739 37.6761 C 29.6739 37.6761 30.2432 37.4841 30.5379 37.4841 C 30.7101 37.4841 31.0179 37.6761 31.0179 37.6761 "/>
        <path id="ID0.40438934741541743" fill="none" stroke="#000000" stroke-width="0.3839954137802124" stroke-linecap="round" d="M 29.8659 33.9322 C 30.1535 34.124 30.4502 34.3048 30.7299 34.5082 C 30.8031 34.5614 30.9219 34.7002 30.9219 34.7002 "/>
        <path id="ID0.7633831659331918" fill="none" stroke="#000000" stroke-width="0.3839954137802124" stroke-linecap="round" d="M 29.1939 32.7802 C 29.1939 32.7802 29.8335 32.707 30.1539 32.6842 C 30.2814 32.6752 30.41 32.6842 30.5379 32.6842 C 30.6978 32.6842 30.858 32.6842 31.0179 32.6842 C 31.0578 32.6842 31.0179 32.6842 31.0179 32.6842 "/>
        <path id="ID0.8195131137035787" fill="none" stroke="#000000" stroke-width="0.3839954137802124" stroke-linecap="round" d="M 29.7699 30.3802 C 29.7699 30.3802 30.026 30.188 30.1539 30.0922 C 30.2818 29.9964 30.407 29.8958 30.5379 29.8042 C 30.7268 29.6719 30.9221 29.5481 31.1139 29.4202 C 31.1619 29.3884 31.1139 29.4202 31.1139 29.4202 "/>
        <path id="ID0.923992021009326" fill="none" stroke="#000000" stroke-width="0.3839954137802124" stroke-linecap="round" d="M 29.8659 27.8843 C 29.8659 27.8843 31.4979 27.8843 31.4979 27.8843 "/>
      </g>
      <g id="ID0.2824689648114145">
        <path id="ID0.8757698251865804" fill="#995900" stroke="#995900" stroke-width="0.3839954137802124" d="M 25.6599 39.2401 L 28.8279 39.2401 L 28.8279 24.7443 L 25.6599 24.7443 L 25.6599 39.2401 Z "/>
        <path id="ID0.6422801343724132" fill="none" stroke="#000000" stroke-width="0.3839954137802124" stroke-linecap="round" d="M 26.4279 37.9921 C 26.4279 37.9921 26.8797 37.947 27.0999 37.8961 C 27.2969 37.8506 27.4776 37.7439 27.6759 37.7041 C 27.8013 37.679 28.0599 37.7041 28.0599 37.7041 "/>
        <path id="ID0.7584992088377476" fill="none" stroke="#000000" stroke-width="0.3839954137802124" stroke-linecap="round" d="M 26.5239 35.9761 C 26.5239 35.9761 27.0932 35.7841 27.3879 35.7841 C 27.5601 35.7841 27.8679 35.9761 27.8679 35.9761 "/>
        <path id="ID0.40438934741541743" fill="none" stroke="#000000" stroke-width="0.3839954137802124" stroke-linecap="round" d="M 26.7159 32.2322 C 27.0035 32.424 27.3002 32.6048 27.5799 32.8082 C 27.6531 32.8614 27.7719 33.0002 27.7719 33.0002 "/>
        <path id="ID0.7633831659331918" fill="none" stroke="#000000" stroke-width="0.3839954137802124" stroke-linecap="round" d="M 26.0439 31.0802 C 26.0439 31.0802 26.6835 31.007 27.0039 30.9842 C 27.1314 30.9752 27.26 30.9842 27.3879 30.9842 C 27.5478 30.9842 27.708 30.9842 27.8679 30.9842 C 27.9078 30.9842 27.8679 30.9842 27.8679 30.9842 "/>
        <path id="ID0.8195131137035787" fill="none" stroke="#000000" stroke-width="0.3839954137802124" stroke-linecap="round" d="M 26.6199 28.6802 C 26.6199 28.6802 26.876 28.488 27.0039 28.3922 C 27.1318 28.2964 27.257 28.1958 27.3879 28.1042 C 27.5768 27.9719 27.7721 27.8481 27.9639 27.7202 C 28.0119 27.6884 27.9639 27.7202 27.9639 27.7202 "/>
        <path id="ID0.923992021009326" fill="none" stroke="#000000" stroke-width="0.3839954137802124" stroke-linecap="round" d="M 26.7159 26.1843 C 26.7159 26.1843 28.3479 26.1843 28.3479 26.1843 "/>
      </g>
      <g id="ID0.2824689648114145">
        <path id="ID0.8757698251865804" fill="#995900" stroke="#995900" stroke-width="0.3839954137802124" d="M 35.1099 41.6401 L 38.2779 41.6401 L 38.2779 27.1443 L 35.1099 27.1443 L 35.1099 41.6401 Z "/>
        <path id="ID0.6422801343724132" fill="none" stroke="#000000" stroke-width="0.3839954137802124" stroke-linecap="round" d="M 35.8779 40.3921 C 35.8779 40.3921 36.3297 40.347 36.5499 40.2961 C 36.7469 40.2506 36.9276 40.1439 37.1259 40.1041 C 37.2513 40.079 37.5099 40.1041 37.5099 40.1041 "/>
        <path id="ID0.7584992088377476" fill="none" stroke="#000000" stroke-width="0.3839954137802124" stroke-linecap="round" d="M 35.9739 38.3761 C 35.9739 38.3761 36.5432 38.1841 36.8379 38.1841 C 37.0101 38.1841 37.3179 38.3761 37.3179 38.3761 "/>
        <path id="ID0.40438934741541743" fill="none" stroke="#000000" stroke-width="0.3839954137802124" stroke-linecap="round" d="M 36.1659 34.6322 C 36.4535 34.824 36.7502 35.0048 37.0299 35.2082 C 37.1031 35.2614 37.2219 35.4002 37.2219 35.4002 "/>
        <path id="ID0.7633831659331918" fill="none" stroke="#000000" stroke-width="0.3839954137802124" stroke-linecap="round" d="M 35.4939 33.4802 C 35.4939 33.4802 36.1335 33.407 36.4539 33.3842 C 36.5814 33.3752 36.71 33.3842 36.8379 33.3842 C 36.9978 33.3842 37.158 33.3842 37.3179 33.3842 C 37.3578 33.3842 37.3179 33.3842 37.3179 33.3842 "/>
        <path id="ID0.8195131137035787" fill="none" stroke="#000000" stroke-width="0.3839954137802124" stroke-linecap="round" d="M 36.0699 31.0802 C 36.0699 31.0802 36.326 30.888 36.4539 30.7922 C 36.5818 30.6964 36.707 30.5958 36.8379 30.5042 C 37.0268 30.3719 37.2221 30.2481 37.4139 30.1202 C 37.4619 30.0884 37.4139 30.1202 37.4139 30.1202 "/>
        <path id="ID0.923992021009326" fill="none" stroke="#000000" stroke-width="0.3839954137802124" stroke-linecap="round" d="M 36.1659 28.5843 C 36.1659 28.5843 37.7979 28.5843 37.7979 28.5843 "/>
      </g>
      <g id="ID0.2824689648114145">
        <path id="ID0.8757698251865804" fill="#995900" stroke="#995900" stroke-width="0.3839954137802124" d="M 51.1599 33.7401 L 54.3279 33.7401 L 54.3279 19.2443 L 51.1599 19.2443 L 51.1599 33.7401 Z "/>
        <path id="ID0.6422801343724132" fill="none" stroke="#000000" stroke-width="0.3839954137802124" stroke-linecap="round" d="M 51.9279 32.4921 C 51.9279 32.4921 52.3797 32.447 52.5999 32.3961 C 52.7969 32.3506 52.9776 32.2439 53.1759 32.2041 C 53.3013 32.179 53.5599 32.2041 53.5599 32.2041 "/>
        <path id="ID0.7584992088377476" fill="none" stroke="#000000" stroke-width="0.3839954137802124" stroke-linecap="round" d="M 52.0239 30.4761 C 52.0239 30.4761 52.5932 30.2841 52.8879 30.2841 C 53.0601 30.2841 53.3679 30.4761 53.3679 30.4761 "/>
        <path id="ID0.40438934741541743" fill="none" stroke="#000000" stroke-width="0.3839954137802124" stroke-linecap="round" d="M 52.2159 26.7322 C 52.5035 26.924 52.8002 27.1048 53.0799 27.3082 C 53.1531 27.3614 53.2719 27.5002 53.2719 27.5002 "/>
        <path id="ID0.7633831659331918" fill="none" stroke="#000000" stroke-width="0.3839954137802124" stroke-linecap="round" d="M 51.5439 25.5802 C 51.5439 25.5802 52.1835 25.507 52.5039 25.4842 C 52.6314 25.4752 52.76 25.4842 52.8879 25.4842 C 53.0478 25.4842 53.208 25.4842 53.3679 25.4842 C 53.4078 25.4842 53.3679 25.4842 53.3679 25.4842 "/>
        <path id="ID0.8195131137035787" fill="none" stroke="#000000" stroke-width="0.3839954137802124" stroke-linecap="round" d="M 52.1199 23.1802 C 52.1199 23.1802 52.376 22.988 52.5039 22.8922 C 52.6318 22.7964 52.757 22.6958 52.8879 22.6042 C 53.0768 22.4719 53.2721 22.3481 53.4639 22.2202 C 53.5119 22.1884 53.4639 22.2202 53.4639 22.2202 "/>
        <path id="ID0.923992021009326" fill="none" stroke="#000000" stroke-width="0.3839954137802124" stroke-linecap="round" d="M 52.2159 20.6843 C 52.2159 20.6843 53.8479 20.6843 53.8479 20.6843 "/>
      </g>
      <g id="ID0.2824689648114145">
        <path id="ID0.8757698251865804" fill="#995900" stroke="#995900" stroke-width="0.3839954137802124" d="M 41.1599 32.0401 L 44.3279 32.0401 L 44.3279 17.5443 L 41.1599 17.5443 L 41.1599 32.0401 Z "/>
        <path id="ID0.6422801343724132" fill="none" stroke="#000000" stroke-width="0.3839954137802124" stroke-linecap="round" d="M 41.9279 30.7921 C 41.9279 30.7921 42.3797 30.747 42.5999 30.6961 C 42.7969 30.6506 42.9776 30.5439 43.1759 30.5041 C 43.3013 30.479 43.5599 30.5041 43.5599 30.5041 "/>
        <path id="ID0.7584992088377476" fill="none" stroke="#000000" stroke-width="0.3839954137802124" stroke-linecap="round" d="M 42.0239 28.7761 C 42.0239 28.7761 42.5932 28.5841 42.8879 28.5841 C 43.0601 28.5841 43.3679 28.7761 43.3679 28.7761 "/>
        <path id="ID0.40438934741541743" fill="none" stroke="#000000" stroke-width="0.3839954137802124" stroke-linecap="round" d="M 42.2159 25.0322 C 42.5035 25.224 42.8002 25.4048 43.0799 25.6082 C 43.1531 25.6614 43.2719 25.8002 43.2719 25.8002 "/>
        <path id="ID0.7633831659331918" fill="none" stroke="#000000" stroke-width="0.3839954137802124" stroke-linecap="round" d="M 41.5439 23.8802 C 41.5439 23.8802 42.1835 23.807 42.5039 23.7842 C 42.6314 23.7752 42.76 23.7842 42.8879 23.7842 C 43.0478 23.7842 43.208 23.7842 43.3679 23.7842 C 43.4078 23.7842 43.3679 23.7842 43.3679 23.7842 "/>
        <path id="ID0.8195131137035787" fill="none" stroke="#000000" stroke-width="0.3839954137802124" stroke-linecap="round" d="M 42.1199 21.4802 C 42.1199 21.4802 42.376 21.288 42.5039 21.1922 C 42.6318 21.0964 42.757 20.9958 42.8879 20.9042 C 43.0768 20.7719 43.2721 20.6481 43.4639 20.5202 C 43.5119 20.4884 43.4639 20.5202 43.4639 20.5202 "/>
        <path id="ID0.923992021009326" fill="none" stroke="#000000" stroke-width="0.3839954137802124" stroke-linecap="round" d="M 42.2159 18.9843 C 42.2159 18.9843 43.8479 18.9843 43.8479 18.9843 "/>
      </g>
      <g id="ID0.2824689648114145">
        <path id="ID0.8757698251865804" fill="#995900" stroke="#995900" stroke-width="0.3839954137802124" d="M 22.6599 29.8901 L 25.8279 29.8901 L 25.8279 15.3943 L 22.6599 15.3943 L 22.6599 29.8901 Z "/>
        <path id="ID0.6422801343724132" fill="none" stroke="#000000" stroke-width="0.3839954137802124" stroke-linecap="round" d="M 23.4279 28.6421 C 23.4279 28.6421 23.8797 28.597 24.0999 28.5461 C 24.2969 28.5006 24.4776 28.3939 24.6759 28.3541 C 24.8013 28.329 25.0599 28.3541 25.0599 28.3541 "/>
        <path id="ID0.7584992088377476" fill="none" stroke="#000000" stroke-width="0.3839954137802124" stroke-linecap="round" d="M 23.5239 26.6261 C 23.5239 26.6261 24.0932 26.4341 24.3879 26.4341 C 24.5601 26.4341 24.8679 26.6261 24.8679 26.6261 "/>
        <path id="ID0.40438934741541743" fill="none" stroke="#000000" stroke-width="0.3839954137802124" stroke-linecap="round" d="M 23.7159 22.8822 C 24.0035 23.074 24.3002 23.2548 24.5799 23.4582 C 24.6531 23.5114 24.7719 23.6502 24.7719 23.6502 "/>
        <path id="ID0.7633831659331918" fill="none" stroke="#000000" stroke-width="0.3839954137802124" stroke-linecap="round" d="M 23.0439 21.7302 C 23.0439 21.7302 23.6835 21.657 24.0039 21.6342 C 24.1314 21.6252 24.26 21.6342 24.3879 21.6342 C 24.5478 21.6342 24.708 21.6342 24.8679 21.6342 C 24.9078 21.6342 24.8679 21.6342 24.8679 21.6342 "/>
        <path id="ID0.8195131137035787" fill="none" stroke="#000000" stroke-width="0.3839954137802124" stroke-linecap="round" d="M 23.6199 19.3302 C 23.6199 19.3302 23.876 19.138 24.0039 19.0422 C 24.1318 18.9464 24.257 18.8458 24.3879 18.7542 C 24.5768 18.6219 24.7721 18.4981 24.9639 18.3702 C 25.0119 18.3384 24.9639 18.3702 24.9639 18.3702 "/>
        <path id="ID0.923992021009326" fill="none" stroke="#000000" stroke-width="0.3839954137802124" stroke-linecap="round" d="M 23.7159 16.8343 C 23.7159 16.8343 25.3479 16.8343 25.3479 16.8343 "/>
      </g>
      <g id="ID0.2824689648114145">
        <path id="ID0.8757698251865804" fill="#995900" stroke="#995900" stroke-width="0.3839954137802124" d="M 44.5099 30.1901 L 47.6779 30.1901 L 47.6779 15.6943 L 44.5099 15.6943 L 44.5099 30.1901 Z "/>
        <path id="ID0.6422801343724132" fill="none" stroke="#000000" stroke-width="0.3839954137802124" stroke-linecap="round" d="M 45.2779 28.9421 C 45.2779 28.9421 45.7297 28.897 45.9499 28.8461 C 46.1469 28.8006 46.3276 28.6939 46.5259 28.6541 C 46.6513 28.629 46.9099 28.6541 46.9099 28.6541 "/>
        <path id="ID0.7584992088377476" fill="none" stroke="#000000" stroke-width="0.3839954137802124" stroke-linecap="round" d="M 45.3739 26.9261 C 45.3739 26.9261 45.9432 26.7341 46.2379 26.7341 C 46.4101 26.7341 46.7179 26.9261 46.7179 26.9261 "/>
        <path id="ID0.40438934741541743" fill="none" stroke="#000000" stroke-width="0.3839954137802124" stroke-linecap="round" d="M 45.5659 23.1822 C 45.8535 23.374 46.1502 23.5548 46.4299 23.7582 C 46.5031 23.8114 46.6219 23.9502 46.6219 23.9502 "/>
        <path id="ID0.7633831659331918" fill="none" stroke="#000000" stroke-width="0.3839954137802124" stroke-linecap="round" d="M 44.8939 22.0302 C 44.8939 22.0302 45.5335 21.957 45.8539 21.9342 C 45.9814 21.9252 46.11 21.9342 46.2379 21.9342 C 46.3978 21.9342 46.558 21.9342 46.7179 21.9342 C 46.7578 21.9342 46.7179 21.9342 46.7179 21.9342 "/>
        <path id="ID0.8195131137035787" fill="none" stroke="#000000" stroke-width="0.3839954137802124" stroke-linecap="round" d="M 45.4699 19.6302 C 45.4699 19.6302 45.726 19.438 45.8539 19.3422 C 45.9818 19.2464 46.107 19.1458 46.2379 19.0542 C 46.4268 18.9219 46.6221 18.7981 46.8139 18.6702 C 46.8619 18.6384 46.8139 18.6702 46.8139 18.6702 "/>
        <path id="ID0.923992021009326" fill="none" stroke="#000000" stroke-width="0.3839954137802124" stroke-linecap="round" d="M 45.5659 17.1343 C 45.5659 17.1343 47.1979 17.1343 47.1979 17.1343 "/>
      </g>
      <g id="ID0.2824689648114145">
        <path id="ID0.8757698251865804" fill="#995900" stroke="#995900" stroke-width="0.3839954137802124" d="M 38.0099 33.0901 L 41.1779 33.0901 L 41.1779 18.5943 L 38.0099 18.5943 L 38.0099 33.0901 Z "/>
        <path id="ID0.6422801343724132" fill="none" stroke="#000000" stroke-width="0.3839954137802124" stroke-linecap="round" d="M 38.7779 31.8421 C 38.7779 31.8421 39.2297 31.797 39.4499 31.7461 C 39.6469 31.7006 39.8276 31.5939 40.0259 31.5541 C 40.1513 31.529 40.4099 31.5541 40.4099 31.5541 "/>
        <path id="ID0.7584992088377476" fill="none" stroke="#000000" stroke-width="0.3839954137802124" stroke-linecap="round" d="M 38.8739 29.8261 C 38.8739 29.8261 39.4432 29.6341 39.7379 29.6341 C 39.9101 29.6341 40.2179 29.8261 40.2179 29.8261 "/>
        <path id="ID0.40438934741541743" fill="none" stroke="#000000" stroke-width="0.3839954137802124" stroke-linecap="round" d="M 39.0659 26.0822 C 39.3535 26.274 39.6502 26.4548 39.9299 26.6582 C 40.0031 26.7114 40.1219 26.8502 40.1219 26.8502 "/>
        <path id="ID0.7633831659331918" fill="none" stroke="#000000" stroke-width="0.3839954137802124" stroke-linecap="round" d="M 38.3939 24.9302 C 38.3939 24.9302 39.0335 24.857 39.3539 24.8342 C 39.4814 24.8252 39.61 24.8342 39.7379 24.8342 C 39.8978 24.8342 40.058 24.8342 40.2179 24.8342 C 40.2578 24.8342 40.2179 24.8342 40.2179 24.8342 "/>
        <path id="ID0.8195131137035787" fill="none" stroke="#000000" stroke-width="0.3839954137802124" stroke-linecap="round" d="M 38.9699 22.5302 C 38.9699 22.5302 39.226 22.338 39.3539 22.2422 C 39.4818 22.1464 39.607 22.0458 39.7379 21.9542 C 39.9268 21.8219 40.1221 21.6981 40.3139 21.5702 C 40.3619 21.5384 40.3139 21.5702 40.3139 21.5702 "/>
        <path id="ID0.923992021009326" fill="none" stroke="#000000" stroke-width="0.3839954137802124" stroke-linecap="round" d="M 39.0659 20.0343 C 39.0659 20.0343 40.6979 20.0343 40.6979 20.0343 "/>
      </g>
      <g id="ID0.2824689648114145">
        <path id="ID0.8757698251865804" fill="#995900" stroke="#995900" stroke-width="0.3839954137802124" d="M 31.7099 33.7901 L 34.8779 33.7901 L 34.8779 19.2943 L 31.7099 19.2943 L 31.7099 33.7901 Z "/>
        <path id="ID0.6422801343724132" fill="none" stroke="#000000" stroke-width="0.3839954137802124" stroke-linecap="round" d="M 32.4779 32.5421 C 32.4779 32.5421 32.9297 32.497 33.1499 32.4461 C 33.3469 32.4006 33.5276 32.2939 33.7259 32.2541 C 33.8513 32.229 34.1099 32.2541 34.1099 32.2541 "/>
        <path id="ID0.7584992088377476" fill="none" stroke="#000000" stroke-width="0.3839954137802124" stroke-linecap="round" d="M 32.5739 30.5261 C 32.5739 30.5261 33.1432 30.3341 33.4379 30.3341 C 33.6101 30.3341 33.9179 30.5261 33.9179 30.5261 "/>
        <path id="ID0.40438934741541743" fill="none" stroke="#000000" stroke-width="0.3839954137802124" stroke-linecap="round" d="M 32.7659 26.7822 C 33.0535 26.974 33.3502 27.1548 33.6299 27.3582 C 33.7031 27.4114 33.8219 27.5502 33.8219 27.5502 "/>
        <path id="ID0.7633831659331918" fill="none" stroke="#000000" stroke-width="0.3839954137802124" stroke-linecap="round" d="M 32.0939 25.6302 C 32.0939 25.6302 32.7335 25.557 33.0539 25.5342 C 33.1814 25.5252 33.31 25.5342 33.4379 25.5342 C 33.5978 25.5342 33.758 25.5342 33.9179 25.5342 C 33.9578 25.5342 33.9179 25.5342 33.9179 25.5342 "/>
        <path id="ID0.8195131137035787" fill="none" stroke="#000000" stroke-width="0.3839954137802124" stroke-linecap="round" d="M 32.6699 23.2302 C 32.6699 23.2302 32.926 23.038 33.0539 22.9422 C 33.1818 22.8464 33.307 22.7458 33.4379 22.6542 C 33.6268 22.5219 33.8221 22.3981 34.0139 22.2702 C 34.0619 22.2384 34.0139 22.2702 34.0139 22.2702 "/>
        <path id="ID0.923992021009326" fill="none" stroke="#000000" stroke-width="0.3839954137802124" stroke-linecap="round" d="M 32.7659 20.7343 C 32.7659 20.7343 34.3979 20.7343 34.3979 20.7343 "/>
      </g>
      <g id="ID0.2824689648114145">
        <path id="ID0.8757698251865804" fill="#995900" stroke="#995900" stroke-width="0.3839954137802124" d="M 28.7099 32.9901 L 31.8779 32.9901 L 31.8779 18.4943 L 28.7099 18.4943 L 28.7099 32.9901 Z "/>
        <path id="ID0.6422801343724132" fill="none" stroke="#000000" stroke-width="0.3839954137802124" stroke-linecap="round" d="M 29.4779 31.7421 C 29.4779 31.7421 29.9297 31.697 30.1499 31.6461 C 30.3469 31.6006 30.5276 31.4939 30.7259 31.4541 C 30.8513 31.429 31.1099 31.4541 31.1099 31.4541 "/>
        <path id="ID0.7584992088377476" fill="none" stroke="#000000" stroke-width="0.3839954137802124" stroke-linecap="round" d="M 29.5739 29.7261 C 29.5739 29.7261 30.1432 29.5341 30.4379 29.5341 C 30.6101 29.5341 30.9179 29.7261 30.9179 29.7261 "/>
        <path id="ID0.40438934741541743" fill="none" stroke="#000000" stroke-width="0.3839954137802124" stroke-linecap="round" d="M 29.7659 25.9822 C 30.0535 26.174 30.3502 26.3548 30.6299 26.5582 C 30.7031 26.6114 30.8219 26.7502 30.8219 26.7502 "/>
        <path id="ID0.7633831659331918" fill="none" stroke="#000000" stroke-width="0.3839954137802124" stroke-linecap="round" d="M 29.0939 24.8302 C 29.0939 24.8302 29.7335 24.757 30.0539 24.7342 C 30.1814 24.7252 30.31 24.7342 30.4379 24.7342 C 30.5978 24.7342 30.758 24.7342 30.9179 24.7342 C 30.9578 24.7342 30.9179 24.7342 30.9179 24.7342 "/>
        <path id="ID0.8195131137035787" fill="none" stroke="#000000" stroke-width="0.3839954137802124" stroke-linecap="round" d="M 29.6699 22.4302 C 29.6699 22.4302 29.926 22.238 30.0539 22.1422 C 30.1818 22.0464 30.307 21.9458 30.4379 21.8542 C 30.6268 21.7219 30.8221 21.5981 31.0139 21.4702 C 31.0619 21.4384 31.0139 21.4702 31.0139 21.4702 "/>
        <path id="ID0.923992021009326" fill="none" stroke="#000000" stroke-width="0.3839954137802124" stroke-linecap="round" d="M 29.7659 19.9343 C 29.7659 19.9343 31.3979 19.9343 31.3979 19.9343 "/>
      </g>
      <g id="ID0.2824689648114145">
        <path id="ID0.8757698251865804" fill="#995900" stroke="#995900" stroke-width="0.3839954137802124" d="M 25.5099 31.3401 L 28.6779 31.3401 L 28.6779 16.8443 L 25.5099 16.8443 L 25.5099 31.3401 Z "/>
        <path id="ID0.6422801343724132" fill="none" stroke="#000000" stroke-width="0.3839954137802124" stroke-linecap="round" d="M 26.2779 30.0921 C 26.2779 30.0921 26.7297 30.047 26.9499 29.9961 C 27.1469 29.9506 27.3276 29.8439 27.5259 29.8041 C 27.6513 29.779 27.9099 29.8041 27.9099 29.8041 "/>
        <path id="ID0.7584992088377476" fill="none" stroke="#000000" stroke-width="0.3839954137802124" stroke-linecap="round" d="M 26.3739 28.0761 C 26.3739 28.0761 26.9432 27.8841 27.2379 27.8841 C 27.4101 27.8841 27.7179 28.0761 27.7179 28.0761 "/>
        <path id="ID0.40438934741541743" fill="none" stroke="#000000" stroke-width="0.3839954137802124" stroke-linecap="round" d="M 26.5659 24.3322 C 26.8535 24.524 27.1502 24.7048 27.4299 24.9082 C 27.5031 24.9614 27.6219 25.1002 27.6219 25.1002 "/>
        <path id="ID0.7633831659331918" fill="none" stroke="#000000" stroke-width="0.3839954137802124" stroke-linecap="round" d="M 25.8939 23.1802 C 25.8939 23.1802 26.5335 23.107 26.8539 23.0842 C 26.9814 23.0752 27.11 23.0842 27.2379 23.0842 C 27.3978 23.0842 27.558 23.0842 27.7179 23.0842 C 27.7578 23.0842 27.7179 23.0842 27.7179 23.0842 "/>
        <path id="ID0.8195131137035787" fill="none" stroke="#000000" stroke-width="0.3839954137802124" stroke-linecap="round" d="M 26.4699 20.7802 C 26.4699 20.7802 26.726 20.588 26.8539 20.4922 C 26.9818 20.3964 27.107 20.2958 27.2379 20.2042 C 27.4268 20.0719 27.6221 19.9481 27.8139 19.8202 C 27.8619 19.7884 27.8139 19.8202 27.8139 19.8202 "/>
        <path id="ID0.923992021009326" fill="none" stroke="#000000" stroke-width="0.3839954137802124" stroke-linecap="round" d="M 26.5659 18.2843 C 26.5659 18.2843 28.1979 18.2843 28.1979 18.2843 "/>
      </g>
      <g id="ID0.2824689648114145">
        <path id="ID0.8757698251865804" fill="#995900" stroke="#995900" stroke-width="0.3839954137802124" d="M 34.9599 33.6901 L 38.1279 33.6901 L 38.1279 19.1943 L 34.9599 19.1943 L 34.9599 33.6901 Z "/>
        <path id="ID0.6422801343724132" fill="none" stroke="#000000" stroke-width="0.3839954137802124" stroke-linecap="round" d="M 35.7279 32.4421 C 35.7279 32.4421 36.1797 32.397 36.3999 32.3461 C 36.5969 32.3006 36.7776 32.1939 36.9759 32.1541 C 37.1013 32.129 37.3599 32.1541 37.3599 32.1541 "/>
        <path id="ID0.7584992088377476" fill="none" stroke="#000000" stroke-width="0.3839954137802124" stroke-linecap="round" d="M 35.8239 30.4261 C 35.8239 30.4261 36.3932 30.2341 36.6879 30.2341 C 36.8601 30.2341 37.1679 30.4261 37.1679 30.4261 "/>
        <path id="ID0.40438934741541743" fill="none" stroke="#000000" stroke-width="0.3839954137802124" stroke-linecap="round" d="M 36.0159 26.6822 C 36.3035 26.874 36.6002 27.0548 36.8799 27.2582 C 36.9531 27.3114 37.0719 27.4502 37.0719 27.4502 "/>
        <path id="ID0.7633831659331918" fill="none" stroke="#000000" stroke-width="0.3839954137802124" stroke-linecap="round" d="M 35.3439 25.5302 C 35.3439 25.5302 35.9835 25.457 36.3039 25.4342 C 36.4314 25.4252 36.56 25.4342 36.6879 25.4342 C 36.8478 25.4342 37.008 25.4342 37.1679 25.4342 C 37.2078 25.4342 37.1679 25.4342 37.1679 25.4342 "/>
        <path id="ID0.8195131137035787" fill="none" stroke="#000000" stroke-width="0.3839954137802124" stroke-linecap="round" d="M 35.9199 23.1302 C 35.9199 23.1302 36.176 22.938 36.3039 22.8422 C 36.4318 22.7464 36.557 22.6458 36.6879 22.5542 C 36.8768 22.4219 37.0721 22.2981 37.2639 22.1702 C 37.3119 22.1384 37.2639 22.1702 37.2639 22.1702 "/>
        <path id="ID0.923992021009326" fill="none" stroke="#000000" stroke-width="0.3839954137802124" stroke-linecap="round" d="M 36.0159 20.6343 C 36.0159 20.6343 37.6479 20.6343 37.6479 20.6343 "/>
      </g>
      <g id="ID0.2824689648114145">
        <path id="ID0.8757698251865804" fill="#995900" stroke="#995900" stroke-width="0.3839954137802124" d="M 37.7099 26.2901 L 40.8779 26.2901 L 40.8779 11.7943 L 37.7099 11.7943 L 37.7099 26.2901 Z "/>
        <path id="ID0.6422801343724132" fill="none" stroke="#000000" stroke-width="0.3839954137802124" stroke-linecap="round" d="M 38.4779 25.0421 C 38.4779 25.0421 38.9297 24.997 39.1499 24.9461 C 39.3469 24.9006 39.5276 24.7939 39.7259 24.7541 C 39.8513 24.729 40.1099 24.7541 40.1099 24.7541 "/>
        <path id="ID0.7584992088377476" fill="none" stroke="#000000" stroke-width="0.3839954137802124" stroke-linecap="round" d="M 38.5739 23.0261 C 38.5739 23.0261 39.1432 22.8341 39.4379 22.8341 C 39.6101 22.8341 39.9179 23.0261 39.9179 23.0261 "/>
        <path id="ID0.40438934741541743" fill="none" stroke="#000000" stroke-width="0.3839954137802124" stroke-linecap="round" d="M 38.7659 19.2822 C 39.0535 19.474 39.3502 19.6548 39.6299 19.8582 C 39.7031 19.9114 39.8219 20.0502 39.8219 20.0502 "/>
        <path id="ID0.7633831659331918" fill="none" stroke="#000000" stroke-width="0.3839954137802124" stroke-linecap="round" d="M 38.0939 18.1302 C 38.0939 18.1302 38.7335 18.057 39.0539 18.0342 C 39.1814 18.0252 39.31 18.0342 39.4379 18.0342 C 39.5978 18.0342 39.758 18.0342 39.9179 18.0342 C 39.9578 18.0342 39.9179 18.0342 39.9179 18.0342 "/>
        <path id="ID0.8195131137035787" fill="none" stroke="#000000" stroke-width="0.3839954137802124" stroke-linecap="round" d="M 38.6699 15.7302 C 38.6699 15.7302 38.926 15.538 39.0539 15.4422 C 39.1818 15.3464 39.307 15.2458 39.4379 15.1542 C 39.6268 15.0219 39.8221 14.8981 40.0139 14.7702 C 40.0619 14.7384 40.0139 14.7702 40.0139 14.7702 "/>
        <path id="ID0.923992021009326" fill="none" stroke="#000000" stroke-width="0.3839954137802124" stroke-linecap="round" d="M 38.7659 13.2343 C 38.7659 13.2343 40.3979 13.2343 40.3979 13.2343 "/>
      </g>
      <g id="ID0.2824689648114145">
        <path id="ID0.8757698251865804" fill="#995900" stroke="#995900" stroke-width="0.3839954137802124" d="M 31.4099 26.9901 L 34.5779 26.9901 L 34.5779 12.4943 L 31.4099 12.4943 L 31.4099 26.9901 Z "/>
        <path id="ID0.6422801343724132" fill="none" stroke="#000000" stroke-width="0.3839954137802124" stroke-linecap="round" d="M 32.1779 25.7421 C 32.1779 25.7421 32.6297 25.697 32.8499 25.6461 C 33.0469 25.6006 33.2276 25.4939 33.4259 25.4541 C 33.5513 25.429 33.8099 25.4541 33.8099 25.4541 "/>
        <path id="ID0.7584992088377476" fill="none" stroke="#000000" stroke-width="0.3839954137802124" stroke-linecap="round" d="M 32.2739 23.7261 C 32.2739 23.7261 32.8432 23.5341 33.1379 23.5341 C 33.3101 23.5341 33.6179 23.7261 33.6179 23.7261 "/>
        <path id="ID0.40438934741541743" fill="none" stroke="#000000" stroke-width="0.3839954137802124" stroke-linecap="round" d="M 32.4659 19.9822 C 32.7535 20.174 33.0502 20.3548 33.3299 20.5582 C 33.4031 20.6114 33.5219 20.7502 33.5219 20.7502 "/>
        <path id="ID0.7633831659331918" fill="none" stroke="#000000" stroke-width="0.3839954137802124" stroke-linecap="round" d="M 31.7939 18.8302 C 31.7939 18.8302 32.4335 18.757 32.7539 18.7342 C 32.8814 18.7252 33.01 18.7342 33.1379 18.7342 C 33.2978 18.7342 33.458 18.7342 33.6179 18.7342 C 33.6578 18.7342 33.6179 18.7342 33.6179 18.7342 "/>
        <path id="ID0.8195131137035787" fill="none" stroke="#000000" stroke-width="0.3839954137802124" stroke-linecap="round" d="M 32.3699 16.4302 C 32.3699 16.4302 32.626 16.238 32.7539 16.1422 C 32.8818 16.0464 33.007 15.9458 33.1379 15.8542 C 33.3268 15.7219 33.5221 15.5981 33.7139 15.4702 C 33.7619 15.4384 33.7139 15.4702 33.7139 15.4702 "/>
        <path id="ID0.923992021009326" fill="none" stroke="#000000" stroke-width="0.3839954137802124" stroke-linecap="round" d="M 32.4659 13.9343 C 32.4659 13.9343 34.0979 13.9343 34.0979 13.9343 "/>
      </g>
      <g id="ID0.2824689648114145">
        <path id="ID0.8757698251865804" fill="#995900" stroke="#995900" stroke-width="0.3839954137802124" d="M 28.4599 26.1901 L 31.6279 26.1901 L 31.6279 11.6943 L 28.4599 11.6943 L 28.4599 26.1901 Z "/>
        <path id="ID0.6422801343724132" fill="none" stroke="#000000" stroke-width="0.3839954137802124" stroke-linecap="round" d="M 29.2279 24.9421 C 29.2279 24.9421 29.6797 24.897 29.8999 24.8461 C 30.0969 24.8006 30.2776 24.6939 30.4759 24.6541 C 30.6013 24.629 30.8599 24.6541 30.8599 24.6541 "/>
        <path id="ID0.7584992088377476" fill="none" stroke="#000000" stroke-width="0.3839954137802124" stroke-linecap="round" d="M 29.3239 22.9261 C 29.3239 22.9261 29.8932 22.7341 30.1879 22.7341 C 30.3601 22.7341 30.6679 22.9261 30.6679 22.9261 "/>
        <path id="ID0.40438934741541743" fill="none" stroke="#000000" stroke-width="0.3839954137802124" stroke-linecap="round" d="M 29.5159 19.1822 C 29.8035 19.374 30.1002 19.5548 30.3799 19.7582 C 30.4531 19.8114 30.5719 19.9502 30.5719 19.9502 "/>
        <path id="ID0.7633831659331918" fill="none" stroke="#000000" stroke-width="0.3839954137802124" stroke-linecap="round" d="M 28.8439 18.0302 C 28.8439 18.0302 29.4835 17.957 29.8039 17.9342 C 29.9314 17.9252 30.06 17.9342 30.1879 17.9342 C 30.3478 17.9342 30.508 17.9342 30.6679 17.9342 C 30.7078 17.9342 30.6679 17.9342 30.6679 17.9342 "/>
        <path id="ID0.8195131137035787" fill="none" stroke="#000000" stroke-width="0.3839954137802124" stroke-linecap="round" d="M 29.4199 15.6302 C 29.4199 15.6302 29.676 15.438 29.8039 15.3422 C 29.9318 15.2464 30.057 15.1458 30.1879 15.0542 C 30.3768 14.9219 30.5721 14.7981 30.7639 14.6702 C 30.8119 14.6384 30.7639 14.6702 30.7639 14.6702 "/>
        <path id="ID0.923992021009326" fill="none" stroke="#000000" stroke-width="0.3839954137802124" stroke-linecap="round" d="M 29.5159 13.1343 C 29.5159 13.1343 31.1479 13.1343 31.1479 13.1343 "/>
      </g>
      <g id="ID0.2824689648114145">
        <path id="ID0.8757698251865804" fill="#995900" stroke="#995900" stroke-width="0.3839954137802124" d="M 34.7099 26.9401 L 37.8779 26.9401 L 37.8779 12.4443 L 34.7099 12.4443 L 34.7099 26.9401 Z "/>
        <path id="ID0.6422801343724132" fill="none" stroke="#000000" stroke-width="0.3839954137802124" stroke-linecap="round" d="M 35.4779 25.6921 C 35.4779 25.6921 35.9297 25.647 36.1499 25.5961 C 36.3469 25.5506 36.5276 25.4439 36.7259 25.4041 C 36.8513 25.379 37.1099 25.4041 37.1099 25.4041 "/>
        <path id="ID0.7584992088377476" fill="none" stroke="#000000" stroke-width="0.3839954137802124" stroke-linecap="round" d="M 35.5739 23.6761 C 35.5739 23.6761 36.1432 23.4841 36.4379 23.4841 C 36.6101 23.4841 36.9179 23.6761 36.9179 23.6761 "/>
        <path id="ID0.40438934741541743" fill="none" stroke="#000000" stroke-width="0.3839954137802124" stroke-linecap="round" d="M 35.7659 19.9322 C 36.0535 20.124 36.3502 20.3048 36.6299 20.5082 C 36.7031 20.5614 36.8219 20.7002 36.8219 20.7002 "/>
        <path id="ID0.7633831659331918" fill="none" stroke="#000000" stroke-width="0.3839954137802124" stroke-linecap="round" d="M 35.0939 18.7802 C 35.0939 18.7802 35.7335 18.707 36.0539 18.6842 C 36.1814 18.6752 36.31 18.6842 36.4379 18.6842 C 36.5978 18.6842 36.758 18.6842 36.9179 18.6842 C 36.9578 18.6842 36.9179 18.6842 36.9179 18.6842 "/>
        <path id="ID0.8195131137035787" fill="none" stroke="#000000" stroke-width="0.3839954137802124" stroke-linecap="round" d="M 35.6699 16.3802 C 35.6699 16.3802 35.926 16.188 36.0539 16.0922 C 36.1818 15.9964 36.307 15.8958 36.4379 15.8042 C 36.6268 15.6719 36.8221 15.5481 37.0139 15.4202 C 37.0619 15.3884 37.0139 15.4202 37.0139 15.4202 "/>
        <path id="ID0.923992021009326" fill="none" stroke="#000000" stroke-width="0.3839954137802124" stroke-linecap="round" d="M 35.7659 13.8843 C 35.7659 13.8843 37.3979 13.8843 37.3979 13.8843 "/>
      </g>
    </g>
  </g>
</svg>