<svg xmlns="http://www.w3.org/2000/svg" xmlns:xlink="http://www.w3.org/1999/xlink" version="1.1" width="93.21480651855468" height="257.3605889892578" viewBox="-0.7300195577740669 -0.7299865228892304 93.21480651855468 257.3605889892578"><g><g data-paper-data="{&quot;isPaintingLayer&quot;:true}" fill-rule="nonzero" stroke-linejoin="miter" stroke-miterlimit="10" stroke-dasharray="" stroke-dashoffset="0" style="mix-blend-mode: normal"><g data-paper-data="{&quot;origPos&quot;:null}" stroke-linecap="butt"><path d="M 54.7029 255.9006 L 55.6029 246.2006 L 70.4029 246.8006 L 79.8029 249.1006 L 87.2029 255.9006 Z " fill="#d8d8d8" stroke-width="1" stroke="none"/><path d="M 55.4029 247.6006 L 51.7029 197.2006 L 43.8029 135.2006 L 73.8029 135.2006 L 74.5029 197.5006 L 74.5029 247.6006 Z " fill="#98c1dd" stroke-width="1" stroke="none"/></g><g stroke-linecap="butt"><path d="M 16.8029 255.9006 L 17.7029 246.2006 L 32.5029 246.8006 L 41.9029 249.1006 L 49.3029 255.9006 Z " fill="#d8d8d8" stroke-width="1" stroke="none"/><path d="M 18.3029 247.6006 L 18.8029 195.3006 L 19.5029 135.2006 L 48.6029 135.2006 L 40.6029 197.0006 L 35.9029 247.6006 Z " fill="#98c1dd" stroke-width="1" stroke="none"/></g><g data-paper-data="{&quot;origPos&quot;:null}" stroke-linecap="butt"><path d="M 80.1029 114.545 C 76.9029 114.945 71.5029 113.245 71.5029 113.245 C 71.5029 113.245 63.4029 66.345 70.4029 64.645 C 83.0029 61.245 85.3029 111.245 85.3029 111.245 C 85.3029 111.245 83.2029 114.145 80.1029 114.545 Z " fill="#ac752d" stroke-width="1" stroke="none"/><path d="M 65.7029 96.245 C 65.7029 96.245 56.7029 63.345 68.2029 61.145 C 78.3029 59.145 89.8029 90.145 89.8029 90.145 Z " fill="#485963" stroke-width="1" stroke="none"/></g><g data-paper-data="{&quot;origPos&quot;:null}" stroke-linecap="butt"><g data-paper-data="{&quot;origPos&quot;:null}"><path d="M 88.1029 138.345 L 79.9029 140.745 L 71.1029 113.645 C 71.1029 113.645 74.2029 109.445 77.8029 109.745 C 80.5029 109.945 85.1029 110.745 85.1029 110.745 Z " data-paper-data="{&quot;origPos&quot;:null}" stroke-width="1" fill="#ac752d" stroke="none"/></g><path d="M 84.6187 160.9179 C 82.7352 161.1872 83.5058 152.168 81.7412 152.0061 C 80.3884 151.865 82.0004 157.4589 81.5664 158.3598 C 81.0343 159.28 78.2929 157.7818 78.2929 157.7818 C 78.2929 157.7818 75.7578 152.6757 75.3338 150.0073 C 74.2718 144.1012 79.9366 138.1944 79.9366 138.1944 L 87.2134 137.8815 C 87.2134 137.8815 91.6084 144.15 91.753 148.5042 C 91.8397 152.564 88.7452 158.0662 88.7452 158.0662 C 88.7452 158.0662 86.4427 160.8642 84.6187 160.9179 Z " data-paper-data="{&quot;origPos&quot;:null,&quot;index&quot;:null,&quot;origRot&quot;:0}" stroke-width="1" fill="#ac752d" stroke="none"/></g><path d="M 17.1029 140.3006 L 16.9029 64.0006 C 16.9029 64.0006 32.1029 56.1006 45.1029 55.9006 C 58.1029 55.7006 69.0363 59.9117 71.4363 61.2117 C 73.7363 62.4117 74.5029 142.5006 74.5029 142.5006 C 74.5029 142.5006 57.4029 145.3006 45.8029 145.2006 C 34.0029 145.0006 17.1029 140.3006 17.1029 140.3006 Z " data-paper-data="{&quot;origPos&quot;:null}" fill="#536672" stroke="none" stroke-width="1" stroke-linecap="butt"/><g stroke-linecap="butt"><path d="M 6.7029 116.6006 C 4.2029 116.4006 0.4029 114.4006 0.4029 114.4006 C 0.4029 114.4006 6.0029 63.8006 20.3029 64.1006 C 31.5029 63.8006 13.1029 115.4006 13.1029 115.4006 C 13.1029 115.4006 9.2029 116.8006 6.7029 116.6006 Z " fill="#ac752d" stroke-width="1" stroke="none"/><path d="M 0.6029 90.7006 C 0.6029 90.7006 13.1029 62.4006 20.1029 63.2006 C 36.7029 65.0006 22.9029 99.4006 22.9029 99.4006 Z " fill="#485963" stroke-width="1" stroke="none"/></g><g stroke-linecap="butt"><path d="M 2.4029 141.3006 L 0.3029 113.6006 C 0.3029 113.6006 4.3029 112.4006 6.6029 112.0006 C 9.8029 111.4006 13.3029 115.3006 13.3029 115.3006 L 10.1029 143.0006 Z " stroke-width="1" fill="#ac752d" stroke="none"/><path d="M 4.9029 160.4006 C 4.9029 160.4006 0.8029 155.6006 0.1029 151.6006 C -0.5971 147.3006 2.5029 140.3006 2.5029 140.3006 L 9.7029 139.2006 C 9.7029 139.2006 16.4029 143.9006 16.5029 149.9006 C 16.6029 152.6006 15.1029 158.1006 15.1029 158.1006 C 15.1029 158.1006 12.7029 160.1006 12.0029 159.3006 C 11.3029 158.5006 11.9029 152.7006 10.6029 153.1006 C 8.9029 153.6006 11.4029 162.3006 9.5029 162.4006 C 7.7029 162.7006 4.9029 160.4006 4.9029 160.4006 Z " stroke-width="1" fill="#ac752d" stroke="none"/></g><path d="M 72.2029 28.3006 C 72.2029 44.0006 51.6029 59.6006 37.4029 59.6006 C 23.2029 59.6006 20.7029 43.9006 20.7029 28.3006 C 20.7029 12.7006 32.2029 0.0006 46.5029 0.0006 C 60.7029 -0.0994 72.2029 12.6006 72.2029 28.3006 Z " data-paper-data="{&quot;origPos&quot;:null}" fill="#241608" stroke="none" stroke-width="1" stroke-linecap="butt"/><g stroke-linecap="butt"><path d="M 37.6029 46.3006 L 52.8029 49.7006 L 52.7029 58.8006 C 52.7029 58.8006 57.6029 59.7006 57.5029 62.5006 C 57.4029 67.0006 38.6029 69.4006 34.7029 62.5006 C 33.2029 59.1006 36.7029 57.9006 36.7029 57.9006 Z " data-paper-data="{&quot;origPos&quot;:null}" stroke-width="1" fill="#9e6b30" stroke="none"/><path d="M 33.0029 35.2006 C 33.8029 37.6006 33.3029 39.9006 32.0029 40.3006 C 30.6029 40.8006 28.8029 39.3006 28.0029 36.9006 C 27.2029 34.5006 27.7029 32.2006 29.0029 31.8006 C 30.4029 31.3006 32.2029 32.9006 33.0029 35.2006 Z " data-paper-data="{&quot;origPos&quot;:null}" stroke-width="1" fill="#9e6b30" stroke="none"/><path d="M 64.5029 33.0006 C 64.5029 45.8006 56.6029 52.6006 49.8029 52.9006 C 38.0029 53.1006 30.4029 43.4006 30.4029 30.6006 C 30.4029 17.8006 32.6029 8.2006 47.6029 7.5006 C 59.0029 6.9006 66.4829 19.0006 64.4829 32.7006 Z " data-paper-data="{&quot;origPos&quot;:null}" stroke-width="1" fill="#9e6b30" stroke="none"/></g><path d="M 52.9029 45.7006 C 52.9029 46.4006 50.9029 47.9006 49.2029 47.9006 C 47.4029 47.9006 45.7029 46.0006 45.7029 45.2006 C 45.7029 44.4006 47.9029 45.2006 49.7029 45.2006 C 51.4029 45.3006 52.9029 45.0006 52.9029 45.7006 Z " fill="#000000" stroke="none" stroke-width="1" stroke-linecap="butt"/><path d="M 50.2029 33.5006 C 50.2029 33.5006 52.5029 36.5006 52.4029 38.0006 C 52.4029 38.7006 49.9029 40.1006 49.9029 40.1006 " fill="none" stroke="#000000" stroke-width="1.46" stroke-linecap="round"/><path d="M 27.2029 32.1006 C 27.2029 32.1006 25.7962 11.8258 37.0029 5.8506 C 52.6439 -2.4888 62.0029 11.0006 62.0029 11.0006 C 62.0029 11.0006 54.6029 17.0006 47.4029 21.4006 C 40.2029 25.8006 27.2029 32.1006 27.2029 32.1006 Z " data-paper-data="{&quot;origPos&quot;:null}" fill="#241608" stroke="none" stroke-width="1" stroke-linecap="butt"/><g><path d="M 38.8029 26.5006 C 38.8029 26.5006 41.7029 25.7006 43.2029 25.7006 C 44.9029 25.6006 46.9029 26.5006 46.9029 26.5006 " fill="none" stroke="#000000" stroke-width="1.46" stroke-linecap="round"/><g><path d="M 38.7029 30.8006 C 38.7029 30.8006 40.9029 28.9006 43.2029 29.1006 C 45.7029 29.3006 46.1029 30.6006 46.1029 30.6006 " fill="none" stroke="#000000" stroke-width="1.46" stroke-linecap="round"/><path d="M 42.0029 31.6006 C 42.0029 30.4006 42.9029 29.4006 44.1029 29.4006 C 45.3029 29.4006 46.2029 30.4006 46.2029 31.6006 C 46.2029 32.8006 45.3029 33.8006 44.1029 33.8006 C 43.0029 33.8006 42.0029 32.8006 42.0029 31.6006 Z " fill="#000000" stroke="none" stroke-width="1" stroke-linecap="butt"/></g></g><g><path d="M 54.2029 26.4006 C 54.2029 26.4006 56.5029 25.6006 58.2029 25.6006 C 59.7029 25.7006 61.4029 26.1006 61.4029 26.1006 " fill="none" stroke="#000000" stroke-width="1.46" stroke-linecap="round"/><g><path d="M 54.2029 30.5006 C 54.2029 30.5006 54.7029 29.2006 57.1029 29.0006 C 59.4029 28.8006 61.6029 30.7006 61.6029 30.7006 " fill="none" stroke="#000000" stroke-width="1.46" stroke-linecap="round"/><path d="M 58.9029 33.5006 C 57.7029 33.5006 56.8029 32.5006 56.8029 31.3006 C 56.8029 30.1006 57.7029 29.1006 58.9029 29.1006 C 60.1029 29.1006 61.0029 30.1006 61.0029 31.3006 C 61.0029 32.5006 60.0029 33.5006 58.9029 33.5006 Z " fill="#000000" stroke="none" stroke-width="1" stroke-linecap="butt"/></g></g><g data-paper-data="{&quot;origPos&quot;:null}" stroke-linecap="butt"><path d="M 38.7029 59.3006 C 38.7029 64.8006 36.1029 69.3006 33.0029 69.3006 C 29.9029 69.3006 27.3029 64.8006 27.3029 59.3006 C 27.3029 53.8006 29.9029 49.3006 33.0029 49.3006 C 36.1029 49.3006 38.7029 53.8006 38.7029 59.3006 Z " stroke-width="1" fill="#241608" stroke="none"/><path d="M 26.7029 70.7006 C 26.7029 66.4006 28.9029 62.9006 31.6029 62.9006 C 34.3029 62.9006 36.5029 66.4006 36.5029 70.7006 C 36.5029 75.0006 34.3029 78.5006 31.6029 78.5006 C 28.9029 78.5006 26.7029 75.0006 26.7029 70.7006 Z " stroke-width="1" fill="#241608" stroke="none"/><path d="M 27.3029 81.8006 C 27.3029 78.5006 29.0029 75.8006 31.0029 75.8006 C 33.1029 75.8006 34.7029 78.5006 34.7029 81.8006 C 34.7029 85.1006 33.0029 87.8006 31.0029 87.8006 C 29.0029 87.8006 27.3029 85.1006 27.3029 81.8006 Z " stroke-width="1" fill="#241608" stroke="none"/><path d="M 28.6029 90.2006 C 28.6029 87.9006 29.8029 86.1006 31.2029 86.1006 C 32.6029 86.1006 33.8029 88.0006 33.8029 90.2006 C 33.8029 92.4006 32.6029 94.3006 31.2029 94.3006 C 29.7029 94.3006 28.6029 92.5006 28.6029 90.2006 Z " stroke-width="1" fill="#241608" stroke="none"/><path d="M 34.4029 97.6006 C 34.7029 100.2006 32.0029 102.5006 32.0029 102.5006 C 32.0029 102.5006 28.5029 100.6006 28.3029 98.0006 C 28.1029 95.4006 29.9029 93.2006 31.0029 93.1006 C 32.1029 93.0006 34.1029 95.0006 34.4029 97.6006 Z " stroke-width="1" fill="#241608" stroke="none"/></g></g></g></svg>