<svg xmlns="http://www.w3.org/2000/svg" xmlns:xlink="http://www.w3.org/1999/xlink" version="1.1" width="80.73590087890625" height="38.03010177612305" viewBox="-0.45089999586343765 -0.4204999879002571 80.73590087890625 38.03010177612305">
  <defs>
    <radialGradient id="grad_1" cx="0.4133" cy="0.2188" r="1.01556">
      <stop offset="0" stop-color="#CCCCCC" stop-opacity="1"/>
      <stop offset="1" stop-color="#666666" stop-opacity="1"/>
    </radialGradient>
    <radialGradient id="grad_2" cx="0.31370000000000003" cy="0.3599" r="0.8921899999999999">
      <stop offset="0" stop-color="#CCCCCC" stop-opacity="1"/>
      <stop offset="1" stop-color="#666666" stop-opacity="1"/>
    </radialGradient>
    <radialGradient id="grad_3" cx="0.2656" cy="0.39299999999999996" r="0.9547199999999999">
      <stop offset="0" stop-color="#CCCCCC" stop-opacity="1"/>
      <stop offset="1" stop-color="#666666" stop-opacity="1"/>
    </radialGradient>
    <radialGradient id="grad_4" cx="0.42590000000000006" cy="0.3497" r="0.84539">
      <stop offset="0" stop-color="#CCCCCC" stop-opacity="1"/>
      <stop offset="1" stop-color="#666666" stop-opacity="1"/>
    </radialGradient>
    <radialGradient id="grad_5" cx="0.4814" cy="0.3632" r="0.8278399999999999">
      <stop offset="0" stop-color="#CCCCCC" stop-opacity="1"/>
      <stop offset="1" stop-color="#666666" stop-opacity="1"/>
    </radialGradient>
    <radialGradient id="grad_6" cx="0.5581" cy="0.43060000000000004" r="0.7402199999999999">
      <stop offset="0" stop-color="#CCCCCC" stop-opacity="1"/>
      <stop offset="1" stop-color="#666666" stop-opacity="1"/>
    </radialGradient>
    <radialGradient id="grad_7" cx="0.34990000000000004" cy="0.35710000000000003" r="0.84513">
      <stop offset="0" stop-color="#00FFFF" stop-opacity="1"/>
      <stop offset="1" stop-color="#009999" stop-opacity="1"/>
    </radialGradient>
  <radialGradient id="grad_1-0.8573749661445618,0,0,0.8573749661445618,167.8,-48.85000000000001" cx="68.6761" cy="5.3807" r="11.1118" gradientUnits="userSpaceOnUse">
      <stop offset="0" stop-color="#CCCCCC" stop-opacity="1"/>
      <stop offset="1" stop-color="#666666" stop-opacity="1"/>
    </radialGradient><radialGradient id="grad_2-.8573749661445618,0,0,0.8573749661445618,-23.100000000000023,-48.85000000000001" cx="11.0294" cy="13.4066" r="32.146" gradientUnits="userSpaceOnUse">
      <stop offset="0" stop-color="#CCCCCC" stop-opacity="1"/>
      <stop offset="1" stop-color="#666666" stop-opacity="1"/>
    </radialGradient><radialGradient id="grad_3-.8573749661445618,0,0,0.8573749661445618,-23.100000000000023,-48.85000000000001" cx="44.115" cy="17.8934" r="33.1679" gradientUnits="userSpaceOnUse">
      <stop offset="0" stop-color="#CCCCCC" stop-opacity="1"/>
      <stop offset="1" stop-color="#666666" stop-opacity="1"/>
    </radialGradient><radialGradient id="grad_4-.8573749661445618,0,0,0.8573749661445618,-23.100000000000023,-48.85000000000001" cx="32.7564" cy="17.2474" r="5.8909" gradientUnits="userSpaceOnUse">
      <stop offset="0" stop-color="#CCCCCC" stop-opacity="1"/>
      <stop offset="1" stop-color="#666666" stop-opacity="1"/>
    </radialGradient><radialGradient id="grad_5-.8573749661445618,0,0,0.8573749661445618,-23.100000000000023,-48.85000000000001" cx="35.5042" cy="17.3766" r="5.7686" gradientUnits="userSpaceOnUse">
      <stop offset="0" stop-color="#CCCCCC" stop-opacity="1"/>
      <stop offset="1" stop-color="#666666" stop-opacity="1"/>
    </radialGradient><radialGradient id="grad_6-0.8573749661445618,0,0,0.8573749661445618,167.8,-48.85000000000001" cx="77.6995" cy="10.41" r="4.9327" gradientUnits="userSpaceOnUse">
      <stop offset="0" stop-color="#CCCCCC" stop-opacity="1"/>
      <stop offset="1" stop-color="#666666" stop-opacity="1"/>
    </radialGradient><radialGradient id="grad_7-.7842105627059937,0,0,0.8421052694320679,-186.65,-106.05000000000001" cx="17.3609" cy="16.6862" r="12.5604" gradientUnits="userSpaceOnUse">
      <stop offset="0" stop-color="#00FFFF" stop-opacity="1"/>
      <stop offset="1" stop-color="#009999" stop-opacity="1"/>
    </radialGradient></defs>
  <!-- Exported by Scratch - http://scratch.mit.edu/ -->
  <g id="ID0.8154793148860335">
    <path id="ID0.8694397993385792" fill="url(#grad_1-0.8573749661445618,0,0,0.8573749661445618,167.8,-48.85000000000001)" d="M 71.3256 2.2993 L 64.915 2.2993 L 64.915 4.3758 L 68.2553 4.3758 L 68.2553 7.1743 L 64.915 7.1743 L 64.915 9.5227 L 68.2553 9.5227 L 68.2553 12.3203 L 64.915 12.3203 L 64.915 16.3825 L 71.3256 16.3825 L 71.3256 2.2993 " stroke-width="0.8573749661445618"/>
    <path id="ID0.7121701026335359" fill="url(#grad_2-.8573749661445618,0,0,0.8573749661445618,-23.100000000000023,-48.85000000000001)" d="M 19.6324 22.3593 C 21.7964 22.3593 23.5506 20.6051 23.5506 18.4411 C 23.5506 16.2788 21.7964 14.5246 19.6324 14.5246 C 17.4684 14.5246 15.7142 16.2788 15.7142 18.4411 C 15.7142 20.6051 17.4684 22.3593 19.6324 22.3593 L 19.6324 22.3593 L 19.6324 22.3593 Z M 7.354 22.3593 C 9.518 22.3593 11.2722 20.6051 11.2722 18.4411 C 11.2722 16.2788 9.518 14.5246 7.354 14.5246 C 5.1899 14.5246 3.4358 16.2788 3.4358 18.4411 C 3.4358 20.6051 5.1899 22.3593 7.354 22.3593 L 7.354 22.3593 L 7.354 22.3593 Z M 26.0224 27.3295 C 26.0224 26.3118 25.7927 25.3489 25.3828 24.4899 C 23.8807 25.9525 21.8273 26.8554 19.5621 26.8554 C 17.1923 26.8554 15.054 25.8685 13.5365 24.2832 C 13.0624 25.1946 12.794 26.2303 12.794 27.3321 C 12.794 30.9853 15.7554 33.945 19.4078 33.945 C 23.0619 33.9433 26.0224 30.9828 26.0224 27.3295 L 26.0224 27.3295 L 26.0224 27.3295 Z M 25.4806 12.6246 C 25.8295 11.8196 26.0233 10.9305 26.0233 9.9968 C 26.0233 6.3435 23.0619 3.3821 19.4095 3.3821 C 15.7571 3.3821 12.7957 6.3435 12.7957 9.9968 C 12.7957 11.0891 13.0598 12.1171 13.425 12.8561 C 14.9494 11.2014 17.1349 10.1631 19.5638 10.1631 C 21.8762 10.1631 23.9699 11.1045 25.4806 12.6246 L 25.4806 12.6246 L 25.4806 12.6246 Z M 27.5837 15.4583 C 28.0999 17.1053 28.2808 19.8592 27.5837 21.7042 L 30.8075 18.6143 L 27.5837 15.4583 L 27.5837 15.4583 L 27.5837 15.4583 Z M 9.6294 9.9282 C 9.6294 4.489 14.0389 0.0795 19.4781 0.0795 C 24.9173 0.0795 29.3268 4.489 29.3268 9.9282 C 29.3268 11.8547 33.1558 16.6534 35.0515 18.9109 C 33.0649 20.5365 29.3268 25.3224 29.3268 27.2617 C 29.3268 32.7009 24.9173 37.1096 19.4781 37.1096 C 14.0389 37.1096 9.6294 32.6992 9.6294 27.2617 C 9.6294 26.5973 9.6954 25.9474 9.8215 25.3181 C 9.0507 25.5942 8.2199 25.7451 7.3548 25.7451 C 3.3192 25.7451 0.0491 22.4759 0.0491 18.4394 C 0.0491 14.4046 3.3192 11.1337 7.3548 11.1337 C 8.1976 11.1337 9.0078 11.2768 9.7623 11.5392 C 9.6749 11.0171 9.6294 10.4778 9.6294 9.9282 L 9.6294 9.9282 L 9.6294 9.9282 Z " stroke-width="0.8573749661445618"/>
    <path id="ID0.7789692673832178" fill="url(#grad_3-.8573749661445618,0,0,0.8573749661445618,-23.100000000000023,-48.85000000000001)" d="M 31.2147 14.9841 L 79.785 14.9841 L 79.785 22.3867 L 31.2147 22.3867 L 31.2147 14.9841 L 31.2147 14.9841 Z " stroke-width="0.8573749661445618"/>
    <path id="ID0.578137279022485" fill="url(#grad_4-.8573749661445618,0,0,0.8573749661445618,-23.100000000000023,-48.85000000000001)" d="M 31.7566 15.1642 C 31.7566 14.4671 32.2821 13.9004 32.9303 13.9004 L 32.9303 13.9004 C 33.5785 13.9004 34.1041 14.4663 34.1041 15.1642 L 34.1041 22.2067 C 34.1041 22.9046 33.5785 23.4713 32.9303 23.4713 L 32.9303 23.4713 C 32.2821 23.4713 31.7566 22.9054 31.7566 22.2067 L 31.7566 15.1642 L 31.7566 15.1642 L 31.7566 15.1642 L 31.7566 15.1642 Z " stroke-width="0.8573749661445618"/>
    <path id="ID0.029240664094686508" fill="url(#grad_5-.8573749661445618,0,0,0.8573749661445618,-23.100000000000023,-48.85000000000001)" d="M 34.3741 15.1642 C 34.3741 14.4671 34.8997 13.9004 35.5479 13.9004 L 35.5479 13.9004 C 36.1961 13.9004 36.7216 14.4663 36.7216 15.1642 L 36.7216 22.2067 C 36.7216 22.9046 36.1961 23.4713 35.5479 23.4713 L 35.5479 23.4713 C 34.8997 23.4713 34.3741 22.9054 34.3741 22.2067 L 34.3741 15.1642 L 34.3741 15.1642 L 34.3741 15.1642 L 34.3741 15.1642 Z " stroke-width="0.8573749661445618"/>
    <path id="ID0.5972161572426558" fill="url(#grad_6-0.8573749661445618,0,0,0.8573749661445618,167.8,-48.85000000000001)" d="M 79.7647 6.6779 L 76.0643 6.6779 L 76.0643 15.3451 L 79.7647 15.3451 L 79.7647 6.6779 " stroke-width="0.8573749661445618"/>
    <path id="ID0.38933458272367716" fill="url(#grad_7-.7842105627059937,0,0,0.8421052694320679,-186.65,-106.05000000000001)" stroke="none" d="M 19.5974 11.4237 C 21.6528 11.4237 23.5153 12.2489 24.8641 13.5828 C 26.2122 14.9167 27.0474 16.7593 27.0474 18.7921 C 27.0474 20.8249 26.2122 22.6675 24.8641 24.0014 C 23.5153 25.3353 21.6528 26.1605 19.5974 26.1605 C 17.542 26.1605 15.6795 25.3353 14.3306 24.0014 C 12.9826 22.6675 12.1474 20.8249 12.1474 18.7921 C 12.1474 16.7593 12.9826 14.9167 14.3306 13.5828 C 15.6795 12.2489 17.542 11.4237 19.5974 11.4237 Z " stroke-width="0.8136729968067352"/>
  </g>
</svg>