<svg xmlns="http://www.w3.org/2000/svg" xmlns:xlink="http://www.w3.org/1999/xlink" version="1.1" width="39.578399658203125" height="39.464698791503906" viewBox="0.3873000144958496 0.5170999765396118 39.578399658203125 39.464698791503906">
  <!-- Exported by Scratch - http://scratch.mit.edu/ -->
  <path id="ID0.6994185303337872" fill="#00FFFF" stroke="#000000" stroke-width="0.8527569463995485" d="M 0.8873 1.0171 L 39.4657 1.0171 L 39.4657 39.4818 L 0.8873 39.4818 L 0.8873 1.0171 Z "/>
  <g id="ID0.3520388356409967">
    <path id="ID0.7366980100050569" fill="#CCD8FF" stroke="#000000" stroke-width="0.3946924613518071" stroke-linecap="round" d="M 20.0009 7.3856 C 23.4194 7.3856 26.5169 8.7669 28.76 10.9984 C 31.0031 13.2299 32.3914 16.3117 32.3914 19.7127 C 32.3914 23.1137 31.0031 26.1954 28.76 28.4269 C 26.5169 30.6585 23.4194 32.0397 20.0009 32.0397 C 16.5825 32.0397 13.4849 30.6585 11.2418 28.4269 C 8.9987 26.1954 7.6105 23.1137 7.6105 19.7127 C 7.6105 16.3117 8.9987 13.2299 11.2418 10.9984 C 13.4849 8.7669 16.5825 7.3856 20.0009 7.3856 Z "/>
    <path id="ID0.3161723455414176" fill="#FF0000" stroke="#000000" stroke-width="0.32511337178096866" stroke-linecap="round" d="M 20.0938 22.2922 L 16.2575 27.494 L 19.9963 13.2703 L 23.9952 27.4127 L 20.0938 22.2922 Z "/>
    <text id="ID0.8532821531407535" fill="#000000" text-anchor="start" font-family="Sans Serif" font-size="22" transform="matrix(0.266824 0 0 0.266824 17.9161 5.83548)" stroke-width="1" alignment-baseline="text-before-edge" xml:space="preserve"><tspan x="0" style="white-space: pre" dy="1.13em">N</tspan></text>
    <text id="ID0.8532821531407535" fill="#000000" text-anchor="start" font-family="Sans Serif" font-size="22" transform="matrix(0.266824 0 0 0.266824 17.9554 24.4518)" stroke-width="1" alignment-baseline="text-before-edge" xml:space="preserve"><tspan x="0" style="white-space: pre" dy="1.13em">S</tspan></text>
    <text id="ID0.8532821531407535" fill="#000000" text-anchor="start" font-family="Sans Serif" font-size="22" transform="matrix(0.266824 0 0 0.266824 27.3814 14.8294)" stroke-width="1" alignment-baseline="text-before-edge" xml:space="preserve"><tspan x="0" style="white-space: pre" dy="1.13em">E</tspan></text>
    <text id="ID0.8532821531407535" fill="#000000" text-anchor="start" font-family="Sans Serif" font-size="22" transform="matrix(0.266824 0 0 0.266824 8.45087 15.0258)" stroke-width="1" alignment-baseline="text-before-edge" xml:space="preserve"><tspan x="0" style="white-space: pre" dy="1.13em">W</tspan></text>
  </g>
</svg>