<svg xmlns="http://www.w3.org/2000/svg" xmlns:xlink="http://www.w3.org/1999/xlink" version="1.1" width="9.34999942779541" height="5.549999713897705" viewBox="0.10000002384185791 -0.19999998807907104 9.34999942779541 5.549999713897705">
  <!-- Exported by Scratch - http://scratch.mit.edu/ -->
  <path id="ID0.7927857362665236" fill="#0033CC" stroke="none" d="M 4.775 2.1 C 5.927 2.1 6.971 2.254 7.726 2.503 C 8.482 2.752 8.95 3.096 8.95 3.475 C 8.95 3.854 8.482 4.198 7.726 4.447 C 6.971 4.696 5.927 4.85 4.775 4.85 C 3.623 4.85 2.579 4.696 1.824 4.447 C 1.068 4.198 0.6 3.854 0.6 3.475 C 0.6 3.096 1.068 2.752 1.824 2.503 C 2.579 2.254 3.623 2.1 4.775 2.1 Z " stroke-width="1"/>
  <path id="ID0.838638546410948" fill="#0033CC" stroke="none" d="M 3.65 0.3 L 6.05 0.3 L 6.05 3.1 L 3.65 3.1 L 3.65 0.3 Z " stroke-width="1"/>
</svg>