<svg version="1.1" xmlns="http://www.w3.org/2000/svg" xmlns:xlink="http://www.w3.org/1999/xlink" width="91.75481" height="252.9" viewBox="0,0,91.75481,252.9"><g transform="translate(-185.39706,72.51737)"><g data-paper-data="{&quot;isPaintingLayer&quot;:true}" fill-rule="nonzero" stroke-linejoin="miter" stroke-miterlimit="10" stroke-dasharray="" stroke-dashoffset="0" style="mix-blend-mode: normal"><g data-paper-data="{&quot;origPos&quot;:null}" stroke="none" stroke-width="1" stroke-linecap="butt"><path d="M240.09998,180.38263l0.9,-9.7l14.8,0.6l9.4,2.3l7.4,6.8z" fill="#ebebeb"/><path d="M240.79998,172.08263l-3.7,-50.4l-7.9,-62h30l0.7,62.3v50.1z" fill="#a4bdda"/></g><g stroke="none" stroke-width="1" stroke-linecap="butt"><path d="M202.19998,180.38263l0.9,-9.7l14.8,0.6l9.4,2.3l7.4,6.8z" fill="#ebebeb"/><path d="M203.69998,172.08263l0.5,-52.3l0.7,-60.1h29.1l-8,61.8l-4.7,50.6z" fill="#a4bdda"/></g><g data-paper-data="{&quot;origPos&quot;:null}" stroke="none" stroke-width="1" stroke-linecap="butt"><path d="M265.49998,39.13813c-3.2,0.4 -8.6,-1.3 -8.6,-1.3c0,0 -8.1,-46.9 -1.1,-48.6c12.6,-3.4 14.9,46.6 14.9,46.6c0,0 -2.1,2.9 -5.2,3.3z" fill="#d1a56b"/><path d="M251.09998,20.83813c0,0 -9,-32.9 2.5,-35.1c10.1,-2 21.6,29 21.6,29z" fill="#774444"/></g><g data-paper-data="{&quot;origPos&quot;:null}" fill="#d1a56b" stroke="none" stroke-width="1" stroke-linecap="butt"><g data-paper-data="{&quot;origPos&quot;:null}"><path d="M273.49998,62.93823l-8.2,2.4l-8.8,-27.1c0,0 3.1,-4.2 6.7,-3.9c2.7,0.2 7.3,1 7.3,1z" data-paper-data="{&quot;origPos&quot;:null}"/></g><path d="M270.01578,85.51103c-1.8835,0.2693 -1.1129,-8.7499 -2.8775,-8.9118c-1.3528,-0.141 0.2592,5.4528 -0.1748,6.3537c-0.5321,0.9203 -3.2735,-0.5779 -3.2735,-0.5779c0,0 -2.5351,-5.1062 -2.9591,-7.7746c-1.062,-5.9061 4.6028,-11.8129 4.6028,-11.8129l7.2768,-0.3129c0,0 4.395,6.2685 4.5396,10.6227c0.0867,4.0599 -3.0078,9.5621 -3.0078,9.5621c0,0 -2.3025,2.798 -4.1265,2.8516z" data-paper-data="{&quot;origPos&quot;:null,&quot;index&quot;:null,&quot;origRot&quot;:0}"/></g><path d="M202.49998,64.78263l-0.2,-76.3c0,0 15.2,-7.9 28.2,-8.1c13,-0.2 23.9334,4.0111 26.3334,5.3111c2.3,1.2 3.0666,81.2889 3.0666,81.2889c0,0 -17.1,2.8 -28.7,2.7c-11.8,-0.2 -28.7,-4.9 -28.7,-4.9z" data-paper-data="{&quot;origPos&quot;:null}" fill="#925353" stroke="none" stroke-width="1" stroke-linecap="butt"/><g data-paper-data="{&quot;origPos&quot;:null}" stroke="none" stroke-width="1" stroke-linecap="butt"><path d="M192.09998,41.08273c-2.5,-0.2 -6.3,-2.2 -6.3,-2.2c0,0 5.6,-50.6 19.9,-50.3c11.2,-0.3 -7.2,51.3 -7.2,51.3c0,0 -3.9,1.4 -6.4,1.2z" fill="#d1a56b"/><path d="M185.99998,15.18263c0,0 12.5,-28.3 19.5,-27.5c16.6,1.8 2.8,36.2 2.8,36.2z" fill="#774444"/></g><g fill="#d1a56b" stroke="none" stroke-width="1" stroke-linecap="butt"><path d="M187.79998,65.78263l-2.1,-27.6999c0,0 4,-1.2 6.3,-1.6c3.2,-0.6 6.7,3.3 6.7,3.3l-3.2,27.7z"/><path d="M190.29998,84.88273c0,0 -4.1,-4.8 -4.8,-8.8c-0.7,-4.3 2.4,-11.3 2.4,-11.3l7.2,-1.1c0,0 6.7,4.7 6.8,10.7c0.1,2.7 -1.4,8.2 -1.4,8.2c0,0 -2.4,2 -3.1,1.2c-0.7,-0.8 -0.1,-6.6 -1.4,-6.2c-1.7,0.5 0.8,9.2 -1.1,9.3c-1.8,0.3 -4.6,-2 -4.6,-2z"/></g><path d="M214.09998,-33.01737c0,9.3 -5.4,19.7 -7.5,17.5c-2.7,-2.7 -5.7,-11.2 -5.7,-20.3999c0,-9.2 4.6,-13.9001 7.7,-13.9001c3.1,0 5.3667,1.4334 5.7667,1.7334c1.3,0.9 -0.2667,5.7666 -0.2667,15.0666z" data-paper-data="{&quot;origPos&quot;:null}" fill="#1f1307" stroke="none" stroke-width="1" stroke-linecap="butt"/><path d="M251.99998,-48.71737c0,13.1 -10.1,23.8 -22.5,23.8c-12.4,0 -22.5,-10.7 -22.5,-23.8c0,-13.1 10.1,-23.8 22.5,-23.8c12.4,0 22.5,10.6 22.5,23.8z" fill="#1f1307" stroke="none" stroke-width="1" stroke-linecap="butt"/><g fill="#cca168" stroke="none" stroke-width="1" stroke-linecap="butt"><path d="M222.99998,-29.21737l15.2,3.4l-0.1,9.1c0,0 4.9,0.9 4.8,3.7c-0.1,4.5 -18.9,6.9 -22.8,0c-1.5,-3.4 2,-4.6 2,-4.6z" data-paper-data="{&quot;origPos&quot;:null}"/><path d="M218.39998,-40.31737c0.8,2.4 0.3,4.7 -1,5.1c-1.4,0.5 -3.2,-1 -4,-3.4c-0.8,-2.4 -0.3,-4.7 1,-5.1c1.4,-0.5 3.2,1.1 4,3.4z" data-paper-data="{&quot;origPos&quot;:null}"/><path d="M249.89998,-42.51737c0,12.8 -7.9,19.6 -14.7,19.9c-11.8,0.2 -19.4,-9.5 -19.4,-22.3c0,-12.8 2.2,-22.4 17.2,-23.1c11.4,-0.6 18.8625,11.5 16.8625,25.2z" data-paper-data="{&quot;origPos&quot;:null}"/></g><path d="M238.29998,-29.81727c0,0.7 -2,2.2 -3.7,2.2c-1.8,0 -3.5,-1.9 -3.5,-2.7c0,-0.7 2.2,0 4,0c1.7,0.1 3.2,-0.2 3.2,0.5z" fill="#000000" stroke="none" stroke-width="1" stroke-linecap="butt"/><path d="M238.09998,-36.31727c0,0 -1.2,0.7 -2.3,0.7c-1.3,0 -2.5,-0.5 -2.5,-0.5" fill="none" stroke="#000000" stroke-width="1.46" stroke-linecap="round"/><g><path d="M224.19998,-49.01747c0,0 2.9,-0.8 4.4,-0.8c1.7,-0.1 3.7,0.8 3.7,0.8" fill="none" stroke="#000000" stroke-width="1.46" stroke-linecap="round"/><g><path d="M224.09998,-45.61737c0,0 2.2,-1 4.5,-0.8c2.5,0.2 2.9,1.5 2.9,1.5" fill="none" stroke="#000000" stroke-width="1.46" stroke-linecap="round"/><path d="M227.39998,-43.91727c0,-1.2 0.9,-2.2 2.1,-2.2c1.2,0 2.1,1 2.1,2.2c0,1.2 -0.9,2.2 -2.1,2.2c-1.1,0 -2.1,-1 -2.1,-2.2z" fill="#000000" stroke="none" stroke-width="1" stroke-linecap="butt"/></g></g><g><path d="M239.59998,-49.11737c0,0 2.3,-0.8 4,-0.8c1.5,0.1 3.2,0.5 3.2,0.5" fill="none" stroke="#000000" stroke-width="1.46" stroke-linecap="round"/><g><path d="M239.59998,-45.01747c0,0 0.5,-1.3 2.9,-1.5c2.3,-0.2 4.5,0.3 4.5,0.3" fill="none" stroke="#000000" stroke-width="1.46" stroke-linecap="round"/><path d="M244.49998,-42.01737c-1.2,0 -2.1,-1 -2.1,-2.2c0,-1.2 0.9,-2.2 2.1,-2.2c1.2,0 2.1,1 2.1,2.2c0,1.2 -0.9,2.2 -2.1,2.2z" fill="#000000" stroke="none" stroke-width="1" stroke-linecap="butt"/></g></g><g data-paper-data="{&quot;origPos&quot;:null}" stroke="none" stroke-width="1" stroke-linecap="butt"><path d="M215.19998,-66.01727c5.4,-4 16.1,-7.2 19.2,-3c3.1,4.2 -4.3,13.4 -9.7,17.4c-5.4,4 -9.3,11.4 -12.5,7.2c-3,-4.1 -2.3,-17.5 3,-21.6z" fill="#1f1307"/><path d="M253.09998,-44.51737c-3.1,4.2 -4.6,-7.3 -8.3,-12.8c-3.9,-5.7999 -13,-7.7999 -9.9,-12c3.1,-4.2 10.2,-0.7 15.6,3.3c5.4,4.1 5.8,17.3 2.6,21.5z" fill="#2c1b0a"/></g></g></g></svg>