<svg xmlns="http://www.w3.org/2000/svg" xmlns:xlink="http://www.w3.org/1999/xlink" version="1.1" width="79.50608897209167" height="144.60529398918152" viewBox="0.23691093921661377 -0.14809805154800415 79.50608897209167 144.60529398918152">
  <defs>
    <radialGradient id="grad_1" cx="0.3264" cy="0.3873" r="0.87568">
      <stop offset="0" stop-color="#00FF55" stop-opacity="1"/>
      <stop offset="1" stop-color="#006622" stop-opacity="1"/>
    </radialGradient>
    <radialGradient id="grad_2" cx="0.0837" cy="0.2682" r="1.19119">
      <stop offset="0" stop-color="#FFFFFF" stop-opacity="1"/>
      <stop offset="1" stop-color="#666666" stop-opacity="1"/>
    </radialGradient>
    <radialGradient id="grad_3" cx="0.13" cy="0.36340000000000006" r="1.131">
      <stop offset="0" stop-color="#9B8579" stop-opacity="1"/>
      <stop offset="1" stop-color="#C2B59B" stop-opacity="1"/>
    </radialGradient>
    <radialGradient id="grad_4" cx="0.1032" cy="0.2602" r="1.16584">
      <stop offset="0" stop-color="#9B8579" stop-opacity="1"/>
      <stop offset="1" stop-color="#C2B59B" stop-opacity="1"/>
    </radialGradient>
    <radialGradient id="grad_5" cx="0.6685" cy="0.3483" r="0.86905">
      <stop offset="0" stop-color="#594A42" stop-opacity="1"/>
      <stop offset="1" stop-color="#726658" stop-opacity="1"/>
    </radialGradient>
    <radialGradient id="grad_6" cx="0.7161" cy="0.2862" r="0.93093">
      <stop offset="0" stop-color="#594A42" stop-opacity="1"/>
      <stop offset="1" stop-color="#726658" stop-opacity="1"/>
    </radialGradient>
    <radialGradient id="grad_7" cx="0.2658" cy="0.1962" r="1.04494">
      <stop offset="0" stop-color="#9B8579" stop-opacity="1"/>
      <stop offset="1" stop-color="#C2B59B" stop-opacity="1"/>
    </radialGradient>
    <radialGradient id="grad_8" cx="0.2658" cy="0.11689999999999999" r="1.1480299999999999">
      <stop offset="0" stop-color="#9B8579" stop-opacity="1"/>
      <stop offset="1" stop-color="#C2B59B" stop-opacity="1"/>
    </radialGradient>
    <radialGradient id="grad_9" cx="0.2805" cy="0.35960000000000003" r="0.93535">
      <stop offset="0" stop-color="#594A42" stop-opacity="1"/>
      <stop offset="1" stop-color="#726658" stop-opacity="1"/>
    </radialGradient>
    <radialGradient id="grad_10" cx="0.24100000000000002" cy="0.3429" r="0.9867">
      <stop offset="0" stop-color="#594A42" stop-opacity="1"/>
      <stop offset="1" stop-color="#726658" stop-opacity="1"/>
    </radialGradient>
    <radialGradient id="grad_11" cx="0.5779" cy="0.1263" r="1.13581">
      <stop offset="0" stop-color="#C2B59B" stop-opacity="1"/>
      <stop offset="1" stop-color="#9B8579" stop-opacity="1"/>
    </radialGradient>
    <radialGradient id="grad_12" cx="0.5831000000000001" cy="0.0297" r="1.26139">
      <stop offset="0" stop-color="#C2B59B" stop-opacity="1"/>
      <stop offset="1" stop-color="#9B8579" stop-opacity="1"/>
    </radialGradient>
    <radialGradient id="grad_13" cx="0.43170000000000003" cy="0.1654" r="1.08498">
      <stop offset="0" stop-color="#594A42" stop-opacity="1"/>
      <stop offset="1" stop-color="#726658" stop-opacity="1"/>
    </radialGradient>
    <radialGradient id="grad_14" cx="0.3812" cy="0.1437" r="1.1131900000000001">
      <stop offset="0" stop-color="#594A42" stop-opacity="1"/>
      <stop offset="1" stop-color="#726658" stop-opacity="1"/>
    </radialGradient>
    <radialGradient id="grad_15" cx="0.43189999999999995" cy="0.1096" r="1.1575199999999999">
      <stop offset="0" stop-color="#C2B59B" stop-opacity="1"/>
      <stop offset="1" stop-color="#9B8579" stop-opacity="1"/>
    </radialGradient>
    <radialGradient id="grad_16" cx="0.43189999999999995" cy="0.0371" r="1.25177">
      <stop offset="0" stop-color="#C2B59B" stop-opacity="1"/>
      <stop offset="1" stop-color="#9B8579" stop-opacity="1"/>
    </radialGradient>
    <radialGradient id="grad_17" cx="0.27899999999999997" cy="0.2477" r="0.97799">
      <stop offset="0" stop-color="#594A42" stop-opacity="1"/>
      <stop offset="1" stop-color="#726658" stop-opacity="1"/>
    </radialGradient>
    <radialGradient id="grad_18" cx="0.19879999999999998" cy="0.26030000000000003" r="1.04156">
      <stop offset="0" stop-color="#594A42" stop-opacity="1"/>
      <stop offset="1" stop-color="#726658" stop-opacity="1"/>
    </radialGradient>
    <radialGradient id="grad_19" cx="0.45" cy="0.29" r="0.9229999999999999">
      <stop offset="0" stop-color="#594A42" stop-opacity="1"/>
      <stop offset="1" stop-color="#726658" stop-opacity="1"/>
    </radialGradient>
    <radialGradient id="grad_20" cx="0.4462" cy="0.0152" r="1.28024">
      <stop offset="0" stop-color="#594A42" stop-opacity="1"/>
      <stop offset="1" stop-color="#726658" stop-opacity="1"/>
    </radialGradient>
    <radialGradient id="grad_21" cx="0.6492" cy="0.8679000000000001" r="1.1282699999999999">
      <stop offset="0" stop-color="#9B8579" stop-opacity="1"/>
      <stop offset="1" stop-color="#C2B59B" stop-opacity="1"/>
    </radialGradient>
    <radialGradient id="grad_22" cx="0.7054" cy="0.9190999999999999" r="1.19483">
      <stop offset="0" stop-color="#9B8579" stop-opacity="1"/>
      <stop offset="1" stop-color="#C2B59B" stop-opacity="1"/>
    </radialGradient>
    <radialGradient id="grad_23" cx="0.49450000000000005" cy="0.8093" r="1.05209">
      <stop offset="0" stop-color="#594A42" stop-opacity="1"/>
      <stop offset="1" stop-color="#726658" stop-opacity="1"/>
    </radialGradient>
    <radialGradient id="grad_24" cx="0.4753" cy="0.7256" r="0.94328">
      <stop offset="0" stop-color="#594A42" stop-opacity="1"/>
      <stop offset="1" stop-color="#726658" stop-opacity="1"/>
    </radialGradient>
    <radialGradient id="grad_25" cx="0.6581999999999999" cy="0.9367" r="1.21771">
      <stop offset="0" stop-color="#9B8579" stop-opacity="1"/>
      <stop offset="1" stop-color="#C2B59B" stop-opacity="1"/>
    </radialGradient>
    <radialGradient id="grad_26" cx="0.6373" cy="0.9704999999999999" r="1.2616500000000002">
      <stop offset="0" stop-color="#9B8579" stop-opacity="1"/>
      <stop offset="1" stop-color="#C2B59B" stop-opacity="1"/>
    </radialGradient>
    <radialGradient id="grad_27" cx="0.494" cy="0.4639" r="0.6969299999999999">
      <stop offset="0" stop-color="#594A42" stop-opacity="1"/>
      <stop offset="1" stop-color="#726658" stop-opacity="1"/>
    </radialGradient>
    <radialGradient id="grad_28" cx="0.45880000000000004" cy="0.095" r="1.1765">
      <stop offset="0" stop-color="#594A42" stop-opacity="1"/>
      <stop offset="1" stop-color="#726658" stop-opacity="1"/>
    </radialGradient>
  <radialGradient id="grad_1-.275246798992157,0,0,0.275246798992157,-24.5,98.05" cx="25.9778" cy="132.614" r="12.1756" gradientUnits="userSpaceOnUse">
      <stop offset="0" stop-color="#00FF55" stop-opacity="1"/>
      <stop offset="1" stop-color="#006622" stop-opacity="1"/>
    </radialGradient><radialGradient id="grad_3-.4577305316925049,0,0,0.4577305316925049,-78.05,-121.8" cx="67.4718" cy="82.8712" r="11.7499" gradientUnits="userSpaceOnUse">
      <stop offset="0" stop-color="#9B8579" stop-opacity="1"/>
      <stop offset="1" stop-color="#C2B59B" stop-opacity="1"/>
    </radialGradient><radialGradient id="grad_5-.4577305316925049,0,0,0.4577305316925049,-78.05,-121.8" cx="65.6831" cy="71.0472" r="16.4266" gradientUnits="userSpaceOnUse">
      <stop offset="0" stop-color="#594A42" stop-opacity="1"/>
      <stop offset="1" stop-color="#726658" stop-opacity="1"/>
    </radialGradient><radialGradient id="grad_7-.4577305316925049,0,0,0.4577305316925049,-78.05,-121.8" cx="22.9843" cy="83.7012" r="10.9987" gradientUnits="userSpaceOnUse">
      <stop offset="0" stop-color="#9B8579" stop-opacity="1"/>
      <stop offset="1" stop-color="#C2B59B" stop-opacity="1"/>
    </radialGradient><radialGradient id="grad_9-.4577305316925049,0,0,0.4577305316925049,-78.05,-121.8" cx="29.2315" cy="72.3896" r="17.7244" gradientUnits="userSpaceOnUse">
      <stop offset="0" stop-color="#594A42" stop-opacity="1"/>
      <stop offset="1" stop-color="#726658" stop-opacity="1"/>
    </radialGradient><radialGradient id="grad_11-.4577305316925049,0,0,0.4577305316925049,-78.15,-121.8" cx="33.571" cy="109.499" r="19.2774" gradientUnits="userSpaceOnUse">
      <stop offset="0" stop-color="#C2B59B" stop-opacity="1"/>
      <stop offset="1" stop-color="#9B8579" stop-opacity="1"/>
    </radialGradient><radialGradient id="grad_13-.4577305316925049,0,0,0.4577305316925049,-78.15,-121.8" cx="37.9801" cy="95.7813" r="19.5323" gradientUnits="userSpaceOnUse">
      <stop offset="0" stop-color="#594A42" stop-opacity="1"/>
      <stop offset="1" stop-color="#726658" stop-opacity="1"/>
    </radialGradient><radialGradient id="grad_15-.4577305316925049,0,0,0.4577305316925049,-78.15,-121.8" cx="64.2674" cy="109.3084" r="19.6456" gradientUnits="userSpaceOnUse">
      <stop offset="0" stop-color="#C2B59B" stop-opacity="1"/>
      <stop offset="1" stop-color="#9B8579" stop-opacity="1"/>
    </radialGradient><radialGradient id="grad_17-.4577305316925049,0,0,0.4577305316925049,-78.15,-121.8" cx="57.5183" cy="97.7872" r="17.606" gradientUnits="userSpaceOnUse">
      <stop offset="0" stop-color="#594A42" stop-opacity="1"/>
      <stop offset="1" stop-color="#726658" stop-opacity="1"/>
    </radialGradient><radialGradient id="grad_19-.4577305316925049,0,0,0.4577305316925049,-78.15,-121.8" cx="47.1726" cy="72.0144" r="30.5365" gradientUnits="userSpaceOnUse">
      <stop offset="0" stop-color="#594A42" stop-opacity="1"/>
      <stop offset="1" stop-color="#726658" stop-opacity="1"/>
    </radialGradient><radialGradient id="grad_21-.4577305316925049,0,0,0.4577305316925049,-78.15,-121.8" cx="71.7347" cy="35.7837" r="15.4829" gradientUnits="userSpaceOnUse">
      <stop offset="0" stop-color="#9B8579" stop-opacity="1"/>
      <stop offset="1" stop-color="#C2B59B" stop-opacity="1"/>
    </radialGradient><radialGradient id="grad_23-.4577305316925049,0,0,0.4577305316925049,-77.55,-121.55" cx="25.6172" cy="102.8836" r="40.1307" gradientUnits="userSpaceOnUse">
      <stop offset="0" stop-color="#594A42" stop-opacity="1"/>
      <stop offset="1" stop-color="#726658" stop-opacity="1"/>
    </radialGradient><radialGradient id="grad_25-.4577305316925049,0,0,0.4577305316925049,-78.15,-121.8" cx="15.4548" cy="42.5198" r="15.8025" gradientUnits="userSpaceOnUse">
      <stop offset="0" stop-color="#9B8579" stop-opacity="1"/>
      <stop offset="1" stop-color="#C2B59B" stop-opacity="1"/>
    </radialGradient><radialGradient id="grad_27-.4577305316925049,0,0,0.4577305316925049,-78.15,-121.8" cx="43.2877" cy="31.5563" r="43.6152" gradientUnits="userSpaceOnUse">
      <stop offset="0" stop-color="#594A42" stop-opacity="1"/>
      <stop offset="1" stop-color="#726658" stop-opacity="1"/>
    </radialGradient></defs>
  <!-- Exported by Scratch - http://scratch.mit.edu/ -->
  <g id="ID0.9854236710816622">
    <path id="ID0.3515064688399434" fill="#FFFFFF" stroke="#000000" stroke-width="0.7439915734681651" d="M 17.4898 123.9407 L 78.8943 123.9407 L 78.8943 143.6085 L 17.4898 143.6085 L 17.4898 123.9407 Z "/>
    <text id="ID0.9115317738614976" fill="#000000" text-anchor="start" font-family="Sans Serif" font-size="22" transform="matrix(0.612951 0 0 0.612951 37.6259 123.161)" stroke-width="1" alignment-baseline="text-before-edge" xml:space="preserve"><tspan x="0" style="white-space: pre" dy="1.13em">Joe</tspan></text>
    <path id="ID0.25286548025906086" fill="url(#grad_1-.275246798992157,0,0,0.275246798992157,-24.5,98.05)" stroke="url(#grad_2)" stroke-width="1.651480793952942" d="M 28.4506 127.3638 C 30.4156 127.3638 32.1959 128.1232 33.4854 129.3502 C 34.7747 130.5773 35.5726 132.2717 35.5726 134.1417 C 35.5726 136.0118 34.7747 137.7062 33.4854 138.9332 C 32.1959 140.1603 30.4156 140.9197 28.4506 140.9197 C 26.4856 140.9197 24.7053 140.1603 23.4158 138.9332 C 22.1265 137.7062 21.3286 136.0118 21.3286 134.1417 C 21.3286 132.2717 22.1265 130.5773 23.4158 129.3502 C 24.7053 128.1232 26.4856 127.3638 28.4506 127.3638 Z "/>
  </g>
  <g id="ID0.7185658742673695">
    <path id="Hand_1_" fill="url(#grad_3-.4577305316925049,0,0,0.4577305316925049,-78.05,-121.8)" stroke="url(#grad_4)" stroke-width="0.9154610633850098" d="M 66.6125 82.2251 C 66.6125 82.2251 65.1153 87.2378 66.9503 87.6804 C 68.7849 88.1239 68.8806 85.1487 68.8806 85.1487 C 68.8806 85.1487 72.2866 91.1491 75.8619 88.2562 C 79.4372 85.3643 73.9664 80.1567 73.9664 80.1567 C 73.9664 80.1567 72.19 79.0178 70.089 79.4417 C 67.9912 79.8642 66.6125 82.2251 66.6125 82.2251 L 66.6125 82.2251 L 66.6125 82.2251 L 66.6125 82.2251 L 66.6125 82.2251 L 66.6125 82.2251 L 66.6125 82.2251 L 66.6125 82.2251 L 66.6125 82.2251 L 66.6125 82.2251 L 66.6125 82.2251 L 66.6125 82.2251 L 66.6125 82.2251 Z "/>
    <path id="Arm_1_" fill="url(#grad_5-.4577305316925049,0,0,0.4577305316925049,-78.05,-121.8)" stroke="url(#grad_6)" stroke-width="0.9154610633850098" d="M 55.242 69.4618 C 56.6459 69.6934 61.9666 70.6153 64.1097 73.6107 C 66.8158 77.3952 67.7331 80.3517 67.734 80.3846 C 67.8136 82.8957 72.2747 84.1929 72.2747 79.8143 L 72.2747 79.8143 C 72.2522 79.6239 71.6613 75.112 67.4964 70.531 C 62.7557 65.3189 55.7034 64.6922 53.6528 64.8442 C 53.6528 64.8442 52.2467 65.041 52.4027 66.644 C 52.5561 68.2456 55.242 69.4618 55.242 69.4618 L 55.242 69.4618 L 55.242 69.4618 L 55.242 69.4618 L 55.242 69.4618 L 55.242 69.4618 L 55.242 69.4618 L 55.242 69.4618 L 55.242 69.4618 L 55.242 69.4618 L 55.242 69.4618 L 55.242 69.4618 L 55.242 69.4618 Z "/>
    <path id="Hand" fill="url(#grad_7-.4577305316925049,0,0,0.4577305316925049,-78.05,-121.8)" stroke="url(#grad_8)" stroke-width="0.9154610633850098" d="M 26.2608 81.7514 C 24.1246 81.5807 22.4965 82.9227 22.4965 82.9227 C 22.4965 82.9227 17.6839 88.7446 21.5778 91.1903 C 25.4717 93.6382 28.1398 87.2744 28.1398 87.2744 C 28.1398 87.2744 28.5879 90.2176 30.3575 89.5594 C 32.1271 88.9011 30.0444 84.1023 30.0444 84.1023 C 30.0444 84.1023 28.3948 81.9221 26.2608 81.7514 L 26.2608 81.7514 L 26.2608 81.7514 L 26.2608 81.7514 L 26.2608 81.7514 L 26.2608 81.7514 L 26.2608 81.7514 L 26.2608 81.7514 L 26.2608 81.7514 L 26.2608 81.7514 L 26.2608 81.7514 L 26.2608 81.7514 L 26.2608 81.7514 Z "/>
    <path id="Arm" fill="url(#grad_9-.4577305316925049,0,0,0.4577305316925049,-78.05,-121.8)" stroke="url(#grad_10)" stroke-width="0.9154610633850098" d="M 42.3011 66.9424 C 42.2654 65.3321 40.8455 65.3047 40.8455 65.3047 C 38.7917 65.3976 31.8639 66.8578 27.7768 72.5963 C 24.1859 77.6405 24.1356 82.1899 24.1361 82.3821 L 24.1361 82.3821 C 24.6569 86.7297 28.9317 84.912 28.7124 82.4092 C 28.7097 82.3762 29.2681 79.3309 31.506 75.2516 C 33.2769 72.0232 38.4502 70.4747 39.817 70.0779 C 39.8165 70.0774 42.3386 68.5504 42.3011 66.9424 L 42.3011 66.9424 L 42.3011 66.9424 L 42.3011 66.9424 L 42.3011 66.9424 L 42.3011 66.9424 L 42.3011 66.9424 L 42.3011 66.9424 L 42.3011 66.9424 L 42.3011 66.9424 L 42.3011 66.9424 L 42.3011 66.9424 L 42.3011 66.9424 Z "/>
    <path id="Foot_1_" fill="url(#grad_11-.4577305316925049,0,0,0.4577305316925049,-78.15,-121.8)" stroke="url(#grad_12)" stroke-width="0.9154610633850098" stroke-linecap="round" stroke-linejoin="round" d="M 42.4199 116.6231 C 42.4199 116.6231 41.0421 107.6617 30.978 108.0746 C 20.9134 108.4884 21.2787 114.4077 21.3954 115.9329 C 21.6719 119.5169 26.4973 119.4492 26.4973 119.4492 L 42.4895 117.7954 L 42.4199 116.6231 L 42.4199 116.6231 L 42.4199 116.6231 L 42.4199 116.6231 L 42.4199 116.6231 L 42.4199 116.6231 L 42.4199 116.6231 L 42.4199 116.6231 L 42.4199 116.6231 L 42.4199 116.6231 L 42.4199 116.6231 L 42.4199 116.6231 L 42.4199 116.6231 Z "/>
    <path id="Leg_1_" fill="url(#grad_13-.4577305316925049,0,0,0.4577305316925049,-78.15,-121.8)" stroke="url(#grad_14)" stroke-width="0.9154610633850098" d="M 38.5475 115.4715 C 37.1267 114.6027 36.1215 112.4052 35.6391 110.5884 C 34.9049 107.8224 34.4233 105.8688 35.1813 100.9056 C 35.6194 98.0402 37.6631 94.0817 37.6631 94.0817 C 37.6631 94.0817 39.148 90.754 41.5923 92.0503 C 42.8886 92.7452 41.5923 96.5631 41.5923 96.5631 C 41.5923 96.5631 40.5656 99.7411 40.2827 104.8343 C 40.0768 108.557 42.305 113.5312 41.742 115.547 C 41.5305 116.305 39.9697 116.3416 38.5475 115.4715 L 38.5475 115.4715 L 38.5475 115.4715 L 38.5475 115.4715 L 38.5475 115.4715 L 38.5475 115.4715 L 38.5475 115.4715 L 38.5475 115.4715 L 38.5475 115.4715 L 38.5475 115.4715 L 38.5475 115.4715 L 38.5475 115.4715 L 38.5475 115.4715 Z "/>
    <path id="Foot" fill="url(#grad_15-.4577305316925049,0,0,0.4577305316925049,-78.15,-121.8)" stroke="url(#grad_16)" stroke-width="0.9154610633850098" stroke-linecap="round" stroke-linejoin="round" d="M 55.142 117.7949 L 71.1338 119.4487 C 71.1338 119.4487 75.9587 119.5165 76.2356 115.9324 C 76.3528 114.4073 76.7176 108.4879 66.6526 108.0741 C 56.5885 107.6612 55.2107 116.6227 55.2107 116.6227 L 55.142 117.7949 L 55.142 117.7949 L 55.142 117.7949 L 55.142 117.7949 L 55.142 117.7949 L 55.142 117.7949 L 55.142 117.7949 L 55.142 117.7949 L 55.142 117.7949 L 55.142 117.7949 L 55.142 117.7949 L 55.142 117.7949 L 55.142 117.7949 Z "/>
    <path id="Leg" fill="url(#grad_17-.4577305316925049,0,0,0.4577305316925049,-78.15,-121.8)" stroke="url(#grad_18)" stroke-width="0.9154610633850098" d="M 55.8886 115.5475 C 55.3261 113.5316 57.5543 108.5575 57.3478 104.8347 C 57.065 99.7416 56.0383 96.5636 56.0383 96.5636 C 56.0383 96.5636 54.742 92.7452 56.0383 92.0508 C 58.4826 90.7545 59.9674 94.0822 59.9674 94.0822 C 59.9674 94.0822 62.0112 98.0407 62.4488 100.906 C 63.2068 105.8697 62.7257 107.8228 61.9911 110.5889 C 61.5086 112.4056 60.5034 114.6032 59.0826 115.4719 C 57.6614 116.3416 56.1001 116.305 55.8886 115.5475 L 55.8886 115.5475 L 55.8886 115.5475 L 55.8886 115.5475 L 55.8886 115.5475 L 55.8886 115.5475 L 55.8886 115.5475 L 55.8886 115.5475 L 55.8886 115.5475 L 55.8886 115.5475 L 55.8886 115.5475 L 55.8886 115.5475 L 55.8886 115.5475 Z "/>
    <path id="Body" fill="url(#grad_19-.4577305316925049,0,0,0.4577305316925049,-78.15,-121.8)" stroke="url(#grad_20)" stroke-width="0.9154610633850098" d="M 60.5597 93.1109 C 63.0709 89.6468 63.8261 84.7742 62.5815 80.0779 C 61.5278 76.1012 61.9572 77.6337 59.5134 72.1116 C 53.973 59.5913 42.4885 58.1027 38.0161 67.2793 C 36.2922 70.8162 35.9123 72.5112 35.9137 72.5309 L 35.9197 72.6201 L 35.8908 72.7094 C 35.8666 72.7817 33.468 79.9882 34.2352 86.2669 C 34.9497 92.1144 40.5249 98.0347 49.799 98.0347 C 50.2301 98.0347 50.6723 98.0223 51.1126 97.9972 C 55.1439 97.766 58.4098 96.0761 60.5597 93.1109 L 60.5597 93.1109 L 60.5597 93.1109 L 60.5597 93.1109 L 60.5597 93.1109 L 60.5597 93.1109 L 60.5597 93.1109 L 60.5597 93.1109 L 60.5597 93.1109 L 60.5597 93.1109 L 60.5597 93.1109 L 60.5597 93.1109 L 60.5597 93.1109 Z "/>
    <path id="Ear_1_" fill="url(#grad_21-.4577305316925049,0,0,0.4577305316925049,-78.15,-121.8)" stroke="url(#grad_22)" stroke-width="0.9154610633850098" d="M 68.4176 37.9054 C 68.4176 37.9054 71.0587 37.7328 73.0183 36.4251 C 75.9372 34.4765 76.5336 30.0603 73.7763 25.7714 C 71.0193 21.4829 68.6785 21.3452 66.5775 22.3796 C 65.0862 23.1138 64.7361 25.0477 64.6752 25.4753 L 64.6628 25.5247 C 67.1286 31.6738 67.4609 37.1469 67.4609 37.1469 C 67.4609 37.1469 68.1576 37.4719 68.4176 37.9054 L 68.4176 37.9054 L 68.4176 37.9054 L 68.4176 37.9054 L 68.4176 37.9054 L 68.4176 37.9054 L 68.4176 37.9054 L 68.4176 37.9054 L 68.4176 37.9054 L 68.4176 37.9054 L 68.4176 37.9054 L 68.4176 37.9054 L 68.4176 37.9054 Z "/>
    <path id="Tail" fill="url(#grad_23-.4577305316925049,0,0,0.4577305316925049,-77.55,-121.55)" stroke="url(#grad_24)" stroke-width="0.9154610633850098" d="M 36.0496 105.2564 C 32.2152 106.5779 27.4964 107.2805 21.7542 106.7413 C 8.7157 105.5182 2.5895 94.7098 1.1719 89.1653 C 0.7961 87.6956 1.6827 86.1983 3.152 85.8234 C 4.6218 85.449 6.1176 86.3347 6.493 87.8045 C 6.623 88.297 9.8752 100.1106 22.2673 101.2737 C 39.3965 102.8812 45.2367 91.454 45.4774 90.9665 C 46.1457 89.6121 47.7858 89.0427 49.1443 89.7032 C 50.5033 90.3628 51.0778 91.9891 50.425 93.3517 C 50.2053 93.8086 46.2789 101.7323 36.0496 105.2564 L 36.0496 105.2564 L 36.0496 105.2564 L 36.0496 105.2564 L 36.0496 105.2564 L 36.0496 105.2564 L 36.0496 105.2564 L 36.0496 105.2564 L 36.0496 105.2564 L 36.0496 105.2564 L 36.0496 105.2564 L 36.0496 105.2564 L 36.0496 105.2564 L 36.0496 105.2564 Z "/>
    <path id="Ear" fill="url(#grad_25-.4577305316925049,0,0,0.4577305316925049,-78.15,-121.8)" stroke="url(#grad_26)" stroke-width="0.9154610633850098" d="M 18.8486 30.9438 C 18.8486 30.9438 18.4879 28.6359 17.0451 28.2752 C 15.6024 27.9145 12.1401 27.6985 9.9759 32.3147 C 7.8118 36.9309 8.9886 41.2294 12.1401 42.7743 C 13.8657 43.6197 15.9447 43.5172 16.6515 43.4512 C 16.6515 43.4512 17.8832 42.1298 18.2014 41.8478 C 18.2014 41.8474 17.9144 37.1314 18.8729 31.2509 L 18.8486 30.9438 L 18.8486 30.9438 L 18.8486 30.9438 L 18.8486 30.9438 L 18.8486 30.9438 L 18.8486 30.9438 L 18.8486 30.9438 L 18.8486 30.9438 L 18.8486 30.9438 L 18.8486 30.9438 L 18.8486 30.9438 L 18.8486 30.9438 L 18.8486 30.9438 Z "/>
    <path id="Head_1_" fill="url(#grad_27-.4577305316925049,0,0,0.4577305316925049,-78.15,-121.8)" stroke="url(#grad_28)" stroke-width="0.9154610633850098" d="M 68.3901 37.3914 C 68.3947 37.4728 70.1931 38.7234 70.8413 39.6187 L 72.1458 42.9143 C 72.5802 44.012 73.0759 48.3412 72.6951 51.0162 C 72.344 53.4344 71.8144 56.2791 69.9716 58.0194 C 66.5968 61.2318 62.4488 63.985 57.8189 65.1371 C 49.7665 67.126 41.2522 67.5425 32.9412 66.991 C 28.7891 66.6889 25.1415 65.1504 21.681 63.2605 C 19.407 61.9774 17.5166 60.4825 16.1883 58.4543 C 14.9995 56.4046 14.5761 54.1077 14.4489 51.5426 C 14.372 48.9404 15.4293 46.5798 16.3027 43.8985 C 16.5567 43.1263 17.647 42.8191 17.8306 42.0387 L 18.7058 33.1647 C 19.0042 30.3547 19.0363 31.8945 19.3695 30.9676 C 20.6401 27.4408 21.8147 23.8494 23.4204 20.4626 C 24.3258 18.5763 25.3378 17.0658 26.6016 15.6336 C 27.6604 14.3048 28.9278 13.3431 30.3321 12.2464 C 31.6637 11.2316 32.8597 10.7121 34.5693 9.4872 L 34.5826 9.4332 C 34.5346 8.8473 34.514 7.6045 34.8893 5.7072 C 35.4294 2.9787 37.0809 0.7006 37.0809 0.7006 C 37.0809 0.7006 37.5158 3.0574 38.6944 4.7629 C 39.9074 6.5179 40.9716 7.0402 40.9716 7.0402 C 40.9716 7.0402 40.6022 5.6775 40.6617 4.5922 C 40.783 2.3887 41.8409 1.2952 41.8409 1.2952 C 41.8409 1.2952 43.1234 4.4311 44.7255 6.2391 C 46.4388 8.173 48.5137 9.4378 48.5137 9.4378 L 48.5439 9.446 C 66.9684 14.0279 66.7345 34.8345 68.3769 37.1469 L 68.3901 37.3914 Z "/>
    <path id="ID0.11469296598806977" fill="#66584C" stroke="#66584C" stroke-width="1.6973960399627686" d="M 48.3526 89.1297 C 48.9967 89.1297 49.5798 89.4149 50.0024 89.8757 C 50.4251 90.3366 50.6865 90.9731 50.6865 91.6758 C 50.6865 92.3785 50.4251 93.0151 50.0024 93.4759 C 49.5798 93.9367 48.9967 94.2219 48.3526 94.2219 C 47.7084 94.2219 47.1254 93.9367 46.7027 93.4759 C 46.2801 93.0151 46.0187 92.3785 46.0187 91.6758 C 46.0187 90.9731 46.2801 90.3366 46.7027 89.8757 C 47.1254 89.4149 47.7084 89.1297 48.3526 89.1297 Z "/>
  </g>
</svg>