<svg xmlns="http://www.w3.org/2000/svg" xmlns:xlink="http://www.w3.org/1999/xlink" version="1.1" width="80.84701204299927" height="38.1412091255188" viewBox="-0.4064555764198303 0.07394444942474365 80.84701204299927 38.1412091255188">
  <defs>
    <radialGradient id="grad_1" cx="0.3" cy="0.3161" r="0.91">
      <stop offset="0" stop-color="#CCCCCC" stop-opacity="1"/>
      <stop offset="1" stop-color="#666666" stop-opacity="1"/>
    </radialGradient>
    <radialGradient id="grad_2" cx="0.3308" cy="0.3738" r="0.8699600000000001">
      <stop offset="0" stop-color="#CCCCCC" stop-opacity="1"/>
      <stop offset="1" stop-color="#666666" stop-opacity="1"/>
    </radialGradient>
    <radialGradient id="grad_3" cx="0.25329999999999997" cy="0.341" r="0.97071">
      <stop offset="0" stop-color="#CCCCCC" stop-opacity="1"/>
      <stop offset="1" stop-color="#666666" stop-opacity="1"/>
    </radialGradient>
    <radialGradient id="grad_4" cx="0.4814" cy="0.32280000000000003" r="0.88036">
      <stop offset="0" stop-color="#CCCCCC" stop-opacity="1"/>
      <stop offset="1" stop-color="#666666" stop-opacity="1"/>
    </radialGradient>
    <radialGradient id="grad_5" cx="0.4814" cy="0.3901" r="0.7928700000000001">
      <stop offset="0" stop-color="#CCCCCC" stop-opacity="1"/>
      <stop offset="1" stop-color="#666666" stop-opacity="1"/>
    </radialGradient>
    <radialGradient id="grad_6" cx="0.6279" cy="0.3019" r="0.90753">
      <stop offset="0" stop-color="#CCCCCC" stop-opacity="1"/>
      <stop offset="1" stop-color="#666666" stop-opacity="1"/>
    </radialGradient>
    <radialGradient id="grad_7" cx="0.3148" cy="0.3153" r="0.8907599999999999">
      <stop offset="0" stop-color="#003FFF" stop-opacity="1"/>
      <stop offset="1" stop-color="#002699" stop-opacity="1"/>
    </radialGradient>
  <radialGradient id="grad_1-.8573749661445618,0,0,0.8573749661445618,-31.5,-48.3" cx="66.8976" cy="7.301" r="9.9568" gradientUnits="userSpaceOnUse">
      <stop offset="0" stop-color="#CCCCCC" stop-opacity="1"/>
      <stop offset="1" stop-color="#666666" stop-opacity="1"/>
    </radialGradient><radialGradient id="grad_2-.8573749661445618,0,0,0.8573749661445618,-23,-48.3" cx="11.7279" cy="14.4714" r="31.345" gradientUnits="userSpaceOnUse">
      <stop offset="0" stop-color="#CCCCCC" stop-opacity="1"/>
      <stop offset="1" stop-color="#666666" stop-opacity="1"/>
    </radialGradient><radialGradient id="grad_3-.8573749661445618,0,0,0.8573749661445618,-23,-48.3" cx="43.6176" cy="18.0584" r="33.7234" gradientUnits="userSpaceOnUse">
      <stop offset="0" stop-color="#CCCCCC" stop-opacity="1"/>
      <stop offset="1" stop-color="#666666" stop-opacity="1"/>
    </radialGradient><radialGradient id="grad_4-.8573749661445618,0,0,0.8573749661445618,-23,-48.3" cx="32.9866" cy="17.5399" r="6.1345" gradientUnits="userSpaceOnUse">
      <stop offset="0" stop-color="#CCCCCC" stop-opacity="1"/>
      <stop offset="1" stop-color="#666666" stop-opacity="1"/>
    </radialGradient><radialGradient id="grad_5-.8573749661445618,0,0,0.8573749661445618,-23,-48.3" cx="35.6042" cy="18.184" r="5.5249" gradientUnits="userSpaceOnUse">
      <stop offset="0" stop-color="#CCCCCC" stop-opacity="1"/>
      <stop offset="1" stop-color="#666666" stop-opacity="1"/>
    </radialGradient><radialGradient id="grad_6-0.8573749661445618,0,0,0.8573749661445618,167.90000000000003,-48.3" cx="77.5412" cy="9.8445" r="6.0476" gradientUnits="userSpaceOnUse">
      <stop offset="0" stop-color="#CCCCCC" stop-opacity="1"/>
      <stop offset="1" stop-color="#666666" stop-opacity="1"/>
    </radialGradient><radialGradient id="grad_7-.1111111640930176,0,0,1.1111111640930176,-225.5,-187.4" cx="16.9998" cy="16.5988" r="13.1163" gradientUnits="userSpaceOnUse">
      <stop offset="0" stop-color="#003FFF" stop-opacity="1"/>
      <stop offset="1" stop-color="#002699" stop-opacity="1"/>
    </radialGradient></defs>
  <!-- Exported by Scratch - http://scratch.mit.edu/ -->
  <g id="ID0.09836073406040668">
    <path id="ID0.8694397993385792" fill="url(#grad_1-.8573749661445618,0,0,0.8573749661445618,-31.5,-48.3)" d="M 64.9744 2.8493 L 71.385 2.8493 L 71.385 4.9258 L 68.0447 4.9258 L 68.0447 7.7243 L 71.385 7.7243 L 71.385 10.0727 L 68.0447 10.0727 L 68.0447 12.8703 L 71.385 12.8703 L 71.385 16.9325 L 64.9744 16.9325 L 64.9744 2.8493 " stroke-width="0.8573749661445618"/>
    <path id="ID0.7121701026335359" fill="url(#grad_2-.8573749661445618,0,0,0.8573749661445618,-23,-48.3)" d="M 19.7324 22.9093 C 21.8964 22.9093 23.6506 21.1551 23.6506 18.9911 C 23.6506 16.8288 21.8964 15.0746 19.7324 15.0746 C 17.5684 15.0746 15.8142 16.8288 15.8142 18.9911 C 15.8142 21.1551 17.5684 22.9093 19.7324 22.9093 L 19.7324 22.9093 L 19.7324 22.9093 Z M 7.454 22.9093 C 9.618 22.9093 11.3722 21.1551 11.3722 18.9911 C 11.3722 16.8288 9.618 15.0746 7.454 15.0746 C 5.2899 15.0746 3.5358 16.8288 3.5358 18.9911 C 3.5358 21.1551 5.2899 22.9093 7.454 22.9093 L 7.454 22.9093 L 7.454 22.9093 Z M 26.1224 27.8795 C 26.1224 26.8618 25.8927 25.8989 25.4828 25.0399 C 23.9807 26.5025 21.9273 27.4054 19.6621 27.4054 C 17.2923 27.4054 15.154 26.4185 13.6365 24.8332 C 13.1624 25.7446 12.894 26.7803 12.894 27.8821 C 12.894 31.5353 15.8554 34.495 19.5078 34.495 C 23.1619 34.4933 26.1224 31.5328 26.1224 27.8795 L 26.1224 27.8795 L 26.1224 27.8795 Z M 25.5806 13.1746 C 25.9295 12.3696 26.1233 11.4805 26.1233 10.5468 C 26.1233 6.8935 23.1619 3.9321 19.5095 3.9321 C 15.8571 3.9321 12.8957 6.8935 12.8957 10.5468 C 12.8957 11.6391 13.1598 12.6671 13.525 13.4061 C 15.0494 11.7514 17.2349 10.7131 19.6638 10.7131 C 21.9762 10.7131 24.0699 11.6545 25.5806 13.1746 L 25.5806 13.1746 L 25.5806 13.1746 Z M 27.6837 16.0083 C 28.1999 17.6553 28.3808 20.4092 27.6837 22.2542 L 30.9075 19.1643 L 27.6837 16.0083 L 27.6837 16.0083 L 27.6837 16.0083 Z M 9.7294 10.4782 C 9.7294 5.039 14.1389 0.6295 19.5781 0.6295 C 25.0173 0.6295 29.4268 5.039 29.4268 10.4782 C 29.4268 12.4047 33.2558 17.2034 35.1515 19.4609 C 33.1649 21.0865 29.4268 25.8724 29.4268 27.8117 C 29.4268 33.2509 25.0173 37.6596 19.5781 37.6596 C 14.1389 37.6596 9.7294 33.2492 9.7294 27.8117 C 9.7294 27.1473 9.7954 26.4974 9.9215 25.8681 C 9.1507 26.1442 8.3199 26.2951 7.4548 26.2951 C 3.4192 26.2951 0.1491 23.0259 0.1491 18.9894 C 0.1491 14.9546 3.4192 11.6837 7.4548 11.6837 C 8.2976 11.6837 9.1078 11.8268 9.8623 12.0892 C 9.7749 11.5671 9.7294 11.0278 9.7294 10.4782 L 9.7294 10.4782 L 9.7294 10.4782 Z " stroke-width="0.8573749661445618"/>
    <path id="ID0.7789692673832178" fill="url(#grad_3-.8573749661445618,0,0,0.8573749661445618,-23,-48.3)" d="M 31.3147 15.5341 L 79.885 15.5341 L 79.885 22.9367 L 31.3147 22.9367 L 31.3147 15.5341 L 31.3147 15.5341 Z " stroke-width="0.8573749661445618"/>
    <path id="ID0.578137279022485" fill="url(#grad_4-.8573749661445618,0,0,0.8573749661445618,-23,-48.3)" d="M 31.8566 15.7142 C 31.8566 15.0171 32.3821 14.4504 33.0303 14.4504 L 33.0303 14.4504 C 33.6785 14.4504 34.2041 15.0163 34.2041 15.7142 L 34.2041 22.7567 C 34.2041 23.4546 33.6785 24.0213 33.0303 24.0213 L 33.0303 24.0213 C 32.3821 24.0213 31.8566 23.4554 31.8566 22.7567 L 31.8566 15.7142 L 31.8566 15.7142 L 31.8566 15.7142 L 31.8566 15.7142 Z " stroke-width="0.8573749661445618"/>
    <path id="ID0.029240664094686508" fill="url(#grad_5-.8573749661445618,0,0,0.8573749661445618,-23,-48.3)" d="M 34.4741 15.7142 C 34.4741 15.0171 34.9997 14.4504 35.6479 14.4504 L 35.6479 14.4504 C 36.2961 14.4504 36.8216 15.0163 36.8216 15.7142 L 36.8216 22.7567 C 36.8216 23.4546 36.2961 24.0213 35.6479 24.0213 L 35.6479 24.0213 C 34.9997 24.0213 34.4741 23.4554 34.4741 22.7567 L 34.4741 15.7142 L 34.4741 15.7142 L 34.4741 15.7142 L 34.4741 15.7142 Z " stroke-width="0.8573749661445618"/>
    <path id="ID0.5972161572426558" fill="url(#grad_6-0.8573749661445618,0,0,0.8573749661445618,167.90000000000003,-48.3)" d="M 79.8647 7.2279 L 76.1643 7.2279 L 76.1643 15.8951 L 79.8647 15.8951 L 79.8647 7.2279 " stroke-width="0.8573749661445618"/>
    <path id="ID0.9351815329864621" fill="url(#grad_7-.1111111640930176,0,0,1.1111111640930176,-225.5,-187.4)" stroke="none" d="M 19.7778 12.0445 C 21.8467 12.0445 23.7222 12.8533 25.08 14.1611 C 26.4378 15.4689 27.2778 17.2745 27.2778 19.2667 C 27.2778 21.2589 26.4378 23.0645 25.08 24.3722 C 23.7222 25.68 21.8467 26.4889 19.7778 26.4889 C 17.7089 26.4889 15.8333 25.68 14.4756 24.3722 C 13.1178 23.0645 12.2778 21.2589 12.2778 19.2667 C 12.2778 17.2745 13.1178 15.4689 14.4756 14.1611 C 15.8333 12.8533 17.7089 12.0445 19.7778 12.0445 Z " stroke-width="1.1111111640930176"/>
  </g>
</svg>