<svg version="1.1" xmlns="http://www.w3.org/2000/svg" xmlns:xlink="http://www.w3.org/1999/xlink" width="91.75481" height="255.4" viewBox="0,0,91.75481,255.4"><g transform="translate(-185.39706,75.01739)"><g data-paper-data="{&quot;isPaintingLayer&quot;:true}" fill-rule="nonzero" stroke-linejoin="miter" stroke-miterlimit="10" stroke-dasharray="" stroke-dashoffset="0" style="mix-blend-mode: normal"><g data-paper-data="{&quot;origPos&quot;:null}" stroke="none" stroke-width="1" stroke-linecap="butt"><path d="M240.09998,180.38261l0.9,-9.7l14.8,0.6l9.4,2.3l7.4,6.8z" fill="#ebebeb"/><path d="M239.29998,172.08261l-3.7,-50.4l-6.4,-62h30l0.7,62.3v50.1z" fill="#80bdc4"/></g><path d="M250.99998,-49.31739c0,14.3 -9,26 -20.1,26c-6.9,0 -11.6,-2.2 -11.6,-2.2c0,0 -6.3,-9.3 -8.3,-17.1c-0.9,-3.5 -0.6,-6.2 -0.6,-9.9c0,-14.3 8,-18.9 19.2,-18.9c0,0 17,-1.9 20.9,6.6c1.7,3.8 0.5,1.2 0.5,15.5z" fill="#0a0500" stroke="none" stroke-width="1" stroke-linecap="butt"/><g stroke="none" stroke-width="1" stroke-linecap="butt"><g data-paper-data="{&quot;origPos&quot;:null}" fill="#9b6a2d"><path d="M265.49998,38.36031c-3.2,0.4 -8.6,-1.3 -8.6,-1.3c0,0 -8.1,-46.9 -1.1,-48.6c12.6,-3.4 14.9,46.6 14.9,46.6c0,0 -2.1,2.9 -5.2,3.3z" data-paper-data="{&quot;origPos&quot;:null}"/></g><path d="M251.09998,20.06041c0,0 -8.25,-31.9 3.25,-34.1c10.1,-2 20.85,28 20.85,28z" data-paper-data="{&quot;origPos&quot;:null}" fill="#9e5011"/></g><g data-paper-data="{&quot;origPos&quot;:null}" stroke="none" stroke-width="1" stroke-linecap="butt"><path d="M202.19998,180.38261l0.9,-9.7l14.8,0.6l9.4,2.3l7.4,6.8z" fill="#ebebeb"/><path d="M203.69998,172.08261l0.5,-52.3l0.7,-60.1h29.1l-6.6,61.8l-4.7,50.6z" fill="#80bdc4"/></g><g data-paper-data="{&quot;origPos&quot;:null}" fill="#9b6a2d" stroke="none" stroke-width="1" stroke-linecap="butt"><g data-paper-data="{&quot;origPos&quot;:null}"><path d="M273.49998,62.16041l-8.2,2.4l-8.8,-27.1c0,0 3.1,-4.2 6.7,-3.9c2.7,0.1999 7.3,1 7.3,1z" data-paper-data="{&quot;origPos&quot;:null}"/></g><path d="M270.01578,84.73321c-1.8835,0.2693 -1.1129,-8.7499 -2.8775,-8.9118c-1.3528,-0.1411 0.2592,5.4528 -0.1748,6.3537c-0.5321,0.9203 -3.2735,-0.5779 -3.2735,-0.5779c0,0 -2.5351,-5.1062 -2.9591,-7.7746c-1.062,-5.9061 4.6028,-11.8129 4.6028,-11.8129l7.2768,-0.3129c0,0 4.395,6.2685 4.5396,10.6227c0.0867,4.0599 -3.0078,9.562 -3.0078,9.562c0,0 -2.3025,2.798 -4.1265,2.8517z" data-paper-data="{&quot;origPos&quot;:null,&quot;index&quot;:null,&quot;origRot&quot;:0}"/></g><path d="M202.49998,64.78261l-0.2,-76.3c0,0 15.2,-7.9 28.2,-8.1c13,-0.2 23.9334,4.0111 26.3334,5.3111c2.3,1.2 3.0666,81.2889 3.0666,81.2889c0,0 -17.1,2.8 -28.7,2.7c-11.8,-0.2 -28.7,-4.9 -28.7,-4.9z" data-paper-data="{&quot;origPos&quot;:null}" fill="#ba5f14" stroke="none" stroke-width="1" stroke-linecap="butt"/><g data-paper-data="{&quot;origPos&quot;:null}" stroke="none" stroke-width="1" stroke-linecap="butt"><path d="M192.09998,41.08261c-2.5,-0.2 -6.3,-2.2 -6.3,-2.2c0,0 5.6,-50.6 19.9,-50.3c11.2,-0.3 -7.2,51.3 -7.2,51.3c0,0 -3.9,1.4 -6.4,1.2z" fill="#9b6a2d"/><path d="M185.99998,15.18261c0,0 11.4,-29 18.4,-28.2c16.6,1.8 3.9,36.9 3.9,36.9z" fill="#9e5011"/></g><g fill="#9b6a2d" stroke="none" stroke-width="1" stroke-linecap="butt"><path d="M187.79998,65.78261l-2.1,-27.7c0,0 4,-1.2 6.3,-1.6c3.2,-0.6 6.7,3.3 6.7,3.3l-3.2,27.7z"/><path d="M190.29998,84.88261c0,0 -4.1,-4.8 -4.8,-8.8c-0.7,-4.3 2.4,-11.3 2.4,-11.3l7.2,-1.1c0,0 6.7,4.7 6.8,10.7c0.1,2.7 -1.4,8.2 -1.4,8.2c0,0 -2.4,2 -3.1,1.2c-0.7,-0.8 -0.1,-6.6 -1.4,-6.2c-1.7,0.5 0.8,9.2 -1.1,9.3c-1.8,0.3 -4.6,-2 -4.6,-2z"/></g><g fill="#9b6a2d" stroke="none" stroke-width="1" stroke-linecap="butt"><path d="M222.99998,-29.21739l15.2,3.4l-0.1,9.1c0,0 4.9,0.9 4.8,3.7c-0.1,4.5 -18.9,6.9 -22.8,0c-1.5,-3.4 2,-4.6 2,-4.6z" data-paper-data="{&quot;origPos&quot;:null}"/><path d="M218.39998,-40.31739c0.8,2.4 0.3,4.7 -1,5.1c-1.4,0.5 -3.2,-1 -4,-3.4c-0.8,-2.4 -0.3,-4.7 1,-5.1c1.4,-0.5 3.2,1.1 4,3.4z" data-paper-data="{&quot;origPos&quot;:null}"/><path d="M249.89998,-42.51739c0,12.8 -7.9,19.6 -14.7,19.9c-11.8,0.2 -19.4,-9.5 -19.4,-22.3c0,-12.8 2.2,-22.4 17.2,-23.1c11.4,-0.6 18.8488,11.5 16.8488,25.2z" data-paper-data="{&quot;origPos&quot;:null}"/></g><path d="M238.29998,-29.81739c0,0.7 -2,2.2 -3.7,2.2c-1.8,0 -3.5,-1.9 -3.5,-2.7c0,-0.8 2.2,0 4,0c1.7,0.1 3.2,-0.2 3.2,0.5z" fill="#000000" stroke="none" stroke-width="1" stroke-linecap="butt"/><path d="M236.49998,-43.11739c0,0 2.3,4.1 2.2,5.6c0,0.7 -3.4,2.1 -3.4,2.1" fill="none" stroke="#000000" stroke-width="1.46" stroke-linecap="round"/><g><path d="M224.19998,-49.01739c0,0 2.9,-0.8 4.4,-0.8c1.7,-0.1 3.7,0.8 3.7,0.8" fill="none" stroke="#000000" stroke-width="1.46" stroke-linecap="round"/><g><path d="M224.09998,-45.81739c0,0 2.2,-0.8 4.5,-0.6c2.5,0.2 2.9,1.5 2.9,1.5" fill="none" stroke="#000000" stroke-width="1.46" stroke-linecap="round"/><path d="M227.39998,-43.91739c0,-1.2 0.9,-2.2 2.1,-2.2c1.2,0 2.1,1 2.1,2.2c0,1.2 -0.9,2.2 -2.1,2.2c-1.1,0 -2.1,-1 -2.1,-2.2z" fill="#000000" stroke="none" stroke-width="1" stroke-linecap="butt"/></g></g><g><path d="M239.59998,-49.11739c0,0 2.3,-0.8 4,-0.8c1.5,0.1 3.2,0.5 3.2,0.5" fill="none" stroke="#000000" stroke-width="1.46" stroke-linecap="round"/><g><path d="M239.59998,-45.01739c0,0 0.5,-1.3 2.9,-1.5c2.3,-0.2 3.8,0.5 3.8,0.5" fill="none" stroke="#000000" stroke-width="1.46" stroke-linecap="round"/><path d="M244.49998,-42.01739c-1.2,0 -2.1,-1 -2.1,-2.2c0,-1.2 0.9,-2.2 2.1,-2.2c1.2,0 2.1,1 2.1,2.2c0,1.2 -0.9,2.2 -2.1,2.2z" fill="#000000" stroke="none" stroke-width="1" stroke-linecap="butt"/></g></g><g fill="#0a0500" stroke="none" stroke-width="1" stroke-linecap="butt"><path d="M249.49998,-56.11739c-1.7,1.1 -6.8,-1.5 -8.9,-1.5c-3.7,0 -14.2,0.4 -17.9,-0.1c-4.1,-0.6 -5.1,-2.3 -5.1,-6.5c0,-3.9 6.1,-10.8 15,-10.8c8.9,0 13,5.1 17.2,7.3c0,0 2.5,6.2 1.6,8.4z"/><path d="M217.39998,-65.31739c7.3,0 4,3.1 4,9c0,5.9 -4.4,12.6 -6.1,12.6c-1.7,0 -3,-4.8 -3,-10.7c0,-6 3.4,-10.9 5.1,-10.9z"/></g></g></g></svg>