<svg xmlns="http://www.w3.org/2000/svg" xmlns:xlink="http://www.w3.org/1999/xlink" version="1.1" width="60.04751220444236" height="59.87431350449119" viewBox="-0.029107347624471314 0.4003926957677101 60.04751220444236 59.87431350449119">
  <defs>
    <radialGradient id="grad_1" cx="0.6114" cy="0.563" r="0.79482">
      <stop offset="0" stop-color="#0033CC" stop-opacity="1"/>
      <stop offset="1" stop-color="#99B2FF" stop-opacity="1"/>
    </radialGradient>
    <radialGradient id="grad_2" cx="0.6884999999999999" cy="0.0504" r="1.23448">
      <stop offset="0" stop-color="#0033CC" stop-opacity="1"/>
      <stop offset="1" stop-color="#99B2FF" stop-opacity="1"/>
    </radialGradient>
    <radialGradient id="grad_3" cx="0.4927" cy="0.3046" r="0.90402">
      <stop offset="0" stop-color="#00FFFF" stop-opacity="1"/>
      <stop offset="1" stop-color="#990072" stop-opacity="1"/>
    </radialGradient>
    <radialGradient id="grad_4" cx="0.4907" cy="0.31129999999999997" r="0.89531">
      <stop offset="0" stop-color="#0033CC" stop-opacity="1"/>
      <stop offset="1" stop-color="#FFFFFF" stop-opacity="1"/>
    </radialGradient>
  <radialGradient id="grad_1-.29024575714472256,0,0,0.31480503013232486,-40.585780490934845,-77.25169271379708" cx="33.2352" cy="15.7094" r="20.7453" gradientUnits="userSpaceOnUse">
      <stop offset="0" stop-color="#0033CC" stop-opacity="1"/>
      <stop offset="1" stop-color="#99B2FF" stop-opacity="1"/>
    </radialGradient><radialGradient id="grad_2-.39029352071804446,0,0,0.24160437370679944,-63.3074889048934,12.931748467683793" cx="34.7041" cy="14.0006" r="25.0011" gradientUnits="userSpaceOnUse">
      <stop offset="0" stop-color="#0033CC" stop-opacity="1"/>
      <stop offset="1" stop-color="#99B2FF" stop-opacity="1"/>
    </radialGradient><radialGradient id="grad_3-.43536864842176826,0,0,-0.4722075579031717,-75.43568035662175,171.08848057985307" cx="29.2236" cy="35.6124" r="35.3932" gradientUnits="userSpaceOnUse">
      <stop offset="0" stop-color="#00FFFF" stop-opacity="1"/>
      <stop offset="1" stop-color="#990072" stop-opacity="1"/>
    </radialGradient><radialGradient id="grad_4-.5423307078039663,0,0,-0.42629846930503845,-116.70137218534947,92.64956222772598" cx="29.2115" cy="37.7639" r="24.709" gradientUnits="userSpaceOnUse">
      <stop offset="0" stop-color="#0033CC" stop-opacity="1"/>
      <stop offset="1" stop-color="#FFFFFF" stop-opacity="1"/>
    </radialGradient></defs>
  <!-- Exported by Scratch - http://scratch.mit.edu/ -->
  <path id="ID0.6994185303337872" fill="#00FFFF" stroke="#000000" stroke-width="1.2986146519521287" d="M 0.6202 1.0497 L 59.3691 1.0497 L 59.3691 59.6254 L 0.6202 59.6254 L 0.6202 1.0497 Z "/>
  <g id="ID0.3448681733570993">
    <path id="ID0.21581144677475095" fill="url(#grad_1-.29024575714472256,0,0,0.31480503013232486,-40.585780490934845,-77.25169271379708)" stroke="none" d="M 29.436 9.9493 C 34.1406 9.9493 38.4034 10.5226 41.4902 11.4487 C 44.5773 12.3746 46.4879 13.6536 46.4879 15.0649 C 46.4879 16.4762 44.5773 17.7552 41.4902 18.681 C 38.4034 19.6072 34.1406 20.1805 29.436 20.1805 C 24.7314 20.1805 20.4686 19.6072 17.3818 18.681 C 14.2948 17.7552 12.3841 16.4762 12.3841 15.0649 C 12.3841 13.6536 14.2948 12.3746 17.3818 11.4487 C 20.4686 10.5226 24.7314 9.9493 29.436 9.9493 Z " stroke-width="0.3027745089477706"/>
    <path id="ID0.43453060975298285" fill="url(#grad_2-.39029352071804446,0,0,0.24160437370679944,-63.3074889048934,12.931748467683793)" stroke="none" stroke-linecap="round" d="M 21.0154 14.9129 L 22.4205 14.1398 L 26.0892 13.6082 L 29.5043 13.3425 L 33.4072 13.4512 L 36.3344 14.1398 L 38.0713 14.925 L 38.0713 23.6831 L 38.7738 25.0724 L 40.9009 25.8334 L 43.1841 26.4012 L 15.9611 26.4012 L 18.6346 25.7972 L 20.0592 25.1328 L 21.0154 23.5865 L 21.0154 14.9129 Z " stroke-width="0.32457796113471826"/>
    <path id="ID0.21581144677475095" fill="url(#grad_3-.43536864842176826,0,0,-0.4722075579031717,-75.43568035662175,171.08848057985307)" stroke="none" d="M 29.597 40.287 C 36.6539 40.287 43.0482 39.4271 47.6783 38.0379 C 52.3089 36.6491 55.1749 34.7305 55.1749 32.6136 C 55.1749 30.4967 52.3089 28.5781 47.6783 27.1894 C 43.0482 25.8001 36.6539 24.9402 29.597 24.9402 C 22.5401 24.9402 16.1459 25.8001 11.5157 27.1894 C 6.8851 28.5781 4.0191 30.4967 4.0191 32.6136 C 4.0191 34.7305 6.8851 36.6491 11.5157 38.0379 C 16.1459 39.4271 22.5401 40.287 29.597 40.287 Z " stroke-width="0.4541617761158872"/>
    <path id="ID0.2213963670656085" fill="url(#grad_4-.5423307078039663,0,0,-0.42629846930503845,-116.70137218534947,92.64956222772598)" stroke="none" d="M 29.5923 41.2806 C 35.2407 41.2806 40.3587 40.6475 44.065 39.6253 C 47.7713 38.6026 50.0653 37.1907 50.0653 35.6321 C 50.0653 34.0736 47.7713 32.6617 44.065 31.639 C 40.3587 30.6167 35.2407 29.9837 29.5923 29.9837 C 23.944 29.9837 18.826 30.6167 15.1197 31.639 C 11.4134 32.6617 9.1194 34.0736 9.1194 35.6321 C 9.1194 37.1907 11.4134 38.6026 15.1197 39.6253 C 18.826 40.6475 23.944 41.2806 29.5923 41.2806 Z " stroke-width="0.4877770912819553"/>
  </g>
</svg>