<svg version="1.1" xmlns="http://www.w3.org/2000/svg" xmlns:xlink="http://www.w3.org/1999/xlink" width="183" height="85"><g transform="translate(-123,-113)"><g data-paper-data="{&quot;isPaintingLayer&quot;:true}" fill="none" fill-rule="nonzero" stroke="none" stroke-width="0" stroke-linecap="butt" stroke-linejoin="miter" stroke-miterlimit="10" stroke-dasharray="" stroke-dashoffset="0" font-family="none" font-weight="none" font-size="none" text-anchor="none" style="mix-blend-mode: normal"><path d="M225,161.5c0,18.50154 -22.83348,33.5 -51,33.5c-28.16652,0 -51,-14.99846 -51,-33.5c0,-18.50154 22.83348,-33.5 51,-33.5c28.16652,0 51,14.99846 51,33.5z" data-paper-data="{&quot;origPos&quot;:null}" fill="#fff7e4"/><path d="M276,145c0,17.67311 -22.1619,32 -49.5,32c-27.3381,0 -49.5,-14.32689 -49.5,-32c0,-17.67311 22.1619,-32 49.5,-32c27.3381,0 49.5,14.32689 49.5,32z" data-paper-data="{&quot;origPos&quot;:null}" fill="#fff7e2"/><path d="M189,166c0,-17.67311 26.19134,-32 58.5,-32c32.30866,0 58.5,14.32689 58.5,32c0,17.67311 -26.19134,32 -58.5,32c-32.30866,0 -58.5,-14.32689 -58.5,-32z" data-paper-data="{&quot;origPos&quot;:null}" fill="#fff7e2"/></g></g></svg>