<svg version="1.1" xmlns="http://www.w3.org/2000/svg" xmlns:xlink="http://www.w3.org/1999/xlink" width="44.55" height="33.14483" viewBox="0,0,44.55,33.14483"><g transform="translate(-218.3,-163.42586)"><g data-paper-data="{&quot;isPaintingLayer&quot;:true}" fill-rule="nonzero" stroke-linejoin="miter" stroke-miterlimit="10" stroke-dasharray="" stroke-dashoffset="0" style="mix-blend-mode: normal"><path d="M227.5,179.7h-8.2" id="ID0.5386399938724935" fill="none" stroke="#000000" stroke-width="2" stroke-linecap="round"/><path d="M247.2,180h14.65" id="ID0.5386399938724935" fill="none" stroke="#000000" stroke-width="2" stroke-linecap="round"/><path d="M224.1099,165.1049l29.795,15.2921l-29.795,14.5325z" id="ID0.40214285673573613" fill="#ffffff" stroke="#000000" stroke-width="2.05103" stroke-linecap="round"/><path d="M252.15,175.95c1.131,0 2.156,0.459 2.898,1.202c0.743,0.742 1.202,1.767 1.202,2.898c0,1.131 -0.459,2.156 -1.202,2.898c-0.742,0.743 -1.767,1.202 -2.898,1.202c-1.131,0 -2.156,-0.459 -2.898,-1.202c-0.743,-0.742 -1.202,-1.767 -1.202,-2.898c0,-1.131 0.459,-2.156 1.202,-2.898c0.742,-0.743 1.767,-1.202 2.898,-1.202z" id="ID0.07793906098231673" fill="#ffffff" stroke="#000000" stroke-width="2" stroke-linecap="butt"/><text transform="translate(226.9145,181.93706) scale(0.32069,0.32069)" font-size="22" xml:space="preserve" id="ID0.8968104030936956" fill="#000000" fill-rule="nonzero" stroke="none" stroke-width="1" stroke-linecap="butt" stroke-linejoin="miter" stroke-miterlimit="10" stroke-dasharray="" stroke-dashoffset="0" font-family="Sans Serif" font-weight="400" text-anchor="start" style="mix-blend-mode: normal"><tspan x="0" dy="0">NOT</tspan></text></g></g></svg>