<svg xmlns="http://www.w3.org/2000/svg" xmlns:xlink="http://www.w3.org/1999/xlink" version="1.1" width="39.578399658203125" height="39.464698791503906" viewBox="0.3873000144958496 0.5170999765396118 39.578399658203125 39.464698791503906">
  <defs>
    <radialGradient id="grad_1" cx="0.8636" cy="0.9573" r="1.2444899999999999">
      <stop offset="0" stop-color="#000000" stop-opacity="1"/>
      <stop offset="1" stop-color="#E5E5E5" stop-opacity="1"/>
    </radialGradient>
    <radialGradient id="grad_2" cx="0.9677" cy="0.9786" r="1.27218">
      <stop offset="0" stop-color="#666666" stop-opacity="1"/>
      <stop offset="1" stop-color="#FFFFFF" stop-opacity="1"/>
    </radialGradient>
    <radialGradient id="grad_3" cx="0.3464" cy="0.3225" r="0.88075">
      <stop offset="0" stop-color="#FF9400" stop-opacity="1"/>
      <stop offset="1" stop-color="#995900" stop-opacity="1"/>
    </radialGradient>
    <radialGradient id="grad_4" cx="0.3464" cy="0.3225" r="0.88075">
      <stop offset="0" stop-color="#FF9400" stop-opacity="1"/>
      <stop offset="1" stop-color="#995900" stop-opacity="1"/>
    </radialGradient>
    <radialGradient id="grad_5" cx="0.3464" cy="0.3225" r="0.88075">
      <stop offset="0" stop-color="#FF9400" stop-opacity="1"/>
      <stop offset="1" stop-color="#995900" stop-opacity="1"/>
    </radialGradient>
    <radialGradient id="grad_6" cx="0.3464" cy="0.3225" r="0.88075">
      <stop offset="0" stop-color="#FF9400" stop-opacity="1"/>
      <stop offset="1" stop-color="#995900" stop-opacity="1"/>
    </radialGradient>
    <radialGradient id="grad_7" cx="0.3464" cy="0.3225" r="0.88075">
      <stop offset="0" stop-color="#FF9400" stop-opacity="1"/>
      <stop offset="1" stop-color="#995900" stop-opacity="1"/>
    </radialGradient>
    <radialGradient id="grad_8" cx="0.3215" cy="0.4019" r="0.88205">
      <stop offset="0" stop-color="#FF0000" stop-opacity="1"/>
      <stop offset="1" stop-color="#990000" stop-opacity="1"/>
    </radialGradient>
  <radialGradient id="grad_1-.16696687040425218,0,0,0.16696687040425218,-22.015682566165935,-9.581416380405443" cx="29.5607" cy="35.9567" r="35.2518" gradientUnits="userSpaceOnUse">
      <stop offset="0" stop-color="#000000" stop-opacity="1"/>
      <stop offset="1" stop-color="#E5E5E5" stop-opacity="1"/>
    </radialGradient><radialGradient id="grad_2-.16696687040425218,0,0,0.16696687040425218,-22.983469712734234,-11.162135386466986" cx="31.0522" cy="35.0606" r="36.2594" gradientUnits="userSpaceOnUse">
      <stop offset="0" stop-color="#666666" stop-opacity="1"/>
      <stop offset="1" stop-color="#FFFFFF" stop-opacity="1"/>
    </radialGradient><radialGradient id="grad_3-.08730294468016808,0,0,0.0878466798054447,4.050051248073572,3.1933739542961064" cx="14.1738" cy="11.7475" r="5.6314" gradientUnits="userSpaceOnUse">
      <stop offset="0" stop-color="#FF9400" stop-opacity="1"/>
      <stop offset="1" stop-color="#995900" stop-opacity="1"/>
    </radialGradient><radialGradient id="grad_4-.08730294468016808,0,0,0.0878466798054447,13.340807855129242,3.1933739542961064" cx="23.4645" cy="11.7475" r="5.6314" gradientUnits="userSpaceOnUse">
      <stop offset="0" stop-color="#FF9400" stop-opacity="1"/>
      <stop offset="1" stop-color="#995900" stop-opacity="1"/>
    </radialGradient><radialGradient id="grad_5-.08730294468016808,0,0,0.0878466798054447,4.017791676521284,11.25826684236526" cx="14.1415" cy="19.8124" r="5.6314" gradientUnits="userSpaceOnUse">
      <stop offset="0" stop-color="#FF9400" stop-opacity="1"/>
      <stop offset="1" stop-color="#995900" stop-opacity="1"/>
    </radialGradient><radialGradient id="grad_6-.08730294468016808,0,0,0.0878466798054447,13.276288712024694,11.25826684236526" cx="23.4" cy="19.8124" r="5.6314" gradientUnits="userSpaceOnUse">
      <stop offset="0" stop-color="#FF9400" stop-opacity="1"/>
      <stop offset="1" stop-color="#995900" stop-opacity="1"/>
    </radialGradient><radialGradient id="grad_7-.08730294468016808,0,0,0.0878466798054447,3.856493818759901,19.3554193019867" cx="13.9802" cy="27.9096" r="5.6314" gradientUnits="userSpaceOnUse">
      <stop offset="0" stop-color="#FF9400" stop-opacity="1"/>
      <stop offset="1" stop-color="#995900" stop-opacity="1"/>
    </radialGradient><radialGradient id="grad_8-.08730294468016808,0,0,0.0878466798054447,13.276288712024694,19.3554193019867" cx="23.2402" cy="28.4154" r="5.6397" gradientUnits="userSpaceOnUse">
      <stop offset="0" stop-color="#FF0000" stop-opacity="1"/>
      <stop offset="1" stop-color="#990000" stop-opacity="1"/>
    </radialGradient></defs>
  <!-- Exported by Scratch - http://scratch.mit.edu/ -->
  <path id="ID0.6994185303337872" fill="#00FFFF" stroke="#000000" stroke-width="0.8527569463995485" d="M 0.8873 1.0171 L 39.4657 1.0171 L 39.4657 39.4818 L 0.8873 39.4818 L 0.8873 1.0171 Z "/>
  <g id="ID0.4760909271426499">
    <path id="ID0.26244490034878254" fill="url(#grad_1-.16696687040425218,0,0,0.16696687040425218,-22.015682566165935,-9.581416380405443)" stroke="#000000" stroke-width="0.5009006112127565" d="M 9.1236 34.8067 L 29.0177 35.892 L 30.629 35.0405 L 31.9397 5.0282 L 32.7912 6.2804 L 31.6224 36.3345 L 29.9528 37.3363 L 11.5029 37.3363 L 9.8082 36.418 L 9.1069 35.124 L 9.1236 34.8067 Z "/>
    <path id="ID0.26244490034878254" fill="url(#grad_2-.16696687040425218,0,0,0.16696687040425218,-22.983469712734234,-11.162135386466986)" stroke="#000000" stroke-width="0.5009006112127565" d="M 7.9471 4.7832 L 8.9489 3.2805 L 30.9051 3.2805 L 31.8234 4.6997 L 30.6546 34.7538 L 28.985 35.7556 L 10.5351 35.7556 L 9.0324 34.8372 L 7.9471 4.7832 Z "/>
    <path id="ID0.7293737544678152" fill="url(#grad_3-.08730294468016808,0,0,0.0878466798054447,4.050051248073572,3.1933739542961064)" stroke="#000000" stroke-width="0.2627257027053304" d="M 15.1594 9.694 C 16.0306 9.7059 17.0757 9.8021 17.7086 10.4188 C 18.302 11.0194 18.3646 12.0369 18.3677 12.8785 C 18.3711 13.7415 18.288 14.7684 17.6824 15.3777 C 17.059 15.9883 16.0292 16.071 15.1594 16.0629 C 14.3193 16.0553 13.3135 15.9689 12.7018 15.3777 C 12.0962 14.7608 11.9522 13.7473 11.951 12.8785 C 11.9495 12.0277 12.0505 10.9989 12.6538 10.3836 C 13.2747 9.7838 14.2945 9.682 15.1594 9.694 Z "/>
    <path id="ID0.7293737544678152" fill="url(#grad_4-.08730294468016808,0,0,0.0878466798054447,13.340807855129242,3.1933739542961064)" stroke="#000000" stroke-width="0.2627257027053304" d="M 24.4501 9.694 C 25.3214 9.7059 26.3664 9.8021 26.9994 10.4188 C 27.5928 11.0194 27.6553 12.0369 27.6585 12.8785 C 27.6619 13.7415 27.5788 14.7684 26.9732 15.3777 C 26.3497 15.9883 25.3199 16.071 24.4501 16.0629 C 23.6101 16.0553 22.6043 15.9689 21.9925 15.3777 C 21.3869 14.7608 21.2429 13.7473 21.2417 12.8785 C 21.2402 12.0277 21.3412 10.9989 21.9445 10.3836 C 22.5655 9.7838 23.5853 9.682 24.4501 9.694 Z "/>
    <path id="ID0.7293737544678152" fill="url(#grad_5-.08730294468016808,0,0,0.0878466798054447,4.017791676521284,11.25826684236526)" stroke="#000000" stroke-width="0.2627257027053304" d="M 15.1271 17.7589 C 15.9984 17.7708 17.0434 17.867 17.6763 18.4837 C 18.2697 19.0843 18.3323 20.1018 18.3355 20.9434 C 18.3389 21.8064 18.2558 22.8333 17.6501 23.4426 C 17.0267 24.0532 15.9969 24.1359 15.1271 24.1278 C 14.2871 24.1202 13.2812 24.0338 12.6695 23.4426 C 12.0639 22.8257 11.9199 21.8122 11.9187 20.9434 C 11.9172 20.0926 12.0182 19.0638 12.6215 18.4485 C 13.2425 17.8487 14.2623 17.7469 15.1271 17.7589 Z "/>
    <path id="ID0.7293737544678152" fill="url(#grad_6-.08730294468016808,0,0,0.0878466798054447,13.276288712024694,11.25826684236526)" stroke="#000000" stroke-width="0.2627257027053304" d="M 24.3856 17.7589 C 25.2569 17.7708 26.3019 17.867 26.9348 18.4837 C 27.5282 19.0843 27.5908 20.1018 27.594 20.9434 C 27.5974 21.8064 27.5143 22.8333 26.9086 23.4426 C 26.2852 24.0532 25.2554 24.1359 24.3856 24.1278 C 23.5456 24.1202 22.5397 24.0338 21.928 23.4426 C 21.3224 22.8257 21.1784 21.8122 21.1772 20.9434 C 21.1757 20.0926 21.2767 19.0638 21.88 18.4485 C 22.501 17.8487 23.5208 17.7469 24.3856 17.7589 Z "/>
    <path id="ID0.7293737544678152" fill="url(#grad_7-.08730294468016808,0,0,0.0878466798054447,3.856493818759901,19.3554193019867)" stroke="#000000" stroke-width="0.2627257027053304" d="M 14.9658 25.8561 C 15.8371 25.8679 16.8821 25.9641 17.515 26.5808 C 18.1084 27.1814 18.171 28.1989 18.1742 29.0405 C 18.1776 29.9035 18.0945 30.9304 17.4888 31.5398 C 16.8654 32.1504 15.8356 32.233 14.9658 32.225 C 14.1258 32.2173 13.1199 32.131 12.5082 31.5398 C 11.9026 30.9228 11.7586 29.9093 11.7574 29.0405 C 11.7559 28.1897 11.8569 27.1609 12.4602 26.5457 C 13.0812 25.9459 14.101 25.844 14.9658 25.8561 Z "/>
    <path id="ID0.7293737544678152" fill="url(#grad_8-.08730294468016808,0,0,0.0878466798054447,13.276288712024694,19.3554193019867)" stroke="#000000" stroke-width="0.2627257027053304" d="M 24.3856 25.8561 C 25.2569 25.8679 26.3019 25.9641 26.9348 26.5808 C 27.5282 27.1814 27.5908 28.1989 27.594 29.0405 C 27.5974 29.9035 27.5143 30.9304 26.9086 31.5398 C 26.2852 32.1504 25.2554 32.233 24.3856 32.225 C 23.5456 32.2173 22.5397 32.131 21.928 31.5398 C 21.3224 30.9228 21.1784 29.9093 21.1772 29.0405 C 21.1757 28.1897 21.2767 27.1609 21.88 26.5457 C 22.501 25.9459 23.5208 25.844 24.3856 25.8561 Z "/>
    <g id="ID0.6030499343760312">
      <path id="ID0.21581144677475095" fill="#003FFF" stroke="#000000" stroke-width="0.07543679635840976" d="M 19.7734 4.8303 C 20.3595 4.8303 20.8905 4.9017 21.2751 5.0171 C 21.6596 5.1324 21.8977 5.2917 21.8977 5.4676 C 21.8977 5.6434 21.6596 5.8027 21.2751 5.918 C 20.8905 6.0334 20.3595 6.1048 19.7734 6.1048 C 19.1873 6.1048 18.6563 6.0334 18.2717 5.918 C 17.8872 5.8027 17.6491 5.6434 17.6491 5.4676 C 17.6491 5.2917 17.8872 5.1324 18.2717 5.0171 C 18.6563 4.9017 19.1873 4.8303 19.7734 4.8303 Z "/>
      <path id="ID0.43453060975298285" fill="#003FFF" stroke="none" stroke-linecap="round" d="M 18.7484 5.3435 L 18.9234 5.2472 L 19.3805 5.181 L 19.8059 5.1479 L 20.2921 5.1614 L 20.6568 5.2472 L 20.8731 5.345 L 20.8731 6.4361 L 20.9607 6.6091 L 21.2256 6.7039 L 21.5101 6.7747 L 18.1188 6.7747 L 18.4518 6.6994 L 18.6293 6.6166 L 18.7484 6.424 L 18.7484 5.3435 Z " stroke-width="0.04043457898173023"/>
      <path id="ID0.21581144677475095" fill="#003FFF" stroke="#000000" stroke-width="0.11315519444013487" d="M 19.8121 8.5126 C 20.6913 8.5126 21.4878 8.4055 22.0646 8.2324 C 22.6415 8.0594 22.9985 7.8204 22.9985 7.5567 C 22.9985 7.2929 22.6415 7.0539 22.0646 6.8809 C 21.4878 6.7079 20.6913 6.6007 19.8121 6.6007 C 18.933 6.6007 18.1364 6.7079 17.5596 6.8809 C 16.9828 7.0539 16.6257 7.2929 16.6257 7.5567 C 16.6257 7.8204 16.9828 8.0594 17.5596 8.2324 C 18.1364 8.4055 18.933 8.5126 19.8121 8.5126 Z "/>
      <path id="ID0.2213963670656085" fill="#003FFF" stroke="#000000" stroke-width="0.12153050128765971" d="M 19.8552 8.6333 C 20.5589 8.6333 21.1965 8.5544 21.6582 8.4271 C 22.1199 8.2997 22.4057 8.1238 22.4057 7.9296 C 22.4057 7.7355 22.1199 7.5596 21.6582 7.4322 C 21.1965 7.3048 20.5589 7.226 19.8552 7.226 C 19.1516 7.226 18.514 7.3048 18.0523 7.4322 C 17.5906 7.5596 17.3048 7.7355 17.3048 7.9296 C 17.3048 8.1238 17.5906 8.2997 18.0523 8.4271 C 18.514 8.5544 19.1516 8.6333 19.8552 8.6333 Z "/>
    </g>
  </g>
</svg>