<svg xmlns="http://www.w3.org/2000/svg" xmlns:xlink="http://www.w3.org/1999/xlink" version="1.1" width="55.82508674208614" height="56.04685416762325" viewBox="0.054358408131734315 -0.025910690150126037 55.82508674208614 56.04685416762325">
  <!-- Exported by Scratch - http://scratch.mit.edu/ -->
  <path id="ID0.7366980100050569" fill="#E5E5E5" stroke="#995900" stroke-width="3.3534833485314532" stroke-linecap="round" d="M 27.9669 1.8123 C 35.2052 1.8123 41.7639 4.7554 46.5135 9.5102 C 51.2631 14.265 54.2027 20.8315 54.2027 28.0782 C 54.2027 35.3249 51.2631 41.8914 46.5135 46.6462 C 41.7639 51.401 35.2052 54.3442 27.9669 54.3442 C 20.7286 54.3442 14.1698 51.401 9.4202 46.6462 C 4.6707 41.8914 1.7311 35.3249 1.7311 28.0782 C 1.7311 20.8315 4.6707 14.265 9.4202 9.5102 C 14.1698 4.7554 20.7286 1.8123 27.9669 1.8123 Z "/>
  <text id="ID0.8532821531407535" fill="#000000" text-anchor="start" font-family="Sans Serif" font-size="22" transform="matrix(0.519336 0 0 0.519336 24.0887 0.741993)" stroke-width="1" alignment-baseline="text-before-edge" xml:space="preserve"><tspan x="0" style="white-space: pre" dy="1.13em">N</tspan></text>
  <text id="ID0.8532821531407535" fill="#000000" text-anchor="start" font-family="Sans Serif" font-size="22" transform="matrix(0.519336 0 0 0.519336 24.1887 36.992)" stroke-width="1" alignment-baseline="text-before-edge" xml:space="preserve"><tspan x="0" style="white-space: pre" dy="1.13em">S</tspan></text>
  <text id="ID0.8532821531407535" fill="#000000" text-anchor="start" font-family="Sans Serif" font-size="22" transform="matrix(0.519336 0 0 0.519336 42.5887 19.442)" stroke-width="1" alignment-baseline="text-before-edge" xml:space="preserve"><tspan x="0" style="white-space: pre" dy="1.13em">E</tspan></text>
  <text id="ID0.8532821531407535" fill="#000000" text-anchor="start" font-family="Sans Serif" font-size="22" transform="matrix(0.519336 0 0 0.519336 4.53867 19.992)" stroke-width="1" alignment-baseline="text-before-edge" xml:space="preserve"><tspan x="0" style="white-space: pre" dy="1.13em">W</tspan></text>
</svg>