<svg xmlns="http://www.w3.org/2000/svg" xmlns:xlink="http://www.w3.org/1999/xlink" version="1.1" width="63.055983662605286" height="160.02847969532013" viewBox="2.664059579372406 -0.5942403972148895 63.055983662605286 160.02847969532013">
  <defs>
    <radialGradient id="grad_1" cx="0.3264" cy="0.3873" r="0.87568">
      <stop offset="0" stop-color="#00FF55" stop-opacity="1"/>
      <stop offset="1" stop-color="#006622" stop-opacity="1"/>
    </radialGradient>
    <radialGradient id="grad_2" cx="0.0837" cy="0.2682" r="1.19119">
      <stop offset="0" stop-color="#FFFFFF" stop-opacity="1"/>
      <stop offset="1" stop-color="#666666" stop-opacity="1"/>
    </radialGradient>
    <radialGradient id="grad_3" cx="0.4235" cy="0.3037" r="0.90519">
      <stop offset="0" stop-color="#FFCCF2" stop-opacity="1"/>
      <stop offset="1" stop-color="#CC99FF" stop-opacity="1"/>
    </radialGradient>
    <radialGradient id="grad_4" cx="0.5205" cy="0.2848" r="0.92976">
      <stop offset="0" stop-color="#FFCCF2" stop-opacity="1"/>
      <stop offset="1" stop-color="#CC99FF" stop-opacity="1"/>
    </radialGradient>
    <radialGradient id="grad_5" cx="0.8273999999999999" cy="0.15380000000000002" r="1.10006">
      <stop offset="0" stop-color="#FFD499" stop-opacity="1"/>
      <stop offset="1" stop-color="#FFE9CC" stop-opacity="1"/>
    </radialGradient>
    <radialGradient id="grad_6" cx="0.9470999999999999" cy="0.15380000000000002" r="1.23123">
      <stop offset="0" stop-color="#FFD499" stop-opacity="1"/>
      <stop offset="1" stop-color="#FFE9CC" stop-opacity="1"/>
    </radialGradient>
    <radialGradient id="grad_7" cx="0.4235" cy="0.3037" r="0.90519">
      <stop offset="0" stop-color="#FFCCF2" stop-opacity="1"/>
      <stop offset="1" stop-color="#CC99FF" stop-opacity="1"/>
    </radialGradient>
    <radialGradient id="grad_8" cx="0.5205" cy="0.2848" r="0.92976">
      <stop offset="0" stop-color="#FFCCF2" stop-opacity="1"/>
      <stop offset="1" stop-color="#CC99FF" stop-opacity="1"/>
    </radialGradient>
    <radialGradient id="grad_9" cx="0.2429" cy="0.138" r="1.1206">
      <stop offset="0" stop-color="#FFD499" stop-opacity="1"/>
      <stop offset="1" stop-color="#FFE9CC" stop-opacity="1"/>
    </radialGradient>
    <radialGradient id="grad_10" cx="0.0669" cy="0.138" r="1.21303">
      <stop offset="0" stop-color="#FFD499" stop-opacity="1"/>
      <stop offset="1" stop-color="#FFE9CC" stop-opacity="1"/>
    </radialGradient>
    <radialGradient id="grad_11" cx="0.09789999999999999" cy="0.1091" r="1.17273">
      <stop offset="0" stop-color="#FFCCF2" stop-opacity="1"/>
      <stop offset="1" stop-color="#CC99FF" stop-opacity="1"/>
    </radialGradient>
    <radialGradient id="grad_12" cx="0.08900000000000001" cy="0.0842" r="1.19054">
      <stop offset="0" stop-color="#FFCCF2" stop-opacity="1"/>
      <stop offset="1" stop-color="#CC99FF" stop-opacity="1"/>
    </radialGradient>
    <radialGradient id="grad_13" cx="0.8525" cy="0.48340000000000005" r="1.10825">
      <stop offset="0" stop-color="#00CCCC" stop-opacity="1"/>
      <stop offset="1" stop-color="#99FFFF" stop-opacity="1"/>
    </radialGradient>
    <radialGradient id="grad_14" cx="0.8787" cy="0.48340000000000005" r="1.14231">
      <stop offset="0" stop-color="#00CCCC" stop-opacity="1"/>
      <stop offset="1" stop-color="#99FFFF" stop-opacity="1"/>
    </radialGradient>
  <radialGradient id="grad_1-.275246798992157,0,0,0.275246798992157,-38.5,113.05" cx="11.9778" cy="147.614" r="12.1756" gradientUnits="userSpaceOnUse">
      <stop offset="0" stop-color="#00FF55" stop-opacity="1"/>
      <stop offset="1" stop-color="#006622" stop-opacity="1"/>
    </radialGradient><radialGradient id="grad_3-1,0,0,1,304.85,-93.45" cx="12.4975" cy="50.088" r="30.604" gradientUnits="userSpaceOnUse">
      <stop offset="0" stop-color="#FFCCF2" stop-opacity="1"/>
      <stop offset="1" stop-color="#CC99FF" stop-opacity="1"/>
    </radialGradient><radialGradient id="grad_5-.0393205881118774,0,0,0.5436568856239319,-233.6,-16.200000000000003" cx="29.7059" cy="107.9659" r="30.3598" gradientUnits="userSpaceOnUse">
      <stop offset="0" stop-color="#FFD499" stop-opacity="1"/>
      <stop offset="1" stop-color="#FFE9CC" stop-opacity="1"/>
    </radialGradient><radialGradient id="grad_7-,0,0,1,-236.35,-93.7" cx="56.0025" cy="49.838" r="30.604" gradientUnits="userSpaceOnUse">
      <stop offset="0" stop-color="#FFCCF2" stop-opacity="1"/>
      <stop offset="1" stop-color="#CC99FF" stop-opacity="1"/>
    </radialGradient><radialGradient id="grad_9-1.0393205881118774,0,0,0.5400999188423157,302.15000000000003,-15.200000000000003" cx="46.2554" cy="107.7657" r="30.8833" gradientUnits="userSpaceOnUse">
      <stop offset="0" stop-color="#FFD499" stop-opacity="1"/>
      <stop offset="1" stop-color="#FFE9CC" stop-opacity="1"/>
    </radialGradient><radialGradient id="grad_11-.8213985562324524,0,0,0.7093278765678406,-159.14999999999998,-74.45" cx="18.2746" cy="38.2832" r="46.3768" gradientUnits="userSpaceOnUse">
      <stop offset="0" stop-color="#FFCCF2" stop-opacity="1"/>
      <stop offset="1" stop-color="#CC99FF" stop-opacity="1"/>
    </radialGradient><radialGradient id="grad_13-.40114283561706543,0,0,0.3977662920951843,-62,-5.1000000000000085" cx="50.0144" cy="88.1213" r="42.7514" gradientUnits="userSpaceOnUse">
      <stop offset="0" stop-color="#00CCCC" stop-opacity="1"/>
      <stop offset="1" stop-color="#99FFFF" stop-opacity="1"/>
    </radialGradient></defs>
  <!-- Exported by Scratch - http://scratch.mit.edu/ -->
  <g id="ID0.9854236710816622">
    <path id="ID0.3515064688399434" fill="#FFFFFF" stroke="#000000" stroke-width="0.7439915734681651" d="M 3.4898 138.9407 L 64.8943 138.9407 L 64.8943 158.6085 L 3.4898 158.6085 L 3.4898 138.9407 Z "/>
    <text id="ID0.9115317738614976" fill="#000000" text-anchor="start" font-family="Sans Serif" font-size="22" transform="matrix(0.612951 0 0 0.612951 23.6259 138.161)" stroke-width="1" alignment-baseline="text-before-edge" xml:space="preserve"><tspan x="0" style="white-space: pre" dy="1.13em">Mary</tspan></text>
    <path id="ID0.25286548025906086" fill="url(#grad_1-.275246798992157,0,0,0.275246798992157,-38.5,113.05)" stroke="url(#grad_2)" stroke-width="1.651480793952942" d="M 14.4506 142.3638 C 16.4156 142.3638 18.1959 143.1232 19.4854 144.3502 C 20.7747 145.5773 21.5726 147.2717 21.5726 149.1417 C 21.5726 151.0118 20.7747 152.7062 19.4854 153.9332 C 18.1959 155.1603 16.4156 155.9197 14.4506 155.9197 C 12.4856 155.9197 10.7053 155.1603 9.4158 153.9332 C 8.1265 152.7062 7.3286 151.0118 7.3286 149.1417 C 7.3286 147.2717 8.1265 145.5773 9.4158 144.3502 C 10.7053 143.1232 12.4856 142.3638 14.4506 142.3638 Z "/>
  </g>
  <g id="ID0.6858774372376502">
    <g id="ID0.5111573790200055">
      <path id="ID0.7297148094512522" fill="#FFDEAE" d="M 6.7163 82.6283 C 6.3345 83.9283 5.4993 85.2663 5.779 86.6622 C 6.2817 89.1707 7.4683 91.5586 8.8814 93.6999 C 9.2225 94.2354 10.2392 94.2807 10.6638 93.8711 C 11.0151 93.5533 10.5942 92.8073 10.4357 92.2388 C 10.0289 90.8902 9.2785 89.676 8.9002 88.2863 C 8.6649 87.4605 8.316 86.5529 8.5475 85.7263 C 9.4446 84.3832 10.2504 84.6 10.9621 84.2222 C 12.6011 84.3391 12.7927 82.4225 12.9855 80.9508 C 13.1684 79.7829 13.9361 78.1415 13.0229 77.3394 C 11.8529 76.2931 9.7977 76.146 8.3125 76.8038 C 7.3511 77.2359 7.835 78.8862 7.5487 79.8819 C 7.2853 80.8003 6.9246 81.6669 6.7163 82.6283 Z " stroke-width="1.0583360625046387"/>
      <path id="ID0.7297148094512522" fill="#FFD499" d="M 12.4094 81.3662 C 11.3632 81.0546 10.4346 82.3014 9.5548 82.9867 C 8.8761 83.5171 8.0586 84.0575 7.8596 84.9495 C 7.6124 86.0724 8.1824 87.2306 8.4789 88.349 C 8.7918 89.5223 9.0691 90.7568 9.7758 91.7602 C 10.1669 92.3646 11.2784 93.2692 11.6152 92.9407 C 12.0199 92.5435 11.4761 91.1197 11.2148 90.2723 C 10.8181 88.9911 10.1964 87.7792 9.8085 86.4956 C 9.6513 85.982 9.4319 85.429 9.6281 84.9717 C 9.8389 84.543 10.3785 84.149 10.8388 84.2569 C 11.343 84.375 11.5652 85.0058 11.8517 85.4397 C 12.3344 86.1709 12.5643 87.0679 13.0845 87.767 C 13.4046 88.1985 13.7748 88.7884 14.2662 88.7461 C 14.7777 88.711 15.2397 88.0987 15.2115 87.6052 C 15.1426 86.4211 14.5429 85.3318 14.0707 84.2546 C 13.6269 83.2409 13.4914 81.6511 12.4094 81.3662 Z " stroke-width="1.0583360625046387"/>
    </g>
    <g id="ID0.716745896730572">
      <path id="ID0.7297148094512522" fill="#FFDEAE" d="M 62.0216 82.9696 C 62.3303 84.2889 63.0896 85.6714 62.7325 87.0496 C 62.0908 89.5261 60.7728 91.8442 59.2425 93.9033 C 58.8721 94.419 57.8545 94.4075 57.4534 93.9748 C 57.1204 93.638 57.5822 92.9166 57.7722 92.3579 C 58.2535 91.034 59.0705 89.8635 59.5257 88.4971 C 59.8066 87.6857 60.2055 86.799 60.0205 85.9607 C 59.1997 84.5697 58.3831 84.7413 57.6936 84.3243 C 56.0506 84.3497 55.9661 82.4254 55.8556 80.9452 C 55.7381 79.769 55.0632 78.0873 56.0197 77.3374 C 57.2461 76.3579 59.3064 76.3256 60.7526 77.0652 C 61.6884 77.5503 61.1133 79.1711 61.3436 80.1812 C 61.5554 81.1128 61.8673 81.9982 62.0216 82.9696 Z " stroke-width="1.058336015007963"/>
      <path id="ID0.7297148094512522" fill="#FFD499" d="M 56.4163 81.384 C 57.4782 81.1312 58.3359 82.4279 59.1762 83.1611 C 59.8242 83.7285 60.6102 84.3137 60.7592 85.2154 C 60.9435 86.3503 60.3097 87.4749 59.9514 88.5751 C 59.5735 89.7291 59.2278 90.9462 58.4663 91.9086 C 58.0421 92.4904 56.8819 93.3315 56.564 92.9848 C 56.182 92.5656 56.8044 91.1744 57.1125 90.3429 C 57.58 89.0858 58.2684 87.9104 58.7272 86.6505 C 58.9127 86.1463 59.1626 85.6065 58.9923 85.1389 C 58.8057 84.6992 58.2889 84.2757 57.8232 84.3578 C 57.3133 84.4476 57.0562 85.065 56.746 85.4823 C 56.2233 86.1854 55.9438 87.0682 55.3854 87.7372 C 55.0418 88.1502 54.6392 88.7186 54.151 88.6489 C 53.6422 88.5853 53.215 87.9482 53.2707 87.4571 C 53.4055 86.2786 54.065 85.2245 54.5966 84.1753 C 55.0962 83.1879 55.3201 81.6082 56.4163 81.384 Z " stroke-width="1.058336015007963"/>
    </g>
    <path id="ID0.33803378930315375" fill="url(#grad_3-1,0,0,1,304.85,-93.45)" stroke="url(#grad_4)" stroke-width="1" stroke-linecap="round" d="M 15.35 62.55 L 17.2 46.2 L 18.85 40.9 L 16.95 36.3 L 14.45 38.05 L 13.65 40.2 L 3.85 77.9 L 15.55 81.7 L 15.35 62.55 Z "/>
    <path id="ID0.47236768435686827" fill="url(#grad_5-.0393205881118774,0,0,0.5436568856239319,-233.6,-16.200000000000003)" stroke="url(#grad_6)" d="M 19.2147 104.1656 L 31.8944 104.1656 L 30.4394 128.8748 L 22.8004 128.5758 L 19.2147 104.1656 Z " stroke-width="0.8293823286517298"/>
    <path id="ID0.8654622961767018" fill="#000000" stroke="#000000" stroke-width="1.2493181250671537" d="M 26.4131 127.0393 C 27.8984 127.0393 29.2447 127.4032 30.2193 127.9914 C 31.1939 128.5797 31.7968 129.3917 31.7968 130.288 C 31.7968 131.1844 31.1939 131.9964 30.2193 132.5846 C 29.2447 133.1729 27.8984 133.5368 26.4131 133.5368 C 24.9278 133.5368 23.5816 133.1729 22.607 132.5846 C 21.6324 131.9964 21.0294 131.1844 21.0294 130.288 C 21.0294 129.3917 21.6324 128.5797 22.607 127.9914 C 23.5816 127.4032 24.9278 127.0393 26.4131 127.0393 Z "/>
    <path id="ID0.33803378930315375" fill="url(#grad_7-,0,0,1,-236.35,-93.7)" stroke="url(#grad_8)" stroke-width="1" stroke-linecap="round" d="M 53.15 62.3 L 51.3 45.95 L 49.65 40.65 L 51.55 36.05 L 54.05 37.8 L 54.85 39.95 L 64.65 77.65 L 52.95 81.45 L 53.15 62.3 Z "/>
    <path id="ID0.47236768435686827" fill="url(#grad_9-1.0393205881118774,0,0,0.5400999188423157,302.15000000000003,-15.200000000000003)" stroke="url(#grad_10)" d="M 49.3353 104.3781 L 36.6556 104.3781 L 38.1106 128.9257 L 45.7496 128.6286 L 49.3353 104.3781 Z " stroke-width="0.8282195382888208"/>
    <path id="ID0.8654622961767018" fill="#000000" stroke="#000000" stroke-width="1.2451160640667225" d="M 42.0369 127.169 C 40.5516 127.169 39.2053 127.5305 38.2307 128.1149 C 37.2561 128.6993 36.6532 129.506 36.6532 130.3965 C 36.6532 131.287 37.2561 132.0937 38.2307 132.6781 C 39.2053 133.2625 40.5516 133.624 42.0369 133.624 C 43.5222 133.624 44.8684 133.2625 45.843 132.6781 C 46.8176 132.0937 47.4206 131.287 47.4206 130.3965 C 47.4206 129.506 46.8176 128.6993 45.843 128.1149 C 44.8684 127.5305 43.5222 127.169 42.0369 127.169 Z "/>
    <path id="ID0.43916446389630437" fill="url(#grad_11-.8213985562324524,0,0,0.7093278765678406,-159.14999999999998,-74.45)" stroke="url(#grad_12)" stroke-width="1.5348235238339285" d="M 18.8881 34.9993 L 23.5701 34.1836 L 44.3515 34.0772 L 49.9781 34.9284 L 52.1958 36.3115 L 53.469 38.0849 L 54.2493 40.8512 L 47.4728 72.6291 L 20.9827 72.6291 L 14.3704 40.9222 L 14.9865 37.9785 L 16.5882 36.3115 L 18.8881 34.9993 Z "/>
    <path id="ID0.10144270723685622" fill="url(#grad_13-.40114283561706543,0,0,0.3977662920951843,-62,-5.1000000000000085)" stroke="url(#grad_14)" stroke-width="1.5978325261279456" stroke-linecap="round" d="M 21.3775 72.6235 L 47.5321 72.6235 L 56.5377 104.6835 L 12.3117 104.6835 L 21.3775 72.6235 Z "/>
    <g id="ID0.47322673816233873">
      <g id="ID0.3303819177672267">
        <path id="ID0.8757698251865804" fill="#FFFF00" stroke="#FFFF00" stroke-width="0.4608157329393802" d="M 35.8526 24.3352 L 33.159 24.3352 L 33.159 45.6264 L 35.8526 45.6264 L 35.8526 24.3352 Z "/>
        <path id="ID0.4806634387932718" fill="none" stroke="#CCCC00" stroke-width="0.8605594501895221" stroke-linecap="round" d="M 35.6228 25.4863 C 35.6228 25.4863 35.0924 27.5191 34.9369 28.5934 C 34.8753 29.0195 34.9464 29.4755 34.9826 29.91 C 35.0226 30.3903 35.0936 30.8632 35.1655 31.3319 C 35.2308 31.758 35.3436 32.1635 35.3942 32.5958 C 35.486 33.3774 35.6283 34.171 35.5923 34.9657 C 35.5747 35.3538 35.3323 35.6098 35.2418 35.9663 C 35.1482 36.3344 35.0628 36.7241 35.0436 37.1249 C 34.9863 38.3135 34.9512 39.5179 35.0131 40.706 C 35.0338 41.1052 35.2323 41.4227 35.2875 41.8119 C 35.3454 42.2222 35.3567 42.6535 35.3485 43.0758 C 35.3414 43.4318 35.3085 43.7921 35.2418 44.1291 C 35.1851 44.4151 34.9826 44.9191 34.9826 44.9191 "/>
        <path id="ID0.7519200313836336" fill="none" stroke="#FF9400" stroke-width="0.8605594501895221" stroke-linecap="round" d="M 34.3729 25.4336 C 34.3729 25.4336 33.7958 27.2489 33.7175 28.2511 C 33.6723 28.8257 33.9284 29.3534 34.0223 29.91 C 34.1062 30.4061 34.3159 30.9064 34.251 31.4109 C 34.1979 31.8227 33.79 31.877 33.7175 32.2799 C 33.6309 32.7607 33.7812 33.2826 33.8242 33.7808 C 33.8675 34.2826 33.9507 34.7761 33.9766 35.2817 C 34.0016 35.7709 33.9644 36.2654 33.9766 36.7562 C 34.0153 38.3093 34.1516 39.8628 34.129 41.4169 C 34.1159 42.3322 33.9964 43.2401 33.8699 44.1291 C 33.8324 44.3919 33.6413 44.8401 33.6413 44.8401 "/>
      </g>
      <g id="ID0.3303819177672267">
        <path id="ID0.8757698251865804" fill="#FFFF00" stroke="#FFFF00" stroke-width="0.40778786718094556" d="M 16.7974 16.9018 L 19.491 16.9018 L 19.491 34.8473 L 16.7974 34.8473 L 16.7974 16.9018 Z "/>
        <path id="ID0.4806634387932718" fill="none" stroke="#CCCC00" stroke-width="0.761531511251192" stroke-linecap="round" d="M 17.1272 17.8377 C 17.1272 17.8377 17.6576 19.5511 17.8131 20.4566 C 17.8747 20.8157 17.8036 21.2001 17.7674 21.5663 C 17.7274 21.9711 17.6564 22.3697 17.5845 22.7648 C 17.5192 23.1239 17.4064 23.4656 17.3558 23.8301 C 17.264 24.4888 17.1217 25.1577 17.1577 25.8275 C 17.1753 26.1546 17.4177 26.3704 17.5082 26.6709 C 17.6018 26.9811 17.6872 27.3096 17.7064 27.6474 C 17.7637 28.6492 17.7988 29.6644 17.7369 30.6658 C 17.7162 31.0022 17.5177 31.2699 17.4625 31.5979 C 17.4046 31.9437 17.3933 32.3072 17.4015 32.6632 C 17.4086 32.9633 17.4415 33.2669 17.5082 33.551 C 17.5649 33.792 17.7674 34.2168 17.7674 34.2168 "/>
        <path id="ID0.7519200313836336" fill="none" stroke="#995900" stroke-width="0.761531511251192" stroke-linecap="round" d="M 18.3771 17.7933 C 18.3771 17.7933 18.9542 19.3234 19.0325 20.1681 C 19.0777 20.6523 18.8216 21.0971 18.7277 21.5663 C 18.6438 21.9844 18.4341 22.4061 18.499 22.8313 C 18.5521 23.1784 18.96 23.2242 19.0325 23.5637 C 19.1191 23.969 18.9688 24.4089 18.9258 24.8288 C 18.8825 25.2518 18.7993 25.6677 18.7734 26.0938 C 18.7484 26.5062 18.7856 26.923 18.7734 27.3367 C 18.7347 28.6457 18.5984 29.9551 18.621 31.265 C 18.6341 32.0364 18.7536 32.8017 18.8801 33.551 C 18.9176 33.7725 19.1087 34.1502 19.1087 34.1502 "/>
      </g>
      <g id="ID0.3303819177672267">
        <path id="ID0.8757698251865804" fill="#FFFF00" stroke="#FFFF00" stroke-width="0.4103729034436091" d="M 19.6474 22.0459 L 22.341 22.0459 L 22.341 40.1586 L 19.6474 40.1586 L 19.6474 22.0459 Z "/>
        <path id="ID0.4806634387932718" fill="none" stroke="#FF9400" stroke-width="0.7663589718673522" stroke-linecap="round" d="M 20.0272 23.0176 C 20.0272 23.0176 20.5576 24.7469 20.7131 25.6608 C 20.7747 26.0233 20.7036 26.4113 20.6674 26.7809 C 20.6274 27.1894 20.5564 27.5918 20.4845 27.9905 C 20.4192 28.3529 20.3064 28.6979 20.2558 29.0657 C 20.164 29.7306 20.0217 30.4057 20.0577 31.0818 C 20.0753 31.412 20.3177 31.6297 20.4082 31.933 C 20.5018 32.2462 20.5872 32.5777 20.6064 32.9186 C 20.6637 33.9298 20.6988 34.9544 20.6369 35.9651 C 20.6162 36.3047 20.4177 36.5748 20.3625 36.9059 C 20.3046 37.2549 20.2933 37.6218 20.3015 37.9811 C 20.3086 38.284 20.3415 38.5904 20.4082 38.8772 C 20.4649 39.1204 20.6674 39.5492 20.6674 39.5492 "/>
        <path id="ID0.7519200313836336" fill="none" stroke="#CCCC00" stroke-width="0.7663589718673522" stroke-linecap="round" d="M 21.2771 22.9728 C 21.2771 22.9728 21.8542 24.5171 21.9325 25.3696 C 21.9777 25.8584 21.7216 26.3073 21.6277 26.7809 C 21.5438 27.2029 21.3341 27.6285 21.399 28.0577 C 21.4521 28.408 21.86 28.4542 21.9325 28.7969 C 22.0191 29.2059 21.8688 29.6499 21.8258 30.0737 C 21.7825 30.5007 21.6993 30.9205 21.6734 31.3506 C 21.6484 31.7668 21.6856 32.1875 21.6734 32.605 C 21.6347 33.9262 21.4984 35.2478 21.521 36.5699 C 21.5341 37.3486 21.6536 38.1209 21.7801 38.8772 C 21.8176 39.1007 22.0087 39.482 22.0087 39.482 "/>
      </g>
      <g id="ID0.3303819177672267">
        <path id="ID0.8757698251865804" fill="#FFFF00" stroke="#FFFF00" stroke-width="0.46081569646335424" d="M 22.2974 22.8852 L 24.991 22.8852 L 24.991 44.1764 L 22.2974 44.1764 L 22.2974 22.8852 Z "/>
        <path id="ID0.4806634387932718" fill="none" stroke="#995900" stroke-width="0.8605593772374719" stroke-linecap="round" d="M 22.6272 23.9863 C 22.6272 23.9863 23.1576 26.0191 23.3131 27.0934 C 23.3747 27.5195 23.3036 27.9755 23.2674 28.41 C 23.2274 28.8903 23.1564 29.3632 23.0845 29.8319 C 23.0192 30.258 22.9064 30.6635 22.8558 31.0958 C 22.764 31.8774 22.6217 32.671 22.6577 33.4657 C 22.6753 33.8538 22.9177 34.1098 23.0082 34.4663 C 23.1018 34.8344 23.1872 35.2241 23.2064 35.6249 C 23.2637 36.8135 23.2988 38.0179 23.2369 39.206 C 23.2162 39.6052 23.0177 39.9227 22.9625 40.3119 C 22.9046 40.7222 22.8933 41.1535 22.9015 41.5758 C 22.9086 41.9318 22.9415 42.2921 23.0082 42.6291 C 23.0649 42.9151 23.2674 43.419 23.2674 43.419 "/>
        <path id="ID0.7519200313836336" fill="none" stroke="#FF9400" stroke-width="0.8605593772374719" stroke-linecap="round" d="M 23.8771 23.9336 C 23.8771 23.9336 24.4542 25.7489 24.5325 26.7511 C 24.5777 27.3257 24.3216 27.8534 24.2277 28.41 C 24.1438 28.9061 23.9341 29.4064 23.999 29.9109 C 24.0521 30.3227 24.46 30.377 24.5325 30.7799 C 24.6191 31.2607 24.4688 31.7826 24.4258 32.2808 C 24.3825 32.7826 24.2993 33.2761 24.2734 33.7817 C 24.2484 34.2709 24.2856 34.7654 24.2734 35.2562 C 24.2347 36.8093 24.0984 38.3628 24.121 39.9169 C 24.1341 40.8322 24.2536 41.7401 24.3801 42.6291 C 24.4176 42.8919 24.6087 43.3401 24.6087 43.3401 "/>
      </g>
      <g id="ID0.3303819177672267">
        <path id="ID0.8757698251865804" fill="#FFFF00" stroke="#FFFF00" stroke-width="0.46081569646335424" d="M 25.1474 23.2352 L 27.841 23.2352 L 27.841 44.5264 L 25.1474 44.5264 L 25.1474 23.2352 Z "/>
        <path id="ID0.4806634387932718" fill="none" stroke="#CCCC00" stroke-width="0.8605593772374719" stroke-linecap="round" d="M 25.5272 24.3363 C 25.5272 24.3363 26.0576 26.3691 26.2131 27.4434 C 26.2747 27.8695 26.2036 28.3255 26.1674 28.76 C 26.1274 29.2403 26.0564 29.7132 25.9845 30.1819 C 25.9192 30.608 25.8064 31.0135 25.7558 31.4458 C 25.664 32.2274 25.5217 33.021 25.5577 33.8157 C 25.5753 34.2038 25.8177 34.4598 25.9082 34.8163 C 26.0018 35.1844 26.0872 35.5741 26.1064 35.9749 C 26.1637 37.1635 26.1988 38.3679 26.1369 39.556 C 26.1162 39.9552 25.9177 40.2727 25.8625 40.6619 C 25.8046 41.0722 25.7933 41.5035 25.8015 41.9258 C 25.8086 42.2818 25.8415 42.6421 25.9082 42.9791 C 25.9649 43.2651 26.1674 43.769 26.1674 43.769 "/>
        <path id="ID0.7519200313836336" fill="none" stroke="#995900" stroke-width="0.8605593772374719" stroke-linecap="round" d="M 26.7771 24.2836 C 26.7771 24.2836 27.3542 26.0989 27.4325 27.1011 C 27.4777 27.6757 27.2216 28.2034 27.1277 28.76 C 27.0438 29.2561 26.8341 29.7564 26.899 30.2609 C 26.9521 30.6727 27.36 30.727 27.4325 31.1299 C 27.5191 31.6107 27.3688 32.1326 27.3258 32.6308 C 27.2825 33.1326 27.1993 33.6261 27.1734 34.1317 C 27.1484 34.6209 27.1856 35.1154 27.1734 35.6062 C 27.1347 37.1593 26.9984 38.7128 27.021 40.2669 C 27.0341 41.1822 27.1536 42.0901 27.2801 42.9791 C 27.3176 43.2419 27.5087 43.6901 27.5087 43.6901 "/>
      </g>
      <g id="ID0.3303819177672267">
        <path id="ID0.8757698251865804" fill="#FFFF00" stroke="#FFFF00" stroke-width="0.46081569646335424" d="M 28.2474 23.7352 L 30.941 23.7352 L 30.941 45.0264 L 28.2474 45.0264 L 28.2474 23.7352 Z "/>
        <path id="ID0.4806634387932718" fill="none" stroke="#FF9400" stroke-width="0.8605593772374719" stroke-linecap="round" d="M 28.5772 24.8863 C 28.5772 24.8863 29.1076 26.9191 29.2631 27.9934 C 29.3247 28.4195 29.2536 28.8755 29.2174 29.31 C 29.1774 29.7903 29.1064 30.2632 29.0345 30.7319 C 28.9692 31.158 28.8564 31.5635 28.8058 31.9958 C 28.714 32.7774 28.5717 33.571 28.6077 34.3657 C 28.6253 34.7538 28.8677 35.0098 28.9582 35.3663 C 29.0518 35.7344 29.1372 36.1241 29.1564 36.5249 C 29.2137 37.7135 29.2488 38.9179 29.1869 40.106 C 29.1662 40.5052 28.9677 40.8227 28.9125 41.2119 C 28.8546 41.6222 28.8433 42.0535 28.8515 42.4758 C 28.8586 42.8318 28.8915 43.1921 28.9582 43.5291 C 29.0149 43.8151 29.2174 44.319 29.2174 44.319 "/>
        <path id="ID0.7519200313836336" fill="none" stroke="#CCCC00" stroke-width="0.8605593772374719" stroke-linecap="round" d="M 29.8271 24.8336 C 29.8271 24.8336 30.4042 26.6489 30.4825 27.6511 C 30.5277 28.2257 30.2716 28.7534 30.1777 29.31 C 30.0938 29.8061 29.8841 30.3064 29.949 30.8109 C 30.0021 31.2227 30.41 31.277 30.4825 31.6799 C 30.5691 32.1607 30.4188 32.6826 30.3758 33.1808 C 30.3325 33.6826 30.2493 34.1761 30.2234 34.6817 C 30.1984 35.1709 30.2356 35.6654 30.2234 36.1562 C 30.1847 37.7093 30.0484 39.2628 30.071 40.8169 C 30.0841 41.7322 30.2036 42.6401 30.3301 43.5291 C 30.3676 43.7919 30.5587 44.2401 30.5587 44.2401 "/>
      </g>
      <g id="ID0.3303819177672267">
        <path id="ID0.8757698251865804" fill="#FFFF00" stroke="#FFFF00" stroke-width="0.46081569646335424" d="M 30.9974 23.9352 L 33.691 23.9352 L 33.691 45.2264 L 30.9974 45.2264 L 30.9974 23.9352 Z "/>
        <path id="ID0.4806634387932718" fill="none" stroke="#995900" stroke-width="0.8605593772374719" stroke-linecap="round" d="M 31.3272 25.0863 C 31.3272 25.0863 31.8576 27.1191 32.0131 28.1934 C 32.0747 28.6195 32.0036 29.0755 31.9674 29.51 C 31.9274 29.9903 31.8564 30.4632 31.7845 30.9319 C 31.7192 31.358 31.6064 31.7635 31.5558 32.1958 C 31.464 32.9774 31.3217 33.771 31.3577 34.5657 C 31.3753 34.9538 31.6177 35.2098 31.7082 35.5663 C 31.8018 35.9344 31.8872 36.3241 31.9064 36.7249 C 31.9637 37.9135 31.9988 39.1179 31.9369 40.306 C 31.9162 40.7052 31.7177 41.0227 31.6625 41.4119 C 31.6046 41.8222 31.5933 42.2535 31.6015 42.6758 C 31.6086 43.0318 31.6415 43.3921 31.7082 43.7291 C 31.7649 44.0151 31.9674 44.519 31.9674 44.519 "/>
        <path id="ID0.7519200313836336" fill="none" stroke="#CCCC00" stroke-width="0.8605593772374719" stroke-linecap="round" d="M 32.5771 25.0336 C 32.5771 25.0336 33.1542 26.8489 33.2325 27.8511 C 33.2777 28.4257 33.0216 28.9534 32.9277 29.51 C 32.8438 30.0061 32.6341 30.5064 32.699 31.0109 C 32.7521 31.4227 33.16 31.477 33.2325 31.8799 C 33.3191 32.3607 33.1688 32.8826 33.1258 33.3808 C 33.0825 33.8826 32.9993 34.3761 32.9734 34.8817 C 32.9484 35.3709 32.9856 35.8654 32.9734 36.3562 C 32.9347 37.9093 32.7984 39.4628 32.821 41.0169 C 32.8341 41.9322 32.9536 42.8401 33.0801 43.7291 C 33.1176 43.9919 33.3087 44.4401 33.3087 44.4401 "/>
      </g>
      <g id="ID0.3303819177672267">
        <path id="ID0.8757698251865804" fill="#FFFF00" stroke="#FFFF00" stroke-width="0.36239277661776254" d="M 18.3974 8.8947 L 21.091 8.8947 L 21.091 23.8075 L 18.3974 23.8075 L 18.3974 8.8947 Z "/>
        <path id="ID0.4806634387932718" fill="none" stroke="#995900" stroke-width="0.6767575903372622" stroke-linecap="round" d="M 18.7272 9.7324 C 18.7272 9.7324 19.2576 11.1562 19.4131 11.9087 C 19.4747 12.2071 19.4036 12.5265 19.3674 12.8308 C 19.3274 13.1673 19.2564 13.4985 19.1845 13.8268 C 19.1192 14.1252 19.0064 14.4092 18.9558 14.7121 C 18.864 15.2595 18.7217 15.8153 18.7577 16.372 C 18.7753 16.6438 19.0177 16.8231 19.1082 17.0728 C 19.2018 17.3306 19.2872 17.6036 19.3064 17.8843 C 19.3637 18.7168 19.3988 19.5604 19.3369 20.3926 C 19.3162 20.6722 19.1177 20.8946 19.0625 21.1672 C 19.0046 21.4546 18.9933 21.7567 19.0015 22.0525 C 19.0086 22.3018 19.0415 22.5541 19.1082 22.7902 C 19.1649 22.9905 19.3674 23.3435 19.3674 23.3435 "/>
        <path id="ID0.7519200313836336" fill="none" stroke="#CCCC00" stroke-width="0.6767575903372622" stroke-linecap="round" d="M 19.9771 9.6955 C 19.9771 9.6955 20.5542 10.967 20.6325 11.6689 C 20.6777 12.0714 20.4216 12.441 20.3277 12.8308 C 20.2438 13.1783 20.0341 13.5287 20.099 13.8821 C 20.1521 14.1706 20.56 14.2086 20.6325 14.4907 C 20.7191 14.8275 20.5688 15.1931 20.5258 15.542 C 20.4825 15.8935 20.3993 16.2392 20.3734 16.5933 C 20.3484 16.9359 20.3856 17.2823 20.3734 17.6261 C 20.3347 18.7139 20.1984 19.802 20.221 20.8906 C 20.2341 21.5316 20.3536 22.1676 20.4801 22.7902 C 20.5176 22.9743 20.7087 23.2882 20.7087 23.2882 "/>
      </g>
      <g id="ID0.3303819177672267">
        <path id="ID0.8757698251865804" fill="#FFFF00" stroke="#FFFF00" stroke-width="0.43629330802437355" d="M 20.3974 12.3255 L 23.091 12.3255 L 23.091 32.0895 L 20.3974 32.0895 L 20.3974 12.3255 Z "/>
        <path id="ID0.4806634387932718" fill="none" stroke="#FF9400" stroke-width="0.8147645605504814" stroke-linecap="round" d="M 20.7772 13.4501 C 20.7772 13.4501 21.3076 15.3371 21.4631 16.3344 C 21.5247 16.7299 21.4536 17.1532 21.4174 17.5565 C 21.3774 18.0024 21.3064 18.4414 21.2345 18.8765 C 21.1692 19.2719 21.0564 19.6484 21.0058 20.0497 C 20.914 20.7752 20.7717 21.5119 20.8077 22.2496 C 20.8253 22.6099 21.0677 22.8474 21.1582 23.1784 C 21.2518 23.5201 21.3372 23.8819 21.3564 24.2539 C 21.4137 25.3572 21.4488 26.4753 21.3869 27.5781 C 21.3662 27.9487 21.1677 28.2435 21.1125 28.6047 C 21.0546 28.9855 21.0433 29.3859 21.0515 29.778 C 21.0586 30.1085 21.0915 30.4428 21.1582 30.7557 C 21.2149 31.0212 21.4174 31.489 21.4174 31.489 "/>
        <path id="ID0.7519200313836336" fill="none" stroke="#995900" stroke-width="0.8147645605504814" stroke-linecap="round" d="M 22.0271 13.4012 C 22.0271 13.4012 22.6042 15.0863 22.6825 16.0166 C 22.7277 16.55 22.4716 17.0398 22.3777 17.5565 C 22.2938 18.017 22.0841 18.4815 22.149 18.9498 C 22.2021 19.3321 22.61 19.3824 22.6825 19.7564 C 22.7691 20.2027 22.6188 20.6872 22.5758 21.1496 C 22.5325 21.6155 22.4493 22.0736 22.4234 22.5429 C 22.3984 22.997 22.4356 23.4561 22.4234 23.9117 C 22.3847 25.3533 22.2484 26.7955 22.271 28.2381 C 22.2841 29.0877 22.4036 29.9305 22.5301 30.7557 C 22.5676 30.9996 22.7587 31.4157 22.7587 31.4157 "/>
      </g>
      <g id="ID0.3303819177672267">
        <path id="ID0.8757698251865804" fill="#FFFF00" stroke="#FFFF00" stroke-width="0.399839662168126" d="M 23.1474 12.4106 L 25.841 12.4106 L 25.841 29.8389 L 23.1474 29.8389 L 23.1474 12.4106 Z "/>
        <path id="ID0.4806634387932718" fill="none" stroke="#CCCC00" stroke-width="0.7466884953030252" stroke-linecap="round" d="M 23.5272 13.336 C 23.5272 13.336 24.0576 15 24.2131 15.8794 C 24.2747 16.2282 24.2036 16.6015 24.1674 16.9571 C 24.1274 17.3503 24.0564 17.7374 23.9845 18.1211 C 23.9192 18.4698 23.8064 18.8017 23.7558 19.1557 C 23.664 19.7954 23.5217 20.445 23.5577 21.0955 C 23.5753 21.4132 23.8177 21.6228 23.9082 21.9146 C 24.0018 22.2159 24.0872 22.5349 24.1064 22.863 C 24.1637 23.8359 24.1988 24.8218 24.1369 25.7943 C 24.1162 26.1211 23.9177 26.3811 23.8625 26.6996 C 23.8046 27.0354 23.7933 27.3885 23.8015 27.7342 C 23.8086 28.0256 23.8415 28.3205 23.9082 28.5964 C 23.9649 28.8305 24.1674 29.243 24.1674 29.243 "/>
        <path id="ID0.7519200313836336" fill="none" stroke="#FF9400" stroke-width="0.7466884953030252" stroke-linecap="round" d="M 24.7771 13.2929 C 24.7771 13.2929 25.3542 14.7789 25.4325 15.5992 C 25.4777 16.0695 25.2216 16.5015 25.1277 16.9571 C 25.0438 17.3632 24.8341 17.7727 24.899 18.1857 C 24.9521 18.5228 25.36 18.5672 25.4325 18.897 C 25.5191 19.2906 25.3688 19.7178 25.3258 20.1256 C 25.2825 20.5364 25.1993 20.9403 25.1734 21.3542 C 25.1484 21.7547 25.1856 22.1594 25.1734 22.5612 C 25.1347 23.8325 24.9984 25.1042 25.021 26.3763 C 25.0341 27.1255 25.1536 27.8687 25.2801 28.5964 C 25.3176 28.8115 25.5087 29.1784 25.5087 29.1784 "/>
      </g>
      <g id="ID0.3303819177672267">
        <path id="ID0.8757698251865804" fill="#FFFF00" stroke="#FFFF00" stroke-width="0.36239277661776254" d="M 25.8974 13.3447 L 28.591 13.3447 L 28.591 28.2575 L 25.8974 28.2575 L 25.8974 13.3447 Z "/>
        <path id="ID0.4806634387932718" fill="none" stroke="#CCCC00" stroke-width="0.6767575903372622" stroke-linecap="round" d="M 26.2272 14.1324 C 26.2272 14.1324 26.7576 15.5562 26.9131 16.3087 C 26.9747 16.6071 26.9036 16.9265 26.8674 17.2308 C 26.8274 17.5673 26.7564 17.8985 26.6845 18.2268 C 26.6192 18.5252 26.5064 18.8092 26.4558 19.1121 C 26.364 19.6595 26.2217 20.2153 26.2577 20.772 C 26.2753 21.0438 26.5177 21.2231 26.6082 21.4728 C 26.7018 21.7306 26.7872 22.0036 26.8064 22.2843 C 26.8637 23.1168 26.8988 23.9604 26.8369 24.7926 C 26.8162 25.0722 26.6177 25.2946 26.5625 25.5672 C 26.5046 25.8546 26.4933 26.1567 26.5015 26.4525 C 26.5086 26.7018 26.5415 26.9541 26.6082 27.1902 C 26.6649 27.3905 26.8674 27.7435 26.8674 27.7435 "/>
        <path id="ID0.7519200313836336" fill="none" stroke="#995900" stroke-width="0.6767575903372622" stroke-linecap="round" d="M 27.4771 14.0955 C 27.4771 14.0955 28.0542 15.367 28.1325 16.0689 C 28.1777 16.4714 27.9216 16.841 27.8277 17.2308 C 27.7438 17.5783 27.5341 17.9287 27.599 18.2821 C 27.6521 18.5706 28.06 18.6086 28.1325 18.8907 C 28.2191 19.2275 28.0688 19.5931 28.0258 19.942 C 27.9825 20.2935 27.8993 20.6392 27.8734 20.9933 C 27.8484 21.3359 27.8856 21.6823 27.8734 22.0261 C 27.8347 23.1139 27.6984 24.202 27.721 25.2906 C 27.7341 25.9316 27.8536 26.5676 27.9801 27.1902 C 28.0176 27.3743 28.2087 27.6882 28.2087 27.6882 "/>
      </g>
      <g id="ID0.3303819177672267">
        <path id="ID0.8757698251865804" fill="#FFFF00" stroke="#FFFF00" stroke-width="0.41648984001991574" d="M 28.6974 13.6675 L 31.391 13.6675 L 31.391 32.1738 L 28.6974 32.1738 L 28.6974 13.6675 Z "/>
        <path id="ID0.4806634387932718" fill="none" stroke="#FF9400" stroke-width="0.7777821968450049" stroke-linecap="round" d="M 29.0772 14.6733 C 29.0772 14.6733 29.6076 16.4402 29.7631 17.374 C 29.8247 17.7443 29.7536 18.1408 29.7174 18.5184 C 29.6774 18.9359 29.6064 19.3469 29.5345 19.7543 C 29.4692 20.1246 29.3564 20.4771 29.3058 20.8529 C 29.214 21.5322 29.0717 22.222 29.1077 22.9128 C 29.1253 23.2501 29.3677 23.4726 29.4582 23.7825 C 29.5518 24.1025 29.6372 24.4412 29.6564 24.7896 C 29.7137 25.8227 29.7488 26.8696 29.6869 27.9022 C 29.6662 28.2492 29.4677 28.5252 29.4125 28.8635 C 29.3546 29.2201 29.3433 29.595 29.3515 29.9621 C 29.3586 30.2716 29.3915 30.5847 29.4582 30.8776 C 29.5149 31.1262 29.7174 31.5642 29.7174 31.5642 "/>
        <path id="ID0.7519200313836336" fill="none" stroke="#995900" stroke-width="0.7777821968450049" stroke-linecap="round" d="M 30.3271 14.6275 C 30.3271 14.6275 30.9042 16.2054 30.9825 17.0765 C 31.0277 17.5759 30.7716 18.0346 30.6777 18.5184 C 30.5938 18.9496 30.3841 19.3845 30.449 19.823 C 30.5021 20.1809 30.91 20.2281 30.9825 20.5783 C 31.0691 20.9962 30.9188 21.4498 30.8758 21.8829 C 30.8325 22.3191 30.7493 22.748 30.7234 23.1874 C 30.6984 23.6127 30.7356 24.0425 30.7234 24.4691 C 30.6847 25.819 30.5484 27.1694 30.571 28.5202 C 30.5841 29.3158 30.7036 30.1049 30.8301 30.8776 C 30.8676 31.106 31.0587 31.4956 31.0587 31.4956 "/>
      </g>
      <g id="ID0.3303819177672267">
        <path id="ID0.8757698251865804" fill="#FFFF00" stroke="#FFFF00" stroke-width="0.36239277661776254" d="M 31.3974 11.9447 L 34.091 11.9447 L 34.091 26.8575 L 31.3974 26.8575 L 31.3974 11.9447 Z "/>
        <path id="ID0.4806634387932718" fill="none" stroke="#CCCC00" stroke-width="0.6767575903372622" stroke-linecap="round" d="M 31.7272 12.7324 C 31.7272 12.7324 32.2576 14.1562 32.4131 14.9087 C 32.4747 15.2071 32.4036 15.5265 32.3674 15.8308 C 32.3274 16.1673 32.2564 16.4985 32.1845 16.8268 C 32.1192 17.1252 32.0064 17.4092 31.9558 17.7121 C 31.864 18.2595 31.7217 18.8153 31.7577 19.372 C 31.7753 19.6438 32.0177 19.8231 32.1082 20.0728 C 32.2018 20.3306 32.2872 20.6036 32.3064 20.8843 C 32.3637 21.7168 32.3988 22.5604 32.3369 23.3926 C 32.3162 23.6722 32.1177 23.8946 32.0625 24.1672 C 32.0046 24.4546 31.9933 24.7567 32.0015 25.0525 C 32.0086 25.3018 32.0415 25.5541 32.1082 25.7902 C 32.1649 25.9905 32.3674 26.3435 32.3674 26.3435 "/>
        <path id="ID0.7519200313836336" fill="none" stroke="#FF9400" stroke-width="0.6767575903372622" stroke-linecap="round" d="M 32.9771 12.6955 C 32.9771 12.6955 33.5542 13.967 33.6325 14.6689 C 33.6777 15.0714 33.4216 15.441 33.3277 15.8308 C 33.2438 16.1783 33.0341 16.5287 33.099 16.8821 C 33.1521 17.1706 33.56 17.2086 33.6325 17.4907 C 33.7191 17.8275 33.5688 18.1931 33.5258 18.542 C 33.4825 18.8935 33.3993 19.2392 33.3734 19.5933 C 33.3484 19.9359 33.3856 20.2823 33.3734 20.6261 C 33.3347 21.7139 33.1984 22.802 33.221 23.8906 C 33.2341 24.5316 33.3536 25.1676 33.4801 25.7902 C 33.5176 25.9743 33.7087 26.2882 33.7087 26.2882 "/>
      </g>
      <g id="ID0.3303819177672267">
        <path id="ID0.8757698251865804" fill="#FFFF00" stroke="#FFFF00" stroke-width="0.29174589800190703" d="M 20.4974 5.8104 L 23.191 5.8104 L 23.191 15.3331 L 20.4974 15.3331 L 20.4974 5.8104 Z "/>
        <path id="ID0.4806634387932718" fill="none" stroke="#CCCC00" stroke-width="0.5448266823975695" stroke-linecap="round" d="M 20.8272 6.396 C 20.8272 6.396 21.3576 7.3052 21.5131 7.7857 C 21.5747 7.9762 21.5036 8.1802 21.4674 8.3745 C 21.4274 8.5893 21.3564 8.8008 21.2845 9.0105 C 21.2192 9.201 21.1064 9.3824 21.0558 9.5758 C 20.964 9.9253 20.8217 10.2803 20.8577 10.6357 C 20.8753 10.8093 21.1177 10.9238 21.2082 11.0832 C 21.3018 11.2479 21.3872 11.4222 21.4064 11.6014 C 21.4637 12.133 21.4988 12.6717 21.4369 13.2031 C 21.4162 13.3816 21.2177 13.5237 21.1625 13.6977 C 21.1046 13.8812 21.0933 14.0741 21.1015 14.263 C 21.1086 14.4223 21.1415 14.5834 21.2082 14.7341 C 21.2649 14.862 21.4674 15.0874 21.4674 15.0874 "/>
        <path id="ID0.7519200313836336" fill="none" stroke="#FF9400" stroke-width="0.5448266823975695" stroke-linecap="round" d="M 22.0771 6.3724 C 22.0771 6.3724 22.6542 7.1843 22.7325 7.6326 C 22.7777 7.8895 22.5216 8.1255 22.4277 8.3745 C 22.3438 8.5964 22.1341 8.8202 22.199 9.0458 C 22.2521 9.23 22.66 9.2543 22.7325 9.4344 C 22.8191 9.6495 22.6688 9.8829 22.6258 10.1057 C 22.5825 10.3302 22.4993 10.5509 22.4734 10.777 C 22.4484 10.9958 22.4856 11.217 22.4734 11.4365 C 22.4347 12.1312 22.2984 12.826 22.321 13.5211 C 22.3341 13.9304 22.4536 14.3365 22.5801 14.7341 C 22.6176 14.8516 22.8087 15.0521 22.8087 15.0521 "/>
      </g>
      <g id="ID0.3303819177672267">
        <path id="ID0.8757698251865804" fill="#FFFF00" stroke="#FFFF00" stroke-width="0.29174589800190703" d="M 22.9474 4.4604 L 25.641 4.4604 L 25.641 13.9831 L 22.9474 13.9831 L 22.9474 4.4604 Z "/>
        <path id="ID0.4806634387932718" fill="none" stroke="#995900" stroke-width="0.5448266823975695" stroke-linecap="round" d="M 23.3272 4.946 C 23.3272 4.946 23.8576 5.8552 24.0131 6.3357 C 24.0747 6.5262 24.0036 6.7302 23.9674 6.9245 C 23.9274 7.1393 23.8564 7.3508 23.7845 7.5605 C 23.7192 7.751 23.6064 7.9324 23.5558 8.1258 C 23.464 8.4753 23.3217 8.8303 23.3577 9.1857 C 23.3753 9.3593 23.6177 9.4738 23.7082 9.6332 C 23.8018 9.7979 23.8872 9.9722 23.9064 10.1514 C 23.9637 10.683 23.9988 11.2217 23.9369 11.7531 C 23.9162 11.9316 23.7177 12.0737 23.6625 12.2477 C 23.6046 12.4312 23.5933 12.6241 23.6015 12.813 C 23.6086 12.9723 23.6415 13.1334 23.7082 13.2841 C 23.7649 13.412 23.9674 13.6374 23.9674 13.6374 "/>
        <path id="ID0.7519200313836336" fill="none" stroke="#CCCC00" stroke-width="0.5448266823975695" stroke-linecap="round" d="M 24.5771 4.9224 C 24.5771 4.9224 25.1542 5.7343 25.2325 6.1826 C 25.2777 6.4395 25.0216 6.6755 24.9277 6.9245 C 24.8438 7.1464 24.6341 7.3702 24.699 7.5958 C 24.7521 7.78 25.16 7.8043 25.2325 7.9844 C 25.3191 8.1995 25.1688 8.4329 25.1258 8.6557 C 25.0825 8.8802 24.9993 9.1009 24.9734 9.327 C 24.9484 9.5458 24.9856 9.767 24.9734 9.9865 C 24.9347 10.6812 24.7984 11.376 24.821 12.0711 C 24.8341 12.4804 24.9536 12.8865 25.0801 13.2841 C 25.1176 13.4016 25.3087 13.6021 25.3087 13.6021 "/>
      </g>
      <g id="ID0.3303819177672267">
        <path id="ID0.8757698251865804" fill="#FFFF00" stroke="#FFFF00" stroke-width="0.32626163270309605" d="M 25.0474 3.5281 L 27.741 3.5281 L 27.741 15.8357 L 25.0474 15.8357 L 25.0474 3.5281 Z "/>
        <path id="ID0.4806634387932718" fill="none" stroke="#995900" stroke-width="0.6092837503902209" stroke-linecap="round" d="M 25.4272 4.1589 C 25.4272 4.1589 25.9576 5.334 26.1131 5.9551 C 26.1747 6.2013 26.1036 6.465 26.0674 6.7161 C 26.0274 6.9938 25.9564 7.2671 25.8845 7.5381 C 25.8192 7.7843 25.7064 8.0188 25.6558 8.2687 C 25.564 8.7205 25.4217 9.1792 25.4577 9.6386 C 25.4753 9.863 25.7177 10.0109 25.8082 10.217 C 25.9018 10.4298 25.9872 10.6551 26.0064 10.8867 C 26.0637 11.5738 26.0988 12.2701 26.0369 12.9568 C 26.0162 13.1876 25.8177 13.3712 25.7625 13.5961 C 25.7046 13.8333 25.6933 14.0826 25.7015 14.3267 C 25.7086 14.5325 25.7415 14.7408 25.8082 14.9356 C 25.8649 15.1009 26.0674 15.3922 26.0674 15.3922 "/>
        <path id="ID0.7519200313836336" fill="none" stroke="#CCCC00" stroke-width="0.6092837503902209" stroke-linecap="round" d="M 26.6771 4.1285 C 26.6771 4.1285 27.2542 5.1779 27.3325 5.7572 C 27.3777 6.0893 27.1216 6.3943 27.0277 6.7161 C 26.9438 7.0029 26.7341 7.2921 26.799 7.5837 C 26.8521 7.8218 27.26 7.8531 27.3325 8.086 C 27.4191 8.364 27.2688 8.6657 27.2258 8.9536 C 27.1825 9.2438 27.0993 9.529 27.0734 9.8213 C 27.0484 10.1041 27.0856 10.3899 27.0734 10.6736 C 27.0347 11.5714 26.8984 12.4695 26.921 13.3678 C 26.9341 13.8969 27.0536 14.4217 27.1801 14.9356 C 27.2176 15.0875 27.4087 15.3466 27.4087 15.3466 "/>
      </g>
      <g id="ID0.3303819177672267">
        <path id="ID0.8757698251865804" fill="#FFFF00" stroke="#FFFF00" stroke-width="0.32745282368961093" d="M 27.2974 1.3787 L 29.991 1.3787 L 29.991 13.7761 L 27.2974 13.7761 L 27.2974 1.3787 Z "/>
        <path id="ID0.4806634387932718" fill="none" stroke="#FF9400" stroke-width="0.6115082734861678" stroke-linecap="round" d="M 27.6772 2.0287 C 27.6772 2.0287 28.2076 3.2124 28.3631 3.8379 C 28.4247 4.086 28.3536 4.3516 28.3174 4.6046 C 28.2774 4.8842 28.2064 5.1596 28.1345 5.4325 C 28.0692 5.6806 27.9564 5.9167 27.9058 6.1685 C 27.814 6.6235 27.6717 7.0856 27.7077 7.5484 C 27.7253 7.7744 27.9677 7.9234 28.0582 8.131 C 28.1518 8.3453 28.2372 8.5723 28.2564 8.8056 C 28.3137 9.4977 28.3488 10.199 28.2869 10.8908 C 28.2662 11.1233 28.0677 11.3082 28.0125 11.5348 C 27.9546 11.7737 27.9433 12.0248 27.9515 12.2707 C 27.9586 12.478 27.9915 12.6878 28.0582 12.884 C 28.1149 13.0505 28.3174 13.344 28.3174 13.344 "/>
        <path id="ID0.7519200313836336" fill="none" stroke="#995900" stroke-width="0.6115082734861678" stroke-linecap="round" d="M 28.9271 1.9981 C 28.9271 1.9981 29.5042 3.0551 29.5825 3.6386 C 29.6277 3.9732 29.3716 4.2804 29.2777 4.6046 C 29.1938 4.8934 28.9841 5.1847 29.049 5.4785 C 29.1021 5.7183 29.51 5.7499 29.5825 5.9845 C 29.6691 6.2644 29.5188 6.5683 29.4758 6.8584 C 29.4325 7.1506 29.3493 7.438 29.3234 7.7324 C 29.2984 8.0172 29.3356 8.3052 29.3234 8.591 C 29.2847 9.4953 29.1484 10.3999 29.171 11.3048 C 29.1841 11.8378 29.3036 12.3664 29.4301 12.884 C 29.4676 13.037 29.6587 13.298 29.6587 13.298 "/>
      </g>
      <g id="ID0.3303819177672267">
        <path id="ID0.8757698251865804" fill="#FFFF00" stroke="#FFFF00" stroke-width="0.3662981873351164" d="M 29.6974 0.7964 L 32.391 0.7964 L 32.391 15.9788 L 29.6974 15.9788 L 29.6974 0.7964 Z "/>
        <path id="ID0.4806634387932718" fill="none" stroke="#FF9400" stroke-width="0.6840507701809969" stroke-linecap="round" d="M 29.9772 1.5917 C 29.9772 1.5917 30.5076 3.0412 30.6631 3.8073 C 30.7247 4.1111 30.6536 4.4363 30.6174 4.7462 C 30.5774 5.0886 30.5064 5.4259 30.4345 5.7601 C 30.3692 6.0639 30.2564 6.3531 30.2058 6.6614 C 30.114 7.2187 29.9717 7.7846 30.0077 8.3513 C 30.0253 8.628 30.2677 8.8105 30.3582 9.0648 C 30.4518 9.3273 30.5372 9.6052 30.5564 9.8909 C 30.6137 10.7385 30.6488 11.5974 30.5869 12.4446 C 30.5662 12.7292 30.3677 12.9557 30.3125 13.2332 C 30.2546 13.5257 30.2433 13.8333 30.2515 14.1345 C 30.2586 14.3883 30.2915 14.6452 30.3582 14.8855 C 30.4149 15.0894 30.6174 15.4488 30.6174 15.4488 "/>
        <path id="ID0.7519200313836336" fill="none" stroke="#CCCC00" stroke-width="0.6840507701809969" stroke-linecap="round" d="M 31.2271 1.5541 C 31.2271 1.5541 31.8042 2.8486 31.8825 3.5632 C 31.9277 3.9729 31.6716 4.3492 31.5777 4.7462 C 31.4938 5.0999 31.2841 5.4567 31.349 5.8164 C 31.4021 6.1101 31.81 6.1488 31.8825 6.4361 C 31.9691 6.7789 31.8188 7.1511 31.7758 7.5063 C 31.7325 7.8642 31.6493 8.2161 31.6234 8.5766 C 31.5984 8.9255 31.6356 9.2781 31.6234 9.6281 C 31.5847 10.7355 31.4484 11.8433 31.471 12.9515 C 31.4841 13.6042 31.6036 14.2516 31.7301 14.8855 C 31.7676 15.0729 31.9587 15.3925 31.9587 15.3925 "/>
      </g>
      <g id="ID0.3303819177672267">
        <path id="ID0.8757698251865804" fill="#FFFF00" stroke="#FFFF00" stroke-width="0.33347241901937963" d="M 31.7974 0.2315 L 34.491 0.2315 L 34.491 13.0782 L 31.7974 13.0782 L 31.7974 0.2315 Z "/>
        <path id="ID0.4806634387932718" fill="none" stroke="#995900" stroke-width="0.6227496878121505" stroke-linecap="round" d="M 32.1272 0.9276 C 32.1272 0.9276 32.6576 2.1541 32.8131 2.8024 C 32.8747 3.0594 32.8036 3.3346 32.7674 3.5968 C 32.7274 3.8865 32.6564 4.1719 32.5845 4.4547 C 32.5192 4.7118 32.4064 4.9564 32.3558 5.2173 C 32.264 5.6889 32.1217 6.1677 32.1577 6.6472 C 32.1753 6.8814 32.4177 7.0358 32.5082 7.251 C 32.6018 7.4731 32.6872 7.7082 32.7064 7.95 C 32.7637 8.6672 32.7988 9.3939 32.7369 10.1108 C 32.7162 10.3516 32.5177 10.5433 32.4625 10.7781 C 32.4046 11.0256 32.3933 11.2859 32.4015 11.5407 C 32.4086 11.7555 32.4415 11.9728 32.5082 12.1762 C 32.5649 12.3488 32.7674 12.6528 32.7674 12.6528 "/>
        <path id="ID0.7519200313836336" fill="none" stroke="#CCCC00" stroke-width="0.6227496878121505" stroke-linecap="round" d="M 33.3771 0.8958 C 33.3771 0.8958 33.9542 1.9911 34.0325 2.5958 C 34.0777 2.9425 33.8216 3.2609 33.7277 3.5968 C 33.6438 3.8961 33.4341 4.198 33.499 4.5024 C 33.5521 4.7508 33.96 4.7836 34.0325 5.0267 C 34.1191 5.3168 33.9688 5.6317 33.9258 5.9323 C 33.8825 6.2351 33.7993 6.5328 33.7734 6.8379 C 33.7484 7.1331 33.7856 7.4315 33.7734 7.7276 C 33.7347 8.6647 33.5984 9.6021 33.621 10.5398 C 33.6341 11.092 33.7536 11.6398 33.8801 12.1762 C 33.9176 12.3348 34.1087 12.6052 34.1087 12.6052 "/>
      </g>
      <g id="ID0.3303819177672267">
        <path id="ID0.8757698251865804" fill="#FFFF00" stroke="#FFFF00" stroke-width="0.4248418077926783" d="M 51.5526 16.7177 L 48.859 16.7177 L 48.859 35.7575 L 51.5526 35.7575 L 51.5526 16.7177 Z "/>
        <path id="ID0.4806634387932718" fill="none" stroke="#CCCC00" stroke-width="0.7933792656343243" stroke-linecap="round" d="M 51.3228 17.7376 C 51.3228 17.7376 50.7924 19.5554 50.6369 20.5161 C 50.5753 20.8971 50.6464 21.305 50.6826 21.6935 C 50.7226 22.123 50.7936 22.5459 50.8655 22.965 C 50.9308 23.346 51.0436 23.7087 51.0942 24.0953 C 51.186 24.7942 51.3283 25.5039 51.2923 26.2145 C 51.2747 26.5616 51.0323 26.7905 50.9418 27.1093 C 50.8482 27.4385 50.7628 27.787 50.7436 28.1454 C 50.6863 29.2083 50.6512 30.2854 50.7131 31.3478 C 50.7338 31.7048 50.9323 31.9888 50.9875 32.3368 C 51.0454 32.7037 51.0567 33.0894 51.0485 33.4671 C 51.0414 33.7854 51.0085 34.1075 50.9418 34.4089 C 50.8851 34.6647 50.6826 35.1154 50.6826 35.1154 "/>
        <path id="ID0.7519200313836336" fill="none" stroke="#FF9400" stroke-width="0.7933792656343243" stroke-linecap="round" d="M 50.0729 17.6905 C 50.0729 17.6905 49.4958 19.3138 49.4175 20.21 C 49.3723 20.7238 49.6284 21.1957 49.7223 21.6935 C 49.8062 22.1371 50.0159 22.5845 49.951 23.0357 C 49.8979 23.404 49.49 23.4525 49.4175 23.8127 C 49.3309 24.2427 49.4812 24.7094 49.5242 25.1549 C 49.5675 25.6037 49.6507 26.045 49.6766 26.4971 C 49.7016 26.9346 49.6644 27.3768 49.6766 27.8158 C 49.7153 29.2046 49.8516 30.5938 49.829 31.9836 C 49.8159 32.8021 49.6964 33.614 49.5699 34.4089 C 49.5324 34.6439 49.3413 35.0447 49.3413 35.0447 "/>
      </g>
      <g id="ID0.3303819177672267">
        <path id="ID0.8757698251865804" fill="#FFFF00" stroke="#FFFF00" stroke-width="0.4131270873540167" d="M 48.6026 22.0958 L 45.909 22.0958 L 45.909 40.3861 L 48.6026 40.3861 L 48.6026 22.0958 Z "/>
        <path id="ID0.4806634387932718" fill="none" stroke="#995900" stroke-width="0.7715024067348702" stroke-linecap="round" d="M 48.4728 23.0555 C 48.4728 23.0555 47.9424 24.8018 47.7869 25.7247 C 47.7253 26.0907 47.7964 26.4824 47.8326 26.8557 C 47.8726 27.2683 47.9436 27.6745 48.0155 28.0772 C 48.0808 28.4432 48.1936 28.7915 48.2442 29.1629 C 48.336 29.8343 48.4783 30.5161 48.4423 31.1988 C 48.4247 31.5322 48.1823 31.752 48.0918 32.0583 C 47.9982 32.3746 47.9128 32.7093 47.8936 33.0536 C 47.8363 34.0747 47.8012 35.1093 47.8631 36.13 C 47.8838 36.4729 48.0823 36.7457 48.1375 37.08 C 48.1954 37.4324 48.2067 37.8029 48.1985 38.1658 C 48.1914 38.4716 48.1585 38.781 48.0918 39.0706 C 48.0351 39.3162 47.8326 39.7492 47.8326 39.7492 "/>
        <path id="ID0.7519200313836336" fill="none" stroke="#CCCC00" stroke-width="0.7715024067348702" stroke-linecap="round" d="M 47.2229 23.0102 C 47.2229 23.0102 46.6458 24.5697 46.5675 25.4306 C 46.5223 25.9242 46.7784 26.3775 46.8723 26.8557 C 46.9562 27.2818 47.1659 27.7116 47.101 28.145 C 47.0479 28.4988 46.64 28.5454 46.5675 28.8915 C 46.4809 29.3045 46.6312 29.7529 46.6742 30.1808 C 46.7175 30.612 46.8007 31.0359 46.8266 31.4702 C 46.8516 31.8905 46.8144 32.3153 46.8266 32.7369 C 46.8653 34.0711 47.0016 35.4057 46.979 36.7407 C 46.9659 37.527 46.8464 38.3069 46.7199 39.0706 C 46.6824 39.2963 46.4913 39.6813 46.4913 39.6813 "/>
      </g>
      <g id="ID0.3303819177672267">
        <path id="ID0.8757698251865804" fill="#FFFF00" stroke="#FFFF00" stroke-width="0.4608157329393802" d="M 46.0526 22.9352 L 43.359 22.9352 L 43.359 44.2264 L 46.0526 44.2264 L 46.0526 22.9352 Z "/>
        <path id="ID0.4806634387932718" fill="none" stroke="#FF9400" stroke-width="0.8605594501895221" stroke-linecap="round" d="M 45.7728 24.0363 C 45.7728 24.0363 45.2424 26.0691 45.0869 27.1434 C 45.0253 27.5695 45.0964 28.0255 45.1326 28.46 C 45.1726 28.9403 45.2436 29.4132 45.3155 29.8819 C 45.3808 30.308 45.4936 30.7135 45.5442 31.1458 C 45.636 31.9274 45.7783 32.721 45.7423 33.5157 C 45.7247 33.9038 45.4823 34.1598 45.3918 34.5163 C 45.2982 34.8844 45.2128 35.2741 45.1936 35.6749 C 45.1363 36.8635 45.1012 38.0679 45.1631 39.256 C 45.1838 39.6552 45.3823 39.9727 45.4375 40.3619 C 45.4954 40.7722 45.5067 41.2035 45.4985 41.6258 C 45.4914 41.9818 45.4585 42.3421 45.3918 42.6791 C 45.3351 42.9651 45.1326 43.4691 45.1326 43.4691 "/>
        <path id="ID0.7519200313836336" fill="none" stroke="#995900" stroke-width="0.8605594501895221" stroke-linecap="round" d="M 44.5229 23.9836 C 44.5229 23.9836 43.9458 25.7989 43.8675 26.8011 C 43.8223 27.3757 44.0784 27.9034 44.1723 28.46 C 44.2562 28.9561 44.4659 29.4564 44.401 29.9609 C 44.3479 30.3727 43.94 30.427 43.8675 30.8299 C 43.7809 31.3107 43.9312 31.8326 43.9742 32.3308 C 44.0175 32.8326 44.1007 33.3261 44.1266 33.8317 C 44.1516 34.3209 44.1144 34.8154 44.1266 35.3062 C 44.1653 36.8593 44.3016 38.4128 44.279 39.9669 C 44.2659 40.8822 44.1464 41.7901 44.0199 42.6791 C 43.9824 42.9419 43.7913 43.3901 43.7913 43.3901 "/>
      </g>
      <g id="ID0.3303819177672267">
        <path id="ID0.8757698251865804" fill="#FFFF00" stroke="#FFFF00" stroke-width="0.4608157329393802" d="M 43.1526 23.2352 L 40.459 23.2352 L 40.459 44.5264 L 43.1526 44.5264 L 43.1526 23.2352 Z "/>
        <path id="ID0.4806634387932718" fill="none" stroke="#FF9400" stroke-width="0.8605594501895221" stroke-linecap="round" d="M 42.9728 24.3863 C 42.9728 24.3863 42.4424 26.4191 42.2869 27.4934 C 42.2253 27.9195 42.2964 28.3755 42.3326 28.81 C 42.3726 29.2903 42.4436 29.7632 42.5155 30.2319 C 42.5808 30.658 42.6936 31.0635 42.7442 31.4958 C 42.836 32.2774 42.9783 33.071 42.9423 33.8657 C 42.9247 34.2538 42.6823 34.5098 42.5918 34.8663 C 42.4982 35.2344 42.4128 35.6241 42.3936 36.0249 C 42.3363 37.2135 42.3012 38.4179 42.3631 39.606 C 42.3838 40.0052 42.5823 40.3227 42.6375 40.7119 C 42.6954 41.1222 42.7067 41.5535 42.6985 41.9758 C 42.6914 42.3318 42.6585 42.6921 42.5918 43.0291 C 42.5351 43.3151 42.3326 43.8191 42.3326 43.8191 "/>
        <path id="ID0.7519200313836336" fill="none" stroke="#CCCC00" stroke-width="0.8605594501895221" stroke-linecap="round" d="M 41.7229 24.3336 C 41.7229 24.3336 41.1458 26.1489 41.0675 27.1511 C 41.0223 27.7257 41.2784 28.2534 41.3723 28.81 C 41.4562 29.3061 41.6659 29.8064 41.601 30.3109 C 41.5479 30.7227 41.14 30.777 41.0675 31.1799 C 40.9809 31.6607 41.1312 32.1826 41.1742 32.6808 C 41.2175 33.1826 41.3007 33.6761 41.3266 34.1817 C 41.3516 34.6709 41.3144 35.1654 41.3266 35.6562 C 41.3653 37.2093 41.5016 38.7628 41.479 40.3169 C 41.4659 41.2322 41.3464 42.1401 41.2199 43.0291 C 41.1824 43.2919 40.9913 43.7401 40.9913 43.7401 "/>
      </g>
      <g id="ID0.3303819177672267">
        <path id="ID0.8757698251865804" fill="#FFFF00" stroke="#FFFF00" stroke-width="0.4608157329393802" d="M 40.1026 23.7852 L 37.409 23.7852 L 37.409 45.0764 L 40.1026 45.0764 L 40.1026 23.7852 Z "/>
        <path id="ID0.4806634387932718" fill="none" stroke="#995900" stroke-width="0.8605594501895221" stroke-linecap="round" d="M 39.8728 24.8863 C 39.8728 24.8863 39.3424 26.9191 39.1869 27.9934 C 39.1253 28.4195 39.1964 28.8755 39.2326 29.31 C 39.2726 29.7903 39.3436 30.2632 39.4155 30.7319 C 39.4808 31.158 39.5936 31.5635 39.6442 31.9958 C 39.736 32.7774 39.8783 33.571 39.8423 34.3657 C 39.8247 34.7538 39.5823 35.0098 39.4918 35.3663 C 39.3982 35.7344 39.3128 36.1241 39.2936 36.5249 C 39.2363 37.7135 39.2012 38.9179 39.2631 40.106 C 39.2838 40.5052 39.4823 40.8227 39.5375 41.2119 C 39.5954 41.6222 39.6067 42.0535 39.5985 42.4758 C 39.5914 42.8318 39.5585 43.1921 39.4918 43.5291 C 39.4351 43.8151 39.2326 44.3191 39.2326 44.3191 "/>
        <path id="ID0.7519200313836336" fill="none" stroke="#FF9400" stroke-width="0.8605594501895221" stroke-linecap="round" d="M 38.6229 24.8336 C 38.6229 24.8336 38.0458 26.6489 37.9675 27.6511 C 37.9223 28.2257 38.1784 28.7534 38.2723 29.31 C 38.3562 29.8061 38.5659 30.3064 38.501 30.8109 C 38.4479 31.2227 38.04 31.277 37.9675 31.6799 C 37.8809 32.1607 38.0312 32.6826 38.0742 33.1808 C 38.1175 33.6826 38.2007 34.1761 38.2266 34.6817 C 38.2516 35.1709 38.2144 35.6654 38.2266 36.1562 C 38.2653 37.7093 38.4016 39.2628 38.379 40.8169 C 38.3659 41.7322 38.2464 42.6401 38.1199 43.5291 C 38.0824 43.7919 37.8913 44.2401 37.8913 44.2401 "/>
      </g>
      <g id="ID0.3303819177672267">
        <path id="ID0.8757698251865804" fill="#FFFF00" stroke="#FFFF00" stroke-width="0.4608157329393802" d="M 37.3026 23.9352 L 34.609 23.9352 L 34.609 45.2264 L 37.3026 45.2264 L 37.3026 23.9352 Z "/>
        <path id="ID0.4806634387932718" fill="none" stroke="#CCCC00" stroke-width="0.8605594501895221" stroke-linecap="round" d="M 37.0728 25.0863 C 37.0728 25.0863 36.5424 27.1191 36.3869 28.1934 C 36.3253 28.6195 36.3964 29.0755 36.4326 29.51 C 36.4726 29.9903 36.5436 30.4632 36.6155 30.9319 C 36.6808 31.358 36.7936 31.7635 36.8442 32.1958 C 36.936 32.9774 37.0783 33.771 37.0423 34.5657 C 37.0247 34.9538 36.7823 35.2098 36.6918 35.5663 C 36.5982 35.9344 36.5128 36.3241 36.4936 36.7249 C 36.4363 37.9135 36.4012 39.1179 36.4631 40.306 C 36.4838 40.7052 36.6823 41.0227 36.7375 41.4119 C 36.7954 41.8222 36.8067 42.2535 36.7985 42.6758 C 36.7914 43.0318 36.7585 43.3921 36.6918 43.7291 C 36.6351 44.0151 36.4326 44.5191 36.4326 44.5191 "/>
        <path id="ID0.7519200313836336" fill="none" stroke="#995900" stroke-width="0.8605594501895221" stroke-linecap="round" d="M 35.8229 25.0336 C 35.8229 25.0336 35.2458 26.8489 35.1675 27.8511 C 35.1223 28.4257 35.3784 28.9534 35.4723 29.51 C 35.5562 30.0061 35.7659 30.5064 35.701 31.0109 C 35.6479 31.4227 35.24 31.477 35.1675 31.8799 C 35.0809 32.3607 35.2312 32.8826 35.2742 33.3808 C 35.3175 33.8826 35.4007 34.3761 35.4266 34.8817 C 35.4516 35.3709 35.4144 35.8654 35.4266 36.3562 C 35.4653 37.9093 35.6016 39.4628 35.579 41.0169 C 35.5659 41.9322 35.4464 42.8401 35.3199 43.7291 C 35.2824 43.9919 35.0913 44.4401 35.0913 44.4401 "/>
      </g>
      <g id="ID0.3303819177672267">
        <path id="ID0.8757698251865804" fill="#FFFF00" stroke="#FFFF00" stroke-width="0.36239277661776254" d="M 49.9526 8.7447 L 47.259 8.7447 L 47.259 23.6575 L 49.9526 23.6575 L 49.9526 8.7447 Z "/>
        <path id="ID0.4806634387932718" fill="none" stroke="#CCCC00" stroke-width="0.6767575903372622" stroke-linecap="round" d="M 49.7728 9.5824 C 49.7728 9.5824 49.2424 11.0062 49.0869 11.7587 C 49.0253 12.0571 49.0964 12.3765 49.1326 12.6808 C 49.1726 13.0173 49.2436 13.3485 49.3155 13.6768 C 49.3808 13.9752 49.4936 14.2592 49.5442 14.5621 C 49.636 15.1095 49.7783 15.6653 49.7423 16.222 C 49.7247 16.4938 49.4823 16.6731 49.3918 16.9228 C 49.2982 17.1806 49.2128 17.4536 49.1936 17.7343 C 49.1363 18.5668 49.1012 19.4104 49.1631 20.2426 C 49.1838 20.5222 49.3823 20.7446 49.4375 21.0172 C 49.4954 21.3046 49.5067 21.6067 49.4985 21.9025 C 49.4914 22.1518 49.4585 22.4041 49.3918 22.6402 C 49.3351 22.8405 49.1326 23.1935 49.1326 23.1935 "/>
        <path id="ID0.7519200313836336" fill="none" stroke="#CCCC00" stroke-width="0.6767575903372622" stroke-linecap="round" d="M 48.5229 9.5455 C 48.5229 9.5455 47.9458 10.817 47.8675 11.5189 C 47.8223 11.9214 48.0784 12.291 48.1723 12.6808 C 48.2562 13.0283 48.4659 13.3787 48.401 13.7321 C 48.3479 14.0206 47.94 14.0586 47.8675 14.3407 C 47.7809 14.6775 47.9312 15.0431 47.9742 15.392 C 48.0175 15.7435 48.1007 16.0892 48.1266 16.4433 C 48.1516 16.7859 48.1144 17.1323 48.1266 17.4761 C 48.1653 18.5639 48.3016 19.652 48.279 20.7406 C 48.2659 21.3816 48.1464 22.0176 48.0199 22.6402 C 47.9824 22.8243 47.7913 23.1382 47.7913 23.1382 "/>
      </g>
      <g id="ID0.3303819177672267">
        <path id="ID0.8757698251865804" fill="#FFFF00" stroke="#FFFF00" stroke-width="0.43629330802437355" d="M 47.9026 12.2255 L 45.209 12.2255 L 45.209 31.9895 L 47.9026 31.9895 L 47.9026 12.2255 Z "/>
        <path id="ID0.4806634387932718" fill="none" stroke="#FF9400" stroke-width="0.8147645605504814" stroke-linecap="round" d="M 47.6728 13.3501 C 47.6728 13.3501 47.1424 15.2371 46.9869 16.2344 C 46.9253 16.6299 46.9964 17.0532 47.0326 17.4565 C 47.0726 17.9024 47.1436 18.3414 47.2155 18.7765 C 47.2808 19.1719 47.3936 19.5484 47.4442 19.9497 C 47.536 20.6752 47.6783 21.4119 47.6423 22.1496 C 47.6247 22.5099 47.3823 22.7474 47.2918 23.0784 C 47.1982 23.4201 47.1128 23.7819 47.0936 24.1539 C 47.0363 25.2572 47.0012 26.3753 47.0631 27.4781 C 47.0838 27.8487 47.2823 28.1435 47.3375 28.5047 C 47.3954 28.8855 47.4067 29.2859 47.3985 29.678 C 47.3914 30.0085 47.3585 30.3428 47.2918 30.6557 C 47.2351 30.9212 47.0326 31.389 47.0326 31.389 "/>
        <path id="ID0.7519200313836336" fill="none" stroke="#CCCC00" stroke-width="0.8147645605504814" stroke-linecap="round" d="M 46.4229 13.3012 C 46.4229 13.3012 45.8458 14.9863 45.7675 15.9166 C 45.7223 16.45 45.9784 16.9398 46.0723 17.4565 C 46.1562 17.917 46.3659 18.3815 46.301 18.8498 C 46.2479 19.2321 45.84 19.2824 45.7675 19.6564 C 45.6809 20.1027 45.8312 20.5872 45.8742 21.0496 C 45.9175 21.5155 46.0007 21.9736 46.0266 22.4429 C 46.0516 22.897 46.0144 23.3561 46.0266 23.8117 C 46.0653 25.2533 46.2016 26.6955 46.179 28.1381 C 46.1659 28.9877 46.0464 29.8305 45.9199 30.6557 C 45.8824 30.8996 45.6913 31.3157 45.6913 31.3157 "/>
      </g>
      <g id="ID0.3303819177672267">
        <path id="ID0.8757698251865804" fill="#FFFF00" stroke="#FFFF00" stroke-width="0.399839662168126" d="M 45.1526 12.1606 L 42.459 12.1606 L 42.459 29.5889 L 45.1526 29.5889 L 45.1526 12.1606 Z "/>
        <path id="ID0.4806634387932718" fill="none" stroke="#995900" stroke-width="0.7466884953030252" stroke-linecap="round" d="M 44.9228 13.236 C 44.9228 13.236 44.3924 14.9 44.2369 15.7794 C 44.1753 16.1282 44.2464 16.5015 44.2826 16.8571 C 44.3226 17.2503 44.3936 17.6374 44.4655 18.0211 C 44.5308 18.3698 44.6436 18.7017 44.6942 19.0557 C 44.786 19.6954 44.9283 20.345 44.8923 20.9955 C 44.8747 21.3132 44.6323 21.5228 44.5418 21.8146 C 44.4482 22.1159 44.3628 22.4349 44.3436 22.763 C 44.2863 23.7359 44.2512 24.7218 44.3131 25.6943 C 44.3338 26.0211 44.5323 26.2811 44.5875 26.5996 C 44.6454 26.9354 44.6567 27.2885 44.6485 27.6342 C 44.6414 27.9256 44.6085 28.2205 44.5418 28.4964 C 44.4851 28.7305 44.2826 29.143 44.2826 29.143 "/>
        <path id="ID0.7519200313836336" fill="none" stroke="#CCCC00" stroke-width="0.7466884953030252" stroke-linecap="round" d="M 43.6729 13.1929 C 43.6729 13.1929 43.0958 14.6789 43.0175 15.4992 C 42.9723 15.9695 43.2284 16.4015 43.3223 16.8571 C 43.4062 17.2632 43.6159 17.6727 43.551 18.0857 C 43.4979 18.4228 43.09 18.4672 43.0175 18.797 C 42.9309 19.1906 43.0812 19.6178 43.1242 20.0256 C 43.1675 20.4364 43.2507 20.8403 43.2766 21.2542 C 43.3016 21.6547 43.2644 22.0594 43.2766 22.4612 C 43.3153 23.7325 43.4516 25.0042 43.429 26.2763 C 43.4159 27.0255 43.2964 27.7687 43.1699 28.4964 C 43.1324 28.7115 42.9413 29.0784 42.9413 29.0784 "/>
      </g>
      <g id="ID0.3303819177672267">
        <path id="ID0.8757698251865804" fill="#FFFF00" stroke="#FFFF00" stroke-width="0.36239277661776254" d="M 42.4526 13.3947 L 39.759 13.3947 L 39.759 28.3075 L 42.4526 28.3075 L 42.4526 13.3947 Z "/>
        <path id="ID0.4806634387932718" fill="none" stroke="#995900" stroke-width="0.6767575903372622" stroke-linecap="round" d="M 42.2228 14.1824 C 42.2228 14.1824 41.6924 15.6062 41.5369 16.3587 C 41.4753 16.6571 41.5464 16.9765 41.5826 17.2808 C 41.6226 17.6173 41.6936 17.9485 41.7655 18.2768 C 41.8308 18.5752 41.9436 18.8592 41.9942 19.1621 C 42.086 19.7095 42.2283 20.2653 42.1923 20.822 C 42.1747 21.0938 41.9323 21.2731 41.8418 21.5228 C 41.7482 21.7806 41.6628 22.0536 41.6436 22.3343 C 41.5863 23.1668 41.5512 24.0104 41.6131 24.8426 C 41.6338 25.1222 41.8323 25.3446 41.8875 25.6172 C 41.9454 25.9046 41.9567 26.2067 41.9485 26.5025 C 41.9414 26.7518 41.9085 27.0041 41.8418 27.2402 C 41.7851 27.4405 41.5826 27.7935 41.5826 27.7935 "/>
        <path id="ID0.7519200313836336" fill="none" stroke="#FF9400" stroke-width="0.6767575903372622" stroke-linecap="round" d="M 40.9729 14.1455 C 40.9729 14.1455 40.3958 15.417 40.3175 16.1189 C 40.2723 16.5214 40.5284 16.891 40.6223 17.2808 C 40.7062 17.6283 40.9159 17.9787 40.851 18.3321 C 40.7979 18.6206 40.39 18.6586 40.3175 18.9407 C 40.2309 19.2775 40.3812 19.6431 40.4242 19.992 C 40.4675 20.3435 40.5507 20.6892 40.5766 21.0433 C 40.6016 21.3859 40.5644 21.7323 40.5766 22.0761 C 40.6153 23.1639 40.7516 24.252 40.729 25.3406 C 40.7159 25.9816 40.5964 26.6176 40.4699 27.2402 C 40.4324 27.4243 40.2413 27.7382 40.2413 27.7382 "/>
      </g>
      <g id="ID0.3303819177672267">
        <path id="ID0.8757698251865804" fill="#FFFF00" stroke="#FFFF00" stroke-width="0.41648984001991574" d="M 39.6026 13.7175 L 36.909 13.7175 L 36.909 32.2238 L 39.6026 32.2238 L 39.6026 13.7175 Z "/>
        <path id="ID0.4806634387932718" fill="none" stroke="#CCCC00" stroke-width="0.7777821968450049" stroke-linecap="round" d="M 39.3728 14.7233 C 39.3728 14.7233 38.8424 16.4902 38.6869 17.424 C 38.6253 17.7943 38.6964 18.1908 38.7326 18.5684 C 38.7726 18.9859 38.8436 19.3969 38.9155 19.8043 C 38.9808 20.1746 39.0936 20.5271 39.1442 20.9029 C 39.236 21.5822 39.3783 22.272 39.3423 22.9628 C 39.3247 23.3001 39.0823 23.5226 38.9918 23.8325 C 38.8982 24.1525 38.8128 24.4912 38.7936 24.8396 C 38.7363 25.8727 38.7012 26.9196 38.7631 27.9522 C 38.7838 28.2992 38.9823 28.5752 39.0375 28.9135 C 39.0954 29.2701 39.1067 29.645 39.0985 30.0121 C 39.0914 30.3216 39.0585 30.6347 38.9918 30.9276 C 38.9351 31.1762 38.7326 31.6142 38.7326 31.6142 "/>
        <path id="ID0.7519200313836336" fill="none" stroke="#995900" stroke-width="0.7777821968450049" stroke-linecap="round" d="M 38.1229 14.6775 C 38.1229 14.6775 37.5458 16.2554 37.4675 17.1265 C 37.4223 17.6259 37.6784 18.0846 37.7723 18.5684 C 37.8562 18.9996 38.0659 19.4345 38.001 19.873 C 37.9479 20.2309 37.54 20.2781 37.4675 20.6283 C 37.3809 21.0462 37.5312 21.4998 37.5742 21.9329 C 37.6175 22.3691 37.7007 22.798 37.7266 23.2374 C 37.7516 23.6627 37.7144 24.0925 37.7266 24.5191 C 37.7653 25.869 37.9016 27.2194 37.879 28.5702 C 37.8659 29.3658 37.7464 30.1549 37.6199 30.9276 C 37.5824 31.156 37.3913 31.5456 37.3913 31.5456 "/>
      </g>
      <g id="ID0.3303819177672267">
        <path id="ID0.8757698251865804" fill="#FFFF00" stroke="#FFFF00" stroke-width="0.29174589800190703" d="M 47.8526 5.8104 L 45.159 5.8104 L 45.159 15.3331 L 47.8526 15.3331 L 47.8526 5.8104 Z "/>
        <path id="ID0.4806634387932718" fill="none" stroke="#995900" stroke-width="0.5448266823975695" stroke-linecap="round" d="M 47.5728 6.396 C 47.5728 6.396 47.0424 7.3052 46.8869 7.7857 C 46.8253 7.9762 46.8964 8.1802 46.9326 8.3745 C 46.9726 8.5893 47.0436 8.8008 47.1155 9.0105 C 47.1808 9.201 47.2936 9.3824 47.3442 9.5758 C 47.436 9.9253 47.5783 10.2803 47.5423 10.6357 C 47.5247 10.8093 47.2823 10.9238 47.1918 11.0832 C 47.0982 11.2479 47.0128 11.4222 46.9936 11.6014 C 46.9363 12.133 46.9012 12.6717 46.9631 13.2031 C 46.9838 13.3816 47.1823 13.5237 47.2375 13.6977 C 47.2954 13.8812 47.3067 14.0741 47.2985 14.263 C 47.2914 14.4223 47.2585 14.5834 47.1918 14.7341 C 47.1351 14.862 46.9326 15.0874 46.9326 15.0874 "/>
        <path id="ID0.7519200313836336" fill="none" stroke="#CCCC00" stroke-width="0.5448266823975695" stroke-linecap="round" d="M 46.3229 6.3724 C 46.3229 6.3724 45.7458 7.1843 45.6675 7.6326 C 45.6223 7.8895 45.8784 8.1255 45.9723 8.3745 C 46.0562 8.5964 46.2659 8.8202 46.201 9.0458 C 46.1479 9.23 45.74 9.2543 45.6675 9.4344 C 45.5809 9.6495 45.7312 9.8829 45.7742 10.1057 C 45.8175 10.3302 45.9007 10.5509 45.9266 10.777 C 45.9516 10.9958 45.9144 11.217 45.9266 11.4365 C 45.9653 12.1312 46.1016 12.826 46.079 13.5211 C 46.0659 13.9304 45.9464 14.3365 45.8199 14.7341 C 45.7824 14.8516 45.5913 15.0521 45.5913 15.0521 "/>
      </g>
      <g id="ID0.3303819177672267">
        <path id="ID0.8757698251865804" fill="#FFFF00" stroke="#FFFF00" stroke-width="0.29174589800190703" d="M 45.3526 4.5604 L 42.659 4.5604 L 42.659 14.0831 L 45.3526 14.0831 L 45.3526 4.5604 Z "/>
        <path id="ID0.4806634387932718" fill="none" stroke="#FF9400" stroke-width="0.5448266823975695" stroke-linecap="round" d="M 45.1228 5.046 C 45.1228 5.046 44.5924 5.9552 44.4369 6.4357 C 44.3753 6.6262 44.4464 6.8302 44.4826 7.0245 C 44.5226 7.2393 44.5936 7.4508 44.6655 7.6605 C 44.7308 7.851 44.8436 8.0324 44.8942 8.2258 C 44.986 8.5753 45.1283 8.9303 45.0923 9.2857 C 45.0747 9.4593 44.8323 9.5738 44.7418 9.7332 C 44.6482 9.8979 44.5628 10.0722 44.5436 10.2514 C 44.4863 10.783 44.4512 11.3217 44.5131 11.8531 C 44.5338 12.0316 44.7323 12.1737 44.7875 12.3477 C 44.8454 12.5312 44.8567 12.7241 44.8485 12.913 C 44.8414 13.0723 44.8085 13.2334 44.7418 13.3841 C 44.6851 13.512 44.4826 13.7374 44.4826 13.7374 "/>
        <path id="ID0.7519200313836336" fill="none" stroke="#995900" stroke-width="0.5448266823975695" stroke-linecap="round" d="M 43.8729 5.0224 C 43.8729 5.0224 43.2958 5.8343 43.2175 6.2826 C 43.1723 6.5395 43.4284 6.7755 43.5223 7.0245 C 43.6062 7.2464 43.8159 7.4702 43.751 7.6958 C 43.6979 7.88 43.29 7.9043 43.2175 8.0844 C 43.1309 8.2995 43.2812 8.5329 43.3242 8.7557 C 43.3675 8.9802 43.4507 9.2009 43.4766 9.427 C 43.5016 9.6458 43.4644 9.867 43.4766 10.0865 C 43.5153 10.7812 43.6516 11.476 43.629 12.1711 C 43.6159 12.5804 43.4964 12.9865 43.3699 13.3841 C 43.3324 13.5016 43.1413 13.7021 43.1413 13.7021 "/>
      </g>
      <g id="ID0.3303819177672267">
        <path id="ID0.8757698251865804" fill="#FFFF00" stroke="#FFFF00" stroke-width="0.32626163270309605" d="M 43.3026 3.6281 L 40.609 3.6281 L 40.609 15.9357 L 43.3026 15.9357 L 43.3026 3.6281 Z "/>
        <path id="ID0.4806634387932718" fill="none" stroke="#CCCC00" stroke-width="0.6092837503902209" stroke-linecap="round" d="M 43.0728 4.2589 C 43.0728 4.2589 42.5424 5.434 42.3869 6.0551 C 42.3253 6.3013 42.3964 6.565 42.4326 6.8161 C 42.4726 7.0938 42.5436 7.3671 42.6155 7.6381 C 42.6808 7.8843 42.7936 8.1188 42.8442 8.3687 C 42.936 8.8205 43.0783 9.2792 43.0423 9.7386 C 43.0247 9.963 42.7823 10.1109 42.6918 10.317 C 42.5982 10.5298 42.5128 10.7551 42.4936 10.9867 C 42.4363 11.6738 42.4012 12.3701 42.4631 13.0568 C 42.4838 13.2876 42.6823 13.4712 42.7375 13.6961 C 42.7954 13.9333 42.8067 14.1826 42.7985 14.4267 C 42.7914 14.6325 42.7585 14.8408 42.6918 15.0356 C 42.6351 15.2009 42.4326 15.4922 42.4326 15.4922 "/>
        <path id="ID0.7519200313836336" fill="none" stroke="#FF9400" stroke-width="0.6092837503902209" stroke-linecap="round" d="M 41.8229 4.2285 C 41.8229 4.2285 41.2458 5.2779 41.1675 5.8572 C 41.1223 6.1893 41.3784 6.4943 41.4723 6.8161 C 41.5562 7.1029 41.7659 7.3921 41.701 7.6837 C 41.6479 7.9218 41.24 7.9531 41.1675 8.186 C 41.0809 8.464 41.2312 8.7657 41.2742 9.0536 C 41.3175 9.3438 41.4007 9.629 41.4266 9.9213 C 41.4516 10.2041 41.4144 10.4899 41.4266 10.7736 C 41.4653 11.6714 41.6016 12.5695 41.579 13.4678 C 41.5659 13.9969 41.4464 14.5217 41.3199 15.0356 C 41.2824 15.1875 41.0913 15.4466 41.0913 15.4466 "/>
      </g>
      <g id="ID0.3303819177672267">
        <path id="ID0.8757698251865804" fill="#FFFF00" stroke="#FFFF00" stroke-width="0.36239277661776254" d="M 36.9026 11.9947 L 34.209 11.9947 L 34.209 26.9075 L 36.9026 26.9075 L 36.9026 11.9947 Z "/>
        <path id="ID0.4806634387932718" fill="none" stroke="#CCCC00" stroke-width="0.6767575903372622" stroke-linecap="round" d="M 36.7228 12.7824 C 36.7228 12.7824 36.1924 14.2062 36.0369 14.9587 C 35.9753 15.2571 36.0464 15.5765 36.0826 15.8808 C 36.1226 16.2173 36.1936 16.5485 36.2655 16.8768 C 36.3308 17.1752 36.4436 17.4592 36.4942 17.7621 C 36.586 18.3095 36.7283 18.8653 36.6923 19.422 C 36.6747 19.6938 36.4323 19.8731 36.3418 20.1228 C 36.2482 20.3806 36.1628 20.6536 36.1436 20.9343 C 36.0863 21.7668 36.0512 22.6104 36.1131 23.4426 C 36.1338 23.7222 36.3323 23.9446 36.3875 24.2172 C 36.4454 24.5046 36.4567 24.8067 36.4485 25.1025 C 36.4414 25.3518 36.4085 25.6041 36.3418 25.8402 C 36.2851 26.0405 36.0826 26.3935 36.0826 26.3935 "/>
        <path id="ID0.7519200313836336" fill="none" stroke="#995900" stroke-width="0.6767575903372622" stroke-linecap="round" d="M 35.4729 12.7455 C 35.4729 12.7455 34.8958 14.017 34.8175 14.7189 C 34.7723 15.1214 35.0284 15.491 35.1223 15.8808 C 35.2062 16.2283 35.4159 16.5787 35.351 16.9321 C 35.2979 17.2206 34.89 17.2586 34.8175 17.5407 C 34.7309 17.8775 34.8812 18.2431 34.9242 18.592 C 34.9675 18.9435 35.0507 19.2892 35.0766 19.6433 C 35.1016 19.9859 35.0644 20.3323 35.0766 20.6761 C 35.1153 21.7639 35.2516 22.852 35.229 23.9406 C 35.2159 24.5816 35.0964 25.2176 34.9699 25.8402 C 34.9324 26.0243 34.7413 26.3382 34.7413 26.3382 "/>
      </g>
      <g id="ID0.3303819177672267">
        <path id="ID0.8757698251865804" fill="#FFFF00" stroke="#FFFF00" stroke-width="0.32745282368961093" d="M 41.0026 1.4787 L 38.309 1.4787 L 38.309 13.8761 L 41.0026 13.8761 L 41.0026 1.4787 Z "/>
        <path id="ID0.4806634387932718" fill="none" stroke="#CCCC00" stroke-width="0.6115082734861678" stroke-linecap="round" d="M 40.7728 2.1287 C 40.7728 2.1287 40.2424 3.3124 40.0869 3.9379 C 40.0253 4.186 40.0964 4.4516 40.1326 4.7046 C 40.1726 4.9842 40.2436 5.2596 40.3155 5.5325 C 40.3808 5.7806 40.4936 6.0167 40.5442 6.2685 C 40.636 6.7235 40.7783 7.1856 40.7423 7.6484 C 40.7247 7.8744 40.4823 8.0234 40.3918 8.231 C 40.2982 8.4453 40.2128 8.6723 40.1936 8.9056 C 40.1363 9.5977 40.1012 10.299 40.1631 10.9908 C 40.1838 11.2233 40.3823 11.4082 40.4375 11.6348 C 40.4954 11.8737 40.5067 12.1248 40.4985 12.3707 C 40.4914 12.578 40.4585 12.7878 40.3918 12.984 C 40.3351 13.1505 40.1326 13.444 40.1326 13.444 "/>
        <path id="ID0.7519200313836336" fill="none" stroke="#995900" stroke-width="0.6115082734861678" stroke-linecap="round" d="M 39.5229 2.0981 C 39.5229 2.0981 38.9458 3.1551 38.8675 3.7386 C 38.8223 4.0732 39.0784 4.3804 39.1723 4.7046 C 39.2562 4.9934 39.4659 5.2847 39.401 5.5785 C 39.3479 5.8183 38.94 5.8499 38.8675 6.0845 C 38.7809 6.3644 38.9312 6.6683 38.9742 6.9584 C 39.0175 7.2506 39.1007 7.538 39.1266 7.8324 C 39.1516 8.1172 39.1144 8.4052 39.1266 8.691 C 39.1653 9.5953 39.3016 10.4999 39.279 11.4048 C 39.2659 11.9378 39.1464 12.4664 39.0199 12.984 C 38.9824 13.137 38.7913 13.398 38.7913 13.398 "/>
      </g>
      <g id="ID0.3303819177672267">
        <path id="ID0.8757698251865804" fill="#FFFF00" stroke="#FFFF00" stroke-width="0.3662981873351164" d="M 38.7026 0.8464 L 36.009 0.8464 L 36.009 16.0288 L 38.7026 16.0288 L 38.7026 0.8464 Z "/>
        <path id="ID0.4806634387932718" fill="none" stroke="#CCCC00" stroke-width="0.6840507701809969" stroke-linecap="round" d="M 38.4728 1.6917 C 38.4728 1.6917 37.9424 3.1412 37.7869 3.9073 C 37.7253 4.2111 37.7964 4.5363 37.8326 4.8462 C 37.8726 5.1886 37.9436 5.5259 38.0155 5.8601 C 38.0808 6.1639 38.1936 6.4531 38.2442 6.7614 C 38.336 7.3187 38.4783 7.8846 38.4423 8.4513 C 38.4247 8.728 38.1823 8.9105 38.0918 9.1648 C 37.9982 9.4273 37.9128 9.7052 37.8936 9.9909 C 37.8363 10.8385 37.8012 11.6974 37.8631 12.5446 C 37.8838 12.8292 38.0823 13.0557 38.1375 13.3332 C 38.1954 13.6257 38.2067 13.9333 38.1985 14.2345 C 38.1914 14.4883 38.1585 14.7452 38.0918 14.9855 C 38.0351 15.1894 37.8326 15.5488 37.8326 15.5488 "/>
        <path id="ID0.7519200313836336" fill="none" stroke="#CCCC00" stroke-width="0.6840507701809969" stroke-linecap="round" d="M 37.2229 1.6541 C 37.2229 1.6541 36.6458 2.9486 36.5675 3.6632 C 36.5223 4.0729 36.7784 4.4492 36.8723 4.8462 C 36.9562 5.1999 37.1659 5.5567 37.101 5.9164 C 37.0479 6.2101 36.64 6.2488 36.5675 6.5361 C 36.4809 6.8789 36.6312 7.2511 36.6742 7.6063 C 36.7175 7.9642 36.8007 8.3161 36.8266 8.6766 C 36.8516 9.0255 36.8144 9.3781 36.8266 9.7281 C 36.8653 10.8355 37.0016 11.9433 36.979 13.0515 C 36.9659 13.7042 36.8464 14.3516 36.7199 14.9855 C 36.6824 15.1729 36.4913 15.4925 36.4913 15.4925 "/>
      </g>
      <g id="ID0.3303819177672267">
        <path id="ID0.8757698251865804" fill="#FFFF00" stroke="#FFFF00" stroke-width="0.33347241901937963" d="M 36.5526 0.3315 L 33.859 0.3315 L 33.859 13.1782 L 36.5526 13.1782 L 36.5526 0.3315 Z "/>
        <path id="ID0.4806634387932718" fill="none" stroke="#995900" stroke-width="0.6227496878121505" stroke-linecap="round" d="M 36.3228 1.0276 C 36.3228 1.0276 35.7924 2.2541 35.6369 2.9024 C 35.5753 3.1594 35.6464 3.4346 35.6826 3.6968 C 35.7226 3.9865 35.7936 4.2719 35.8655 4.5547 C 35.9308 4.8118 36.0436 5.0564 36.0942 5.3173 C 36.186 5.7889 36.3283 6.2677 36.2923 6.7472 C 36.2747 6.9814 36.0323 7.1358 35.9418 7.351 C 35.8482 7.5731 35.7628 7.8082 35.7436 8.05 C 35.6863 8.7672 35.6512 9.4939 35.7131 10.2108 C 35.7338 10.4516 35.9323 10.6433 35.9875 10.8781 C 36.0454 11.1256 36.0567 11.3859 36.0485 11.6407 C 36.0414 11.8555 36.0085 12.0728 35.9418 12.2762 C 35.8851 12.4488 35.6826 12.7528 35.6826 12.7528 "/>
        <path id="ID0.7519200313836336" fill="none" stroke="#FF9400" stroke-width="0.6227496878121505" stroke-linecap="round" d="M 35.0729 0.9958 C 35.0729 0.9958 34.4958 2.0911 34.4175 2.6958 C 34.3723 3.0425 34.6284 3.3609 34.7223 3.6968 C 34.8062 3.9961 35.0159 4.298 34.951 4.6024 C 34.8979 4.8508 34.49 4.8836 34.4175 5.1267 C 34.3309 5.4168 34.4812 5.7317 34.5242 6.0323 C 34.5675 6.3351 34.6507 6.6328 34.6766 6.9379 C 34.7016 7.2331 34.6644 7.5315 34.6766 7.8276 C 34.7153 8.7647 34.8516 9.7021 34.829 10.6398 C 34.8159 11.192 34.6964 11.7398 34.5699 12.2762 C 34.5324 12.4348 34.3413 12.7052 34.3413 12.7052 "/>
      </g>
    </g>
  </g>
</svg>