<svg xmlns="http://www.w3.org/2000/svg" xmlns:xlink="http://www.w3.org/1999/xlink" version="1.1" width="80.73590087890625" height="38.03010177612305" viewBox="-0.4008999913930893 -0.4204999879002571 80.73590087890625 38.03010177612305">
  <defs>
    <radialGradient id="grad_1" cx="0.6333" cy="0.1033" r="1.16571">
      <stop offset="0" stop-color="#FF9400" stop-opacity="1"/>
      <stop offset="1" stop-color="#995900" stop-opacity="1"/>
    </radialGradient>
    <radialGradient id="grad_2" cx="0.31739999999999996" cy="0.3703" r="0.88738">
      <stop offset="0" stop-color="#FF9400" stop-opacity="1"/>
      <stop offset="1" stop-color="#995900" stop-opacity="1"/>
    </radialGradient>
    <radialGradient id="grad_3" cx="0.2303" cy="0.3757" r="1.00061">
      <stop offset="0" stop-color="#FF9400" stop-opacity="1"/>
      <stop offset="1" stop-color="#995900" stop-opacity="1"/>
    </radialGradient>
    <radialGradient id="grad_4" cx="0.42590000000000006" cy="0.3497" r="0.84539">
      <stop offset="0" stop-color="#FF9400" stop-opacity="1"/>
      <stop offset="1" stop-color="#995900" stop-opacity="1"/>
    </radialGradient>
    <radialGradient id="grad_5" cx="0.4814" cy="0.3766" r="0.81042">
      <stop offset="0" stop-color="#FF9400" stop-opacity="1"/>
      <stop offset="1" stop-color="#995900" stop-opacity="1"/>
    </radialGradient>
    <radialGradient id="grad_6" cx="0.3604" cy="0.3564" r="0.8366800000000001">
      <stop offset="0" stop-color="#FF9400" stop-opacity="1"/>
      <stop offset="1" stop-color="#995900" stop-opacity="1"/>
    </radialGradient>
    <radialGradient id="grad_7" cx="0.3757" cy="0.37" r="0.8190000000000001">
      <stop offset="0" stop-color="#FFFF00" stop-opacity="1"/>
      <stop offset="1" stop-color="#999900" stop-opacity="1"/>
    </radialGradient>
  <radialGradient id="grad_1-0.8573749661445618,0,0,0.8573749661445618,176.25,-48.85000000000002" cx="75.7158" cy="3.7541" r="12.7546" gradientUnits="userSpaceOnUse">
      <stop offset="0" stop-color="#FF9400" stop-opacity="1"/>
      <stop offset="1" stop-color="#995900" stop-opacity="1"/>
    </radialGradient><radialGradient id="grad_2-.8573749661445618,0,0,0.8573749661445618,-23.05000000000001,-48.85000000000002" cx="11.2089" cy="13.7918" r="31.9727" gradientUnits="userSpaceOnUse">
      <stop offset="0" stop-color="#FF9400" stop-opacity="1"/>
      <stop offset="1" stop-color="#995900" stop-opacity="1"/>
    </radialGradient><radialGradient id="grad_3-.8573749661445618,0,0,0.8573749661445618,-23.05000000000001,-48.85000000000002" cx="42.4504" cy="17.7653" r="34.7622" gradientUnits="userSpaceOnUse">
      <stop offset="0" stop-color="#FF9400" stop-opacity="1"/>
      <stop offset="1" stop-color="#995900" stop-opacity="1"/>
    </radialGradient><radialGradient id="grad_4-.8573749661445618,0,0,0.8573749661445618,-23.05000000000001,-48.85000000000002" cx="32.8064" cy="17.2474" r="5.8909" gradientUnits="userSpaceOnUse">
      <stop offset="0" stop-color="#FF9400" stop-opacity="1"/>
      <stop offset="1" stop-color="#995900" stop-opacity="1"/>
    </radialGradient><radialGradient id="grad_5-.8573749661445618,0,0,0.8573749661445618,-23.05000000000001,-48.85000000000002" cx="35.5542" cy="17.5048" r="5.6472" gradientUnits="userSpaceOnUse">
      <stop offset="0" stop-color="#FF9400" stop-opacity="1"/>
      <stop offset="1" stop-color="#995900" stop-opacity="1"/>
    </radialGradient><radialGradient id="grad_6-.8573749661445618,0,0,0.8573749661445618,-23.05000000000001,-48.85000000000002" cx="66.3189" cy="9.7669" r="5.5755" gradientUnits="userSpaceOnUse">
      <stop offset="0" stop-color="#FF9400" stop-opacity="1"/>
      <stop offset="1" stop-color="#995900" stop-opacity="1"/>
    </radialGradient><radialGradient id="grad_7-.939393937587738,0,0,0.939393937587738,-190.5,-122" cx="17.7627" cy="16.6076" r="12.1312" gradientUnits="userSpaceOnUse">
      <stop offset="0" stop-color="#FFFF00" stop-opacity="1"/>
      <stop offset="1" stop-color="#999900" stop-opacity="1"/>
    </radialGradient></defs>
  <!-- Exported by Scratch - http://scratch.mit.edu/ -->
  <g id="ID0.08052826253697276">
    <path id="ID0.8694397993385792" fill="url(#grad_1-0.8573749661445618,0,0,0.8573749661445618,176.25,-48.85000000000002)" d="M 79.7756 2.2993 L 73.365 2.2993 L 73.365 4.3758 L 76.7053 4.3758 L 76.7053 7.1743 L 73.365 7.1743 L 73.365 9.5227 L 76.7053 9.5227 L 76.7053 12.3203 L 73.365 12.3203 L 73.365 16.3825 L 79.7756 16.3825 L 79.7756 2.2993 " stroke-width="0.8573749661445618"/>
    <path id="ID0.7121701026335359" fill="url(#grad_2-.8573749661445618,0,0,0.8573749661445618,-23.05000000000001,-48.85000000000002)" d="M 19.6824 22.3593 C 21.8464 22.3593 23.6006 20.6051 23.6006 18.4411 C 23.6006 16.2788 21.8464 14.5246 19.6824 14.5246 C 17.5184 14.5246 15.7642 16.2788 15.7642 18.4411 C 15.7642 20.6051 17.5184 22.3593 19.6824 22.3593 L 19.6824 22.3593 L 19.6824 22.3593 Z M 7.404 22.3593 C 9.568 22.3593 11.3222 20.6051 11.3222 18.4411 C 11.3222 16.2788 9.568 14.5246 7.404 14.5246 C 5.2399 14.5246 3.4858 16.2788 3.4858 18.4411 C 3.4858 20.6051 5.2399 22.3593 7.404 22.3593 L 7.404 22.3593 L 7.404 22.3593 Z M 26.0724 27.3295 C 26.0724 26.3118 25.8427 25.3489 25.4328 24.4899 C 23.9307 25.9525 21.8773 26.8554 19.6121 26.8554 C 17.2423 26.8554 15.104 25.8685 13.5865 24.2832 C 13.1124 25.1946 12.844 26.2303 12.844 27.3321 C 12.844 30.9853 15.8054 33.945 19.4578 33.945 C 23.1119 33.9433 26.0724 30.9828 26.0724 27.3295 L 26.0724 27.3295 L 26.0724 27.3295 Z M 25.5306 12.6246 C 25.8795 11.8196 26.0733 10.9305 26.0733 9.9968 C 26.0733 6.3435 23.1119 3.3821 19.4595 3.3821 C 15.8071 3.3821 12.8457 6.3435 12.8457 9.9968 C 12.8457 11.0891 13.1098 12.1171 13.475 12.8561 C 14.9994 11.2014 17.1849 10.1631 19.6138 10.1631 C 21.9262 10.1631 24.0199 11.1045 25.5306 12.6246 L 25.5306 12.6246 L 25.5306 12.6246 Z M 27.6337 15.4583 C 28.1499 17.1053 28.3308 19.8592 27.6337 21.7042 L 30.8575 18.6143 L 27.6337 15.4583 L 27.6337 15.4583 L 27.6337 15.4583 Z M 9.6794 9.9282 C 9.6794 4.489 14.0889 0.0795 19.5281 0.0795 C 24.9673 0.0795 29.3768 4.489 29.3768 9.9282 C 29.3768 11.8547 33.2058 16.6534 35.1015 18.9109 C 33.1149 20.5365 29.3768 25.3224 29.3768 27.2617 C 29.3768 32.7009 24.9673 37.1096 19.5281 37.1096 C 14.0889 37.1096 9.6794 32.6992 9.6794 27.2617 C 9.6794 26.5973 9.7454 25.9474 9.8715 25.3181 C 9.1007 25.5942 8.2699 25.7451 7.4048 25.7451 C 3.3692 25.7451 0.0991 22.4759 0.0991 18.4394 C 0.0991 14.4046 3.3692 11.1337 7.4048 11.1337 C 8.2476 11.1337 9.0578 11.2768 9.8123 11.5392 C 9.7249 11.0171 9.6794 10.4778 9.6794 9.9282 L 9.6794 9.9282 L 9.6794 9.9282 Z " stroke-width="0.8573749661445618"/>
    <path id="ID0.7789692673832178" fill="url(#grad_3-.8573749661445618,0,0,0.8573749661445618,-23.05000000000001,-48.85000000000002)" d="M 31.2647 14.9841 L 79.835 14.9841 L 79.835 22.3867 L 31.2647 22.3867 L 31.2647 14.9841 L 31.2647 14.9841 Z " stroke-width="0.8573749661445618"/>
    <path id="ID0.578137279022485" fill="url(#grad_4-.8573749661445618,0,0,0.8573749661445618,-23.05000000000001,-48.85000000000002)" d="M 31.8066 15.1642 C 31.8066 14.4671 32.3321 13.9004 32.9803 13.9004 L 32.9803 13.9004 C 33.6285 13.9004 34.1541 14.4663 34.1541 15.1642 L 34.1541 22.2067 C 34.1541 22.9046 33.6285 23.4713 32.9803 23.4713 L 32.9803 23.4713 C 32.3321 23.4713 31.8066 22.9054 31.8066 22.2067 L 31.8066 15.1642 L 31.8066 15.1642 L 31.8066 15.1642 L 31.8066 15.1642 Z " stroke-width="0.8573749661445618"/>
    <path id="ID0.029240664094686508" fill="url(#grad_5-.8573749661445618,0,0,0.8573749661445618,-23.05000000000001,-48.85000000000002)" d="M 34.4241 15.1642 C 34.4241 14.4671 34.9497 13.9004 35.5979 13.9004 L 35.5979 13.9004 C 36.2461 13.9004 36.7716 14.4663 36.7716 15.1642 L 36.7716 22.2067 C 36.7716 22.9046 36.2461 23.4713 35.5979 23.4713 L 35.5979 23.4713 C 34.9497 23.4713 34.4241 22.9054 34.4241 22.2067 L 34.4241 15.1642 L 34.4241 15.1642 L 34.4241 15.1642 L 34.4241 15.1642 Z " stroke-width="0.8573749661445618"/>
    <path id="ID0.5972161572426558" fill="url(#grad_6-.8573749661445618,0,0,0.8573749661445618,-23.05000000000001,-48.85000000000002)" d="M 64.9853 6.6779 L 68.6857 6.6779 L 68.6857 15.3451 L 64.9853 15.3451 L 64.9853 6.6779 " stroke-width="0.8573749661445618"/>
    <path id="ID0.19716371269896626" fill="url(#grad_7-.939393937587738,0,0,0.939393937587738,-190.5,-122)" stroke="none" d="M 19.6894 11.3939 C 21.8275 11.3939 23.7654 12.183 25.1679 13.4587 C 26.5714 14.7344 27.4394 16.4958 27.4394 18.4394 C 27.4394 20.383 26.5714 22.1444 25.1679 23.4201 C 23.7654 24.6958 21.8275 25.4848 19.6894 25.4848 C 17.5513 25.4848 15.6134 24.6958 14.2108 23.4201 C 12.8074 22.1444 11.9394 20.383 11.9394 18.4394 C 11.9394 16.4958 12.8074 14.7344 14.2108 13.4587 C 15.6134 12.183 17.5513 11.3939 19.6894 11.3939 Z " stroke-width="0.939393937587738"/>
  </g>
</svg>