<svg version="1.1" xmlns="http://www.w3.org/2000/svg" xmlns:xlink="http://www.w3.org/1999/xlink" width="44.925" height="32.9" viewBox="0,0,44.925,32.9"><g transform="translate(-217.8,-163.15)"><g data-paper-data="{&quot;isPaintingLayer&quot;:true}" fill-rule="nonzero" stroke-linejoin="miter" stroke-miterlimit="10" stroke-dasharray="" stroke-dashoffset="0" style="mix-blend-mode: normal"><path d="M233.45,192h-14.65" id="ID0.5386399938724935" fill="none" stroke="#000000" stroke-width="2" stroke-linecap="round"/><path d="M219.3,167.95h14.65" id="ID0.5386399938724935" fill="none" stroke="#000000" stroke-width="2" stroke-linecap="round"/><path d="M261.725,180.125h-14.65" id="ID0.5386399938724935" fill="none" stroke="#000000" stroke-width="2" stroke-linecap="round"/><path d="M239.4,164.15c3.89,0.606 8.125,1.731 10.922,4.528c2.797,2.797 4.528,6.659 4.528,10.922c0,4.263 -1.731,8.125 -4.528,10.922c-2.797,2.797 -7.02,4.004 -10.922,4.528c-3.95,0.53 -9.112,1.461 -11.75,-1.45c-3.281,-3.544 -2.588,-9.405 -2.6,-14.2c-0.012,-4.796 -0.885,-10.719 2.4,-14.2c2.741,-2.923 7.985,-1.668 11.95,-1.05z" id="ID0.6322016669437289" fill="#ffffff" stroke="#000000" stroke-width="2" stroke-linecap="butt"/><text transform="translate(227.8541,182.58148) scale(0.48965,0.48965)" font-size="22" xml:space="preserve" id="ID0.19890772365033627" fill="#000000" fill-rule="nonzero" stroke="none" stroke-width="1" stroke-linecap="butt" stroke-linejoin="miter" stroke-miterlimit="10" stroke-dasharray="" stroke-dashoffset="0" font-family="Sans Serif" font-weight="400" text-anchor="start" style="mix-blend-mode: normal"><tspan x="0" dy="0">AND</tspan></text></g></g></svg>