<svg xmlns="http://www.w3.org/2000/svg" xmlns:xlink="http://www.w3.org/1999/xlink" version="1.1" width="150.9701127408254" height="339.17122358066916" viewBox="10.239944011057027 -1.1830955444925952 150.9701127408254 339.17122358066916">
  <defs>
    <radialGradient id="grad_1" cx="0.1673" cy="0.1648" r="1.0857599999999998">
      <stop offset="0" stop-color="#FF9400" stop-opacity="1"/>
      <stop offset="1" stop-color="#995900" stop-opacity="1"/>
    </radialGradient>
    <radialGradient id="grad_2" cx="0.102" cy="0.1648" r="1.1674">
      <stop offset="0" stop-color="#FF9400" stop-opacity="1"/>
      <stop offset="1" stop-color="#995900" stop-opacity="1"/>
    </radialGradient>
    <radialGradient id="grad_3" cx="0.1959" cy="0.1791" r="1.06717">
      <stop offset="0" stop-color="#FF9400" stop-opacity="1"/>
      <stop offset="1" stop-color="#995900" stop-opacity="1"/>
    </radialGradient>
    <radialGradient id="grad_4" cx="0.0897" cy="0.1461" r="1.18339">
      <stop offset="0" stop-color="#FF9400" stop-opacity="1"/>
      <stop offset="1" stop-color="#995900" stop-opacity="1"/>
    </radialGradient>
    <radialGradient id="grad_5" cx="0.6333" cy="0.2954" r="0.91598">
      <stop offset="0" stop-color="#003FFF" stop-opacity="1"/>
      <stop offset="1" stop-color="#002699" stop-opacity="1"/>
    </radialGradient>
    <radialGradient id="grad_6" cx="0.466" cy="0.1754" r="1.07198">
      <stop offset="0" stop-color="#003FFF" stop-opacity="1"/>
      <stop offset="1" stop-color="#002699" stop-opacity="1"/>
    </radialGradient>
    <radialGradient id="grad_7" cx="0.6916" cy="0.3453" r="0.89908">
      <stop offset="0" stop-color="#003FFF" stop-opacity="1"/>
      <stop offset="1" stop-color="#002699" stop-opacity="1"/>
    </radialGradient>
    <radialGradient id="grad_8" cx="0.9416" cy="0.2486" r="1.22408">
      <stop offset="0" stop-color="#003FFF" stop-opacity="1"/>
      <stop offset="1" stop-color="#002699" stop-opacity="1"/>
    </radialGradient>
    <radialGradient id="grad_9" cx="0.2842" cy="0.233" r="0.9971">
      <stop offset="0" stop-color="#003FFF" stop-opacity="1"/>
      <stop offset="1" stop-color="#002699" stop-opacity="1"/>
    </radialGradient>
    <radialGradient id="grad_10" cx="0.040999999999999995" cy="0.1319" r="1.2467">
      <stop offset="0" stop-color="#003FFF" stop-opacity="1"/>
      <stop offset="1" stop-color="#002699" stop-opacity="1"/>
    </radialGradient>
    <radialGradient id="grad_11" cx="0.2727" cy="0.11789999999999999" r="1.14673">
      <stop offset="0" stop-color="#995900" stop-opacity="1"/>
      <stop offset="1" stop-color="#663B00" stop-opacity="1"/>
    </radialGradient>
    <radialGradient id="grad_12" cx="0.2548" cy="0.09380000000000001" r="1.1780599999999999">
      <stop offset="0" stop-color="#995900" stop-opacity="1"/>
      <stop offset="1" stop-color="#663B00" stop-opacity="1"/>
    </radialGradient>
  <radialGradient id="grad_1-.611013412475586,0,0,2.280764579772949,-544.45,-288.4" cx="100.3785" cy="233.1397" r="84.1136" gradientUnits="userSpaceOnUse">
      <stop offset="0" stop-color="#FF9400" stop-opacity="1"/>
      <stop offset="1" stop-color="#995900" stop-opacity="1"/>
    </radialGradient><radialGradient id="grad_3-.611013412475586,0,0,2.280764579772949,-591.55,-288.15" cx="54.0439" cy="234.8084" r="82.6734" gradientUnits="userSpaceOnUse">
      <stop offset="0" stop-color="#FF9400" stop-opacity="1"/>
      <stop offset="1" stop-color="#995900" stop-opacity="1"/>
    </radialGradient><radialGradient id="grad_5-.82351815700531,-0.6343110799789429,0.4976893663406372,2.3240959644317627,-522.4,-76" cx="132.2618" cy="125.1922" r="66.7371" gradientUnits="userSpaceOnUse">
      <stop offset="0" stop-color="#003FFF" stop-opacity="1"/>
      <stop offset="1" stop-color="#002699" stop-opacity="1"/>
    </radialGradient><radialGradient id="grad_7-1.82351815700531,-0.6343110799789429,-0.4976893663406372,2.3240959644317627,693.85,-75.75" cx="36.3684" cy="130.0751" r="65.5058" gradientUnits="userSpaceOnUse">
      <stop offset="0" stop-color="#003FFF" stop-opacity="1"/>
      <stop offset="1" stop-color="#002699" stop-opacity="1"/>
    </radialGradient><radialGradient id="grad_9-.0538699626922607,0,0,2.0538699626922607,-399.15,-224.85" cx="64.1566" cy="119.7532" r="114.4181" gradientUnits="userSpaceOnUse">
      <stop offset="0" stop-color="#003FFF" stop-opacity="1"/>
      <stop offset="1" stop-color="#002699" stop-opacity="1"/>
    </radialGradient><radialGradient id="grad_11-,0,0,1,-152.3,-15.5" cx="61.1499" cy="13.2755" r="121.221" gradientUnits="userSpaceOnUse">
      <stop offset="0" stop-color="#995900" stop-opacity="1"/>
      <stop offset="1" stop-color="#663B00" stop-opacity="1"/>
    </radialGradient></defs>
  <!-- Exported by Scratch - http://scratch.mit.edu/ -->
  <g id="ID0.5054575479589403">
    <g id="ID0.9803413534536958">
      <path id="ID0.7297148094512522" fill="#FFDEAE" d="M 18.4326 208.886 C 17.0764 211.9907 14.5835 215.0468 14.8378 218.5974 C 15.2952 224.978 17.4871 231.2751 20.3183 237.0314 C 20.9958 238.4672 23.5035 238.8995 24.6857 238.0171 C 25.6572 237.3393 24.8479 235.3563 24.6336 233.8964 C 24.0491 230.423 22.5698 227.1749 22.0689 223.6087 C 21.7453 221.4862 21.1655 219.125 21.9999 217.1472 C 24.6479 214.098 26.5785 214.8896 28.4629 214.1763 C 32.4917 214.9823 33.5704 210.2884 34.5119 206.6984 C 35.3333 203.8589 37.7542 200.029 35.7413 197.7519 C 33.1687 194.7881 28.1168 193.7763 24.2256 194.9405 C 21.7047 195.7098 22.3855 199.9559 21.3621 202.3356 C 20.4195 204.5308 19.2519 206.567 18.4326 208.886 Z " stroke-width="2.646321324006666"/>
      <path id="ID0.7297148094512522" fill="#FFD499" d="M 32.9714 207.4727 C 30.4744 206.3704 27.7783 209.1709 25.3801 210.5938 C 23.5298 211.6959 21.3319 212.779 20.5574 214.9291 C 19.5906 217.6365 20.6401 220.689 21.0235 223.5567 C 21.4304 226.5656 21.7296 229.7152 23.1666 232.4265 C 23.9466 234.049 26.4191 236.6426 27.3578 235.9339 C 28.4868 235.076 27.586 231.3731 27.2045 229.1888 C 26.6238 225.8859 25.4631 222.6837 24.905 219.3778 C 24.6769 218.0541 24.3066 216.6135 24.9371 215.5408 C 25.5951 214.5438 27.0576 213.7362 28.1656 214.1488 C 29.3789 214.6005 29.7316 216.2353 30.3056 217.4018 C 31.2728 219.3675 31.5607 221.6648 32.6312 223.5628 C 33.2892 224.7339 34.0219 226.3137 35.2541 226.3635 C 36.5342 226.4373 37.8729 225.0639 37.9582 223.831 C 38.1601 220.872 37.0154 217.9812 36.183 215.1605 C 35.4013 212.5063 35.5657 208.52 32.9714 207.4727 Z " stroke-width="2.646321324006666"/>
    </g>
    <g id="ID0.9803413534536958">
      <path id="ID0.7297148094512522" fill="#FFDEAE" d="M 153.8174 208.636 C 155.1736 211.7407 157.6665 214.7968 157.4122 218.3474 C 156.9548 224.728 154.7629 231.0251 151.9317 236.7814 C 151.2542 238.2172 148.7465 238.6495 147.5643 237.7671 C 146.5928 237.0893 147.4021 235.1063 147.6164 233.6464 C 148.2009 230.173 149.6802 226.9249 150.1811 223.3587 C 150.5047 221.2362 151.0845 218.875 150.2501 216.8972 C 147.6021 213.848 145.6715 214.6396 143.7871 213.9263 C 139.7583 214.7323 138.6796 210.0384 137.7381 206.4484 C 136.9167 203.6089 134.4958 199.779 136.5087 197.5019 C 139.0813 194.5381 144.1332 193.5263 148.0244 194.6905 C 150.5453 195.4598 149.8645 199.7059 150.8879 202.0856 C 151.8305 204.2808 152.9981 206.317 153.8174 208.636 Z " stroke-width="2.646321324006666"/>
      <path id="ID0.7297148094512522" fill="#FFD499" d="M 139.2786 207.2227 C 141.7756 206.1204 144.4717 208.9209 146.8699 210.3438 C 148.7202 211.4459 150.9181 212.529 151.6926 214.6791 C 152.6594 217.3865 151.6099 220.439 151.2265 223.3067 C 150.8196 226.3156 150.5204 229.4652 149.0834 232.1765 C 148.3034 233.799 145.8309 236.3926 144.8922 235.6839 C 143.7632 234.826 144.664 231.1231 145.0455 228.9388 C 145.6262 225.6359 146.7869 222.4337 147.345 219.1278 C 147.5731 217.8041 147.9434 216.3635 147.3129 215.2908 C 146.6549 214.2938 145.1924 213.4862 144.0844 213.8988 C 142.8711 214.3505 142.5184 215.9853 141.9444 217.1518 C 140.9772 219.1175 140.6893 221.4148 139.6188 223.3128 C 138.9608 224.4839 138.2281 226.0637 136.9959 226.1135 C 135.7158 226.1873 134.3771 224.8139 134.2918 223.581 C 134.0899 220.622 135.2346 217.7312 136.067 214.9105 C 136.8487 212.2563 136.6843 208.27 139.2786 207.2227 Z " stroke-width="2.646321324006666"/>
    </g>
    <g id="ID0.7356321816332638">
      <path id="ID0.8654622961767018" fill="#000000" stroke="#000000" stroke-width="4.1077399253845215" d="M 109.169 315.752 C 114.1271 315.752 118.6209 316.9309 121.8743 318.8369 C 125.1276 320.7429 127.1404 323.3739 127.1404 326.2781 C 127.1404 329.1823 124.6141 332.3904 121.8743 333.7193 C 118.0808 335.5575 113.4082 335.1077 109.0663 335.1611 C 104.8949 335.1077 100.3169 335.5657 96.4638 333.7193 C 93.7198 332.4007 91.1977 329.1823 91.1977 326.2781 C 91.1977 323.3739 93.2105 320.7429 96.4638 318.8369 C 99.7171 316.9309 104.211 315.752 109.169 315.752 Z "/>
      <path id="ID0.47236768435686827" fill="url(#grad_1-.611013412475586,0,0,2.280764579772949,-544.45,-288.4)" stroke="url(#grad_2)" stroke-width="4.90291303379415" d="M 95.901 216.7894 L 122.6639 216.7894 L 122.6639 316.0026 L 95.901 316.0026 L 95.901 216.7894 Z "/>
    </g>
    <g id="ID0.7477488755248487">
      <path id="ID0.8654622961767018" fill="#000000" stroke="#000000" stroke-width="4.1077399253845215" d="M 62.069 316.002 C 67.0271 316.002 71.5209 317.1809 74.7743 319.0869 C 78.0276 320.9929 80.0404 323.6239 80.0404 326.5281 C 80.0404 329.4323 77.5367 332.6384 74.7743 333.9693 C 70.7507 335.902 65.8975 335.4932 61.5556 335.5138 C 57.3739 335.4932 52.9252 335.8177 49.3638 333.9693 C 46.6424 332.5541 44.0977 329.4323 44.0977 326.5281 C 44.0977 323.6239 46.1105 320.9929 49.3638 319.0869 C 52.6171 317.1809 57.111 316.002 62.069 316.002 Z "/>
      <path id="ID0.47236768435686827" fill="url(#grad_3-.611013412475586,0,0,2.280764579772949,-591.55,-288.15)" stroke="url(#grad_4)" stroke-width="4.90291303379415" d="M 48.801 217.0394 L 75.5639 217.0394 L 75.5639 316.2526 L 48.801 316.2526 L 48.801 217.0394 Z "/>
    </g>
    <path id="ID0.41013610642403364" fill="url(#grad_5-.82351815700531,-0.6343110799789429,0.4976893663406372,2.3240959644317627,-522.4,-76)" stroke="url(#grad_6)" d="M 130.4112 92.6036 L 135.9491 97.4197 L 158.7586 195.2426 L 129.5823 205.3916 L 122.9127 114.3157 L 130.4112 92.6036 Z " stroke-width="2.155289382121667"/>
    <path id="ID0.41013610642403364" fill="url(#grad_7-1.82351815700531,-0.6343110799789429,-0.4976893663406372,2.3240959644317627,693.85,-75.75)" stroke="url(#grad_8)" d="M 41.0388 92.8536 L 35.5009 97.6697 L 12.6914 195.4926 L 41.8677 205.6416 L 48.5373 114.5657 L 41.0388 92.8536 Z " stroke-width="2.155289382121667"/>
    <path id="ID0.43916446389630437" fill="url(#grad_9-.0538699626922607,0,0,2.0538699626922607,-399.15,-224.85)" stroke="url(#grad_10)" d="M 36.1677 96.478 L 40.5836 91.9594 L 46.2317 89.9056 L 125.1003 89.7002 L 130.8511 91.7541 L 134.6508 96.1699 L 127.4623 166.2068 L 127.4623 218.6832 L 44.1778 218.6832 L 44.1778 165.6934 L 36.1677 96.478 Z " stroke-width="2.0538699626922607"/>
    <g id="ID0.7377356672659516">
      <path id="ID0.20264252508059144" fill="url(#grad_11-,0,0,1,-152.3,-15.5)" stroke="url(#grad_12)" stroke-width="2" stroke-linecap="round" d="M 33.2 28.5 C 34.222 26.753 37.791 28.941 39.2 27.5 C 40.604 26.044 38.239 22.342 39.95 21 C 41.705 19.866 44.373 23.49 46.2 22.5 C 47.907 21.56 46.844 18.21 48.2 17 C 49.2 16.117 51.008 17 52.2 17 C 54.282 17 55.158 17.724 56.2 17 C 57.031 16.409 56.253 14.67 56.7 13.5 C 57.283 12.266 58.166 11.153 59.2 10 C 60.954 8.147 62.563 6.428 64.2 6 C 66.099 7.304 66.564 7.834 67.7 8 C 69.995 7.362 70.119 6.426 71.2 6 C 74.098 5.445 74.778 5.706 76.2 5.5 C 78.538 4.944 79.036 4.693 80.2 4.5 C 82.541 4.374 83.116 4.403 84.2 4 C 86.541 2.441 87.114 1.893 88.2 1.5 C 88.83 1.291 89.667 1.105 90.2 1.5 C 91.463 3.763 91.222 4.684 92.2 5.5 C 94.477 5.685 95.072 5.689 96.2 5.5 C 98.525 4.586 99.141 4.054 100.2 4.5 C 100.915 6.681 100.145 7.496 100.7 8.5 C 102.884 10.153 103.484 10.17 104.7 10.5 C 107.189 10.586 107.89 10.522 109.2 10.5 C 111.546 10.416 112.21 9.785 113.2 10 C 113.887 10.16 114.431 10.847 114.7 11.5 C 114.878 13.826 114.713 14.455 115.2 15.5 C 116.967 17.255 117.546 17.558 118.7 18 C 121.015 18.105 121.556 17.979 122.7 18 C 125.046 18.085 125.72 18.241 126.7 18.5 C 127.562 18.743 128.574 18.87 129.2 19.5 C 130.186 21.799 129.687 22.491 129.7 23.5 C 129.686 24.162 129.292 24.982 129.7 25.5 C 132.116 26.694 132.906 26.539 134.2 27 C 136.967 28.125 137.821 28.202 138.7 29 C 139.188 29.478 139.418 30.351 139.2 31 C 137.542 32.815 136.935 33.034 136.2 34 C 134.984 36.302 134.37 36.743 134.2 38 C 134.962 40.365 135.895 40.532 136.7 41.5 C 137.146 42.012 137.436 42.671 137.95 43 C 138.661 43.371 139.7 42.959 140.2 43.5 C 140.812 45.782 140.789 46.356 140.7 47.5 C 139.996 49.789 139.439 50.106 138.7 51 C 136.613 52.861 136.274 53.331 135.7 54.5 C 135.287 57.028 135.701 57.684 136.2 59 C 138.477 62.577 139.081 62.838 139.2 64.5 C 137.598 66.307 136.527 66.083 135.7 67 C 134.633 69.267 134.681 69.655 134.7 71 C 134.784 72.424 135.733 73.174 135.95 74.25 C 136.073 75.384 136.542 77.093 135.7 77.5 C 134.478 78.057 133.045 76.399 131.7 76.5 C 130.796 76.774 129.71 77.649 129.7 78.5 C 129.671 80.443 131.914 82.092 131.7 84 C 131.308 85.425 129.49 86.32 128.2 86.75 C 126.623 87.279 124.567 85.95 123.2 86.5 C 121.642 87.171 120.314 88.474 119.7 90 C 119.167 91.346 121.124 93.391 120.2 94.75 C 119.158 96.012 116.911 96.032 115.2 96 C 113.296 95.961 111.635 94.028 109.7 94 C 108.006 94.21 106.489 95.471 105.2 96.5 C 103.808 97.606 103.588 100.298 101.95 100.75 C 100.176 101.151 98.812 98.323 97.2 98.5 C 95.541 98.699 94.452 100.697 93.2 101.5 C 90.502 102.968 89.75 103.323 88.7 103 C 87.826 102.638 87.655 101.357 87.2 100.5 C 86.12 98.195 86.552 97.349 85.7 96.5 C 82.682 95.433 81.8 95.92 80.2 96 C 77.858 96.518 77.36 96.783 76.2 97 C 71.322 97.734 70.434 98.3 68.2 98 C 66.494 96.347 66.589 95.583 66.2 94.5 C 65.85 92.23 65.55 91.466 64.7 91 C 63.948 90.642 63.043 91.399 62.2 91.5 C 55.371 91.97 54.31 92.419 52.2 92 C 51.406 91.777 50.915 90.8 50.7 90 C 50.686 85.99 51.732 85.527 51.2 84 C 48.9 82.781 47.819 83.719 46.7 83 C 45.575 80.785 45.893 80.245 45.7 79 C 45.204 75.007 46.622 74.371 45.2 73 C 43.944 71.873 41.927 74.405 40.2 74.25 C 38.202 73.784 35.309 73.196 34.7 71.25 C 33.936 68.813 37.971 66.409 37.2 64 C 36.64 62.272 33.204 63.722 32.2 62.25 C 31.005 60.824 31.19 58.519 31.7 56.75 C 32.224 54.947 33.941 53.747 34.7 52 C 35.455 50.636 36.168 49.137 36.2 47.5 C 36.224 46.363 36.047 44.968 35.2 44.25 C 34.275 43.196 31.639 44.089 31.45 42.75 C 31.152 40.516 34.047 38.775 34.45 36.5 C 34.654 33.827 31.861 30.797 33.2 28.5 Z "/>
      <path id="ID0.6422801343724132" fill="none" stroke="#000000" stroke-width="0.9446965000148362" stroke-linecap="round" d="M 35.125 32.7055 C 35.125 32.7055 36.2327 32.849 36.7706 32.99 C 37.2518 33.1161 37.6884 33.3917 38.1732 33.5037 C 38.4797 33.5746 39.1175 33.5313 39.1175 33.5313 "/>
      <path id="ID0.7584992088377476" fill="none" stroke="#000000" stroke-width="0.9446965000148362" stroke-linecap="round" d="M 35.2158 37.67 C 35.2158 37.67 36.6019 38.1831 37.3266 38.2044 C 37.7502 38.2168 38.5208 37.7668 38.5208 37.7668 "/>
      <path id="ID0.40438934741541743" fill="none" stroke="#000000" stroke-width="0.9446965000148362" stroke-linecap="round" d="M 35.4182 46.8907 C 36.1393 46.4397 36.8818 46.0163 37.5843 45.5365 C 37.7681 45.411 38.0703 45.0782 38.0703 45.0782 "/>
      <path id="ID0.8195131137035787" fill="none" stroke="#000000" stroke-width="0.9446965000148362" stroke-linecap="round" d="M 34.9262 55.6184 C 34.9262 55.6184 35.5422 56.1095 35.8497 56.3543 C 36.1572 56.5991 36.4578 56.8556 36.7732 57.0902 C 37.2283 57.4291 37.6995 57.7477 38.162 58.076 C 38.2777 58.1578 38.162 58.076 38.162 58.076 "/>
      <path id="ID0.923992021009326" fill="none" stroke="#000000" stroke-width="0.9446965000148362" stroke-linecap="round" d="M 34.9824 61.7632 C 34.9824 61.7632 38.9956 61.8808 38.9956 61.8808 "/>
      <path id="ID0.6422801343724132" fill="none" stroke="#000000" stroke-width="0.9446965000148362" stroke-linecap="round" d="M 41.675 23.6555 C 41.675 23.6555 42.7827 23.799 43.3206 23.94 C 43.8018 24.0661 44.2384 24.3417 44.7232 24.4537 C 45.0297 24.5246 45.6675 24.4813 45.6675 24.4813 "/>
      <path id="ID0.7584992088377476" fill="none" stroke="#000000" stroke-width="0.9446965000148362" stroke-linecap="round" d="M 41.7658 28.62 C 41.7658 28.62 43.1519 29.1331 43.8766 29.1544 C 44.3002 29.1668 45.0708 28.7168 45.0708 28.7168 "/>
      <path id="ID0.40438934741541743" fill="none" stroke="#000000" stroke-width="0.9446965000148362" stroke-linecap="round" d="M 41.9682 37.8407 C 42.6893 37.3897 43.4318 36.9663 44.1343 36.4865 C 44.3181 36.361 44.6203 36.0282 44.6203 36.0282 "/>
      <path id="ID0.7633831659331918" fill="none" stroke="#000000" stroke-width="0.9446965000148362" stroke-linecap="round" d="M 40.2327 40.6251 C 40.2327 40.6251 41.8001 40.8511 42.5865 40.9304 C 42.8993 40.9617 43.2163 40.9488 43.5308 40.958 C 43.9241 40.9695 44.3178 40.9811 44.7111 40.9926 C 44.8093 40.9955 44.7111 40.9926 44.7111 40.9926 "/>
      <path id="ID0.8195131137035787" fill="none" stroke="#000000" stroke-width="0.9446965000148362" stroke-linecap="round" d="M 41.4762 46.5684 C 41.4762 46.5684 42.0922 47.0595 42.3997 47.3043 C 42.7072 47.5491 43.0078 47.8056 43.3232 48.0402 C 43.7783 48.3791 44.2495 48.6977 44.712 49.026 C 44.8277 49.1078 44.712 49.026 44.712 49.026 "/>
      <path id="ID0.923992021009326" fill="none" stroke="#000000" stroke-width="0.9446965000148362" stroke-linecap="round" d="M 41.5324 52.7132 C 41.5324 52.7132 45.5456 52.8308 45.5456 52.8308 "/>
      <path id="ID0.6422801343724132" fill="none" stroke="#000000" stroke-width="0.9446965000148362" stroke-linecap="round" d="M 49.525 19.0055 C 49.525 19.0055 50.6327 19.149 51.1706 19.29 C 51.6518 19.4161 52.0884 19.6917 52.5732 19.8037 C 52.8797 19.8746 53.5175 19.8313 53.5175 19.8313 "/>
      <path id="ID0.7584992088377476" fill="none" stroke="#000000" stroke-width="0.9446965000148362" stroke-linecap="round" d="M 49.6158 23.97 C 49.6158 23.97 51.0019 24.4831 51.7266 24.5044 C 52.1502 24.5168 52.9208 24.0668 52.9208 24.0668 "/>
      <path id="ID0.40438934741541743" fill="none" stroke="#000000" stroke-width="0.9446965000148362" stroke-linecap="round" d="M 49.8182 33.1907 C 50.5393 32.7397 51.2818 32.3163 51.9843 31.8365 C 52.1681 31.711 52.4703 31.3782 52.4703 31.3782 "/>
      <path id="ID0.7633831659331918" fill="none" stroke="#000000" stroke-width="0.9446965000148362" stroke-linecap="round" d="M 48.0827 35.9751 C 48.0827 35.9751 49.6501 36.2011 50.4365 36.2804 C 50.7493 36.3117 51.0663 36.2988 51.3808 36.308 C 51.7741 36.3195 52.1678 36.3311 52.5611 36.3426 C 52.6593 36.3455 52.5611 36.3426 52.5611 36.3426 "/>
      <path id="ID0.8195131137035787" fill="none" stroke="#000000" stroke-width="0.9446965000148362" stroke-linecap="round" d="M 49.3262 41.9184 C 49.3262 41.9184 49.9422 42.4095 50.2497 42.6543 C 50.5572 42.8991 50.8578 43.1556 51.1732 43.3902 C 51.6283 43.7291 52.0995 44.0477 52.562 44.376 C 52.6777 44.4578 52.562 44.376 52.562 44.376 "/>
      <path id="ID0.923992021009326" fill="none" stroke="#000000" stroke-width="0.9446965000148362" stroke-linecap="round" d="M 49.3824 48.0632 C 49.3824 48.0632 53.3956 48.1808 53.3956 48.1808 "/>
      <path id="ID0.6422801343724132" fill="none" stroke="#000000" stroke-width="0.9446965000148362" stroke-linecap="round" d="M 57.225 16.0055 C 57.225 16.0055 58.3327 16.149 58.8706 16.29 C 59.3518 16.4161 59.7884 16.6917 60.2732 16.8037 C 60.5797 16.8746 61.2175 16.8313 61.2175 16.8313 "/>
      <path id="ID0.7584992088377476" fill="none" stroke="#000000" stroke-width="0.9446965000148362" stroke-linecap="round" d="M 57.3158 20.97 C 57.3158 20.97 58.7019 21.4831 59.4266 21.5044 C 59.8502 21.5168 60.6208 21.0668 60.6208 21.0668 "/>
      <path id="ID0.40438934741541743" fill="none" stroke="#000000" stroke-width="0.9446965000148362" stroke-linecap="round" d="M 57.5182 30.1907 C 58.2393 29.7397 58.9818 29.3163 59.6843 28.8365 C 59.8681 28.711 60.1703 28.3782 60.1703 28.3782 "/>
      <path id="ID0.7633831659331918" fill="none" stroke="#000000" stroke-width="0.9446965000148362" stroke-linecap="round" d="M 55.7827 32.9751 C 55.7827 32.9751 57.3501 33.2011 58.1365 33.2804 C 58.4493 33.3117 58.7663 33.2988 59.0808 33.308 C 59.4741 33.3195 59.8678 33.3311 60.2611 33.3426 C 60.3593 33.3455 60.2611 33.3426 60.2611 33.3426 "/>
      <path id="ID0.8195131137035787" fill="none" stroke="#000000" stroke-width="0.9446965000148362" stroke-linecap="round" d="M 57.0262 38.9184 C 57.0262 38.9184 57.6422 39.4095 57.9497 39.6543 C 58.2572 39.8991 58.5578 40.1556 58.8732 40.3902 C 59.3283 40.7291 59.7995 41.0477 60.262 41.376 C 60.3777 41.4578 60.262 41.376 60.262 41.376 "/>
      <path id="ID0.923992021009326" fill="none" stroke="#000000" stroke-width="0.9446965000148362" stroke-linecap="round" d="M 57.0824 45.0632 C 57.0824 45.0632 61.0956 45.1808 61.0956 45.1808 "/>
      <path id="ID0.6422801343724132" fill="none" stroke="#000000" stroke-width="0.9446965000148362" stroke-linecap="round" d="M 62.175 9.3055 C 62.175 9.3055 63.2827 9.449 63.8206 9.59 C 64.3018 9.7161 64.7384 9.9917 65.2232 10.1037 C 65.5297 10.1746 66.1675 10.1313 66.1675 10.1313 "/>
      <path id="ID0.7584992088377476" fill="none" stroke="#000000" stroke-width="0.9446965000148362" stroke-linecap="round" d="M 62.2658 14.27 C 62.2658 14.27 63.6519 14.7831 64.3766 14.8044 C 64.8002 14.8168 65.5708 14.3668 65.5708 14.3668 "/>
      <path id="ID0.40438934741541743" fill="none" stroke="#000000" stroke-width="0.9446965000148362" stroke-linecap="round" d="M 62.4682 23.4907 C 63.1893 23.0397 63.9318 22.6163 64.6343 22.1365 C 64.8181 22.011 65.1203 21.6782 65.1203 21.6782 "/>
      <path id="ID0.7633831659331918" fill="none" stroke="#000000" stroke-width="0.9446965000148362" stroke-linecap="round" d="M 60.7327 26.2751 C 60.7327 26.2751 62.3001 26.5011 63.0865 26.5804 C 63.3993 26.6117 63.7163 26.5988 64.0308 26.608 C 64.4241 26.6195 64.8178 26.6311 65.2111 26.6426 C 65.3093 26.6455 65.2111 26.6426 65.2111 26.6426 "/>
      <path id="ID0.8195131137035787" fill="none" stroke="#000000" stroke-width="0.9446965000148362" stroke-linecap="round" d="M 61.9762 32.2184 C 61.9762 32.2184 62.5922 32.7095 62.8997 32.9543 C 63.2072 33.1991 63.5078 33.4556 63.8232 33.6902 C 64.2783 34.0291 64.7495 34.3477 65.212 34.676 C 65.3277 34.7578 65.212 34.676 65.212 34.676 "/>
      <path id="ID0.923992021009326" fill="none" stroke="#000000" stroke-width="0.9446965000148362" stroke-linecap="round" d="M 62.0324 38.3632 C 62.0324 38.3632 66.0456 38.4808 66.0456 38.4808 "/>
      <path id="ID0.6422801343724132" fill="none" stroke="#000000" stroke-width="0.9446965000148362" stroke-linecap="round" d="M 70.275 8.0055 C 70.275 8.0055 71.3827 8.149 71.9206 8.29 C 72.4018 8.4161 72.8384 8.6917 73.3232 8.8037 C 73.6297 8.8746 74.2675 8.8313 74.2675 8.8313 "/>
      <path id="ID0.7584992088377476" fill="none" stroke="#000000" stroke-width="0.9446965000148362" stroke-linecap="round" d="M 70.3658 12.97 C 70.3658 12.97 71.7519 13.4831 72.4766 13.5044 C 72.9002 13.5168 73.6708 13.0668 73.6708 13.0668 "/>
      <path id="ID0.40438934741541743" fill="none" stroke="#000000" stroke-width="0.9446965000148362" stroke-linecap="round" d="M 70.5682 22.1907 C 71.2893 21.7397 72.0318 21.3163 72.7343 20.8365 C 72.9181 20.711 73.2203 20.3782 73.2203 20.3782 "/>
      <path id="ID0.7633831659331918" fill="none" stroke="#000000" stroke-width="0.9446965000148362" stroke-linecap="round" d="M 68.8327 24.9751 C 68.8327 24.9751 70.4001 25.2011 71.1865 25.2804 C 71.4993 25.3117 71.8163 25.2988 72.1308 25.308 C 72.5241 25.3195 72.9178 25.3311 73.3111 25.3426 C 73.4093 25.3455 73.3111 25.3426 73.3111 25.3426 "/>
      <path id="ID0.8195131137035787" fill="none" stroke="#000000" stroke-width="0.9446965000148362" stroke-linecap="round" d="M 70.0762 30.9184 C 70.0762 30.9184 70.6922 31.4095 70.9997 31.6543 C 71.3072 31.8991 71.6078 32.1556 71.9232 32.3902 C 72.3783 32.7291 72.8495 33.0477 73.312 33.376 C 73.4277 33.4578 73.312 33.376 73.312 33.376 "/>
      <path id="ID0.923992021009326" fill="none" stroke="#000000" stroke-width="0.9446965000148362" stroke-linecap="round" d="M 70.1324 37.0632 C 70.1324 37.0632 74.1456 37.1808 74.1456 37.1808 "/>
      <path id="ID0.6422801343724132" fill="none" stroke="#000000" stroke-width="0.9446965000148362" stroke-linecap="round" d="M 77.525 5.1055 C 77.525 5.1055 78.6327 5.249 79.1706 5.39 C 79.6518 5.5161 80.0884 5.7917 80.5732 5.9037 C 80.8797 5.9746 81.5175 5.9313 81.5175 5.9313 "/>
      <path id="ID0.7584992088377476" fill="none" stroke="#000000" stroke-width="0.9446965000148362" stroke-linecap="round" d="M 77.6158 10.07 C 77.6158 10.07 79.0019 10.5831 79.7266 10.6044 C 80.1502 10.6168 80.9208 10.1668 80.9208 10.1668 "/>
      <path id="ID0.40438934741541743" fill="none" stroke="#000000" stroke-width="0.9446965000148362" stroke-linecap="round" d="M 77.8182 19.2907 C 78.5393 18.8397 79.2818 18.4163 79.9843 17.9365 C 80.1681 17.811 80.4703 17.4782 80.4703 17.4782 "/>
      <path id="ID0.7633831659331918" fill="none" stroke="#000000" stroke-width="0.9446965000148362" stroke-linecap="round" d="M 76.0827 22.0751 C 76.0827 22.0751 77.6501 22.3011 78.4365 22.3804 C 78.7493 22.4117 79.0663 22.3988 79.3808 22.408 C 79.7741 22.4195 80.1678 22.4311 80.5611 22.4426 C 80.6593 22.4455 80.5611 22.4426 80.5611 22.4426 "/>
      <path id="ID0.8195131137035787" fill="none" stroke="#000000" stroke-width="0.9446965000148362" stroke-linecap="round" d="M 77.3262 28.0184 C 77.3262 28.0184 77.9422 28.5095 78.2497 28.7543 C 78.5572 28.9991 78.8578 29.2556 79.1732 29.4902 C 79.6283 29.8291 80.0995 30.1477 80.562 30.476 C 80.6777 30.5578 80.562 30.476 80.562 30.476 "/>
      <path id="ID0.923992021009326" fill="none" stroke="#000000" stroke-width="0.9446965000148362" stroke-linecap="round" d="M 77.3824 34.1632 C 77.3824 34.1632 81.3956 34.2808 81.3956 34.2808 "/>
      <path id="ID0.6422801343724132" fill="none" stroke="#000000" stroke-width="0.9446965000148362" stroke-linecap="round" d="M 84.375 4.7055 C 84.375 4.7055 85.4827 4.849 86.0206 4.99 C 86.5018 5.1161 86.9384 5.3917 87.4232 5.5037 C 87.7297 5.5746 88.3675 5.5313 88.3675 5.5313 "/>
      <path id="ID0.7584992088377476" fill="none" stroke="#000000" stroke-width="0.9446965000148362" stroke-linecap="round" d="M 84.4658 9.67 C 84.4658 9.67 85.8519 10.1831 86.5766 10.2044 C 87.0002 10.2168 87.7708 9.7668 87.7708 9.7668 "/>
      <path id="ID0.40438934741541743" fill="none" stroke="#000000" stroke-width="0.9446965000148362" stroke-linecap="round" d="M 84.6682 18.8907 C 85.3893 18.4397 86.1318 18.0163 86.8343 17.5365 C 87.0181 17.411 87.3203 17.0782 87.3203 17.0782 "/>
      <path id="ID0.7633831659331918" fill="none" stroke="#000000" stroke-width="0.9446965000148362" stroke-linecap="round" d="M 82.9327 21.6751 C 82.9327 21.6751 84.5001 21.9011 85.2865 21.9804 C 85.5993 22.0117 85.9163 21.9988 86.2308 22.008 C 86.6241 22.0195 87.0178 22.0311 87.4111 22.0426 C 87.5093 22.0455 87.4111 22.0426 87.4111 22.0426 "/>
      <path id="ID0.8195131137035787" fill="none" stroke="#000000" stroke-width="0.9446965000148362" stroke-linecap="round" d="M 84.1762 27.6184 C 84.1762 27.6184 84.7922 28.1095 85.0997 28.3543 C 85.4072 28.5991 85.7078 28.8556 86.0232 29.0902 C 86.4783 29.4291 86.9495 29.7477 87.412 30.076 C 87.5277 30.1578 87.412 30.076 87.412 30.076 "/>
      <path id="ID0.923992021009326" fill="none" stroke="#000000" stroke-width="0.9446965000148362" stroke-linecap="round" d="M 84.2324 33.7632 C 84.2324 33.7632 88.2456 33.8808 88.2456 33.8808 "/>
      <path id="ID0.6422801343724132" fill="none" stroke="#000000" stroke-width="0.9446965000148362" stroke-linecap="round" d="M 90.875 8.7055 C 90.875 8.7055 91.9827 8.849 92.5206 8.99 C 93.0018 9.1161 93.4384 9.3917 93.9232 9.5037 C 94.2297 9.5746 94.8675 9.5313 94.8675 9.5313 "/>
      <path id="ID0.7584992088377476" fill="none" stroke="#000000" stroke-width="0.9446965000148362" stroke-linecap="round" d="M 90.9658 13.67 C 90.9658 13.67 92.3519 14.1831 93.0766 14.2044 C 93.5002 14.2168 94.2708 13.7668 94.2708 13.7668 "/>
      <path id="ID0.40438934741541743" fill="none" stroke="#000000" stroke-width="0.9446965000148362" stroke-linecap="round" d="M 91.1682 22.8907 C 91.8893 22.4397 92.6318 22.0163 93.3343 21.5365 C 93.5181 21.411 93.8203 21.0782 93.8203 21.0782 "/>
      <path id="ID0.7633831659331918" fill="none" stroke="#000000" stroke-width="0.9446965000148362" stroke-linecap="round" d="M 89.4327 25.6751 C 89.4327 25.6751 91.0001 25.9011 91.7865 25.9804 C 92.0993 26.0117 92.4163 25.9988 92.7308 26.008 C 93.1241 26.0195 93.5178 26.0311 93.9111 26.0426 C 94.0093 26.0455 93.9111 26.0426 93.9111 26.0426 "/>
      <path id="ID0.8195131137035787" fill="none" stroke="#000000" stroke-width="0.9446965000148362" stroke-linecap="round" d="M 90.6762 31.6184 C 90.6762 31.6184 91.2922 32.1095 91.5997 32.3543 C 91.9072 32.5991 92.2078 32.8556 92.5232 33.0902 C 92.9783 33.4291 93.4495 33.7477 93.912 34.076 C 94.0277 34.1578 93.912 34.076 93.912 34.076 "/>
      <path id="ID0.6422801343724132" fill="none" stroke="#000000" stroke-width="0.9446965000148362" stroke-linecap="round" d="M 96.625 6.7055 C 96.625 6.7055 97.7327 6.849 98.2706 6.99 C 98.7518 7.1161 99.1884 7.3917 99.6732 7.5037 C 99.9797 7.5746 100.6175 7.5313 100.6175 7.5313 "/>
      <path id="ID0.7584992088377476" fill="none" stroke="#000000" stroke-width="0.9446965000148362" stroke-linecap="round" d="M 96.7158 11.67 C 96.7158 11.67 98.1019 12.1831 98.8266 12.2044 C 99.2502 12.2168 100.0208 11.7668 100.0208 11.7668 "/>
      <path id="ID0.40438934741541743" fill="none" stroke="#000000" stroke-width="0.9446965000148362" stroke-linecap="round" d="M 96.9182 20.8907 C 97.6393 20.4397 98.3818 20.0163 99.0843 19.5365 C 99.2681 19.411 99.5703 19.0782 99.5703 19.0782 "/>
      <path id="ID0.7633831659331918" fill="none" stroke="#000000" stroke-width="0.9446965000148362" stroke-linecap="round" d="M 95.1827 23.6751 C 95.1827 23.6751 96.7501 23.9011 97.5365 23.9804 C 97.8493 24.0117 98.1663 23.9988 98.4808 24.008 C 98.8741 24.0195 99.2678 24.0311 99.6611 24.0426 C 99.7593 24.0455 99.6611 24.0426 99.6611 24.0426 "/>
      <path id="ID0.8195131137035787" fill="none" stroke="#000000" stroke-width="0.9446965000148362" stroke-linecap="round" d="M 96.4262 29.6184 C 96.4262 29.6184 97.0422 30.1095 97.3497 30.3543 C 97.6572 30.5991 97.9578 30.8556 98.2732 31.0902 C 98.7283 31.4291 99.1995 31.7477 99.662 32.076 C 99.7777 32.1578 99.662 32.076 99.662 32.076 "/>
      <path id="ID0.923992021009326" fill="none" stroke="#000000" stroke-width="0.9446965000148362" stroke-linecap="round" d="M 96.4824 35.7632 C 96.4824 35.7632 100.4956 35.8808 100.4956 35.8808 "/>
      <path id="ID0.6422801343724132" fill="none" stroke="#000000" stroke-width="0.9446965000148362" stroke-linecap="round" d="M 103.725 11.7555 C 103.725 11.7555 104.8327 11.899 105.3706 12.04 C 105.8518 12.1661 106.2884 12.4417 106.7732 12.5537 C 107.0797 12.6246 107.7175 12.5813 107.7175 12.5813 "/>
      <path id="ID0.7584992088377476" fill="none" stroke="#000000" stroke-width="0.9446965000148362" stroke-linecap="round" d="M 103.8158 16.72 C 103.8158 16.72 105.2019 17.2331 105.9266 17.2544 C 106.3502 17.2668 107.1208 16.8168 107.1208 16.8168 "/>
      <path id="ID0.40438934741541743" fill="none" stroke="#000000" stroke-width="0.9446965000148362" stroke-linecap="round" d="M 104.0182 25.9407 C 104.7393 25.4897 105.4818 25.0663 106.1843 24.5865 C 106.3681 24.461 106.6703 24.1282 106.6703 24.1282 "/>
      <path id="ID0.7633831659331918" fill="none" stroke="#000000" stroke-width="0.9446965000148362" stroke-linecap="round" d="M 102.2827 28.7251 C 102.2827 28.7251 103.8501 28.9511 104.6365 29.0304 C 104.9493 29.0617 105.2663 29.0488 105.5808 29.058 C 105.9741 29.0695 106.3678 29.0811 106.7611 29.0926 C 106.8593 29.0955 106.7611 29.0926 106.7611 29.0926 "/>
      <path id="ID0.8195131137035787" fill="none" stroke="#000000" stroke-width="0.9446965000148362" stroke-linecap="round" d="M 103.5262 34.6684 C 103.5262 34.6684 104.1422 35.1595 104.4497 35.4043 C 104.7572 35.6491 105.0578 35.9056 105.3732 36.1402 C 105.8283 36.4791 106.2995 36.7977 106.762 37.126 C 106.8777 37.2078 106.762 37.126 106.762 37.126 "/>
      <path id="ID0.923992021009326" fill="none" stroke="#000000" stroke-width="0.9446965000148362" stroke-linecap="round" d="M 103.5824 40.8132 C 103.5824 40.8132 107.5956 40.9308 107.5956 40.9308 "/>
      <path id="ID0.6422801343724132" fill="none" stroke="#000000" stroke-width="0.9446965000148362" stroke-linecap="round" d="M 110.725 15.2555 C 110.725 15.2555 111.8327 15.399 112.3706 15.54 C 112.8518 15.6661 113.2884 15.9417 113.7732 16.0537 C 114.0797 16.1246 114.7175 16.0813 114.7175 16.0813 "/>
      <path id="ID0.7584992088377476" fill="none" stroke="#000000" stroke-width="0.9446965000148362" stroke-linecap="round" d="M 110.8158 20.22 C 110.8158 20.22 112.2019 20.7331 112.9266 20.7544 C 113.3502 20.7668 114.1208 20.3168 114.1208 20.3168 "/>
      <path id="ID0.40438934741541743" fill="none" stroke="#000000" stroke-width="0.9446965000148362" stroke-linecap="round" d="M 111.0182 29.4407 C 111.7393 28.9897 112.4818 28.5663 113.1843 28.0865 C 113.3681 27.961 113.6703 27.6282 113.6703 27.6282 "/>
      <path id="ID0.7633831659331918" fill="none" stroke="#000000" stroke-width="0.9446965000148362" stroke-linecap="round" d="M 109.2827 32.2251 C 109.2827 32.2251 110.8501 32.4511 111.6365 32.5304 C 111.9493 32.5617 112.2663 32.5488 112.5808 32.558 C 112.9741 32.5695 113.3678 32.5811 113.7611 32.5926 C 113.8593 32.5955 113.7611 32.5926 113.7611 32.5926 "/>
      <path id="ID0.8195131137035787" fill="none" stroke="#000000" stroke-width="0.9446965000148362" stroke-linecap="round" d="M 110.5262 38.1684 C 110.5262 38.1684 111.1422 38.6595 111.4497 38.9043 C 111.7572 39.1491 112.0578 39.4056 112.3732 39.6402 C 112.8283 39.9791 113.2995 40.2977 113.762 40.626 C 113.8777 40.7078 113.762 40.626 113.762 40.626 "/>
      <path id="ID0.923992021009326" fill="none" stroke="#000000" stroke-width="0.9446965000148362" stroke-linecap="round" d="M 110.5824 44.3132 C 110.5824 44.3132 114.5956 44.4308 114.5956 44.4308 "/>
      <path id="ID0.6422801343724132" fill="none" stroke="#000000" stroke-width="0.9446965000148362" stroke-linecap="round" d="M 118.925 20.2555 C 118.925 20.2555 120.0327 20.399 120.5706 20.54 C 121.0518 20.6661 121.4884 20.9417 121.9732 21.0537 C 122.2797 21.1246 122.9175 21.0813 122.9175 21.0813 "/>
      <path id="ID0.7584992088377476" fill="none" stroke="#000000" stroke-width="0.9446965000148362" stroke-linecap="round" d="M 119.0158 25.22 C 119.0158 25.22 120.4019 25.7331 121.1266 25.7544 C 121.5502 25.7668 122.3208 25.3168 122.3208 25.3168 "/>
      <path id="ID0.40438934741541743" fill="none" stroke="#000000" stroke-width="0.9446965000148362" stroke-linecap="round" d="M 119.2182 34.4407 C 119.9393 33.9897 120.6818 33.5663 121.3843 33.0865 C 121.5681 32.961 121.8703 32.6282 121.8703 32.6282 "/>
      <path id="ID0.7633831659331918" fill="none" stroke="#000000" stroke-width="0.9446965000148362" stroke-linecap="round" d="M 117.4827 37.2251 C 117.4827 37.2251 119.0501 37.4511 119.8365 37.5304 C 120.1493 37.5617 120.4663 37.5488 120.7808 37.558 C 121.1741 37.5695 121.5678 37.5811 121.9611 37.5926 C 122.0593 37.5955 121.9611 37.5926 121.9611 37.5926 "/>
      <path id="ID0.8195131137035787" fill="none" stroke="#000000" stroke-width="0.9446965000148362" stroke-linecap="round" d="M 118.7262 43.1684 C 118.7262 43.1684 119.3422 43.6595 119.6497 43.9043 C 119.9572 44.1491 120.2578 44.4056 120.5732 44.6402 C 121.0283 44.9791 121.4995 45.2977 121.962 45.626 C 122.0777 45.7078 121.962 45.626 121.962 45.626 "/>
      <path id="ID0.6422801343724132" fill="none" stroke="#000000" stroke-width="0.9446965000148362" stroke-linecap="round" d="M 125.325 21.7055 C 125.325 21.7055 126.4327 21.849 126.9706 21.99 C 127.4518 22.1161 127.8884 22.3917 128.3732 22.5037 C 128.6797 22.5746 129.3175 22.5313 129.3175 22.5313 "/>
      <path id="ID0.7584992088377476" fill="none" stroke="#000000" stroke-width="0.9446965000148362" stroke-linecap="round" d="M 125.4158 26.67 C 125.4158 26.67 126.8019 27.1831 127.5266 27.2044 C 127.9502 27.2168 128.7208 26.7668 128.7208 26.7668 "/>
      <path id="ID0.40438934741541743" fill="none" stroke="#000000" stroke-width="0.9446965000148362" stroke-linecap="round" d="M 125.6182 35.8907 C 126.3393 35.4397 127.0818 35.0163 127.7843 34.5365 C 127.9681 34.411 128.2703 34.0782 128.2703 34.0782 "/>
      <path id="ID0.7633831659331918" fill="none" stroke="#000000" stroke-width="0.9446965000148362" stroke-linecap="round" d="M 123.8827 38.6751 C 123.8827 38.6751 125.4501 38.9011 126.2365 38.9804 C 126.5493 39.0117 126.8663 38.9988 127.1808 39.008 C 127.5741 39.0195 127.9678 39.0311 128.3611 39.0426 C 128.4593 39.0455 128.3611 39.0426 128.3611 39.0426 "/>
      <path id="ID0.8195131137035787" fill="none" stroke="#000000" stroke-width="0.9446965000148362" stroke-linecap="round" d="M 125.1262 44.6184 C 125.1262 44.6184 125.7422 45.1095 126.0497 45.3543 C 126.3572 45.5991 126.6578 45.8556 126.9732 46.0902 C 127.4283 46.4291 127.8995 46.7477 128.362 47.076 C 128.4777 47.1578 128.362 47.076 128.362 47.076 "/>
      <path id="ID0.923992021009326" fill="none" stroke="#000000" stroke-width="0.9446965000148362" stroke-linecap="round" d="M 125.1824 50.7632 C 125.1824 50.7632 129.1956 50.8808 129.1956 50.8808 "/>
      <path id="ID0.6422801343724132" fill="none" stroke="#000000" stroke-width="0.9446965000148362" stroke-linecap="round" d="M 130.975 28.9055 C 130.975 28.9055 132.0827 29.049 132.6206 29.19 C 133.1018 29.3161 133.5384 29.5917 134.0232 29.7037 C 134.3297 29.7746 134.9675 29.7313 134.9675 29.7313 "/>
      <path id="ID0.7584992088377476" fill="none" stroke="#000000" stroke-width="0.9446965000148362" stroke-linecap="round" d="M 131.0658 33.87 C 131.0658 33.87 132.4519 34.3831 133.1766 34.4044 C 133.6002 34.4168 134.3708 33.9668 134.3708 33.9668 "/>
      <path id="ID0.40438934741541743" fill="none" stroke="#000000" stroke-width="0.9446965000148362" stroke-linecap="round" d="M 131.2682 43.0907 C 131.9893 42.6397 132.7318 42.2163 133.4343 41.7365 C 133.6181 41.611 133.9203 41.2782 133.9203 41.2782 "/>
      <path id="ID0.7633831659331918" fill="none" stroke="#000000" stroke-width="0.9446965000148362" stroke-linecap="round" d="M 129.5327 45.8751 C 129.5327 45.8751 131.1001 46.1011 131.8865 46.1804 C 132.1993 46.2117 132.5163 46.1988 132.8308 46.208 C 133.2241 46.2195 133.6178 46.2311 134.0111 46.2426 C 134.1093 46.2455 134.0111 46.2426 134.0111 46.2426 "/>
      <path id="ID0.8195131137035787" fill="none" stroke="#000000" stroke-width="0.9446965000148362" stroke-linecap="round" d="M 130.7762 51.8184 C 130.7762 51.8184 131.3922 52.3095 131.6997 52.5543 C 132.0072 52.7991 132.3078 53.0556 132.6232 53.2902 C 133.0783 53.6291 133.5495 53.9477 134.012 54.276 C 134.1277 54.3578 134.012 54.276 134.012 54.276 "/>
      <path id="ID0.923992021009326" fill="none" stroke="#000000" stroke-width="0.9446965000148362" stroke-linecap="round" d="M 130.8324 57.9632 C 130.8324 57.9632 134.8456 58.0808 134.8456 58.0808 "/>
      <path id="ID0.6422801343724132" fill="none" stroke="#000000" stroke-width="0.9446965000148362" stroke-linecap="round" d="M 49.125 51.6555 C 49.125 51.6555 50.2327 51.799 50.7706 51.94 C 51.2518 52.0661 51.6884 52.3417 52.1732 52.4537 C 52.4797 52.5246 53.1175 52.4813 53.1175 52.4813 "/>
      <path id="ID0.7584992088377476" fill="none" stroke="#000000" stroke-width="0.9446965000148362" stroke-linecap="round" d="M 49.2158 56.62 C 49.2158 56.62 50.6019 57.1331 51.3266 57.1544 C 51.7502 57.1668 52.5208 56.7168 52.5208 56.7168 "/>
      <path id="ID0.40438934741541743" fill="none" stroke="#000000" stroke-width="0.9446965000148362" stroke-linecap="round" d="M 49.4182 65.8407 C 50.1393 65.3897 50.8818 64.9663 51.5843 64.4865 C 51.7681 64.361 52.0703 64.0282 52.0703 64.0282 "/>
      <path id="ID0.7633831659331918" fill="none" stroke="#000000" stroke-width="0.9446965000148362" stroke-linecap="round" d="M 47.6827 68.6251 C 47.6827 68.6251 49.2501 68.8511 50.0365 68.9304 C 50.3493 68.9617 50.6663 68.9488 50.9808 68.958 C 51.3741 68.9695 51.7678 68.9811 52.1611 68.9926 C 52.2593 68.9955 52.1611 68.9926 52.1611 68.9926 "/>
      <path id="ID0.8195131137035787" fill="none" stroke="#000000" stroke-width="0.9446965000148362" stroke-linecap="round" d="M 48.9262 74.5684 C 48.9262 74.5684 49.5422 75.0595 49.8497 75.3043 C 50.1572 75.5491 50.4578 75.8056 50.7732 76.0402 C 51.2283 76.3791 51.6995 76.6977 52.162 77.026 C 52.2777 77.1078 52.162 77.026 52.162 77.026 "/>
      <path id="ID0.923992021009326" fill="none" stroke="#000000" stroke-width="0.9446965000148362" stroke-linecap="round" d="M 48.9824 80.7132 C 48.9824 80.7132 52.9956 80.8308 52.9956 80.8308 "/>
      <path id="ID0.6422801343724132" fill="none" stroke="#000000" stroke-width="0.9446965000148362" stroke-linecap="round" d="M 55.175 62.4055 C 55.175 62.4055 56.2827 62.549 56.8206 62.69 C 57.3018 62.8161 57.7384 63.0917 58.2232 63.2037 C 58.5297 63.2746 59.1675 63.2313 59.1675 63.2313 "/>
      <path id="ID0.7584992088377476" fill="none" stroke="#000000" stroke-width="0.9446965000148362" stroke-linecap="round" d="M 55.2658 67.37 C 55.2658 67.37 56.6519 67.8831 57.3766 67.9044 C 57.8002 67.9168 58.5708 67.4668 58.5708 67.4668 "/>
      <path id="ID0.40438934741541743" fill="none" stroke="#000000" stroke-width="0.9446965000148362" stroke-linecap="round" d="M 55.4682 76.5907 C 56.1893 76.1397 56.9318 75.7163 57.6343 75.2365 C 57.8181 75.111 58.1203 74.7782 58.1203 74.7782 "/>
      <path id="ID0.7633831659331918" fill="none" stroke="#000000" stroke-width="0.9446965000148362" stroke-linecap="round" d="M 53.7327 79.3751 C 53.7327 79.3751 55.3001 79.6011 56.0865 79.6804 C 56.3993 79.7117 56.7163 79.6988 57.0308 79.708 C 57.4241 79.7195 57.8178 79.7311 58.2111 79.7426 C 58.3093 79.7455 58.2111 79.7426 58.2111 79.7426 "/>
      <path id="ID0.8195131137035787" fill="none" stroke="#000000" stroke-width="0.9446965000148362" stroke-linecap="round" d="M 54.9762 85.3184 C 54.9762 85.3184 55.5922 85.8095 55.8997 86.0543 C 56.2072 86.2991 56.5078 86.5556 56.8232 86.7902 C 57.2783 87.1291 57.7495 87.4477 58.212 87.776 C 58.3277 87.8578 58.212 87.776 58.212 87.776 "/>
      <path id="ID0.923992021009326" fill="none" stroke="#000000" stroke-width="0.9446965000148362" stroke-linecap="round" d="M 55.0324 91.4632 C 55.0324 91.4632 59.0456 91.5808 59.0456 91.5808 "/>
      <path id="ID0.7584992088377476" fill="none" stroke="#000000" stroke-width="0.9446965000148362" stroke-linecap="round" d="M 61.7658 66.37 C 61.7658 66.37 63.1519 66.8831 63.8766 66.9044 C 64.3002 66.9168 65.0708 66.4668 65.0708 66.4668 "/>
      <path id="ID0.40438934741541743" fill="none" stroke="#000000" stroke-width="0.9446965000148362" stroke-linecap="round" d="M 61.9682 75.5907 C 62.6893 75.1397 63.4318 74.7163 64.1343 74.2365 C 64.3181 74.111 64.6203 73.7782 64.6203 73.7782 "/>
      <path id="ID0.7633831659331918" fill="none" stroke="#000000" stroke-width="0.9446965000148362" stroke-linecap="round" d="M 60.2327 78.3751 C 60.2327 78.3751 61.8001 78.6011 62.5865 78.6804 C 62.8993 78.7117 63.2163 78.6988 63.5308 78.708 C 63.9241 78.7195 64.3178 78.7311 64.7111 78.7426 C 64.8093 78.7455 64.7111 78.7426 64.7111 78.7426 "/>
      <path id="ID0.8195131137035787" fill="none" stroke="#000000" stroke-width="0.9446965000148362" stroke-linecap="round" d="M 61.4762 84.3184 C 61.4762 84.3184 62.0922 84.8095 62.3997 85.0543 C 62.7072 85.2991 63.0078 85.5556 63.3232 85.7902 C 63.7783 86.1291 64.2495 86.4477 64.712 86.776 C 64.8277 86.8578 64.712 86.776 64.712 86.776 "/>
      <path id="ID0.923992021009326" fill="none" stroke="#000000" stroke-width="0.9446965000148362" stroke-linecap="round" d="M 61.5324 90.4632 C 61.5324 90.4632 65.5456 90.5808 65.5456 90.5808 "/>
      <path id="ID0.6422801343724132" fill="none" stroke="#000000" stroke-width="0.9446965000148362" stroke-linecap="round" d="M 68.975 64.9055 C 68.975 64.9055 70.0827 65.049 70.6206 65.19 C 71.1018 65.3161 71.5384 65.5917 72.0232 65.7037 C 72.3297 65.7746 72.9675 65.7313 72.9675 65.7313 "/>
      <path id="ID0.7584992088377476" fill="none" stroke="#000000" stroke-width="0.9446965000148362" stroke-linecap="round" d="M 69.0658 69.87 C 69.0658 69.87 70.4519 70.3831 71.1766 70.4044 C 71.6002 70.4168 72.3708 69.9668 72.3708 69.9668 "/>
      <path id="ID0.40438934741541743" fill="none" stroke="#000000" stroke-width="0.9446965000148362" stroke-linecap="round" d="M 69.2682 79.0907 C 69.9893 78.6397 70.7318 78.2163 71.4343 77.7365 C 71.6181 77.611 71.9203 77.2782 71.9203 77.2782 "/>
      <path id="ID0.7633831659331918" fill="none" stroke="#000000" stroke-width="0.9446965000148362" stroke-linecap="round" d="M 67.5327 81.8751 C 67.5327 81.8751 69.1001 82.1011 69.8865 82.1804 C 70.1993 82.2117 70.5163 82.1988 70.8308 82.208 C 71.2241 82.2195 71.6178 82.2311 72.0111 82.2426 C 72.1093 82.2455 72.0111 82.2426 72.0111 82.2426 "/>
      <path id="ID0.8195131137035787" fill="none" stroke="#000000" stroke-width="0.9446965000148362" stroke-linecap="round" d="M 68.7762 87.8184 C 68.7762 87.8184 69.3922 88.3095 69.6997 88.5543 C 70.0072 88.7991 70.3078 89.0556 70.6232 89.2902 C 71.0783 89.6291 71.5495 89.9477 72.012 90.276 C 72.1277 90.3578 72.012 90.276 72.012 90.276 "/>
      <path id="ID0.923992021009326" fill="none" stroke="#000000" stroke-width="0.9446965000148362" stroke-linecap="round" d="M 68.8324 93.9632 C 68.8324 93.9632 72.8456 94.0808 72.8456 94.0808 "/>
      <path id="ID0.6422801343724132" fill="none" stroke="#000000" stroke-width="0.9446965000148362" stroke-linecap="round" d="M 76.025 66.4055 C 76.025 66.4055 77.1327 66.549 77.6706 66.69 C 78.1518 66.8161 78.5884 67.0917 79.0732 67.2037 C 79.3797 67.2746 80.0175 67.2313 80.0175 67.2313 "/>
      <path id="ID0.7584992088377476" fill="none" stroke="#000000" stroke-width="0.9446965000148362" stroke-linecap="round" d="M 76.1158 71.37 C 76.1158 71.37 77.5019 71.8831 78.2266 71.9044 C 78.6502 71.9168 79.4208 71.4668 79.4208 71.4668 "/>
      <path id="ID0.40438934741541743" fill="none" stroke="#000000" stroke-width="0.9446965000148362" stroke-linecap="round" d="M 76.3182 80.5907 C 77.0393 80.1397 77.7818 79.7163 78.4843 79.2365 C 78.6681 79.111 78.9703 78.7782 78.9703 78.7782 "/>
      <path id="ID0.7633831659331918" fill="none" stroke="#000000" stroke-width="0.9446965000148362" stroke-linecap="round" d="M 74.5827 83.3751 C 74.5827 83.3751 76.1501 83.6011 76.9365 83.6804 C 77.2493 83.7117 77.5663 83.6988 77.8808 83.708 C 78.2741 83.7195 78.6678 83.7311 79.0611 83.7426 C 79.1593 83.7455 79.0611 83.7426 79.0611 83.7426 "/>
      <path id="ID0.8195131137035787" fill="none" stroke="#000000" stroke-width="0.9446965000148362" stroke-linecap="round" d="M 75.8262 89.3184 C 75.8262 89.3184 76.4422 89.8095 76.7497 90.0543 C 77.0572 90.2991 77.3578 90.5556 77.6732 90.7902 C 78.1283 91.1291 78.5995 91.4477 79.062 91.776 C 79.1777 91.8578 79.062 91.776 79.062 91.776 "/>
      <path id="ID0.923992021009326" fill="none" stroke="#000000" stroke-width="0.9446965000148362" stroke-linecap="round" d="M 75.8824 95.4632 C 75.8824 95.4632 79.8956 95.5808 79.8956 95.5808 "/>
      <path id="ID0.6422801343724132" fill="none" stroke="#000000" stroke-width="0.9446965000148362" stroke-linecap="round" d="M 88.925 71.6555 C 88.925 71.6555 90.0327 71.799 90.5706 71.94 C 91.0518 72.0661 91.4884 72.3417 91.9732 72.4537 C 92.2797 72.5246 92.9175 72.4813 92.9175 72.4813 "/>
      <path id="ID0.7584992088377476" fill="none" stroke="#000000" stroke-width="0.9446965000148362" stroke-linecap="round" d="M 89.0158 76.62 C 89.0158 76.62 90.4019 77.1331 91.1266 77.1544 C 91.5502 77.1668 92.3208 76.7168 92.3208 76.7168 "/>
      <path id="ID0.40438934741541743" fill="none" stroke="#000000" stroke-width="0.9446965000148362" stroke-linecap="round" d="M 89.2182 85.8407 C 89.9393 85.3897 90.6818 84.9663 91.3843 84.4865 C 91.5681 84.361 91.8703 84.0282 91.8703 84.0282 "/>
      <path id="ID0.7633831659331918" fill="none" stroke="#000000" stroke-width="0.9446965000148362" stroke-linecap="round" d="M 87.4827 88.6251 C 87.4827 88.6251 89.0501 88.8511 89.8365 88.9304 C 90.1493 88.9617 90.4663 88.9488 90.7808 88.958 C 91.1741 88.9695 91.5678 88.9811 91.9611 88.9926 C 92.0593 88.9955 91.9611 88.9926 91.9611 88.9926 "/>
      <path id="ID0.8195131137035787" fill="none" stroke="#000000" stroke-width="0.9446965000148362" stroke-linecap="round" d="M 88.7262 94.5684 C 88.7262 94.5684 89.3422 95.0595 89.6497 95.3043 C 89.9572 95.5491 90.2578 95.8056 90.5732 96.0402 C 91.0283 96.3791 91.4995 96.6977 91.962 97.026 C 92.0777 97.1078 91.962 97.026 91.962 97.026 "/>
      <path id="ID0.923992021009326" fill="none" stroke="#000000" stroke-width="0.9446965000148362" stroke-linecap="round" d="M 88.7824 100.7132 C 88.7824 100.7132 92.7956 100.8308 92.7956 100.8308 "/>
      <path id="ID0.7584992088377476" fill="none" stroke="#000000" stroke-width="0.9446965000148362" stroke-linecap="round" d="M 82.8158 69.62 C 82.8158 69.62 84.2019 70.1331 84.9266 70.1544 C 85.3502 70.1668 86.1208 69.7168 86.1208 69.7168 "/>
      <path id="ID0.40438934741541743" fill="none" stroke="#000000" stroke-width="0.9446965000148362" stroke-linecap="round" d="M 83.0182 78.8407 C 83.7393 78.3897 84.4818 77.9663 85.1843 77.4865 C 85.3681 77.361 85.6703 77.0282 85.6703 77.0282 "/>
      <path id="ID0.7633831659331918" fill="none" stroke="#000000" stroke-width="0.9446965000148362" stroke-linecap="round" d="M 81.2827 81.6251 C 81.2827 81.6251 82.8501 81.8511 83.6365 81.9304 C 83.9493 81.9617 84.2663 81.9488 84.5808 81.958 C 84.9741 81.9695 85.3678 81.9811 85.7611 81.9926 C 85.8593 81.9955 85.7611 81.9926 85.7611 81.9926 "/>
      <path id="ID0.8195131137035787" fill="none" stroke="#000000" stroke-width="0.9446965000148362" stroke-linecap="round" d="M 82.5262 87.5684 C 82.5262 87.5684 83.1422 88.0595 83.4497 88.3043 C 83.7572 88.5491 84.0578 88.8056 84.3732 89.0402 C 84.8283 89.3791 85.2995 89.6977 85.762 90.026 C 85.8777 90.1078 85.762 90.026 85.762 90.026 "/>
      <path id="ID0.923992021009326" fill="none" stroke="#000000" stroke-width="0.9446965000148362" stroke-linecap="round" d="M 82.5824 93.7132 C 82.5824 93.7132 86.5956 93.8308 86.5956 93.8308 "/>
      <path id="ID0.7584992088377476" fill="none" stroke="#000000" stroke-width="0.9446965000148362" stroke-linecap="round" d="M 95.1158 71.37 C 95.1158 71.37 96.5019 71.8831 97.2266 71.9044 C 97.6502 71.9168 98.4208 71.4668 98.4208 71.4668 "/>
      <path id="ID0.40438934741541743" fill="none" stroke="#000000" stroke-width="0.9446965000148362" stroke-linecap="round" d="M 95.3182 80.5907 C 96.0393 80.1397 96.7818 79.7163 97.4843 79.2365 C 97.6681 79.111 97.9703 78.7782 97.9703 78.7782 "/>
      <path id="ID0.7633831659331918" fill="none" stroke="#000000" stroke-width="0.9446965000148362" stroke-linecap="round" d="M 93.5827 83.3751 C 93.5827 83.3751 95.1501 83.6011 95.9365 83.6804 C 96.2493 83.7117 96.5663 83.6988 96.8808 83.708 C 97.2741 83.7195 97.6678 83.7311 98.0611 83.7426 C 98.1593 83.7455 98.0611 83.7426 98.0611 83.7426 "/>
      <path id="ID0.8195131137035787" fill="none" stroke="#000000" stroke-width="0.9446965000148362" stroke-linecap="round" d="M 94.8262 89.3184 C 94.8262 89.3184 95.4422 89.8095 95.7497 90.0543 C 96.0572 90.2991 96.3578 90.5556 96.6732 90.7902 C 97.1283 91.1291 97.5995 91.4477 98.062 91.776 C 98.1777 91.8578 98.062 91.776 98.062 91.776 "/>
      <path id="ID0.923992021009326" fill="none" stroke="#000000" stroke-width="0.9446965000148362" stroke-linecap="round" d="M 94.8824 95.4632 C 94.8824 95.4632 98.8956 95.5808 98.8956 95.5808 "/>
      <path id="ID0.6422801343724132" fill="none" stroke="#000000" stroke-width="0.9446965000148362" stroke-linecap="round" d="M 102.775 65.1555 C 102.775 65.1555 103.8827 65.299 104.4206 65.44 C 104.9018 65.5661 105.3384 65.8417 105.8232 65.9537 C 106.1297 66.0246 106.7675 65.9813 106.7675 65.9813 "/>
      <path id="ID0.7584992088377476" fill="none" stroke="#000000" stroke-width="0.9446965000148362" stroke-linecap="round" d="M 102.8658 70.12 C 102.8658 70.12 104.2519 70.6331 104.9766 70.6544 C 105.4002 70.6668 106.1708 70.2168 106.1708 70.2168 "/>
      <path id="ID0.40438934741541743" fill="none" stroke="#000000" stroke-width="0.9446965000148362" stroke-linecap="round" d="M 103.0682 79.3407 C 103.7893 78.8897 104.5318 78.4663 105.2343 77.9865 C 105.4181 77.861 105.7203 77.5282 105.7203 77.5282 "/>
      <path id="ID0.7633831659331918" fill="none" stroke="#000000" stroke-width="0.9446965000148362" stroke-linecap="round" d="M 101.3327 82.1251 C 101.3327 82.1251 102.9001 82.3511 103.6865 82.4304 C 103.9993 82.4617 104.3163 82.4488 104.6308 82.458 C 105.0241 82.4695 105.4178 82.4811 105.8111 82.4926 C 105.9093 82.4955 105.8111 82.4926 105.8111 82.4926 "/>
      <path id="ID0.8195131137035787" fill="none" stroke="#000000" stroke-width="0.9446965000148362" stroke-linecap="round" d="M 102.5762 88.0684 C 102.5762 88.0684 103.1922 88.5595 103.4997 88.8043 C 103.8072 89.0491 104.1078 89.3056 104.4232 89.5402 C 104.8783 89.8791 105.3495 90.1977 105.812 90.526 C 105.9277 90.6078 105.812 90.526 105.812 90.526 "/>
      <path id="ID0.923992021009326" fill="none" stroke="#000000" stroke-width="0.9446965000148362" stroke-linecap="round" d="M 102.6324 94.2132 C 102.6324 94.2132 106.6456 94.3308 106.6456 94.3308 "/>
      <path id="ID0.7584992088377476" fill="none" stroke="#000000" stroke-width="0.9446965000148362" stroke-linecap="round" d="M 109.7658 69.37 C 109.7658 69.37 111.1519 69.8831 111.8766 69.9044 C 112.3002 69.9168 113.0708 69.4668 113.0708 69.4668 "/>
      <path id="ID0.40438934741541743" fill="none" stroke="#000000" stroke-width="0.9446965000148362" stroke-linecap="round" d="M 109.9682 78.5907 C 110.6893 78.1397 111.4318 77.7163 112.1343 77.2365 C 112.3181 77.111 112.6203 76.7782 112.6203 76.7782 "/>
      <path id="ID0.7633831659331918" fill="none" stroke="#000000" stroke-width="0.9446965000148362" stroke-linecap="round" d="M 108.2327 81.3751 C 108.2327 81.3751 109.8001 81.6011 110.5865 81.6804 C 110.8993 81.7117 111.2163 81.6988 111.5308 81.708 C 111.9241 81.7195 112.3178 81.7311 112.7111 81.7426 C 112.8093 81.7455 112.7111 81.7426 112.7111 81.7426 "/>
      <path id="ID0.8195131137035787" fill="none" stroke="#000000" stroke-width="0.9446965000148362" stroke-linecap="round" d="M 109.4762 87.3184 C 109.4762 87.3184 110.0922 87.8095 110.3997 88.0543 C 110.7072 88.2991 111.0078 88.5556 111.3232 88.7902 C 111.7783 89.1291 112.2495 89.4477 112.712 89.776 C 112.8277 89.8578 112.712 89.776 112.712 89.776 "/>
      <path id="ID0.923992021009326" fill="none" stroke="#000000" stroke-width="0.9446965000148362" stroke-linecap="round" d="M 109.5324 93.4632 C 109.5324 93.4632 113.5456 93.5808 113.5456 93.5808 "/>
      <path id="ID0.7584992088377476" fill="none" stroke="#000000" stroke-width="0.9446965000148362" stroke-linecap="round" d="M 115.9658 66.62 C 115.9658 66.62 117.3519 67.1331 118.0766 67.1544 C 118.5002 67.1668 119.2708 66.7168 119.2708 66.7168 "/>
      <path id="ID0.40438934741541743" fill="none" stroke="#000000" stroke-width="0.9446965000148362" stroke-linecap="round" d="M 116.1682 75.8407 C 116.8893 75.3897 117.6318 74.9663 118.3343 74.4865 C 118.5181 74.361 118.8203 74.0282 118.8203 74.0282 "/>
      <path id="ID0.7633831659331918" fill="none" stroke="#000000" stroke-width="0.9446965000148362" stroke-linecap="round" d="M 114.4327 78.6251 C 114.4327 78.6251 116.0001 78.8511 116.7865 78.9304 C 117.0993 78.9617 117.4163 78.9488 117.7308 78.958 C 118.1241 78.9695 118.5178 78.9811 118.9111 78.9926 C 119.0093 78.9955 118.9111 78.9926 118.9111 78.9926 "/>
      <path id="ID0.8195131137035787" fill="none" stroke="#000000" stroke-width="0.9446965000148362" stroke-linecap="round" d="M 115.6762 84.5684 C 115.6762 84.5684 116.2922 85.0595 116.5997 85.3043 C 116.9072 85.5491 117.2078 85.8056 117.5232 86.0402 C 117.9783 86.3791 118.4495 86.6977 118.912 87.026 C 119.0277 87.1078 118.912 87.026 118.912 87.026 "/>
      <path id="ID0.923992021009326" fill="none" stroke="#000000" stroke-width="0.9446965000148362" stroke-linecap="round" d="M 115.7324 90.7132 C 115.7324 90.7132 119.7456 90.8308 119.7456 90.8308 "/>
      <path id="ID0.6422801343724132" fill="none" stroke="#000000" stroke-width="0.9446965000148362" stroke-linecap="round" d="M 123.075 57.6555 C 123.075 57.6555 124.1827 57.799 124.7206 57.94 C 125.2018 58.0661 125.6384 58.3417 126.1232 58.4537 C 126.4297 58.5246 127.0675 58.4813 127.0675 58.4813 "/>
      <path id="ID0.7584992088377476" fill="none" stroke="#000000" stroke-width="0.9446965000148362" stroke-linecap="round" d="M 123.1658 62.62 C 123.1658 62.62 124.5519 63.1331 125.2766 63.1544 C 125.7002 63.1668 126.4708 62.7168 126.4708 62.7168 "/>
      <path id="ID0.40438934741541743" fill="none" stroke="#000000" stroke-width="0.9446965000148362" stroke-linecap="round" d="M 123.3682 71.8407 C 124.0893 71.3897 124.8318 70.9663 125.5343 70.4865 C 125.7181 70.361 126.0203 70.0282 126.0203 70.0282 "/>
      <path id="ID0.7633831659331918" fill="none" stroke="#000000" stroke-width="0.9446965000148362" stroke-linecap="round" d="M 121.6327 74.6251 C 121.6327 74.6251 123.2001 74.8511 123.9865 74.9304 C 124.2993 74.9617 124.6163 74.9488 124.9308 74.958 C 125.3241 74.9695 125.7178 74.9811 126.1111 74.9926 C 126.2093 74.9955 126.1111 74.9926 126.1111 74.9926 "/>
      <path id="ID0.8195131137035787" fill="none" stroke="#000000" stroke-width="0.9446965000148362" stroke-linecap="round" d="M 122.8762 80.5684 C 122.8762 80.5684 123.4922 81.0595 123.7997 81.3043 C 124.1072 81.5491 124.4078 81.8056 124.7232 82.0402 C 125.1783 82.3791 125.6495 82.6977 126.112 83.026 C 126.2277 83.1078 126.112 83.026 126.112 83.026 "/>
      <path id="ID0.923992021009326" fill="none" stroke="#000000" stroke-width="0.9446965000148362" stroke-linecap="round" d="M 122.9324 86.7132 C 122.9324 86.7132 126.9456 86.8308 126.9456 86.8308 "/>
      <path id="ID0.6422801343724132" fill="none" stroke="#000000" stroke-width="0.9446965000148362" stroke-linecap="round" d="M 128.475 55.4055 C 128.475 55.4055 129.5827 55.549 130.1206 55.69 C 130.6018 55.8161 131.0384 56.0917 131.5232 56.2037 C 131.8297 56.2746 132.4675 56.2313 132.4675 56.2313 "/>
      <path id="ID0.7584992088377476" fill="none" stroke="#000000" stroke-width="0.9446965000148362" stroke-linecap="round" d="M 130.1658 63.12 C 130.1658 63.12 131.5519 63.6331 132.2766 63.6544 C 132.7002 63.6668 133.4708 63.2168 133.4708 63.2168 "/>
      <path id="ID0.40438934741541743" fill="none" stroke="#000000" stroke-width="0.9446965000148362" stroke-linecap="round" d="M 128.7682 69.5907 C 129.4893 69.1397 130.2318 68.7163 130.9343 68.2365 C 131.1181 68.111 131.4203 67.7782 131.4203 67.7782 "/>
      <path id="ID0.7633831659331918" fill="none" stroke="#000000" stroke-width="0.9446965000148362" stroke-linecap="round" d="M 127.0327 72.3751 C 127.0327 72.3751 128.6001 72.6011 129.3865 72.6804 C 129.6993 72.7117 130.0163 72.6988 130.3308 72.708 C 130.7241 72.7195 131.1178 72.7311 131.5111 72.7426 C 131.6093 72.7455 131.5111 72.7426 131.5111 72.7426 "/>
      <path id="ID0.8195131137035787" fill="none" stroke="#000000" stroke-width="0.9446965000148362" stroke-linecap="round" d="M 128.2762 78.3184 C 128.2762 78.3184 128.8922 78.8095 129.1997 79.0543 C 129.5072 79.2991 129.8078 79.5556 130.1232 79.7902 C 130.5783 80.1291 131.0495 80.4477 131.512 80.776 C 131.6277 80.8578 131.512 80.776 131.512 80.776 "/>
      <path id="ID0.923992021009326" fill="none" stroke="#000000" stroke-width="0.9446965000148362" stroke-linecap="round" d="M 128.3324 84.4632 C 128.3324 84.4632 132.3456 84.5808 132.3456 84.5808 "/>
      <path id="ID0.6422801343724132" fill="none" stroke="#000000" stroke-width="0.9446965000148362" stroke-linecap="round" d="M 77.425 36.1055 C 77.425 36.1055 78.5327 36.249 79.0706 36.39 C 79.5518 36.5161 79.9884 36.7917 80.4732 36.9037 C 80.7797 36.9746 81.4175 36.9313 81.4175 36.9313 "/>
      <path id="ID0.7584992088377476" fill="none" stroke="#000000" stroke-width="0.9446965000148362" stroke-linecap="round" d="M 77.5158 41.07 C 77.5158 41.07 78.9019 41.5831 79.6266 41.6044 C 80.0502 41.6168 80.8208 41.1668 80.8208 41.1668 "/>
      <path id="ID0.40438934741541743" fill="none" stroke="#000000" stroke-width="0.9446965000148362" stroke-linecap="round" d="M 77.7182 50.2907 C 78.4393 49.8397 79.1818 49.4163 79.8843 48.9365 C 80.0681 48.811 80.3703 48.4782 80.3703 48.4782 "/>
      <path id="ID0.7633831659331918" fill="none" stroke="#000000" stroke-width="0.9446965000148362" stroke-linecap="round" d="M 75.9827 53.0751 C 75.9827 53.0751 77.5501 53.3011 78.3365 53.3804 C 78.6493 53.4117 78.9663 53.3988 79.2808 53.408 C 79.6741 53.4195 80.0678 53.4311 80.4611 53.4426 C 80.5593 53.4455 80.4611 53.4426 80.4611 53.4426 "/>
      <path id="ID0.8195131137035787" fill="none" stroke="#000000" stroke-width="0.9446965000148362" stroke-linecap="round" d="M 77.2262 59.0184 C 77.2262 59.0184 77.8422 59.5095 78.1497 59.7543 C 78.4572 59.9991 78.7578 60.2556 79.0732 60.4902 C 79.5283 60.8291 79.9995 61.1477 80.462 61.476 C 80.5777 61.5578 80.462 61.476 80.462 61.476 "/>
      <path id="ID0.6422801343724132" fill="none" stroke="#000000" stroke-width="0.9446965000148362" stroke-linecap="round" d="M 85.275 36.3555 C 85.275 36.3555 86.3827 36.499 86.9206 36.64 C 87.4018 36.7661 87.8384 37.0417 88.3232 37.1537 C 88.6297 37.2246 89.2675 37.1813 89.2675 37.1813 "/>
      <path id="ID0.7584992088377476" fill="none" stroke="#000000" stroke-width="0.9446965000148362" stroke-linecap="round" d="M 85.3658 41.32 C 85.3658 41.32 86.7519 41.8331 87.4766 41.8544 C 87.9002 41.8668 88.6708 41.4168 88.6708 41.4168 "/>
      <path id="ID0.40438934741541743" fill="none" stroke="#000000" stroke-width="0.9446965000148362" stroke-linecap="round" d="M 85.5682 50.5407 C 86.2893 50.0897 87.0318 49.6663 87.7343 49.1865 C 87.9181 49.061 88.2203 48.7282 88.2203 48.7282 "/>
      <path id="ID0.7633831659331918" fill="none" stroke="#000000" stroke-width="0.9446965000148362" stroke-linecap="round" d="M 83.8327 53.3251 C 83.8327 53.3251 85.4001 53.5511 86.1865 53.6304 C 86.4993 53.6617 86.8163 53.6488 87.1308 53.658 C 87.5241 53.6695 87.9178 53.6811 88.3111 53.6926 C 88.4093 53.6955 88.3111 53.6926 88.3111 53.6926 "/>
      <path id="ID0.8195131137035787" fill="none" stroke="#000000" stroke-width="0.9446965000148362" stroke-linecap="round" d="M 85.0762 59.2684 C 85.0762 59.2684 85.6922 59.7595 85.9997 60.0043 C 86.3072 60.2491 86.6078 60.5056 86.9232 60.7402 C 87.3783 61.0791 87.8495 61.3977 88.312 61.726 C 88.4277 61.8078 88.312 61.726 88.312 61.726 "/>
      <path id="ID0.923992021009326" fill="none" stroke="#000000" stroke-width="0.9446965000148362" stroke-linecap="round" d="M 85.1324 65.4132 C 85.1324 65.4132 89.1456 65.5308 89.1456 65.5308 "/>
      <path id="ID0.6422801343724132" fill="none" stroke="#000000" stroke-width="0.9446965000148362" stroke-linecap="round" d="M 92.675 38.8555 C 92.675 38.8555 93.7827 38.999 94.3206 39.14 C 94.8018 39.2661 95.2384 39.5417 95.7232 39.6537 C 96.0297 39.7246 96.6675 39.6813 96.6675 39.6813 "/>
      <path id="ID0.7584992088377476" fill="none" stroke="#000000" stroke-width="0.9446965000148362" stroke-linecap="round" d="M 92.7658 43.82 C 92.7658 43.82 94.1519 44.3331 94.8766 44.3544 C 95.3002 44.3668 96.0708 43.9168 96.0708 43.9168 "/>
      <path id="ID0.40438934741541743" fill="none" stroke="#000000" stroke-width="0.9446965000148362" stroke-linecap="round" d="M 92.9682 53.0407 C 93.6893 52.5897 94.4318 52.1663 95.1343 51.6865 C 95.3181 51.561 95.6203 51.2282 95.6203 51.2282 "/>
      <path id="ID0.7633831659331918" fill="none" stroke="#000000" stroke-width="0.9446965000148362" stroke-linecap="round" d="M 91.2327 55.8251 C 91.2327 55.8251 92.8001 56.0511 93.5865 56.1304 C 93.8993 56.1617 94.2163 56.1488 94.5308 56.158 C 94.9241 56.1695 95.3178 56.1811 95.7111 56.1926 C 95.8093 56.1955 95.7111 56.1926 95.7111 56.1926 "/>
      <path id="ID0.8195131137035787" fill="none" stroke="#000000" stroke-width="0.9446965000148362" stroke-linecap="round" d="M 92.4762 61.7684 C 92.4762 61.7684 93.0922 62.2595 93.3997 62.5043 C 93.7072 62.7491 94.0078 63.0056 94.3232 63.2402 C 94.7783 63.5791 95.2495 63.8977 95.712 64.226 C 95.8277 64.3078 95.712 64.226 95.712 64.226 "/>
      <path id="ID0.923992021009326" fill="none" stroke="#000000" stroke-width="0.9446965000148362" stroke-linecap="round" d="M 92.5324 67.9132 C 92.5324 67.9132 96.5456 68.0308 96.5456 68.0308 "/>
      <path id="ID0.6422801343724132" fill="none" stroke="#000000" stroke-width="0.9446965000148362" stroke-linecap="round" d="M 99.375 43.1055 C 99.375 43.1055 100.4827 43.249 101.0206 43.39 C 101.5018 43.5161 101.9384 43.7917 102.4232 43.9037 C 102.7297 43.9746 103.3675 43.9313 103.3675 43.9313 "/>
      <path id="ID0.7584992088377476" fill="none" stroke="#000000" stroke-width="0.9446965000148362" stroke-linecap="round" d="M 99.4658 48.07 C 99.4658 48.07 100.8519 48.5831 101.5766 48.6044 C 102.0002 48.6168 102.7708 48.1668 102.7708 48.1668 "/>
      <path id="ID0.40438934741541743" fill="none" stroke="#000000" stroke-width="0.9446965000148362" stroke-linecap="round" d="M 99.6682 57.2907 C 100.3893 56.8397 101.1318 56.4163 101.8343 55.9365 C 102.0181 55.811 102.3203 55.4782 102.3203 55.4782 "/>
      <path id="ID0.7633831659331918" fill="none" stroke="#000000" stroke-width="0.9446965000148362" stroke-linecap="round" d="M 97.9327 60.0751 C 97.9327 60.0751 99.5001 60.3011 100.2865 60.3804 C 100.5993 60.4117 100.9163 60.3988 101.2308 60.408 C 101.6241 60.4195 102.0178 60.4311 102.4111 60.4426 C 102.5093 60.4455 102.4111 60.4426 102.4111 60.4426 "/>
      <path id="ID0.6422801343724132" fill="none" stroke="#000000" stroke-width="0.9446965000148362" stroke-linecap="round" d="M 106.025 44.7055 C 106.025 44.7055 107.1327 44.849 107.6706 44.99 C 108.1518 45.1161 108.5884 45.3917 109.0732 45.5037 C 109.3797 45.5746 110.0175 45.5313 110.0175 45.5313 "/>
      <path id="ID0.7584992088377476" fill="none" stroke="#000000" stroke-width="0.9446965000148362" stroke-linecap="round" d="M 106.1158 49.67 C 106.1158 49.67 107.5019 50.1831 108.2266 50.2044 C 108.6502 50.2168 109.4208 49.7668 109.4208 49.7668 "/>
      <path id="ID0.40438934741541743" fill="none" stroke="#000000" stroke-width="0.9446965000148362" stroke-linecap="round" d="M 106.3182 58.8907 C 107.0393 58.4397 107.7818 58.0163 108.4843 57.5365 C 108.6681 57.411 108.9703 57.0782 108.9703 57.0782 "/>
      <path id="ID0.7633831659331918" fill="none" stroke="#000000" stroke-width="0.9446965000148362" stroke-linecap="round" d="M 104.5827 61.6751 C 104.5827 61.6751 106.1501 61.9011 106.9365 61.9804 C 107.2493 62.0117 107.5663 61.9988 107.8808 62.008 C 108.2741 62.0195 108.6678 62.0311 109.0611 62.0426 C 109.1593 62.0455 109.0611 62.0426 109.0611 62.0426 "/>
      <path id="ID0.6422801343724132" fill="none" stroke="#000000" stroke-width="0.9446965000148362" stroke-linecap="round" d="M 69.775 41.5055 C 69.775 41.5055 70.8827 41.649 71.4206 41.79 C 71.9018 41.9161 72.3384 42.1917 72.8232 42.3037 C 73.1297 42.3746 73.7675 42.3313 73.7675 42.3313 "/>
      <path id="ID0.7584992088377476" fill="none" stroke="#000000" stroke-width="0.9446965000148362" stroke-linecap="round" d="M 69.8658 46.47 C 69.8658 46.47 71.2519 46.9831 71.9766 47.0044 C 72.4002 47.0168 73.1708 46.5668 73.1708 46.5668 "/>
      <path id="ID0.40438934741541743" fill="none" stroke="#000000" stroke-width="0.9446965000148362" stroke-linecap="round" d="M 70.0682 55.6907 C 70.7893 55.2397 71.5318 54.8163 72.2343 54.3365 C 72.4181 54.211 72.7203 53.8782 72.7203 53.8782 "/>
      <path id="ID0.7633831659331918" fill="none" stroke="#000000" stroke-width="0.9446965000148362" stroke-linecap="round" d="M 68.3327 58.4751 C 68.3327 58.4751 69.9001 58.7011 70.6865 58.7804 C 70.9993 58.8117 71.3163 58.7988 71.6308 58.808 C 72.0241 58.8195 72.4178 58.8311 72.8111 58.8426 C 72.9093 58.8455 72.8111 58.8426 72.8111 58.8426 "/>
      <path id="ID0.6422801343724132" fill="none" stroke="#000000" stroke-width="0.9446965000148362" stroke-linecap="round" d="M 63.225 42.3055 C 63.225 42.3055 64.3327 42.449 64.8706 42.59 C 65.3518 42.7161 65.7884 42.9917 66.2732 43.1037 C 66.5797 43.1746 67.2175 43.1313 67.2175 43.1313 "/>
      <path id="ID0.7584992088377476" fill="none" stroke="#000000" stroke-width="0.9446965000148362" stroke-linecap="round" d="M 63.3158 47.27 C 63.3158 47.27 64.7019 47.7831 65.4266 47.8044 C 65.8502 47.8168 66.6208 47.3668 66.6208 47.3668 "/>
      <path id="ID0.40438934741541743" fill="none" stroke="#000000" stroke-width="0.9446965000148362" stroke-linecap="round" d="M 63.5182 56.4907 C 64.2393 56.0397 64.9818 55.6163 65.6843 55.1365 C 65.8681 55.011 66.1703 54.6782 66.1703 54.6782 "/>
      <path id="ID0.7633831659331918" fill="none" stroke="#000000" stroke-width="0.9446965000148362" stroke-linecap="round" d="M 61.7827 59.2751 C 61.7827 59.2751 63.3501 59.5011 64.1365 59.5804 C 64.4493 59.6117 64.7663 59.5988 65.0808 59.608 C 65.4741 59.6195 65.8678 59.6311 66.2611 59.6426 C 66.3593 59.6455 66.2611 59.6426 66.2611 59.6426 "/>
      <path id="ID0.6422801343724132" fill="none" stroke="#000000" stroke-width="0.9446965000148362" stroke-linecap="round" d="M 41.925 56.2555 C 41.925 56.2555 43.0327 56.399 43.5706 56.54 C 44.0518 56.6661 44.4884 56.9417 44.9732 57.0537 C 45.2797 57.1246 45.9175 57.0813 45.9175 57.0813 "/>
      <path id="ID0.7584992088377476" fill="none" stroke="#000000" stroke-width="0.9446965000148362" stroke-linecap="round" d="M 42.0158 61.22 C 42.0158 61.22 43.4019 61.7331 44.1266 61.7544 C 44.5502 61.7668 45.3208 61.3168 45.3208 61.3168 "/>
      <path id="ID0.40438934741541743" fill="none" stroke="#000000" stroke-width="0.9446965000148362" stroke-linecap="round" d="M 42.2182 70.4407 C 42.9393 69.9897 43.6818 69.5663 44.3843 69.0865 C 44.5681 68.961 44.8703 68.6282 44.8703 68.6282 "/>
      <path id="ID0.7633831659331918" fill="none" stroke="#000000" stroke-width="0.9446965000148362" stroke-linecap="round" d="M 40.4827 73.2251 C 40.4827 73.2251 42.0501 73.4511 42.8365 73.5304 C 43.1493 73.5617 43.4663 73.5488 43.7808 73.558 C 44.1741 73.5695 44.5678 73.5811 44.9611 73.5926 C 45.0593 73.5955 44.9611 73.5926 44.9611 73.5926 "/>
      <path id="ID0.6422801343724132" fill="none" stroke="#000000" stroke-width="0.9446965000148362" stroke-linecap="round" d="M 112.625 46.1055 C 112.625 46.1055 113.7327 46.249 114.2706 46.39 C 114.7518 46.5161 115.1884 46.7917 115.6732 46.9037 C 115.9797 46.9746 116.6175 46.9313 116.6175 46.9313 "/>
      <path id="ID0.7584992088377476" fill="none" stroke="#000000" stroke-width="0.9446965000148362" stroke-linecap="round" d="M 112.7158 51.07 C 112.7158 51.07 114.1019 51.5831 114.8266 51.6044 C 115.2502 51.6168 116.0208 51.1668 116.0208 51.1668 "/>
      <path id="ID0.40438934741541743" fill="none" stroke="#000000" stroke-width="0.9446965000148362" stroke-linecap="round" d="M 112.9182 60.2907 C 113.6393 59.8397 114.3818 59.4163 115.0843 58.9365 C 115.2681 58.811 115.5703 58.4782 115.5703 58.4782 "/>
      <path id="ID0.7633831659331918" fill="none" stroke="#000000" stroke-width="0.9446965000148362" stroke-linecap="round" d="M 111.1827 63.0751 C 111.1827 63.0751 112.7501 63.3011 113.5365 63.3804 C 113.8493 63.4117 114.1663 63.3988 114.4808 63.408 C 114.8741 63.4195 115.2678 63.4311 115.6611 63.4426 C 115.7593 63.4455 115.6611 63.4426 115.6611 63.4426 "/>
      <path id="ID0.6422801343724132" fill="none" stroke="#000000" stroke-width="0.9446965000148362" stroke-linecap="round" d="M 118.875 46.3555 C 118.875 46.3555 119.9827 46.499 120.5206 46.64 C 121.0018 46.7661 121.4384 47.0417 121.9232 47.1537 C 122.2297 47.2246 122.8675 47.1813 122.8675 47.1813 "/>
      <path id="ID0.7584992088377476" fill="none" stroke="#000000" stroke-width="0.9446965000148362" stroke-linecap="round" d="M 118.9658 51.32 C 118.9658 51.32 120.3519 51.8331 121.0766 51.8544 C 121.5002 51.8668 122.2708 51.4168 122.2708 51.4168 "/>
      <path id="ID0.40438934741541743" fill="none" stroke="#000000" stroke-width="0.9446965000148362" stroke-linecap="round" d="M 119.1682 60.5407 C 119.8893 60.0897 120.6318 59.6663 121.3343 59.1865 C 121.5181 59.061 121.8203 58.7282 121.8203 58.7282 "/>
      <path id="ID0.7633831659331918" fill="none" stroke="#000000" stroke-width="0.9446965000148362" stroke-linecap="round" d="M 117.4327 63.3251 C 117.4327 63.3251 119.0001 63.5511 119.7865 63.6304 C 120.0993 63.6617 120.4163 63.6488 120.7308 63.658 C 121.1241 63.6695 121.5178 63.6811 121.9111 63.6926 C 122.0093 63.6955 121.9111 63.6926 121.9111 63.6926 "/>
      <path id="ID0.7584992088377476" fill="none" stroke="#000000" stroke-width="0.9446965000148362" stroke-linecap="round" d="M 58.0158 50.57 C 58.0158 50.57 59.4019 51.0831 60.1266 51.1044 C 60.5502 51.1168 61.3208 50.6668 61.3208 50.6668 "/>
      <path id="ID0.40438934741541743" fill="none" stroke="#000000" stroke-width="0.9446965000148362" stroke-linecap="round" d="M 58.2182 59.7907 C 58.9393 59.3397 59.6818 58.9163 60.3843 58.4365 C 60.5681 58.311 60.8703 57.9782 60.8703 57.9782 "/>
    </g>
  </g>
</svg>