<svg version="1.1" xmlns="http://www.w3.org/2000/svg" xmlns:xlink="http://www.w3.org/1999/xlink" width="102.97583" height="175.11" viewBox="0,0,102.97583,175.11"><g transform="translate(-189.50416,-92.61)"><g data-paper-data="{&quot;isPaintingLayer&quot;:true}" fill="none" fill-rule="none" stroke="none" stroke-width="none" stroke-linecap="none" stroke-linejoin="none" stroke-miterlimit="10" stroke-dasharray="" stroke-dashoffset="0" font-family="none" font-weight="none" font-size="none" text-anchor="none" style="mix-blend-mode: normal"><g id="Left-Wheel"><path d="M210.43,253.65h-4.29c-3.33,0 -6,-3.63 -6,-8.1c0,-4.47 2.7,-8.1 6,-8.1h4.29z" id="Shape" fill="#ffdb48" fill-rule="nonzero" stroke="#5e154d" stroke-width="1.44" stroke-linecap="round" stroke-linejoin="round"/><path d="M204.46,245.55c0,-4.47351 2.67286,-8.1 5.97,-8.1c3.29714,0 5.97,3.62649 5.97,8.1c0,4.47351 -2.67286,8.1 -5.97,8.1c-3.29714,0 -5.97,-3.62649 -5.97,-8.1z" id="Oval" fill="#ffdb48" fill-rule="nonzero" stroke="#5e154d" stroke-width="1.44" stroke-linecap="round" stroke-linejoin="round"/><path d="M206.38,255.45h21.84v3.96h-19.86c-0.7961,-1.2474 -1.4598,-2.5746 -1.98,-3.96z" id="Shape" fill="#f05822" fill-rule="nonzero" stroke="#dd3627" stroke-width="0.72" stroke-linecap="round" stroke-linejoin="round"/><path d="M228.22,231.69v3.96h-21.84c0.5202,-1.3854 1.1839,-2.7126 1.98,-3.96z" id="Shape" fill="#f05822" fill-rule="nonzero" stroke="#dd3627" stroke-width="0.72" stroke-linecap="round" stroke-linejoin="round"/><path d="M208.36,259.41h19.86v3.96h-16.56c-1.2776,-1.1612 -2.3882,-2.4939 -3.3,-3.96z" id="Shape" fill="#f05822" fill-rule="nonzero" stroke="#dd3627" stroke-width="0.72" stroke-linecap="round" stroke-linejoin="round"/><path d="M211.66,263.37h16.56v3.63h-7.98c-3.2123,-0.099 -6.272,-1.3935 -8.58,-3.63z" id="Shape" fill="#f05822" fill-rule="nonzero" stroke="#dd3627" stroke-width="0.72" stroke-linecap="round" stroke-linejoin="round"/><path d="M204.64,247.53h23.58v3.96h-23.01c-0.2843,-1.3047 -0.4748,-2.6281 -0.57,-3.96z" id="Shape" fill="#f05822" fill-rule="nonzero" stroke="#dd3627" stroke-width="0.72" stroke-linecap="round" stroke-linejoin="round"/><path d="M205.21,251.49h23.01v3.96h-21.84c-0.4885,-1.2889 -0.8796,-2.6126 -1.17,-3.96z" id="Shape" fill="#f05822" fill-rule="nonzero" stroke="#dd3627" stroke-width="0.72" stroke-linecap="round" stroke-linejoin="round"/><path d="M228.22,227.73h-16.56c2.3308,-2.1818 5.3879,-3.4217 8.58,-3.48h7.98z" id="Shape" fill="#f05822" fill-rule="nonzero" stroke="#dd3627" stroke-width="0.72" stroke-linecap="round" stroke-linejoin="round"/><path d="M204.64,243.57h23.52v3.96h-23.58c0,-0.66 0,-1.32 0,-1.98c0,-0.66 0.03,-1.32 0.06,-1.98z" id="Shape" fill="#f05822" fill-rule="nonzero" stroke="#dd3627" stroke-width="0.72" stroke-linecap="round" stroke-linejoin="round"/><path d="M228.22,231.69h-19.86c0.9118,-1.4661 2.0224,-2.7988 3.3,-3.96h16.56z" id="Shape" fill="#f05822" fill-rule="nonzero" stroke="#dd3627" stroke-width="0.72" stroke-linecap="round" stroke-linejoin="round"/><path d="M206.38,235.65h21.84v3.96h-23.01c0.2904,-1.3474 0.6815,-2.6711 1.17,-3.96z" id="Shape" fill="#f05822" fill-rule="nonzero" stroke="#dd3627" stroke-width="0.72" stroke-linecap="round" stroke-linejoin="round"/><path d="M205.21,239.61h23.01v3.96h-23.58c0.0974,-1.3317 0.2879,-2.6549 0.57,-3.96z" id="Shape" fill="#f05822" fill-rule="nonzero" stroke="#dd3627" stroke-width="0.72" stroke-linecap="round" stroke-linejoin="round"/><path d="M212.56,245.55c0,-11.76367 7.01122,-21.3 15.66,-21.3c8.64878,0 15.66,9.53633 15.66,21.3c0,11.76367 -7.01122,21.3 -15.66,21.3c-8.64878,0 -15.66,-9.53633 -15.66,-21.3z" id="Oval" fill="#ffbd39" fill-rule="nonzero" stroke="none" stroke-width="1" stroke-linecap="butt" stroke-linejoin="miter"/><path d="M219.22,245.55c0,-6.7434 4.02944,-12.21 9,-12.21c4.97056,0 9,5.4666 9,12.21c0,6.7434 -4.02944,12.21 -9,12.21c-4.97056,0 -9,-5.4666 -9,-12.21z" id="Oval" fill="#e69724" fill-rule="nonzero" stroke="#e69724" stroke-width="1.08" stroke-linecap="butt" stroke-linejoin="miter"/><path d="M224.29,245.55c0,-2.96577 1.75952,-5.37 3.93,-5.37c2.17048,0 3.93,2.40423 3.93,5.37c0,2.96577 -1.75952,5.37 -3.93,5.37c-2.17048,0 -3.93,-2.40423 -3.93,-5.37z" id="Oval" fill="none" fill-rule="evenodd" stroke="#dd3627" stroke-width="0.72" stroke-linecap="round" stroke-linejoin="round"/><path d="M243.88,245.7c0,11.76 -7.02,21.3 -15.66,21.3h-7.98c-3.2123,-0.099 -6.272,-1.3935 -8.58,-3.63c-1.2776,-1.1612 -2.3882,-2.4939 -3.3,-3.96c-0.7961,-1.2474 -1.4598,-2.5746 -1.98,-3.96c-0.4885,-1.2889 -0.8796,-2.6126 -1.17,-3.96c-0.2843,-1.3047 -0.4748,-2.6281 -0.57,-3.96c0,-0.66 0,-1.32 0,-1.98c0,-0.66 0,-1.32 0,-1.98c0.0974,-1.3317 0.2879,-2.6549 0.57,-3.96c0.2904,-1.3474 0.6815,-2.6711 1.17,-3.96c0.5202,-1.3854 1.1839,-2.7126 1.98,-3.96c0.9118,-1.4661 2.0224,-2.7988 3.3,-3.96c2.3308,-2.1818 5.3879,-3.4217 8.58,-3.48h7.98c8.64,0 15.66,9.69 15.66,21.45z" id="Shape" fill="#ff0000" fill-rule="evenodd" stroke="#5e154d" stroke-width="1.44" stroke-linecap="round" stroke-linejoin="round"/></g><g id="Left-Arm" fill-rule="nonzero" stroke="#5e154d"><path d="M196.69,188.97l-3.33,-2.16c-3.81,-2.55 -4.23,-8.13 -0.81,-13.44l8.76,-13.53l8.73,-13.5c3.6,-5.31 8.7,-7.32 12.6,-4.77l3.36,2.16z" id="Shape" fill="#5e154d" stroke-width="1.44" stroke-linecap="round" stroke-linejoin="round"/><path d="M226.87,157.17l-8.73,13.53l-8.76,13.5c-3.6,5.31 -8.82,7.29 -12.6,4.77c-3.78,-2.52 -4.23,-8.13 -0.78,-13.44l8.7,-13.53l8.7,-13.5c3.42,-5.28 8.67,-7.29 12.6,-4.77c3.96,2.55 4.29,8.16 0.87,13.44z" id="Shape" fill="#ff0000" stroke-width="1.44" stroke-linecap="butt" stroke-linejoin="miter"/><path d="M219.07,149.91c0,-1.65685 1.34315,-3 3,-3c1.65685,0 3,1.34315 3,3c0,1.65685 -1.34315,3 -3,3c-1.65685,0 -3,-1.34315 -3,-3z" id="Oval" fill="#000000" stroke-width="0.72" stroke-linecap="round" stroke-linejoin="round"/><path d="M197.89,182.58c0,-1.65685 1.34315,-3 3,-3c1.65685,0 3,1.34315 3,3c0,1.65685 -1.34315,3 -3,3c-1.65685,0 -3,-1.34315 -3,-3z" id="Oval" fill="#5e154d" stroke-width="0.72" stroke-linecap="round" stroke-linejoin="round"/></g><g id="Head"><path d="M234.16,133.2v-7.23h24.06v7.23z" id="Rectangle-path" fill="none" fill-rule="evenodd" stroke="#5e154d" stroke-width="1.44" stroke-linecap="round" stroke-linejoin="round"/><path d="M205.24,110.55c0.1001,3.5603 0.451,7.1091 1.05,10.62l-3.24,-0.57c-0.845,-3.2823 -1.2584,-6.6608 -1.23,-10.05c-0.0052,-3.3879 0.408,-6.7634 1.23,-10.05l3,-0.57c-0.4998,3.5187 -0.7704,7.0662 -0.81,10.62z" id="Shape" fill="#5e154d" fill-rule="nonzero" stroke="#5e154d" stroke-width="1.44" stroke-linecap="round" stroke-linejoin="round"/><path d="M219.4,98.55v24c0,0 -6.57,-0.33 -13.2,-1.38c-0.599,-3.5109 -0.9499,-7.0597 -1.05,-10.62c0.0694,-3.5558 0.3701,-7.1033 0.9,-10.62c6.69,-0.93 13.35,-1.38 13.35,-1.38z" id="Shape" fill="#d2a6cc" fill-rule="nonzero" stroke="#5e154d" stroke-width="1.44" stroke-linecap="round" stroke-linejoin="round"/><path d="M286.3,99.93l3,0.57c0.822,3.2866 1.2352,6.6621 1.23,10.05c0.0284,3.3892 -0.385,6.7677 -1.23,10.05l-3.24,0.57c0.5889,-3.5117 0.9297,-7.0604 1.02,-10.62c-0.0297,-3.5532 -0.2902,-7.1006 -0.78,-10.62z" id="Shape" fill="#5e154d" fill-rule="nonzero" stroke="#5e154d" stroke-width="1.44" stroke-linecap="round" stroke-linejoin="round"/><path d="M286.3,99.93c0.5299,3.5167 0.8306,7.0642 0.9,10.62c-0.0903,3.5596 -0.4311,7.1083 -1.02,10.62c-6.63,1.05 -13.23,1.38 -13.23,1.38v-24c0,0 6.69,0.45 13.35,1.38z" id="Shape" fill="#d2a6cc" fill-rule="nonzero" stroke="#5e154d" stroke-width="1.44" stroke-linecap="round" stroke-linejoin="round"/><path d="M276.04,126.18c-9.9629,1.1017 -19.9765,1.6825 -30,1.74c-10.0235,-0.0563 -20.0372,-0.6371 -30,-1.74c-2.9593,-10.2201 -2.9593,-21.0699 0,-31.29c9.9628,-1.1029 19.9765,-1.6837 30,-1.74c10.0235,0.0575 20.0371,0.6383 30,1.74c2.9188,10.2258 2.9188,21.0642 0,31.29z" id="Shape" fill="#9f509e" fill-rule="nonzero" stroke="#5e154d" stroke-width="1.08" stroke-linecap="round" stroke-linejoin="round"/><path d="M243.88,96.36v28.38c-12.72,-0.15 -24.3,-1.41 -24.3,-1.41c-2.6401,-8.3257 -2.6401,-17.2643 0,-25.59c0,0 11.58,-1.26 24.3,-1.38z" id="Shape" fill="#ff0000" fill-rule="nonzero" stroke="none" stroke-width="1" stroke-linecap="butt" stroke-linejoin="miter"/><path d="M272.8,123.33c0,0 -8.31,0.9 -18.57,1.26v-28.11c10.26,0.36 18.57,1.26 18.57,1.26c1.3059,4.1441 1.9637,8.4651 1.95,12.81c0.0135,4.3351 -0.6443,8.6462 -1.95,12.78z" id="Shape" fill="#ff0000" fill-rule="nonzero" stroke="none" stroke-width="1" stroke-linecap="butt" stroke-linejoin="miter"/><path d="M247.81,96.33v28.38h-3.81v-28.38h2.19z" id="Shape" fill="#ff0000" fill-rule="nonzero" stroke="none" stroke-width="1" stroke-linecap="butt" stroke-linejoin="miter"/><path d="M250.33,96.39v28.35h-2.64v-28.41z" id="Shape" fill="#ff0000" fill-rule="nonzero" stroke="none" stroke-width="1" stroke-linecap="butt" stroke-linejoin="miter"/><path d="M254.23,96.48v28.23h-3.9v-28.32c1.32,0 2.67,0.06 3.9,0.09z" id="Shape" fill="#ff0000" fill-rule="nonzero" stroke="none" stroke-width="1" stroke-linecap="butt" stroke-linejoin="miter"/></g><g id="Eyes" stroke-width="3" stroke-linecap="butt" stroke-linejoin="miter"><path d="M225.76,110.55c0,-4.49008 3.63992,-8.13 8.13,-8.13c4.49008,0 8.13,3.63992 8.13,8.13c0,4.49008 -3.63992,8.13 -8.13,8.13c-4.49008,0 -8.13,-3.63992 -8.13,-8.13z" id="Oval" fill="#d2a6cc" fill-rule="nonzero" stroke="#ffffff"/><path d="M229.66,110.55c0,-2.33616 1.89384,-4.23 4.23,-4.23c2.33616,0 4.23,1.89384 4.23,4.23c0,2.33616 -1.89384,4.23 -4.23,4.23c-2.33616,0 -4.23,-1.89384 -4.23,-4.23z" id="Oval" fill="none" fill-rule="evenodd" stroke="#dd3627"/><path d="M250.33,110.55c0,-4.49008 3.63992,-8.13 8.13,-8.13c4.49008,0 8.13,3.63992 8.13,8.13c0,4.49008 -3.63992,8.13 -8.13,8.13c-4.49008,0 -8.13,-3.63992 -8.13,-8.13z" id="Oval" fill="#d2a6cc" fill-rule="nonzero" stroke="#ffffff"/><path d="M254.23,110.55c0,-2.33616 1.89384,-4.23 4.23,-4.23c2.33616,0 4.23,1.89384 4.23,4.23c0,2.33616 -1.89384,4.23 -4.23,4.23c-2.33616,0 -4.23,-1.89384 -4.23,-4.23z" id="Oval" fill="none" fill-rule="evenodd" stroke="#dd3627"/></g><g id="Body"><path d="M245.02,193.65v-60.48h4.05v60.48z" id="Rectangle-path" fill="#ffe578" fill-rule="nonzero" stroke="none" stroke-width="1" stroke-linecap="butt" stroke-linejoin="miter"/><path d="M213.97,193.65v-60.48h31.05v60.48z" id="Rectangle-path" fill="#ffdb48" fill-rule="nonzero" stroke="none" stroke-width="1" stroke-linecap="butt" stroke-linejoin="miter"/><path d="M251.59,193.65v-60.48h4.62v60.48z" id="Rectangle-path" fill="#ffe578" fill-rule="nonzero" stroke="none" stroke-width="1" stroke-linecap="butt" stroke-linejoin="miter"/><path d="M249.07,193.65v-60.48h3v60.48z" id="Rectangle-path" fill="#fff1b6" fill-rule="nonzero" stroke="none" stroke-width="1" stroke-linecap="butt" stroke-linejoin="miter"/><path d="M256.24,193.65v-60.48h7.5v60.48z" id="Rectangle-path" fill="#ffdb48" fill-rule="nonzero" stroke="none" stroke-width="1" stroke-linecap="butt" stroke-linejoin="miter"/><path d="M283.36,188.79l-19.62,4.86v-60.48l19.62,3.9z" id="Shape" fill="#e69724" fill-rule="nonzero" stroke="none" stroke-width="1" stroke-linecap="butt" stroke-linejoin="miter"/><path d="M283.36,188.79l-9.33,17.4l-19.62,4.47l9.33,-17.01z" id="Shape" fill="#e69724" fill-rule="nonzero" stroke="none" stroke-width="1" stroke-linecap="butt" stroke-linejoin="miter"/><path d="M274.06,240.27l-19.65,5.28v-34.89l19.65,-4.5z" id="Shape" fill="#e69724" fill-rule="nonzero" stroke="none" stroke-width="1" stroke-linecap="butt" stroke-linejoin="miter"/><path d="M240.97,210.27v34.92h-17.16l-0.03,-34.92z" id="Shape" fill="#ffdb48" fill-rule="nonzero" stroke="none" stroke-width="1" stroke-linecap="butt" stroke-linejoin="miter"/><path d="M240.97,245.19v-34.89h4.05v34.89z" id="Rectangle-path" fill="#ffe578" fill-rule="nonzero" stroke="none" stroke-width="1" stroke-linecap="butt" stroke-linejoin="miter"/><path d="M245.02,245.19v-34.89h3v34.89z" id="Rectangle-path" fill="#fff1b6" fill-rule="nonzero" stroke="none" stroke-width="1" stroke-linecap="butt" stroke-linejoin="miter"/><path d="M247.66,245.19v-34.89h4.56v34.89z" id="Rectangle-path" fill="#ffe578" fill-rule="nonzero" stroke="none" stroke-width="1" stroke-linecap="butt" stroke-linejoin="miter"/><path d="M252.19,245.19v-34.89h3v34.89z" id="Rectangle-path" fill="#ffdb48" fill-rule="nonzero" stroke="none" stroke-width="1" stroke-linecap="butt" stroke-linejoin="miter"/><path d="M249.04,193.65l-4.02,17.01h-4.05l4.02,-17.01z" id="Shape" fill="#ffe578" fill-rule="nonzero" stroke="none" stroke-width="1" stroke-linecap="butt" stroke-linejoin="miter"/><path d="M244.99,193.65l-4.02,17.01h-2.13h-15.15l-9.72,-17.01h24.87z" id="Shape" fill="#ffdb48" fill-rule="nonzero" stroke="none" stroke-width="1" stroke-linecap="butt" stroke-linejoin="miter"/><path d="M251.68,193.65l-4.02,17.01h-2.64l4.02,-17.01z" id="Shape" fill="#fff1b6" fill-rule="nonzero" stroke="none" stroke-width="1" stroke-linecap="butt" stroke-linejoin="miter"/><path d="M256.24,193.65l-4.05,17.01h-4.53l4.02,-17.01z" id="Shape" fill="#ffe578" fill-rule="nonzero" stroke="none" stroke-width="1" stroke-linecap="butt" stroke-linejoin="miter"/><path d="M254.38,210.66h-2.19l4.05,-17.01h7.5z" id="Shape" fill="#ffdb48" fill-rule="nonzero" stroke="none" stroke-width="1" stroke-linecap="butt" stroke-linejoin="miter"/><path d="M274.06,206.16v34.11l-19.65,5.28h-30.45l-0.12,-34.89h30.57z" id="Shape" fill="#ff0000" fill-rule="evenodd" stroke="#5e154d" stroke-width="1.44" stroke-linecap="round" stroke-linejoin="round"/><path d="M283.36,188.79l-9.33,17.4l-19.65,4.47h-15.54h-15.15l-9.72,-17.01h24.87h24.9z" id="Shape" fill="#ff0000" fill-rule="evenodd" stroke="#5e154d" stroke-width="1.44" stroke-linecap="round" stroke-linejoin="round"/><path d="M283.36,137.07v51.72l-19.62,4.86h-49.77v-60.48h49.77z" id="Shape" fill="#ff0000" fill-rule="evenodd" stroke="#5e154d" stroke-width="1.44" stroke-linecap="round" stroke-linejoin="round"/><path d="M259.54,167.67v2.88" id="Shape" fill="none" fill-rule="evenodd" stroke="#ffffff" stroke-width="2.16" stroke-linecap="round" stroke-linejoin="round"/><path d="M259.54,146.16v17.22" id="Shape" fill="none" fill-rule="evenodd" stroke="#ffffff" stroke-width="2.16" stroke-linecap="round" stroke-linejoin="round"/></g><g id="Dial" fill-rule="nonzero" stroke="#dd3627" stroke-linecap="round" stroke-linejoin="round"><path d="M240.4,186.27h-1.89v-15.87h1.89c4.1401,0.3008 7.3326,3.7692 7.29,7.92c0.0586,4.1623 -3.1382,7.6485 -7.29,7.95z" id="Shape" fill="#dd3627" stroke-width="0.72"/><path d="M230.59,178.32c0,-4.39066 3.45188,-7.95 7.71,-7.95c4.25812,0 7.71,3.55934 7.71,7.95c0,4.39066 -3.45188,7.95 -7.71,7.95c-4.25812,0 -7.71,-3.55934 -7.71,-7.95z" id="Oval" fill="#ffffff" stroke-width="0.72"/><path d="M236.62,183.87v-11.1h3v11.1z" id="Rectangle-path" fill="#dd3627" stroke-width="0.54"/><path d="M238.51,172.77l1.89,0.42v10.17l-1.89,0.51z" id="Shape" fill="#ffdb48" stroke-width="0.54"/></g><g id="Meter" stroke-linecap="butt" stroke-linejoin="miter"><path d="M222.67,162.15v-19.5h31.74v19.5z" id="Rectangle-path" fill="#d2a6cc" fill-rule="nonzero" stroke="#d2a6cc" stroke-width="1.08"/><path d="M233.56,149.97l-1.5,-2.61" id="Shape" fill="none" fill-rule="evenodd" stroke="#ffdb48" stroke-width="0.72"/><path d="M238.54,148.62v-3" id="Shape" fill="none" fill-rule="evenodd" stroke="#ffdb48" stroke-width="0.72"/><path d="M229.93,153.6l-2.61,-1.5" id="Shape" fill="none" fill-rule="evenodd" stroke="#ffdb48" stroke-width="0.72"/><path d="M232.06,147.36l1.5,2.61" id="Shape" fill="none" fill-rule="evenodd" stroke="#ffdb48" stroke-width="0.72"/><path d="M228.61,158.58h-3.03" id="Shape" fill="none" fill-rule="evenodd" stroke="#ffdb48" stroke-width="0.72"/><path d="M227.32,152.1l2.61,1.5" id="Shape" fill="none" fill-rule="evenodd" stroke="#ffdb48" stroke-width="0.72"/><path d="M251.5,158.58h-3.03" id="Shape" fill="none" fill-rule="evenodd" stroke="#ffdb48" stroke-width="0.72"/><path d="M249.76,152.1l-2.61,1.5" id="Shape" fill="none" fill-rule="evenodd" stroke="#ffdb48" stroke-width="0.72"/><path d="M238.54,145.62v3" id="Shape" fill="none" fill-rule="evenodd" stroke="#ffdb48" stroke-width="0.72"/><path d="M243.52,149.97l1.5,-2.61" id="Shape" fill="none" fill-rule="evenodd" stroke="#ffdb48" stroke-width="0.72"/><path d="M242.2,152.1l-3.87,6.48l-3.45,-2.58" id="Shape" fill="none" fill-rule="evenodd" stroke="#f05822" stroke-width="1.08"/></g><g id="Right-Wheel"><path d="M253,251.49h23.1v3.96h-21.84c-0.5191,-1.2864 -0.9403,-2.6102 -1.26,-3.96z" id="Shape" fill="#f05822" fill-rule="nonzero" stroke="#dd3627" stroke-width="0.72" stroke-linecap="round" stroke-linejoin="round"/><path d="M252.52,247.53h23.58v3.96h-23.1c-0.2541,-1.3069 -0.4145,-2.6303 -0.48,-3.96z" id="Shape" fill="#f05822" fill-rule="nonzero" stroke="#dd3627" stroke-width="0.72" stroke-linecap="round" stroke-linejoin="round"/><path d="M252.52,243.57h23.58v3.96h-23.64c0,-0.66 0,-1.32 0,-1.98c0,-0.66 0.03,-1.32 0.06,-1.98z" id="Shape" fill="#f05822" fill-rule="nonzero" stroke="#dd3627" stroke-width="0.72" stroke-linecap="round" stroke-linejoin="round"/><path d="M254.26,255.45h21.84v3.96h-19.86c-0.7961,-1.2474 -1.4598,-2.5746 -1.98,-3.96z" id="Shape" fill="#f05822" fill-rule="nonzero" stroke="#dd3627" stroke-width="0.72" stroke-linecap="round" stroke-linejoin="round"/><path d="M259.54,263.37h16.56v3.63h-8.1c-3.1717,-0.1227 -6.1856,-1.4159 -8.46,-3.63z" id="Shape" fill="#f05822" fill-rule="nonzero" stroke="#dd3627" stroke-width="0.72" stroke-linecap="round" stroke-linejoin="round"/><path d="M256.24,259.41h19.86v3.96h-16.56c-1.2776,-1.1612 -2.3882,-2.4939 -3.3,-3.96z" id="Shape" fill="#f05822" fill-rule="nonzero" stroke="#dd3627" stroke-width="0.72" stroke-linecap="round" stroke-linejoin="round"/><path d="M276.1,231.69h-19.86c0.9118,-1.4661 2.0224,-2.7988 3.3,-3.96h16.56z" id="Shape" fill="#f05822" fill-rule="nonzero" stroke="#dd3627" stroke-width="0.72" stroke-linecap="round" stroke-linejoin="round"/><path d="M253,239.61h23.1v3.96h-23.58c0.0677,-1.3296 0.2281,-2.6528 0.48,-3.96z" id="Shape" fill="#f05822" fill-rule="nonzero" stroke="#dd3627" stroke-width="0.72" stroke-linecap="round" stroke-linejoin="round"/><path d="M276.1,231.69v3.96h-21.84c0.5202,-1.3854 1.1839,-2.7126 1.98,-3.96z" id="Shape" fill="#f05822" fill-rule="nonzero" stroke="#dd3627" stroke-width="0.72" stroke-linecap="round" stroke-linejoin="round"/><path d="M254.26,235.65h21.84v3.96h-23.1c0.3197,-1.3498 0.7409,-2.6736 1.26,-3.96z" id="Shape" fill="#f05822" fill-rule="nonzero" stroke="#dd3627" stroke-width="0.72" stroke-linecap="round" stroke-linejoin="round"/><path d="M276.1,227.73h-16.68c2.3277,-2.1867 5.3867,-3.4274 8.58,-3.48h8.1z" id="Shape" fill="#f05822" fill-rule="nonzero" stroke="#dd3627" stroke-width="0.72" stroke-linecap="round" stroke-linejoin="round"/><path d="M260.44,245.55c0,-11.76367 7.01122,-21.3 15.66,-21.3c8.64878,0 15.66,9.53633 15.66,21.3c0,11.76367 -7.01122,21.3 -15.66,21.3c-8.64878,0 -15.66,-9.53633 -15.66,-21.3z" id="Oval" fill="#ffbd39" fill-rule="nonzero" stroke="none" stroke-width="1" stroke-linecap="butt" stroke-linejoin="miter"/><path d="M291.76,245.7c0,11.76 -7.02,21.3 -15.66,21.3h-8.1c-3.2031,-0.1006 -6.2529,-1.3954 -8.55,-3.63c-1.2776,-1.1612 -2.3882,-2.4939 -3.3,-3.96c-0.7961,-1.2474 -1.4598,-2.5746 -1.98,-3.96c-0.4885,-1.2889 -0.8796,-2.6126 -1.17,-3.96c-0.2843,-1.3047 -0.4748,-2.6281 -0.57,-3.96c0,-0.66 0,-1.32 0,-1.98c0,-0.66 0,-1.32 0,-1.98c0.0974,-1.3317 0.2879,-2.6549 0.57,-3.96c0.2806,-1.3466 0.6616,-2.6703 1.14,-3.96c0.5202,-1.3854 1.1839,-2.7126 1.98,-3.96c0.9118,-1.4661 2.0224,-2.7988 3.3,-3.96c2.3277,-2.1867 5.3867,-3.4274 8.58,-3.48h8.1c8.64,0 15.66,9.69 15.66,21.45z" id="Shape" fill="#ff0000" fill-rule="evenodd" stroke="#5e154d" stroke-width="1.44" stroke-linecap="round" stroke-linejoin="round"/><path d="M267.1,245.55c0,-6.7434 4.02944,-12.21 9,-12.21c4.97056,0 9,5.4666 9,12.21c0,6.7434 -4.02944,12.21 -9,12.21c-4.97056,0 -9,-5.4666 -9,-12.21z" id="Oval" fill="none" fill-rule="evenodd" stroke="#ffffff" stroke-width="1.08" stroke-linecap="butt" stroke-linejoin="miter"/><path d="M281.32,253.65h-4.32c-3.33,0 -6,-3.63 -6,-8.1c0,-4.47 2.7,-8.1 6,-8.1h4.32z" id="Shape" fill="#ffdb48" fill-rule="nonzero" stroke="none" stroke-width="1" stroke-linecap="butt" stroke-linejoin="miter"/><path d="M275.35,245.55c0,-4.47351 2.67286,-8.1 5.97,-8.1c3.29714,0 5.97,3.62649 5.97,8.1c0,4.47351 -2.67286,8.1 -5.97,8.1c-3.29714,0 -5.97,-3.62649 -5.97,-8.1z" id="Oval" fill="#e69724" fill-rule="nonzero" stroke="none" stroke-width="1" stroke-linecap="butt" stroke-linejoin="miter"/><path d="M278.59,245.55c0,-1.65685 1.34315,-3 3,-3c1.65685,0 3,1.34315 3,3c0,1.65685 -1.34315,3 -3,3c-1.65685,0 -3,-1.34315 -3,-3z" id="Oval" fill="#5e154d" fill-rule="nonzero" stroke="#5e154d" stroke-width="1.44" stroke-linecap="round" stroke-linejoin="round"/><path d="M287.32,245.55c0,4.47 -2.73,8.1 -6,8.1h-4.32c-3.33,0 -6,-3.63 -6,-8.1c0,-4.47 2.7,-8.1 6,-8.1h4.32c3.27,0 6,3.63 6,8.1z" id="Shape" fill="none" fill-rule="evenodd" stroke="#5e154d" stroke-width="1.44" stroke-linecap="round" stroke-linejoin="round"/></g><g id="Head" fill="none" fill-rule="evenodd" stroke="#ffffff" stroke-width="1.8" stroke-linecap="round" stroke-linejoin="round"><path d="M283.6,114c0,0.78 0,1.2 -0.24,2.04" id="Shape"/><path d="M283,102.87c0.5194,2.6466 0.7208,5.3457 0.6,8.04" id="Shape"/></g><g id="Right-Arm"><path d="M280.99,194.4h-3.99c-4.65,0 -7.95,-4.53 -7.95,-10.86v-32.19c0,-6.3 3.3,-10.86 7.95,-10.86h4.05z" id="Shape" fill="#5e154d" fill-rule="nonzero" stroke="#5e154d" stroke-width="1.44" stroke-linecap="round" stroke-linejoin="round"/><path d="M281.41,140.4v54h-0.36c-4.65,0 -7.98,-4.53 -7.98,-10.86v-32.19c0,-6.3 3.33,-10.86 7.98,-10.86z" id="Shape" fill="#ffdb48" fill-rule="nonzero" stroke="none" stroke-width="1" stroke-linecap="butt" stroke-linejoin="miter"/><path d="M283,140.82v53.28c-0.5139,0.1952 -1.0468,0.336 -1.59,0.42v-54c0.5406,0.0322 1.0749,0.133 1.59,0.3z" id="Shape" fill="#ffe578" fill-rule="nonzero" stroke="none" stroke-width="1" stroke-linecap="butt" stroke-linejoin="miter"/><path d="M289.18,151.35v32.1c0.0977,3.1239 -0.9718,6.1721 -3,8.55v-49.2c2.0231,2.3808 3.0919,5.427 3,8.55z" id="Shape" fill="#ffdb48" fill-rule="nonzero" stroke="none" stroke-width="1" stroke-linecap="butt" stroke-linejoin="miter"/><path d="M286.18,142.8v49.29c-0.5771,0.6298 -1.2567,1.1573 -2.01,1.56v-52.41c0.7466,0.4129 1.4247,0.9392 2.01,1.56z" id="Shape" fill="#ffe578" fill-rule="nonzero" stroke="none" stroke-width="1" stroke-linecap="butt" stroke-linejoin="miter"/><path d="M284.08,141.24v52.41c-0.3489,0.1754 -0.7098,0.3257 -1.08,0.45v-53.28c0.3697,0.1137 0.7306,0.2541 1.08,0.42z" id="Shape" fill="#fff1b6" fill-rule="nonzero" stroke="none" stroke-width="1" stroke-linecap="butt" stroke-linejoin="miter"/><path d="M278.05,147.87c0,-1.65685 1.34315,-3 3,-3c1.65685,0 3,1.34315 3,3c0,1.65685 -1.34315,3 -3,3c-1.65685,0 -3,-1.34315 -3,-3z" id="Oval" fill="#5e154d" fill-rule="nonzero" stroke="#5e154d" stroke-width="0.72" stroke-linecap="round" stroke-linejoin="round"/><path d="M278.05,186.78c0,-1.65685 1.34315,-3 3,-3c1.65685,0 3,1.34315 3,3c0,1.65685 -1.34315,3 -3,3c-1.65685,0 -3,-1.34315 -3,-3z" id="Oval" fill="#5e154d" fill-rule="nonzero" stroke="#5e154d" stroke-width="0.72" stroke-linecap="round" stroke-linejoin="round"/><path d="M289,151.35v32.19c0,6.33 -3.3,10.86 -7.95,10.86c-4.65,0 -7.98,-4.53 -7.98,-10.86v-32.19c0,-6.3 3.33,-10.86 7.98,-10.86c4.68,0 7.95,4.56 7.95,10.86z" id="Shape" fill="#ff0000" fill-rule="evenodd" stroke="#5e154d" stroke-width="1.44" stroke-linecap="round" stroke-linejoin="round"/></g></g></g></svg>