<svg xmlns="http://www.w3.org/2000/svg" xmlns:xlink="http://www.w3.org/1999/xlink" version="1.1" width="33.86182776486045" height="33.85392752682334" viewBox="0.05883590680775197 0.056135935608716325 33.86182776486045 33.85392752682334">
  <defs>
    <radialGradient id="grad_1" cx="0.4966" cy="0.5153" r="0.6698900000000001">
      <stop offset="0" stop-color="#E5E5E5" stop-opacity="1"/>
      <stop offset="1" stop-color="#B2B2B2" stop-opacity="1"/>
    </radialGradient>
  <radialGradient id="grad_1-.5514740943908691,0,0,0.5977113842964172,-110.1,-85.4" cx="16.906" cy="17.4473" r="21.4938" gradientUnits="userSpaceOnUse">
      <stop offset="0" stop-color="#E5E5E5" stop-opacity="1"/>
      <stop offset="1" stop-color="#B2B2B2" stop-opacity="1"/>
    </radialGradient></defs>
  <!-- Exported by Scratch - http://scratch.mit.edu/ -->
  <g id="ID0.7315421006642282">
    <path id="ID0.019175943452864885" fill="url(#grad_1-.5514740943908691,0,0,0.5977113842964172,-110.1,-85.4)" stroke="#000000" stroke-width="1.1501152774411516" d="M 17.0148 0.9693 C 21.4271 0.9693 25.4253 2.7606 28.3205 5.6554 C 31.2152 8.5495 33.0075 12.547 33.0075 16.9581 C 33.0075 21.3692 31.2152 25.3667 28.3205 28.2608 C 25.4253 31.1555 21.4271 32.9469 17.0148 32.9469 C 12.6024 32.9469 8.6042 31.1555 5.709 28.2608 C 2.8143 25.3667 1.022 21.3692 1.022 16.9581 C 1.022 12.547 2.8143 8.5495 5.709 5.6554 C 8.6042 2.7606 12.6024 0.9693 17.0148 0.9693 Z "/>
    <path id="ID0.7649938287213445" fill="#FF0000" stroke="#FF0000" d="M 25.9458 4.3839 L 29.8183 8.3249 L 8.2137 29.5543 L 4.3412 25.6133 L 25.9458 4.3839 Z " stroke-width="1.826328192106542"/>
    <path id="ID0.7649938287213445" fill="#FF0000" stroke="#FF0000" d="M 4.7866 8.1399 L 8.7276 4.2673 L 29.6432 25.5526 L 25.7022 29.4251 L 4.7866 8.1399 Z " stroke-width="1.8001162070245522"/>
    <path id="ID0.019175943452864885" fill="none" stroke="#000000" stroke-width="1.1501152774411516" d="M 16.9648 1.0193 C 21.3771 1.0193 25.3753 2.8106 28.2705 5.7054 C 31.1652 8.5995 32.9575 12.597 32.9575 17.0081 C 32.9575 21.4192 31.1652 25.4167 28.2705 28.3108 C 25.3753 31.2055 21.3771 32.9969 16.9648 32.9969 C 12.5524 32.9969 8.5542 31.2055 5.659 28.3108 C 2.7643 25.4167 0.972 21.4192 0.972 17.0081 C 0.972 12.597 2.7643 8.5995 5.659 5.7054 C 8.5542 2.8106 12.5524 1.0193 16.9648 1.0193 Z "/>
  </g>
</svg>