<svg version="1.1" xmlns="http://www.w3.org/2000/svg" xmlns:xlink="http://www.w3.org/1999/xlink" width="46.26114" height="190.31494" viewBox="0,0,46.26114,190.31494"><g transform="translate(-207.36788,-81.4229)"><g data-paper-data="{&quot;isPaintingLayer&quot;:true}" fill="none" fill-rule="nonzero" stroke="none" stroke-width="0.95" stroke-linecap="butt" stroke-linejoin="miter" stroke-miterlimit="10" stroke-dasharray="" stroke-dashoffset="0" font-family="none" font-weight="none" font-size="none" text-anchor="none" style="mix-blend-mode: normal"><path d="M231.52921,249.76c-2.5659,-0.018 -4.0546,-1.0079 -6.2643,-2.1109c-1.1732,-0.5861 -2.9811,-1.5143 -4.0574,-2.2961c-0.7591,-0.551 -1.958,-1.1989 -2.1717,-2.1337c-0.2641,-1.1543 0.6897,-2.1176 1.064,-3.1075c0.4379,-1.1533 0.5652,-2.355 0.1938,-3.5815c-0.3667,-1.2093 -1.0574,-2.3037 -1.1799,-3.5511c-0.1178,-1.196 0.171,-2.5137 0.2327,-3.743c0.2537,-5.0834 -0.7771,-10.1488 -0.7647,-15.3016c0.0038,-1.3101 -0.2461,-2.6971 -0.2451,-3.9948c0.0019,-1.3271 -0.3715,-2.6381 -0.2337,-3.9605c0.1577,-1.5248 -0.1349,-2.8681 -0.3021,-4.4375c-0.152,-1.4278 -0.0152,-2.9393 -0.0846,-4.4023c-0.0389,-0.8189 -0.1491,-1.7461 -0.3087,-2.5621c-0.1188,-0.6118 -0.0855,-1.8069 -0.3734,-2.4805c-1.7613,-4.1125 -1.0174,-18.0139 -0.2413,-17.8172c3.0486,0.7704 10.4073,6.897 13.6135,7.7824c1.464,0.4028 1.5951,0.5738 3.1322,0.7324c1.025,0.1055 2.1166,-0.2536 3.1397,-0.17c-0.0228,0.0199 5.3191,-1.9903 5.3656,-2.0463c0.3116,-0.1672 -1.025,3.8826 -3.324,5.719c-0.2584,0.208 -0.2214,3.8028 -0.3297,3.4808c0.5197,-0.0276 -1.3262,4.5438 -1.0136,4.8887c1.501,1.6672 1.804,0.3819 2.3873,0.1596c0.457,-0.1748 1.0802,0.1415 1.54,-0.0124c0.5196,-0.1729 0.5614,-0.6042 1.2255,-0.4569c0.2156,2.5669 -0.2261,5.3428 -0.6014,7.847c-0.266,1.7822 -0.4104,3.4399 -0.5472,5.0967c-0.1225,1.482 -0.1586,2.8586 -0.1586,4.3282c0,1.3234 -0.1967,2.6021 0.6802,3.668c0.4037,0.4892 0.8379,0.988 0.9775,1.6634c0.1292,0.6204 -0.0655,1.1875 -0.0123,1.7632c0.1368,1.464 0.569,2.5641 0.7391,3.8542c0.1719,1.2996 0.2764,2.4576 0.4674,3.7316c0.3762,2.5099 0.7315,4.9523 0.8882,7.5249c0.1454,2.395 0.399,5.0008 0.3021,7.4765c-0.0494,1.2787 -0.3638,2.319 -0.4788,3.5397c-0.1225,1.293 0.058,2.3779 0.4532,3.4894c0.398,1.1229 1.0155,2.2163 1.254,3.343c0.2603,1.2274 0.2004,2.4377 0.3154,3.7202c0.0798,0.8978 0.2223,1.4146 -0.2518,2.2306c-0.8768,1.5115 -1.3499,1.3671 -3.1103,2.319c-1.6425,1.1694 -1.4848,1.0564 -3.0162,1.7964c-1.1714,0.5672 -2.2382,-0.2052 -3.4571,-0.7125c-1.4497,-0.6042 -2.9193,-1.4649 -4.3633,-2.1223c-0.9025,-0.4123 -3.2937,-0.4645 -2.9678,-1.5903c0.1757,-0.6004 0.6137,-1.0364 0.721,-1.6853c0.114,-0.703 0.2898,-1.3927 0.3895,-2.0966c0.1093,-0.7581 0.0646,-1.3091 0.3211,-2.0017c0.2271,-0.6118 0.4446,-1.2293 0.4617,-1.9427c0.077,-0.02 0.1463,0.0038 0.2204,-0.0124" data-paper-data="{&quot;index&quot;:null}" id="Pants" fill="#244764"/><path d="M237.45911,116.2727c2.091,1.2103 4.2693,2.2353 6.5218,3.4836c2.8319,2.2401 4.0964,3.63 3.5292,2.7398c0.741,1.1628 1.6711,3.6509 1.9475,4.959c0.5586,2.6448 0.5691,2.0007 0.7923,4.5714c0.1121,1.2987 0.7258,2.3551 1.1229,3.5359c0.2024,0.5976 0.495,1.2236 0.6992,1.8107c0.2185,0.6356 1.0745,1.0042 1.1856,1.5903c0.152,0.799 -1.767,2.3817 -2.4386,2.8481c-1.0241,0.7125 -2.015,1.3633 -3.1588,1.8145c-1.0383,0.4095 -2.2002,0.7524 -3.3098,0.6489c-1.0051,-0.0941 -2.5944,-0.2717 -3.4789,-0.7154c0.495,2.3845 1.2863,4.8659 2.1005,7.1896c0.4303,1.2265 0.6355,2.7379 0.8911,4.0356c0.2679,1.3595 0.038,2.1755 -0.4693,3.3716c-1.0336,2.432 -0.6384,5.3333 -0.4826,7.8584c0.2004,3.2414 -0.0817,6.4942 -0.0789,9.7289c0.001,1.3376 -0.303,2.7807 -0.6137,4.0309c-0.3828,1.5352 -1.3233,1.1751 -2.6296,1.804c-2.2809,1.1001 -5.0283,1.4611 -7.6722,1.1258c-1.1001,-0.1397 -2.7949,-0.9795 -3.7952,-1.5181c-1.2445,-0.6698 -2.2477,-1.673 -3.4637,-2.3788c-1.3006,-0.7553 -2.5014,-1.5428 -3.7392,-2.4149c-1.1429,-0.8047 -2.6049,-1.1847 -3.7924,-1.9333c-0.8303,-0.5234 -0.9282,-0.5519 -1.0963,-1.4364c-0.1207,-0.6317 0.0171,-1.2388 0.2299,-1.9446c0.3201,-1.0545 1.1172,-2.0986 1.0241,-3.401c-0.0428,-0.5947 -0.4722,-1.1514 -0.5548,-1.7385c-0.1017,-0.7097 0.2118,-1.2711 0.3971,-1.9c0.3762,-1.2854 1.1419,-2.1708 1.6881,-3.3687c0.2717,-0.5938 0.6356,-1.1514 0.8588,-1.7547c0.2157,-0.5766 0.1444,-1.1476 0.3154,-1.7575c0.1929,-0.6906 0.5748,-1.2986 0.7923,-2.0548c0.1853,-0.6403 0.4123,-1.2493 0.5168,-1.901c0.2176,-1.3404 -0.0066,-2.5336 0.514,-3.7981c0.4332,-1.0516 0.1387,-2.1099 0.1928,-3.5634c0.0333,-0.8864 -0.2679,-0.9757 -1.083,-1.1058c-0.5947,-0.095 -1.1495,-0.3021 -1.6824,-0.6071c-0.9168,-0.5234 -1.8183,-1.5352 -2.3921,-2.4652c-0.7999,-1.293 0.4322,-1.9304 1.006,-2.8548c0.6384,-1.0317 1.064,-2.1869 1.4051,-3.3972c0.3382,-1.197 0.6336,-2.4253 0.8046,-3.6641c0.1767,-1.2768 0.2366,-3.2965 0.3781,-4.561c0.2869,-2.5669 2.2582,-3.5558 4.1382,-5.0464c0.912,-0.7229 2.0957,-1.3737 2.9887,-2.0738c-0.4598,0.912 -0.7058,1.6501 -1.0896,2.2144c-0.3363,0.4931 -0.5092,1.064 -0.7268,1.5799c-0.5025,1.1932 -1.0326,2.45 -0.265,3.6584c0.7733,1.2189 1.6606,2.1879 3.1872,2.0368c1.6207,-0.1605 2.1917,-0.5842 2.9916,-1.9142c0.6013,-0.9975 1.3946,-1.3405 1.8192,-2.4083c0.4475,-1.1267 1.292,-2.7094 1.7756,-3.8218c0.4379,-1.007 0.6612,-1.9912 1.3556,-2.8196c0.5349,-0.6394 1.7281,-2.4111 0.4427,-2.8776" data-paper-data="{&quot;index&quot;:null}" id="Shirt" fill="#555d7b"/><path d="M241.12521,143.816c-0.2651,0.0456 0.3572,0.1102 0.5149,0.1473c0.247,0.0589 0.4959,0.1007 0.7391,0.1491c0.3733,0.0751 0.7153,0.1254 1.1238,0.1454c0.8018,0.0408 1.8012,0.1102 2.5688,-0.0694c0.7857,-0.1833 1.6806,-0.4645 2.4349,-0.797c0.7172,-0.3164 1.3604,-1.122 2.0472,-1.3376c0.0171,0.5937 0.1577,0.9329 0.4133,1.5038c0.2698,0.6033 0.2565,0.9833 0.3344,1.6635c0.1349,1.178 0.0665,2.1821 0.4664,3.3649c0.4209,1.2445 0.6308,2.6837 0.571,4.027c-0.0589,1.3167 -0.1663,2.243 0.3135,3.5065c0.8398,2.2106 0.1919,4.8868 -0.3876,7.0214c-0.3135,1.1514 -0.6223,2.2686 -0.9766,3.3972c-0.1786,0.5672 -0.2214,1.0868 -0.4446,1.6198c-0.2299,0.551 -0.2603,1.1077 -0.4617,1.6606c-0.4332,1.197 -0.9196,2.4158 -1.1657,3.6442c-0.2251,1.1276 -0.7258,2.4529 -1.0003,3.5501c-0.5624,2.2544 -1.1619,4.0803 -1.4098,6.4201c-0.134,1.2645 0.4579,2.3731 0.5168,3.6157c0.0589,1.2578 -0.1416,2.3893 -0.4418,3.5426c-0.227,0.8816 -0.6982,2.5213 -1.5513,2.8576c-0.5387,0.2147 -1.0089,0.2185 -1.5314,0.4797c-0.4807,0.2394 -0.951,0.4095 -1.4934,0.4959c-0.7353,0.1178 -1.2312,0.3762 -1.9941,0.2993c-0.797,-0.0808 -1.2958,0.8132 -1.6321,0.7951c-1.2863,0.21 -1.519,-1.3328 -1.2236,-2.1821c0.1606,-0.4617 0.5149,-0.8161 0.6622,-1.33c0.1396,-0.4883 0.1301,-1.2075 0.2061,-1.7138c0.1691,-1.1343 -0.1738,-2.3332 0.2936,-3.3953c0.4142,-0.9443 1.2863,-1.4146 1.8658,-2.2648c1.2084,-1.7718 1.8192,-4.5714 1.8981,-6.6605c0.0465,-1.2065 0.3686,-2.1498 0.3686,-3.3934c0,-1.2198 0.1349,-2.4244 0.1947,-3.6214c0.1197,-2.4244 0.1824,-4.7899 -0.0484,-7.1487c-0.1188,-1.2255 -0.4541,-2.2734 -0.0684,-3.5416c0.1748,-0.5757 0.3135,-1.178 0.5149,-1.7727c0.1795,-0.5349 0.5405,-0.9795 0.7343,-1.4744c0.2926,-0.742 -0.1529,-1.0137 -0.3562,-1.6226c-0.0912,-0.2746 0.0541,-0.6109 -0.0086,-0.8892c-0.0579,-0.2527 -0.2926,-0.4855 -0.3581,-0.7505c-0.305,-1.2208 -0.0675,-2.4349 -0.457,-3.6718c-0.3515,-1.1181 -0.6289,-2.1983 -1.0317,-3.325c-0.2014,-0.5595 -0.5434,-2.9887 -1.1808,-2.8728" data-paper-data="{&quot;index&quot;:null}" id="SkinArmRight" fill="#d8ad8c"/><path d="M218.18271,143.6232c0.4911,-0.2926 1.0117,0.2517 1.4259,0.4978c0.5121,0.3049 0.9633,0.3534 1.5248,0.4769c0.6441,0.1415 0.7885,0.2821 0.893,0.9462c0.0712,0.4484 0.2204,0.9975 0.1292,1.4734c-0.1834,0.9614 -0.3021,1.4231 -0.3487,2.452c-0.0237,0.5443 -0.3344,1.4829 -0.4227,2.033c-0.0817,0.5111 -0.0219,1.4915 -0.1482,2.0092c-0.2879,1.1723 -0.5387,1.9029 -0.8094,3.0543c-0.2613,1.1143 -0.8161,1.9807 -1.2854,3.0134c-0.2194,0.4854 -0.3068,1.0554 -0.5234,1.5342c-0.2936,0.6489 -0.3772,0.9519 -0.817,1.4022c-0.7154,0.7315 -0.9652,1.7965 -0.9652,2.7626c0.0009,0.5805 0.0123,1.0555 0.1767,1.6017c0.1339,0.4418 0.494,0.894 0.531,1.3462c0.0703,0.8645 -0.8246,2.0187 -1.0412,2.8832c-0.1273,0.5102 -0.1909,1.0213 -0.2422,1.5381c-0.0228,0.2318 -0.0998,0.4493 -0.0637,0.7049c0.0466,0.3211 0.2185,0.3686 0.3059,0.6564c0.2784,0.9111 0.0865,2.204 -0.0541,3.1236c-0.2119,1.3975 -0.4446,2.8643 -0.4446,4.2931c0,0.7543 0.0161,1.5029 -0.0637,2.242c-0.0731,0.6773 0.0447,1.5532 -0.0741,2.2325c-0.3344,-0.0276 -1.0288,-0.1758 -1.2863,-0.3601c-0.2821,-0.2033 -0.4883,-0.7267 -0.703,-1.102c-0.4455,-0.7742 -1.1001,-1.6748 -1.3822,-2.564c-0.3002,-0.9472 -0.6527,-2.1356 -0.7847,-3.1388c-0.1482,-1.1191 0.4816,-1.9665 0.7543,-2.9631c0.2736,-1.0032 0.9804,-1.8249 1.539,-2.679c0.5605,-0.8569 0.7353,-1.9361 0.7201,-2.9431c-0.0171,-0.9728 -0.0836,-2.0377 -0.1292,-3.0723c-0.0361,-0.8189 0.285,-1.5589 0.2128,-2.3569c-0.0561,-0.6232 0.1121,-1.0754 0.1729,-1.6825c0.0769,-0.7799 -0.2233,-1.4658 0,-2.2135c0.2242,-0.7533 0.8407,-2.451 1.0469,-3.2119c0.341,-1.2559 0.189,-1.2246 0.8569,-2.2629c0.2299,-0.3582 0.6735,-0.6926 0.7885,-1.0887c0.1301,-0.4465 0.113,-1.1438 0.1767,-1.6036c0.1577,-1.1495 -0.038,-2.3769 0.0779,-3.5236c0.1852,-1.8354 0.2565,-3.7069 0.2565,-5.5736" data-paper-data="{&quot;index&quot;:null}" id="SkinArmLeft" fill="#d8ad8c"/><path d="M219.20491,96.8927c1.1295,0.1007 1.0393,-0.0209 2.184,0.1558l0.6717,-0.0979c-0.0095,0.019 0.4465,0.1948 0.152,-0.0408c0.6887,0.1368 1.6387,0.1795 2.3683,0.1472c0.8626,-0.0389 1.939,-0.1159 2.7075,-0.2289c0.6508,-0.095 1.882,-0.3439 2.5498,-0.7743c0.6916,-0.4446 2.1242,-1.2787 2.5185,-1.9399c0.3287,-0.5519 -0.6508,1.464 -0.1976,0.9985c0.1605,0.4892 -0.209,0.7011 -0.5301,1.1276c-0.2489,0.3297 -0.7135,0.8588 -0.9244,1.2027c-0.2194,0.3582 -0.6593,0.4047 -0.9424,0.7106c-0.2574,0.2784 1.3025,-0.3353 0.894,-0.1491c1.3167,-0.3762 1.8297,-0.7106 2.964,-1.4925c0.4769,-0.3296 1.0782,-2.2914 1.4145,-2.7635c0.3487,-0.4893 0.1159,1.6216 0.267,1.0345c0.3695,0.418 -0.1235,1.2616 -0.1473,1.7642c-0.0285,0.607 -0.2118,1.4003 -0.3382,2.0121c-0.2688,1.291 -0.2489,2.0358 -0.4427,3.3392c-0.0617,0.4161 0.2708,1.3709 0.2508,1.7832c-0.0199,0.4674 1.5115,-3.9406 1.5732,-3.497c-0.0076,-0.5614 -0.6213,1.9789 -0.3999,1.4554c0.3211,-0.7562 -0.5852,2.356 -0.4684,2.0539c-0.1026,0.5947 0.0494,0.2185 -0.0361,0.8094c-0.0693,0.4731 -0.0798,0.3734 -0.0294,0.8265c0.1035,0.9605 0.0351,-0.5614 0.1377,0.38c0.0561,-0.303 0.0589,0.8655 0.0561,0.5615c-0.0019,-0.3173 0.056,0.0541 0.1206,-0.2717c0.1235,-0.6327 0.3173,-0.6831 0.6935,-1.1695c0.2299,-0.2707 0.685,-0.987 0.704,-0.6222c0.1767,-0.2841 -0.1615,-0.5292 0.6783,-1.3965c0.4047,-0.418 1.4041,-1.2616 1.9332,-1.5267c0.5491,-0.2745 1.425,-0.2707 2.0653,-0.1358c0.704,0.1482 0.6251,1.2302 0.8921,1.8411c0.2935,0.6688 -0.3629,1.2654 -0.628,1.9047c-0.2612,0.6299 -0.4436,1.083 -0.9243,1.5998c-0.4085,0.4389 -0.8389,0.6356 -1.2464,1.0602c-0.3458,0.3601 -1.2388,0.5539 -2.0843,-0.2679c-0.5434,-0.5272 -0.3791,1.0108 -0.4237,1.1543c-0.153,0.208 -0.0608,0.4009 -0.1017,0.6773c-0.0446,0.3031 -0.2403,0.3848 -0.2204,0.6821c0.0399,0.6565 -0.4607,1.102 -0.3524,1.7414c0.2137,1.253 0.0057,2.0681 0.2555,3.3022c0.172,0.8512 0.4997,1.2549 0.685,1.7233c-0.2233,0.6374 0.0285,0.4759 -0.2233,0.6374c-0.2726,0.1748 -0.4322,1.1666 -0.6621,1.3842c-0.571,0.5434 -0.2784,1.0288 -0.855,1.5456c-0.5463,0.4902 -0.191,1.1039 -0.6831,1.6635c-0.512,0.5823 -0.7866,1.6615 -1.0934,2.3655c-0.6346,1.4563 -0.9405,1.8382 -1.7366,3.0352c-0.1805,0.2717 -1.0954,1.1628 -1.2806,1.4288c-0.5168,0.7486 -1.5713,0.9434 -2.3902,0.95c-0.4855,0.0048 -0.9719,-0.2479 -1.616,-0.3011c-0.3201,-0.0266 -0.7457,-0.9006 -1.0307,-1.0726c-0.5824,-0.3505 -0.6375,-1.5152 -0.7192,-2.0615c-0.1111,-0.7533 0.2318,-1.5703 0.5339,-2.2372c0.2717,-0.5995 0.3249,-0.9538 0.6688,-1.5267c0.1938,-0.323 0.475,-0.7894 0.6185,-1.139c0.133,-0.323 0.4018,-0.7448 0.6393,-1.0004c0.3886,-0.4208 0.1368,-0.512 0.495,-0.9481c0.2954,-0.3572 0.5291,-0.7286 0.2612,-1.2445c-0.1662,-0.3201 0.3392,-0.7704 0,-0.6384c-0.2232,0.0865 -0.3239,-0.3372 -0.5728,-0.2707c-0.6213,0.1681 -1.4184,0.2384 -2.0948,0.2726c-1.3452,0.0675 -3.116,-0.132 -4.2873,-0.9205c-0.0931,-0.0627 -0.1862,-0.1425 -0.2641,-0.2375c-0.1587,-0.1948 -0.0969,-0.2546 -0.191,-0.4456c-0.1406,-0.2869 -0.3952,-0.512 -0.5671,-0.7799c-0.4494,-0.7068 -0.6707,-1.4288 -0.9975,-2.1736c-0.2014,-0.4579 -0.5178,-0.8588 -0.666,-1.349c-0.1054,-0.3506 -0.1054,-0.6869 -0.2099,-1.0365c-0.19,-0.6365 -0.1796,-1.2996 -0.2812,-1.9503c-0.2014,-1.3082 -0.4361,-2.5422 -0.3933,-3.8323c0.0076,-0.2309 0.0019,-0.742 0.151,-0.9139c0.0618,-0.0722 0.2907,-0.0713 0.38,-0.1663c0.1169,-0.1235 0.1406,-0.361 0.1796,-0.5206c0.1748,-0.7049 -0.1245,-1.3357 0.0076,-2.0539c0.1244,-0.6688 -0.3572,-1.3062 -0.2945,-1.956c0.0617,-0.6403 -0.0029,-1.1733 0.0655,-1.825c0.0209,-0.1947 0.3544,-0.1672 0.2062,-0.2774" data-paper-data="{&quot;index&quot;:null}" id="Face" fill="#d8ad8c"/><path d="M227.01391,103.3717c0.8398,-1.084 2.165,-1.5989 3.5558,-1.5305c0.608,0.0295 1.7414,0.0988 2.0045,0.7591c0.267,0.6735 -0.1624,1.2587 -0.6469,1.6416c-0.7591,0.6023 -2.0492,0.722 -2.9897,0.645c-0.4379,-0.0361 -2.5089,-0.7134 -1.9323,-1.4022M222.60401,102.6991c0.0304,-0.457 -1.0849,-1.0669 -1.4507,-1.255c-0.5804,-0.3011 -1.2112,-0.6146 -1.8107,-0.2422c-0.7305,0.455 -0.3002,1.1941 0.1226,1.7385c0.4645,0.5966 1.1913,1.1029 1.9313,1.1495c0.3259,0.0209 1.0184,-0.0076 1.2882,-0.1672c0.343,-0.2033 0.2993,-1.3405 -0.2831,-1.1856" data-paper-data="{&quot;index&quot;:null}" id="EyeWhites" fill="#f5f6f6"/><path d="M221.50101,101.6189c-0.0864,0.6413 -0.0978,1.7119 -1.0906,1.4127c-0.7942,-0.2385 -0.7201,-1.0935 -0.6773,-1.7689c0.5006,-0.2993 1.4098,-0.0694 1.8088,0.3163" data-paper-data="{&quot;index&quot;:null}" id="LeftIris" fill="#33512e"/><path d="M230.16601,102.055c0.5244,-0.2736 0.3002,1.2606 -0.0437,1.4544c-0.5548,0.3116 -1.0042,0.8275 -1.4839,0.7401c-0.5206,-0.0941 -1.2578,-0.7591 -0.9833,-1.3671c0.1967,-0.4351 1.2407,-0.7144 1.6796,-0.8274c0.2242,-0.0589 0.3468,-0.1644 0.5729,-0.1444" data-paper-data="{&quot;index&quot;:null}" id="RightIris" fill="#33512e"/><path d="M221.51621,111.6899c0.2594,-0.1473 0.8474,-0.0884 1.1562,-0.0665c0.4512,0.0323 0.874,0.1216 1.3024,0.2346c0.7401,0.1938 1.5077,0.2907 2.2278,0.3515c-0.0285,0.2736 -0.8959,0.7477 -1.1638,0.8607c-0.5253,0.2233 -1.0326,0.1843 -1.6007,0.2318c-0.4285,0.0352 -1.1581,0.1777 -1.3994,-0.2802c-0.113,-0.2147 -0.0589,-0.5605 -0.1909,-0.7942c-0.1235,-0.2176 -0.4209,-0.3135 -0.3639,-0.6223" data-paper-data="{&quot;index&quot;:null}" id="Mouth" fill="#f5f6f6"/><path d="M218.49711,103.4961c-0.3325,0.6137 -0.9405,0.5121 -1.4117,1.0887c-0.2954,0.3601 -1.3879,1.4003 -1.5608,1.6853c0.1168,-0.6849 0.4987,-1.975 0.6868,-2.6372c0.1967,-0.7001 0.228,-1.4791 0.4161,-2.1622c-0.3505,0.2803 -0.835,0.8978 -1.1704,1.1799c-0.228,0.191 -0.6289,0.476 -0.8312,0.6726c0.2593,-0.6507 0.627,-1.1476 0.76,-1.9266c0.1168,-0.6859 0.3268,-1.1219 0.5738,-1.7233c0.4265,-1.0364 1.2701,-1.7119 1.5703,-2.8148c-0.6099,0.0028 -1.1789,-0.0133 -1.843,0c-0.7239,0.0142 -1.937,0.3543 -2.64,0.2669c0.151,-0.9177 1.1352,-1.4335 1.7831,-2.0026c0.8474,-0.7429 2.0254,-1.1656 2.6714,-2.3417c-1.6872,-0.2765 -2.6087,0.8274 -3.4323,1.5019c0.0826,-1.0203 0.5605,-2.0216 1.1362,-2.9317c0.5605,-0.8844 0.9946,-1.4801 1.9095,-2.393c0.6773,-0.5748 2.4928,-2.053 3.2433,-2.6382c1.0459,-0.816 0.322,-0.6526 1.4829,-1.291c0.3819,-0.2898 1.3234,-0.8797 1.35,-0.912c0.9756,-0.4646 0.4854,-0.57 1.5846,-0.8037c0.1453,0.2004 1.1951,-0.4826 1.1875,-0.4788c1.5608,-0.3971 2.0748,-0.836 3.3934,-0.9282c1.3024,-0.0902 2.6581,-0.436 3.9757,-0.3211c1.5115,0.133 3.0533,0.4579 4.2665,0.9833c0.892,0.3857 2.7521,1.1875 3.6499,2.0263c3.3126,3.0989 1.9484,2.9051 2.9687,4.8279c0.5767,1.0878 0.7809,-0.2593 2.9906,2.6667c0.6346,0.8407 0.5377,1.4953 0.552,2.5488c0.0076,0.6489 0.0484,1.3433 -0.2185,1.9304c-0.2432,0.5349 -0.1093,1.1334 -0.2613,1.7072c-0.3154,1.1704 -0.4883,2.2429 -1.0307,3.286c-0.5292,1.0127 -0.9016,1.6568 -1.2996,2.5688c-0.4532,1.0355 -0.7334,1.8744 -1.2445,2.869c-0.5558,1.0859 -1.3519,4.4517 -0.893,5.7105c-1.5998,-0.4209 -1.4792,-3.212 -1.5248,-4.1895c-0.2289,1.0516 -0.6735,1.0497 -0.6137,2.0387c0.0333,0.5386 -0.0883,1.7755 0.2489,2.2638c0.2195,0.3173 0.8797,1.3395 0.988,1.71c-1.3081,-0.1985 -1.0944,-0.3372 -1.862,-1.3433c-0.0741,0.6669 -1.6501,-1.3347 -1.4677,-0.7172c0.1615,0.5453 0.5016,2.1878 0.4332,2.7645c-0.3496,-0.0846 -2.1128,-1.6872 -2.4491,-1.8782c-0.2204,-1.9883 0.3942,-3.6765 0.8578,-5.433c0.0808,-0.305 -0.1244,-0.78 0.0931,-0.95c0.2632,-0.2062 0.9719,0.8113 1.4345,0.8113c0.5729,0 2.1708,-1.4374 2.737,-2.3475c0.8863,-1.4297 1.8715,-3.781 -0.7657,-4.4954c-0.761,-0.2061 -0.9538,0.2052 -1.7718,0.5216c-0.4208,0.1624 -1.1476,1.0877 -1.4354,1.4943c-0.2841,0.4028 -0.4589,0.5339 -0.7287,0.8664c-0.019,0.0238 -0.1453,0.4646 -0.1681,0.5007c0.0817,-0.5339 0,0 -0.3145,0.208c-0.5823,0.7762 -0.7305,0.5254 -0.9813,1.7366c-0.7173,-0.912 -0.1767,-1.0193 -0.2803,-2.1793c-0.2384,-2.6619 1.2778,-2.8756 0.9519,-3.8389c-0.4265,0.9101 -1.4696,2.4652 -1.5656,3.4114c-0.6213,-1.2207 0.0551,-4.0147 0.2831,-5.7133c0.1102,-0.8208 0.4218,-1.6492 0.437,-2.4415c0.0162,-0.8179 -0.1396,-2.317 -0.2118,-3.1084c-0.0095,0.9063 -0.2271,2.8833 -1.6255,4.2389c-0.8464,0.8208 -2.6638,1.4592 -3.7886,1.5001c0.1786,-0.3582 0.8142,-0.6071 1.14,-0.8493c0.3772,-0.2822 0.6232,-0.6992 0.8341,-1.102c0.3686,-0.7078 0.7762,-1.4241 0.8189,-2.2971c-0.7457,0.8806 -1.3119,1.368 -2.393,1.9855c-1.0735,0.6137 -2.1964,0.8445 -3.3877,1.0222c-1.1676,0.1748 -2.1518,0.1282 -3.3241,0.1501c-0.6422,0.0114 -1.9095,-0.0874 -2.5631,-0.0732c-0.3619,0.0086 -1.1514,-0.0779 -1.8468,-0.1178c-0.0437,-0.0161 -0.3391,0.0276 -0.3838,0.0399c-0.1425,0.6546 -0.2033,1.0403 -0.2517,1.6948c-0.0456,0.6232 -0.0209,1.1961 0.0874,1.787c0.1064,0.5823 0.3182,1.0811 0.2736,1.6786c-0.0361,0.4418 -0.418,1.2702 -0.229,1.4364" data-paper-data="{&quot;index&quot;:null}" id="Hair" fill="#a15927"/><path d="M219.57161,244.3441c1.0393,0.5215 2.1023,1.1457 3.172,1.7575c0.8541,0.4892 2.7037,1.1761 3.0723,2.1413c-2.4434,0.209 -4.9495,0.7932 -7.3245,1.5751c-0.9709,0.3201 -0.8426,1.5076 -1.6254,1.8734c-0.3753,0.1767 -1.0355,0.0836 -1.444,0.17c-0.5121,0.1083 -0.9719,0.2546 -1.5162,0.2394c-1.9817,-0.0598 -4.6873,-1.0972 -4.0898,-3.4874c0.1131,-0.4532 0.1311,-0.9538 0.495,-1.1419c0.341,-0.1758 1.1685,-0.21 1.5475,-0.305c0.8835,-0.2185 1.653,-0.4987 2.4938,-0.7638c0.9034,-0.284 1.9646,-0.7438 2.8509,-1.1371c0.5206,-0.2309 1.8886,-0.7515 2.0663,-1.2797M219.50981,252.0619c0.4959,-0.0684 0.9329,0.2109 1.4478,0.1463c1.6635,-0.2109 3.3317,-1.2075 5.0056,-1.3101c0.7818,-0.0484 4.5068,0.1682 4.1876,-1.3423c-0.5624,-0.0095 -1.3224,-0.3563 -1.8649,-0.4712c-0.6222,-0.133 -1.5428,0.057 -2.1631,0.2194c-0.7524,0.1976 -1.5134,0.4114 -2.242,0.6422c-0.9538,0.3012 -1.9067,0.5387 -2.8443,0.8626c-0.2233,0.077 -0.8921,0.1302 -1.0935,0.2451c-0.2432,0.1397 -0.0133,0.0428 -0.1691,0.2964c-0.1558,0.2537 -0.2707,0.5634 -0.4018,0.8303" data-paper-data="{&quot;index&quot;:null}" id="ShoeLeft" fill="#0b1938"/><path d="M209.95281,247.594c0.0561,0.1634 -0.1558,0.5007 -0.1225,0.7524c0.0427,0.3135 0.1567,0.5387 0.0912,0.8712c-0.1197,0.6108 0.0541,1.0326 0.3325,1.5637c0.2337,0.4455 1.0174,0.8882 1.4791,1.045c0.8997,0.3049 1.9076,0.2375 2.8405,0.1881c0.4332,-0.0238 0.874,-0.0475 1.2987,-0.0903c0.2185,-0.0209 0.5643,0.0276 0.7628,-0.0617c0.1615,-0.0722 0.1406,-0.095 0.2242,-0.2698c0.3059,-0.6384 0.6071,-1.0916 1.121,-1.5941c0.2651,-0.2603 0.4475,-0.2945 0.8256,-0.3981c0.4436,-0.1206 0.7438,-0.1187 1.1875,-0.2308c0.3933,-0.0988 1.0184,-0.2632 1.4278,-0.3202c0.4817,-0.0665 0.8294,-0.2185 1.3063,-0.3353c0.5776,-0.1416 1.1827,-0.2765 1.7746,-0.3392c0.4683,-0.0503 0.9842,-0.2023 1.444,-0.2023c0.285,-0.001 0.4664,0.1463 0.6887,0.3002c0.419,0.2878 0.8873,0.4702 1.3832,0.5709c-0.5776,0.2413 -1.2834,0.0485 -1.8914,0.2622c-0.6365,0.2223 -1.2996,0.4703 -1.976,0.6242c-0.7125,0.1634 -1.4174,0.4693 -2.1442,0.5795c-0.3021,0.0456 -0.5652,0.1292 -0.8692,0.2014c-0.3278,0.0788 -0.8588,0.0931 -1.1448,0.2698c-0.2318,0.1434 -0.6089,0.9101 -0.5947,1.1761c1.1096,0.0551 2.2905,-0.0646 3.3317,-0.4532c0.7372,-0.2755 1.501,-0.5652 2.2553,-0.7533c1.1637,-0.2907 2.5032,0.1672 3.6366,-0.1967c0.5215,-0.1672 0.9614,-0.1244 1.3528,-0.5177c0.2099,-0.2119 0.265,-0.6156 0.5776,-0.608c0.2251,0.0047 0.6013,0.0399 0.8065,0.1263c0.5054,0.2119 0.1083,0.8797 -0.038,1.2626c-0.1738,0.4493 -0.5016,1.1314 -0.9547,1.2863c-0.4912,0.1662 -1.1362,0.2185 -1.6701,0.1197c-0.6204,-0.1131 -1.0507,-0.1511 -1.6948,-0.171c-1.1828,-0.0361 -2.3674,0.6574 -3.4903,1.0801c-0.7705,0.2898 -1.5628,0.5349 -2.3152,0.8493c-0.6298,0.2622 -1.2872,0.3135 -1.9541,0.4133c-0.8379,0.1273 -1.6065,0.0133 -2.4548,0.0969c-0.8949,0.0893 -1.8402,0.1672 -2.7455,0.095c-0.8313,-0.0665 -1.863,0.2004 -2.6458,-0.1387c-0.2755,-0.1197 -0.4959,-0.1321 -0.7647,-0.2556c-0.5206,-0.2384 -1.103,-0.4816 -1.6407,-0.6754c-0.8379,-0.3012 -0.9889,-1.0203 -1.2245,-1.8649c-0.1948,-0.6973 -0.1378,-1.1371 -0.0817,-1.7879c0.0465,-0.5272 0.2185,-1.1447 0.4626,-1.6615c0.1178,-0.2518 0.381,-0.4636 0.6185,-0.5928c0.1947,-0.1055 1.1257,-0.4304 1.2169,-0.2185" data-paper-data="{&quot;index&quot;:null}" id="ShoeTrimLeft" fill="#a2c6dd"/><path d="M232.16671,258.7423c-0.0067,0.1843 0.854,0.4018 1.0402,0.4816c0.9557,0.4095 1.9067,0.9234 2.8453,1.3823c0.4484,0.2194 0.855,0.4968 1.3395,0.6602c0.4085,0.1378 0.817,0.2869 1.2074,0.4446c0.3838,0.1549 0.703,0.3145 1.1191,0.2556c0.3743,-0.0532 0.6546,-0.2233 0.9937,-0.3601c0.7971,-0.3182 1.4697,-0.8654 2.2753,-1.1476c-0.0152,0.3173 0.1653,0.5957 0.1235,0.8978c-0.0561,0.4189 -0.2936,0.4246 -0.6327,0.5719c-0.5624,0.2441 -1.0868,0.6374 -1.6464,0.9091c-0.5918,0.2869 -1.12,0.6622 -1.6891,0.9861c-0.4949,0.2812 -0.9671,0.5729 -1.4725,0.8332c-0.2128,0.1092 -0.2736,0.3838 -0.3923,0.6032c-0.1216,0.2214 -0.3696,0.5615 -0.3905,0.8113c-0.0589,0.6403 -0.1567,0.9719 -0.6897,1.3652c-0.5139,0.379 -1.0393,0.5785 -1.6539,0.7448c-0.5444,0.1453 -0.8702,0.2926 -1.444,0.3211c-0.8341,0.0427 -2.4206,-0.1986 -3.2234,-0.3867c-1.0877,-0.2536 -1.3015,-0.5291 -2.393,-0.7457c-0.4313,-0.0846 -1.0488,-0.3734 -1.388,-0.6603c-0.3667,-0.3087 -0.6536,-0.3116 -1.0222,-0.626c-0.3192,-0.2708 -0.8303,-0.8493 -1.0592,-1.2075c-0.1938,-0.3021 -0.1235,-0.6194 -0.1121,-0.9699c0.0095,-0.3439 -0.0409,-0.5501 0.2394,-0.7667c0.2318,-0.1776 0.5073,-0.3078 0.7866,-0.3676c0.7524,-0.1625 1.4145,-0.0323 2.1223,-0.4218c0.3914,-0.2157 0.7296,-0.4893 1.083,-0.7572c0.3192,-0.2422 0.6973,-0.7068 1.0193,-0.9395c0.5254,-0.3819 0.7942,-0.7078 1.368,-1.0602c0.5083,-0.3116 1.1153,-0.7201 1.7072,-0.8189M239.95101,265.1785c-0.1349,0.0447 -0.1321,0.5111 -0.0903,0.6612c0.0675,0.248 0.2081,0.38 0.4437,0.4209c0.4731,0.0807 1.0269,-0.1872 1.4573,-0.3335c0.3885,-0.132 0.7638,-0.2707 1.1276,-0.4493c0.6992,-0.342 1.407,-0.5919 1.9922,-1.1115c0.4531,-0.4019 0.8227,-0.8731 1.292,-1.2635c0.4854,-0.4028 0.3382,-0.9861 0.361,-1.5637c0.0123,-0.3164 0.0665,-0.647 0.0304,-0.97c-0.0361,-0.3097 0.1254,-0.5035 -0.0418,-0.7429c-0.1606,-0.2299 -0.3458,-0.3391 -0.3867,-0.608c-0.0503,-0.3372 -0.2432,-0.4607 -0.5937,-0.3553c-0.4693,0.1435 -0.913,0.4294 -1.2968,0.723c0.2698,0.436 0.57,0.8559 0.4465,1.3813c-0.056,0.2403 -0.17,0.4636 -0.2232,0.6925c-0.057,0.2423 -0.0456,0.4741 -0.1302,0.6916c-0.2099,0.5434 -0.836,0.6099 -1.3233,0.8712c-0.5225,0.2812 -1.0137,0.6346 -1.501,0.969c-0.2499,0.1719 -0.4722,0.3448 -0.7515,0.474c-0.2517,0.1159 -0.8046,0.2584 -0.8721,0.5415" data-paper-data="{&quot;index&quot;:null}" id="ShoeRight" fill="#0b1938"/><path d="M224.16861,262.9536c-0.7847,0.1815 -0.2688,1.4621 -0.0228,1.863c0.2575,0.4208 0.3458,0.7315 0.7743,1.0241c0.2527,0.171 0.5795,0.2821 0.8113,0.4864c0.2669,0.2337 0.3629,0.3448 0.722,0.5035c1.0355,0.4579 2.3208,1.0174 3.4209,1.2863c0.704,0.1729 1.5371,0.322 2.261,0.3914c1.4583,0.1396 2.4273,-0.1083 3.7278,-0.8436c0.951,-0.5377 1.0137,-1.5628 1.3737,-2.4577c0.1891,-0.4702 0.6935,-0.5671 1.121,-0.8189c0.6185,-0.3657 1.2065,-0.7581 1.8345,-1.1124c0.6564,-0.3696 1.3376,-0.6888 2.0064,-1.046c0.5329,-0.2831 1.1542,-0.5605 1.0583,-1.2616c-0.0323,-0.2327 -0.361,-0.5766 -0.2936,-0.722c0.0646,-0.1453 0.4902,-0.2337 0.6242,-0.3002c0.1472,-0.0731 0.38,-0.3106 0.5405,-0.323c0.437,-0.0323 0.5444,0.8664 0.5406,1.2246c-0.0048,0.4579 -0.0798,1.0345 -0.2622,1.4449c-0.1264,0.2831 -0.3496,0.3582 -0.6023,0.5092c-0.3411,0.2052 -0.6479,0.4608 -0.9994,0.6394c-0.5653,0.2869 -1.0488,0.6374 -1.5932,0.9614c-0.4123,0.2451 -1.1162,0.5139 -1.2388,0.9851c-0.0522,0.1986 -0.1548,0.552 0.0637,0.6622c0.1491,0.075 0.6479,-0.0608 0.8436,-0.0608c0.6555,0 1.1086,-0.2423 1.6805,-0.5178c0.7363,-0.3553 1.6568,-0.6564 2.2905,-1.1713c0.5035,-0.4114 1.0193,-1.1096 1.6777,-1.2825c0.0408,0.2432 -0.0893,0.5149 -0.153,0.7476c-0.0712,0.2613 -0.0836,0.4788 -0.0836,0.7515c0,0.5719 -0.1415,0.9604 -0.5491,1.3746c-0.721,0.7363 -2.0073,0.9614 -2.9982,1.1277c-1.0108,0.1681 -2.0292,0.5263 -3.0124,0.8711c-0.6508,0.228 -1.1695,0.5501 -1.7737,0.8721c-0.6431,0.342 -1.0782,0.7714 -1.6454,1.1885c-0.2821,0.209 -0.5776,0.3762 -0.8426,0.608c-0.2081,0.1833 -0.4009,0.2232 -0.6612,0.3315c-0.3401,0.1425 -0.7125,0.3468 -1.0517,0.457c-0.246,0.0798 -0.475,0.1957 -0.721,0.2337c-0.6641,0.1045 -1.3614,-0.0684 -2.0197,-0.0912c-0.9548,-0.0323 -1.8031,-0.362 -2.6942,-0.6983c-0.8522,-0.322 -1.7528,-0.4275 -2.5612,-0.8569c-0.3696,-0.1976 -0.722,-0.4009 -1.0517,-0.6612c-0.3344,-0.2641 -0.7077,-0.3562 -1.0811,-0.5529c-1.406,-0.7438 -2.9241,-2.431 -2.526,-4.1135c0.1406,-0.5937 0.6279,-1.0925 1.2036,-1.2863c0.5529,-0.1843 1.3642,-0.4588 1.9532,-0.4284" data-paper-data="{&quot;index&quot;:null}" id="ShoeTrimRight" fill="#a2c6dd"/><path d="M231.72681,258.8306c0.1872,-0.076 0.4969,-0.0199 0.172,0.1131c-1.6739,0.6849 -2.6714,2.0111 -4.1268,3.0238c-0.5035,0.3506 -1.0593,0.7258 -1.6749,0.855c-1.2644,0.266 -3.8351,0.077 -4.5115,1.2882c-1.0403,1.8658 0.6849,3.2775 2.1147,4.2741c1.9114,1.3319 4.0603,2.2705 6.3336,2.7911c1.977,0.4531 3.706,0.5424 5.3656,-0.8645c0.6546,-0.5539 1.3367,-1.027 2.0891,-1.4421c1.4278,-0.7847 3.0894,-1.3186 4.6588,-1.7281c0.8588,-0.2232 1.8563,-0.2774 2.6438,-0.6973c1.0042,-0.5348 1.2008,-1.3889 1.3804,-2.4196c0.2517,-1.4421 0.5538,-3.8342 -0.5206,-5.0531c-0.077,-0.0874 0.3838,-0.2612 0.4664,-0.1691c1.2379,1.4051 0.817,4.2655 0.3895,5.9176c-0.3828,1.4782 -1.5741,1.9722 -2.9554,2.2695c-3.1132,0.6669 -5.7922,1.7623 -8.2812,3.763c-1.3499,1.0858 -3.1312,1.1371 -4.768,0.8065c-2.6458,-0.5348 -5.3229,-1.4886 -7.4737,-3.1616c-1.4468,-1.1248 -3.1578,-2.5954 -1.7309,-4.4593c0.4209,-0.5519 1.1248,-0.7657 1.768,-0.9091c1.6682,-0.3743 3.1663,-0.0988 4.6246,-1.3063c1.348,-1.1153 2.4044,-2.2249 4.0365,-2.8918zM240.09061,266.2596c-0.3353,-0.0057 -0.2489,-0.38 0.0399,-0.3762c2.4159,0.0409 4.599,-1.4478 6.1855,-3.1302c0.1577,-0.1682 0.6327,-0.0732 0.4161,0.1558c-1.7034,1.8069 -4.0527,3.3943 -6.6415,3.3506zM224.55531,262.9023c0.3211,-0.0437 -0.1017,0.1691 -0.2185,0.1872c-0.9149,0.1254 0.341,2.1166 0.5766,2.4101c0.799,0.9985 2.1622,1.597 3.345,1.9912c1.5171,0.5054 3.1901,0.9985 4.8079,0.9168c0.5681,-0.0285 3.2737,-0.5301 3.5483,-1.6036c0.1453,-0.5729 0.4123,-1.2654 0.4446,-1.8459c0.0076,-0.1387 0.4978,-0.1919 0.4949,-0.1339c-0.0332,0.5909 -0.2099,1.8895 -0.6954,2.2914c-0.6545,0.5405 -1.4839,0.9139 -2.2809,1.197c-1.8829,0.665 -4.1496,0.17 -5.9831,-0.399c-1.768,-0.5482 -3.7573,-1.2835 -4.655,-3.0277c-0.5064,-0.9832 -0.6023,-1.8154 0.6156,-1.9836zM237.61871,264.9819c-0.1159,0.0969 -0.6118,0.1083 -0.3952,-0.0703c0.7277,-0.6004 1.6578,-0.969 2.4729,-1.4393c1.0583,-0.6127 2.108,-1.2274 3.1996,-1.7793c0.1548,-0.077 0.6013,-0.0162 0.304,0.1349c-0.9662,0.4873 -1.8962,1.0241 -2.831,1.5646c-0.8797,0.5092 -1.9675,0.9443 -2.7503,1.5894zM240.10201,265.2498c-0.1577,0.0997 -0.5899,0.0332 -0.3068,-0.1454c1.3794,-0.8721 2.7635,-1.7347 4.1914,-2.5251c0.1596,-0.0902 0.5994,-0.0171 0.3068,0.1444c-1.4297,0.7895 -2.812,1.654 -4.1914,2.5261zM244.35421,262.681c-0.0579,0.1111 -0.4199,0.1472 -0.3705,0.0513c0.4209,-0.818 0.7353,-2.2059 0.1568,-3.0144c-0.0817,-0.1149 0.2774,-0.2365 0.3458,-0.1406c0.6004,0.837 0.3049,2.2553 -0.1321,3.1037zM243.22091,261.7376c-0.0371,0.1045 -0.4009,0.1511 -0.3686,0.0589c0.1548,-0.437 0.1159,-0.8778 -0.0494,-1.3043c-0.0361,-0.0903 0.3306,-0.2052 0.3705,-0.0998c0.17,0.4389 0.2061,0.8978 0.0475,1.3452zM240.11531,266.0858c-0.0019,0.1482 -0.3762,0.2156 -0.3743,0.0361c0.0038,-0.285 0.0513,-0.5805 -0.0228,-0.8598c-0.0408,-0.1558 0.3306,-0.2555 0.3724,-0.0988c0.0789,0.2983 0.0285,0.6185 0.0247,0.9225z" data-paper-data="{&quot;index&quot;:null}" id="linesShoeLeft" fill="#010101"/><path d="M219.08231,244.1275c0.1017,-0.0618 0.6042,-0.096 0.3857,0.0342c-2.7483,1.6634 -5.8444,2.7683 -8.9832,3.4247c-1.0849,0.2271 -1.9779,0.2128 -2.393,1.4136c-0.2318,0.6698 -0.3886,1.3965 -0.2518,2.1071c0.2917,1.5029 1.3585,2.6562 2.8253,3.1246c1.7357,0.5548 3.5977,0.4683 5.396,0.3828c1.7794,-0.0845 3.5863,-0.0104 5.3029,-0.5605c1.0887,-0.3496 2.1356,-0.7942 3.1892,-1.235c0.5187,-0.2166 1.0725,-0.5282 1.6368,-0.6156c1.2664,-0.1966 3.611,0.7971 4.5838,-0.2204c0.0912,-0.095 0.5728,-0.1463 0.4541,-0.0218c-0.7914,0.8265 -1.8544,0.7752 -2.9146,0.6004c-1.4469,-0.2423 -2.6296,0.0028 -3.9815,0.5709c-0.8246,0.3477 -1.6511,0.7021 -2.5042,0.9757c-1.7527,0.5624 -3.4038,0.6127 -5.224,0.6992c-1.7765,0.0845 -3.5644,0.189 -5.3267,-0.1045c-3.2765,-0.5463 -4.9428,-3.6024 -3.2195,-6.5218c0.2679,-0.455 0.3762,-0.4132 0.8816,-0.4968c1.0887,-0.1824 2.1707,-0.4057 3.2347,-0.7002c2.4121,-0.6678 4.7614,-1.557 6.9084,-2.8566zM209.64691,247.651c0.0171,-0.1909 0.5178,-0.2774 0.4969,-0.0522c-0.0703,0.7989 -0.3078,1.729 0.0921,2.4785c0.4361,0.817 1.14,1.4811 2.072,1.6853c1.501,0.3325 2.9944,-0.0009 4.5049,-0.0665c0.3401,-0.0152 0.2042,0.3002 -0.058,0.3116c-1.7214,0.0751 -3.9102,0.6926 -5.5166,-0.2403c-1.6853,-0.9795 -1.7509,-2.3313 -1.5913,-4.1164zM217.01511,251.8567c-0.0779,0.1377 -0.5747,0.1938 -0.4598,-0.0076c0.4171,-0.7382 0.969,-1.3794 1.4934,-2.0406c0.0988,-0.1245 0.5957,-0.1634 0.4598,0.0076c-0.5253,0.6612 -1.0763,1.3034 -1.4934,2.0406zM218.20641,250.0232c-0.2983,0.0921 -0.3686,-0.1862 -0.0741,-0.2774c2.6296,-0.8104 5.4369,-1.3699 8.17,-1.6891c0.3411,-0.0399 0.1929,0.2745 -0.0589,0.303c-2.6837,0.3135 -5.4587,0.8693 -8.037,1.6635zM228.42371,248.9345c0.2574,0.0142 -0.1957,0.2299 -0.3154,0.2242c-1.046,-0.0561 -2.375,0.4142 -3.3507,0.6735c-1.5333,0.4095 -3.0533,0.8579 -4.5951,1.2388c-0.2917,0.0713 -0.342,-0.1121 -0.0485,-0.1843c2.0207,-0.4968 4.0071,-1.1305 6.0392,-1.5779c0.7058,-0.1558 1.5418,-0.4114 2.2705,-0.3743zM219.32841,252.2737c-0.2765,-0.038 0.1577,-0.2793 0.3049,-0.2584c2.053,0.2793 4.1506,-0.9481 6.1418,-1.2492c1.0706,-0.1634 3.9216,0.2992 4.2104,-1.0669c0.0351,-0.1605 0.5329,-0.2432 0.4949,-0.0655c-0.3116,1.4763 -2.8566,1.31 -3.9577,1.3262c-2.4358,0.0361 -4.7243,1.6501 -7.1943,1.3138zM219.55731,252.1521c-0.056,0.1036 -0.4104,0.1359 -0.3695,0.057c0.2175,-0.4066 0.3752,-0.8417 0.6336,-1.2245c0.057,-0.0846 0.4237,-0.1349 0.3401,-0.0124c-0.247,0.3677 -0.3971,0.7895 -0.6042,1.1799z" data-paper-data="{&quot;index&quot;:null}" id="linesShoeRight" fill="#010101"/><path d="M221.34901,186.4131c-0.1615,-0.0551 0.285,-0.2432 0.4047,-0.2033c0.8636,0.2964 1.8763,0.5082 2.5156,1.216c0.9975,1.1048 1.4098,2.6799 1.8297,4.0679c0.0371,0.1216 -0.456,0.2612 -0.4949,0.1339c-0.4057,-1.3395 -0.8142,-3.1426 -1.9029,-4.1296c-0.6602,-0.5985 -1.5266,-0.8018 -2.3522,-1.0849zM223.76681,187.7222c-0.0133,-0.2242 0.4873,-0.2993 0.5016,-0.0361c0.1463,2.5412 0.5567,5.0521 1.0326,7.5487c0.4104,2.1517 0.7201,4.3586 1.2882,6.4733c0.5995,2.2306 1.444,4.3738 2.1993,6.5531c0.57,1.6444 1.3594,3.5112 1.3594,5.2725c0,0.227 -0.5016,0.2992 -0.5016,0.0361c0,-2.1404 -1.0982,-4.4926 -1.8164,-6.4743c-0.7324,-2.0178 -1.5076,-4.0479 -1.9522,-6.1541c-0.9168,-4.3415 -1.8554,-8.7808 -2.1109,-13.2192zM242.11981,194.4605c-0.0066,-0.1415 0.4912,-0.2232 0.495,-0.133c0.2394,5.5718 -1.0963,11.0637 -1.2018,16.6269c-0.0209,1.1239 -0.1016,2.375 0.3829,3.4267c0.2916,0.6308 0.9215,1.2093 1.1039,1.8762c0.2679,0.9766 0.0418,2.0131 0.2812,3.0068c0.2612,1.0868 0.5624,2.1166 0.5472,3.2442c-0.001,0.1463 -0.495,0.2176 -0.495,0.134c0.0162,-1.2787 -0.4465,-2.3931 -0.627,-3.6366c-0.1225,-0.8408 0.1549,-2.0121 -0.2717,-2.7816c-0.4246,-0.7667 -1.0336,-1.4022 -1.2302,-2.2876c-0.2442,-1.0992 -0.2119,-2.2059 -0.1748,-3.326c0.1833,-5.3969 1.4221,-10.7416 1.1903,-16.15zM228.93001,222.0438c-0.0028,0.1947 -0.5016,0.285 -0.4968,0.0484c0.0408,-2.3892 -1.007,-4.6588 -0.9187,-7.0414c0.0817,-2.2154 0.8626,-4.3234 0.9187,-6.5426c0.0038,-0.1938 0.5035,-0.2841 0.4968,-0.0485c-0.0608,2.4824 -1.1571,4.9039 -0.8835,7.3986c0.228,2.0767 0.9206,4.0822 0.8835,6.1855zM218.11241,198.118c0.0019,0.1786 -0.495,0.2793 -0.4959,0.057c-0.058,-4.3966 -1.8012,-8.492 -1.9219,-12.8877c-0.1035,-3.7819 0.362,-7.485 0.7344,-11.2394c0.019,-0.1834 0.5187,-0.2727 0.4968,-0.0551c-0.4009,4.027 -0.9756,8.0493 -0.6916,12.1077c0.286,4.0793 1.825,7.9069 1.8782,12.0175zM218.59781,232.8016c-0.0741,-0.1606 0.4123,-0.3135 0.495,-0.1311c1.0364,2.242 1.4174,5.1623 3.0609,7.0433c0.5985,0.6849 1.1514,1.5133 1.9228,2.0168c1.1884,0.7724 2.5982,0.893 3.9824,0.9472c0.3353,0.0123 0.0095,0.303 -0.1881,0.2964c-1.2597,-0.0485 -2.6904,-0.1178 -3.8152,-0.7676c-0.8398,-0.4855 -1.4212,-1.198 -2.0425,-1.9257c-0.8417,-0.987 -1.368,-1.8563 -1.7756,-3.1112c-0.4835,-1.4896 -0.9813,-2.9422 -1.6397,-4.3681zM219.09281,233.1844c-0.0485,0.171 -0.5472,0.2432 -0.495,0.0608c0.9234,-3.2898 0.3316,-6.7003 0.2565,-10.0548c-0.0779,-3.4589 -0.2004,-6.8922 -0.4778,-10.3417c-0.4313,-5.3884 -0.5833,-10.7359 -0.8208,-16.13c-0.0095,-0.1938 0.4883,-0.2955 0.4949,-0.133c0.1083,2.4757 0.1302,4.9523 0.2062,7.428c0.0959,3.0714 0.417,6.1342 0.6536,9.197c0.2774,3.5786 0.2897,7.1497 0.4731,10.7302c0.1577,3.0733 0.5538,6.2339 -0.2907,9.2435zM220.54061,237.98c0.0313,-0.1349 0.5215,-0.2128 0.4902,-0.0798c-0.2565,1.0982 -0.399,2.3684 -1.0868,3.2984c-0.647,0.8731 -1.2816,1.9827 -0.2575,2.8861c0.5966,0.5273 1.2683,0.9291 1.9722,1.2968c3.2604,1.7128 6.3204,4.179 10.1536,4.2693c0.2546,0.0066 -0.1995,0.2232 -0.3154,0.2204c-3.8712,-0.0922 -7.0233,-2.5498 -10.3037,-4.314c-1.1789,-0.6346 -3.3658,-1.8145 -2.2999,-3.4808c0.4398,-0.6887 0.9272,-1.2806 1.1533,-2.0824c0.189,-0.6669 0.3372,-1.3404 0.494,-2.014zM243.24941,222.3744c0.0218,-0.2166 0.5263,-0.2898 0.4997,-0.0418c-0.0513,0.4892 0.1662,1.2017 0.228,1.6976c0.0798,0.646 0.1653,1.2892 0.2565,1.9323c0.1824,1.2882 0.3819,2.5745 0.5196,3.8684c0.1169,1.1068 0.1587,2.2021 0.1986,3.3136c0.0484,1.3794 0.3667,2.6382 0.5443,3.9929c0.3354,2.5564 0.0209,4.9979 -0.4113,7.5211c-0.3905,2.2971 -1.3357,4.5258 -1.4925,6.8505c-0.0152,0.2175 -0.5177,0.2926 -0.4997,0.0408c0.0884,-1.3081 0.4627,-2.5232 0.8265,-3.7762c0.3411,-1.1742 0.5387,-2.3551 0.7524,-3.5559c0.4598,-2.5821 0.7534,-5.2307 0.1758,-7.8242c-0.5406,-2.4291 -0.381,-4.9286 -0.703,-7.3891c-0.1701,-1.2929 -0.3696,-2.583 -0.5377,-3.8769c-0.1131,-0.8512 -0.4456,-1.9114 -0.3572,-2.7531zM244.50431,245.2893c0.0095,-0.1938 0.5092,-0.2831 0.4978,-0.0503c-0.1007,2.0187 0.8408,3.7506 1.3908,5.6363c0.4513,1.5466 0.9272,3.2034 0.8037,4.8336c-0.056,0.741 -0.1596,1.4915 -0.4541,2.1812c-0.2945,0.6916 -0.8426,0.8275 -1.4839,1.216c-1.4411,0.8712 -2.8842,2.0302 -4.4298,2.699c-0.9595,0.4151 -1.8364,0.4531 -2.8006,-0.0152c-1.7917,-0.8693 -3.4533,-1.9551 -5.3362,-2.6391c-0.7429,-0.2689 -3.9406,-0.6175 -3.4247,-1.8962c0.0703,-0.1758 0.5671,-0.2128 0.4664,0.0342c-0.3154,0.7818 1.6739,1.1067 2.1394,1.2207c0.8446,0.2071 1.654,0.5282 2.4434,0.8911c1.2797,0.5871 2.4672,1.3348 3.7307,1.9485c1.9693,0.9557 3.6736,-0.4427 5.3019,-1.4516c1.3842,-0.8588 3.0125,-1.4611 3.2585,-3.2756c0.1967,-1.4535 0.0238,-2.8928 -0.3467,-4.3064c-0.6071,-2.3151 -1.8791,-4.5885 -1.7566,-7.0262zM233.13091,248.3977c0.038,0.0922 -0.4446,0.2537 -0.4968,0.1321c-0.6536,-1.5666 -2.6344,-2.6733 -2.6002,-4.5277c0.0437,-2.3769 1.8003,-4.3026 0.8769,-6.7441c-0.4579,-1.2112 -1.1609,-2.3208 -1.5875,-3.5425c-0.4465,-1.2806 -0.7229,-2.6049 -0.8179,-3.9587c-0.1843,-2.603 0.0266,-5.205 0.0408,-7.8099c0.001,-0.1425 0.4959,-0.2138 0.495,-0.1321c-0.0162,2.7417 -0.3164,5.5243 0,8.2593c0.1539,1.331 0.3933,2.6961 0.9433,3.9292c0.4627,1.0355 1.0745,2.0368 1.4212,3.1198c0.3449,1.0764 0.4313,2.1385 0.0694,3.2234c-0.3952,1.1884 -1.1676,2.5593 -0.9177,3.8494c0.3325,1.7214 1.9228,2.6438 2.5735,4.2018zM233.50051,246.1719c-0.0409,-0.2233 0.455,-0.3496 0.4949,-0.1321c0.3534,1.9542 -1.6862,2.6714 -2.3436,4.2361c-0.5406,1.2939 -0.5862,2.793 -0.8161,4.1648c-0.1862,1.1086 -0.6298,2.0786 -1.0991,3.0913c-0.0874,0.1862 -0.5862,0.2033 -0.4703,-0.0466c0.5776,-1.2464 0.9909,-2.4301 1.1894,-3.7924c0.1549,-1.0649 0.3069,-2.1251 0.6052,-3.1616c0.4769,-1.6625 2.7911,-2.4168 2.4396,-4.3595z" data-paper-data="{&quot;index&quot;:null}" id="linesPants" fill="#010101"/><path d="M240.67771,143.8189c-0.0484,-0.1596 0.4456,-0.2964 0.495,-0.133c1.2701,4.2503 2.3569,8.5101 3.134,12.8801c0.0304,0.1729 -0.4664,0.2916 -0.4949,0.133c-0.7781,-4.37 -1.8658,-8.6308 -3.1341,-12.8801zM250.43801,142.0861c-0.0304,-0.1672 0.4665,-0.2869 0.495,-0.133c0.7771,4.2047 1.3585,8.3923 1.6492,12.6606c0.0123,0.1767 -0.4855,0.2765 -0.495,0.133c-0.2916,-4.2683 -0.873,-8.4559 -1.6492,-12.6606zM244.60601,154.722c0.0465,-0.1292 0.5253,-0.1843 0.4892,-0.0845c-0.4835,1.3338 -1.158,2.5897 -1.6359,3.9225c-0.5481,1.5314 -0.6327,3.1065 -0.5538,4.7225c0.1463,3.0048 0.4731,5.9061 0.2394,8.9176c-0.3563,4.5695 -0.1235,9.6587 -3.3383,13.3276c-0.0808,0.0912 -0.5558,0.1548 -0.4503,0.0323c3.363,-3.8371 3.1141,-9.6321 3.401,-14.4305c0.1833,-3.0676 -0.4655,-6.0981 -0.3667,-9.1609c0.0874,-2.6818 1.3214,-4.7766 2.2154,-7.2466zM252.11291,154.5843c-0.0029,-0.1872 0.493,-0.2812 0.4949,-0.133c0.0152,1.2321 0.5425,2.318 0.6945,3.5226c0.1444,1.1419 0.057,2.3047 -0.1786,3.4295c-0.5178,2.4747 -1.4241,4.8621 -2.1565,7.2779c-0.7619,2.5147 -1.6388,4.9942 -2.3066,7.5383c-0.6584,2.5146 -1.0545,5.0445 -1.597,7.58c-0.0361,0.1653 -0.5339,0.2461 -0.4949,0.0656c0.5424,-2.5384 0.93,-5.0673 1.5979,-7.581c0.6745,-2.5422 1.5608,-5.017 2.3066,-7.5383c0.7134,-2.4111 1.7024,-4.7984 2.1565,-7.277c0.2242,-1.2312 0.399,-2.5317 0.1007,-3.7667c-0.2518,-1.0412 -0.6042,-2.0359 -0.6175,-3.1179zM238.95731,188.3653c0.0788,-0.151 0.5757,-0.1995 0.4617,0.0181c-0.6688,1.2777 -1.0279,2.6277 -1.3718,4.0175c-0.133,0.5368 -0.7458,1.9694 -0.266,2.4681c1.254,1.3015 1.9446,-0.6612 2.3579,-1.6672c0.3714,-0.9025 0.7058,-1.8193 1.0972,-2.7123c0.0684,-0.1558 0.5643,-0.2109 0.4627,0.0181c-0.7686,1.7537 -1.2749,3.6138 -2.5147,5.1119c-0.0864,0.1036 -0.2479,0.1663 -0.3819,0.1311c-1.0155,-0.2584 -1.8772,-0.6118 -1.6121,-1.8012c0.4199,-1.9047 0.8578,-3.8494 1.767,-5.5841zM239.55771,194.9194c-0.3363,0 -0.2318,-0.3515 0.0475,-0.3515c0.6545,0 1.31,0 1.9655,0c0.3363,0 0.2318,0.3515 -0.0475,0.3515c-0.6555,0 -1.31,0 -1.9655,0zM241.78261,194.6895c-0.1159,0.1672 -0.6213,0.1691 -0.4703,-0.0475c0.7059,-1.0184 1.0821,-2.1613 1.5324,-3.3051c0.076,-0.1928 0.5728,-0.2109 0.4712,0.0485c-0.4494,1.1438 -0.8256,2.2866 -1.5333,3.3041zM241.84721,194.5014c-0.3354,0.0028 -0.0114,-0.3002 0.1881,-0.3031c0.5909,-0.0038 1.1846,-0.0646 1.7565,-0.2185c0.2993,-0.0817 0.3724,0.191 0.0722,0.2708c-0.6583,0.1786 -1.3366,0.2451 -2.0168,0.2508zM243.90011,194.1926c-0.0902,0.1178 -0.5852,0.1682 -0.4579,0.0019c0.6821,-0.8863 0.8579,-1.9665 1.083,-3.0333c0.0333,-0.1568 0.5301,-0.2394 0.494,-0.0694c-0.2318,1.0925 -0.4208,2.1945 -1.1191,3.1008zM243.90111,193.7366c-0.2356,0 0.2299,-0.1881 0.3249,-0.1881c0.4398,0 0.9775,0.0589 1.3233,-0.2726c0.4209,-0.4057 0.5824,-1.0032 0.7097,-1.5542c0.0266,-0.1131 0.5082,-0.1824 0.4873,-0.0922c-0.1615,0.7002 -0.4018,1.4877 -1.0953,1.8297c-0.5472,0.2689 -1.1543,0.2774 -1.7499,0.2774zM246.75301,191.6609c-0.0418,0.2356 -0.5491,0.2926 -0.5026,0.0304c0.2508,-1.3946 0.8303,-2.812 0.7866,-4.2456c-0.0389,-1.2464 -0.3534,-2.4529 -0.3942,-3.6974c-0.0076,-0.2365 0.4949,-0.304 0.5035,-0.0313c0.0456,1.3775 0.5177,2.755 0.3781,4.1372c-0.1321,1.2958 -0.5415,2.5299 -0.7714,3.8067zM239.25751,185.4669c0.0798,-0.1245 0.532,-0.1501 0.4892,-0.0846c-0.4911,0.7714 -1.1523,1.3357 -1.2179,2.3085c-0.0513,0.7496 -0.0114,1.4963 0.1596,2.2297c0.0295,0.1235 -0.4683,0.2498 -0.4949,0.133c-0.1872,-0.7942 -0.2717,-1.6882 -0.1292,-2.4976c0.1529,-0.8768 0.7324,-1.3661 1.1932,-2.089z" data-paper-data="{&quot;index&quot;:null}" id="linesArmLeft" fill="#010101"/><path d="M218.18171,143.2793c0.0029,-0.134 0.4959,-0.1948 0.495,-0.133c-0.1102,4.1714 -0.437,8.2764 -1.0251,12.4089c-0.0199,0.1425 -0.5006,0.1767 -0.4949,0.133c0.5871,-4.1325 0.9148,-8.2375 1.025,-12.4089zM217.28781,154.7515c0.0817,-0.1264 0.5377,-0.1549 0.4902,-0.0808c-1.7984,2.7816 -2.6752,5.4283 -2.7161,8.7543c-0.0351,2.8756 0.1767,5.7636 -0.1995,8.625c-0.018,0.1283 -0.5092,0.2233 -0.4911,0.0808c0.4161,-3.1502 0.0627,-6.3147 0.2223,-9.4753c0.1491,-2.9745 1.0801,-5.4055 2.6942,-7.904zM214.37791,172.0576c0.0998,-0.2052 0.6023,-0.1947 0.476,0.0646c-1.3034,2.6657 -3.3773,4.6712 -2.5061,7.8698c0.5025,1.843 1.2939,3.7687 2.2163,5.4407c0.1302,0.2346 -0.3401,0.4246 -0.4522,0.2213c-1.0279,-1.862 -2.1489,-4.2237 -2.4291,-6.3517c-0.3829,-2.9127 1.4934,-4.7823 2.6951,-7.2447zM215.46381,181.2042c0.0066,-0.133 0.4968,-0.1871 0.4949,-0.132c-0.0589,1.215 0.1045,3.2841 -1.5152,3.5957c-0.6869,0.1321 -0.6413,-0.7476 -0.6574,-1.2131c-0.0475,-1.2977 -0.0285,-2.5717 -0.5121,-3.8c-0.0304,-0.0779 0.4551,-0.2375 0.495,-0.1321c0.3192,0.8113 0.4436,1.6445 0.4731,2.5137c0.0199,0.6375 -0.1188,1.5599 0.1244,2.1575c0.2375,0.5852 0.7999,-0.324 0.8892,-0.6308c0.2252,-0.7819 0.1701,-1.558 0.2081,-2.3589zM215.91121,181.209c0.001,0.1453 -0.4949,0.2204 -0.4949,0.133c-0.0076,-0.9329 0.4379,-1.7708 0.512,-2.6914c0.0133,-0.152 0.5016,-0.2071 0.495,-0.133c-0.0741,0.9196 -0.5197,1.7604 -0.5121,2.6914zM214.02071,185.6037c-0.2232,-0.1777 0.2109,-0.4199 0.3819,-0.2841c0.4142,0.3268 0.9092,0.4646 1.4326,0.475c0.1055,0.0019 0.2005,0.1026 0.1501,0.2071c-0.0579,0.1207 -0.2023,0.1539 -0.323,0.1511c-0.588,-0.0114 -1.1761,-0.1815 -1.6416,-0.5491z" data-paper-data="{&quot;index&quot;:null}" id="linesArmRight" fill="#010101"/><path d="M237.07341,115.8138c-0.1434,-0.0399 0.3553,0.2537 0.4693,0.285c3.8124,2.071 9.6321,4.9704 11.458,8.304c0.4398,1.557 0.5605,2.2885 0.8008,3.4133c0.3335,1.5637 0.5615,3.1464 0.8892,4.7101c0.5263,2.5166 1.3538,4.5809 2.9346,6.5987c0.037,0.0475 -0.4019,0.2527 -0.495,0.133c-1.5732,-2.0073 -2.4377,-4.085 -2.9355,-6.5987c-0.5006,-2.5327 -0.7932,-5.5888 -1.6425,-8.0332c-4.0679,-5.2858 -8.3933,-6.3108 -10.7597,-7.9581zM227.51361,119.9121c0.1738,-0.1064 0.6004,-0.0028 0.3144,0.1729c-1.0535,0.647 -2.0976,1.3015 -3.0704,2.0682c-1.0858,0.855 -2.7084,1.9066 -3.3867,3.1359c-1.0612,1.92 -0.9443,4.3007 -1.0602,6.4315c-0.0922,1.7091 -0.2309,3.1968 -0.9776,4.7633c-0.7581,1.5894 -1.7356,2.9735 -2.6486,4.4669c-0.094,0.153 -0.5956,0.1872 -0.4655,-0.0256c1.0906,-1.7832 2.3551,-3.4362 3.0638,-5.435c0.627,-1.7708 0.5557,-3.7572 0.646,-5.6135c0.0893,-1.8269 0.1691,-4.1876 1.6805,-5.4929c1.8924,-1.6378 3.7649,-3.1578 5.9043,-4.4717zM216.20191,141.0031c-0.0741,-0.1482 0.4085,-0.3069 0.495,-0.133c0.8056,1.6226 3.2784,3.9852 5.2326,3.6822c0.341,-0.0532 0.1729,0.2432 -0.0665,0.2802c-2.1755,0.3392 -4.7681,-2.032 -5.6611,-3.8294zM221.04981,131.5781c0.0114,-0.1349 0.3857,-0.2033 0.3724,-0.0418c-0.2727,3.2348 0.1387,6.4743 0.38,9.6995c0.1976,2.6334 0.646,5.283 0.2802,7.9202c-0.019,0.1358 -0.3933,0.1995 -0.3724,0.0427c0.4199,-3.039 -0.133,-6.2187 -0.3724,-9.2596c-0.2194,-2.794 -0.5244,-5.5585 -0.2878,-8.361zM221.85821,139.7643c-0.0009,-0.133 0.3715,-0.1986 0.3715,-0.0998c0.0199,2.6942 0.056,5.359 -0.0684,8.0541c-0.1283,2.794 -0.7429,5.7228 -1.5001,8.4123c-0.4113,1.4611 -0.8882,2.9165 -1.5523,4.2845c-0.5918,1.2141 -1.4791,2.3607 -1.8477,3.666c-0.7828,2.7617 1.2226,4.8089 2.4567,7.0709c0.0484,0.0893 -0.3078,0.2156 -0.3715,0.0997c-1.0858,-1.9893 -3.2651,-4.2626 -2.564,-6.7326c0.3762,-1.331 1.1599,-2.4121 1.7575,-3.6423c0.5994,-1.2303 1.1077,-2.5014 1.4972,-3.8133c0.8369,-2.8168 1.6007,-5.9299 1.7366,-8.8759c0.1273,-2.8139 0.1054,-5.6097 0.0845,-8.4236zM253.14651,139.1867c0.0931,-0.1321 0.5918,-0.1758 0.4607,0.0104c-1.5589,2.2211 -4.3396,4.4213 -7.0841,4.8849c-2.0463,0.3458 -5.1424,0.5273 -6.8315,-0.93c-0.1349,-0.1169 0.3268,-0.3078 0.4589,-0.1938c1.5627,1.3461 4.7253,1.2635 6.6148,0.8132c2.4833,-0.5909 4.9362,-2.5251 6.3812,-4.5847zM237.48481,134.2239c-0.0475,-0.02 0.3344,-0.2252 0.4664,-0.1672c2.8785,1.2597 2.6752,6.2899 2.2344,8.834c-0.0199,0.1169 -0.5054,0.1995 -0.4873,0.0893c0.4351,-2.5137 0.6146,-7.5183 -2.2135,-8.7561zM237.46671,116.4408c0.0618,-0.1206 0.5168,-0.1491 0.4864,-0.0921c-1.4981,2.9488 -2.7208,6.0724 -4.2997,8.9737c-0.8626,1.5865 -2.1745,3.685 -4.0641,4.1591c-1.7879,0.4484 -3.9862,-0.0228 -4.4954,-2.1062c-0.5985,-2.4481 0.9586,-5.3551 2.4178,-7.1981c0.0893,-0.1131 0.5092,-0.1197 0.4873,-0.0912c-1.2787,1.614 -2.5935,3.9643 -2.546,6.1123c0.058,2.6077 3.0609,4.522 5.2421,2.4662c1.7879,-1.6844 2.7018,-3.7345 3.7174,-5.9185c0.9832,-2.1185 1.9969,-4.2228 3.0542,-6.3052zM217.19471,167.738c0.0009,-0.1302 0.4949,-0.1957 0.4949,-0.133c-0.0038,2.1147 -2.6201,4.8051 -0.6621,6.5911c0.0598,0.0551 -0.3762,0.246 -0.4674,0.1634c-2.0017,-1.8259 0.6308,-4.4983 0.6346,-6.6215zM232.46501,180.2086c-0.3335,-0.0152 0.0323,-0.2593 0.2004,-0.2508c4.7491,0.2128 7.6979,-3.7373 9.9779,-7.3511c0.0769,-0.1206 0.569,-0.1852 0.456,-0.0066c-2.4368,3.8579 -5.624,7.8327 -10.6343,7.6085zM216.48031,174.1381c-0.2005,-0.1301 0.2574,-0.3287 0.3933,-0.2394c1.956,1.2692 3.9615,2.4577 5.9669,3.6452c1.8373,1.0877 3.5654,2.3617 5.4616,3.3497c2.2182,1.1552 4.6398,2.0159 7.1801,1.7575c2.3351,-0.2385 4.4593,-1.0317 6.4875,-2.1898c0.1606,-0.0921 0.5976,-0.018 0.3059,0.1482c-3.8342,2.1898 -8.2469,3.1673 -12.4554,1.4212c-2.3674,-0.9823 -4.4584,-2.4339 -6.6206,-3.7886c-2.2239,-1.3936 -4.5163,-2.6733 -6.7193,-4.104z" data-paper-data="{&quot;index&quot;:null}" id="linesShirt" fill="#010101"/><path d="M237.31471,106.7499c-0.057,-0.1197 0.3069,-0.2356 0.3705,-0.0998c1.2436,2.642 3.5787,-0.6013 4.1829,-1.9294c0.2223,-0.4874 0.7258,-1.3851 0.569,-1.9608c-0.3192,-1.178 -0.9528,-1.9086 -2.3085,-1.6188c-0.2242,0.0484 -0.2821,-0.1501 -0.0532,-0.1986c1.0878,-0.2337 2.1489,-0.0019 2.5603,1.1638c0.4151,1.1704 -0.2166,2.3436 -0.7971,3.3677c-0.8749,1.5485 -3.3611,3.7478 -4.5239,1.2759zM241.20781,105.0579c-0.0693,-0.0313 -0.1919,0.02 -0.2698,0.1169c0.0513,0.0731 -0.7533,0.8778 -1.8154,0.5814c-0.4969,-0.114 -1.0441,-0.2527 -1.4155,-0.0656c-0.3411,0.2717 -0.0741,0.6033 -0.1349,0.5786c0.0532,0.0285 -0.1701,-0.3268 0.1558,-0.5406c0.3477,-0.1491 0.873,0.0124 1.3594,0.1606c1.0897,0.4085 2.1261,-0.4399 2.0758,-0.551c0.095,-0.1226 0.1149,-0.2489 0.0446,-0.2803zM238.18401,104.1269c0.0418,0.0637 0.1786,0.0323 0.3011,-0.0703c0.1349,0.0266 0.8009,-1.0307 1.7442,-1.5722c0.5092,-0.1843 1.1286,-0.1017 1.4364,0.1748c0.3059,0.2992 0.1976,0.6412 0.2299,0.6251c-0.0351,0.0152 0.1017,-0.3173 -0.2004,-0.6555c-0.3097,-0.3107 -0.9415,-0.4408 -1.5134,-0.2746c-1.083,0.5472 -1.7489,1.5295 -1.8705,1.4868c-0.1121,0.0931 -0.1701,0.2213 -0.1273,0.2859zM241.06251,100.9406c0.2964,0.0637 -0.0931,0.3591 -0.2917,0.3164c-1.6862,-0.3591 -2.925,1.7033 -3.5615,2.9716c-0.0912,0.1814 -0.5928,0.1985 -0.4703,-0.0447c0.8056,-1.6036 2.261,-3.6822 4.3235,-3.2433zM218.61211,103.8049c-0.0561,0.1444 -0.5406,0.2033 -0.4921,0.075c0.3534,-0.9101 0.1415,-2.3208 0.0845,-3.2813c-0.076,-1.2578 -0.3838,-2.2895 0.1634,-3.5131c0.0627,-0.1425 0.5444,-0.1947 0.4921,-0.0741c-0.5956,1.331 -0.1786,2.5717 -0.1387,3.9406c0.0228,0.8484 0.2081,2.0368 -0.1092,2.8529zM223.64611,117.2892c-0.095,-0.02 0.2242,-0.1539 0.3078,-0.1368c3.3041,0.6963 7.068,-1.0745 9.5922,-3.1246c2.2629,-1.8382 3.4846,-4.0888 3.78,-7.0043c0.0114,-0.1055 0.3753,-0.1368 0.3715,-0.0998c-0.3724,3.6585 -2.3076,6.1636 -5.2906,8.1605c-2.3911,1.6017 -5.8928,2.8092 -8.7609,2.205zM222.39591,105.3239c-0.0332,0.0352 -0.1539,0.0247 -0.1016,-0.0294c1.0839,-1.1229 0.6602,-4.2323 -0.3933,-5.2659c-0.0399,-0.0389 0.0779,-0.0874 0.113,-0.0522c1.0754,1.0545 1.4934,4.1952 0.3819,5.3475zM221.92091,106.0184c0.0817,-0.0817 0.5491,-0.1425 0.4475,-0.0409c-0.5995,0.6033 -1.558,1.3756 -1.1951,2.3418c0.2175,0.5823 0.8673,0.5339 1.3176,0.9006c0.0684,0.056 -0.3648,0.2508 -0.4674,0.1662c-0.5624,-0.4579 -1.425,-0.3334 -1.4231,-1.2939c0,-0.8882 0.7429,-1.4924 1.3205,-2.0738zM222.71701,109.0308c-0.0703,-0.0123 0.1435,-0.1073 0.2024,-0.0969c0.5054,0.0903 1.0877,0.5995 1.6102,0.3154c0.5358,-0.2916 0.4522,-0.93 0.0656,-1.3034c-0.0399,-0.038 0.1852,-0.1301 0.2327,-0.0845c0.4969,0.4797 0.4114,1.1751 -0.2318,1.4554c-0.7087,0.3087 -1.2055,-0.1653 -1.8791,-0.286zM228.01041,117.122c-0.0912,-0.1701 0.2632,-0.3059 0.3401,-0.1625c0.551,1.0327 0.133,2.2487 -0.4189,3.192c-0.0808,0.1387 -0.4589,0.1387 -0.3544,-0.0399c0.5083,-0.8692 0.9462,-2.0273 0.4332,-2.9896zM218.26251,103.7213c0.2346,-0.1093 0.5168,0.0988 0.2071,0.2422c-0.7648,0.3544 -0.2746,2.5622 -0.1767,3.1445c0.1852,1.1077 0.4322,2.2078 0.7552,3.2842c0.6052,2.0168 1.4212,4.1116 2.737,5.7617c0.1387,0.1748 -0.3363,0.3563 -0.456,0.2043c-1.5438,-1.9371 -2.4653,-4.4783 -3.059,-6.8704c-0.2774,-1.1172 -1.5628,-5.0455 -0.0076,-5.7665zM221.21511,116.1644c-0.0779,-0.0922 0.2755,-0.2204 0.3467,-0.1368c0.6004,0.7087 1.5913,0.9747 2.4786,1.0849c0.1995,0.0247 -0.1368,0.19 -0.2337,0.1776c-0.9225,-0.113 -1.9675,-0.3876 -2.5916,-1.1257zM236.59181,110.0863c0.0209,-0.1454 0.398,-0.2052 0.3733,-0.039c-0.1966,1.2977 -0.4436,2.6714 -0.1605,3.9758c0.189,0.873 0.5586,1.6634 0.8806,2.4918c0.0551,0.1397 -0.3125,0.248 -0.3705,0.0998c-0.4313,-1.1068 -0.9386,-2.1518 -0.9832,-3.364c-0.039,-1.0697 0.0997,-2.108 0.2603,-3.1644z" data-paper-data="{&quot;index&quot;:null}" id="linesHead" fill="#010101"/><path d="M226.65481,112.1506c0.0351,0.1596 -0.4608,0.285 -0.495,0.133c-0.0104,-0.0465 -0.0199,-0.0693 -0.0579,-0.0997c0.1586,-0.0532 0.3192,-0.1064 0.4778,-0.1596c0.0684,0.1187 0.1283,0.2422 0.1967,0.361c-0.1653,0.0437 -0.3306,0.0883 -0.495,0.133c-0.0418,-0.1625 -0.1463,-0.2841 -0.2327,-0.4237c-0.0675,-0.1093 0.4009,-0.285 0.4949,-0.133c0.0874,0.1406 0.191,0.2593 0.2337,0.4246c0.0409,0.1606 -0.417,0.2689 -0.4949,0.133c-0.0684,-0.1187 -0.1283,-0.2422 -0.1957,-0.36c-0.0485,-0.0836 0.1776,-0.1644 0.2175,-0.1758c0.0779,-0.0209 0.191,-0.0389 0.2603,0.0162c0.0513,0.0389 0.077,0.0874 0.0903,0.151zM226.40211,112.1506c0.3486,-0.0665 0.0912,0.1273 -0.0969,0.1634c-1.6388,0.3116 -3.136,-0.8198 -4.8165,-0.6384c-0.323,0.0352 0.1016,-0.1691 0.2185,-0.1814c0.7837,-0.0846 1.5418,-0.0323 2.3018,0.1938c0.7657,0.227 1.5751,0.6175 2.3931,0.4626zM226.55031,112.2029c0.2992,-0.1102 0.3819,0.2299 0.0902,0.3372c-0.7961,0.2926 -1.5086,0.9206 -2.3835,0.9785c-0.7391,0.0494 -1.4545,-0.0826 -2.185,-0.1738c-0.0656,-0.0086 -0.1435,-0.0409 -0.1615,-0.1131c-0.1387,-0.5548 -0.153,-1.083 -0.5396,-1.538c-0.1625,-0.191 0.3078,-0.3886 0.4541,-0.2176c0.2878,0.3382 0.3895,0.6185 0.4626,1.0526c0.1036,0.6194 0.6204,0.5738 1.1609,0.6175c1.2464,0.1026 2.0112,-0.5434 3.1018,-0.9433z" data-paper-data="{&quot;index&quot;:null}" id="linesMouth" fill="#010101"/><path d="M227.07371,103.5066c-0.0617,0.1719 -0.5605,0.2346 -0.4959,0.0579c0.6337,-1.7423 6.4819,-2.9022 6.2824,-0.3885c-0.1824,2.3075 -5.2744,2.4424 -6.1133,0.5681c-0.0722,-0.1606 0.4152,-0.3135 0.495,-0.133c0.6412,1.4335 4.9637,1.6226 5.11,-0.229c0.1777,-2.2277 -4.7253,-1.3974 -5.2782,0.1245zM230.00071,102.1509c-0.0532,-0.1273 0.3135,-0.2384 0.3714,-0.0988c0.9586,2.3114 -3.1711,3.1702 -3.0086,0.7648c0.0095,-0.134 0.3828,-0.2043 0.3733,-0.0418c-0.0589,0.8569 0.5957,1.4972 1.4678,1.2388c0.8616,-0.2565 1.1238,-1.0726 0.7961,-1.863zM222.98211,103.8457c-0.02,0.1169 -0.5064,0.2024 -0.4893,0.0884c0.1359,-0.8303 -0.3809,-1.6217 -1.0136,-2.1157c-0.5415,-0.4218 -2.0454,-1.2464 -2.2629,-0.0589c-0.1273,0.6935 0.4826,1.274 1.0193,1.6065c0.5567,0.3439 1.6606,0.9091 2.3123,0.5177c0.0884,-0.0532 0.5862,-0.114 0.3781,0.0114c-0.8027,0.4817 -1.8392,0.3097 -2.6438,-0.0798c-0.7021,-0.341 -2.1214,-1.3243 -1.4155,-2.2762c1.3252,-1.785 4.4108,0.4921 4.1154,2.3066zM221.43451,101.7006c0.0171,-0.1092 0.2689,-0.1434 0.2508,-0.0199c-0.113,0.7343 -0.2964,1.6834 -1.2806,1.4364c-0.9015,-0.2271 -0.9737,-1.2464 -0.6678,-1.9827c0.0418,-0.0997 0.2916,-0.1035 0.2365,0.0266c-0.2204,0.5311 -0.2907,1.501 0.3981,1.7385c0.8854,0.3059 0.9661,-0.5633 1.063,-1.1989z" data-paper-data="{&quot;index&quot;:null}" id="linesEyes" fill="#010101"/><path d="M226.31941,100.0904c-0.6099,0.1235 -0.7932,-0.514 -0.1719,-0.6403c2.5811,-0.5263 5.2174,-1.0783 7.5658,0.4569c0.4579,0.2993 -0.4218,0.7781 -0.7686,0.552c-2.07,-1.3528 -4.3605,-0.8303 -6.6253,-0.3686zM222.08431,99.6401c0.4408,0.3363 -0.4398,0.8037 -0.7685,0.5519c-0.9434,-0.721 -1.7623,-1.2673 -2.9821,-1.3452c-0.6707,-0.0418 -0.1073,-0.7153 0.3525,-0.6868c1.368,0.0874 2.3332,0.6659 3.3981,1.4801z" data-paper-data="{&quot;index&quot;:null}" id="linesEyebrows" fill="#010101"/><path d="M234.94731,92.4486c-0.0019,-0.0998 0.3705,-0.1539 0.3705,-0.0988c0.0285,1.69 -0.398,3.1768 -1.7071,4.3377c-1.198,1.0611 -2.7037,1.311 -4.218,1.652c-0.1055,0.0238 -0.2157,-0.0152 -0.0703,-0.0845c1.8012,-0.8541 2.6837,-2.6211 3.1008,-4.4802c0.1225,-0.0228 0.2432,-0.0456 0.3667,-0.0684c-1.5276,2.3522 -4.5819,3.1644 -7.2324,3.3155c-4.217,0.2413 -8.3752,-0.4104 -12.5922,0.1729c-0.0181,0.0028 -0.1245,0.0104 -0.1007,-0.0371c0.5377,-1.1067 1.4563,-1.7366 2.4272,-2.4614c0.5216,-0.3895 1.0393,-0.761 1.4811,-1.2398c1.1856,-1.2834 -0.9035,-0.4864 -1.4155,-0.1273c-0.4104,0.2869 -0.761,0.5919 -1.1201,0.9339c-0.0389,0.038 -0.3705,0.1444 -0.3496,0.0503c0.5548,-2.5802 2.0682,-4.4982 4.0299,-6.1731c1.6492,-1.4069 3.2823,-2.641 5.3723,-3.3003c0.1387,-0.0437 0.379,-0.0047 0.1263,0.0751c-2.3379,0.7381 -4.3291,2.3199 -6.0942,3.9871c-1.5305,1.4459 -2.6258,3.2785 -3.0685,5.3428c-0.1169,0.0162 -0.2337,0.0333 -0.3506,0.0504c1.1077,-1.0593 2.2753,-1.6815 3.8124,-1.7898c0.0114,0 0.132,-0.0076 0.1007,0.037c-0.913,1.349 -2.3047,2.1252 -3.5217,3.1616c-0.2964,0.2537 -0.6127,0.5016 -0.797,0.855c-0.3401,0.6489 0.5082,0.3753 0.8711,0.3392c1.0279,-0.0988 2.0596,-0.1701 3.0932,-0.1786c4.6237,-0.0371 11.9444,1.7005 14.9644,-2.9479c0.0399,-0.0627 0.3848,-0.1558 0.3658,-0.0684c-0.2708,1.2065 -0.722,2.2971 -1.4934,3.2699c-0.2242,0.2822 -0.5111,0.5596 -0.8066,0.7667c-0.2755,0.1928 -1.0963,0.4826 -0.2888,0.3049c3.0305,-0.6621 4.7975,-2.5099 4.7443,-5.5964zM243.03751,112.8641c0.1425,0.1054 -0.3135,0.304 -0.4588,0.1976c-1.5637,-1.1495 -1.8943,-2.7702 -1.3709,-4.5809c0.1606,-0.0067 0.3202,-0.0143 0.4798,-0.0209c-1.4089,2.0681 -0.9054,5.1917 1.2036,6.6015c0.2062,0.1378 -0.2517,0.3306 -0.3923,0.2451c-1.6084,-0.9737 -3.1711,-1.7556 -4.0432,-3.5102c0.1662,-0.0323 0.3306,-0.0637 0.4959,-0.096c-0.3667,1.084 -0.0171,2.8377 0.7419,3.7022c0.1454,0.1653 -0.3182,0.2745 -0.4246,0.2213c-0.9985,-0.494 -2.2088,-1.3205 -2.9374,-2.166c-0.133,-0.1529 0.342,-0.3325 0.4579,-0.1976c0.7296,0.8465 1.8734,1.6236 2.8699,2.1176c-0.1415,0.0741 -0.2831,0.1472 -0.4246,0.2204c-0.798,-0.9092 -1.1704,-2.6866 -0.7809,-3.8399c0.0532,-0.1539 0.4113,-0.2679 0.4959,-0.096c0.8426,1.6939 2.3902,2.4586 3.9406,3.3982c-0.1311,0.0817 -0.2613,0.1634 -0.3924,0.2451c-2.2049,-1.4744 -2.755,-4.6883 -1.2739,-6.8628c0.0655,-0.0969 0.5377,-0.2271 0.4797,-0.0209c-0.5092,1.7641 -0.1871,3.324 1.3338,4.4422zM235.02521,92.5369c-0.019,-0.0874 0.229,-0.1501 0.248,-0.0665c0.569,2.5774 -0.1739,5.0436 -0.5178,7.5943c-0.113,0.8379 -0.2185,1.6948 -0.1662,2.5413c0.0123,0.2869 0.037,0.5719 0.075,0.8559c-0.1928,0.1074 -0.1786,-0.0256 0.0475,-0.399c0.3762,-1.1495 0.9035,-2.2163 1.4649,-3.2851c0.0361,-0.0703 0.285,-0.0997 0.2299,0.0038c-0.7001,1.3338 -1.33,2.6524 -1.672,4.1249c-0.0152,0.0665 -0.2327,0.1349 -0.2479,0.0494c-0.6299,-3.8494 1.386,-7.5857 0.5386,-11.419zM217.48631,96.8993c0.0589,-0.0921 0.4304,-0.1377 0.342,-0.0028c-0.7077,1.0887 -1.4022,2.1926 -1.8154,3.4333c-0.4057,1.2198 -1.0317,2.222 -1.5238,3.3848c-0.1188,0.0095 -0.2375,0.019 -0.3563,0.0276c0.6812,-0.8075 1.4716,-1.4858 2.2762,-2.167c0.0428,-0.037 0.3639,-0.1406 0.3316,-0.0028c-0.4218,1.8021 -0.8579,3.5995 -1.1609,5.4254c-0.019,0.114 -0.3895,0.1834 -0.3696,0.0523c0.2223,-1.4355 1.4953,-2.5128 2.699,-3.1825c0.1102,-0.0608 0.4436,-0.0304 0.2251,0.0921c-1.1324,0.6308 -2.3455,1.6844 -2.5536,3.0381c-0.1235,0.0181 -0.246,0.0352 -0.3705,0.0523c0.3021,-1.8269 0.7382,-3.6243 1.1609,-5.4264c0.1102,-0.001 0.2204,-0.0019 0.3316,-0.0029c-0.7857,0.665 -1.5609,1.3272 -2.2268,2.1176c-0.0466,0.056 -0.4085,0.151 -0.3563,0.0275c0.2394,-0.5652 0.6299,-1.045 0.8683,-1.6074c0.3002,-0.7115 0.5111,-1.4525 0.8009,-2.1679c0.4493,-1.1058 1.0478,-2.0928 1.6976,-3.0913zM221.04031,86.0703c-0.1321,0.1577 -0.6071,0.1121 -0.4095,-0.1254c1.6502,-1.9827 4.4061,-3.1075 6.8315,-3.7639c3.078,-0.8332 6.365,-1.1134 9.4477,-0.1492c0.2926,0.0912 -0.0978,0.3734 -0.2916,0.3126c-2.9298,-0.9158 -6.1513,-0.7002 -9.0744,0.1463c-2.3133,0.6716 -4.9163,1.671 -6.5037,3.5796zM236.56711,82.3035c-0.1967,-0.0902 0.2574,-0.2945 0.3971,-0.2308c3.7781,1.7309 7.9239,3.8693 7.2779,8.721c-0.0209,0.1586 -0.5187,0.2517 -0.4949,0.0665c0.6365,-4.7747 -3.478,-6.86 -7.1801,-8.5567zM244.01891,89.5425c-0.2033,-0.1206 0.2546,-0.323 0.3933,-0.2403c9.2539,5.5024 -2.3522,16.1509 -1.3566,23.5932c0.0247,0.1872 -0.4722,0.3002 -0.495,0.133c-0.9813,-7.3359 10.5251,-18.0946 1.4583,-23.4859zM236.08261,99.9336c0.0028,-0.0693 0.2489,-0.0988 0.2479,-0.0665c-0.0475,1.0754 -0.627,1.9551 -0.835,2.9897c-0.2413,1.2141 -0.1549,2.4804 0.1653,3.6698c-0.0827,0.0219 -0.1653,0.0437 -0.248,0.0665c-0.0893,-1.0003 0.7809,-1.842 1.4307,-2.5051c0.0399,-0.0399 0.2717,-0.0713 0.2233,-0.0209c-0.6261,0.6384 -1.4925,1.4848 -1.406,2.4595c0.0047,0.057 -0.2337,0.1159 -0.248,0.0665c-0.2793,-1.0345 -0.4474,-2.2534 -0.2337,-3.3202c0.2261,-1.1391 0.8522,-2.1651 0.9035,-3.3393z" data-paper-data="{&quot;index&quot;:null}" id="linesHair" fill="#010101"/></g></g></svg>