<svg version="1.1" xmlns="http://www.w3.org/2000/svg" xmlns:xlink="http://www.w3.org/1999/xlink" width="36.67681" height="65.43548" viewBox="0,0,36.67681,65.43548"><g transform="translate(-219.16413,-148.66904)"><g data-paper-data="{&quot;isPaintingLayer&quot;:true}" fill-rule="nonzero" stroke="none" stroke-width="1" stroke-linecap="butt" stroke-linejoin="miter" stroke-miterlimit="10" stroke-dasharray="" stroke-dashoffset="0" style="mix-blend-mode: normal"><g data-paper-data="{&quot;origPos&quot;:null}"><path d="M255.57449,149.43725c0,0.25607 0,0.3841 0,0.64017c0,1.40838 0,1.28035 -1.28035,1.40838c-0.51214,0 -1.15231,0 -1.66445,0.25607c-1.02428,0.3841 -1.53642,1.02428 -1.53642,2.17659c0,4.86533 0.12803,9.85869 0.12803,14.72402c0.12803,6.52978 0.25607,12.93153 0.12803,19.46131c0,5.1214 -1.15231,10.11476 -3.20087,14.85205c-1.28035,3.32891 -3.58498,5.88961 -6.52978,7.93817c-3.07284,2.17659 -6.52978,3.32891 -10.37083,3.20087c-3.71301,-0.12803 -7.04192,-1.53642 -9.73065,-4.22515c-2.04856,-1.92052 -3.32891,-7.04192 -1.40838,-9.60262c1.02428,-1.40838 2.43266,-2.5607 3.84105,-3.58498c2.04856,-1.53642 4.35319,-1.92052 6.78585,-1.15231c0.51214,0.12803 1.15231,0.51214 1.40838,0.89624c1.40838,1.79249 1.53642,4.60926 0.3841,6.40175c-0.64017,0.89624 -1.53642,1.40838 -2.30463,2.17659c3.07284,1.02428 6.01764,-0.12803 6.52978,-3.32891c0.64017,-3.45694 0.89624,-7.04192 1.15231,-10.6269c0.25607,-2.9448 0.25607,-5.76157 0.3841,-8.70638c0.12803,-3.84105 0.12803,-7.55406 0.12803,-11.39511c0,-2.68873 0,-5.5055 -0.25607,-8.32227c-0.12803,-1.02428 -0.51214,-2.04856 -0.89624,-3.07284c-0.3841,-1.02428 -1.02428,-1.66445 -2.17659,-1.66445c-0.3841,0 -0.76821,-0.12803 -1.15231,-0.12803c-2.30463,-0.12803 -2.5607,-0.3841 -2.5607,-2.68873c0,-0.25607 0.25607,-0.51214 0.3841,-0.76821c1.40838,-1.53642 2.81677,-3.20087 4.22515,-4.86533c0.51214,-0.51214 0.89624,-0.76821 1.66445,-0.76821c3.71301,0.12803 7.55406,0.12803 11.39511,0.12803c1.92052,0 3.96908,0 6.01764,-0.12803c0.76821,0 1.02428,0.25607 0.51214,0.76821zM236.11318,152.51009c1.02428,-0.89624 1.15231,-1.79249 0.89624,-3.07284c-1.53642,1.79249 -2.9448,3.58498 -4.35319,5.37747c-0.25607,0.3841 -0.12803,0.89624 -0.25607,1.28035c1.28035,-1.02428 2.30463,-2.43266 3.71301,-3.58498zM241.74672,209.86974c-2.43266,0.25607 -5.1214,0.51214 -7.6821,0.76821c-3.07284,0.25607 -5.63354,-1.02428 -7.55406,-3.07284c-2.30463,-2.5607 -3.32891,-5.63354 -2.43266,-9.47458c-1.02428,0.89624 -1.79249,1.66445 -2.5607,2.30463c-0.89624,0.76821 -1.40838,1.79249 -1.40838,2.9448c0,1.02428 0.25607,2.04856 0.51214,3.07284c1.02428,3.58498 3.84105,5.37747 7.04192,6.40175c3.07284,0.89624 6.27371,1.02428 9.47458,0c1.53642,-0.51214 4.09712,-2.04856 4.60926,-2.9448zM242.51493,177.86101c0,-3.20087 0,-6.52978 0,-9.85869c0,-3.07284 -0.12803,-6.14568 -0.25607,-9.21851c0,-1.40838 -0.12803,-2.9448 -0.3841,-4.35319c-0.3841,-1.79249 -1.53642,-2.43266 -3.32891,-2.5607c-0.89624,-0.12803 -0.89624,0.51214 -1.28035,0.89624c-1.40838,1.28035 -2.5607,2.81677 -3.84105,4.09712c0.51214,0.12803 1.28035,0.12803 1.79249,0.3841c0.76821,0.12803 1.66445,0.3841 2.04856,0.89624c0.76821,1.15231 1.40838,2.43266 1.66445,3.71301c0.25607,1.92052 0.3841,3.96908 0.3841,6.01764c0,4.22515 0,8.32227 -0.12803,12.54742c-0.25607,5.88961 -0.51214,11.77921 -0.89624,17.66882c-0.12803,2.68873 -0.3841,5.5055 -2.68873,7.42603c0.51214,-0.12803 0.89624,-0.25607 1.28035,-0.51214c2.04856,-1.28035 3.32891,-3.32891 4.35319,-5.5055c1.40838,-2.81677 1.28035,-6.01764 1.28035,-9.09048c-0.12803,-4.22515 -0.12803,-8.32227 0,-12.54742z" fill="#53ad4e"/><path d="M235.98515,152.63812c-1.28035,1.02428 -2.17659,2.30463 -3.58498,3.45694c0.12803,-0.3841 0,-0.89624 0.25607,-1.28035c1.40838,-1.79249 2.81677,-3.58498 4.35319,-5.37747c0.25607,1.40838 0,2.30463 -1.02428,3.20087z" fill="#ffffff"/><path d="M241.87475,209.86974c-0.51214,0.89624 -3.20087,2.43266 -4.73729,2.9448c-3.20087,1.02428 -6.40175,0.89624 -9.47458,0c-3.20087,-1.02428 -6.01764,-2.81677 -7.04192,-6.40175c-0.25607,-1.02428 -0.51214,-2.04856 -0.51214,-3.07284c0,-1.15231 0.51214,-2.17659 1.40838,-2.9448c0.76821,-0.64017 1.53642,-1.40838 2.5607,-2.30463c-0.89624,3.84105 0.12803,6.91389 2.43266,9.47458c1.92052,2.04856 4.48122,3.32891 7.55406,3.07284c2.68873,-0.25607 5.37747,-0.51214 7.81013,-0.76821z" fill="#ffffff"/><path d="M242.51493,190.40843c0,3.07284 0.12803,6.27371 -1.28035,9.09048c-1.02428,2.17659 -2.30463,4.22515 -4.35319,5.5055c-0.3841,0.25607 -0.76821,0.3841 -1.28035,0.51214c2.30463,-1.92052 2.5607,-4.73729 2.68873,-7.42603c0.3841,-5.88961 0.64017,-11.77921 0.89624,-17.66882c0.12803,-4.22515 0.12803,-8.32227 0.12803,-12.54742c0,-2.04856 -0.12803,-4.09712 -0.3841,-6.01764c-0.25607,-1.28035 -0.89624,-2.5607 -1.66445,-3.71301c-0.3841,-0.51214 -1.28035,-0.76821 -2.04856,-0.89624c-0.51214,-0.25607 -1.28035,-0.25607 -1.79249,-0.3841c1.28035,-1.28035 2.43266,-2.81677 3.84105,-4.09712c0.3841,-0.3841 0.3841,-1.02428 1.28035,-0.89624c1.79249,0.12803 2.9448,0.76821 3.32891,2.5607c0.25607,1.40838 0.3841,2.9448 0.3841,4.35319c0.12803,3.07284 0.25607,6.14568 0.25607,9.21851c0,3.32891 0,6.65782 0,9.85869c-0.12803,4.22515 -0.12803,8.32227 0,12.54742z" data-paper-data="{&quot;origPos&quot;:null}" fill="#ffffff"/></g></g></g></svg>