<svg xmlns="http://www.w3.org/2000/svg" xmlns:xlink="http://www.w3.org/1999/xlink" version="1.1" width="32.821197509765625" height="32.621198654174805" viewBox="0.44860005378723145 -0.40139999240636826 32.821197509765625 32.621198654174805">
  <defs>
    <radialGradient id="grad_1" cx="0.5085999999999999" cy="0.4953" r="0.66118">
      <stop offset="0" stop-color="#B2B2B2" stop-opacity="1"/>
      <stop offset="1" stop-color="#666666" stop-opacity="1"/>
    </radialGradient>
    <radialGradient id="grad_2" cx="0.4722" cy="0.447" r="0.7189">
      <stop offset="0" stop-color="#000000" stop-opacity="1"/>
      <stop offset="1" stop-color="#666666" stop-opacity="1"/>
    </radialGradient>
  <radialGradient id="grad_1-.4241653084754944,0,0,0.4561313986778259,-80.95,-62.25" cx="17.0317" cy="15.7478" r="16.2481" gradientUnits="userSpaceOnUse">
      <stop offset="0" stop-color="#B2B2B2" stop-opacity="1"/>
      <stop offset="1" stop-color="#666666" stop-opacity="1"/>
    </radialGradient><radialGradient id="grad_2-.48479610681533813,0,0,0.513161838054657,-142.35,-89.1" cx="16.6899" cy="15.4336" r="5.5652" gradientUnits="userSpaceOnUse">
      <stop offset="0" stop-color="#000000" stop-opacity="1"/>
      <stop offset="1" stop-color="#666666" stop-opacity="1"/>
    </radialGradient></defs>
  <!-- Exported by Scratch - http://scratch.mit.edu/ -->
  <g id="ID0.12128733796998858">
    <g id="ID0.6923112375661731">
      <path id="ID0.019175943452864885" fill="url(#grad_1-.4241653084754944,0,0,0.4561313986778259,-80.95,-62.25)" stroke="none" d="M 16.8201 3.661 C 20.2139 3.661 23.289 5.028 25.5159 7.2371 C 27.7424 9.4456 29.1209 12.4963 29.1209 15.8625 C 29.1209 19.2288 27.7424 22.2794 25.5159 24.4879 C 23.289 26.697 20.2139 28.064 16.8201 28.064 C 13.4264 28.064 10.3512 26.697 8.1243 24.4879 C 5.8978 22.2794 4.5193 19.2288 4.5193 15.8625 C 4.5193 12.4963 5.8978 9.4456 8.1243 7.2371 C 10.3512 5.028 13.4264 3.661 16.8201 3.661 Z " stroke-width="0.4404384530067176"/>
      <path id="ID0.6679500811733305" fill="url(#grad_2-.48479610681533813,0,0,0.513161838054657,-142.35,-89.1)" stroke="#7F7F7F" stroke-width="0.9983609940486885" d="M 16.9055 11.9929 C 17.9755 11.9929 18.9451 12.4239 19.647 13.1208 C 20.3495 13.8177 20.7839 14.7799 20.7839 15.8416 C 20.7839 16.9033 20.3495 17.8655 19.647 18.5624 C 18.9451 19.2593 17.9755 19.6903 16.9055 19.6903 C 15.8356 19.6903 14.866 19.2593 14.164 18.5624 C 13.4615 17.8655 13.0272 16.9033 13.0272 15.8416 C 13.0272 14.7799 13.4615 13.8177 14.164 13.1208 C 14.866 12.4239 15.8356 11.9929 16.9055 11.9929 Z "/>
    </g>
    <g id="ID0.5704719456844032">
      <path id="ID0.7649938287213445" fill="#7F7F7F" stroke="none" d="M 14.1185 0.0986 L 19.6437 0.0986 L 19.6437 7.9698 L 14.1185 7.9698 L 14.1185 0.0986 Z " stroke-width="0.5611614532164787"/>
      <path id="ID0.7649938287213445" fill="#7F7F7F" stroke="none" d="M 14.1185 23.8486 L 19.6437 23.8486 L 19.6437 31.7198 L 14.1185 31.7198 L 14.1185 23.8486 Z " stroke-width="0.5611614532164787"/>
      <path id="ID0.7649938287213445" fill="#7F7F7F" stroke="none" d="M 0.9486 18.5315 L 0.9486 13.0063 L 8.8198 13.0063 L 8.8198 18.5315 L 0.9486 18.5315 Z " stroke-width="0.5611614532164787"/>
      <path id="ID0.7649938287213445" fill="#7F7F7F" stroke="none" d="M 24.8986 18.6815 L 24.8986 13.1563 L 32.7698 13.1563 L 32.7698 18.6815 L 24.8986 18.6815 Z " stroke-width="0.5611614532164787"/>
    </g>
    <g id="ID0.5704719456844032">
      <path id="ID0.7649938287213445" fill="#7F7F7F" stroke="none" d="M 26.1407 2.6991 L 30.0133 6.6401 L 24.3989 12.1569 L 20.5264 8.2159 L 26.1407 2.6991 Z " stroke-width="0.5611614616164499"/>
      <path id="ID0.7649938287213445" fill="#7F7F7F" stroke="none" d="M 9.2907 19.3491 L 13.1633 23.2901 L 7.5489 28.8069 L 3.6764 24.8659 L 9.2907 19.3491 Z " stroke-width="0.5611614616164499"/>
      <path id="ID0.7649938287213445" fill="#7F7F7F" stroke="none" d="M 3.7991 6.1593 L 7.7401 2.2867 L 13.2569 7.9011 L 9.3159 11.7736 L 3.7991 6.1593 Z " stroke-width="0.5611614616164499"/>
      <path id="ID0.7649938287213445" fill="#7F7F7F" stroke="none" d="M 20.4991 23.4093 L 24.4401 19.5367 L 29.9569 25.1511 L 26.0159 29.0236 L 20.4991 23.4093 Z " stroke-width="0.5611614616164499"/>
    </g>
  </g>
</svg>