<svg xmlns="http://www.w3.org/2000/svg" xmlns:xlink="http://www.w3.org/1999/xlink" version="1.1" width="93.21480651855468" height="254.35999389648438" viewBox="-0.7300195577740669 -0.73 93.21480651855468 254.35999389648438"><g><g data-paper-data="{&quot;isPaintingLayer&quot;:true}" fill-rule="nonzero" stroke-linejoin="miter" stroke-miterlimit="10" stroke-dasharray="" stroke-dashoffset="0" style="mix-blend-mode: normal"><g data-paper-data="{&quot;origPos&quot;:null}" stroke-linecap="butt"><path d="M 54.7029 252.9 L 55.6029 243.2 L 70.4029 243.8 L 79.8029 246.1 L 87.2029 252.9 Z " fill="#ebebeb" stroke-width="1" stroke="none"/><path d="M 55.4029 244.6 L 51.7029 194.2 L 43.8029 132.2 L 73.8029 132.2 L 74.5029 194.5 L 74.5029 244.6 Z " fill="#a4bdda" stroke-width="1" stroke="none"/></g><g stroke-linecap="butt"><path d="M 16.8029 252.9 L 17.7029 243.2 L 32.5029 243.8 L 41.9029 246.1 L 49.3029 252.9 Z " fill="#ebebeb" stroke-width="1" stroke="none"/><path d="M 18.3029 244.6 L 18.8029 192.3 L 19.5029 132.2 L 48.6029 132.2 L 40.6029 194 L 35.9029 244.6 Z " fill="#a4bdda" stroke-width="1" stroke="none"/></g><g data-paper-data="{&quot;origPos&quot;:null}" stroke-linecap="butt"><path d="M 80.1029 111.6555 C 76.9029 112.0555 71.5029 110.3555 71.5029 110.3555 C 71.5029 110.3555 63.4029 63.4555 70.4029 61.7555 C 83.0029 58.3555 85.3029 108.3555 85.3029 108.3555 C 85.3029 108.3555 83.2029 111.2555 80.1029 111.6555 Z " fill="#d1a56b" stroke-width="1" stroke="none"/><path d="M 65.7029 93.3555 C 65.7029 93.3555 56.7029 60.4555 68.2029 58.2555 C 78.3029 56.2555 89.8029 87.2555 89.8029 87.2555 Z " fill="#774444" stroke-width="1" stroke="none"/></g><g data-paper-data="{&quot;origPos&quot;:null}" stroke-linecap="butt"><g data-paper-data="{&quot;origPos&quot;:null}"><path d="M 88.1029 135.4556 L 79.9029 137.8556 L 71.1029 110.7556 C 71.1029 110.7556 74.2029 106.5556 77.8029 106.8556 C 80.5029 107.0556 85.1029 107.8556 85.1029 107.8556 Z " data-paper-data="{&quot;origPos&quot;:null}" stroke-width="1" fill="#d1a56b" stroke="none"/></g><path d="M 84.6187 158.0284 C 82.7352 158.2977 83.5058 149.2785 81.7412 149.1166 C 80.3884 148.9756 82.0004 154.5694 81.5664 155.4703 C 81.0343 156.3906 78.2929 154.8924 78.2929 154.8924 C 78.2929 154.8924 75.7578 149.7862 75.3338 147.1178 C 74.2718 141.2117 79.9366 135.3049 79.9366 135.3049 L 87.2134 134.992 C 87.2134 134.992 91.6084 141.2605 91.753 145.6147 C 91.8397 149.6746 88.7452 155.1768 88.7452 155.1768 C 88.7452 155.1768 86.4427 157.9748 84.6187 158.0284 Z " data-paper-data="{&quot;origPos&quot;:null,&quot;index&quot;:null,&quot;origRot&quot;:0}" stroke-width="1" fill="#d1a56b" stroke="none"/></g><path d="M 17.1029 137.3 L 16.9029 61 C 16.9029 61 32.1029 53.1 45.1029 52.9 C 58.1029 52.7 69.0363 56.9111 71.4363 58.2111 C 73.7363 59.4111 74.5029 139.5 74.5029 139.5 C 74.5029 139.5 57.4029 142.3 45.8029 142.2 C 34.0029 142 17.1029 137.3 17.1029 137.3 Z " data-paper-data="{&quot;origPos&quot;:null}" fill="#925353" stroke="none" stroke-width="1" stroke-linecap="butt"/><g data-paper-data="{&quot;origPos&quot;:null}" stroke-linecap="butt"><path d="M 6.7029 113.6001 C 4.2029 113.4001 0.4029 111.4001 0.4029 111.4001 C 0.4029 111.4001 6.0029 60.8001 20.3029 61.1001 C 31.5029 60.8001 13.1029 112.4001 13.1029 112.4001 C 13.1029 112.4001 9.2029 113.8001 6.7029 113.6001 Z " fill="#d1a56b" stroke-width="1" stroke="none"/><path d="M 0.6029 87.7 C 0.6029 87.7 13.1029 59.4 20.1029 60.2 C 36.7029 62 22.9029 96.4 22.9029 96.4 Z " fill="#774444" stroke-width="1" stroke="none"/></g><g stroke-linecap="butt"><path d="M 2.4029 138.3 L 0.3029 110.6001 C 0.3029 110.6001 4.3029 109.4001 6.6029 109.0001 C 9.8029 108.4001 13.3029 112.3001 13.3029 112.3001 L 10.1029 140.0001 Z " stroke-width="1" fill="#d1a56b" stroke="none"/><path d="M 4.9029 157.4001 C 4.9029 157.4001 0.8029 152.6001 0.1029 148.6001 C -0.5971 144.3001 2.5029 137.3001 2.5029 137.3001 L 9.7029 136.2001 C 9.7029 136.2001 16.4029 140.9001 16.5029 146.9001 C 16.6029 149.6001 15.1029 155.1001 15.1029 155.1001 C 15.1029 155.1001 12.7029 157.1001 12.0029 156.3001 C 11.3029 155.5001 11.9029 149.7001 10.6029 150.1001 C 8.9029 150.6001 11.4029 159.3001 9.5029 159.4001 C 7.7029 159.7001 4.9029 157.4001 4.9029 157.4001 Z " stroke-width="1" fill="#d1a56b" stroke="none"/></g><path d="M 28.7029 39.5 C 28.7029 48.8 23.3029 59.2 21.2029 57 C 18.5029 54.3 15.5029 45.8 15.5029 36.6001 C 15.5029 27.4001 20.1029 22.7 23.2029 22.7 C 26.3029 22.7 28.5696 24.1334 28.9696 24.4334 C 30.2696 25.3334 28.7029 30.2 28.7029 39.5 Z " data-paper-data="{&quot;origPos&quot;:null}" fill="#1f1307" stroke="none" stroke-width="1" stroke-linecap="butt"/><path d="M 66.6029 23.8 C 66.6029 36.9 56.5029 47.6 44.1029 47.6 C 31.7029 47.6 21.6029 36.9 21.6029 23.8 C 21.6029 10.7 31.7029 0 44.1029 0 C 56.5029 0 66.6029 10.6 66.6029 23.8 Z " fill="#1f1307" stroke="none" stroke-width="1" stroke-linecap="butt"/><g stroke-linecap="butt"><path d="M 37.6029 43.3 L 52.8029 46.7 L 52.7029 55.8 C 52.7029 55.8 57.6029 56.7 57.5029 59.5 C 57.4029 64 38.6029 66.4 34.7029 59.5 C 33.2029 56.1 36.7029 54.9 36.7029 54.9 Z " data-paper-data="{&quot;origPos&quot;:null}" stroke-width="1" fill="#cca168" stroke="none"/><path d="M 33.0029 32.2 C 33.8029 34.6 33.3029 36.9 32.0029 37.3 C 30.6029 37.8 28.8029 36.3 28.0029 33.9 C 27.2029 31.5 27.7029 29.2 29.0029 28.8 C 30.4029 28.3 32.2029 29.9 33.0029 32.2 Z " data-paper-data="{&quot;origPos&quot;:null}" stroke-width="1" fill="#cca168" stroke="none"/><path d="M 64.5029 30 C 64.5029 42.8 56.6029 49.6 49.8029 49.9 C 38.0029 50.1 30.4029 40.4 30.4029 27.6 C 30.4029 14.8 32.6029 5.2 47.6029 4.5 C 59.0029 3.9 66.4654 16 64.4654 29.7 Z " data-paper-data="{&quot;origPos&quot;:null}" stroke-width="1" fill="#cca168" stroke="none"/></g><path d="M 52.9029 42.7001 C 52.9029 43.4001 50.9029 44.9001 49.2029 44.9001 C 47.4029 44.9001 45.7029 43.0001 45.7029 42.2001 C 45.7029 41.5001 47.9029 42.2001 49.7029 42.2001 C 51.4029 42.3001 52.9029 42.0001 52.9029 42.7001 Z " fill="#000000" stroke="none" stroke-width="1" stroke-linecap="butt"/><path d="M 52.7029 36.2001 C 52.7029 36.2001 51.5029 36.9001 50.4029 36.9001 C 49.1029 36.9001 47.9029 36.4001 47.9029 36.4001 " fill="none" stroke="#000000" stroke-width="1.46" stroke-linecap="round"/><g><path d="M 38.8029 23.4999 C 38.8029 23.4999 41.7029 22.6999 43.2029 22.6999 C 44.9029 22.5999 46.9029 23.4999 46.9029 23.4999 " fill="none" stroke="#000000" stroke-width="1.46" stroke-linecap="round"/><g><path d="M 38.7029 26.9 C 38.7029 26.9 40.9029 25.9 43.2029 26.1 C 45.7029 26.3 46.1029 27.6 46.1029 27.6 " fill="none" stroke="#000000" stroke-width="1.46" stroke-linecap="round"/><path d="M 42.0029 28.6001 C 42.0029 27.4001 42.9029 26.4001 44.1029 26.4001 C 45.3029 26.4001 46.2029 27.4001 46.2029 28.6001 C 46.2029 29.8001 45.3029 30.8001 44.1029 30.8001 C 43.0029 30.8001 42.0029 29.8001 42.0029 28.6001 Z " fill="#000000" stroke="none" stroke-width="1" stroke-linecap="butt"/></g></g><g><path d="M 54.2029 23.4 C 54.2029 23.4 56.5029 22.6 58.2029 22.6 C 59.7029 22.7 61.4029 23.1 61.4029 23.1 " fill="none" stroke="#000000" stroke-width="1.46" stroke-linecap="round"/><g><path d="M 54.2029 27.4999 C 54.2029 27.4999 54.7029 26.1999 57.1029 25.9999 C 59.4029 25.7999 61.6029 26.2999 61.6029 26.2999 " fill="none" stroke="#000000" stroke-width="1.46" stroke-linecap="round"/><path d="M 59.1029 30.5 C 57.9029 30.5 57.0029 29.5 57.0029 28.3 C 57.0029 27.1 57.9029 26.1 59.1029 26.1 C 60.3029 26.1 61.2029 27.1 61.2029 28.3 C 61.2029 29.5 60.3029 30.5 59.1029 30.5 Z " fill="#000000" stroke="none" stroke-width="1" stroke-linecap="butt"/></g></g><g data-paper-data="{&quot;origPos&quot;:null}" stroke-linecap="butt"><path d="M 29.8029 6.5001 C 35.2029 2.5001 45.9029 -0.6999 49.0029 3.5001 C 52.1029 7.7001 44.7029 16.9001 39.3029 20.9001 C 33.9029 24.9001 30.0029 32.3001 26.8029 28.1001 C 23.8029 24.0001 24.5029 10.6001 29.8029 6.5001 Z " fill="#1f1307" stroke-width="1" stroke="none"/><path d="M 67.7029 28 C 64.6029 32.2 63.1029 20.7 59.4029 15.2 C 55.5029 9.4001 46.4029 7.4001 49.5029 3.2 C 52.6029 -1 59.7029 2.5 65.1029 6.5 C 70.5029 10.6 70.9029 23.8 67.7029 28 Z " fill="#2c1b0a" stroke-width="1" stroke="none"/></g></g></g></svg>