<svg version="1.1" xmlns="http://www.w3.org/2000/svg" xmlns:xlink="http://www.w3.org/1999/xlink" width="235.847" height="155.65812" viewBox="0,0,235.847,155.65812"><g transform="translate(-113.357,-80.629)"><g data-paper-data="{&quot;isPaintingLayer&quot;:true}" fill-opacity="0.4" fill="#1c295c" fill-rule="nonzero" stroke="none" stroke-width="1" stroke-linecap="butt" stroke-linejoin="miter" stroke-miterlimit="10" stroke-dasharray="" stroke-dashoffset="0" style="mix-blend-mode: normal"><path d="M115.111,122.898h0.351v-0.35h0.242v0.643h-0.593z"/><path d="M114.761,123.549v-0.3h0.026v0.3z"/><path d="M114.41,123.906v-0.305h0.021v0.305z"/><path d="M114.059,124.263v-0.312h0.014v0.312z"/><path d="M113.708,124.62v-0.318h0.008v0.318z"/><path d="M113.357,124.977v-0.324h0.001v0.324z"/><path d="M333.416,176.388h-0.301l-0.05,0.352h-0.3l-0.05,0.351h-0.301l-0.05,0.351h-0.3l-0.05,0.352h-0.301l-0.05,0.351h-0.301l-0.05,0.351h-0.3l-0.05,0.352h-0.301l-0.05,0.351h-0.3l-0.05,0.351h-0.301l-0.05,0.351h-0.301l-0.05,0.352h-0.3l-0.05,0.351h-0.301l-0.05,0.351h-0.3l-0.05,0.352h-0.301l-0.05,0.351h-0.301l-0.05,0.351h-0.3l-0.05,0.352h-0.301l-0.05,0.351h-0.3l-0.05,0.351h-0.301l-0.05,0.351h-0.301l-0.05,0.352h-0.3l-0.05,0.351h-0.301l-0.05,0.351h-0.3l-0.05,0.352h-0.301l-0.05,0.351h-0.3l-0.05,0.351h-0.301l-0.05,0.352h-0.301l-0.05,0.351h-0.3l-0.05,0.351h-0.301l-0.05,0.351h-0.3l-0.05,0.352h-0.301l-0.05,0.351h-0.301l-0.05,0.351h-0.3l-0.05,0.352h-0.301l-0.05,0.351h-0.3l-0.05,0.351h-0.301l-0.05,0.352h-0.301l-0.05,0.351h-0.3l-0.05,0.351h-0.301l-0.05,0.351h-0.3l-0.05,0.352h-0.301l-0.05,0.351h-0.301l-0.006,0.043c11.563,-0.816 17.986,13.687 9.663,21.686c-6.391,6.669 -12.986,13.253 -19.649,19.649c-7.759,8.065 -21.929,2.298 -21.715,-8.981l-0.122,-0.012l-0.035,0.38l-0.316,-0.029l-0.035,0.38l-0.315,-0.029l-0.036,0.381l-0.315,-0.029l-0.035,0.38l-0.316,-0.029l-0.035,0.38l-0.315,-0.029l-0.035,0.381l-0.316,-0.029l-0.035,0.38l-0.315,-0.029l-0.035,0.38l-0.316,-0.029l-0.035,0.381l-0.316,-0.029l-0.035,0.38l-0.315,-0.029l-0.035,0.38l-0.316,-0.029l-0.035,0.38l-0.315,-0.029l-0.035,0.381l-0.316,-0.029l-0.035,0.38l-0.316,-0.029l-0.035,0.38l-0.315,-0.029l-0.035,0.381l-0.316,-0.029l-0.035,0.38l-0.315,-0.029l-0.035,0.38l-0.316,-0.029l-0.035,0.381l-0.316,-0.029l-0.035,0.38l-0.315,-0.029l-0.035,0.38l-0.316,-0.029l-0.035,0.38l-0.315,-0.029l-0.035,0.381l-0.316,-0.029l-0.035,0.38l-0.316,-0.029l-0.035,0.38l-0.315,-0.029l-0.035,0.381l-0.316,-0.029l-0.035,0.38l-0.315,-0.029l-0.035,0.38l-0.316,-0.029l-0.035,0.381l-0.316,-0.029l-0.035,0.38l-0.315,-0.029l-0.035,0.38l-0.316,-0.029l-0.035,0.38l-0.315,-0.029l-0.035,0.381l-0.316,-0.029l-0.035,0.38l-16.014,-1.489v-9.85h0.351v-0.351h0.351v-0.352h0.351v-0.351h0.351v-0.351h0.351v-0.351h0.351v-0.352h0.351v-0.351h0.351v-0.351h0.351v-0.352h0.351v-0.351h0.351v-0.01h-3.86v-17.978h0.351v-0.351h0.351v-0.352h0.351v-0.351h0.351v-0.351h0.351v-0.351h0.351v-0.352h0.351v-0.351h0.351v-0.351h0.351v-0.352h0.351v-0.351h0.351v-0.351h0.351v-0.352h0.351v-0.351h0.351v-0.188h-4.912v-18.5h0.351v-0.351h0.351v-0.352h0.351v-0.351h0.351v-0.351h0.351v-0.351h0.351v-0.352h0.351v-0.351h0.351v-0.351h0.351v-0.352h0.351v-0.351h0.351v-0.351h0.351v-0.352h0.351v-0.351h0.351v-0.351h0.351v-0.351h0.351v-0.352h0.351v-0.351h0.351v-0.351h0.351v-0.352h0.351v-0.351h0.351v-0.351h0.351v-0.352h0.351v-0.351h0.351v-0.351h0.351v-0.351h0.351v-0.352h0.351v-0.351h0.351v-0.351h0.351v-0.352h0.351v-0.351h0.351v-0.351h0.351v-0.352h0.351v-0.351h0.351v-0.351h0.351v-0.351h0.351v-0.352h0.351v-0.351h0.351v-0.351h0.351v-0.352h0.351v-0.351h0.351v-0.351h0.351v-0.352h0.351v-0.351h0.351v-0.351h0.351v-0.351h0.351v-0.352h0.351v-0.351h0.351v-0.351h0.351v-0.352h0.351v-0.351h0.351v-0.351h0.351v-0.352h0.351v-0.351h0.351v-0.351h0.351v-0.351h0.351v-0.352h0.351v-0.351h23v4.562h0.04v-0.351h0.351v-0.352h0.351v-0.351h0.351v-0.351h0.351v-0.352h0.351v-0.351h0.351v-0.351h0.351v-0.352h0.351v-0.351h0.35v-0.351h0.351v-0.351h0.351v-0.352h0.351v-0.351h31.188l-2.188,15.25h-0.301l-0.05,0.351h-0.3l-0.05,0.352h-0.301l-0.05,0.351h-0.3l-0.05,0.351h-0.301zM310.601,194.621h-15.395v5.978h-0.351v0.351h-0.351v0.352h-0.351v0.351h-0.351v0.351h-0.351v0.351h-0.351v0.352h-0.351v0.351h-0.351v0.351h-0.351v0.352h-0.351v0.351h-0.351v0.351h-0.351v0.352h-0.351v0.351h-0.351v0.351h-0.351v0.351h-0.351v0.145l6.204,0.577l-0.292,3.132c4.363,-4.499 8.801,-8.982 13.322,-13.321c0.577,-0.601 1.173,-1.194 1.777,-1.78z"/><path d="M234.287,154.629h-31.458v-54h0.351v-0.351h0.35v-0.351h0.351v-0.351h0.351v-0.35h0.351v-0.351h0.351v-0.352h0.351v-0.35h0.351v-0.351h0.35v-0.351h0.351v-0.351h0.351v-0.35h0.351v-0.352h0.351v-0.351h0.351v-0.35h0.351v-0.351h0.351v-0.351h0.35v-0.351h0.352v-0.351h0.35v-0.351h0.351v-0.351h0.351v-0.35h0.351v-0.352h0.351v-0.35h0.351v-0.351h0.351v-0.351h0.351v-0.351h0.35v-0.351h0.351v-0.35h0.351v-0.352h0.351v-0.35h0.351v-0.351h0.351v-0.352h0.351v-0.35h0.35v-0.351h0.351v-0.35h0.351v-0.352h0.351v-0.351h0.351v-0.35h0.351v-0.352h0.351v-0.35h0.35v-0.351h0.351v-0.351h0.352v-0.351h0.35v-0.351h0.351v-0.35h0.351v-0.352h0.351v-0.35h0.351v-0.351h0.35v-0.351h0.352v-0.351h0.35v-0.351h0.351v-0.351h0.351v-0.351h0.351v-0.35h0.351v-0.351h0.351v-0.352h0.351v-0.35h31.458v42.125h4.667v-6.125h0.351v-0.351h0.35v-0.351h0.351v-0.351h0.351v-0.35h0.351v-0.351h0.351v-0.352h0.351v-0.35h0.351v-0.351h0.35v-0.351h0.351v-0.351h0.351v-0.35h0.351v-0.352h0.351v-0.351h0.351v-0.35h0.351v-0.351h0.351v-0.351h0.35v-0.351h0.352v-0.351h0.35v-0.351h0.351v-0.351h0.351v-0.35h0.351v-0.352h0.351v-0.35h0.351v-0.351h0.351v-0.351h0.351v-0.351h0.35v-0.351h0.351v-0.35h0.351v-0.352h0.351v-0.35h0.351v-0.351h0.351v-0.352h0.351v-0.35h0.35v-0.351h0.351v-0.35h0.351v-0.352h0.351v-0.351h0.351v-0.35h0.351v-0.352h0.351v-0.35h0.35v-0.351h0.351v-0.351h0.352v-0.351h0.35v-0.351h0.351v-0.35h0.351v-0.352h0.351v-0.35h0.351v-0.351h0.35v-0.351h0.352v-0.351h0.35v-0.351h0.351v-0.351h0.351v-0.351h0.351v-0.35h0.351v-0.351h0.351v-0.352h0.351v-0.35h24.25v15.375l10.375,2.5v11.125h14.125v13.786h0.071v-0.357h0.357v-0.358h0.357v-0.357h0.358v-0.357h0.357v-0.357h0.357v-0.358h0.357v-0.356h0.357v-0.357h0.357v-0.358h0.357v-0.357h0.358v-0.357h0.357v-0.357h17.5v9.5h-0.357v0.357h-0.358v0.357h-0.357v0.357h-0.357v0.358h-0.357v0.357h-0.357v0.356h-0.357v0.358h-0.357v0.357h-0.358v0.357h-0.357v0.357h-0.357v0.358h-0.357v0.357h-0.357v0.356h-0.357v0.358h-0.357v0.357h-0.358v0.357h-0.357v0.357h-0.357v0.358h-0.357v0.357h-0.357v0.356h-0.357v0.358h-0.357v0.357h-0.358v0.357h-0.357v0.357h-0.357v0.358h-0.357v0.357h-0.357v0.356h-0.357v0.358h-17.5v-4.286h-0.072v0.357h-0.357v0.358h-0.357v0.357h-0.357v0.356h-0.357v0.358h-0.357v0.357h-0.358v0.357h-0.357v0.357h-0.357v0.358h-0.357v0.357h-0.357v0.356h-0.357v0.358h-19v-5.263h-0.213v0.351h-0.351v0.35h-0.351v0.351h-0.351v0.352h-0.351v0.35h-0.351v0.351h-0.35v0.351h-0.351v0.351h-0.351v0.35h-0.351v0.352h-0.351v0.351h-0.351v0.35h-0.351v0.351h-0.35v0.351h-0.351v0.351h-34.625v-14.5h-10.281v0.114h-0.351v0.351h-0.351v0.35h-0.35v0.352h-0.351v0.35h-0.352v0.351h-0.35v0.352h-0.351v0.35h-0.351v0.351h-0.351v0.35h-0.351v0.352h-0.351v0.351h-0.351v0.35h-0.35v0.352h-0.351v0.35h-0.351v0.351h-0.351v0.351h-0.351v0.351h-0.351v0.351h-0.351v0.35h-0.35v0.352h-0.351v0.35h-0.351v0.351h-0.351v0.351h-0.351v0.351h-0.351v0.351h-0.351v0.351h-0.351v0.351h-0.35v0.35h-0.351v0.351h-0.351v0.352h-0.351v0.35h-0.351v0.351h-0.351v0.351h-0.351v0.351h-0.35v0.35h-0.351v0.352h-0.352v0.351h-0.35v0.35h-0.351v0.351h-0.351v0.351h-0.351z"/><path d="M211.446,205.465l-1.068,13.105l-0.326,-0.026l-0.031,0.384l-0.326,-0.027l-0.031,0.383l-0.326,-0.026l-0.031,0.384l-0.327,-0.027l-0.031,0.384l-0.325,-0.026l-0.032,0.383l-0.326,-0.026l-0.031,0.383l-0.326,-0.026l-0.031,0.383l-0.326,-0.026l-0.031,0.384l-0.326,-0.027l-0.031,0.383l-0.326,-0.026l-0.031,0.384l-0.327,-0.027l-0.031,0.384l-0.325,-0.026l-0.032,0.383l-0.326,-0.026l-0.031,0.383l-0.326,-0.026l-0.031,0.383l-0.326,-0.026l-0.031,0.384l-0.326,-0.027l-0.031,0.383l-0.326,-0.026l-0.031,0.384l-0.327,-0.027l-0.031,0.384l-0.325,-0.026l-0.032,0.383l-0.326,-0.026l-0.031,0.383l-0.326,-0.026l-0.031,0.383l-0.326,-0.026l-0.031,0.384l-0.326,-0.027l-0.031,0.383l-0.326,-0.026l-0.031,0.384l-0.327,-0.027l-0.031,0.384l-0.325,-0.026l-0.032,0.383l-0.326,-0.026l-0.031,0.383l-0.326,-0.026l-0.031,0.383l-15.823,-1.29l0.449,-5.515l-0.141,-0.014l-0.036,0.381l-0.314,-0.03l-0.037,0.381l-0.314,-0.03l-0.037,0.381l-0.314,-0.03l-0.037,0.381l-0.314,-0.031l-0.037,0.382l-0.314,-0.03l-0.037,0.381l-0.314,-0.031l-0.036,0.381l-0.315,-0.03l-0.036,0.382l-0.315,-0.03l-0.036,0.38l-0.314,-0.03l-0.037,0.381l-0.315,-0.03l-0.036,0.381l-0.314,-0.031l-0.037,0.382l-0.314,-0.03l-0.037,0.381l-7.798,-0.749l0.476,-4.954l-0.189,-0.019l-0.037,0.381l-0.314,-0.03l-0.036,0.382l-0.315,-0.031l-0.036,0.381l-0.315,-0.03l-0.036,0.381l-0.314,-0.031l-0.037,0.382l-0.314,-0.03l-0.037,0.381l-0.314,-0.03l-0.037,0.38l-0.314,-0.03l-0.037,0.382l-0.314,-0.03l-0.037,0.381l-0.314,-0.031l-0.036,0.381l-0.315,-0.03l-0.036,0.381l-0.314,-0.031l-0.037,0.382l-0.314,-0.03l-0.037,0.381l-7.798,-0.749l0.476,-4.954l-0.189,-0.019l-0.037,0.381l-0.314,-0.03l-0.037,0.382l-0.314,-0.031l-0.037,0.381l-0.314,-0.03l-0.037,0.381l-0.314,-0.03l-0.036,0.381l-0.315,-0.03l-0.036,0.381l-0.314,-0.03l-0.037,0.381l-0.314,-0.031l-0.037,0.382l-0.314,-0.03l-0.037,0.381l-0.314,-0.031l-0.037,0.381l-0.314,-0.03l-0.037,0.381l-0.314,-0.03l-0.036,0.381l-0.315,-0.03l-0.036,0.381l-7.798,-0.749l1.698,-17.669l0.314,0.03l0.037,-0.381l0.314,0.031l0.036,-0.382l0.315,0.03l0.036,-0.381l0.314,0.031l0.037,-0.381l0.314,0.03l0.037,-0.381l0.314,0.03l0.037,-0.381l0.314,0.03l0.037,-0.381l0.314,0.03l0.037,-0.381l0.314,0.031l0.036,-0.382l0.315,0.03l0.036,-0.381l0.315,0.031l0.036,-0.381l0.314,0.03l0.037,-0.382l0.314,0.03l0.037,-0.38l0.314,0.03l0.037,-0.381l0.314,0.03l0.037,-0.381l0.314,0.031l0.037,-0.382l0.314,0.03l0.036,-0.381l0.315,0.03l0.036,-0.38l0.314,0.03l0.037,-0.382l0.314,0.03l0.037,-0.381l0.315,0.031l0.036,-0.381l0.314,0.03l0.037,-0.382l0.314,0.031l0.037,-0.381l0.314,0.03l0.036,-0.381l0.315,0.03l0.036,-0.38l0.315,0.03l0.037,-0.382l0.314,0.03l0.036,-0.381l0.315,0.031l0.036,-0.381l0.314,0.03l0.037,-0.382l0.314,0.031l0.037,-0.381l0.314,0.03l0.036,-0.381l0.315,0.03l0.037,-0.381l0.314,0.03l0.037,-0.381l0.314,0.03l0.036,-0.381l0.275,0.027v-14.383h0.357v-0.358h0.357v-0.356h0.357v-0.357h0.357v-0.358h0.357v-0.357h0.358v-0.357h0.357v-0.357h0.357v-0.358h0.357v-0.356h0.357v-0.357h0.357v-0.358h0.357v-0.357h0.358v-0.357h0.357v-0.357h0.357v-0.358h0.357v-0.356h0.357v-0.357h0.357v-0.358h0.357v-0.357h0.358v-0.357h0.357v-0.357h0.357v-0.358h0.357v-0.356h0.357v-0.357h0.357v-0.358h0.357v-0.357h0.358v-0.357h0.357v-0.357h19.11v4.601h0.354v-0.356h0.357v-0.357h0.357v-0.358h0.357v-0.357h0.358v-0.357h0.357v-0.357h0.357v-0.358h0.357v-0.356h0.357v-0.357h0.357v-0.358h0.357v-0.357h0.358v-0.357h0.357v-0.357h12h5.5v4.427h0.298v-0.351h0.351v-0.351h0.351v-0.351h0.351v-0.351h0.351v-0.35h0.35v-0.352h0.351v-0.35h0.351v-0.351h0.351v-0.351h0.351v-0.351h0.351v-0.351h0.351v-0.35h0.35v-0.352h0.351v-0.35h0.351v-0.351h0.351v-0.352h0.351v-0.35h0.351v-0.351h0.351v-0.35h0.35v-0.352h0.352v-0.351h0.351v-0.35h0.35v-0.352h0.351v-0.35h0.351v-0.351h0.351v-0.351h0.351v-0.351h0.351v-0.351h0.351v-0.35h0.35v-0.352h0.351v-0.35h0.351v-0.351h0.351v-0.351h0.351v-0.351h0.351v-0.351h0.351v-0.351h0.351v-0.351h0.35v-0.35h0.351v-0.351h0.351v-0.352h0.351v-0.35h18.001l7.499,7.5v17.333h-0.351v0.351h-0.351v0.351h-0.351v0.351h-0.35v0.35h-0.351v0.351h-0.351v0.351h-0.351v0.351h-0.351v0.351h-0.351v0.351h-0.351v0.351h-0.351v0.204h3.86v5.704h-0.351v0.35h-0.351v0.352h-0.351v0.351h-0.28v9.401h1.333v4.964h-0.351v0.35h-0.351v0.352h-0.351v0.351h-0.35v0.35h-0.351v0.351h-0.351v0.351h-0.351v0.351h-0.351v0.351h-0.351v0.351h-0.351v0.351h-0.351v0.35h-0.35v0.352h-0.351v0.35h-0.351v0.351h-0.351v0.351h-0.351v0.351h-0.351v0.351h-0.351v0.35h-0.35v0.352h-0.351v0.35h-0.352v0.351h-0.35v0.352h-0.351v0.35h-0.351v0.351h-0.351v0.35h-0.351v0.352h-0.351v0.351h-0.351v0.35h-0.35v0.352h-0.351v0.35h-0.351v0.351h-0.351v0.351h-0.351v0.351h-0.351v0.351h-0.351v0.35h-0.35v0.352h-0.351v0.35h-0.351v0.351h-0.351v0.351h-0.351v0.351h-0.351v0.351h-0.351v0.351h-0.351v0.351h-0.35v0.35h-0.351v0.351h-0.351v0.352h-0.351v0.35h-0.351v0.351h-0.351v0.351h-0.351v0.351h-0.35v0.35h-0.351v0.352h-0.352v0.351h-0.35v0.35h-0.351v0.351h-0.351v0.351h-0.351v0.351h-19.583v-4.964h0.351v-0.351h0.35v-0.351h0.351v-0.351h0.351v-0.35h0.097v-9.051h-1.5v-5.704h0.351v-0.351h0.35v-0.351h0.351v-0.351h0.351v-0.351h0.351v-0.35h0.351v-0.352h0.351v-0.35h0.351v-0.351h0.35v-0.351h0.351v-0.351h0.351v-0.204h-9.776v-20.017h-0.048v0.357h-0.357v0.357h-0.357v0.358h-0.357v0.357h-0.357v0.356h-0.357v0.358h-0.357v0.357h-0.358v0.357h-0.357v0.357h-0.357v0.358h-0.357v0.357h-0.357v0.356h-0.357v0.358h-1.215v0.255h-0.357v0.357h-0.357v0.358h-0.32l-1.421,14.788z"/></g></g></svg>