<svg version="1.1" xmlns="http://www.w3.org/2000/svg" xmlns:xlink="http://www.w3.org/1999/xlink" width="85.69616" height="62.29475" viewBox="0,0,85.69616,62.29475"><g transform="translate(-204.23949,-171.21378)"><g data-paper-data="{&quot;isPaintingLayer&quot;:true}" fill="#20a300" fill-rule="nonzero" stroke="none" stroke-width="0.5" stroke-linecap="butt" stroke-linejoin="miter" stroke-miterlimit="10" stroke-dasharray="" stroke-dashoffset="0" font-family="none" font-weight="none" font-size="none" text-anchor="none" style="mix-blend-mode: normal"><path d="M232.31239,172.13393c1.62698,-1.89814 3.52512,-0.27116 3.52512,-0.27116l1.39679,1.40785c0.00411,0.02055 0.00985,0.04542 0.0169,0.07401l0.3721,0.18605c0.07314,-0.0744 0.14816,-0.14716 0.22525,-0.21812c0.35782,-0.32943 0.94441,0.28616 1.43078,0.28616c0.3453,0 0.67049,-0.12319 0.99491,-0.25856c0.45358,-0.60968 1.30886,-1.28312 2.73925,-0.80632c2.37171,0.79057 1.58114,3.16228 1.58114,3.16228l-2.45373,2.2332c-0.11929,0.02386 -0.33363,0.07324 -0.60988,0.135c0.10704,0.43457 0.21705,0.91938 0.33033,1.41974c0.22877,1.01043 0.15911,2.11869 -0.01476,3.21843c0.01476,0.13379 0.01476,0.21545 0.01476,0.21545c0,3.84439 -0.96018,7.57544 -0.57231,11.44626c0.47718,4.76213 1.48494,9.51069 1.05917,14.31598c1.62807,-2.7962 3.7833,-5.16304 6.11932,-7.49905c3.94434,-3.94434 7.7418,-6.01743 12.66831,-8.48069c2.25813,-1.12907 4.67703,-2.57958 7.19522,-2.99721c3.80021,-0.63025 8.10375,-0.12829 11.95068,-0.12829c2.09077,0 4.01841,0.27884 5.92993,0.94177l0.05276,-0.10552l2.24081,1.12041c0.84561,0.40086 1.43041,1.26228 1.43041,2.26029c0,1.38071 -1.11929,2.5 -2.5,2.5h-1.71694c-0.35298,0.36726 -0.98619,0.04038 -1.5231,0c-0.06632,-0.00499 -0.13117,-0.0056 -0.19384,0c-1.23838,0.11073 -2.57815,0.56514 -3.80206,0.80992c-5.00683,1.00137 -9.41277,1.80023 -13.96624,4.07696c-1.61321,0.80661 -3.64223,1.6287 -4.55501,3.27012c-2.06212,2.74949 -5.67756,3.41813 -8.22623,5.65082c-2.79331,2.44699 -5.24477,5.63472 -7.51276,8.65673l0.00037,0.00028l-1.69948,2.26598c-0.04861,0.0663 -0.10041,0.13011 -0.15518,0.19122c-0.72812,3.41896 -1.57599,6.79415 -2.2634,10.22369c-0.02803,0.1559 -0.07052,0.30678 -0.12602,0.45121c-0.15094,0.44426 -0.4395,0.95343 -0.9911,1.27659c-0.38924,0.25355 -0.90672,0.40562 -1.59003,0.31835c-0.68716,-0.04843 -1.16477,-0.29903 -1.49672,-0.62399c-0.47997,-0.42726 -0.66248,-0.98667 -0.72242,-1.45336c-0.02246,-0.13471 -0.03415,-0.27307 -0.03415,-0.41415v-2.28925c0,-3.52704 -0.28681,-7.31479 -0.30276,-11.04092c-0.12169,0.37093 -0.22101,0.65726 -0.22101,0.65726l-0.28616,-1.43078c-0.24821,-2.81631 -2.64543,-5.37668 -4.07696,-7.6708c-1.08873,-1.74474 -1.67087,-3.68678 -2.91165,-5.34117c-2.53587,-3.38116 -5.40286,-6.91667 -8.80952,-9.61244c-0.43808,-0.13176 -0.8667,-0.27537 -1.27907,-0.44031l-1.38239,-0.52469c0,0 -0.55074,-0.53298 -0.74726,-1.31367c-0.69959,-0.38296 -1.42005,-0.72615 -2.1627,-1.02321c-1.89189,-0.75676 -3.80316,-1.46269 -5.62653,-2.37438c-0.76308,-0.38154 -2.12261,-0.30791 -2.28925,-1.14463l-1.09618,-0.54809c-0.84561,-0.40086 -1.43041,-1.26228 -1.43041,-2.26029c0,-1.38071 1.11929,-2.5 2.5,-2.5h2.86157v0.01574c4.69924,0.10558 9.285,0.76142 13.70892,2.53745c3.31934,1.33258 6.01389,3.71421 9.03906,5.52931c1.5278,1.07019 2.81266,2.31806 3.90125,3.70078c-0.18301,-2.47012 0.14921,-4.89973 0.39126,-7.33418c-0.50661,-0.85392 -0.30398,-1.86708 -0.30398,-1.86708c0.29488,-1.47439 0.77298,-3.16169 0.60513,-4.71778l-1.09727,0.21945l-0.19761,-0.98803l-0.78297,-0.15659l0.07726,-0.38631c-1.36503,-0.81025 -2.14765,-2.12098 -2.61074,-4.43642l0.25216,1.40785c0,0 -1.89814,-1.62698 -0.27116,-3.52512zM222.11095,189.61747c0.02385,0.01718 0.04768,0.03439 0.07148,0.05162c0.03404,0.01119 0.0681,0.02232 0.10217,0.0334c-0.05771,-0.02864 -0.11559,-0.05698 -0.17365,-0.08502z"/></g></g></svg>