<svg version="1.1" xmlns="http://www.w3.org/2000/svg" xmlns:xlink="http://www.w3.org/1999/xlink" width="125.02266" height="66.6787" viewBox="0,0,125.02266,66.6787"><g transform="translate(-177.47733,-140.82125)"><g data-paper-data="{&quot;isPaintingLayer&quot;:true}" fill-rule="nonzero" stroke="none" stroke-width="0.5" stroke-linecap="butt" stroke-linejoin="miter" stroke-miterlimit="10" stroke-dasharray="" stroke-dashoffset="0" style="mix-blend-mode: normal"><path d="M222.23223,188.8989c1.62139,-1.62139 3.24277,-0.26852 3.50017,-0.03335c3.66467,-0.88914 7.41466,-0.81098 11.20259,-0.73786c3.73218,-2.19401 6.11269,-6.04424 9.29724,-9.22879c0,0 0.61997,-0.61997 1.49276,-0.75846c-7.52347,-0.04424 -14.59978,-0.90333 -22.03046,-1.9925c-1.97886,-0.29006 -4.01917,0.27622 -6,0c-8.58583,-1.19728 -17.25561,-2.48229 -25.57404,-5.03571c1.62717,1.67452 3.29072,3.30019 5.19383,4.42781c0.8374,0.49617 1.91362,0.44521 2.78405,0.88084c4.37634,2.19022 9.62547,5.24568 13.48659,8.31243c1.99044,1.58094 3.98355,3.34033 6.09488,4.90963c0.12356,-0.24469 0.30271,-0.49437 0.55238,-0.74404zM240,193.16667c-0.50327,0 -1.01016,-0.00771 -1.51959,-0.0196c-0.89468,0.3185 -1.87659,0.58968 -3.07995,0.98732l-3.40046,0.03228c0,0 -1.35549,0 -2.07027,-0.9981c-0.60931,0.06143 -1.21367,0.14539 -1.81119,0.25812c2.35969,1.18632 4.56848,2.36508 6.89284,3.95369c5.12282,1.23082 10.23805,3.95663 15.38907,4.81857c16.47733,2.7572 28.63954,-14.10781 38.83178,-24.30005c0.34155,-0.32186 0.65318,-0.6789 0.93439,-1.06145c-8.31965,2.29875 -16.3396,2.32922 -25.16662,2.32922c-5.16319,0 -10.4776,0.60867 -15.40046,-1.03228c-0.39773,0.00494 -0.79405,0.00752 -1.18908,0.00781c0.43126,0.07321 0.89428,0.29368 1.3573,0.7567c1.76777,1.76777 0,3.53553 0,3.53553c-1.60861,1.60861 -3.37805,3.06957 -4.83441,4.81721c-0.8215,0.9858 -1.24457,2.28927 -2.16559,3.18279c-0.0904,0.0877 -0.17964,0.17251 -0.26783,0.25457c-0.01485,2.47766 -2.49993,2.47766 -2.49993,2.47766zM263.76777,154.8989c0,0 1.64278,1.64278 0.17742,3.3447c2.2137,4.48563 3.50531,9.20819 3.55481,14.42307c0,0 0,0.80353 -0.45555,1.4995c8.40453,-0.00929 16.06788,-0.17217 24.16498,-2.87121l0.89782,-0.04128c-4.12446,-1.55038 -7.1944,-3.8468 -10.69222,-6.65366c-1.87472,-1.50439 -4.12094,-2.50102 -6,-4c-2.19326,-1.74963 -4.34761,-4.39323 -6.72936,-5.80673c-0.90648,-0.53797 -2.09612,-0.45767 -3,-1c-0.80845,-0.48507 -1.19232,-1.51364 -2,-2c-0.66535,-0.40066 -1.48754,-0.44484 -2.23465,-0.66808c0.46654,1.40521 1.24414,2.7629 2.31675,3.77369zM256.62829,152.45724l-1,-3c0,0 -0.36696,-1.10087 0.14916,-2.05257c-0.97725,-0.61072 -2.01196,-1.09288 -3.17791,-1.27028c-6.30873,-0.95988 -12.59656,0.86101 -18.50117,2.77807c-1.79217,1.19478 -3.93885,1.7697 -5.78405,2.88084c-0.80768,0.48636 -1.19155,1.51493 -2,2c-0.90388,0.54233 -2.09352,0.46203 -3,1c-1.12823,0.66957 -2.17364,1.53554 -3.21977,2.4324c0.28507,0.28507 0.58767,0.58767 0.88484,0.88484c1.29886,-0.03342 2.10073,1.16939 2.10073,1.16939c2.11398,3.196 3.99535,4.92765 5.29158,8.59618l0.74633,-0.4455c0,0 2.23607,1.11803 1.11803,3.3541c-0.29604,0.59207 -0.67046,0.94899 -1.061,1.15377c0.37283,0.10248 0.74842,0.19094 1.13039,0.24693c2.01019,0.29465 4.08925,-0.30994 6.095,0.01355c1.04064,0.16784 1.95706,0.84707 3,1c3.47135,0.50902 7.47711,-0.03344 11,0c4.03847,1.34616 8.31674,1.08971 12.57293,0.99406c-0.47338,-0.70197 -0.47338,-1.52634 -0.47338,-1.52634c0.07552,-6.08162 -2.18704,-11.59739 -5.58013,-16.61325l-0.41987,-2.38675c0,0 0,-0.46926 0.2033,-1.00116c-0.02545,-0.06933 -0.05045,-0.13875 -0.07501,-0.20827zM219.23223,163.43443c-0.66667,-0.66667 -1.33333,-1.33333 -2,-2l-1.10128,-1.10128c-0.33517,0.20833 -0.67871,0.40272 -1.03257,0.5793c-1.88636,0.94132 -4.1181,1.0498 -6,2c-3.22715,1.62944 -5.96767,3.60213 -9.69792,4.22193c-0.21244,0.0353 -0.4273,0.06861 -0.64442,0.09998c7.05813,1.86768 14.31974,2.89132 21.54943,3.95103c1.83193,0.26852 3.71654,-0.19686 5.55786,-0.04829l-2.23503,-1.67987c-0.67449,-2.21242 -1.87167,-3.66631 -3.17118,-5.3231c-0.72906,-0.20388 -1.22488,-0.6997 -1.22488,-0.6997zM298,176.16667h-1.89568c-0.77591,1.93556 -1.89877,3.77233 -3.33655,5.26777c-11.5857,11.5857 -24.56101,28.79165 -43.16822,25.69995c-5.54604,-0.92151 -11.13853,-3.76776 -16.61093,-5.18143c-5.09687,-3.33134 -10.31142,-5.81825 -15.37537,-9.20616c-5.88822,-3.93937 -11.277,-8.62007 -17.71163,-11.83434c-1.0154,-0.50722 -2.24525,-0.53089 -3.21595,-1.11916c-3.8556,-2.33659 -6.76248,-6.39247 -10.27064,-9.19327c-1.8143,-1.44848 -3.8701,-2.56544 -5.80178,-3.85323c0,0 -0.26228,-0.17485 -0.53848,-0.49351c-0.23006,-0.05251 -0.45717,-0.10628 -0.68111,-0.16126c0,0 -2.42536,-0.60634 -1.81902,-3.0317c0.60634,-2.42536 3.0317,-1.81902 3.0317,-1.81902c4.22479,1.07825 8.05214,0.92536 12.39366,0.92536c1.86655,0 3.75859,0.34033 5.59954,0.03228c3.22889,-0.5403 5.4995,-2.38921 8.30208,-3.77807c1.88896,-0.9361 4.11529,-1.05538 6,-2c2.957,-1.48206 5.07297,-4.23831 7.78405,-5.88084c0.90154,-0.54621 2.09612,-0.45767 3,-1c0.80845,-0.48507 1.19084,-1.51612 2,-2c1.9896,-1.18979 4.28708,-1.83325 6.21595,-3.11916c6.75496,-2.29927 14.24881,-4.50294 21.49883,-3.22193c4.04376,0.71449 6.22946,3.49372 9.69792,5.22193c1.01592,0.50619 2.2418,0.53662 3.21595,1.11916c0.80916,0.48388 1.19155,1.51493 2,2c0.90388,0.54233 2.09846,0.45379 3,1c2.58112,1.5638 4.90458,4.2946 7.27064,6.19327c5.42921,4.35672 11.12624,8.48009 17.72936,10.80673c0.54746,0.60564 1.09492,1.21129 1.64238,1.81693l2.04329,-0.1903c0,0 2.5,0 2.5,2.5c0,1.80595 -1.30459,2.30732 -2.02894,2.44651c-0.27838,2.05349 -2.47106,2.05349 -2.47106,2.05349z" fill="#e8aa4c"/><path d="M242.45003,190.69207c0.0882,-0.08206 0.1774,-0.1676 0.26779,-0.2553c0.92102,-0.89353 1.34474,-2.20772 2.16624,-3.19351c1.45636,-1.74764 3.23551,-3.23076 4.84412,-4.83937c0,0 1.77452,-1.77493 0.00676,-3.5427c-0.46302,-0.46302 -0.92729,-0.68237 -1.35854,-0.75558c0.39503,-0.0003 0.79355,-0.00481 1.19127,-0.00974c4.92285,1.64095 10.29349,1.02714 15.45668,1.02714c8.82702,0 16.86882,-0.00592 25.18847,-2.30466c-0.2812,0.38255 -0.59248,0.74048 -0.93403,1.06235c-10.19223,10.19223 -22.42962,27.11646 -38.90695,24.35927c-5.15102,-0.86193 -10.28527,-3.61354 -15.40809,-4.84435c-2.32436,-1.58861 -4.53516,-2.77658 -6.89485,-3.9629c0.59752,-0.11273 1.30115,-0.20866 1.91047,-0.27008c0.71478,0.9981 2.06995,0.99587 2.06995,0.99587l3.40027,-0.03335c1.20336,-0.39764 2.08682,-0.65127 2.98151,-0.96977c0.50944,0.01189 1.01644,0.02029 1.51971,0.02029c0,0 2.48436,-0.00593 2.49921,-2.48359z" data-paper-data="{&quot;noHover&quot;:false,&quot;origItem&quot;:[&quot;Path&quot;,{&quot;applyMatrix&quot;:true,&quot;segments&quot;:[[[240,193.16666],[0,0],[-0.50327,0]],[[238.48041,193.14706],[0.50944,0.01189],[-0.89468,0.3185]],[[235.40046,194.13438],[1.20336,-0.39764],[0,0]],[232,194.16666],[[229.92973,193.16856],[0.71478,0.9981],[-0.60931,0.06143]],[[228.11855,193.42668],[0.59752,-0.11273],[2.35969,1.18632]],[[235.01138,197.38037],[-2.32436,-1.58861],[5.12282,1.23082]],[[250.40046,202.19894],[-5.15102,-0.86193],[16.47733,2.7572]],[[289.23223,177.89889],[-10.19223,10.19223],[0.34155,-0.32186]],[[290.16662,176.83744],[-0.2812,0.38255],[-8.31965,2.29875]],[[265,179.16666],[8.82702,0],[-5.16319,0]],[[249.59954,178.13438],[4.92285,1.64095],[-0.39773,0.00494]],[[248.41047,178.14219],[0.39503,-0.0003],[0.43126,0.07321]],[[249.76777,178.89889],[-0.46302,-0.46302],[1.76777,1.76777]],[[249.76777,182.43442],[0,0],[-1.60861,1.60861]],[[244.93336,187.25163],[1.45636,-1.74764],[-0.8215,0.9858]],[[242.76777,190.43442],[0.92102,-0.89353],[-0.0904,0.0877]],[[242.49993,190.68899],[0.0882,-0.08206],[-0.01485,2.47766]]],&quot;closed&quot;:true}]}" fill="#bce060"/><path d="M221.68392,189.69278c-2.11132,-1.5693 -4.14725,-3.34691 -6.13769,-4.92785c-3.86112,-3.06675 -9.12045,-6.16411 -13.49679,-8.35433c-0.87043,-0.43563 -1.94651,-0.3853 -2.78391,-0.88148c-1.90311,-1.12762 -3.56513,-2.75871 -5.19229,-4.43322c8.31843,2.55342 17.02153,3.80675 25.60736,5.00403c1.98083,0.27622 4.0725,-0.2752 6.05136,0.01485c7.43068,1.08917 14.5194,1.97727 22.04287,2.02151c-0.87279,0.13849 -1.49268,0.7597 -1.49268,0.7597c-3.18454,3.18454 -5.56996,7.05947 -9.30215,9.25349c-3.78793,-0.07311 -7.55828,-0.12956 -11.22295,0.75958c-0.2574,-0.23517 -1.89584,-1.58212 -3.51723,0.03927c-0.24967,0.24967 -0.43234,0.49976 -0.55591,0.74446z" data-paper-data="{&quot;noHover&quot;:false,&quot;origItem&quot;:[&quot;Path&quot;,{&quot;applyMatrix&quot;:true,&quot;segments&quot;:[[[222.23223,188.89889],[-0.24967,0.24967],[1.62139,-1.62139]],[[225.73241,188.86554],[-0.2574,-0.23517],[3.66467,-0.88914]],[[236.935,188.12768],[-3.78793,-0.07311],[3.73218,-2.19401]],[[246.23223,178.89889],[-3.18454,3.18454],[0,0]],[[247.725,178.14043],[-0.87279,0.13849],[-7.52347,-0.04424]],[[225.69454,176.14793],[7.43068,1.08917],[-1.97886,-0.29006]],[[219.69454,176.14793],[1.98083,0.27622],[-8.58583,-1.19728]],[[194.1205,171.11222],[8.31843,2.55342],[1.62717,1.67452]],[[199.31433,175.54003],[-1.90311,-1.12762],[0.8374,0.49617]],[[202.09838,176.42087],[-0.87043,-0.43563],[4.37634,2.19022]],[[215.58497,184.7333],[-3.86112,-3.06675],[1.99044,1.58094]],[[221.67985,189.64293],[-2.11132,-1.5693],[0.12356,-0.24469]]],&quot;closed&quot;:true}]}" fill="#bce060"/><path d="M220.5061,164.1241c1.2995,1.65679 2.49528,3.13608 3.16977,5.34849l2.23398,1.68282c-1.84133,-0.14857 -3.73098,0.32642 -5.56291,0.0579c-7.22968,-1.05971 -14.58249,-2.10602 -21.64062,-3.9737c0.21712,-0.03137 0.43198,-0.06481 0.64441,-0.10011c3.73026,-0.6198 6.48334,-2.63107 9.71049,-4.26051c1.8819,-0.9502 4.17558,-1.06867 6.06194,-2.00999c0.35386,-0.17658 0.70127,-0.36853 1.03644,-0.57686l1.11005,1.10909c0.66667,0.66667 1.34324,1.35034 2.00991,2.017c0,0 0.4975,0.50198 1.22656,0.70585z" data-paper-data="{&quot;noHover&quot;:false,&quot;origItem&quot;:[&quot;Path&quot;,{&quot;applyMatrix&quot;:true,&quot;segments&quot;:[[[219.23223,163.43442],[0,0],[-0.66667,-0.66667]],[[217.23223,161.43442],[0.66667,0.66667],[0,0]],[[216.13095,160.33314],[0,0],[-0.33517,0.20833]],[[215.09838,160.91244],[0.35386,-0.17658],[-1.88636,0.94132]],[[209.09838,162.91244],[1.8819,-0.9502],[-3.22715,1.62944]],[[199.40046,167.13438],[3.73026,-0.6198],[-0.21244,0.0353]],[[198.75603,167.23436],[0.21712,-0.03137],[7.05813,1.86768]],[[220.30546,171.18539],[-7.22968,-1.05971],[1.83193,0.26852]],[[225.86332,171.1371],[-1.84133,-0.14857],[0,0]],[[223.62829,169.45723],[0,0],[-0.67449,-2.21242]],[[220.45712,164.13412],[1.2995,1.65679],[-0.72906,-0.20388]]],&quot;closed&quot;:true}]}" fill="#bce060"/><path d="M261.41105,151.09517c0.74711,0.22324 1.57078,0.26556 2.23612,0.66622c0.80768,0.48636 1.19096,1.51565 1.99941,2.00072c0.90388,0.54233 2.09672,0.4584 3.0032,0.99637c2.38175,1.41349 4.54424,4.05032 6.7375,5.79995c1.87906,1.49898 4.19909,2.55663 6.07381,4.06102c3.49782,2.80686 6.56529,5.10834 10.68974,6.65872l-0.89853,0.0425c-8.0971,2.69903 -15.83561,2.8744 -24.24014,2.88369c0.45555,-0.69597 0.45385,-1.501 0.45385,-1.501c-0.04951,-5.21488 -1.35444,-9.99035 -3.56814,-14.47598c1.46536,-1.70192 -0.17309,-3.35406 -0.17309,-3.35406c-1.0726,-1.01079 -1.84721,-2.37294 -2.31375,-3.77815z" data-paper-data="{&quot;noHover&quot;:false,&quot;origItem&quot;:[&quot;Path&quot;,{&quot;applyMatrix&quot;:true,&quot;segments&quot;:[[[263.76777,154.89889],[-1.0726,-1.01079],[0,0]],[[263.94519,158.24359],[1.46536,-1.70192],[2.2137,4.48563]],[[267.5,172.66666],[-0.04951,-5.21488],[0,0]],[[267.04445,174.16616],[0.45555,-0.69597],[8.40453,-0.00929]],[[291.20943,171.29495],[-8.0971,2.69903],[0,0]],[[292.10725,171.25367],[0,0],[-4.12446,-1.55038]],[[281.41503,164.60001],[3.49782,2.80686],[-1.87472,-1.50439]],[[275.41503,160.60001],[1.87906,1.49898],[-2.19326,-1.74963]],[[268.68567,154.79328],[2.38175,1.41349],[-0.90648,-0.53797]],[[265.68567,153.79328],[0.90388,0.54233],[-0.80845,-0.48507]],[[263.68567,151.79328],[0.80768,0.48636],[-0.66535,-0.40066]],[[261.45102,151.1252],[0.74711,0.22324],[0.46654,1.40521]]],&quot;closed&quot;:true}]}" fill="#e0c361"/><path d="M256.74823,152.64356c-0.2033,0.53191 -0.20227,1.00343 -0.20227,1.00343l0.42229,2.39379c3.39309,5.01586 5.65013,10.57001 5.57461,16.65163c0,0 -0.0011,0.82613 0.47228,1.5281c-4.25619,0.09565 -8.54823,0.36603 -12.5867,-0.98013c-3.52289,-0.03344 -7.56466,0.51694 -11.03601,0.00792c-1.04294,-0.15293 -1.97083,-0.83547 -3.01147,-1.00331c-2.00575,-0.32349 -4.09931,0.27172 -6.1095,-0.02293c-0.38197,-0.05599 -0.75964,-0.14649 -1.13247,-0.24897c0.39054,-0.20478 0.76475,-0.56192 1.06078,-1.154c1.11803,-2.23607 -1.12476,-3.36301 -1.12476,-3.36301l-0.74632,0.44551c-1.29624,-3.66853 -3.18454,-5.42783 -5.29853,-8.62383c0,0 -0.80169,-1.20541 -2.10055,-1.17199c-0.29717,-0.29717 -0.59956,-0.6016 -0.88463,-0.88667c1.04613,-0.89686 2.09308,-1.77016 3.22131,-2.43973c0.90648,-0.53797 2.09793,-0.46283 3.0018,-1.00515c0.80845,-0.48507 1.19617,-1.52111 2.00385,-2.00747c1.8452,-1.11113 4.00653,-1.70113 5.7987,-2.89591c5.9046,-1.91706 12.25125,-3.7355 18.55998,-2.77562c1.16595,0.1774 2.20694,0.66549 3.18418,1.27621c-0.51612,0.9517 -0.14659,2.05572 -0.14659,2.05572l1.0047,3.00756c0.02456,0.06951 0.04986,0.13952 0.0753,0.20885z" data-paper-data="{&quot;noHover&quot;:false,&quot;origItem&quot;:[&quot;Path&quot;,{&quot;applyMatrix&quot;:true,&quot;segments&quot;:[[[256.62829,152.45723],[0.02456,0.06951],[0,0]],[255.62829,149.45723],[[255.77745,147.40465],[-0.51612,0.9517],[-0.97725,-0.61072]],[[252.59954,146.13438],[1.16595,0.1774],[-6.30873,-0.95988]],[[234.09838,148.91244],[5.9046,-1.91706],[-1.79217,1.19478]],[[228.31433,151.79328],[1.8452,-1.11113],[-0.80768,0.48636]],[[226.31433,153.79328],[0.80845,-0.48507],[-0.90388,0.54233]],[[223.31433,154.79328],[0.90648,-0.53797],[-1.12823,0.66957]],[[220.09456,157.22568],[1.04613,-0.89686],[0.28507,0.28507]],[[220.9794,158.11052],[-0.29717,-0.29717],[1.29886,-0.03342]],[[223.08013,159.27991],[0,0],[2.11398,3.196]],[[228.37171,167.87609],[-1.29624,-3.66853],[0,0]],[229.11803,167.43059],[[230.23607,170.78469],[1.11803,-2.23607],[-0.29604,0.59207]],[[229.17507,171.93846],[0.39054,-0.20478],[0.37283,0.10248]],[[230.30546,172.18539],[-0.38197,-0.05599],[2.01019,0.29465]],[[236.40046,172.19894],[-2.00575,-0.32349],[1.04064,0.16784]],[[239.40046,173.19894],[-1.04294,-0.15293],[3.47135,0.50902]],[[250.40046,173.19894],[-3.52289,-0.03344],[4.03847,1.34616]],[[262.97338,174.193],[-4.25619,0.09565],[-0.47338,-0.70197]],[[262.5,172.66666],[0,0],[0.07552,-6.08162]],[[256.91987,156.05341],[3.39309,5.01586],[0,0]],[256.5,153.66666],[[256.7033,152.66549],[-0.2033,0.53191],[-0.02545,-0.06933]]],&quot;closed&quot;:true}]}" fill="#e0c361"/></g></g></svg>