<svg xmlns="http://www.w3.org/2000/svg" xmlns:xlink="http://www.w3.org/1999/xlink" version="1.1" width="110.33546957373619" height="26.571080535650253" viewBox="0.653324082493782 0.5184953957796097 110.33546957373619 26.571080535650253">
  <!-- Exported by Scratch - http://scratch.mit.edu/ -->
  <g id="ID0.6460856036283076">
    <path id="ID0.34016173984855413" fill="none" stroke="#000000" stroke-width="1.3385518491268158" stroke-linecap="round" d="M 104.7102 22.2715 C 104.7102 22.2715 105.4022 22.9122 105.8256 23.097 C 106.241 23.2781 106.7109 23.3424 107.1642 23.3424 C 107.6175 23.3424 108.1114 23.3254 108.5027 23.097 C 108.9761 22.8208 109.309 22.3434 109.5736 21.87 C 109.8226 21.4238 110.0198 20.4199 110.0198 20.4199 "/>
    <path id="ID0.23915007151663303" fill="#7F7F7F" stroke="#7F7F7F" stroke-width="0.49334973096847534" stroke-linecap="round" d="M 1.3226 8.7091 L 96.2431 6.4027 L 108.7742 24.0029 L 13.9524 26.4203 L 1.3226 8.7091 Z "/>
    <path id="ID0.23915007151663303" fill="#B2B2B2" stroke="#B2B2B2" stroke-width="0.49334973096847534" stroke-linecap="round" d="M 1.3226 7.4591 L 96.2431 5.1527 L 108.7742 22.7529 L 13.9524 25.1703 L 1.3226 7.4591 Z "/>
    <path id="ID0.34016173984855413" fill="none" stroke="#000000" stroke-width="1.3385518491268158" stroke-linecap="round" d="M 103.2102 19.8715 C 103.2102 19.8715 103.9022 20.5122 104.3256 20.697 C 104.741 20.8781 105.2109 20.9424 105.6642 20.9424 C 106.1175 20.9424 106.6114 20.9254 107.0027 20.697 C 107.4761 20.4208 107.809 19.9434 108.0736 19.47 C 108.3226 19.0238 108.5198 18.0199 108.5198 18.0199 "/>
    <path id="ID0.23915007151663303" fill="#CCCCCC" stroke="#CCCCCC" stroke-width="0.49334973096847534" stroke-linecap="round" d="M 1.5726 6.4091 L 96.4931 4.1027 L 109.0242 21.7029 L 14.2024 24.1203 L 1.5726 6.4091 Z "/>
    <path id="ID0.34016173984855413" fill="none" stroke="#000000" stroke-width="1.3385518491268158" stroke-linecap="round" d="M 101.4602 17.7715 C 101.4602 17.7715 102.1522 18.4122 102.5756 18.597 C 102.991 18.7781 103.4609 18.8424 103.9142 18.8424 C 104.3675 18.8424 104.8614 18.8254 105.2527 18.597 C 105.7261 18.3208 106.059 17.8434 106.3236 17.37 C 106.5726 16.9238 106.7698 15.9199 106.7698 15.9199 "/>
    <path id="ID0.34016173984855413" fill="none" stroke="#000000" stroke-width="1.3385518491268158" stroke-linecap="round" d="M 94.7102 8.3715 C 94.7102 8.3715 95.4022 9.0122 95.8256 9.197 C 96.241 9.3781 96.7109 9.4424 97.1642 9.4424 C 97.6175 9.4424 98.1114 9.4254 98.5027 9.197 C 98.9761 8.9208 99.309 8.4434 99.5736 7.97 C 99.8226 7.5238 100.0198 6.5199 100.0198 6.5199 "/>
    <path id="ID0.34016173984855413" fill="none" stroke="#000000" stroke-width="1.3385518491268158" stroke-linecap="round" d="M 96.3102 10.7715 C 96.3102 10.7715 97.0022 11.4122 97.4256 11.597 C 97.841 11.7781 98.3109 11.8424 98.7642 11.8424 C 99.2175 11.8424 99.7114 11.8254 100.1027 11.597 C 100.5761 11.3208 100.909 10.8434 101.1736 10.37 C 101.4226 9.9238 101.6198 8.9199 101.6198 8.9199 "/>
    <path id="ID0.34016173984855413" fill="none" stroke="#000000" stroke-width="1.3385518491268158" stroke-linecap="round" d="M 99.8102 15.3715 C 99.8102 15.3715 100.5022 16.0122 100.9256 16.197 C 101.341 16.3781 101.8109 16.4424 102.2642 16.4424 C 102.7175 16.4424 103.2114 16.4254 103.6027 16.197 C 104.0761 15.9208 104.409 15.4434 104.6736 14.97 C 104.9226 14.5238 105.1198 13.5199 105.1198 13.5199 "/>
    <path id="ID0.34016173984855413" fill="none" stroke="#000000" stroke-width="1.3385518491268158" stroke-linecap="round" d="M 98.3102 13.1215 C 98.3102 13.1215 99.0022 13.7622 99.4256 13.947 C 99.841 14.1281 100.3109 14.1924 100.7642 14.1924 C 101.2175 14.1924 101.7114 14.1754 102.1027 13.947 C 102.5761 13.6708 102.909 13.1934 103.1736 12.72 C 103.4226 12.2738 103.6198 11.2699 103.6198 11.2699 "/>
    <path id="ID0.23915007151663303" fill="#99FFBB" stroke="#99FFBB" stroke-width="0.49334973096847534" stroke-linecap="round" d="M 1.7226 5.4091 L 96.6431 3.1027 L 109.1742 20.7029 L 14.3524 23.1203 L 1.7226 5.4091 Z "/>
    <path id="ID0.2678761528804898" fill="#666666" stroke="none" d="M 93.3389 3.8515 C 94.004 3.8515 94.6065 3.9012 95.0429 3.9816 C 95.4792 4.0619 95.7495 4.1729 95.7495 4.2955 C 95.7495 4.418 95.4792 4.529 95.0429 4.6094 C 94.6065 4.6898 94.004 4.7395 93.3389 4.7395 C 92.6738 4.7395 92.0713 4.6898 91.635 4.6094 C 91.1986 4.529 90.9284 4.418 90.9284 4.2955 C 90.9284 4.1729 91.1986 4.0619 91.635 3.9816 C 92.0713 3.9012 92.6738 3.8515 93.3389 3.8515 Z " stroke-width="0.23496025716496527"/>
    <path id="ID0.7796848746947944" fill="none" stroke="#000000" stroke-width="1.3385518491268158" stroke-linecap="round" d="M 93.4609 3.8428 C 93.4609 3.8428 93.6567 3.0686 93.8624 2.7273 C 94.0498 2.3882 94.2992 2.0745 94.6209 1.8349 C 94.9279 1.6065 95.3116 1.4655 95.6695 1.3664 C 96.1072 1.2455 96.5636 1.1835 97.0303 1.188 C 97.3761 1.1911 97.7152 1.2839 98.0789 1.3887 C 98.3957 1.4802 98.7209 1.5788 98.9935 1.768 C 99.3282 2.0268 99.6646 2.3329 99.8636 2.705 C 100.1179 3.182 100.258 3.7285 100.3098 4.2666 C 100.3602 4.7922 100.1982 5.8729 100.1982 5.8729 "/>
    <path id="ID0.2678761528804898" fill="#666666" stroke="none" d="M 94.9389 6.0515 C 95.604 6.0515 96.2065 6.1012 96.6429 6.1816 C 97.0792 6.2619 97.3495 6.3729 97.3495 6.4955 C 97.3495 6.618 97.0792 6.729 96.6429 6.8094 C 96.2065 6.8898 95.604 6.9395 94.9389 6.9395 C 94.2738 6.9395 93.6713 6.8898 93.235 6.8094 C 92.7986 6.729 92.5284 6.618 92.5284 6.4955 C 92.5284 6.3729 92.7986 6.2619 93.235 6.1816 C 93.6713 6.1012 94.2738 6.0515 94.9389 6.0515 Z " stroke-width="0.23496025716496527"/>
    <path id="ID0.7796848746947944" fill="none" stroke="#000000" stroke-width="1.3385518491268158" stroke-linecap="round" d="M 95.0609 6.2428 C 95.0609 6.2428 95.2567 5.4686 95.4624 5.1273 C 95.6498 4.7882 95.8992 4.4745 96.2209 4.2349 C 96.5279 4.0065 96.9116 3.8655 97.2695 3.7664 C 97.7072 3.6455 98.1636 3.5835 98.6303 3.588 C 98.9761 3.5911 99.3152 3.6839 99.6789 3.7887 C 99.9957 3.8802 100.3209 3.9788 100.5935 4.168 C 100.9282 4.4268 101.2646 4.7329 101.4636 5.105 C 101.7179 5.582 101.858 6.1285 101.9098 6.6666 C 101.9602 7.1922 101.7982 8.2729 101.7982 8.2729 "/>
    <path id="ID0.2678761528804898" fill="#666666" stroke="none" d="M 96.9389 8.5515 C 97.604 8.5515 98.2065 8.6012 98.6429 8.6816 C 99.0792 8.7619 99.3495 8.8729 99.3495 8.9955 C 99.3495 9.118 99.0792 9.229 98.6429 9.3094 C 98.2065 9.3898 97.604 9.4395 96.9389 9.4395 C 96.2738 9.4395 95.6713 9.3898 95.235 9.3094 C 94.7986 9.229 94.5284 9.118 94.5284 8.9955 C 94.5284 8.8729 94.7986 8.7619 95.235 8.6816 C 95.6713 8.6012 96.2738 8.5515 96.9389 8.5515 Z " stroke-width="0.23496025716496527"/>
    <path id="ID0.7796848746947944" fill="none" stroke="#000000" stroke-width="1.3385518491268158" stroke-linecap="round" d="M 97.0609 8.5928 C 97.0609 8.5928 97.2567 7.8186 97.4624 7.4773 C 97.6498 7.1382 97.8992 6.8245 98.2209 6.5849 C 98.5279 6.3565 98.9116 6.2155 99.2695 6.1164 C 99.7072 5.9955 100.1636 5.9335 100.6303 5.938 C 100.9761 5.9411 101.3152 6.0339 101.6789 6.1387 C 101.9957 6.2302 102.3209 6.3288 102.5935 6.518 C 102.9282 6.7768 103.2646 7.0829 103.4636 7.455 C 103.7179 7.932 103.858 8.4785 103.9098 9.0166 C 103.9602 9.5422 103.7982 10.6229 103.7982 10.6229 "/>
    <path id="ID0.2678761528804898" fill="#666666" stroke="none" d="M 98.3389 10.8515 C 99.004 10.8515 99.6065 10.9012 100.0429 10.9816 C 100.4792 11.0619 100.7495 11.1729 100.7495 11.2955 C 100.7495 11.418 100.4792 11.529 100.0429 11.6094 C 99.6065 11.6898 99.004 11.7395 98.3389 11.7395 C 97.6738 11.7395 97.0713 11.6898 96.635 11.6094 C 96.1986 11.529 95.9284 11.418 95.9284 11.2955 C 95.9284 11.1729 96.1986 11.0619 96.635 10.9816 C 97.0713 10.9012 97.6738 10.8515 98.3389 10.8515 Z " stroke-width="0.23496025716496527"/>
    <path id="ID0.7796848746947944" fill="none" stroke="#000000" stroke-width="1.3385518491268158" stroke-linecap="round" d="M 98.5609 10.8428 C 98.5609 10.8428 98.7567 10.0686 98.9624 9.7273 C 99.1498 9.3882 99.3992 9.0745 99.7209 8.8349 C 100.0279 8.6065 100.4116 8.4655 100.7695 8.3664 C 101.2072 8.2455 101.6636 8.1835 102.1303 8.188 C 102.4761 8.1911 102.8152 8.2839 103.1789 8.3887 C 103.4957 8.4802 103.8209 8.5788 104.0935 8.768 C 104.4282 9.0268 104.7646 9.3329 104.9636 9.705 C 105.2179 10.182 105.358 10.7285 105.4098 11.2666 C 105.4602 11.7922 105.2982 12.8729 105.2982 12.8729 "/>
    <path id="ID0.2678761528804898" fill="#666666" stroke="none" d="M 100.1889 13.1015 C 100.854 13.1015 101.4565 13.1512 101.8929 13.2316 C 102.3292 13.3119 102.5995 13.4229 102.5995 13.5455 C 102.5995 13.668 102.3292 13.779 101.8929 13.8594 C 101.4565 13.9398 100.854 13.9895 100.1889 13.9895 C 99.5238 13.9895 98.9213 13.9398 98.485 13.8594 C 98.0486 13.779 97.7784 13.668 97.7784 13.5455 C 97.7784 13.4229 98.0486 13.3119 98.485 13.2316 C 98.9213 13.1512 99.5238 13.1015 100.1889 13.1015 Z " stroke-width="0.23496025716496527"/>
    <path id="ID0.7796848746947944" fill="none" stroke="#000000" stroke-width="1.3385518491268158" stroke-linecap="round" d="M 100.2109 13.2428 C 100.2109 13.2428 100.4067 12.4686 100.6124 12.1273 C 100.7998 11.7882 101.0492 11.4745 101.3709 11.2349 C 101.6779 11.0065 102.0616 10.8655 102.4195 10.7664 C 102.8572 10.6455 103.3136 10.5835 103.7803 10.588 C 104.1261 10.5911 104.4652 10.6839 104.8289 10.7887 C 105.1457 10.8802 105.4709 10.9788 105.7435 11.168 C 106.0782 11.4268 106.4146 11.7329 106.6136 12.105 C 106.8679 12.582 107.008 13.1285 107.0598 13.6666 C 107.1102 14.1922 106.9482 15.2729 106.9482 15.2729 "/>
    <path id="ID0.2678761528804898" fill="#666666" stroke="none" d="M 103.2034 17.6681 C 103.867 17.6681 104.4681 17.7164 104.9035 17.7946 C 105.3389 17.8727 105.6085 17.9806 105.6085 18.0998 C 105.6085 18.2189 105.3389 18.3268 104.9035 18.405 C 104.4681 18.4831 103.867 18.5315 103.2034 18.5315 C 102.5399 18.5315 101.9387 18.4831 101.5034 18.405 C 101.068 18.3268 100.7984 18.2189 100.7984 18.0998 C 100.7984 17.9806 101.068 17.8727 101.5034 17.7946 C 101.9387 17.7164 102.5399 17.6681 103.2034 17.6681 Z " stroke-width="0.23177102088537005"/>
    <path id="ID0.2678761528804898" fill="#666666" stroke="none" d="M 101.5889 15.3515 C 102.254 15.3515 102.8565 15.4012 103.2929 15.4816 C 103.7292 15.5619 103.9995 15.6729 103.9995 15.7955 C 103.9995 15.918 103.7292 16.029 103.2929 16.1094 C 102.8565 16.1898 102.254 16.2395 101.5889 16.2395 C 100.9238 16.2395 100.3213 16.1898 99.885 16.1094 C 99.4486 16.029 99.1784 15.918 99.1784 15.7955 C 99.1784 15.6729 99.4486 15.5619 99.885 15.4816 C 100.3213 15.4012 100.9238 15.3515 101.5889 15.3515 Z " stroke-width="0.23496025716496527"/>
    <path id="ID0.7796848746947944" fill="none" stroke="#000000" stroke-width="1.3385518491268158" stroke-linecap="round" d="M 101.9609 15.3428 C 101.9609 15.3428 102.1567 14.5686 102.3624 14.2273 C 102.5498 13.8882 102.7992 13.5745 103.1209 13.3349 C 103.4279 13.1065 103.8116 12.9655 104.1695 12.8664 C 104.6072 12.7455 105.0636 12.6835 105.5303 12.688 C 105.8761 12.6911 106.2152 12.7839 106.5789 12.8887 C 106.8957 12.9802 107.2209 13.0788 107.4935 13.268 C 107.8282 13.5268 108.1646 13.8329 108.3636 14.205 C 108.6179 14.682 108.758 15.2285 108.8098 15.7666 C 108.8602 16.2922 108.6982 17.3729 108.6982 17.3729 "/>
    <path id="ID0.7796848746947944" fill="none" stroke="#000000" stroke-width="1.3385518491268158" stroke-linecap="round" d="M 103.4609 17.7428 C 103.4609 17.7428 103.6567 16.9686 103.8624 16.6273 C 104.0498 16.2882 104.2992 15.9745 104.6209 15.7349 C 104.9279 15.5065 105.3116 15.3655 105.6695 15.2664 C 106.1072 15.1455 106.5636 15.0835 107.0303 15.088 C 107.3761 15.0911 107.7152 15.1839 108.0789 15.2887 C 108.3957 15.3802 108.7209 15.4788 108.9935 15.668 C 109.3282 15.9268 109.6646 16.2329 109.8636 16.605 C 110.1179 17.082 110.258 17.6285 110.3098 18.1666 C 110.3602 18.6922 110.1982 19.7729 110.1982 19.7729 "/>
  </g>
</svg>