<svg xmlns="http://www.w3.org/2000/svg" xmlns:xlink="http://www.w3.org/1999/xlink" version="1.1" width="80.80268648535143" height="38.09688356787096" viewBox="-0.33429280057614374 -0.4038928015536599 80.80268648535143 38.09688356787096">
  <defs>
    <radialGradient id="grad_1" cx="0.26" cy="0.2188" r="1.01556">
      <stop offset="0" stop-color="#FF9400" stop-opacity="1"/>
      <stop offset="1" stop-color="#995900" stop-opacity="1"/>
    </radialGradient>
    <radialGradient id="grad_2" cx="0.3063" cy="0.36340000000000006" r="0.90181">
      <stop offset="0" stop-color="#FF9400" stop-opacity="1"/>
      <stop offset="1" stop-color="#995900" stop-opacity="1"/>
    </radialGradient>
    <radialGradient id="grad_3" cx="0.3433" cy="0.3236" r="0.87932">
      <stop offset="0" stop-color="#FF9400" stop-opacity="1"/>
      <stop offset="1" stop-color="#995900" stop-opacity="1"/>
    </radialGradient>
    <radialGradient id="grad_4" cx="0.4814" cy="0.41700000000000004" r="0.7578999999999999">
      <stop offset="0" stop-color="#FF9400" stop-opacity="1"/>
      <stop offset="1" stop-color="#995900" stop-opacity="1"/>
    </radialGradient>
    <radialGradient id="grad_5" cx="0.42590000000000006" cy="0.4035" r="0.77545">
      <stop offset="0" stop-color="#FF9400" stop-opacity="1"/>
      <stop offset="1" stop-color="#995900" stop-opacity="1"/>
    </radialGradient>
    <radialGradient id="grad_6" cx="0.3953" cy="0.31679999999999997" r="0.8881600000000001">
      <stop offset="0" stop-color="#FF9400" stop-opacity="1"/>
      <stop offset="1" stop-color="#995900" stop-opacity="1"/>
    </radialGradient>
    <radialGradient id="grad_7" cx="0.3592" cy="0.3799" r="0.83304">
      <stop offset="0" stop-color="#00FF55" stop-opacity="1"/>
      <stop offset="1" stop-color="#009933" stop-opacity="1"/>
    </radialGradient>
  <radialGradient id="grad_1-.8573749661445618,0,0,0.8573749661445618,-22.95,-48.8" cx="75.1912" cy="5.4307" r="11.1118" gradientUnits="userSpaceOnUse">
      <stop offset="0" stop-color="#FF9400" stop-opacity="1"/>
      <stop offset="1" stop-color="#995900" stop-opacity="1"/>
    </radialGradient><radialGradient id="grad_2-.8573749661445618,0,0,0.8573749661445618,-22.95,-48.8" cx="10.9203" cy="13.5862" r="32.4926" gradientUnits="userSpaceOnUse">
      <stop offset="0" stop-color="#FF9400" stop-opacity="1"/>
      <stop offset="1" stop-color="#995900" stop-opacity="1"/>
    </radialGradient><radialGradient id="grad_3-.8573749661445618,0,0,0.8573749661445618,-22.95,-48.8" cx="48.0389" cy="17.4296" r="30.5484" gradientUnits="userSpaceOnUse">
      <stop offset="0" stop-color="#FF9400" stop-opacity="1"/>
      <stop offset="1" stop-color="#995900" stop-opacity="1"/>
    </radialGradient><radialGradient id="grad_4-.8573749661445618,0,0,0.8573749661445618,-22.95,-48.8" cx="33.0366" cy="17.9415" r="5.2812" gradientUnits="userSpaceOnUse">
      <stop offset="0" stop-color="#FF9400" stop-opacity="1"/>
      <stop offset="1" stop-color="#995900" stop-opacity="1"/>
    </radialGradient><radialGradient id="grad_5-.8573749661445618,0,0,0.8573749661445618,-22.95,-48.8" cx="35.5239" cy="17.8123" r="5.4035" gradientUnits="userSpaceOnUse">
      <stop offset="0" stop-color="#FF9400" stop-opacity="1"/>
      <stop offset="1" stop-color="#995900" stop-opacity="1"/>
    </radialGradient><radialGradient id="grad_6-.8573749661445618,0,0,0.8573749661445618,-22.95,-48.8" cx="66.548" cy="9.4737" r="5.9186" gradientUnits="userSpaceOnUse">
      <stop offset="0" stop-color="#FF9400" stop-opacity="1"/>
      <stop offset="1" stop-color="#995900" stop-opacity="1"/>
    </radialGradient><radialGradient id="grad_7-.1296296119689941,0,0,1,-229.05,-166.4" cx="17.6037" cy="16.7985" r="12.6811" gradientUnits="userSpaceOnUse">
      <stop offset="0" stop-color="#00FF55" stop-opacity="1"/>
      <stop offset="1" stop-color="#009933" stop-opacity="1"/>
    </radialGradient></defs>
  <!-- Exported by Scratch - http://scratch.mit.edu/ -->
  <g id="ID0.865684209857136">
    <path id="ID0.8694397993385792" fill="url(#grad_1-.8573749661445618,0,0,0.8573749661445618,-22.95,-48.8)" d="M 73.5244 2.3493 L 79.935 2.3493 L 79.935 4.4258 L 76.5947 4.4258 L 76.5947 7.2243 L 79.935 7.2243 L 79.935 9.5727 L 76.5947 9.5727 L 76.5947 12.3703 L 79.935 12.3703 L 79.935 16.4325 L 73.5244 16.4325 L 73.5244 2.3493 " stroke-width="0.8573749661445618"/>
    <path id="ID0.7121701026335359" fill="url(#grad_2-.8573749661445618,0,0,0.8573749661445618,-22.95,-48.8)" d="M 19.7824 22.4093 C 21.9464 22.4093 23.7006 20.6551 23.7006 18.4911 C 23.7006 16.3288 21.9464 14.5746 19.7824 14.5746 C 17.6184 14.5746 15.8642 16.3288 15.8642 18.4911 C 15.8642 20.6551 17.6184 22.4093 19.7824 22.4093 L 19.7824 22.4093 L 19.7824 22.4093 Z M 7.504 22.4093 C 9.668 22.4093 11.4222 20.6551 11.4222 18.4911 C 11.4222 16.3288 9.668 14.5746 7.504 14.5746 C 5.3399 14.5746 3.5858 16.3288 3.5858 18.4911 C 3.5858 20.6551 5.3399 22.4093 7.504 22.4093 L 7.504 22.4093 L 7.504 22.4093 Z M 26.1724 27.3795 C 26.1724 26.3618 25.9427 25.3989 25.5328 24.5399 C 24.0307 26.0025 21.9773 26.9054 19.7121 26.9054 C 17.3423 26.9054 15.204 25.9185 13.6865 24.3332 C 13.2124 25.2446 12.944 26.2803 12.944 27.3821 C 12.944 31.0353 15.9054 33.995 19.5578 33.995 C 23.2119 33.9933 26.1724 31.0328 26.1724 27.3795 L 26.1724 27.3795 L 26.1724 27.3795 Z M 25.6306 12.6746 C 25.9795 11.8696 26.1733 10.9805 26.1733 10.0468 C 26.1733 6.3935 23.2119 3.4321 19.5595 3.4321 C 15.9071 3.4321 12.9457 6.3935 12.9457 10.0468 C 12.9457 11.1391 13.2098 12.1671 13.575 12.9061 C 15.0994 11.2514 17.2849 10.2131 19.7138 10.2131 C 22.0262 10.2131 24.1199 11.1545 25.6306 12.6746 L 25.6306 12.6746 L 25.6306 12.6746 Z M 27.7337 15.5083 C 28.2499 17.1553 28.4308 19.9092 27.7337 21.7542 L 30.9575 18.6643 L 27.7337 15.5083 L 27.7337 15.5083 L 27.7337 15.5083 Z M 9.7794 9.9782 C 9.7794 4.539 14.1889 0.1295 19.6281 0.1295 C 25.0673 0.1295 29.4768 4.539 29.4768 9.9782 C 29.4768 11.9047 33.3058 16.7034 35.2015 18.9609 C 33.2149 20.5865 29.4768 25.3724 29.4768 27.3117 C 29.4768 32.7509 25.0673 37.1596 19.6281 37.1596 C 14.1889 37.1596 9.7794 32.7492 9.7794 27.3117 C 9.7794 26.6473 9.8454 25.9974 9.9715 25.3681 C 9.2007 25.6442 8.3699 25.7951 7.5048 25.7951 C 3.4692 25.7951 0.1991 22.5259 0.1991 18.4894 C 0.1991 14.4546 3.4692 11.1837 7.5048 11.1837 C 8.3476 11.1837 9.1578 11.3268 9.9123 11.5892 C 9.8249 11.0671 9.7794 10.5278 9.7794 9.9782 L 9.7794 9.9782 L 9.7794 9.9782 Z " stroke-width="0.8573749661445618"/>
    <path id="ID0.7789692673832178" fill="url(#grad_3-.8573749661445618,0,0,0.8573749661445618,-22.95,-48.8)" d="M 31.3647 15.0341 L 79.935 15.0341 L 79.935 22.4367 L 31.3647 22.4367 L 31.3647 15.0341 L 31.3647 15.0341 Z " stroke-width="0.8573749661445618"/>
    <path id="ID0.578137279022485" fill="url(#grad_4-.8573749661445618,0,0,0.8573749661445618,-22.95,-48.8)" d="M 31.9066 15.2142 C 31.9066 14.5171 32.4321 13.9504 33.0803 13.9504 L 33.0803 13.9504 C 33.7285 13.9504 34.2541 14.5163 34.2541 15.2142 L 34.2541 22.2567 C 34.2541 22.9546 33.7285 23.5213 33.0803 23.5213 L 33.0803 23.5213 C 32.4321 23.5213 31.9066 22.9554 31.9066 22.2567 L 31.9066 15.2142 L 31.9066 15.2142 L 31.9066 15.2142 L 31.9066 15.2142 Z " stroke-width="0.8573749661445618"/>
    <path id="ID0.029240664094686508" fill="url(#grad_5-.8573749661445618,0,0,0.8573749661445618,-22.95,-48.8)" d="M 34.5241 15.2142 C 34.5241 14.5171 35.0497 13.9504 35.6979 13.9504 L 35.6979 13.9504 C 36.3461 13.9504 36.8716 14.5163 36.8716 15.2142 L 36.8716 22.2567 C 36.8716 22.9546 36.3461 23.5213 35.6979 23.5213 L 35.6979 23.5213 C 35.0497 23.5213 34.5241 22.9554 34.5241 22.2567 L 34.5241 15.2142 L 34.5241 15.2142 L 34.5241 15.2142 L 34.5241 15.2142 Z " stroke-width="0.8573749661445618"/>
    <path id="ID0.5972161572426558" fill="url(#grad_6-.8573749661445618,0,0,0.8573749661445618,-22.95,-48.8)" d="M 65.0853 6.7279 L 68.7857 6.7279 L 68.7857 15.3951 L 65.0853 15.3951 L 65.0853 6.7279 " stroke-width="0.8573749661445618"/>
    <path id="ID0.7050072336569428" fill="url(#grad_7-.1296296119689941,0,0,1,-229.05,-166.4)" stroke="none" d="M 19.7509 11.1 C 21.8543 11.1 23.7611 11.94 25.1415 13.298 C 26.5219 14.656 27.3759 16.531 27.3759 18.6 C 27.3759 20.669 26.5219 22.544 25.1415 23.902 C 23.7611 25.26 21.8543 26.1 19.7509 26.1 C 17.6476 26.1 15.7407 25.26 14.3603 23.902 C 12.9799 22.544 12.1259 20.669 12.1259 18.6 C 12.1259 16.531 12.9799 14.656 14.3603 13.298 C 15.7407 11.94 17.6476 11.1 19.7509 11.1 Z " stroke-width="1.06678560644518"/>
  </g>
</svg>