<svg version="1.1" xmlns="http://www.w3.org/2000/svg" xmlns:xlink="http://www.w3.org/1999/xlink" width="250.83332" height="175" viewBox="0,0,250.83332,175"><g transform="translate(-104,-95)"><g data-paper-data="{&quot;isPaintingLayer&quot;:true}" fill-rule="nonzero" stroke="none" stroke-linecap="butt" stroke-linejoin="miter" stroke-miterlimit="10" stroke-dasharray="" stroke-dashoffset="0" style="mix-blend-mode: normal"><path d="M349.33333,206.33333c-2.86504,0 -6.17916,0.46756 -9,0c-1.30056,-0.21557 -2.49053,-0.90958 -3.79057,-1.12829c-1.60489,-0.27 -3.54389,0.36137 -5.20943,0.12829c-3.18374,-0.44553 -6.25703,-1.61711 -9.29057,-2.62829c-2.02749,-0.67583 -3.6908,0.16037 -5.70943,-0.37171c-1.61482,-0.42564 -2.84961,-1.76718 -4.38675,-2.41987c-1.8834,-0.79971 -4.39363,-1.03835 -6.40382,-1.70842c-7.16437,-2.38812 -14.48492,-4.64428 -21.81577,-6.44635c-0.19201,-0.048 -0.3847,-0.09334 -0.57797,-0.13625c-0.05006,-2.59171 0.18431,-5.28477 0.18431,-7.78911c0,-4.73054 0.34152,-9.64147 -0.08276,-14.37666c1.4189,0.09966 2.99471,0.20639 4.37798,0.09379c0.76018,0.18487 1.55437,0.28287 2.37144,0.28287c0.05566,0 0.11122,-0.00045 0.16667,-0.00136c0.05545,0.00091 0.111,0.00136 0.16667,0.00136c0.34074,0 0.67749,-0.01704 1.00946,-0.05032c1.47455,0.49943 3.11587,0.77929 5.09819,0.77929c2.25761,0 4.9376,-0.52353 7.31189,-1.58093c5.18272,-0.4627 11.68783,-3.95245 14.26919,-7.30644c0.56525,-0.30206 1.13173,-0.60341 1.69481,-0.91098c0.22225,-0.0352 0.44808,-0.12747 0.66936,-0.37003c1.1442,-0.64115 2.2665,-1.31975 3.32733,-2.09493c2.53314,-1.80938 4.8297,-1.77069 7.64301,-2.61303c4.92183,-1.47365 8.84941,-5.25619 13.70375,-6.61133c1.98455,-0.55401 3.87447,-1.02755 5.93967,-1.07464c0.44433,-0.01013 1.01906,-0.31427 1.33333,0c1.07869,1.07869 1.66667,2.55556 2.5,3.83333c0,5.89273 -4.04946,12.73203 -8.06557,16.76777c-2.07961,2.08978 -3.68708,4.35246 -5.26383,6.80591c-0.53516,0.83272 -1.86972,1.98284 -1.74525,3.03266c-0.11111,0.44444 -0.44334,0.88861 -0.33333,1.33333c0.07975,0.32239 0.1176,-0.96249 0.44231,-0.89277c0.46726,0.10033 0.56821,0.76904 0.83333,1.16667c1.00787,1.51158 1.88501,3.04649 2.70173,4.66839c2.58916,5.14175 3.18297,11.19974 7.55874,15.22055l1.95765,1.63137c0.55817,0.4585 0.91421,1.15406 0.91421,1.93278c0,0.65345 -0.25071,1.24835 -0.66118,1.69375c-0.0729,0.06815 -0.14478,0.13739 -0.21561,0.20767c-0.10668,0.09116 -0.22113,0.1735 -0.34221,0.24589c0.03518,-0.00087 0.07047,-0.00198 0.10586,-0.00333c-0.1531,0.1625 -0.30082,0.33014 -0.44288,0.50261c-1.04825,0.14587 -2.08894,0.18675 -2.94398,0.18675z" fill="#ff0000" stroke-width="0.5"/><path d="M104,270v-175h176v175z" data-paper-data="{&quot;origPos&quot;:null}" fill="#06bb2b" stroke-width="0"/><path d="M209,170v-36h63v36z" fill="#ffffff" stroke-width="0"/><path d="M210,232v-36h63v36z" fill="#ffffff" stroke-width="0"/><path d="M228,164v-21h45v21z" fill="#000000" stroke-width="0"/><path d="M228,226v-21h45v21z" fill="#000000" stroke-width="0"/><path d="" fill="#ff0000" stroke-width="0.5"/></g></g></svg>