<svg xmlns="http://www.w3.org/2000/svg" xmlns:xlink="http://www.w3.org/1999/xlink" version="1.1" width="80.84701204299927" height="38.141212940216064" viewBox="-0.4064555764198303 -0.07605555653572083 80.84701204299927 38.141212940216064">
  <defs>
    <radialGradient id="grad_1" cx="0.3" cy="0.3161" r="0.91">
      <stop offset="0" stop-color="#CCCCCC" stop-opacity="1"/>
      <stop offset="1" stop-color="#666666" stop-opacity="1"/>
    </radialGradient>
    <radialGradient id="grad_2" cx="0.3308" cy="0.3738" r="0.8699600000000001">
      <stop offset="0" stop-color="#CCCCCC" stop-opacity="1"/>
      <stop offset="1" stop-color="#666666" stop-opacity="1"/>
    </radialGradient>
    <radialGradient id="grad_3" cx="0.25329999999999997" cy="0.341" r="0.97071">
      <stop offset="0" stop-color="#CCCCCC" stop-opacity="1"/>
      <stop offset="1" stop-color="#666666" stop-opacity="1"/>
    </radialGradient>
    <radialGradient id="grad_4" cx="0.4814" cy="0.32280000000000003" r="0.88036">
      <stop offset="0" stop-color="#CCCCCC" stop-opacity="1"/>
      <stop offset="1" stop-color="#666666" stop-opacity="1"/>
    </radialGradient>
    <radialGradient id="grad_5" cx="0.4814" cy="0.3901" r="0.7928700000000001">
      <stop offset="0" stop-color="#CCCCCC" stop-opacity="1"/>
      <stop offset="1" stop-color="#666666" stop-opacity="1"/>
    </radialGradient>
    <radialGradient id="grad_6" cx="0.6279" cy="0.3019" r="0.90753">
      <stop offset="0" stop-color="#CCCCCC" stop-opacity="1"/>
      <stop offset="1" stop-color="#666666" stop-opacity="1"/>
    </radialGradient>
    <radialGradient id="grad_7" cx="0.3148" cy="0.3153" r="0.8907599999999999">
      <stop offset="0" stop-color="#003FFF" stop-opacity="1"/>
      <stop offset="1" stop-color="#002699" stop-opacity="1"/>
    </radialGradient>
  <radialGradient id="grad_1-.8573749661445618,0,0,0.8573749661445618,-31.5,-48.449999999999996" cx="66.8976" cy="7.151" r="9.9568" gradientUnits="userSpaceOnUse">
      <stop offset="0" stop-color="#CCCCCC" stop-opacity="1"/>
      <stop offset="1" stop-color="#666666" stop-opacity="1"/>
    </radialGradient><radialGradient id="grad_2-.8573749661445618,0,0,0.8573749661445618,-23,-48.449999999999996" cx="11.7279" cy="14.3214" r="31.345" gradientUnits="userSpaceOnUse">
      <stop offset="0" stop-color="#CCCCCC" stop-opacity="1"/>
      <stop offset="1" stop-color="#666666" stop-opacity="1"/>
    </radialGradient><radialGradient id="grad_3-.8573749661445618,0,0,0.8573749661445618,-23,-48.449999999999996" cx="43.6176" cy="17.9084" r="33.7234" gradientUnits="userSpaceOnUse">
      <stop offset="0" stop-color="#CCCCCC" stop-opacity="1"/>
      <stop offset="1" stop-color="#666666" stop-opacity="1"/>
    </radialGradient><radialGradient id="grad_4-.8573749661445618,0,0,0.8573749661445618,-23,-48.449999999999996" cx="32.9866" cy="17.3899" r="6.1345" gradientUnits="userSpaceOnUse">
      <stop offset="0" stop-color="#CCCCCC" stop-opacity="1"/>
      <stop offset="1" stop-color="#666666" stop-opacity="1"/>
    </radialGradient><radialGradient id="grad_5-.8573749661445618,0,0,0.8573749661445618,-23,-48.449999999999996" cx="35.6042" cy="18.034" r="5.5249" gradientUnits="userSpaceOnUse">
      <stop offset="0" stop-color="#CCCCCC" stop-opacity="1"/>
      <stop offset="1" stop-color="#666666" stop-opacity="1"/>
    </radialGradient><radialGradient id="grad_6-0.8573749661445618,0,0,0.8573749661445618,167.9,-48.449999999999996" cx="77.5412" cy="9.6945" r="6.0476" gradientUnits="userSpaceOnUse">
      <stop offset="0" stop-color="#CCCCCC" stop-opacity="1"/>
      <stop offset="1" stop-color="#666666" stop-opacity="1"/>
    </radialGradient><radialGradient id="grad_7-.1111111640930176,0,0,1.1111111640930176,-225.5,-187.55" cx="16.9998" cy="16.4488" r="13.1163" gradientUnits="userSpaceOnUse">
      <stop offset="0" stop-color="#003FFF" stop-opacity="1"/>
      <stop offset="1" stop-color="#002699" stop-opacity="1"/>
    </radialGradient></defs>
  <!-- Exported by Scratch - http://scratch.mit.edu/ -->
  <g id="ID0.09836073406040668">
    <path id="ID0.8694397993385792" fill="url(#grad_1-.8573749661445618,0,0,0.8573749661445618,-31.5,-48.449999999999996)" d="M 64.9744 2.6993 L 71.385 2.6993 L 71.385 4.7758 L 68.0447 4.7758 L 68.0447 7.5743 L 71.385 7.5743 L 71.385 9.9227 L 68.0447 9.9227 L 68.0447 12.7203 L 71.385 12.7203 L 71.385 16.7825 L 64.9744 16.7825 L 64.9744 2.6993 " stroke-width="0.8573749661445618"/>
    <path id="ID0.7121701026335359" fill="url(#grad_2-.8573749661445618,0,0,0.8573749661445618,-23,-48.449999999999996)" d="M 19.7324 22.7593 C 21.8964 22.7593 23.6506 21.0051 23.6506 18.8411 C 23.6506 16.6788 21.8964 14.9246 19.7324 14.9246 C 17.5684 14.9246 15.8142 16.6788 15.8142 18.8411 C 15.8142 21.0051 17.5684 22.7593 19.7324 22.7593 L 19.7324 22.7593 L 19.7324 22.7593 Z M 7.454 22.7593 C 9.618 22.7593 11.3722 21.0051 11.3722 18.8411 C 11.3722 16.6788 9.618 14.9246 7.454 14.9246 C 5.2899 14.9246 3.5358 16.6788 3.5358 18.8411 C 3.5358 21.0051 5.2899 22.7593 7.454 22.7593 L 7.454 22.7593 L 7.454 22.7593 Z M 26.1224 27.7295 C 26.1224 26.7118 25.8927 25.7489 25.4828 24.8899 C 23.9807 26.3525 21.9273 27.2554 19.6621 27.2554 C 17.2923 27.2554 15.154 26.2685 13.6365 24.6832 C 13.1624 25.5946 12.894 26.6303 12.894 27.7321 C 12.894 31.3853 15.8554 34.345 19.5078 34.345 C 23.1619 34.3433 26.1224 31.3828 26.1224 27.7295 L 26.1224 27.7295 L 26.1224 27.7295 Z M 25.5806 13.0246 C 25.9295 12.2196 26.1233 11.3305 26.1233 10.3968 C 26.1233 6.7435 23.1619 3.7821 19.5095 3.7821 C 15.8571 3.7821 12.8957 6.7435 12.8957 10.3968 C 12.8957 11.4891 13.1598 12.5171 13.525 13.2561 C 15.0494 11.6014 17.2349 10.5631 19.6638 10.5631 C 21.9762 10.5631 24.0699 11.5045 25.5806 13.0246 L 25.5806 13.0246 L 25.5806 13.0246 Z M 27.6837 15.8583 C 28.1999 17.5053 28.3808 20.2592 27.6837 22.1042 L 30.9075 19.0143 L 27.6837 15.8583 L 27.6837 15.8583 L 27.6837 15.8583 Z M 9.7294 10.3282 C 9.7294 4.889 14.1389 0.4795 19.5781 0.4795 C 25.0173 0.4795 29.4268 4.889 29.4268 10.3282 C 29.4268 12.2547 33.2558 17.0534 35.1515 19.3109 C 33.1649 20.9365 29.4268 25.7224 29.4268 27.6617 C 29.4268 33.1009 25.0173 37.5096 19.5781 37.5096 C 14.1389 37.5096 9.7294 33.0992 9.7294 27.6617 C 9.7294 26.9973 9.7954 26.3474 9.9215 25.7181 C 9.1507 25.9942 8.3199 26.1451 7.4548 26.1451 C 3.4192 26.1451 0.1491 22.8759 0.1491 18.8394 C 0.1491 14.8046 3.4192 11.5337 7.4548 11.5337 C 8.2976 11.5337 9.1078 11.6768 9.8623 11.9392 C 9.7749 11.4171 9.7294 10.8778 9.7294 10.3282 L 9.7294 10.3282 L 9.7294 10.3282 Z " stroke-width="0.8573749661445618"/>
    <path id="ID0.7789692673832178" fill="url(#grad_3-.8573749661445618,0,0,0.8573749661445618,-23,-48.449999999999996)" d="M 31.3147 15.3841 L 79.885 15.3841 L 79.885 22.7867 L 31.3147 22.7867 L 31.3147 15.3841 L 31.3147 15.3841 Z " stroke-width="0.8573749661445618"/>
    <path id="ID0.578137279022485" fill="url(#grad_4-.8573749661445618,0,0,0.8573749661445618,-23,-48.449999999999996)" d="M 31.8566 15.5642 C 31.8566 14.8671 32.3821 14.3004 33.0303 14.3004 L 33.0303 14.3004 C 33.6785 14.3004 34.2041 14.8663 34.2041 15.5642 L 34.2041 22.6067 C 34.2041 23.3046 33.6785 23.8713 33.0303 23.8713 L 33.0303 23.8713 C 32.3821 23.8713 31.8566 23.3054 31.8566 22.6067 L 31.8566 15.5642 L 31.8566 15.5642 L 31.8566 15.5642 L 31.8566 15.5642 Z " stroke-width="0.8573749661445618"/>
    <path id="ID0.029240664094686508" fill="url(#grad_5-.8573749661445618,0,0,0.8573749661445618,-23,-48.449999999999996)" d="M 34.4741 15.5642 C 34.4741 14.8671 34.9997 14.3004 35.6479 14.3004 L 35.6479 14.3004 C 36.2961 14.3004 36.8216 14.8663 36.8216 15.5642 L 36.8216 22.6067 C 36.8216 23.3046 36.2961 23.8713 35.6479 23.8713 L 35.6479 23.8713 C 34.9997 23.8713 34.4741 23.3054 34.4741 22.6067 L 34.4741 15.5642 L 34.4741 15.5642 L 34.4741 15.5642 L 34.4741 15.5642 Z " stroke-width="0.8573749661445618"/>
    <path id="ID0.5972161572426558" fill="url(#grad_6-0.8573749661445618,0,0,0.8573749661445618,167.9,-48.449999999999996)" d="M 79.8647 7.0779 L 76.1643 7.0779 L 76.1643 15.7451 L 79.8647 15.7451 L 79.8647 7.0779 " stroke-width="0.8573749661445618"/>
    <path id="ID0.9351815329864621" fill="url(#grad_7-.1111111640930176,0,0,1.1111111640930176,-225.5,-187.55)" stroke="none" d="M 19.7778 11.8945 C 21.8467 11.8945 23.7222 12.7033 25.08 14.0111 C 26.4378 15.3189 27.2778 17.1245 27.2778 19.1167 C 27.2778 21.1089 26.4378 22.9145 25.08 24.2222 C 23.7222 25.53 21.8467 26.3389 19.7778 26.3389 C 17.7089 26.3389 15.8333 25.53 14.4756 24.2222 C 13.1178 22.9145 12.2778 21.1089 12.2778 19.1167 C 12.2778 17.1245 13.1178 15.3189 14.4756 14.0111 C 15.8333 12.7033 17.7089 11.8945 19.7778 11.8945 Z " stroke-width="1.1111111640930176"/>
  </g>
</svg>