<svg xmlns="http://www.w3.org/2000/svg" xmlns:xlink="http://www.w3.org/1999/xlink" version="1.1" width="79.70608592033386" height="144.65529704093933" viewBox="0.036910951137542725 -0.19809800386428833 79.70608592033386 144.65529704093933">
  <defs>
    <radialGradient id="grad_1" cx="0.4086" cy="0.4443" r="0.7688200000000001">
      <stop offset="0" stop-color="#E5E5E5" stop-opacity="1"/>
      <stop offset="1" stop-color="#B2B2B2" stop-opacity="1"/>
    </radialGradient>
    <radialGradient id="grad_2" cx="0.0837" cy="0.2682" r="1.19119">
      <stop offset="0" stop-color="#FFFFFF" stop-opacity="1"/>
      <stop offset="1" stop-color="#666666" stop-opacity="1"/>
    </radialGradient>
    <radialGradient id="grad_3" cx="0.13" cy="0.36340000000000006" r="1.131">
      <stop offset="0" stop-color="#9B8579" stop-opacity="1"/>
      <stop offset="1" stop-color="#C2B59B" stop-opacity="1"/>
    </radialGradient>
    <radialGradient id="grad_4" cx="0.1032" cy="0.2602" r="1.16584">
      <stop offset="0" stop-color="#9B8579" stop-opacity="1"/>
      <stop offset="1" stop-color="#C2B59B" stop-opacity="1"/>
    </radialGradient>
    <radialGradient id="grad_5" cx="0.6685" cy="0.3483" r="0.86905">
      <stop offset="0" stop-color="#594A42" stop-opacity="1"/>
      <stop offset="1" stop-color="#726658" stop-opacity="1"/>
    </radialGradient>
    <radialGradient id="grad_6" cx="0.7161" cy="0.2862" r="0.93093">
      <stop offset="0" stop-color="#594A42" stop-opacity="1"/>
      <stop offset="1" stop-color="#726658" stop-opacity="1"/>
    </radialGradient>
    <radialGradient id="grad_7" cx="0.2658" cy="0.1962" r="1.04494">
      <stop offset="0" stop-color="#9B8579" stop-opacity="1"/>
      <stop offset="1" stop-color="#C2B59B" stop-opacity="1"/>
    </radialGradient>
    <radialGradient id="grad_8" cx="0.2658" cy="0.11689999999999999" r="1.1480299999999999">
      <stop offset="0" stop-color="#9B8579" stop-opacity="1"/>
      <stop offset="1" stop-color="#C2B59B" stop-opacity="1"/>
    </radialGradient>
    <radialGradient id="grad_9" cx="0.2805" cy="0.35960000000000003" r="0.93535">
      <stop offset="0" stop-color="#594A42" stop-opacity="1"/>
      <stop offset="1" stop-color="#726658" stop-opacity="1"/>
    </radialGradient>
    <radialGradient id="grad_10" cx="0.24100000000000002" cy="0.3429" r="0.9867">
      <stop offset="0" stop-color="#594A42" stop-opacity="1"/>
      <stop offset="1" stop-color="#726658" stop-opacity="1"/>
    </radialGradient>
    <radialGradient id="grad_11" cx="0.5779" cy="0.1263" r="1.13581">
      <stop offset="0" stop-color="#C2B59B" stop-opacity="1"/>
      <stop offset="1" stop-color="#9B8579" stop-opacity="1"/>
    </radialGradient>
    <radialGradient id="grad_12" cx="0.5831000000000001" cy="0.0297" r="1.26139">
      <stop offset="0" stop-color="#C2B59B" stop-opacity="1"/>
      <stop offset="1" stop-color="#9B8579" stop-opacity="1"/>
    </radialGradient>
    <radialGradient id="grad_13" cx="0.43170000000000003" cy="0.1654" r="1.08498">
      <stop offset="0" stop-color="#594A42" stop-opacity="1"/>
      <stop offset="1" stop-color="#726658" stop-opacity="1"/>
    </radialGradient>
    <radialGradient id="grad_14" cx="0.3812" cy="0.1437" r="1.1131900000000001">
      <stop offset="0" stop-color="#594A42" stop-opacity="1"/>
      <stop offset="1" stop-color="#726658" stop-opacity="1"/>
    </radialGradient>
    <radialGradient id="grad_15" cx="0.43189999999999995" cy="0.1096" r="1.1575199999999999">
      <stop offset="0" stop-color="#C2B59B" stop-opacity="1"/>
      <stop offset="1" stop-color="#9B8579" stop-opacity="1"/>
    </radialGradient>
    <radialGradient id="grad_16" cx="0.43189999999999995" cy="0.0371" r="1.25177">
      <stop offset="0" stop-color="#C2B59B" stop-opacity="1"/>
      <stop offset="1" stop-color="#9B8579" stop-opacity="1"/>
    </radialGradient>
    <radialGradient id="grad_17" cx="0.27899999999999997" cy="0.2477" r="0.97799">
      <stop offset="0" stop-color="#594A42" stop-opacity="1"/>
      <stop offset="1" stop-color="#726658" stop-opacity="1"/>
    </radialGradient>
    <radialGradient id="grad_18" cx="0.19879999999999998" cy="0.26030000000000003" r="1.04156">
      <stop offset="0" stop-color="#594A42" stop-opacity="1"/>
      <stop offset="1" stop-color="#726658" stop-opacity="1"/>
    </radialGradient>
    <radialGradient id="grad_19" cx="0.45" cy="0.29" r="0.9229999999999999">
      <stop offset="0" stop-color="#594A42" stop-opacity="1"/>
      <stop offset="1" stop-color="#726658" stop-opacity="1"/>
    </radialGradient>
    <radialGradient id="grad_20" cx="0.4462" cy="0.0152" r="1.28024">
      <stop offset="0" stop-color="#594A42" stop-opacity="1"/>
      <stop offset="1" stop-color="#726658" stop-opacity="1"/>
    </radialGradient>
    <radialGradient id="grad_21" cx="0.6492" cy="0.8679000000000001" r="1.1282699999999999">
      <stop offset="0" stop-color="#9B8579" stop-opacity="1"/>
      <stop offset="1" stop-color="#C2B59B" stop-opacity="1"/>
    </radialGradient>
    <radialGradient id="grad_22" cx="0.7054" cy="0.9190999999999999" r="1.19483">
      <stop offset="0" stop-color="#9B8579" stop-opacity="1"/>
      <stop offset="1" stop-color="#C2B59B" stop-opacity="1"/>
    </radialGradient>
    <radialGradient id="grad_23" cx="0.49450000000000005" cy="0.8093" r="1.05209">
      <stop offset="0" stop-color="#594A42" stop-opacity="1"/>
      <stop offset="1" stop-color="#726658" stop-opacity="1"/>
    </radialGradient>
    <radialGradient id="grad_24" cx="0.4753" cy="0.7256" r="0.94328">
      <stop offset="0" stop-color="#594A42" stop-opacity="1"/>
      <stop offset="1" stop-color="#726658" stop-opacity="1"/>
    </radialGradient>
    <radialGradient id="grad_25" cx="0.6581999999999999" cy="0.9367" r="1.21771">
      <stop offset="0" stop-color="#9B8579" stop-opacity="1"/>
      <stop offset="1" stop-color="#C2B59B" stop-opacity="1"/>
    </radialGradient>
    <radialGradient id="grad_26" cx="0.6373" cy="0.9704999999999999" r="1.2616500000000002">
      <stop offset="0" stop-color="#9B8579" stop-opacity="1"/>
      <stop offset="1" stop-color="#C2B59B" stop-opacity="1"/>
    </radialGradient>
    <radialGradient id="grad_27" cx="0.494" cy="0.4639" r="0.6969299999999999">
      <stop offset="0" stop-color="#594A42" stop-opacity="1"/>
      <stop offset="1" stop-color="#726658" stop-opacity="1"/>
    </radialGradient>
    <radialGradient id="grad_28" cx="0.45880000000000004" cy="0.095" r="1.1765">
      <stop offset="0" stop-color="#594A42" stop-opacity="1"/>
      <stop offset="1" stop-color="#726658" stop-opacity="1"/>
    </radialGradient>
  <radialGradient id="grad_1-.275246798992157,0,0,0.275246798992157,-24.5,98.05" cx="27.1487" cy="133.3867" r="10.6898" gradientUnits="userSpaceOnUse">
      <stop offset="0" stop-color="#E5E5E5" stop-opacity="1"/>
      <stop offset="1" stop-color="#B2B2B2" stop-opacity="1"/>
    </radialGradient><radialGradient id="grad_3-.4577305316925049,0,0,0.4577305316925049,-78.25,-121.85" cx="67.2718" cy="82.8212" r="11.7499" gradientUnits="userSpaceOnUse">
      <stop offset="0" stop-color="#9B8579" stop-opacity="1"/>
      <stop offset="1" stop-color="#C2B59B" stop-opacity="1"/>
    </radialGradient><radialGradient id="grad_5-.4577305316925049,0,0,0.4577305316925049,-78.25,-121.85" cx="65.4831" cy="70.9972" r="16.4266" gradientUnits="userSpaceOnUse">
      <stop offset="0" stop-color="#594A42" stop-opacity="1"/>
      <stop offset="1" stop-color="#726658" stop-opacity="1"/>
    </radialGradient><radialGradient id="grad_7-.4577305316925049,0,0,0.4577305316925049,-78.25,-121.85" cx="22.7843" cy="83.6512" r="10.9987" gradientUnits="userSpaceOnUse">
      <stop offset="0" stop-color="#9B8579" stop-opacity="1"/>
      <stop offset="1" stop-color="#C2B59B" stop-opacity="1"/>
    </radialGradient><radialGradient id="grad_9-.4577305316925049,0,0,0.4577305316925049,-78.25,-121.85" cx="29.0315" cy="72.3396" r="17.7244" gradientUnits="userSpaceOnUse">
      <stop offset="0" stop-color="#594A42" stop-opacity="1"/>
      <stop offset="1" stop-color="#726658" stop-opacity="1"/>
    </radialGradient><radialGradient id="grad_11-.4577305316925049,0,0,0.4577305316925049,-78.35,-121.85" cx="33.371" cy="109.449" r="19.2774" gradientUnits="userSpaceOnUse">
      <stop offset="0" stop-color="#C2B59B" stop-opacity="1"/>
      <stop offset="1" stop-color="#9B8579" stop-opacity="1"/>
    </radialGradient><radialGradient id="grad_13-.4577305316925049,0,0,0.4577305316925049,-78.35,-121.85" cx="37.7801" cy="95.7313" r="19.5323" gradientUnits="userSpaceOnUse">
      <stop offset="0" stop-color="#594A42" stop-opacity="1"/>
      <stop offset="1" stop-color="#726658" stop-opacity="1"/>
    </radialGradient><radialGradient id="grad_15-.4577305316925049,0,0,0.4577305316925049,-78.35,-121.85" cx="64.0674" cy="109.2584" r="19.6456" gradientUnits="userSpaceOnUse">
      <stop offset="0" stop-color="#C2B59B" stop-opacity="1"/>
      <stop offset="1" stop-color="#9B8579" stop-opacity="1"/>
    </radialGradient><radialGradient id="grad_17-.4577305316925049,0,0,0.4577305316925049,-78.35,-121.85" cx="57.3183" cy="97.7372" r="17.606" gradientUnits="userSpaceOnUse">
      <stop offset="0" stop-color="#594A42" stop-opacity="1"/>
      <stop offset="1" stop-color="#726658" stop-opacity="1"/>
    </radialGradient><radialGradient id="grad_19-.4577305316925049,0,0,0.4577305316925049,-78.35,-121.85" cx="46.9726" cy="71.9644" r="30.5365" gradientUnits="userSpaceOnUse">
      <stop offset="0" stop-color="#594A42" stop-opacity="1"/>
      <stop offset="1" stop-color="#726658" stop-opacity="1"/>
    </radialGradient><radialGradient id="grad_21-.4577305316925049,0,0,0.4577305316925049,-78.35,-121.85" cx="71.5347" cy="35.7337" r="15.4829" gradientUnits="userSpaceOnUse">
      <stop offset="0" stop-color="#9B8579" stop-opacity="1"/>
      <stop offset="1" stop-color="#C2B59B" stop-opacity="1"/>
    </radialGradient><radialGradient id="grad_23-.4577305316925049,0,0,0.4577305316925049,-77.75,-121.6" cx="25.4172" cy="102.8336" r="40.1307" gradientUnits="userSpaceOnUse">
      <stop offset="0" stop-color="#594A42" stop-opacity="1"/>
      <stop offset="1" stop-color="#726658" stop-opacity="1"/>
    </radialGradient><radialGradient id="grad_25-.4577305316925049,0,0,0.4577305316925049,-78.35,-121.85" cx="15.2548" cy="42.4698" r="15.8025" gradientUnits="userSpaceOnUse">
      <stop offset="0" stop-color="#9B8579" stop-opacity="1"/>
      <stop offset="1" stop-color="#C2B59B" stop-opacity="1"/>
    </radialGradient><radialGradient id="grad_27-.4577305316925049,0,0,0.4577305316925049,-78.35,-121.85" cx="43.0877" cy="31.5063" r="43.6152" gradientUnits="userSpaceOnUse">
      <stop offset="0" stop-color="#594A42" stop-opacity="1"/>
      <stop offset="1" stop-color="#726658" stop-opacity="1"/>
    </radialGradient></defs>
  <!-- Exported by Scratch - http://scratch.mit.edu/ -->
  <g id="ID0.9854236710816622">
    <path id="ID0.3515064688399434" fill="#FFFFFF" stroke="#000000" stroke-width="0.7439915734681651" d="M 17.4898 123.9407 L 78.8943 123.9407 L 78.8943 143.6085 L 17.4898 143.6085 L 17.4898 123.9407 Z "/>
    <text id="ID0.9115317738614976" fill="#000000" text-anchor="start" font-family="Sans Serif" font-size="22" transform="matrix(0.612951 0 0 0.612951 37.6259 123.161)" stroke-width="1" alignment-baseline="text-before-edge" xml:space="preserve"><tspan x="0" style="white-space: pre" dy="1.13em">Joe</tspan></text>
    <path id="ID0.25286548025906086" fill="url(#grad_1-.275246798992157,0,0,0.275246798992157,-24.5,98.05)" stroke="url(#grad_2)" stroke-width="1.651480793952942" d="M 28.4506 127.3638 C 30.4156 127.3638 32.1959 128.1232 33.4854 129.3502 C 34.7747 130.5773 35.5726 132.2717 35.5726 134.1417 C 35.5726 136.0118 34.7747 137.7062 33.4854 138.9332 C 32.1959 140.1603 30.4156 140.9197 28.4506 140.9197 C 26.4856 140.9197 24.7053 140.1603 23.4158 138.9332 C 22.1265 137.7062 21.3286 136.0118 21.3286 134.1417 C 21.3286 132.2717 22.1265 130.5773 23.4158 129.3502 C 24.7053 128.1232 26.4856 127.3638 28.4506 127.3638 Z "/>
  </g>
  <g id="ID0.7185658742673695">
    <path id="Hand_1_" fill="url(#grad_3-.4577305316925049,0,0,0.4577305316925049,-78.25,-121.85)" stroke="url(#grad_4)" stroke-width="0.9154610633850098" d="M 66.4125 82.1751 C 66.4125 82.1751 64.9153 87.1878 66.7503 87.6304 C 68.5849 88.0739 68.6806 85.0987 68.6806 85.0987 C 68.6806 85.0987 72.0866 91.0991 75.6619 88.2062 C 79.2372 85.3143 73.7664 80.1067 73.7664 80.1067 C 73.7664 80.1067 71.99 78.9678 69.889 79.3917 C 67.7912 79.8142 66.4125 82.1751 66.4125 82.1751 L 66.4125 82.1751 L 66.4125 82.1751 L 66.4125 82.1751 L 66.4125 82.1751 L 66.4125 82.1751 L 66.4125 82.1751 L 66.4125 82.1751 L 66.4125 82.1751 L 66.4125 82.1751 L 66.4125 82.1751 L 66.4125 82.1751 L 66.4125 82.1751 Z "/>
    <path id="Arm_1_" fill="url(#grad_5-.4577305316925049,0,0,0.4577305316925049,-78.25,-121.85)" stroke="url(#grad_6)" stroke-width="0.9154610633850098" d="M 55.042 69.4118 C 56.4459 69.6434 61.7666 70.5653 63.9097 73.5607 C 66.6158 77.3452 67.5331 80.3017 67.534 80.3346 C 67.6136 82.8457 72.0747 84.1429 72.0747 79.7643 L 72.0747 79.7643 C 72.0522 79.5739 71.4613 75.062 67.2964 70.481 C 62.5557 65.2689 55.5034 64.6422 53.4528 64.7942 C 53.4528 64.7942 52.0467 64.991 52.2027 66.594 C 52.3561 68.1956 55.042 69.4118 55.042 69.4118 L 55.042 69.4118 L 55.042 69.4118 L 55.042 69.4118 L 55.042 69.4118 L 55.042 69.4118 L 55.042 69.4118 L 55.042 69.4118 L 55.042 69.4118 L 55.042 69.4118 L 55.042 69.4118 L 55.042 69.4118 L 55.042 69.4118 Z "/>
    <path id="Hand" fill="url(#grad_7-.4577305316925049,0,0,0.4577305316925049,-78.25,-121.85)" stroke="url(#grad_8)" stroke-width="0.9154610633850098" d="M 26.0608 81.7014 C 23.9246 81.5307 22.2965 82.8727 22.2965 82.8727 C 22.2965 82.8727 17.4839 88.6946 21.3778 91.1403 C 25.2717 93.5882 27.9398 87.2244 27.9398 87.2244 C 27.9398 87.2244 28.3879 90.1676 30.1575 89.5094 C 31.9271 88.8511 29.8444 84.0523 29.8444 84.0523 C 29.8444 84.0523 28.1948 81.8721 26.0608 81.7014 L 26.0608 81.7014 L 26.0608 81.7014 L 26.0608 81.7014 L 26.0608 81.7014 L 26.0608 81.7014 L 26.0608 81.7014 L 26.0608 81.7014 L 26.0608 81.7014 L 26.0608 81.7014 L 26.0608 81.7014 L 26.0608 81.7014 L 26.0608 81.7014 Z "/>
    <path id="Arm" fill="url(#grad_9-.4577305316925049,0,0,0.4577305316925049,-78.25,-121.85)" stroke="url(#grad_10)" stroke-width="0.9154610633850098" d="M 42.1011 66.8924 C 42.0654 65.2821 40.6455 65.2547 40.6455 65.2547 C 38.5917 65.3476 31.6639 66.8078 27.5768 72.5463 C 23.9859 77.5905 23.9356 82.1399 23.9361 82.3321 L 23.9361 82.3321 C 24.4569 86.6797 28.7317 84.862 28.5124 82.3592 C 28.5097 82.3262 29.0681 79.2809 31.306 75.2016 C 33.0769 71.9732 38.2502 70.4247 39.617 70.0279 C 39.6165 70.0274 42.1386 68.5004 42.1011 66.8924 L 42.1011 66.8924 L 42.1011 66.8924 L 42.1011 66.8924 L 42.1011 66.8924 L 42.1011 66.8924 L 42.1011 66.8924 L 42.1011 66.8924 L 42.1011 66.8924 L 42.1011 66.8924 L 42.1011 66.8924 L 42.1011 66.8924 L 42.1011 66.8924 Z "/>
    <path id="Foot_1_" fill="url(#grad_11-.4577305316925049,0,0,0.4577305316925049,-78.35,-121.85)" stroke="url(#grad_12)" stroke-width="0.9154610633850098" stroke-linecap="round" stroke-linejoin="round" d="M 42.2199 116.5731 C 42.2199 116.5731 40.8421 107.6117 30.778 108.0246 C 20.7134 108.4384 21.0787 114.3577 21.1954 115.8829 C 21.4719 119.4669 26.2973 119.3992 26.2973 119.3992 L 42.2895 117.7454 L 42.2199 116.5731 L 42.2199 116.5731 L 42.2199 116.5731 L 42.2199 116.5731 L 42.2199 116.5731 L 42.2199 116.5731 L 42.2199 116.5731 L 42.2199 116.5731 L 42.2199 116.5731 L 42.2199 116.5731 L 42.2199 116.5731 L 42.2199 116.5731 L 42.2199 116.5731 Z "/>
    <path id="Leg_1_" fill="url(#grad_13-.4577305316925049,0,0,0.4577305316925049,-78.35,-121.85)" stroke="url(#grad_14)" stroke-width="0.9154610633850098" d="M 38.3475 115.4215 C 36.9267 114.5527 35.9215 112.3552 35.4391 110.5384 C 34.7049 107.7724 34.2233 105.8188 34.9813 100.8556 C 35.4194 97.9902 37.4631 94.0317 37.4631 94.0317 C 37.4631 94.0317 38.948 90.704 41.3923 92.0003 C 42.6886 92.6952 41.3923 96.5131 41.3923 96.5131 C 41.3923 96.5131 40.3656 99.6911 40.0827 104.7843 C 39.8768 108.507 42.105 113.4812 41.542 115.497 C 41.3305 116.255 39.7697 116.2916 38.3475 115.4215 L 38.3475 115.4215 L 38.3475 115.4215 L 38.3475 115.4215 L 38.3475 115.4215 L 38.3475 115.4215 L 38.3475 115.4215 L 38.3475 115.4215 L 38.3475 115.4215 L 38.3475 115.4215 L 38.3475 115.4215 L 38.3475 115.4215 L 38.3475 115.4215 Z "/>
    <path id="Foot" fill="url(#grad_15-.4577305316925049,0,0,0.4577305316925049,-78.35,-121.85)" stroke="url(#grad_16)" stroke-width="0.9154610633850098" stroke-linecap="round" stroke-linejoin="round" d="M 54.942 117.7449 L 70.9338 119.3987 C 70.9338 119.3987 75.7587 119.4665 76.0356 115.8824 C 76.1528 114.3573 76.5176 108.4379 66.4526 108.0241 C 56.3885 107.6112 55.0107 116.5727 55.0107 116.5727 L 54.942 117.7449 L 54.942 117.7449 L 54.942 117.7449 L 54.942 117.7449 L 54.942 117.7449 L 54.942 117.7449 L 54.942 117.7449 L 54.942 117.7449 L 54.942 117.7449 L 54.942 117.7449 L 54.942 117.7449 L 54.942 117.7449 L 54.942 117.7449 Z "/>
    <path id="Leg" fill="url(#grad_17-.4577305316925049,0,0,0.4577305316925049,-78.35,-121.85)" stroke="url(#grad_18)" stroke-width="0.9154610633850098" d="M 55.6886 115.4975 C 55.1261 113.4816 57.3543 108.5075 57.1478 104.7847 C 56.865 99.6916 55.8383 96.5136 55.8383 96.5136 C 55.8383 96.5136 54.542 92.6952 55.8383 92.0008 C 58.2826 90.7045 59.7674 94.0322 59.7674 94.0322 C 59.7674 94.0322 61.8112 97.9907 62.2488 100.856 C 63.0068 105.8197 62.5257 107.7728 61.7911 110.5389 C 61.3086 112.3556 60.3034 114.5532 58.8826 115.4219 C 57.4614 116.2916 55.9001 116.255 55.6886 115.4975 L 55.6886 115.4975 L 55.6886 115.4975 L 55.6886 115.4975 L 55.6886 115.4975 L 55.6886 115.4975 L 55.6886 115.4975 L 55.6886 115.4975 L 55.6886 115.4975 L 55.6886 115.4975 L 55.6886 115.4975 L 55.6886 115.4975 L 55.6886 115.4975 Z "/>
    <path id="Body" fill="url(#grad_19-.4577305316925049,0,0,0.4577305316925049,-78.35,-121.85)" stroke="url(#grad_20)" stroke-width="0.9154610633850098" d="M 60.3597 93.0609 C 62.8709 89.5968 63.6261 84.7242 62.3815 80.0279 C 61.3278 76.0512 61.7572 77.5837 59.3134 72.0616 C 53.773 59.5413 42.2885 58.0527 37.8161 67.2293 C 36.0922 70.7662 35.7123 72.4612 35.7137 72.4809 L 35.7197 72.5701 L 35.6908 72.6594 C 35.6666 72.7317 33.268 79.9382 34.0352 86.2169 C 34.7497 92.0644 40.3249 97.9847 49.599 97.9847 C 50.0301 97.9847 50.4723 97.9723 50.9126 97.9472 C 54.9439 97.716 58.2098 96.0261 60.3597 93.0609 L 60.3597 93.0609 L 60.3597 93.0609 L 60.3597 93.0609 L 60.3597 93.0609 L 60.3597 93.0609 L 60.3597 93.0609 L 60.3597 93.0609 L 60.3597 93.0609 L 60.3597 93.0609 L 60.3597 93.0609 L 60.3597 93.0609 L 60.3597 93.0609 Z "/>
    <path id="Ear_1_" fill="url(#grad_21-.4577305316925049,0,0,0.4577305316925049,-78.35,-121.85)" stroke="url(#grad_22)" stroke-width="0.9154610633850098" d="M 68.2176 37.8554 C 68.2176 37.8554 70.8587 37.6828 72.8183 36.3751 C 75.7372 34.4265 76.3336 30.0103 73.5763 25.7214 C 70.8193 21.4329 68.4785 21.2952 66.3775 22.3296 C 64.8862 23.0638 64.5361 24.9977 64.4752 25.4253 L 64.4628 25.4747 C 66.9286 31.6238 67.2609 37.0969 67.2609 37.0969 C 67.2609 37.0969 67.9576 37.4219 68.2176 37.8554 L 68.2176 37.8554 L 68.2176 37.8554 L 68.2176 37.8554 L 68.2176 37.8554 L 68.2176 37.8554 L 68.2176 37.8554 L 68.2176 37.8554 L 68.2176 37.8554 L 68.2176 37.8554 L 68.2176 37.8554 L 68.2176 37.8554 L 68.2176 37.8554 Z "/>
    <path id="Tail" fill="url(#grad_23-.4577305316925049,0,0,0.4577305316925049,-77.75,-121.6)" stroke="url(#grad_24)" stroke-width="0.9154610633850098" d="M 35.8496 105.2064 C 32.0152 106.5279 27.2964 107.2305 21.5542 106.6913 C 8.5157 105.4682 2.3895 94.6598 0.9719 89.1153 C 0.5961 87.6456 1.4827 86.1483 2.952 85.7734 C 4.4218 85.399 5.9176 86.2847 6.293 87.7545 C 6.423 88.247 9.6752 100.0606 22.0673 101.2237 C 39.1965 102.8312 45.0367 91.404 45.2774 90.9165 C 45.9457 89.5621 47.5858 88.9927 48.9443 89.6532 C 50.3033 90.3128 50.8778 91.9391 50.225 93.3017 C 50.0053 93.7586 46.0789 101.6823 35.8496 105.2064 L 35.8496 105.2064 L 35.8496 105.2064 L 35.8496 105.2064 L 35.8496 105.2064 L 35.8496 105.2064 L 35.8496 105.2064 L 35.8496 105.2064 L 35.8496 105.2064 L 35.8496 105.2064 L 35.8496 105.2064 L 35.8496 105.2064 L 35.8496 105.2064 L 35.8496 105.2064 Z "/>
    <path id="Ear" fill="url(#grad_25-.4577305316925049,0,0,0.4577305316925049,-78.35,-121.85)" stroke="url(#grad_26)" stroke-width="0.9154610633850098" d="M 18.6486 30.8938 C 18.6486 30.8938 18.2879 28.5859 16.8451 28.2252 C 15.4024 27.8645 11.9401 27.6485 9.7759 32.2647 C 7.6118 36.8809 8.7886 41.1794 11.9401 42.7243 C 13.6657 43.5697 15.7447 43.4672 16.4515 43.4012 C 16.4515 43.4012 17.6832 42.0798 18.0014 41.7978 C 18.0014 41.7974 17.7144 37.0814 18.6729 31.2009 L 18.6486 30.8938 L 18.6486 30.8938 L 18.6486 30.8938 L 18.6486 30.8938 L 18.6486 30.8938 L 18.6486 30.8938 L 18.6486 30.8938 L 18.6486 30.8938 L 18.6486 30.8938 L 18.6486 30.8938 L 18.6486 30.8938 L 18.6486 30.8938 L 18.6486 30.8938 Z "/>
    <path id="Head_1_" fill="url(#grad_27-.4577305316925049,0,0,0.4577305316925049,-78.35,-121.85)" stroke="url(#grad_28)" stroke-width="0.9154610633850098" d="M 68.1901 37.3414 C 68.1947 37.4228 69.9931 38.6734 70.6413 39.5687 L 71.9458 42.8643 C 72.3802 43.962 72.8759 48.2912 72.4951 50.9662 C 72.144 53.3844 71.6144 56.2291 69.7716 57.9694 C 66.3968 61.1818 62.2488 63.935 57.6189 65.0871 C 49.5665 67.076 41.0522 67.4925 32.7412 66.941 C 28.5891 66.6389 24.9415 65.1004 21.481 63.2105 C 19.207 61.9274 17.3166 60.4325 15.9883 58.4043 C 14.7995 56.3546 14.3761 54.0577 14.2489 51.4926 C 14.172 48.8904 15.2293 46.5298 16.1027 43.8485 C 16.3567 43.0763 17.447 42.7691 17.6306 41.9887 L 18.5058 33.1147 C 18.8042 30.3047 18.8363 31.8445 19.1695 30.9176 C 20.4401 27.3908 21.6147 23.7994 23.2204 20.4126 C 24.1258 18.5263 25.1378 17.0158 26.4016 15.5836 C 27.4604 14.2548 28.7278 13.2931 30.1321 12.1964 C 31.4637 11.1816 32.6597 10.6621 34.3693 9.4372 L 34.3826 9.3832 C 34.3346 8.7973 34.314 7.5545 34.6893 5.6572 C 35.2294 2.9287 36.8809 0.6506 36.8809 0.6506 C 36.8809 0.6506 37.3158 3.0074 38.4944 4.7129 C 39.7074 6.4679 40.7716 6.9902 40.7716 6.9902 C 40.7716 6.9902 40.4022 5.6275 40.4617 4.5422 C 40.583 2.3387 41.6409 1.2452 41.6409 1.2452 C 41.6409 1.2452 42.9234 4.3811 44.5255 6.1891 C 46.2388 8.123 48.3137 9.3878 48.3137 9.3878 L 48.3439 9.396 C 66.7684 13.9779 66.5345 34.7845 68.1769 37.0969 L 68.1901 37.3414 Z "/>
    <path id="ID0.11469296598806977" fill="#66584C" stroke="#66584C" stroke-width="1.6973960399627686" d="M 48.1526 89.0797 C 48.7967 89.0797 49.3798 89.3649 49.8024 89.8257 C 50.2251 90.2866 50.4865 90.9231 50.4865 91.6258 C 50.4865 92.3285 50.2251 92.9651 49.8024 93.4259 C 49.3798 93.8867 48.7967 94.1719 48.1526 94.1719 C 47.5084 94.1719 46.9254 93.8867 46.5027 93.4259 C 46.0801 92.9651 45.8187 92.3285 45.8187 91.6258 C 45.8187 90.9231 46.0801 90.2866 46.5027 89.8257 C 46.9254 89.3649 47.5084 89.0797 48.1526 89.0797 Z "/>
  </g>
</svg>