<svg version="1.1" xmlns="http://www.w3.org/2000/svg" xmlns:xlink="http://www.w3.org/1999/xlink" width="20.31" height="26.79"><g transform="translate(-229.78,-153.67)"><g data-paper-data="{&quot;isPaintingLayer&quot;:true}" fill="none" fill-rule="nonzero" stroke="none" stroke-width="1" stroke-linecap="butt" stroke-linejoin="miter" stroke-miterlimit="10" stroke-dasharray="" stroke-dashoffset="0" font-family="none" font-weight="none" font-size="none" text-anchor="none" style="mix-blend-mode: normal"><path d="M237.19,180.46c-3.68,0 -7.41,-2.4 -7.41,-7c0,-2.19 1.54,-4.01 3.58,-4.41c-0.17,-0.48 -0.27,-1 -0.27,-1.55c0,-0.21 0.01,-0.4 0.04,-0.59c-1.79,-0.5 -2.82,-2.02 -2.82,-3.49c0,-0.43 0.06,-1.09 0.33,-1.76v-1.11c0,-2.21 1.69,-3.88 3.94,-3.88h9.98c2.26,0 3.96,1.57 3.96,3.66c0,1.84 -0.99,2.89 -1.46,3.4l-0.04,0.04c1.78,1.22 3.07,3.32 3.07,6.1c-0.01,6.54 -4.95,10.59 -12.9,10.59z" data-paper-data="{&quot;origPos&quot;:null}" fill="#000000" opacity="0.35"/><path d="M238.06,171.52c0.55,-0.15 1.02,-0.39 1.44,-0.6c0.63,-0.32 1.27,-0.65 2.39,-0.71c-0.01,2.01 -2.32,2.42 -3.58,2.5c-0.02,-0.4 -0.1,-0.8 -0.25,-1.19z" data-paper-data="{&quot;origPos&quot;:null}" fill="#000000" opacity="0.35"/><path d="M229.78,170.46c0,-2.19 1.54,-4.01 3.58,-4.41c-0.17,-0.48 -0.27,-1 -0.27,-1.55c0,-0.21 0.01,-0.4 0.04,-0.59c-1.79,-0.5 -2.82,-2.02 -2.82,-3.49c0,-0.43 0.06,-1.09 0.33,-1.76v-1.11c0,-2.21 1.69,-3.88 3.94,-3.88h9.98c2.26,0 3.96,1.57 3.96,3.66c0,1.84 -0.99,2.89 -1.46,3.4l-0.04,0.04c1.78,1.22 3.07,3.32 3.07,6.1c-0.01,6.54 -4.95,10.59 -12.9,10.59c-3.68,0 -7.41,-2.4 -7.41,-7zM238.31,169.71c1.26,-0.08 3.57,-0.49 3.58,-2.5c-1.11,0.06 -1.73,0.38 -2.39,0.71c-0.42,0.21 -0.89,0.45 -1.44,0.6c0.15,0.39 0.23,0.79 0.25,1.19z" data-paper-data="{&quot;origPos&quot;:null}" fill="#ffffff"/><path d="M237.19,174.96c-2.36,0 -4.91,-1.41 -4.91,-4.5c0,-1.1 0.85,-1.99 1.9,-1.99c1.2,0 1.63,0.76 1.63,1.41c0,0.61 -0.23,0.81 -0.46,0.95c0.31,0.96 1.07,1.39 2.44,1.39c4,0 6.59,-1.97 6.59,-5.02c0,-1.21 -0.66,-2.51 -2.12,-2.51c-1.95,0 -3.08,0.57 -3.9,0.99c-0.52,0.26 -0.92,0.47 -1.36,0.47c-0.8,0 -1.41,-0.71 -1.41,-1.66c0,-0.89 0.56,-1.09 1.16,-1.3c0.45,-0.16 0.96,-0.34 1.45,-0.83l3.37,-3.49h-5.61v0.58c0.13,0.2 0.19,0.48 0.19,0.83c0,0.65 -0.85,1.3 -1.71,1.3c-1.06,0 -1.63,-0.6 -1.63,-1.16c0,-0.38 0.09,-0.86 0.33,-1.09v-1.78c0,-0.84 0.56,-1.38 1.44,-1.38h9.98c0.89,0 1.46,0.46 1.46,1.16c0,0.79 -0.36,1.23 -0.79,1.69l-3.05,3.1c0.29,-0.03 0.62,-0.04 1.05,-0.04c2.11,0 4.36,1.68 4.36,4.8c-0.01,5.06 -3.9,8.08 -10.4,8.08z" data-paper-data="{&quot;origPos&quot;:null}" fill="#f7931e"/></g></g></svg>