<svg version="1.1" xmlns="http://www.w3.org/2000/svg" xmlns:xlink="http://www.w3.org/1999/xlink" width="189.90189" height="135.75" viewBox="0,0,189.90189,135.75"><g transform="translate(-149.35911,-100.629)"><g data-paper-data="{&quot;isPaintingLayer&quot;:true}" fill-rule="nonzero" stroke="none" stroke-width="1" stroke-linecap="butt" stroke-linejoin="miter" stroke-miterlimit="10" stroke-dasharray="" stroke-dashoffset="0" style="mix-blend-mode: normal"><path d="M286.75,223.748c0,-6.97591 5.65509,-12.631 12.631,-12.631c6.97591,0 12.631,5.65509 12.631,12.631c0,6.97591 -5.65509,12.631 -12.631,12.631c-6.97591,0 -12.631,-5.65509 -12.631,-12.631z" fill="#d6d6d6"/><path d="M202.886,154.629v-54h31.458v54z" fill="#d6f6ff"/><path d="M293.636,154.629h-34.625v-38h24.25v15.375l10.375,2.5z" fill="#d6f6ff"/><path d="M259.011,197.879v-18.5h23v18.5z" fill="#d6f6ff"/><path d="M298.761,154.629v-19h19v19z" fill="#d6f6ff"/><path d="M321.761,154.629v-9.5h17.5v9.5z" fill="#d6f6ff"/><path d="M204.511,188.838h-5.5v4.541h-12v-4.541v-9.5h12h5.5z" fill="#d6f6ff"/><path d="M315.261,194.629h-29v-15.25h31.188z" fill="#d6f6ff"/><path d="M259.011,220.607v-17.978h16.25v17.978z" fill="#d6f6ff"/><path d="M275.851,226.591l-0.826,8.873l-16.014,-1.489v-9.85h10.629v1.888z" fill="#d6f6ff"/><path d="M234.345,186.879v17.333h-25.5v-24.833h18z" fill="#d6f6ff"/><path d="M182.37061,208.67785l-1.6969,17.66835l-7.79796,-0.74893l1.6969,-17.66835z" fill="#d6f6ff"/><path d="M170.6118,207.54792l-1.6969,17.66835l-7.79796,-0.74893l1.6969,-17.66835z" fill="#d6f6ff"/><path d="M158.85398,206.41808l-1.6969,17.66835l-7.79796,-0.74893l1.6969,-17.66835z" fill="#d6f6ff"/><path d="M234.345,224.083v4.964h-19.584v-4.964h1.5v-10.454h-1.5v-5.704h19.584v5.704h-1.334v10.454z" fill="#d6f6ff"/><path d="M184.60661,227.28523l1.06901,-13.10561l15.82261,1.29064l-1.06901,13.10561z" fill="#d6f6ff"/><path d="M163.261,197.879v-18.5h19.11v18.5z" fill="#d6f6ff"/></g></g></svg>