<svg xmlns="http://www.w3.org/2000/svg" xmlns:xlink="http://www.w3.org/1999/xlink" version="1.1" width="39.506500244140625" height="53.784000396728516" viewBox="0.2901999354362488 0.38499999046325684 39.506500244140625 53.784000396728516">
  <defs>
    <radialGradient id="grad_1" cx="0.8636" cy="0.9573" r="1.2444899999999999">
      <stop offset="0" stop-color="#000000" stop-opacity="1"/>
      <stop offset="1" stop-color="#E5E5E5" stop-opacity="1"/>
    </radialGradient>
    <radialGradient id="grad_2" cx="0.9677" cy="0.9786" r="1.27218">
      <stop offset="0" stop-color="#666666" stop-opacity="1"/>
      <stop offset="1" stop-color="#FFFFFF" stop-opacity="1"/>
    </radialGradient>
    <radialGradient id="grad_3" cx="0.3464" cy="0.3225" r="0.88075">
      <stop offset="0" stop-color="#FF9400" stop-opacity="1"/>
      <stop offset="1" stop-color="#995900" stop-opacity="1"/>
    </radialGradient>
    <radialGradient id="grad_4" cx="0.3464" cy="0.3225" r="0.88075">
      <stop offset="0" stop-color="#FF9400" stop-opacity="1"/>
      <stop offset="1" stop-color="#995900" stop-opacity="1"/>
    </radialGradient>
    <radialGradient id="grad_5" cx="0.3464" cy="0.3225" r="0.88075">
      <stop offset="0" stop-color="#FF9400" stop-opacity="1"/>
      <stop offset="1" stop-color="#995900" stop-opacity="1"/>
    </radialGradient>
    <radialGradient id="grad_6" cx="0.3464" cy="0.3225" r="0.88075">
      <stop offset="0" stop-color="#FF9400" stop-opacity="1"/>
      <stop offset="1" stop-color="#995900" stop-opacity="1"/>
    </radialGradient>
    <radialGradient id="grad_7" cx="0.3464" cy="0.3225" r="0.88075">
      <stop offset="0" stop-color="#FF9400" stop-opacity="1"/>
      <stop offset="1" stop-color="#995900" stop-opacity="1"/>
    </radialGradient>
    <radialGradient id="grad_8" cx="0.3215" cy="0.4019" r="0.88205">
      <stop offset="0" stop-color="#FF0000" stop-opacity="1"/>
      <stop offset="1" stop-color="#990000" stop-opacity="1"/>
    </radialGradient>
  <radialGradient id="grad_1-.25878655910491943,0,0,0.25878655910491943,-45.650000000000006,-19.05000000000001" cx="34.2896" cy="51.5308" r="54.6377" gradientUnits="userSpaceOnUse">
      <stop offset="0" stop-color="#000000" stop-opacity="1"/>
      <stop offset="1" stop-color="#E5E5E5" stop-opacity="1"/>
    </radialGradient><radialGradient id="grad_2-.25878655910491943,0,0,0.25878655910491943,-47.150000000000006,-21.5" cx="36.6014" cy="50.1419" r="56.1995" gradientUnits="userSpaceOnUse">
      <stop offset="0" stop-color="#666666" stop-opacity="1"/>
      <stop offset="1" stop-color="#FFFFFF" stop-opacity="1"/>
    </radialGradient><radialGradient id="grad_3-.1353132426738739,0,0,0.13615599274635315,-5.25,0.75" cx="10.441" cy="14.0083" r="8.7283" gradientUnits="userSpaceOnUse">
      <stop offset="0" stop-color="#FF9400" stop-opacity="1"/>
      <stop offset="1" stop-color="#995900" stop-opacity="1"/>
    </radialGradient><radialGradient id="grad_4-.1353132426738739,0,0,0.13615599274635315,9.150000000000006,0.75" cx="24.841" cy="14.0083" r="8.7283" gradientUnits="userSpaceOnUse">
      <stop offset="0" stop-color="#FF9400" stop-opacity="1"/>
      <stop offset="1" stop-color="#995900" stop-opacity="1"/>
    </radialGradient><radialGradient id="grad_5-.1353132426738739,0,0,0.13615599274635315,-5.300000000000011,13.25" cx="10.391" cy="26.5083" r="8.7283" gradientUnits="userSpaceOnUse">
      <stop offset="0" stop-color="#FF9400" stop-opacity="1"/>
      <stop offset="1" stop-color="#995900" stop-opacity="1"/>
    </radialGradient><radialGradient id="grad_6-.1353132426738739,0,0,0.13615599274635315,9.050000000000011,13.25" cx="24.741" cy="26.5083" r="8.7283" gradientUnits="userSpaceOnUse">
      <stop offset="0" stop-color="#FF9400" stop-opacity="1"/>
      <stop offset="1" stop-color="#995900" stop-opacity="1"/>
    </radialGradient><radialGradient id="grad_7-.1353132426738739,0,0,0.13615599274635315,-5.550000000000011,25.80000000000001" cx="10.141" cy="39.0583" r="8.7283" gradientUnits="userSpaceOnUse">
      <stop offset="0" stop-color="#FF9400" stop-opacity="1"/>
      <stop offset="1" stop-color="#995900" stop-opacity="1"/>
    </radialGradient><radialGradient id="grad_8-.1353132426738739,0,0,0.13615599274635315,9.050000000000011,25.80000000000001" cx="24.4934" cy="39.8423" r="8.7412" gradientUnits="userSpaceOnUse">
      <stop offset="0" stop-color="#FF0000" stop-opacity="1"/>
      <stop offset="1" stop-color="#990000" stop-opacity="1"/>
    </radialGradient></defs>
  <!-- Exported by Scratch - http://scratch.mit.edu/ -->
  <g id="ID0.4760909271426499">
    <path id="ID0.26244490034878254" fill="url(#grad_1-.25878655910491943,0,0,0.25878655910491943,-45.650000000000006,-19.05000000000001)" stroke="#000000" stroke-width="0.7763596773147583" d="M 2.6137 49.7484 L 33.4481 51.4305 L 35.9454 50.1107 L 37.9769 3.5938 L 39.2967 5.5347 L 37.4852 52.1163 L 34.8973 53.669 L 6.3014 53.669 L 3.6747 52.2457 L 2.5878 50.2401 L 2.6137 49.7484 Z "/>
    <path id="ID0.26244490034878254" fill="url(#grad_2-.25878655910491943,0,0,0.25878655910491943,-47.150000000000006,-21.5)" stroke="#000000" stroke-width="0.7763596773147583" d="M 0.7902 3.2141 L 2.3429 0.885 L 36.3734 0.885 L 37.7967 3.0847 L 35.9852 49.6663 L 33.3973 51.219 L 4.8014 51.219 L 2.4723 49.7957 L 0.7902 3.2141 Z "/>
    <path id="ID0.7293737544678152" fill="url(#grad_3-.1353132426738739,0,0,0.13615599274635315,-5.25,0.75)" stroke="#000000" stroke-width="0.407205815302884" d="M 11.9686 10.8255 C 13.319 10.8439 14.9387 10.993 15.9198 11.9488 C 16.8395 12.8797 16.9365 14.4568 16.9414 15.7612 C 16.9466 17.0988 16.8178 18.6905 15.8792 19.6348 C 14.9129 20.5813 13.3167 20.7094 11.9686 20.6969 C 10.6666 20.685 9.1077 20.5512 8.1595 19.6348 C 7.2209 18.6786 6.9977 17.1078 6.9958 15.7612 C 6.9935 14.4425 7.1501 12.848 8.0851 11.8944 C 9.0476 10.9647 10.6282 10.8069 11.9686 10.8255 Z "/>
    <path id="ID0.7293737544678152" fill="url(#grad_4-.1353132426738739,0,0,0.13615599274635315,9.150000000000006,0.75)" stroke="#000000" stroke-width="0.407205815302884" d="M 26.3686 10.8255 C 27.719 10.8439 29.3387 10.993 30.3198 11.9488 C 31.2395 12.8797 31.3365 14.4568 31.3414 15.7612 C 31.3466 17.0988 31.2178 18.6905 30.2792 19.6348 C 29.3129 20.5813 27.7167 20.7094 26.3686 20.6969 C 25.0666 20.685 23.5077 20.5512 22.5595 19.6348 C 21.6209 18.6786 21.3977 17.1078 21.3958 15.7612 C 21.3935 14.4425 21.5501 12.848 22.4851 11.8944 C 23.4476 10.9647 25.0282 10.8069 26.3686 10.8255 Z "/>
    <path id="ID0.7293737544678152" fill="url(#grad_5-.1353132426738739,0,0,0.13615599274635315,-5.300000000000011,13.25)" stroke="#000000" stroke-width="0.407205815302884" d="M 11.9186 23.3255 C 13.269 23.3439 14.8887 23.493 15.8698 24.4488 C 16.7895 25.3797 16.8865 26.9568 16.8914 28.2612 C 16.8966 29.5988 16.7678 31.1905 15.8292 32.1348 C 14.8629 33.0813 13.2667 33.2094 11.9186 33.1969 C 10.6166 33.185 9.0577 33.0512 8.1095 32.1348 C 7.1709 31.1786 6.9477 29.6078 6.9458 28.2612 C 6.9435 26.9425 7.1001 25.348 8.0351 24.3944 C 8.9976 23.4647 10.5782 23.3069 11.9186 23.3255 Z "/>
    <path id="ID0.7293737544678152" fill="url(#grad_6-.1353132426738739,0,0,0.13615599274635315,9.050000000000011,13.25)" stroke="#000000" stroke-width="0.407205815302884" d="M 26.2686 23.3255 C 27.619 23.3439 29.2387 23.493 30.2198 24.4488 C 31.1395 25.3797 31.2365 26.9568 31.2414 28.2612 C 31.2466 29.5988 31.1178 31.1905 30.1792 32.1348 C 29.2129 33.0813 27.6167 33.2094 26.2686 33.1969 C 24.9666 33.185 23.4077 33.0512 22.4595 32.1348 C 21.5209 31.1786 21.2977 29.6078 21.2958 28.2612 C 21.2935 26.9425 21.4501 25.348 22.3851 24.3944 C 23.3476 23.4647 24.9282 23.3069 26.2686 23.3255 Z "/>
    <path id="ID0.7293737544678152" fill="url(#grad_7-.1353132426738739,0,0,0.13615599274635315,-5.550000000000011,25.80000000000001)" stroke="#000000" stroke-width="0.407205815302884" d="M 11.6686 35.8755 C 13.019 35.8939 14.6387 36.043 15.6198 36.9988 C 16.5395 37.9297 16.6365 39.5068 16.6414 40.8112 C 16.6466 42.1488 16.5178 43.7405 15.5792 44.6848 C 14.6129 45.6313 13.0167 45.7594 11.6686 45.7469 C 10.3666 45.735 8.8077 45.6012 7.8595 44.6848 C 6.9209 43.7286 6.6977 42.1578 6.6958 40.8112 C 6.6935 39.4925 6.8501 37.898 7.7851 36.9444 C 8.7476 36.0147 10.3282 35.8569 11.6686 35.8755 Z "/>
    <path id="ID0.7293737544678152" fill="url(#grad_8-.1353132426738739,0,0,0.13615599274635315,9.050000000000011,25.80000000000001)" stroke="#000000" stroke-width="0.407205815302884" d="M 26.2686 35.8755 C 27.619 35.8939 29.2387 36.043 30.2198 36.9988 C 31.1395 37.9297 31.2365 39.5068 31.2414 40.8112 C 31.2466 42.1488 31.1178 43.7405 30.1792 44.6848 C 29.2129 45.6313 27.6167 45.7594 26.2686 45.7469 C 24.9666 45.735 23.4077 45.6012 22.4595 44.6848 C 21.5209 43.7286 21.2977 42.1578 21.2958 40.8112 C 21.2935 39.4925 21.4501 37.898 22.3851 36.9444 C 23.3476 36.0147 24.9282 35.8569 26.2686 35.8755 Z "/>
    <g id="ID0.6030499343760312">
      <path id="ID0.21581144677475095" fill="#003FFF" stroke="#000000" stroke-width="0.11692157199943665" d="M 19.1201 3.2871 C 20.0284 3.2871 20.8515 3.3978 21.4475 3.5766 C 22.0436 3.7554 22.4125 4.0023 22.4125 4.2748 C 22.4125 4.5473 22.0436 4.7943 21.4475 4.973 C 20.8515 5.1519 20.0284 5.2625 19.1201 5.2625 C 18.2117 5.2625 17.3886 5.1519 16.7926 4.973 C 16.1965 4.7943 15.8276 4.5473 15.8276 4.2748 C 15.8276 4.0023 16.1965 3.7554 16.7926 3.5766 C 17.3886 3.3978 18.2117 3.2871 19.1201 3.2871 Z "/>
      <path id="ID0.43453060975298285" fill="#003FFF" stroke="none" stroke-linecap="round" d="M 17.5314 4.0825 L 17.8027 3.9332 L 18.511 3.8306 L 19.1704 3.7793 L 19.924 3.8003 L 20.4892 3.9332 L 20.8246 4.0849 L 20.8246 5.7759 L 20.9602 6.0442 L 21.3709 6.1911 L 21.8118 6.3007 L 16.5555 6.3007 L 17.0717 6.1841 L 17.3467 6.0558 L 17.5314 5.7573 L 17.5314 4.0825 Z " stroke-width="0.06267066956578457"/>
      <path id="ID0.21581144677475095" fill="#003FFF" stroke="#000000" stroke-width="0.17538235784806838" d="M 19.1801 8.9944 C 20.5427 8.9944 21.7773 8.8284 22.6713 8.5601 C 23.5654 8.292 24.1188 7.9215 24.1188 7.5128 C 24.1188 7.104 23.5654 6.7336 22.6713 6.4654 C 21.7773 6.1972 20.5427 6.0312 19.1801 6.0312 C 17.8175 6.0312 16.5829 6.1972 15.6889 6.4654 C 14.7948 6.7336 14.2414 7.104 14.2414 7.5128 C 14.2414 7.9215 14.7948 8.292 15.6889 8.5601 C 16.5829 8.8284 17.8175 8.9944 19.1801 8.9944 Z "/>
      <path id="ID0.2213963670656085" fill="#003FFF" stroke="#000000" stroke-width="0.18836347700824177" d="M 19.2469 9.1815 C 20.3375 9.1815 21.3257 9.0593 22.0413 8.8619 C 22.757 8.6644 23.1999 8.3918 23.1999 8.0909 C 23.1999 7.7899 22.757 7.5173 22.0413 7.3199 C 21.3257 7.1225 20.3375 7.0002 19.2469 7.0002 C 18.1563 7.0002 17.1681 7.1225 16.4525 7.3199 C 15.7369 7.5173 15.2939 7.7899 15.2939 8.0909 C 15.2939 8.3918 15.7369 8.6644 16.4525 8.8619 C 17.1681 9.0593 18.1563 9.1815 19.2469 9.1815 Z "/>
    </g>
  </g>
</svg>