<svg version="1.1" xmlns="http://www.w3.org/2000/svg" xmlns:xlink="http://www.w3.org/1999/xlink" width="21.95001" height="27.15"><g transform="translate(-229.38,-153.2)"><g data-paper-data="{&quot;isPaintingLayer&quot;:true}" fill="none" fill-rule="nonzero" stroke="none" stroke-width="1" stroke-linecap="butt" stroke-linejoin="miter" stroke-miterlimit="10" stroke-dasharray="" stroke-dashoffset="0" font-family="none" font-weight="none" font-size="none" text-anchor="none" style="mix-blend-mode: normal"><path d="M237.12,180.35c-3.12,0 -7.74,-2.21 -7.74,-6.94c0,-2.5 1.25,-4.8 2.85,-6.48c-0.28,-0.68 -0.46,-1.5 -0.46,-2.49c0,-4.85 3.85,-8.24 9.37,-8.24c4.98,0 7.24,3.03 7.24,5.84c0,0.57 -0.08,1.16 -0.22,1.74c1.8,1.06 3.17,2.87 3.17,5.43c0.01,6.47 -8.48,11.14 -14.21,11.14z" data-paper-data="{&quot;origPos&quot;:null}" fill="#000000" opacity="0.35"/><path d="M242.43,170.37c-0.97,0.92 -2.87,2.01 -4.59,2.21c0.73,-1.05 2.77,-2.19 4.59,-2.21z" data-paper-data="{&quot;origPos&quot;:null}" fill="#000000" opacity="0.35"/><path d="M229.38,170.41c0,-2.5 1.25,-4.8 2.85,-6.48c-0.28,-0.68 -0.46,-1.5 -0.46,-2.49c0,-4.85 3.85,-8.24 9.37,-8.24c4.98,0 7.24,3.03 7.24,5.84c0,0.57 -0.08,1.16 -0.22,1.74c1.8,1.06 3.17,2.87 3.17,5.43c0.01,6.47 -8.48,11.14 -14.21,11.14c-3.12,0 -7.74,-2.21 -7.74,-6.94zM237.84,169.58c1.72,-0.2 3.62,-1.29 4.59,-2.21c-1.82,0.02 -3.86,1.16 -4.59,2.21z" data-paper-data="{&quot;origPos&quot;:null}" fill="#ffffff"/><path d="M237.12,174.85c-1.83,0 -5.24,-1.3 -5.24,-4.44c0,-2.64 2.12,-5.04 3.79,-6.09c-0.94,-0.6 -1.4,-1.54 -1.4,-2.87c0,-3.96 3.45,-5.74 6.87,-5.74c3.28,0 4.74,1.68 4.74,3.34c0,1.1 -0.47,2.37 -1.15,3.17c1.75,0.2 4.1,1.37 4.1,3.99c0.01,4.77 -7.08,8.64 -11.71,8.64zM242.47,164.87c-3.34,0 -7.42,2.52 -7.42,5.46c0,1.03 1.57,1.79 2.23,1.79c3.43,0 8.3,-2.94 8.3,-5.68c0,-0.92 -1.28,-1.57 -3.11,-1.57zM240.65,158.34c-1.99,0 -3.28,1.16 -3.28,2.95c0,0.96 0.52,1.49 1.02,1.59c0.87,-0.32 2.3,-0.61 3.12,-0.72c0.6,-0.53 1.21,-1.53 1.21,-2.33c-0.01,-0.99 -0.7,-1.49 -2.07,-1.49z" data-paper-data="{&quot;origPos&quot;:null}" fill="#f7931e"/></g></g></svg>