<svg xmlns="http://www.w3.org/2000/svg" xmlns:xlink="http://www.w3.org/1999/xlink" version="1.1" width="90.05198669433594" height="139.40322875976562" viewBox="-0.4999980926513672 -0.5000195894390345 90.05198669433594 139.40322875976562"><g><g data-paper-data="{&quot;isPaintingLayer&quot;:true}" fill-rule="nonzero" stroke-linecap="butt" stroke-linejoin="miter" stroke-miterlimit="10" stroke-dasharray="" stroke-dashoffset="0" font-family="none" font-weight="none" font-size="none" text-anchor="none" style="mix-blend-mode: normal"><g data-paper-data="{&quot;origPos&quot;:null}"><path d="M 29.6727 85.0865 C 31.7185 85.7523 32.505 88.3857 31.8562 90.5666 C 30.2194 95.9383 30.3546 99.3458 29.5366 104.9365 C 28.7178 110.5294 27.319 114.8615 28.9907 120.1956 C 29.7755 122.755 32.2669 123.1597 31.4472 125.6768 C 30.7304 127.974 28.376 128.2692 26.1244 128.0481 C 25.0334 116.3435 21.3134 111.8644 22.7129 99.1589 C 23.0539 95.8984 21.5191 90.2325 23.1219 87.4566 C 24.5547 84.9736 27.1133 84.236 29.6727 85.0865 Z " data-paper-data="{&quot;origPos&quot;:null}" fill="#ff9cd1" stroke-width="1" stroke="none"/><path d="M 24.4195 88.6399 C 24.2859 91.238 23.5002 95.2304 23.3086 97.833 C 22.6233 107.1447 24.3971 115.2229 26.316 124.1823 C 26.4869 124.9803 26.1708 126.2959 27.1099 126.5843 C 28.9069 127.1406 30.338 123.5119 29.8253 122.0037 C 25.3553 119.5834 29.8262 94.307 30.8524 89.7252 C 31.4746 89.3695 32.0637 89.8438 32.6485 90.0433 C 31.6082 93.6708 27.6608 117.0754 29.6162 120.4624 C 30.8731 121.0871 33.8648 121.4382 34.2829 123.0799 C 36.0566 130.0419 28.3444 140.2827 24.1001 138.1053 C 22.7245 137.3974 25.0981 128.4824 25.2366 126.9343 C 25.7427 121.3026 23.3857 117.1404 22.5959 111.5269 C 21.7207 105.3047 21.4834 98.6356 22.1662 89.2259 C 22.3744 87.4703 21.6535 87.8658 24.4195 88.6399 Z " data-paper-data="{&quot;origPos&quot;:null}" fill="#272525" stroke-width="1" stroke="none"/><path d="M 25.2068 137.0109 C 24.8857 136.0008 25.6 134.2851 25.7294 133.3013 C 28.2366 134.7286 30.8989 128.6477 26.6072 128.0845 L 26.6072 127.4484 C 29.1259 128.4163 31.9699 125.9219 31.1195 122.4141 C 31.7268 122.5292 33.1563 123.2349 33.3263 123.9725 C 34.0938 127.3048 31.5534 136.0464 25.2068 137.0109 Z " data-paper-data="{&quot;origPos&quot;:null}" fill="#ff5ba1" stroke-width="1" stroke="none"/><path d="M 26.0231 132.1191 L 26.5242 129.489 C 28.2615 128.9749 28.2515 132.4463 26.0231 132.1191 Z " data-paper-data="{&quot;origPos&quot;:null}" fill="#ff9cd1" stroke-width="1" stroke="none"/></g><g><path d="M 49.4634 81.8306 C 51.8859 81.7154 53.2149 83.2362 54.9215 85.0865 C 59.1874 89.7172 60.7197 93.2011 64.8853 97.9744 C 67.3418 100.7879 73.0057 107.0854 75.8728 108.7886 C 79.578 110.9934 80.7851 113.6405 78.7384 114.2709 C 76.4511 114.9743 74.0966 115.1567 71.5721 113.8275 C 72.4614 110.4907 68.0586 108.0111 65.0213 105.0858 C 62.5308 102.7146 51.1707 91.5299 43.8675 87.7519 C 42.604 85.0112 46.6982 81.9731 49.4634 81.8306 Z " data-paper-data="{&quot;origPos&quot;:null}" fill="#ff9cd1" stroke-width="1" stroke="none"/><path d="M 54.8701 84.3649 C 59.3857 89.5702 73.5159 108.9585 79.7622 110.2695 C 82.173 110.7734 86.4174 112.3204 88.5985 114.434 C 91.3321 117.0811 81.2322 123.1563 71.0511 116.8371 C 69.4889 115.8681 70.5458 113.0044 70.7574 111.1678 C 65.3822 105.5988 50.668 92.0497 44.5487 88.4883 C 45.5525 88.1839 46.0934 87.2434 47.1388 87.9434 C 52.7553 91.702 65.7887 104.0256 70.5475 109.0782 C 71.2502 109.8226 72.9235 110.7152 72.6771 111.9351 C 75.0299 113.2871 76.7489 115.4862 77.776 111.2556 C 77.2351 110.7563 76.5747 110.5613 75.9799 110.1669 C 69.089 105.5829 58.9999 90.4571 52.4873 84.7684 C 52.4882 84.773 54.0819 84.5655 54.87 84.3649 Z " data-paper-data="{&quot;origPos&quot;:null}" fill="#272525" stroke-width="1" stroke="none"/><path d="M 80.9933 115.8396 C 83.8555 116.6365 83.7875 114.4876 84.2114 113.5744 C 85.2891 114.0452 88.1356 114.7908 87.5108 115.4543 C 82.188 121.0826 76.2512 117.9703 72.7651 116.0665 C 72.2474 115.2719 72.064 114.3074 72.1802 113.3441 C 74.4857 115.24 78.8944 116.0175 79.0744 111.6215 C 80.6955 112.4857 77.396 114.8352 80.9933 115.8396 Z " data-paper-data="{&quot;origPos&quot;:null}" fill="#ff5ba1" stroke-width="1" stroke="none"/><path d="M 83.2424 113.0842 C 82.5605 115.0826 81.672 114.8615 80.7868 114.3428 C 80.1587 113.6154 80.7013 113.0272 80.7013 112.1653 Z " data-paper-data="{&quot;origPos&quot;:null}" fill="#ff9cd1" stroke-width="1" stroke="none"/></g><path d="M 27.7645 45.3831 C 27.7645 42.6071 31.0739 42.3096 33.6325 42.1249 C 36.6009 41.9037 38.2725 41.5321 41.2418 41.5321 L 41.2418 61.1222 C 44.6872 62.3454 47.2118 61.4927 50.1453 63.7522 C 52.0236 65.1955 52.84 66.6034 55.06 67.3079 C 57.8907 68.1971 60.1108 69.1969 61.0649 72.1975 C 61.9849 75.0486 59.1866 76.566 58.8805 79.603 C 58.264 85.6029 50.5203 83.047 46.5954 87.3061 C 44.6524 89.4197 41.786 86.198 39.0226 86.5674 C 36.1554 86.939 35.5755 89.2704 32.812 90.0501 C 30.2526 90.79 29.1956 88.3458 26.5342 88.3458 C 23.8039 88.3458 22.2682 89.0868 19.5736 88.6422 C 16.7073 88.1999 16.8773 84.236 14.7958 81.9765 C 12.7151 79.7159 9.4397 81.8272 7.6992 79.3089 C 5.4758 76.0918 6.1395 71.0278 8.927 68.1242 C 10.1192 66.8827 12.3385 66.6684 13.8401 66.1235 C 14.9576 65.7222 16.5621 65.8726 17.4573 65.2365 C 18.9647 64.1626 19.6276 62.2155 21.0744 61.5315 C 22.7328 60.7483 24.6742 61.0869 26.9432 61.0869 C 26.9432 54.9764 27.7629 51.4948 27.7645 45.3831 Z " data-paper-data="{&quot;origPos&quot;:null}" fill="#ff5ba1" stroke-width="1" stroke="none"/><path d="M 27.217 49.5316 C 23.8736 49.1622 21.0753 44.9772 19.3007 40.4947 C 17.3212 35.5698 15.1716 33.6808 14.1827 28.4219 C 13.6028 25.4214 12.9549 23.7193 12.75 20.6447 C 12.6471 19.0156 12.8188 17.6077 11.9303 16.3491 C 10.3955 14.1625 9.5426 13.6073 8.6557 11.0161 C 8.3139 9.9798 7.7689 7.6838 8.7926 7.6838 C 9.7484 7.6838 9.9525 8.4978 10.7033 9.0906 C 11.659 6.9781 10.9082 4.7939 12.6147 3.313 C 13.6376 4.2022 14.2532 5.3502 14.4581 6.7946 C 15.4479 6.0159 16.7106 4.559 16.7106 5.9054 C 16.7106 6.7946 16.5729 8.7565 16.095 10.0528 C 16.9968 10.0528 18.4312 9.8464 18.4835 10.5715 C 18.6079 12.286 16.2991 15.3641 16.2991 17.6829 C 16.2991 21.5339 16.743 23.9416 18.4835 27.3115 C 22.0998 34.3477 25.9559 40.1994 33.3603 40.1994 C 40.7307 40.1994 46.0876 34.0889 47.2806 26.2 C 47.8257 22.5701 47.8937 19.2379 47.4856 15.534 C 47.2134 12.978 44.4823 13.9037 43.0495 11.9041 C 42.6762 11.3866 43.179 10.4221 44.1422 10.1269 C 44.7627 9.9365 45.7856 10.2762 46.1889 10.3503 C 46.7339 8.573 44.7553 6.8311 44.4143 5.0173 C 44.2102 3.9434 44.5163 2.906 45.5052 3.1659 C 46.2204 3.3517 46.3573 4.0916 46.7331 4.795 C 46.7331 3.1294 46.6982 0.5724 48.2355 0.797 C 49.5663 0.9816 49.9761 3.0553 50.0781 4.4997 C 51.1699 3.574 51.0339 2.5742 52.4666 2.5742 C 52.8068 7.352 50.2822 9.6481 50.42 14.4259 C 50.556 19.2766 51.1002 22.0184 51.1002 26.8703 C 51.1002 36.6482 49.1224 44.2031 41.5471 49.6843 C 42.195 47.4989 41.6848 46.0921 41.411 43.795 C 39.7286 44.3126 39.5402 46.3099 38.7496 47.8329 C 37.8387 49.5852 36.3395 50.8597 34.3136 51.0182 C 31.6364 51.2279 30.4235 48.2035 29.5374 44.8712 C 28.9459 43.9489 28.327 43.8896 27.2178 43.7585 C 27.8641 45.9018 27.217 47.2709 27.217 49.5316 Z " data-paper-data="{&quot;origPos&quot;:null}" fill="#cf8c6e" stroke-width="1" stroke="none"/><path d="M 50.3818 3.0519 C 50.7335 2.3348 51.647 1.09 52.6715 2.2003 C 53.7036 3.3221 52.1257 10.0881 50.4664 12.9381 C 52.1854 22.2281 52.8076 43.5305 42.7791 49.8531 C 42.7111 52.9277 43.4337 64.1512 42.278 66.2705 C 42.0598 66.6729 41.5064 66.7151 41.1505 66.9043 C 39.7899 66.6262 40.3541 64.5262 40.4403 63.4592 C 41.07 55.6193 41.4542 49.6365 40.9406 41.6917 C 41.2053 41.1775 41.7146 41.4489 41.8598 41.8729 C 41.9909 42.2537 42.526 46.8753 42.57 47.5411 C 50.351 42.4954 51.442 22.3467 49.533 12.644 C 50.4871 10.3104 53.0075 4.5476 51.6785 4.005 C 50.351 3.46 50.9982 6.9975 49.6019 8.8307 C 49.5571 6.4948 49.8541 1.4867 48.2944 1.5106 C 46.7356 1.5345 49.1415 8.6163 47.9617 9.5819 C 47.5859 9.2422 47.1081 3.6721 45.4554 4.1406 C 43.8037 4.608 47.5071 8.7429 47.0857 11.3056 C 45.9972 11.6955 44.0517 9.4611 43.7846 11.6237 C 44.0484 12.3351 44.8423 12.6155 45.4571 12.8492 C 46.6841 13.3155 47.0848 11.7286 47.6929 13.6085 C 49.9918 20.6982 46.9297 33.528 42.448 39.2885 L 41.9469 39.0628 C 41.6308 36.4795 49.8284 26.713 46.7729 14.2765 C 44.4831 13.6381 41.3479 12.7204 42.9508 9.8111 C 43.2553 9.2582 43.9073 9.0176 45.2895 9.5842 C 45.4994 7.409 42.7567 5.5132 44.2857 3.1454 C 45.0647 1.9392 45.9872 2.5833 46.6675 3.4623 C 46.7015 2.3097 47.0657 0.2292 48.3799 0.016 C 49.9976 -0.2496 50.0615 2.8729 50.3818 3.0519 Z " data-paper-data="{&quot;origPos&quot;:null}" fill="#272525" stroke-width="1" stroke="none"/><path d="M 14.5925 6.1265 C 15.1725 4.5704 16.8616 4.5545 17.2067 5.5451 C 17.4216 6.1562 17.0358 8.198 16.538 9.3482 C 17.1519 8.8683 17.6555 8.4077 18.2105 8.7212 C 20.8886 10.2318 16.7985 14.9275 16.7064 16.4312 C 16.3613 22.0663 19.2957 28.8243 22.722 32.8474 C 24.0088 34.3591 25.6846 35.5698 26.8162 37.2012 C 26.866 37.6788 26.8486 38.258 26.3998 38.5156 C 25.7817 38.3651 25.0176 37.6275 24.5182 37.2012 C 18.4569 32.0073 15.3574 23.0661 15.369 14.8887 C 16.2883 13.8639 18.5988 11.2167 17.4995 10.6718 C 16.4003 10.1257 16.0269 12.4856 15.2844 13.3919 C 14.0084 13.1764 17.3867 5.7914 15.8693 6.1824 C 14.3519 6.5712 13.5878 11.0298 13.4999 11.9053 C 13.4999 11.9053 14.3768 3.5364 12.7781 4.7768 C 11.1794 6.0183 12.5292 11.7092 12.1924 12.3955 C 12.1924 12.3955 10.0611 7.482 9.2356 8.6095 C 8.4085 9.7359 11.4267 14.8203 13.363 16.2955 C 13.6492 26.5625 19.1637 44.7926 26.7324 48.2217 C 26.9921 45.5689 27.0004 42.9035 27.1099 40.2416 C 27.3306 40.0774 27.4111 39.6784 27.7363 39.8335 C 29.077 44.2784 28.3851 60.5909 27.0253 65.2741 C 25.8721 65.1624 25.7435 64.4898 25.897 63.4592 C 26.4578 59.7108 26.8676 54.591 26.7324 50.8062 C 18.6195 45.2611 12.1335 27.5224 12.2762 17.2919 C 9.6056 15.0324 7.4685 11.5645 8.0567 7.7226 C 8.2757 6.2828 9.3202 5.1541 10.3548 6.7251 L 10.9753 7.8662 C 11.0102 6.0149 11.5146 4.046 11.985 3.4601 C 12.6155 2.6723 13.9587 2.7886 14.283 3.8226 C 14.4515 4.3607 14.6945 5.0151 14.5925 6.1266 Z " data-paper-data="{&quot;origPos&quot;:null}" fill="#272525" stroke-width="1" stroke="none"/><path d="M 40.2703 42.9605 C 40.0164 46.3042 39.6406 49.9067 36.3428 51.2599 C 34.9457 51.8333 32.5714 51.5175 31.3294 50.5804 C 29.4038 49.1269 29.0861 45.2725 29.1964 43.0141 C 29.3566 42.6664 30.2899 42.2549 30.4923 42.9412 C 28.8281 49.0539 38.1207 54.9638 39.1437 42.6447 C 39.5419 42.5387 39.9368 42.7473 40.2703 42.9605 Z " data-paper-data="{&quot;origPos&quot;:null}" fill="#272525" stroke-width="1" stroke="none"/><path d="M 25.1031 60.828 C 25.2225 63.1423 22.5785 60.9648 21.3017 62.6874 C 17.4838 67.8334 14.9883 65.0142 11.0658 67.8118 C 9.3642 69.0259 7.9647 71.0152 7.7647 73.2542 C 7.5424 75.7554 8.479 78.3832 10.4801 79.7854 C 11.9941 80.8468 14.6174 79.8048 15.7034 81.7371 C 16.7446 83.5885 18.5996 87.5957 20.8006 87.7222 C 23.4463 87.8727 25.9717 85.5197 28.5294 87.2708 C 30.4011 88.5464 31.4057 89.5576 33.7527 88.8121 C 36.079 88.0733 37.6976 84.7171 40.3549 85.9552 C 42.2523 86.8398 43.8593 87.7256 45.7857 86.3166 C 46.9214 85.4878 47.5353 84.081 48.8785 83.5953 C 51.5889 82.6195 57.1059 83.9761 57.193 80.873 C 57.2644 78.3273 59.8113 77.4951 60.2004 74.8856 C 60.5878 72.3001 59.6968 70.4806 57.8202 68.9005 C 55.6557 67.0788 52.4351 68.2211 50.4913 66.2648 C 50.0582 65.8282 49.9321 65.3129 49.5903 64.8637 C 48.5516 63.5025 45.5152 62.6247 43.9489 62.6874 C 43.5672 62.2588 43.9796 61.6945 44.1579 61.2818 C 45.959 60.2865 48.4189 61.1849 50.0906 62.1436 C 51.9531 63.213 50.8986 65.3824 56.107 66.3617 C 59.2272 66.9488 63.1804 69.4557 63.0012 73.6624 C 62.8652 76.8544 59.3359 76.8806 59.1999 80.9619 C 59.1534 82.3504 57.9023 84.4378 56.609 84.773 C 53.6887 85.5288 51.009 84.399 48.3592 86.7509 C 47.7734 87.2742 47.4656 87.9616 46.9571 88.4894 C 44.6433 90.896 41.1671 85.7978 38.5596 87.493 C 37.1078 88.4381 36.4532 89.5713 34.7574 90.1242 C 31.3062 91.246 31.0623 90.2051 28.0308 89.0355 C 26.0704 88.2785 18.973 92.2332 15.3716 86.6335 C 14.5146 85.3008 15.725 82.6696 13.7837 81.9617 C 11.8822 81.2697 9.9035 82.9774 7.9755 81.2777 C 3.1047 76.9969 5.7363 66.7812 11.6955 65.1818 C 13.3771 64.7292 15.0621 65.5272 16.5845 65.1818 C 18.3192 64.7873 18.5573 61.4037 20.7202 60.6 C 21.4693 60.323 24.6825 60.0346 25.1031 60.828 Z " data-paper-data="{&quot;origPos&quot;:null}" fill="#272525" stroke-width="1" stroke="none"/><path d="M 20.1992 32.9386 C 19.411 32.2341 18.9771 31.1055 19.2758 29.9016 C 19.5877 28.6795 20.9715 29.3088 21.3399 28.1255 C 21.6377 27.161 21.3532 26.3835 21.7199 25.4578 C 22.2492 24.1434 23.3086 23.7911 24.3805 24.1252 C 26.4852 24.7921 25.819 22.0686 27.8566 21.0882 C 29.7025 20.2001 30.4633 21.9956 31.3319 22.1256 C 32.4594 22.292 32.8526 20.4212 34.8072 20.4212 C 36.7626 20.4212 37.0613 22.292 38.1887 22.1256 C 39.0573 21.9956 39.8181 20.2001 41.664 21.0882 C 43.7016 22.0686 43.0354 24.7921 45.141 24.1252 C 46.2121 23.7923 47.2698 24.1434 47.8008 25.4578 C 48.1658 26.3847 47.8821 27.1622 48.1807 28.1255 C 48.5466 29.31 49.9321 28.6807 50.2448 29.9016 C 50.5419 31.1055 50.1088 32.2341 49.3223 32.9386 Z " data-paper-data="{&quot;origPos&quot;:null}" fill="#272525" stroke-width="1" stroke="none"/><path d="M 48.1841 37.2228 C 47.5586 36.1751 47.9485 34.6954 49.0535 33.9156 C 50.1603 33.1359 51.564 33.3525 52.1895 34.3979 C 52.8167 35.4455 52.426 36.9253 51.3209 37.705 C 50.2142 38.4848 48.8105 38.2682 48.1841 37.2228 Z " data-paper-data="{&quot;origPos&quot;:null}" fill="#272525" stroke-width="1" stroke="none"/><path d="M 48.1841 37.2228 C 47.5586 36.1751 47.9485 34.6954 49.0535 33.9156 C 50.1603 33.1359 51.564 33.3525 52.1895 34.3979 C 52.8167 35.4455 52.426 36.9253 51.3209 37.705 C 50.2142 38.4848 48.8105 38.2682 48.1841 37.2228 Z " data-paper-data="{&quot;origPos&quot;:null}" fill="none" stroke-width="1" stroke="none"/><path d="M 18.2097 37.705 C 17.103 36.9253 16.7139 35.4455 17.3394 34.3979 C 17.9666 33.3525 19.3695 33.1359 20.4762 33.9156 C 21.5821 34.6954 21.9712 36.1751 21.3465 37.2228 C 20.7201 38.2682 19.3156 38.4848 18.2097 37.705 Z " data-paper-data="{&quot;origPos&quot;:null}" fill="none" stroke-width="1" stroke="none"/><path d="M 18.2097 37.705 C 17.103 36.9253 16.7139 35.4455 17.3394 34.3979 C 17.9666 33.3525 19.3695 33.1359 20.4762 33.9156 C 21.5821 34.6954 21.9712 36.1751 21.3465 37.2228 C 20.7201 38.2682 19.3156 38.4848 18.2097 37.705 Z " data-paper-data="{&quot;origPos&quot;:null}" fill="none" stroke-width="1" stroke="none"/><g><path d="M 47.8265 27.6444 C 48.0174 26.7164 50.3262 25.5866 51.0364 25.7805 C 51.939 26.0233 53.2581 29.5266 52.5853 30.4363 C 52.0236 31.1978 49.4393 31.4646 48.8569 31.1488 C 47.9668 30.6654 47.7519 28.0046 47.8265 27.6444 Z " data-paper-data="{&quot;origPos&quot;:null}" fill="#272525" stroke-width="1" stroke="none"/><path d="M 51.647 26.7176 C 53.3535 23.7547 55.0758 26.9022 56.833 25.6072 C 57.8393 24.8662 58.8971 24.588 59.9714 25.2367 C 60.7728 25.7189 61.0284 26.4599 61.9509 26.6446 C 64.3394 27.1622 65.0006 25.2709 67.0017 26.7187 C 68.0246 27.4586 68.4162 30.5321 67.4787 31.0884 C 66.5404 31.6436 65.2935 31.7747 65.2935 32.9398 C 65.2935 33.8655 65.5855 34.57 65.0894 35.311 C 64.1694 36.6813 62.2927 36.9025 61.0641 35.8308 C 59.818 34.7364 60.1938 32.8668 58.7436 32.1269 C 58.026 31.7758 54.6486 36.4214 52.6691 31.9035 C 52.3696 31.216 52.9769 30.719 52.8051 29.978 C 52.6517 29.2746 50.8796 28.7 50.6224 28.0525 C 50.3677 27.4403 51.0331 26.8657 51.647 26.7175 Z " data-paper-data="{&quot;origPos&quot;:null}" fill="#272525" stroke-width="1" stroke="none"/><path d="M 48.321 27.8655 C 48.389 27.5327 50.1627 26.5329 50.5726 26.6446 C 50.9824 26.7552 51.973 29.5699 51.6984 29.9404 C 51.4246 30.3109 49.2759 30.6073 48.9357 30.4226 C 48.5939 30.2357 48.2521 28.1984 48.321 27.8656 Z " data-paper-data="{&quot;origPos&quot;:null}" fill="#ff9cd1" stroke-width="1" stroke="none"/></g><g><path d="M 16.027 29.8275 C 16.2319 31.0496 16.879 32.2341 15.9581 32.9375 C 14.4059 34.1231 12.9557 32.9375 11.0451 32.9375 C 8.5537 32.9375 8.0086 36.4191 5.5173 36.4191 C 4.8337 36.4191 4.1177 36.2344 3.9476 35.5311 C 3.7593 34.7536 4.1343 34.0695 3.6738 33.4574 C 3.2308 32.8839 2.6003 33.3103 1.9001 33.3103 C 0.7228 33.0504 -0.2503 31.8476 0.0575 30.5686 C 0.3645 29.2917 1.3542 28.8665 2.514 28.496 C 3.7261 28.1073 4.6304 28.6624 5.7214 27.9773 C 6.8646 27.2545 7.1508 26.3357 8.0418 25.3119 C 9.2016 23.9781 10.4809 23.9781 11.8631 24.645 C 12.6479 25.0155 13.0569 25.5331 13.9106 25.459 C 15.7689 25.3119 17.9708 25.4043 18.3458 27.3845 C 18.5507 28.5142 15.837 28.6989 16.027 29.8275 Z " data-paper-data="{&quot;origPos&quot;:null}" fill="#272525" stroke-width="1" stroke="none"/><path d="M 20.6073 31.1488 C 20.0241 31.4646 17.4398 31.1978 16.8782 30.4363 C 16.2062 29.5265 17.5253 26.0233 18.4263 25.7804 C 19.1397 25.5866 21.4469 26.7164 21.6369 27.6444 C 21.7116 28.0046 21.4959 30.6654 20.6073 31.1488 Z " data-paper-data="{&quot;origPos&quot;:null}" fill="#272525" stroke-width="1" stroke="none"/><path d="M 20.5285 30.4226 C 20.1875 30.6073 18.0372 30.3109 17.7642 29.9404 C 17.4921 29.5699 18.4818 26.7552 18.8908 26.6446 C 19.3007 26.5329 21.0744 27.5327 21.1424 27.8655 C 21.2105 28.1984 20.8695 30.2356 20.5285 30.4226 Z " data-paper-data="{&quot;origPos&quot;:null}" fill="#ff9cd1" stroke-width="1" stroke="none"/></g><g><path d="M 49.0038 34.9211 C 49.7313 34.4081 50.6307 34.5084 51.0082 35.1423 C 51.3889 35.7773 51.1069 36.7075 50.381 37.2194 C 49.6517 37.7324 48.7557 37.6332 48.3766 36.9982 C 47.9966 36.3621 48.2779 35.433 49.0038 34.9211 Z " data-paper-data="{&quot;origPos&quot;:null}" fill="#cf8c6e" stroke-width="1" stroke="none"/><path d="M 48.1841 37.2228 C 47.5586 36.1751 47.9485 34.6954 49.0535 33.9156 C 50.1603 33.1359 51.564 33.3525 52.1895 34.3979 C 52.8167 35.4455 52.426 36.9253 51.3209 37.705 C 50.2142 38.4848 48.8105 38.2682 48.1841 37.2228 Z " data-paper-data="{&quot;origPos&quot;:null}" fill="none" stroke-width="1" stroke="none"/></g><g><path d="M 18.2097 37.705 C 17.103 36.9253 16.7139 35.4455 17.3394 34.3979 C 17.9666 33.3525 19.3695 33.1359 20.4762 33.9156 C 21.5821 34.6954 21.9712 36.1751 21.3465 37.2228 C 20.7201 38.2682 19.3156 38.4848 18.2097 37.705 Z " data-paper-data="{&quot;origPos&quot;:null}" fill="#272525" stroke-width="1" stroke="none"/><path d="M 21.1549 36.9982 C 20.7758 37.6332 19.8781 37.7324 19.1513 37.2194 C 18.4246 36.7075 18.1425 35.7773 18.5217 35.1423 C 18.9016 34.5084 19.8001 34.4081 20.526 34.9211 C 21.2528 35.433 21.534 36.3621 21.1549 36.9982 Z " data-paper-data="{&quot;origPos&quot;:null}" fill="#cf8c6e" stroke-width="1" stroke="none"/></g><path d="M 19.7097 35.5322 C 19.7097 30.0917 26.462 25.6813 34.7914 25.6813 C 43.1209 25.6813 49.8732 30.0917 49.8732 35.5322 C 49.8732 40.9727 43.1209 45.3831 34.7914 45.3831 C 26.462 45.3831 19.7097 40.9727 19.7097 35.5322 Z " data-paper-data="{&quot;origPos&quot;:null}" fill="#272525" stroke-width="1" stroke="none"/><path d="M 48.3011 35.5322 C 48.3011 39.3535 43.0495 44.3456 34.7914 44.3456 C 26.5358 44.3456 21.2826 39.3535 21.2826 35.5322 C 21.2826 31.7108 26.5358 27.3867 34.7914 27.3867 C 43.0479 27.3867 48.3011 31.7108 48.3011 35.5322 Z " data-paper-data="{&quot;origPos&quot;:null}" fill="#cf8c6e" stroke-width="1" stroke="none"/><g data-paper-data="{&quot;origPos&quot;:null}"><path d="M 34.5824 35.3327 L 34.5401 35.3327 C 33.3122 35.3498 33.0725 36.1535 32.9903 36.5069 C 32.9074 36.8649 32.0844 36.9754 32.0188 36.4978 C 31.984 36.2515 32.4934 34.4936 34.5426 34.4708 L 34.5799 34.4708 C 36.6324 34.4925 37.1376 36.2515 37.1036 36.4978 C 37.0381 36.9754 36.2134 36.8649 36.1313 36.5069 C 36.0483 36.1524 35.8086 35.3486 34.5824 35.3327 Z " data-paper-data="{&quot;origPos&quot;:null}" stroke-width="1" fill="#272525" stroke="none"/><path d="M 30.1986 38.1371 C 32.8841 40.0786 36.0857 40.1322 38.7247 38.2808 C 38.9056 38.1542 39.264 38.6159 39.1229 38.9044 C 37.681 41.8445 31.4456 41.4979 29.812 38.9386 C 29.6295 38.6536 29.9871 37.9844 30.1986 38.1371 Z " data-paper-data="{&quot;origPos&quot;:null}" stroke-width="1" fill="#272525" stroke="none"/><path d="M 43.6311 32.3686 C 42.2597 34.0091 39.7086 34.8356 38.3871 33.1439 C 37.7989 32.3903 38.8384 31.4327 39.4282 32.1862 C 40.3748 33.3969 42.2315 33.1359 43.213 31.9594 C 43.4644 31.6561 43.8817 32.0654 43.6311 32.3686 Z " data-paper-data="{&quot;origPos&quot;:null}" stroke-width="1" fill="#272525" stroke="none"/><path d="M 25.9783 31.9594 C 26.9606 33.1347 28.8165 33.3969 29.7631 32.1862 C 30.3513 31.4338 31.3925 32.3903 30.8026 33.1438 C 29.4827 34.8356 26.9307 34.0091 25.561 32.3686 C 25.308 32.0654 25.7261 31.6561 25.9783 31.9593 Z " data-paper-data="{&quot;origPos&quot;:null}" stroke-width="1" fill="#272525" stroke="none"/></g><g><path d="M 39.3668 62.7649 C 39.7302 62.7809 39.9451 62.9758 39.7692 63.6416 C 38.0477 65.5044 30.2608 63.9961 28.1121 63.0978 C 27.9412 62.8504 27.8765 62.5164 28.0283 62.236 C 30.5014 62.7968 37.384 63.384 39.3668 62.7649 Z " data-paper-data="{&quot;origPos&quot;:null}" stroke-width="1" fill="#272525" stroke="none"/><path d="M 39.1428 66.8143 C 39.5601 66.8143 40.1035 66.7675 40.2711 67.2669 C 40.3126 67.9007 39.8107 68.2188 39.3519 68.4456 C 35.1739 68.8526 30.6616 68.945 27.2352 66.7231 C 27.2352 66.3617 27.2352 65.9068 27.611 65.8156 C 31.1203 67.3592 35.2154 67.3592 39.1428 66.8143 Z " data-paper-data="{&quot;origPos&quot;:null}" stroke-width="1" fill="#272525" stroke="none"/><path d="M 25.1031 67.4493 C 24.3547 68.1002 23.2016 67.5758 22.513 68.3567 C 20.8745 70.2172 21.3573 74.197 18.0836 74.343 C 16.5555 74.4102 15.4579 72.4882 13.8641 73.1186 C 12.3525 73.7125 11.6358 78.1871 9.7691 76.7028 C 9.312 76.338 9.268 75.2402 9.5609 74.7511 C 12.8263 69.2995 17.5792 73.6441 19.3787 70.8499 C 22.2351 66.4187 24.1598 65.4577 25.1031 67.4493 Z " data-paper-data="{&quot;origPos&quot;:null}" stroke-width="1" fill="#272525" stroke="none"/><path d="M 43.6543 67.903 C 46.592 67.1198 45.9117 72.6318 47.6656 73.2542 C 49.1531 73.7809 50.8414 72.7788 52.9718 73.6601 C 56.37 75.0669 55.3396 81.2777 52.9718 78.6944 C 52.3206 77.983 53.2182 75.6642 51.8021 75.0669 C 50.0731 74.3361 45.6612 76.721 44.8664 73.8869 C 44.3944 72.2043 45.9142 70.1237 43.6543 67.903 Z " data-paper-data="{&quot;origPos&quot;:null}" stroke-width="1" fill="#272525" stroke="none"/><path d="M 18.8792 83.234 C 19.8325 79.847 24.9322 79.6098 25.3968 76.2947 C 25.6067 74.7864 25.5784 70.4942 30.4094 69.5366 C 29.7407 69.7532 27.5953 72.0743 27.1091 73.7992 C 26.5823 75.6608 28.21 77.9078 26.2305 79.2428 C 24.8053 80.2049 23.1053 79.9986 22.2201 81.8295 C 21.7647 82.7631 21.8053 84.2634 20.7168 84.6841 C 20.1876 84.8893 18.4818 84.6396 18.8792 83.234 Z " data-paper-data="{&quot;origPos&quot;:null}" stroke-width="1" fill="#272525" stroke="none"/><path d="M 38.9329 84.456 C 36.8506 83.3103 40.1359 81.6596 38.7662 80.4204 C 37.798 79.5414 34.8993 78.1483 35.8417 76.2947 C 36.5478 74.9061 37.3766 72.9476 36.761 71.2592 C 36.6423 70.9389 36.3959 70.7941 36.3428 70.3973 C 36.4963 70.1158 36.7983 70.1454 37.053 70.0816 C 42.3328 73.2839 35.4958 76.7039 39.5593 79.0125 C 42.2954 80.5731 42.2141 84.2075 38.9329 84.4561 Z " data-paper-data="{&quot;origPos&quot;:null}" stroke-width="1" fill="#272525" stroke="none"/></g></g></g></svg>