<svg xmlns="http://www.w3.org/2000/svg" xmlns:xlink="http://www.w3.org/1999/xlink" version="1.1" width="96.13480651855468" height="260.19430053710937" viewBox="-2.190019557774067 -2.1899961853027343 96.13480651855468 260.19430053710937"><g><g data-paper-data="{&quot;isPaintingLayer&quot;:true}" fill-rule="nonzero" stroke-linejoin="miter" stroke-miterlimit="10" stroke-dasharray="" stroke-dashoffset="0" style="mix-blend-mode: normal"><g data-paper-data="{&quot;origPos&quot;:null}" stroke-linecap="butt"><path d="M 54.7029 255.8143 L 55.6029 246.1143 L 70.4029 246.7143 L 79.8029 249.0143 L 87.2029 255.8143 Z " fill="#ebebeb" stroke-width="1" stroke="none"/><path d="M 53.9029 247.5143 L 50.2029 197.1143 L 43.8029 135.1143 L 73.8029 135.1143 L 74.5029 197.4143 L 74.5029 247.5143 Z " fill="#1b82c2" stroke-width="1" stroke="none"/></g><g data-paper-data="{&quot;origPos&quot;:null}" stroke-linecap="butt"><path d="M 16.8029 255.8143 L 17.7029 246.1143 L 32.5029 246.7143 L 41.9029 249.0143 L 49.3029 255.8143 Z " fill="#ebebeb" stroke-width="1" stroke="none"/><path d="M 18.3029 247.5143 L 18.8029 195.2143 L 19.5029 135.1143 L 48.6029 135.1143 L 42.0029 196.9143 L 37.3029 247.5143 Z " fill="#1b82c2" stroke-width="1" stroke="none"/></g><g data-paper-data="{&quot;origPos&quot;:null}" stroke-linecap="butt"><path d="M 80.1029 114.4587 C 76.9029 114.8587 71.5029 113.1587 71.5029 113.1587 C 71.5029 113.1587 63.4029 66.2587 70.4029 64.5587 C 83.0029 61.1587 85.3029 111.1587 85.3029 111.1587 C 85.3029 111.1587 83.2029 114.0587 80.1029 114.4587 Z " fill="#dbae76" stroke-width="1" stroke="none"/><path d="M 65.7029 96.1588 C 65.7029 96.1588 56.7029 63.2588 68.2029 61.0588 C 78.3029 59.0588 89.8029 90.0588 89.8029 90.0588 Z " fill="#45b1b1" stroke-width="1" stroke="none"/></g><g data-paper-data="{&quot;origPos&quot;:null}" stroke-linecap="butt"><g data-paper-data="{&quot;origPos&quot;:null}"><path d="M 88.1029 137.8143 L 79.9029 140.2143 L 71.1029 113.1143 C 71.1029 113.1143 74.2029 108.9143 77.8029 109.2143 C 80.5029 109.4143 85.1029 110.2143 85.1029 110.2143 Z " data-paper-data="{&quot;origPos&quot;:null}" stroke-width="1" fill="#dbae76" stroke="none"/></g><path d="M 84.6187 160.3872 C 82.7352 160.6565 83.5058 151.6372 81.7412 151.4754 C 80.3884 151.3343 82.0004 156.9282 81.5664 157.8291 C 81.0343 158.7493 78.2929 157.2511 78.2929 157.2511 C 78.2929 157.2511 75.7578 152.145 75.3338 149.4766 C 74.2718 143.5705 79.9366 137.6637 79.9366 137.6637 L 87.2134 137.3508 C 87.2134 137.3508 91.6084 143.6193 91.753 147.9735 C 91.8397 152.0333 88.7452 157.5355 88.7452 157.5355 C 88.7452 157.5355 86.4427 160.3335 84.6187 160.3872 Z " data-paper-data="{&quot;origPos&quot;:null,&quot;index&quot;:null,&quot;origRot&quot;:0}" stroke-width="1" fill="#dbae76" stroke="none"/></g><path d="M 17.1029 140.2143 L 16.9029 63.9143 C 16.9029 63.9143 32.1029 56.0143 45.1029 55.8143 C 58.1029 55.6143 69.0363 59.8255 71.4363 61.1255 C 73.7363 62.3255 74.5029 142.4143 74.5029 142.4143 C 74.5029 142.4143 57.4029 145.2143 45.8029 145.1143 C 34.0029 144.9143 17.1029 140.2143 17.1029 140.2143 Z " data-paper-data="{&quot;origPos&quot;:null}" fill="#afe1c6" stroke="none" stroke-width="1" stroke-linecap="butt"/><g stroke-linecap="butt"><path d="M 6.7029 116.5143 C 4.2029 116.3143 0.4029 114.3143 0.4029 114.3143 C 0.4029 114.3143 6.0029 63.7143 20.3029 64.0143 C 31.5029 63.7143 13.1029 115.3143 13.1029 115.3143 C 13.1029 115.3143 9.2029 116.7143 6.7029 116.5143 Z " fill="#dbae76" stroke-width="1" stroke="none"/><path d="M 0.6029 90.6143 C 0.6029 90.6143 12.0029 61.6143 19.0029 62.4143 C 35.6029 64.2143 22.9029 99.3143 22.9029 99.3143 Z " fill="#45b1b1" stroke-width="1" stroke="none"/></g><g stroke-linecap="butt"><path d="M 2.4029 141.2143 L 0.3029 113.5143 C 0.3029 113.5143 4.3029 112.3143 6.6029 111.9143 C 9.8029 111.3143 13.3029 115.2143 13.3029 115.2143 L 10.1029 142.9143 Z " stroke-width="1" fill="#dbae76" stroke="none"/><path d="M 4.9029 160.3143 C 4.9029 160.3143 0.8029 155.5143 0.1029 151.5143 C -0.5971 147.2143 2.5029 140.2143 2.5029 140.2143 L 9.7029 139.1143 C 9.7029 139.1143 16.4029 143.8143 16.5029 149.8143 C 16.6029 152.5143 15.1029 158.0143 15.1029 158.0143 C 15.1029 158.0143 12.7029 160.0143 12.0029 159.2143 C 11.4029 158.4143 11.9029 152.6143 10.6029 153.0143 C 8.9029 153.5143 11.4029 162.2143 9.5029 162.3143 C 7.7029 162.6143 4.9029 160.3143 4.9029 160.3143 Z " stroke-width="1" fill="#dbae76" stroke="none"/></g><path d="M231.20001,53.35003c6.8,-1.1 13.9,6.1 13.9,6.1c0,0 4,0.4 5.1,2.4c1.1,2 1.5,5.3 2,10.3c1.2,13.7 -9.6,34.4 -20.4,35c-7.2,-7 -9.5,-0.2 -11.9,-3.6c-5,-7.2 -8,-11.3 -9.9,-20.4c-1.6,-8.1 -2.5,-12.5 0.8,-19.2c3.3,-6.8 10.5,-6.7 10.5,-6.7l-2.9,-1.7c0,0 6.4,-1.5 9,-1.3c2.2,0.1 6.2,1.5 6.2,1.5z" data-paper-data="{&quot;origPos&quot;:null}" fill="#0a0500" stroke="none" stroke-width="0" stroke-linecap="butt" transform="matrix(1,0,0,1,-185.39709,-53.2357)"/><g stroke-linecap="butt"><path d="M 37.6029 46.2143 L 52.8029 49.6143 L 52.7029 58.7143 C 52.7029 58.7143 57.6029 59.6143 57.5029 62.4143 C 57.4029 66.9143 38.6029 69.3143 34.7029 62.4143 C 33.2029 59.0143 36.7029 57.8143 36.7029 57.8143 Z " data-paper-data="{&quot;origPos&quot;:null}" stroke-width="1" fill="#cca168" stroke="none"/><path d="M 33.0029 35.1143 C 33.8029 37.5143 33.3029 39.8143 32.0029 40.2143 C 30.6029 40.7143 28.8029 39.2143 28.0029 36.8143 C 27.2029 34.4143 27.7029 32.1143 29.0029 31.7143 C 30.4029 31.2143 32.2029 32.8143 33.0029 35.1143 Z " data-paper-data="{&quot;origPos&quot;:null}" stroke-width="1" fill="#cca168" stroke="none"/><path d="M 64.5029 32.9143 C 64.5029 45.7143 56.6029 52.5143 49.8029 52.8143 C 38.0029 53.0143 30.4029 43.3143 30.4029 30.5143 C 30.4029 17.7143 32.6029 8.1143 47.6029 7.4143 C 59.0029 6.8143 66.4863 18.9143 64.4863 32.6143 Z " data-paper-data="{&quot;origPos&quot;:null}" stroke-width="1" fill="#cca168" stroke="none"/></g><path d="M 52.9029 45.6143 C 52.9029 46.3143 50.9029 47.8143 49.2029 47.8143 C 47.5029 47.8143 45.7029 45.9143 45.7029 45.1143 C 45.7029 44.4143 47.9029 45.1143 49.7029 45.1143 C 51.5029 45.1143 52.9029 44.9143 52.9029 45.6143 Z " fill="#000000" stroke="none" stroke-width="1" stroke-linecap="butt"/><path d="M 31.6029 17.6143 " fill="none" stroke="#000000" stroke-width="4.38" stroke-linecap="round"/><path d="M 26.4029 25.3715 C 26.4029 25.3715 23.5886 -3.7 53.9029 4.3143 C 60.8029 6.2143 65.3029 12.1143 65.8029 16.0143 C 66.2675 19.7048 64.6981 26.0791 64.6981 26.0791 L 58.3029 18.1143 C 58.3029 18.1143 53.3029 20.7143 50.1029 21.5143 C 45.2029 22.8143 37.6029 23.5143 37.6029 23.5143 L 38.5029 18.5143 L 30.4481 32.0093 L 29.7601 23.2143 Z " data-paper-data="{&quot;origPos&quot;:null}" fill="#0a0500" stroke="none" stroke-width="1" stroke-linecap="butt"/><path d="M 52.3029 38.2143 C 52.3029 38.2143 52.0029 39.2143 50.1029 39.2143 C 48.7029 39.2143 47.9029 38.4143 47.9029 38.4143 " fill="none" stroke="#000000" stroke-width="1.2775" stroke-linecap="round"/><g><path d="M 38.8029 26.4143 C 38.8029 26.4143 41.7029 25.6143 43.2029 25.6143 C 44.9029 25.5143 46.9029 26.4143 46.9029 26.4143 " fill="none" stroke="#000000" stroke-width="1.46" stroke-linecap="round"/><g><path d="M 38.7029 30.0143 C 38.7029 30.0143 40.9029 28.8143 43.2029 29.0143 C 45.7029 29.2143 46.1029 30.1143 46.1029 30.1143 " fill="none" stroke="#000000" stroke-width="1.46" stroke-linecap="round"/><path d="M 42.0029 31.5143 C 42.0029 30.3143 42.9029 29.3143 44.1029 29.3143 C 45.3029 29.3143 46.2029 30.3143 46.2029 31.5143 C 46.2029 32.7143 45.3029 33.7143 44.1029 33.7143 C 43.0029 33.7143 42.0029 32.7143 42.0029 31.5143 Z " fill="#000000" stroke="none" stroke-width="1" stroke-linecap="butt"/></g></g><g><path d="M 54.2029 26.3143 C 54.2029 26.3143 56.5029 25.5143 58.2029 25.5143 C 59.7029 25.6143 61.4029 26.0143 61.4029 26.0143 " fill="none" stroke="#000000" stroke-width="1.46" stroke-linecap="round"/><g><path d="M 54.2029 30.3143 C 54.2029 30.3143 55.2029 29.2143 57.1029 29.0143 C 59.4029 28.8143 61.6029 29.4143 61.6029 29.4143 " fill="none" stroke="#000000" stroke-width="1.46" stroke-linecap="round"/><path d="M 59.1029 33.4143 C 57.9029 33.4143 57.0029 32.4143 57.0029 31.2143 C 57.0029 30.0143 57.9029 29.0143 59.1029 29.0143 C 60.3029 29.0143 61.2029 30.0143 61.2029 31.2143 C 61.3029 32.4143 60.3029 33.4143 59.1029 33.4143 Z " fill="#000000" stroke="none" stroke-width="1" stroke-linecap="butt"/></g></g></g></g></svg>