<svg xmlns="http://www.w3.org/2000/svg" xmlns:xlink="http://www.w3.org/1999/xlink" version="1.1" width="39.5" height="51" viewBox="0.25 0.6000000238418579 39.5 51">
  <!-- Exported by Scratch - http://scratch.mit.edu/ -->
  <path id="ID0.5680907857604325" fill="#00FFFF" stroke="#000000" stroke-width="2" d="M 1.25 1.6 L 38.75 1.6 L 38.75 50.6 L 1.25 50.6 L 1.25 1.6 Z "/>
  <g id="ID0.4190730070695281">
    <path id="ID0.6214382075704634" fill="#272525" d="M 19.8352 44.5413 C 19.235 45.3641 18.2971 45.9981 17.2396 45.9502 C 16.7186 45.9265 16.3698 45.5811 15.9317 45.5109 C 15.6884 45.4709 15.5425 45.9133 15.3501 46.0165 C 14.7486 45.908 14.21 45.5948 13.6613 45.3435 C 13.6503 45.2209 14.0694 43.4671 14.1538 43.2782 C 15.0065 43.5194 15.8839 43.8357 16.7845 43.7061 C 17.4378 44.6783 19.8352 44.5413 19.8352 44.5413 Z " stroke-width="0.43932544875104895"/>
    <path id="ID0.35820108419284225" fill="#53C73B" d="M 18.9477 44.9287 C 17.2598 46.2335 16.4528 45.0091 15.9493 44.8216 C 15.3984 44.6173 15.5289 45.7252 14.6621 45.1603 C 14.1973 44.858 14.63 43.8282 14.7772 43.3573 C 15.3009 43.4834 15.8311 43.6068 16.3737 43.6046 C 16.6601 44.0365 17.8072 45.032 18.9477 44.9287 Z " stroke-width="0.43932544875104895"/>
    <path id="ID0.00036315666511654854" fill="#9100C1" d="M 16.0698 17.1455 C 11.0426 18.4678 7.4696 20.8077 5.189 25.7914 C 4.3095 27.7398 4.7225 29.042 4.4351 31.1503 C 3.9321 34.7593 4.3631 36.8668 4.6508 40.511 C 4.7405 41.7802 4.1843 42.2257 5.0814 43.1197 C 6.6076 44.6384 8.4391 44.7268 10.6116 44.3718 C 14.4895 43.8345 16.6264 43.0498 20.0202 41.1577 C 21.1695 40.5132 23.0489 40.0378 22.462 38.8719 C 21.5284 37.014 20.9177 35.2975 20.1639 32.941 C 19.5892 31.1191 21.7261 30.3692 22.6772 28.7234 C 23.5572 27.2231 23.1262 27.5425 23.0006 25.7936 C 22.8569 23.7933 20.2895 21.6485 19.7329 19.7203 C 19.2479 18.039 17.7392 16.707 16.0698 17.1455 Z " stroke-width="0.43932544875104895"/>
    <path id="ID0.6610625782050192" fill="#9100C1" d="M 19.5532 20.7181 C 18.7545 21.1916 18.081 21.0572 17.183 20.7897 C 16.4472 20.5757 15.7289 20.4593 15.5312 19.7182 C 15.1455 18.2802 15.1274 17.2979 15.6748 15.9312 C 15.9709 15.1808 16.5096 14.868 16.6444 14.0733 C 16.7789 13.2869 16.2227 12.8853 15.9261 12.1437 C 15.6929 11.5454 15.3067 10.7682 14.7052 11.0006 C 14.1306 11.2242 13.5472 11.0542 13.1615 10.5718 C 11.5452 11.733 10.5312 12.3761 8.5652 12.7869 C 7.7573 12.9481 7.1915 12.4029 6.7337 11.7154 C 6.2487 10.983 7.5504 10.5362 8.35 10.1435 C 10.1991 9.2235 10.7201 8.018 12.2639 6.6781 C 13.7721 5.3649 15.442 5.1418 17.2911 5.8566 C 19.1582 6.5705 20.3435 6.5533 22.3183 6.9641 C 24.0242 7.3213 25.0206 7.6609 26.7353 7.3929 C 28.486 7.1161 30.3351 7.1253 31.0807 8.7148 C 31.4848 9.5812 31.1883 10.3139 30.7213 11.1443 C 30.3712 11.7694 30.3268 12.323 29.6805 12.6446 C 28.4236 11.5731 28.8186 10.6795 27.921 10.2151 C 27.4681 9.9809 27.1311 10.2867 26.6281 10.3943 C 24.7966 10.7959 23.6565 10.9655 22.1751 12.1086 C 21.0443 12.9837 20.5861 13.6985 19.841 14.8957 C 18.9614 16.3068 18.7277 17.9147 19.7694 19.2182 L 19.5532 20.7181 Z " stroke-width="0.43932544875104895"/>
    <path id="ID0.9744440978392959" fill="#FFDEAE" d="M 21.636 12.5725 C 22.8925 13.8233 22.9646 15.0644 22.9646 16.7878 C 22.5876 16.7703 21.977 16.7878 22.067 17.145 C 22.2195 17.7434 22.3539 18.1006 22.3539 18.7174 C 22.1118 18.619 21.995 18.521 21.7437 18.3958 L 22.426 20.0397 C 22.8749 19.8609 22.7401 19.5393 23.1442 19.2894 C 23.602 19.0122 24.2755 19.1374 24.3295 18.6102 C 24.3568 18.3514 24.051 18.2978 23.9346 18.0742 C 25.0391 17.5299 25.7301 17.2527 26.8794 17.3954 C 27.1245 17.4262 27.0767 17.7526 27.2743 17.8954 C 28.0915 18.503 28.6749 18.789 29.6805 18.9318 C 30.919 19.1009 32.1315 18.8782 32.6969 17.7526 C 33.2175 16.7171 31.3952 16.4755 30.4709 15.7875 C 30.9647 15.7163 30.9287 15.0464 30.7938 14.5728 C 30.5961 13.8852 30.2003 13.6085 29.8238 13.0013 C 29.1683 11.9474 28.9082 11.2682 28.0998 10.3214 C 27.7769 9.9462 27.2919 10.1338 26.8073 10.2498 C 26.0262 10.4378 23.4316 11.0718 21.636 12.5725 Z " stroke-width="0.43932544875104895"/>
    <path id="ID0.6950778518803418" fill="#FFFFFF" d="M 21.6721 12.4653 C 22.2107 12.7333 22.2555 13.1709 22.426 13.7156 C 22.8029 14.9128 22.8837 15.6091 23.0366 16.8595 C 22.6689 16.8595 22.4352 16.8414 22.103 16.6811 C 22.1663 17.4938 22.3904 18.1454 21.8518 18.753 C 22.1479 19.1457 22.1123 19.5121 22.3904 19.9321 C 23.1535 19.5209 23.5304 19.1549 24.3295 18.8246 C 24.2127 18.4582 23.7009 18.235 23.9346 17.9314 C 24.2847 17.4758 24.7693 17.6186 25.3352 17.5026 C 26.1611 17.3331 26.5648 17.467 27.2388 17.967 C 28.6121 18.9849 30.3896 19.4225 31.8345 18.4674 C 32.9122 19.4409 33.4684 20.128 33.989 21.486 L 32.7686 21.486 L 33.272 23.4243 L 32.4101 23.4243 L 34.3853 26.2909 C 34.0624 26.4789 33.7377 26.4258 33.5233 26.7201 C 34.0799 27.1313 34.9959 27.0953 34.9599 27.7912 C 34.9327 28.2925 34.3242 28.6949 34.6735 29.0424 C 35.0425 29.4097 35.4098 29.4545 35.7872 29.8283 C 36.82 30.8555 37.0783 32.7846 35.8232 33.5086 C 35.5438 32.0896 34.054 31.9907 32.6618 31.6507 L 32.6618 32.579 C 30.4625 32.7578 29.8795 30.8999 27.994 29.6495 L 27.7422 31.0431 C 26.683 30.6947 26.234 30.0432 25.6954 29.0767 C 25.148 28.0855 24.4297 27.72 24.1512 26.6129 C 23.7562 26.9073 23.6754 27.2385 23.2897 27.5408 C 22.1136 25.9236 22.0868 24.6386 21.6738 22.681 C 21.0904 22.681 20.8299 23.5302 20.3093 23.289 C 20.0132 23.1541 20.076 22.8154 19.9864 22.503 C 19.7619 21.7342 19.6542 21.2966 19.5914 20.501 C 19.4746 18.9647 19.7975 18.054 19.3757 16.5713 C 19.3735 14.752 20.4332 13.8233 21.6721 12.4653 Z " stroke-width="0.43932544875104895"/>
    <path id="ID0.7297148094512522" fill="#FFDEAE" d="M 10.5756 33.9374 C 10.037 35.0445 9.4355 35.6428 9.642 36.7952 C 9.7321 37.3039 10.1718 37.7336 10.6837 37.6167 C 11.2223 37.4924 11.2583 36.9204 11.402 36.4015 C 11.5456 37.1972 12.129 38.2045 12.9102 38.0455 C 13.6645 37.8843 13.1079 36.9915 13.2331 36.2232 C 13.9962 36.4108 14.7865 36.9828 15.2443 36.3664 C 15.5316 35.982 15.1187 35.5804 14.8493 35.1868 C 14.58 34.7848 14.4636 34.5173 14.131 34.1509 C 14.6877 33.7854 15.2355 33.6957 15.46 33.0794 C 15.6037 32.6958 15.4328 32.1871 15.029 32.1159 C 14.3112 31.981 13.9698 32.6172 13.2695 32.8298 C 12.9194 32.937 12.8298 32.4634 12.5512 32.2222 C 11.6985 31.4811 10.7829 31.9274 9.6785 32.0799 C 9.3551 32.1256 8.9962 32.0346 8.8526 32.3294 C 8.7449 32.5535 9.0951 32.6681 9.2835 32.8298 C 9.7769 33.2674 10.055 33.5261 10.5756 33.9374 Z " stroke-width="0.43932544875104895"/>
    <path id="ID0.3979726177640259" fill="#FFA100" d="M 7.3079 28.9356 C 5.9794 28.4981 5.2879 27.8193 3.8965 27.8637 C 3.5912 27.8729 3.3219 28.1317 3.3575 28.4357 C 3.4831 29.4628 5.4223 30.5524 5.7637 29.5797 C 6.2755 29.5788 7.0658 29.382 7.3079 28.9356 Z " stroke-width="0.43932544875104895"/>
    <path id="ID0.6019481406547129" fill="#FFA100" d="M 18.8349 32.8298 C 17.8385 32.8298 17.2819 32.6242 16.2855 32.5812 C 15.9354 32.5636 15.7021 32.7336 15.3875 32.5812 C 14.9205 32.3496 14.526 32.206 14.059 32.4388 C 13.4663 32.7336 12.8201 32.6708 12.3711 32.1902 C 12.2094 32.0118 11.8505 31.9226 11.9406 31.6885 C 12.111 31.2509 12.6677 31.4648 13.0894 31.2584 C 13.4756 31.0712 13.7629 30.6868 14.1306 30.9016 C 16.1058 32.0821 17.7036 30.8665 19.9842 30.8665 C 20.532 30.8665 20.9177 30.6253 21.3848 30.9016 C 21.7169 31.0984 21.5464 31.5988 21.3127 31.902 C 20.6757 32.7134 19.8673 32.749 18.8349 32.8298 Z " stroke-width="0.43932544875104895"/>
    <path id="ID0.4532589968293905" fill="#FFFFFF" d="M 27.5612 15.1628 C 27.494 15.4554 27.1302 15.9312 26.5736 15.9132 C 26.267 15.903 26.0732 15.4932 25.999 15.1988 L 27.5612 15.1628 Z " stroke-width="0.43932544875104895"/>
    <path id="ID0.8345099529251456" fill="#272525" d="M 27.9557 15.002 C 27.8125 15.9663 27.1614 16.3235 26.5016 16.3235 C 25.8865 16.3235 25.5992 15.7383 25.4779 15.1268 L 27.9557 15.002 Z " stroke-width="0.43932544875104895"/>
    <path id="ID0.7083148490637541" fill="#272525" d="M 31.2419 15.0916 C 31.2687 15.3996 31.0446 15.6544 30.7389 15.6988 C 30.3755 15.7524 30.0118 15.5019 29.9222 15.1448 C 29.8817 14.9752 29.8189 14.8816 29.8774 14.716 C 29.9358 14.5416 30.1783 14.7068 30.3624 14.752 C 30.7209 14.8412 31.2111 14.7252 31.2419 15.0916 Z " stroke-width="0.43932544875104895"/>
    <path id="ID0.018777375109493732" fill="#FFFFFF" d="M 30.1915 14.868 C 30.1915 15.1096 30.2543 15.3728 30.4972 15.3952 C 30.7033 15.4128 30.8557 15.2608 30.9005 15.0556 L 30.1915 14.868 Z " stroke-width="0.43932544875104895"/>
    <path id="ID0.7915905532427132" fill="#272525" d="M 27.2919 15.2876 C 27.3859 15.2876 27.4712 15.3196 27.5331 15.3715 C 27.5946 15.4233 27.6328 15.4945 27.6328 15.5736 C 27.6328 15.6526 27.5946 15.7238 27.5331 15.7756 C 27.4712 15.8275 27.3859 15.8596 27.2919 15.8596 C 27.1979 15.8596 27.1127 15.8275 27.0507 15.7756 C 26.9892 15.7238 26.951 15.6526 26.951 15.5736 C 26.951 15.4945 26.9892 15.4233 27.0507 15.3715 C 27.1127 15.3196 27.1979 15.2876 27.2919 15.2876 Z " stroke-width="0.43932544875104895"/>
    <path id="ID0.5966210798360407" fill="#272525" d="M 30.6848 15.0727 C 30.7393 15.0727 30.7885 15.0947 30.8241 15.1307 C 30.8601 15.1663 30.8821 15.2155 30.8821 15.27 C 30.8821 15.3245 30.8601 15.3737 30.8241 15.4092 C 30.7885 15.4453 30.7393 15.4672 30.6848 15.4672 C 30.6304 15.4672 30.5812 15.4453 30.5456 15.4092 C 30.5095 15.3737 30.4876 15.3245 30.4876 15.27 C 30.4876 15.2155 30.5095 15.1663 30.5456 15.1307 C 30.5812 15.0947 30.6304 15.0727 30.6848 15.0727 Z " stroke-width="0.43932544875104895"/>
    <path id="ID0.252952110953629" fill="#FFFFFF" d="M 14.562 24.219 L 16.2855 22.9336 L 15.9982 24.7194 L 18.9425 26.0774 L 15.9261 25.7914 L 17.147 28.9356 L 15.5672 27.6493 L 14.49 28.6496 L 14.9205 26.0062 L 12.1919 26.7913 L 14.059 25.0775 L 12.6945 23.1471 L 14.562 24.219 " stroke-width="0.43932544875104895"/>
    <path id="ID0.8529418264515698" fill="#FFFFFF" d="M 6.8769 40.9398 L 6.6616 37.6532 L 7.8105 39.7962 L 11.2583 38.7251 L 8.8881 40.8677 L 11.1862 41.2969 L 9.1034 41.9401 L 8.2415 43.512 L 7.8825 41.7262 L 5.9433 42.6545 L 6.8769 40.9398 " stroke-width="0.43932544875104895"/>
    <path id="ID0.5141116785816848" fill="#FFFFFF" d="M 17.9708 33.8491 C 17.1518 38.2616 19.5172 39.7962 19.5172 39.7962 C 19.5172 39.7962 16.4243 39.4127 16.4243 37.6857 C 16.4243 35.9587 17.9708 33.8491 17.9708 33.8491 Z " stroke-width="0.43932544875104895"/>
    <path id="ID0.7866597953252494" fill="#FFFFFF" d="M 15.9626 8.0356 L 16.0698 6.7844 L 17.5064 7.5708 L 20.4507 7.4992 L 18.3683 8.0356 L 18.6917 9.9291 L 17.7577 8.5 L 17.0038 10.8218 L 16.7881 8.6428 L 14.4179 8.6428 L 15.9626 8.0356 " stroke-width="0.43932544875104895"/>
    <path id="ID0.9687107154168189" fill="#FFFFFF" d="M 8.3135 10.5002 L 7.6312 11.6438 L 8.9597 10.8934 L 10.5396 11.1078 L 9.9654 10.2142 L 11.2943 9.2143 L 9.7497 9.2859 L 8.3135 10.5002 " stroke-width="0.43932544875104895"/>
    <path id="ID0.034071147441864014" fill="#FFFFFF" d="M 21.9594 25.0054 L 19.2299 24.9343 L 21.3127 26.0774 L 20.5588 28.6496 L 22.9646 27.3993 L 21.9594 25.0054 " stroke-width="0.43932544875104895"/>
    <path id="ID0.6214382075704634" fill="#272525" d="M 13.9588 45.7144 C 13.3587 46.5372 12.4208 47.1712 11.3633 47.1233 C 10.8423 47.0995 10.4934 46.7542 10.0554 46.6839 C 9.812 46.644 9.6662 47.0864 9.4738 47.1896 C 8.8723 47.0811 8.3337 46.7679 7.785 46.5166 C 7.774 46.394 8.1931 44.6402 8.2775 44.4513 C 9.1302 44.6925 10.0075 45.0088 10.9082 44.8792 C 11.5614 45.8514 13.9588 45.7144 13.9588 45.7144 Z " stroke-width="0.43932544875104895"/>
    <path id="ID0.35820108419284225" fill="#53C73B" d="M 13.0714 46.1018 C 11.3835 47.4066 10.5765 46.1822 10.073 45.9946 C 9.5221 45.7904 9.6526 46.8983 8.7858 46.3334 C 8.321 46.0311 8.7537 45.0013 8.9009 44.5304 C 9.4246 44.6565 9.9548 44.7799 10.4974 44.7777 C 10.7838 45.2096 11.9309 46.2051 13.0714 46.1018 Z " stroke-width="0.43932544875104895"/>
    <path id="ID0.13978398405015469" fill="#272525" d="M 26.6646 7.291 C 26.6804 8.3475 22.1277 7.3793 21.4419 7.3419 C 18.1272 7.1614 15.1889 3.8361 12.4524 7.3419 C 10.9864 9.2196 9.2559 10.2933 7.1783 11.3455 C 7.0531 11.4087 6.9472 11.5353 6.8532 11.635 C 6.9107 12.1165 7.6339 12.4196 8.0521 12.5211 C 9.794 12.942 11.8202 11.5019 12.9321 10.3236 L 12.9835 8.6028 C 13.5037 8.6603 12.9629 10.4523 13.9254 10.6812 C 14.5488 10.8293 15.8387 9.8289 16.3571 9.5056 L 16.5627 9.5056 C 16.5737 9.8773 15.7131 10.4813 15.4495 10.766 C 15.8892 11.2739 17.5929 13.7569 16.4256 14.0882 C 15.8734 14.245 15.2206 11.8402 14.7817 11.3455 C 14.5045 11.4505 14.0067 11.5181 13.7198 11.4307 C 13.4198 11.3389 13.4026 10.9668 13.1377 11.0555 C 12.6242 11.2282 11.5992 12.9003 10.3981 13.3044 C 9.4439 13.6251 8.2542 13.7095 7.3843 13.134 C 6.6529 12.6503 5.3674 11.6363 6.2372 10.647 C 6.7236 10.093 8.6755 9.7463 9.5252 9.1304 C 11.0773 8.0049 12.0987 5.9844 13.9597 5.3825 C 17.1668 4.3457 19.3858 6.5533 22.4352 6.7286 C 23.8305 6.809 25.3984 6.5564 26.6646 7.291 Z " stroke-width="0.43932544875104895"/>
    <path id="ID0.6837043510749936" fill="#272525" d="M 19.2918 20.3824 C 19.475 20.0925 19.2799 19.7357 19.4631 19.4453 C 16.1976 20.7176 14.5572 15.2115 19.2233 16.1746 C 19.8405 12.6977 23.2317 10.9158 25.456 10.1097 C 25.8865 9.9541 28.7593 9.2117 28.2132 10.4506 C 24.7904 10.5099 20.409 12.7935 19.4974 16.3279 C 19.8568 16.5809 20.3137 16.9043 20.2851 17.4011 C 20.2653 17.746 20.1344 18.1353 20.0927 18.4898 C 19.9855 19.4071 19.9956 21.8673 20.4046 22.6651 C 20.4196 22.6946 22.1342 21.8476 22.1342 21.8476 C 22.0991 23.5912 22.0029 25.649 23.2475 27.0439 C 23.5449 26.7785 23.8529 26.5062 24.2232 26.3454 C 24.8422 27.9103 26.0144 29.3385 27.5111 30.1438 C 27.7936 29.6869 27.9224 28.6448 27.9224 28.6448 C 28.7347 30.1455 30.329 31.4543 32.0318 31.7798 C 31.8091 31.3084 31.7269 30.779 31.4154 30.3485 C 31.9145 30.4588 32.2374 30.9297 32.7009 31.1323 C 33.8818 31.6467 35.5635 31.4789 36.1421 32.8861 C 36.7141 30.1526 34.355 29.4769 33.2654 28.2354 C 33.5216 27.8707 34.0246 27.97 34.3791 27.7754 C 33.5031 27.1256 31.7599 25.6978 31.7599 25.6978 C 32.298 25.5238 32.7844 25.8586 33.3173 25.8511 C 32.8832 24.7084 31.7067 23.5007 31.469 22.7851 C 31.9461 22.706 32.389 22.9472 32.8551 22.9894 C 32.6719 22.3023 32.2835 21.6824 31.9123 21.0814 C 31.9163 20.8187 33.7034 21.2193 33.7034 21.2193 C 33.5892 20.5942 32.4944 19.7656 32.1192 19.2757 L 32.6157 18.9515 C 33.3028 19.8886 34.2504 20.7545 34.4995 21.9332 C 34.1155 21.9657 33.7329 21.8836 33.3529 21.8484 C 33.3761 22.5694 33.9477 23.1357 33.9688 23.8588 C 33.6472 23.8983 33.3529 23.7217 33.0264 23.7744 C 33.0264 23.7744 34.4727 25.6846 35.0816 26.6362 L 33.7755 26.6151 C 34.3075 26.9503 35.484 27.5311 35.8693 28.0337 C 35.8131 28.4884 35.1862 28.2591 34.9617 28.5947 C 36.7045 29.3789 38.3374 33.0807 35.5271 34.8463 C 35.9809 31.9674 34.6278 32.8364 32.9412 32.238 C 32.9583 32.5614 33.1811 32.8342 33.2667 33.1422 C 30.9946 33.1747 29.4029 31.9485 28.0954 30.229 C 28.0471 30.6675 28.178 31.1015 28.1297 31.5395 C 26.0447 30.9732 25.0509 28.7221 24.1912 26.956 C 23.9074 27.3681 23.939 27.916 23.6091 28.3013 C 21.9326 27.3396 21.5056 24.846 21.3145 23.1225 C 20.9481 23.3575 20.2526 24.1444 20.2526 24.1444 C 19.6173 23.2894 19.6187 22.1766 19.2936 21.1974 C 18.1948 21.5919 16.5838 21.4078 15.8005 20.465 C 13.8213 18.0812 15.9933 14.1207 17.7353 12.2364 C 19.1947 10.6579 20.4749 9.4779 22.4273 8.5566 C 24.7148 7.4768 26.5771 6.9571 29.1569 7.211 C 30.0803 7.3024 31.2678 8.0527 31.6224 8.9323 C 31.9813 9.8232 31.5797 12.106 30.6462 12.5611 C 30.4059 12.678 29.9661 12.381 29.9099 12.1521 C 29.8672 11.9786 31.1835 10.6883 30.8513 9.3751 C 30.7173 8.8457 30.1133 8.0923 29.5676 7.9442 C 27.1008 7.2747 23.3182 8.844 21.2798 10.1927 C 18.9874 11.7101 15.8976 14.5042 15.6463 17.399 C 15.4591 19.5345 17.292 20.8108 19.2918 20.3824 Z " stroke-width="0.43932544875104895"/>
    <path id="ID0.8880664119496942" fill="#272525" d="M 30.6651 13.1639 C 31.5024 12.1916 32.7176 12.0792 33.5075 13.1639 C 33.2527 13.2157 32.903 13.5491 32.66 14.3232 C 32.1109 16.0753 30.6558 14.7938 29.518 14.7652 L 28.9798 14.9124 C 29.0084 14.5222 29.2553 13.6313 29.6379 13.3677 C 29.112 12.6077 28.7637 11.7466 28.4566 10.8807 L 28.6617 10.7955 C 29.2882 11.6157 29.869 12.4921 30.6651 13.1639 Z " stroke-width="0.43932544875104895"/>
    <path id="ID0.8772207787260413" fill="#272525" d="M 26.6549 12.7329 C 28.1701 12.4381 28.6837 13.0953 28.9495 14.5385 C 29.869 15.0982 32.581 16.3828 33.1108 17.1455 C 33.3572 17.4996 33.0282 18.3272 32.7343 18.5768 C 32.4153 18.847 31.5569 19.325 31.1417 19.3601 C 31.3715 20.1452 30.9555 20.7967 30.5601 21.4381 C 28.3863 20.2392 27.0635 19.7898 24.5668 20.5867 C 25.7784 21.2826 27.8314 21.9864 29.3611 21.3533 C 29.4161 21.8098 30.441 22.6524 30.3883 23.484 C 30.0513 23.6031 29.6717 23.2916 29.3611 23.1945 C 29.4143 23.6611 29.7956 24.8855 29.156 25.1702 C 28.9983 25.0511 29.141 24.9026 29.156 24.7598 C 29.2184 24.1835 28.4421 23.2231 28.2997 22.5795 C 28.616 22.4648 28.917 22.5254 29.2416 22.5465 C 29.116 22.3352 28.9245 22.221 28.6991 22.1621 C 27.9755 22.3089 27.4321 22.2034 26.9471 22.1366 C 26.2621 22.0448 24.446 21.4161 24.0703 20.8248 C 23.9056 20.5647 24.4622 20.2445 24.6353 20.1263 C 25.8909 19.2705 28.5023 19.3008 29.7381 20.1772 C 29.9788 20.3477 30.2068 20.5568 30.441 20.7396 C 30.6919 20.3785 30.6326 19.8939 30.6462 19.4787 C 28.6762 19.7173 27.1527 18.1757 26.6914 17.6388 C 25.8786 17.6226 25.0492 17.7632 24.3625 18.2179 C 24.5997 18.4252 25.0478 18.5531 24.9789 18.9502 C 24.312 19.2041 23.5599 19.3588 23.0441 19.8873 C 23.2282 20.0323 23.5612 19.915 23.6605 20.1768 C 23.3156 20.8793 22.976 21.5892 22.7528 22.34 C 22.679 22.3625 22.5889 22.2944 22.5815 22.221 C 22.5296 21.6986 22.7168 20.8296 22.9927 20.3811 C 22.7058 20.2216 22.3754 20.157 22.0508 20.1254 C 22.4637 19.3236 23.6653 18.8294 24.0712 18.7455 C 23.7602 18.4806 23.4158 18.3233 23.0779 18.0131 C 24.0466 17.3541 26.4515 17.2294 26.4515 17.2294 C 26.3882 17.113 26.1897 16.9649 26.2802 16.8208 C 28.7483 18.9845 31.122 18.9493 32.2387 17.315 C 31.4084 16.7922 29.4297 15.5371 28.7843 15.1087 C 27.5524 14.7986 25.0008 16.3182 24.2254 14.4871 C 23.9798 13.9068 24.044 12.8576 22.9927 12.6468 C 23.8362 11.3855 25.9221 11.3407 26.6549 12.7329 Z " stroke-width="0.43932544875104895"/>
    <path id="ID0.440462464466691" fill="#FFFFFF" d="M 26.2683 13.3589 C 27.1997 14.0372 27.9768 12.5976 28.4188 14.488 L 28.5128 14.7525 C 27.6276 14.578 25.2798 15.3267 24.9398 14.2881 C 24.6885 13.5197 24.5004 12.8647 23.7439 12.5295 C 25.0421 11.4536 25.6778 12.9284 26.2683 13.3589 Z " stroke-width="0.43932544875104895"/>
    <path id="ID0.29329906729981303" fill="#FFFFFF" d="M 32.7505 12.9833 C 32.1851 13.4094 32.3222 14.8337 31.2779 14.6804 C 31.2779 14.6804 29.9494 14.3052 29.4103 14.466 C 29.554 14.0548 29.8413 13.6445 30.398 13.7337 C 31.6316 13.9314 31.7445 12.3045 32.7505 12.9833 Z " stroke-width="0.43932544875104895"/>
    <path id="ID0.9228317416273057" fill="#272525" d="M 22.4598 17.0598 C 22.4281 17.6428 22.9083 18.3321 22.5112 18.8659 C 22.3803 18.8219 22.2379 18.7929 22.1342 18.6954 C 22.0872 18.8984 22.5208 19.7621 22.2107 19.7889 C 22.1224 19.2547 21.3663 18.7319 21.2266 18.2183 C 21.6005 18.1278 21.7762 18.2135 22.0486 18.2183 C 21.9401 17.54 21.6549 16.9051 21.4832 16.2418 C 21.8377 16.1557 22.6302 16.2079 22.6302 16.2079 C 22.6135 15.2199 22.0771 13.8909 21.8869 12.9293 C 22.5995 12.602 23.5805 16.2672 23.6916 16.7874 C 23.8133 17.3528 22.7322 17.1872 22.4598 17.0598 Z " stroke-width="0.43932544875104895"/>
    <path id="ID0.029125411063432693" fill="#FFDEAE" d="M 19.8396 17.3497 C 19.6622 20.4676 16.673 18.7279 17.0315 17.4007 C 17.3408 16.2541 19.3401 16.4127 19.8396 17.3497 Z " stroke-width="0.43932544875104895"/>
    <path id="ID0.6605127989314497" fill="#272525" d="M 19.3432 17.5545 C 19.4284 18.0825 18.7611 17.7074 18.6069 18.0483 C 18.7782 18.2354 19.0005 18.3207 19.2575 18.3378 L 19.2575 18.5421 C 18.8125 18.6787 18.0626 18.4138 18.009 17.967 C 17.9765 17.6955 18.3842 17.6046 18.6065 17.4688 C 18.2471 17.1622 17.853 17.4007 17.5275 17.2641 C 18.1887 16.7878 19.0691 17.0598 19.3432 17.5545 Z " stroke-width="0.43932544875104895"/>
    <path id="ID0.45127194514498115" fill="#272525" d="M 15.2439 17.2887 C 15.326 17.5334 15.3005 17.8225 15.1239 18.021 C 10.5831 19.1571 6.0716 23.0487 5.2848 27.742 C 5.6956 28.0442 7.2565 28.5025 7.5232 28.9708 C 7.0333 29.6667 4.6025 28.1514 4.0173 27.9797 C 3.9101 27.9489 3.737 28.0249 3.7261 28.1506 C 3.6615 28.9172 5.4842 29.447 5.9785 29.7216 L 5.8247 30.1983 C 5.6758 30.2949 4.9368 29.9487 4.7875 29.9057 C 4.4417 33.321 5.3177 42.0697 5.3191 43.1083 C 8.2419 44.4408 16.5733 44.8695 21.8434 39.0195 C 21.8465 39.016 19.9486 34.7233 19.9126 33.006 C 18.7677 33.2068 16.5996 33.1303 15.4578 32.9418 C 15.3515 32.7494 15.3616 32.5298 15.4235 32.3285 C 17.0064 32.5965 19.6608 32.6673 21.0254 31.8637 C 21.2723 31.7183 21.1176 31.1428 20.8997 31.1661 C 18.9698 31.3752 15.9296 31.8268 14.0124 31.3357 C 13.4852 31.1995 13.8486 30.8454 14.1666 30.7566 C 16.6563 30.993 20.8668 30.4337 20.8668 30.4337 C 21.1352 30.0577 22.6017 28.1743 22.9215 28.0645 C 23.0977 28.0038 23.1258 28.2525 23.1957 28.354 C 23.1899 28.3887 21.8373 30.4184 21.6374 30.841 C 22.1566 31.5426 21.9589 32.293 20.5246 32.7661 C 20.6656 34.4413 22.4831 37.7586 22.6302 37.9111 C 22.7625 37.6962 23.0362 37.6571 23.2471 37.5539 C 23.515 37.5974 23.3793 38.0389 23.3327 38.2028 C 22.9804 39.4351 20.8272 41.4441 19.754 42.1382 C 15.949 44.5998 10.5725 45.9028 6.1924 44.3024 C 5.4513 44.0326 4.3666 43.9254 3.7608 43.4329 C 3.7441 43.259 3.7603 43.0547 3.9321 42.9563 C 4.6021 43.0503 4.2739 42.1923 4.2919 41.7978 C 4.324 41.083 3.897 30.758 3.9325 29.6513 C 3.7313 29.2238 2.7358 28.4352 2.905 27.8966 C 3.1005 27.2715 3.7814 27.3207 4.2924 27.4534 C 4.5098 27.1511 4.552 26.7742 4.6689 26.4315 C 6.2104 21.8972 10.4324 18.0667 15.2439 17.2887 Z " stroke-width="0.43932544875104895"/>
    <path id="ID0.8263134639710188" fill="#272525" d="M 12.1853 19.9224 C 9.5998 22.1757 7.731 25.0076 8.0416 28.5596 C 8.9953 28.6136 10.9345 28.2564 11.7402 28.0653 C 11.2218 25.5414 11.0549 23.0856 13.2985 20.331 C 13.4721 20.2638 13.661 19.9774 13.8292 20.1267 C 13.8723 20.6574 13.3754 20.9944 13.1786 21.4381 C 12.3544 23.2965 11.9037 25.8366 12.3909 27.8268 C 12.9093 27.919 13.7581 27.2706 14.0858 27.8949 C 14.3476 28.3931 14.7654 30.2062 14.8564 30.808 C 13.3438 31.8804 8.1896 32.9845 6.3462 32.7327 C 5.9363 31.6001 5.4636 30.4904 5.6613 29.2585 C 6.0844 29.0055 6.6058 29.0846 7.0482 28.8834 C 7.3558 24.9224 8.5077 21.7219 12.1853 19.6839 L 12.1853 19.9224 Z " stroke-width="0.43932544875104895"/>
    <path id="ID0.2176390546374023" fill="#53C73B" d="M 13.6236 28.4739 C 13.8134 29.15 14.1016 29.8073 14.1201 30.5168 C 12.694 31.1485 8.2116 31.7131 6.8084 31.7776 C 6.5566 31.145 6.3668 30.414 6.5175 29.7352 C 7.8584 29.4092 12.6075 28.7314 13.6236 28.4739 Z " stroke-width="0.43932544875104895"/>
    <path id="ID0.5753313940949738" fill="#272525" d="M 14.5655 34.284 C 14.5655 34.284 15.9428 35.5484 15.6445 36.362 C 15.3221 37.2406 14.3309 36.9608 13.6755 36.771 C 13.7361 37.4383 13.8793 37.948 13.2133 38.3209 C 12.4181 38.7669 11.5777 37.5078 11.3637 36.8892 C 11.1625 37.2235 11.1001 37.6549 10.7135 37.8438 C 10.3924 37.9994 10.2171 37.8315 9.9258 37.6382 C 9.0481 36.4955 9.6952 35.2628 10.0972 34.1131 C 9.9821 33.7854 8.292 32.854 8.5657 32.401 C 8.6904 32.1946 9.6069 32.3299 9.6069 32.3299 C 9.9913 32.6971 10.7917 33.4936 11.2104 33.824 C 10.7074 34.6702 9.6029 36.0694 10.3028 37.0948 C 10.3599 37.1774 10.5106 37.195 10.594 37.1436 C 10.9596 36.9292 10.9776 35.4921 11.6554 35.0146 C 11.7481 35.4447 11.8628 37.7147 12.7687 37.4335 C 13.5107 37.2046 12.5807 35.301 12.6488 34.7242 C 12.9304 34.744 13.5582 36.3044 14.8234 36.2407 C 15.4442 35.6349 13.6662 34.7488 13.5393 33.907 C 14.1798 33.6241 15.0655 33.4875 15.2342 32.68 C 14.5726 31.8563 13.8789 32.8777 12.8882 33.2081 C 12.6962 32.9313 11.7952 31.9723 11.7952 31.9723 C 11.7389 31.7605 12.0346 31.7798 12.1207 31.6498 C 12.4664 31.485 13.0275 32.1862 13.2994 32.3567 C 13.7321 32.2218 14.3323 31.9433 14.772 31.9138 C 16.0874 31.8304 15.7978 33.5196 14.5655 34.284 Z " stroke-width="0.43932544875104895"/>
  </g>
</svg>