<svg xmlns="http://www.w3.org/2000/svg" xmlns:xlink="http://www.w3.org/1999/xlink" version="1.1" width="82.54988952636718" height="255.27085205078126" viewBox="-0.7299929815530777 -0.7299607801437378 82.54988952636718 255.27085205078126"><g><g data-paper-data="{&quot;isPaintingLayer&quot;:true}" fill-rule="nonzero" stroke-linejoin="miter" stroke-miterlimit="10" stroke-dasharray="" stroke-dashoffset="0" style="mix-blend-mode: normal"><g data-paper-data="{&quot;origPos&quot;:null}" stroke-linecap="butt"><path d="M 25.5899 44.111 C 25.6899 48.411 26.1899 54.911 22.8899 54.211 C 19.4899 53.311 21.3899 48.911 21.1899 44.611 C 20.7899 35.311 19.6899 35.411 20.6899 26.111 C 23.8899 10.711 34.9899 4.211 35.5899 8.111 C 36.0899 11.211 28.1899 13.111 26.0899 26.311 C 24.2899 37.811 25.4899 39.911 25.5899 44.111 Z " data-paper-data="{&quot;origPos&quot;:null}" stroke-width="1" fill="#000000" stroke="none"/><path d="M 27.9899 35.011 C 26.9899 43.211 26.9899 50.811 23.4899 50.111 C 20.9899 49.611 22.6899 42.011 23.5899 34.711 C 24.5899 26.311 25.2899 15.711 27.8899 16.011 C 30.7899 15.911 28.9899 26.511 27.9899 35.011 Z " data-paper-data="{&quot;origPos&quot;:null}" stroke-width="1" fill="#000000" stroke="none"/><path d="M 57.5899 37.111 C 58.1899 45.411 59.6899 51.911 56.9899 52.311 C 54.2899 52.711 53.7899 45.011 53.2899 37.611 C 52.6899 29.211 51.9899 22.411 53.8899 22.011 C 56.6899 21.411 56.9899 28.711 57.5899 37.111 Z " data-paper-data="{&quot;origPos&quot;:null}" stroke-width="1" fill="#000000" stroke="none"/><path d="M 31.0899 42.011 C 30.2899 50.211 30.4899 57.811 26.9899 57.211 C 24.3899 56.811 25.9899 49.111 26.6899 41.811 C 27.4899 33.411 27.7899 26.611 29.8899 26.511 C 32.7899 26.411 31.8899 33.611 31.0899 42.011 Z " data-paper-data="{&quot;origPos&quot;:null}" stroke-width="1" fill="#000000" stroke="none"/><path d="M 36.3899 43.111 C 36.3899 51.411 37.2899 58.911 33.7899 58.611 C 31.1899 58.411 31.9899 50.611 31.9899 43.311 C 31.9899 34.811 31.6899 28.111 33.6899 27.811 C 36.5899 27.411 36.3899 34.611 36.3899 43.111 Z " data-paper-data="{&quot;origPos&quot;:null}" stroke-width="1" fill="#000000" stroke="none"/><path d="M 51.4899 42.411 C 52.0899 50.711 53.4899 58.111 49.9899 58.111 C 47.3899 58.111 47.6899 50.311 47.0899 42.911 C 46.4899 34.511 45.6899 27.711 47.5899 27.311 C 50.5899 26.711 50.8899 34.011 51.4899 42.411 Z " data-paper-data="{&quot;origPos&quot;:null}" stroke-width="1" fill="#000000" stroke="none"/></g><g data-paper-data="{&quot;origPos&quot;:null}" stroke-linecap="butt"><path d="M 28.6899 5.011 C 21.8899 7.611 31.4899 10.711 29.2899 13.011 C 25.3899 17.111 17.4899 8.011 26.0899 1.511 C 32.8899 -3.589 42.1899 5.611 38.3899 8.611 C 35.5899 10.911 36.5899 1.911 28.6899 5.011 Z " stroke-width="1" fill="#000000" stroke="none"/><path d="M 30.3399 12.911 C 27.0399 15.261 23.3899 8.311 28.4899 4.911 C 34.9899 0.611 38.2899 8.011 35.5899 9.911 C 33.7899 11.211 33.7899 6.411 31.2899 9.111 C 28.9899 11.411 32.9399 12.011 30.3399 12.911 Z " stroke-width="1" fill="#000000" stroke="none"/></g><g stroke-linecap="butt"><path d="M 49.3899 253.8109 L 50.0899 244.1109 L 62.6899 244.7109 L 70.7899 247.0109 L 77.0899 253.8109 Z " fill="#ebebeb" stroke-width="1" stroke="none"/><path d="M 50.7899 245.511 L 45.6899 195.111 L 39.3899 133.111 L 64.9899 133.111 L 64.9899 195.411 L 64.9899 245.511 Z " fill="#7194cc" stroke-width="1" stroke="none"/></g><g stroke-linecap="butt"><path d="M 15.7899 253.8109 L 16.4899 244.1109 L 29.0899 244.7109 L 37.1899 247.0109 L 43.4899 253.8109 Z " fill="#ebebeb" stroke-width="1" stroke="none"/><path d="M 17.3899 245.511 L 17.3899 193.211 L 17.3899 133.111 L 42.1899 133.111 L 36.3899 194.911 L 31.5899 245.511 Z " fill="#7194cc" stroke-width="1" stroke="none"/></g><g stroke-linecap="butt"><path d="M 77.7899 136.011 L 71.6899 138.411 L 65.0899 111.311 C 65.0899 111.311 67.3899 107.111 70.0899 107.411 C 72.0899 107.611 75.4899 108.411 75.4899 108.411 Z " stroke-width="1" fill="#72471e" stroke="none"/><path d="M 74.6899 158.211 C 73.0899 158.211 73.9899 149.411 72.4899 149.011 C 71.3899 148.711 72.6899 154.411 72.2899 155.311 C 71.8899 156.211 69.5899 154.411 69.5899 154.411 C 69.5899 154.411 67.5899 149.111 67.2899 146.411 C 66.4899 140.311 71.3899 135.111 71.3899 135.111 L 77.4899 135.511 C 77.4899 135.511 81.0899 142.211 81.0899 146.511 C 81.0899 150.511 78.3899 155.611 78.3899 155.611 C 78.3899 155.611 76.3899 158.211 74.6899 158.211 Z " stroke-width="1" fill="#72471e" stroke="none"/></g><g stroke-linecap="butt"><path d="M 71.5899 112.0109 C 69.1899 112.4109 65.1899 110.7109 65.1899 110.7109 C 65.1899 110.7109 59.1899 63.8109 64.3899 62.1109 C 73.7899 58.7109 75.4899 108.7109 75.4899 108.7109 C 75.4899 108.7109 73.9899 111.6109 71.5899 112.0109 Z " fill="#72471e" stroke-width="1" stroke="none"/><path d="M 60.7899 93.711 C 60.7899 93.711 53.9899 60.811 62.6899 58.611 C 70.2899 56.611 78.8899 87.611 78.8899 87.611 Z " fill="#a789d6" stroke-width="1" stroke="none"/></g><path d="M 15.0899 136.011 L 15.7899 59.811 C 15.7899 59.811 27.1899 54.111 39.0899 53.911 C 51.0899 53.711 63.8899 57.511 63.8899 57.511 L 66.0899 135.011 Z " data-paper-data="{&quot;origPos&quot;:null}" fill="#b598e2" stroke="none" stroke-width="1" stroke-linecap="butt"/><g stroke-linecap="butt"><path d="M 28.2899 33.111 C 29.0899 35.511 28.5899 37.811 27.2899 38.2109 C 25.8899 38.7109 24.0899 37.2109 23.2899 34.8109 C 22.4899 32.4109 22.9899 30.1109 24.2899 29.7109 C 25.6899 29.2109 27.4899 30.8109 28.2899 33.111 Z " data-paper-data="{&quot;origPos&quot;:null}" stroke-width="1" fill="#72471e" stroke="none"/><path d="M 34.6899 45.9109 L 48.2899 47.611 L 48.1899 56.7109 C 48.1899 56.7109 53.0899 57.611 52.9899 60.4109 C 52.8899 64.9109 34.0899 67.311 30.1899 60.4109 C 28.6899 57.0109 34.0899 55.4109 34.0899 55.4109 Z " data-paper-data="{&quot;origPos&quot;:null}" stroke-width="1" fill="#72471e" stroke="none"/><path d="M 59.7899 30.9109 C 59.7899 43.7109 51.8899 50.511 45.0899 50.8109 C 33.2899 51.0109 25.6899 41.3109 25.6899 28.5109 C 25.6899 15.7109 27.8899 6.1109 42.8899 5.4109 C 54.2899 4.8109 61.7524 16.9109 59.7524 30.6109 Z " data-paper-data="{&quot;origPos&quot;:null}" stroke-width="1" fill="#72471e" stroke="none"/></g><g data-paper-data="{&quot;origPos&quot;:null}" stroke-linecap="butt"><path d="M 5.5899 114.511 C 3.5899 114.311 0.3899 112.311 0.3899 112.311 C 0.3899 112.311 4.9899 61.711 16.8899 62.011 C 26.1899 61.711 10.8899 113.311 10.8899 113.311 C 10.8899 113.311 7.6899 114.711 5.5899 114.511 Z " fill="#72471e" stroke-width="1" stroke="none"/><path d="M 0.5899 88.611 C 0.5899 88.611 9.9899 59.611 15.7899 60.4109 C 29.4899 62.2109 18.9899 97.3109 18.9899 97.3109 Z " fill="#a789d6" stroke-width="1" stroke="none"/></g><g data-paper-data="{&quot;origPos&quot;:null}"><path d="M 34.0899 24.411 C 34.0899 24.411 36.9899 23.611 38.4899 23.611 C 40.1899 23.511 42.1899 24.411 42.1899 24.411 " fill="none" stroke="#000000" stroke-width="1.46" stroke-linecap="round"/><g><path d="M 33.9899 28.811 C 33.9899 28.811 36.1899 26.911 38.4899 27.111 C 40.9899 27.311 41.3899 28.611 41.3899 28.611 " fill="none" stroke="#000000" stroke-width="1.46" stroke-linecap="round"/><path d="M 37.3899 29.511 C 37.3899 28.311 38.2899 27.311 39.4899 27.311 C 40.6899 27.311 41.5899 28.311 41.5899 29.511 C 41.5899 30.711 40.6899 31.711 39.4899 31.711 C 38.2899 31.711 37.3899 30.711 37.3899 29.511 Z " fill="#000000" stroke="none" stroke-width="1" stroke-linecap="butt"/></g></g><path d="M 51.5899 15.511 C 49.0899 15.011 36.5899 15.411 34.2899 16.511 C 28.5899 19.411 27.6899 30.911 27.6899 30.911 L 25.0899 30.111 C 25.0899 30.111 21.5899 5.211 42.9899 5.411 C 54.3899 4.811 59.2899 15.611 59.7899 22.111 C 59.7899 22.011 59.6899 17.111 51.5899 15.511 Z " data-paper-data="{&quot;origPos&quot;:null}" fill="#35210e" stroke="none" stroke-width="1" stroke-linecap="butt"/><g data-paper-data="{&quot;origPos&quot;:null}"><path d="M 49.4899 24.411 C 49.4899 24.411 51.7899 23.611 53.4899 23.611 C 54.9899 23.711 56.6899 24.111 56.6899 24.111 " fill="none" stroke="#000000" stroke-width="1.46" stroke-linecap="round"/><g><path d="M 49.5899 28.511 C 49.5899 28.511 50.0899 27.211 52.4899 27.011 C 54.7899 26.811 56.9899 28.711 56.9899 28.711 " fill="none" stroke="#000000" stroke-width="1.46" stroke-linecap="round"/><path d="M 54.1899 31.411 C 52.9899 31.411 52.0899 30.411 52.0899 29.211 C 52.0899 28.011 52.9899 27.011 54.1899 27.011 C 55.3899 27.011 56.2899 28.011 56.2899 29.211 C 56.2899 30.411 55.3899 31.411 54.1899 31.411 Z " fill="#000000" stroke="none" stroke-width="1" stroke-linecap="butt"/></g></g><g data-paper-data="{&quot;origPos&quot;:null}"><path d="M 32.0899 33.511 L 32.0899 25.111 L 42.6899 25.111 L 42.6899 33.511 Z " stroke-linecap="butt" stroke-width="1.46" fill="none" stroke="#d20000"/><path d="M 48.4899 33.511 L 48.4899 25.111 L 59.3899 25.111 L 59.3899 33.511 Z " stroke-linecap="butt" stroke-width="1.46" fill="none" stroke="#d20000"/><path d="M 47.5899 29.4928 L 43.1899 29.511 " data-paper-data="{&quot;origPos&quot;:null}" stroke-linecap="round" stroke-width="1.46" fill="none" stroke="#d20000"/><path d="M 26.3899 29.511 L 31.2899 29.111 " stroke-linecap="round" stroke-width="1.46" fill="none" stroke="#d20000"/></g><g data-paper-data="{&quot;origPos&quot;:null}" stroke-linecap="butt"><g data-paper-data="{&quot;origPos&quot;:null}"><path d="M 45.8899 12.311 C 45.4899 15.511 38.7899 13.511 35.0899 26.411 C 31.9899 37.411 31.2899 45.211 27.3899 43.311 C 24.8899 42.111 27.6899 35.411 31.0899 23.711 C 35.3899 8.611 46.1899 9.111 45.8899 12.311 Z " stroke-width="1" fill="#000000" stroke="none"/><path d="M 60.7899 22.111 C 62.2899 32.111 62.7899 35.911 59.1899 35.711 C 56.3899 35.511 58.3899 30.611 56.7899 23.911 C 54.1899 13.111 45.9899 17.911 45.6899 12.311 C 45.2899 9.111 58.9899 9.811 60.7899 22.111 Z " stroke-width="1" fill="#000000" stroke="none"/><path d="M 40.7899 14.311 C 40.3899 18.811 33.8899 16.011 30.3899 21.311 C 26.8899 26.611 26.7566 32.311 24.3899 30.511 C 21.9566 29.011 22.0321 27.1256 26.9232 18.2443 C 31.8144 9.363 40.8899 12.111 40.7899 14.311 Z " data-paper-data="{&quot;origPos&quot;:null}" stroke-width="1" fill="#000000" stroke="none"/><path d="M 31.3899 26.611 C 29.5899 28.611 24.7899 32.511 23.0899 29.411 C 21.3899 26.311 27.2899 27.011 28.8899 24.011 C 30.4899 21.011 30.2899 15.911 33.2899 17.011 C 35.4899 17.711 34.2899 23.411 31.3899 26.611 Z " stroke-width="1" fill="#000000" stroke="none"/></g><g data-paper-data="{&quot;origPos&quot;:null}"><path d="M 55.1899 15.2109 C 53.0899 16.5109 51.2899 13.4109 49.8899 10.9109 C 48.2899 7.9109 46.6899 6.5109 48.6899 5.0109 C 51.1899 3.3109 52.3899 6.2109 53.8899 8.5109 C 55.8899 11.5109 57.5899 13.7109 55.1899 15.2109 Z " stroke-width="1" fill="#000000" stroke="none"/><path d="M 49.5899 14.411 C 47.4899 15.711 45.6899 12.611 44.2899 10.111 C 42.6899 7.111 41.0899 5.711 43.0899 4.211 C 45.5899 2.511 46.7899 5.411 48.2899 7.711 C 50.2899 10.811 51.9899 13.011 49.5899 14.411 Z " stroke-width="1" fill="#000000" stroke="none"/><path d="M 44.2899 14.7109 C 42.1899 16.0109 40.3899 12.9109 38.9899 10.4109 C 37.3899 7.4109 35.7899 6.0109 37.7899 4.5109 C 40.2899 2.8109 41.4899 5.7109 42.9899 8.0109 C 45.0899 11.0109 46.6899 13.2109 44.2899 14.7109 Z " stroke-width="1" fill="#000000" stroke="none"/><path d="M 40.9899 14.411 C 39.3899 16.311 36.6899 13.911 34.6899 11.911 C 32.2899 9.611 30.1899 8.711 31.6899 6.611 C 33.5899 4.211 35.5899 6.611 37.6899 8.311 C 40.5899 10.711 42.8899 12.311 40.9899 14.411 Z " stroke-width="1" fill="#000000" stroke="none"/><path d="M 37.9899 15.811 C 36.9899 18.011 33.7899 16.611 31.1899 15.211 C 28.1899 13.711 25.9899 13.411 26.8899 11.011 C 27.9899 8.211 30.5899 9.911 33.1899 10.911 C 36.4899 12.311 39.0899 13.211 37.9899 15.811 Z " stroke-width="1" fill="#000000" stroke="none"/><path d="M 29.9899 19.511 C 26.6899 18.911 24.4899 19.311 24.5899 16.811 C 24.7899 13.811 27.8899 14.711 30.5899 14.9109 C 34.2899 15.2109 36.9899 15.311 36.6899 18.111 C 36.2899 20.811 29.9899 19.511 29.9899 19.511 Z " data-paper-data="{&quot;origPos&quot;:null}" stroke-width="1" fill="#000000" stroke="none"/></g></g><g stroke-linecap="butt"><path d="M 1.9899 139.211 L 0.1899 111.511 C 0.1899 111.511 3.4899 110.311 5.4899 109.911 C 8.1899 109.311 11.0899 113.211 11.0899 113.211 L 8.4899 140.911 Z " stroke-width="1" fill="#72471e" stroke="none"/><path d="M 4.0899 158.311 C 4.0899 158.311 0.6899 153.511 0.0899 149.511 C -0.5101 145.211 2.0899 138.211 2.0899 138.211 L 8.0899 137.111 C 8.0899 137.111 13.6899 141.811 13.7899 147.811 C 13.7899 150.511 12.6899 156.011 12.6899 156.011 C 12.6899 156.011 10.6899 158.011 10.1899 157.211 C 9.6899 156.411 10.1899 150.611 9.0899 151.011 C 7.6899 151.511 9.7899 160.211 8.1899 160.311 C 6.3899 160.611 4.0899 158.311 4.0899 158.311 Z " stroke-width="1" fill="#72471e" stroke="none"/></g><path d="M 48.1899 43.711 C 48.1899 44.411 46.1899 45.911 44.4899 45.911 C 42.6899 45.911 40.9899 44.011 40.9899 43.211 C 40.9899 42.511 43.1899 43.211 44.9899 43.211 C 46.7899 43.211 48.1899 43.011 48.1899 43.711 Z " fill="#000000" stroke="none" stroke-width="1" stroke-linecap="butt"/><path d="M 45.4899 32.411 C 45.4899 32.411 47.7899 34.311 47.6899 35.911 C 47.6899 36.611 45.1899 38.011 45.1899 38.011 " fill="none" stroke="#000000" stroke-width="1.46" stroke-linecap="round"/></g></g></svg>