<svg xmlns="http://www.w3.org/2000/svg" xmlns:xlink="http://www.w3.org/1999/xlink" version="1.1" width="287.91668701171875" height="307.7226257324219" viewBox="-2.1080000400543213 0.7999999523162842 287.91668701171875 307.7226257324219">
  <!-- Exported by Scratch - http://scratch.mit.edu/ -->
  <path id="ID0.9095093756914139" fill="none" stroke="#000000" stroke-width="6" stroke-linecap="round" d="M 41.6 4.9 L 46.75 19.2 "/>
  <path id="ID0.9095093756914139" fill="none" stroke="#000000" stroke-width="6" stroke-linecap="round" d="M 116.2 4.05 L 121.35 18.35 "/>
  <path id="ID0.9095093756914139" fill="none" stroke="#000000" stroke-width="6" stroke-linecap="round" d="M 135.1 4.55 L 140.25 18.85 "/>
  <path id="ID0.9095093756914139" fill="none" stroke="#000000" stroke-width="6" stroke-linecap="round" d="M 60.1 5.3 L 65.25 19.6 "/>
  <path id="ID0.9095093756914139" fill="none" stroke="#000000" stroke-width="6" stroke-linecap="round" d="M 153.85 4.15 L 159 18.45 "/>
  <path id="ID0.9095093756914139" fill="none" stroke="#000000" stroke-width="6" stroke-linecap="round" d="M 172.5 4.4 L 177.65 18.7 "/>
  <path id="ID0.9095093756914139" fill="none" stroke="#000000" stroke-width="6" stroke-linecap="round" d="M 191 4.55 L 196.15 18.85 "/>
  <path id="ID0.9095093756914139" fill="none" stroke="#000000" stroke-width="6" stroke-linecap="round" d="M 265.95 5.05 L 271.1 19.35 "/>
  <path id="ID0.9095093756914139" fill="none" stroke="#000000" stroke-width="6" stroke-linecap="round" d="M 247 5.3 L 252.15 19.6 "/>
  <path id="ID0.9095093756914139" fill="none" stroke="#000000" stroke-width="6" stroke-linecap="round" d="M 97.85 3.8 L 103 18.1 "/>
  <path id="ID0.9095093756914139" fill="none" stroke="#000000" stroke-width="6" stroke-linecap="round" d="M 209.5 5.05 L 214.65 19.35 "/>
  <path id="ID0.9095093756914139" fill="none" stroke="#000000" stroke-width="6" stroke-linecap="round" d="M 79 5.05 L 84.15 19.35 "/>
  <path id="ID0.9095093756914139" fill="none" stroke="#000000" stroke-width="6" stroke-linecap="round" d="M 228.4 4.8 L 233.55 19.1 "/>
  <path id="ID0.9095093756914139" fill="none" stroke="#000000" stroke-width="6" stroke-linecap="round" d="M 23.1 4.65 L 28.25 18.95 "/>
  <path id="ID0.07590068271383643" fill="#CCCCCC" stroke="none" d="M 7.342 24.492 L 282.8087 24.492 L 282.8087 305.5226 L 7.342 305.5226 L 7.342 24.492 Z " stroke-width="1.2504398972916024"/>
  <path id="ID0.07590068271383643" fill="#E5E5E5" stroke="none" d="M 4.142 21.742 L 279.6087 21.742 L 279.6087 302.7726 L 4.142 302.7726 L 4.142 21.742 Z " stroke-width="1.2504398972916024"/>
  <path id="ID0.07590068271383643" fill="#FFFFFF" stroke="none" d="M 0.892 18.592 L 276.3587 18.592 L 276.3587 299.6226 L 0.892 299.6226 L 0.892 18.592 Z " stroke-width="1.2504398972916024"/>
  <path id="ID0.36722757993265986" fill="#CCCCCC" stroke="none" d="M 13.9424 25.3333 C 15.8333 25.3333 17.5477 26.1173 18.7888 27.385 C 20.0299 28.6518 20.7977 30.4022 20.7977 32.3333 C 20.7977 34.2645 20.0299 36.0149 18.7888 37.2817 C 17.5477 38.5493 15.8333 39.3333 13.9424 39.3333 C 12.0515 39.3333 10.3371 38.5493 9.096 37.2817 C 7.8549 36.0149 7.0871 34.2645 7.0871 32.3333 C 7.0871 30.4022 7.8549 28.6518 9.096 27.385 C 10.3371 26.1173 12.0515 25.3333 13.9424 25.3333 Z " stroke-width="1.0347315886237909"/>
  <path id="ID0.272235160227865" fill="none" stroke="#000000" stroke-width="6" stroke-linecap="round" d="M 13.85 32.4 L 23 4.3 "/>
  <path id="ID0.36722757993265986" fill="#CCCCCC" stroke="none" d="M 32.5424 25.5833 C 34.4333 25.5833 36.1477 26.3673 37.3888 27.635 C 38.6299 28.9018 39.3977 30.6522 39.3977 32.5833 C 39.3977 34.5145 38.6299 36.2649 37.3888 37.5317 C 36.1477 38.7993 34.4333 39.5833 32.5424 39.5833 C 30.6515 39.5833 28.9371 38.7993 27.696 37.5317 C 26.4549 36.2649 25.6871 34.5145 25.6871 32.5833 C 25.6871 30.6522 26.4549 28.9018 27.696 27.635 C 28.9371 26.3673 30.6515 25.5833 32.5424 25.5833 Z " stroke-width="1.0347315886237909"/>
  <path id="ID0.272235160227865" fill="none" stroke="#000000" stroke-width="6" stroke-linecap="round" d="M 32.35 32.65 L 41.5 4.55 "/>
  <path id="ID0.36722757993265986" fill="#CCCCCC" stroke="none" d="M 51.0424 25.8833 C 52.9333 25.8833 54.6477 26.6673 55.8888 27.935 C 57.1299 29.2018 57.8977 30.9522 57.8977 32.8833 C 57.8977 34.8145 57.1299 36.5649 55.8888 37.8317 C 54.6477 39.0993 52.9333 39.8833 51.0424 39.8833 C 49.1515 39.8833 47.4371 39.0993 46.196 37.8317 C 44.9549 36.5649 44.1871 34.8145 44.1871 32.8833 C 44.1871 30.9522 44.9549 29.2018 46.196 27.935 C 47.4371 26.6673 49.1515 25.8833 51.0424 25.8833 Z " stroke-width="1.0347315886237909"/>
  <path id="ID0.272235160227865" fill="none" stroke="#000000" stroke-width="6" stroke-linecap="round" d="M 50.9 33.05 L 60.05 4.95 "/>
  <path id="ID0.36722757993265986" fill="#CCCCCC" stroke="none" d="M 69.8424 25.7333 C 71.7333 25.7333 73.4477 26.5173 74.6888 27.785 C 75.9299 29.0518 76.6977 30.8022 76.6977 32.7333 C 76.6977 34.6645 75.9299 36.4149 74.6888 37.6817 C 73.4477 38.9493 71.7333 39.7333 69.8424 39.7333 C 67.9515 39.7333 66.2371 38.9493 64.996 37.6817 C 63.7549 36.4149 62.9871 34.6645 62.9871 32.7333 C 62.9871 30.8022 63.7549 29.0518 64.996 27.785 C 66.2371 26.5173 67.9515 25.7333 69.8424 25.7333 Z " stroke-width="1.0347315886237909"/>
  <path id="ID0.272235160227865" fill="none" stroke="#000000" stroke-width="6" stroke-linecap="round" d="M 69.75 32.9 L 78.9 4.8 "/>
  <path id="ID0.36722757993265986" fill="#CCCCCC" stroke="none" d="M 89.1424 24.6333 C 91.0333 24.6333 92.7477 25.4173 93.9888 26.685 C 95.2299 27.9518 95.9977 29.7022 95.9977 31.6333 C 95.9977 33.5645 95.2299 35.3149 93.9888 36.5817 C 92.7477 37.8493 91.0333 38.6333 89.1424 38.6333 C 87.2515 38.6333 85.5371 37.8493 84.296 36.5817 C 83.0549 35.3149 82.2871 33.5645 82.2871 31.6333 C 82.2871 29.7022 83.0549 27.9518 84.296 26.685 C 85.5371 25.4173 87.2515 24.6333 89.1424 24.6333 Z " stroke-width="1.0347315886237909"/>
  <path id="ID0.272235160227865" fill="none" stroke="#000000" stroke-width="6" stroke-linecap="round" d="M 88.45 32.05 L 97.6 3.95 "/>
  <path id="ID0.36722757993265986" fill="#CCCCCC" stroke="none" d="M 107.6924 24.8833 C 109.5833 24.8833 111.2977 25.6673 112.5388 26.935 C 113.7799 28.2018 114.5477 29.9522 114.5477 31.8833 C 114.5477 33.8145 113.7799 35.5649 112.5388 36.8317 C 111.2977 38.0993 109.5833 38.8833 107.6924 38.8833 C 105.8015 38.8833 104.0871 38.0993 102.846 36.8317 C 101.6049 35.5649 100.8371 33.8145 100.8371 31.8833 C 100.8371 29.9522 101.6049 28.2018 102.846 26.935 C 104.0871 25.6673 105.8015 24.8833 107.6924 24.8833 Z " stroke-width="1.0347315886237909"/>
  <path id="ID0.272235160227865" fill="none" stroke="#000000" stroke-width="6" stroke-linecap="round" d="M 106.95 32.3 L 116.1 4.2 "/>
  <path id="ID0.36722757993265986" fill="#CCCCCC" stroke="none" d="M 126.2924 25.3833 C 128.1833 25.3833 129.8977 26.1673 131.1388 27.435 C 132.3799 28.7018 133.1477 30.4522 133.1477 32.3833 C 133.1477 34.3145 132.3799 36.0649 131.1388 37.3317 C 129.8977 38.5993 128.1833 39.3833 126.2924 39.3833 C 124.4015 39.3833 122.6871 38.5993 121.446 37.3317 C 120.2049 36.0649 119.4371 34.3145 119.4371 32.3833 C 119.4371 30.4522 120.2049 28.7018 121.446 27.435 C 122.6871 26.1673 124.4015 25.3833 126.2924 25.3833 Z " stroke-width="1.0347315886237909"/>
  <path id="ID0.272235160227865" fill="none" stroke="#000000" stroke-width="6" stroke-linecap="round" d="M 125.85 32.3 L 135 4.2 "/>
  <path id="ID0.36722757993265986" fill="#CCCCCC" stroke="none" d="M 145.2424 25.1333 C 147.1333 25.1333 148.8477 25.9173 150.0888 27.185 C 151.3299 28.4518 152.0977 30.2022 152.0977 32.1333 C 152.0977 34.0645 151.3299 35.8149 150.0888 37.0817 C 148.8477 38.3493 147.1333 39.1333 145.2424 39.1333 C 143.3515 39.1333 141.6371 38.3493 140.396 37.0817 C 139.1549 35.8149 138.3871 34.0645 138.3871 32.1333 C 138.3871 30.2022 139.1549 28.4518 140.396 27.185 C 141.6371 25.9173 143.3515 25.1333 145.2424 25.1333 Z " stroke-width="1.0347315886237909"/>
  <path id="ID0.272235160227865" fill="none" stroke="#000000" stroke-width="6" stroke-linecap="round" d="M 144.6 32.3 L 153.75 4.2 "/>
  <path id="ID0.36722757993265986" fill="#CCCCCC" stroke="none" d="M 163.3424 24.8833 C 165.2333 24.8833 166.9477 25.6673 168.1888 26.935 C 169.4299 28.2018 170.1977 29.9522 170.1977 31.8833 C 170.1977 33.8145 169.4299 35.5649 168.1888 36.8317 C 166.9477 38.0993 165.2333 38.8833 163.3424 38.8833 C 161.4515 38.8833 159.7371 38.0993 158.496 36.8317 C 157.2549 35.5649 156.4871 33.8145 156.4871 31.8833 C 156.4871 29.9522 157.2549 28.2018 158.496 26.935 C 159.7371 25.6673 161.4515 24.8833 163.3424 24.8833 Z " stroke-width="1.0347315886237909"/>
  <path id="ID0.272235160227865" fill="none" stroke="#000000" stroke-width="6" stroke-linecap="round" d="M 163.25 32.15 L 172.4 4.05 "/>
  <path id="ID0.36722757993265986" fill="#CCCCCC" stroke="none" d="M 181.9924 25.1333 C 183.8833 25.1333 185.5977 25.9173 186.8388 27.185 C 188.0799 28.4518 188.8477 30.2022 188.8477 32.1333 C 188.8477 34.0645 188.0799 35.8149 186.8388 37.0817 C 185.5977 38.3493 183.8833 39.1333 181.9924 39.1333 C 180.1015 39.1333 178.3871 38.3493 177.146 37.0817 C 175.9049 35.8149 175.1371 34.0645 175.1371 32.1333 C 175.1371 30.2022 175.9049 28.4518 177.146 27.185 C 178.3871 25.9173 180.1015 25.1333 181.9924 25.1333 Z " stroke-width="1.0347315886237909"/>
  <path id="ID0.272235160227865" fill="none" stroke="#000000" stroke-width="6" stroke-linecap="round" d="M 181.75 32.4 L 190.9 4.3 "/>
  <path id="ID0.36722757993265986" fill="#CCCCCC" stroke="none" d="M 200.4424 25.5833 C 202.3333 25.5833 204.0477 26.3673 205.2888 27.635 C 206.5299 28.9018 207.2977 30.6522 207.2977 32.5833 C 207.2977 34.5145 206.5299 36.2649 205.2888 37.5317 C 204.0477 38.7993 202.3333 39.5833 200.4424 39.5833 C 198.5515 39.5833 196.8371 38.7993 195.596 37.5317 C 194.3549 36.2649 193.5871 34.5145 193.5871 32.5833 C 193.5871 30.6522 194.3549 28.9018 195.596 27.635 C 196.8371 26.3673 198.5515 25.5833 200.4424 25.5833 Z " stroke-width="1.0347315886237909"/>
  <path id="ID0.272235160227865" fill="none" stroke="#000000" stroke-width="6" stroke-linecap="round" d="M 200.25 32.65 L 209.4 4.55 "/>
  <path id="ID0.36722757993265986" fill="#CCCCCC" stroke="none" d="M 219.1424 25.3833 C 221.0333 25.3833 222.7477 26.1673 223.9888 27.435 C 225.2299 28.7018 225.9977 30.4522 225.9977 32.3833 C 225.9977 34.3145 225.2299 36.0649 223.9888 37.3317 C 222.7477 38.5993 221.0333 39.3833 219.1424 39.3833 C 217.2515 39.3833 215.5371 38.5993 214.296 37.3317 C 213.0549 36.0649 212.2871 34.3145 212.2871 32.3833 C 212.2871 30.4522 213.0549 28.7018 214.296 27.435 C 215.5371 26.1673 217.2515 25.3833 219.1424 25.3833 Z " stroke-width="1.0347315886237909"/>
  <path id="ID0.272235160227865" fill="none" stroke="#000000" stroke-width="6" stroke-linecap="round" d="M 219.15 32.55 L 228.3 4.45 "/>
  <path id="ID0.36722757993265986" fill="#CCCCCC" stroke="none" d="M 237.8924 25.8333 C 239.7833 25.8333 241.4977 26.6173 242.7388 27.885 C 243.9799 29.1518 244.7477 30.9022 244.7477 32.8333 C 244.7477 34.7645 243.9799 36.5149 242.7388 37.7817 C 241.4977 39.0493 239.7833 39.8333 237.8924 39.8333 C 236.0015 39.8333 234.2871 39.0493 233.046 37.7817 C 231.8049 36.5149 231.0371 34.7645 231.0371 32.8333 C 231.0371 30.9022 231.8049 29.1518 233.046 27.885 C 234.2871 26.6173 236.0015 25.8333 237.8924 25.8333 Z " stroke-width="1.0347315886237909"/>
  <path id="ID0.272235160227865" fill="none" stroke="#000000" stroke-width="6" stroke-linecap="round" d="M 237.75 32.9 L 246.9 4.8 "/>
  <path id="ID0.36722757993265986" fill="#CCCCCC" stroke="none" d="M 256.6924 25.6333 C 258.5833 25.6333 260.2977 26.4173 261.5388 27.685 C 262.7799 28.9518 263.5477 30.7022 263.5477 32.6333 C 263.5477 34.5645 262.7799 36.3149 261.5388 37.5817 C 260.2977 38.8493 258.5833 39.6333 256.6924 39.6333 C 254.8015 39.6333 253.0871 38.8493 251.846 37.5817 C 250.6049 36.3149 249.8371 34.5645 249.8371 32.6333 C 249.8371 30.7022 250.6049 28.9518 251.846 27.685 C 253.0871 26.4173 254.8015 25.6333 256.6924 25.6333 Z " stroke-width="1.0347315886237909"/>
  <path id="ID0.272235160227865" fill="none" stroke="#000000" stroke-width="6" stroke-linecap="round" d="M 256.65 32.8 L 265.8 4.7 "/>
</svg>