<svg version="1.1" xmlns="http://www.w3.org/2000/svg" xmlns:xlink="http://www.w3.org/1999/xlink" width="117.75821" height="73.5381" viewBox="0,0,117.75821,73.5381"><g transform="translate(-176.40874,-177.76186)"><g data-paper-data="{&quot;isPaintingLayer&quot;:true}" fill-rule="nonzero" stroke="none" stroke-width="0.53231" stroke-linecap="butt" stroke-linejoin="miter" stroke-miterlimit="10" stroke-dasharray="" stroke-dashoffset="0" style="mix-blend-mode: normal"><path d="M286.82529,199.4464v0c3.80978,-2.73041 9.95603,0.24516 6.13693,4.65605c-3.79674,4.38369 -11.14942,2.76866 -15.29577,0.11761c-3.69354,-2.36006 -5.66947,-4.93834 -9.94412,-2.23314c-3.57058,2.25761 -6.4232,6.64999 -11.11228,6.48928c-4.27402,-0.1468 -6.74649,-4.29179 -10.6509,-5.31117c-0.90973,-0.23808 -1.81473,-0.2731 -2.71911,-0.20231c0.60619,-0.63202 1.02994,-1.32217 1.26207,-2.05206c6.13359,0.80329 7.20389,4.53781 12.35448,3.60424c6.34583,-1.14892 8.45204,-6.98307 14.98429,-6.39079c4.52191,0.40996 8.37343,6.06031 14.98442,1.3223z" fill="#dd1a5a"/><g><path d="M234.37878,184.18043v0c0,0 -0.65972,3.57046 1.9429,4.78695c2.21935,0.70803 4.53843,1.11588 6.67246,2.09901c6.02988,2.77922 1.7843,9.36699 -1.96811,12.1898c-4.24347,3.1918 -9.95343,4.28061 -15.10861,4.05457c-2.8751,-0.12631 -5.19815,-0.66109 -8.43813,-2.34492c-2.45669,-1.27722 -4.23304,-2.83411 -6.38483,-4.85637c-0.90513,-0.85023 -2.22333,0.66109 -1.63291,1.63279c2.68334,4.41151 10.51801,7.51996 16.39117,7.79567c5.57496,0.26118 11.30528,-1.3367 15.87737,-4.52787c0.0272,0.07601 0.05886,0.15475 0.09849,0.2361c2.28343,4.62301 2.01704,11.68941 1.80951,14.66834c0,0 -1.11005,12.54412 -2.91211,12.23016c-1.99394,-0.03639 -3.98775,-0.04235 -5.98431,-0.03366l-20.62072,0.15003l-8.3774,0.05216c-2.26556,0.04371 -4.66934,0.13227 -6.63807,0.21287c-0.00397,-0.00124 -0.01056,-0.00261 -0.01056,-0.00261c-2.59144,-0.81583 -2.39186,-12.08348 -2.37199,-12.97123c0.1078,0.12022 0.21225,0.23721 0.3285,0.37283c-2.53456,-10.49293 2.34566,-26.75244 13.95833,-29.39294c0.62085,-0.14146 0.89519,-0.79857 0.77944,-1.37235c-1.47816,-7.30648 8.41379,-14.76024 12.10659,-6.64464c0.37482,0.82763 1.27262,0.71598 1.63564,0.01851c1.60447,-3.08462 6.32994,-3.12498 8.05736,-0.81583c0.58831,0.78602 0.82639,1.6832 0.79,2.46265z" fill="#6cbd45"/><path d="M242.74885,204.26042v0c0.05552,0.06942 0.11103,0.14605 0.16195,0.2387c2.56573,4.61506 2.80642,11.03156 2.1929,14.39127l-1.00162,6.4391c-0.66109,9.58581 -3.11964,8.30463 -3.11964,8.30463c-2.21463,0.17387 -4.44715,0.269 -6.68625,0.31669l-19.56508,0.15599l-8.46657,0.09911c-2.02635,0.00671 -4.27999,-0.03564 -6.40731,-0.17784c0,0 -2.69266,0.55602 -3.68435,-3.6307c-0.99157,-4.18671 -0.22007,-9.365 -1.21176,-13.99273c0,0 0.02783,0.01328 0.07465,0.03974c-0.36613,-1.60521 -0.49976,-3.25787 -0.35632,-5.15518c0.26652,-3.50377 1.00759,-6.95414 2.43545,-10.17623c2.43619,-5.48976 6.4596,-10.67934 12.36516,-12.47146c-0.72132,-8.43826 10.38438,-15.16549 15.36966,-7.56691c6.02926,-6.50977 11.69873,0.55664 10.6437,3.64324c-0.02583,0.07601 -0.05228,0.15214 -0.08668,0.2228c0.00733,1.67451 0.91568,2.62523 1.14966,2.84144c0.0344,0.03167 0.0549,0.04893 0.0549,0.04893c3.55605,1.2289 7.81008,0.59092 10.1504,3.85549c2.98687,4.16411 -0.53217,9.8383 -3.96391,12.53629c-0.01515,0.01316 -0.03304,0.02447 -0.04894,0.03763zM236.32167,188.96601v0c-2.60261,-1.21511 -1.9429,-4.78558 -1.9429,-4.78558c0.03639,-0.77945 -0.20169,-1.67724 -0.79,-2.46265c-1.72742,-2.30976 -6.45289,-2.26879 -8.05736,0.81583c-0.36302,0.69747 -1.26082,0.80912 -1.63564,-0.01851c-3.69279,-8.1156 -13.58475,-0.66183 -12.10659,6.64328c0.11575,0.5739 -0.15859,1.23101 -0.77944,1.37247c-11.61204,2.64037 -16.49226,18.89927 -13.95833,29.39282c-0.11624,-0.13549 -0.2207,-0.25186 -0.3285,-0.37283c-0.01987,0.88787 -0.21945,12.15552 2.37199,12.97123c0,0 0.00658,0.00136 0.01056,0.00273c1.96873,-0.08073 4.37251,-0.16927 6.63807,-0.21286l8.3774,-0.05229l20.62072,-0.15002c1.99655,-0.00795 3.98974,-0.00261 5.98431,0.03365c1.80144,0.31409 2.91211,-12.23015 2.91211,-12.23015c0.20815,-2.97818 0.47392,-10.04533 -1.80951,-14.66834c-0.03899,-0.08134 -0.07129,-0.15996 -0.09849,-0.23596c-4.57209,3.19167 -10.30304,4.78955 -15.87737,4.52775c-5.87315,-0.27559 -13.70783,-3.38405 -16.39116,-7.79556c-0.59042,-0.97182 0.72778,-2.48314 1.63291,-1.6329c2.15179,2.02226 3.92814,3.57915 6.38483,4.85637c3.23998,1.68383 5.56303,2.21935 8.43813,2.34491c5.15518,0.22603 10.86514,-0.86278 15.10861,-4.05445c3.75241,-2.82219 7.99799,-9.4107 1.96811,-12.18992c-2.13403,-0.98312 -4.45373,-1.39159 -6.67246,-2.099z" fill="#000000"/></g><g><path d="M245.62731,225.1027v0c-0.73647,1.03926 -1.60919,1.99319 -2.42167,2.97222c-0.92351,1.11067 -2.31647,2.54065 -2.47904,4.07035c-8.5155,-2.28009 -0.8131,-9.24925 2.77065,-12.05828c-0.37817,0.60284 0.45816,1.57267 1.11328,1.07888c2.99408,-2.25897 8.66628,-4.64809 10.03267,0.51168c0.99902,3.76892 -3.507,6.91303 -6.20363,8.39057c-0.79137,0.43443 -0.48001,1.44587 0.22678,1.73276c3.62014,1.47952 7.65211,2.45271 11.61005,2.88305c-2.51804,2.4044 -2.63043,5.44343 -0.5513,8.40646c-3.88927,-0.06086 -6.63408,1.36713 -7.80884,5.00316c-3.57717,-4.92381 -6.13235,-10.48237 -9.50261,-15.54962c-0.03366,-0.04955 -0.06942,-0.09252 -0.10842,-0.13214c0.22815,-0.29099 0.43046,-0.60893 0.64929,-0.93618c0.80379,-1.2058 1.84776,-2.27611 2.79897,-3.3643c1.25486,-1.43196 2.99221,-3.14087 3.1898,-5.11619c0.10184,-1.02274 -1.26405,-1.1457 -1.74729,-0.47269c-0.5857,0.81248 -0.98237,1.75189 -1.56869,2.58026z" fill="#6cbd45"/><path d="M262.88112,232.99351v0c0.91892,0.04161 1.33609,1.28839 0.47604,1.77499c-1.26803,0.72057 -3.01134,1.53442 -3.29624,3.16994c-0.43431,2.4937 0.85408,3.97645 2.48897,5.59085c0.73113,0.72393 -0.04557,1.6924 -0.91295,1.56821c-1.97134,-0.28105 -4.49347,-0.57254 -6.23282,0.68158c-1.63415,1.18195 -1.8279,2.69651 -2.06188,4.52912c-0.09327,0.71325 -1.0446,1.41669 -1.63887,0.67699c-4.30371,-5.35228 -7.11137,-11.55926 -10.72033,-17.35169l-0.14605,-0.84688l-0.11103,-0.64333c0.16257,-1.5297 1.55553,-2.95905 2.47904,-4.07034c0.81248,-0.97766 1.68582,-1.93172 2.42229,-2.97085c0.58632,-0.82837 0.98299,-1.76778 1.56869,-2.58026c0.48398,-0.67239 1.84913,-0.55005 1.74729,0.47269c-0.1976,1.97531 -1.93494,3.68422 -3.1898,5.11619c-0.9512,1.08881 -1.99444,2.15849 -2.79897,3.3643c-0.21883,0.32725 -0.42052,0.64519 -0.64929,0.93605c0.03899,0.03899 0.07476,0.08271 0.10842,0.13226c3.37026,5.06787 5.92544,10.62644 9.50261,15.5495c1.17538,-3.63592 3.91957,-5.0639 7.80884,-5.00316c-2.07914,-2.96365 -1.96674,-6.00206 0.5513,-8.40634c-3.95857,-0.43045 -7.98991,-1.40353 -11.61005,-2.88305c-0.70741,-0.28627 -1.01815,-1.29844 -0.22678,-1.73275c2.69663,-1.47754 7.20265,-4.62165 6.20363,-8.39057c-1.36713,-5.15915 -7.03921,-2.77065 -10.03267,-0.51168c-0.65587,0.4938 -1.49145,-0.47604 -1.11328,-1.07888c0.01118,-0.01727 0.01255,-0.03775 0.02571,-0.05427l0.11575,-0.11761l1.46562,-1.02349c3.62672,-2.25562 9.09338,-3.7688 11.0369,1.25151c1.70569,4.39623 -1.5641,8.17174 -5.07582,10.54447c3.7729,1.31223 7.90472,2.12732 11.81572,2.30653z" fill="#000000"/></g><g><path d="M197.05143,219.92504v0c0,0 12.56747,8.99477 2.04349,12.59902c-0.55068,-1.52113 -1.83845,-2.87895 -2.74556,-4.15033c-0.7166,-1.00411 -1.42065,-2.01369 -2.10285,-3.04164c-0.52621,-0.79397 -0.89048,-1.74667 -1.56026,-2.42353c-0.72057,-0.72927 -1.90253,0.01515 -1.66992,0.97244c0.44561,1.8305 2.45271,3.6928 3.61492,5.13805c1.08683,1.34987 2.11937,2.89882 3.40131,4.09407c-3.10324,4.8981 -5.56378,10.16965 -8.95317,14.87661c-0.3008,-1.30627 -0.82502,-2.53865 -1.95817,-3.35709c-1.80417,-1.30367 -3.74247,-1.65601 -5.78385,-1.60049c1.06037,-1.3711 1.84565,-2.97818 1.47617,-4.71293c-0.39866,-1.87943 -1.51529,-2.76134 -2.91807,-3.50898c3.52166,-0.86812 7.23767,-0.97654 10.64556,-2.3284c0.66705,-0.26379 0.66444,-1.1093 0.25522,-1.44649c-0.07402,-0.15735 -0.19771,-0.30217 -0.38748,-0.4132c-3.29947,-1.93035 -8.19223,-7.08752 -4.26595,-10.64221c3.00997,-2.72507 7.514,-1.58211 10.10607,0.93804c0.59439,0.57713 1.37967,-0.26913 0.88724,-0.88849c-0.02508,-0.03304 -0.05551,-0.05887 -0.08196,-0.09128c-0.00074,-0.00459 -0.00137,-0.00857 -0.00274,-0.01317z" fill="#6cbd45"/><path d="M194.24651,225.33147v0c0.6822,1.02795 1.38625,2.03741 2.10285,3.04102c0.90712,1.27125 2.19488,2.62845 2.74556,4.15033l0.76293,1.50523c-0.09252,-0.00521 -0.1884,-0.0092 -0.28093,-0.01578c-3.34915,5.75342 -6.19978,11.74233 -10.4004,16.95899c-0.5857,0.72591 -1.5225,0.0344 -1.61167,-0.66767c-0.2089,-1.62496 -0.3855,-3.66051 -2.07653,-4.53123c-2.04275,-1.05304 -4.02874,-0.97964 -6.23145,-0.66506c-0.87793,0.12692 -1.66855,-0.85868 -0.92425,-1.59056c1.23226,-1.21375 4.70634,-4.88084 1.49679,-6.63806c-0.96524,-0.52944 -1.97606,-0.95655 -2.95383,-1.45903c-0.79596,-0.40525 -0.47592,-1.46028 0.22615,-1.72605c3.56388,-1.35856 7.43663,-1.30304 11.10434,-2.18892c-3.87462,-2.8407 -7.97414,-8.54333 -3.54538,-12.44042c2.83597,-2.49158 7.88944,-2.56499 11.03889,-0.35693c-0.04433,-0.12432 -0.08272,-0.24665 -0.12494,-0.3696c0.09911,0.09526 0.33049,0.32588 0.63327,0.64718c0.24069,0.25584 0.52422,0.56596 0.84352,0.9394c0.00136,0.00472 0.00199,0.0087 0.00274,0.01329c0.02645,0.03241 0.05688,0.05812 0.08196,0.09116c0.49243,0.61948 -0.29285,1.46574 -0.88724,0.88861c-2.59206,-2.52015 -7.09609,-3.66311 -10.10607,-0.93816c-3.92628,3.55469 0.96648,8.71186 4.26595,10.64234c0.18977,0.11103 0.31347,0.25584 0.38748,0.4132c0.40922,0.33644 0.41183,1.1827 -0.25522,1.44637c-3.40789,1.35136 -7.12391,1.4604 -10.64556,2.3284c1.40277,0.74777 2.5194,1.62968 2.91807,3.50911c0.36948,1.73475 -0.4158,3.34182 -1.47617,4.71293c2.04138,-0.05552 3.97968,0.29682 5.78385,1.60049c1.13315,0.81844 1.65737,2.05007 1.95817,3.35709c3.38939,-4.70709 5.84992,-9.97864 8.95317,-14.87661c-1.28194,-1.19463 -2.31448,-2.7442 -3.40131,-4.09419c-1.16221,-1.4445 -3.16931,-3.3068 -3.61492,-5.13792c-0.23262,-0.95803 0.94934,-1.70233 1.66992,-0.97257c0.66978,0.67699 1.03405,1.62968 1.56026,2.42365z" fill="#000000"/></g><g><path d="M207.61776,223.42683v0c0.09712,-0.52758 -0.42971,-0.78939 -0.78478,-0.58248c0.01068,-0.05353 0.01726,-0.10643 0.02844,-0.15934c0,0 0.88128,-4.18734 3.96665,-4.07693c2.93123,0.1052 5.15779,1.75524 4.75987,5.25106c-0.1422,-0.97244 -1.87025,-1.25474 -2.35088,-0.06545c-1.22828,3.04301 -1.64818,6.65458 -0.37954,9.75968c0.72529,1.77436 1.89272,3.295 2.53667,5.10898c0.38997,1.09614 0.26304,2.32181 0.00136,3.4218c-0.41655,1.7499 -2.43284,1.32814 -2.6272,-0.18443c-0.13164,-0.49579 -0.20033,-1.00026 -0.20231,-1.50933c-0.04099,-0.88911 -1.18134,-0.98561 -1.48549,-0.20293c-0.49715,1.28256 -0.96188,2.54065 -1.89074,3.58388c-1.2905,1.32937 -2.75736,-0.22554 -2.19948,-1.34204c0.21622,-0.74106 0.93419,-2.01704 1.37582,-2.64311c0.38078,-0.53814 -0.33259,-1.06236 -0.82639,-0.82639c-0.45493,0.23013 -2.14856,1.23424 -2.36739,1.32093c-1.27461,0.50311 -2.45867,-1.14433 -1.42736,-1.95755c1.06968,-0.84154 2.75413,-1.21635 4.09953,-1.31285c0.56124,-0.04099 1.08484,-0.56061 0.88315,-1.16022c-0.52361,-1.5615 -1.12843,-3.09133 -1.58795,-4.67331c-0.80912,-2.78518 -0.02174,-5.05806 0.47803,-7.74997z" fill="#6cbd45"/><path d="M216.27274,237.27275v0c0.80453,1.62036 1.12321,4.45572 0.11699,6.06689c-1.82653,2.93123 -3.81773,1.56472 -4.77042,-0.59241c-0.87656,1.76778 -2.11354,3.22682 -4.37909,2.79251c-2.27077,-0.43642 -1.76964,-2.82219 -0.92885,-4.63568c-1.95022,0.7392 -4.31687,0.95406 -4.82458,-1.39744c-0.49653,-2.30194 3.04363,-3.5065 5.16375,-4.06314c-0.14084,-0.42176 -0.26701,-0.83161 -0.38599,-1.23686l-0.52162,-1.89346c0.01577,0 0.03105,-0.00062 0.0462,-0.00062c-0.61476,-3.01854 -0.4574,-5.80571 0.79596,-9.16939c0.05427,-0.14469 0.14481,-0.23734 0.24727,-0.29745c0.35569,-0.20753 0.8819,0.05415 0.7854,0.58173c-0.49976,2.69266 -1.28715,4.9648 -0.47803,7.74998c0.45952,1.58137 1.06435,3.11181 1.58795,4.6733c0.20169,0.59961 -0.32191,1.11924 -0.88315,1.16022c-1.34539,0.09588 -3.02984,0.47131 -4.09953,1.31298c-1.03131,0.81372 0.15276,2.46054 1.42736,1.95743c0.21883,-0.08657 1.91246,-1.0908 2.36739,-1.32081c0.4938,-0.2361 1.20717,0.28825 0.82639,0.82626c-0.44163,0.62607 -1.1596,1.90204 -1.37582,2.64311c-0.55788,1.11663 0.90897,2.67142 2.19948,1.34204c0.92885,-1.04323 1.39359,-2.30194 1.89074,-3.58375c0.30415,-0.78217 1.4445,-0.6863 1.48549,0.20293c0.00198,0.50833 0.07067,1.01342 0.20231,1.50921c0.19437,1.51256 2.21065,1.93371 2.6272,0.18443c0.26167,-1.09999 0.38861,-2.32567 -0.00136,-3.42181c-0.64395,-1.81461 -1.81137,-3.33449 -2.53667,-5.10886c-1.26864,-3.10585 -0.84874,-6.71667 0.37954,-9.75968c0.48063,-1.18866 2.20929,-0.90712 2.35088,0.06545c0.02434,0.16853 0.00658,0.35495 -0.07936,0.56123c-0.79795,1.90986 -1.75661,3.9546 -1.64682,6.0741c0.0344,0.62867 0.12693,1.2104 0.2592,1.76517l0.61079,1.8464c0.43766,1.04323 0.98834,2.05008 1.541,3.16596z" fill="#000000"/></g><g><g><path d="M232.57063,192.54454c-2.38577,0 -4.32743,-2.1149 -4.32743,-4.71429c0,-2.59939 1.94165,-4.71417 4.32743,-4.71417c2.3859,0 4.32755,2.11478 4.32755,4.71417c0,2.59939 -1.94091,4.71429 -4.32755,4.71429v0v0z" fill="#ffffff"/><path d="M232.57063,183.77717c-2.02487,0 -3.66634,1.8146 -3.66634,4.05308c0,2.23848 1.64147,4.0532 3.66634,4.0532c2.02499,0 3.66647,-1.81472 3.66647,-4.0532c0,-2.2391 -1.64148,-4.05308 -3.66647,-4.05308M232.57063,183.77717v0v-1.3223v0c2.7509,0 4.98864,2.41111 4.98864,5.37538c0,2.96439 -2.23774,5.37538 -4.98864,5.37538c-2.75078,0 -4.98851,-2.41099 -4.98851,-5.37538c0,-2.96427 2.23773,-5.37538 4.98851,-5.37538z" fill="#000000"/></g><path d="M234.5031,186.64892c0.42574,0 0.81173,0.20629 1.09142,0.54012c0.27969,0.33321 0.45281,0.79397 0.45281,1.3023c0,0.50845 -0.17312,0.96922 -0.45281,1.30243c-0.27969,0.33383 -0.66568,0.54012 -1.09142,0.54012c-0.42574,0 -0.81186,-0.20629 -1.09154,-0.54012c-0.27956,-0.33321 -0.45281,-0.79398 -0.45281,-1.30243c0,-0.50833 0.17325,-0.96909 0.45281,-1.3023c0.27969,-0.33383 0.66581,-0.54012 1.09154,-0.54012z" fill="#231f20"/></g><g><g><path d="M220.71666,194.1972c-3.01792,0 -5.47324,-2.56957 -5.47324,-5.72833c0,-3.15864 2.45532,-5.72834 5.47324,-5.72834c3.0178,0 5.47312,2.5697 5.47312,5.72834c0,3.15876 -2.45532,5.72833 -5.47312,5.72833v0v0z" fill="#ffffff"/><path d="M220.71666,183.40161c-2.65763,0 -4.81215,2.26891 -4.81215,5.06726c0,2.79847 2.15452,5.06725 4.81215,5.06725c2.65751,0 4.81204,-2.26878 4.81204,-5.06725c0,-2.79835 -2.15453,-5.06726 -4.81204,-5.06726M220.71666,183.40161v0v-1.32217v0c3.38206,0 6.13421,2.86653 6.13421,6.38943c0,3.52302 -2.75215,6.38954 -6.13421,6.38954c-3.38218,0 -6.13433,-2.86652 -6.13433,-6.38954c0,-3.5229 2.75215,-6.38943 6.13433,-6.38943z" fill="#000000"/></g><path d="M223.41987,186.87433c0.56384,0 1.07491,0.25249 1.4445,0.66109c0.3701,0.4086 0.59887,0.97244 0.59887,1.59453c0,0.62209 -0.22877,1.18606 -0.59887,1.59466c-0.3696,0.40848 -0.88066,0.66108 -1.4445,0.66108c-0.56396,0 -1.07502,-0.25261 -1.4445,-0.66108c-0.37023,-0.4086 -0.59899,-0.97257 -0.59899,-1.59466c0,-0.62209 0.22877,-1.18593 0.59899,-1.59453c0.36948,-0.4086 0.88054,-0.66109 1.4445,-0.66109z" fill="#231f20"/></g></g></g></svg>