<svg xmlns="http://www.w3.org/2000/svg" xmlns:xlink="http://www.w3.org/1999/xlink" version="1.1" width="80.7633207495866" height="38.057521646803394" viewBox="-0.41460992673326436 -0.0342099098293871 80.7633207495866 38.057521646803394">
  <defs>
    <radialGradient id="grad_1" cx="0.3533" cy="0.2097" r="1.02739">
      <stop offset="0" stop-color="#FFFF99" stop-opacity="1"/>
      <stop offset="1" stop-color="#CC7700" stop-opacity="1"/>
    </radialGradient>
    <radialGradient id="grad_2" cx="0.3533" cy="0.2097" r="1.02739">
      <stop offset="0" stop-color="#FFFF99" stop-opacity="1"/>
      <stop offset="1" stop-color="#CC7700" stop-opacity="1"/>
    </radialGradient>
    <radialGradient id="grad_3" cx="0.321" cy="0.3564" r="0.8826999999999999">
      <stop offset="0" stop-color="#FFFF99" stop-opacity="1"/>
      <stop offset="1" stop-color="#CC7700" stop-opacity="1"/>
    </radialGradient>
    <radialGradient id="grad_4" cx="0.3874" cy="0.46240000000000003" r="0.7963800000000001">
      <stop offset="0" stop-color="#FFFF99" stop-opacity="1"/>
      <stop offset="1" stop-color="#CC7700" stop-opacity="1"/>
    </radialGradient>
    <radialGradient id="grad_5" cx="0.4814" cy="0.4573" r="0.70551">
      <stop offset="0" stop-color="#FFFF99" stop-opacity="1"/>
      <stop offset="1" stop-color="#CC7700" stop-opacity="1"/>
    </radialGradient>
    <radialGradient id="grad_6" cx="0.537" cy="0.47979999999999995" r="0.6981">
      <stop offset="0" stop-color="#FFFF99" stop-opacity="1"/>
      <stop offset="1" stop-color="#CC7700" stop-opacity="1"/>
    </radialGradient>
    <radialGradient id="grad_7" cx="0.3448" cy="0.37329999999999997" r="0.8517600000000001">
      <stop offset="0" stop-color="#FF00BF" stop-opacity="1"/>
      <stop offset="1" stop-color="#990072" stop-opacity="1"/>
    </radialGradient>
  <radialGradient id="grad_1-.8573749661445618,0,0,0.8573749661445618,-23.15,-48.5" cx="75.5893" cy="5.6025" r="11.2412" gradientUnits="userSpaceOnUse">
      <stop offset="0" stop-color="#FFFF99" stop-opacity="1"/>
      <stop offset="1" stop-color="#CC7700" stop-opacity="1"/>
    </radialGradient><radialGradient id="grad_2-0.8573749661445618,0,0,0.8573749661445618,167.85,-48.45" cx="69.1107" cy="5.6525" r="11.2412" gradientUnits="userSpaceOnUse">
      <stop offset="0" stop-color="#FFFF99" stop-opacity="1"/>
      <stop offset="1" stop-color="#CC7700" stop-opacity="1"/>
    </radialGradient><radialGradient id="grad_3-.8573749661445618,0,0,0.8573749661445618,-23.05,-48.45" cx="11.3349" cy="13.677" r="31.8041" gradientUnits="userSpaceOnUse">
      <stop offset="0" stop-color="#FFFF99" stop-opacity="1"/>
      <stop offset="1" stop-color="#CC7700" stop-opacity="1"/>
    </radialGradient><radialGradient id="grad_4-.8573749661445618,0,0,0.8573749661445618,-23.05,-48.45" cx="50.0808" cy="18.8071" r="27.667" gradientUnits="userSpaceOnUse">
      <stop offset="0" stop-color="#FFFF99" stop-opacity="1"/>
      <stop offset="1" stop-color="#CC7700" stop-opacity="1"/>
    </radialGradient><radialGradient id="grad_5-.8573749661445618,0,0,0.8573749661445618,-23.05,-48.45" cx="32.9366" cy="18.6772" r="4.9162" gradientUnits="userSpaceOnUse">
      <stop offset="0" stop-color="#FFFF99" stop-opacity="1"/>
      <stop offset="1" stop-color="#CC7700" stop-opacity="1"/>
    </radialGradient><radialGradient id="grad_6-.8573749661445618,0,0,0.8573749661445618,-23.05,-48.45" cx="35.6847" cy="18.8925" r="4.8645" gradientUnits="userSpaceOnUse">
      <stop offset="0" stop-color="#FFFF99" stop-opacity="1"/>
      <stop offset="1" stop-color="#CC7700" stop-opacity="1"/>
    </radialGradient><radialGradient id="grad_7-.0551724433898926,0,0,0.9988965392112732,-212.3,-164.29999999999998" cx="17.1996" cy="17.0991" r="12.9098" gradientUnits="userSpaceOnUse">
      <stop offset="0" stop-color="#FF00BF" stop-opacity="1"/>
      <stop offset="1" stop-color="#990072" stop-opacity="1"/>
    </radialGradient></defs>
  <!-- Exported by Scratch - http://scratch.mit.edu/ -->
  <g id="ID0.44095461489632726">
    <path id="ID0.8694397993385792" fill="url(#grad_1-.8573749661445618,0,0,0.8573749661445618,-23.15,-48.5)" d="M 73.3244 2.6493 L 79.735 2.6493 L 79.735 4.7258 L 76.3947 4.7258 L 76.3947 7.5243 L 79.735 7.5243 L 79.735 9.8727 L 76.3947 9.8727 L 76.3947 12.6703 L 79.735 12.6703 L 79.735 16.7325 L 73.3244 16.7325 L 73.3244 2.6493 " stroke-width="0.8573749661445618"/>
    <path id="ID0.8694397993385792" fill="url(#grad_2-0.8573749661445618,0,0,0.8573749661445618,167.85,-48.45)" d="M 71.3756 2.6993 L 64.965 2.6993 L 64.965 4.7758 L 68.3053 4.7758 L 68.3053 7.5743 L 64.965 7.5743 L 64.965 9.9227 L 68.3053 9.9227 L 68.3053 12.7203 L 64.965 12.7203 L 64.965 16.7825 L 71.3756 16.7825 L 71.3756 2.6993 " stroke-width="0.8573749661445618"/>
    <path id="ID0.7121701026335359" fill="url(#grad_3-.8573749661445618,0,0,0.8573749661445618,-23.05,-48.45)" d="M 19.6824 22.7593 C 21.8464 22.7593 23.6006 21.0051 23.6006 18.8411 C 23.6006 16.6788 21.8464 14.9246 19.6824 14.9246 C 17.5184 14.9246 15.7642 16.6788 15.7642 18.8411 C 15.7642 21.0051 17.5184 22.7593 19.6824 22.7593 L 19.6824 22.7593 L 19.6824 22.7593 Z M 7.404 22.7593 C 9.568 22.7593 11.3222 21.0051 11.3222 18.8411 C 11.3222 16.6788 9.568 14.9246 7.404 14.9246 C 5.2399 14.9246 3.4858 16.6788 3.4858 18.8411 C 3.4858 21.0051 5.2399 22.7593 7.404 22.7593 L 7.404 22.7593 L 7.404 22.7593 Z M 26.0724 27.7295 C 26.0724 26.7118 25.8427 25.7489 25.4328 24.8899 C 23.9307 26.3525 21.8773 27.2554 19.6121 27.2554 C 17.2423 27.2554 15.104 26.2685 13.5865 24.6832 C 13.1124 25.5946 12.844 26.6303 12.844 27.7321 C 12.844 31.3853 15.8054 34.345 19.4578 34.345 C 23.1119 34.3433 26.0724 31.3828 26.0724 27.7295 L 26.0724 27.7295 L 26.0724 27.7295 Z M 25.5306 13.0246 C 25.8795 12.2196 26.0733 11.3305 26.0733 10.3968 C 26.0733 6.7435 23.1119 3.7821 19.4595 3.7821 C 15.8071 3.7821 12.8457 6.7435 12.8457 10.3968 C 12.8457 11.4891 13.1098 12.5171 13.475 13.2561 C 14.9994 11.6014 17.1849 10.5631 19.6138 10.5631 C 21.9262 10.5631 24.0199 11.5045 25.5306 13.0246 L 25.5306 13.0246 L 25.5306 13.0246 Z M 27.6337 15.8583 C 28.1499 17.5053 28.3308 20.2592 27.6337 22.1042 L 30.8575 19.0143 L 27.6337 15.8583 L 27.6337 15.8583 L 27.6337 15.8583 Z M 9.6794 10.3282 C 9.6794 4.889 14.0889 0.4795 19.5281 0.4795 C 24.9673 0.4795 29.3768 4.889 29.3768 10.3282 C 29.3768 12.2547 33.2058 17.0534 35.1015 19.3109 C 33.1149 20.9365 29.3768 25.7224 29.3768 27.6617 C 29.3768 33.1009 24.9673 37.5096 19.5281 37.5096 C 14.0889 37.5096 9.6794 33.0992 9.6794 27.6617 C 9.6794 26.9973 9.7454 26.3474 9.8715 25.7181 C 9.1007 25.9942 8.2699 26.1451 7.4048 26.1451 C 3.3692 26.1451 0.0991 22.8759 0.0991 18.8394 C 0.0991 14.8046 3.3692 11.5337 7.4048 11.5337 C 8.2476 11.5337 9.0578 11.6768 9.8123 11.9392 C 9.7249 11.4171 9.6794 10.8778 9.6794 10.3282 L 9.6794 10.3282 L 9.6794 10.3282 Z " stroke-width="0.8573749661445618"/>
    <path id="ID0.7789692673832178" fill="url(#grad_4-.8573749661445618,0,0,0.8573749661445618,-23.05,-48.45)" d="M 31.2647 15.3841 L 79.835 15.3841 L 79.835 22.7867 L 31.2647 22.7867 L 31.2647 15.3841 L 31.2647 15.3841 Z " stroke-width="0.8573749661445618"/>
    <path id="ID0.578137279022485" fill="url(#grad_5-.8573749661445618,0,0,0.8573749661445618,-23.05,-48.45)" d="M 31.8066 15.5642 C 31.8066 14.8671 32.3321 14.3004 32.9803 14.3004 L 32.9803 14.3004 C 33.6285 14.3004 34.1541 14.8663 34.1541 15.5642 L 34.1541 22.6067 C 34.1541 23.3046 33.6285 23.8713 32.9803 23.8713 L 32.9803 23.8713 C 32.3321 23.8713 31.8066 23.3054 31.8066 22.6067 L 31.8066 15.5642 L 31.8066 15.5642 L 31.8066 15.5642 L 31.8066 15.5642 Z " stroke-width="0.8573749661445618"/>
    <path id="ID0.029240664094686508" fill="url(#grad_6-.8573749661445618,0,0,0.8573749661445618,-23.05,-48.45)" d="M 34.4241 15.5642 C 34.4241 14.8671 34.9497 14.3004 35.5979 14.3004 L 35.5979 14.3004 C 36.2461 14.3004 36.7716 14.8663 36.7716 15.5642 L 36.7716 22.6067 C 36.7716 23.3046 36.2461 23.8713 35.5979 23.8713 L 35.5979 23.8713 C 34.9497 23.8713 34.4241 23.3054 34.4241 22.6067 L 34.4241 15.5642 L 34.4241 15.5642 L 34.4241 15.5642 L 34.4241 15.5642 Z " stroke-width="0.8573749661445618"/>
    <path id="ID0.4025340974330902" fill="url(#grad_7-.0551724433898926,0,0,0.9988965392112732,-212.3,-164.29999999999998)" stroke="none" d="M 19.5741 11.5058 C 21.6845 11.5058 23.5975 12.3449 24.9819 13.7014 C 26.3673 15.0579 27.2241 16.9308 27.2241 18.9975 C 27.2241 21.0642 26.3673 22.9372 24.9819 24.2937 C 23.5975 25.6502 21.6845 26.4892 19.5741 26.4892 C 17.4638 26.4892 15.5508 25.6502 14.1664 24.2937 C 12.7809 22.9372 11.9241 21.0642 11.9241 18.9975 C 11.9241 16.9308 12.7809 15.0579 14.1664 13.7014 C 15.5508 12.3449 17.4638 11.5058 19.5741 11.5058 Z " stroke-width="1.0274198706803501"/>
  </g>
</svg>