<svg version="1.1" xmlns="http://www.w3.org/2000/svg" xmlns:xlink="http://www.w3.org/1999/xlink" width="57.20351" height="105.02639" viewBox="0,0,57.20351,105.02639"><defs><radialGradient cx="243.17689" cy="129.84873" r="59.75927" gradientUnits="userSpaceOnUse" id="color-1"><stop offset="0" stop-color="#f08800"/><stop offset="1" stop-color="#c24f00"/></radialGradient></defs><g transform="translate(-214.02829,-108.72413)"><g data-paper-data="{&quot;isPaintingLayer&quot;:true}" fill="none" fill-rule="nonzero" stroke="none" stroke-width="none" stroke-linecap="none" stroke-linejoin="miter" stroke-miterlimit="10" stroke-dasharray="" stroke-dashoffset="0" font-family="none" font-weight="none" font-size="none" text-anchor="none" style="mix-blend-mode: normal"><g data-paper-data="{&quot;origPos&quot;:null}" id="ID0.8842033431865275" fill="#ff7c00" stroke="#e16136"><g id="ID0.9813417503610253" stroke-width="1" stroke-linecap="butt"><g id="ID0.6985900145955384"><path d="M239.95727,177.10454c-0.59004,0.67565 0.54276,2.87971 -0.06935,3.58144c-0.78276,0.89688 -1.62025,1.84141 -2.09201,2.95214c-0.5866,1.37932 -0.01419,1.75314 -0.50063,-0.01125c0.27768,1.00649 0.80898,2.01714 1.76898,2.53683c1.8783,1.01695 3.68504,0.34001 3.90906,-1.88045c-0.02507,1.17249 -0.04943,2.34426 -0.07379,3.51754c-0.01956,-0.83233 0.20561,-2.41791 -0.92755,-1.30366c-0.57428,0.56418 -1.1568,1.14899 -1.4832,1.90352c-0.63647,1.47088 -0.84731,1.18796 -0.23921,2.73979c0.28528,0.72924 0.57621,1.49738 1.07577,2.11551c0.02586,0.03274 1.62118,1.66546 1.633,1.31957c0.02658,-0.77266 0.13562,-1.43978 0.52076,-2.11587c-0.02336,1.19405 -0.04671,2.38739 -0.07007,3.58144c-5.21917,3.76377 -3.14471,9.36837 0.68862,13.62797c0.59541,0.66161 -0.64019,2.94756 -0.06999,3.58144c-4.39235,-4.88109 -6.82524,-16.26461 -0.54856,-20.79086c-0.53058,0.38307 0.30097,2.93015 -0.07007,3.58144c-0.40442,0.71004 -0.48201,1.3076 -0.51038,2.13392c-0.00086,0.08167 -0.00537,0.16399 -0.01411,0.2448c-3.56396,-2.6837 -3.39066,-7.22184 -3.03474,-11.23829c0.12509,-1.41492 3.03546,-6.67629 3.11312,-3.39367c0.03124,1.33418 0.01999,2.68033 -0.05409,4.01308c-0.21887,3.89738 -5.22454,2.49607 -5.68434,-0.59269c-0.56482,-3.80231 0.17473,-7.17499 2.73277,-10.1037z" id="ID0.020438293926417828"/></g></g><path d="M243.91433,193.19699c0,0 0.07809,2.16071 -0.07164,3.22388c-0.06878,0.48716 -0.57313,1.36119 -0.57313,1.36119" id="ID0.444075814448297" stroke-width="2" stroke-linecap="round"/></g><path d="M270.81997,147.90142c-2.65964,19.37271 -25.78859,33.30435 -32.77222,33.06266c-7.61567,-0.26318 -26.42289,-21.45069 -23.76411,-40.82488c2.66042,-19.37278 17.47252,-33.34106 33.08406,-31.19801c15.61147,2.14305 26.11183,19.58745 23.45227,38.96023z" data-paper-data="{&quot;origPos&quot;:null}" id="ID0.790923397988081" fill="url(#color-1)" stroke="none" stroke-width="1" stroke-linecap="butt"/></g></g></svg>