<svg xmlns="http://www.w3.org/2000/svg" xmlns:xlink="http://www.w3.org/1999/xlink" version="1.1" width="92.0009994506836" height="55.672000885009766" viewBox="-0.030999988317489624 0.06999999284744263 92.0009994506836 55.672000885009766">
  <defs>
    <linearGradient id="grad_1" x1="27.1699" y1="75.8438" x2="118.1699" y2="75.8438" gradientUnits="userSpaceOnUse">
      <stop offset="0.012" stop-color="#66B3E3"/>
      <stop offset="1" stop-color="#1C75BC"/>
    </linearGradient>
  <linearGradient id="grad_1-,0,0,1,-26.7,-40.25" x1="0.4699" y1="35.5938" x2="91.4699" y2="35.5938" gradientUnits="userSpaceOnUse">
      <stop offset="0.012" stop-color="#66B3E3"/>
      <stop offset="1" stop-color="#1C75BC"/>
    </linearGradient></defs>
  <!-- Exported by Scratch - http://scratch.mit.edu/ -->
  <g id="ID0.37710100039839745">
    <path id="ID0.2142707323655486" fill="url(#grad_1-,0,0,1,-26.7,-40.25)" d="M 91.47 46.637 C 91.47 51.389 87.616 55.242 82.865 55.242 L 9.073 55.242 C 4.321 55.242 0.469 51.388 0.469 46.637 L 0.469 9.174 C 0.469 4.422 4.321 0.57 9.073 0.57 L 82.864 0.57 C 87.618 0.57 91.469 4.422 91.469 9.174 L 91.469 46.637 L 91.47 46.637 Z " stroke-width="1"/>
    <path id="ID0.5320828035473824" fill="#27AAE1" d="M 82.864 3.983 L 9.073 3.983 C 6.212 3.983 3.883 6.311 3.883 9.173 L 3.883 46.636 C 3.883 49.498 6.212 51.826 9.073 51.826 L 82.864 51.826 C 85.728 51.826 88.055 49.498 88.055 46.636 L 88.055 9.174 C 88.055 6.312 85.728 3.983 82.864 3.983 Z " stroke-width="1"/>
  </g>
  <text id="ID0.4187610265798867" fill="#000000" text-anchor="start" font-family="Sans Serif" font-size="22" transform="matrix(0.674282 0 0 0.674282 3.64856 8.12715)" stroke-width="1" alignment-baseline="text-before-edge" xml:space="preserve"><tspan x="0" style="white-space: pre" dy="1.13em">Color White</tspan><tspan x="0" style="white-space: pre" dy="1.13em"> For Floors</tspan></text>
</svg>