<svg xmlns="http://www.w3.org/2000/svg" xmlns:xlink="http://www.w3.org/1999/xlink" version="1.1" width="159.44447326660156" height="274.9674072265625" viewBox="-0.17207598686218262 -0.2798999547958374 159.44447326660156 274.9674072265625">
  <defs>
    <radialGradient id="grad_1" cx="0.6443000000000001" cy="0.2" r="1.04">
      <stop offset="0" stop-color="#9B8579" stop-opacity="1"/>
      <stop offset="1" stop-color="#C2B59B" stop-opacity="1"/>
    </radialGradient>
    <radialGradient id="grad_2" cx="0.6443000000000001" cy="0.0967" r="1.17429">
      <stop offset="0" stop-color="#9B8579" stop-opacity="1"/>
      <stop offset="1" stop-color="#C2B59B" stop-opacity="1"/>
    </radialGradient>
    <radialGradient id="grad_3" cx="0.7216" cy="0.3617" r="0.93808">
      <stop offset="0" stop-color="#594A42" stop-opacity="1"/>
      <stop offset="1" stop-color="#726658" stop-opacity="1"/>
    </radialGradient>
    <radialGradient id="grad_4" cx="0.7535" cy="0.3386" r="0.9795499999999998">
      <stop offset="0" stop-color="#594A42" stop-opacity="1"/>
      <stop offset="1" stop-color="#726658" stop-opacity="1"/>
    </radialGradient>
    <radialGradient id="grad_5" cx="0.8304" cy="0.2964" r="1.07952">
      <stop offset="0" stop-color="#9B8579" stop-opacity="1"/>
      <stop offset="1" stop-color="#C2B59B" stop-opacity="1"/>
    </radialGradient>
    <radialGradient id="grad_6" cx="0.8477" cy="0.215" r="1.10201">
      <stop offset="0" stop-color="#9B8579" stop-opacity="1"/>
      <stop offset="1" stop-color="#C2B59B" stop-opacity="1"/>
    </radialGradient>
    <radialGradient id="grad_7" cx="0.2697" cy="0.38060000000000005" r="0.94939">
      <stop offset="0" stop-color="#594A42" stop-opacity="1"/>
      <stop offset="1" stop-color="#726658" stop-opacity="1"/>
    </radialGradient>
    <radialGradient id="grad_8" cx="0.2122" cy="0.3385" r="1.02414">
      <stop offset="0" stop-color="#594A42" stop-opacity="1"/>
      <stop offset="1" stop-color="#726658" stop-opacity="1"/>
    </radialGradient>
    <radialGradient id="grad_9" cx="0.5738" cy="0.1003" r="1.16961">
      <stop offset="0" stop-color="#C2B59B" stop-opacity="1"/>
      <stop offset="1" stop-color="#9B8579" stop-opacity="1"/>
    </radialGradient>
    <radialGradient id="grad_10" cx="0.5727" cy="0.065" r="1.2155">
      <stop offset="0" stop-color="#C2B59B" stop-opacity="1"/>
      <stop offset="1" stop-color="#9B8579" stop-opacity="1"/>
    </radialGradient>
    <radialGradient id="grad_11" cx="0.406" cy="0.1916" r="1.05092">
      <stop offset="0" stop-color="#594A42" stop-opacity="1"/>
      <stop offset="1" stop-color="#726658" stop-opacity="1"/>
    </radialGradient>
    <radialGradient id="grad_12" cx="0.2762" cy="0.1573" r="1.09551">
      <stop offset="0" stop-color="#594A42" stop-opacity="1"/>
      <stop offset="1" stop-color="#726658" stop-opacity="1"/>
    </radialGradient>
    <radialGradient id="grad_13" cx="0.4122" cy="0.1003" r="1.16961">
      <stop offset="0" stop-color="#C2B59B" stop-opacity="1"/>
      <stop offset="1" stop-color="#9B8579" stop-opacity="1"/>
    </radialGradient>
    <radialGradient id="grad_14" cx="0.4029" cy="0.0297" r="1.26139">
      <stop offset="0" stop-color="#C2B59B" stop-opacity="1"/>
      <stop offset="1" stop-color="#9B8579" stop-opacity="1"/>
    </radialGradient>
    <radialGradient id="grad_15" cx="0.6629" cy="0.22870000000000001" r="1.00269">
      <stop offset="0" stop-color="#594A42" stop-opacity="1"/>
      <stop offset="1" stop-color="#726658" stop-opacity="1"/>
    </radialGradient>
    <radialGradient id="grad_16" cx="0.6638" cy="0.19519999999999998" r="1.04624">
      <stop offset="0" stop-color="#594A42" stop-opacity="1"/>
      <stop offset="1" stop-color="#726658" stop-opacity="1"/>
    </radialGradient>
    <radialGradient id="grad_17" cx="0.5193" cy="0.8935" r="1.16155">
      <stop offset="0" stop-color="#9B8579" stop-opacity="1"/>
      <stop offset="1" stop-color="#C2B59B" stop-opacity="1"/>
    </radialGradient>
    <radialGradient id="grad_18" cx="0.5387" cy="0.9581999999999999" r="1.24566">
      <stop offset="0" stop-color="#9B8579" stop-opacity="1"/>
      <stop offset="1" stop-color="#C2B59B" stop-opacity="1"/>
    </radialGradient>
    <radialGradient id="grad_19" cx="0.4645" cy="0.4125" r="0.76375">
      <stop offset="0" stop-color="#594A42" stop-opacity="1"/>
      <stop offset="1" stop-color="#726658" stop-opacity="1"/>
    </radialGradient>
    <radialGradient id="grad_20" cx="0.38280000000000003" cy="0.0213" r="1.27231">
      <stop offset="0" stop-color="#594A42" stop-opacity="1"/>
      <stop offset="1" stop-color="#726658" stop-opacity="1"/>
    </radialGradient>
    <radialGradient id="grad_21" cx="0.5088" cy="0.7795000000000001" r="1.01335">
      <stop offset="0" stop-color="#594A42" stop-opacity="1"/>
      <stop offset="1" stop-color="#726658" stop-opacity="1"/>
    </radialGradient>
    <radialGradient id="grad_22" cx="0.5024000000000001" cy="0.7391" r="0.96083">
      <stop offset="0" stop-color="#594A42" stop-opacity="1"/>
      <stop offset="1" stop-color="#726658" stop-opacity="1"/>
    </radialGradient>
    <radialGradient id="grad_23" cx="0.6373" cy="0.8959999999999999" r="1.1648">
      <stop offset="0" stop-color="#9B8579" stop-opacity="1"/>
      <stop offset="1" stop-color="#C2B59B" stop-opacity="1"/>
    </radialGradient>
    <radialGradient id="grad_24" cx="0.6373" cy="0.9494" r="1.2342199999999999">
      <stop offset="0" stop-color="#9B8579" stop-opacity="1"/>
      <stop offset="1" stop-color="#C2B59B" stop-opacity="1"/>
    </radialGradient>
    <radialGradient id="grad_25" cx="0.4886" cy="0.3839" r="0.80093">
      <stop offset="0" stop-color="#594A42" stop-opacity="1"/>
      <stop offset="1" stop-color="#726658" stop-opacity="1"/>
    </radialGradient>
    <radialGradient id="grad_26" cx="0.4368" cy="0.08990000000000001" r="1.18313">
      <stop offset="0" stop-color="#594A42" stop-opacity="1"/>
      <stop offset="1" stop-color="#726658" stop-opacity="1"/>
    </radialGradient>
  <radialGradient id="grad_1-1.044956922531128,0,0,1.044956922531128,355.9,-278" cx="10.7281" cy="185.6282" r="24.6658" gradientUnits="userSpaceOnUse">
      <stop offset="0" stop-color="#9B8579" stop-opacity="1"/>
      <stop offset="1" stop-color="#C2B59B" stop-opacity="1"/>
    </radialGradient><radialGradient id="grad_3-1.044956922531128,0,0,1.044956922531128,355.9,-278" cx="25.3601" cy="162.799" r="40.4791" gradientUnits="userSpaceOnUse">
      <stop offset="0" stop-color="#594A42" stop-opacity="1"/>
      <stop offset="1" stop-color="#726658" stop-opacity="1"/>
    </radialGradient><radialGradient id="grad_5-1.044956922531128,0,0,1.044956922531128,355.9,-278" cx="111.0525" cy="193.4312" r="25.94" gradientUnits="userSpaceOnUse">
      <stop offset="0" stop-color="#9B8579" stop-opacity="1"/>
      <stop offset="1" stop-color="#C2B59B" stop-opacity="1"/>
    </radialGradient><radialGradient id="grad_7-1.044956922531128,0,0,1.044956922531128,355.9,-278" cx="111.4341" cy="166.2617" r="41.0705" gradientUnits="userSpaceOnUse">
      <stop offset="0" stop-color="#594A42" stop-opacity="1"/>
      <stop offset="1" stop-color="#726658" stop-opacity="1"/>
    </radialGradient><radialGradient id="grad_9-1.044956922531128,0,0,1.044956922531128,356,-278" cx="101.1489" cy="249.3586" r="45.3181" gradientUnits="userSpaceOnUse">
      <stop offset="0" stop-color="#C2B59B" stop-opacity="1"/>
      <stop offset="1" stop-color="#9B8579" stop-opacity="1"/>
    </radialGradient><radialGradient id="grad_11-1.044956922531128,0,0,1.044956922531128,356,-278" cx="91.3179" cy="220.1757" r="43.1907" gradientUnits="userSpaceOnUse">
      <stop offset="0" stop-color="#594A42" stop-opacity="1"/>
      <stop offset="1" stop-color="#726658" stop-opacity="1"/>
    </radialGradient><radialGradient id="grad_13-1.044956922531128,0,0,1.044956922531128,355.5,-291" cx="31.3243" cy="236.3577" r="45.3176" gradientUnits="userSpaceOnUse">
      <stop offset="0" stop-color="#C2B59B" stop-opacity="1"/>
      <stop offset="1" stop-color="#9B8579" stop-opacity="1"/>
    </radialGradient><radialGradient id="grad_15-1.044956922531128,3.077486756950872e-17,-3.077486756950872e-17,0.7936610579490662,356,-161.1" cx="39.823" cy="218.8405" r="36.59" gradientUnits="userSpaceOnUse">
      <stop offset="0" stop-color="#594A42" stop-opacity="1"/>
      <stop offset="1" stop-color="#726658" stop-opacity="1"/>
    </radialGradient><radialGradient id="grad_17-1.044956922531128,0,0,1.044956922531128,356,-278" cx="17.0574" cy="82.6878" r="36.3887" gradientUnits="userSpaceOnUse">
      <stop offset="0" stop-color="#9B8579" stop-opacity="1"/>
      <stop offset="1" stop-color="#C2B59B" stop-opacity="1"/>
    </radialGradient><radialGradient id="grad_19-1.044956922531128,0,0,1.044956922531128,356,-278" cx="68.937" cy="174.7094" r="57.6843" gradientUnits="userSpaceOnUse">
      <stop offset="0" stop-color="#594A42" stop-opacity="1"/>
      <stop offset="1" stop-color="#726658" stop-opacity="1"/>
    </radialGradient><radialGradient id="grad_21-0.7403100728988647,-3.730848267793437e-17,3.730848267793437e-17,1.044956922531128,272.65,-275.3" cx="104.6453" cy="235.6201" r="76.4679" gradientUnits="userSpaceOnUse">
      <stop offset="0" stop-color="#594A42" stop-opacity="1"/>
      <stop offset="1" stop-color="#726658" stop-opacity="1"/>
    </radialGradient><radialGradient id="grad_23-1.044956922531128,0,0,1.044956922531128,356,-278" cx="142.7859" cy="95.6971" r="34.5082" gradientUnits="userSpaceOnUse">
      <stop offset="0" stop-color="#9B8579" stop-opacity="1"/>
      <stop offset="1" stop-color="#C2B59B" stop-opacity="1"/>
    </radialGradient><radialGradient id="grad_25-1.044956922531128,0,0,1.044956922531128,356,-278" cx="79.4887" cy="59.9508" r="114.428" gradientUnits="userSpaceOnUse">
      <stop offset="0" stop-color="#594A42" stop-opacity="1"/>
      <stop offset="1" stop-color="#726658" stop-opacity="1"/>
    </radialGradient></defs>
  <!-- Exported by Scratch - http://scratch.mit.edu/ -->
  <g id="ID0.5400415910407901">
    <path id="Hand_1_" fill="url(#grad_1-1.044956922531128,0,0,1.044956922531128,355.9,-278)" stroke="url(#grad_2)" stroke-width="2.089913845062256" d="M 25.6487 187.7707 C 25.6487 187.7707 29.0667 199.2141 24.8775 200.2245 C 20.6893 201.2371 20.4709 194.4449 20.4709 194.4449 C 20.4709 194.4449 12.6954 208.1432 4.5332 201.5391 C -3.6289 194.9371 8.8604 183.0486 8.8604 183.0486 C 8.8604 183.0486 12.9159 180.4487 17.7122 181.4164 C 22.5013 182.3809 25.6487 187.7707 25.6487 187.7707 L 25.6487 187.7707 L 25.6487 187.7707 L 25.6487 187.7707 L 25.6487 187.7707 L 25.6487 187.7707 L 25.6487 187.7707 L 25.6487 187.7707 L 25.6487 187.7707 L 25.6487 187.7707 L 25.6487 187.7707 L 25.6487 187.7707 L 25.6487 187.7707 Z "/>
    <path id="Arm_1_" fill="url(#grad_3-1.044956922531128,0,0,1.044956922531128,355.9,-278)" stroke="url(#grad_4)" stroke-width="2.089913845062256" d="M 51.6065 158.6332 C 48.4016 159.1619 36.255 161.2665 31.3625 168.1046 C 25.1847 176.7444 23.0906 183.4937 23.0885 183.569 C 22.9067 189.3016 12.7226 192.263 12.7226 182.267 L 12.7226 182.267 C 12.7738 181.8322 14.1228 171.5321 23.6309 161.0742 C 34.4535 149.1753 50.5531 147.7447 55.2345 148.0916 C 55.2345 148.0916 58.4447 148.541 58.0883 152.2004 C 57.7383 155.8567 51.6065 158.6332 51.6065 158.6332 L 51.6065 158.6332 L 51.6065 158.6332 L 51.6065 158.6332 L 51.6065 158.6332 L 51.6065 158.6332 L 51.6065 158.6332 L 51.6065 158.6332 L 51.6065 158.6332 L 51.6065 158.6332 L 51.6065 158.6332 L 51.6065 158.6332 L 51.6065 158.6332 Z "/>
    <path id="Hand" fill="url(#grad_5-1.044956922531128,0,0,1.044956922531128,355.9,-278)" stroke="url(#grad_6)" stroke-width="2.089913845062256" d="M 117.7679 186.6892 C 122.6447 186.2994 126.3616 189.3633 126.3616 189.3633 C 126.3616 189.3633 137.3483 202.6541 128.4589 208.2373 C 119.5694 213.8257 113.4784 199.2977 113.4784 199.2977 C 113.4784 199.2977 112.4553 206.0167 108.4155 204.5141 C 104.3757 203.0114 109.1303 192.0561 109.1303 192.0561 C 109.1303 192.0561 112.8963 187.079 117.7679 186.6892 L 117.7679 186.6892 L 117.7679 186.6892 L 117.7679 186.6892 L 117.7679 186.6892 L 117.7679 186.6892 L 117.7679 186.6892 L 117.7679 186.6892 L 117.7679 186.6892 L 117.7679 186.6892 L 117.7679 186.6892 L 117.7679 186.6892 L 117.7679 186.6892 Z "/>
    <path id="Arm" fill="url(#grad_7-1.044956922531128,0,0,1.044956922531128,355.9,-278)" stroke="url(#grad_8)" stroke-width="2.089913845062256" d="M 81.1495 152.8817 C 81.231 149.2056 84.4724 149.1429 84.4724 149.1429 C 89.1612 149.355 104.9766 152.6884 114.307 165.789 C 122.5047 177.3045 122.6196 187.6903 122.6186 188.1292 L 122.6186 188.1292 C 121.4294 198.0542 111.6706 193.9046 112.1711 188.1908 C 112.1774 188.1156 110.9025 181.1635 105.7937 171.8508 C 101.7508 164.4807 89.9407 160.9456 86.8205 160.0397 C 86.8215 160.0386 81.0638 156.5527 81.1495 152.8817 L 81.1495 152.8817 L 81.1495 152.8817 L 81.1495 152.8817 L 81.1495 152.8817 L 81.1495 152.8817 L 81.1495 152.8817 L 81.1495 152.8817 L 81.1495 152.8817 L 81.1495 152.8817 L 81.1495 152.8817 L 81.1495 152.8817 L 81.1495 152.8817 Z "/>
    <path id="Foot_1_" fill="url(#grad_9-1.044956922531128,0,0,1.044956922531128,356,-278)" stroke="url(#grad_10)" stroke-width="2.089913845062256" stroke-linecap="round" stroke-linejoin="round" d="M 80.75 266.2982 C 80.75 266.2982 83.8953 245.84 106.8708 246.7826 C 129.8473 247.7272 129.0134 261.2406 128.7469 264.7224 C 128.1158 272.9044 117.0999 272.7498 117.0999 272.7498 L 80.5912 268.9743 L 80.75 266.2982 L 80.75 266.2982 L 80.75 266.2982 L 80.75 266.2982 L 80.75 266.2982 L 80.75 266.2982 L 80.75 266.2982 L 80.75 266.2982 L 80.75 266.2982 L 80.75 266.2982 L 80.75 266.2982 L 80.75 266.2982 L 80.75 266.2982 Z "/>
    <path id="Leg_1_" fill="url(#grad_11-1.044956922531128,0,0,1.044956922531128,356,-278)" stroke="url(#grad_12)" stroke-width="2.089913845062256" d="M 89.5903 263.6691 C 92.8339 261.6858 95.1286 256.6689 96.23 252.5215 C 97.9061 246.2068 99.0054 241.7469 97.2749 230.4165 C 96.2749 223.875 91.6092 214.8383 91.6092 214.8383 C 91.6092 214.8383 88.2193 207.2414 82.6393 210.2007 C 79.68 211.787 82.6393 220.503 82.6393 220.503 C 82.6393 220.503 84.9831 227.7581 85.6289 239.3853 C 86.0991 247.884 81.0123 259.2395 82.2976 263.8415 C 82.7803 265.572 86.3436 265.6556 89.5903 263.6691 L 89.5903 263.6691 L 89.5903 263.6691 L 89.5903 263.6691 L 89.5903 263.6691 L 89.5903 263.6691 L 89.5903 263.6691 L 89.5903 263.6691 L 89.5903 263.6691 L 89.5903 263.6691 L 89.5903 263.6691 L 89.5903 263.6691 L 89.5903 263.6691 Z "/>
    <path id="Foot" fill="url(#grad_13-1.044956922531128,0,0,1.044956922531128,355.5,-291)" stroke="url(#grad_14)" stroke-width="2.089913845062256" stroke-linecap="round" stroke-linejoin="round" d="M 51.2065 255.9733 L 14.6988 259.7487 C 14.6988 259.7487 3.6839 259.9034 3.0517 251.7214 C 2.7842 248.2396 1.9514 234.7262 24.9289 233.7815 C 47.9044 232.839 51.0497 253.2972 51.0497 253.2972 L 51.2065 255.9733 L 51.2065 255.9733 L 51.2065 255.9733 L 51.2065 255.9733 L 51.2065 255.9733 L 51.2065 255.9733 L 51.2065 255.9733 L 51.2065 255.9733 L 51.2065 255.9733 L 51.2065 255.9733 L 51.2065 255.9733 L 51.2065 255.9733 L 51.2065 255.9733 Z "/>
    <path id="Leg" fill="url(#grad_15-1.044956922531128,3.077486756950872e-17,-3.077486756950872e-17,0.7936610579490662,356,-161.1)" stroke="url(#grad_16)" stroke-width="1.8557116396954332" d="M 50.0021 250.4379 C 51.2864 246.9426 46.1995 238.3179 46.6708 231.863 C 47.3166 223.032 49.6604 217.5216 49.6604 217.5216 C 49.6604 217.5216 52.6197 210.9008 49.6604 209.6969 C 44.0804 207.4492 40.6905 213.2191 40.6905 213.2191 C 40.6905 213.2191 36.0248 220.0827 35.0258 225.051 C 33.2954 233.6575 34.3936 237.044 36.0708 241.8401 C 37.1721 244.9902 39.4669 248.8005 42.7104 250.3069 C 45.955 251.8149 49.5194 251.7514 50.0021 250.4379 L 50.0021 250.4379 L 50.0021 250.4379 L 50.0021 250.4379 L 50.0021 250.4379 L 50.0021 250.4379 L 50.0021 250.4379 L 50.0021 250.4379 L 50.0021 250.4379 L 50.0021 250.4379 L 50.0021 250.4379 L 50.0021 250.4379 L 50.0021 250.4379 Z "/>
    <path id="Ear_1_" fill="url(#grad_17-1.044956922531128,0,0,1.044956922531128,356,-278)" stroke="url(#grad_18)" stroke-width="2.089913845062256" d="M 21.3996 86.5928 C 21.3996 86.5928 15.3702 86.1988 10.8967 83.2134 C 4.233 78.765 2.8714 68.6833 9.1663 58.892 C 15.46 49.1018 20.8039 48.7873 25.6003 51.1489 C 29.0048 52.825 29.8042 57.2399 29.9431 58.2159 L 29.9714 58.3288 C 24.3422 72.3667 23.5835 84.8613 23.5835 84.8613 C 23.5835 84.8613 21.9931 85.6032 21.3996 86.5928 L 21.3996 86.5928 L 21.3996 86.5928 L 21.3996 86.5928 L 21.3996 86.5928 L 21.3996 86.5928 L 21.3996 86.5928 L 21.3996 86.5928 L 21.3996 86.5928 L 21.3996 86.5928 L 21.3996 86.5928 L 21.3996 86.5928 L 21.3996 86.5928 Z "/>
    <path id="Body" fill="url(#grad_19-1.044956922531128,0,0,1.044956922531128,356,-278)" stroke="url(#grad_20)" stroke-width="2.089913845062256" d="M 39.3383 212.6219 C 33.6057 204.7137 31.8815 193.5901 34.7228 182.8688 C 37.1283 173.7903 36.1481 177.2888 41.7271 164.6824 C 54.3753 136.0997 80.5932 132.7015 90.8035 153.6508 C 94.7388 161.7252 95.6061 165.5947 95.603 165.6396 L 95.5894 165.8434 L 95.6553 166.0471 C 95.7106 166.2122 101.1862 182.664 99.4349 196.9977 C 97.8037 210.347 85.0761 223.8625 63.9042 223.8625 C 62.9199 223.8625 61.9105 223.8343 60.9052 223.7768 C 51.7023 223.2491 44.2465 219.3911 39.3383 212.6219 L 39.3383 212.6219 L 39.3383 212.6219 L 39.3383 212.6219 L 39.3383 212.6219 L 39.3383 212.6219 L 39.3383 212.6219 L 39.3383 212.6219 L 39.3383 212.6219 L 39.3383 212.6219 L 39.3383 212.6219 L 39.3383 212.6219 L 39.3383 212.6219 Z "/>
    <path id="Tail" fill="url(#grad_21-0.7403100728988647,-3.730848267793437e-17,3.730848267793437e-17,1.044956922531128,272.65,-275.3)" stroke="url(#grad_22)" stroke-width="1.8110737003121922" d="M 88.9198 242.4782 C 95.1214 245.495 102.7533 247.099 112.0405 245.8681 C 133.1282 243.076 143.0365 218.4014 145.3293 205.7438 C 145.937 202.3885 144.5031 198.9704 142.1267 198.1146 C 139.7495 197.2598 137.3302 199.2818 136.7231 202.6372 C 136.5129 203.7615 131.253 230.7308 111.2106 233.3861 C 83.5067 237.056 74.0611 210.9686 73.6717 209.8557 C 72.5908 206.7637 69.9383 205.4638 67.7411 206.9717 C 65.5431 208.4774 64.614 212.1902 65.6697 215.301 C 66.025 216.3439 72.3754 234.4331 88.9198 242.4782 L 88.9198 242.4782 L 88.9198 242.4782 L 88.9198 242.4782 L 88.9198 242.4782 L 88.9198 242.4782 L 88.9198 242.4782 L 88.9198 242.4782 L 88.9198 242.4782 L 88.9198 242.4782 L 88.9198 242.4782 L 88.9198 242.4782 L 88.9198 242.4782 L 88.9198 242.4782 Z "/>
    <path id="Ear" fill="url(#grad_23-1.044956922531128,0,0,1.044956922531128,356,-278)" stroke="url(#grad_24)" stroke-width="2.089913845062256" d="M 134.5611 70.7 C 134.5611 70.7 135.3845 65.4314 138.6782 64.6079 C 141.9719 63.7845 149.876 63.2913 154.8165 73.8297 C 159.7571 84.3681 157.0705 94.1813 149.876 97.708 C 145.9365 99.638 141.1903 99.404 139.5769 99.2535 C 139.5769 99.2535 136.7649 96.2367 136.0387 95.593 C 136.0387 95.592 136.6938 84.8258 134.5057 71.4012 L 134.5611 70.7 L 134.5611 70.7 L 134.5611 70.7 L 134.5611 70.7 L 134.5611 70.7 L 134.5611 70.7 L 134.5611 70.7 L 134.5611 70.7 L 134.5611 70.7 L 134.5611 70.7 L 134.5611 70.7 L 134.5611 70.7 L 134.5611 70.7 Z "/>
    <path id="Head_1_" fill="url(#grad_25-1.044956922531128,0,0,1.044956922531128,356,-278)" stroke="url(#grad_26)" stroke-width="2.089913845062256" d="M 21.4623 85.4193 C 21.4518 85.6053 17.3462 88.4601 15.8665 90.5041 L 12.8884 98.0277 C 11.8967 100.5336 10.765 110.4168 11.6344 116.5235 C 12.4359 122.044 13.6449 128.5384 17.8519 132.5113 C 25.5564 139.8448 35.0258 146.1303 45.5955 148.7604 C 63.9784 153.3007 83.4157 154.2517 102.389 152.9925 C 111.8678 152.3028 120.195 148.7907 128.0949 144.4761 C 133.2862 141.5471 137.6019 138.1342 140.6344 133.504 C 143.3481 128.8247 144.3147 123.5811 144.6052 117.7252 C 144.7808 111.7846 142.3669 106.3958 140.3731 100.2744 C 139.7932 98.5116 137.3041 97.8104 136.8851 96.0287 L 134.8871 75.7702 C 134.2058 69.3552 134.1327 72.8704 133.3719 70.7544 C 130.4711 62.703 127.7898 54.5042 124.1241 46.7726 C 122.0571 42.4663 119.7467 39.018 116.8616 35.7483 C 114.4446 32.7148 111.5511 30.5194 108.3452 28.0156 C 105.3054 25.699 102.575 24.5129 98.672 21.7166 L 98.6417 21.5933 C 98.7515 20.2558 98.7985 17.4187 97.9416 13.0874 C 96.7086 6.8584 92.9384 1.6576 92.9384 1.6576 C 92.9384 1.6576 91.9457 7.0381 89.2549 10.9316 C 86.4858 14.938 84.0562 16.1303 84.0562 16.1303 C 84.0562 16.1303 84.8995 13.0195 84.7637 10.5419 C 84.4868 5.5114 82.0719 3.015 82.0719 3.015 C 82.0719 3.015 79.1439 10.174 75.4865 14.3016 C 71.5753 18.7166 66.8385 21.6038 66.8385 21.6038 L 66.7695 21.6226 C 24.7079 32.0826 25.2419 79.5822 21.4926 84.8613 L 21.4623 85.4193 Z "/>
    <path id="ID0.11469296598806977" fill="#675A4E" stroke="#675A4E" stroke-width="3.875" d="M 68.3719 204.275 C 69.8424 204.275 71.1735 204.926 72.1384 205.9781 C 73.1033 207.0301 73.7 208.4832 73.7 210.0875 C 73.7 211.6917 73.1033 213.1449 72.1384 214.1969 C 71.1735 215.249 69.8424 215.9 68.3719 215.9 C 66.9013 215.9 65.5702 215.249 64.6054 214.1969 C 63.6405 213.1449 63.0438 211.6917 63.0438 210.0875 C 63.0438 208.4832 63.6405 207.0301 64.6054 205.9781 C 65.5702 204.926 66.9013 204.275 68.3719 204.275 Z "/>
  </g>
</svg>