<svg xmlns="http://www.w3.org/2000/svg" xmlns:xlink="http://www.w3.org/1999/xlink" version="1.1" width="7.248000144958496" height="8.83620023727417" viewBox="0.586899995803833 0.7038999795913696 7.248000144958496 8.83620023727417">
  <!-- Exported by Scratch - http://scratch.mit.edu/ -->
  <g id="ID0.48949470138177276">
    <path id="ID0.7943035075441003" fill="none" stroke="#000000" stroke-width="0.4749642312526703" stroke-linecap="round" d="M 3.7727 1.3938 L 4.1171 2.1775 Z "/>
    <path id="ID0.7943035075441003" fill="none" stroke="#000000" stroke-width="0.4749642312526703" stroke-linecap="round" d="M 5.162 1.4532 L 5.5064 2.2369 Z "/>
    <path id="ID0.7943035075441003" fill="none" stroke="#000000" stroke-width="0.4749642312526703" stroke-linecap="round" d="M 2.5141 1.287 L 2.8584 2.0707 Z "/>
    <path id="ID0.7943035075441003" fill="none" stroke="#000000" stroke-width="0.4749642312526703" stroke-linecap="round" d="M 6.48 1.4532 L 6.8244 2.2369 Z "/>
    <path id="ID0.8254578025080264" fill="#FFFFFF" stroke="#000000" d="M 1.0869 1.8503 L 7.3349 1.8503 L 7.3349 9.0401 L 1.0869 9.0401 L 1.0869 1.8503 Z " stroke-width="0.45941175222340647"/>
    <path id="ID0.15233103232458234" fill="#CCCCCC" stroke="none" d="M 1.7779 2.1419 C 1.8729 2.1419 1.9591 2.1859 2.0213 2.2569 C 2.0838 2.3276 2.1222 2.4257 2.1222 2.5338 C 2.1222 2.6418 2.0838 2.7399 2.0213 2.8107 C 1.9591 2.8817 1.8729 2.9256 1.7779 2.9256 C 1.6829 2.9256 1.5967 2.8817 1.5345 2.8107 C 1.472 2.7399 1.4335 2.6418 1.4335 2.5338 C 1.4335 2.4257 1.472 2.3276 1.5345 2.2569 C 1.5967 2.1859 1.6829 2.1419 1.7779 2.1419 Z " stroke-width="0.23748211562633514"/>
    <path id="ID0.3356218123808503" fill="none" stroke="#000000" stroke-width="0.4749642312526703" stroke-linecap="round" d="M 1.8135 2.4506 L 2.4903 1.2039 "/>
    <path id="ID0.15233103232458234" fill="#CCCCCC" stroke="none" d="M 3.0366 2.2488 C 3.1315 2.2488 3.2178 2.2927 3.28 2.3637 C 3.3424 2.4345 3.3809 2.5326 3.3809 2.6406 C 3.3809 2.7487 3.3424 2.8468 3.28 2.9175 C 3.2178 2.9885 3.1315 3.0325 3.0366 3.0325 C 2.9416 3.0325 2.8554 2.9885 2.7931 2.9175 C 2.7307 2.8468 2.6922 2.7487 2.6922 2.6406 C 2.6922 2.5326 2.7307 2.4345 2.7931 2.3637 C 2.8554 2.2927 2.9416 2.2488 3.0366 2.2488 Z " stroke-width="0.23748211562633514"/>
    <path id="ID0.3356218123808503" fill="none" stroke="#000000" stroke-width="0.4749642312526703" stroke-linecap="round" d="M 3.0603 2.5575 L 3.7371 1.3107 "/>
    <path id="ID0.15233103232458234" fill="#CCCCCC" stroke="none" d="M 4.4139 2.3082 C 4.5089 2.3082 4.5951 2.3521 4.6574 2.4231 C 4.7198 2.4939 4.7583 2.5919 4.7583 2.7 C 4.7583 2.8081 4.7198 2.9061 4.6574 2.9769 C 4.5951 3.0479 4.5089 3.0918 4.4139 3.0918 C 4.319 3.0918 4.2327 3.0479 4.1705 2.9769 C 4.1081 2.9061 4.0696 2.8081 4.0696 2.7 C 4.0696 2.5919 4.1081 2.4939 4.1705 2.4231 C 4.2327 2.3521 4.319 2.3082 4.4139 2.3082 Z " stroke-width="0.23748211562633514"/>
    <path id="ID0.3356218123808503" fill="none" stroke="#000000" stroke-width="0.4749642312526703" stroke-linecap="round" d="M 4.4614 2.6169 L 5.1383 1.3701 "/>
    <path id="ID0.15233103232458234" fill="#CCCCCC" stroke="none" d="M 5.7438 2.3082 C 5.8388 2.3082 5.925 2.3521 5.9873 2.4231 C 6.0497 2.4939 6.0882 2.5919 6.0882 2.7 C 6.0882 2.8081 6.0497 2.9061 5.9873 2.9769 C 5.925 3.0479 5.8388 3.0918 5.7438 3.0918 C 5.6489 3.0918 5.5626 3.0479 5.5004 2.9769 C 5.438 2.9061 5.3995 2.8081 5.3995 2.7 C 5.3995 2.5919 5.438 2.4939 5.5004 2.4231 C 5.5626 2.3521 5.6489 2.3082 5.7438 2.3082 Z " stroke-width="0.23748211562633514"/>
    <path id="ID0.3356218123808503" fill="none" stroke="#000000" stroke-width="0.4749642312526703" stroke-linecap="round" d="M 5.7676 2.6169 L 6.4444 1.3701 "/>
    <path id="ID0.15233103232458234" fill="#CCCCCC" stroke="none" d="M 6.7531 2.3082 C 6.8481 2.3082 6.9343 2.3521 6.9966 2.4231 C 7.059 2.4939 7.0975 2.5919 7.0975 2.7 C 7.0975 2.8081 7.059 2.9061 6.9966 2.9769 C 6.9343 3.0479 6.8481 3.0918 6.7531 3.0918 C 6.6582 3.0918 6.5719 3.0479 6.5097 2.9769 C 6.4473 2.9061 6.4088 2.8081 6.4088 2.7 C 6.4088 2.5919 6.4473 2.4939 6.5097 2.4231 C 6.5719 2.3521 6.6582 2.3082 6.7531 2.3082 Z " stroke-width="0.23748211562633514"/>
    <path id="ID0.3356218123808503" fill="none" stroke="#000000" stroke-width="0.4749642312526703" stroke-linecap="round" d="M 6.7769 2.6169 L 6.9669 1.6788 "/>
  </g>
</svg>