<svg version="1.1" xmlns="http://www.w3.org/2000/svg" xmlns:xlink="http://www.w3.org/1999/xlink" width="86.74479" height="76.96335" viewBox="0,0,86.74479,76.96335"><g transform="translate(-204.54721,-140.30216)"><g data-paper-data="{&quot;isPaintingLayer&quot;:true}" fill-rule="evenodd" stroke="none" stroke-width="1" stroke-linecap="butt" stroke-linejoin="miter" stroke-miterlimit="10" stroke-dasharray="" stroke-dashoffset="0" style="mix-blend-mode: normal"><g><path d="M287.7188,186.4142c-12.09653,11.42154 -26.22449,13.57712 -37.25032,9.45172c-13.52712,-5.09861 -27.97866,-25.90337 -17.16046,-38.48053c-0.91504,-1.13769 -4.49376,-6.10959 -6.55787,-9.79271l2.44885,-5.3421c4.18108,0.14567 9.61219,4.48055 9.83522,12.26108c1.97943,-0.75208 6.30337,0.18967 8.36741,3.87285c3.84645,6.92741 6.61477,13.55886 14.75204,17.17752c6.53518,2.87184 14.94356,-0.2337 22.37051,0.55769c9.05885,0.93274 7.85096,5.72907 3.19462,10.29448z" fill="#272525"/><path d="M228.5255,144.82741c1.96164,-0.38878 5.03476,0.06639 6.23165,1.64298c0.02773,0.66898 2.78574,9.97079 4.38402,9.56401c3.9986,-1.07736 9.54516,13.21795 17.22941,18.63522c10.61617,7.50434 20.64895,2.23309 28.7248,4.6347c4.42714,1.31109 1.87732,5.00927 0.92419,5.87275c-15.03506,13.15815 -28.19737,10.50545 -35.10189,7.73679c-9.04842,-3.60296 -14.3317,-13.39343 -17.29833,-22.1592c-0.57933,-1.78888 -1.24781,-5.4638 -1.09464,-7.33795c0.38568,-2.89453 0.65176,-3.367 2.63947,-5.51479c0.26017,-0.35134 -6.63867,-13.07451 -6.63867,-13.07451z" fill="#fff63b"/><path d="M237.4966,159.83799c-0.2758,-0.55988 0.5323,-0.94492 0.75056,-0.44855c7.80942,16.41004 20.45615,27.04958 35.04455,25.40224c3.05152,-0.335 8.17593,-2.08508 9.28978,-2.5157c1.17738,-0.4883 0.93888,0.65328 -0.1173,1.14742c-0.99281,0.4366 -1.85845,0.75813 -3.46263,1.2859c-13.44544,4.31381 -27.841,4.51388 -41.50497,-24.8713z" fill="#272525"/></g><g><path d="M235.93489,155.81549c2.13418,-0.19818 5.9596,2.2365 6.59805,6.51694c1.18595,7.94946 1.49633,15.18803 7.74311,21.44487c4.97436,4.97995 13.83885,4.93184 20.47722,8.17302c8.05575,4.03956 5.23979,8.21027 -0.78015,10.88742c-15.08167,6.72177 -28.90697,3.9756 -37.69465,-3.68126c-10.76285,-9.45403 -16.94888,-34.16041 -2.57372,-42.55586c-0.68259,-2.15816 -4.0118,-14.64442 -2.50477,-15.66265c4.14586,-2.83038 13.88069,4.0842 8.7349,14.87751z" fill="#272525"/><path d="M229.58996,142.93756c1.97352,-0.63096 4.25654,-0.15411 5.21882,3.71747c0.60712,2.45794 -0.88334,10.51808 0.74864,10.65936c4.11159,0.32426 4.3154,15.87335 9.51559,23.65668c7.30016,10.73986 18.36464,9.16151 24.97688,14.16163c3.62876,2.72848 0.0368,5.4041 -1.14057,5.89227c-18.39328,7.40804 -29.70255,0.41583 -35.16132,-4.5881c-7.14,-6.60443 -8.66088,-17.60534 -8.43687,-27.06342c0.03204,-1.88005 0.64413,-5.67393 1.51797,-7.3911c1.28495,-2.66806 0.0702,-3.88129 2.68505,-5.20903c0.43285,-0.16073 0.07581,-13.83575 0.07581,-13.83575z" fill="#fff63b"/><path d="M232.79524,160.39507c-0.02765,-0.66905 0.82603,-0.74833 0.85973,-0.2004c1.58311,18.34864 9.61532,32.70595 23.70449,36.2541c2.99772,0.75503 8.27466,0.83329 9.4341,0.70842c1.21712,-0.06135 0.88523,1.7433 -0.2107,1.81064c-1.09585,0.06726 -2.68218,0.23181 -4.25654,0.15411c-14.05401,-0.57218 -27.01527,-6.06779 -29.53107,-38.72687z" fill="#272525"/></g><g><path d="M229.92684,158.25046c1.82633,1.122 3.58469,4.8507 2.23997,8.72984c-2.6319,7.82179 -4.64415,14.15656 -2.15603,22.77723c2.02984,6.8379 8.42978,11.2206 12.62369,17.25464c5.09706,7.41406 -1.61583,10.60334 -8.09188,10.22306c-16.22196,-0.922 -24.54474,-10.61979 -28.43016,-21.67665c-4.79218,-13.5904 1.49171,-38.83464 17.86086,-39.66574c0.41334,-2.22549 3.3538,-15.07001 5.18827,-15.34373c4.88598,-0.60857 9.80375,10.43856 0.76528,17.70134z" fill="#272525"/><path d="M230.28673,143.57903c1.58409,1.11004 3.15407,3.73684 2.74671,5.84128c-0.39548,1.86212 -2.83223,6.96199 -4.88352,9.16738c3.41043,2.23204 -3.21315,17.14068 -2.40475,26.58897c1.17703,13.0478 11.48815,16.89517 14.81426,24.52526c1.79796,4.15565 -2.48846,4.9153 -3.81468,4.72843c-19.32879,-1.9251 -25.85454,-13.59793 -28.17805,-20.63234c-3.06377,-9.25609 0.86496,-19.98812 5.46441,-28.31967c0.93138,-1.65365 3.27266,-4.81585 4.78567,-5.95513c2.39665,-1.82417 3.0081,-1.91541 5.79944,-1.89907c0.548,-0.03363 4.32263,-15.0222 5.67052,-14.04509z" fill="#fff63b"/><path d="M224.7606,160.84832c0.27205,-0.59351 1.04436,-0.25189 0.84173,0.16296c-7.28507,17.2433 -7.20454,34.061 3.36159,43.80876c2.20533,2.05122 6.69382,4.57929 7.82338,5.05996c1.12949,0.48059 0.06128,1.21705 -0.88364,0.68475c-1.00844,-0.47462 -1.78068,-0.81631 -3.13448,-1.67215c-11.85719,-6.95865 -21.23406,-17.43675 -8.00858,-48.04427z" fill="#272525"/></g></g></g></svg>