<svg xmlns="http://www.w3.org/2000/svg" xmlns:xlink="http://www.w3.org/1999/xlink" version="1.1" width="141.42171186191916" height="339.1483353970754" viewBox="9.8899436295873 -1.1830955444925952 141.42171186191916 339.1483353970754">
  <defs>
    <radialGradient id="grad_1" cx="0.5962" cy="0.4115" r="0.77506">
      <stop offset="0" stop-color="#003FFF" stop-opacity="1"/>
      <stop offset="1" stop-color="#002699" stop-opacity="1"/>
    </radialGradient>
    <radialGradient id="grad_2" cx="0.4285" cy="0.2777" r="0.93899">
      <stop offset="0" stop-color="#003FFF" stop-opacity="1"/>
      <stop offset="1" stop-color="#002699" stop-opacity="1"/>
    </radialGradient>
    <radialGradient id="grad_3" cx="0.804" cy="0.0725" r="1.20575">
      <stop offset="0" stop-color="#F48D00" stop-opacity="1"/>
      <stop offset="1" stop-color="#995900" stop-opacity="1"/>
    </radialGradient>
    <radialGradient id="grad_4" cx="0.9061" cy="0.0725" r="1.20575">
      <stop offset="0" stop-color="#F48D00" stop-opacity="1"/>
      <stop offset="1" stop-color="#995900" stop-opacity="1"/>
    </radialGradient>
    <radialGradient id="grad_5" cx="0.8367" cy="0.1" r="1.17">
      <stop offset="0" stop-color="#F48D00" stop-opacity="1"/>
      <stop offset="1" stop-color="#995900" stop-opacity="1"/>
    </radialGradient>
    <radialGradient id="grad_6" cx="0.9224" cy="0.1032" r="1.19912">
      <stop offset="0" stop-color="#F48D00" stop-opacity="1"/>
      <stop offset="1" stop-color="#995900" stop-opacity="1"/>
    </radialGradient>
    <radialGradient id="grad_7" cx="0.7445" cy="0.4086" r="0.96785">
      <stop offset="0" stop-color="#003FFF" stop-opacity="1"/>
      <stop offset="1" stop-color="#002699" stop-opacity="1"/>
    </radialGradient>
    <radialGradient id="grad_8" cx="0.8833" cy="0.31129999999999997" r="1.14829">
      <stop offset="0" stop-color="#003FFF" stop-opacity="1"/>
      <stop offset="1" stop-color="#002699" stop-opacity="1"/>
    </radialGradient>
    <radialGradient id="grad_9" cx="0.23670000000000002" cy="0.2145" r="1.02115">
      <stop offset="0" stop-color="#003FFF" stop-opacity="1"/>
      <stop offset="1" stop-color="#002699" stop-opacity="1"/>
    </radialGradient>
    <radialGradient id="grad_10" cx="0.042" cy="0.21059999999999998" r="1.2454">
      <stop offset="0" stop-color="#003FFF" stop-opacity="1"/>
      <stop offset="1" stop-color="#002699" stop-opacity="1"/>
    </radialGradient>
    <radialGradient id="grad_11" cx="0.7393000000000001" cy="0.12269999999999999" r="1.14049">
      <stop offset="0" stop-color="#995900" stop-opacity="1"/>
      <stop offset="1" stop-color="#663B00" stop-opacity="1"/>
    </radialGradient>
    <radialGradient id="grad_12" cx="0.7528" cy="0.0987" r="1.17169">
      <stop offset="0" stop-color="#995900" stop-opacity="1"/>
      <stop offset="1" stop-color="#663B00" stop-opacity="1"/>
    </radialGradient>
  <radialGradient id="grad_1-.82351815700531,-0.6343110799789429,0.4976893663406372,2.3240959644317627,-523.15,-75.8" cx="129.4329" cy="125.9719" r="42.5772" gradientUnits="userSpaceOnUse">
      <stop offset="0" stop-color="#003FFF" stop-opacity="1"/>
      <stop offset="1" stop-color="#002699" stop-opacity="1"/>
    </radialGradient><radialGradient id="grad_3-2.611013412475586,0,0,2.280764579772949,762.1,-288.15" cx="100.2316" cy="224.2323" r="93.4092" gradientUnits="userSpaceOnUse">
      <stop offset="0" stop-color="#F48D00" stop-opacity="1"/>
      <stop offset="1" stop-color="#995900" stop-opacity="1"/>
    </radialGradient><radialGradient id="grad_5-2.611013412475586,0,0,1.5865390300750732,715,-135.5" cx="52.2565" cy="222.8198" r="79.8775" gradientUnits="userSpaceOnUse">
      <stop offset="0" stop-color="#F48D00" stop-opacity="1"/>
      <stop offset="1" stop-color="#995900" stop-opacity="1"/>
    </radialGradient><radialGradient id="grad_7-1.82351815700531,-0.6343110799789429,-0.4976893663406372,2.3240959644317627,693.5,-76" cx="33.0557" cy="135.9158" r="70.5163" gradientUnits="userSpaceOnUse">
      <stop offset="0" stop-color="#003FFF" stop-opacity="1"/>
      <stop offset="1" stop-color="#002699" stop-opacity="1"/>
    </radialGradient><radialGradient id="grad_9-.0538699626922607,0,0,2.0538699626922607,-399.65,-224.85" cx="58.9787" cy="117.367" r="117.1779" gradientUnits="userSpaceOnUse">
      <stop offset="0" stop-color="#003FFF" stop-opacity="1"/>
      <stop offset="1" stop-color="#002699" stop-opacity="1"/>
    </radialGradient><radialGradient id="grad_11-1,0,0,1,323.65,-15.5" cx="59.1346" cy="13.7643" r="120.5614" gradientUnits="userSpaceOnUse">
      <stop offset="0" stop-color="#995900" stop-opacity="1"/>
      <stop offset="1" stop-color="#663B00" stop-opacity="1"/>
    </radialGradient></defs>
  <!-- Exported by Scratch - http://scratch.mit.edu/ -->
  <g id="ID0.4626432694494724">
    <g id="ID0.9803413534536958">
      <path id="ID0.7297148094512522" fill="#FFDEAE" d="M 17.8826 208.586 C 16.5264 211.6907 14.0335 214.7468 14.2878 218.2974 C 14.7452 224.678 16.9371 230.9751 19.7683 236.7314 C 20.4458 238.1672 22.9535 238.5995 24.1357 237.7171 C 25.1072 237.0393 24.2979 235.0563 24.0836 233.5964 C 23.4991 230.123 22.0198 226.8749 21.5189 223.3087 C 21.1953 221.1862 20.6155 218.825 21.4499 216.8472 C 24.0979 213.798 26.0285 214.5896 27.9129 213.8763 C 31.9417 214.6823 33.0204 209.9884 33.9619 206.3984 C 34.7833 203.5589 37.2042 199.729 35.1913 197.4519 C 32.6187 194.4881 27.5668 193.4763 23.6756 194.6405 C 21.1547 195.4098 21.8355 199.6559 20.8121 202.0356 C 19.8695 204.2308 18.7019 206.267 17.8826 208.586 Z " stroke-width="2.646321324006666"/>
      <path id="ID0.7297148094512522" fill="#FFD499" d="M 32.4214 207.1727 C 29.9244 206.0704 27.2283 208.8709 24.8301 210.2938 C 22.9798 211.3959 20.7819 212.479 20.0074 214.6291 C 19.0406 217.3365 20.0901 220.389 20.4735 223.2567 C 20.8804 226.2656 21.1796 229.4152 22.6166 232.1265 C 23.3966 233.749 25.8691 236.3426 26.8078 235.6339 C 27.9368 234.776 27.036 231.0731 26.6545 228.8888 C 26.0738 225.5859 24.9131 222.3837 24.355 219.0778 C 24.1269 217.7541 23.7566 216.3135 24.3871 215.2408 C 25.0451 214.2438 26.5076 213.4362 27.6156 213.8488 C 28.8289 214.3005 29.1816 215.9353 29.7556 217.1018 C 30.7228 219.0675 31.0107 221.3648 32.0812 223.2628 C 32.7392 224.4339 33.4719 226.0137 34.7041 226.0635 C 35.9842 226.1373 37.3229 224.7639 37.4082 223.531 C 37.6101 220.572 36.4654 217.6812 35.633 214.8605 C 34.8513 212.2063 35.0157 208.22 32.4214 207.1727 Z " stroke-width="2.646321324006666"/>
    </g>
    <path id="ID0.8654622961767018" fill="#000000" stroke="#000000" stroke-width="4.1077399253845215" d="M 108.481 316.002 C 103.5229 316.002 99.0291 317.1809 95.7757 319.0869 C 92.5224 320.9929 90.5096 323.6239 90.5096 326.5281 C 90.5096 329.4323 93.0461 332.6137 95.7757 333.9693 C 99.5405 335.8383 104.0918 335.409 108.2756 335.5138 C 112.6092 335.409 117.329 335.8547 121.1862 333.9693 C 123.924 332.6301 126.4523 329.4323 126.4523 326.5281 C 126.4523 323.6239 124.4395 320.9929 121.1862 319.0869 C 117.9329 317.1809 113.439 316.002 108.481 316.002 Z "/>
    <path id="ID0.8654622961767018" fill="#000000" stroke="#000000" stroke-width="3.538244255849817" d="M 61.381 284.762 C 56.4229 284.762 51.9291 285.5821 48.6757 286.9079 C 45.4224 288.2337 43.4096 290.0639 43.4096 292.0841 C 43.4096 294.1043 45.4224 295.9345 48.6757 297.2603 C 51.9291 298.5862 56.4229 299.4062 61.381 299.4062 C 66.339 299.4062 70.8329 298.5862 74.0862 297.2603 C 77.3395 295.9345 79.3523 294.1043 79.3523 292.0841 C 79.3523 290.0639 77.3395 288.2337 74.0862 286.9079 C 70.8329 285.5821 66.339 284.762 61.381 284.762 Z "/>
    <path id="ID0.41013610642403364" fill="url(#grad_1-.82351815700531,-0.6343110799789429,0.4976893663406372,2.3240959644317627,-523.15,-75.8)" stroke="url(#grad_2)" d="M 129.6612 92.8036 L 135.1991 97.6197 L 147.3088 149.5947 L 148.8602 158.6694 L 145.3301 165.5161 L 138.8486 170.0181 L 119.8333 169.5156 L 122.1627 114.5157 L 129.6612 92.8036 Z " stroke-width="2.155289382121667"/>
    <path id="ID0.47236768435686827" fill="url(#grad_3-2.611013412475586,0,0,2.280764579772949,762.1,-288.15)" stroke="url(#grad_4)" stroke-width="4.90291303379415" d="M 121.749 217.0394 L 94.9861 217.0394 L 94.9861 316.2526 L 121.749 316.2526 L 121.749 217.0394 Z "/>
    <path id="ID0.47236768435686827" fill="url(#grad_5-2.611013412475586,0,0,1.5865390300750732,715,-135.5)" stroke="url(#grad_6)" stroke-width="4.320763158072648" d="M 74.649 215.9184 L 47.8861 215.9184 L 47.8861 284.9328 L 74.649 284.9328 L 74.649 215.9184 Z "/>
    <path id="ID0.41013610642403364" fill="url(#grad_7-1.82351815700531,-0.6343110799789429,-0.4976893663406372,2.3240959644317627,693.5,-76)" stroke="url(#grad_8)" d="M 40.6888 92.6036 L 35.1509 97.4197 L 12.3414 195.2426 L 41.5177 205.3916 L 48.1873 114.3157 L 40.6888 92.6036 Z " stroke-width="2.155289382121667"/>
    <path id="ID0.43916446389630437" fill="url(#grad_9-.0538699626922607,0,0,2.0538699626922607,-399.65,-224.85)" stroke="url(#grad_10)" d="M 35.6677 96.478 L 40.0836 91.9594 L 45.7317 89.9056 L 124.6003 89.7002 L 130.3511 91.7541 L 134.1508 96.1699 L 126.9623 166.2068 L 126.9623 218.6832 L 43.6778 218.6832 L 43.6778 165.6934 L 35.6677 96.478 Z " stroke-width="2.0538699626922607"/>
    <g id="ID0.7377356672659516">
      <path id="ID0.20264252508059144" fill="url(#grad_11-1,0,0,1,323.65,-15.5)" stroke="url(#grad_12)" stroke-width="2" stroke-linecap="round" d="M 138.15 28.5 C 137.128 26.753 133.559 28.941 132.15 27.5 C 130.746 26.044 133.111 22.342 131.4 21 C 129.645 19.866 126.977 23.49 125.15 22.5 C 123.443 21.56 124.506 18.21 123.15 17 C 122.15 16.117 120.342 17 119.15 17 C 117.068 17 116.192 17.724 115.15 17 C 114.319 16.409 115.097 14.67 114.65 13.5 C 114.067 12.266 113.184 11.153 112.15 10 C 110.396 8.147 108.787 6.428 107.15 6 C 105.251 7.304 104.786 7.834 103.65 8 C 101.355 7.362 101.231 6.426 100.15 6 C 97.252 5.445 96.572 5.706 95.15 5.5 C 92.812 4.944 92.314 4.693 91.15 4.5 C 88.809 4.374 88.234 4.403 87.15 4 C 84.809 2.441 84.236 1.893 83.15 1.5 C 82.52 1.291 81.683 1.105 81.15 1.5 C 79.887 3.763 80.128 4.684 79.15 5.5 C 76.873 5.685 76.278 5.689 75.15 5.5 C 72.825 4.586 72.209 4.054 71.15 4.5 C 70.435 6.681 71.205 7.496 70.65 8.5 C 68.466 10.153 67.866 10.17 66.65 10.5 C 64.161 10.586 63.46 10.522 62.15 10.5 C 59.804 10.416 59.14 9.785 58.15 10 C 57.463 10.16 56.919 10.847 56.65 11.5 C 56.472 13.826 56.637 14.455 56.15 15.5 C 54.383 17.255 53.804 17.558 52.65 18 C 50.335 18.105 49.794 17.979 48.65 18 C 46.304 18.085 45.63 18.241 44.65 18.5 C 43.788 18.743 42.776 18.87 42.15 19.5 C 41.164 21.799 41.663 22.491 41.65 23.5 C 41.664 24.162 42.058 24.982 41.65 25.5 C 39.234 26.694 38.444 26.539 37.15 27 C 34.383 28.125 33.529 28.202 32.65 29 C 32.162 29.478 31.932 30.351 32.15 31 C 33.808 32.815 34.415 33.034 35.15 34 C 36.366 36.302 36.98 36.743 37.15 38 C 36.388 40.365 35.455 40.532 34.65 41.5 C 34.204 42.012 33.914 42.671 33.4 43 C 32.689 43.371 31.65 42.959 31.15 43.5 C 30.538 45.782 30.561 46.356 30.65 47.5 C 31.354 49.789 31.911 50.106 32.65 51 C 34.737 52.861 35.076 53.331 35.65 54.5 C 36.063 57.028 35.649 57.684 35.15 59 C 32.873 62.577 32.269 62.838 32.15 64.5 C 33.752 66.307 34.823 66.083 35.65 67 C 36.717 69.267 36.669 69.655 36.65 71 C 36.566 72.424 35.617 73.174 35.4 74.25 C 35.277 75.384 34.808 77.093 35.65 77.5 C 36.872 78.057 38.305 76.399 39.65 76.5 C 40.554 76.774 41.64 77.649 41.65 78.5 C 41.679 80.443 39.436 82.092 39.65 84 C 40.042 85.425 41.86 86.32 43.15 86.75 C 44.727 87.279 46.783 85.95 48.15 86.5 C 49.708 87.171 51.036 88.474 51.65 90 C 52.183 91.346 50.226 93.391 51.15 94.75 C 52.192 96.012 54.439 96.032 56.15 96 C 58.054 95.961 59.715 94.028 61.65 94 C 63.344 94.21 64.861 95.471 66.15 96.5 C 67.542 97.606 67.762 100.298 69.4 100.75 C 71.174 101.151 72.538 98.323 74.15 98.5 C 75.809 98.699 76.898 100.697 78.15 101.5 C 80.848 102.968 81.6 103.323 82.65 103 C 83.524 102.638 83.695 101.357 84.15 100.5 C 85.23 98.195 84.798 97.349 85.65 96.5 C 88.668 95.433 89.55 95.92 91.15 96 C 93.492 96.518 93.99 96.783 95.15 97 C 100.028 97.734 100.916 98.3 103.15 98 C 104.856 96.347 104.761 95.583 105.15 94.5 C 105.5 92.23 105.8 91.466 106.65 91 C 107.402 90.642 108.307 91.399 109.15 91.5 C 115.979 91.97 117.04 92.419 119.15 92 C 119.944 91.777 120.435 90.8 120.65 90 C 120.664 85.99 119.618 85.527 120.15 84 C 122.45 82.781 123.531 83.719 124.65 83 C 125.775 80.785 125.457 80.245 125.65 79 C 126.146 75.007 124.728 74.371 126.15 73 C 127.406 71.873 129.423 74.405 131.15 74.25 C 133.148 73.784 136.041 73.196 136.65 71.25 C 137.414 68.813 133.379 66.409 134.15 64 C 134.71 62.272 138.146 63.722 139.15 62.25 C 140.345 60.824 140.16 58.519 139.65 56.75 C 139.126 54.947 137.409 53.747 136.65 52 C 135.895 50.636 135.182 49.137 135.15 47.5 C 135.126 46.363 135.303 44.968 136.15 44.25 C 137.075 43.196 139.711 44.089 139.9 42.75 C 140.198 40.516 137.303 38.775 136.9 36.5 C 136.696 33.827 139.489 30.797 138.15 28.5 Z "/>
      <path id="ID0.6422801343724132" fill="none" stroke="#000000" stroke-width="0.9446965000148362" stroke-linecap="round" d="M 136.225 32.7055 C 136.225 32.7055 135.1173 32.849 134.5794 32.99 C 134.0982 33.1161 133.6616 33.3917 133.1768 33.5037 C 132.8703 33.5746 132.2325 33.5313 132.2325 33.5313 "/>
      <path id="ID0.7584992088377476" fill="none" stroke="#000000" stroke-width="0.9446965000148362" stroke-linecap="round" d="M 136.1342 37.67 C 136.1342 37.67 134.7481 38.1831 134.0234 38.2044 C 133.5998 38.2168 132.8292 37.7668 132.8292 37.7668 "/>
      <path id="ID0.40438934741541743" fill="none" stroke="#000000" stroke-width="0.9446965000148362" stroke-linecap="round" d="M 135.9318 46.8907 C 135.2107 46.4397 134.4682 46.0163 133.7657 45.5365 C 133.5819 45.411 133.2797 45.0782 133.2797 45.0782 "/>
      <path id="ID0.8195131137035787" fill="none" stroke="#000000" stroke-width="0.9446965000148362" stroke-linecap="round" d="M 136.4238 55.6184 C 136.4238 55.6184 135.8078 56.1095 135.5003 56.3543 C 135.1928 56.5991 134.8922 56.8556 134.5768 57.0902 C 134.1217 57.4291 133.6505 57.7477 133.188 58.076 C 133.0723 58.1578 133.188 58.076 133.188 58.076 "/>
      <path id="ID0.923992021009326" fill="none" stroke="#000000" stroke-width="0.9446965000148362" stroke-linecap="round" d="M 136.3676 61.7632 C 136.3676 61.7632 132.3544 61.8808 132.3544 61.8808 "/>
      <path id="ID0.6422801343724132" fill="none" stroke="#000000" stroke-width="0.9446965000148362" stroke-linecap="round" d="M 129.625 23.6555 C 129.625 23.6555 128.5173 23.799 127.9794 23.94 C 127.4982 24.0661 127.0616 24.3417 126.5768 24.4537 C 126.2703 24.5246 125.6325 24.4813 125.6325 24.4813 "/>
      <path id="ID0.7584992088377476" fill="none" stroke="#000000" stroke-width="0.9446965000148362" stroke-linecap="round" d="M 129.5342 28.62 C 129.5342 28.62 128.1481 29.1331 127.4234 29.1544 C 126.9998 29.1668 126.2292 28.7168 126.2292 28.7168 "/>
      <path id="ID0.40438934741541743" fill="none" stroke="#000000" stroke-width="0.9446965000148362" stroke-linecap="round" d="M 129.3318 37.8407 C 128.6107 37.3897 127.8682 36.9663 127.1657 36.4865 C 126.9819 36.361 126.6797 36.0282 126.6797 36.0282 "/>
      <path id="ID0.7633831659331918" fill="none" stroke="#000000" stroke-width="0.9446965000148362" stroke-linecap="round" d="M 131.0673 40.6251 C 131.0673 40.6251 129.4999 40.8511 128.7135 40.9304 C 128.4007 40.9617 128.0837 40.9488 127.7692 40.958 C 127.3759 40.9695 126.9822 40.9811 126.5889 40.9926 C 126.4907 40.9955 126.5889 40.9926 126.5889 40.9926 "/>
      <path id="ID0.8195131137035787" fill="none" stroke="#000000" stroke-width="0.9446965000148362" stroke-linecap="round" d="M 129.8238 46.5684 C 129.8238 46.5684 129.2078 47.0595 128.9003 47.3043 C 128.5928 47.5491 128.2922 47.8056 127.9768 48.0402 C 127.5217 48.3791 127.0505 48.6977 126.588 49.026 C 126.4723 49.1078 126.588 49.026 126.588 49.026 "/>
      <path id="ID0.923992021009326" fill="none" stroke="#000000" stroke-width="0.9446965000148362" stroke-linecap="round" d="M 129.7676 52.7132 C 129.7676 52.7132 125.7544 52.8308 125.7544 52.8308 "/>
      <path id="ID0.6422801343724132" fill="none" stroke="#000000" stroke-width="0.9446965000148362" stroke-linecap="round" d="M 121.825 18.9555 C 121.825 18.9555 120.7173 19.099 120.1794 19.24 C 119.6982 19.3661 119.2616 19.6417 118.7768 19.7537 C 118.4703 19.8246 117.8325 19.7813 117.8325 19.7813 "/>
      <path id="ID0.7584992088377476" fill="none" stroke="#000000" stroke-width="0.9446965000148362" stroke-linecap="round" d="M 121.7342 23.92 C 121.7342 23.92 120.3481 24.4331 119.6234 24.4544 C 119.1998 24.4668 118.4292 24.0168 118.4292 24.0168 "/>
      <path id="ID0.40438934741541743" fill="none" stroke="#000000" stroke-width="0.9446965000148362" stroke-linecap="round" d="M 121.5318 33.1407 C 120.8107 32.6897 120.0682 32.2663 119.3657 31.7865 C 119.1819 31.661 118.8797 31.3282 118.8797 31.3282 "/>
      <path id="ID0.7633831659331918" fill="none" stroke="#000000" stroke-width="0.9446965000148362" stroke-linecap="round" d="M 123.2673 35.9251 C 123.2673 35.9251 121.6999 36.1511 120.9135 36.2304 C 120.6007 36.2617 120.2837 36.2488 119.9692 36.258 C 119.5759 36.2695 119.1822 36.2811 118.7889 36.2926 C 118.6907 36.2955 118.7889 36.2926 118.7889 36.2926 "/>
      <path id="ID0.8195131137035787" fill="none" stroke="#000000" stroke-width="0.9446965000148362" stroke-linecap="round" d="M 122.0238 41.8684 C 122.0238 41.8684 121.4078 42.3595 121.1003 42.6043 C 120.7928 42.8491 120.4922 43.1056 120.1768 43.3402 C 119.7217 43.6791 119.2505 43.9977 118.788 44.326 C 118.6723 44.4078 118.788 44.326 118.788 44.326 "/>
      <path id="ID0.923992021009326" fill="none" stroke="#000000" stroke-width="0.9446965000148362" stroke-linecap="round" d="M 121.9676 48.0132 C 121.9676 48.0132 117.9544 48.1308 117.9544 48.1308 "/>
      <path id="ID0.6422801343724132" fill="none" stroke="#000000" stroke-width="0.9446965000148362" stroke-linecap="round" d="M 114.125 15.9555 C 114.125 15.9555 113.0173 16.099 112.4794 16.24 C 111.9982 16.3661 111.5616 16.6417 111.0768 16.7537 C 110.7703 16.8246 110.1325 16.7813 110.1325 16.7813 "/>
      <path id="ID0.7584992088377476" fill="none" stroke="#000000" stroke-width="0.9446965000148362" stroke-linecap="round" d="M 114.0342 20.92 C 114.0342 20.92 112.6481 21.4331 111.9234 21.4544 C 111.4998 21.4668 110.7292 21.0168 110.7292 21.0168 "/>
      <path id="ID0.40438934741541743" fill="none" stroke="#000000" stroke-width="0.9446965000148362" stroke-linecap="round" d="M 113.8318 30.1407 C 113.1107 29.6897 112.3682 29.2663 111.6657 28.7865 C 111.4819 28.661 111.1797 28.3282 111.1797 28.3282 "/>
      <path id="ID0.7633831659331918" fill="none" stroke="#000000" stroke-width="0.9446965000148362" stroke-linecap="round" d="M 115.5673 32.9251 C 115.5673 32.9251 113.9999 33.1511 113.2135 33.2304 C 112.9007 33.2617 112.5837 33.2488 112.2692 33.258 C 111.8759 33.2695 111.4822 33.2811 111.0889 33.2926 C 110.9907 33.2955 111.0889 33.2926 111.0889 33.2926 "/>
      <path id="ID0.8195131137035787" fill="none" stroke="#000000" stroke-width="0.9446965000148362" stroke-linecap="round" d="M 114.3238 38.8684 C 114.3238 38.8684 113.7078 39.3595 113.4003 39.6043 C 113.0928 39.8491 112.7922 40.1056 112.4768 40.3402 C 112.0217 40.6791 111.5505 40.9977 111.088 41.326 C 110.9723 41.4078 111.088 41.326 111.088 41.326 "/>
      <path id="ID0.923992021009326" fill="none" stroke="#000000" stroke-width="0.9446965000148362" stroke-linecap="round" d="M 114.2676 45.0132 C 114.2676 45.0132 110.2544 45.1308 110.2544 45.1308 "/>
      <path id="ID0.6422801343724132" fill="none" stroke="#000000" stroke-width="0.9446965000148362" stroke-linecap="round" d="M 109.175 9.3055 C 109.175 9.3055 108.0673 9.449 107.5294 9.59 C 107.0482 9.7161 106.6116 9.9917 106.1268 10.1037 C 105.8203 10.1746 105.1825 10.1313 105.1825 10.1313 "/>
      <path id="ID0.7584992088377476" fill="none" stroke="#000000" stroke-width="0.9446965000148362" stroke-linecap="round" d="M 109.0842 14.27 C 109.0842 14.27 107.6981 14.7831 106.9734 14.8044 C 106.5498 14.8168 105.7792 14.3668 105.7792 14.3668 "/>
      <path id="ID0.40438934741541743" fill="none" stroke="#000000" stroke-width="0.9446965000148362" stroke-linecap="round" d="M 108.8818 23.4907 C 108.1607 23.0397 107.4182 22.6163 106.7157 22.1365 C 106.5319 22.011 106.2297 21.6782 106.2297 21.6782 "/>
      <path id="ID0.7633831659331918" fill="none" stroke="#000000" stroke-width="0.9446965000148362" stroke-linecap="round" d="M 110.6173 26.2751 C 110.6173 26.2751 109.0499 26.5011 108.2635 26.5804 C 107.9507 26.6117 107.6337 26.5988 107.3192 26.608 C 106.9259 26.6195 106.5322 26.6311 106.1389 26.6426 C 106.0407 26.6455 106.1389 26.6426 106.1389 26.6426 "/>
      <path id="ID0.8195131137035787" fill="none" stroke="#000000" stroke-width="0.9446965000148362" stroke-linecap="round" d="M 109.3738 32.2184 C 109.3738 32.2184 108.7578 32.7095 108.4503 32.9543 C 108.1428 33.1991 107.8422 33.4556 107.5268 33.6902 C 107.0717 34.0291 106.6005 34.3477 106.138 34.676 C 106.0223 34.7578 106.138 34.676 106.138 34.676 "/>
      <path id="ID0.923992021009326" fill="none" stroke="#000000" stroke-width="0.9446965000148362" stroke-linecap="round" d="M 109.3176 38.3632 C 109.3176 38.3632 105.3044 38.4808 105.3044 38.4808 "/>
      <path id="ID0.6422801343724132" fill="none" stroke="#000000" stroke-width="0.9446965000148362" stroke-linecap="round" d="M 101.075 8.0055 C 101.075 8.0055 99.9673 8.149 99.4294 8.29 C 98.9482 8.4161 98.5116 8.6917 98.0268 8.8037 C 97.7203 8.8746 97.0825 8.8313 97.0825 8.8313 "/>
      <path id="ID0.7584992088377476" fill="none" stroke="#000000" stroke-width="0.9446965000148362" stroke-linecap="round" d="M 100.9842 12.97 C 100.9842 12.97 99.5981 13.4831 98.8734 13.5044 C 98.4498 13.5168 97.6792 13.0668 97.6792 13.0668 "/>
      <path id="ID0.40438934741541743" fill="none" stroke="#000000" stroke-width="0.9446965000148362" stroke-linecap="round" d="M 100.7818 22.1907 C 100.0607 21.7397 99.3182 21.3163 98.6157 20.8365 C 98.4319 20.711 98.1297 20.3782 98.1297 20.3782 "/>
      <path id="ID0.7633831659331918" fill="none" stroke="#000000" stroke-width="0.9446965000148362" stroke-linecap="round" d="M 102.5173 24.9751 C 102.5173 24.9751 100.9499 25.2011 100.1635 25.2804 C 99.8507 25.3117 99.5337 25.2988 99.2192 25.308 C 98.8259 25.3195 98.4322 25.3311 98.0389 25.3426 C 97.9407 25.3455 98.0389 25.3426 98.0389 25.3426 "/>
      <path id="ID0.8195131137035787" fill="none" stroke="#000000" stroke-width="0.9446965000148362" stroke-linecap="round" d="M 101.2738 30.9184 C 101.2738 30.9184 100.6578 31.4095 100.3503 31.6543 C 100.0428 31.8991 99.7422 32.1556 99.4268 32.3902 C 98.9717 32.7291 98.5005 33.0477 98.038 33.376 C 97.9223 33.4578 98.038 33.376 98.038 33.376 "/>
      <path id="ID0.923992021009326" fill="none" stroke="#000000" stroke-width="0.9446965000148362" stroke-linecap="round" d="M 101.2176 37.0632 C 101.2176 37.0632 97.2044 37.1808 97.2044 37.1808 "/>
      <path id="ID0.6422801343724132" fill="none" stroke="#000000" stroke-width="0.9446965000148362" stroke-linecap="round" d="M 93.825 5.1055 C 93.825 5.1055 92.7173 5.249 92.1794 5.39 C 91.6982 5.5161 91.2616 5.7917 90.7768 5.9037 C 90.4703 5.9746 89.8325 5.9313 89.8325 5.9313 "/>
      <path id="ID0.7584992088377476" fill="none" stroke="#000000" stroke-width="0.9446965000148362" stroke-linecap="round" d="M 93.7342 10.07 C 93.7342 10.07 92.3481 10.5831 91.6234 10.6044 C 91.1998 10.6168 90.4292 10.1668 90.4292 10.1668 "/>
      <path id="ID0.40438934741541743" fill="none" stroke="#000000" stroke-width="0.9446965000148362" stroke-linecap="round" d="M 93.5318 19.2907 C 92.8107 18.8397 92.0682 18.4163 91.3657 17.9365 C 91.1819 17.811 90.8797 17.4782 90.8797 17.4782 "/>
      <path id="ID0.7633831659331918" fill="none" stroke="#000000" stroke-width="0.9446965000148362" stroke-linecap="round" d="M 95.2673 22.0751 C 95.2673 22.0751 93.6999 22.3011 92.9135 22.3804 C 92.6007 22.4117 92.2837 22.3988 91.9692 22.408 C 91.5759 22.4195 91.1822 22.4311 90.7889 22.4426 C 90.6907 22.4455 90.7889 22.4426 90.7889 22.4426 "/>
      <path id="ID0.8195131137035787" fill="none" stroke="#000000" stroke-width="0.9446965000148362" stroke-linecap="round" d="M 94.0238 28.0184 C 94.0238 28.0184 93.4078 28.5095 93.1003 28.7543 C 92.7928 28.9991 92.4922 29.2556 92.1768 29.4902 C 91.7217 29.8291 91.2505 30.1477 90.788 30.476 C 90.6723 30.5578 90.788 30.476 90.788 30.476 "/>
      <path id="ID0.923992021009326" fill="none" stroke="#000000" stroke-width="0.9446965000148362" stroke-linecap="round" d="M 93.9676 34.1632 C 93.9676 34.1632 89.9544 34.2808 89.9544 34.2808 "/>
      <path id="ID0.6422801343724132" fill="none" stroke="#000000" stroke-width="0.9446965000148362" stroke-linecap="round" d="M 87.025 4.7055 C 87.025 4.7055 85.9173 4.849 85.3794 4.99 C 84.8982 5.1161 84.4616 5.3917 83.9768 5.5037 C 83.6703 5.5746 83.0325 5.5313 83.0325 5.5313 "/>
      <path id="ID0.7584992088377476" fill="none" stroke="#000000" stroke-width="0.9446965000148362" stroke-linecap="round" d="M 86.9342 9.67 C 86.9342 9.67 85.5481 10.1831 84.8234 10.2044 C 84.3998 10.2168 83.6292 9.7668 83.6292 9.7668 "/>
      <path id="ID0.40438934741541743" fill="none" stroke="#000000" stroke-width="0.9446965000148362" stroke-linecap="round" d="M 86.7318 18.8907 C 86.0107 18.4397 85.2682 18.0163 84.5657 17.5365 C 84.3819 17.411 84.0797 17.0782 84.0797 17.0782 "/>
      <path id="ID0.7633831659331918" fill="none" stroke="#000000" stroke-width="0.9446965000148362" stroke-linecap="round" d="M 88.4673 21.6751 C 88.4673 21.6751 86.8999 21.9011 86.1135 21.9804 C 85.8007 22.0117 85.4837 21.9988 85.1692 22.008 C 84.7759 22.0195 84.3822 22.0311 83.9889 22.0426 C 83.8907 22.0455 83.9889 22.0426 83.9889 22.0426 "/>
      <path id="ID0.8195131137035787" fill="none" stroke="#000000" stroke-width="0.9446965000148362" stroke-linecap="round" d="M 87.2238 27.6184 C 87.2238 27.6184 86.6078 28.1095 86.3003 28.3543 C 85.9928 28.5991 85.6922 28.8556 85.3768 29.0902 C 84.9217 29.4291 84.4505 29.7477 83.988 30.076 C 83.8723 30.1578 83.988 30.076 83.988 30.076 "/>
      <path id="ID0.923992021009326" fill="none" stroke="#000000" stroke-width="0.9446965000148362" stroke-linecap="round" d="M 87.1676 33.7632 C 87.1676 33.7632 83.1544 33.8808 83.1544 33.8808 "/>
      <path id="ID0.6422801343724132" fill="none" stroke="#000000" stroke-width="0.9446965000148362" stroke-linecap="round" d="M 80.475 8.7055 C 80.475 8.7055 79.3673 8.849 78.8294 8.99 C 78.3482 9.1161 77.9116 9.3917 77.4268 9.5037 C 77.1203 9.5746 76.4825 9.5313 76.4825 9.5313 "/>
      <path id="ID0.7584992088377476" fill="none" stroke="#000000" stroke-width="0.9446965000148362" stroke-linecap="round" d="M 80.3842 13.67 C 80.3842 13.67 78.9981 14.1831 78.2734 14.2044 C 77.8498 14.2168 77.0792 13.7668 77.0792 13.7668 "/>
      <path id="ID0.40438934741541743" fill="none" stroke="#000000" stroke-width="0.9446965000148362" stroke-linecap="round" d="M 80.1818 22.8907 C 79.4607 22.4397 78.7182 22.0163 78.0157 21.5365 C 77.8319 21.411 77.5297 21.0782 77.5297 21.0782 "/>
      <path id="ID0.7633831659331918" fill="none" stroke="#000000" stroke-width="0.9446965000148362" stroke-linecap="round" d="M 81.9173 25.6751 C 81.9173 25.6751 80.3499 25.9011 79.5635 25.9804 C 79.2507 26.0117 78.9337 25.9988 78.6192 26.008 C 78.2259 26.0195 77.8322 26.0311 77.4389 26.0426 C 77.3407 26.0455 77.4389 26.0426 77.4389 26.0426 "/>
      <path id="ID0.8195131137035787" fill="none" stroke="#000000" stroke-width="0.9446965000148362" stroke-linecap="round" d="M 80.6738 31.6184 C 80.6738 31.6184 80.0578 32.1095 79.7503 32.3543 C 79.4428 32.5991 79.1422 32.8556 78.8268 33.0902 C 78.3717 33.4291 77.9005 33.7477 77.438 34.076 C 77.3223 34.1578 77.438 34.076 77.438 34.076 "/>
      <path id="ID0.6422801343724132" fill="none" stroke="#000000" stroke-width="0.9446965000148362" stroke-linecap="round" d="M 74.725 6.7055 C 74.725 6.7055 73.6173 6.849 73.0794 6.99 C 72.5982 7.1161 72.1616 7.3917 71.6768 7.5037 C 71.3703 7.5746 70.7325 7.5313 70.7325 7.5313 "/>
      <path id="ID0.7584992088377476" fill="none" stroke="#000000" stroke-width="0.9446965000148362" stroke-linecap="round" d="M 74.6342 11.67 C 74.6342 11.67 73.2481 12.1831 72.5234 12.2044 C 72.0998 12.2168 71.3292 11.7668 71.3292 11.7668 "/>
      <path id="ID0.40438934741541743" fill="none" stroke="#000000" stroke-width="0.9446965000148362" stroke-linecap="round" d="M 74.4318 20.8907 C 73.7107 20.4397 72.9682 20.0163 72.2657 19.5365 C 72.0819 19.411 71.7797 19.0782 71.7797 19.0782 "/>
      <path id="ID0.7633831659331918" fill="none" stroke="#000000" stroke-width="0.9446965000148362" stroke-linecap="round" d="M 76.1673 23.6751 C 76.1673 23.6751 74.5999 23.9011 73.8135 23.9804 C 73.5007 24.0117 73.1837 23.9988 72.8692 24.008 C 72.4759 24.0195 72.0822 24.0311 71.6889 24.0426 C 71.5907 24.0455 71.6889 24.0426 71.6889 24.0426 "/>
      <path id="ID0.8195131137035787" fill="none" stroke="#000000" stroke-width="0.9446965000148362" stroke-linecap="round" d="M 74.9238 29.6184 C 74.9238 29.6184 74.3078 30.1095 74.0003 30.3543 C 73.6928 30.5991 73.3922 30.8556 73.0768 31.0902 C 72.6217 31.4291 72.1505 31.7477 71.688 32.076 C 71.5723 32.1578 71.688 32.076 71.688 32.076 "/>
      <path id="ID0.923992021009326" fill="none" stroke="#000000" stroke-width="0.9446965000148362" stroke-linecap="round" d="M 74.8676 35.7632 C 74.8676 35.7632 70.8544 35.8808 70.8544 35.8808 "/>
      <path id="ID0.6422801343724132" fill="none" stroke="#000000" stroke-width="0.9446965000148362" stroke-linecap="round" d="M 67.625 11.7555 C 67.625 11.7555 66.5173 11.899 65.9794 12.04 C 65.4982 12.1661 65.0616 12.4417 64.5768 12.5537 C 64.2703 12.6246 63.6325 12.5813 63.6325 12.5813 "/>
      <path id="ID0.7584992088377476" fill="none" stroke="#000000" stroke-width="0.9446965000148362" stroke-linecap="round" d="M 67.5342 16.72 C 67.5342 16.72 66.1481 17.2331 65.4234 17.2544 C 64.9998 17.2668 64.2292 16.8168 64.2292 16.8168 "/>
      <path id="ID0.40438934741541743" fill="none" stroke="#000000" stroke-width="0.9446965000148362" stroke-linecap="round" d="M 67.3318 25.9407 C 66.6107 25.4897 65.8682 25.0663 65.1657 24.5865 C 64.9819 24.461 64.6797 24.1282 64.6797 24.1282 "/>
      <path id="ID0.7633831659331918" fill="none" stroke="#000000" stroke-width="0.9446965000148362" stroke-linecap="round" d="M 69.0673 28.7251 C 69.0673 28.7251 67.4999 28.9511 66.7135 29.0304 C 66.4007 29.0617 66.0837 29.0488 65.7692 29.058 C 65.3759 29.0695 64.9822 29.0811 64.5889 29.0926 C 64.4907 29.0955 64.5889 29.0926 64.5889 29.0926 "/>
      <path id="ID0.8195131137035787" fill="none" stroke="#000000" stroke-width="0.9446965000148362" stroke-linecap="round" d="M 67.8238 34.6684 C 67.8238 34.6684 67.2078 35.1595 66.9003 35.4043 C 66.5928 35.6491 66.2922 35.9056 65.9768 36.1402 C 65.5217 36.4791 65.0505 36.7977 64.588 37.126 C 64.4723 37.2078 64.588 37.126 64.588 37.126 "/>
      <path id="ID0.923992021009326" fill="none" stroke="#000000" stroke-width="0.9446965000148362" stroke-linecap="round" d="M 67.7676 40.8132 C 67.7676 40.8132 63.7544 40.9308 63.7544 40.9308 "/>
      <path id="ID0.6422801343724132" fill="none" stroke="#000000" stroke-width="0.9446965000148362" stroke-linecap="round" d="M 60.625 15.2555 C 60.625 15.2555 59.5173 15.399 58.9794 15.54 C 58.4982 15.6661 58.0616 15.9417 57.5768 16.0537 C 57.2703 16.1246 56.6325 16.0813 56.6325 16.0813 "/>
      <path id="ID0.7584992088377476" fill="none" stroke="#000000" stroke-width="0.9446965000148362" stroke-linecap="round" d="M 60.5342 20.22 C 60.5342 20.22 59.1481 20.7331 58.4234 20.7544 C 57.9998 20.7668 57.2292 20.3168 57.2292 20.3168 "/>
      <path id="ID0.40438934741541743" fill="none" stroke="#000000" stroke-width="0.9446965000148362" stroke-linecap="round" d="M 60.3318 29.4407 C 59.6107 28.9897 58.8682 28.5663 58.1657 28.0865 C 57.9819 27.961 57.6797 27.6282 57.6797 27.6282 "/>
      <path id="ID0.7633831659331918" fill="none" stroke="#000000" stroke-width="0.9446965000148362" stroke-linecap="round" d="M 62.0673 32.2251 C 62.0673 32.2251 60.4999 32.4511 59.7135 32.5304 C 59.4007 32.5617 59.0837 32.5488 58.7692 32.558 C 58.3759 32.5695 57.9822 32.5811 57.5889 32.5926 C 57.4907 32.5955 57.5889 32.5926 57.5889 32.5926 "/>
      <path id="ID0.8195131137035787" fill="none" stroke="#000000" stroke-width="0.9446965000148362" stroke-linecap="round" d="M 60.8238 38.1684 C 60.8238 38.1684 60.2078 38.6595 59.9003 38.9043 C 59.5928 39.1491 59.2922 39.4056 58.9768 39.6402 C 58.5217 39.9791 58.0505 40.2977 57.588 40.626 C 57.4723 40.7078 57.588 40.626 57.588 40.626 "/>
      <path id="ID0.923992021009326" fill="none" stroke="#000000" stroke-width="0.9446965000148362" stroke-linecap="round" d="M 60.7676 44.3132 C 60.7676 44.3132 56.7544 44.4308 56.7544 44.4308 "/>
      <path id="ID0.6422801343724132" fill="none" stroke="#000000" stroke-width="0.9446965000148362" stroke-linecap="round" d="M 52.425 20.2055 C 52.425 20.2055 51.3173 20.349 50.7794 20.49 C 50.2982 20.6161 49.8616 20.8917 49.3768 21.0037 C 49.0703 21.0746 48.4325 21.0313 48.4325 21.0313 "/>
      <path id="ID0.7584992088377476" fill="none" stroke="#000000" stroke-width="0.9446965000148362" stroke-linecap="round" d="M 52.3342 25.17 C 52.3342 25.17 50.9481 25.6831 50.2234 25.7044 C 49.7998 25.7168 49.0292 25.2668 49.0292 25.2668 "/>
      <path id="ID0.40438934741541743" fill="none" stroke="#000000" stroke-width="0.9446965000148362" stroke-linecap="round" d="M 52.1318 34.3907 C 51.4107 33.9397 50.6682 33.5163 49.9657 33.0365 C 49.7819 32.911 49.4797 32.5782 49.4797 32.5782 "/>
      <path id="ID0.7633831659331918" fill="none" stroke="#000000" stroke-width="0.9446965000148362" stroke-linecap="round" d="M 53.8673 37.1751 C 53.8673 37.1751 52.2999 37.4011 51.5135 37.4804 C 51.2007 37.5117 50.8837 37.4988 50.5692 37.508 C 50.1759 37.5195 49.7822 37.5311 49.3889 37.5426 C 49.2907 37.5455 49.3889 37.5426 49.3889 37.5426 "/>
      <path id="ID0.8195131137035787" fill="none" stroke="#000000" stroke-width="0.9446965000148362" stroke-linecap="round" d="M 52.6238 43.1184 C 52.6238 43.1184 52.0078 43.6095 51.7003 43.8543 C 51.3928 44.0991 51.0922 44.3556 50.7768 44.5902 C 50.3217 44.9291 49.8505 45.2477 49.388 45.576 C 49.2723 45.6578 49.388 45.576 49.388 45.576 "/>
      <path id="ID0.6422801343724132" fill="none" stroke="#000000" stroke-width="0.9446965000148362" stroke-linecap="round" d="M 46.075 21.7055 C 46.075 21.7055 44.9673 21.849 44.4294 21.99 C 43.9482 22.1161 43.5116 22.3917 43.0268 22.5037 C 42.7203 22.5746 42.0825 22.5313 42.0825 22.5313 "/>
      <path id="ID0.7584992088377476" fill="none" stroke="#000000" stroke-width="0.9446965000148362" stroke-linecap="round" d="M 45.9842 26.67 C 45.9842 26.67 44.5981 27.1831 43.8734 27.2044 C 43.4498 27.2168 42.6792 26.7668 42.6792 26.7668 "/>
      <path id="ID0.40438934741541743" fill="none" stroke="#000000" stroke-width="0.9446965000148362" stroke-linecap="round" d="M 45.7818 35.8907 C 45.0607 35.4397 44.3182 35.0163 43.6157 34.5365 C 43.4319 34.411 43.1297 34.0782 43.1297 34.0782 "/>
      <path id="ID0.7633831659331918" fill="none" stroke="#000000" stroke-width="0.9446965000148362" stroke-linecap="round" d="M 47.5173 38.6751 C 47.5173 38.6751 45.9499 38.9011 45.1635 38.9804 C 44.8507 39.0117 44.5337 38.9988 44.2192 39.008 C 43.8259 39.0195 43.4322 39.0311 43.0389 39.0426 C 42.9407 39.0455 43.0389 39.0426 43.0389 39.0426 "/>
      <path id="ID0.8195131137035787" fill="none" stroke="#000000" stroke-width="0.9446965000148362" stroke-linecap="round" d="M 46.2738 44.6184 C 46.2738 44.6184 45.6578 45.1095 45.3503 45.3543 C 45.0428 45.5991 44.7422 45.8556 44.4268 46.0902 C 43.9717 46.4291 43.5005 46.7477 43.038 47.076 C 42.9223 47.1578 43.038 47.076 43.038 47.076 "/>
      <path id="ID0.923992021009326" fill="none" stroke="#000000" stroke-width="0.9446965000148362" stroke-linecap="round" d="M 46.2176 50.7632 C 46.2176 50.7632 42.2044 50.8808 42.2044 50.8808 "/>
      <path id="ID0.6422801343724132" fill="none" stroke="#000000" stroke-width="0.9446965000148362" stroke-linecap="round" d="M 40.375 28.8555 C 40.375 28.8555 39.2673 28.999 38.7294 29.14 C 38.2482 29.2661 37.8116 29.5417 37.3268 29.6537 C 37.0203 29.7246 36.3825 29.6813 36.3825 29.6813 "/>
      <path id="ID0.7584992088377476" fill="none" stroke="#000000" stroke-width="0.9446965000148362" stroke-linecap="round" d="M 40.2842 33.82 C 40.2842 33.82 38.8981 34.3331 38.1734 34.3544 C 37.7498 34.3668 36.9792 33.9168 36.9792 33.9168 "/>
      <path id="ID0.40438934741541743" fill="none" stroke="#000000" stroke-width="0.9446965000148362" stroke-linecap="round" d="M 40.0818 43.0407 C 39.3607 42.5897 38.6182 42.1663 37.9157 41.6865 C 37.7319 41.561 37.4297 41.2282 37.4297 41.2282 "/>
      <path id="ID0.7633831659331918" fill="none" stroke="#000000" stroke-width="0.9446965000148362" stroke-linecap="round" d="M 41.8173 45.8251 C 41.8173 45.8251 40.2499 46.0511 39.4635 46.1304 C 39.1507 46.1617 38.8337 46.1488 38.5192 46.158 C 38.1259 46.1695 37.7322 46.1811 37.3389 46.1926 C 37.2407 46.1955 37.3389 46.1926 37.3389 46.1926 "/>
      <path id="ID0.8195131137035787" fill="none" stroke="#000000" stroke-width="0.9446965000148362" stroke-linecap="round" d="M 40.5738 51.7684 C 40.5738 51.7684 39.9578 52.2595 39.6503 52.5043 C 39.3428 52.7491 39.0422 53.0056 38.7268 53.2402 C 38.2717 53.5791 37.8005 53.8977 37.338 54.226 C 37.2223 54.3078 37.338 54.226 37.338 54.226 "/>
      <path id="ID0.923992021009326" fill="none" stroke="#000000" stroke-width="0.9446965000148362" stroke-linecap="round" d="M 40.5176 57.9132 C 40.5176 57.9132 36.5044 58.0308 36.5044 58.0308 "/>
      <path id="ID0.6422801343724132" fill="none" stroke="#000000" stroke-width="0.9446965000148362" stroke-linecap="round" d="M 122.225 51.6055 C 122.225 51.6055 121.1173 51.749 120.5794 51.89 C 120.0982 52.0161 119.6616 52.2917 119.1768 52.4037 C 118.8703 52.4746 118.2325 52.4313 118.2325 52.4313 "/>
      <path id="ID0.7584992088377476" fill="none" stroke="#000000" stroke-width="0.9446965000148362" stroke-linecap="round" d="M 122.1342 56.57 C 122.1342 56.57 120.7481 57.0831 120.0234 57.1044 C 119.5998 57.1168 118.8292 56.6668 118.8292 56.6668 "/>
      <path id="ID0.40438934741541743" fill="none" stroke="#000000" stroke-width="0.9446965000148362" stroke-linecap="round" d="M 121.9318 65.7907 C 121.2107 65.3397 120.4682 64.9163 119.7657 64.4365 C 119.5819 64.311 119.2797 63.9782 119.2797 63.9782 "/>
      <path id="ID0.7633831659331918" fill="none" stroke="#000000" stroke-width="0.9446965000148362" stroke-linecap="round" d="M 123.6673 68.5751 C 123.6673 68.5751 122.0999 68.8011 121.3135 68.8804 C 121.0007 68.9117 120.6837 68.8988 120.3692 68.908 C 119.9759 68.9195 119.5822 68.9311 119.1889 68.9426 C 119.0907 68.9455 119.1889 68.9426 119.1889 68.9426 "/>
      <path id="ID0.8195131137035787" fill="none" stroke="#000000" stroke-width="0.9446965000148362" stroke-linecap="round" d="M 122.4238 74.5184 C 122.4238 74.5184 121.8078 75.0095 121.5003 75.2543 C 121.1928 75.4991 120.8922 75.7556 120.5768 75.9902 C 120.1217 76.3291 119.6505 76.6477 119.188 76.976 C 119.0723 77.0578 119.188 76.976 119.188 76.976 "/>
      <path id="ID0.923992021009326" fill="none" stroke="#000000" stroke-width="0.9446965000148362" stroke-linecap="round" d="M 122.3676 80.6632 C 122.3676 80.6632 118.3544 80.7808 118.3544 80.7808 "/>
      <path id="ID0.6422801343724132" fill="none" stroke="#000000" stroke-width="0.9446965000148362" stroke-linecap="round" d="M 116.125 62.3555 C 116.125 62.3555 115.0173 62.499 114.4794 62.64 C 113.9982 62.7661 113.5616 63.0417 113.0768 63.1537 C 112.7703 63.2246 112.1325 63.1813 112.1325 63.1813 "/>
      <path id="ID0.7584992088377476" fill="none" stroke="#000000" stroke-width="0.9446965000148362" stroke-linecap="round" d="M 116.0342 67.32 C 116.0342 67.32 114.6481 67.8331 113.9234 67.8544 C 113.4998 67.8668 112.7292 67.4168 112.7292 67.4168 "/>
      <path id="ID0.40438934741541743" fill="none" stroke="#000000" stroke-width="0.9446965000148362" stroke-linecap="round" d="M 115.8318 76.5407 C 115.1107 76.0897 114.3682 75.6663 113.6657 75.1865 C 113.4819 75.061 113.1797 74.7282 113.1797 74.7282 "/>
      <path id="ID0.7633831659331918" fill="none" stroke="#000000" stroke-width="0.9446965000148362" stroke-linecap="round" d="M 117.5673 79.3251 C 117.5673 79.3251 115.9999 79.5511 115.2135 79.6304 C 114.9007 79.6617 114.5837 79.6488 114.2692 79.658 C 113.8759 79.6695 113.4822 79.6811 113.0889 79.6926 C 112.9907 79.6955 113.0889 79.6926 113.0889 79.6926 "/>
      <path id="ID0.8195131137035787" fill="none" stroke="#000000" stroke-width="0.9446965000148362" stroke-linecap="round" d="M 116.3238 85.2684 C 116.3238 85.2684 115.7078 85.7595 115.4003 86.0043 C 115.0928 86.2491 114.7922 86.5056 114.4768 86.7402 C 114.0217 87.0791 113.5505 87.3977 113.088 87.726 C 112.9723 87.8078 113.088 87.726 113.088 87.726 "/>
      <path id="ID0.923992021009326" fill="none" stroke="#000000" stroke-width="0.9446965000148362" stroke-linecap="round" d="M 116.2676 91.4132 C 116.2676 91.4132 112.2544 91.5308 112.2544 91.5308 "/>
      <path id="ID0.7584992088377476" fill="none" stroke="#000000" stroke-width="0.9446965000148362" stroke-linecap="round" d="M 109.5842 66.32 C 109.5842 66.32 108.1981 66.8331 107.4734 66.8544 C 107.0498 66.8668 106.2792 66.4168 106.2792 66.4168 "/>
      <path id="ID0.40438934741541743" fill="none" stroke="#000000" stroke-width="0.9446965000148362" stroke-linecap="round" d="M 109.3818 75.5407 C 108.6607 75.0897 107.9182 74.6663 107.2157 74.1865 C 107.0319 74.061 106.7297 73.7282 106.7297 73.7282 "/>
      <path id="ID0.7633831659331918" fill="none" stroke="#000000" stroke-width="0.9446965000148362" stroke-linecap="round" d="M 111.1173 78.3251 C 111.1173 78.3251 109.5499 78.5511 108.7635 78.6304 C 108.4507 78.6617 108.1337 78.6488 107.8192 78.658 C 107.4259 78.6695 107.0322 78.6811 106.6389 78.6926 C 106.5407 78.6955 106.6389 78.6926 106.6389 78.6926 "/>
      <path id="ID0.8195131137035787" fill="none" stroke="#000000" stroke-width="0.9446965000148362" stroke-linecap="round" d="M 109.8738 84.2684 C 109.8738 84.2684 109.2578 84.7595 108.9503 85.0043 C 108.6428 85.2491 108.3422 85.5056 108.0268 85.7402 C 107.5717 86.0791 107.1005 86.3977 106.638 86.726 C 106.5223 86.8078 106.638 86.726 106.638 86.726 "/>
      <path id="ID0.923992021009326" fill="none" stroke="#000000" stroke-width="0.9446965000148362" stroke-linecap="round" d="M 109.8176 90.4132 C 109.8176 90.4132 105.8044 90.5308 105.8044 90.5308 "/>
      <path id="ID0.6422801343724132" fill="none" stroke="#000000" stroke-width="0.9446965000148362" stroke-linecap="round" d="M 102.375 64.8555 C 102.375 64.8555 101.2673 64.999 100.7294 65.14 C 100.2482 65.2661 99.8116 65.5417 99.3268 65.6537 C 99.0203 65.7246 98.3825 65.6813 98.3825 65.6813 "/>
      <path id="ID0.7584992088377476" fill="none" stroke="#000000" stroke-width="0.9446965000148362" stroke-linecap="round" d="M 102.2842 69.82 C 102.2842 69.82 100.8981 70.3331 100.1734 70.3544 C 99.7498 70.3668 98.9792 69.9168 98.9792 69.9168 "/>
      <path id="ID0.40438934741541743" fill="none" stroke="#000000" stroke-width="0.9446965000148362" stroke-linecap="round" d="M 102.0818 79.0407 C 101.3607 78.5897 100.6182 78.1663 99.9157 77.6865 C 99.7319 77.561 99.4297 77.2282 99.4297 77.2282 "/>
      <path id="ID0.7633831659331918" fill="none" stroke="#000000" stroke-width="0.9446965000148362" stroke-linecap="round" d="M 103.8173 81.8251 C 103.8173 81.8251 102.2499 82.0511 101.4635 82.1304 C 101.1507 82.1617 100.8337 82.1488 100.5192 82.158 C 100.1259 82.1695 99.7322 82.1811 99.3389 82.1926 C 99.2407 82.1955 99.3389 82.1926 99.3389 82.1926 "/>
      <path id="ID0.8195131137035787" fill="none" stroke="#000000" stroke-width="0.9446965000148362" stroke-linecap="round" d="M 102.5738 87.7684 C 102.5738 87.7684 101.9578 88.2595 101.6503 88.5043 C 101.3428 88.7491 101.0422 89.0056 100.7268 89.2402 C 100.2717 89.5791 99.8005 89.8977 99.338 90.226 C 99.2223 90.3078 99.338 90.226 99.338 90.226 "/>
      <path id="ID0.923992021009326" fill="none" stroke="#000000" stroke-width="0.9446965000148362" stroke-linecap="round" d="M 102.5176 93.9132 C 102.5176 93.9132 98.5044 94.0308 98.5044 94.0308 "/>
      <path id="ID0.6422801343724132" fill="none" stroke="#000000" stroke-width="0.9446965000148362" stroke-linecap="round" d="M 95.325 66.3555 C 95.325 66.3555 94.2173 66.499 93.6794 66.64 C 93.1982 66.7661 92.7616 67.0417 92.2768 67.1537 C 91.9703 67.2246 91.3325 67.1813 91.3325 67.1813 "/>
      <path id="ID0.7584992088377476" fill="none" stroke="#000000" stroke-width="0.9446965000148362" stroke-linecap="round" d="M 95.2342 71.32 C 95.2342 71.32 93.8481 71.8331 93.1234 71.8544 C 92.6998 71.8668 91.9292 71.4168 91.9292 71.4168 "/>
      <path id="ID0.40438934741541743" fill="none" stroke="#000000" stroke-width="0.9446965000148362" stroke-linecap="round" d="M 95.0318 80.5407 C 94.3107 80.0897 93.5682 79.6663 92.8657 79.1865 C 92.6819 79.061 92.3797 78.7282 92.3797 78.7282 "/>
      <path id="ID0.7633831659331918" fill="none" stroke="#000000" stroke-width="0.9446965000148362" stroke-linecap="round" d="M 96.7673 83.3251 C 96.7673 83.3251 95.1999 83.5511 94.4135 83.6304 C 94.1007 83.6617 93.7837 83.6488 93.4692 83.658 C 93.0759 83.6695 92.6822 83.6811 92.2889 83.6926 C 92.1907 83.6955 92.2889 83.6926 92.2889 83.6926 "/>
      <path id="ID0.8195131137035787" fill="none" stroke="#000000" stroke-width="0.9446965000148362" stroke-linecap="round" d="M 95.5238 89.2684 C 95.5238 89.2684 94.9078 89.7595 94.6003 90.0043 C 94.2928 90.2491 93.9922 90.5056 93.6768 90.7402 C 93.2217 91.0791 92.7505 91.3977 92.288 91.726 C 92.1723 91.8078 92.288 91.726 92.288 91.726 "/>
      <path id="ID0.923992021009326" fill="none" stroke="#000000" stroke-width="0.9446965000148362" stroke-linecap="round" d="M 95.4676 95.4132 C 95.4676 95.4132 91.4544 95.5308 91.4544 95.5308 "/>
      <path id="ID0.6422801343724132" fill="none" stroke="#000000" stroke-width="0.9446965000148362" stroke-linecap="round" d="M 82.425 71.6055 C 82.425 71.6055 81.3173 71.749 80.7794 71.89 C 80.2982 72.0161 79.8616 72.2917 79.3768 72.4037 C 79.0703 72.4746 78.4325 72.4313 78.4325 72.4313 "/>
      <path id="ID0.7584992088377476" fill="none" stroke="#000000" stroke-width="0.9446965000148362" stroke-linecap="round" d="M 82.3342 76.57 C 82.3342 76.57 80.9481 77.0831 80.2234 77.1044 C 79.7998 77.1168 79.0292 76.6668 79.0292 76.6668 "/>
      <path id="ID0.40438934741541743" fill="none" stroke="#000000" stroke-width="0.9446965000148362" stroke-linecap="round" d="M 82.1318 85.7907 C 81.4107 85.3397 80.6682 84.9163 79.9657 84.4365 C 79.7819 84.311 79.4797 83.9782 79.4797 83.9782 "/>
      <path id="ID0.7633831659331918" fill="none" stroke="#000000" stroke-width="0.9446965000148362" stroke-linecap="round" d="M 83.8673 88.5751 C 83.8673 88.5751 82.2999 88.8011 81.5135 88.8804 C 81.2007 88.9117 80.8837 88.8988 80.5692 88.908 C 80.1759 88.9195 79.7822 88.9311 79.3889 88.9426 C 79.2907 88.9455 79.3889 88.9426 79.3889 88.9426 "/>
      <path id="ID0.8195131137035787" fill="none" stroke="#000000" stroke-width="0.9446965000148362" stroke-linecap="round" d="M 82.6238 94.5184 C 82.6238 94.5184 82.0078 95.0095 81.7003 95.2543 C 81.3928 95.4991 81.0922 95.7556 80.7768 95.9902 C 80.3217 96.3291 79.8505 96.6477 79.388 96.976 C 79.2723 97.0578 79.388 96.976 79.388 96.976 "/>
      <path id="ID0.923992021009326" fill="none" stroke="#000000" stroke-width="0.9446965000148362" stroke-linecap="round" d="M 82.5676 100.6632 C 82.5676 100.6632 78.5544 100.7808 78.5544 100.7808 "/>
      <path id="ID0.7584992088377476" fill="none" stroke="#000000" stroke-width="0.9446965000148362" stroke-linecap="round" d="M 88.5342 69.57 C 88.5342 69.57 87.1481 70.0831 86.4234 70.1044 C 85.9998 70.1168 85.2292 69.6668 85.2292 69.6668 "/>
      <path id="ID0.40438934741541743" fill="none" stroke="#000000" stroke-width="0.9446965000148362" stroke-linecap="round" d="M 88.3318 78.7907 C 87.6107 78.3397 86.8682 77.9163 86.1657 77.4365 C 85.9819 77.311 85.6797 76.9782 85.6797 76.9782 "/>
      <path id="ID0.7633831659331918" fill="none" stroke="#000000" stroke-width="0.9446965000148362" stroke-linecap="round" d="M 90.0673 81.5751 C 90.0673 81.5751 88.4999 81.8011 87.7135 81.8804 C 87.4007 81.9117 87.0837 81.8988 86.7692 81.908 C 86.3759 81.9195 85.9822 81.9311 85.5889 81.9426 C 85.4907 81.9455 85.5889 81.9426 85.5889 81.9426 "/>
      <path id="ID0.8195131137035787" fill="none" stroke="#000000" stroke-width="0.9446965000148362" stroke-linecap="round" d="M 88.8238 87.5184 C 88.8238 87.5184 88.2078 88.0095 87.9003 88.2543 C 87.5928 88.4991 87.2922 88.7556 86.9768 88.9902 C 86.5217 89.3291 86.0505 89.6477 85.588 89.976 C 85.4723 90.0578 85.588 89.976 85.588 89.976 "/>
      <path id="ID0.923992021009326" fill="none" stroke="#000000" stroke-width="0.9446965000148362" stroke-linecap="round" d="M 88.7676 93.6632 C 88.7676 93.6632 84.7544 93.7808 84.7544 93.7808 "/>
      <path id="ID0.7584992088377476" fill="none" stroke="#000000" stroke-width="0.9446965000148362" stroke-linecap="round" d="M 76.2342 71.32 C 76.2342 71.32 74.8481 71.8331 74.1234 71.8544 C 73.6998 71.8668 72.9292 71.4168 72.9292 71.4168 "/>
      <path id="ID0.40438934741541743" fill="none" stroke="#000000" stroke-width="0.9446965000148362" stroke-linecap="round" d="M 76.0318 80.5407 C 75.3107 80.0897 74.5682 79.6663 73.8657 79.1865 C 73.6819 79.061 73.3797 78.7282 73.3797 78.7282 "/>
      <path id="ID0.7633831659331918" fill="none" stroke="#000000" stroke-width="0.9446965000148362" stroke-linecap="round" d="M 77.7673 83.3251 C 77.7673 83.3251 76.1999 83.5511 75.4135 83.6304 C 75.1007 83.6617 74.7837 83.6488 74.4692 83.658 C 74.0759 83.6695 73.6822 83.6811 73.2889 83.6926 C 73.1907 83.6955 73.2889 83.6926 73.2889 83.6926 "/>
      <path id="ID0.8195131137035787" fill="none" stroke="#000000" stroke-width="0.9446965000148362" stroke-linecap="round" d="M 76.5238 89.2684 C 76.5238 89.2684 75.9078 89.7595 75.6003 90.0043 C 75.2928 90.2491 74.9922 90.5056 74.6768 90.7402 C 74.2217 91.0791 73.7505 91.3977 73.288 91.726 C 73.1723 91.8078 73.288 91.726 73.288 91.726 "/>
      <path id="ID0.923992021009326" fill="none" stroke="#000000" stroke-width="0.9446965000148362" stroke-linecap="round" d="M 76.4676 95.4132 C 76.4676 95.4132 72.4544 95.5308 72.4544 95.5308 "/>
      <path id="ID0.6422801343724132" fill="none" stroke="#000000" stroke-width="0.9446965000148362" stroke-linecap="round" d="M 68.575 65.1055 C 68.575 65.1055 67.4673 65.249 66.9294 65.39 C 66.4482 65.5161 66.0116 65.7917 65.5268 65.9037 C 65.2203 65.9746 64.5825 65.9313 64.5825 65.9313 "/>
      <path id="ID0.7584992088377476" fill="none" stroke="#000000" stroke-width="0.9446965000148362" stroke-linecap="round" d="M 68.4842 70.07 C 68.4842 70.07 67.0981 70.5831 66.3734 70.6044 C 65.9498 70.6168 65.1792 70.1668 65.1792 70.1668 "/>
      <path id="ID0.40438934741541743" fill="none" stroke="#000000" stroke-width="0.9446965000148362" stroke-linecap="round" d="M 68.2818 79.2907 C 67.5607 78.8397 66.8182 78.4163 66.1157 77.9365 C 65.9319 77.811 65.6297 77.4782 65.6297 77.4782 "/>
      <path id="ID0.7633831659331918" fill="none" stroke="#000000" stroke-width="0.9446965000148362" stroke-linecap="round" d="M 70.0173 82.0751 C 70.0173 82.0751 68.4499 82.3011 67.6635 82.3804 C 67.3507 82.4117 67.0337 82.3988 66.7192 82.408 C 66.3259 82.4195 65.9322 82.4311 65.5389 82.4426 C 65.4407 82.4455 65.5389 82.4426 65.5389 82.4426 "/>
      <path id="ID0.8195131137035787" fill="none" stroke="#000000" stroke-width="0.9446965000148362" stroke-linecap="round" d="M 68.7738 88.0184 C 68.7738 88.0184 68.1578 88.5095 67.8503 88.7543 C 67.5428 88.9991 67.2422 89.2556 66.9268 89.4902 C 66.4717 89.8291 66.0005 90.1477 65.538 90.476 C 65.4223 90.5578 65.538 90.476 65.538 90.476 "/>
      <path id="ID0.923992021009326" fill="none" stroke="#000000" stroke-width="0.9446965000148362" stroke-linecap="round" d="M 68.7176 94.1632 C 68.7176 94.1632 64.7044 94.2808 64.7044 94.2808 "/>
      <path id="ID0.7584992088377476" fill="none" stroke="#000000" stroke-width="0.9446965000148362" stroke-linecap="round" d="M 61.5842 69.32 C 61.5842 69.32 60.1981 69.8331 59.4734 69.8544 C 59.0498 69.8668 58.2792 69.4168 58.2792 69.4168 "/>
      <path id="ID0.40438934741541743" fill="none" stroke="#000000" stroke-width="0.9446965000148362" stroke-linecap="round" d="M 61.3818 78.5407 C 60.6607 78.0897 59.9182 77.6663 59.2157 77.1865 C 59.0319 77.061 58.7297 76.7282 58.7297 76.7282 "/>
      <path id="ID0.7633831659331918" fill="none" stroke="#000000" stroke-width="0.9446965000148362" stroke-linecap="round" d="M 63.1173 81.3251 C 63.1173 81.3251 61.5499 81.5511 60.7635 81.6304 C 60.4507 81.6617 60.1337 81.6488 59.8192 81.658 C 59.4259 81.6695 59.0322 81.6811 58.6389 81.6926 C 58.5407 81.6955 58.6389 81.6926 58.6389 81.6926 "/>
      <path id="ID0.8195131137035787" fill="none" stroke="#000000" stroke-width="0.9446965000148362" stroke-linecap="round" d="M 61.8738 87.2684 C 61.8738 87.2684 61.2578 87.7595 60.9503 88.0043 C 60.6428 88.2491 60.3422 88.5056 60.0268 88.7402 C 59.5717 89.0791 59.1005 89.3977 58.638 89.726 C 58.5223 89.8078 58.638 89.726 58.638 89.726 "/>
      <path id="ID0.923992021009326" fill="none" stroke="#000000" stroke-width="0.9446965000148362" stroke-linecap="round" d="M 61.8176 93.4132 C 61.8176 93.4132 57.8044 93.5308 57.8044 93.5308 "/>
      <path id="ID0.7584992088377476" fill="none" stroke="#000000" stroke-width="0.9446965000148362" stroke-linecap="round" d="M 55.3842 66.57 C 55.3842 66.57 53.9981 67.0831 53.2734 67.1044 C 52.8498 67.1168 52.0792 66.6668 52.0792 66.6668 "/>
      <path id="ID0.40438934741541743" fill="none" stroke="#000000" stroke-width="0.9446965000148362" stroke-linecap="round" d="M 55.1818 75.7907 C 54.4607 75.3397 53.7182 74.9163 53.0157 74.4365 C 52.8319 74.311 52.5297 73.9782 52.5297 73.9782 "/>
      <path id="ID0.7633831659331918" fill="none" stroke="#000000" stroke-width="0.9446965000148362" stroke-linecap="round" d="M 56.9173 78.5751 C 56.9173 78.5751 55.3499 78.8011 54.5635 78.8804 C 54.2507 78.9117 53.9337 78.8988 53.6192 78.908 C 53.2259 78.9195 52.8322 78.9311 52.4389 78.9426 C 52.3407 78.9455 52.4389 78.9426 52.4389 78.9426 "/>
      <path id="ID0.8195131137035787" fill="none" stroke="#000000" stroke-width="0.9446965000148362" stroke-linecap="round" d="M 55.6738 84.5184 C 55.6738 84.5184 55.0578 85.0095 54.7503 85.2543 C 54.4428 85.4991 54.1422 85.7556 53.8268 85.9902 C 53.3717 86.3291 52.9005 86.6477 52.438 86.976 C 52.3223 87.0578 52.438 86.976 52.438 86.976 "/>
      <path id="ID0.923992021009326" fill="none" stroke="#000000" stroke-width="0.9446965000148362" stroke-linecap="round" d="M 55.6176 90.6632 C 55.6176 90.6632 51.6044 90.7808 51.6044 90.7808 "/>
      <path id="ID0.6422801343724132" fill="none" stroke="#000000" stroke-width="0.9446965000148362" stroke-linecap="round" d="M 48.325 57.6055 C 48.325 57.6055 47.2173 57.749 46.6794 57.89 C 46.1982 58.0161 45.7616 58.2917 45.2768 58.4037 C 44.9703 58.4746 44.3325 58.4313 44.3325 58.4313 "/>
      <path id="ID0.7584992088377476" fill="none" stroke="#000000" stroke-width="0.9446965000148362" stroke-linecap="round" d="M 48.2342 62.57 C 48.2342 62.57 46.8481 63.0831 46.1234 63.1044 C 45.6998 63.1168 44.9292 62.6668 44.9292 62.6668 "/>
      <path id="ID0.40438934741541743" fill="none" stroke="#000000" stroke-width="0.9446965000148362" stroke-linecap="round" d="M 48.0318 71.7907 C 47.3107 71.3397 46.5682 70.9163 45.8657 70.4365 C 45.6819 70.311 45.3797 69.9782 45.3797 69.9782 "/>
      <path id="ID0.7633831659331918" fill="none" stroke="#000000" stroke-width="0.9446965000148362" stroke-linecap="round" d="M 49.7673 74.5751 C 49.7673 74.5751 48.1999 74.8011 47.4135 74.8804 C 47.1007 74.9117 46.7837 74.8988 46.4692 74.908 C 46.0759 74.9195 45.6822 74.9311 45.2889 74.9426 C 45.1907 74.9455 45.2889 74.9426 45.2889 74.9426 "/>
      <path id="ID0.8195131137035787" fill="none" stroke="#000000" stroke-width="0.9446965000148362" stroke-linecap="round" d="M 48.5238 80.5184 C 48.5238 80.5184 47.9078 81.0095 47.6003 81.2543 C 47.2928 81.4991 46.9922 81.7556 46.6768 81.9902 C 46.2217 82.3291 45.7505 82.6477 45.288 82.976 C 45.1723 83.0578 45.288 82.976 45.288 82.976 "/>
      <path id="ID0.923992021009326" fill="none" stroke="#000000" stroke-width="0.9446965000148362" stroke-linecap="round" d="M 48.4676 86.6632 C 48.4676 86.6632 44.4544 86.7808 44.4544 86.7808 "/>
      <path id="ID0.6422801343724132" fill="none" stroke="#000000" stroke-width="0.9446965000148362" stroke-linecap="round" d="M 42.875 55.3555 C 42.875 55.3555 41.7673 55.499 41.2294 55.64 C 40.7482 55.7661 40.3116 56.0417 39.8268 56.1537 C 39.5203 56.2246 38.8825 56.1813 38.8825 56.1813 "/>
      <path id="ID0.7584992088377476" fill="none" stroke="#000000" stroke-width="0.9446965000148362" stroke-linecap="round" d="M 41.2342 63.07 C 41.2342 63.07 39.8481 63.5831 39.1234 63.6044 C 38.6998 63.6168 37.9292 63.1668 37.9292 63.1668 "/>
      <path id="ID0.40438934741541743" fill="none" stroke="#000000" stroke-width="0.9446965000148362" stroke-linecap="round" d="M 42.5818 69.5407 C 41.8607 69.0897 41.1182 68.6663 40.4157 68.1865 C 40.2319 68.061 39.9297 67.7282 39.9297 67.7282 "/>
      <path id="ID0.7633831659331918" fill="none" stroke="#000000" stroke-width="0.9446965000148362" stroke-linecap="round" d="M 44.3173 72.3251 C 44.3173 72.3251 42.7499 72.5511 41.9635 72.6304 C 41.6507 72.6617 41.3337 72.6488 41.0192 72.658 C 40.6259 72.6695 40.2322 72.6811 39.8389 72.6926 C 39.7407 72.6955 39.8389 72.6926 39.8389 72.6926 "/>
      <path id="ID0.8195131137035787" fill="none" stroke="#000000" stroke-width="0.9446965000148362" stroke-linecap="round" d="M 43.0738 78.2684 C 43.0738 78.2684 42.4578 78.7595 42.1503 79.0043 C 41.8428 79.2491 41.5422 79.5056 41.2268 79.7402 C 40.7717 80.0791 40.3005 80.3977 39.838 80.726 C 39.7223 80.8078 39.838 80.726 39.838 80.726 "/>
      <path id="ID0.923992021009326" fill="none" stroke="#000000" stroke-width="0.9446965000148362" stroke-linecap="round" d="M 43.0176 84.4132 C 43.0176 84.4132 39.0044 84.5308 39.0044 84.5308 "/>
      <path id="ID0.6422801343724132" fill="none" stroke="#000000" stroke-width="0.9446965000148362" stroke-linecap="round" d="M 93.925 36.0555 C 93.925 36.0555 92.8173 36.199 92.2794 36.34 C 91.7982 36.4661 91.3616 36.7417 90.8768 36.8537 C 90.5703 36.9246 89.9325 36.8813 89.9325 36.8813 "/>
      <path id="ID0.7584992088377476" fill="none" stroke="#000000" stroke-width="0.9446965000148362" stroke-linecap="round" d="M 93.8342 41.02 C 93.8342 41.02 92.4481 41.5331 91.7234 41.5544 C 91.2998 41.5668 90.5292 41.1168 90.5292 41.1168 "/>
      <path id="ID0.40438934741541743" fill="none" stroke="#000000" stroke-width="0.9446965000148362" stroke-linecap="round" d="M 93.6318 50.2407 C 92.9107 49.7897 92.1682 49.3663 91.4657 48.8865 C 91.2819 48.761 90.9797 48.4282 90.9797 48.4282 "/>
      <path id="ID0.7633831659331918" fill="none" stroke="#000000" stroke-width="0.9446965000148362" stroke-linecap="round" d="M 95.3673 53.0251 C 95.3673 53.0251 93.7999 53.2511 93.0135 53.3304 C 92.7007 53.3617 92.3837 53.3488 92.0692 53.358 C 91.6759 53.3695 91.2822 53.3811 90.8889 53.3926 C 90.7907 53.3955 90.8889 53.3926 90.8889 53.3926 "/>
      <path id="ID0.8195131137035787" fill="none" stroke="#000000" stroke-width="0.9446965000148362" stroke-linecap="round" d="M 94.1238 58.9684 C 94.1238 58.9684 93.5078 59.4595 93.2003 59.7043 C 92.8928 59.9491 92.5922 60.2056 92.2768 60.4402 C 91.8217 60.7791 91.3505 61.0977 90.888 61.426 C 90.7723 61.5078 90.888 61.426 90.888 61.426 "/>
      <path id="ID0.6422801343724132" fill="none" stroke="#000000" stroke-width="0.9446965000148362" stroke-linecap="round" d="M 86.075 36.3055 C 86.075 36.3055 84.9673 36.449 84.4294 36.59 C 83.9482 36.7161 83.5116 36.9917 83.0268 37.1037 C 82.7203 37.1746 82.0825 37.1313 82.0825 37.1313 "/>
      <path id="ID0.7584992088377476" fill="none" stroke="#000000" stroke-width="0.9446965000148362" stroke-linecap="round" d="M 85.9842 41.27 C 85.9842 41.27 84.5981 41.7831 83.8734 41.8044 C 83.4498 41.8168 82.6792 41.3668 82.6792 41.3668 "/>
      <path id="ID0.40438934741541743" fill="none" stroke="#000000" stroke-width="0.9446965000148362" stroke-linecap="round" d="M 85.7818 50.4907 C 85.0607 50.0397 84.3182 49.6163 83.6157 49.1365 C 83.4319 49.011 83.1297 48.6782 83.1297 48.6782 "/>
      <path id="ID0.7633831659331918" fill="none" stroke="#000000" stroke-width="0.9446965000148362" stroke-linecap="round" d="M 87.5173 53.2751 C 87.5173 53.2751 85.9499 53.5011 85.1635 53.5804 C 84.8507 53.6117 84.5337 53.5988 84.2192 53.608 C 83.8259 53.6195 83.4322 53.6311 83.0389 53.6426 C 82.9407 53.6455 83.0389 53.6426 83.0389 53.6426 "/>
      <path id="ID0.8195131137035787" fill="none" stroke="#000000" stroke-width="0.9446965000148362" stroke-linecap="round" d="M 86.2738 59.2184 C 86.2738 59.2184 85.6578 59.7095 85.3503 59.9543 C 85.0428 60.1991 84.7422 60.4556 84.4268 60.6902 C 83.9717 61.0291 83.5005 61.3477 83.038 61.676 C 82.9223 61.7578 83.038 61.676 83.038 61.676 "/>
      <path id="ID0.923992021009326" fill="none" stroke="#000000" stroke-width="0.9446965000148362" stroke-linecap="round" d="M 86.2176 65.3632 C 86.2176 65.3632 82.2044 65.4808 82.2044 65.4808 "/>
      <path id="ID0.6422801343724132" fill="none" stroke="#000000" stroke-width="0.9446965000148362" stroke-linecap="round" d="M 78.675 38.8555 C 78.675 38.8555 77.5673 38.999 77.0294 39.14 C 76.5482 39.2661 76.1116 39.5417 75.6268 39.6537 C 75.3203 39.7246 74.6825 39.6813 74.6825 39.6813 "/>
      <path id="ID0.7584992088377476" fill="none" stroke="#000000" stroke-width="0.9446965000148362" stroke-linecap="round" d="M 78.5842 43.82 C 78.5842 43.82 77.1981 44.3331 76.4734 44.3544 C 76.0498 44.3668 75.2792 43.9168 75.2792 43.9168 "/>
      <path id="ID0.40438934741541743" fill="none" stroke="#000000" stroke-width="0.9446965000148362" stroke-linecap="round" d="M 78.3818 53.0407 C 77.6607 52.5897 76.9182 52.1663 76.2157 51.6865 C 76.0319 51.561 75.7297 51.2282 75.7297 51.2282 "/>
      <path id="ID0.7633831659331918" fill="none" stroke="#000000" stroke-width="0.9446965000148362" stroke-linecap="round" d="M 80.1173 55.8251 C 80.1173 55.8251 78.5499 56.0511 77.7635 56.1304 C 77.4507 56.1617 77.1337 56.1488 76.8192 56.158 C 76.4259 56.1695 76.0322 56.1811 75.6389 56.1926 C 75.5407 56.1955 75.6389 56.1926 75.6389 56.1926 "/>
      <path id="ID0.8195131137035787" fill="none" stroke="#000000" stroke-width="0.9446965000148362" stroke-linecap="round" d="M 78.8738 61.7684 C 78.8738 61.7684 78.2578 62.2595 77.9503 62.5043 C 77.6428 62.7491 77.3422 63.0056 77.0268 63.2402 C 76.5717 63.5791 76.1005 63.8977 75.638 64.226 C 75.5223 64.3078 75.638 64.226 75.638 64.226 "/>
      <path id="ID0.923992021009326" fill="none" stroke="#000000" stroke-width="0.9446965000148362" stroke-linecap="round" d="M 78.8176 67.9132 C 78.8176 67.9132 74.8044 68.0308 74.8044 68.0308 "/>
      <path id="ID0.6422801343724132" fill="none" stroke="#000000" stroke-width="0.9446965000148362" stroke-linecap="round" d="M 71.975 43.1055 C 71.975 43.1055 70.8673 43.249 70.3294 43.39 C 69.8482 43.5161 69.4116 43.7917 68.9268 43.9037 C 68.6203 43.9746 67.9825 43.9313 67.9825 43.9313 "/>
      <path id="ID0.7584992088377476" fill="none" stroke="#000000" stroke-width="0.9446965000148362" stroke-linecap="round" d="M 71.8842 48.07 C 71.8842 48.07 70.4981 48.5831 69.7734 48.6044 C 69.3498 48.6168 68.5792 48.1668 68.5792 48.1668 "/>
      <path id="ID0.40438934741541743" fill="none" stroke="#000000" stroke-width="0.9446965000148362" stroke-linecap="round" d="M 71.6818 57.2907 C 70.9607 56.8397 70.2182 56.4163 69.5157 55.9365 C 69.3319 55.811 69.0297 55.4782 69.0297 55.4782 "/>
      <path id="ID0.7633831659331918" fill="none" stroke="#000000" stroke-width="0.9446965000148362" stroke-linecap="round" d="M 73.4173 60.0751 C 73.4173 60.0751 71.8499 60.3011 71.0635 60.3804 C 70.7507 60.4117 70.4337 60.3988 70.1192 60.408 C 69.7259 60.4195 69.3322 60.4311 68.9389 60.4426 C 68.8407 60.4455 68.9389 60.4426 68.9389 60.4426 "/>
      <path id="ID0.6422801343724132" fill="none" stroke="#000000" stroke-width="0.9446965000148362" stroke-linecap="round" d="M 65.325 44.7055 C 65.325 44.7055 64.2173 44.849 63.6794 44.99 C 63.1982 45.1161 62.7616 45.3917 62.2768 45.5037 C 61.9703 45.5746 61.3325 45.5313 61.3325 45.5313 "/>
      <path id="ID0.7584992088377476" fill="none" stroke="#000000" stroke-width="0.9446965000148362" stroke-linecap="round" d="M 65.2342 49.67 C 65.2342 49.67 63.8481 50.1831 63.1234 50.2044 C 62.6998 50.2168 61.9292 49.7668 61.9292 49.7668 "/>
      <path id="ID0.40438934741541743" fill="none" stroke="#000000" stroke-width="0.9446965000148362" stroke-linecap="round" d="M 65.0318 58.8907 C 64.3107 58.4397 63.5682 58.0163 62.8657 57.5365 C 62.6819 57.411 62.3797 57.0782 62.3797 57.0782 "/>
      <path id="ID0.7633831659331918" fill="none" stroke="#000000" stroke-width="0.9446965000148362" stroke-linecap="round" d="M 66.7673 61.6751 C 66.7673 61.6751 65.1999 61.9011 64.4135 61.9804 C 64.1007 62.0117 63.7837 61.9988 63.4692 62.008 C 63.0759 62.0195 62.6822 62.0311 62.2889 62.0426 C 62.1907 62.0455 62.2889 62.0426 62.2889 62.0426 "/>
      <path id="ID0.6422801343724132" fill="none" stroke="#000000" stroke-width="0.9446965000148362" stroke-linecap="round" d="M 101.575 41.4555 C 101.575 41.4555 100.4673 41.599 99.9294 41.74 C 99.4482 41.8661 99.0116 42.1417 98.5268 42.2537 C 98.2203 42.3246 97.5825 42.2813 97.5825 42.2813 "/>
      <path id="ID0.7584992088377476" fill="none" stroke="#000000" stroke-width="0.9446965000148362" stroke-linecap="round" d="M 101.4842 46.42 C 101.4842 46.42 100.0981 46.9331 99.3734 46.9544 C 98.9498 46.9668 98.1792 46.5168 98.1792 46.5168 "/>
      <path id="ID0.40438934741541743" fill="none" stroke="#000000" stroke-width="0.9446965000148362" stroke-linecap="round" d="M 101.2818 55.6407 C 100.5607 55.1897 99.8182 54.7663 99.1157 54.2865 C 98.9319 54.161 98.6297 53.8282 98.6297 53.8282 "/>
      <path id="ID0.7633831659331918" fill="none" stroke="#000000" stroke-width="0.9446965000148362" stroke-linecap="round" d="M 103.0173 58.4251 C 103.0173 58.4251 101.4499 58.6511 100.6635 58.7304 C 100.3507 58.7617 100.0337 58.7488 99.7192 58.758 C 99.3259 58.7695 98.9322 58.7811 98.5389 58.7926 C 98.4407 58.7955 98.5389 58.7926 98.5389 58.7926 "/>
      <path id="ID0.6422801343724132" fill="none" stroke="#000000" stroke-width="0.9446965000148362" stroke-linecap="round" d="M 108.125 42.3055 C 108.125 42.3055 107.0173 42.449 106.4794 42.59 C 105.9982 42.7161 105.5616 42.9917 105.0768 43.1037 C 104.7703 43.1746 104.1325 43.1313 104.1325 43.1313 "/>
      <path id="ID0.7584992088377476" fill="none" stroke="#000000" stroke-width="0.9446965000148362" stroke-linecap="round" d="M 108.0342 47.27 C 108.0342 47.27 106.6481 47.7831 105.9234 47.8044 C 105.4998 47.8168 104.7292 47.3668 104.7292 47.3668 "/>
      <path id="ID0.40438934741541743" fill="none" stroke="#000000" stroke-width="0.9446965000148362" stroke-linecap="round" d="M 107.8318 56.4907 C 107.1107 56.0397 106.3682 55.6163 105.6657 55.1365 C 105.4819 55.011 105.1797 54.6782 105.1797 54.6782 "/>
      <path id="ID0.7633831659331918" fill="none" stroke="#000000" stroke-width="0.9446965000148362" stroke-linecap="round" d="M 109.5673 59.2751 C 109.5673 59.2751 107.9999 59.5011 107.2135 59.5804 C 106.9007 59.6117 106.5837 59.5988 106.2692 59.608 C 105.8759 59.6195 105.4822 59.6311 105.0889 59.6426 C 104.9907 59.6455 105.0889 59.6426 105.0889 59.6426 "/>
      <path id="ID0.6422801343724132" fill="none" stroke="#000000" stroke-width="0.9446965000148362" stroke-linecap="round" d="M 129.375 56.2555 C 129.375 56.2555 128.2673 56.399 127.7294 56.54 C 127.2482 56.6661 126.8116 56.9417 126.3268 57.0537 C 126.0203 57.1246 125.3825 57.0813 125.3825 57.0813 "/>
      <path id="ID0.7584992088377476" fill="none" stroke="#000000" stroke-width="0.9446965000148362" stroke-linecap="round" d="M 129.2842 61.22 C 129.2842 61.22 127.8981 61.7331 127.1734 61.7544 C 126.7498 61.7668 125.9792 61.3168 125.9792 61.3168 "/>
      <path id="ID0.40438934741541743" fill="none" stroke="#000000" stroke-width="0.9446965000148362" stroke-linecap="round" d="M 129.0818 70.4407 C 128.3607 69.9897 127.6182 69.5663 126.9157 69.0865 C 126.7319 68.961 126.4297 68.6282 126.4297 68.6282 "/>
      <path id="ID0.7633831659331918" fill="none" stroke="#000000" stroke-width="0.9446965000148362" stroke-linecap="round" d="M 130.8173 73.2251 C 130.8173 73.2251 129.2499 73.4511 128.4635 73.5304 C 128.1507 73.5617 127.8337 73.5488 127.5192 73.558 C 127.1259 73.5695 126.7322 73.5811 126.3389 73.5926 C 126.2407 73.5955 126.3389 73.5926 126.3389 73.5926 "/>
      <path id="ID0.6422801343724132" fill="none" stroke="#000000" stroke-width="0.9446965000148362" stroke-linecap="round" d="M 58.725 46.1055 C 58.725 46.1055 57.6173 46.249 57.0794 46.39 C 56.5982 46.5161 56.1616 46.7917 55.6768 46.9037 C 55.3703 46.9746 54.7325 46.9313 54.7325 46.9313 "/>
      <path id="ID0.7584992088377476" fill="none" stroke="#000000" stroke-width="0.9446965000148362" stroke-linecap="round" d="M 58.6342 51.07 C 58.6342 51.07 57.2481 51.5831 56.5234 51.6044 C 56.0998 51.6168 55.3292 51.1668 55.3292 51.1668 "/>
      <path id="ID0.40438934741541743" fill="none" stroke="#000000" stroke-width="0.9446965000148362" stroke-linecap="round" d="M 58.4318 60.2907 C 57.7107 59.8397 56.9682 59.4163 56.2657 58.9365 C 56.0819 58.811 55.7797 58.4782 55.7797 58.4782 "/>
      <path id="ID0.7633831659331918" fill="none" stroke="#000000" stroke-width="0.9446965000148362" stroke-linecap="round" d="M 60.1673 63.0751 C 60.1673 63.0751 58.5999 63.3011 57.8135 63.3804 C 57.5007 63.4117 57.1837 63.3988 56.8692 63.408 C 56.4759 63.4195 56.0822 63.4311 55.6889 63.4426 C 55.5907 63.4455 55.6889 63.4426 55.6889 63.4426 "/>
      <path id="ID0.6422801343724132" fill="none" stroke="#000000" stroke-width="0.9446965000148362" stroke-linecap="round" d="M 52.425 46.3555 C 52.425 46.3555 51.3173 46.499 50.7794 46.64 C 50.2982 46.7661 49.8616 47.0417 49.3768 47.1537 C 49.0703 47.2246 48.4325 47.1813 48.4325 47.1813 "/>
      <path id="ID0.7584992088377476" fill="none" stroke="#000000" stroke-width="0.9446965000148362" stroke-linecap="round" d="M 52.3342 51.32 C 52.3342 51.32 50.9481 51.8331 50.2234 51.8544 C 49.7998 51.8668 49.0292 51.4168 49.0292 51.4168 "/>
      <path id="ID0.40438934741541743" fill="none" stroke="#000000" stroke-width="0.9446965000148362" stroke-linecap="round" d="M 52.1318 60.5407 C 51.4107 60.0897 50.6682 59.6663 49.9657 59.1865 C 49.7819 59.061 49.4797 58.7282 49.4797 58.7282 "/>
      <path id="ID0.7633831659331918" fill="none" stroke="#000000" stroke-width="0.9446965000148362" stroke-linecap="round" d="M 53.8673 63.3251 C 53.8673 63.3251 52.2999 63.5511 51.5135 63.6304 C 51.2007 63.6617 50.8837 63.6488 50.5692 63.658 C 50.1759 63.6695 49.7822 63.6811 49.3889 63.6926 C 49.2907 63.6955 49.3889 63.6926 49.3889 63.6926 "/>
      <path id="ID0.7584992088377476" fill="none" stroke="#000000" stroke-width="0.9446965000148362" stroke-linecap="round" d="M 113.2842 50.57 C 113.2842 50.57 111.8981 51.0831 111.1734 51.1044 C 110.7498 51.1168 109.9792 50.6668 109.9792 50.6668 "/>
      <path id="ID0.40438934741541743" fill="none" stroke="#000000" stroke-width="0.9446965000148362" stroke-linecap="round" d="M 113.0818 59.7907 C 112.3607 59.3397 111.6182 58.9163 110.9157 58.4365 C 110.7319 58.311 110.4297 57.9782 110.4297 57.9782 "/>
    </g>
  </g>
</svg>