<svg xmlns="http://www.w3.org/2000/svg" xmlns:xlink="http://www.w3.org/1999/xlink" version="1.1" width="154.0143349727498" height="335.70682459677323" viewBox="9.017831178481066 -1.124857870762861 154.0143349727498 335.70682459677323">
  <defs>
    <radialGradient id="grad_1" cx="0.8273999999999999" cy="0.15380000000000002" r="1.10006">
      <stop offset="0" stop-color="#FFD499" stop-opacity="1"/>
      <stop offset="1" stop-color="#FFE9CC" stop-opacity="1"/>
    </radialGradient>
    <radialGradient id="grad_2" cx="0.9470999999999999" cy="0.15380000000000002" r="1.23123">
      <stop offset="0" stop-color="#FFD499" stop-opacity="1"/>
      <stop offset="1" stop-color="#FFE9CC" stop-opacity="1"/>
    </radialGradient>
    <radialGradient id="grad_3" cx="0.2429" cy="0.138" r="1.1206">
      <stop offset="0" stop-color="#FFD499" stop-opacity="1"/>
      <stop offset="1" stop-color="#FFE9CC" stop-opacity="1"/>
    </radialGradient>
    <radialGradient id="grad_4" cx="0.0669" cy="0.138" r="1.21303">
      <stop offset="0" stop-color="#FFD499" stop-opacity="1"/>
      <stop offset="1" stop-color="#FFE9CC" stop-opacity="1"/>
    </radialGradient>
    <radialGradient id="grad_5" cx="0.7027" cy="0.5166" r="0.91351">
      <stop offset="0" stop-color="#FFCCF2" stop-opacity="1"/>
      <stop offset="1" stop-color="#CC99FF" stop-opacity="1"/>
    </radialGradient>
    <radialGradient id="grad_6" cx="0.7944" cy="0.5156000000000001" r="1.03272">
      <stop offset="0" stop-color="#FFCCF2" stop-opacity="1"/>
      <stop offset="1" stop-color="#CC99FF" stop-opacity="1"/>
    </radialGradient>
    <radialGradient id="grad_7" cx="0.7277" cy="0.475" r="0.94601">
      <stop offset="0" stop-color="#FFCCF2" stop-opacity="1"/>
      <stop offset="1" stop-color="#CC99FF" stop-opacity="1"/>
    </radialGradient>
    <radialGradient id="grad_8" cx="0.7888" cy="0.4718" r="1.02544">
      <stop offset="0" stop-color="#FFCCF2" stop-opacity="1"/>
      <stop offset="1" stop-color="#CC99FF" stop-opacity="1"/>
    </radialGradient>
    <radialGradient id="grad_9" cx="0.09789999999999999" cy="0.1091" r="1.17273">
      <stop offset="0" stop-color="#FFCCF2" stop-opacity="1"/>
      <stop offset="1" stop-color="#CC99FF" stop-opacity="1"/>
    </radialGradient>
    <radialGradient id="grad_10" cx="0.08900000000000001" cy="0.0842" r="1.19054">
      <stop offset="0" stop-color="#FFCCF2" stop-opacity="1"/>
      <stop offset="1" stop-color="#CC99FF" stop-opacity="1"/>
    </radialGradient>
    <radialGradient id="grad_11" cx="0.8525" cy="0.48340000000000005" r="1.10825">
      <stop offset="0" stop-color="#00CCCC" stop-opacity="1"/>
      <stop offset="1" stop-color="#99FFFF" stop-opacity="1"/>
    </radialGradient>
    <radialGradient id="grad_12" cx="0.8787" cy="0.48340000000000005" r="1.14231">
      <stop offset="0" stop-color="#00CCCC" stop-opacity="1"/>
      <stop offset="1" stop-color="#99FFFF" stop-opacity="1"/>
    </radialGradient>
  <radialGradient id="grad_1-.5987741947174072,0,0,1.3593894243240356,-584.05,-42.25" cx="74.3346" cy="268.2212" r="75.9132" gradientUnits="userSpaceOnUse">
      <stop offset="0" stop-color="#FFD499" stop-opacity="1"/>
      <stop offset="1" stop-color="#FFE9CC" stop-opacity="1"/>
    </radialGradient><radialGradient id="grad_3-2.5987741947174072,0,0,1.350495457649231,755.8,-39.75" cx="115.947" cy="267.7201" r="77.2222" gradientUnits="userSpaceOnUse">
      <stop offset="0" stop-color="#FFD499" stop-opacity="1"/>
      <stop offset="1" stop-color="#FFE9CC" stop-opacity="1"/>
    </radialGradient><radialGradient id="grad_5-1.7967947721481323,-0.5688834190368652,-0.4052964746952057,2.3242316246032715,665,-98.9" cx="28.7008" cy="144.1997" r="66.807" gradientUnits="userSpaceOnUse">
      <stop offset="0" stop-color="#FFCCF2" stop-opacity="1"/>
      <stop offset="1" stop-color="#CC99FF" stop-opacity="1"/>
    </radialGradient><radialGradient id="grad_7-.7967947721481323,-0.5688834190368652,0.4052964746952057,2.3242316246032715,-492.95,-99.1" cx="143.2924" cy="139.3245" r="69.1838" gradientUnits="userSpaceOnUse">
      <stop offset="0" stop-color="#FFCCF2" stop-opacity="1"/>
      <stop offset="1" stop-color="#CC99FF" stop-opacity="1"/>
    </radialGradient><radialGradient id="grad_9-.0538699626922607,0,0,1.7736421823501587,-397.75,-187.75" cx="45.8922" cy="94.1342" r="115.9631" gradientUnits="userSpaceOnUse">
      <stop offset="0" stop-color="#FFCCF2" stop-opacity="1"/>
      <stop offset="1" stop-color="#CC99FF" stop-opacity="1"/>
    </radialGradient><radialGradient id="grad_11-.0030394792556763,0,0,0.9945966005325317,-155,-14.25" cx="125.0869" cy="218.8457" r="106.8979" gradientUnits="userSpaceOnUse">
      <stop offset="0" stop-color="#00CCCC" stop-opacity="1"/>
      <stop offset="1" stop-color="#99FFFF" stop-opacity="1"/>
    </radialGradient></defs>
  <!-- Exported by Scratch - http://scratch.mit.edu/ -->
  <g id="ID0.6970460023730993">
    <g id="ID0.5111573790200055">
      <path id="ID0.7297148094512522" fill="#FFDEAE" d="M 17.1166 205.0916 C 16.1621 208.3423 14.0737 211.6879 14.773 215.1783 C 16.03 221.4505 18.9972 227.4215 22.5305 232.7756 C 23.3834 234.1147 25.9256 234.2279 26.9873 233.2037 C 27.8657 232.409 26.8132 230.5437 26.4168 229.1224 C 25.3997 225.7502 23.5233 222.7141 22.5774 219.2393 C 21.9892 217.1745 21.1168 214.9051 21.6955 212.8379 C 23.9386 209.4797 25.9535 210.0219 27.7331 209.077 C 31.8313 209.3695 32.3106 204.5771 32.7926 200.8971 C 33.25 197.9768 35.1695 193.8727 32.886 191.8671 C 29.9607 189.2507 24.8216 188.8829 21.1079 190.5278 C 18.7039 191.6082 19.9139 195.7348 19.1981 198.2245 C 18.5394 200.5209 17.6374 202.6878 17.1166 205.0916 Z " stroke-width="2.64632138354387"/>
      <path id="ID0.7297148094512522" fill="#FFD499" d="M 31.4272 201.8608 C 28.8113 201.0817 26.4892 204.1993 24.2892 205.9128 C 22.5923 207.239 20.5482 208.5902 20.0506 210.8207 C 19.4323 213.6283 20.8577 216.5243 21.5991 219.321 C 22.3815 222.2548 23.0749 225.3416 24.8418 227.8504 C 25.8199 229.3619 28.5991 231.6236 29.4412 230.8023 C 30.4532 229.8091 29.0934 226.2491 28.44 224.1302 C 27.4481 220.9266 25.8935 217.8961 24.9236 214.6867 C 24.5307 213.4023 23.982 212.0197 24.4725 210.8761 C 24.9998 209.8043 26.3489 208.819 27.5 209.0888 C 28.7606 209.3842 29.3163 210.9615 30.0326 212.0465 C 31.2395 213.8748 31.8143 216.1176 33.1152 217.8657 C 33.9155 218.9447 34.8412 220.4197 36.0699 220.314 C 37.349 220.226 38.5042 218.695 38.4337 217.4612 C 38.2614 214.5003 36.7619 211.7766 35.581 209.0832 C 34.4714 206.5485 34.1327 202.5733 31.4272 201.8608 Z " stroke-width="2.64632138354387"/>
    </g>
    <g id="ID0.716745896730572">
      <path id="ID0.7297148094512522" fill="#FFDEAE" d="M 155.4505 205.9213 C 156.2224 209.2201 158.1209 212.677 157.2281 216.1229 C 155.6234 222.3154 152.3279 228.1116 148.5016 233.2604 C 147.5754 234.5498 145.0308 234.5211 144.0278 233.4393 C 143.1951 232.5969 144.35 230.7932 144.825 229.3962 C 146.0285 226.0859 148.0713 223.1592 149.2095 219.7426 C 149.9119 217.7137 150.9094 215.4965 150.4469 213.4003 C 148.3945 209.9222 146.3525 210.3512 144.6284 209.3086 C 140.5202 209.3721 140.3089 204.5605 140.0328 200.8593 C 139.7389 197.9181 138.0512 193.7133 140.443 191.8382 C 143.5096 189.3889 148.6612 189.3082 152.2774 191.1576 C 154.6174 192.3704 153.1793 196.4231 153.7551 198.9488 C 154.2847 201.2783 155.0645 203.4922 155.4505 205.9213 Z " stroke-width="2.6463212738603072"/>
      <path id="ID0.7297148094512522" fill="#FFD499" d="M 141.3595 201.8814 C 144.0148 201.2494 146.1595 204.4916 148.2605 206.3251 C 149.8808 207.7438 151.8464 209.2069 152.2188 211.4617 C 152.6796 214.2993 151.095 217.1114 150.1988 219.8624 C 149.2541 222.7479 148.3896 225.7913 146.4856 228.1977 C 145.4249 229.6523 142.5238 231.7556 141.7288 230.8886 C 140.7738 229.8405 142.33 226.3618 143.1005 224.2827 C 144.2695 221.1394 145.9906 218.2002 147.1379 215.0499 C 147.6018 213.7894 148.2267 212.4396 147.8008 211.2705 C 147.3341 210.1709 146.0419 209.1118 144.8776 209.3171 C 143.6025 209.5417 142.9597 211.0857 142.1841 212.129 C 140.8771 213.8872 140.1781 216.0944 138.7818 217.7673 C 137.9226 218.8 136.9161 220.2211 135.6952 220.047 C 134.423 219.8879 133.3549 218.2949 133.4942 217.0669 C 133.8312 214.1202 135.4802 211.4844 136.8095 208.8609 C 138.0587 206.392 138.6185 202.4419 141.3595 201.8814 Z " stroke-width="2.6463212738603072"/>
    </g>
    <path id="ID0.47236768435686827" fill="url(#grad_1-.5987741947174072,0,0,1.3593894243240356,-584.05,-42.25)" stroke="url(#grad_2)" d="M 48.1018 258.7188 L 79.8069 258.7188 L 76.1686 320.5031 L 57.0676 319.7554 L 48.1018 258.7188 Z " stroke-width="2.0738330359618082"/>
    <path id="ID0.8654622961767018" fill="#000000" stroke="#000000" stroke-width="3.123863406209485" d="M 66.371 316.0691 C 70.0849 316.0691 73.4511 316.9789 75.888 318.4499 C 78.325 319.9208 79.8327 321.9512 79.8327 324.1924 C 79.8327 326.4337 78.325 328.4641 75.888 329.935 C 73.4511 331.4059 70.0849 332.3158 66.371 332.3158 C 62.6571 332.3158 59.2909 331.4059 56.854 329.935 C 54.417 328.4641 52.9093 326.4337 52.9093 324.1924 C 52.9093 321.9512 54.417 319.9208 56.854 318.4499 C 59.2909 316.9789 62.6571 316.0691 66.371 316.0691 Z "/>
    <path id="ID0.47236768435686827" fill="url(#grad_3-2.5987741947174072,0,0,1.350495457649231,755.8,-39.75)" stroke="url(#grad_4)" d="M 123.6482 259.2497 L 91.9431 259.2497 L 95.5814 320.6297 L 114.6824 319.8869 L 123.6482 259.2497 Z " stroke-width="2.070925553497797"/>
    <path id="ID0.8654622961767018" fill="#000000" stroke="#000000" stroke-width="3.1133563819556502" d="M 105.429 316.318 C 101.7151 316.318 98.3489 317.2219 95.912 318.6832 C 93.475 320.1445 91.9673 322.1616 91.9673 324.3882 C 91.9673 326.6148 93.475 328.6319 95.912 330.0932 C 98.3489 331.5545 101.7151 332.4584 105.429 332.4584 C 109.1429 332.4584 112.5091 331.5545 114.946 330.0932 C 117.383 328.6319 118.8907 326.6148 118.8907 324.3882 C 118.8907 322.1616 117.383 320.1445 114.946 318.6832 C 112.5091 317.2219 109.1429 316.318 105.429 316.318 Z "/>
    <path id="ID0.41013610642403364" fill="url(#grad_5-1.7967947721481323,-0.5688834190368652,-0.4052964746952057,2.3242316246032715,665,-98.9)" stroke="url(#grad_6)" stroke-width="4.247138317476344" d="M 43.5319 114.5263 L 47.3403 101.3847 L 42.9017 90.4144 L 38.0976 94.0437 L 35.8354 99.9494 L 11.1414 193.1762 L 39.8901 202.2783 L 38.6473 155.0411 L 43.5319 114.5263 Z "/>
    <path id="ID0.41013610642403364" fill="url(#grad_7-.7967947721481323,-0.5688834190368652,0.4052964746952057,2.3242316246032715,-492.95,-99.1)" stroke="url(#grad_8)" stroke-width="4.247138317476344" d="M 128.5181 114.3263 L 124.7097 101.1847 L 129.1483 90.2144 L 133.9524 93.8437 L 136.2146 99.7494 L 160.9086 192.9762 L 132.1599 202.0783 L 133.4027 154.8411 L 128.5181 114.3263 Z "/>
    <path id="ID0.43916446389630437" fill="url(#grad_9-.0538699626922607,0,0,1.7736421823501587,-397.75,-187.75)" stroke="url(#grad_10)" stroke-width="3.837756744417588" d="M 47.4263 85.923 L 59.1334 83.8833 L 111.0963 83.6173 L 125.1653 85.7456 L 130.7107 89.2042 L 133.8942 93.6383 L 135.8454 100.5555 L 118.901 180.0147 L 52.6637 180.0147 L 36.13 100.7329 L 37.6704 93.3723 L 41.6755 89.2042 L 47.4263 85.923 Z "/>
    <path id="ID0.10144270723685622" fill="url(#grad_11-.0030394792556763,0,0,0.9945966005325317,-155,-14.25)" stroke="url(#grad_12)" stroke-width="3.9953078426938435" stroke-linecap="round" d="M 53.4818 180.0942 L 118.8799 180.0942 L 141.3982 260.2587 L 30.8131 260.2587 L 53.4818 180.0942 Z "/>
    <g id="ID0.9729278031736612">
      <g id="ID0.809288214892149">
        <path id="ID0.8839382561855018" fill="#FFFF00" stroke="#FFFF00" stroke-width="2.025195199111021" stroke-linecap="round" d="M 50.45 52.1943 C 62.076 53.1568 73.381 57.8115 85.05 57.832 C 96.424 57.8545 107.57 53.0707 119.05 52.2968 C 121.844 52.1041 120.535 54.2146 120.65 55.4231 C 120.78 56.933 119.552 58.2779 119.45 59.7796 C 119.467 61.1019 120.435 62.3083 120.4 63.6235 C 120.361 65.1139 119.417 66.4997 119.45 67.9799 C 119.59 69.4252 120.851 70.647 120.9 72.08 C 120.947 73.4833 119.92 74.7831 119.95 76.1802 C 120.093 77.6245 121.405 78.8515 121.4 80.2804 C 121.393 81.8743 120.139 83.3196 120.15 84.8931 C 120.226 86.365 121.598 87.5756 121.65 88.9932 C 121.698 90.3493 120.761 91.5876 120.65 92.9396 C 120.676 94.3778 121.629 95.7882 121.4 97.1935 C 121.184 98.5107 120.634 99.9519 119.65 100.7812 C 118.575 101.591 116.578 100.65 115.8 101.6525 C 114.686 103.0957 115.952 105.9792 114.55 107.0339 C 113.297 107.9698 111.333 105.7096 109.95 106.2651 C 108.379 106.8986 108.148 109.6129 106.65 110.2116 C 105.132 110.8143 103.302 109.1916 101.8 109.5965 C 100.329 109.9963 99.615 112.0761 98.15 112.4154 C 96.642 112.7629 95.001 111.541 93.55 111.7491 C 92.074 111.9623 90.874 113.585 89.45 113.5942 C 87.807 113.5983 86.38 111.9203 84.8 111.9029 C 83.236 111.8916 81.809 113.383 80.3 113.2867 C 78.257 113.1401 76.43 111.6743 74.45 111.3903 C 72.784 111.1536 71.034 111.8383 69.4 111.5441 C 67.991 111.2868 66.612 110.7558 65.4 110.0065 C 64.256 109.3003 63.773 107.6274 62.55 107.0339 C 61.028 106.302 58.91 107.3302 57.45 106.4189 C 56.065 105.5486 56.147 103.188 54.95 102.0112 C 53.879 101.0036 51.89 101.1891 50.8 100.1149 C 49.662 98.9925 48.64 97.4734 48.45 95.861 C 48.289 94.4126 50.2 93.1723 50.15 91.6583 C 49.993 90.3053 48.109 89.5826 47.9 88.2244 C 47.655 86.6213 49.143 85.097 49.15 83.458 C 49.056 82.1336 47.697 81.0973 47.65 79.7679 C 47.6 78.3502 49.021 77.1284 49.05 75.6677 C 49.021 74.2408 47.672 73.0128 47.65 71.5675 C 47.626 69.9818 49.053 68.6318 49.15 67.0574 C 49.14 65.5116 47.749 64.135 47.9 62.5984 C 48.025 61.3346 49.993 60.4694 49.95 59.1133 C 49.897 57.4599 47.529 56.3703 47.65 54.7569 C 47.741 53.4438 47.543 51.9534 50.45 52.1943 Z "/>
        <path id="ID0.4806634387932718" fill="none" stroke="#CCCC00" stroke-width="2.229000442569227" stroke-linecap="round" d="M 90.5499 59.8677 C 90.5499 59.8677 89.2235 65.1927 88.8348 68.007 C 88.6808 69.1231 88.8584 70.3178 88.9491 71.4559 C 89.049 72.714 89.2266 73.9529 89.4065 75.1806 C 89.5696 76.2967 89.8517 77.3589 89.9782 78.4916 C 90.2077 80.5388 90.5636 82.6178 90.4737 84.6995 C 90.4295 85.7162 89.8235 86.3867 89.5971 87.3206 C 89.363 88.2849 89.1496 89.3058 89.1016 90.3556 C 88.9583 93.4693 88.8706 96.6243 89.0254 99.7365 C 89.0772 100.7822 89.5734 101.6141 89.7114 102.6336 C 89.8562 103.7082 89.8844 104.8381 89.8639 105.9445 C 89.8463 106.8771 89.764 107.8207 89.5971 108.7036 C 89.4553 109.4527 88.9491 110.7729 88.9491 110.7729 "/>
        <path id="ID0.7519200313836336" fill="none" stroke="#FF9400" stroke-width="2.229000442569227" stroke-linecap="round" d="M 87.4246 59.7297 C 87.4246 59.7297 85.9815 64.485 85.7856 67.1103 C 85.6728 68.6154 86.3131 69.9977 86.5479 71.4559 C 86.7576 72.7554 87.282 74.066 87.1196 75.3876 C 86.987 76.4664 85.9671 76.6085 85.7856 77.6638 C 85.5692 78.9234 85.945 80.2905 86.0524 81.5955 C 86.1607 82.9102 86.3688 84.2029 86.4336 85.5272 C 86.4961 86.8088 86.4031 88.1042 86.4336 89.39 C 86.5304 93.4582 86.8711 97.5279 86.8147 101.5989 C 86.7819 103.9966 86.4831 106.3749 86.1668 108.7036 C 86.073 109.392 85.5951 110.566 85.5951 110.566 "/>
        <path id="ID0.4806634387932718" fill="none" stroke="#FF9400" stroke-width="1.892105289214821" stroke-linecap="round" d="M 48.9001 54.0751 C 48.9001 54.0751 50.2265 58.3192 50.6152 60.5622 C 50.7692 61.4518 50.5916 62.4039 50.5009 63.3111 C 50.401 64.3138 50.2234 65.3012 50.0435 66.2798 C 49.8804 67.1693 49.5983 68.0159 49.4718 68.9186 C 49.2423 70.5503 48.8864 72.2073 48.9763 73.8665 C 49.0205 74.6768 49.6265 75.2112 49.8529 75.9556 C 50.087 76.7241 50.3004 77.5378 50.3484 78.3745 C 50.4917 80.8562 50.5794 83.3708 50.4246 85.8513 C 50.3728 86.6847 49.8766 87.3478 49.7386 88.1603 C 49.5938 89.0168 49.5656 89.9173 49.5861 90.7992 C 49.6037 91.5424 49.686 92.2945 49.8529 92.9982 C 49.9947 93.5952 50.5009 94.6475 50.5009 94.6475 "/>
        <path id="ID0.7519200313836336" fill="none" stroke="#CCCC00" stroke-width="1.892105289214821" stroke-linecap="round" d="M 52.0254 53.9651 C 52.0254 53.9651 53.4685 57.7552 53.6644 59.8476 C 53.7772 61.0471 53.1369 62.1489 52.9021 63.3111 C 52.6924 64.3468 52.168 65.3914 52.3304 66.4447 C 52.463 67.3045 53.4829 67.4178 53.6644 68.2589 C 53.8808 69.2628 53.505 70.3524 53.3976 71.3926 C 53.2893 72.4404 53.0812 73.4707 53.0164 74.5262 C 52.9539 75.5477 53.0469 76.5801 53.0164 77.6049 C 52.9196 80.8474 52.5789 84.091 52.6353 87.3357 C 52.6681 89.2466 52.9669 91.1422 53.2832 92.9982 C 53.377 93.5469 53.8549 94.4826 53.8549 94.4826 "/>
        <path id="ID0.4806634387932718" fill="none" stroke="#995900" stroke-width="2.1220661445855895" stroke-linecap="round" d="M 55.4001 56.4839 C 55.4001 56.4839 56.7265 61.4728 57.1152 64.1095 C 57.2692 65.1551 57.0916 66.2744 57.0009 67.3407 C 56.901 68.5194 56.7234 69.6801 56.5435 70.8304 C 56.3804 71.876 56.0983 72.8712 55.9718 73.9323 C 55.7423 75.8504 55.3864 77.7982 55.4763 79.7485 C 55.5205 80.7011 56.1265 81.3292 56.3529 82.2042 C 56.587 83.1077 56.8004 84.0641 56.8484 85.0477 C 56.9917 87.9648 57.0794 90.9207 56.9246 93.8365 C 56.8728 94.8162 56.3766 95.5956 56.2386 96.5507 C 56.0938 97.5576 56.0656 98.6161 56.0861 99.6527 C 56.1037 100.5264 56.186 101.4105 56.3529 102.2377 C 56.4947 102.9395 57.0009 104.1764 57.0009 104.1764 "/>
        <path id="ID0.7519200313836336" fill="none" stroke="#FF9400" stroke-width="2.1220661445855895" stroke-linecap="round" d="M 58.5254 56.3546 C 58.5254 56.3546 59.9685 60.8098 60.1644 63.2694 C 60.2772 64.6795 59.6369 65.9745 59.4021 67.3407 C 59.1924 68.5582 58.668 69.7861 58.8304 71.0243 C 58.963 72.035 59.9829 72.1681 60.1644 73.1569 C 60.3808 74.3369 60.005 75.6177 59.8976 76.8404 C 59.7893 78.0722 59.5812 79.2832 59.5164 80.524 C 59.4539 81.7247 59.5469 82.9383 59.5164 84.1429 C 59.4196 87.9545 59.0789 91.7673 59.1353 95.5814 C 59.1681 97.8277 59.4669 100.0559 59.7832 102.2377 C 59.877 102.8826 60.3549 103.9825 60.3549 103.9825 "/>
        <path id="ID0.4806634387932718" fill="none" stroke="#CCCC00" stroke-width="2.1220661445855895" stroke-linecap="round" d="M 62.6001 57.3339 C 62.6001 57.3339 63.9265 62.3228 64.3152 64.9595 C 64.4692 66.0051 64.2916 67.1244 64.2009 68.1907 C 64.101 69.3694 63.9234 70.5301 63.7435 71.6804 C 63.5804 72.726 63.2983 73.7212 63.1718 74.7823 C 62.9423 76.7004 62.5864 78.6482 62.6763 80.5985 C 62.7205 81.5511 63.3265 82.1792 63.5529 83.0542 C 63.787 83.9577 64.0004 84.9141 64.0484 85.8977 C 64.1917 88.8148 64.2794 91.7707 64.1246 94.6865 C 64.0728 95.6662 63.5766 96.4456 63.4386 97.4007 C 63.2938 98.4076 63.2656 99.4661 63.2861 100.5027 C 63.3037 101.3764 63.386 102.2605 63.5529 103.0877 C 63.6947 103.7895 64.2009 105.0264 64.2009 105.0264 "/>
        <path id="ID0.7519200313836336" fill="none" stroke="#995900" stroke-width="2.1220661445855895" stroke-linecap="round" d="M 65.7254 57.2046 C 65.7254 57.2046 67.1685 61.6598 67.3644 64.1194 C 67.4772 65.5295 66.8369 66.8245 66.6021 68.1907 C 66.3924 69.4082 65.868 70.6361 66.0304 71.8743 C 66.163 72.885 67.1829 73.0181 67.3644 74.0069 C 67.5808 75.1869 67.205 76.4677 67.0976 77.6904 C 66.9893 78.9222 66.7812 80.1332 66.7164 81.374 C 66.6539 82.5747 66.7469 83.7883 66.7164 84.9929 C 66.6196 88.8045 66.2789 92.6173 66.3353 96.4314 C 66.3681 98.6777 66.6669 100.9059 66.9832 103.0877 C 67.077 103.7326 67.5549 104.8325 67.5549 104.8325 "/>
        <path id="ID0.4806634387932718" fill="none" stroke="#FF9400" stroke-width="2.229000295010233" stroke-linecap="round" d="M 70.1501 58.8177 C 70.1501 58.8177 71.4765 64.1427 71.8652 66.957 C 72.0192 68.0731 71.8416 69.2677 71.7509 70.4059 C 71.651 71.664 71.4734 72.9028 71.2935 74.1306 C 71.1304 75.2467 70.8483 76.3089 70.7218 77.4415 C 70.4923 79.4888 70.1364 81.5678 70.2263 83.6495 C 70.2705 84.6662 70.8765 85.3367 71.1029 86.2706 C 71.337 87.2349 71.5504 88.2558 71.5984 89.3056 C 71.7417 92.4193 71.8294 95.5743 71.6746 98.6865 C 71.6228 99.7322 71.1266 100.5641 70.9886 101.5836 C 70.8438 102.6582 70.8156 103.7881 70.8361 104.8945 C 70.8537 105.8271 70.936 106.7707 71.1029 107.6536 C 71.2447 108.4027 71.7509 109.7229 71.7509 109.7229 "/>
        <path id="ID0.7519200313836336" fill="none" stroke="#CCCC00" stroke-width="2.229000295010233" stroke-linecap="round" d="M 73.2754 58.6797 C 73.2754 58.6797 74.7185 63.435 74.9144 66.0603 C 75.0272 67.5654 74.3869 68.9477 74.1521 70.4059 C 73.9424 71.7054 73.418 73.016 73.5804 74.3376 C 73.713 75.4164 74.7329 75.5585 74.9144 76.6138 C 75.1308 77.8733 74.755 79.2405 74.6476 80.5455 C 74.5393 81.8602 74.3312 83.1529 74.2664 84.4772 C 74.2039 85.7588 74.2969 87.0542 74.2664 88.3399 C 74.1696 92.4082 73.8289 96.4779 73.8853 100.5489 C 73.9181 102.9466 74.2169 105.3249 74.5332 107.6536 C 74.627 108.342 75.1049 109.516 75.1049 109.516 "/>
        <path id="ID0.4806634387932718" fill="none" stroke="#995900" stroke-width="2.229000295010233" stroke-linecap="round" d="M 77.1001 59.3677 C 77.1001 59.3677 78.4265 64.6927 78.8152 67.507 C 78.9692 68.6231 78.7916 69.8177 78.7009 70.9559 C 78.601 72.214 78.4234 73.4528 78.2435 74.6806 C 78.0804 75.7967 77.7983 76.8589 77.6718 77.9915 C 77.4423 80.0388 77.0864 82.1178 77.1763 84.1995 C 77.2205 85.2162 77.8265 85.8867 78.0529 86.8206 C 78.287 87.7849 78.5004 88.8058 78.5484 89.8556 C 78.6917 92.9693 78.7794 96.1243 78.6246 99.2365 C 78.5728 100.2822 78.0766 101.1141 77.9386 102.1336 C 77.7938 103.2082 77.7656 104.3381 77.7861 105.4445 C 77.8037 106.3771 77.886 107.3207 78.0529 108.2036 C 78.1947 108.9527 78.7009 110.2729 78.7009 110.2729 "/>
        <path id="ID0.7519200313836336" fill="none" stroke="#CCCC00" stroke-width="2.229000295010233" stroke-linecap="round" d="M 80.2254 59.2297 C 80.2254 59.2297 81.6685 63.985 81.8644 66.6103 C 81.9772 68.1154 81.3369 69.4977 81.1021 70.9559 C 80.8924 72.2554 80.368 73.566 80.5304 74.8876 C 80.663 75.9664 81.6829 76.1085 81.8644 77.1638 C 82.0808 78.4233 81.705 79.7905 81.5976 81.0955 C 81.4893 82.4102 81.2812 83.7029 81.2164 85.0272 C 81.1539 86.3088 81.2469 87.6042 81.2164 88.8899 C 81.1196 92.9582 80.7789 97.0279 80.8353 101.0989 C 80.8681 103.4966 81.1669 105.8749 81.4832 108.2036 C 81.577 108.892 82.0549 110.066 82.0549 110.066 "/>
        <path id="ID0.4806634387932718" fill="none" stroke="#995900" stroke-width="1.9046536918282957" stroke-linecap="round" d="M 120.0999 54.1635 C 120.0999 54.1635 118.7735 58.4493 118.3848 60.7143 C 118.2308 61.6126 118.4084 62.5741 118.4991 63.4901 C 118.599 64.5027 118.7766 65.4997 118.9565 66.4879 C 119.1196 67.3862 119.4017 68.2411 119.5282 69.1526 C 119.7577 70.8003 120.1136 72.4736 120.0237 74.149 C 119.9795 74.9673 119.3735 75.5069 119.1471 76.2586 C 118.913 77.0347 118.6996 77.8563 118.6516 78.7013 C 118.5083 81.2072 118.4206 83.7465 118.5754 86.2513 C 118.6272 87.0929 119.1234 87.7624 119.2614 88.583 C 119.4062 89.4479 119.4344 90.3572 119.4139 91.2477 C 119.3963 91.9983 119.314 92.7577 119.1471 93.4683 C 119.0053 94.0712 118.4991 95.1338 118.4991 95.1338 "/>
        <path id="ID0.7519200313836336" fill="none" stroke="#CCCC00" stroke-width="1.9046536918282957" stroke-linecap="round" d="M 116.9746 54.0525 C 116.9746 54.0525 115.5315 57.8797 115.3356 59.9926 C 115.2228 61.204 115.8631 62.3165 116.0979 63.4901 C 116.3076 64.536 116.832 65.5908 116.6696 66.6545 C 116.537 67.5227 115.5171 67.6371 115.3356 68.4865 C 115.1192 69.5002 115.495 70.6005 115.6024 71.6508 C 115.7107 72.7089 115.9188 73.7493 115.9836 74.8152 C 116.0461 75.8467 115.9531 76.8892 115.9836 77.924 C 116.0804 81.1983 116.4211 84.4737 116.3647 87.7502 C 116.3319 89.6799 116.0331 91.5941 115.7168 93.4683 C 115.623 94.0223 115.1451 94.9672 115.1451 94.9672 "/>
        <path id="ID0.4806634387932718" fill="none" stroke="#FF9400" stroke-width="2.122066289798414" stroke-linecap="round" d="M 113.4499 56.5839 C 113.4499 56.5839 112.1235 61.5728 111.7348 64.2095 C 111.5808 65.2551 111.7584 66.3744 111.8491 67.4407 C 111.949 68.6194 112.1266 69.7801 112.3065 70.9304 C 112.4696 71.976 112.7517 72.9712 112.8782 74.0324 C 113.1077 75.9504 113.4636 77.8982 113.3737 79.8485 C 113.3295 80.8011 112.7235 81.4292 112.4971 82.3042 C 112.263 83.2077 112.0496 84.1641 112.0016 85.1477 C 111.8583 88.0648 111.7706 91.0207 111.9254 93.9365 C 111.9772 94.9162 112.4734 95.6956 112.6114 96.6508 C 112.7562 97.6576 112.7844 98.7161 112.7639 99.7527 C 112.7463 100.6264 112.664 101.5105 112.4971 102.3377 C 112.3553 103.0395 111.8491 104.2764 111.8491 104.2764 "/>
        <path id="ID0.7519200313836336" fill="none" stroke="#995900" stroke-width="2.122066289798414" stroke-linecap="round" d="M 110.3246 56.4546 C 110.3246 56.4546 108.8815 60.9098 108.6856 63.3694 C 108.5728 64.7795 109.2131 66.0746 109.4479 67.4407 C 109.6576 68.6582 110.182 69.8861 110.0196 71.1243 C 109.887 72.135 108.8671 72.2681 108.6856 73.2569 C 108.4692 74.4369 108.845 75.7177 108.9524 76.9404 C 109.0607 78.1722 109.2688 79.3832 109.3336 80.624 C 109.3961 81.8247 109.3031 83.0384 109.3336 84.2429 C 109.4304 88.0545 109.7711 91.8673 109.7147 95.6814 C 109.6819 97.9277 109.3831 100.156 109.0668 102.3377 C 108.973 102.9826 108.4951 104.0825 108.4951 104.0825 "/>
        <path id="ID0.4806634387932718" fill="none" stroke="#FF9400" stroke-width="2.122066289798414" stroke-linecap="round" d="M 106.3499 57.3839 C 106.3499 57.3839 105.0235 62.3728 104.6348 65.0095 C 104.4808 66.0551 104.6584 67.1744 104.7491 68.2407 C 104.849 69.4194 105.0266 70.5801 105.2065 71.7304 C 105.3696 72.776 105.6517 73.7712 105.7782 74.8324 C 106.0077 76.7504 106.3636 78.6982 106.2737 80.6485 C 106.2295 81.6011 105.6235 82.2292 105.3971 83.1042 C 105.163 84.0077 104.9496 84.9641 104.9016 85.9477 C 104.7583 88.8648 104.6706 91.8207 104.8254 94.7365 C 104.8772 95.7162 105.3734 96.4956 105.5114 97.4508 C 105.6562 98.4576 105.6844 99.5161 105.6639 100.5527 C 105.6463 101.4264 105.564 102.3105 105.3971 103.1377 C 105.2553 103.8395 104.7491 105.0764 104.7491 105.0764 "/>
        <path id="ID0.7519200313836336" fill="none" stroke="#CCCC00" stroke-width="2.229000442569227" stroke-linecap="round" d="M 103.2246 57.3297 C 103.2246 57.3297 101.7815 62.085 101.5856 64.7103 C 101.4728 66.2154 102.1131 67.5977 102.3479 69.0559 C 102.5576 70.3554 103.082 71.666 102.9196 72.9876 C 102.787 74.0664 101.7671 74.2085 101.5856 75.2638 C 101.3692 76.5234 101.745 77.8905 101.8524 79.1955 C 101.9607 80.5102 102.1688 81.8029 102.2336 83.1272 C 102.2961 84.4088 102.2031 85.7042 102.2336 86.99 C 102.3304 91.0582 102.6711 95.1279 102.6147 99.1989 C 102.5819 101.5966 102.2831 103.9749 101.9668 106.3036 C 101.873 106.992 101.3951 108.166 101.3951 108.166 "/>
        <path id="ID0.4806634387932718" fill="none" stroke="#995900" stroke-width="2.229000442569227" stroke-linecap="round" d="M 98.5999 58.8677 C 98.5999 58.8677 97.2735 64.1927 96.8848 67.007 C 96.7308 68.1231 96.9084 69.3178 96.9991 70.4559 C 97.099 71.714 97.2766 72.9529 97.4565 74.1806 C 97.6196 75.2967 97.9017 76.3589 98.0282 77.4916 C 98.2577 79.5388 98.6136 81.6178 98.5237 83.6995 C 98.4795 84.7162 97.8735 85.3867 97.6471 86.3206 C 97.413 87.2849 97.1996 88.3058 97.1516 89.3556 C 97.0083 92.4693 96.9206 95.6243 97.0754 98.7365 C 97.1272 99.7822 97.6234 100.6141 97.7614 101.6336 C 97.9062 102.7082 97.9344 103.8381 97.9139 104.9445 C 97.8963 105.8771 97.814 106.8207 97.6471 107.7036 C 97.5053 108.4527 96.9991 109.7729 96.9991 109.7729 "/>
        <path id="ID0.7519200313836336" fill="none" stroke="#FF9400" stroke-width="2.229000442569227" stroke-linecap="round" d="M 95.4746 58.7297 C 95.4746 58.7297 94.0315 63.485 93.8356 66.1103 C 93.7228 67.6154 94.3631 68.9977 94.5979 70.4559 C 94.8076 71.7554 95.332 73.066 95.1696 74.3876 C 95.037 75.4664 94.0171 75.6085 93.8356 76.6638 C 93.6192 77.9234 93.995 79.2905 94.1024 80.5955 C 94.2107 81.9102 94.4188 83.2029 94.4836 84.5272 C 94.5461 85.8088 94.4531 87.1042 94.4836 88.39 C 94.5804 92.4582 94.9211 96.5279 94.8647 100.5989 C 94.8319 102.9966 94.5331 105.3749 94.2168 107.7036 C 94.123 108.392 93.6451 109.566 93.6451 109.566 "/>
      </g>
      <g id="ID0.762429166585207">
        <path id="ID0.6504686716943979" fill="#FFFF00" stroke="#FFFF00" stroke-width="2" stroke-linecap="round" d="M 45.35 24.1 C 43.881 25.442 44.177 26.707 44.35 28.05 C 44.524 29.45 46.365 30.071 46.5 31.25 C 46.611 32.621 45.072 33.508 45 34.75 C 44.926 36.106 46.638 37.337 46.5 38.75 C 46.16 40.105 44.623 40.886 43.75 42 C 42.993 42.969 41.782 43.886 41.5 45.25 C 41.239 46.421 42.323 47.641 42.25 49 C 42.17 50.524 41.162 51.925 41.15 53.45 C 41.144 54.962 42.661 56.496 42.5 58.25 C 42.296 59.526 40.261 60.351 40.15 61.75 C 40.04 63.18 41.827 64.162 41.75 65.5 C 41.827 67.083 40.024 68.319 40.15 69.85 C 40.28 71.365 42.587 72.311 42.75 74 C 42.85 75.506 41.059 76.782 40.85 78.35 C 40.675 79.674 41.775 80.911 42 82.25 C 41.996 83.705 41.335 85.158 41.5 86.6 C 41.635 87.745 41.675 89.449 42.75 90 C 43.856 90.552 45.471 89.591 46.5 88.75 C 47.853 87.666 47.906 84.997 49.5 84 C 50.762 83.288 52.774 84.862 54 84 C 55.347 83.053 54.713 80.654 55.75 79.5 C 56.726 78.55 58.492 78.98 59.5 78.25 C 60.829 77.286 61.208 75.264 62.75 74.5 C 63.633 73.959 64.832 75.017 66 74.75 C 67.305 74.439 68.305 72.211 69.5 72.75 C 70.967 73.415 71.513 75.599 72 77.25 C 72.232 78.37 70.823 79.922 71.25 81.25 C 73.662 82.447 74.498 82.897 75.65 82.85 C 77.328 82.649 78.623 82.117 79.35 80.95 C 80.055 79.759 79.056 78.302 79.25 77 C 79.477 75.389 80.469 74.031 80.75 72.5 C 80.946 71.179 79.209 68.999 80.25 68.5 C 81.762 67.773 83.819 70.262 85.75 70.5 C 87.385 70.687 89.405 68.262 90.75 69.25 C 92.151 70.343 90.937 72.613 91.25 74.25 C 91.503 75.607 92.189 76.56 92.5 77.75 C 92.948 79.483 91.944 81.814 93.25 83 C 94.461 84.09 96.863 83.545 98.5 82.75 C 99.36 82.273 99.584 80.815 99.65 79.75 C 99.752 77.915 97.962 75.8 98.75 74 C 99.435 72.77 101.539 72.838 103 72.85 C 104.629 72.862 106.68 72.737 108 73.75 C 109.114 74.84 108.172 77.147 109.25 78.25 C 110.302 79.324 112.525 78.186 113.75 79 C 115.07 80.159 114.872 82.462 116.15 83.6 C 117.136 84.486 119.102 83.079 120 84 C 121.346 85.394 120.366 88.58 122 90 C 123.537 91.156 126.447 91.63 128 90.5 C 129.224 89.603 127.255 87.313 127.5 85.75 C 127.747 84.025 129.653 82.582 129.75 80.75 C 129.805 78.935 128.387 77.325 128.5 75.5 C 128.308 73.912 129.412 72.508 129.5 70.85 C 129.573 69.279 128.222 67.822 128.25 66.25 C 128.523 64.724 130.322 63.641 130.35 62.1 C 130.376 60.549 128.06 59.564 128 58 C 128.679 56.364 129.561 55.778 129.75 54.5 C 130.066 52.599 129.051 50.676 129 48.75 C 129.185 47.163 130.752 45.576 130.15 44.1 C 129.234 42.076 126.625 41.798 125.75 40 C 125.057 38.594 126.351 37 126.25 35.5 C 126.102 34.152 124.922 32.778 124.75 31.25 C 124.787 30.106 125.912 29.141 125.85 27.85 C 125.786 26.43 126.187 25.377 124.65 23.75 C 123.176 22.392 121.242 23.284 118.5 23.75 C 107.53 25.616 96.844 29.696 85.75 29.75 C 74.174 30.067 62.815 26.628 51.35 24.85 C 48.484 24.405 46.909 22.949 45.35 24.1 Z "/>
        <path id="ID0.4806634387932718" fill="none" stroke="#CCCC00" stroke-width="1.904175058052451" stroke-linecap="round" d="M 42.7501 45.8507 C 42.7501 45.8507 44.0765 50.1348 44.4652 52.399 C 44.6192 53.2969 44.4416 54.2581 44.3509 55.1738 C 44.251 56.186 44.0734 57.1827 43.8935 58.1705 C 43.7304 59.0684 43.4483 59.923 43.3218 60.8342 C 43.0923 62.4813 42.7364 64.1539 42.8263 65.8287 C 42.8705 66.6467 43.4765 67.1861 43.7029 67.9375 C 43.937 68.7133 44.1504 69.5347 44.1984 70.3793 C 44.3417 72.8843 44.4294 75.4226 44.2746 77.9266 C 44.2228 78.7679 43.7266 79.4371 43.5886 80.2573 C 43.4438 81.122 43.4156 82.031 43.4361 82.9211 C 43.4537 83.6714 43.536 84.4305 43.7029 85.1409 C 43.8447 85.7435 44.3509 86.8057 44.3509 86.8057 "/>
        <path id="ID0.7519200313836336" fill="none" stroke="#995900" stroke-width="1.904175058052451" stroke-linecap="round" d="M 45.8754 45.7397 C 45.8754 45.7397 47.3185 49.5655 47.5144 51.6776 C 47.6272 52.8885 46.9869 54.0006 46.7521 55.1738 C 46.5424 56.2193 46.018 57.2737 46.1804 58.337 C 46.313 59.2049 47.3329 59.3192 47.5144 60.1683 C 47.7308 61.1816 47.355 62.2815 47.2476 63.3315 C 47.1393 64.3892 46.9312 65.4292 46.8664 66.4947 C 46.8039 67.5258 46.8969 68.5679 46.8664 69.6024 C 46.7696 72.8754 46.4289 76.1496 46.4853 79.4249 C 46.5181 81.3539 46.8169 83.2674 47.1332 85.1409 C 47.227 85.6947 47.7049 86.6392 47.7049 86.6392 "/>
        <path id="ID0.4806634387932718" fill="none" stroke="#995900" stroke-width="1.6922017242245628" stroke-linecap="round" d="M 46.7501 25.7112 C 46.7501 25.7112 48.0765 29.2714 48.4652 31.153 C 48.6192 31.8991 48.4416 32.6979 48.3509 33.4588 C 48.251 34.3 48.0734 35.1282 47.8935 35.9491 C 47.7304 36.6953 47.4483 37.4054 47.3218 38.1627 C 47.0923 39.5314 46.7364 40.9214 46.8263 42.3132 C 46.8705 42.9929 47.4765 43.4412 47.7029 44.0656 C 47.937 44.7103 48.1504 45.3928 48.1984 46.0947 C 48.3417 48.1764 48.4294 50.2858 48.2746 52.3666 C 48.2228 53.0657 47.7266 53.6219 47.5886 54.3035 C 47.4438 55.022 47.4156 55.7774 47.4361 56.5171 C 47.4537 57.1406 47.536 57.7714 47.7029 58.3617 C 47.8447 58.8626 48.3509 59.7452 48.3509 59.7452 "/>
        <path id="ID0.7519200313836336" fill="none" stroke="#CCCC00" stroke-width="1.6922017242245628" stroke-linecap="round" d="M 49.8754 25.619 C 49.8754 25.619 51.3185 28.7982 51.5144 30.5534 C 51.6272 31.5597 50.9869 32.4839 50.7521 33.4588 C 50.5424 34.3276 50.018 35.2038 50.1804 36.0874 C 50.313 36.8087 51.3329 36.9037 51.5144 37.6093 C 51.7308 38.4514 51.355 39.3654 51.2476 40.2379 C 51.1393 41.1169 50.9312 41.9811 50.8664 42.8666 C 50.8039 43.7234 50.8969 44.5895 50.8664 45.4491 C 50.7696 48.1691 50.4289 50.8899 50.4853 53.6117 C 50.5181 55.2147 50.8169 56.8048 51.1332 58.3617 C 51.227 58.822 51.7049 59.6069 51.7049 59.6069 "/>
        <path id="ID0.4806634387932718" fill="none" stroke="#FF9400" stroke-width="2.0372818938305786" stroke-linecap="round" d="M 51.9001 34.8823 C 51.9001 34.8823 53.2265 39.6007 53.6152 42.0943 C 53.7692 43.0832 53.5916 44.1417 53.5009 45.1502 C 53.401 46.265 53.2234 47.3627 53.0435 48.4506 C 52.8804 49.4395 52.5983 50.3807 52.4718 51.3843 C 52.2423 53.1983 51.8864 55.0404 51.9763 56.8849 C 52.0205 57.7858 52.6265 58.3799 52.8529 59.2074 C 53.087 60.0619 53.3004 60.9664 53.3484 61.8966 C 53.4917 64.6555 53.5794 67.4511 53.4246 70.2087 C 53.3728 71.1353 52.8766 71.8724 52.7386 72.7757 C 52.5938 73.7279 52.5656 74.729 52.5861 75.7094 C 52.6037 76.5357 52.686 77.3718 52.8529 78.1541 C 52.9947 78.8178 53.5009 79.9877 53.5009 79.9877 "/>
        <path id="ID0.7519200313836336" fill="none" stroke="#995900" stroke-width="2.0372818938305786" stroke-linecap="round" d="M 55.0254 34.7601 C 55.0254 34.7601 56.4685 38.9736 56.6644 41.2997 C 56.7772 42.6333 56.1369 43.8582 55.9021 45.1502 C 55.6924 46.3017 55.168 47.4629 55.3304 48.6339 C 55.463 49.5898 56.4829 49.7157 56.6644 50.6508 C 56.8808 51.7669 56.505 52.9782 56.3976 54.1346 C 56.2893 55.2995 56.0812 56.4449 56.0164 57.6183 C 55.9539 58.7539 56.0469 59.9017 56.0164 61.041 C 55.9196 64.6457 55.5789 68.2517 55.6353 71.8589 C 55.6681 73.9834 55.9669 76.0907 56.2832 78.1541 C 56.377 78.7641 56.8549 79.8043 56.8549 79.8043 "/>
        <path id="ID0.4806634387932718" fill="none" stroke="#CCCC00" stroke-width="1.8670607754207065" stroke-linecap="round" d="M 58.8501 34.7462 C 58.8501 34.7462 60.1765 38.9069 60.5652 41.1059 C 60.7192 41.9779 60.5416 42.9114 60.4509 43.8006 C 60.351 44.7837 60.1734 45.7516 59.9935 46.711 C 59.8304 47.583 59.5483 48.413 59.4218 49.2979 C 59.1923 50.8976 58.8364 52.522 58.9263 54.1485 C 58.9705 54.9429 59.5765 55.4668 59.8029 56.1965 C 60.037 56.95 60.2504 57.7476 60.2984 58.5679 C 60.4417 61.0008 60.5294 63.4659 60.3746 65.8977 C 60.3228 66.7147 59.8266 67.3647 59.6886 68.1613 C 59.5438 69.001 59.5156 69.8838 59.5361 70.7483 C 59.5537 71.4769 59.636 72.2142 59.8029 72.9041 C 59.9447 73.4894 60.4509 74.5209 60.4509 74.5209 "/>
        <path id="ID0.7519200313836336" fill="none" stroke="#FF9400" stroke-width="1.8670607754207065" stroke-linecap="round" d="M 61.9754 34.6384 C 61.9754 34.6384 63.4185 38.354 63.6144 40.4052 C 63.7272 41.5812 63.0869 42.6613 62.8521 43.8006 C 62.6424 44.816 62.118 45.84 62.2804 46.8727 C 62.413 47.7156 63.4329 47.8266 63.6144 48.6512 C 63.8308 49.6353 63.455 50.7035 63.3476 51.7232 C 63.2393 52.7505 63.0312 53.7605 62.9664 54.7953 C 62.9039 55.7966 62.9969 56.8088 62.9664 57.8134 C 62.8696 60.9921 62.5289 64.172 62.5853 67.3529 C 62.6181 69.2263 62.9169 71.0846 63.2332 72.9041 C 63.327 73.4419 63.8049 74.3592 63.8049 74.3592 "/>
        <path id="ID0.4806634387932718" fill="none" stroke="#CCCC00" stroke-width="1.6922017242245628" stroke-linecap="round" d="M 65.5001 36.7112 C 65.5001 36.7112 66.8265 40.2714 67.2152 42.153 C 67.3692 42.8991 67.1916 43.6979 67.1009 44.4588 C 67.001 45.3 66.8234 46.1282 66.6435 46.9491 C 66.4804 47.6953 66.1983 48.4054 66.0718 49.1627 C 65.8423 50.5314 65.4864 51.9214 65.5763 53.3132 C 65.6205 53.9929 66.2265 54.4412 66.4529 55.0656 C 66.687 55.7103 66.9004 56.3928 66.9484 57.0947 C 67.0917 59.1764 67.1794 61.2858 67.0246 63.3666 C 66.9728 64.0657 66.4766 64.6219 66.3386 65.3035 C 66.1938 66.022 66.1656 66.7774 66.1861 67.5171 C 66.2037 68.1406 66.286 68.7714 66.4529 69.3617 C 66.5947 69.8626 67.1009 70.7452 67.1009 70.7452 "/>
        <path id="ID0.7519200313836336" fill="none" stroke="#995900" stroke-width="1.6922017242245628" stroke-linecap="round" d="M 68.6254 36.619 C 68.6254 36.619 70.0685 39.7982 70.2644 41.5534 C 70.3772 42.5597 69.7369 43.4839 69.5021 44.4588 C 69.2924 45.3276 68.768 46.2038 68.9304 47.0874 C 69.063 47.8087 70.0829 47.9037 70.2644 48.6093 C 70.4808 49.4514 70.105 50.3654 69.9976 51.2379 C 69.8893 52.1169 69.6812 52.9811 69.6164 53.8666 C 69.5539 54.7234 69.6469 55.5895 69.6164 56.4491 C 69.5196 59.1691 69.1789 61.8899 69.2353 64.6117 C 69.2681 66.2147 69.5669 67.8048 69.8832 69.3617 C 69.977 69.822 70.4549 70.6069 70.4549 70.6069 "/>
        <path id="ID0.4806634387932718" fill="none" stroke="#FF9400" stroke-width="1.944809120850888" stroke-linecap="round" d="M 72.6001 38.0898 C 72.6001 38.0898 73.9265 42.5079 74.3152 44.8428 C 74.4692 45.7688 74.2916 46.76 74.2009 47.7043 C 74.101 48.7481 73.9234 49.776 73.7435 50.7946 C 73.5804 51.7206 73.2983 52.6019 73.1718 53.5416 C 72.9423 55.2402 72.5864 56.9651 72.6763 58.6922 C 72.7205 59.5358 73.3265 60.0921 73.5529 60.8669 C 73.787 61.667 74.0004 62.514 74.0484 63.385 C 74.1917 65.9683 74.2794 68.586 74.1246 71.1682 C 74.0728 72.0358 73.5766 72.7259 73.4386 73.5718 C 73.2938 74.4634 73.2656 75.4008 73.2861 76.3188 C 73.3037 77.0925 73.386 77.8754 73.5529 78.6079 C 73.6947 79.2294 74.2009 80.3248 74.2009 80.3248 "/>
        <path id="ID0.7519200313836336" fill="none" stroke="#995900" stroke-width="1.944809120850888" stroke-linecap="round" d="M 75.7254 37.9754 C 75.7254 37.9754 77.1685 41.9207 77.3644 44.0989 C 77.4772 45.3476 76.8369 46.4945 76.6021 47.7043 C 76.3924 48.7825 75.868 49.8698 76.0304 50.9663 C 76.163 51.8614 77.1829 51.9793 77.3644 52.8549 C 77.5808 53.8999 77.205 55.0342 77.0976 56.1169 C 76.9893 57.2077 76.7812 58.2802 76.7164 59.379 C 76.6539 60.4423 76.7469 61.5171 76.7164 62.5838 C 76.6196 65.9592 76.2789 69.3357 76.3353 72.7134 C 76.3681 74.7026 76.6669 76.6759 76.9832 78.6079 C 77.077 79.1791 77.5549 80.1531 77.5549 80.1531 "/>
        <path id="ID0.4806634387932718" fill="none" stroke="#CCCC00" stroke-width="1.6922017242245628" stroke-linecap="round" d="M 79.3501 33.2112 C 79.3501 33.2112 80.6765 36.7714 81.0652 38.653 C 81.2192 39.3991 81.0416 40.1979 80.9509 40.9588 C 80.851 41.8 80.6734 42.6282 80.4935 43.4491 C 80.3304 44.1953 80.0483 44.9054 79.9218 45.6627 C 79.6923 47.0314 79.3364 48.4214 79.4263 49.8132 C 79.4705 50.4929 80.0765 50.9412 80.3029 51.5656 C 80.537 52.2103 80.7504 52.8928 80.7984 53.5947 C 80.9417 55.6764 81.0294 57.7858 80.8746 59.8666 C 80.8228 60.5657 80.3266 61.1219 80.1886 61.8035 C 80.0438 62.522 80.0156 63.2774 80.0361 64.0171 C 80.0537 64.6406 80.136 65.2714 80.3029 65.8617 C 80.4447 66.3626 80.9509 67.2452 80.9509 67.2452 "/>
        <path id="ID0.7519200313836336" fill="none" stroke="#FF9400" stroke-width="1.6922017242245628" stroke-linecap="round" d="M 82.4754 33.119 C 82.4754 33.119 83.9185 36.2982 84.1144 38.0534 C 84.2272 39.0597 83.5869 39.9839 83.3521 40.9588 C 83.1424 41.8276 82.618 42.7038 82.7804 43.5874 C 82.913 44.3087 83.9329 44.4037 84.1144 45.1093 C 84.3308 45.9514 83.955 46.8654 83.8476 47.7379 C 83.7393 48.6169 83.5312 49.4811 83.4664 50.3666 C 83.4039 51.2234 83.4969 52.0895 83.4664 52.9491 C 83.3696 55.6691 83.0289 58.3899 83.0853 61.1117 C 83.1181 62.7147 83.4169 64.3048 83.7332 65.8617 C 83.827 66.322 84.3049 67.1069 84.3049 67.1069 "/>
        <path id="ID0.4806634387932718" fill="none" stroke="#CCCC00" stroke-width="1.983808926983925" stroke-linecap="round" d="M 128.1999 45.4757 C 128.1999 45.4757 126.8735 50.0211 126.4848 52.4234 C 126.3308 53.376 126.5084 54.3958 126.5991 55.3673 C 126.699 56.4412 126.8766 57.4987 127.0565 58.5467 C 127.2196 59.4994 127.5017 60.4061 127.6282 61.3729 C 127.8577 63.1204 128.2136 64.895 128.1237 66.672 C 128.0795 67.5398 127.4735 68.1121 127.2471 68.9093 C 127.013 69.7325 126.7996 70.6039 126.7516 71.5 C 126.6083 74.1578 126.5206 76.8509 126.6754 79.5075 C 126.7272 80.4001 127.2234 81.1101 127.3614 81.9804 C 127.5062 82.8977 127.5344 83.8621 127.5139 84.8065 C 127.4963 85.6026 127.414 86.408 127.2471 87.1617 C 127.1053 87.8011 126.5991 88.928 126.5991 88.928 "/>
        <path id="ID0.7519200313836336" fill="none" stroke="#FF9400" stroke-width="1.983808926983925" stroke-linecap="round" d="M 125.0746 45.3579 C 125.0746 45.3579 123.6315 49.417 123.4356 51.6579 C 123.3228 52.9427 123.9631 54.1226 124.1979 55.3673 C 124.4076 56.4766 124.932 57.5952 124.7696 58.7234 C 124.637 59.6442 123.6171 59.7655 123.4356 60.6663 C 123.2192 61.7415 123.595 62.9084 123.7024 64.0224 C 123.8107 65.1446 124.0188 66.248 124.0836 67.3785 C 124.1461 68.4725 124.0531 69.5782 124.0836 70.6757 C 124.1804 74.1483 124.5211 77.6222 124.4647 81.0972 C 124.4319 83.1438 124.1331 85.1739 123.8168 87.1617 C 123.723 87.7493 123.2451 88.7514 123.2451 88.7514 "/>
        <path id="ID0.4806634387932718" fill="none" stroke="#CCCC00" stroke-width="1.6922017242245628" stroke-linecap="round" d="M 124.4999 25.2112 C 124.4999 25.2112 123.1735 28.7714 122.7848 30.653 C 122.6308 31.3991 122.8084 32.1979 122.8991 32.9588 C 122.999 33.8 123.1766 34.6282 123.3565 35.4491 C 123.5196 36.1953 123.8017 36.9054 123.9282 37.6627 C 124.1577 39.0314 124.5136 40.4214 124.4237 41.8132 C 124.3795 42.4929 123.7735 42.9412 123.5471 43.5656 C 123.313 44.2103 123.0996 44.8928 123.0516 45.5947 C 122.9083 47.6764 122.8206 49.7858 122.9754 51.8666 C 123.0272 52.5657 123.5234 53.1219 123.6614 53.8035 C 123.8062 54.522 123.8344 55.2774 123.8139 56.0171 C 123.7963 56.6406 123.714 57.2714 123.5471 57.8617 C 123.4053 58.3626 122.8991 59.2452 122.8991 59.2452 "/>
        <path id="ID0.7519200313836336" fill="none" stroke="#CCCC00" stroke-width="1.6922017242245628" stroke-linecap="round" d="M 121.3746 25.119 C 121.3746 25.119 119.9315 28.2982 119.7356 30.0534 C 119.6228 31.0597 120.2631 31.9839 120.4979 32.9588 C 120.7076 33.8276 121.232 34.7038 121.0696 35.5874 C 120.937 36.3087 119.9171 36.4037 119.7356 37.1093 C 119.5192 37.9514 119.895 38.8654 120.0024 39.7379 C 120.1107 40.6169 120.3188 41.4811 120.3836 42.3666 C 120.4461 43.2234 120.3531 44.0895 120.3836 44.9491 C 120.4804 47.6691 120.8211 50.3899 120.7647 53.1117 C 120.7319 54.7147 120.4331 56.3048 120.1168 57.8617 C 120.023 58.322 119.5451 59.1069 119.5451 59.1069 "/>
        <path id="ID0.4806634387932718" fill="none" stroke="#FF9400" stroke-width="2.0372818938305786" stroke-linecap="round" d="M 119.3499 34.6323 C 119.3499 34.6323 118.0235 39.3507 117.6348 41.8443 C 117.4808 42.8332 117.6584 43.8917 117.7491 44.9002 C 117.849 46.015 118.0266 47.1127 118.2065 48.2006 C 118.3696 49.1895 118.6517 50.1307 118.7782 51.1343 C 119.0077 52.9483 119.3636 54.7904 119.2737 56.6349 C 119.2295 57.5358 118.6235 58.1299 118.3971 58.9574 C 118.163 59.8119 117.9496 60.7164 117.9016 61.6466 C 117.7583 64.4055 117.6706 67.2011 117.8254 69.9587 C 117.8772 70.8853 118.3734 71.6224 118.5114 72.5257 C 118.6562 73.4779 118.6844 74.479 118.6639 75.4594 C 118.6463 76.2857 118.564 77.1218 118.3971 77.9041 C 118.2553 78.5678 117.7491 79.7377 117.7491 79.7377 "/>
        <path id="ID0.7519200313836336" fill="none" stroke="#CCCC00" stroke-width="2.0372818938305786" stroke-linecap="round" d="M 116.2246 34.5101 C 116.2246 34.5101 114.7815 38.7236 114.5856 41.0497 C 114.4728 42.3833 115.1131 43.6082 115.3479 44.9002 C 115.5576 46.0517 116.082 47.2129 115.9196 48.3839 C 115.787 49.3398 114.7671 49.4657 114.5856 50.4008 C 114.3692 51.5169 114.745 52.7282 114.8524 53.8846 C 114.9607 55.0495 115.1688 56.1949 115.2336 57.3683 C 115.2961 58.5039 115.2031 59.6517 115.2336 60.791 C 115.3304 64.3957 115.6711 68.0017 115.6147 71.6089 C 115.5819 73.7334 115.2831 75.8407 114.9668 77.9041 C 114.873 78.5141 114.3951 79.5543 114.3951 79.5543 "/>
        <path id="ID0.4806634387932718" fill="none" stroke="#995900" stroke-width="1.8670607754207065" stroke-linecap="round" d="M 112.3999 34.2962 C 112.3999 34.2962 111.0735 38.4569 110.6848 40.6559 C 110.5308 41.5279 110.7084 42.4614 110.7991 43.3506 C 110.899 44.3337 111.0766 45.3016 111.2565 46.261 C 111.4196 47.133 111.7017 47.963 111.8282 48.8479 C 112.0577 50.4476 112.4136 52.072 112.3237 53.6985 C 112.2795 54.4929 111.6735 55.0168 111.4471 55.7465 C 111.213 56.5 110.9996 57.2976 110.9516 58.1179 C 110.8083 60.5508 110.7206 63.0159 110.8754 65.4477 C 110.9272 66.2647 111.4234 66.9147 111.5614 67.7113 C 111.7062 68.551 111.7344 69.4338 111.7139 70.2983 C 111.6963 71.0269 111.614 71.7642 111.4471 72.4541 C 111.3053 73.0394 110.7991 74.0709 110.7991 74.0709 "/>
        <path id="ID0.7519200313836336" fill="none" stroke="#CCCC00" stroke-width="1.8670607754207065" stroke-linecap="round" d="M 109.2746 34.1884 C 109.2746 34.1884 107.8315 37.904 107.6356 39.9552 C 107.5228 41.1312 108.1631 42.2113 108.3979 43.3506 C 108.6076 44.366 109.132 45.39 108.9696 46.4227 C 108.837 47.2656 107.8171 47.3766 107.6356 48.2012 C 107.4192 49.1853 107.795 50.2535 107.9024 51.2732 C 108.0107 52.3005 108.2188 53.3105 108.2836 54.3453 C 108.3461 55.3466 108.2531 56.3588 108.2836 57.3634 C 108.3804 60.5421 108.7211 63.722 108.6647 66.9029 C 108.6319 68.7763 108.3331 70.6346 108.0168 72.4541 C 107.923 72.9919 107.4451 73.9092 107.4451 73.9092 "/>
        <path id="ID0.4806634387932718" fill="none" stroke="#995900" stroke-width="1.6922017242245628" stroke-linecap="round" d="M 105.6499 36.7112 C 105.6499 36.7112 104.3235 40.2714 103.9348 42.153 C 103.7808 42.8991 103.9584 43.6979 104.0491 44.4588 C 104.149 45.3 104.3266 46.1282 104.5065 46.9491 C 104.6696 47.6953 104.9517 48.4054 105.0782 49.1627 C 105.3077 50.5314 105.6636 51.9214 105.5737 53.3132 C 105.5295 53.9929 104.9235 54.4412 104.6971 55.0656 C 104.463 55.7103 104.2496 56.3928 104.2016 57.0947 C 104.0583 59.1764 103.9706 61.2858 104.1254 63.3666 C 104.1772 64.0657 104.6734 64.6219 104.8114 65.3035 C 104.9562 66.022 104.9844 66.7774 104.9639 67.5171 C 104.9463 68.1406 104.864 68.7714 104.6971 69.3617 C 104.5553 69.8626 104.0491 70.7452 104.0491 70.7452 "/>
        <path id="ID0.7519200313836336" fill="none" stroke="#FF9400" stroke-width="1.6922017242245628" stroke-linecap="round" d="M 102.5246 36.619 C 102.5246 36.619 101.0815 39.7982 100.8856 41.5534 C 100.7728 42.5597 101.4131 43.4839 101.6479 44.4588 C 101.8576 45.3276 102.382 46.2038 102.2196 47.0874 C 102.087 47.8087 101.0671 47.9037 100.8856 48.6093 C 100.6692 49.4514 101.045 50.3654 101.1524 51.2379 C 101.2607 52.1169 101.4688 52.9811 101.5336 53.8666 C 101.5961 54.7234 101.5031 55.5895 101.5336 56.4491 C 101.6304 59.1691 101.9711 61.8899 101.9147 64.6117 C 101.8819 66.2147 101.5831 67.8048 101.2668 69.3617 C 101.173 69.822 100.6951 70.6069 100.6951 70.6069 "/>
        <path id="ID0.4806634387932718" fill="none" stroke="#CCCC00" stroke-width="1.944809120850888" stroke-linecap="round" d="M 98.5999 38.0898 C 98.5999 38.0898 97.2735 42.5079 96.8848 44.8428 C 96.7308 45.7688 96.9084 46.76 96.9991 47.7043 C 97.099 48.7481 97.2766 49.776 97.4565 50.7946 C 97.6196 51.7206 97.9017 52.6019 98.0282 53.5416 C 98.2577 55.2402 98.6136 56.9651 98.5237 58.6922 C 98.4795 59.5358 97.8735 60.0921 97.6471 60.8669 C 97.413 61.667 97.1996 62.514 97.1516 63.385 C 97.0083 65.9683 96.9206 68.586 97.0754 71.1682 C 97.1272 72.0358 97.6234 72.7259 97.7614 73.5718 C 97.9062 74.4634 97.9344 75.4008 97.9139 76.3188 C 97.8963 77.0925 97.814 77.8754 97.6471 78.6079 C 97.5053 79.2294 96.9991 80.3248 96.9991 80.3248 "/>
        <path id="ID0.7519200313836336" fill="none" stroke="#995900" stroke-width="1.944809120850888" stroke-linecap="round" d="M 95.4746 37.9754 C 95.4746 37.9754 94.0315 41.9207 93.8356 44.0989 C 93.7228 45.3476 94.3631 46.4945 94.5979 47.7043 C 94.8076 48.7825 95.332 49.8698 95.1696 50.9663 C 95.037 51.8614 94.0171 51.9793 93.8356 52.8549 C 93.6192 53.8999 93.995 55.0342 94.1024 56.1169 C 94.2107 57.2077 94.4188 58.2802 94.4836 59.379 C 94.5461 60.4423 94.4531 61.5171 94.4836 62.5838 C 94.5804 65.9592 94.9211 69.3357 94.8647 72.7134 C 94.8319 74.7026 94.5331 76.6759 94.2168 78.6079 C 94.123 79.1791 93.6451 80.1531 93.6451 80.1531 "/>
        <path id="ID0.4806634387932718" fill="none" stroke="#CCCC00" stroke-width="1.6922017242245628" stroke-linecap="round" d="M 91.8999 33.2112 C 91.8999 33.2112 90.5735 36.7714 90.1848 38.653 C 90.0308 39.3991 90.2084 40.1979 90.2991 40.9588 C 90.399 41.8 90.5766 42.6282 90.7565 43.4491 C 90.9196 44.1953 91.2017 44.9054 91.3282 45.6627 C 91.5577 47.0314 91.9136 48.4214 91.8237 49.8132 C 91.7795 50.4929 91.1735 50.9412 90.9471 51.5656 C 90.713 52.2103 90.4996 52.8928 90.4516 53.5947 C 90.3083 55.6764 90.2206 57.7858 90.3754 59.8666 C 90.4272 60.5657 90.9234 61.1219 91.0614 61.8035 C 91.2062 62.522 91.2344 63.2774 91.2139 64.0171 C 91.1963 64.6406 91.114 65.2714 90.9471 65.8617 C 90.8053 66.3626 90.2991 67.2452 90.2991 67.2452 "/>
        <path id="ID0.7519200313836336" fill="none" stroke="#995900" stroke-width="1.6922017242245628" stroke-linecap="round" d="M 88.7746 33.119 C 88.7746 33.119 87.3315 36.2982 87.1356 38.0534 C 87.0228 39.0597 87.6631 39.9839 87.8979 40.9588 C 88.1076 41.8276 88.632 42.7038 88.4696 43.5874 C 88.337 44.3087 87.3171 44.4037 87.1356 45.1093 C 86.9192 45.9514 87.295 46.8654 87.4024 47.7379 C 87.5107 48.6169 87.7188 49.4811 87.7836 50.3666 C 87.8461 51.2234 87.7531 52.0895 87.7836 52.9491 C 87.8804 55.6691 88.2211 58.3899 88.1647 61.1117 C 88.1319 62.7147 87.8331 64.3048 87.5168 65.8617 C 87.423 66.322 86.9451 67.1069 86.9451 67.1069 "/>
      </g>
      <g id="ID0.09922660375013947">
        <path id="ID0.8346671243198216" fill="#FFFF00" stroke="#FFFF00" stroke-width="2" stroke-linecap="round" d="M 84.7 35.5 C 83.556 35.58 82.231 34.153 81.3 34.9 C 79.615 36.271 79.999 39.329 78.4 40.75 C 77.396 41.64 75.518 41.483 74.4 41.25 C 72.535 39.952 72.721 39.243 72.4 38.25 C 72.224 35.91 72.6 35.149 71.9 34.25 C 69.655 33.723 68.837 33.695 68.15 34.75 C 67.157 36.278 69.243 38.897 67.95 40.15 C 66.622 41.444 64.063 41.143 62.3 40.5 C 61.275 40.048 61.743 38.149 60.95 37.4 C 60.163 36.659 58.922 35.788 57.95 36.15 C 56.698 36.614 56.699 38.536 55.6 39.4 C 54.703 40.099 53.352 40.686 52.3 40.3 C 51.073 39.849 50.167 38.379 49.95 37.15 C 49.652 35.404 50.863 33.641 50.8 31.9 C 50.738 30.37 49.686 28.964 49.8 27.4 C 49.919 25.747 51.088 24.373 51.3 22.65 C 51.412 21.752 50.777 20.951 50.7 20 C 50.602 18.769 50.207 17.408 50.95 16.3 C 51.595 15.356 53.226 15.818 54.2 15.15 C 55.331 14.364 55.958 12.965 57.15 12.25 C 58.106 11.679 59.359 11.871 60.3 11.4 C 61.455 10.696 62.22 9.437 63.3 8.8 C 64.098 8.329 65.214 8.549 65.95 8 C 66.788 7.358 66.826 6.044 67.7 5.65 C 68.669 5.087 69.948 5.724 70.95 5.4 C 71.879 5.101 72.413 3.863 73.3 3.65 C 74.757 3.294 76.321 4.141 77.8 3.8 C 78.819 3.565 79.383 2.338 80.3 1.9 C 81.351 1.388 82.484 1.036 83.6 1 C 84.492 0.972 85.338 1.407 86.2 1.65 C 87.796 2.102 89.358 2.946 90.95 3.15 C 92.33 3.328 93.649 2.349 95.1 2.65 C 96.167 2.872 96.737 4.079 97.8 4.5 C 99.206 5.06 100.879 4.909 102.2 5.65 C 103.108 6.16 103.344 7.398 104.1 8.15 C 105.359 9.245 106.716 10.343 108.2 11.15 C 109.56 11.889 111.214 11.874 112.6 12.65 C 113.764 13.3 114.442 14.642 115.6 15.3 C 116.809 15.986 118.935 15.221 119.6 16.5 C 120.4 18.04 118.731 19.986 118.8 21.65 C 118.857 23.035 119.937 24.179 119.95 25.65 C 119.962 26.782 119.009 27.684 118.95 28.9 C 118.89 30.22 119.802 31.414 119.7 32.8 C 119.622 33.892 118.87 34.795 118.6 35.9 C 118.257 37.281 119.174 39.196 118.2 40.15 C 117.222 41.105 115.396 41.005 114.1 40.4 C 113.116 39.937 113.649 38.04 112.8 37.4 C 112.083 36.859 111.017 37.369 110.1 37.4 C 109.135 37.418 107.863 36.589 107.2 37.3 C 106.371 38.187 107.593 40.224 106.6 40.9 C 105.138 41.895 102.538 42.303 101.3 41.15 C 99.886 39.829 101.714 36.813 100.45 35.4 C 99.506 34.346 96.996 34.292 96.2 35.4 C 95.116 36.916 97.419 39.795 96.1 41 C 94.492 42.464 91.423 42.666 89.6 41.65 C 88.463 41.015 90.312 38.953 90.1 37.65 C 89.906 36.458 89.413 34.973 88.3 34.5 C 87.156 34.013 85.975 35.411 84.7 35.5 Z "/>
        <path id="ID0.4806634387932718" fill="none" stroke="#CCCC00" stroke-width="1.3623144473467341" stroke-linecap="round" d="M 51.3001 16.8933 C 51.3001 16.8933 52.6265 19.1667 53.0152 20.3682 C 53.1692 20.8446 52.9916 21.3547 52.9009 21.8406 C 52.801 22.3777 52.6234 22.9066 52.4435 23.4307 C 52.2804 23.9072 51.9983 24.3607 51.8718 24.8442 C 51.6423 25.7183 51.2864 26.6058 51.3763 27.4946 C 51.4205 27.9286 52.0265 28.2148 52.2529 28.6136 C 52.487 29.0253 52.7004 29.4611 52.7484 29.9093 C 52.8917 31.2386 52.9794 32.5855 52.8246 33.9142 C 52.7728 34.3606 52.2766 34.7158 52.1386 35.151 C 51.9938 35.6098 51.9656 36.0922 51.9861 36.5645 C 52.0037 36.9627 52.086 37.3655 52.2529 37.7424 C 52.3947 38.0622 52.9009 38.6259 52.9009 38.6259 "/>
        <path id="ID0.7519200313836336" fill="none" stroke="#FF9400" stroke-width="1.3623144473467341" stroke-linecap="round" d="M 54.4254 16.8344 C 54.4254 16.8344 55.8685 18.8645 56.0644 19.9853 C 56.1772 20.6279 55.5369 21.218 55.3021 21.8406 C 55.0924 22.3953 54.568 22.9549 54.7304 23.5191 C 54.863 23.9796 55.8829 24.0403 56.0644 24.4909 C 56.2808 25.0286 55.905 25.6122 55.7976 26.1694 C 55.6893 26.7307 55.4812 27.2825 55.4164 27.8479 C 55.3539 28.3951 55.4469 28.9481 55.4164 29.497 C 55.3196 31.2339 54.9789 32.9713 55.0353 34.7093 C 55.0681 35.7329 55.3669 36.7483 55.6832 37.7424 C 55.777 38.0363 56.2549 38.5375 56.2549 38.5375 "/>
        <path id="ID0.4806634387932718" fill="none" stroke="#995900" stroke-width="1.3623144473467341" stroke-linecap="round" d="M 57.4501 13.1933 C 57.4501 13.1933 58.7765 15.4667 59.1652 16.6682 C 59.3192 17.1446 59.1416 17.6547 59.0509 18.1406 C 58.951 18.6777 58.7734 19.2066 58.5935 19.7307 C 58.4304 20.2072 58.1483 20.6607 58.0218 21.1442 C 57.7923 22.0183 57.4364 22.9058 57.5263 23.7946 C 57.5705 24.2286 58.1765 24.5148 58.4029 24.9136 C 58.637 25.3253 58.8504 25.7611 58.8984 26.2093 C 59.0417 27.5386 59.1294 28.8855 58.9746 30.2142 C 58.9228 30.6606 58.4266 31.0158 58.2886 31.451 C 58.1438 31.9098 58.1156 32.3922 58.1361 32.8645 C 58.1537 33.2627 58.236 33.6655 58.4029 34.0424 C 58.5447 34.3622 59.0509 34.9259 59.0509 34.9259 "/>
        <path id="ID0.7519200313836336" fill="none" stroke="#CCCC00" stroke-width="1.3623144473467341" stroke-linecap="round" d="M 60.5754 13.1344 C 60.5754 13.1344 62.0185 15.1645 62.2144 16.2853 C 62.3272 16.9279 61.6869 17.518 61.4521 18.1406 C 61.2424 18.6953 60.718 19.2549 60.8804 19.8191 C 61.013 20.2796 62.0329 20.3403 62.2144 20.7909 C 62.4308 21.3286 62.055 21.9122 61.9476 22.4694 C 61.8393 23.0307 61.6312 23.5825 61.5664 24.1479 C 61.5039 24.6951 61.5969 25.2481 61.5664 25.797 C 61.4696 27.5339 61.1289 29.2713 61.1853 31.0093 C 61.2181 32.0329 61.5169 33.0483 61.8332 34.0424 C 61.927 34.3363 62.4049 34.8375 62.4049 34.8375 "/>
        <path id="ID0.4806634387932718" fill="none" stroke="#995900" stroke-width="1.5234864035522133" stroke-linecap="round" d="M 62.7001 11.2517 C 62.7001 11.2517 64.0265 14.19 64.4152 15.7428 C 64.5692 16.3586 64.3916 17.0178 64.3009 17.6458 C 64.201 18.34 64.0234 19.0236 63.8435 19.7011 C 63.6804 20.3169 63.3983 20.903 63.2718 21.5279 C 63.0423 22.6576 62.6864 23.8047 62.7763 24.9533 C 62.8205 25.5143 63.4265 25.8843 63.6529 26.3996 C 63.887 26.9317 64.1004 27.495 64.1484 28.0743 C 64.2917 29.7923 64.3794 31.5332 64.2246 33.2504 C 64.1728 33.8274 63.6766 34.2864 63.5386 34.849 C 63.3938 35.4419 63.3656 36.0654 63.3861 36.6758 C 63.4037 37.1904 63.486 37.7111 63.6529 38.1982 C 63.7947 38.6116 64.3009 39.34 64.3009 39.34 "/>
        <path id="ID0.7519200313836336" fill="none" stroke="#CCCC00" stroke-width="1.5234864035522133" stroke-linecap="round" d="M 65.8254 11.1756 C 65.8254 11.1756 67.2685 13.7995 67.4644 15.248 C 67.5772 16.0785 66.9369 16.8412 66.7021 17.6458 C 66.4924 18.3629 65.968 19.086 66.1304 19.8152 C 66.263 20.4105 67.2829 20.4889 67.4644 21.0712 C 67.6808 21.7662 67.305 22.5205 67.1976 23.2406 C 67.0893 23.9661 66.8812 24.6793 66.8164 25.4101 C 66.7539 26.1172 66.8469 26.832 66.8164 27.5414 C 66.7196 29.7862 66.3789 32.0317 66.4353 34.2781 C 66.4681 35.601 66.7669 36.9133 67.0832 38.1982 C 67.177 38.5781 67.6549 39.2259 67.6549 39.2259 "/>
        <path id="ID0.4806634387932718" fill="none" stroke="#FF9400" stroke-width="1.5290487853815156" stroke-linecap="round" d="M 68.4001 5.9262 C 68.4001 5.9262 69.7265 8.8859 70.1152 10.4501 C 70.2692 11.0704 70.0916 11.7344 70.0009 12.3669 C 69.901 13.0662 69.7234 13.7548 69.5435 14.4372 C 69.3804 15.0575 69.0983 15.6479 68.9718 16.2774 C 68.7423 17.4153 68.3864 18.5708 68.4763 19.7278 C 68.5205 20.2929 69.1265 20.6656 69.3529 21.1847 C 69.587 21.7206 69.8004 22.288 69.8484 22.8715 C 69.9917 24.6021 70.0794 26.3557 69.9246 28.0855 C 69.8728 28.6667 69.3766 29.129 69.2386 29.6957 C 69.0938 30.293 69.0656 30.9209 69.0861 31.5359 C 69.1037 32.0542 69.186 32.5787 69.3529 33.0694 C 69.4947 33.4857 70.0009 34.2195 70.0009 34.2195 "/>
        <path id="ID0.7519200313836336" fill="none" stroke="#995900" stroke-width="1.5290487853815156" stroke-linecap="round" d="M 71.5254 5.8495 C 71.5254 5.8495 72.9685 8.4925 73.1644 9.9517 C 73.2772 10.7882 72.6369 11.5565 72.4021 12.3669 C 72.1924 13.0892 71.668 13.8177 71.8304 14.5522 C 71.963 15.1518 72.9829 15.2308 73.1644 15.8174 C 73.3808 16.5174 73.005 17.2773 72.8976 18.0026 C 72.7893 18.7333 72.5812 19.4518 72.5164 20.1879 C 72.4539 20.9002 72.5469 21.6202 72.5164 22.3348 C 72.4196 24.596 72.0789 26.8579 72.1353 29.1206 C 72.1681 30.4532 72.4669 31.7751 72.7832 33.0694 C 72.877 33.452 73.3549 34.1045 73.3549 34.1045 "/>
        <path id="ID0.4806634387932718" fill="none" stroke="#FF9400" stroke-width="1.710437983335185" stroke-linecap="round" d="M 74.1501 4.7346 C 74.1501 4.7346 75.4765 8.3591 75.8652 10.2747 C 76.0192 11.0343 75.8416 11.8475 75.7509 12.6222 C 75.651 13.4786 75.4734 14.3218 75.2935 15.1575 C 75.1304 15.9171 74.8483 16.6402 74.7218 17.4111 C 74.4923 18.8046 74.1364 20.2196 74.2263 21.6366 C 74.2705 22.3286 74.8765 22.785 75.1029 23.4207 C 75.337 24.0771 75.5504 24.7719 75.5984 25.4865 C 75.7417 27.6058 75.8294 29.7533 75.6746 31.8717 C 75.6228 32.5835 75.1266 33.1497 74.9886 33.8436 C 74.8438 34.5751 74.8156 35.3441 74.8361 36.0972 C 74.8537 36.732 74.936 37.3742 75.1029 37.9752 C 75.2447 38.4851 75.7509 39.3837 75.7509 39.3837 "/>
        <path id="ID0.7519200313836336" fill="none" stroke="#CCCC00" stroke-width="1.710437983335185" stroke-linecap="round" d="M 77.2754 4.6407 C 77.2754 4.6407 78.7185 7.8774 78.9144 9.6643 C 79.0272 10.6888 78.3869 11.6297 78.1521 12.6222 C 77.9424 13.5067 77.418 14.3988 77.5804 15.2983 C 77.713 16.0326 78.7329 16.1294 78.9144 16.8477 C 79.1308 17.705 78.755 18.6356 78.6476 19.5238 C 78.5393 20.4187 78.3312 21.2986 78.2664 22.2 C 78.2039 23.0723 78.2969 23.954 78.2664 24.8292 C 78.1696 27.5983 77.8289 30.3684 77.8853 33.1393 C 77.9181 34.7713 78.2169 36.3902 78.5332 37.9752 C 78.627 38.4438 79.1049 39.2428 79.1049 39.2428 "/>
        <path id="ID0.4806634387932718" fill="none" stroke="#995900" stroke-width="1.5571573872534457" stroke-linecap="round" d="M 79.4501 3.1485 C 79.4501 3.1485 80.7765 6.2154 81.1652 7.8363 C 81.3192 8.4791 81.1416 9.1671 81.0509 9.8226 C 80.951 10.5473 80.7734 11.2607 80.5935 11.9679 C 80.4304 12.6107 80.1483 13.2225 80.0218 13.8748 C 79.7923 15.0539 79.4364 16.2512 79.5263 17.4502 C 79.5705 18.0358 80.1765 18.4219 80.4029 18.9598 C 80.637 19.5152 80.8504 20.1032 80.8984 20.7078 C 81.0417 22.5011 81.1294 24.3182 80.9746 26.1107 C 80.9228 26.7129 80.4266 27.192 80.2886 27.7792 C 80.1438 28.3981 80.1156 29.0489 80.1361 29.6861 C 80.1537 30.2232 80.236 30.7667 80.4029 31.2752 C 80.5447 31.7066 81.0509 32.467 81.0509 32.467 "/>
        <path id="ID0.7519200313836336" fill="none" stroke="#CCCC00" stroke-width="1.5571573872534457" stroke-linecap="round" d="M 82.5754 3.0691 C 82.5754 3.0691 84.0185 5.8078 84.2144 7.3198 C 84.3272 8.1867 83.6869 8.9828 83.4521 9.8226 C 83.2424 10.5711 82.718 11.3259 82.8804 12.0871 C 83.013 12.7084 84.0329 12.7902 84.2144 13.3981 C 84.4308 14.1235 84.055 14.9109 83.9476 15.6625 C 83.8393 16.4197 83.6312 17.1642 83.5664 17.9269 C 83.5039 18.6651 83.5969 19.4111 83.5664 20.1516 C 83.4696 22.4947 83.1289 24.8386 83.1853 27.1833 C 83.2181 28.5642 83.5169 29.934 83.8332 31.2752 C 83.927 31.6716 84.4049 32.3478 84.4049 32.3478 "/>
        <path id="ID0.4806634387932718" fill="none" stroke="#995900" stroke-width="1.3623144473467341" stroke-linecap="round" d="M 118.2999 16.8433 C 118.2999 16.8433 116.9735 19.1167 116.5848 20.3182 C 116.4308 20.7946 116.6084 21.3047 116.6991 21.7906 C 116.799 22.3277 116.9766 22.8566 117.1565 23.3807 C 117.3196 23.8572 117.6017 24.3107 117.7282 24.7942 C 117.9577 25.6683 118.3136 26.5558 118.2237 27.4446 C 118.1795 27.8786 117.5735 28.1648 117.3471 28.5636 C 117.113 28.9753 116.8996 29.4111 116.8516 29.8593 C 116.7083 31.1886 116.6206 32.5355 116.7754 33.8642 C 116.8272 34.3106 117.3234 34.6658 117.4614 35.101 C 117.6062 35.5598 117.6344 36.0422 117.6139 36.5145 C 117.5963 36.9127 117.514 37.3155 117.3471 37.6924 C 117.2053 38.0122 116.6991 38.5759 116.6991 38.5759 "/>
        <path id="ID0.7519200313836336" fill="none" stroke="#CCCC00" stroke-width="1.3623144473467341" stroke-linecap="round" d="M 115.1746 16.7844 C 115.1746 16.7844 113.7315 18.8145 113.5356 19.9353 C 113.4228 20.5779 114.0631 21.168 114.2979 21.7906 C 114.5076 22.3453 115.032 22.9049 114.8696 23.4691 C 114.737 23.9296 113.7171 23.9903 113.5356 24.4409 C 113.3192 24.9786 113.695 25.5622 113.8024 26.1194 C 113.9107 26.6807 114.1188 27.2325 114.1836 27.7979 C 114.2461 28.3451 114.1531 28.8981 114.1836 29.447 C 114.2804 31.1839 114.6211 32.9213 114.5647 34.6593 C 114.5319 35.6829 114.2331 36.6983 113.9168 37.6924 C 113.823 37.9863 113.3451 38.4875 113.3451 38.4875 "/>
        <path id="ID0.4806634387932718" fill="none" stroke="#FF9400" stroke-width="1.3623144473467341" stroke-linecap="round" d="M 112.0999 13.4433 C 112.0999 13.4433 110.7735 15.7167 110.3848 16.9182 C 110.2308 17.3946 110.4084 17.9047 110.4991 18.3906 C 110.599 18.9277 110.7766 19.4566 110.9565 19.9807 C 111.1196 20.4572 111.4017 20.9107 111.5282 21.3942 C 111.7577 22.2683 112.1136 23.1558 112.0237 24.0446 C 111.9795 24.4786 111.3735 24.7648 111.1471 25.1636 C 110.913 25.5753 110.6996 26.0111 110.6516 26.4593 C 110.5083 27.7886 110.4206 29.1355 110.5754 30.4642 C 110.6272 30.9106 111.1234 31.2658 111.2614 31.701 C 111.4062 32.1598 111.4344 32.6422 111.4139 33.1145 C 111.3963 33.5127 111.314 33.9155 111.1471 34.2924 C 111.0053 34.6122 110.4991 35.1759 110.4991 35.1759 "/>
        <path id="ID0.7519200313836336" fill="none" stroke="#995900" stroke-width="1.3623144473467341" stroke-linecap="round" d="M 108.9746 13.3844 C 108.9746 13.3844 107.5315 15.4145 107.3356 16.5353 C 107.2228 17.1779 107.8631 17.768 108.0979 18.3906 C 108.3076 18.9453 108.832 19.5049 108.6696 20.0691 C 108.537 20.5296 107.5171 20.5903 107.3356 21.0409 C 107.1192 21.5786 107.495 22.1622 107.6024 22.7194 C 107.7107 23.2807 107.9188 23.8325 107.9836 24.3979 C 108.0461 24.9451 107.9531 25.4981 107.9836 26.047 C 108.0804 27.7839 108.4211 29.5213 108.3647 31.2593 C 108.3319 32.2829 108.0331 33.2983 107.7168 34.2924 C 107.623 34.5863 107.1451 35.0875 107.1451 35.0875 "/>
        <path id="ID0.4806634387932718" fill="none" stroke="#CCCC00" stroke-width="1.523486463114449" stroke-linecap="round" d="M 106.9499 11.4017 C 106.9499 11.4017 105.6235 14.34 105.2348 15.8928 C 105.0808 16.5086 105.2584 17.1678 105.3491 17.7958 C 105.449 18.49 105.6266 19.1736 105.8065 19.8511 C 105.9696 20.4669 106.2517 21.053 106.3782 21.6779 C 106.6077 22.8076 106.9636 23.9547 106.8737 25.1033 C 106.8295 25.6643 106.2235 26.0343 105.9971 26.5496 C 105.763 27.0817 105.5496 27.645 105.5016 28.2243 C 105.3583 29.9423 105.2706 31.6832 105.4254 33.4004 C 105.4772 33.9774 105.9734 34.4364 106.1114 34.999 C 106.2562 35.5919 106.2844 36.2154 106.2639 36.8258 C 106.2463 37.3404 106.164 37.8611 105.9971 38.3482 C 105.8553 38.7616 105.3491 39.49 105.3491 39.49 "/>
        <path id="ID0.7519200313836336" fill="none" stroke="#FF9400" stroke-width="1.523486463114449" stroke-linecap="round" d="M 103.8246 11.3256 C 103.8246 11.3256 102.3815 13.9495 102.1856 15.398 C 102.0728 16.2285 102.7131 16.9912 102.9479 17.7958 C 103.1576 18.5129 103.682 19.236 103.5196 19.9652 C 103.387 20.5605 102.3671 20.6389 102.1856 21.2212 C 101.9692 21.9162 102.345 22.6705 102.4524 23.3906 C 102.5607 24.1161 102.7688 24.8293 102.8336 25.5601 C 102.8961 26.2672 102.8031 26.982 102.8336 27.6914 C 102.9304 29.9362 103.2711 32.1818 103.2147 34.4281 C 103.1819 35.751 102.8831 37.0633 102.5668 38.3482 C 102.473 38.7281 101.9951 39.3759 101.9951 39.3759 "/>
        <path id="ID0.4806634387932718" fill="none" stroke="#CCCC00" stroke-width="1.5290487853815156" stroke-linecap="round" d="M 101.1999 6.1762 C 101.1999 6.1762 99.8735 9.1359 99.4848 10.7001 C 99.3308 11.3204 99.5084 11.9844 99.5991 12.6169 C 99.699 13.3162 99.8766 14.0048 100.0565 14.6872 C 100.2196 15.3075 100.5017 15.8979 100.6282 16.5274 C 100.8577 17.6653 101.2136 18.8208 101.1237 19.9778 C 101.0795 20.5429 100.4735 20.9156 100.2471 21.4347 C 100.013 21.9706 99.7996 22.538 99.7516 23.1215 C 99.6083 24.8521 99.5206 26.6057 99.6754 28.3355 C 99.7272 28.9167 100.2234 29.379 100.3614 29.9457 C 100.5062 30.543 100.5344 31.1709 100.5139 31.7859 C 100.4963 32.3042 100.414 32.8287 100.2471 33.3194 C 100.1053 33.7357 99.5991 34.4695 99.5991 34.4695 "/>
        <path id="ID0.7519200313836336" fill="none" stroke="#995900" stroke-width="1.5290487853815156" stroke-linecap="round" d="M 98.0746 6.0995 C 98.0746 6.0995 96.6315 8.7425 96.4356 10.2017 C 96.3228 11.0382 96.9631 11.8065 97.1979 12.6169 C 97.4076 13.3392 97.932 14.0677 97.7696 14.8022 C 97.637 15.4018 96.6171 15.4808 96.4356 16.0674 C 96.2192 16.7674 96.595 17.5273 96.7024 18.2526 C 96.8107 18.9833 97.0188 19.7018 97.0836 20.4379 C 97.1461 21.1502 97.0531 21.8702 97.0836 22.5848 C 97.1804 24.846 97.5211 27.1079 97.4647 29.3706 C 97.4319 30.7032 97.1331 32.0251 96.8168 33.3194 C 96.723 33.702 96.2451 34.3545 96.2451 34.3545 "/>
        <path id="ID0.4806634387932718" fill="none" stroke="#CCCC00" stroke-width="1.710437983335185" stroke-linecap="round" d="M 95.4499 4.9846 C 95.4499 4.9846 94.1235 8.6091 93.7348 10.5247 C 93.5808 11.2843 93.7584 12.0975 93.8491 12.8722 C 93.949 13.7286 94.1266 14.5718 94.3065 15.4075 C 94.4696 16.1671 94.7517 16.8902 94.8782 17.6611 C 95.1077 19.0546 95.4636 20.4696 95.3737 21.8866 C 95.3295 22.5786 94.7235 23.035 94.4971 23.6707 C 94.263 24.3271 94.0496 25.0219 94.0016 25.7365 C 93.8583 27.8558 93.7706 30.0033 93.9254 32.1217 C 93.9772 32.8335 94.4734 33.3997 94.6114 34.0936 C 94.7562 34.8251 94.7844 35.5941 94.7639 36.3472 C 94.7463 36.982 94.664 37.6242 94.4971 38.2252 C 94.3553 38.7351 93.8491 39.6337 93.8491 39.6337 "/>
        <path id="ID0.7519200313836336" fill="none" stroke="#CCCC00" stroke-width="1.710437983335185" stroke-linecap="round" d="M 92.3246 4.8907 C 92.3246 4.8907 90.8815 8.1274 90.6856 9.9143 C 90.5728 10.9388 91.2131 11.8797 91.4479 12.8722 C 91.6576 13.7567 92.182 14.6488 92.0196 15.5483 C 91.887 16.2826 90.8671 16.3794 90.6856 17.0977 C 90.4692 17.955 90.845 18.8856 90.9524 19.7738 C 91.0607 20.6687 91.2688 21.5486 91.3336 22.45 C 91.3961 23.3223 91.3031 24.204 91.3336 25.0792 C 91.4304 27.8483 91.7711 30.6184 91.7147 33.3893 C 91.6819 35.0213 91.3831 36.6402 91.0668 38.2252 C 90.973 38.6938 90.4951 39.4928 90.4951 39.4928 "/>
        <path id="ID0.4806634387932718" fill="none" stroke="#995900" stroke-width="1.5571573872534457" stroke-linecap="round" d="M 90.0999 3.3985 C 90.0999 3.3985 88.7735 6.4654 88.3848 8.0863 C 88.2308 8.7291 88.4084 9.4171 88.4991 10.0726 C 88.599 10.7973 88.7766 11.5107 88.9565 12.2179 C 89.1196 12.8607 89.4017 13.4725 89.5282 14.1248 C 89.7577 15.3039 90.1136 16.5012 90.0237 17.7002 C 89.9795 18.2858 89.3735 18.6719 89.1471 19.2098 C 88.913 19.7652 88.6996 20.3532 88.6516 20.9578 C 88.5083 22.7511 88.4206 24.5682 88.5754 26.3607 C 88.6272 26.9629 89.1234 27.442 89.2614 28.0292 C 89.4062 28.6481 89.4344 29.2989 89.4139 29.9361 C 89.3963 30.4732 89.314 31.0167 89.1471 31.5252 C 89.0053 31.9566 88.4991 32.717 88.4991 32.717 "/>
        <path id="ID0.7519200313836336" fill="none" stroke="#FF9400" stroke-width="1.5571573872534457" stroke-linecap="round" d="M 86.9746 3.3191 C 86.9746 3.3191 85.5315 6.0578 85.3356 7.5698 C 85.2228 8.4367 85.8631 9.2328 86.0979 10.0726 C 86.3076 10.8211 86.832 11.5759 86.6696 12.3371 C 86.537 12.9584 85.5171 13.0402 85.3356 13.6481 C 85.1192 14.3735 85.495 15.1609 85.6024 15.9125 C 85.7107 16.6697 85.9188 17.4142 85.9836 18.1769 C 86.0461 18.9151 85.9531 19.6611 85.9836 20.4016 C 86.0804 22.7447 86.4211 25.0886 86.3647 27.4333 C 86.3319 28.8142 86.0331 30.184 85.7168 31.5252 C 85.623 31.9216 85.1451 32.5978 85.1451 32.5978 "/>
      </g>
    </g>
  </g>
</svg>