<svg xmlns="http://www.w3.org/2000/svg" xmlns:xlink="http://www.w3.org/1999/xlink" version="1.1" width="319.2620036868557" height="223.6290080813869" viewBox="-0.5000051393262624 -0.5000051393262624 319.2620036868557 223.6290080813869">
  <!-- Exported by Scratch - http://scratch.mit.edu/ -->
  <path id="ID0.8263562181964517" fill="#FFFFFF" d="M 118.886 28.629 L 150.344 28.629 L 150.344 82.629 L 118.886 82.629 L 118.886 28.629 Z " stroke-width="1"/>
  <path id="ID0.4082290902733803" fill="#FFFFFF" d="M 209.636 62.504 L 199.261 60.004 L 199.261 44.629 L 175.011 44.629 L 175.011 82.629 L 209.636 82.629 L 209.636 62.504 " stroke-width="1"/>
  <path id="ID0.7785341748967767" fill="#FFFFFF" d="M 215.381 139.117 C 218.866 139.117 222.024 140.532 224.310 142.819 C 226.597 145.105 228.012 148.263 228.012 151.748 C 228.012 155.233 226.597 158.391 224.310 160.677 C 222.024 162.964 218.866 164.379 215.381 164.379 C 211.896 164.379 208.738 162.964 206.452 160.677 C 204.165 158.391 202.750 155.233 202.750 151.748 C 202.750 148.263 204.165 145.105 206.452 142.819 C 208.738 140.532 211.896 139.117 215.381 139.117 Z " stroke-width="1"/>
  <path id="ID0.026333991438150406" fill="#FFFFFF" d="M 262.131 197.367 C 265.616 197.367 268.774 198.782 271.060 201.069 C 273.347 203.355 274.762 206.513 274.762 209.998 C 274.762 213.483 273.347 216.641 271.060 218.927 C 268.774 221.214 265.616 222.629 262.131 222.629 C 258.646 222.629 255.488 221.214 253.202 218.927 C 250.915 216.641 249.500 213.483 249.500 209.998 C 249.500 206.513 250.915 203.355 253.202 201.069 C 255.488 198.782 258.646 197.367 262.131 197.367 Z " stroke-width="1"/>
  <path id="ID0.9047424858435988" fill="#FFFFFF" d="M 289.881 189.617 C 293.366 189.617 296.524 191.032 298.810 193.319 C 301.097 195.605 302.512 198.763 302.512 202.248 C 302.512 205.733 301.097 208.891 298.810 211.177 C 296.524 213.464 293.366 214.879 289.881 214.879 C 286.396 214.879 283.238 213.464 280.952 211.177 C 278.665 208.891 277.250 205.733 277.250 202.248 C 277.250 198.763 278.665 195.605 280.952 193.319 C 283.238 191.032 286.396 189.617 289.881 189.617 Z " stroke-width="1"/>
  <path id="ID0.02850190130993724" fill="#FFFFFF" d="M 305.631 165.571 C 309.116 165.571 312.274 166.986 314.560 169.273 C 316.847 171.559 318.262 174.717 318.262 178.202 C 318.262 181.687 316.847 184.845 314.560 187.131 C 312.274 189.418 309.116 190.833 305.631 190.833 C 302.146 190.833 298.988 189.418 296.702 187.131 C 294.415 184.845 293 181.687 293 178.202 C 293 174.717 294.415 171.559 296.702 169.273 C 298.988 166.986 302.146 165.571 305.631 165.571 Z " stroke-width="1"/>
  <path id="ID0.6613430269062519" fill="#FFFFFF" d="M 175.011 107.379 L 198.011 107.379 L 198.011 125.879 L 175.011 125.879 L 175.011 107.379 Z " stroke-width="1"/>
  <path id="ID0.22125735972076654" fill="#FFFFFF" d="M 214.761 63.629 L 233.761 63.629 L 233.761 82.629 L 214.761 82.629 L 214.761 63.629 Z " stroke-width="1"/>
  <path id="ID0.8736665793694556" fill="#FFFFFF" d="M 179.761 186.636 L 198.761 186.636 L 198.761 205.636 L 179.761 205.636 L 179.761 186.636 Z " stroke-width="1"/>
  <path id="ID0.33005119021981955" fill="#FFFFFF" d="M 127.115 186.636 L 146.115 186.636 L 146.115 205.636 L 127.115 205.636 L 127.115 186.636 Z " stroke-width="1"/>
  <path id="ID0.3900517816655338" fill="#FFFFFF" d="M 51.960 178.723 L 38.638 178.168 L 33.560 177.956 L 13.160 177.107 L 12.062 203.499 L 37.540 204.560 L 37.848 197.151 L 51.170 197.706 L 51.960 178.723 " stroke-width="1"/>
  <path id="ID0.2928139977157116" fill="#FFFFFF" d="M 237.761 73.129 L 255.261 73.129 L 255.261 82.629 L 237.761 82.629 L 237.761 73.129 Z " stroke-width="1"/>
  <path id="ID0.9947213977575302" fill="#FFFFFF" d="M 120.511 107.338 L 115.011 107.338 L 103.011 107.338 L 103.011 116.838 L 103.011 121.379 L 115.011 121.379 L 115.011 116.838 L 120.511 116.838 L 120.511 107.338 " stroke-width="1"/>
  <path id="ID0.32791104167699814" fill="#FFFFFF" d="M 231.261 122.629 L 202.261 122.629 L 202.261 107.379 L 233.449 107.379 L 231.261 122.629 " stroke-width="1"/>
  <path id="ID0.326180343516171" fill="#FFFFFF" d="M 175.011 130.629 L 191.261 130.629 L 191.261 148.607 L 175.011 148.607 L 175.011 130.629 Z " stroke-width="1"/>
  <path id="ID0.4617359326221049" fill="#FFFFFF" d="M 185.640 154.013 L 185.640 152.125 L 175.011 152.125 L 175.011 161.975 L 191.025 163.464 L 191.851 154.591 L 185.640 154.013 " stroke-width="1"/>
  <path id="ID0.9757689973339438" fill="#FFFFFF" d="M 142.845 107.379 L 124.845 107.379 L 124.845 132.212 L 150.345 132.212 L 150.345 114.879 L 142.845 107.379 " stroke-width="1"/>
  <path id="ID0.8102724556811154" fill="#FFFFFF" d="M 257.139 0 L 239.745 4.633 L 246.137 28.629 L 270.777 22.065 L 266.316 5.316 L 257.139 0 " stroke-width="1"/>
  <path id="ID0.923759943805635" fill="#FFFFFF" d="M 96.582 154.3418 L 88.784 153.5929 L 90.4809 135.9245 L 98.2789 136.6735 L 96.582 154.3418 Z " stroke-width="0.999980271436504"/>
  <path id="ID0.83846431132406" fill="#FFFFFF" d="M 84.8779 153.1907 L 77.0799 152.4417 L 78.7768 134.7734 L 86.5748 135.5223 L 84.8779 153.1907 Z " stroke-width="0.999980271436504"/>
  <path id="ID0.2521046930924058" fill="#FFFFFF" d="M 73.1248 152.0396 L 65.3268 151.2907 L 67.0237 133.6223 L 74.8217 134.3713 L 73.1248 152.0396 Z " stroke-width="0.999980271436504"/>
  <path id="ID0.696639811154455" fill="#FFFFFF" d="M 149.011 152.083 L 149.011 141.629 L 150.345 141.629 L 150.345 135.925 L 130.761 135.925 L 130.761 141.629 L 132.261 141.629 L 132.261 152.083 L 130.761 152.083 L 130.761 157.047 L 150.345 157.047 L 150.345 152.083 L 149.011 152.083 " stroke-width="1"/>
  <path id="ID0.6800069310702384" fill="#FFFFFF" d="M 101.6268 142.1978 L 117.4494 143.4885 L 116.3804 156.5941 L 100.5578 155.3034 L 101.6268 142.1978 Z " stroke-width="1.000010278652525"/>
  <path id="ID0.598899784963578" fill="#FFFFFF" d="M 79.261 107.379 L 98.371 107.379 L 98.371 125.879 L 79.261 125.879 L 79.261 107.379 Z " stroke-width="1"/>
  <path id="ID0.5329046556726098" fill="#FFFFFF" d="M 83.511 63.879 L 95.121 63.879 L 95.121 82.379 L 83.511 82.379 L 83.511 63.879 Z " stroke-width="1"/>
  <path id="ID0.3928860817104578" fill="#FFFFFF" d="M 83.511 43.379 L 95.121 43.379 L 95.121 60.879 L 83.511 60.879 L 83.511 43.379 Z " stroke-width="1"/>
  <path id="ID0.8581672795116901" fill="#FFFFFF" d="M 83.511 28.629 L 95.121 28.629 L 95.121 40.129 L 83.511 40.129 L 83.511 28.629 Z " stroke-width="1"/>
  <path id="ID0.06383021548390388" fill="#FFFFFF" d="M 28.011 30.748 L 14.005 30.748 C 6.271 30.748 0 37.019 0 44.754 C 0 48.500 1.479 51.895 3.875 54.407 L 10.262 54.407 L 10.262 56.754 L 23.262 56.754 L 23.262 54.407 L 28.012 54.407 L 28.012 30.748 Z " stroke-width="1"/>
  <path id="ID0.896105321124196" fill="#FFFFFF" d="M 47.803 28.629 L 47.803 30.748 L 31.761 30.748 L 31.761 52.748 L 47.803 52.748 L 47.803 82.629 L 79.261 82.629 L 79.261 28.629 L 47.803 28.629 " stroke-width="1"/>
  <path id="ID0.7740230802446604" fill="#FFFFFF" d="M 20.845 61.191 L 42.178 61.191 L 42.178 82.379 L 20.845 82.379 L 20.845 61.191 Z " stroke-width="1"/>
  <path id="ID0.7763457116670907" fill="#FFFFFF" d="M 4.511 68.045 L 17.005 68.045 L 17.005 82.379 L 4.511 82.379 L 4.511 68.045 Z " stroke-width="1"/>
</svg>