<svg xmlns="http://www.w3.org/2000/svg" xmlns:xlink="http://www.w3.org/1999/xlink" version="1.1" width="31.998066544532776" height="32.208868622779846" viewBox="-0.04473376274108887 0.5570662617683411 31.998066544532776 32.208868622779846">
  <!-- Exported by Scratch - http://scratch.mit.edu/ -->
  <g id="ID0.5719911437481642">
    <path id="ID0.6101126782596111" fill="#FF9999" stroke="none" stroke-linecap="round" d="M 10.7613 15.4169 L 20.756 8.7877 L 22.9487 9.1957 L 25.0394 10.8275 L 26.1613 13.8361 L 25.7023 16.1818 L 15.6056 22.8109 L 10.7613 15.4169 Z " stroke-width="1.0198675394058228"/>
    <path id="ID0.6101126782596111" fill="#003AED" stroke="none" stroke-linecap="round" d="M 1.25 21.65 L 15.05 12.55 L 18.25 13.25 L 20.9 16.85 L 20.4 19.75 L 6.3 29.2 L 4.45 27.15 L 2.7 24.75 L 1.25 21.65 Z " stroke-width="1"/>
    <path id="ID0.9679078832268715" fill="none" stroke="#000000" d="M 15.9543 1.067 C 20.2277 1.067 24.0997 2.8142 26.9039 5.6372 C 29.7075 8.4602 31.4434 12.3592 31.4434 16.6615 C 31.4434 20.9639 29.7075 24.8628 26.9039 27.6858 C 24.0997 30.5089 20.2277 32.256 15.9543 32.256 C 11.6809 32.256 7.8089 30.5089 5.0047 27.6858 C 2.2011 24.8628 0.4652 20.9639 0.4652 16.6615 C 0.4652 12.3592 2.2011 8.4602 5.0047 5.6372 C 7.8089 2.8142 11.6809 1.067 15.9543 1.067 Z " stroke-width="0.5557659794319162"/>
    <path id="ID0.4761216132901609" fill="none" stroke="#000000" stroke-width="1" stroke-linecap="round" d="M 17.9 13.7 L 2.55 24.15 "/>
    <path id="ID0.4761216132901609" fill="none" stroke="#000000" stroke-width="1" stroke-linecap="round" d="M 20.4 16.95 L 5.05 27.4 "/>
  </g>
</svg>