<svg xmlns="http://www.w3.org/2000/svg" xmlns:xlink="http://www.w3.org/1999/xlink" version="1.1" width="159.49449157714844" height="274.9674072265625" viewBox="0.07759523391723633 -0.7798999547958374 159.49449157714844 274.9674072265625">
  <defs>
    <radialGradient id="grad_1" cx="0.1586" cy="0.2924" r="1.09382">
      <stop offset="0" stop-color="#9B8579" stop-opacity="1"/>
      <stop offset="1" stop-color="#C2B59B" stop-opacity="1"/>
    </radialGradient>
    <radialGradient id="grad_2" cx="0.1491" cy="0.2408" r="1.10617">
      <stop offset="0" stop-color="#9B8579" stop-opacity="1"/>
      <stop offset="1" stop-color="#C2B59B" stop-opacity="1"/>
    </radialGradient>
    <radialGradient id="grad_3" cx="0.6743000000000001" cy="0.2923" r="0.92001">
      <stop offset="0" stop-color="#594A42" stop-opacity="1"/>
      <stop offset="1" stop-color="#726658" stop-opacity="1"/>
    </radialGradient>
    <radialGradient id="grad_4" cx="0.7051000000000001" cy="0.257" r="0.9659">
      <stop offset="0" stop-color="#594A42" stop-opacity="1"/>
      <stop offset="1" stop-color="#726658" stop-opacity="1"/>
    </radialGradient>
    <radialGradient id="grad_5" cx="0.3121" cy="0.1962" r="1.04494">
      <stop offset="0" stop-color="#9B8579" stop-opacity="1"/>
      <stop offset="1" stop-color="#C2B59B" stop-opacity="1"/>
    </radialGradient>
    <radialGradient id="grad_6" cx="0.3044" cy="0.11689999999999999" r="1.1480299999999999">
      <stop offset="0" stop-color="#9B8579" stop-opacity="1"/>
      <stop offset="1" stop-color="#C2B59B" stop-opacity="1"/>
    </radialGradient>
    <radialGradient id="grad_7" cx="0.2637" cy="0.3751" r="0.95719">
      <stop offset="0" stop-color="#594A42" stop-opacity="1"/>
      <stop offset="1" stop-color="#726658" stop-opacity="1"/>
    </radialGradient>
    <radialGradient id="grad_8" cx="0.235" cy="0.35960000000000003" r="0.9945">
      <stop offset="0" stop-color="#594A42" stop-opacity="1"/>
      <stop offset="1" stop-color="#726658" stop-opacity="1"/>
    </radialGradient>
    <radialGradient id="grad_9" cx="0.6081" cy="0.1003" r="1.16961">
      <stop offset="0" stop-color="#C2B59B" stop-opacity="1"/>
      <stop offset="1" stop-color="#9B8579" stop-opacity="1"/>
    </radialGradient>
    <radialGradient id="grad_10" cx="0.6081" cy="0.0464" r="1.2396800000000001">
      <stop offset="0" stop-color="#C2B59B" stop-opacity="1"/>
      <stop offset="1" stop-color="#9B8579" stop-opacity="1"/>
    </radialGradient>
    <radialGradient id="grad_11" cx="0.4337" cy="0.1699" r="1.07913">
      <stop offset="0" stop-color="#594A42" stop-opacity="1"/>
      <stop offset="1" stop-color="#726658" stop-opacity="1"/>
    </radialGradient>
    <radialGradient id="grad_12" cx="0.3812" cy="0.1618" r="1.0896599999999999">
      <stop offset="0" stop-color="#594A42" stop-opacity="1"/>
      <stop offset="1" stop-color="#726658" stop-opacity="1"/>
    </radialGradient>
    <radialGradient id="grad_13" cx="0.4174" cy="0.1003" r="1.16961">
      <stop offset="0" stop-color="#C2B59B" stop-opacity="1"/>
      <stop offset="1" stop-color="#9B8579" stop-opacity="1"/>
    </radialGradient>
    <radialGradient id="grad_14" cx="0.4226" cy="0.0371" r="1.25177">
      <stop offset="0" stop-color="#C2B59B" stop-opacity="1"/>
      <stop offset="1" stop-color="#9B8579" stop-opacity="1"/>
    </radialGradient>
    <radialGradient id="grad_15" cx="0.6602" cy="0.22149999999999997" r="1.01205">
      <stop offset="0" stop-color="#594A42" stop-opacity="1"/>
      <stop offset="1" stop-color="#726658" stop-opacity="1"/>
    </radialGradient>
    <radialGradient id="grad_16" cx="0.7541" cy="0.1889" r="1.05443">
      <stop offset="0" stop-color="#594A42" stop-opacity="1"/>
      <stop offset="1" stop-color="#726658" stop-opacity="1"/>
    </radialGradient>
    <radialGradient id="grad_17" cx="0.5193" cy="0.9002" r="1.1702599999999999">
      <stop offset="0" stop-color="#9B8579" stop-opacity="1"/>
      <stop offset="1" stop-color="#C2B59B" stop-opacity="1"/>
    </radialGradient>
    <radialGradient id="grad_18" cx="0.5465" cy="0.946" r="1.2298">
      <stop offset="0" stop-color="#9B8579" stop-opacity="1"/>
      <stop offset="1" stop-color="#C2B59B" stop-opacity="1"/>
    </radialGradient>
    <radialGradient id="grad_19" cx="0.4569" cy="0.2723" r="0.94601">
      <stop offset="0" stop-color="#594A42" stop-opacity="1"/>
      <stop offset="1" stop-color="#726658" stop-opacity="1"/>
    </radialGradient>
    <radialGradient id="grad_20" cx="0.4347" cy="0.0103" r="1.28661">
      <stop offset="0" stop-color="#594A42" stop-opacity="1"/>
      <stop offset="1" stop-color="#726658" stop-opacity="1"/>
    </radialGradient>
    <radialGradient id="grad_21" cx="0.4304" cy="0.7743000000000001" r="1.00659">
      <stop offset="0" stop-color="#594A42" stop-opacity="1"/>
      <stop offset="1" stop-color="#726658" stop-opacity="1"/>
    </radialGradient>
    <radialGradient id="grad_22" cx="0.4277" cy="0.7193999999999999" r="0.93522">
      <stop offset="0" stop-color="#594A42" stop-opacity="1"/>
      <stop offset="1" stop-color="#726658" stop-opacity="1"/>
    </radialGradient>
    <radialGradient id="grad_23" cx="0.6476999999999999" cy="0.9367" r="1.21771">
      <stop offset="0" stop-color="#9B8579" stop-opacity="1"/>
      <stop offset="1" stop-color="#C2B59B" stop-opacity="1"/>
    </radialGradient>
    <radialGradient id="grad_24" cx="0.6476999999999999" cy="0.9901000000000001" r="1.2871300000000003">
      <stop offset="0" stop-color="#9B8579" stop-opacity="1"/>
      <stop offset="1" stop-color="#C2B59B" stop-opacity="1"/>
    </radialGradient>
    <radialGradient id="grad_25" cx="0.4739" cy="0.4458" r="0.7204600000000001">
      <stop offset="0" stop-color="#594A42" stop-opacity="1"/>
      <stop offset="1" stop-color="#726658" stop-opacity="1"/>
    </radialGradient>
    <radialGradient id="grad_26" cx="0.4515" cy="0.0933" r="1.17871">
      <stop offset="0" stop-color="#594A42" stop-opacity="1"/>
      <stop offset="1" stop-color="#726658" stop-opacity="1"/>
    </radialGradient>
  <radialGradient id="grad_1-.044956922531128,0,0,1.044956922531128,-196.5,-278.5" cx="136.4336" cy="187.1737" r="25.9422" gradientUnits="userSpaceOnUse">
      <stop offset="0" stop-color="#9B8579" stop-opacity="1"/>
      <stop offset="1" stop-color="#C2B59B" stop-opacity="1"/>
    </radialGradient><radialGradient id="grad_3-.044956922531128,0,0,1.044956922531128,-196.5,-278.5" cx="131.8928" cy="159.4685" r="39.6993" gradientUnits="userSpaceOnUse">
      <stop offset="0" stop-color="#594A42" stop-opacity="1"/>
      <stop offset="1" stop-color="#726658" stop-opacity="1"/>
    </radialGradient><radialGradient id="grad_5-.044956922531128,0,0,1.044956922531128,-196.5,-278.5" cx="35.3162" cy="190.6404" r="25.1091" gradientUnits="userSpaceOnUse">
      <stop offset="0" stop-color="#9B8579" stop-opacity="1"/>
      <stop offset="1" stop-color="#C2B59B" stop-opacity="1"/>
    </radialGradient><radialGradient id="grad_7-.044956922531128,0,0,1.044956922531128,-196.5,-278.5" cx="47.7171" cy="165.5143" r="41.408" gradientUnits="userSpaceOnUse">
      <stop offset="0" stop-color="#594A42" stop-opacity="1"/>
      <stop offset="1" stop-color="#726658" stop-opacity="1"/>
    </radialGradient><radialGradient id="grad_9-.044956922531128,0,0,1.044956922531128,-196.65,-278.5" cx="59.8556" cy="248.8586" r="45.3181" gradientUnits="userSpaceOnUse">
      <stop offset="0" stop-color="#C2B59B" stop-opacity="1"/>
      <stop offset="1" stop-color="#9B8579" stop-opacity="1"/>
    </radialGradient><radialGradient id="grad_11-.044956922531128,0,0,1.044956922531128,-196.65,-278.5" cx="68.4981" cy="218.4684" r="44.3501" gradientUnits="userSpaceOnUse">
      <stop offset="0" stop-color="#594A42" stop-opacity="1"/>
      <stop offset="1" stop-color="#726658" stop-opacity="1"/>
    </radialGradient><radialGradient id="grad_13-.044956922531128,0,0,1.044956922531128,-196.15,-291" cx="128.2765" cy="236.3577" r="45.3176" gradientUnits="userSpaceOnUse">
      <stop offset="0" stop-color="#C2B59B" stop-opacity="1"/>
      <stop offset="1" stop-color="#9B8579" stop-opacity="1"/>
    </radialGradient><radialGradient id="grad_15-.044956922531128,0,0,0.8225871920585632,-196.55,-175.15" cx="119.5815" cy="218.3226" r="37.4296" gradientUnits="userSpaceOnUse">
      <stop offset="0" stop-color="#594A42" stop-opacity="1"/>
      <stop offset="1" stop-color="#726658" stop-opacity="1"/>
    </radialGradient><radialGradient id="grad_17-.044956922531128,0,0,1.044956922531128,-196.65,-278.5" cx="142.2926" cy="82.4335" r="36.6615" gradientUnits="userSpaceOnUse">
      <stop offset="0" stop-color="#9B8579" stop-opacity="1"/>
      <stop offset="1" stop-color="#C2B59B" stop-opacity="1"/>
    </radialGradient><radialGradient id="grad_19-.044956922531128,0,0,1.044956922531128,-196.65,-278.5" cx="89.9083" cy="162.4796" r="71.45" gradientUnits="userSpaceOnUse">
      <stop offset="0" stop-color="#594A42" stop-opacity="1"/>
      <stop offset="1" stop-color="#726658" stop-opacity="1"/>
    </radialGradient><radialGradient id="grad_21-.7776002287864685,0,0,1.044956922531128,-120.3,-277.85" cx="49.56" cy="232.8186" r="77.2575" gradientUnits="userSpaceOnUse">
      <stop offset="0" stop-color="#594A42" stop-opacity="1"/>
      <stop offset="1" stop-color="#726658" stop-opacity="1"/>
    </radialGradient><radialGradient id="grad_23-.044956922531128,0,0,1.044956922531128,-196.65,-278.5" cx="16.8016" cy="96.627" r="36.0757" gradientUnits="userSpaceOnUse">
      <stop offset="0" stop-color="#9B8579" stop-opacity="1"/>
      <stop offset="1" stop-color="#C2B59B" stop-opacity="1"/>
    </radialGradient><radialGradient id="grad_25-.044956922531128,0,0,1.044956922531128,-196.65,-278.5" cx="77.9019" cy="68.85" r="102.9313" gradientUnits="userSpaceOnUse">
      <stop offset="0" stop-color="#594A42" stop-opacity="1"/>
      <stop offset="1" stop-color="#726658" stop-opacity="1"/>
    </radialGradient></defs>
  <!-- Exported by Scratch - http://scratch.mit.edu/ -->
  <g id="ID0.078402787912637">
    <path id="Hand_1_" fill="url(#grad_1-.044956922531128,0,0,1.044956922531128,-196.5,-278.5)" stroke="url(#grad_2)" stroke-width="2.089913845062256" d="M 133.7513 187.2707 C 133.7513 187.2707 130.3333 198.7141 134.5225 199.7245 C 138.7107 200.7371 138.9291 193.9449 138.9291 193.9449 C 138.9291 193.9449 146.7046 207.6432 154.8668 201.0391 C 163.0289 194.4371 150.5396 182.5486 150.5396 182.5486 C 150.5396 182.5486 146.4841 179.9487 141.6878 180.9164 C 136.8987 181.8809 133.7513 187.2707 133.7513 187.2707 L 133.7513 187.2707 L 133.7513 187.2707 L 133.7513 187.2707 L 133.7513 187.2707 L 133.7513 187.2707 L 133.7513 187.2707 L 133.7513 187.2707 L 133.7513 187.2707 L 133.7513 187.2707 L 133.7513 187.2707 L 133.7513 187.2707 L 133.7513 187.2707 Z "/>
    <path id="Arm_1_" fill="url(#grad_3-.044956922531128,0,0,1.044956922531128,-196.5,-278.5)" stroke="url(#grad_4)" stroke-width="2.089913845062256" d="M 107.7935 158.1332 C 110.9984 158.6619 123.145 160.7665 128.0375 167.6046 C 134.2153 176.2444 136.3094 182.9937 136.3115 183.069 C 136.4933 188.8016 146.6774 191.763 146.6774 181.767 L 146.6774 181.767 C 146.6262 181.3322 145.2772 171.0321 135.7691 160.5742 C 124.9465 148.6753 108.8469 147.2447 104.1655 147.5916 C 104.1655 147.5916 100.9553 148.041 101.3117 151.7004 C 101.6617 155.3567 107.7935 158.1332 107.7935 158.1332 L 107.7935 158.1332 L 107.7935 158.1332 L 107.7935 158.1332 L 107.7935 158.1332 L 107.7935 158.1332 L 107.7935 158.1332 L 107.7935 158.1332 L 107.7935 158.1332 L 107.7935 158.1332 L 107.7935 158.1332 L 107.7935 158.1332 L 107.7935 158.1332 Z "/>
    <path id="Hand" fill="url(#grad_5-.044956922531128,0,0,1.044956922531128,-196.5,-278.5)" stroke="url(#grad_6)" stroke-width="2.089913845062256" d="M 41.6321 186.1892 C 36.7553 185.7994 33.0384 188.8633 33.0384 188.8633 C 33.0384 188.8633 22.0517 202.1541 30.9411 207.7373 C 39.8306 213.3257 45.9216 198.7977 45.9216 198.7977 C 45.9216 198.7977 46.9447 205.5167 50.9845 204.0141 C 55.0243 202.5114 50.2697 191.5561 50.2697 191.5561 C 50.2697 191.5561 46.5037 186.579 41.6321 186.1892 L 41.6321 186.1892 L 41.6321 186.1892 L 41.6321 186.1892 L 41.6321 186.1892 L 41.6321 186.1892 L 41.6321 186.1892 L 41.6321 186.1892 L 41.6321 186.1892 L 41.6321 186.1892 L 41.6321 186.1892 L 41.6321 186.1892 L 41.6321 186.1892 Z "/>
    <path id="Arm" fill="url(#grad_7-.044956922531128,0,0,1.044956922531128,-196.5,-278.5)" stroke="url(#grad_8)" stroke-width="2.089913845062256" d="M 78.2505 152.3817 C 78.169 148.7056 74.9276 148.6429 74.9276 148.6429 C 70.2388 148.855 54.4234 152.1884 45.093 165.289 C 36.8953 176.8045 36.7804 187.1903 36.7814 187.6292 L 36.7814 187.6292 C 37.9706 197.5542 47.7294 193.4046 47.2289 187.6908 C 47.2226 187.6156 48.4975 180.6635 53.6063 171.3508 C 57.6492 163.9807 69.4593 160.4456 72.5795 159.5397 C 72.5785 159.5386 78.3362 156.0527 78.2505 152.3817 L 78.2505 152.3817 L 78.2505 152.3817 L 78.2505 152.3817 L 78.2505 152.3817 L 78.2505 152.3817 L 78.2505 152.3817 L 78.2505 152.3817 L 78.2505 152.3817 L 78.2505 152.3817 L 78.2505 152.3817 L 78.2505 152.3817 L 78.2505 152.3817 Z "/>
    <path id="Foot_1_" fill="url(#grad_9-.044956922531128,0,0,1.044956922531128,-196.65,-278.5)" stroke="url(#grad_10)" stroke-width="2.089913845062256" stroke-linecap="round" stroke-linejoin="round" d="M 78.6 265.7982 C 78.6 265.7982 75.4547 245.34 52.4792 246.2826 C 29.5027 247.2272 30.3366 260.7406 30.6031 264.2224 C 31.2342 272.4044 42.2501 272.2498 42.2501 272.2498 L 78.7588 268.4743 L 78.6 265.7982 L 78.6 265.7982 L 78.6 265.7982 L 78.6 265.7982 L 78.6 265.7982 L 78.6 265.7982 L 78.6 265.7982 L 78.6 265.7982 L 78.6 265.7982 L 78.6 265.7982 L 78.6 265.7982 L 78.6 265.7982 L 78.6 265.7982 Z "/>
    <path id="Leg_1_" fill="url(#grad_11-.044956922531128,0,0,1.044956922531128,-196.65,-278.5)" stroke="url(#grad_12)" stroke-width="2.089913845062256" d="M 69.7597 263.1691 C 66.5161 261.1858 64.2214 256.1689 63.12 252.0215 C 61.4439 245.7068 60.3446 241.2469 62.0751 229.9165 C 63.0751 223.375 67.7408 214.3383 67.7408 214.3383 C 67.7408 214.3383 71.1307 206.7414 76.7107 209.7007 C 79.67 211.287 76.7107 220.003 76.7107 220.003 C 76.7107 220.003 74.3669 227.2581 73.7211 238.8853 C 73.2509 247.384 78.3377 258.7395 77.0524 263.3415 C 76.5697 265.072 73.0064 265.1556 69.7597 263.1691 L 69.7597 263.1691 L 69.7597 263.1691 L 69.7597 263.1691 L 69.7597 263.1691 L 69.7597 263.1691 L 69.7597 263.1691 L 69.7597 263.1691 L 69.7597 263.1691 L 69.7597 263.1691 L 69.7597 263.1691 L 69.7597 263.1691 L 69.7597 263.1691 Z "/>
    <path id="Foot" fill="url(#grad_13-.044956922531128,0,0,1.044956922531128,-196.15,-291)" stroke="url(#grad_14)" stroke-width="2.089913845062256" stroke-linecap="round" stroke-linejoin="round" d="M 108.1435 255.9733 L 144.6512 259.7487 C 144.6512 259.7487 155.6661 259.9034 156.2983 251.7214 C 156.5658 248.2396 157.3986 234.7262 134.4211 233.7815 C 111.4456 232.839 108.3003 253.2972 108.3003 253.2972 L 108.1435 255.9733 L 108.1435 255.9733 L 108.1435 255.9733 L 108.1435 255.9733 L 108.1435 255.9733 L 108.1435 255.9733 L 108.1435 255.9733 L 108.1435 255.9733 L 108.1435 255.9733 L 108.1435 255.9733 L 108.1435 255.9733 L 108.1435 255.9733 L 108.1435 255.9733 Z "/>
    <path id="Leg" fill="url(#grad_15-.044956922531128,0,0,0.8225871920585632,-196.55,-175.15)" stroke="url(#grad_16)" stroke-width="1.8807363762550653" d="M 109.4479 251.387 C 108.1636 247.7643 113.2505 238.8252 112.7792 232.1351 C 112.1334 222.9822 109.7896 217.271 109.7896 217.271 C 109.7896 217.271 106.8303 210.409 109.7896 209.1611 C 115.3696 206.8315 118.7595 212.8117 118.7595 212.8117 C 118.7595 212.8117 123.4252 219.9255 124.4242 225.0749 C 126.1546 233.995 125.0564 237.505 123.3792 242.4759 C 122.2779 245.7407 119.9831 249.69 116.7396 251.2512 C 113.495 252.8141 109.9306 252.7483 109.4479 251.387 L 109.4479 251.387 L 109.4479 251.387 L 109.4479 251.387 L 109.4479 251.387 L 109.4479 251.387 L 109.4479 251.387 L 109.4479 251.387 L 109.4479 251.387 L 109.4479 251.387 L 109.4479 251.387 L 109.4479 251.387 L 109.4479 251.387 Z "/>
    <path id="Ear_1_" fill="url(#grad_17-.044956922531128,0,0,1.044956922531128,-196.65,-278.5)" stroke="url(#grad_18)" stroke-width="2.089913845062256" d="M 137.9504 86.0928 C 137.9504 86.0928 143.9798 85.6988 148.4533 82.7134 C 155.117 78.265 156.4786 68.1833 150.1837 58.392 C 143.89 48.6018 138.5461 48.2873 133.7497 50.6489 C 130.3452 52.325 129.5458 56.7399 129.4069 57.7159 L 129.3786 57.8288 C 135.0078 71.8667 135.7665 84.3613 135.7665 84.3613 C 135.7665 84.3613 137.3569 85.1032 137.9504 86.0928 L 137.9504 86.0928 L 137.9504 86.0928 L 137.9504 86.0928 L 137.9504 86.0928 L 137.9504 86.0928 L 137.9504 86.0928 L 137.9504 86.0928 L 137.9504 86.0928 L 137.9504 86.0928 L 137.9504 86.0928 L 137.9504 86.0928 L 137.9504 86.0928 Z "/>
    <path id="Body" fill="url(#grad_19-.044956922531128,0,0,1.044956922531128,-196.65,-278.5)" stroke="url(#grad_20)" stroke-width="2.089913845062256" d="M 120.0117 212.1219 C 125.7443 204.2137 127.4685 193.0901 124.6272 182.3688 C 122.2217 173.2903 123.2019 176.7888 117.6229 164.1824 C 104.9747 135.5997 78.7568 132.2015 68.5465 153.1508 C 64.6112 161.2252 63.7439 165.0947 63.747 165.1396 L 63.7606 165.3434 L 63.6947 165.5471 C 63.6394 165.7122 58.1638 182.164 59.9151 196.4977 C 61.5463 209.847 74.2739 223.3625 95.4458 223.3625 C 96.4301 223.3625 97.4395 223.3343 98.4448 223.2768 C 107.6477 222.7491 115.1035 218.8911 120.0117 212.1219 L 120.0117 212.1219 L 120.0117 212.1219 L 120.0117 212.1219 L 120.0117 212.1219 L 120.0117 212.1219 L 120.0117 212.1219 L 120.0117 212.1219 L 120.0117 212.1219 L 120.0117 212.1219 L 120.0117 212.1219 L 120.0117 212.1219 L 120.0117 212.1219 Z "/>
    <path id="Tail" fill="url(#grad_21-.7776002287864685,0,0,1.044956922531128,-120.3,-277.85)" stroke="url(#grad_22)" stroke-width="1.8420624776345094" d="M 72.6848 239.9282 C 66.1709 242.945 58.1546 244.549 48.3996 243.3181 C 26.2496 240.526 15.8422 215.8514 13.434 203.1938 C 12.7956 199.8385 14.3018 196.4204 16.7979 195.5646 C 19.2948 194.7098 21.836 196.7318 22.4736 200.0872 C 22.6945 201.2115 28.2193 228.1808 49.2713 230.8361 C 78.3706 234.506 88.292 208.4186 88.7011 207.3057 C 89.8364 204.2137 92.6225 202.9138 94.9304 204.4217 C 97.2391 205.9274 98.215 209.6402 97.1061 212.751 C 96.7329 213.7939 90.0626 231.8831 72.6848 239.9282 L 72.6848 239.9282 L 72.6848 239.9282 L 72.6848 239.9282 L 72.6848 239.9282 L 72.6848 239.9282 L 72.6848 239.9282 L 72.6848 239.9282 L 72.6848 239.9282 L 72.6848 239.9282 L 72.6848 239.9282 L 72.6848 239.9282 L 72.6848 239.9282 L 72.6848 239.9282 Z "/>
    <path id="Ear" fill="url(#grad_23-.044956922531128,0,0,1.044956922531128,-196.65,-278.5)" stroke="url(#grad_24)" stroke-width="2.089913845062256" d="M 24.7889 70.2 C 24.7889 70.2 23.9655 64.9314 20.6718 64.1079 C 17.3781 63.2845 9.474 62.7913 4.5335 73.3297 C -0.4071 83.8681 2.2795 93.6813 9.474 97.208 C 13.4135 99.138 18.1597 98.904 19.7731 98.7535 C 19.7731 98.7535 22.5851 95.7367 23.3113 95.093 C 23.3113 95.092 22.6562 84.3258 24.8443 70.9012 L 24.7889 70.2 L 24.7889 70.2 L 24.7889 70.2 L 24.7889 70.2 L 24.7889 70.2 L 24.7889 70.2 L 24.7889 70.2 L 24.7889 70.2 L 24.7889 70.2 L 24.7889 70.2 L 24.7889 70.2 L 24.7889 70.2 L 24.7889 70.2 Z "/>
    <path id="Head_1_" fill="url(#grad_25-.044956922531128,0,0,1.044956922531128,-196.65,-278.5)" stroke="url(#grad_26)" stroke-width="2.089913845062256" d="M 137.8877 84.9193 C 137.8982 85.1053 142.0038 87.9601 143.4835 90.0041 L 146.4616 97.5277 C 147.4533 100.0336 148.585 109.9168 147.7156 116.0235 C 146.9141 121.544 145.7051 128.0384 141.4981 132.0113 C 133.7936 139.3448 124.3242 145.6303 113.7545 148.2604 C 95.3716 152.8007 75.9343 153.7517 56.961 152.4925 C 47.4822 151.8028 39.155 148.2907 31.2551 143.9761 C 26.0638 141.0471 21.7481 137.6342 18.7156 133.004 C 16.0019 128.3247 15.0353 123.0811 14.7448 117.2252 C 14.5692 111.2846 16.9831 105.8958 18.9769 99.7744 C 19.5568 98.0116 22.0459 97.3104 22.4649 95.5287 L 24.4629 75.2702 C 25.1442 68.8552 25.2173 72.3704 25.9781 70.2544 C 28.8789 62.203 31.5602 54.0042 35.2259 46.2726 C 37.2929 41.9663 39.6033 38.518 42.4884 35.2483 C 44.9054 32.2148 47.7989 30.0194 51.0048 27.5156 C 54.0446 25.199 56.775 24.0129 60.678 21.2166 L 60.7083 21.0933 C 60.5985 19.7558 60.5515 16.9187 61.4084 12.5874 C 62.6414 6.3584 66.4116 1.1576 66.4116 1.1576 C 66.4116 1.1576 67.4043 6.5381 70.0951 10.4316 C 72.8642 14.438 75.2938 15.6303 75.2938 15.6303 C 75.2938 15.6303 74.4505 12.5195 74.5863 10.0419 C 74.8632 5.0114 77.2781 2.515 77.2781 2.515 C 77.2781 2.515 80.2061 9.674 83.8635 13.8016 C 87.7747 18.2166 92.5115 21.1038 92.5115 21.1038 L 92.5805 21.1226 C 134.6421 31.5826 134.1081 79.0822 137.8574 84.3613 L 137.8877 84.9193 Z "/>
    <path id="ID0.11469296598806977" fill="#685A4F" stroke="#685A4F" stroke-width="3.875" d="M 92.0719 203.025 C 93.5424 203.025 94.8735 203.676 95.8384 204.7281 C 96.8033 205.7801 97.4 207.2332 97.4 208.8375 C 97.4 210.4417 96.8033 211.8949 95.8384 212.9469 C 94.8735 213.999 93.5424 214.65 92.0719 214.65 C 90.6013 214.65 89.2702 213.999 88.3054 212.9469 C 87.3405 211.8949 86.7437 210.4417 86.7437 208.8375 C 86.7437 207.2332 87.3405 205.7801 88.3054 204.7281 C 89.2702 203.676 90.6013 203.025 92.0719 203.025 Z "/>
  </g>
</svg>