<svg version="1.1" xmlns="http://www.w3.org/2000/svg" xmlns:xlink="http://www.w3.org/1999/xlink" width="189.9" height="135.747" viewBox="0,0,189.9,135.747"><g transform="translate(-149.248,-100.552)"><g data-paper-data="{&quot;isPaintingLayer&quot;:true}" fill-rule="nonzero" stroke="none" stroke-linecap="butt" stroke-linejoin="miter" stroke-miterlimit="10" stroke-dasharray="" stroke-dashoffset="0" style="mix-blend-mode: normal"><g stroke-width="1"><g fill="#8e9db2"><path d="M234.235,100.552h-31.464z"/></g><g fill="#bac0c8"><path d="M230.235,150.552l4,4h-31.464l4,-4h23.464"/></g><g fill="#b3bac4"><path d="M206.771,150.552l-4,4v-54l4,4v46"/></g><g fill="#8e9db2"><path d="M206.771,104.552l-4,-4h31.464l-4,4h-23.464"/></g><g fill="#8e9db2"><path d="M230.235,104.552l4,-4v54l-4,-4v-46"/></g><g fill="#98a5b7"><path d="M206.771,104.552h23.464v46h-23.464z"/></g></g><g stroke-width="1"><g fill="#8e9db2"><path d="M283.15,131.926l10.377,2.502z"/></g><g fill="#8e9db2"><path d="M258.904,116.554h24.246z"/></g><g fill="#8e9db2"><path d="M289.527,137.578l4,-3.15v20.124l-4,-4v-12.974"/></g><g fill="#bac0c8"><path d="M289.527,150.552l4,4h-34.623l4,-4h26.623"/></g><g fill="#b3bac4"><path d="M262.904,150.552l-4,4v-37.998l4,4v29.998"/></g><g fill="#8e9db2"><path d="M262.904,120.554l-4,-4h24.246l-4,4h-16.246"/></g><g fill="#8e9db2"><path d="M279.15,135.076l4,-3.15l10.377,2.502l-4,3.15l-10.377,-2.502"/></g><g fill="#8e9db2"><path d="M279.15,120.554l4,-4v15.372l-4,3.15v-14.522"/></g><g fill="#98a5b7"><path d="M279.15,120.554v14.522l10.377,2.502v12.974h-26.623v-29.998h16.246"/></g></g><g stroke-width="1"><g><g><path d="M299.269,215.035v-4c6.975,0 12.627,5.661 12.627,12.636c0,4.215 -2.063,7.946 -5.235,10.24l-2.343,-3.244c2.167,-1.567 3.579,-4.118 3.578,-6.996c0.003,-4.763 -3.868,-8.639 -8.627,-8.636" fill="#97a4b6"/><path d="M304.318,230.667l2.343,3.244c-0.633,0.457 -1.31,0.857 -2.023,1.193l-1.702,-3.621c0.487,-0.229 0.95,-0.502 1.382,-0.816" fill="#a0abbb"/><path d="M302.936,231.484l1.702,3.621c-0.58,0.272 -1.183,0.502 -1.807,0.686l-1.129,-3.839c0.426,-0.126 0.838,-0.282 1.234,-0.468" fill="#a9b2bf"/><path d="M301.701,231.951l1.129,3.839c-0.566,0.166 -1.149,0.293 -1.746,0.379l-0.576,-3.958c0.408,-0.058 0.807,-0.145 1.193,-0.26" fill="#b2b9c4"/><path d="M300.509,232.211l0.576,3.958c-0.581,0.084 -1.175,0.128 -1.779,0.13l-0.012,-4c0.412,-0.001 0.818,-0.031 1.215,-0.088" fill="#bbc1c8"/><path d="M299.294,232.299l0.012,4c-0.012,0 -0.024,0 -0.036,0c-0.627,0 -1.243,-0.046 -1.845,-0.134l0.585,-3.957c0.411,0.06 0.832,0.091 1.26,0.091c0.007,0 0.016,0 0.024,0" fill="#c4c8cd"/><path d="M298.009,232.208l-0.585,3.957c-0.712,-0.104 -1.406,-0.268 -2.074,-0.486l1.243,-3.803c0.456,0.15 0.93,0.261 1.416,0.332" fill="#cdcfd1"/><path d="M296.593,231.876l-1.243,3.803c-1.107,-0.36 -2.146,-0.87 -3.095,-1.505l2.223,-3.327c0.648,0.434 1.359,0.782 2.115,1.029" fill="#d6d6d6"/><path d="M294.478,230.847l-2.223,3.327c-0.944,-0.632 -1.798,-1.388 -2.539,-2.244l3.027,-2.616c0.506,0.585 1.09,1.101 1.735,1.533" fill="#e2e2e2"/><path d="M292.743,229.314l-3.027,2.616c-0.74,-0.854 -1.366,-1.81 -1.857,-2.843l3.614,-1.717c0.336,0.706 0.764,1.359 1.27,1.944" fill="#d6d6d6"/><path d="M291.473,227.37l-3.614,1.717c-0.304,-0.64 -0.556,-1.309 -0.75,-2.002l3.852,-1.083c0.132,0.474 0.304,0.932 0.512,1.368" fill="#cdcfd1"/><path d="M290.961,226.002l-3.852,1.083c-0.166,-0.591 -0.289,-1.198 -0.367,-1.819l3.968,-0.506c0.053,0.425 0.137,0.84 0.251,1.242" fill="#c4c8cd"/><path d="M290.71,224.76l-3.968,0.506c-0.066,-0.522 -0.1,-1.055 -0.1,-1.595c0,-0.065 0,-0.132 0.001,-0.197l4,0.063c0,0.045 -0.001,0.09 -0.001,0.135c0,0.368 0.023,0.732 0.068,1.088" fill="#bbc1c8"/><path d="M290.643,223.536l-4,-0.063c0.009,-0.611 0.062,-1.213 0.156,-1.801l3.95,0.634c-0.064,0.402 -0.099,0.812 -0.106,1.23" fill="#b2b9c4"/><path d="M290.749,222.307l-3.95,-0.634c0.102,-0.645 0.253,-1.272 0.449,-1.881l3.808,1.229c-0.134,0.416 -0.237,0.845 -0.307,1.286" fill="#a9b2bf"/><path d="M291.056,221.022l-3.808,-1.229c0.243,-0.756 0.556,-1.48 0.93,-2.166l3.513,1.915c-0.255,0.468 -0.469,0.963 -0.635,1.48" fill="#a0abbb"/><path d="M291.692,219.541l-3.513,-1.915c2.142,-3.926 6.305,-6.591 11.09,-6.591v4c-3.265,-0.002 -6.112,1.823 -7.577,4.506" fill="#97a4b6"/></g></g><g fill="#98a5b7"><path d="M299.269,215.035c4.759,-0.003 8.629,3.873 8.627,8.636c0.002,4.763 -3.865,8.63 -8.627,8.628c-4.762,0.002 -8.629,-3.865 -8.627,-8.628c-0.002,-4.763 3.868,-8.639 8.627,-8.636z"/></g></g><g stroke-width="1"><g fill="#8e9db2"><path d="M258.904,179.302h22.995z"/></g><g fill="#bac0c8"><path d="M277.899,193.796l4,4h-22.995l4,-4h14.995"/></g><g fill="#b3bac4"><path d="M262.904,193.796l-4,4v-18.494l4,4v10.494"/></g><g fill="#8e9db2"><path d="M262.904,183.302l-4,-4h22.995l-4,4h-14.995"/></g><g fill="#8e9db2"><path d="M277.899,183.302l4,-4v18.494l-4,-4v-10.494"/></g><g fill="#98a5b7"><path d="M262.904,183.302h14.995v10.494h-14.995z"/></g></g><g stroke-width="1"><g fill="#8e9db2"><path d="M317.647,135.553h-18.999z"/></g><g fill="#bac0c8"><path d="M313.647,150.552l4,4h-18.999l4,-4h10.999"/></g><g fill="#b3bac4"><path d="M302.648,150.552l-4,4v-18.999l4,4v10.999"/></g><g fill="#8e9db2"><path d="M302.648,139.553l-4,-4h18.999l-4,4h-10.999"/></g><g fill="#8e9db2"><path d="M313.647,139.553l4,-4v18.999l-4,-4v-10.999"/></g><g fill="#98a5b7"><path d="M302.648,139.553h10.999v10.999h-10.999z"/></g></g><g stroke-width="1"><g fill="#8e9db2"><path d="M339.148,145.047h-17.496z"/></g><g fill="#bac0c8"><path d="M335.148,150.552l4,4h-17.496l4,-4h9.496"/></g><g fill="#b3bac4"><path d="M325.652,150.552l-4,4v-9.505l4,4v1.505"/></g><g fill="#8e9db2"><path d="M325.652,149.047l-4,-4h17.496l-4,4h-9.496"/></g><g fill="#8e9db2"><path d="M335.148,149.047l4,-4v9.505l-4,-4v-1.505"/></g><g fill="#98a5b7"><path d="M325.652,149.047h9.496v1.505h-9.496z"/></g></g><g stroke-width="1"><g fill="#8e9db2"><path d="M198.901,179.256h5.499z"/></g><g fill="#8e9db2"><path d="M186.904,179.256h11.997z"/></g><g fill="#8e9db2"><path d="M194.901,184.761l4,4v4.535l-4,-4v-4.535"/></g><g fill="#bac0c8"><path d="M194.901,189.296l4,4h-11.997l4,-4h3.997"/></g><g fill="#8e9db2"><path d="M200.4,183.256l4,-4v9.505l-4,-4v-1.505"/></g><g fill="#b3bac4"><path d="M190.904,188.761h-4v-9.505l4,4v5.505"/></g><g fill="#8e9db2"><path d="M190.904,183.256l-4,-4h11.997v4h-7.997"/></g><g fill="#8e9db2"><path d="M198.901,183.256v-4h5.499l-4,4h-1.499"/></g><g fill="#b3bac4"><path d="M190.904,189.296l-4,4v-4.535h4v0.535"/></g><g fill="#bac0c8"><path d="M200.4,184.761l4,4h-5.499l-4,-4h5.499"/></g><g fill="#98a5b7"><path d="M200.4,183.256v1.505h-5.499v4.535h-3.997v-0.535v-5.505h7.997h1.499"/></g></g><g stroke-width="1"><g fill="#8e9db2"><path d="M286.147,179.302h31.194z"/></g><g fill="#bac0c8"><path d="M311.687,190.547l3.467,4h-29.007l4,-4h21.54"/></g><g fill="#b3bac4"><path d="M290.147,190.547l-4,4v-15.245l4,4v7.245"/></g><g fill="#8e9db2"><path d="M290.147,183.302l-4,-4h31.194l-4.615,4h-22.579"/></g><g fill="#8e9db2"><path d="M312.726,183.302l4.615,-4l-2.187,15.245l-3.467,-4l1.039,-7.245"/></g><g fill="#98a5b7"><path d="M312.726,183.302l-1.039,7.245h-21.54v-7.245h22.579"/></g></g><g stroke-width="1"><g fill="#8e9db2"><path d="M275.149,202.549h-16.245z"/></g><g fill="#bac0c8"><path d="M271.149,216.53l4,4h-16.245l4,-4h8.245"/></g><g fill="#b3bac4"><path d="M262.904,216.53l-4,4v-17.981l4,4v9.981"/></g><g fill="#8e9db2"><path d="M262.904,206.549l-4,-4h16.245l-4,4h-8.245"/></g><g fill="#8e9db2"><path d="M271.149,206.549l4,-4v17.981l-4,-4v-9.981"/></g><g fill="#98a5b7"><path d="M262.904,206.549h8.245v9.981h-8.245z"/></g></g><g stroke-width="1"><g fill="#8e9db2"><path d="M269.533,225.931l6.21,0.585z"/></g><g fill="#8e9db2"><path d="M258.904,224.05h10.629z"/></g><g fill="#8e9db2"><path d="M271.388,230.123l4.355,-3.607l-0.828,8.864l-3.611,-4.351l0.084,-0.906"/></g><g fill="#bfc4ca"><path d="M271.304,231.029l3.611,4.351l-16.011,-1.484l4,-3.647l8.4,0.78"/></g><g fill="#b3bac4"><path d="M262.904,230.249l-4,3.647v-9.846l4,4v2.199"/></g><g fill="#8e9db2"><path d="M262.904,228.05l-4,-4h10.629l-4,4h-2.629"/></g><g fill="#8e9db2"><path d="M265.533,229.571l4,-3.64l6.21,0.585l-4.355,3.607l-5.855,-0.552"/></g><g fill="#8e9db2"><path d="M265.533,228.05l4,-4v1.881l-4,3.64v-1.521"/></g><g fill="#98a5b7"><path d="M265.533,228.05v1.521l5.855,0.552l-0.084,0.906l-8.4,-0.78v-2.199h2.629"/></g></g><g stroke-width="1"><g fill="#8e9db2"><path d="M234.235,186.799l-7.497,-7.497z"/></g><g fill="#8e9db2"><path d="M208.729,179.302h18.009z"/></g><g fill="#bac0c8"><path d="M230.235,200.133l4,4h-25.506l4,-4h17.506"/></g><g fill="#b3bac4"><path d="M212.729,200.133l-4,4v-24.831l4,4v16.831"/></g><g fill="#8e9db2"><path d="M212.729,183.302l-4,-4h18.009l-1.657,4h-12.352"/></g><g fill="#8e9db2"><path d="M230.235,188.456l4,-1.657v17.334l-4,-4v-11.677"/></g><g fill="#8e9db2"><path d="M225.081,183.302l1.657,-4l7.497,7.497l-4,1.657l-5.154,-5.154"/></g><g fill="#98a5b7"><path d="M225.081,183.302l5.154,5.154v11.677h-17.506v-16.831h12.352"/></g></g><g><g fill="#98a5b7" stroke-width="1"><path d="M176.9747,221.7614l0.934,-9.7042l0.1702,0.0164l-0.934,9.7042z"/></g><g fill="#bfc4cb" stroke-width="1"><path d="M174.466,207.85l7.794,0.747l-4.365,3.599l0.17,0.017l-3.599,-4.363"/></g><g fill="#8e9db2" stroke-width="1"><path d="M180.559,226.264l-7.794,-0.747l4.365,-3.6l-0.169,-0.016l3.598,4.363"/></g><g fill="#8e9db2" stroke-width="1"><path d="M174.466,207.85l7.794,0.747z"/></g><g fill="#a3aebc" stroke-width="1"><path d="M172.765,225.517l1.701,-17.667z"/></g><g fill="#8e9db2" stroke-width="1"><path d="M177.895,212.196l4.365,-3.599l-1.701,17.667l-3.598,-4.363l0.934,-9.705"/></g><g fill="#adb6c2" stroke-width="1"><path d="M177.13,221.917l-4.365,3.6l1.701,-17.667l3.599,4.363l-0.935,9.704"/></g><g fill="#8e9db2" stroke-width="1"><path d="M178.065,212.213l-3.599,-4.363l7.794,0.747l-4.365,3.599l0.17,0.017"/></g><g fill="#bfc4cb" stroke-width="1"><path d="M176.961,221.901l3.598,4.363l-7.794,-0.747l4.365,-3.6l-0.169,-0.016"/></g></g><g><g fill="#98a5b7" stroke-width="1"><path d="M165.2244,220.6581l0.934,-9.7041l0.1612,0.0155l-0.9339,9.7041z"/></g><g fill="#bfc4cb" stroke-width="1"><path d="M162.703,206.715l7.803,0.747l-4.365,3.601l0.16,0.015l-3.598,-4.363"/></g><g fill="#8e9db2" stroke-width="1"><path d="M168.805,225.129l-7.803,-0.746l4.365,-3.601l-0.161,-0.015l3.599,4.362"/></g><g fill="#8e9db2" stroke-width="1"><path d="M162.703,206.715l7.803,0.747z"/></g><g fill="#a3aebc" stroke-width="1"><path d="M162.703,206.715l-1.701,17.668z"/></g><g fill="#adb6c2" stroke-width="1"><path d="M165.367,220.782l-4.365,3.601l1.701,-17.668l3.598,4.363l-0.934,9.704"/></g><g fill="#8e9db2" stroke-width="1"><path d="M166.141,211.063l4.365,-3.601l-1.701,17.667l-3.599,-4.362l0.935,-9.704"/></g><g fill="#8e9db2" stroke-width="1"><path d="M166.301,211.078l-3.598,-4.363l7.803,0.747l-4.365,3.601l0.16,0.015"/></g><g fill="#bfc4cb" stroke-width="1"><path d="M165.206,220.767l3.599,4.362l-7.803,-0.746l4.365,-3.601l-0.161,-0.015"/></g></g><g><g fill="#98a5b7" stroke-width="1"><path d="M153.4732,219.5038l0.9339,-9.7042l0.1702,0.0164l-0.9339,9.7042z"/></g><g fill="#bfc4cb" stroke-width="1"><path d="M150.949,205.59l7.794,0.747l-4.365,3.6l0.169,0.016l-3.598,-4.363"/></g><g fill="#8e9db2" stroke-width="1"><path d="M157.042,224.004l-7.794,-0.746l4.365,-3.601l-0.17,-0.016l3.599,4.363"/></g><g fill="#8e9db2" stroke-width="1"><path d="M150.949,205.59l7.794,0.747z"/></g><g fill="#a3aebc" stroke-width="1"><path d="M150.949,205.59l-1.701,17.668z"/></g><g fill="#8e9db2" stroke-width="1"><path d="M154.378,209.937l4.365,-3.6l-1.701,17.667l-3.599,-4.363l0.935,-9.704"/></g><g fill="#adb6c2" stroke-width="1"><path d="M153.613,219.657l-4.365,3.601l1.701,-17.668l3.598,4.363l-0.934,9.704"/></g><g fill="#8e9db2" stroke-width="1"><path d="M154.547,209.953l-3.598,-4.363l7.794,0.747l-4.365,3.6l0.169,0.016"/></g><g fill="#bfc4cb" stroke-width="1"><path d="M153.443,219.641l3.599,4.363l-7.794,-0.746l4.365,-3.601l-0.17,-0.016"/></g></g><g stroke-width="1"><g fill="#8e9db2"><path d="M214.651,213.546v-5.696l4,4v-2.304l-4,4"/></g><g fill="#b3bac4"><path d="M234.235,224.004v4.959l-4,-4v3.041l4,-4"/></g><g fill="#b3bac4"><path d="M234.235,207.85v5.696l-4,-4v2.304l4,-4"/></g><g fill="#8e9db2"><path d="M214.651,228.963v-4.959l4,4v-3.041l-4,4"/></g><g fill="#8e9db2"><path d="M234.235,207.85h-19.584z"/></g><g fill="#8e9db2"><path d="M232.903,224.004h1.332z"/></g><g fill="#8e9db2"><path d="M216.154,224.004h-1.503z"/></g><g fill="#8e9db2"><path d="M218.651,228.004l-4,-4h1.503l4,4h-1.503"/></g><g fill="#8e9db2"><path d="M228.903,209.546l4,4v10.458l-4,4v-18.458"/></g><g fill="#8e9db2"><path d="M228.903,228.004l4,-4h1.332l-4,4h-1.332"/></g><g fill="#b3bac4"><path d="M220.154,228.004l-4,-4v-10.458l4,-4v18.458"/></g><g fill="#bac0c8"><path d="M230.235,224.963l4,4h-19.584l4,-4h11.584"/></g><g fill="#bac0c8"><path d="M220.154,209.546l-4,4h-1.503l4,-4h1.503"/></g><g fill="#bac0c8"><path d="M230.235,209.546l4,4h-1.332l-4,-4h1.332"/></g><g fill="#8e9db2"><path d="M218.651,211.85l-4,-4h19.584l-4,4h-11.584"/></g><g fill="#b3bac4"><path d="M218.651,209.546l-4,4v-5.696l4,4v-2.304"/></g><g fill="#8e9db2"><path d="M230.235,228.004l4,-4v4.959l-4,-4v3.041"/></g><g fill="#b3bac4"><path d="M218.651,224.963l-4,4v-4.959l4,4v-3.041"/></g><g fill="#8e9db2"><path d="M230.235,211.85l4,-4v5.696l-4,-4v2.304"/></g><g fill="#98a5b7"><path d="M230.235,211.85v-2.304h-1.332v18.458h1.332v-3.041h-11.584v3.041h1.503v-18.458h-1.503v2.304h11.584"/></g></g><g><g fill="#8e9db2" stroke-width="1"><path d="M185.572,214.096l15.822,1.287z"/></g><g fill="#a4aebd" stroke-width="1"><path d="M184.501,227.199l1.071,-13.104z"/></g><g fill="#bec3ca" stroke-width="1"><path d="M196.662,224.182l3.661,4.313l-15.822,-1.296l4.313,-3.66l7.848,0.643"/></g><g fill="#aeb6c2" stroke-width="1"><path d="M188.814,223.539l-4.313,3.66l1.071,-13.103l3.661,4.31l-0.419,5.133"/></g><g fill="#8e9db2" stroke-width="1"><path d="M197.082,219.045l4.312,-3.662l-1.071,13.112l-3.661,-4.313l0.42,-5.137"/></g><g fill="#8e9db2" stroke-width="1"><path d="M189.233,218.406l-3.661,-4.31l15.822,1.287l-4.312,3.662l-7.849,-0.639"/></g><g fill="#98a5b7" stroke-width="0.99999"><path d="M196.626,224.1075l-7.849,-0.6387l0.418,-5.1369l7.849,0.6386z"/></g></g><g stroke-width="1"><g fill="#8e9db2"><path d="M182.26,179.302h-19.107z"/></g><g fill="#bac0c8"><path d="M178.26,193.796l4,4h-19.107l4,-4h11.107"/></g><g fill="#b3bac4"><path d="M167.153,193.796l-4,4v-18.494l4,4v10.494"/></g><g fill="#8e9db2"><path d="M167.153,183.302l-4,-4h19.107l-4,4h-11.107"/></g><g fill="#8e9db2"><path d="M178.26,183.302l4,-4v18.494l-4,-4v-10.494"/></g><g fill="#98a5b7"><path d="M167.153,183.302h11.107v10.494h-11.107z"/></g></g></g></g></svg>