<svg version="1.1" xmlns="http://www.w3.org/2000/svg" xmlns:xlink="http://www.w3.org/1999/xlink" width="21.54" height="27.28"><g transform="translate(-229.49,-153.21)"><g data-paper-data="{&quot;isPaintingLayer&quot;:true}" fill="none" fill-rule="nonzero" stroke="none" stroke-width="1" stroke-linecap="butt" stroke-linejoin="miter" stroke-miterlimit="10" stroke-dasharray="" stroke-dashoffset="0" font-family="none" font-weight="none" font-size="none" text-anchor="none" style="mix-blend-mode: normal"><path d="M239.37,180.49c-2.66,0 -4.73,-0.85 -6.79,-2.82c-0.7,-0.29 -1.32,-0.78 -1.77,-1.44c-0.54,-0.79 -0.79,-1.71 -0.73,-2.64c-0.38,-1.08 -0.59,-2.31 -0.59,-3.41c0,-6.61 5.17,-13.97 12.59,-13.97c4.45,0 7.69,2.4 7.69,5.7c0,1.09 -0.44,2.07 -1.16,2.78c1.6,1.34 2.42,3.25 2.42,5.16c-0.01,7.26 -6.96,10.64 -11.66,10.64z" data-paper-data="{&quot;origPos&quot;:null}" fill="#000000" opacity="0.35"/><path d="M242.63,170.68c-0.42,1.28 -1.92,1.87 -2.84,2.05c1.03,-1.1 2.06,-1.84 2.84,-2.05z" data-paper-data="{&quot;origPos&quot;:null}" fill="#000000" opacity="0.35"/><path d="M232.58,174.67c-0.7,-0.29 -1.32,-0.78 -1.77,-1.44c-0.54,-0.79 -0.79,-1.71 -0.73,-2.64c-0.38,-1.08 -0.59,-2.31 -0.59,-3.41c0,-6.61 5.17,-13.97 12.59,-13.97c4.45,0 7.69,2.4 7.69,5.7c0,1.09 -0.44,2.07 -1.16,2.78c1.6,1.34 2.42,3.25 2.42,5.16c-0.01,7.26 -6.96,10.64 -11.66,10.64c-2.66,0 -4.73,-0.85 -6.79,-2.82zM239.79,169.73c0.92,-0.18 2.42,-0.77 2.84,-2.05c-0.78,0.2 -1.81,0.95 -2.84,2.05z" data-paper-data="{&quot;origPos&quot;:null}" fill="#ffffff"/><path d="M239.37,174.99c-2.18,0 -3.72,-0.71 -5.49,-2.54c-0.41,-0.04 -0.77,-0.27 -1.01,-0.63c-0.3,-0.44 -0.38,-1 -0.22,-1.51c-0.49,-1.09 -0.67,-2.32 -0.67,-3.13c0,-5.42 4.32,-11.47 10.09,-11.47c2.96,0 5.19,1.38 5.19,3.2c0,0.88 -0.73,1.52 -1.74,1.52c-0.82,0 -1.2,-0.39 -1.35,-0.62c-0.17,-0.27 -0.23,-0.6 -0.16,-0.88c-0.24,-0.26 -0.91,-0.51 -2.15,-0.51c-4.06,0 -6.75,4.98 -6.75,8.27c0,0.21 0.03,0.49 0.07,0.75c1.86,-2.51 4.83,-5.02 8.01,-5.02c3.7,0 5.35,2.23 5.35,4.44c-0.02,5.54 -5.48,8.13 -9.17,8.13zM236.18,170.22c0.58,1.19 1.88,2.07 3.08,2.07c2.09,0 5.98,-1.56 5.98,-5.32c0,-0.74 -0.59,-1.84 -2.2,-1.84c-3.02,-0.01 -5.92,3.74 -6.86,5.09z" data-paper-data="{&quot;origPos&quot;:null}" fill="#f7931e"/></g></g></svg>