<svg xmlns="http://www.w3.org/2000/svg" xmlns:xlink="http://www.w3.org/1999/xlink" version="1.1" width="141.57170575840354" height="338.78047651035666" viewBox="0.7883434594518017 -1.133095592176311 141.57170575840354 338.78047651035666">
  <defs>
    <radialGradient id="grad_1" cx="0.5906" cy="0.2216" r="1.01192">
      <stop offset="0" stop-color="#003FFF" stop-opacity="1"/>
      <stop offset="1" stop-color="#002699" stop-opacity="1"/>
    </radialGradient>
    <radialGradient id="grad_2" cx="0.4249" cy="0.18170000000000003" r="1.06379">
      <stop offset="0" stop-color="#003FFF" stop-opacity="1"/>
      <stop offset="1" stop-color="#002699" stop-opacity="1"/>
    </radialGradient>
    <radialGradient id="grad_3" cx="0.1959" cy="0.0692" r="1.21004">
      <stop offset="0" stop-color="#F48D00" stop-opacity="1"/>
      <stop offset="1" stop-color="#995900" stop-opacity="1"/>
    </radialGradient>
    <radialGradient id="grad_4" cx="0.0571" cy="0.09230000000000001" r="1.22577">
      <stop offset="0" stop-color="#F48D00" stop-opacity="1"/>
      <stop offset="1" stop-color="#995900" stop-opacity="1"/>
    </radialGradient>
    <radialGradient id="grad_5" cx="0.18359999999999999" cy="0.0857" r="1.18859">
      <stop offset="0" stop-color="#F48D00" stop-opacity="1"/>
      <stop offset="1" stop-color="#995900" stop-opacity="1"/>
    </radialGradient>
    <radialGradient id="grad_6" cx="0.07339999999999999" cy="0.0857" r="1.20458">
      <stop offset="0" stop-color="#F48D00" stop-opacity="1"/>
      <stop offset="1" stop-color="#995900" stop-opacity="1"/>
    </radialGradient>
    <radialGradient id="grad_7" cx="0.8509" cy="0.3784" r="1.10617">
      <stop offset="0" stop-color="#003FFF" stop-opacity="1"/>
      <stop offset="1" stop-color="#002699" stop-opacity="1"/>
    </radialGradient>
    <radialGradient id="grad_8" cx="0.9285" cy="0.33039999999999997" r="1.2070499999999997">
      <stop offset="0" stop-color="#003FFF" stop-opacity="1"/>
      <stop offset="1" stop-color="#002699" stop-opacity="1"/>
    </radialGradient>
    <radialGradient id="grad_9" cx="0.2657" cy="0.20670000000000002" r="1.03129">
      <stop offset="0" stop-color="#003FFF" stop-opacity="1"/>
      <stop offset="1" stop-color="#002699" stop-opacity="1"/>
    </radialGradient>
    <radialGradient id="grad_10" cx="0.026000000000000002" cy="0.0902" r="1.2662">
      <stop offset="0" stop-color="#003FFF" stop-opacity="1"/>
      <stop offset="1" stop-color="#002699" stop-opacity="1"/>
    </radialGradient>
    <radialGradient id="grad_11" cx="0.2772" cy="0.10830000000000001" r="1.15921">
      <stop offset="0" stop-color="#995900" stop-opacity="1"/>
      <stop offset="1" stop-color="#663B00" stop-opacity="1"/>
    </radialGradient>
    <radialGradient id="grad_12" cx="0.2637" cy="0.08900000000000001" r="1.1843000000000001">
      <stop offset="0" stop-color="#995900" stop-opacity="1"/>
      <stop offset="1" stop-color="#663B00" stop-opacity="1"/>
    </radialGradient>
  <radialGradient id="grad_1-.82351815700531,-0.6343110799789429,0.4976893663406372,2.3240959644317627,-541.25,-75.95" cx="110.5114" cy="117.9487" r="73.7272" gradientUnits="userSpaceOnUse">
      <stop offset="0" stop-color="#003FFF" stop-opacity="1"/>
      <stop offset="1" stop-color="#002699" stop-opacity="1"/>
    </radialGradient><radialGradient id="grad_3-.611013412475586,0,0,2.280764579772949,-610.35,-288.15" cx="35.2439" cy="223.9049" r="93.7415" gradientUnits="userSpaceOnUse">
      <stop offset="0" stop-color="#F48D00" stop-opacity="1"/>
      <stop offset="1" stop-color="#995900" stop-opacity="1"/>
    </radialGradient><radialGradient id="grad_5-.611013412475586,0,0,1.5865390300750732,-563.25,-135.5" cx="82.0147" cy="221.8329" r="81.1466" gradientUnits="userSpaceOnUse">
      <stop offset="0" stop-color="#F48D00" stop-opacity="1"/>
      <stop offset="1" stop-color="#995900" stop-opacity="1"/>
    </radialGradient><radialGradient id="grad_7-1.82351815700531,-0.6343110799789429,-0.4976893663406372,2.3240959644317627,675.25,-75.8" cx="15.6734" cy="120.8775" r="60.7664" gradientUnits="userSpaceOnUse">
      <stop offset="0" stop-color="#003FFF" stop-opacity="1"/>
      <stop offset="1" stop-color="#002699" stop-opacity="1"/>
    </radialGradient><radialGradient id="grad_9-.0538699626922607,0,0,2.0538699626922607,-418,-224.85" cx="43.4847" cy="116.361" r="118.3415" gradientUnits="userSpaceOnUse">
      <stop offset="0" stop-color="#003FFF" stop-opacity="1"/>
      <stop offset="1" stop-color="#002699" stop-opacity="1"/>
    </radialGradient><radialGradient id="grad_11-,0,0,1,-171.25,-15.45" cx="42.6923" cy="12.3478" r="122.5403" gradientUnits="userSpaceOnUse">
      <stop offset="0" stop-color="#995900" stop-opacity="1"/>
      <stop offset="1" stop-color="#663B00" stop-opacity="1"/>
    </radialGradient></defs>
  <!-- Exported by Scratch - http://scratch.mit.edu/ -->
  <g id="ID0.19061248190701008">
    <g id="ID0.9803413534536958">
      <path id="ID0.7297148094512522" fill="#FFDEAE" d="M 134.7674 208.836 C 136.1236 211.9407 138.6165 214.9968 138.3622 218.5474 C 137.9048 224.928 135.7129 231.2251 132.8817 236.9814 C 132.2042 238.4172 129.6965 238.8495 128.5143 237.9671 C 127.5428 237.2893 128.3521 235.3063 128.5664 233.8464 C 129.1509 230.373 130.6302 227.1249 131.1311 223.5587 C 131.4547 221.4362 132.0345 219.075 131.2001 217.0972 C 128.5521 214.048 126.6215 214.8396 124.7371 214.1263 C 120.7083 214.9323 119.6296 210.2384 118.6881 206.6484 C 117.8667 203.8089 115.4458 199.979 117.4587 197.7019 C 120.0313 194.7381 125.0832 193.7263 128.9744 194.8905 C 131.4953 195.6598 130.8145 199.9059 131.8379 202.2856 C 132.7805 204.4808 133.9481 206.517 134.7674 208.836 Z " stroke-width="2.646321324006666"/>
      <path id="ID0.7297148094512522" fill="#FFD499" d="M 120.2286 207.4227 C 122.7256 206.3204 125.4217 209.1209 127.8199 210.5438 C 129.6702 211.6459 131.8681 212.729 132.6426 214.8791 C 133.6094 217.5865 132.5599 220.639 132.1765 223.5067 C 131.7696 226.5156 131.4704 229.6652 130.0334 232.3765 C 129.2534 233.999 126.7809 236.5926 125.8422 235.8839 C 124.7132 235.026 125.614 231.3231 125.9955 229.1388 C 126.5762 225.8359 127.7369 222.6337 128.295 219.3278 C 128.5231 218.0041 128.8934 216.5635 128.2629 215.4908 C 127.6049 214.4938 126.1424 213.6862 125.0344 214.0988 C 123.8211 214.5505 123.4684 216.1853 122.8944 217.3518 C 121.9272 219.3175 121.6393 221.6148 120.5688 223.5128 C 119.9108 224.6839 119.1781 226.2637 117.9459 226.3135 C 116.6658 226.3873 115.3271 225.0139 115.2418 223.781 C 115.0399 220.822 116.1846 217.9312 117.017 215.1105 C 117.7987 212.4563 117.6343 208.47 120.2286 207.4227 Z " stroke-width="2.646321324006666"/>
    </g>
    <path id="ID0.8654622961767018" fill="#000000" stroke="#000000" stroke-width="4.1077399253845215" d="M 43.269 316.002 C 48.2271 316.002 52.7209 317.1809 55.9743 319.0869 C 59.2276 320.9929 61.2404 323.6239 61.2404 326.5281 C 61.2404 329.4323 58.6977 332.6301 55.9743 333.9693 C 52.2876 335.7828 47.7691 335.025 43.5771 335.0003 C 39.2784 335.025 34.5401 335.8342 30.5638 333.9693 C 27.8157 332.6815 25.2977 329.4323 25.2977 326.5281 C 25.2977 323.6239 27.3105 320.9929 30.5638 319.0869 C 33.8171 317.1809 38.311 316.002 43.269 316.002 Z "/>
    <path id="ID0.8654622961767018" fill="#000000" stroke="#000000" stroke-width="3.538244255849817" d="M 90.369 284.762 C 95.3271 284.762 99.8209 285.5821 103.0743 286.9079 C 106.3276 288.2337 108.3404 290.0639 108.3404 292.0841 C 108.3404 294.1043 106.3276 295.9345 103.0743 297.2603 C 99.8209 298.5862 95.3271 299.4062 90.369 299.4062 C 85.411 299.4062 80.9171 298.5862 77.6638 297.2603 C 74.4105 295.9345 72.3977 294.1043 72.3977 292.0841 C 72.3977 290.0639 74.4105 288.2337 77.6638 286.9079 C 80.9171 285.5821 85.411 284.762 90.369 284.762 Z "/>
    <path id="ID0.41013610642403364" fill="url(#grad_1-.82351815700531,-0.6343110799789429,0.4976893663406372,2.3240959644317627,-541.25,-75.95)" stroke="url(#grad_2)" d="M 111.5612 92.6536 L 117.0991 97.4697 L 139.9086 195.2926 L 110.7323 205.4416 L 104.0627 114.3657 L 111.5612 92.6536 Z " stroke-width="2.155289382121667"/>
    <path id="ID0.47236768435686827" fill="url(#grad_3-.611013412475586,0,0,2.280764579772949,-610.35,-288.15)" stroke="url(#grad_4)" stroke-width="4.90291303379415" d="M 30.001 217.0394 L 56.7639 217.0394 L 56.7639 316.2526 L 30.001 316.2526 L 30.001 217.0394 Z "/>
    <path id="ID0.47236768435686827" fill="url(#grad_5-.611013412475586,0,0,1.5865390300750732,-563.25,-135.5)" stroke="url(#grad_6)" stroke-width="4.320763158072648" d="M 77.101 215.9184 L 103.8639 215.9184 L 103.8639 284.9328 L 77.101 284.9328 L 77.101 215.9184 Z "/>
    <path id="ID0.41013610642403364" fill="url(#grad_7-1.82351815700531,-0.6343110799789429,-0.4976893663406372,2.3240959644317627,675.25,-75.8)" stroke="url(#grad_8)" d="M 22.4388 92.8036 L 16.9009 97.6197 L 4.7912 149.5947 L 3.2398 158.6694 L 6.7699 165.5161 L 13.2514 170.0181 L 32.2667 169.5156 L 29.9373 114.5157 L 22.4388 92.8036 Z " stroke-width="2.155289382121667"/>
    <path id="ID0.43916446389630437" fill="url(#grad_9-.0538699626922607,0,0,2.0538699626922607,-418,-224.85)" stroke="url(#grad_10)" d="M 17.3177 96.478 L 21.7336 91.9594 L 27.3817 89.9056 L 106.2503 89.7002 L 112.0011 91.7541 L 115.8008 96.1699 L 108.6123 166.2068 L 108.6123 218.6832 L 25.3278 218.6832 L 25.3278 165.6934 L 17.3177 96.478 Z " stroke-width="2.0538699626922607"/>
    <g id="ID0.7377356672659516">
      <path id="ID0.20264252508059144" fill="url(#grad_11-,0,0,1,-171.25,-15.45)" stroke="url(#grad_12)" stroke-width="2" stroke-linecap="round" d="M 14.25 28.55 C 15.272 26.803 18.841 28.991 20.25 27.55 C 21.654 26.094 19.289 22.392 21 21.05 C 22.755 19.916 25.423 23.54 27.25 22.55 C 28.957 21.61 27.894 18.26 29.25 17.05 C 30.25 16.167 32.058 17.05 33.25 17.05 C 35.332 17.05 36.208 17.774 37.25 17.05 C 38.081 16.459 37.303 14.72 37.75 13.55 C 38.333 12.316 39.216 11.203 40.25 10.05 C 42.004 8.197 43.613 6.478 45.25 6.05 C 47.149 7.354 47.614 7.884 48.75 8.05 C 51.045 7.412 51.169 6.476 52.25 6.05 C 55.148 5.495 55.828 5.756 57.25 5.55 C 59.588 4.994 60.086 4.743 61.25 4.55 C 63.591 4.424 64.166 4.453 65.25 4.05 C 67.591 2.491 68.164 1.943 69.25 1.55 C 69.88 1.341 70.717 1.155 71.25 1.55 C 72.513 3.813 72.272 4.734 73.25 5.55 C 75.527 5.735 76.122 5.739 77.25 5.55 C 79.575 4.636 80.191 4.104 81.25 4.55 C 81.965 6.731 81.195 7.546 81.75 8.55 C 83.934 10.203 84.534 10.22 85.75 10.55 C 88.239 10.636 88.94 10.572 90.25 10.55 C 92.596 10.466 93.26 9.835 94.25 10.05 C 94.937 10.21 95.481 10.897 95.75 11.55 C 95.928 13.876 95.763 14.505 96.25 15.55 C 98.017 17.305 98.596 17.608 99.75 18.05 C 102.065 18.155 102.606 18.029 103.75 18.05 C 106.096 18.135 106.77 18.291 107.75 18.55 C 108.612 18.793 109.624 18.92 110.25 19.55 C 111.236 21.849 110.737 22.541 110.75 23.55 C 110.736 24.212 110.342 25.032 110.75 25.55 C 113.166 26.744 113.956 26.589 115.25 27.05 C 118.017 28.175 118.871 28.252 119.75 29.05 C 120.238 29.528 120.468 30.401 120.25 31.05 C 118.592 32.865 117.985 33.084 117.25 34.05 C 116.034 36.352 115.42 36.793 115.25 38.05 C 116.012 40.415 116.945 40.582 117.75 41.55 C 118.196 42.062 118.486 42.721 119 43.05 C 119.711 43.421 120.75 43.009 121.25 43.55 C 121.862 45.832 121.839 46.406 121.75 47.55 C 121.046 49.839 120.489 50.156 119.75 51.05 C 117.663 52.911 117.324 53.381 116.75 54.55 C 116.337 57.078 116.751 57.734 117.25 59.05 C 119.527 62.627 120.131 62.888 120.25 64.55 C 118.648 66.357 117.577 66.133 116.75 67.05 C 115.683 69.317 115.731 69.705 115.75 71.05 C 115.834 72.474 116.783 73.224 117 74.3 C 117.123 75.434 117.592 77.143 116.75 77.55 C 115.528 78.107 114.095 76.449 112.75 76.55 C 111.846 76.824 110.76 77.699 110.75 78.55 C 110.721 80.493 112.964 82.142 112.75 84.05 C 112.358 85.475 110.54 86.37 109.25 86.8 C 107.673 87.329 105.617 86 104.25 86.55 C 102.692 87.221 101.364 88.524 100.75 90.05 C 100.217 91.396 102.174 93.441 101.25 94.8 C 100.208 96.062 97.961 96.082 96.25 96.05 C 94.346 96.011 92.685 94.078 90.75 94.05 C 89.056 94.26 87.539 95.521 86.25 96.55 C 84.858 97.656 84.638 100.348 83 100.8 C 81.226 101.201 79.862 98.373 78.25 98.55 C 76.591 98.749 75.502 100.747 74.25 101.55 C 71.552 103.018 70.8 103.373 69.75 103.05 C 68.876 102.688 68.705 101.407 68.25 100.55 C 67.17 98.245 67.602 97.399 66.75 96.55 C 63.732 95.483 62.85 95.97 61.25 96.05 C 58.908 96.568 58.41 96.833 57.25 97.05 C 52.372 97.784 51.484 98.35 49.25 98.05 C 47.544 96.397 47.639 95.633 47.25 94.55 C 46.9 92.28 46.6 91.516 45.75 91.05 C 44.998 90.692 44.093 91.449 43.25 91.55 C 36.421 92.02 35.36 92.469 33.25 92.05 C 32.456 91.827 31.965 90.85 31.75 90.05 C 31.736 86.04 32.782 85.577 32.25 84.05 C 29.95 82.831 28.869 83.769 27.75 83.05 C 26.625 80.835 26.943 80.295 26.75 79.05 C 26.254 75.057 27.672 74.421 26.25 73.05 C 24.994 71.923 22.977 74.455 21.25 74.3 C 19.252 73.834 16.359 73.246 15.75 71.3 C 14.986 68.863 19.021 66.459 18.25 64.05 C 17.69 62.322 14.254 63.772 13.25 62.3 C 12.055 60.874 12.24 58.569 12.75 56.8 C 13.274 54.997 14.991 53.797 15.75 52.05 C 16.505 50.686 17.218 49.187 17.25 47.55 C 17.274 46.413 17.097 45.018 16.25 44.3 C 15.325 43.246 12.689 44.139 12.5 42.8 C 12.202 40.566 15.097 38.825 15.5 36.55 C 15.704 33.877 12.911 30.847 14.25 28.55 Z "/>
      <path id="ID0.6422801343724132" fill="none" stroke="#000000" stroke-width="0.9446965000148362" stroke-linecap="round" d="M 16.175 32.7555 C 16.175 32.7555 17.2827 32.899 17.8206 33.04 C 18.3018 33.1661 18.7384 33.4417 19.2232 33.5537 C 19.5297 33.6246 20.1675 33.5813 20.1675 33.5813 "/>
      <path id="ID0.7584992088377476" fill="none" stroke="#000000" stroke-width="0.9446965000148362" stroke-linecap="round" d="M 16.2658 37.72 C 16.2658 37.72 17.6519 38.2331 18.3766 38.2544 C 18.8002 38.2668 19.5708 37.8168 19.5708 37.8168 "/>
      <path id="ID0.40438934741541743" fill="none" stroke="#000000" stroke-width="0.9446965000148362" stroke-linecap="round" d="M 16.4682 46.9407 C 17.1893 46.4897 17.9318 46.0663 18.6343 45.5865 C 18.8181 45.461 19.1203 45.1282 19.1203 45.1282 "/>
      <path id="ID0.8195131137035787" fill="none" stroke="#000000" stroke-width="0.9446965000148362" stroke-linecap="round" d="M 15.9762 55.6684 C 15.9762 55.6684 16.5922 56.1595 16.8997 56.4043 C 17.2072 56.6491 17.5078 56.9056 17.8232 57.1402 C 18.2783 57.4791 18.7495 57.7977 19.212 58.126 C 19.3277 58.2078 19.212 58.126 19.212 58.126 "/>
      <path id="ID0.923992021009326" fill="none" stroke="#000000" stroke-width="0.9446965000148362" stroke-linecap="round" d="M 16.0324 61.8132 C 16.0324 61.8132 20.0456 61.9308 20.0456 61.9308 "/>
      <path id="ID0.6422801343724132" fill="none" stroke="#000000" stroke-width="0.9446965000148362" stroke-linecap="round" d="M 22.725 23.6555 C 22.725 23.6555 23.8327 23.799 24.3706 23.94 C 24.8518 24.0661 25.2884 24.3417 25.7732 24.4537 C 26.0797 24.5246 26.7175 24.4813 26.7175 24.4813 "/>
      <path id="ID0.7584992088377476" fill="none" stroke="#000000" stroke-width="0.9446965000148362" stroke-linecap="round" d="M 22.8158 28.62 C 22.8158 28.62 24.2019 29.1331 24.9266 29.1544 C 25.3502 29.1668 26.1208 28.7168 26.1208 28.7168 "/>
      <path id="ID0.40438934741541743" fill="none" stroke="#000000" stroke-width="0.9446965000148362" stroke-linecap="round" d="M 23.0182 37.8407 C 23.7393 37.3897 24.4818 36.9663 25.1843 36.4865 C 25.3681 36.361 25.6703 36.0282 25.6703 36.0282 "/>
      <path id="ID0.7633831659331918" fill="none" stroke="#000000" stroke-width="0.9446965000148362" stroke-linecap="round" d="M 21.2827 40.6251 C 21.2827 40.6251 22.8501 40.8511 23.6365 40.9304 C 23.9493 40.9617 24.2663 40.9488 24.5808 40.958 C 24.9741 40.9695 25.3678 40.9811 25.7611 40.9926 C 25.8593 40.9955 25.7611 40.9926 25.7611 40.9926 "/>
      <path id="ID0.8195131137035787" fill="none" stroke="#000000" stroke-width="0.9446965000148362" stroke-linecap="round" d="M 22.5262 46.5684 C 22.5262 46.5684 23.1422 47.0595 23.4497 47.3043 C 23.7572 47.5491 24.0578 47.8056 24.3732 48.0402 C 24.8283 48.3791 25.2995 48.6977 25.762 49.026 C 25.8777 49.1078 25.762 49.026 25.762 49.026 "/>
      <path id="ID0.923992021009326" fill="none" stroke="#000000" stroke-width="0.9446965000148362" stroke-linecap="round" d="M 22.5824 52.7132 C 22.5824 52.7132 26.5956 52.8308 26.5956 52.8308 "/>
      <path id="ID0.6422801343724132" fill="none" stroke="#000000" stroke-width="0.9446965000148362" stroke-linecap="round" d="M 30.625 19.0555 C 30.625 19.0555 31.7327 19.199 32.2706 19.34 C 32.7518 19.4661 33.1884 19.7417 33.6732 19.8537 C 33.9797 19.9246 34.6175 19.8813 34.6175 19.8813 "/>
      <path id="ID0.7584992088377476" fill="none" stroke="#000000" stroke-width="0.9446965000148362" stroke-linecap="round" d="M 30.7158 24.02 C 30.7158 24.02 32.1019 24.5331 32.8266 24.5544 C 33.2502 24.5668 34.0208 24.1168 34.0208 24.1168 "/>
      <path id="ID0.40438934741541743" fill="none" stroke="#000000" stroke-width="0.9446965000148362" stroke-linecap="round" d="M 30.9182 33.2407 C 31.6393 32.7897 32.3818 32.3663 33.0843 31.8865 C 33.2681 31.761 33.5703 31.4282 33.5703 31.4282 "/>
      <path id="ID0.7633831659331918" fill="none" stroke="#000000" stroke-width="0.9446965000148362" stroke-linecap="round" d="M 29.1827 36.0251 C 29.1827 36.0251 30.7501 36.2511 31.5365 36.3304 C 31.8493 36.3617 32.1663 36.3488 32.4808 36.358 C 32.8741 36.3695 33.2678 36.3811 33.6611 36.3926 C 33.7593 36.3955 33.6611 36.3926 33.6611 36.3926 "/>
      <path id="ID0.8195131137035787" fill="none" stroke="#000000" stroke-width="0.9446965000148362" stroke-linecap="round" d="M 30.4262 41.9684 C 30.4262 41.9684 31.0422 42.4595 31.3497 42.7043 C 31.6572 42.9491 31.9578 43.2056 32.2732 43.4402 C 32.7283 43.7791 33.1995 44.0977 33.662 44.426 C 33.7777 44.5078 33.662 44.426 33.662 44.426 "/>
      <path id="ID0.923992021009326" fill="none" stroke="#000000" stroke-width="0.9446965000148362" stroke-linecap="round" d="M 30.4824 48.1132 C 30.4824 48.1132 34.4956 48.2308 34.4956 48.2308 "/>
      <path id="ID0.6422801343724132" fill="none" stroke="#000000" stroke-width="0.9446965000148362" stroke-linecap="round" d="M 38.275 16.0555 C 38.275 16.0555 39.3827 16.199 39.9206 16.34 C 40.4018 16.4661 40.8384 16.7417 41.3232 16.8537 C 41.6297 16.9246 42.2675 16.8813 42.2675 16.8813 "/>
      <path id="ID0.7584992088377476" fill="none" stroke="#000000" stroke-width="0.9446965000148362" stroke-linecap="round" d="M 38.3658 21.02 C 38.3658 21.02 39.7519 21.5331 40.4766 21.5544 C 40.9002 21.5668 41.6708 21.1168 41.6708 21.1168 "/>
      <path id="ID0.40438934741541743" fill="none" stroke="#000000" stroke-width="0.9446965000148362" stroke-linecap="round" d="M 38.5682 30.2407 C 39.2893 29.7897 40.0318 29.3663 40.7343 28.8865 C 40.9181 28.761 41.2203 28.4282 41.2203 28.4282 "/>
      <path id="ID0.7633831659331918" fill="none" stroke="#000000" stroke-width="0.9446965000148362" stroke-linecap="round" d="M 36.8327 33.0251 C 36.8327 33.0251 38.4001 33.2511 39.1865 33.3304 C 39.4993 33.3617 39.8163 33.3488 40.1308 33.358 C 40.5241 33.3695 40.9178 33.3811 41.3111 33.3926 C 41.4093 33.3955 41.3111 33.3926 41.3111 33.3926 "/>
      <path id="ID0.8195131137035787" fill="none" stroke="#000000" stroke-width="0.9446965000148362" stroke-linecap="round" d="M 38.0762 38.9684 C 38.0762 38.9684 38.6922 39.4595 38.9997 39.7043 C 39.3072 39.9491 39.6078 40.2056 39.9232 40.4402 C 40.3783 40.7791 40.8495 41.0977 41.312 41.426 C 41.4277 41.5078 41.312 41.426 41.312 41.426 "/>
      <path id="ID0.923992021009326" fill="none" stroke="#000000" stroke-width="0.9446965000148362" stroke-linecap="round" d="M 38.1324 45.1132 C 38.1324 45.1132 42.1456 45.2308 42.1456 45.2308 "/>
      <path id="ID0.6422801343724132" fill="none" stroke="#000000" stroke-width="0.9446965000148362" stroke-linecap="round" d="M 43.225 9.3555 C 43.225 9.3555 44.3327 9.499 44.8706 9.64 C 45.3518 9.7661 45.7884 10.0417 46.2732 10.1537 C 46.5797 10.2246 47.2175 10.1813 47.2175 10.1813 "/>
      <path id="ID0.7584992088377476" fill="none" stroke="#000000" stroke-width="0.9446965000148362" stroke-linecap="round" d="M 43.3158 14.32 C 43.3158 14.32 44.7019 14.8331 45.4266 14.8544 C 45.8502 14.8668 46.6208 14.4168 46.6208 14.4168 "/>
      <path id="ID0.40438934741541743" fill="none" stroke="#000000" stroke-width="0.9446965000148362" stroke-linecap="round" d="M 43.5182 23.5407 C 44.2393 23.0897 44.9818 22.6663 45.6843 22.1865 C 45.8681 22.061 46.1703 21.7282 46.1703 21.7282 "/>
      <path id="ID0.7633831659331918" fill="none" stroke="#000000" stroke-width="0.9446965000148362" stroke-linecap="round" d="M 41.7827 26.3251 C 41.7827 26.3251 43.3501 26.5511 44.1365 26.6304 C 44.4493 26.6617 44.7663 26.6488 45.0808 26.658 C 45.4741 26.6695 45.8678 26.6811 46.2611 26.6926 C 46.3593 26.6955 46.2611 26.6926 46.2611 26.6926 "/>
      <path id="ID0.8195131137035787" fill="none" stroke="#000000" stroke-width="0.9446965000148362" stroke-linecap="round" d="M 43.0262 32.2684 C 43.0262 32.2684 43.6422 32.7595 43.9497 33.0043 C 44.2572 33.2491 44.5578 33.5056 44.8732 33.7402 C 45.3283 34.0791 45.7995 34.3977 46.262 34.726 C 46.3777 34.8078 46.262 34.726 46.262 34.726 "/>
      <path id="ID0.923992021009326" fill="none" stroke="#000000" stroke-width="0.9446965000148362" stroke-linecap="round" d="M 43.0824 38.4132 C 43.0824 38.4132 47.0956 38.5308 47.0956 38.5308 "/>
      <path id="ID0.6422801343724132" fill="none" stroke="#000000" stroke-width="0.9446965000148362" stroke-linecap="round" d="M 51.375 8.0555 C 51.375 8.0555 52.4827 8.199 53.0206 8.34 C 53.5018 8.4661 53.9384 8.7417 54.4232 8.8537 C 54.7297 8.9246 55.3675 8.8813 55.3675 8.8813 "/>
      <path id="ID0.7584992088377476" fill="none" stroke="#000000" stroke-width="0.9446965000148362" stroke-linecap="round" d="M 51.4658 13.02 C 51.4658 13.02 52.8519 13.5331 53.5766 13.5544 C 54.0002 13.5668 54.7708 13.1168 54.7708 13.1168 "/>
      <path id="ID0.40438934741541743" fill="none" stroke="#000000" stroke-width="0.9446965000148362" stroke-linecap="round" d="M 51.6682 22.2407 C 52.3893 21.7897 53.1318 21.3663 53.8343 20.8865 C 54.0181 20.761 54.3203 20.4282 54.3203 20.4282 "/>
      <path id="ID0.7633831659331918" fill="none" stroke="#000000" stroke-width="0.9446965000148362" stroke-linecap="round" d="M 49.9327 25.0251 C 49.9327 25.0251 51.5001 25.2511 52.2865 25.3304 C 52.5993 25.3617 52.9163 25.3488 53.2308 25.358 C 53.6241 25.3695 54.0178 25.3811 54.4111 25.3926 C 54.5093 25.3955 54.4111 25.3926 54.4111 25.3926 "/>
      <path id="ID0.8195131137035787" fill="none" stroke="#000000" stroke-width="0.9446965000148362" stroke-linecap="round" d="M 51.1762 30.9684 C 51.1762 30.9684 51.7922 31.4595 52.0997 31.7043 C 52.4072 31.9491 52.7078 32.2056 53.0232 32.4402 C 53.4783 32.7791 53.9495 33.0977 54.412 33.426 C 54.5277 33.5078 54.412 33.426 54.412 33.426 "/>
      <path id="ID0.923992021009326" fill="none" stroke="#000000" stroke-width="0.9446965000148362" stroke-linecap="round" d="M 51.2324 37.1132 C 51.2324 37.1132 55.2456 37.2308 55.2456 37.2308 "/>
      <path id="ID0.6422801343724132" fill="none" stroke="#000000" stroke-width="0.9446965000148362" stroke-linecap="round" d="M 58.625 5.1555 C 58.625 5.1555 59.7327 5.299 60.2706 5.44 C 60.7518 5.5661 61.1884 5.8417 61.6732 5.9537 C 61.9797 6.0246 62.6175 5.9813 62.6175 5.9813 "/>
      <path id="ID0.7584992088377476" fill="none" stroke="#000000" stroke-width="0.9446965000148362" stroke-linecap="round" d="M 58.7158 10.12 C 58.7158 10.12 60.1019 10.6331 60.8266 10.6544 C 61.2502 10.6668 62.0208 10.2168 62.0208 10.2168 "/>
      <path id="ID0.40438934741541743" fill="none" stroke="#000000" stroke-width="0.9446965000148362" stroke-linecap="round" d="M 58.9182 19.3407 C 59.6393 18.8897 60.3818 18.4663 61.0843 17.9865 C 61.2681 17.861 61.5703 17.5282 61.5703 17.5282 "/>
      <path id="ID0.7633831659331918" fill="none" stroke="#000000" stroke-width="0.9446965000148362" stroke-linecap="round" d="M 57.1827 22.1251 C 57.1827 22.1251 58.7501 22.3511 59.5365 22.4304 C 59.8493 22.4617 60.1663 22.4488 60.4808 22.458 C 60.8741 22.4695 61.2678 22.4811 61.6611 22.4926 C 61.7593 22.4955 61.6611 22.4926 61.6611 22.4926 "/>
      <path id="ID0.8195131137035787" fill="none" stroke="#000000" stroke-width="0.9446965000148362" stroke-linecap="round" d="M 58.4262 28.0684 C 58.4262 28.0684 59.0422 28.5595 59.3497 28.8043 C 59.6572 29.0491 59.9578 29.3056 60.2732 29.5402 C 60.7283 29.8791 61.1995 30.1977 61.662 30.526 C 61.7777 30.6078 61.662 30.526 61.662 30.526 "/>
      <path id="ID0.923992021009326" fill="none" stroke="#000000" stroke-width="0.9446965000148362" stroke-linecap="round" d="M 58.4824 34.2132 C 58.4824 34.2132 62.4956 34.3308 62.4956 34.3308 "/>
      <path id="ID0.6422801343724132" fill="none" stroke="#000000" stroke-width="0.9446965000148362" stroke-linecap="round" d="M 65.425 4.7555 C 65.425 4.7555 66.5327 4.899 67.0706 5.04 C 67.5518 5.1661 67.9884 5.4417 68.4732 5.5537 C 68.7797 5.6246 69.4175 5.5813 69.4175 5.5813 "/>
      <path id="ID0.7584992088377476" fill="none" stroke="#000000" stroke-width="0.9446965000148362" stroke-linecap="round" d="M 65.5158 9.72 C 65.5158 9.72 66.9019 10.2331 67.6266 10.2544 C 68.0502 10.2668 68.8208 9.8168 68.8208 9.8168 "/>
      <path id="ID0.40438934741541743" fill="none" stroke="#000000" stroke-width="0.9446965000148362" stroke-linecap="round" d="M 65.7182 18.9407 C 66.4393 18.4897 67.1818 18.0663 67.8843 17.5865 C 68.0681 17.461 68.3703 17.1282 68.3703 17.1282 "/>
      <path id="ID0.7633831659331918" fill="none" stroke="#000000" stroke-width="0.9446965000148362" stroke-linecap="round" d="M 63.9827 21.7251 C 63.9827 21.7251 65.5501 21.9511 66.3365 22.0304 C 66.6493 22.0617 66.9663 22.0488 67.2808 22.058 C 67.6741 22.0695 68.0678 22.0811 68.4611 22.0926 C 68.5593 22.0955 68.4611 22.0926 68.4611 22.0926 "/>
      <path id="ID0.8195131137035787" fill="none" stroke="#000000" stroke-width="0.9446965000148362" stroke-linecap="round" d="M 65.2262 27.6684 C 65.2262 27.6684 65.8422 28.1595 66.1497 28.4043 C 66.4572 28.6491 66.7578 28.9056 67.0732 29.1402 C 67.5283 29.4791 67.9995 29.7977 68.462 30.126 C 68.5777 30.2078 68.462 30.126 68.462 30.126 "/>
      <path id="ID0.923992021009326" fill="none" stroke="#000000" stroke-width="0.9446965000148362" stroke-linecap="round" d="M 65.2824 33.8132 C 65.2824 33.8132 69.2956 33.9308 69.2956 33.9308 "/>
      <path id="ID0.6422801343724132" fill="none" stroke="#000000" stroke-width="0.9446965000148362" stroke-linecap="round" d="M 71.925 8.7555 C 71.925 8.7555 73.0327 8.899 73.5706 9.04 C 74.0518 9.1661 74.4884 9.4417 74.9732 9.5537 C 75.2797 9.6246 75.9175 9.5813 75.9175 9.5813 "/>
      <path id="ID0.7584992088377476" fill="none" stroke="#000000" stroke-width="0.9446965000148362" stroke-linecap="round" d="M 72.0158 13.72 C 72.0158 13.72 73.4019 14.2331 74.1266 14.2544 C 74.5502 14.2668 75.3208 13.8168 75.3208 13.8168 "/>
      <path id="ID0.40438934741541743" fill="none" stroke="#000000" stroke-width="0.9446965000148362" stroke-linecap="round" d="M 72.2182 22.9407 C 72.9393 22.4897 73.6818 22.0663 74.3843 21.5865 C 74.5681 21.461 74.8703 21.1282 74.8703 21.1282 "/>
      <path id="ID0.7633831659331918" fill="none" stroke="#000000" stroke-width="0.9446965000148362" stroke-linecap="round" d="M 70.4827 25.7251 C 70.4827 25.7251 72.0501 25.9511 72.8365 26.0304 C 73.1493 26.0617 73.4663 26.0488 73.7808 26.058 C 74.1741 26.0695 74.5678 26.0811 74.9611 26.0926 C 75.0593 26.0955 74.9611 26.0926 74.9611 26.0926 "/>
      <path id="ID0.8195131137035787" fill="none" stroke="#000000" stroke-width="0.9446965000148362" stroke-linecap="round" d="M 71.7262 31.6684 C 71.7262 31.6684 72.3422 32.1595 72.6497 32.4043 C 72.9572 32.6491 73.2578 32.9056 73.5732 33.1402 C 74.0283 33.4791 74.4995 33.7977 74.962 34.126 C 75.0777 34.2078 74.962 34.126 74.962 34.126 "/>
      <path id="ID0.6422801343724132" fill="none" stroke="#000000" stroke-width="0.9446965000148362" stroke-linecap="round" d="M 77.675 6.7555 C 77.675 6.7555 78.7827 6.899 79.3206 7.04 C 79.8018 7.1661 80.2384 7.4417 80.7232 7.5537 C 81.0297 7.6246 81.6675 7.5813 81.6675 7.5813 "/>
      <path id="ID0.7584992088377476" fill="none" stroke="#000000" stroke-width="0.9446965000148362" stroke-linecap="round" d="M 77.7658 11.72 C 77.7658 11.72 79.1519 12.2331 79.8766 12.2544 C 80.3002 12.2668 81.0708 11.8168 81.0708 11.8168 "/>
      <path id="ID0.40438934741541743" fill="none" stroke="#000000" stroke-width="0.9446965000148362" stroke-linecap="round" d="M 77.9682 20.9407 C 78.6893 20.4897 79.4318 20.0663 80.1343 19.5865 C 80.3181 19.461 80.6203 19.1282 80.6203 19.1282 "/>
      <path id="ID0.7633831659331918" fill="none" stroke="#000000" stroke-width="0.9446965000148362" stroke-linecap="round" d="M 76.2327 23.7251 C 76.2327 23.7251 77.8001 23.9511 78.5865 24.0304 C 78.8993 24.0617 79.2163 24.0488 79.5308 24.058 C 79.9241 24.0695 80.3178 24.0811 80.7111 24.0926 C 80.8093 24.0955 80.7111 24.0926 80.7111 24.0926 "/>
      <path id="ID0.8195131137035787" fill="none" stroke="#000000" stroke-width="0.9446965000148362" stroke-linecap="round" d="M 77.4762 29.6684 C 77.4762 29.6684 78.0922 30.1595 78.3997 30.4043 C 78.7072 30.6491 79.0078 30.9056 79.3232 31.1402 C 79.7783 31.4791 80.2495 31.7977 80.712 32.126 C 80.8277 32.2078 80.712 32.126 80.712 32.126 "/>
      <path id="ID0.923992021009326" fill="none" stroke="#000000" stroke-width="0.9446965000148362" stroke-linecap="round" d="M 77.5324 35.8132 C 77.5324 35.8132 81.5456 35.9308 81.5456 35.9308 "/>
      <path id="ID0.6422801343724132" fill="none" stroke="#000000" stroke-width="0.9446965000148362" stroke-linecap="round" d="M 84.775 11.8555 C 84.775 11.8555 85.8827 11.999 86.4206 12.14 C 86.9018 12.2661 87.3384 12.5417 87.8232 12.6537 C 88.1297 12.7246 88.7675 12.6813 88.7675 12.6813 "/>
      <path id="ID0.7584992088377476" fill="none" stroke="#000000" stroke-width="0.9446965000148362" stroke-linecap="round" d="M 84.8658 16.82 C 84.8658 16.82 86.2519 17.3331 86.9766 17.3544 C 87.4002 17.3668 88.1708 16.9168 88.1708 16.9168 "/>
      <path id="ID0.40438934741541743" fill="none" stroke="#000000" stroke-width="0.9446965000148362" stroke-linecap="round" d="M 85.0682 26.0407 C 85.7893 25.5897 86.5318 25.1663 87.2343 24.6865 C 87.4181 24.561 87.7203 24.2282 87.7203 24.2282 "/>
      <path id="ID0.7633831659331918" fill="none" stroke="#000000" stroke-width="0.9446965000148362" stroke-linecap="round" d="M 83.3327 28.8251 C 83.3327 28.8251 84.9001 29.0511 85.6865 29.1304 C 85.9993 29.1617 86.3163 29.1488 86.6308 29.158 C 87.0241 29.1695 87.4178 29.1811 87.8111 29.1926 C 87.9093 29.1955 87.8111 29.1926 87.8111 29.1926 "/>
      <path id="ID0.8195131137035787" fill="none" stroke="#000000" stroke-width="0.9446965000148362" stroke-linecap="round" d="M 84.5762 34.7684 C 84.5762 34.7684 85.1922 35.2595 85.4997 35.5043 C 85.8072 35.7491 86.1078 36.0056 86.4232 36.2402 C 86.8783 36.5791 87.3495 36.8977 87.812 37.226 C 87.9277 37.3078 87.812 37.226 87.812 37.226 "/>
      <path id="ID0.923992021009326" fill="none" stroke="#000000" stroke-width="0.9446965000148362" stroke-linecap="round" d="M 84.6324 40.9132 C 84.6324 40.9132 88.6456 41.0308 88.6456 41.0308 "/>
      <path id="ID0.6422801343724132" fill="none" stroke="#000000" stroke-width="0.9446965000148362" stroke-linecap="round" d="M 91.775 15.3055 C 91.775 15.3055 92.8827 15.449 93.4206 15.59 C 93.9018 15.7161 94.3384 15.9917 94.8232 16.1037 C 95.1297 16.1746 95.7675 16.1313 95.7675 16.1313 "/>
      <path id="ID0.7584992088377476" fill="none" stroke="#000000" stroke-width="0.9446965000148362" stroke-linecap="round" d="M 91.8658 20.27 C 91.8658 20.27 93.2519 20.7831 93.9766 20.8044 C 94.4002 20.8168 95.1708 20.3668 95.1708 20.3668 "/>
      <path id="ID0.40438934741541743" fill="none" stroke="#000000" stroke-width="0.9446965000148362" stroke-linecap="round" d="M 92.0682 29.4907 C 92.7893 29.0397 93.5318 28.6163 94.2343 28.1365 C 94.4181 28.011 94.7203 27.6782 94.7203 27.6782 "/>
      <path id="ID0.7633831659331918" fill="none" stroke="#000000" stroke-width="0.9446965000148362" stroke-linecap="round" d="M 90.3327 32.2751 C 90.3327 32.2751 91.9001 32.5011 92.6865 32.5804 C 92.9993 32.6117 93.3163 32.5988 93.6308 32.608 C 94.0241 32.6195 94.4178 32.6311 94.8111 32.6426 C 94.9093 32.6455 94.8111 32.6426 94.8111 32.6426 "/>
      <path id="ID0.8195131137035787" fill="none" stroke="#000000" stroke-width="0.9446965000148362" stroke-linecap="round" d="M 91.5762 38.2184 C 91.5762 38.2184 92.1922 38.7095 92.4997 38.9543 C 92.8072 39.1991 93.1078 39.4556 93.4232 39.6902 C 93.8783 40.0291 94.3495 40.3477 94.812 40.676 C 94.9277 40.7578 94.812 40.676 94.812 40.676 "/>
      <path id="ID0.923992021009326" fill="none" stroke="#000000" stroke-width="0.9446965000148362" stroke-linecap="round" d="M 91.6324 44.3632 C 91.6324 44.3632 95.6456 44.4808 95.6456 44.4808 "/>
      <path id="ID0.6422801343724132" fill="none" stroke="#000000" stroke-width="0.9446965000148362" stroke-linecap="round" d="M 99.975 20.3055 C 99.975 20.3055 101.0827 20.449 101.6206 20.59 C 102.1018 20.7161 102.5384 20.9917 103.0232 21.1037 C 103.3297 21.1746 103.9675 21.1313 103.9675 21.1313 "/>
      <path id="ID0.7584992088377476" fill="none" stroke="#000000" stroke-width="0.9446965000148362" stroke-linecap="round" d="M 100.0658 25.27 C 100.0658 25.27 101.4519 25.7831 102.1766 25.8044 C 102.6002 25.8168 103.3708 25.3668 103.3708 25.3668 "/>
      <path id="ID0.40438934741541743" fill="none" stroke="#000000" stroke-width="0.9446965000148362" stroke-linecap="round" d="M 100.2682 34.4907 C 100.9893 34.0397 101.7318 33.6163 102.4343 33.1365 C 102.6181 33.011 102.9203 32.6782 102.9203 32.6782 "/>
      <path id="ID0.7633831659331918" fill="none" stroke="#000000" stroke-width="0.9446965000148362" stroke-linecap="round" d="M 98.5327 37.2751 C 98.5327 37.2751 100.1001 37.5011 100.8865 37.5804 C 101.1993 37.6117 101.5163 37.5988 101.8308 37.608 C 102.2241 37.6195 102.6178 37.6311 103.0111 37.6426 C 103.1093 37.6455 103.0111 37.6426 103.0111 37.6426 "/>
      <path id="ID0.8195131137035787" fill="none" stroke="#000000" stroke-width="0.9446965000148362" stroke-linecap="round" d="M 99.7762 43.2184 C 99.7762 43.2184 100.3922 43.7095 100.6997 43.9543 C 101.0072 44.1991 101.3078 44.4556 101.6232 44.6902 C 102.0783 45.0291 102.5495 45.3477 103.012 45.676 C 103.1277 45.7578 103.012 45.676 103.012 45.676 "/>
      <path id="ID0.6422801343724132" fill="none" stroke="#000000" stroke-width="0.9446965000148362" stroke-linecap="round" d="M 106.375 21.7555 C 106.375 21.7555 107.4827 21.899 108.0206 22.04 C 108.5018 22.1661 108.9384 22.4417 109.4232 22.5537 C 109.7297 22.6246 110.3675 22.5813 110.3675 22.5813 "/>
      <path id="ID0.7584992088377476" fill="none" stroke="#000000" stroke-width="0.9446965000148362" stroke-linecap="round" d="M 106.4658 26.72 C 106.4658 26.72 107.8519 27.2331 108.5766 27.2544 C 109.0002 27.2668 109.7708 26.8168 109.7708 26.8168 "/>
      <path id="ID0.40438934741541743" fill="none" stroke="#000000" stroke-width="0.9446965000148362" stroke-linecap="round" d="M 106.6682 35.9407 C 107.3893 35.4897 108.1318 35.0663 108.8343 34.5865 C 109.0181 34.461 109.3203 34.1282 109.3203 34.1282 "/>
      <path id="ID0.7633831659331918" fill="none" stroke="#000000" stroke-width="0.9446965000148362" stroke-linecap="round" d="M 104.9327 38.7251 C 104.9327 38.7251 106.5001 38.9511 107.2865 39.0304 C 107.5993 39.0617 107.9163 39.0488 108.2308 39.058 C 108.6241 39.0695 109.0178 39.0811 109.4111 39.0926 C 109.5093 39.0955 109.4111 39.0926 109.4111 39.0926 "/>
      <path id="ID0.8195131137035787" fill="none" stroke="#000000" stroke-width="0.9446965000148362" stroke-linecap="round" d="M 106.1762 44.6684 C 106.1762 44.6684 106.7922 45.1595 107.0997 45.4043 C 107.4072 45.6491 107.7078 45.9056 108.0232 46.1402 C 108.4783 46.4791 108.9495 46.7977 109.412 47.126 C 109.5277 47.2078 109.412 47.126 109.412 47.126 "/>
      <path id="ID0.923992021009326" fill="none" stroke="#000000" stroke-width="0.9446965000148362" stroke-linecap="round" d="M 106.2324 50.8132 C 106.2324 50.8132 110.2456 50.9308 110.2456 50.9308 "/>
      <path id="ID0.6422801343724132" fill="none" stroke="#000000" stroke-width="0.9446965000148362" stroke-linecap="round" d="M 112.025 28.9555 C 112.025 28.9555 113.1327 29.099 113.6706 29.24 C 114.1518 29.3661 114.5884 29.6417 115.0732 29.7537 C 115.3797 29.8246 116.0175 29.7813 116.0175 29.7813 "/>
      <path id="ID0.7584992088377476" fill="none" stroke="#000000" stroke-width="0.9446965000148362" stroke-linecap="round" d="M 112.1158 33.92 C 112.1158 33.92 113.5019 34.4331 114.2266 34.4544 C 114.6502 34.4668 115.4208 34.0168 115.4208 34.0168 "/>
      <path id="ID0.40438934741541743" fill="none" stroke="#000000" stroke-width="0.9446965000148362" stroke-linecap="round" d="M 112.3182 43.1407 C 113.0393 42.6897 113.7818 42.2663 114.4843 41.7865 C 114.6681 41.661 114.9703 41.3282 114.9703 41.3282 "/>
      <path id="ID0.7633831659331918" fill="none" stroke="#000000" stroke-width="0.9446965000148362" stroke-linecap="round" d="M 110.5827 45.9251 C 110.5827 45.9251 112.1501 46.1511 112.9365 46.2304 C 113.2493 46.2617 113.5663 46.2488 113.8808 46.258 C 114.2741 46.2695 114.6678 46.2811 115.0611 46.2926 C 115.1593 46.2955 115.0611 46.2926 115.0611 46.2926 "/>
      <path id="ID0.8195131137035787" fill="none" stroke="#000000" stroke-width="0.9446965000148362" stroke-linecap="round" d="M 111.8262 51.8684 C 111.8262 51.8684 112.4422 52.3595 112.7497 52.6043 C 113.0572 52.8491 113.3578 53.1056 113.6732 53.3402 C 114.1283 53.6791 114.5995 53.9977 115.062 54.326 C 115.1777 54.4078 115.062 54.326 115.062 54.326 "/>
      <path id="ID0.923992021009326" fill="none" stroke="#000000" stroke-width="0.9446965000148362" stroke-linecap="round" d="M 111.8824 58.0132 C 111.8824 58.0132 115.8956 58.1308 115.8956 58.1308 "/>
      <path id="ID0.6422801343724132" fill="none" stroke="#000000" stroke-width="0.9446965000148362" stroke-linecap="round" d="M 30.175 51.7055 C 30.175 51.7055 31.2827 51.849 31.8206 51.99 C 32.3018 52.1161 32.7384 52.3917 33.2232 52.5037 C 33.5297 52.5746 34.1675 52.5313 34.1675 52.5313 "/>
      <path id="ID0.7584992088377476" fill="none" stroke="#000000" stroke-width="0.9446965000148362" stroke-linecap="round" d="M 30.2658 56.67 C 30.2658 56.67 31.6519 57.1831 32.3766 57.2044 C 32.8002 57.2168 33.5708 56.7668 33.5708 56.7668 "/>
      <path id="ID0.40438934741541743" fill="none" stroke="#000000" stroke-width="0.9446965000148362" stroke-linecap="round" d="M 30.4682 65.8907 C 31.1893 65.4397 31.9318 65.0163 32.6343 64.5365 C 32.8181 64.411 33.1203 64.0782 33.1203 64.0782 "/>
      <path id="ID0.7633831659331918" fill="none" stroke="#000000" stroke-width="0.9446965000148362" stroke-linecap="round" d="M 28.7327 68.6751 C 28.7327 68.6751 30.3001 68.9011 31.0865 68.9804 C 31.3993 69.0117 31.7163 68.9988 32.0308 69.008 C 32.4241 69.0195 32.8178 69.0311 33.2111 69.0426 C 33.3093 69.0455 33.2111 69.0426 33.2111 69.0426 "/>
      <path id="ID0.8195131137035787" fill="none" stroke="#000000" stroke-width="0.9446965000148362" stroke-linecap="round" d="M 29.9762 74.6184 C 29.9762 74.6184 30.5922 75.1095 30.8997 75.3543 C 31.2072 75.5991 31.5078 75.8556 31.8232 76.0902 C 32.2783 76.4291 32.7495 76.7477 33.212 77.076 C 33.3277 77.1578 33.212 77.076 33.212 77.076 "/>
      <path id="ID0.923992021009326" fill="none" stroke="#000000" stroke-width="0.9446965000148362" stroke-linecap="round" d="M 30.0324 80.7632 C 30.0324 80.7632 34.0456 80.8808 34.0456 80.8808 "/>
      <path id="ID0.6422801343724132" fill="none" stroke="#000000" stroke-width="0.9446965000148362" stroke-linecap="round" d="M 36.225 62.4055 C 36.225 62.4055 37.3327 62.549 37.8706 62.69 C 38.3518 62.8161 38.7884 63.0917 39.2732 63.2037 C 39.5797 63.2746 40.2175 63.2313 40.2175 63.2313 "/>
      <path id="ID0.7584992088377476" fill="none" stroke="#000000" stroke-width="0.9446965000148362" stroke-linecap="round" d="M 36.3158 67.37 C 36.3158 67.37 37.7019 67.8831 38.4266 67.9044 C 38.8502 67.9168 39.6208 67.4668 39.6208 67.4668 "/>
      <path id="ID0.40438934741541743" fill="none" stroke="#000000" stroke-width="0.9446965000148362" stroke-linecap="round" d="M 36.5182 76.5907 C 37.2393 76.1397 37.9818 75.7163 38.6843 75.2365 C 38.8681 75.111 39.1703 74.7782 39.1703 74.7782 "/>
      <path id="ID0.7633831659331918" fill="none" stroke="#000000" stroke-width="0.9446965000148362" stroke-linecap="round" d="M 34.7827 79.3751 C 34.7827 79.3751 36.3501 79.6011 37.1365 79.6804 C 37.4493 79.7117 37.7663 79.6988 38.0808 79.708 C 38.4741 79.7195 38.8678 79.7311 39.2611 79.7426 C 39.3593 79.7455 39.2611 79.7426 39.2611 79.7426 "/>
      <path id="ID0.8195131137035787" fill="none" stroke="#000000" stroke-width="0.9446965000148362" stroke-linecap="round" d="M 36.0262 85.3184 C 36.0262 85.3184 36.6422 85.8095 36.9497 86.0543 C 37.2572 86.2991 37.5578 86.5556 37.8732 86.7902 C 38.3283 87.1291 38.7995 87.4477 39.262 87.776 C 39.3777 87.8578 39.262 87.776 39.262 87.776 "/>
      <path id="ID0.923992021009326" fill="none" stroke="#000000" stroke-width="0.9446965000148362" stroke-linecap="round" d="M 36.0824 91.4632 C 36.0824 91.4632 40.0956 91.5808 40.0956 91.5808 "/>
      <path id="ID0.7584992088377476" fill="none" stroke="#000000" stroke-width="0.9446965000148362" stroke-linecap="round" d="M 42.8158 66.37 C 42.8158 66.37 44.2019 66.8831 44.9266 66.9044 C 45.3502 66.9168 46.1208 66.4668 46.1208 66.4668 "/>
      <path id="ID0.40438934741541743" fill="none" stroke="#000000" stroke-width="0.9446965000148362" stroke-linecap="round" d="M 43.0182 75.5907 C 43.7393 75.1397 44.4818 74.7163 45.1843 74.2365 C 45.3681 74.111 45.6703 73.7782 45.6703 73.7782 "/>
      <path id="ID0.7633831659331918" fill="none" stroke="#000000" stroke-width="0.9446965000148362" stroke-linecap="round" d="M 41.2827 78.3751 C 41.2827 78.3751 42.8501 78.6011 43.6365 78.6804 C 43.9493 78.7117 44.2663 78.6988 44.5808 78.708 C 44.9741 78.7195 45.3678 78.7311 45.7611 78.7426 C 45.8593 78.7455 45.7611 78.7426 45.7611 78.7426 "/>
      <path id="ID0.8195131137035787" fill="none" stroke="#000000" stroke-width="0.9446965000148362" stroke-linecap="round" d="M 42.5262 84.3184 C 42.5262 84.3184 43.1422 84.8095 43.4497 85.0543 C 43.7572 85.2991 44.0578 85.5556 44.3732 85.7902 C 44.8283 86.1291 45.2995 86.4477 45.762 86.776 C 45.8777 86.8578 45.762 86.776 45.762 86.776 "/>
      <path id="ID0.923992021009326" fill="none" stroke="#000000" stroke-width="0.9446965000148362" stroke-linecap="round" d="M 42.5824 90.4632 C 42.5824 90.4632 46.5956 90.5808 46.5956 90.5808 "/>
      <path id="ID0.6422801343724132" fill="none" stroke="#000000" stroke-width="0.9446965000148362" stroke-linecap="round" d="M 50.025 64.9055 C 50.025 64.9055 51.1327 65.049 51.6706 65.19 C 52.1518 65.3161 52.5884 65.5917 53.0732 65.7037 C 53.3797 65.7746 54.0175 65.7313 54.0175 65.7313 "/>
      <path id="ID0.7584992088377476" fill="none" stroke="#000000" stroke-width="0.9446965000148362" stroke-linecap="round" d="M 50.1158 69.87 C 50.1158 69.87 51.5019 70.3831 52.2266 70.4044 C 52.6502 70.4168 53.4208 69.9668 53.4208 69.9668 "/>
      <path id="ID0.40438934741541743" fill="none" stroke="#000000" stroke-width="0.9446965000148362" stroke-linecap="round" d="M 50.3182 79.0907 C 51.0393 78.6397 51.7818 78.2163 52.4843 77.7365 C 52.6681 77.611 52.9703 77.2782 52.9703 77.2782 "/>
      <path id="ID0.7633831659331918" fill="none" stroke="#000000" stroke-width="0.9446965000148362" stroke-linecap="round" d="M 48.5827 81.8751 C 48.5827 81.8751 50.1501 82.1011 50.9365 82.1804 C 51.2493 82.2117 51.5663 82.1988 51.8808 82.208 C 52.2741 82.2195 52.6678 82.2311 53.0611 82.2426 C 53.1593 82.2455 53.0611 82.2426 53.0611 82.2426 "/>
      <path id="ID0.8195131137035787" fill="none" stroke="#000000" stroke-width="0.9446965000148362" stroke-linecap="round" d="M 49.8262 87.8184 C 49.8262 87.8184 50.4422 88.3095 50.7497 88.5543 C 51.0572 88.7991 51.3578 89.0556 51.6732 89.2902 C 52.1283 89.6291 52.5995 89.9477 53.062 90.276 C 53.1777 90.3578 53.062 90.276 53.062 90.276 "/>
      <path id="ID0.923992021009326" fill="none" stroke="#000000" stroke-width="0.9446965000148362" stroke-linecap="round" d="M 49.8824 93.9632 C 49.8824 93.9632 53.8956 94.0808 53.8956 94.0808 "/>
      <path id="ID0.6422801343724132" fill="none" stroke="#000000" stroke-width="0.9446965000148362" stroke-linecap="round" d="M 57.125 66.4055 C 57.125 66.4055 58.2327 66.549 58.7706 66.69 C 59.2518 66.8161 59.6884 67.0917 60.1732 67.2037 C 60.4797 67.2746 61.1175 67.2313 61.1175 67.2313 "/>
      <path id="ID0.7584992088377476" fill="none" stroke="#000000" stroke-width="0.9446965000148362" stroke-linecap="round" d="M 57.2158 71.37 C 57.2158 71.37 58.6019 71.8831 59.3266 71.9044 C 59.7502 71.9168 60.5208 71.4668 60.5208 71.4668 "/>
      <path id="ID0.40438934741541743" fill="none" stroke="#000000" stroke-width="0.9446965000148362" stroke-linecap="round" d="M 57.4182 80.5907 C 58.1393 80.1397 58.8818 79.7163 59.5843 79.2365 C 59.7681 79.111 60.0703 78.7782 60.0703 78.7782 "/>
      <path id="ID0.7633831659331918" fill="none" stroke="#000000" stroke-width="0.9446965000148362" stroke-linecap="round" d="M 55.6827 83.3751 C 55.6827 83.3751 57.2501 83.6011 58.0365 83.6804 C 58.3493 83.7117 58.6663 83.6988 58.9808 83.708 C 59.3741 83.7195 59.7678 83.7311 60.1611 83.7426 C 60.2593 83.7455 60.1611 83.7426 60.1611 83.7426 "/>
      <path id="ID0.8195131137035787" fill="none" stroke="#000000" stroke-width="0.9446965000148362" stroke-linecap="round" d="M 56.9262 89.3184 C 56.9262 89.3184 57.5422 89.8095 57.8497 90.0543 C 58.1572 90.2991 58.4578 90.5556 58.7732 90.7902 C 59.2283 91.1291 59.6995 91.4477 60.162 91.776 C 60.2777 91.8578 60.162 91.776 60.162 91.776 "/>
      <path id="ID0.923992021009326" fill="none" stroke="#000000" stroke-width="0.9446965000148362" stroke-linecap="round" d="M 56.9824 95.4632 C 56.9824 95.4632 60.9956 95.5808 60.9956 95.5808 "/>
      <path id="ID0.6422801343724132" fill="none" stroke="#000000" stroke-width="0.9446965000148362" stroke-linecap="round" d="M 69.975 71.6555 C 69.975 71.6555 71.0827 71.799 71.6206 71.94 C 72.1018 72.0661 72.5384 72.3417 73.0232 72.4537 C 73.3297 72.5246 73.9675 72.4813 73.9675 72.4813 "/>
      <path id="ID0.7584992088377476" fill="none" stroke="#000000" stroke-width="0.9446965000148362" stroke-linecap="round" d="M 70.0658 76.62 C 70.0658 76.62 71.4519 77.1331 72.1766 77.1544 C 72.6002 77.1668 73.3708 76.7168 73.3708 76.7168 "/>
      <path id="ID0.40438934741541743" fill="none" stroke="#000000" stroke-width="0.9446965000148362" stroke-linecap="round" d="M 70.2682 85.8407 C 70.9893 85.3897 71.7318 84.9663 72.4343 84.4865 C 72.6181 84.361 72.9203 84.0282 72.9203 84.0282 "/>
      <path id="ID0.7633831659331918" fill="none" stroke="#000000" stroke-width="0.9446965000148362" stroke-linecap="round" d="M 68.5327 88.6251 C 68.5327 88.6251 70.1001 88.8511 70.8865 88.9304 C 71.1993 88.9617 71.5163 88.9488 71.8308 88.958 C 72.2241 88.9695 72.6178 88.9811 73.0111 88.9926 C 73.1093 88.9955 73.0111 88.9926 73.0111 88.9926 "/>
      <path id="ID0.8195131137035787" fill="none" stroke="#000000" stroke-width="0.9446965000148362" stroke-linecap="round" d="M 69.7762 94.5684 C 69.7762 94.5684 70.3922 95.0595 70.6997 95.3043 C 71.0072 95.5491 71.3078 95.8056 71.6232 96.0402 C 72.0783 96.3791 72.5495 96.6977 73.012 97.026 C 73.1277 97.1078 73.012 97.026 73.012 97.026 "/>
      <path id="ID0.923992021009326" fill="none" stroke="#000000" stroke-width="0.9446965000148362" stroke-linecap="round" d="M 69.8324 100.7132 C 69.8324 100.7132 73.8456 100.8308 73.8456 100.8308 "/>
      <path id="ID0.7584992088377476" fill="none" stroke="#000000" stroke-width="0.9446965000148362" stroke-linecap="round" d="M 63.8658 69.62 C 63.8658 69.62 65.2519 70.1331 65.9766 70.1544 C 66.4002 70.1668 67.1708 69.7168 67.1708 69.7168 "/>
      <path id="ID0.40438934741541743" fill="none" stroke="#000000" stroke-width="0.9446965000148362" stroke-linecap="round" d="M 64.0682 78.8407 C 64.7893 78.3897 65.5318 77.9663 66.2343 77.4865 C 66.4181 77.361 66.7203 77.0282 66.7203 77.0282 "/>
      <path id="ID0.7633831659331918" fill="none" stroke="#000000" stroke-width="0.9446965000148362" stroke-linecap="round" d="M 62.3327 81.6251 C 62.3327 81.6251 63.9001 81.8511 64.6865 81.9304 C 64.9993 81.9617 65.3163 81.9488 65.6308 81.958 C 66.0241 81.9695 66.4178 81.9811 66.8111 81.9926 C 66.9093 81.9955 66.8111 81.9926 66.8111 81.9926 "/>
      <path id="ID0.8195131137035787" fill="none" stroke="#000000" stroke-width="0.9446965000148362" stroke-linecap="round" d="M 63.5762 87.5684 C 63.5762 87.5684 64.1922 88.0595 64.4997 88.3043 C 64.8072 88.5491 65.1078 88.8056 65.4232 89.0402 C 65.8783 89.3791 66.3495 89.6977 66.812 90.026 C 66.9277 90.1078 66.812 90.026 66.812 90.026 "/>
      <path id="ID0.923992021009326" fill="none" stroke="#000000" stroke-width="0.9446965000148362" stroke-linecap="round" d="M 63.6324 93.7132 C 63.6324 93.7132 67.6456 93.8308 67.6456 93.8308 "/>
      <path id="ID0.7584992088377476" fill="none" stroke="#000000" stroke-width="0.9446965000148362" stroke-linecap="round" d="M 76.2158 71.37 C 76.2158 71.37 77.6019 71.8831 78.3266 71.9044 C 78.7502 71.9168 79.5208 71.4668 79.5208 71.4668 "/>
      <path id="ID0.40438934741541743" fill="none" stroke="#000000" stroke-width="0.9446965000148362" stroke-linecap="round" d="M 76.4182 80.5907 C 77.1393 80.1397 77.8818 79.7163 78.5843 79.2365 C 78.7681 79.111 79.0703 78.7782 79.0703 78.7782 "/>
      <path id="ID0.7633831659331918" fill="none" stroke="#000000" stroke-width="0.9446965000148362" stroke-linecap="round" d="M 74.6827 83.3751 C 74.6827 83.3751 76.2501 83.6011 77.0365 83.6804 C 77.3493 83.7117 77.6663 83.6988 77.9808 83.708 C 78.3741 83.7195 78.7678 83.7311 79.1611 83.7426 C 79.2593 83.7455 79.1611 83.7426 79.1611 83.7426 "/>
      <path id="ID0.8195131137035787" fill="none" stroke="#000000" stroke-width="0.9446965000148362" stroke-linecap="round" d="M 75.9262 89.3184 C 75.9262 89.3184 76.5422 89.8095 76.8497 90.0543 C 77.1572 90.2991 77.4578 90.5556 77.7732 90.7902 C 78.2283 91.1291 78.6995 91.4477 79.162 91.776 C 79.2777 91.8578 79.162 91.776 79.162 91.776 "/>
      <path id="ID0.923992021009326" fill="none" stroke="#000000" stroke-width="0.9446965000148362" stroke-linecap="round" d="M 75.9824 95.4632 C 75.9824 95.4632 79.9956 95.5808 79.9956 95.5808 "/>
      <path id="ID0.6422801343724132" fill="none" stroke="#000000" stroke-width="0.9446965000148362" stroke-linecap="round" d="M 83.875 65.1555 C 83.875 65.1555 84.9827 65.299 85.5206 65.44 C 86.0018 65.5661 86.4384 65.8417 86.9232 65.9537 C 87.2297 66.0246 87.8675 65.9813 87.8675 65.9813 "/>
      <path id="ID0.7584992088377476" fill="none" stroke="#000000" stroke-width="0.9446965000148362" stroke-linecap="round" d="M 83.9658 70.12 C 83.9658 70.12 85.3519 70.6331 86.0766 70.6544 C 86.5002 70.6668 87.2708 70.2168 87.2708 70.2168 "/>
      <path id="ID0.40438934741541743" fill="none" stroke="#000000" stroke-width="0.9446965000148362" stroke-linecap="round" d="M 84.1682 79.3407 C 84.8893 78.8897 85.6318 78.4663 86.3343 77.9865 C 86.5181 77.861 86.8203 77.5282 86.8203 77.5282 "/>
      <path id="ID0.7633831659331918" fill="none" stroke="#000000" stroke-width="0.9446965000148362" stroke-linecap="round" d="M 82.4327 82.1251 C 82.4327 82.1251 84.0001 82.3511 84.7865 82.4304 C 85.0993 82.4617 85.4163 82.4488 85.7308 82.458 C 86.1241 82.4695 86.5178 82.4811 86.9111 82.4926 C 87.0093 82.4955 86.9111 82.4926 86.9111 82.4926 "/>
      <path id="ID0.8195131137035787" fill="none" stroke="#000000" stroke-width="0.9446965000148362" stroke-linecap="round" d="M 83.6762 88.0684 C 83.6762 88.0684 84.2922 88.5595 84.5997 88.8043 C 84.9072 89.0491 85.2078 89.3056 85.5232 89.5402 C 85.9783 89.8791 86.4495 90.1977 86.912 90.526 C 87.0277 90.6078 86.912 90.526 86.912 90.526 "/>
      <path id="ID0.923992021009326" fill="none" stroke="#000000" stroke-width="0.9446965000148362" stroke-linecap="round" d="M 83.7324 94.2132 C 83.7324 94.2132 87.7456 94.3308 87.7456 94.3308 "/>
      <path id="ID0.7584992088377476" fill="none" stroke="#000000" stroke-width="0.9446965000148362" stroke-linecap="round" d="M 90.8158 69.37 C 90.8158 69.37 92.2019 69.8831 92.9266 69.9044 C 93.3502 69.9168 94.1208 69.4668 94.1208 69.4668 "/>
      <path id="ID0.40438934741541743" fill="none" stroke="#000000" stroke-width="0.9446965000148362" stroke-linecap="round" d="M 91.0182 78.5907 C 91.7393 78.1397 92.4818 77.7163 93.1843 77.2365 C 93.3681 77.111 93.6703 76.7782 93.6703 76.7782 "/>
      <path id="ID0.7633831659331918" fill="none" stroke="#000000" stroke-width="0.9446965000148362" stroke-linecap="round" d="M 89.2827 81.3751 C 89.2827 81.3751 90.8501 81.6011 91.6365 81.6804 C 91.9493 81.7117 92.2663 81.6988 92.5808 81.708 C 92.9741 81.7195 93.3678 81.7311 93.7611 81.7426 C 93.8593 81.7455 93.7611 81.7426 93.7611 81.7426 "/>
      <path id="ID0.8195131137035787" fill="none" stroke="#000000" stroke-width="0.9446965000148362" stroke-linecap="round" d="M 90.5262 87.3184 C 90.5262 87.3184 91.1422 87.8095 91.4497 88.0543 C 91.7572 88.2991 92.0578 88.5556 92.3732 88.7902 C 92.8283 89.1291 93.2995 89.4477 93.762 89.776 C 93.8777 89.8578 93.762 89.776 93.762 89.776 "/>
      <path id="ID0.923992021009326" fill="none" stroke="#000000" stroke-width="0.9446965000148362" stroke-linecap="round" d="M 90.5824 93.4632 C 90.5824 93.4632 94.5956 93.5808 94.5956 93.5808 "/>
      <path id="ID0.7584992088377476" fill="none" stroke="#000000" stroke-width="0.9446965000148362" stroke-linecap="round" d="M 97.0158 66.62 C 97.0158 66.62 98.4019 67.1331 99.1266 67.1544 C 99.5502 67.1668 100.3208 66.7168 100.3208 66.7168 "/>
      <path id="ID0.40438934741541743" fill="none" stroke="#000000" stroke-width="0.9446965000148362" stroke-linecap="round" d="M 97.2182 75.8407 C 97.9393 75.3897 98.6818 74.9663 99.3843 74.4865 C 99.5681 74.361 99.8703 74.0282 99.8703 74.0282 "/>
      <path id="ID0.7633831659331918" fill="none" stroke="#000000" stroke-width="0.9446965000148362" stroke-linecap="round" d="M 95.4827 78.6251 C 95.4827 78.6251 97.0501 78.8511 97.8365 78.9304 C 98.1493 78.9617 98.4663 78.9488 98.7808 78.958 C 99.1741 78.9695 99.5678 78.9811 99.9611 78.9926 C 100.0593 78.9955 99.9611 78.9926 99.9611 78.9926 "/>
      <path id="ID0.8195131137035787" fill="none" stroke="#000000" stroke-width="0.9446965000148362" stroke-linecap="round" d="M 96.7262 84.5684 C 96.7262 84.5684 97.3422 85.0595 97.6497 85.3043 C 97.9572 85.5491 98.2578 85.8056 98.5732 86.0402 C 99.0283 86.3791 99.4995 86.6977 99.962 87.026 C 100.0777 87.1078 99.962 87.026 99.962 87.026 "/>
      <path id="ID0.923992021009326" fill="none" stroke="#000000" stroke-width="0.9446965000148362" stroke-linecap="round" d="M 96.7824 90.7132 C 96.7824 90.7132 100.7956 90.8308 100.7956 90.8308 "/>
      <path id="ID0.6422801343724132" fill="none" stroke="#000000" stroke-width="0.9446965000148362" stroke-linecap="round" d="M 104.125 57.6555 C 104.125 57.6555 105.2327 57.799 105.7706 57.94 C 106.2518 58.0661 106.6884 58.3417 107.1732 58.4537 C 107.4797 58.5246 108.1175 58.4813 108.1175 58.4813 "/>
      <path id="ID0.7584992088377476" fill="none" stroke="#000000" stroke-width="0.9446965000148362" stroke-linecap="round" d="M 104.2158 62.62 C 104.2158 62.62 105.6019 63.1331 106.3266 63.1544 C 106.7502 63.1668 107.5208 62.7168 107.5208 62.7168 "/>
      <path id="ID0.40438934741541743" fill="none" stroke="#000000" stroke-width="0.9446965000148362" stroke-linecap="round" d="M 104.4182 71.8407 C 105.1393 71.3897 105.8818 70.9663 106.5843 70.4865 C 106.7681 70.361 107.0703 70.0282 107.0703 70.0282 "/>
      <path id="ID0.7633831659331918" fill="none" stroke="#000000" stroke-width="0.9446965000148362" stroke-linecap="round" d="M 102.6827 74.6251 C 102.6827 74.6251 104.2501 74.8511 105.0365 74.9304 C 105.3493 74.9617 105.6663 74.9488 105.9808 74.958 C 106.3741 74.9695 106.7678 74.9811 107.1611 74.9926 C 107.2593 74.9955 107.1611 74.9926 107.1611 74.9926 "/>
      <path id="ID0.8195131137035787" fill="none" stroke="#000000" stroke-width="0.9446965000148362" stroke-linecap="round" d="M 103.9262 80.5684 C 103.9262 80.5684 104.5422 81.0595 104.8497 81.3043 C 105.1572 81.5491 105.4578 81.8056 105.7732 82.0402 C 106.2283 82.3791 106.6995 82.6977 107.162 83.026 C 107.2777 83.1078 107.162 83.026 107.162 83.026 "/>
      <path id="ID0.923992021009326" fill="none" stroke="#000000" stroke-width="0.9446965000148362" stroke-linecap="round" d="M 103.9824 86.7132 C 103.9824 86.7132 107.9956 86.8308 107.9956 86.8308 "/>
      <path id="ID0.6422801343724132" fill="none" stroke="#000000" stroke-width="0.9446965000148362" stroke-linecap="round" d="M 109.525 55.4055 C 109.525 55.4055 110.6327 55.549 111.1706 55.69 C 111.6518 55.8161 112.0884 56.0917 112.5732 56.2037 C 112.8797 56.2746 113.5175 56.2313 113.5175 56.2313 "/>
      <path id="ID0.7584992088377476" fill="none" stroke="#000000" stroke-width="0.9446965000148362" stroke-linecap="round" d="M 111.2158 63.12 C 111.2158 63.12 112.6019 63.6331 113.3266 63.6544 C 113.7502 63.6668 114.5208 63.2168 114.5208 63.2168 "/>
      <path id="ID0.40438934741541743" fill="none" stroke="#000000" stroke-width="0.9446965000148362" stroke-linecap="round" d="M 109.8182 69.5907 C 110.5393 69.1397 111.2818 68.7163 111.9843 68.2365 C 112.1681 68.111 112.4703 67.7782 112.4703 67.7782 "/>
      <path id="ID0.7633831659331918" fill="none" stroke="#000000" stroke-width="0.9446965000148362" stroke-linecap="round" d="M 108.0827 72.3751 C 108.0827 72.3751 109.6501 72.6011 110.4365 72.6804 C 110.7493 72.7117 111.0663 72.6988 111.3808 72.708 C 111.7741 72.7195 112.1678 72.7311 112.5611 72.7426 C 112.6593 72.7455 112.5611 72.7426 112.5611 72.7426 "/>
      <path id="ID0.8195131137035787" fill="none" stroke="#000000" stroke-width="0.9446965000148362" stroke-linecap="round" d="M 109.3262 78.3184 C 109.3262 78.3184 109.9422 78.8095 110.2497 79.0543 C 110.5572 79.2991 110.8578 79.5556 111.1732 79.7902 C 111.6283 80.1291 112.0995 80.4477 112.562 80.776 C 112.6777 80.8578 112.562 80.776 112.562 80.776 "/>
      <path id="ID0.923992021009326" fill="none" stroke="#000000" stroke-width="0.9446965000148362" stroke-linecap="round" d="M 109.3824 84.4632 C 109.3824 84.4632 113.3956 84.5808 113.3956 84.5808 "/>
      <path id="ID0.6422801343724132" fill="none" stroke="#000000" stroke-width="0.9446965000148362" stroke-linecap="round" d="M 58.475 36.1555 C 58.475 36.1555 59.5827 36.299 60.1206 36.44 C 60.6018 36.5661 61.0384 36.8417 61.5232 36.9537 C 61.8297 37.0246 62.4675 36.9813 62.4675 36.9813 "/>
      <path id="ID0.7584992088377476" fill="none" stroke="#000000" stroke-width="0.9446965000148362" stroke-linecap="round" d="M 58.5658 41.12 C 58.5658 41.12 59.9519 41.6331 60.6766 41.6544 C 61.1002 41.6668 61.8708 41.2168 61.8708 41.2168 "/>
      <path id="ID0.40438934741541743" fill="none" stroke="#000000" stroke-width="0.9446965000148362" stroke-linecap="round" d="M 58.7682 50.3407 C 59.4893 49.8897 60.2318 49.4663 60.9343 48.9865 C 61.1181 48.861 61.4203 48.5282 61.4203 48.5282 "/>
      <path id="ID0.7633831659331918" fill="none" stroke="#000000" stroke-width="0.9446965000148362" stroke-linecap="round" d="M 57.0327 53.1251 C 57.0327 53.1251 58.6001 53.3511 59.3865 53.4304 C 59.6993 53.4617 60.0163 53.4488 60.3308 53.458 C 60.7241 53.4695 61.1178 53.4811 61.5111 53.4926 C 61.6093 53.4955 61.5111 53.4926 61.5111 53.4926 "/>
      <path id="ID0.8195131137035787" fill="none" stroke="#000000" stroke-width="0.9446965000148362" stroke-linecap="round" d="M 58.2762 59.0684 C 58.2762 59.0684 58.8922 59.5595 59.1997 59.8043 C 59.5072 60.0491 59.8078 60.3056 60.1232 60.5402 C 60.5783 60.8791 61.0495 61.1977 61.512 61.526 C 61.6277 61.6078 61.512 61.526 61.512 61.526 "/>
      <path id="ID0.6422801343724132" fill="none" stroke="#000000" stroke-width="0.9446965000148362" stroke-linecap="round" d="M 66.375 36.4055 C 66.375 36.4055 67.4827 36.549 68.0206 36.69 C 68.5018 36.8161 68.9384 37.0917 69.4232 37.2037 C 69.7297 37.2746 70.3675 37.2313 70.3675 37.2313 "/>
      <path id="ID0.7584992088377476" fill="none" stroke="#000000" stroke-width="0.9446965000148362" stroke-linecap="round" d="M 66.4658 41.37 C 66.4658 41.37 67.8519 41.8831 68.5766 41.9044 C 69.0002 41.9168 69.7708 41.4668 69.7708 41.4668 "/>
      <path id="ID0.40438934741541743" fill="none" stroke="#000000" stroke-width="0.9446965000148362" stroke-linecap="round" d="M 66.6682 50.5907 C 67.3893 50.1397 68.1318 49.7163 68.8343 49.2365 C 69.0181 49.111 69.3203 48.7782 69.3203 48.7782 "/>
      <path id="ID0.7633831659331918" fill="none" stroke="#000000" stroke-width="0.9446965000148362" stroke-linecap="round" d="M 64.9327 53.3751 C 64.9327 53.3751 66.5001 53.6011 67.2865 53.6804 C 67.5993 53.7117 67.9163 53.6988 68.2308 53.708 C 68.6241 53.7195 69.0178 53.7311 69.4111 53.7426 C 69.5093 53.7455 69.4111 53.7426 69.4111 53.7426 "/>
      <path id="ID0.8195131137035787" fill="none" stroke="#000000" stroke-width="0.9446965000148362" stroke-linecap="round" d="M 66.1762 59.3184 C 66.1762 59.3184 66.7922 59.8095 67.0997 60.0543 C 67.4072 60.2991 67.7078 60.5556 68.0232 60.7902 C 68.4783 61.1291 68.9495 61.4477 69.412 61.776 C 69.5277 61.8578 69.412 61.776 69.412 61.776 "/>
      <path id="ID0.923992021009326" fill="none" stroke="#000000" stroke-width="0.9446965000148362" stroke-linecap="round" d="M 66.2324 65.4632 C 66.2324 65.4632 70.2456 65.5808 70.2456 65.5808 "/>
      <path id="ID0.6422801343724132" fill="none" stroke="#000000" stroke-width="0.9446965000148362" stroke-linecap="round" d="M 73.725 38.9055 C 73.725 38.9055 74.8327 39.049 75.3706 39.19 C 75.8518 39.3161 76.2884 39.5917 76.7732 39.7037 C 77.0797 39.7746 77.7175 39.7313 77.7175 39.7313 "/>
      <path id="ID0.7584992088377476" fill="none" stroke="#000000" stroke-width="0.9446965000148362" stroke-linecap="round" d="M 73.8158 43.87 C 73.8158 43.87 75.2019 44.3831 75.9266 44.4044 C 76.3502 44.4168 77.1208 43.9668 77.1208 43.9668 "/>
      <path id="ID0.40438934741541743" fill="none" stroke="#000000" stroke-width="0.9446965000148362" stroke-linecap="round" d="M 74.0182 53.0907 C 74.7393 52.6397 75.4818 52.2163 76.1843 51.7365 C 76.3681 51.611 76.6703 51.2782 76.6703 51.2782 "/>
      <path id="ID0.7633831659331918" fill="none" stroke="#000000" stroke-width="0.9446965000148362" stroke-linecap="round" d="M 72.2827 55.8751 C 72.2827 55.8751 73.8501 56.1011 74.6365 56.1804 C 74.9493 56.2117 75.2663 56.1988 75.5808 56.208 C 75.9741 56.2195 76.3678 56.2311 76.7611 56.2426 C 76.8593 56.2455 76.7611 56.2426 76.7611 56.2426 "/>
      <path id="ID0.8195131137035787" fill="none" stroke="#000000" stroke-width="0.9446965000148362" stroke-linecap="round" d="M 73.5262 61.8184 C 73.5262 61.8184 74.1422 62.3095 74.4497 62.5543 C 74.7572 62.7991 75.0578 63.0556 75.3732 63.2902 C 75.8283 63.6291 76.2995 63.9477 76.762 64.276 C 76.8777 64.3578 76.762 64.276 76.762 64.276 "/>
      <path id="ID0.923992021009326" fill="none" stroke="#000000" stroke-width="0.9446965000148362" stroke-linecap="round" d="M 73.5824 67.9632 C 73.5824 67.9632 77.5956 68.0808 77.5956 68.0808 "/>
      <path id="ID0.6422801343724132" fill="none" stroke="#000000" stroke-width="0.9446965000148362" stroke-linecap="round" d="M 80.425 43.1555 C 80.425 43.1555 81.5327 43.299 82.0706 43.44 C 82.5518 43.5661 82.9884 43.8417 83.4732 43.9537 C 83.7797 44.0246 84.4175 43.9813 84.4175 43.9813 "/>
      <path id="ID0.7584992088377476" fill="none" stroke="#000000" stroke-width="0.9446965000148362" stroke-linecap="round" d="M 80.5158 48.12 C 80.5158 48.12 81.9019 48.6331 82.6266 48.6544 C 83.0502 48.6668 83.8208 48.2168 83.8208 48.2168 "/>
      <path id="ID0.40438934741541743" fill="none" stroke="#000000" stroke-width="0.9446965000148362" stroke-linecap="round" d="M 80.7182 57.3407 C 81.4393 56.8897 82.1818 56.4663 82.8843 55.9865 C 83.0681 55.861 83.3703 55.5282 83.3703 55.5282 "/>
      <path id="ID0.7633831659331918" fill="none" stroke="#000000" stroke-width="0.9446965000148362" stroke-linecap="round" d="M 78.9827 60.1251 C 78.9827 60.1251 80.5501 60.3511 81.3365 60.4304 C 81.6493 60.4617 81.9663 60.4488 82.2808 60.458 C 82.6741 60.4695 83.0678 60.4811 83.4611 60.4926 C 83.5593 60.4955 83.4611 60.4926 83.4611 60.4926 "/>
      <path id="ID0.6422801343724132" fill="none" stroke="#000000" stroke-width="0.9446965000148362" stroke-linecap="round" d="M 87.125 44.7555 C 87.125 44.7555 88.2327 44.899 88.7706 45.04 C 89.2518 45.1661 89.6884 45.4417 90.1732 45.5537 C 90.4797 45.6246 91.1175 45.5813 91.1175 45.5813 "/>
      <path id="ID0.7584992088377476" fill="none" stroke="#000000" stroke-width="0.9446965000148362" stroke-linecap="round" d="M 87.2158 49.72 C 87.2158 49.72 88.6019 50.2331 89.3266 50.2544 C 89.7502 50.2668 90.5208 49.8168 90.5208 49.8168 "/>
      <path id="ID0.40438934741541743" fill="none" stroke="#000000" stroke-width="0.9446965000148362" stroke-linecap="round" d="M 87.4182 58.9407 C 88.1393 58.4897 88.8818 58.0663 89.5843 57.5865 C 89.7681 57.461 90.0703 57.1282 90.0703 57.1282 "/>
      <path id="ID0.7633831659331918" fill="none" stroke="#000000" stroke-width="0.9446965000148362" stroke-linecap="round" d="M 85.6827 61.7251 C 85.6827 61.7251 87.2501 61.9511 88.0365 62.0304 C 88.3493 62.0617 88.6663 62.0488 88.9808 62.058 C 89.3741 62.0695 89.7678 62.0811 90.1611 62.0926 C 90.2593 62.0955 90.1611 62.0926 90.1611 62.0926 "/>
      <path id="ID0.6422801343724132" fill="none" stroke="#000000" stroke-width="0.9446965000148362" stroke-linecap="round" d="M 50.875 41.5555 C 50.875 41.5555 51.9827 41.699 52.5206 41.84 C 53.0018 41.9661 53.4384 42.2417 53.9232 42.3537 C 54.2297 42.4246 54.8675 42.3813 54.8675 42.3813 "/>
      <path id="ID0.7584992088377476" fill="none" stroke="#000000" stroke-width="0.9446965000148362" stroke-linecap="round" d="M 50.9658 46.52 C 50.9658 46.52 52.3519 47.0331 53.0766 47.0544 C 53.5002 47.0668 54.2708 46.6168 54.2708 46.6168 "/>
      <path id="ID0.40438934741541743" fill="none" stroke="#000000" stroke-width="0.9446965000148362" stroke-linecap="round" d="M 51.1682 55.7407 C 51.8893 55.2897 52.6318 54.8663 53.3343 54.3865 C 53.5181 54.261 53.8203 53.9282 53.8203 53.9282 "/>
      <path id="ID0.7633831659331918" fill="none" stroke="#000000" stroke-width="0.9446965000148362" stroke-linecap="round" d="M 49.4327 58.5251 C 49.4327 58.5251 51.0001 58.7511 51.7865 58.8304 C 52.0993 58.8617 52.4163 58.8488 52.7308 58.858 C 53.1241 58.8695 53.5178 58.8811 53.9111 58.8926 C 54.0093 58.8955 53.9111 58.8926 53.9111 58.8926 "/>
      <path id="ID0.6422801343724132" fill="none" stroke="#000000" stroke-width="0.9446965000148362" stroke-linecap="round" d="M 44.275 42.3555 C 44.275 42.3555 45.3827 42.499 45.9206 42.64 C 46.4018 42.7661 46.8384 43.0417 47.3232 43.1537 C 47.6297 43.2246 48.2675 43.1813 48.2675 43.1813 "/>
      <path id="ID0.7584992088377476" fill="none" stroke="#000000" stroke-width="0.9446965000148362" stroke-linecap="round" d="M 44.3658 47.32 C 44.3658 47.32 45.7519 47.8331 46.4766 47.8544 C 46.9002 47.8668 47.6708 47.4168 47.6708 47.4168 "/>
      <path id="ID0.40438934741541743" fill="none" stroke="#000000" stroke-width="0.9446965000148362" stroke-linecap="round" d="M 44.5682 56.5407 C 45.2893 56.0897 46.0318 55.6663 46.7343 55.1865 C 46.9181 55.061 47.2203 54.7282 47.2203 54.7282 "/>
      <path id="ID0.7633831659331918" fill="none" stroke="#000000" stroke-width="0.9446965000148362" stroke-linecap="round" d="M 42.8327 59.3251 C 42.8327 59.3251 44.4001 59.5511 45.1865 59.6304 C 45.4993 59.6617 45.8163 59.6488 46.1308 59.658 C 46.5241 59.6695 46.9178 59.6811 47.3111 59.6926 C 47.4093 59.6955 47.3111 59.6926 47.3111 59.6926 "/>
      <path id="ID0.6422801343724132" fill="none" stroke="#000000" stroke-width="0.9446965000148362" stroke-linecap="round" d="M 22.975 56.3055 C 22.975 56.3055 24.0827 56.449 24.6206 56.59 C 25.1018 56.7161 25.5384 56.9917 26.0232 57.1037 C 26.3297 57.1746 26.9675 57.1313 26.9675 57.1313 "/>
      <path id="ID0.7584992088377476" fill="none" stroke="#000000" stroke-width="0.9446965000148362" stroke-linecap="round" d="M 23.0658 61.27 C 23.0658 61.27 24.4519 61.7831 25.1766 61.8044 C 25.6002 61.8168 26.3708 61.3668 26.3708 61.3668 "/>
      <path id="ID0.40438934741541743" fill="none" stroke="#000000" stroke-width="0.9446965000148362" stroke-linecap="round" d="M 23.2682 70.4907 C 23.9893 70.0397 24.7318 69.6163 25.4343 69.1365 C 25.6181 69.011 25.9203 68.6782 25.9203 68.6782 "/>
      <path id="ID0.7633831659331918" fill="none" stroke="#000000" stroke-width="0.9446965000148362" stroke-linecap="round" d="M 21.5327 73.2751 C 21.5327 73.2751 23.1001 73.5011 23.8865 73.5804 C 24.1993 73.6117 24.5163 73.5988 24.8308 73.608 C 25.2241 73.6195 25.6178 73.6311 26.0111 73.6426 C 26.1093 73.6455 26.0111 73.6426 26.0111 73.6426 "/>
      <path id="ID0.6422801343724132" fill="none" stroke="#000000" stroke-width="0.9446965000148362" stroke-linecap="round" d="M 93.675 46.1555 C 93.675 46.1555 94.7827 46.299 95.3206 46.44 C 95.8018 46.5661 96.2384 46.8417 96.7232 46.9537 C 97.0297 47.0246 97.6675 46.9813 97.6675 46.9813 "/>
      <path id="ID0.7584992088377476" fill="none" stroke="#000000" stroke-width="0.9446965000148362" stroke-linecap="round" d="M 93.7658 51.12 C 93.7658 51.12 95.1519 51.6331 95.8766 51.6544 C 96.3002 51.6668 97.0708 51.2168 97.0708 51.2168 "/>
      <path id="ID0.40438934741541743" fill="none" stroke="#000000" stroke-width="0.9446965000148362" stroke-linecap="round" d="M 93.9682 60.3407 C 94.6893 59.8897 95.4318 59.4663 96.1343 58.9865 C 96.3181 58.861 96.6203 58.5282 96.6203 58.5282 "/>
      <path id="ID0.7633831659331918" fill="none" stroke="#000000" stroke-width="0.9446965000148362" stroke-linecap="round" d="M 92.2327 63.1251 C 92.2327 63.1251 93.8001 63.3511 94.5865 63.4304 C 94.8993 63.4617 95.2163 63.4488 95.5308 63.458 C 95.9241 63.4695 96.3178 63.4811 96.7111 63.4926 C 96.8093 63.4955 96.7111 63.4926 96.7111 63.4926 "/>
      <path id="ID0.6422801343724132" fill="none" stroke="#000000" stroke-width="0.9446965000148362" stroke-linecap="round" d="M 99.925 46.4055 C 99.925 46.4055 101.0327 46.549 101.5706 46.69 C 102.0518 46.8161 102.4884 47.0917 102.9732 47.2037 C 103.2797 47.2746 103.9175 47.2313 103.9175 47.2313 "/>
      <path id="ID0.7584992088377476" fill="none" stroke="#000000" stroke-width="0.9446965000148362" stroke-linecap="round" d="M 100.0158 51.37 C 100.0158 51.37 101.4019 51.8831 102.1266 51.9044 C 102.5502 51.9168 103.3208 51.4668 103.3208 51.4668 "/>
      <path id="ID0.40438934741541743" fill="none" stroke="#000000" stroke-width="0.9446965000148362" stroke-linecap="round" d="M 100.2182 60.5907 C 100.9393 60.1397 101.6818 59.7163 102.3843 59.2365 C 102.5681 59.111 102.8703 58.7782 102.8703 58.7782 "/>
      <path id="ID0.7633831659331918" fill="none" stroke="#000000" stroke-width="0.9446965000148362" stroke-linecap="round" d="M 98.4827 63.3751 C 98.4827 63.3751 100.0501 63.6011 100.8365 63.6804 C 101.1493 63.7117 101.4663 63.6988 101.7808 63.708 C 102.1741 63.7195 102.5678 63.7311 102.9611 63.7426 C 103.0593 63.7455 102.9611 63.7426 102.9611 63.7426 "/>
      <path id="ID0.7584992088377476" fill="none" stroke="#000000" stroke-width="0.9446965000148362" stroke-linecap="round" d="M 39.0658 50.62 C 39.0658 50.62 40.4519 51.1331 41.1766 51.1544 C 41.6002 51.1668 42.3708 50.7168 42.3708 50.7168 "/>
      <path id="ID0.40438934741541743" fill="none" stroke="#000000" stroke-width="0.9446965000148362" stroke-linecap="round" d="M 39.2682 59.8407 C 39.9893 59.3897 40.7318 58.9663 41.4343 58.4865 C 41.6181 58.361 41.9203 58.0282 41.9203 58.0282 "/>
    </g>
  </g>
</svg>