<svg version="1.1" xmlns="http://www.w3.org/2000/svg" xmlns:xlink="http://www.w3.org/1999/xlink" width="68.27344" height="31.3029" viewBox="0,0,68.27344,31.3029"><g transform="translate(-207.79549,-172.23077)"><g data-paper-data="{&quot;isPaintingLayer&quot;:true}" fill-rule="nonzero" stroke-linejoin="miter" stroke-miterlimit="10" stroke-dasharray="" stroke-dashoffset="0" style="mix-blend-mode: normal"><g stroke-linecap="butt"><path d="M253.69262,192.34382l-4.86409,3.75769h-28.85647c-4.40532,0 -8.61427,-1.79716 -11.66061,-4.98303l-0.32741,-0.34309c-0.26206,-0.27774 -0.24572,-0.70253 0.01634,-0.96393c0.04901,-0.04901 0.09835,-0.08169 0.1637,-0.11436l6.81286,-3.44727h38.69933v6.094z" fill="#174832" stroke="none" stroke-width="1"/><g fill="none" stroke="#151b22" stroke-width="0.5"><path d="M249.64053,195.07224v-8.11988"/><path d="M245.75899,186.29884v9.75366"/><path d="M241.86145,186.46222v9.59029"/><path d="M237.97991,186.13546v9.91704"/><path d="M234.09838,186.29884v9.75366"/><path d="M230.20084,186.29884v9.75366"/><path d="M226.3193,196.0525v-9.91704"/><path d="M222.4381,186.13546v9.91704"/><path d="M218.54023,195.88913v-9.59029"/><path d="M214.65869,186.6256v8.44664"/><path d="M210.77749,193.1117v-4.68895"/></g></g><g stroke-linecap="butt"><path d="M250.53976,188.74951l-6.71483,2.64672c-5.22417,2.05856 -10.98913,2.40166 -16.42634,0.98027l-15.16507,-3.98642c-1.34297,-0.34309 -1.08091,-2.30363 0.29473,-2.30363h36.99595z" fill="#00b694" stroke="none" stroke-width="1"/><g fill="none" stroke="#1b7e64" stroke-width="0.5"><path d="M254.8464,187.13207h-43.36671"/><path d="M248.2956,189.58274h-31.24766"/><path d="M241.7448,192.03341h-15.36177"/></g></g><g><path d="M275.56893,177.8522l-13.10193,8.88776l8.28686,-13.83811" fill="none" stroke="#151b22" stroke-width="1" stroke-linecap="round"/><path d="M258.09435,184.22394h2.50589c1.34264,0 2.42355,1.07829 2.42355,2.41799c0,0.42478 -0.11436,0.84957 -0.32741,1.22533l-3.19339,5.40781c-0.37675,0.63717 -1.21194,0.8659 -1.86708,0.4738c-0.40943,-0.24507 -0.67148,-0.68619 -0.67148,-1.15998v-7.2213c0,-0.63717 0.50778,-1.14365 1.12992,-1.14365z" fill="#00c0a5" stroke="none" stroke-width="1" stroke-linecap="butt"/><path d="M258.24172,193.94493l1.93243,-6.29005" fill="none" stroke="#174832" stroke-width="0.5" stroke-linecap="butt"/><path d="M260.3872,184.97548c0.49242,0 0.93877,0.19965 1.26193,0.52183c0.32316,0.32251 0.52314,0.76755 0.52314,1.25899c0,0.49144 -0.19997,0.93648 -0.52314,1.25899c-0.32316,0.32218 -0.76951,0.52183 -1.26193,0.52183c-0.49242,0 -0.93877,-0.19965 -1.26193,-0.52183c-0.32316,-0.32251 -0.52314,-0.76755 -0.52314,-1.25899c0,-0.49144 0.19997,-0.93648 0.52314,-1.25899c0.32316,-0.32218 0.76951,-0.52183 1.26193,-0.52183z" fill="#ecf135" stroke="none" stroke-width="1" stroke-linecap="butt"/><path d="M260.3872,185.66167c0.30258,0 0.57705,0.12253 0.77572,0.32087c0.19867,0.19801 0.32153,0.47184 0.32153,0.77376c0,0.30192 -0.12286,0.57574 -0.32153,0.77376c-0.19867,0.19834 -0.47314,0.32087 -0.77572,0.32087c-0.30258,0 -0.57705,-0.12253 -0.77572,-0.32087c-0.19867,-0.19801 -0.32153,-0.47184 -0.32153,-0.77376c0,-0.30192 0.12286,-0.57574 0.32153,-0.77376c0.19867,-0.19834 0.47314,-0.32087 0.77572,-0.32087z" fill="#151b22" stroke="none" stroke-width="1" stroke-linecap="butt"/></g><g><path d="M225.23055,173.22861v29.45704h-4.37297" fill="none" stroke="#151b22" stroke-width="1.5" stroke-linecap="round"/><path d="M243.01588,192.11509c0.76984,1.209 0.42609,2.8101 -0.78585,3.57798c-1.21194,0.76788 -2.81696,0.42478 -3.5868,-0.78421l-13.98613,-21.50054c-0.24539,-0.32676 -0.18004,-0.78421 0.14737,-1.02928c0.32774,-0.24507 0.78617,-0.17972 1.0319,0.14704l16.80309,19.14789c0.13103,0.1307 0.26206,0.29408 0.37642,0.44112z" fill="#ecf135" stroke="none" stroke-width="1" stroke-linecap="butt"/></g><g><path d="M236.51932,186.24983v16.43582h-4.1926" fill="none" stroke="#151b22" stroke-width="1.5" stroke-linecap="round"/><path d="M236.51932,184.9428c0.20324,0 0.38753,0.08234 0.52118,0.21533c0.13332,0.13332 0.21599,0.31695 0.21599,0.51987c0,0.20292 -0.08267,0.38655 -0.21599,0.51987c-0.13364,0.13299 -0.31793,0.21533 -0.52118,0.21533c-0.20324,0 -0.38753,-0.08234 -0.52085,-0.21533c-0.13332,-0.13332 -0.21599,-0.31695 -0.21599,-0.51987c0,-0.20292 0.08267,-0.38655 0.21599,-0.51987c0.13332,-0.13299 0.31761,-0.21533 0.52085,-0.21533z" fill="#151b22" stroke="none" stroke-width="1" stroke-linecap="butt"/><path d="M248.6547,192.83396c0.4519,0 0.86133,0.18298 1.15802,0.4787c0.29637,0.29604 0.48,0.70449 0.48,1.15508c0,0.4506 -0.18364,0.85904 -0.48,1.15508c-0.29669,0.29571 -0.70612,0.4787 -1.15802,0.4787c-0.45158,0 -0.861,-0.18298 -1.1577,-0.4787c-0.29637,-0.29604 -0.48,-0.70449 -0.48,-1.15508c0,-0.4506 0.18364,-0.85904 0.48,-1.15508c0.29669,-0.29571 0.70612,-0.4787 1.1577,-0.4787z" fill="#151b22" stroke="none" stroke-width="1" stroke-linecap="butt"/><path d="M236.51932,185.678l12.13539,8.78973" fill="none" stroke="#151b22" stroke-width="2.5" stroke-linecap="butt"/></g><g stroke="none" stroke-width="1" stroke-linecap="butt"><path d="M247.0157,185.43294h9.94089v9.73733c0,0.83323 -0.67148,1.51941 -1.50667,1.51941c-0.49144,0 -0.94988,-0.22873 -1.22828,-0.62084l-7.48434,-10.11309c-0.11469,-0.14704 -0.08202,-0.34309 0.06535,-0.45746c0.06568,-0.04901 0.14737,-0.06535 0.21304,-0.06535z" fill="#54923a"/><path d="M251.15896,186.29884c0.32545,0 0.62018,0.13168 0.83355,0.34473c0.21337,0.21304 0.34571,0.50713 0.34571,0.83159c0,0.32447 -0.13234,0.61855 -0.34571,0.83159c-0.21337,0.21304 -0.50811,0.34473 -0.83355,0.34473c-0.32545,0 -0.62018,-0.13168 -0.83355,-0.34473c-0.21337,-0.21304 -0.34571,-0.50713 -0.34571,-0.83159c0,-0.32447 0.13234,-0.61855 0.34571,-0.83159c0.21337,-0.21304 0.50811,-0.34473 0.83355,-0.34473z" fill="#174832"/><path d="M254.84379,188.65148c0.32545,0 0.62018,0.13168 0.83355,0.34473c0.2137,0.21304 0.34571,0.50713 0.34571,0.83159c0,0.32447 -0.13201,0.61855 -0.34571,0.83159c-0.21337,0.21304 -0.50811,0.34473 -0.83355,0.34473c-0.32512,0 -0.62018,-0.13168 -0.83355,-0.34473c-0.21337,-0.21304 -0.34538,-0.50713 -0.34538,-0.83159c0,-0.32447 0.13201,-0.61855 0.34538,-0.83159c0.21337,-0.21304 0.50843,-0.34473 0.83355,-0.34473z" fill="#174832"/><path d="M250.16007,190.57934c0.19638,-0.34309 0.57313,-0.57182 0.99889,-0.57182c0.65515,0 1.17926,0.52281 1.17926,1.17632c0,0.53915 -0.37675,0.99661 -0.88453,1.12731z" fill="#174832"/><path d="M255.81,185.43294c0.14737,0.19605 0.22938,0.42478 0.22938,0.68619c0,0.65351 -0.52412,1.17632 -1.17926,1.17632c-0.65482,0 -1.17894,-0.52281 -1.17894,-1.17632c0,-0.2614 0.08169,-0.49013 0.22906,-0.68619z" fill="#174832"/><path d="M249.61961,185.43294v0c0,0.65351 -0.52412,1.17632 -1.17926,1.17632c-0.65515,0 -1.17926,-0.52281 -1.17926,-1.17632v0z" fill="#174832"/><path d="M256.95659,193.29142c-0.65515,0 -1.17926,-0.52281 -1.17926,-1.17632c0,-0.65351 0.52412,-1.17632 1.17926,-1.17632z" fill="#174832"/><path d="M252.48559,193.60183h4.50368v1.48674c0,0.83323 -0.67148,1.51941 -1.50667,1.51941c-0.49144,0 -0.94988,-0.22873 -1.22828,-0.62084z" fill="#174832"/></g><g><path d="M256.03808,195.17026h7.81175l5.07713,7.61341h4.19228" fill="none" stroke="#151b22" stroke-width="1.5" stroke-linecap="round"/><path d="M255.41561,193.69986c0.40681,0 0.77506,0.16468 1.04202,0.43099c0.26696,0.26598 0.43197,0.63358 0.43197,1.03941c0,0.40583 -0.16501,0.77343 -0.43197,1.03941c-0.26696,0.26631 -0.63521,0.43099 -1.04202,0.43099c-0.40648,0 -0.77506,-0.16468 -1.04202,-0.43099c-0.26663,-0.26598 -0.43197,-0.63358 -0.43197,-1.03941c0,-0.40583 0.16534,-0.77343 0.43197,-1.03941c0.26696,-0.26631 0.63554,-0.43099 1.04202,-0.43099z" fill="#151b22" stroke="none" stroke-width="1" stroke-linecap="butt"/></g></g></g></svg>