<svg xmlns="http://www.w3.org/2000/svg" xmlns:xlink="http://www.w3.org/1999/xlink" version="1.1" width="19.74445915222168" height="40.296897888183594" viewBox="0.05277043581008911 -0.3487999886274338 19.74445915222168 40.296897888183594">
  <!-- Exported by Scratch - http://scratch.mit.edu/ -->
  <path id="ID0.47236768435686827" fill="#995900" stroke="#000000" stroke-width="0.5445562639926527" d="M 12.5461 26.0239 L 15.5322 26.0239 L 15.5322 36.9772 L 12.5461 36.9772 L 12.5461 26.0239 Z "/>
  <path id="ID0.47236768435686827" fill="#995900" stroke="#000000" stroke-width="0.5445562639926527" d="M 5.1961 26.1239 L 8.1822 26.1239 L 8.1822 37.0772 L 5.1961 37.0772 L 5.1961 26.1239 Z "/>
  <g id="ID0.2824689648114145">
    <path id="ID0.8757698251865804" fill="#995900" stroke="#995900" stroke-width="0.12005427889053323" d="M 3.5867 3.4396 L 4.5738 3.5204 L 4.2041 8.0373 L 3.2169 7.9565 L 3.5867 3.4396 Z "/>
    <path id="ID0.6422801343724132" fill="none" stroke="#000000" stroke-width="0.12005427889053323" stroke-linecap="round" d="M 3.7941 3.848 C 3.7941 3.848 3.9338 3.8736 4.0011 3.8951 C 4.0613 3.9143 4.1149 3.9522 4.1757 3.9696 C 4.2141 3.9806 4.2953 3.9794 4.2953 3.9794 "/>
    <path id="ID0.7584992088377476" fill="none" stroke="#000000" stroke-width="0.12005427889053323" stroke-linecap="round" d="M 3.7726 4.4787 C 3.7726 4.4787 3.9451 4.553 4.037 4.5605 C 4.0906 4.5649 4.1914 4.5129 4.1914 4.5129 "/>
    <path id="ID0.40438934741541743" fill="none" stroke="#000000" stroke-width="0.12005427889053323" stroke-linecap="round" d="M 3.737 5.6502 C 3.8315 5.5978 3.9285 5.549 4.0209 5.4927 C 4.045 5.478 4.0856 5.4378 4.0856 5.4378 "/>
    <path id="ID0.7633831659331918" fill="none" stroke="#000000" stroke-width="0.12005427889053323" stroke-linecap="round" d="M 3.4982 5.992 C 3.4982 5.992 3.6956 6.0311 3.7949 6.0464 C 3.8344 6.0525 3.8747 6.0529 3.9145 6.0562 C 3.9644 6.0603 4.0143 6.0644 4.0641 6.0685 C 4.0765 6.0695 4.0641 6.0685 4.0641 6.0685 "/>
    <path id="ID0.8195131137035787" fill="none" stroke="#000000" stroke-width="0.12005427889053323" stroke-linecap="round" d="M 3.6165 6.7545 C 3.6165 6.7545 3.6914 6.821 3.7288 6.8541 C 3.7662 6.8872 3.8026 6.9217 3.8411 6.9536 C 3.8966 6.9997 3.9543 7.0432 4.0108 7.088 C 4.0249 7.0991 4.0108 7.088 4.0108 7.088 "/>
    <path id="ID0.923992021009326" fill="none" stroke="#000000" stroke-width="0.12005427889053323" stroke-linecap="round" d="M 3.5827 7.5347 C 3.5827 7.5347 4.0912 7.5764 4.0912 7.5764 "/>
  </g>
  <path id="ID0.8654622961767018" fill="#000000" stroke="#000000" stroke-width="0.460472971200943" d="M 14.0245 36.9882 C 14.5803 36.9882 15.084 37.1203 15.4487 37.334 C 15.8134 37.5477 16.0391 37.8426 16.0391 38.1681 C 16.0391 38.4937 15.8134 38.7886 15.4487 39.0023 C 15.084 39.2159 14.5803 39.3481 14.0245 39.3481 C 13.4687 39.3481 12.9649 39.2159 12.6003 39.0023 C 12.2356 38.7886 12.0099 38.4937 12.0099 38.1681 C 12.0099 37.8426 12.2356 37.5477 12.6003 37.334 C 12.9649 37.1203 13.4687 36.9882 14.0245 36.9882 Z "/>
  <path id="ID0.8654622961767018" fill="#000000" stroke="#000000" stroke-width="0.460472971200943" d="M 6.7745 37.0882 C 7.3303 37.0882 7.834 37.2203 8.1987 37.434 C 8.5634 37.6477 8.7891 37.9426 8.7891 38.2681 C 8.7891 38.5937 8.5634 38.8886 8.1987 39.1023 C 7.834 39.3159 7.3303 39.4481 6.7745 39.4481 C 6.2187 39.4481 5.7149 39.3159 5.3503 39.1023 C 4.9856 38.8886 4.7599 38.5937 4.7599 38.2681 C 4.7599 37.9426 4.9856 37.6477 5.3503 37.434 C 5.7149 37.2203 6.2187 37.0882 6.7745 37.0882 Z "/>
  <g id="ID0.2824689648114145">
    <path id="ID0.8757698251865804" fill="#995900" stroke="#995900" stroke-width="0.12005427479743958" d="M 11.9508 0.6512 L 12.9413 0.6512 L 12.9413 5.1832 L 11.9508 5.1832 L 11.9508 0.6512 Z "/>
    <path id="ID0.6422801343724132" fill="none" stroke="#000000" stroke-width="0.12005427479743958" stroke-linecap="round" d="M 12.1909 1.0413 C 12.1909 1.0413 12.3322 1.0554 12.401 1.0713 C 12.4626 1.0856 12.5191 1.1189 12.5811 1.1314 C 12.6203 1.1392 12.7012 1.1314 12.7012 1.1314 "/>
    <path id="ID0.7584992088377476" fill="none" stroke="#000000" stroke-width="0.12005427479743958" stroke-linecap="round" d="M 12.2209 1.6716 C 12.2209 1.6716 12.3989 1.7316 12.4911 1.7316 C 12.5449 1.7316 12.6411 1.6716 12.6411 1.6716 "/>
    <path id="ID0.40438934741541743" fill="none" stroke="#000000" stroke-width="0.12005427479743958" stroke-linecap="round" d="M 12.281 2.8421 C 12.3709 2.7822 12.4636 2.7256 12.5511 2.6621 C 12.574 2.6454 12.6111 2.602 12.6111 2.602 "/>
    <path id="ID0.7633831659331918" fill="none" stroke="#000000" stroke-width="0.12005427479743958" stroke-linecap="round" d="M 12.0709 3.2023 C 12.0709 3.2023 12.2708 3.2252 12.371 3.2323 C 12.4109 3.2351 12.4511 3.2323 12.4911 3.2323 C 12.5411 3.2323 12.5911 3.2323 12.6411 3.2323 C 12.6536 3.2323 12.6411 3.2323 12.6411 3.2323 "/>
    <path id="ID0.8195131137035787" fill="none" stroke="#000000" stroke-width="0.12005427479743958" stroke-linecap="round" d="M 12.2509 3.9526 C 12.2509 3.9526 12.331 4.0127 12.371 4.0427 C 12.411 4.0726 12.4501 4.1041 12.4911 4.1327 C 12.5501 4.1741 12.6112 4.2128 12.6711 4.2528 C 12.6861 4.2627 12.6711 4.2528 12.6711 4.2528 "/>
    <path id="ID0.923992021009326" fill="none" stroke="#000000" stroke-width="0.12005427479743958" stroke-linecap="round" d="M 12.281 4.733 C 12.281 4.733 12.7912 4.733 12.7912 4.733 "/>
  </g>
  <g id="ID0.2824689648114145">
    <path id="ID0.8757698251865804" fill="#995900" stroke="#995900" stroke-width="0.12005427479743958" d="M 6.2008 1.3512 L 7.1913 1.3512 L 7.1913 5.8832 L 6.2008 5.8832 L 6.2008 1.3512 Z "/>
    <path id="ID0.6422801343724132" fill="none" stroke="#000000" stroke-width="0.12005427479743958" stroke-linecap="round" d="M 6.4409 1.7413 C 6.4409 1.7413 6.5822 1.7554 6.651 1.7713 C 6.7126 1.7856 6.7691 1.8189 6.8311 1.8314 C 6.8703 1.8392 6.9512 1.8314 6.9512 1.8314 "/>
    <path id="ID0.7584992088377476" fill="none" stroke="#000000" stroke-width="0.12005427479743958" stroke-linecap="round" d="M 6.4709 2.3716 C 6.4709 2.3716 6.6489 2.4316 6.7411 2.4316 C 6.7949 2.4316 6.8911 2.3716 6.8911 2.3716 "/>
    <path id="ID0.40438934741541743" fill="none" stroke="#000000" stroke-width="0.12005427479743958" stroke-linecap="round" d="M 6.531 3.5421 C 6.6209 3.4822 6.7136 3.4256 6.8011 3.3621 C 6.824 3.3454 6.8611 3.302 6.8611 3.302 "/>
    <path id="ID0.7633831659331918" fill="none" stroke="#000000" stroke-width="0.12005427479743958" stroke-linecap="round" d="M 6.3209 3.9023 C 6.3209 3.9023 6.5208 3.9252 6.621 3.9323 C 6.6609 3.9351 6.7011 3.9323 6.7411 3.9323 C 6.7911 3.9323 6.8411 3.9323 6.8911 3.9323 C 6.9036 3.9323 6.8911 3.9323 6.8911 3.9323 "/>
    <path id="ID0.8195131137035787" fill="none" stroke="#000000" stroke-width="0.12005427479743958" stroke-linecap="round" d="M 6.5009 4.6526 C 6.5009 4.6526 6.581 4.7127 6.621 4.7427 C 6.661 4.7726 6.7001 4.8041 6.7411 4.8327 C 6.8001 4.8741 6.8612 4.9128 6.9211 4.9528 C 6.9361 4.9627 6.9211 4.9528 6.9211 4.9528 "/>
    <path id="ID0.923992021009326" fill="none" stroke="#000000" stroke-width="0.12005427479743958" stroke-linecap="round" d="M 6.531 5.433 C 6.531 5.433 7.0412 5.433 7.0412 5.433 "/>
  </g>
  <g id="ID0.2824689648114145">
    <path id="ID0.8757698251865804" fill="#995900" stroke="#995900" stroke-width="0.12005427479743958" d="M 5.1008 1.9512 L 6.0913 1.9512 L 6.0913 6.4832 L 5.1008 6.4832 L 5.1008 1.9512 Z "/>
    <path id="ID0.6422801343724132" fill="none" stroke="#000000" stroke-width="0.12005427479743958" stroke-linecap="round" d="M 5.3409 2.3413 C 5.3409 2.3413 5.4822 2.3554 5.551 2.3713 C 5.6126 2.3856 5.6691 2.4189 5.7311 2.4314 C 5.7703 2.4392 5.8512 2.4314 5.8512 2.4314 "/>
    <path id="ID0.7584992088377476" fill="none" stroke="#000000" stroke-width="0.12005427479743958" stroke-linecap="round" d="M 5.3709 2.9716 C 5.3709 2.9716 5.5489 3.0316 5.6411 3.0316 C 5.6949 3.0316 5.7911 2.9716 5.7911 2.9716 "/>
    <path id="ID0.40438934741541743" fill="none" stroke="#000000" stroke-width="0.12005427479743958" stroke-linecap="round" d="M 5.431 4.1421 C 5.5209 4.0822 5.6136 4.0256 5.7011 3.9621 C 5.724 3.9454 5.7611 3.902 5.7611 3.902 "/>
    <path id="ID0.7633831659331918" fill="none" stroke="#000000" stroke-width="0.12005427479743958" stroke-linecap="round" d="M 5.2209 4.5023 C 5.2209 4.5023 5.4208 4.5252 5.521 4.5323 C 5.5609 4.5351 5.6011 4.5323 5.6411 4.5323 C 5.6911 4.5323 5.7411 4.5323 5.7911 4.5323 C 5.8036 4.5323 5.7911 4.5323 5.7911 4.5323 "/>
    <path id="ID0.8195131137035787" fill="none" stroke="#000000" stroke-width="0.12005427479743958" stroke-linecap="round" d="M 5.4009 5.2526 C 5.4009 5.2526 5.481 5.3127 5.521 5.3427 C 5.561 5.3726 5.6001 5.4041 5.6411 5.4327 C 5.7001 5.4741 5.7612 5.5128 5.8211 5.5528 C 5.8361 5.5627 5.8211 5.5528 5.8211 5.5528 "/>
    <path id="ID0.923992021009326" fill="none" stroke="#000000" stroke-width="0.12005427479743958" stroke-linecap="round" d="M 5.431 6.033 C 5.431 6.033 5.9412 6.033 5.9412 6.033 "/>
  </g>
  <g id="ID0.2824689648114145">
    <path id="ID0.8757698251865804" fill="#995900" stroke="#995900" stroke-width="0.12005428025463788" d="M 15.4666 3.291 L 16.4512 3.1837 L 16.9423 7.6891 L 15.9577 7.7964 L 15.4666 3.291 Z "/>
    <path id="ID0.6422801343724132" fill="none" stroke="#000000" stroke-width="0.12005428025463788" stroke-linecap="round" d="M 15.7476 3.6529 C 15.7476 3.6529 15.8895 3.6516 15.9597 3.66 C 16.0225 3.6674 16.0822 3.6945 16.1452 3.7001 C 16.185 3.7037 16.2646 3.6871 16.2646 3.6871 "/>
    <path id="ID0.7584992088377476" fill="none" stroke="#000000" stroke-width="0.12005428025463788" stroke-linecap="round" d="M 15.8457 4.2762 C 15.8457 4.2762 16.0292 4.3166 16.1208 4.3066 C 16.1743 4.3008 16.2634 4.2307 16.2634 4.2307 "/>
    <path id="ID0.40438934741541743" fill="none" stroke="#000000" stroke-width="0.12005428025463788" stroke-linecap="round" d="M 16.0322 5.4333 C 16.1151 5.364 16.2012 5.2977 16.2812 5.2251 C 16.3022 5.206 16.3344 5.1589 16.3344 5.1589 "/>
    <path id="ID0.7633831659331918" fill="none" stroke="#000000" stroke-width="0.12005428025463788" stroke-linecap="round" d="M 15.8624 5.8141 C 15.8624 5.8141 16.0636 5.8152 16.164 5.8115 C 16.2039 5.81 16.2436 5.8028 16.2833 5.7985 C 16.3331 5.793 16.3828 5.7876 16.4325 5.7822 C 16.4449 5.7808 16.4325 5.7822 16.4325 5.7822 "/>
    <path id="ID0.8195131137035787" fill="none" stroke="#000000" stroke-width="0.12005428025463788" stroke-linecap="round" d="M 16.1227 6.5406 C 16.1227 6.5406 16.2088 6.5916 16.2518 6.6171 C 16.2948 6.6425 16.3371 6.6695 16.3809 6.6936 C 16.4441 6.7283 16.509 6.7602 16.5729 6.7934 C 16.5889 6.8017 16.5729 6.7934 16.5729 6.7934 "/>
    <path id="ID0.923992021009326" fill="none" stroke="#000000" stroke-width="0.12005428025463788" stroke-linecap="round" d="M 16.2371 7.3131 C 16.2371 7.3131 16.7443 7.2578 16.7443 7.2578 "/>
  </g>
  <g id="ID0.2824689648114145">
    <path id="ID0.8757698251865804" fill="#995900" stroke="#995900" stroke-width="0.12005427479743958" d="M 4.0508 2.7012 L 5.0413 2.7012 L 5.0413 7.2332 L 4.0508 7.2332 L 4.0508 2.7012 Z "/>
    <path id="ID0.6422801343724132" fill="none" stroke="#000000" stroke-width="0.12005427479743958" stroke-linecap="round" d="M 4.2909 3.0913 C 4.2909 3.0913 4.4322 3.1054 4.501 3.1213 C 4.5626 3.1356 4.6191 3.1689 4.6811 3.1814 C 4.7203 3.1892 4.8012 3.1814 4.8012 3.1814 "/>
    <path id="ID0.7584992088377476" fill="none" stroke="#000000" stroke-width="0.12005427479743958" stroke-linecap="round" d="M 4.3209 3.7216 C 4.3209 3.7216 4.4989 3.7816 4.5911 3.7816 C 4.6449 3.7816 4.7411 3.7216 4.7411 3.7216 "/>
    <path id="ID0.40438934741541743" fill="none" stroke="#000000" stroke-width="0.12005427479743958" stroke-linecap="round" d="M 4.381 4.8921 C 4.4709 4.8322 4.5636 4.7756 4.6511 4.7121 C 4.674 4.6954 4.7111 4.652 4.7111 4.652 "/>
    <path id="ID0.7633831659331918" fill="none" stroke="#000000" stroke-width="0.12005427479743958" stroke-linecap="round" d="M 4.1709 5.2523 C 4.1709 5.2523 4.3708 5.2752 4.471 5.2823 C 4.5109 5.2851 4.5511 5.2823 4.5911 5.2823 C 4.6411 5.2823 4.6911 5.2823 4.7411 5.2823 C 4.7536 5.2823 4.7411 5.2823 4.7411 5.2823 "/>
    <path id="ID0.8195131137035787" fill="none" stroke="#000000" stroke-width="0.12005427479743958" stroke-linecap="round" d="M 4.3509 6.0026 C 4.3509 6.0026 4.431 6.0627 4.471 6.0927 C 4.511 6.1226 4.5501 6.1541 4.5911 6.1827 C 4.6501 6.2241 4.7112 6.2628 4.7711 6.3028 C 4.7861 6.3127 4.7711 6.3028 4.7711 6.3028 "/>
    <path id="ID0.923992021009326" fill="none" stroke="#000000" stroke-width="0.12005427479743958" stroke-linecap="round" d="M 4.381 6.783 C 4.381 6.783 4.8912 6.783 4.8912 6.783 "/>
  </g>
  <g id="ID0.2824689648114145">
    <path id="ID0.8757698251865804" fill="#995900" stroke="#995900" stroke-width="0.12005427479743958" d="M 13.0008 1.2512 L 13.9913 1.2512 L 13.9913 5.7832 L 13.0008 5.7832 L 13.0008 1.2512 Z "/>
    <path id="ID0.6422801343724132" fill="none" stroke="#000000" stroke-width="0.12005427479743958" stroke-linecap="round" d="M 13.2409 1.6413 C 13.2409 1.6413 13.3822 1.6554 13.451 1.6713 C 13.5126 1.6856 13.5691 1.7189 13.6311 1.7314 C 13.6703 1.7392 13.7512 1.7314 13.7512 1.7314 "/>
    <path id="ID0.7584992088377476" fill="none" stroke="#000000" stroke-width="0.12005427479743958" stroke-linecap="round" d="M 13.2709 2.2716 C 13.2709 2.2716 13.4489 2.3316 13.5411 2.3316 C 13.5949 2.3316 13.6911 2.2716 13.6911 2.2716 "/>
    <path id="ID0.40438934741541743" fill="none" stroke="#000000" stroke-width="0.12005427479743958" stroke-linecap="round" d="M 13.331 3.4421 C 13.4209 3.3822 13.5136 3.3256 13.6011 3.2621 C 13.624 3.2454 13.6611 3.202 13.6611 3.202 "/>
    <path id="ID0.7633831659331918" fill="none" stroke="#000000" stroke-width="0.12005427479743958" stroke-linecap="round" d="M 13.1209 3.8023 C 13.1209 3.8023 13.3208 3.8252 13.421 3.8323 C 13.4609 3.8351 13.5011 3.8323 13.5411 3.8323 C 13.5911 3.8323 13.6411 3.8323 13.6911 3.8323 C 13.7036 3.8323 13.6911 3.8323 13.6911 3.8323 "/>
    <path id="ID0.8195131137035787" fill="none" stroke="#000000" stroke-width="0.12005427479743958" stroke-linecap="round" d="M 13.3009 4.5526 C 13.3009 4.5526 13.381 4.6127 13.421 4.6427 C 13.461 4.6726 13.5001 4.7041 13.5411 4.7327 C 13.6001 4.7741 13.6612 4.8128 13.7211 4.8528 C 13.7361 4.8627 13.7211 4.8528 13.7211 4.8528 "/>
    <path id="ID0.923992021009326" fill="none" stroke="#000000" stroke-width="0.12005427479743958" stroke-linecap="round" d="M 13.331 5.333 C 13.331 5.333 13.8412 5.333 13.8412 5.333 "/>
  </g>
  <g id="ID0.9118851404637098">
    <path id="ID0.41013610642403364" fill="#003FFF" stroke="#000000" stroke-width="0.46047300767788457" d="M 4.0661 12.4372 L 3.628 12.2938 L 1.0819 21.6225 L 4.6357 22.5924 L 4.0661 12.4372 Z "/>
    <path id="ID0.8654622961767018" fill="#FFE9CC" stroke="#000000" stroke-width="0.46047294939252154" d="M 2.8382 22.1591 C 2.3032 22.0085 1.7825 21.9991 1.3736 22.1059 C 0.9646 22.2127 0.6675 22.4355 0.5792 22.7488 C 0.491 23.0622 0.6282 23.4072 0.9214 23.7117 C 1.2145 24.0163 1.6636 24.28 2.1985 24.4307 C 2.7335 24.5813 3.2542 24.5907 3.6632 24.4839 C 4.0722 24.3771 4.3693 24.1543 4.4575 23.841 C 4.5458 23.5276 4.4085 23.1825 4.1154 22.878 C 3.8223 22.5735 3.3732 22.3098 2.8382 22.1591 Z "/>
  </g>
  <g id="ID0.2824689648114145">
    <path id="ID0.8757698251865804" fill="#995900" stroke="#995900" stroke-width="0.12005427479743958" d="M 14.0008 2.0012 L 14.9913 2.0012 L 14.9913 6.5332 L 14.0008 6.5332 L 14.0008 2.0012 Z "/>
    <path id="ID0.6422801343724132" fill="none" stroke="#000000" stroke-width="0.12005427479743958" stroke-linecap="round" d="M 14.2409 2.3913 C 14.2409 2.3913 14.3822 2.4054 14.451 2.4213 C 14.5126 2.4356 14.5691 2.4689 14.6311 2.4814 C 14.6703 2.4892 14.7512 2.4814 14.7512 2.4814 "/>
    <path id="ID0.7584992088377476" fill="none" stroke="#000000" stroke-width="0.12005427479743958" stroke-linecap="round" d="M 14.2709 3.0216 C 14.2709 3.0216 14.4489 3.0816 14.5411 3.0816 C 14.5949 3.0816 14.6911 3.0216 14.6911 3.0216 "/>
    <path id="ID0.40438934741541743" fill="none" stroke="#000000" stroke-width="0.12005427479743958" stroke-linecap="round" d="M 14.331 4.1921 C 14.4209 4.1322 14.5136 4.0756 14.6011 4.0121 C 14.624 3.9954 14.6611 3.952 14.6611 3.952 "/>
    <path id="ID0.7633831659331918" fill="none" stroke="#000000" stroke-width="0.12005427479743958" stroke-linecap="round" d="M 14.1209 4.5523 C 14.1209 4.5523 14.3208 4.5752 14.421 4.5823 C 14.4609 4.5851 14.5011 4.5823 14.5411 4.5823 C 14.5911 4.5823 14.6411 4.5823 14.6911 4.5823 C 14.7036 4.5823 14.6911 4.5823 14.6911 4.5823 "/>
    <path id="ID0.8195131137035787" fill="none" stroke="#000000" stroke-width="0.12005427479743958" stroke-linecap="round" d="M 14.3009 5.3026 C 14.3009 5.3026 14.381 5.3627 14.421 5.3927 C 14.461 5.4226 14.5001 5.4541 14.5411 5.4827 C 14.6001 5.5241 14.6612 5.5628 14.7211 5.6028 C 14.7361 5.6127 14.7211 5.6028 14.7211 5.6028 "/>
    <path id="ID0.923992021009326" fill="none" stroke="#000000" stroke-width="0.12005427479743958" stroke-linecap="round" d="M 14.331 6.083 C 14.331 6.083 14.8412 6.083 14.8412 6.083 "/>
  </g>
  <g id="ID0.2824689648114145">
    <path id="ID0.8757698251865804" fill="#995900" stroke="#995900" stroke-width="0.12005427479743958" d="M 10.9508 0.3512 L 11.9413 0.3512 L 11.9413 4.8832 L 10.9508 4.8832 L 10.9508 0.3512 Z "/>
    <path id="ID0.6422801343724132" fill="none" stroke="#000000" stroke-width="0.12005427479743958" stroke-linecap="round" d="M 11.1909 0.7413 C 11.1909 0.7413 11.3322 0.7554 11.401 0.7713 C 11.4626 0.7856 11.5191 0.8189 11.5811 0.8314 C 11.6203 0.8392 11.7012 0.8314 11.7012 0.8314 "/>
    <path id="ID0.7584992088377476" fill="none" stroke="#000000" stroke-width="0.12005427479743958" stroke-linecap="round" d="M 11.2209 1.3716 C 11.2209 1.3716 11.3989 1.4316 11.4911 1.4316 C 11.5449 1.4316 11.6411 1.3716 11.6411 1.3716 "/>
    <path id="ID0.40438934741541743" fill="none" stroke="#000000" stroke-width="0.12005427479743958" stroke-linecap="round" d="M 11.281 2.5421 C 11.3709 2.4822 11.4636 2.4256 11.5511 2.3621 C 11.574 2.3454 11.6111 2.302 11.6111 2.302 "/>
    <path id="ID0.7633831659331918" fill="none" stroke="#000000" stroke-width="0.12005427479743958" stroke-linecap="round" d="M 11.0709 2.9023 C 11.0709 2.9023 11.2708 2.9252 11.371 2.9323 C 11.4109 2.9351 11.4511 2.9323 11.4911 2.9323 C 11.5411 2.9323 11.5911 2.9323 11.6411 2.9323 C 11.6536 2.9323 11.6411 2.9323 11.6411 2.9323 "/>
    <path id="ID0.8195131137035787" fill="none" stroke="#000000" stroke-width="0.12005427479743958" stroke-linecap="round" d="M 11.2509 3.6526 C 11.2509 3.6526 11.331 3.7127 11.371 3.7427 C 11.411 3.7726 11.4501 3.8041 11.4911 3.8327 C 11.5501 3.8741 11.6112 3.9128 11.6711 3.9528 C 11.6861 3.9627 11.6711 3.9528 11.6711 3.9528 "/>
    <path id="ID0.923992021009326" fill="none" stroke="#000000" stroke-width="0.12005427479743958" stroke-linecap="round" d="M 11.281 4.433 C 11.281 4.433 11.7912 4.433 11.7912 4.433 "/>
  </g>
  <g id="ID0.2824689648114145">
    <path id="ID0.8757698251865804" fill="#995900" stroke="#995900" stroke-width="0.12005427479743958" d="M 9.0008 0.1512 L 9.9913 0.1512 L 9.9913 4.6832 L 9.0008 4.6832 L 9.0008 0.1512 Z "/>
    <path id="ID0.6422801343724132" fill="none" stroke="#000000" stroke-width="0.12005427479743958" stroke-linecap="round" d="M 9.2409 0.5413 C 9.2409 0.5413 9.3822 0.5554 9.451 0.5713 C 9.5126 0.5856 9.5691 0.6189 9.6311 0.6314 C 9.6703 0.6392 9.7512 0.6314 9.7512 0.6314 "/>
    <path id="ID0.7584992088377476" fill="none" stroke="#000000" stroke-width="0.12005427479743958" stroke-linecap="round" d="M 9.2709 1.1716 C 9.2709 1.1716 9.4489 1.2316 9.5411 1.2316 C 9.5949 1.2316 9.6911 1.1716 9.6911 1.1716 "/>
    <path id="ID0.40438934741541743" fill="none" stroke="#000000" stroke-width="0.12005427479743958" stroke-linecap="round" d="M 9.331 2.3421 C 9.4209 2.2822 9.5136 2.2256 9.6011 2.1621 C 9.624 2.1454 9.6611 2.102 9.6611 2.102 "/>
    <path id="ID0.7633831659331918" fill="none" stroke="#000000" stroke-width="0.12005427479743958" stroke-linecap="round" d="M 9.1209 2.7023 C 9.1209 2.7023 9.3208 2.7252 9.421 2.7323 C 9.4609 2.7351 9.5011 2.7323 9.5411 2.7323 C 9.5911 2.7323 9.6411 2.7323 9.6911 2.7323 C 9.7036 2.7323 9.6911 2.7323 9.6911 2.7323 "/>
    <path id="ID0.8195131137035787" fill="none" stroke="#000000" stroke-width="0.12005427479743958" stroke-linecap="round" d="M 9.3009 3.4526 C 9.3009 3.4526 9.381 3.5127 9.421 3.5427 C 9.461 3.5726 9.5001 3.6041 9.5411 3.6327 C 9.6001 3.6741 9.6612 3.7128 9.7211 3.7528 C 9.7361 3.7627 9.7211 3.7528 9.7211 3.7528 "/>
    <path id="ID0.923992021009326" fill="none" stroke="#000000" stroke-width="0.12005427479743958" stroke-linecap="round" d="M 9.331 4.233 C 9.331 4.233 9.8412 4.233 9.8412 4.233 "/>
  </g>
  <g id="ID0.2824689648114145">
    <path id="ID0.8757698251865804" fill="#995900" stroke="#995900" stroke-width="0.12005427479743958" d="M 8.0508 0.3512 L 9.0413 0.3512 L 9.0413 4.8832 L 8.0508 4.8832 L 8.0508 0.3512 Z "/>
    <path id="ID0.6422801343724132" fill="none" stroke="#000000" stroke-width="0.12005427479743958" stroke-linecap="round" d="M 8.2909 0.7413 C 8.2909 0.7413 8.4322 0.7554 8.501 0.7713 C 8.5626 0.7856 8.6191 0.8189 8.6811 0.8314 C 8.7203 0.8392 8.8012 0.8314 8.8012 0.8314 "/>
    <path id="ID0.7584992088377476" fill="none" stroke="#000000" stroke-width="0.12005427479743958" stroke-linecap="round" d="M 8.3209 1.3716 C 8.3209 1.3716 8.4989 1.4316 8.5911 1.4316 C 8.6449 1.4316 8.7411 1.3716 8.7411 1.3716 "/>
    <path id="ID0.40438934741541743" fill="none" stroke="#000000" stroke-width="0.12005427479743958" stroke-linecap="round" d="M 8.381 2.5421 C 8.4709 2.4822 8.5636 2.4256 8.6511 2.3621 C 8.674 2.3454 8.7111 2.302 8.7111 2.302 "/>
    <path id="ID0.7633831659331918" fill="none" stroke="#000000" stroke-width="0.12005427479743958" stroke-linecap="round" d="M 8.1709 2.9023 C 8.1709 2.9023 8.3708 2.9252 8.471 2.9323 C 8.5109 2.9351 8.5511 2.9323 8.5911 2.9323 C 8.6411 2.9323 8.6911 2.9323 8.7411 2.9323 C 8.7536 2.9323 8.7411 2.9323 8.7411 2.9323 "/>
    <path id="ID0.8195131137035787" fill="none" stroke="#000000" stroke-width="0.12005427479743958" stroke-linecap="round" d="M 8.3509 3.6526 C 8.3509 3.6526 8.431 3.7127 8.471 3.7427 C 8.511 3.7726 8.5501 3.8041 8.5911 3.8327 C 8.6501 3.8741 8.7112 3.9128 8.7711 3.9528 C 8.7861 3.9627 8.7711 3.9528 8.7711 3.9528 "/>
    <path id="ID0.923992021009326" fill="none" stroke="#000000" stroke-width="0.12005427479743958" stroke-linecap="round" d="M 8.381 4.433 C 8.381 4.433 8.8912 4.433 8.8912 4.433 "/>
  </g>
  <g id="ID0.2824689648114145">
    <path id="ID0.8757698251865804" fill="#995900" stroke="#995900" stroke-width="0.12005427479743958" d="M 7.0508 0.9012 L 8.0413 0.9012 L 8.0413 5.4332 L 7.0508 5.4332 L 7.0508 0.9012 Z "/>
    <path id="ID0.6422801343724132" fill="none" stroke="#000000" stroke-width="0.12005427479743958" stroke-linecap="round" d="M 7.2909 1.2913 C 7.2909 1.2913 7.4322 1.3054 7.501 1.3213 C 7.5626 1.3356 7.6191 1.3689 7.6811 1.3814 C 7.7203 1.3892 7.8012 1.3814 7.8012 1.3814 "/>
    <path id="ID0.7584992088377476" fill="none" stroke="#000000" stroke-width="0.12005427479743958" stroke-linecap="round" d="M 7.3209 1.9216 C 7.3209 1.9216 7.4989 1.9816 7.5911 1.9816 C 7.6449 1.9816 7.7411 1.9216 7.7411 1.9216 "/>
    <path id="ID0.40438934741541743" fill="none" stroke="#000000" stroke-width="0.12005427479743958" stroke-linecap="round" d="M 7.381 3.0921 C 7.4709 3.0322 7.5636 2.9756 7.6511 2.9121 C 7.674 2.8954 7.7111 2.852 7.7111 2.852 "/>
    <path id="ID0.7633831659331918" fill="none" stroke="#000000" stroke-width="0.12005427479743958" stroke-linecap="round" d="M 7.1709 3.4523 C 7.1709 3.4523 7.3708 3.4752 7.471 3.4823 C 7.5109 3.4851 7.5511 3.4823 7.5911 3.4823 C 7.6411 3.4823 7.6911 3.4823 7.7411 3.4823 C 7.7536 3.4823 7.7411 3.4823 7.7411 3.4823 "/>
    <path id="ID0.8195131137035787" fill="none" stroke="#000000" stroke-width="0.12005427479743958" stroke-linecap="round" d="M 7.3509 4.2026 C 7.3509 4.2026 7.431 4.2627 7.471 4.2927 C 7.511 4.3226 7.5501 4.3541 7.5911 4.3827 C 7.6501 4.4241 7.7112 4.4628 7.7711 4.5028 C 7.7861 4.5127 7.7711 4.5028 7.7711 4.5028 "/>
    <path id="ID0.923992021009326" fill="none" stroke="#000000" stroke-width="0.12005427479743958" stroke-linecap="round" d="M 7.381 4.983 C 7.381 4.983 7.8912 4.983 7.8912 4.983 "/>
  </g>
  <g id="ID0.2824689648114145">
    <path id="ID0.8757698251865804" fill="#995900" stroke="#995900" stroke-width="0.12005427479743958" d="M 10.0008 0.1512 L 10.9913 0.1512 L 10.9913 4.6832 L 10.0008 4.6832 L 10.0008 0.1512 Z "/>
    <path id="ID0.6422801343724132" fill="none" stroke="#000000" stroke-width="0.12005427479743958" stroke-linecap="round" d="M 10.2409 0.5413 C 10.2409 0.5413 10.3822 0.5554 10.451 0.5713 C 10.5126 0.5856 10.5691 0.6189 10.6311 0.6314 C 10.6703 0.6392 10.7512 0.6314 10.7512 0.6314 "/>
    <path id="ID0.7584992088377476" fill="none" stroke="#000000" stroke-width="0.12005427479743958" stroke-linecap="round" d="M 10.2709 1.1716 C 10.2709 1.1716 10.4489 1.2316 10.5411 1.2316 C 10.5949 1.2316 10.6911 1.1716 10.6911 1.1716 "/>
    <path id="ID0.40438934741541743" fill="none" stroke="#000000" stroke-width="0.12005427479743958" stroke-linecap="round" d="M 10.331 2.3421 C 10.4209 2.2822 10.5136 2.2256 10.6011 2.1621 C 10.624 2.1454 10.6611 2.102 10.6611 2.102 "/>
    <path id="ID0.7633831659331918" fill="none" stroke="#000000" stroke-width="0.12005427479743958" stroke-linecap="round" d="M 10.1209 2.7023 C 10.1209 2.7023 10.3208 2.7252 10.421 2.7323 C 10.4609 2.7351 10.5011 2.7323 10.5411 2.7323 C 10.5911 2.7323 10.6411 2.7323 10.6911 2.7323 C 10.7036 2.7323 10.6911 2.7323 10.6911 2.7323 "/>
    <path id="ID0.8195131137035787" fill="none" stroke="#000000" stroke-width="0.12005427479743958" stroke-linecap="round" d="M 10.3009 3.4526 C 10.3009 3.4526 10.381 3.5127 10.421 3.5427 C 10.461 3.5726 10.5001 3.6041 10.5411 3.6327 C 10.6001 3.6741 10.6612 3.7128 10.7211 3.7528 C 10.7361 3.7627 10.7211 3.7528 10.7211 3.7528 "/>
    <path id="ID0.923992021009326" fill="none" stroke="#000000" stroke-width="0.12005427479743958" stroke-linecap="round" d="M 10.331 4.233 C 10.331 4.233 10.8412 4.233 10.8412 4.233 "/>
  </g>
  <g id="ID0.9118851404637098">
    <path id="ID0.41013610642403364" fill="#003FFF" stroke="#000000" stroke-width="0.46047300767788457" d="M 15.9434 12.3721 L 16.222 12.3438 L 18.7681 21.6725 L 15.2143 22.6424 L 15.9434 12.3721 Z "/>
    <path id="ID0.8654622961767018" fill="#FFE9CC" stroke="#000000" stroke-width="0.46047294939252154" d="M 17.0118 22.2591 C 17.5468 22.1085 18.0675 22.0991 18.4764 22.2059 C 18.8854 22.3127 19.1825 22.5355 19.2708 22.8488 C 19.359 23.1622 19.2218 23.5072 18.9286 23.8117 C 18.6355 24.1163 18.1864 24.38 17.6515 24.5307 C 17.1165 24.6813 16.5958 24.6907 16.1868 24.5839 C 15.7778 24.4771 15.4807 24.2543 15.3925 23.941 C 15.3042 23.6276 15.4415 23.2825 15.7346 22.978 C 16.0277 22.6735 16.4768 22.4098 17.0118 22.2591 Z "/>
  </g>
  <g id="ID0.2824689648114145">
    <path id="ID0.8757698251865804" fill="#995900" stroke="#995900" stroke-width="0.12005427479743958" d="M 15.0508 2.6012 L 16.0413 2.6012 L 16.0413 7.1332 L 15.0508 7.1332 L 15.0508 2.6012 Z "/>
    <path id="ID0.6422801343724132" fill="none" stroke="#000000" stroke-width="0.12005427479743958" stroke-linecap="round" d="M 15.2909 2.9913 C 15.2909 2.9913 15.4322 3.0054 15.501 3.0213 C 15.5626 3.0356 15.6191 3.0689 15.6811 3.0814 C 15.7203 3.0892 15.8012 3.0814 15.8012 3.0814 "/>
    <path id="ID0.7584992088377476" fill="none" stroke="#000000" stroke-width="0.12005427479743958" stroke-linecap="round" d="M 15.3209 3.6216 C 15.3209 3.6216 15.4989 3.6816 15.5911 3.6816 C 15.6449 3.6816 15.7411 3.6216 15.7411 3.6216 "/>
    <path id="ID0.40438934741541743" fill="none" stroke="#000000" stroke-width="0.12005427479743958" stroke-linecap="round" d="M 15.381 4.7921 C 15.4709 4.7322 15.5636 4.6756 15.6511 4.6121 C 15.674 4.5954 15.7111 4.552 15.7111 4.552 "/>
    <path id="ID0.7633831659331918" fill="none" stroke="#000000" stroke-width="0.12005427479743958" stroke-linecap="round" d="M 15.1709 5.1523 C 15.1709 5.1523 15.3708 5.1752 15.471 5.1823 C 15.5109 5.1851 15.5511 5.1823 15.5911 5.1823 C 15.6411 5.1823 15.6911 5.1823 15.7411 5.1823 C 15.7536 5.1823 15.7411 5.1823 15.7411 5.1823 "/>
    <path id="ID0.8195131137035787" fill="none" stroke="#000000" stroke-width="0.12005427479743958" stroke-linecap="round" d="M 15.3509 5.9026 C 15.3509 5.9026 15.431 5.9627 15.471 5.9927 C 15.511 6.0226 15.5501 6.0541 15.5911 6.0827 C 15.6501 6.1241 15.7112 6.1628 15.7711 6.2028 C 15.7861 6.2127 15.7711 6.2028 15.7711 6.2028 "/>
    <path id="ID0.923992021009326" fill="none" stroke="#000000" stroke-width="0.12005427479743958" stroke-linecap="round" d="M 15.381 6.683 C 15.381 6.683 15.8912 6.683 15.8912 6.683 "/>
  </g>
  <g id="ID0.2824689648114145">
    <path id="ID0.8757698251865804" fill="#995900" stroke="#995900" stroke-width="0.12005427479743958" d="M 12.0008 12.2488 L 12.9913 12.2488 L 12.9913 7.7168 L 12.0008 7.7168 L 12.0008 12.2488 Z "/>
    <path id="ID0.6422801343724132" fill="none" stroke="#000000" stroke-width="0.12005427479743958" stroke-linecap="round" d="M 12.2409 11.8587 C 12.2409 11.8587 12.3822 11.8446 12.451 11.8287 C 12.5126 11.8144 12.5691 11.7811 12.6311 11.7686 C 12.6703 11.7608 12.7512 11.7686 12.7512 11.7686 "/>
    <path id="ID0.7584992088377476" fill="none" stroke="#000000" stroke-width="0.12005427479743958" stroke-linecap="round" d="M 12.2709 11.2284 C 12.2709 11.2284 12.4489 11.1684 12.5411 11.1684 C 12.5949 11.1684 12.6911 11.2284 12.6911 11.2284 "/>
    <path id="ID0.40438934741541743" fill="none" stroke="#000000" stroke-width="0.12005427479743958" stroke-linecap="round" d="M 12.331 10.0579 C 12.4209 10.1178 12.5136 10.1744 12.6011 10.2379 C 12.624 10.2546 12.6611 10.298 12.6611 10.298 "/>
    <path id="ID0.7633831659331918" fill="none" stroke="#000000" stroke-width="0.12005427479743958" stroke-linecap="round" d="M 12.1209 9.6977 C 12.1209 9.6977 12.3208 9.6748 12.421 9.6677 C 12.4609 9.6649 12.5011 9.6677 12.5411 9.6677 C 12.5911 9.6677 12.6411 9.6677 12.6911 9.6677 C 12.7036 9.6677 12.6911 9.6677 12.6911 9.6677 "/>
    <path id="ID0.8195131137035787" fill="none" stroke="#000000" stroke-width="0.12005427479743958" stroke-linecap="round" d="M 12.3009 8.9474 C 12.3009 8.9474 12.381 8.8873 12.421 8.8573 C 12.461 8.8274 12.5001 8.7959 12.5411 8.7673 C 12.6001 8.7259 12.6612 8.6872 12.7211 8.6472 C 12.7361 8.6373 12.7211 8.6472 12.7211 8.6472 "/>
    <path id="ID0.923992021009326" fill="none" stroke="#000000" stroke-width="0.12005427479743958" stroke-linecap="round" d="M 12.331 8.167 C 12.331 8.167 12.8412 8.167 12.8412 8.167 "/>
  </g>
  <g id="ID0.2824689648114145">
    <path id="ID0.8757698251865804" fill="#995900" stroke="#995900" stroke-width="0.12005427479743958" d="M 6.2008 11.5988 L 7.1913 11.5988 L 7.1913 7.0668 L 6.2008 7.0668 L 6.2008 11.5988 Z "/>
    <path id="ID0.6422801343724132" fill="none" stroke="#000000" stroke-width="0.12005427479743958" stroke-linecap="round" d="M 6.4409 11.2087 C 6.4409 11.2087 6.5822 11.1946 6.651 11.1787 C 6.7126 11.1644 6.7691 11.1311 6.8311 11.1186 C 6.8703 11.1108 6.9512 11.1186 6.9512 11.1186 "/>
    <path id="ID0.7584992088377476" fill="none" stroke="#000000" stroke-width="0.12005427479743958" stroke-linecap="round" d="M 6.4709 10.5784 C 6.4709 10.5784 6.6489 10.5184 6.7411 10.5184 C 6.7949 10.5184 6.8911 10.5784 6.8911 10.5784 "/>
    <path id="ID0.40438934741541743" fill="none" stroke="#000000" stroke-width="0.12005427479743958" stroke-linecap="round" d="M 6.531 9.4079 C 6.6209 9.4678 6.7136 9.5244 6.8011 9.5879 C 6.824 9.6046 6.8611 9.648 6.8611 9.648 "/>
    <path id="ID0.7633831659331918" fill="none" stroke="#000000" stroke-width="0.12005427479743958" stroke-linecap="round" d="M 6.3209 9.0477 C 6.3209 9.0477 6.5208 9.0248 6.621 9.0177 C 6.6609 9.0149 6.7011 9.0177 6.7411 9.0177 C 6.7911 9.0177 6.8411 9.0177 6.8911 9.0177 C 6.9036 9.0177 6.8911 9.0177 6.8911 9.0177 "/>
    <path id="ID0.8195131137035787" fill="none" stroke="#000000" stroke-width="0.12005427479743958" stroke-linecap="round" d="M 6.5009 8.2974 C 6.5009 8.2974 6.581 8.2373 6.621 8.2073 C 6.661 8.1774 6.7001 8.1459 6.7411 8.1173 C 6.8001 8.0759 6.8612 8.0372 6.9211 7.9972 C 6.9361 7.9873 6.9211 7.9972 6.9211 7.9972 "/>
    <path id="ID0.923992021009326" fill="none" stroke="#000000" stroke-width="0.12005427479743958" stroke-linecap="round" d="M 6.531 7.517 C 6.531 7.517 7.0412 7.517 7.0412 7.517 "/>
  </g>
  <g id="ID0.2824689648114145">
    <path id="ID0.8757698251865804" fill="#995900" stroke="#995900" stroke-width="0.12005427479743958" d="M 5.1508 10.9488 L 6.1413 10.9488 L 6.1413 6.4168 L 5.1508 6.4168 L 5.1508 10.9488 Z "/>
    <path id="ID0.6422801343724132" fill="none" stroke="#000000" stroke-width="0.12005427479743958" stroke-linecap="round" d="M 5.3909 10.5587 C 5.3909 10.5587 5.5322 10.5446 5.601 10.5287 C 5.6626 10.5144 5.7191 10.4811 5.7811 10.4686 C 5.8203 10.4608 5.9012 10.4686 5.9012 10.4686 "/>
    <path id="ID0.7584992088377476" fill="none" stroke="#000000" stroke-width="0.12005427479743958" stroke-linecap="round" d="M 5.4209 9.9284 C 5.4209 9.9284 5.5989 9.8684 5.6911 9.8684 C 5.7449 9.8684 5.8411 9.9284 5.8411 9.9284 "/>
    <path id="ID0.40438934741541743" fill="none" stroke="#000000" stroke-width="0.12005427479743958" stroke-linecap="round" d="M 5.481 8.7579 C 5.5709 8.8178 5.6636 8.8744 5.7511 8.9379 C 5.774 8.9546 5.8111 8.998 5.8111 8.998 "/>
    <path id="ID0.7633831659331918" fill="none" stroke="#000000" stroke-width="0.12005427479743958" stroke-linecap="round" d="M 5.2709 8.3977 C 5.2709 8.3977 5.4708 8.3748 5.571 8.3677 C 5.6109 8.3649 5.6511 8.3677 5.6911 8.3677 C 5.7411 8.3677 5.7911 8.3677 5.8411 8.3677 C 5.8536 8.3677 5.8411 8.3677 5.8411 8.3677 "/>
    <path id="ID0.8195131137035787" fill="none" stroke="#000000" stroke-width="0.12005427479743958" stroke-linecap="round" d="M 5.4509 7.6474 C 5.4509 7.6474 5.531 7.5873 5.571 7.5573 C 5.611 7.5274 5.6501 7.4959 5.6911 7.4673 C 5.7501 7.4259 5.8112 7.3872 5.8711 7.3472 C 5.8861 7.3373 5.8711 7.3472 5.8711 7.3472 "/>
    <path id="ID0.923992021009326" fill="none" stroke="#000000" stroke-width="0.12005427479743958" stroke-linecap="round" d="M 5.481 6.867 C 5.481 6.867 5.9912 6.867 5.9912 6.867 "/>
  </g>
  <g id="ID0.2824689648114145">
    <path id="ID0.8757698251865804" fill="#995900" stroke="#995900" stroke-width="0.12005427479743958" d="M 4.1008 10.1488 L 5.0913 10.1488 L 5.0913 5.6168 L 4.1008 5.6168 L 4.1008 10.1488 Z "/>
    <path id="ID0.6422801343724132" fill="none" stroke="#000000" stroke-width="0.12005427479743958" stroke-linecap="round" d="M 4.3409 9.7587 C 4.3409 9.7587 4.4822 9.7446 4.551 9.7287 C 4.6126 9.7144 4.6691 9.6811 4.7311 9.6686 C 4.7703 9.6608 4.8512 9.6686 4.8512 9.6686 "/>
    <path id="ID0.7584992088377476" fill="none" stroke="#000000" stroke-width="0.12005427479743958" stroke-linecap="round" d="M 4.3709 9.1284 C 4.3709 9.1284 4.5489 9.0684 4.6411 9.0684 C 4.6949 9.0684 4.7911 9.1284 4.7911 9.1284 "/>
    <path id="ID0.40438934741541743" fill="none" stroke="#000000" stroke-width="0.12005427479743958" stroke-linecap="round" d="M 4.431 7.9579 C 4.5209 8.0178 4.6136 8.0744 4.7011 8.1379 C 4.724 8.1546 4.7611 8.198 4.7611 8.198 "/>
    <path id="ID0.7633831659331918" fill="none" stroke="#000000" stroke-width="0.12005427479743958" stroke-linecap="round" d="M 4.2209 7.5977 C 4.2209 7.5977 4.4208 7.5748 4.521 7.5677 C 4.5609 7.5649 4.6011 7.5677 4.6411 7.5677 C 4.6911 7.5677 4.7411 7.5677 4.7911 7.5677 C 4.8036 7.5677 4.7911 7.5677 4.7911 7.5677 "/>
    <path id="ID0.8195131137035787" fill="none" stroke="#000000" stroke-width="0.12005427479743958" stroke-linecap="round" d="M 4.4009 6.8474 C 4.4009 6.8474 4.481 6.7873 4.521 6.7573 C 4.561 6.7274 4.6001 6.6959 4.6411 6.6673 C 4.7001 6.6259 4.7612 6.5872 4.8211 6.5472 C 4.8361 6.5373 4.8211 6.5472 4.8211 6.5472 "/>
    <path id="ID0.923992021009326" fill="none" stroke="#000000" stroke-width="0.12005427479743958" stroke-linecap="round" d="M 4.431 6.067 C 4.431 6.067 4.9412 6.067 4.9412 6.067 "/>
  </g>
  <g id="ID0.2824689648114145">
    <path id="ID0.8757698251865804" fill="#995900" stroke="#995900" stroke-width="0.12005427479743958" d="M 13.0508 11.6488 L 14.0413 11.6488 L 14.0413 7.1168 L 13.0508 7.1168 L 13.0508 11.6488 Z "/>
    <path id="ID0.6422801343724132" fill="none" stroke="#000000" stroke-width="0.12005427479743958" stroke-linecap="round" d="M 13.2909 11.2587 C 13.2909 11.2587 13.4322 11.2446 13.501 11.2287 C 13.5626 11.2144 13.6191 11.1811 13.6811 11.1686 C 13.7203 11.1608 13.8012 11.1686 13.8012 11.1686 "/>
    <path id="ID0.7584992088377476" fill="none" stroke="#000000" stroke-width="0.12005427479743958" stroke-linecap="round" d="M 13.3209 10.6284 C 13.3209 10.6284 13.4989 10.5684 13.5911 10.5684 C 13.6449 10.5684 13.7411 10.6284 13.7411 10.6284 "/>
    <path id="ID0.40438934741541743" fill="none" stroke="#000000" stroke-width="0.12005427479743958" stroke-linecap="round" d="M 13.381 9.4579 C 13.4709 9.5178 13.5636 9.5744 13.6511 9.6379 C 13.674 9.6546 13.7111 9.698 13.7111 9.698 "/>
    <path id="ID0.7633831659331918" fill="none" stroke="#000000" stroke-width="0.12005427479743958" stroke-linecap="round" d="M 13.1709 9.0977 C 13.1709 9.0977 13.3708 9.0748 13.471 9.0677 C 13.5109 9.0649 13.5511 9.0677 13.5911 9.0677 C 13.6411 9.0677 13.6911 9.0677 13.7411 9.0677 C 13.7536 9.0677 13.7411 9.0677 13.7411 9.0677 "/>
    <path id="ID0.8195131137035787" fill="none" stroke="#000000" stroke-width="0.12005427479743958" stroke-linecap="round" d="M 13.3509 8.3474 C 13.3509 8.3474 13.431 8.2873 13.471 8.2573 C 13.511 8.2274 13.5501 8.1959 13.5911 8.1673 C 13.6501 8.1259 13.7112 8.0872 13.7711 8.0472 C 13.7861 8.0373 13.7711 8.0472 13.7711 8.0472 "/>
    <path id="ID0.923992021009326" fill="none" stroke="#000000" stroke-width="0.12005427479743958" stroke-linecap="round" d="M 13.381 7.567 C 13.381 7.567 13.8912 7.567 13.8912 7.567 "/>
  </g>
  <g id="ID0.2824689648114145">
    <path id="ID0.8757698251865804" fill="#995900" stroke="#995900" stroke-width="0.12005427479743958" d="M 14.0508 10.9488 L 15.0413 10.9488 L 15.0413 6.4168 L 14.0508 6.4168 L 14.0508 10.9488 Z "/>
    <path id="ID0.6422801343724132" fill="none" stroke="#000000" stroke-width="0.12005427479743958" stroke-linecap="round" d="M 14.2909 10.5587 C 14.2909 10.5587 14.4322 10.5446 14.501 10.5287 C 14.5626 10.5144 14.6191 10.4811 14.6811 10.4686 C 14.7203 10.4608 14.8012 10.4686 14.8012 10.4686 "/>
    <path id="ID0.7584992088377476" fill="none" stroke="#000000" stroke-width="0.12005427479743958" stroke-linecap="round" d="M 14.3209 9.9284 C 14.3209 9.9284 14.4989 9.8684 14.5911 9.8684 C 14.6449 9.8684 14.7411 9.9284 14.7411 9.9284 "/>
    <path id="ID0.40438934741541743" fill="none" stroke="#000000" stroke-width="0.12005427479743958" stroke-linecap="round" d="M 14.381 8.7579 C 14.4709 8.8178 14.5636 8.8744 14.6511 8.9379 C 14.674 8.9546 14.7111 8.998 14.7111 8.998 "/>
    <path id="ID0.7633831659331918" fill="none" stroke="#000000" stroke-width="0.12005427479743958" stroke-linecap="round" d="M 14.1709 8.3977 C 14.1709 8.3977 14.3708 8.3748 14.471 8.3677 C 14.5109 8.3649 14.5511 8.3677 14.5911 8.3677 C 14.6411 8.3677 14.6911 8.3677 14.7411 8.3677 C 14.7536 8.3677 14.7411 8.3677 14.7411 8.3677 "/>
    <path id="ID0.8195131137035787" fill="none" stroke="#000000" stroke-width="0.12005427479743958" stroke-linecap="round" d="M 14.3509 7.6474 C 14.3509 7.6474 14.431 7.5873 14.471 7.5573 C 14.511 7.5274 14.5501 7.4959 14.5911 7.4673 C 14.6501 7.4259 14.7112 7.3872 14.7711 7.3472 C 14.7861 7.3373 14.7711 7.3472 14.7711 7.3472 "/>
    <path id="ID0.923992021009326" fill="none" stroke="#000000" stroke-width="0.12005427479743958" stroke-linecap="round" d="M 14.381 6.867 C 14.381 6.867 14.8912 6.867 14.8912 6.867 "/>
  </g>
  <path id="ID0.43916446389630437" fill="#003FFF" stroke="#000000" stroke-width="0.460472971200943" d="M 3.8694 12.282 L 16.3022 12.282 L 16.3022 25.9811 L 3.8694 25.9811 L 3.8694 12.282 Z "/>
  <g id="ID0.2824689648114145">
    <path id="ID0.8757698251865804" fill="#995900" stroke="#995900" stroke-width="0.12005427479743958" d="M 11.0008 12.5488 L 11.9913 12.5488 L 11.9913 8.0168 L 11.0008 8.0168 L 11.0008 12.5488 Z "/>
    <path id="ID0.6422801343724132" fill="none" stroke="#000000" stroke-width="0.12005427479743958" stroke-linecap="round" d="M 11.2409 12.1587 C 11.2409 12.1587 11.3822 12.1446 11.451 12.1287 C 11.5126 12.1144 11.5691 12.0811 11.6311 12.0686 C 11.6703 12.0608 11.7512 12.0686 11.7512 12.0686 "/>
    <path id="ID0.7584992088377476" fill="none" stroke="#000000" stroke-width="0.12005427479743958" stroke-linecap="round" d="M 11.2709 11.5284 C 11.2709 11.5284 11.4489 11.4684 11.5411 11.4684 C 11.5949 11.4684 11.6911 11.5284 11.6911 11.5284 "/>
    <path id="ID0.40438934741541743" fill="none" stroke="#000000" stroke-width="0.12005427479743958" stroke-linecap="round" d="M 11.331 10.3579 C 11.4209 10.4178 11.5136 10.4744 11.6011 10.5379 C 11.624 10.5546 11.6611 10.598 11.6611 10.598 "/>
    <path id="ID0.7633831659331918" fill="none" stroke="#000000" stroke-width="0.12005427479743958" stroke-linecap="round" d="M 11.1209 9.9977 C 11.1209 9.9977 11.3208 9.9748 11.421 9.9677 C 11.4609 9.9649 11.5011 9.9677 11.5411 9.9677 C 11.5911 9.9677 11.6411 9.9677 11.6911 9.9677 C 11.7036 9.9677 11.6911 9.9677 11.6911 9.9677 "/>
    <path id="ID0.8195131137035787" fill="none" stroke="#000000" stroke-width="0.12005427479743958" stroke-linecap="round" d="M 11.3009 9.2474 C 11.3009 9.2474 11.381 9.1873 11.421 9.1573 C 11.461 9.1274 11.5001 9.0959 11.5411 9.0673 C 11.6001 9.0259 11.6612 8.9872 11.7211 8.9472 C 11.7361 8.9373 11.7211 8.9472 11.7211 8.9472 "/>
    <path id="ID0.923992021009326" fill="none" stroke="#000000" stroke-width="0.12005427479743958" stroke-linecap="round" d="M 11.331 8.467 C 11.331 8.467 11.8412 8.467 11.8412 8.467 "/>
  </g>
  <g id="ID0.2824689648114145">
    <path id="ID0.8757698251865804" fill="#995900" stroke="#995900" stroke-width="0.12005427479743958" d="M 9.0008 12.7988 L 9.9913 12.7988 L 9.9913 8.2668 L 9.0008 8.2668 L 9.0008 12.7988 Z "/>
    <path id="ID0.6422801343724132" fill="none" stroke="#000000" stroke-width="0.12005427479743958" stroke-linecap="round" d="M 9.2409 12.4087 C 9.2409 12.4087 9.3822 12.3946 9.451 12.3787 C 9.5126 12.3644 9.5691 12.3311 9.6311 12.3186 C 9.6703 12.3108 9.7512 12.3186 9.7512 12.3186 "/>
    <path id="ID0.7584992088377476" fill="none" stroke="#000000" stroke-width="0.12005427479743958" stroke-linecap="round" d="M 9.2709 11.7784 C 9.2709 11.7784 9.4489 11.7184 9.5411 11.7184 C 9.5949 11.7184 9.6911 11.7784 9.6911 11.7784 "/>
    <path id="ID0.40438934741541743" fill="none" stroke="#000000" stroke-width="0.12005427479743958" stroke-linecap="round" d="M 9.331 10.6079 C 9.4209 10.6678 9.5136 10.7244 9.6011 10.7879 C 9.624 10.8046 9.6611 10.848 9.6611 10.848 "/>
    <path id="ID0.7633831659331918" fill="none" stroke="#000000" stroke-width="0.12005427479743958" stroke-linecap="round" d="M 9.1209 10.2477 C 9.1209 10.2477 9.3208 10.2248 9.421 10.2177 C 9.4609 10.2149 9.5011 10.2177 9.5411 10.2177 C 9.5911 10.2177 9.6411 10.2177 9.6911 10.2177 C 9.7036 10.2177 9.6911 10.2177 9.6911 10.2177 "/>
    <path id="ID0.8195131137035787" fill="none" stroke="#000000" stroke-width="0.12005427479743958" stroke-linecap="round" d="M 9.3009 9.4974 C 9.3009 9.4974 9.381 9.4373 9.421 9.4073 C 9.461 9.3774 9.5001 9.3459 9.5411 9.3173 C 9.6001 9.2759 9.6612 9.2372 9.7211 9.1972 C 9.7361 9.1873 9.7211 9.1972 9.7211 9.1972 "/>
    <path id="ID0.923992021009326" fill="none" stroke="#000000" stroke-width="0.12005427479743958" stroke-linecap="round" d="M 9.331 8.717 C 9.331 8.717 9.8412 8.717 9.8412 8.717 "/>
  </g>
  <g id="ID0.2824689648114145">
    <path id="ID0.8757698251865804" fill="#995900" stroke="#995900" stroke-width="0.12005427479743958" d="M 8.1008 12.5488 L 9.0913 12.5488 L 9.0913 8.0168 L 8.1008 8.0168 L 8.1008 12.5488 Z "/>
    <path id="ID0.6422801343724132" fill="none" stroke="#000000" stroke-width="0.12005427479743958" stroke-linecap="round" d="M 8.3409 12.1587 C 8.3409 12.1587 8.4822 12.1446 8.551 12.1287 C 8.6126 12.1144 8.6691 12.0811 8.7311 12.0686 C 8.7703 12.0608 8.8512 12.0686 8.8512 12.0686 "/>
    <path id="ID0.7584992088377476" fill="none" stroke="#000000" stroke-width="0.12005427479743958" stroke-linecap="round" d="M 8.3709 11.5284 C 8.3709 11.5284 8.5489 11.4684 8.6411 11.4684 C 8.6949 11.4684 8.7911 11.5284 8.7911 11.5284 "/>
    <path id="ID0.40438934741541743" fill="none" stroke="#000000" stroke-width="0.12005427479743958" stroke-linecap="round" d="M 8.431 10.3579 C 8.5209 10.4178 8.6136 10.4744 8.7011 10.5379 C 8.724 10.5546 8.7611 10.598 8.7611 10.598 "/>
    <path id="ID0.7633831659331918" fill="none" stroke="#000000" stroke-width="0.12005427479743958" stroke-linecap="round" d="M 8.2209 9.9977 C 8.2209 9.9977 8.4208 9.9748 8.521 9.9677 C 8.5609 9.9649 8.6011 9.9677 8.6411 9.9677 C 8.6911 9.9677 8.7411 9.9677 8.7911 9.9677 C 8.8036 9.9677 8.7911 9.9677 8.7911 9.9677 "/>
    <path id="ID0.8195131137035787" fill="none" stroke="#000000" stroke-width="0.12005427479743958" stroke-linecap="round" d="M 8.4009 9.2474 C 8.4009 9.2474 8.481 9.1873 8.521 9.1573 C 8.561 9.1274 8.6001 9.0959 8.6411 9.0673 C 8.7001 9.0259 8.7612 8.9872 8.8211 8.9472 C 8.8361 8.9373 8.8211 8.9472 8.8211 8.9472 "/>
    <path id="ID0.923992021009326" fill="none" stroke="#000000" stroke-width="0.12005427479743958" stroke-linecap="round" d="M 8.431 8.467 C 8.431 8.467 8.9412 8.467 8.9412 8.467 "/>
  </g>
  <g id="ID0.2824689648114145">
    <path id="ID0.8757698251865804" fill="#995900" stroke="#995900" stroke-width="0.12005427479743958" d="M 7.1008 11.9988 L 8.0913 11.9988 L 8.0913 7.4668 L 7.1008 7.4668 L 7.1008 11.9988 Z "/>
    <path id="ID0.6422801343724132" fill="none" stroke="#000000" stroke-width="0.12005427479743958" stroke-linecap="round" d="M 7.3409 11.6087 C 7.3409 11.6087 7.4822 11.5946 7.551 11.5787 C 7.6126 11.5644 7.6691 11.5311 7.7311 11.5186 C 7.7703 11.5108 7.8512 11.5186 7.8512 11.5186 "/>
    <path id="ID0.7584992088377476" fill="none" stroke="#000000" stroke-width="0.12005427479743958" stroke-linecap="round" d="M 7.3709 10.9784 C 7.3709 10.9784 7.5489 10.9184 7.6411 10.9184 C 7.6949 10.9184 7.7911 10.9784 7.7911 10.9784 "/>
    <path id="ID0.40438934741541743" fill="none" stroke="#000000" stroke-width="0.12005427479743958" stroke-linecap="round" d="M 7.431 9.8079 C 7.5209 9.8678 7.6136 9.9244 7.7011 9.9879 C 7.724 10.0046 7.7611 10.048 7.7611 10.048 "/>
    <path id="ID0.7633831659331918" fill="none" stroke="#000000" stroke-width="0.12005427479743958" stroke-linecap="round" d="M 7.2209 9.4477 C 7.2209 9.4477 7.4208 9.4248 7.521 9.4177 C 7.5609 9.4149 7.6011 9.4177 7.6411 9.4177 C 7.6911 9.4177 7.7411 9.4177 7.7911 9.4177 C 7.8036 9.4177 7.7911 9.4177 7.7911 9.4177 "/>
    <path id="ID0.8195131137035787" fill="none" stroke="#000000" stroke-width="0.12005427479743958" stroke-linecap="round" d="M 7.4009 8.6974 C 7.4009 8.6974 7.481 8.6373 7.521 8.6073 C 7.561 8.5774 7.6001 8.5459 7.6411 8.5173 C 7.7001 8.4759 7.7612 8.4372 7.8211 8.3972 C 7.8361 8.3873 7.8211 8.3972 7.8211 8.3972 "/>
    <path id="ID0.923992021009326" fill="none" stroke="#000000" stroke-width="0.12005427479743958" stroke-linecap="round" d="M 7.431 7.917 C 7.431 7.917 7.9412 7.917 7.9412 7.917 "/>
  </g>
  <g id="ID0.2824689648114145">
    <path id="ID0.8757698251865804" fill="#995900" stroke="#995900" stroke-width="0.12005427479743958" d="M 10.0508 12.7488 L 11.0413 12.7488 L 11.0413 8.2168 L 10.0508 8.2168 L 10.0508 12.7488 Z "/>
    <path id="ID0.6422801343724132" fill="none" stroke="#000000" stroke-width="0.12005427479743958" stroke-linecap="round" d="M 10.2909 12.3587 C 10.2909 12.3587 10.4322 12.3446 10.501 12.3287 C 10.5626 12.3144 10.6191 12.2811 10.6811 12.2686 C 10.7203 12.2608 10.8012 12.2686 10.8012 12.2686 "/>
    <path id="ID0.7584992088377476" fill="none" stroke="#000000" stroke-width="0.12005427479743958" stroke-linecap="round" d="M 10.3209 11.7284 C 10.3209 11.7284 10.4989 11.6684 10.5911 11.6684 C 10.6449 11.6684 10.7411 11.7284 10.7411 11.7284 "/>
    <path id="ID0.40438934741541743" fill="none" stroke="#000000" stroke-width="0.12005427479743958" stroke-linecap="round" d="M 10.381 10.5579 C 10.4709 10.6178 10.5636 10.6744 10.6511 10.7379 C 10.674 10.7546 10.7111 10.798 10.7111 10.798 "/>
    <path id="ID0.7633831659331918" fill="none" stroke="#000000" stroke-width="0.12005427479743958" stroke-linecap="round" d="M 10.1709 10.1977 C 10.1709 10.1977 10.3708 10.1748 10.471 10.1677 C 10.5109 10.1649 10.5511 10.1677 10.5911 10.1677 C 10.6411 10.1677 10.6911 10.1677 10.7411 10.1677 C 10.7536 10.1677 10.7411 10.1677 10.7411 10.1677 "/>
    <path id="ID0.8195131137035787" fill="none" stroke="#000000" stroke-width="0.12005427479743958" stroke-linecap="round" d="M 10.3509 9.4474 C 10.3509 9.4474 10.431 9.3873 10.471 9.3573 C 10.511 9.3274 10.5501 9.2959 10.5911 9.2673 C 10.6501 9.2259 10.7112 9.1872 10.7711 9.1472 C 10.7861 9.1373 10.7711 9.1472 10.7711 9.1472 "/>
    <path id="ID0.923992021009326" fill="none" stroke="#000000" stroke-width="0.12005427479743958" stroke-linecap="round" d="M 10.381 8.667 C 10.381 8.667 10.8912 8.667 10.8912 8.667 "/>
  </g>
  <g id="ID0.2824689648114145">
    <path id="ID0.8757698251865804" fill="#995900" stroke="#995900" stroke-width="0.12005427479743958" d="M 15.0508 10.2988 L 16.0413 10.2988 L 16.0413 5.7668 L 15.0508 5.7668 L 15.0508 10.2988 Z "/>
    <path id="ID0.6422801343724132" fill="none" stroke="#000000" stroke-width="0.12005427479743958" stroke-linecap="round" d="M 15.2909 9.9087 C 15.2909 9.9087 15.4322 9.8946 15.501 9.8787 C 15.5626 9.8644 15.6191 9.8311 15.6811 9.8186 C 15.7203 9.8108 15.8012 9.8186 15.8012 9.8186 "/>
    <path id="ID0.7584992088377476" fill="none" stroke="#000000" stroke-width="0.12005427479743958" stroke-linecap="round" d="M 15.3209 9.2784 C 15.3209 9.2784 15.4989 9.2184 15.5911 9.2184 C 15.6449 9.2184 15.7411 9.2784 15.7411 9.2784 "/>
    <path id="ID0.40438934741541743" fill="none" stroke="#000000" stroke-width="0.12005427479743958" stroke-linecap="round" d="M 15.381 8.1079 C 15.4709 8.1678 15.5636 8.2244 15.6511 8.2879 C 15.674 8.3046 15.7111 8.348 15.7111 8.348 "/>
    <path id="ID0.7633831659331918" fill="none" stroke="#000000" stroke-width="0.12005427479743958" stroke-linecap="round" d="M 15.1709 7.7477 C 15.1709 7.7477 15.3708 7.7248 15.471 7.7177 C 15.5109 7.7149 15.5511 7.7177 15.5911 7.7177 C 15.6411 7.7177 15.6911 7.7177 15.7411 7.7177 C 15.7536 7.7177 15.7411 7.7177 15.7411 7.7177 "/>
    <path id="ID0.8195131137035787" fill="none" stroke="#000000" stroke-width="0.12005427479743958" stroke-linecap="round" d="M 15.3509 6.9974 C 15.3509 6.9974 15.431 6.9373 15.471 6.9073 C 15.511 6.8774 15.5501 6.8459 15.5911 6.8173 C 15.6501 6.7759 15.7112 6.7372 15.7711 6.6972 C 15.7861 6.6873 15.7711 6.6972 15.7711 6.6972 "/>
    <path id="ID0.923992021009326" fill="none" stroke="#000000" stroke-width="0.12005427479743958" stroke-linecap="round" d="M 15.381 6.217 C 15.381 6.217 15.8912 6.217 15.8912 6.217 "/>
  </g>
  <g id="ID0.2824689648114145">
    <path id="ID0.8757698251865804" fill="#995900" stroke="#995900" stroke-width="0.12005427479743958" d="M 11.9508 9.7488 L 12.9413 9.7488 L 12.9413 5.2168 L 11.9508 5.2168 L 11.9508 9.7488 Z "/>
    <path id="ID0.6422801343724132" fill="none" stroke="#000000" stroke-width="0.12005427479743958" stroke-linecap="round" d="M 12.1909 9.3587 C 12.1909 9.3587 12.3322 9.3446 12.401 9.3287 C 12.4626 9.3144 12.5191 9.2811 12.5811 9.2686 C 12.6203 9.2608 12.7012 9.2686 12.7012 9.2686 "/>
    <path id="ID0.7584992088377476" fill="none" stroke="#000000" stroke-width="0.12005427479743958" stroke-linecap="round" d="M 12.2209 8.7284 C 12.2209 8.7284 12.3989 8.6684 12.4911 8.6684 C 12.5449 8.6684 12.6411 8.7284 12.6411 8.7284 "/>
    <path id="ID0.40438934741541743" fill="none" stroke="#000000" stroke-width="0.12005427479743958" stroke-linecap="round" d="M 12.281 7.5579 C 12.3709 7.6178 12.4636 7.6744 12.5511 7.7379 C 12.574 7.7546 12.6111 7.798 12.6111 7.798 "/>
    <path id="ID0.7633831659331918" fill="none" stroke="#000000" stroke-width="0.12005427479743958" stroke-linecap="round" d="M 12.0709 7.1977 C 12.0709 7.1977 12.2708 7.1748 12.371 7.1677 C 12.4109 7.1649 12.4511 7.1677 12.4911 7.1677 C 12.5411 7.1677 12.5911 7.1677 12.6411 7.1677 C 12.6536 7.1677 12.6411 7.1677 12.6411 7.1677 "/>
    <path id="ID0.8195131137035787" fill="none" stroke="#000000" stroke-width="0.12005427479743958" stroke-linecap="round" d="M 12.2509 6.4474 C 12.2509 6.4474 12.331 6.3873 12.371 6.3573 C 12.411 6.3274 12.4501 6.2959 12.4911 6.2673 C 12.5501 6.2259 12.6112 6.1872 12.6711 6.1472 C 12.6861 6.1373 12.6711 6.1472 12.6711 6.1472 "/>
    <path id="ID0.923992021009326" fill="none" stroke="#000000" stroke-width="0.12005427479743958" stroke-linecap="round" d="M 12.281 5.667 C 12.281 5.667 12.7912 5.667 12.7912 5.667 "/>
  </g>
  <g id="ID0.2824689648114145">
    <path id="ID0.8757698251865804" fill="#995900" stroke="#995900" stroke-width="0.12005427479743958" d="M 6.1508 9.0988 L 7.1413 9.0988 L 7.1413 4.5668 L 6.1508 4.5668 L 6.1508 9.0988 Z "/>
    <path id="ID0.6422801343724132" fill="none" stroke="#000000" stroke-width="0.12005427479743958" stroke-linecap="round" d="M 6.3909 8.7087 C 6.3909 8.7087 6.5322 8.6946 6.601 8.6787 C 6.6626 8.6644 6.7191 8.6311 6.7811 8.6186 C 6.8203 8.6108 6.9012 8.6186 6.9012 8.6186 "/>
    <path id="ID0.7584992088377476" fill="none" stroke="#000000" stroke-width="0.12005427479743958" stroke-linecap="round" d="M 6.4209 8.0784 C 6.4209 8.0784 6.5989 8.0184 6.6911 8.0184 C 6.7449 8.0184 6.8411 8.0784 6.8411 8.0784 "/>
    <path id="ID0.40438934741541743" fill="none" stroke="#000000" stroke-width="0.12005427479743958" stroke-linecap="round" d="M 6.481 6.9079 C 6.5709 6.9678 6.6636 7.0244 6.7511 7.0879 C 6.774 7.1046 6.8111 7.148 6.8111 7.148 "/>
    <path id="ID0.7633831659331918" fill="none" stroke="#000000" stroke-width="0.12005427479743958" stroke-linecap="round" d="M 6.2709 6.5477 C 6.2709 6.5477 6.4708 6.5248 6.571 6.5177 C 6.6109 6.5149 6.6511 6.5177 6.6911 6.5177 C 6.7411 6.5177 6.7911 6.5177 6.8411 6.5177 C 6.8536 6.5177 6.8411 6.5177 6.8411 6.5177 "/>
    <path id="ID0.8195131137035787" fill="none" stroke="#000000" stroke-width="0.12005427479743958" stroke-linecap="round" d="M 6.4509 5.7974 C 6.4509 5.7974 6.531 5.7373 6.571 5.7073 C 6.611 5.6774 6.6501 5.6459 6.6911 5.6173 C 6.7501 5.5759 6.8112 5.5372 6.8711 5.4972 C 6.8861 5.4873 6.8711 5.4972 6.8711 5.4972 "/>
    <path id="ID0.923992021009326" fill="none" stroke="#000000" stroke-width="0.12005427479743958" stroke-linecap="round" d="M 6.481 5.017 C 6.481 5.017 6.9912 5.017 6.9912 5.017 "/>
  </g>
  <g id="ID0.2824689648114145">
    <path id="ID0.8757698251865804" fill="#995900" stroke="#995900" stroke-width="0.12005427479743958" d="M 13.0008 9.1988 L 13.9913 9.1988 L 13.9913 4.6668 L 13.0008 4.6668 L 13.0008 9.1988 Z "/>
    <path id="ID0.6422801343724132" fill="none" stroke="#000000" stroke-width="0.12005427479743958" stroke-linecap="round" d="M 13.2409 8.8087 C 13.2409 8.8087 13.3822 8.7946 13.451 8.7787 C 13.5126 8.7644 13.5691 8.7311 13.6311 8.7186 C 13.6703 8.7108 13.7512 8.7186 13.7512 8.7186 "/>
    <path id="ID0.7584992088377476" fill="none" stroke="#000000" stroke-width="0.12005427479743958" stroke-linecap="round" d="M 13.2709 8.1784 C 13.2709 8.1784 13.4489 8.1184 13.5411 8.1184 C 13.5949 8.1184 13.6911 8.1784 13.6911 8.1784 "/>
    <path id="ID0.40438934741541743" fill="none" stroke="#000000" stroke-width="0.12005427479743958" stroke-linecap="round" d="M 13.331 7.0079 C 13.4209 7.0678 13.5136 7.1244 13.6011 7.1879 C 13.624 7.2046 13.6611 7.248 13.6611 7.248 "/>
    <path id="ID0.7633831659331918" fill="none" stroke="#000000" stroke-width="0.12005427479743958" stroke-linecap="round" d="M 13.1209 6.6477 C 13.1209 6.6477 13.3208 6.6248 13.421 6.6177 C 13.4609 6.6149 13.5011 6.6177 13.5411 6.6177 C 13.5911 6.6177 13.6411 6.6177 13.6911 6.6177 C 13.7036 6.6177 13.6911 6.6177 13.6911 6.6177 "/>
    <path id="ID0.8195131137035787" fill="none" stroke="#000000" stroke-width="0.12005427479743958" stroke-linecap="round" d="M 13.3009 5.8974 C 13.3009 5.8974 13.381 5.8373 13.421 5.8073 C 13.461 5.7774 13.5001 5.7459 13.5411 5.7173 C 13.6001 5.6759 13.6612 5.6372 13.7211 5.5972 C 13.7361 5.5873 13.7211 5.5972 13.7211 5.5972 "/>
    <path id="ID0.923992021009326" fill="none" stroke="#000000" stroke-width="0.12005427479743958" stroke-linecap="round" d="M 13.331 5.117 C 13.331 5.117 13.8412 5.117 13.8412 5.117 "/>
  </g>
  <g id="ID0.2824689648114145">
    <path id="ID0.8757698251865804" fill="#995900" stroke="#995900" stroke-width="0.12005427479743958" d="M 10.9508 10.0988 L 11.9413 10.0988 L 11.9413 5.5668 L 10.9508 5.5668 L 10.9508 10.0988 Z "/>
    <path id="ID0.6422801343724132" fill="none" stroke="#000000" stroke-width="0.12005427479743958" stroke-linecap="round" d="M 11.1909 9.7087 C 11.1909 9.7087 11.3322 9.6946 11.401 9.6787 C 11.4626 9.6644 11.5191 9.6311 11.5811 9.6186 C 11.6203 9.6108 11.7012 9.6186 11.7012 9.6186 "/>
    <path id="ID0.7584992088377476" fill="none" stroke="#000000" stroke-width="0.12005427479743958" stroke-linecap="round" d="M 11.2209 9.0784 C 11.2209 9.0784 11.3989 9.0184 11.4911 9.0184 C 11.5449 9.0184 11.6411 9.0784 11.6411 9.0784 "/>
    <path id="ID0.40438934741541743" fill="none" stroke="#000000" stroke-width="0.12005427479743958" stroke-linecap="round" d="M 11.281 7.9079 C 11.3709 7.9678 11.4636 8.0244 11.5511 8.0879 C 11.574 8.1046 11.6111 8.148 11.6111 8.148 "/>
    <path id="ID0.7633831659331918" fill="none" stroke="#000000" stroke-width="0.12005427479743958" stroke-linecap="round" d="M 11.0709 7.5477 C 11.0709 7.5477 11.2708 7.5248 11.371 7.5177 C 11.4109 7.5149 11.4511 7.5177 11.4911 7.5177 C 11.5411 7.5177 11.5911 7.5177 11.6411 7.5177 C 11.6536 7.5177 11.6411 7.5177 11.6411 7.5177 "/>
    <path id="ID0.8195131137035787" fill="none" stroke="#000000" stroke-width="0.12005427479743958" stroke-linecap="round" d="M 11.2509 6.7974 C 11.2509 6.7974 11.331 6.7373 11.371 6.7073 C 11.411 6.6774 11.4501 6.6459 11.4911 6.6173 C 11.5501 6.5759 11.6112 6.5372 11.6711 6.4972 C 11.6861 6.4873 11.6711 6.4972 11.6711 6.4972 "/>
    <path id="ID0.923992021009326" fill="none" stroke="#000000" stroke-width="0.12005427479743958" stroke-linecap="round" d="M 11.281 6.017 C 11.281 6.017 11.7912 6.017 11.7912 6.017 "/>
  </g>
  <g id="ID0.2824689648114145">
    <path id="ID0.8757698251865804" fill="#995900" stroke="#995900" stroke-width="0.12005427479743958" d="M 9.0008 10.2988 L 9.9913 10.2988 L 9.9913 5.7668 L 9.0008 5.7668 L 9.0008 10.2988 Z "/>
    <path id="ID0.6422801343724132" fill="none" stroke="#000000" stroke-width="0.12005427479743958" stroke-linecap="round" d="M 9.2409 9.9087 C 9.2409 9.9087 9.3822 9.8946 9.451 9.8787 C 9.5126 9.8644 9.5691 9.8311 9.6311 9.8186 C 9.6703 9.8108 9.7512 9.8186 9.7512 9.8186 "/>
    <path id="ID0.7584992088377476" fill="none" stroke="#000000" stroke-width="0.12005427479743958" stroke-linecap="round" d="M 9.2709 9.2784 C 9.2709 9.2784 9.4489 9.2184 9.5411 9.2184 C 9.5949 9.2184 9.6911 9.2784 9.6911 9.2784 "/>
    <path id="ID0.40438934741541743" fill="none" stroke="#000000" stroke-width="0.12005427479743958" stroke-linecap="round" d="M 9.331 8.1079 C 9.4209 8.1678 9.5136 8.2244 9.6011 8.2879 C 9.624 8.3046 9.6611 8.348 9.6611 8.348 "/>
    <path id="ID0.7633831659331918" fill="none" stroke="#000000" stroke-width="0.12005427479743958" stroke-linecap="round" d="M 9.1209 7.7477 C 9.1209 7.7477 9.3208 7.7248 9.421 7.7177 C 9.4609 7.7149 9.5011 7.7177 9.5411 7.7177 C 9.5911 7.7177 9.6411 7.7177 9.6911 7.7177 C 9.7036 7.7177 9.6911 7.7177 9.6911 7.7177 "/>
    <path id="ID0.8195131137035787" fill="none" stroke="#000000" stroke-width="0.12005427479743958" stroke-linecap="round" d="M 9.3009 6.9974 C 9.3009 6.9974 9.381 6.9373 9.421 6.9073 C 9.461 6.8774 9.5001 6.8459 9.5411 6.8173 C 9.6001 6.7759 9.6612 6.7372 9.7211 6.6972 C 9.7361 6.6873 9.7211 6.6972 9.7211 6.6972 "/>
    <path id="ID0.923992021009326" fill="none" stroke="#000000" stroke-width="0.12005427479743958" stroke-linecap="round" d="M 9.331 6.217 C 9.331 6.217 9.8412 6.217 9.8412 6.217 "/>
  </g>
  <g id="ID0.2824689648114145">
    <path id="ID0.8757698251865804" fill="#995900" stroke="#995900" stroke-width="0.12005427479743958" d="M 8.0508 10.0488 L 9.0413 10.0488 L 9.0413 5.5168 L 8.0508 5.5168 L 8.0508 10.0488 Z "/>
    <path id="ID0.6422801343724132" fill="none" stroke="#000000" stroke-width="0.12005427479743958" stroke-linecap="round" d="M 8.2909 9.6587 C 8.2909 9.6587 8.4322 9.6446 8.501 9.6287 C 8.5626 9.6144 8.6191 9.5811 8.6811 9.5686 C 8.7203 9.5608 8.8012 9.5686 8.8012 9.5686 "/>
    <path id="ID0.7584992088377476" fill="none" stroke="#000000" stroke-width="0.12005427479743958" stroke-linecap="round" d="M 8.3209 9.0284 C 8.3209 9.0284 8.4989 8.9684 8.5911 8.9684 C 8.6449 8.9684 8.7411 9.0284 8.7411 9.0284 "/>
    <path id="ID0.40438934741541743" fill="none" stroke="#000000" stroke-width="0.12005427479743958" stroke-linecap="round" d="M 8.381 7.8579 C 8.4709 7.9178 8.5636 7.9744 8.6511 8.0379 C 8.674 8.0546 8.7111 8.098 8.7111 8.098 "/>
    <path id="ID0.7633831659331918" fill="none" stroke="#000000" stroke-width="0.12005427479743958" stroke-linecap="round" d="M 8.1709 7.4977 C 8.1709 7.4977 8.3708 7.4748 8.471 7.4677 C 8.5109 7.4649 8.5511 7.4677 8.5911 7.4677 C 8.6411 7.4677 8.6911 7.4677 8.7411 7.4677 C 8.7536 7.4677 8.7411 7.4677 8.7411 7.4677 "/>
    <path id="ID0.8195131137035787" fill="none" stroke="#000000" stroke-width="0.12005427479743958" stroke-linecap="round" d="M 8.3509 6.7474 C 8.3509 6.7474 8.431 6.6873 8.471 6.6573 C 8.511 6.6274 8.5501 6.5959 8.5911 6.5673 C 8.6501 6.5259 8.7112 6.4872 8.7711 6.4472 C 8.7861 6.4373 8.7711 6.4472 8.7711 6.4472 "/>
    <path id="ID0.923992021009326" fill="none" stroke="#000000" stroke-width="0.12005427479743958" stroke-linecap="round" d="M 8.381 5.967 C 8.381 5.967 8.8912 5.967 8.8912 5.967 "/>
  </g>
  <g id="ID0.2824689648114145">
    <path id="ID0.8757698251865804" fill="#995900" stroke="#995900" stroke-width="0.12005427479743958" d="M 7.0508 9.5488 L 8.0413 9.5488 L 8.0413 5.0168 L 7.0508 5.0168 L 7.0508 9.5488 Z "/>
    <path id="ID0.6422801343724132" fill="none" stroke="#000000" stroke-width="0.12005427479743958" stroke-linecap="round" d="M 7.2909 9.1587 C 7.2909 9.1587 7.4322 9.1446 7.501 9.1287 C 7.5626 9.1144 7.6191 9.0811 7.6811 9.0686 C 7.7203 9.0608 7.8012 9.0686 7.8012 9.0686 "/>
    <path id="ID0.7584992088377476" fill="none" stroke="#000000" stroke-width="0.12005427479743958" stroke-linecap="round" d="M 7.3209 8.5284 C 7.3209 8.5284 7.4989 8.4684 7.5911 8.4684 C 7.6449 8.4684 7.7411 8.5284 7.7411 8.5284 "/>
    <path id="ID0.40438934741541743" fill="none" stroke="#000000" stroke-width="0.12005427479743958" stroke-linecap="round" d="M 7.381 7.3579 C 7.4709 7.4178 7.5636 7.4744 7.6511 7.5379 C 7.674 7.5546 7.7111 7.598 7.7111 7.598 "/>
    <path id="ID0.7633831659331918" fill="none" stroke="#000000" stroke-width="0.12005427479743958" stroke-linecap="round" d="M 7.1709 6.9977 C 7.1709 6.9977 7.3708 6.9748 7.471 6.9677 C 7.5109 6.9649 7.5511 6.9677 7.5911 6.9677 C 7.6411 6.9677 7.6911 6.9677 7.7411 6.9677 C 7.7536 6.9677 7.7411 6.9677 7.7411 6.9677 "/>
    <path id="ID0.8195131137035787" fill="none" stroke="#000000" stroke-width="0.12005427479743958" stroke-linecap="round" d="M 7.3509 6.2474 C 7.3509 6.2474 7.431 6.1873 7.471 6.1573 C 7.511 6.1274 7.5501 6.0959 7.5911 6.0673 C 7.6501 6.0259 7.7112 5.9872 7.7711 5.9472 C 7.7861 5.9373 7.7711 5.9472 7.7711 5.9472 "/>
    <path id="ID0.923992021009326" fill="none" stroke="#000000" stroke-width="0.12005427479743958" stroke-linecap="round" d="M 7.381 5.467 C 7.381 5.467 7.8912 5.467 7.8912 5.467 "/>
  </g>
  <g id="ID0.2824689648114145">
    <path id="ID0.8757698251865804" fill="#995900" stroke="#995900" stroke-width="0.12005427479743958" d="M 10.0008 10.2988 L 10.9913 10.2988 L 10.9913 5.7668 L 10.0008 5.7668 L 10.0008 10.2988 Z "/>
    <path id="ID0.6422801343724132" fill="none" stroke="#000000" stroke-width="0.12005427479743958" stroke-linecap="round" d="M 10.2409 9.9087 C 10.2409 9.9087 10.3822 9.8946 10.451 9.8787 C 10.5126 9.8644 10.5691 9.8311 10.6311 9.8186 C 10.6703 9.8108 10.7512 9.8186 10.7512 9.8186 "/>
    <path id="ID0.7584992088377476" fill="none" stroke="#000000" stroke-width="0.12005427479743958" stroke-linecap="round" d="M 10.2709 9.2784 C 10.2709 9.2784 10.4489 9.2184 10.5411 9.2184 C 10.5949 9.2184 10.6911 9.2784 10.6911 9.2784 "/>
    <path id="ID0.40438934741541743" fill="none" stroke="#000000" stroke-width="0.12005427479743958" stroke-linecap="round" d="M 10.331 8.1079 C 10.4209 8.1678 10.5136 8.2244 10.6011 8.2879 C 10.624 8.3046 10.6611 8.348 10.6611 8.348 "/>
    <path id="ID0.7633831659331918" fill="none" stroke="#000000" stroke-width="0.12005427479743958" stroke-linecap="round" d="M 10.1209 7.7477 C 10.1209 7.7477 10.3208 7.7248 10.421 7.7177 C 10.4609 7.7149 10.5011 7.7177 10.5411 7.7177 C 10.5911 7.7177 10.6411 7.7177 10.6911 7.7177 C 10.7036 7.7177 10.6911 7.7177 10.6911 7.7177 "/>
    <path id="ID0.8195131137035787" fill="none" stroke="#000000" stroke-width="0.12005427479743958" stroke-linecap="round" d="M 10.3009 6.9974 C 10.3009 6.9974 10.381 6.9373 10.421 6.9073 C 10.461 6.8774 10.5001 6.8459 10.5411 6.8173 C 10.6001 6.7759 10.6612 6.7372 10.7211 6.6972 C 10.7361 6.6873 10.7211 6.6972 10.7211 6.6972 "/>
    <path id="ID0.923992021009326" fill="none" stroke="#000000" stroke-width="0.12005427479743958" stroke-linecap="round" d="M 10.331 6.217 C 10.331 6.217 10.8412 6.217 10.8412 6.217 "/>
  </g>
  <g id="ID0.2824689648114145">
    <path id="ID0.8757698251865804" fill="#995900" stroke="#995900" stroke-width="0.12005427479743958" d="M 10.8508 7.9488 L 11.8413 7.9488 L 11.8413 3.4168 L 10.8508 3.4168 L 10.8508 7.9488 Z "/>
    <path id="ID0.6422801343724132" fill="none" stroke="#000000" stroke-width="0.12005427479743958" stroke-linecap="round" d="M 11.0909 7.5587 C 11.0909 7.5587 11.2322 7.5446 11.301 7.5287 C 11.3626 7.5144 11.4191 7.4811 11.4811 7.4686 C 11.5203 7.4608 11.6012 7.4686 11.6012 7.4686 "/>
    <path id="ID0.7584992088377476" fill="none" stroke="#000000" stroke-width="0.12005427479743958" stroke-linecap="round" d="M 11.1209 6.9284 C 11.1209 6.9284 11.2989 6.8684 11.3911 6.8684 C 11.4449 6.8684 11.5411 6.9284 11.5411 6.9284 "/>
    <path id="ID0.40438934741541743" fill="none" stroke="#000000" stroke-width="0.12005427479743958" stroke-linecap="round" d="M 11.181 5.7579 C 11.2709 5.8178 11.3636 5.8744 11.4511 5.9379 C 11.474 5.9546 11.5111 5.998 11.5111 5.998 "/>
    <path id="ID0.7633831659331918" fill="none" stroke="#000000" stroke-width="0.12005427479743958" stroke-linecap="round" d="M 10.9709 5.3977 C 10.9709 5.3977 11.1708 5.3748 11.271 5.3677 C 11.3109 5.3649 11.3511 5.3677 11.3911 5.3677 C 11.4411 5.3677 11.4911 5.3677 11.5411 5.3677 C 11.5536 5.3677 11.5411 5.3677 11.5411 5.3677 "/>
    <path id="ID0.8195131137035787" fill="none" stroke="#000000" stroke-width="0.12005427479743958" stroke-linecap="round" d="M 11.1509 4.6474 C 11.1509 4.6474 11.231 4.5873 11.271 4.5573 C 11.311 4.5274 11.3501 4.4959 11.3911 4.4673 C 11.4501 4.4259 11.5112 4.3872 11.5711 4.3472 C 11.5861 4.3373 11.5711 4.3472 11.5711 4.3472 "/>
    <path id="ID0.923992021009326" fill="none" stroke="#000000" stroke-width="0.12005427479743958" stroke-linecap="round" d="M 11.181 3.867 C 11.181 3.867 11.6912 3.867 11.6912 3.867 "/>
  </g>
  <g id="ID0.2824689648114145">
    <path id="ID0.8757698251865804" fill="#995900" stroke="#995900" stroke-width="0.12005427479743958" d="M 8.9008 8.1988 L 9.8913 8.1988 L 9.8913 3.6668 L 8.9008 3.6668 L 8.9008 8.1988 Z "/>
    <path id="ID0.6422801343724132" fill="none" stroke="#000000" stroke-width="0.12005427479743958" stroke-linecap="round" d="M 9.1409 7.8087 C 9.1409 7.8087 9.2822 7.7946 9.351 7.7787 C 9.4126 7.7644 9.4691 7.7311 9.5311 7.7186 C 9.5703 7.7108 9.6512 7.7186 9.6512 7.7186 "/>
    <path id="ID0.7584992088377476" fill="none" stroke="#000000" stroke-width="0.12005427479743958" stroke-linecap="round" d="M 9.1709 7.1784 C 9.1709 7.1784 9.3489 7.1184 9.4411 7.1184 C 9.4949 7.1184 9.5911 7.1784 9.5911 7.1784 "/>
    <path id="ID0.40438934741541743" fill="none" stroke="#000000" stroke-width="0.12005427479743958" stroke-linecap="round" d="M 9.231 6.0079 C 9.3209 6.0678 9.4136 6.1244 9.5011 6.1879 C 9.524 6.2046 9.5611 6.248 9.5611 6.248 "/>
    <path id="ID0.7633831659331918" fill="none" stroke="#000000" stroke-width="0.12005427479743958" stroke-linecap="round" d="M 9.0209 5.6477 C 9.0209 5.6477 9.2208 5.6248 9.321 5.6177 C 9.3609 5.6149 9.4011 5.6177 9.4411 5.6177 C 9.4911 5.6177 9.5411 5.6177 9.5911 5.6177 C 9.6036 5.6177 9.5911 5.6177 9.5911 5.6177 "/>
    <path id="ID0.8195131137035787" fill="none" stroke="#000000" stroke-width="0.12005427479743958" stroke-linecap="round" d="M 9.2009 4.8974 C 9.2009 4.8974 9.281 4.8373 9.321 4.8073 C 9.361 4.7774 9.4001 4.7459 9.4411 4.7173 C 9.5001 4.6759 9.5612 4.6372 9.6211 4.5972 C 9.6361 4.5873 9.6211 4.5972 9.6211 4.5972 "/>
    <path id="ID0.923992021009326" fill="none" stroke="#000000" stroke-width="0.12005427479743958" stroke-linecap="round" d="M 9.231 4.117 C 9.231 4.117 9.7412 4.117 9.7412 4.117 "/>
  </g>
  <g id="ID0.2824689648114145">
    <path id="ID0.8757698251865804" fill="#995900" stroke="#995900" stroke-width="0.12005427479743958" d="M 7.9508 7.9488 L 8.9413 7.9488 L 8.9413 3.4168 L 7.9508 3.4168 L 7.9508 7.9488 Z "/>
    <path id="ID0.6422801343724132" fill="none" stroke="#000000" stroke-width="0.12005427479743958" stroke-linecap="round" d="M 8.1909 7.5587 C 8.1909 7.5587 8.3322 7.5446 8.401 7.5287 C 8.4626 7.5144 8.5191 7.4811 8.5811 7.4686 C 8.6203 7.4608 8.7012 7.4686 8.7012 7.4686 "/>
    <path id="ID0.7584992088377476" fill="none" stroke="#000000" stroke-width="0.12005427479743958" stroke-linecap="round" d="M 8.2209 6.9284 C 8.2209 6.9284 8.3989 6.8684 8.4911 6.8684 C 8.5449 6.8684 8.6411 6.9284 8.6411 6.9284 "/>
    <path id="ID0.40438934741541743" fill="none" stroke="#000000" stroke-width="0.12005427479743958" stroke-linecap="round" d="M 8.281 5.7579 C 8.3709 5.8178 8.4636 5.8744 8.5511 5.9379 C 8.574 5.9546 8.6111 5.998 8.6111 5.998 "/>
    <path id="ID0.7633831659331918" fill="none" stroke="#000000" stroke-width="0.12005427479743958" stroke-linecap="round" d="M 8.0709 5.3977 C 8.0709 5.3977 8.2708 5.3748 8.371 5.3677 C 8.4109 5.3649 8.4511 5.3677 8.4911 5.3677 C 8.5411 5.3677 8.5911 5.3677 8.6411 5.3677 C 8.6536 5.3677 8.6411 5.3677 8.6411 5.3677 "/>
    <path id="ID0.8195131137035787" fill="none" stroke="#000000" stroke-width="0.12005427479743958" stroke-linecap="round" d="M 8.2509 4.6474 C 8.2509 4.6474 8.331 4.5873 8.371 4.5573 C 8.411 4.5274 8.4501 4.4959 8.4911 4.4673 C 8.5501 4.4259 8.6112 4.3872 8.6711 4.3472 C 8.6861 4.3373 8.6711 4.3472 8.6711 4.3472 "/>
    <path id="ID0.923992021009326" fill="none" stroke="#000000" stroke-width="0.12005427479743958" stroke-linecap="round" d="M 8.281 3.867 C 8.281 3.867 8.7912 3.867 8.7912 3.867 "/>
  </g>
  <g id="ID0.2824689648114145">
    <path id="ID0.8757698251865804" fill="#995900" stroke="#995900" stroke-width="0.12005427479743958" d="M 9.9508 8.1488 L 10.9413 8.1488 L 10.9413 3.6168 L 9.9508 3.6168 L 9.9508 8.1488 Z "/>
    <path id="ID0.6422801343724132" fill="none" stroke="#000000" stroke-width="0.12005427479743958" stroke-linecap="round" d="M 10.1909 7.7587 C 10.1909 7.7587 10.3322 7.7446 10.401 7.7287 C 10.4626 7.7144 10.5191 7.6811 10.5811 7.6686 C 10.6203 7.6608 10.7012 7.6686 10.7012 7.6686 "/>
    <path id="ID0.7584992088377476" fill="none" stroke="#000000" stroke-width="0.12005427479743958" stroke-linecap="round" d="M 10.2209 7.1284 C 10.2209 7.1284 10.3989 7.0684 10.4911 7.0684 C 10.5449 7.0684 10.6411 7.1284 10.6411 7.1284 "/>
    <path id="ID0.40438934741541743" fill="none" stroke="#000000" stroke-width="0.12005427479743958" stroke-linecap="round" d="M 10.281 5.9579 C 10.3709 6.0178 10.4636 6.0744 10.5511 6.1379 C 10.574 6.1546 10.6111 6.198 10.6111 6.198 "/>
    <path id="ID0.7633831659331918" fill="none" stroke="#000000" stroke-width="0.12005427479743958" stroke-linecap="round" d="M 10.0709 5.5977 C 10.0709 5.5977 10.2708 5.5748 10.371 5.5677 C 10.4109 5.5649 10.4511 5.5677 10.4911 5.5677 C 10.5411 5.5677 10.5911 5.5677 10.6411 5.5677 C 10.6536 5.5677 10.6411 5.5677 10.6411 5.5677 "/>
    <path id="ID0.8195131137035787" fill="none" stroke="#000000" stroke-width="0.12005427479743958" stroke-linecap="round" d="M 10.2509 4.8474 C 10.2509 4.8474 10.331 4.7873 10.371 4.7573 C 10.411 4.7274 10.4501 4.6959 10.4911 4.6673 C 10.5501 4.6259 10.6112 4.5872 10.6711 4.5472 C 10.6861 4.5373 10.6711 4.5472 10.6711 4.5472 "/>
    <path id="ID0.923992021009326" fill="none" stroke="#000000" stroke-width="0.12005427479743958" stroke-linecap="round" d="M 10.281 4.067 C 10.281 4.067 10.7912 4.067 10.7912 4.067 "/>
  </g>
</svg>