<svg version="1.1" xmlns="http://www.w3.org/2000/svg" xmlns:xlink="http://www.w3.org/1999/xlink" width="120" height="101.81839" viewBox="0,0,120,101.81839"><defs><linearGradient x1="179.53966" y1="176.93071" x2="299.53916" y2="176.93071" gradientUnits="userSpaceOnUse" id="color-1"><stop offset="0" stop-color="#29e026"/><stop offset="1" stop-color="#128a11"/></linearGradient><linearGradient x1="185.15089" y1="176.93071" x2="296.14409" y2="176.93071" gradientUnits="userSpaceOnUse" id="color-2"><stop offset="0" stop-color="#04ff00"/><stop offset="1" stop-color="#3e753d"/></linearGradient></defs><g transform="translate(-179.53956,-101.25562)"><g data-paper-data="{&quot;isPaintingLayer&quot;:true}" fill-rule="nonzero" stroke="none" stroke-width="1" stroke-linecap="butt" stroke-linejoin="miter" stroke-miterlimit="10" stroke-dasharray="" stroke-dashoffset="0" style="mix-blend-mode: normal"><path d="M299.53956,176.93001c0,14.416 -11.729,26.144 -26.144,26.144h-67.713c-14.415,0 -26.143,-11.727 -26.143,-26.144c0,-14.415 11.727,-26.143 26.143,-26.143h67.713c14.415,0 26.144,11.728 26.144,26.143z" fill="url(#color-1)"/><path d="M296.14439,176.93001c0,11.952 -9.688,21.641 -21.64,21.641h-67.713c-11.952,0 -21.641,-9.689 -21.641,-21.641v0c0,-11.951 9.689,-21.64 21.641,-21.64h67.713c11.952,0 21.64,9.689 21.64,21.64z" fill="url(#color-2)"/><text transform="translate(194.26697,183.32476) scale(0.5,0.5)" font-size="40" xml:space="preserve" fill="#e0e0e0" fill-rule="nonzero" stroke="none" stroke-width="1" stroke-linecap="butt" stroke-linejoin="miter" stroke-miterlimit="10" stroke-dasharray="" stroke-dashoffset="0" font-family="Sans Serif" font-weight="normal" text-anchor="start" style="mix-blend-mode: normal"><tspan x="0" dy="0">Summary</tspan></text><text transform="translate(259.3183,122.70875) scale(0.5,0.5)" font-size="40" xml:space="preserve" fill="#e0e0e0" fill-rule="nonzero" stroke="none" stroke-width="1" stroke-linecap="butt" stroke-linejoin="miter" stroke-miterlimit="10" stroke-dasharray="" stroke-dashoffset="0" font-family="Sans Serif" font-weight="normal" text-anchor="start" style="mix-blend-mode: normal"><tspan x="0" dy="0"> </tspan></text></g></g></svg>