<svg xmlns="http://www.w3.org/2000/svg" xmlns:xlink="http://www.w3.org/1999/xlink" version="1.1" width="71.32797920703888" height="35.535842061042786" viewBox="0.271259605884552 -0.08004039525985718 71.32797920703888 35.535842061042786">
  <defs>
    <radialGradient id="grad_1" cx="0.3774" cy="0.428" r="0.80938">
      <stop offset="0" stop-color="#E5E5E5" stop-opacity="1"/>
      <stop offset="1" stop-color="#B2B2B2" stop-opacity="1"/>
    </radialGradient>
    <radialGradient id="grad_2" cx="0.0837" cy="0.2682" r="1.19119">
      <stop offset="0" stop-color="#FFFFFF" stop-opacity="1"/>
      <stop offset="1" stop-color="#666666" stop-opacity="1"/>
    </radialGradient>
  <radialGradient id="grad_1-.275246798992157,0,0,0.275246798992157,-40.80000000000001,-17.30000000000001" cx="10.4043" cy="17.8157" r="11.2538" gradientUnits="userSpaceOnUse">
      <stop offset="0" stop-color="#E5E5E5" stop-opacity="1"/>
      <stop offset="1" stop-color="#B2B2B2" stop-opacity="1"/>
    </radialGradient></defs>
  <!-- Exported by Scratch - http://scratch.mit.edu/ -->
  <g id="ID0.7430986659601331">
    <path id="ID0.3515064688399434" fill="#FFFFFF" stroke="#000000" stroke-width="1.0204782813492963" d="M 1.097 0.7457 L 70.7735 0.7457 L 70.7735 34.2066 L 1.097 34.2066 L 1.097 0.7457 Z "/>
    <path id="ID0.25286548025906086" fill="url(#grad_1-.275246798992157,0,0,0.275246798992157,-40.80000000000001,-17.30000000000001)" stroke="url(#grad_2)" stroke-width="1.651480793952942" d="M 12.1506 12.0138 C 14.1156 12.0138 15.8959 12.7732 17.1854 14.0002 C 18.4747 15.2273 19.2726 16.9217 19.2726 18.7917 C 19.2726 20.6618 18.4747 22.3562 17.1854 23.5832 C 15.8959 24.8103 14.1156 25.5697 12.1506 25.5697 C 10.1856 25.5697 8.4053 24.8103 7.1158 23.5832 C 5.8265 22.3562 5.0286 20.6618 5.0286 18.7917 C 5.0286 16.9217 5.8265 15.2273 7.1158 14.0002 C 8.4053 12.7732 10.1856 12.0138 12.1506 12.0138 Z "/>
    <text id="ID0.9115317738614976" fill="#000000" text-anchor="start" font-family="Sans Serif" font-size="22" transform="matrix(0.612951 0 0 0.612951 22.3759 0.161147)" stroke-width="1" alignment-baseline="text-before-edge" xml:space="preserve"><tspan x="0" style="white-space: pre" dy="1.13em">First</tspan><tspan x="0" style="white-space: pre" dy="1.13em">Person</tspan></text>
  </g>
</svg>