<svg version="1.1" xmlns="http://www.w3.org/2000/svg" xmlns:xlink="http://www.w3.org/1999/xlink" width="158" height="141"><g transform="translate(-162,-109)"><g data-paper-data="{&quot;isPaintingLayer&quot;:true}" fill="none" fill-rule="nonzero" stroke="#000000" stroke-width="2" stroke-linecap="none" stroke-linejoin="miter" stroke-miterlimit="10" stroke-dasharray="" stroke-dashoffset="0" font-family="none" font-weight="none" font-size="none" text-anchor="none" style="mix-blend-mode: normal"><path d="M204,180.5c0,-20.15839 16.34161,-36.5 36.5,-36.5c20.15839,0 36.5,16.34161 36.5,36.5c0,20.15839 -16.34161,36.5 -36.5,36.5c-20.15839,0 -36.5,-16.34161 -36.5,-36.5z" stroke-linecap="butt"/><path d="M182,179.5c0,-31.75637 25.74363,-57.5 57.5,-57.5c31.75637,0 57.5,25.74363 57.5,57.5c0,31.75637 -25.74363,57.5 -57.5,57.5c-31.75637,0 -57.5,-25.74363 -57.5,-57.5z" stroke-linecap="butt"/><path d="M240,110v49" stroke-linecap="round"/><path d="M238,204v45" stroke-linecap="round"/><path d="M270,180l49,-1" stroke-linecap="round"/><path d="M213,179h-50" stroke-linecap="round"/></g></g></svg>