<svg xmlns="http://www.w3.org/2000/svg" xmlns:xlink="http://www.w3.org/1999/xlink" version="1.1" width="481.95091063301356" height="303.10090452949794" viewBox="-0.7229492094148824 -0.4893492188085744 481.95091063301356 303.10090452949794">
  <defs>
    <radialGradient id="grad_1" cx="0.4985" cy="0.3256" r="0.8767199999999999">
      <stop offset="0" stop-color="#FFFFFF" stop-opacity="1"/>
      <stop offset="1" stop-color="#FFFFFF" stop-opacity="0"/>
    </radialGradient>
    <radialGradient id="grad_2" cx="0.4874" cy="0.5245000000000001" r="0.6818500000000001">
      <stop offset="0" stop-color="#FFFFFF" stop-opacity="1"/>
      <stop offset="1" stop-color="#FFFFFF" stop-opacity="0"/>
    </radialGradient>
    <radialGradient id="grad_3" cx="0.4902" cy="0.9947" r="1.29311">
      <stop offset="0" stop-color="#FFFFFF" stop-opacity="1"/>
      <stop offset="1" stop-color="#FFFFFF" stop-opacity="0"/>
    </radialGradient>
  <radialGradient id="grad_1-.180688738822937,0,0,1.4545893669128418,-46.95,-66.4" cx="239.5326" cy="98.5493" r="374.6299" gradientUnits="userSpaceOnUse">
      <stop offset="0" stop-color="#FFFFFF" stop-opacity="1"/>
      <stop offset="1" stop-color="#FFFFFF" stop-opacity="0"/>
    </radialGradient><radialGradient id="grad_2-.9629921317100525,0,0,1.0365536212921143,7.3,16.5" cx="237.8161" cy="201.9319" r="128.928" gradientUnits="userSpaceOnUse">
      <stop offset="0" stop-color="#FFFFFF" stop-opacity="1"/>
      <stop offset="1" stop-color="#FFFFFF" stop-opacity="0"/>
    </radialGradient></defs>
  <!-- Exported by Scratch - http://scratch.mit.edu/ -->
  <path id="ID0.8883960330858827" fill="url(#grad_1-.180688738822937,0,0,1.4545893669128418,-46.95,-66.4)" stroke="none" d="M 0.2775 0.5111 L 480.2275 0.5111 L 480.2275 301.6111 L 0.2775 301.6111 L 0.2775 0.5111 Z " stroke-width="1.3247369784827476"/>
  <path id="ID0.9176602242514491" fill="url(#grad_2-.9629921317100525,0,0,1.0365536212921143,7.3,16.5)" stroke="url(#grad_3)" stroke-width="2.000898425982322" d="M 240.1033 98.906 C 265.144 98.906 287.8341 109.9111 304.2646 127.6901 C 320.6952 145.4701 330.8654 170.0229 330.8654 197.1195 C 330.8654 224.216 320.6952 248.7689 304.2646 266.5489 C 287.8341 284.3278 265.144 295.3329 240.1033 295.3329 C 215.0627 295.3329 192.3726 284.3278 175.9421 266.5489 C 159.5115 248.7689 149.3413 224.216 149.3413 197.1195 C 149.3413 170.0229 159.5115 145.4701 175.9421 127.6901 C 192.3726 109.9111 215.0627 98.906 240.1033 98.906 Z "/>
  <path id="ID0.48670328641310334" fill="#FFFFFF" stroke="#FFFFFF" stroke-width="0.8508387818503146" d="M 238.4951 175.0147 C 243.0709 175.0147 247.2178 177.0122 250.2203 180.239 C 253.2228 183.4662 255.0814 187.9227 255.0814 192.8407 C 255.0814 197.7587 253.2228 202.2152 250.2203 205.4423 C 247.2178 208.6692 243.0709 210.6667 238.4951 210.6667 C 233.9193 210.6667 229.7724 208.6692 226.7699 205.4423 C 223.7674 202.2152 221.9087 197.7587 221.9087 192.8407 C 221.9087 187.9227 223.7674 183.4662 226.7699 180.239 C 229.7724 177.0122 233.9193 175.0147 238.4951 175.0147 Z "/>
</svg>