<svg version="1.1" xmlns="http://www.w3.org/2000/svg" xmlns:xlink="http://www.w3.org/1999/xlink" width="83" height="108.04192"><defs><linearGradient x1="197.375" y1="178.13281" x2="280.375" y2="178.13281" gradientUnits="userSpaceOnUse" id="color-1"><stop offset="0" stop-color="#ff7c7c"/><stop offset="1" stop-color="#d53d3d"/></linearGradient><radialGradient cx="238.875" cy="178.13281" r="33.9434" gradientUnits="userSpaceOnUse" id="color-2"><stop offset="0" stop-color="#d7df23"/><stop offset="1" stop-color="#ee4e4e"/></radialGradient></defs><g transform="translate(-197.375,-116.51108)"><g data-paper-data="{&quot;isPaintingLayer&quot;:true}" fill="none" fill-rule="nonzero" stroke="none" stroke-width="1" stroke-linecap="butt" stroke-linejoin="miter" stroke-miterlimit="10" stroke-dasharray="" stroke-dashoffset="0" font-family="none" font-weight="none" font-size="none" text-anchor="none" style="mix-blend-mode: normal"><path d="M280.375,178.13201c0,22.882 -18.616,41.5 -41.5,41.5c-22.883,0 -41.5,-18.618 -41.5,-41.5c0,-22.883 18.616,-41.5 41.5,-41.5c22.884,0 41.5,18.618 41.5,41.5z" data-paper-data="{&quot;origPos&quot;:null}" fill="url(#color-1)"/><path d="M204.931,178.13301c0,-18.74675 15.19725,-33.944 33.944,-33.944c18.74675,0 33.944,15.19725 33.944,33.944c0,18.74675 -15.19725,33.944 -33.944,33.944c-18.74675,0 -33.944,-15.19725 -33.944,-33.944z" data-paper-data="{&quot;origPos&quot;:null}" fill="url(#color-2)"/><text transform="translate(214.89245,200.43651) scale(3.86302,1.92932)" font-size="40" xml:space="preserve" data-paper-data="{&quot;origPos&quot;:null}" fill="#ffffff" fill-rule="nonzero" stroke="none" stroke-width="1" stroke-linecap="butt" stroke-linejoin="miter" stroke-miterlimit="10" stroke-dasharray="" stroke-dashoffset="0" font-family="Sans Serif" font-weight="normal" text-anchor="start" style="mix-blend-mode: normal"><tspan x="0" dy="0">-</tspan></text></g></g></svg>