<svg version="1.1" xmlns="http://www.w3.org/2000/svg" xmlns:xlink="http://www.w3.org/1999/xlink" width="21.65004" height="26.92"><g transform="translate(-229.77,-153.54)"><g data-paper-data="{&quot;isPaintingLayer&quot;:true}" fill="none" fill-rule="nonzero" stroke="none" stroke-width="1" stroke-linecap="butt" stroke-linejoin="miter" stroke-miterlimit="10" stroke-dasharray="" stroke-dashoffset="0" font-family="none" font-weight="none" font-size="none" text-anchor="none" style="mix-blend-mode: normal"><path d="M238.48,180.46c-5.29,0 -8.71,-3.57 -8.71,-9.09c0,-10.88 7.47,-14.83 12.48,-14.83c4.45,0 9.17,3.24 9.17,9.26c0.02,10.11 -7.56,14.66 -12.94,14.66z" data-paper-data="{&quot;origPos&quot;:null}" fill="#000000" opacity="0.35"/><path d="M238.37,172.64c-0.07,-0.05 -0.31,-0.45 -0.3,-1.41c0,-4.72 2.12,-6.87 4.09,-6.87c0.42,0 1.05,0 1.05,1.66c0,5.51 -3.72,6.63 -4.72,6.63c-0.07,0 -0.11,-0.01 -0.12,-0.01c0,0 -0.01,0 0,0z" data-paper-data="{&quot;origPos&quot;:null}" fill="#000000" opacity="0.35"/><path d="M229.77,168.37c0,-10.88 7.47,-14.83 12.48,-14.83c4.45,0 9.17,3.24 9.17,9.26c0.02,10.11 -7.56,14.66 -12.94,14.66c-5.29,0 -8.71,-3.57 -8.71,-9.09zM238.37,169.64c0.01,0 0.05,0.01 0.12,0.01c1,0 4.72,-1.12 4.72,-6.63c0,-1.66 -0.63,-1.66 -1.05,-1.66c-1.97,0 -4.09,2.15 -4.09,6.87c-0.01,0.96 0.23,1.36 0.3,1.41c-0.01,0 0,0 0,0z" data-paper-data="{&quot;origPos&quot;:null}" fill="#ffffff"/><path d="M238.48,174.96c-3.89,0 -6.21,-2.46 -6.21,-6.59c0,-9.04 5.97,-12.33 9.98,-12.33c2.68,0 6.67,1.8 6.67,6.76c0.02,9.19 -7.03,12.16 -10.44,12.16zM242.15,158.86c-3.17,0 -6.59,2.93 -6.59,9.37c0,2.45 1.09,3.91 2.92,3.91c2.36,0 7.22,-2.23 7.22,-9.13c0.01,-2.59 -1.32,-4.15 -3.55,-4.15z" data-paper-data="{&quot;origPos&quot;:null}" fill="#f7931e"/></g></g></svg>