<svg version="1.1" xmlns="http://www.w3.org/2000/svg" xmlns:xlink="http://www.w3.org/1999/xlink" width="19.13" height="26.86"><g transform="translate(-231.19,-153.55)"><g data-paper-data="{&quot;isPaintingLayer&quot;:true}" fill="none" fill-rule="nonzero" stroke="none" stroke-width="1" stroke-linecap="butt" stroke-linejoin="miter" stroke-miterlimit="10" stroke-dasharray="" stroke-dashoffset="0" font-family="none" font-weight="none" font-size="none" text-anchor="none" style="mix-blend-mode: normal"><path d="M235.13,180.41c-2.46,0 -3.94,-1.76 -3.94,-3.47c0,-2.17 1.01,-3.92 1.95,-5.4c0.94,-1.45 1.96,-2.55 2.96,-3.41c-0.17,0.02 -0.34,0.03 -0.51,0.03c-2.42,0 -4.32,-1.83 -4.32,-4.16c0,-1.28 0.65,-2.48 1.63,-3.17c1.93,-2.89 4.86,-4.29 8.96,-4.29c4.58,0 7.91,2.99 7.91,7.11c0,3.58 -1.66,5.72 -3.47,7.09c0.04,0 0.07,0 0.11,0c0.92,0 3.91,0.36 3.91,5.01c0,4.09 -3.16,4.29 -3.8,4.29h-9.34c-0.6,0.25 -1.29,0.37 -2.05,0.37z" data-paper-data="{&quot;origPos&quot;:null}" fill="#000000" opacity="0.35"/><path d="M239.91,164.69c0.25,-0.26 0.63,-0.42 1.52,-0.44c-0.21,0.47 -0.7,0.84 -1.15,1.11c-0.2,0.12 -0.42,0.25 -0.66,0.39c0.15,-0.34 0.26,-0.69 0.29,-1.06z" data-paper-data="{&quot;origPos&quot;:null}" fill="#000000" opacity="0.35"/><path d="M231.19,173.94c0,-2.17 1.01,-3.92 1.95,-5.4c0.94,-1.45 1.96,-2.55 2.96,-3.4c-0.17,0.02 -0.34,0.03 -0.51,0.03c-2.42,0 -4.32,-1.83 -4.32,-4.16c0,-1.28 0.65,-2.48 1.63,-3.17c1.93,-2.89 4.86,-4.29 8.96,-4.29c4.58,0 7.91,2.99 7.91,7.11c0,3.58 -1.66,5.72 -3.47,7.09c0.04,0 0.07,0 0.11,0c0.92,0 3.91,0.36 3.91,5.01c0,4.09 -3.16,4.29 -3.8,4.29h-9.34c-0.6,0.24 -1.29,0.36 -2.05,0.36c-2.46,0 -3.94,-1.76 -3.94,-3.47zM239.62,162.75c0.23,-0.14 0.45,-0.26 0.66,-0.39c0.46,-0.27 0.95,-0.64 1.16,-1.12c-0.9,0.03 -1.28,0.19 -1.53,0.45c-0.03,0.37 -0.14,0.72 -0.29,1.06z" data-paper-data="{&quot;origPos&quot;:null}" fill="#ffffff"/><path d="M235.13,174.91c-0.98,0 -1.44,-0.58 -1.44,-0.97c0,-1.5 0.77,-2.82 1.56,-4.05c1.78,-2.75 3.95,-4.01 5.53,-4.92c0.29,-0.17 0.56,-0.32 0.81,-0.48c1.58,-0.93 2.45,-2.25 2.45,-3.73c0,-1.28 -0.89,-2.01 -2.45,-2.01c-2.4,0 -3.39,0.85 -4.14,2.14c-0.04,0.08 -0.03,0.27 -0.03,0.37l0.01,0.17c0,0.49 -0.78,1.24 -1.82,1.24c-1.2,0 -1.82,-0.83 -1.82,-1.66c0,-0.53 0.39,-1.17 0.89,-1.28c1.46,-2.55 3.68,-3.68 7.19,-3.68c3.23,0 5.41,1.85 5.41,4.61c0,3.48 -2.07,5.05 -4.1,6.12c-2.16,1.18 -4.3,2.62 -5.47,5.07h7.06c0.04,-1.06 0.35,-1.6 1.65,-1.6c1.24,0 1.41,1.27 1.41,2.51c0,0.87 -0.1,1.79 -1.3,1.79h-9.93c-0.36,0.24 -0.85,0.36 -1.47,0.36z" data-paper-data="{&quot;origPos&quot;:null}" fill="#f7931e"/></g></g></svg>