<svg xmlns="http://www.w3.org/2000/svg" xmlns:xlink="http://www.w3.org/1999/xlink" version="1.1" width="47.79320069446853" height="47.974200450327906" viewBox="0.1404485290512859 0.060248512552720235 47.79320069446853 47.974200450327906">
  <defs>
    <linearGradient id="grad_1" x1="70.3867" y1="19.625" x2="70.3867" y2="122.9536" gradientUnits="userSpaceOnUse">
      <stop offset="0" stop-color="#6D6E71"/>
      <stop offset="1" stop-color="#414042"/>
    </linearGradient>
    <linearGradient id="grad_2" x1="70.3896" y1="22.2837" x2="70.3896" y2="120.2935" gradientUnits="userSpaceOnUse">
      <stop offset="0" stop-color="#58595B"/>
      <stop offset="1" stop-color="#000000"/>
    </linearGradient>
  <linearGradient id="grad_1-.31471557540747597,0,0,0.31471557540747597,1.7263351738452912,1.6077697306871421" x1="23.8781" y1="7.7841" x2="23.8781" y2="40.3032" gradientUnits="userSpaceOnUse">
      <stop offset="0" stop-color="#6D6E71"/>
      <stop offset="1" stop-color="#414042"/>
    </linearGradient><linearGradient id="grad_2-.31471557540747597,0,0,0.31471557540747597,1.7263351738452912,1.6077697306871421" x1="23.879" y1="8.6208" x2="23.879" y2="39.466" gradientUnits="userSpaceOnUse">
      <stop offset="0" stop-color="#58595B"/>
      <stop offset="1" stop-color="#000000"/>
    </linearGradient></defs>
  <!-- Exported by Scratch - http://scratch.mit.edu/ -->
  <path id="ID0.5308656329289079" fill="none" stroke="#000000" stroke-width="1.5835029710798623" d="M 24.0371 0.852 C 30.4116 0.852 36.1874 3.4515 40.3704 7.65 C 44.5525 11.8494 47.1419 17.6478 47.1419 24.0474 C 47.1419 30.4469 44.5525 36.2454 40.3704 40.4447 C 36.1874 44.6433 30.4116 47.2427 24.0371 47.2427 C 17.6625 47.2427 11.8867 44.6433 7.7037 40.4447 C 3.5216 36.2454 0.9322 30.4469 0.9322 24.0474 C 0.9322 17.6478 3.5216 11.8494 7.7037 7.65 C 11.8867 3.4515 17.6625 0.852 24.0371 0.852 Z "/>
  <g id="ID0.07204112224280834">
    <path id="ID0.5732424445450306" fill="url(#grad_1-.31471557540747597,0,0,0.31471557540747597,1.7263351738452912,1.6077697306871421)" d="M 42.3086 21.1154 L 30.2097 9.0168 C 29.4147 8.2218 28.3576 7.7841 27.2331 7.7841 C 26.1089 7.7841 25.0521 8.2218 24.2568 9.0168 C 23.4619 9.8118 23.0241 10.8689 23.0241 11.9931 C 23.0241 13.1172 23.4619 14.1744 24.2568 14.9693 C 26.6691 17.3816 28.2074 18.9231 29.162 19.8808 C 24.524 19.8824 13.1197 19.8868 8.426 19.8868 C 6.105 19.8868 4.217 21.7751 4.217 24.0961 C 4.217 25.2206 4.6548 26.2774 5.4497 27.0727 C 6.2447 27.8673 7.3018 28.3051 8.426 28.3051 C 13.97 28.3051 24.7088 28.3013 29.1714 28.2994 L 24.3544 33.1174 C 23.5591 33.9121 23.1213 34.9695 23.1213 36.0937 C 23.1213 37.2178 23.5594 38.2753 24.3541 39.0699 C 25.149 39.8646 26.2062 40.303 27.3303 40.303 C 28.4545 40.303 29.5116 39.8646 30.3066 39.0699 L 42.3086 27.0683 C 43.9495 25.4273 43.9495 22.7567 42.3086 21.1154 L 42.3086 21.1154 L 42.3086 21.1154 L 42.3086 21.1154 Z " stroke-width="0.31471557540747597"/>
    <g id="ID0.7705509844236076">
      <path id="ID0.6440448299981654" fill="url(#grad_2-.31471557540747597,0,0,0.31471557540747597,1.7263351738452912,1.6077697306871421)" d="M 31.1932 27.4617 C 31.1932 27.4617 15.537 27.4683 8.4263 27.4683 C 6.5638 27.4683 5.0541 25.9579 5.0541 24.0958 C 5.0541 22.2333 6.5638 20.7236 8.4263 20.7236 C 14.3877 20.7236 31.1746 20.7167 31.1746 20.7167 C 31.1746 20.7167 30.0479 19.5761 24.8488 14.3774 C 23.5317 13.0603 23.5317 10.9252 24.8488 9.6085 C 26.1659 8.2917 28.3009 8.2914 29.618 9.6085 C 33.8333 13.8238 41.7166 21.7074 41.7166 21.7074 C 43.0334 23.0245 43.0334 25.1598 41.7166 26.4763 C 41.7166 26.4763 34.914 33.2789 29.7149 38.478 C 28.3975 39.7954 26.2625 39.7954 24.9457 38.478 C 23.629 37.1612 23.629 35.0258 24.9457 33.7094 C 29.1614 29.4938 31.1932 27.4617 31.1932 27.4617 L 31.1932 27.4617 L 31.1932 27.4617 L 31.1932 27.4617 Z " stroke-width="0.31471557540747597"/>
    </g>
  </g>
</svg>