<svg xmlns="http://www.w3.org/2000/svg" xmlns:xlink="http://www.w3.org/1999/xlink" version="1.1" width="63.05597984790802" height="21.319281697273254" viewBox="-0.3859403729438782 0.1649596095085144 63.05597984790802 21.319281697273254">
  <defs>
    <radialGradient id="grad_1" cx="0.7306999999999999" cy="0.6334000000000001" r="0.94991">
      <stop offset="0" stop-color="#FFFFFF" stop-opacity="1"/>
      <stop offset="1" stop-color="#666666" stop-opacity="1"/>
    </radialGradient>
    <radialGradient id="grad_2" cx="0.0837" cy="0.2682" r="1.19119">
      <stop offset="0" stop-color="#FFFFFF" stop-opacity="1"/>
      <stop offset="1" stop-color="#666666" stop-opacity="1"/>
    </radialGradient>
  <radialGradient id="grad_1-.275246798992157,0,0,0.275246798992157,-41.55,-25.05" cx="14.6867" cy="12.8501" r="13.2078" gradientUnits="userSpaceOnUse">
      <stop offset="0" stop-color="#FFFFFF" stop-opacity="1"/>
      <stop offset="1" stop-color="#666666" stop-opacity="1"/>
    </radialGradient></defs>
  <!-- Exported by Scratch - http://scratch.mit.edu/ -->
  <path id="ID0.3515064688399434" fill="#FFFFFF" stroke="#000000" stroke-width="0.7439915734681651" d="M 0.4398 0.9907 L 61.8443 0.9907 L 61.8443 20.6585 L 0.4398 20.6585 L 0.4398 0.9907 Z "/>
  <text id="ID0.9115317738614976" fill="#000000" text-anchor="start" font-family="Sans Serif" font-size="22" transform="matrix(0.612951 0 0 0.612951 20.6259 0.0611466)" stroke-width="1" alignment-baseline="text-before-edge" xml:space="preserve"><tspan x="0" style="white-space: pre" dy="1.13em">Walls</tspan></text>
  <path id="ID0.25286548025906086" fill="url(#grad_1-.275246798992157,0,0,0.275246798992157,-41.55,-25.05)" stroke="url(#grad_2)" stroke-width="1.651480793952942" d="M 11.4006 4.2638 C 13.3656 4.2638 15.1459 5.0232 16.4354 6.2502 C 17.7247 7.4773 18.5226 9.1717 18.5226 11.0417 C 18.5226 12.9118 17.7247 14.6062 16.4354 15.8332 C 15.1459 17.0603 13.3656 17.8197 11.4006 17.8197 C 9.4356 17.8197 7.6553 17.0603 6.3658 15.8332 C 5.0765 14.6062 4.2786 12.9118 4.2786 11.0417 C 4.2786 9.1717 5.0765 7.4773 6.3658 6.2502 C 7.6553 5.0232 9.4356 4.2638 11.4006 4.2638 Z "/>
</svg>