<svg version="1.1" xmlns="http://www.w3.org/2000/svg" xmlns:xlink="http://www.w3.org/1999/xlink" width="65.56961" height="190.36541" viewBox="0,0,65.56961,190.36541"><g transform="translate(-188.00008,-81.95013)"><g data-paper-data="{&quot;isPaintingLayer&quot;:true}" fill="none" fill-rule="nonzero" stroke="none" stroke-width="0.95" stroke-linecap="butt" stroke-linejoin="miter" stroke-miterlimit="10" stroke-dasharray="" stroke-dashoffset="0" font-family="none" font-weight="none" font-size="none" text-anchor="none" style="mix-blend-mode: normal"><g data-paper-data="{&quot;index&quot;:null}" id="Face"><path d="M223.3495,117.0468c0.2878,-0.1663 0.5548,-0.666 0.892,-1.6236c0.228,-0.6488 0.5197,-0.55 0.4009,-1.2502c-0.1406,-0.8274 0.2242,-0.1691 -0.1406,-0.8274c-0.3154,-0.5672 -0.5681,-1.0593 -0.8312,-1.6454c-0.2983,-0.665 -0.5681,-1.3025 -0.5681,-2.0378c0,-0.4028 -0.4693,-0.5785 -0.5662,-0.9443c-0.0589,-0.2204 0.1425,-0.9918 0,-1.1495c-0.1596,-0.1729 -0.4123,0.0665 -0.6755,-0.0019c-0.2954,-0.076 -0.6536,-0.3201 -0.8949,-0.5415c-0.5339,-0.4873 -0.6327,-0.7552 -0.8977,-1.3632c-0.2043,-0.4608 -0.5586,-0.8626 -0.5567,-1.4231c0.0019,-0.3496 -0.0523,-0.8208 0.0095,-1.1619c0.0988,-0.532 0.6289,-1.7727 1.2236,-1.9674c0.9196,-0.305 0.8531,0.7904 0.9053,1.3338c0.0703,0.7258 0.4636,1.3195 0.5976,2.0083c0.1168,0.5937 0.6887,1.0697 0.5956,1.7356c0.2043,-0.2935 0.2746,-0.8597 0.3449,-1.2236c0.0798,-0.4075 0.2565,-0.7799 0.2964,-1.196c0.095,-0.9519 -0.4418,-1.7841 -0.3753,-2.7303c0.2575,0.4227 0.3696,1.0535 0.5339,1.5437c0.1463,0.4408 0.4209,1.0393 0.3933,1.5343c-0.0057,0.0133 -0.0019,-0.5767 0.02,-0.6337c0.2726,-0.6745 0.1577,-0.988 0.2916,-1.6796c0.0798,-0.4161 -0.0427,-0.6783 0.0038,-1.0953c0.0485,-0.4456 0.1501,-0.7106 0.0257,-1.1258c-0.1967,-0.6593 -0.0627,-1.4867 -0.0542,-2.1774c0.0019,-0.3382 0.0627,-0.9823 0.1245,-1.3138c0.0779,-0.419 0.3467,-0.9272 0.3657,-1.4022c0.3116,0.2688 0.4807,1.6359 0.7068,2.0301c0.3857,0.6593 1.0802,0.8579 1.7205,1.1666c0.5975,0.286 1.1115,0.5254 1.7537,0.7249c0.3695,0.114 0.74,0.2641 1.0982,0.4075c0.3762,0.152 0.8835,0.2005 1.2131,0.419c-0.5272,-0.571 -0.8721,-0.7686 -1.3708,-1.3576c-0.2651,-0.3163 -0.6327,-1.2844 -0.685,-1.7005c-0.0313,-0.2479 -0.0256,-0.4484 -0.0874,-0.6811c-0.0522,-0.2014 -0.1653,-0.3534 -0.1187,-0.5938c0.3192,0.0143 0.9281,0.8189 1.1447,1.0716c0.3487,0.4038 0.7847,0.8199 1.2502,1.1742c0.5273,0.4019 1.3063,0.5396 1.9095,0.7268c0.9073,0.2812 1.6739,0.607 2.6515,0.6526c1.1352,0.0513 2.032,0.0238 3.1768,0.0922c0.8996,0.0513 2.0444,0.3239 2.9317,0.5481c0.4322,0.1102 0.4693,0.1302 0.4674,0.608c0,0.4019 -0.0038,0.7942 -0.0447,1.1856c-0.0589,0.59 -0.1748,1.6369 0.1834,2.1299c0.475,-0.2888 1.1989,0.3677 1.4525,0.7638c0.3658,0.5691 0.1387,1.5305 0.0295,2.1033c-0.1245,0.6451 -0.3078,1.1961 -0.685,1.7727c-0.152,0.2356 -0.3078,0.6118 -0.5396,0.7686c-0.2688,0.1833 -0.6127,-0.0874 -0.9015,0.0294c-0.0295,0.1159 -0.0466,0.2195 -0.0836,0.3354c-0.1967,0.6175 -0.456,1.2511 -0.6175,1.8696c-0.171,0.6555 -0.4494,1.5684 -0.8123,2.1451c-0.5063,0.8037 -1.614,2.4909 -2.3047,3.1245c-0.6127,0.5643 -1.9057,1.6198 -2.7056,2.0976c-0.607,0.361 -1.6663,0.8427 -2.2344,1.1714c-0.3448,0.1985 -0.1634,0.6156 -0.1966,1.0108c-0.0276,0.3173 1.5323,2.2268 1.6159,2.5156c0.6365,2.1793 1.2521,3.4561 0.798,4.9105c-0.2878,0.9282 -1.6492,1.9076 -2.7607,2.1556c-0.7866,0.1757 -1.4402,-0.1454 -2.4662,-0.7011c-1.0469,-0.5662 -0.8141,-0.798 -1.6881,-1.7632c-0.4361,-0.4788 -0.8854,-1.0935 -1.0887,-1.7366c-0.21,-0.6612 -0.4988,-0.7515 -0.7686,-1.5381c-0.2546,-0.7429 -1.0146,-1.5722 -1.2397,-2.6049c-0.0931,-0.4322 -1.0574,-1.4943 -0.4769,-1.2359" id="Face_1_" fill="#d8ad8c"/><g id="Face_Lines" fill="#010101"><g id="ID0.04647457646206021"><path d="M242.4036,99.6038c-0.0199,-0.0817 0.3439,-0.0275 0.3677,0.0646c0.3268,1.3576 -0.1074,2.7617 0,4.1278c0.0028,0.0522 -0.3639,0.0114 -0.3734,-0.0998c-0.1035,-1.3528 0.3306,-2.7483 0.0057,-4.0926z" id="ID0.5091780051589012"/><path d="M236.0225,110.5222c-0.1397,0.9129 -1.008,0.6498 -1.6274,0.9243c-0.0978,0.0447 -0.3895,-0.1083 -0.3486,-0.1263c0.5719,-0.2546 1.2492,-0.0295 1.5494,-0.7078c0.4057,-0.9139 -0.5529,-1.8411 -0.9633,-2.5659c-0.0294,-0.0494 0.3135,-0.0276 0.3658,0.0646c0.4303,0.7628 1.1685,1.4658 1.0241,2.4111z" id="ID0.24619022756814957"/><path d="M232.136,111.1454c-0.6555,-0.2955 -0.7647,-0.9795 -0.2508,-1.483c0.0684,-0.0684 0.4066,0.0694 0.3487,0.1264c-0.3525,0.3458 -0.4674,0.9053 -0.0219,1.2369c0.4494,0.3344 1.1334,-0.2081 1.5884,-0.2936c0.0865,-0.0152 0.4076,0.1264 0.304,0.1454c-0.7163,0.1339 -1.2198,0.6061 -1.9684,0.2679z" id="ID0.6150035769678652"/><path d="M229.5093,118.3074c-0.1596,-0.0902 0.2175,-0.0503 0.284,-0.0114c1.7148,0.9795 3.383,1.2265 5.149,0.285c0.096,-0.0513 0.3971,0.1017 0.3506,0.1264c-1.996,1.063 -3.8941,0.6811 -5.7836,-0.4z" id="ID0.46044104220345616"/><path d="M235.2501,118.7074c-0.0912,0.057 -0.399,-0.095 -0.3486,-0.1264c5.6696,-3.5473 7.1991,-8.7077 7.505,-15.0641c0.0038,-0.0665 0.3771,-0.0048 0.3714,0.0997c-0.3097,6.4182 -1.8553,11.5425 -7.5278,15.0908z" id="ID0.6775536020286381"/><path d="M222.1886,104.8877c-0.0048,-0.0503 0.36,-0.0123 0.3714,0.0998c0.5045,5.6439 2.3247,10.0795 7.2343,13.3085c0.1558,0.1017 -0.2195,0.0551 -0.2841,0.0114c-4.9324,-3.2433 -6.8096,-7.6988 -7.3216,-13.4197z" id="ID0.41403663996607065"/><path d="M223.5993,117.3698c-0.0389,0.0902 -0.399,-0.0323 -0.3714,-0.0998c0.531,-1.2464 1.3157,-2.3864 1.2863,-3.7924c0,-0.0589 0.3714,-0.0085 0.3733,0.0998c0.0304,1.405 -0.7552,2.546 -1.2882,3.7924z" id="ID0.4031890775077045"/><path d="M233.4062,119.17c0.0741,-0.0655 0.4066,0.076 0.3486,0.1264c-0.8512,0.7543 -0.2878,2.8139 -0.0332,3.7373c0.0199,0.0779 -0.342,0.0285 -0.3677,-0.0656c-0.265,-0.968 -0.8236,-3.0238 0.0523,-3.7981z" id="ID0.06608817214146256"/><path d="M219.5846,104.5106c-0.2973,-1.1619 -0.1558,-2.262 0.7049,-3.1189c0.5463,-0.5443 1.2407,-0.5557 1.4545,0.2385c0.0199,0.0788 -0.3401,0.0275 -0.3677,-0.0646c-0.2479,-0.913 -1.1932,0.4104 -1.3765,0.8056c-0.2746,0.5966 -0.2052,1.3433 -0.0998,1.9665c0.1539,0.93 1.1818,3.7876 2.5384,3.0371c0.0941,-0.0541 0.3971,0.0988 0.3506,0.1254c-1.6948,0.9377 -2.907,-1.8145 -3.2044,-2.9896z" id="ID0.5139171215705574"/><path d="M243.7279,103.3573c0.7942,0.531 0.9795,1.425 0.913,2.3161c-0.0703,0.9538 -0.9073,3.8275 -2.3807,3.0808c-0.2185,-0.1111 0.1263,-0.094 0.2156,-0.0503c0.7334,0.3733 1.5143,-1.8668 1.6369,-2.2791c0.1729,-0.5947 0.2261,-1.2274 0.1244,-1.8392c-0.0741,-0.4351 -0.9889,-1.8126 -1.234,-0.912c-0.0247,0.0846 -0.3933,-0.0152 -0.3715,-0.0988c0.1767,-0.645 0.6346,-0.5263 1.0963,-0.2175z" id="ID0.7148617715574801"/></g></g><g id="Eyebrow_Lines" fill="#010101"><g id="ID0.6785587728954852"><path d="M225.81,102.0396c-0.3021,0.3107 -1.2417,-0.0874 -0.9092,-0.4284c2.1299,-2.1831 4.5809,-2.3085 7.3293,-1.2198c0.6327,0.2508 0.0684,0.7552 -0.4323,0.5567c-2.2895,-0.9063 -4.2379,-0.703 -5.9878,1.0915z" id="ID0.6701614488847554"/><path d="M242.2478,102.7018c0.514,0.4341 -0.284,0.7372 -0.6498,0.4284c-1.31,-1.1048 -2.64,-1.3689 -4.3006,-1.5551c-0.5406,-0.0599 -0.7724,-0.7724 -0.095,-0.6973c1.919,0.2137 3.533,0.5491 5.0454,1.824z" id="ID0.03201861307024956"/></g></g></g><g data-paper-data="{&quot;index&quot;:null}" id="Hair"><path d="M240.8029,113.3921c0.2042,0.4608 0.2451,1.0802 0.2118,1.6312c0.4323,-0.3306 0.5643,-0.8959 0.7087,-1.4051c0.1292,-0.456 0.456,-0.931 0.4988,-1.3898c0.0532,0.3923 0.3562,0.9253 0.4949,1.2559c0.3031,-0.6831 0.3382,-1.7442 0.4513,-2.4434c0.1225,-0.7648 0.1928,-1.5894 0.247,-2.3598c-0.9842,0.4284 -1.1087,-0.0466 -1.1676,0.2223c-0.0912,0.4123 -0.2394,0.9139 -0.3268,1.1903c-0.2688,0.8636 -0.5738,1.8126 -1.0003,2.6049M244.049,107.4831c0.7999,-1.064 0.8541,-3.7154 -0.7248,-4.3348c-0.3914,-0.153 -0.5453,0.5025 -0.7363,0.3667c-0.1757,-0.1264 0.0741,-1.0051 0.0836,-1.2094c0.0437,-0.8616 0.0551,-1.7518 -0.056,-2.5802c0.7419,0.0817 2.2429,0.6802 2.9963,0.9624c0.7286,0.2726 1.0298,0.1767 1.0108,1.0678c-0.0181,0.836 0.0304,1.8506 0.019,2.7027c-0.0095,0.9073 -0.0722,1.6264 0.5196,2.3285c-1.4896,-1.1904 -1.4012,-1.008 -1.9057,-1.4811c-0.1282,0.7743 0.0295,1.2369 0.247,1.9124c0.2128,0.6697 0.5263,1.4801 0.5377,2.2258c-0.4161,-0.6507 -1.2882,-1.5656 -1.9912,-1.9608M246.6691,101.2217c-0.0617,-0.2176 -0.6289,-0.247 -0.8331,-0.3202c-0.2432,-0.0874 -0.4579,-0.2413 -0.703,-0.3448c-0.5681,-0.2413 -1.3253,-0.4817 -1.8725,-0.7268c-2.2087,-0.9861 -5.1034,-0.893 -7.8565,-1.0953c-0.8293,-0.0589 -0.6944,-0.2157 -1.5124,-0.4209c-0.7723,-0.1947 -0.9224,-0.1871 -1.5922,-0.4873c-0.5491,-0.2461 -1.6321,-0.7866 -2.0073,-1.2493c-0.3952,-0.4854 -0.7828,-0.9908 -1.2692,-1.3404c-0.02,0.4113 0.0769,0.7923 0.0988,1.2131c0.0247,0.4608 0.2375,0.6755 0.4436,1.0821c0.3791,0.7524 1.084,1.444 1.7984,1.8962c-0.2888,0.1482 -0.9795,-0.2309 -1.2873,-0.3411c-0.6213,-0.2204 -1.4734,-0.3876 -2.0615,-0.6916c-0.4854,-0.2508 -0.8844,-0.3524 -1.3338,-0.6555c-0.2356,-0.1596 -0.4265,-0.4218 -0.6403,-0.6194c-0.246,-0.2289 -0.4151,-0.2261 -0.6156,-0.494c-0.1539,-0.2061 -0.2802,-0.6289 -0.4085,-0.8455c-0.1282,-0.2137 -0.208,-0.3914 -0.2004,-0.6431c-0.2043,0.2479 -0.2356,0.8939 -0.2803,1.2131c-0.0636,0.4294 -0.1282,0.8398 -0.1282,1.2749c0,1.0887 0.0209,2.2259 -0.0333,3.307c-0.0123,0.2783 0.0095,0.5367 -0.0703,0.8008c-0.0722,0.2356 -0.0085,0.6403 -0.0275,0.8921c-0.0295,0.4313 0.1824,1.0906 -0.3021,1.3775c-0.342,-0.2432 -0.266,-1.1277 -0.3677,-1.501c-0.1206,-0.4608 -0.4379,-0.8702 -0.4883,-1.3747c-0.2413,0.7467 0.2508,1.292 0.2879,2.0596c0.0465,0.9044 -0.1235,2.0815 -0.495,2.869c-0.0237,-0.2413 -0.2745,-0.6536 -0.4208,-0.8616c-0.248,-0.3506 -0.3781,-0.4285 -0.4228,-0.8655c-0.0313,-0.304 -0.1653,-0.5481 -0.1852,-0.8654c-0.0219,-0.3031 -0.2356,-0.5016 -0.2242,-0.8018c0.0475,-1.3224 -0.2081,-1.6255 -0.7467,-1.6112c-0.3088,0.0085 -0.9272,0.7837 -1.0944,1.0478c-0.2261,0.361 -0.2784,1.2958 -0.2413,1.7186c0.094,1.0231 0.4503,2.2192 1.1504,3.0343c0.3392,0.3961 0.6527,0.6878 1.1476,0.8141c0.2641,0.0675 0.6337,-0.189 0.6926,0.076c0.0551,0.2413 0.1615,0.7866 0.2204,1.0403c0.0779,0.3401 0.1928,0.6821 0.247,1.0241c0.0551,0.3524 0.0199,0.7172 0.1852,1.0336c0.2879,0.5519 0.6945,0.9034 0.6128,1.5941c-0.0722,0.627 -0.5548,0.8122 -1.0669,1.1324c-0.5738,0.3572 -1.6036,1.0754 -2.2914,1.0421c0.0086,-0.2973 0.5577,-0.6631 0.7657,-0.8844c0.3268,-0.3506 0.3791,-0.8332 0.4494,-1.2901c0.057,-0.3734 0.1425,-0.7306 0.2631,-1.0963c0.1929,-0.5757 0.0665,-1.2512 -0.3933,-1.6939c-0.1985,0.2223 -0.2109,0.704 -0.2242,0.9975c-0.0199,0.4503 -0.0513,0.5805 -0.3182,0.9348c-0.2442,0.323 -0.3857,0.6793 -0.6726,0.9633c-0.1938,0.1919 -0.4427,0.0333 -0.4798,0.3164c0,-0.2784 0,-0.3088 0,-0.5634c-0.0152,-0.1729 -0.0038,-0.3667 -0.1206,-0.4674c-0.0295,-0.7049 -0.1112,-1.2815 -0.1425,-1.9845c-0.0874,-0.0627 -0.0409,-0.4228 -0.1093,-0.5064c0.0038,-0.2679 -0.4047,-3.0333 -0.8854,-3.0039c-0.0228,-0.284 -0.0133,-0.569 -0.056,-0.8512c-0.1967,-0.1767 -0.2527,-0.7391 -0.3933,-1.0184c-0.1986,-0.3933 -0.5311,-0.778 -0.5995,-1.2074c-0.0703,-0.4228 0.0228,-0.4836 -0.2261,-0.8028c-0.1985,-0.2546 -0.2375,-0.6403 -0.36,-0.9376c-0.1264,-0.3078 -0.3411,-0.608 -0.4399,-0.9301c-0.0883,-0.2916 -0.1406,-0.5633 -0.2631,-0.855c-0.2394,-0.5766 -0.4047,-1.2692 -0.4731,-1.899c-0.0409,-0.3648 -0.0656,-0.7182 -0.1359,-1.0802c-0.0475,-0.2498 -0.2422,-0.5025 -0.2185,-0.7153c0.0171,-0.1169 -0.1216,-0.1644 -0.0997,-0.2831c0.0237,-0.1387 0.2432,-0.2622 0.2299,-0.3857c-0.0333,-0.3325 0,-0.6831 0,-1.0175c0,-0.6935 0.1634,-1.3376 0.3895,-1.9617c0.1292,-0.3458 0.1425,-0.4446 0.3781,-0.7372c0.1719,-0.2128 0.1985,-0.4475 0.3429,-0.6726c0.1302,-0.1986 0.3078,-0.3572 0.4807,-0.5206c0.1378,-0.134 0.4285,-0.3316 0.514,-0.5121c0.0997,-0.2204 -0.039,-0.5253 -0.0523,-0.7619c-0.0095,-0.2232 0.0846,-0.6099 0.1834,-0.7932c0.1928,-0.3477 0.456,-0.4484 0.5139,-0.874c0.0504,-0.3724 0.1539,-0.4304 0.3525,-0.7344c0.1558,-0.2403 0.1102,-0.512 0.2546,-0.7353c0.1596,-0.247 0.57,-0.5291 0.8037,-0.7039c0.7315,-0.551 1.6948,-0.7201 2.4329,-1.2502c0.6698,-0.4798 1.273,-0.6793 2.0093,-1.0374c0.9785,-0.4731 2.4424,-0.551 3.496,-0.7495c0.8588,-0.1615 1.6805,-0.1511 2.5659,-0.1036c0.6308,0.0342 1.2711,-0.1415 1.8962,-0.0627c1.6397,0.21 3.3317,0.343 4.9296,0.7923c0.7923,0.2213 1.6131,0.7267 2.3531,1.0944c0.6603,0.3287 1.2654,0.8293 1.7461,1.386c0.3781,0.438 0.6365,0.6821 1.0925,1.0659c0.5045,0.4256 1.1191,0.798 1.4716,1.3775c0.6754,1.1077 2.0244,2.1043 2.2154,3.4656c0.0741,0.5244 0.475,0.9196 0.6992,1.3842c0.3116,0.646 0.2935,1.3366 0.4493,2.0292c0.3116,1.405 1.0688,2.964 0.7629,4.4412c-0.3439,-0.0475 -0.6014,-0.6631 -0.8854,-0.8236c-0.0447,0.7609 0.1748,0.9167 0.6811,1.4725c0.228,0.2517 0.3696,0.6469 0.4788,0.9414c0.1102,0.2926 0.342,0.6014 0.3677,0.9092c-0.3354,-0.1131 -0.703,-0.1302 -1.0222,-0.2518c-0.2404,-0.0912 -0.6584,-0.3591 -0.894,-0.2261" id="Hair_1_" fill="#a15927"/><g id="Hair_Lines" fill="#010101"><g id="ID0.11627752846106887"><path d="M230.4336,98.8543c-1.1808,-1.1315 -1.5029,-2.7237 -1.7204,-4.2608c-0.0219,-0.1681 0.3097,-0.0731 0.36,0.0124c3.0001,5.0426 10.1973,3.6679 15.1183,5.4501c1.1467,0.4247 2.299,0.8351 3.4571,1.2293c1.4107,0.4817 -2.1945,-3.8636 -1.6046,-3.2034c-0.7923,-0.8882 -1.5836,-1.7822 -2.3161,-2.717c-0.1054,-0.1349 0.1967,-0.1159 0.2489,-0.094c1.2768,0.5576 0.761,0.2508 1.9133,1.2359c0.6052,0.5178 2.0786,3.4675 1.7148,1.1267c-0.9643,-6.2377 -4.2266,-12.3158 -10.8376,-13.9982c-0.2261,-0.058 -0.1701,-0.2613 0.0541,-0.2043c7.3711,1.8763 10.6761,8.9661 11.381,15.9648c0.0181,0.1776 -0.304,0.0617 -0.36,-0.0124c-1.0726,-1.4269 -3.8941,-4.1429 -1.4953,-1.3737c0.9965,1.1514 1.8221,2.2658 2.4415,3.6746c0.056,0.1235 -0.1207,0.1349 -0.2005,0.1102c-1.5361,-0.4702 -3.039,-1.0155 -4.5457,-1.5675c-3.2063,-1.1723 -6.4458,-0.7191 -9.6112,-1.6568c-1.6102,-0.4769 -2.907,-1.0706 -4.2712,-2.0786c-2.9364,-2.1698 0.8892,2.5327 1.4383,2.9602c0.152,0.1188 -0.0066,0.209 -0.1444,0.1653c-2.8348,-0.9082 -6.6205,-1.6929 -6.6129,-5.2411c0,-0.1682 0.3714,-0.0931 0.3714,0.0389c-0.0076,3.7373 3.9986,3.2652 5.2212,4.4394z" id="ID0.584543495438993"/><path d="M220.033,115.2513c-0.1102,0.0636 -0.4531,-0.0817 -0.2935,-0.1891c2.1194,-1.424 2.6277,-4.5419 1.2093,-6.63c0.1197,0.0047 0.2404,0.0085 0.3601,0.0123c0.5272,1.8307 0.1776,3.4257 -1.3918,4.5857c-0.1045,0.0779 -0.4474,-0.076 -0.2954,-0.1891c1.5209,-1.1248 1.8164,-2.679 1.3129,-4.4374c-0.0475,-0.1625 0.3087,-0.0637 0.36,0.0123c1.4697,2.167 0.9291,5.3628 -1.2673,6.8353c-0.0988,-0.0627 -0.1957,-0.1264 -0.2954,-0.1891c1.5076,-0.8778 3.192,-1.2806 4.047,-2.9431c0.076,-0.1349 0.437,-0.018 0.3762,0.1007c-0.8816,1.7148 -2.5574,2.1176 -4.1221,3.0315z" id="ID0.13220369582995772"/><path d="M224.1741,104.2493c-0.039,0.133 -0.3601,0.0523 -0.3753,-0.0703c-0.1111,-1.2901 -0.4541,-2.4738 -0.8664,-3.6964c-0.0494,-0.1397 0.3287,-0.0922 0.3734,0.0408c0.3439,1.0099 0.6403,2.0026 0.8113,3.0571c-0.133,-0.8189 0.1691,-2.3265 0.1672,-3.286c-0.0076,-2.0007 -0.1406,-3.877 0.5567,-5.795c0.0503,-0.1406 0.4199,-0.0333 0.3714,0.1007c-1.139,3.1255 -0.0722,6.4809 -1.0383,9.6491z" id="ID0.6448741536587477"/><path d="M246.9,103.4751c-0.0428,1.4544 0.0427,2.3379 0.5918,3.7088c0.0561,0.1415 -0.2869,0.0741 -0.3372,0.0171c-0.4123,-0.4779 -0.8427,-0.9073 -1.3082,-1.3329c-0.8094,-0.7429 -0.4417,-0.1254 -0.2878,0.5339c0.3173,1.35 0.6127,2.7009 0.8407,4.067c0.0276,0.1586 -0.3458,0.0931 -0.3733,-0.0409c-0.2413,-1.2093 -1.2303,-2.2629 -2.2582,-2.8699c-0.2175,-0.1283 0.1055,-0.2024 0.2337,-0.1264c1.0184,0.6023 1.7661,1.4583 2.2895,2.527c0.077,0.1663 -0.0513,0.0969 -0.3781,-0.208c-0.0817,-0.4541 -0.17,-0.9044 -0.2669,-1.3557c-0.2337,-1.1371 -0.5159,-2.2657 -0.779,-3.3953c-0.039,-0.1653 0.2859,-0.0598 0.3363,-0.0171c0.3173,0.266 0.6327,0.5358 0.9443,0.8104c0.1577,0.1444 0.3154,0.2888 0.4731,0.4332c0.5187,0.4645 0.6061,0.5738 0.2612,0.3249c-0.2783,-0.6926 -0.4085,-1.2236 -0.3933,-1.9542c0.0238,-1.1609 0.228,-2.413 -0.0133,-3.5558c-0.0294,-0.1539 0.3458,-0.096 0.3753,0.0408c0.1615,0.7705 0.075,1.6103 0.0494,2.3931z" id="ID0.44203386968001723"/><path d="M241.4764,85.5315c0.1511,0.1653 -0.2109,0.1738 -0.3021,0.0741c-3.8351,-4.1971 -11.741,-3.9168 -16.7029,-2.4653c-0.1273,0.0371 -0.4379,-0.152 -0.2223,-0.2147c5.1053,-1.4933 13.2706,-1.7242 17.2273,2.6059z" id="ID0.04171687038615346"/><path d="M224.1294,82.9389c0.1188,-0.0541 0.457,0.114 0.2955,0.1891c-1.4735,0.6707 -2.9944,1.2711 -4.2807,2.2743c-1.4013,1.0896 -1.9836,2.7141 -2.1356,4.4289c-0.0133,0.1349 -0.3886,0.0513 -0.3734,-0.1007c0.3563,-3.9682 3.2291,-5.3029 6.4942,-6.7916z" id="ID0.6963943927548826"/><path d="M217.6485,89.7058c0.1055,-0.0931 0.4541,0.0532 0.343,0.1501c-6.5816,5.7826 2.6153,16.0417 1.9627,23.1315c-0.0095,0.1349 -0.3829,0.0513 -0.3696,-0.1007c0.6593,-7.1611 -8.6592,-17.2729 -1.9361,-23.1809z" id="ID0.2436366230249405"/><path d="M223.6858,103.5644c0.0617,0.9291 -0.2765,1.9361 -0.6308,2.7759c-0.058,0.1349 -0.4142,0.0399 -0.3715,-0.0998c0.1444,-0.475 -0.6013,-1.5618 -0.7495,-2.0311c-0.5995,-1.9152 -0.4266,-4.0527 -0.2005,-6.0097c0.0171,-0.1368 0.3886,-0.0513 0.3715,0.0998c-0.2451,2.1175 -0.3696,4.3282 0.341,6.3735c0.1492,0.4218 0.7572,1.1799 0.609,1.6673c-0.1245,-0.0333 -0.247,-0.0665 -0.3715,-0.0998c0.4323,-1.0269 0.6717,-2.0748 0.5957,-3.2005c-0.0561,-0.8493 -0.3563,-1.6093 -0.2917,-2.4729c0.0133,-0.1349 0.3867,-0.0532 0.3734,0.0998c-0.076,0.9908 0.2593,1.919 0.3249,2.8975z" id="ID0.5376589922234416"/><path d="M243.0914,114.1911c-0.0152,0.1387 -0.3534,0.0427 -0.3733,-0.0703c-0.1283,-0.7619 -0.3563,-1.482 -0.6033,-2.2116c0.1245,0.0228 0.2489,0.0465 0.3734,0.0703c-0.4209,1.2977 -0.837,2.5954 -1.3376,3.8655c-0.0561,0.1387 -0.4199,0.0342 -0.3734,-0.0997c0.3097,-0.8588 0.0941,-1.9048 -0.3306,-2.6923c-0.0893,-0.1644 0.286,-0.134 0.3487,-0.0171c0.4512,0.8388 0.683,1.8924 0.3524,2.8091c-0.1225,-0.0332 -0.247,-0.0665 -0.3714,-0.0997c0.5025,-1.2692 0.9167,-2.5669 1.3376,-3.8656c0.0484,-0.1463 0.3382,-0.0361 0.3733,0.0703c0.2451,0.7315 0.4731,1.4507 0.6033,2.2116c-0.1245,-0.0228 -0.2489,-0.0465 -0.3734,-0.0703c0.191,-1.8572 0.5548,-3.6926 0.4969,-5.567c-0.0029,-0.1672 0.3695,-0.095 0.3733,0.0399c0.0608,1.9029 -0.3021,3.743 -0.4959,5.6269z" id="ID0.6667846352793276"/><path d="M247.2087,98.9236c-0.0057,0.1321 -0.379,0.0532 -0.3733,-0.0997c0.0114,-0.2347 0.0465,-0.4674 0.056,-0.703c0.0038,-0.1321 0.3753,-0.0542 0.3715,0.0997c-0.0095,0.2356 -0.0447,0.4674 -0.0542,0.703z" id="ID0.9965317915193737"/></g></g></g><g data-paper-data="{&quot;index&quot;:null}" id="Mouth"><path d="M235.8258,113.1404c-0.0608,0.1776 -0.1786,0.3144 -0.3002,0.4645c-0.1577,0.1919 0.02,0.2195 -0.2042,0.3525c-0.2318,0.1377 -0.3857,0.1273 -0.6517,0.1596c-0.6251,0.0779 -1.2692,0.1719 -1.9,0.1643c-0.7296,-0.0076 -1.3082,-0.0095 -2.0017,-0.1596c-0.3192,-0.0703 -0.6137,-0.1852 -0.9424,-0.2299c-0.4493,-0.0617 -0.4398,-0.0057 -0.6583,-0.3097c-0.076,-0.1054 -0.2119,-0.2384 -0.0855,-0.4009c0.0408,-0.0532 0.3135,-0.019 0.36,-0.0152c0.2689,0.0247 0.533,0.1159 0.8075,0.1454c0.6365,0.0693 1.2379,0.0285 1.881,0.0589c0.5919,0.0275 1.1429,0.0598 1.7518,0.0161c0.4342,-0.0304 0.837,-0.1216 1.2597,-0.1976c0.3544,-0.0636 0.5786,-0.2128 0.9073,-0.2166" id="Teeth" fill="#f5f6f6"/><path d="M235.2672,114.174c0.019,0.2166 0.152,0.0864 0.0257,0.228c-0.1653,0.1852 -0.2917,0.3562 -0.3449,0.5709c-0.0855,0.3477 -0.5272,0.6755 -0.874,0.799c-0.5453,0.1928 -1.4639,0.0209 -1.9855,-0.1691c-0.4512,-0.1653 -0.9262,-0.4313 -1.3357,-0.6783c-0.4493,-0.2708 -0.8911,-0.7458 -1.2207,-1.0412c0.987,0.1995 2.0482,0.3648 3.0818,0.4142c0.5063,0.0228 1.0611,-0.0276 1.5532,-0.1311c0.2356,-0.0494 1.0887,-0.2907 1.1581,-0.0485" id="Mouth_1_" fill="#6c0e0f"/><g id="ID0.11021511489525437" fill="#010101"><g id="ID0.42666167207062244"><path d="M229.0922,113.47c0.0333,0.0751 -0.323,0.039 -0.3676,-0.0608c-0.0988,-0.2251 -0.076,-0.38 -0.0019,-0.6184c0.0323,-0.0969 0.399,0.0095 0.3714,0.0997c-0.0703,0.2233 -0.1054,0.3401 -0.0019,0.5795z" id="ID0.22553527681156993"/><path d="M228.9459,113.0558c-0.1558,-0.0237 -0.3239,-0.1938 -0.0646,-0.152c2.5793,0.4104 5.2089,0.7781 7.6855,-0.2812c0.0846,-0.037 0.4247,0.0998 0.3021,0.152c-2.546,1.0887 -5.2696,0.703 -7.923,0.2812z" id="ID0.007242548279464245"/><path d="M233.1354,115.9286c-1.8772,-0.3239 -3.21,-1.538 -4.4583,-2.9003c-0.0855,-0.0931 0.2745,-0.0504 0.3372,0.0199c1.2027,1.3101 4.1306,4.2209 5.7798,1.9352c0.4988,-0.6907 0.4342,-1.5153 1.1486,-2.0767c0.0855,-0.0665 0.4151,0.0788 0.3486,0.1311c-1.2359,0.9747 -0.9699,3.2661 -3.1559,2.8908z" id="ID0.7142031914554536"/></g></g><g id="ID0.6628306610509753" fill="#010101"><g id="ID0.4579282798804343"><path d="M229.8807,113.9203c-0.2147,-0.0684 -0.1757,-0.228 0.0428,-0.1596c1.7746,0.5634 3.5967,0.4969 5.3998,0.1235c0.1016,-0.0218 0.436,0.1397 0.2318,0.1815c-1.8962,0.3942 -3.8133,0.4446 -5.6744,-0.1454z" id="ID0.7576494007371366"/></g></g><g id="ID0.27146372897550464" fill="#010101"><g id="ID0.6395009006373584"><path d="M234.9651,115.104c0.058,0.1064 -0.1909,0.0817 -0.2299,0.0076c-0.1909,-0.36 -0.418,-0.6716 -0.7628,-0.8987c-0.1416,-0.0931 0.0722,-0.132 0.1539,-0.0788c0.3743,0.247 0.6308,0.5738 0.8388,0.9699z" id="ID0.599832356441766"/></g></g></g><g data-paper-data="{&quot;index&quot;:null}" id="Left_Arm"><path d="M242.7618,144.2291c0,1.8668 0.0703,3.7392 0.2565,5.5737c0.1168,1.1466 -0.0798,2.375 0.0779,3.5235c0.0627,0.4589 0.0465,1.1581 0.1767,1.6036c0.1168,0.3962 0.5586,0.7306 0.7885,1.0887c0.6678,1.0393 0.5158,1.008 0.8569,2.2639c0.2061,0.7609 0.8236,2.4576 1.0469,3.2129c0.2223,0.7467 -0.076,1.4316 0,2.2106c0.0608,0.6071 0.2299,1.0612 0.1729,1.6825c-0.0703,0.798 0.0294,1.7052 -0.0057,2.5222c-0.0466,1.0355 0.1073,1.9342 0.0912,2.907c-0.0171,1.008 0.1596,2.0872 0.7201,2.9431c0.5567,0.855 1.2654,1.6758 1.5399,2.68c0.2708,0.9984 0.9016,1.842 0.7534,2.963c-0.134,1.0042 -0.4864,2.1917 -0.7847,3.1398c-0.2841,0.8873 -0.9386,1.7907 -1.3842,2.564c-0.2137,0.3734 -0.4189,0.8959 -0.703,1.1001c-0.2565,0.1834 -0.9519,0.3344 -1.2863,0.362c-0.1168,-0.6812 0,-1.559 -0.0722,-2.2363c-0.0798,-0.7382 -0.0646,-1.4839 -0.0646,-2.2392c0,-1.4307 -0.2318,-2.8965 -0.4455,-4.294c-0.1387,-0.9215 -0.3306,-2.2135 -0.0523,-3.1236c0.0874,-0.2869 0.2594,-0.3334 0.3059,-0.6536c0.0371,-0.2565 -0.0408,-0.475 -0.0627,-0.7049c-0.0522,-0.5177 -0.1149,-1.0279 -0.2432,-1.538c-0.2156,-0.8626 -0.9462,-2.1043 -0.8759,-2.9688c0.0371,-0.4474 0.2318,-0.816 0.3658,-1.2578c0.1653,-0.55 0.1748,-1.0231 0.1767,-1.6036c0.0019,-0.9671 -0.2489,-2.0311 -0.9652,-2.7626c-0.4399,-0.4493 -0.3078,-0.7343 -0.6014,-1.3841c-0.2175,-0.4788 -0.5196,-1.0669 -0.7381,-1.5514c-0.4693,-1.0336 -1.0241,-1.9 -1.2844,-3.0134c-0.2708,-1.1523 -0.5235,-1.8829 -0.8113,-3.0552c-0.1264,-0.5177 -0.0646,-1.4981 -0.1482,-2.0083c-0.0893,-0.551 -0.3971,-1.4877 -0.4209,-2.033c-0.0465,-1.0298 -0.1653,-1.4905 -0.3505,-2.4519c-0.0912,-0.4769 0.0589,-1.026 0.1301,-1.4744c0.1055,-0.6631 0.2508,-0.8047 0.894,-0.9462c0.5605,-0.1226 1.0127,-0.172 1.5238,-0.4769c0.4161,-0.2461 0.9367,-0.7904 1.4269,-0.4959" id="Skin_Arm_Left" fill="#d8ad8c"/><g id="Left_Arm_Lines" fill="#010101"><g id="ID0.35483646113425493"><path d="M243.8828,156.1431c0.0218,0.1615 -0.4722,0.0665 -0.4921,-0.0741c-0.5843,-4.1449 -0.913,-8.2536 -1.0279,-12.4374c-0.0019,-0.115 0.4911,-0.0371 0.4968,0.132c0.1131,4.162 0.4399,8.2565 1.0232,12.3795z" id="ID0.03317447751760483"/><path d="M246.6691,172.6094c0.02,0.1653 -0.475,0.0665 -0.4921,-0.0722c-0.265,-2.356 -0.2242,-4.7015 -0.1947,-7.0727c0.0494,-4.0242 -0.5681,-6.8486 -2.7018,-10.2752c-0.1074,-0.1729 0.3828,-0.1026 0.455,0.0133c3.5464,5.6924 2.2192,11.0637 2.9336,17.4068z" id="ID0.24861235031858087"/><path d="M249.4108,179.3554c-0.0855,2.2192 -1.4459,4.8136 -2.4624,6.7412c-0.0779,0.1444 -0.5529,-0.0247 -0.4949,-0.134c0.8426,-1.596 1.5532,-3.3269 2.1156,-5.0397c1.1201,-3.4096 -0.9576,-5.5528 -2.3921,-8.3847c-0.0551,-0.1121 0.4218,-0.0675 0.4921,0.0722c1.1524,2.279 2.8443,4.0717 2.7417,6.745z" id="ID0.484529385343194"/><path d="M247.2543,183.9382c-0.018,0.4617 0.0257,1.3518 -0.6678,1.2464c-1.616,-0.248 -1.4507,-2.4862 -1.5048,-3.6309c-0.0057,-0.1112 0.4854,-0.0371 0.4949,0.1339c0.0314,0.6897 -0.0019,1.3709 0.1245,2.052c0.0646,0.3544 0.8379,1.6492 1.0127,0.7068c0.2821,-1.5067 -0.0238,-2.9668 0.5548,-4.4422c0.0608,-0.1463 0.5472,0.0057 0.4968,0.134c-0.4816,1.2283 -0.4655,2.5013 -0.5111,3.8z" id="ID0.12546026054769754"/><path d="M245.3952,186.5773c-0.1596,0.0057 -0.5368,-0.2299 -0.2043,-0.2413c0.5168,-0.0171 0.9956,-0.1691 1.406,-0.4845c0.1245,-0.0931 0.571,0.0997 0.4636,0.1833c-0.4873,0.3762 -1.0573,0.5254 -1.6653,0.5425z" id="ID0.0019996953196823597"/><path d="M245.6232,181.8254c0,0.1187 -0.4969,0.0351 -0.495,-0.134c0.0076,-0.9224 -0.436,-1.7537 -0.5101,-2.6628c-0.0143,-0.1672 0.4788,-0.0646 0.4921,0.076c0.0769,0.93 0.5215,1.7774 0.513,2.7208z" id="ID0.7106098243966699"/></g></g></g><g data-paper-data="{&quot;index&quot;:null}" id="Shoes"><path d="M241.6037,244.4152c0.1786,0.5291 1.5457,1.0497 2.0672,1.2806c0.8854,0.3933 1.9485,0.8531 2.85,1.1371c0.8408,0.2689 1.6103,0.5472 2.4938,0.7648c0.38,0.095 1.4972,0.2764 1.8392,0.456c0.3638,0.1871 0.0912,0.5358 0.2042,0.9908c0.5976,2.3921 -1.766,3.5435 -3.7477,3.6034c-0.5434,0.019 -1.4716,-0.2708 -1.9969,-0.2708c-0.6194,0.0019 -1.0764,0.0912 -1.3044,-0.2527c-0.2859,-0.436 -0.6545,-1.5551 -1.6235,-1.8762c-2.3769,-0.7809 -4.8821,-1.3661 -7.3255,-1.5732c0.3677,-0.9671 2.2173,-1.653 3.0723,-2.1432c1.0707,-0.6137 2.1318,-1.236 3.1711,-1.7594M241.5002,252.6089c-0.1302,-0.2669 -0.247,-0.5747 -0.4009,-0.8293c-0.1577,-0.2546 0.0741,-0.1577 -0.1691,-0.2964c-0.2024,-0.115 -0.8702,-0.171 -1.0925,-0.247c-0.9386,-0.3249 -1.8905,-0.5605 -2.8443,-0.8626c-0.7296,-0.2299 -1.6492,-0.3857 -2.4007,-0.5824c-0.6213,-0.1634 -1.3841,-0.4123 -2.0054,-0.2783c-0.5415,0.1149 -1.3025,0.4598 -1.8649,0.4712c-0.3192,1.5105 3.4067,1.2929 4.1876,1.3433c1.6739,0.0997 3.344,1.0963 5.0065,1.3081c0.5159,0.0646 0.8465,0.0076 1.3414,0.076" id="Shoe_Left" fill="#0b1938"/><path d="M251.1151,248.2171c0.0912,-0.2119 0.7648,-0.1074 0.9595,-0.0019c0.2375,0.1301 0.4988,0.341 0.6175,0.5918c0.2451,0.5159 0.6441,1.0925 0.6907,1.6198c0.056,0.6517 -0.1131,1.1324 -0.3078,1.8316c-0.2356,0.8445 -0.3876,1.5646 -1.2246,1.8648c-0.5386,0.1929 -1.1191,0.4361 -1.6406,0.6755c-0.2698,0.1235 -0.4902,0.1368 -0.7667,0.2574c-0.7828,0.3382 -1.8145,0.0713 -2.6457,0.1378c-0.9035,0.0722 -1.8506,-0.0076 -2.7446,-0.095c-0.8483,-0.0836 -1.6178,0.0294 -2.4548,-0.0969c-0.6678,-0.1007 -1.3252,-0.1511 -1.9541,-0.4161c-0.7524,-0.3154 -1.5447,-0.5596 -2.3161,-0.8512c-1.122,-0.4218 -1.8497,-0.8892 -3.0296,-0.8503c-0.646,0.0181 -1.3756,-0.0408 -1.9969,0.0722c-0.5348,0.0979 -1.3376,-0.0855 -1.8278,-0.2527c-0.4512,-0.1501 -0.4693,-0.8417 -0.6422,-1.291c-0.1463,-0.3819 -0.855,-1.046 -0.3505,-1.254c0.2061,-0.0874 0.5814,-0.1207 0.8056,-0.1283c0.3135,-0.0047 0.3686,0.3971 0.5785,0.609c0.3914,0.3952 0.8313,0.3505 1.3528,0.5177c1.1362,0.3658 2.4957,-0.0095 3.6613,0.2822c0.7553,0.1871 1.4944,0.3933 2.2325,0.6678c1.0412,0.3886 2.2211,0.5092 3.3307,0.4551c0.0133,-0.2651 -0.3619,-1.0336 -0.5937,-1.1761c-0.286,-0.1758 -0.818,-0.191 -1.1467,-0.2689c-0.304,-0.0722 -0.5662,-0.1577 -0.8683,-0.2023c-0.7277,-0.1093 -1.4326,-0.4152 -2.1432,-0.5767c-0.6773,-0.1558 -1.4991,-0.3477 -2.1356,-0.5719c-0.6061,-0.2137 -1.1542,-0.076 -1.7328,-0.3173c0.4969,-0.1045 0.9652,-0.2859 1.3842,-0.5738c0.2232,-0.152 0.4047,-0.3002 0.6887,-0.2983c0.4608,0 0.9339,0.2432 1.4032,0.2936c0.5918,0.0627 1.1875,0.1672 1.7641,0.3078c0.4769,0.1187 0.8759,0.2118 1.3585,0.2745c0.4085,0.058 1.0336,0.2214 1.425,0.3211c0.4456,0.1112 0.7999,0.2337 1.2436,0.3563c0.38,0.1016 0.5063,0.0152 0.7714,0.2726c0.5139,0.5016 0.817,0.9557 1.121,1.5941c0.0836,0.1739 0.0627,0.1967 0.2242,0.2689c0.1985,0.0864 0.5453,0.0408 0.7628,0.0627c0.4247,0.0408 0.8664,0.0636 1.2987,0.0893c0.9329,0.0503 1.9408,0.1168 2.8405,-0.1872c0.4626,-0.1577 1.2435,-0.6013 1.4772,-1.0469c0.2784,-0.5301 0.6422,-0.9566 0.5216,-1.5656c-0.0656,-0.3325 -0.1397,-0.5529 -0.0988,-0.8683c0.0332,-0.2489 -0.0209,-0.4284 0.0351,-0.5956" id="Shoe_Trim_Left" fill="#a2c6dd"/><path d="M228.6115,259.1867c0.5938,0.0969 1.1989,0.5083 1.7072,0.8199c0.5738,0.3524 0.8426,0.6773 1.3689,1.0573c0.3211,0.2337 0.6992,0.6973 1.0184,0.9405c0.3525,0.2651 0.6907,0.5396 1.0821,0.7572c0.7068,0.3895 1.0887,0.4265 1.8411,0.5899c0.2802,0.0589 0.835,0.02 1.0687,0.1986c0.2803,0.2175 0.4437,0.2954 0.4551,0.6365c0.0114,0.3505 -0.134,0.7999 -0.3268,1.0982c-0.2299,0.3562 -0.7401,0.9367 -1.0593,1.2074c-0.3695,0.3154 -0.2964,0.1872 -0.6621,0.4969c-0.3392,0.2897 -1.3528,0.8569 -1.7832,0.9443c-1.0925,0.2118 -1.33,0.5234 -2.4177,0.779c-0.8018,0.1871 -2.3285,0.2394 -3.1635,0.1966c-0.5748,-0.0294 -0.9016,-0.1767 -1.445,-0.3211c-0.6137,-0.1691 -1.1371,-0.3676 -1.6511,-0.7457c-0.5339,-0.3952 -0.6327,-0.7239 -0.6925,-1.3661c-0.02,-0.247 -0.2689,-0.5919 -0.3895,-0.8113c-0.1188,-0.2223 -0.1786,-0.4969 -0.3914,-0.6033c-0.5064,-0.2593 -0.9795,-0.5529 -1.4754,-0.8331c-0.5652,-0.3268 -1.0963,-0.6992 -1.6862,-0.9852c-0.5567,-0.2726 -1.084,-0.6659 -1.6454,-0.9091c-0.3392,-0.1482 -0.5767,-0.1558 -0.6327,-0.5738c-0.0409,-0.3002 0.1387,-0.5786 0.1244,-0.894c0.8056,0.2803 1.4792,0.8275 2.2753,1.1467c0.3401,0.1358 0.6175,0.304 0.9937,0.36c0.418,0.0561 0.7372,-0.1035 1.1191,-0.2574c0.3876,-0.1577 0.798,-0.3059 1.2074,-0.4456c0.4826,-0.1634 0.8892,-0.4398 1.3376,-0.6583c0.9386,-0.4579 1.8886,-0.9719 2.8443,-1.3823c0.1872,-0.0798 1.0488,-0.3002 1.0393,-0.4826M220.945,265.6106c-0.0665,-0.2821 -0.6194,-0.4227 -0.8711,-0.5396c-0.2803,-0.1301 -0.5007,-0.304 -0.7515,-0.475c-0.4883,-0.3363 -0.9775,-0.6887 -1.5029,-0.969c-0.4864,-0.2612 -1.1115,-0.3306 -1.3233,-0.8721c-0.0855,-0.2185 -0.0722,-0.4493 -0.1302,-0.6925c-0.0541,-0.2299 0.0466,-0.5102 -0.0114,-0.7534c-0.1225,-0.5272 -0.037,-0.8873 0.2318,-1.3233c-0.3819,-0.2955 -0.8255,-0.5805 -1.2929,-0.722c-0.3506,-0.1055 -0.5434,0.0171 -0.5938,0.3543c-0.0408,0.267 0.0608,0.4304 -0.0997,0.6603c-0.1691,0.2394 -0.1188,0.4455 -0.1539,0.7533c-0.0371,0.3249 -0.1577,0.59 -0.1444,0.9054c0.0256,0.5785 -0.1245,1.1618 0.3638,1.5637c0.4655,0.3895 0.8351,0.8607 1.2892,1.2635c0.5861,0.5196 1.2948,0.7714 1.9931,1.1115c0.3638,0.1795 0.74,0.3154 1.1267,0.4512c0.4303,0.1482 0.9851,0.4161 1.4582,0.3325c0.2356,-0.0408 0.3762,-0.1691 0.4446,-0.4189c0.0409,-0.1482 0.0456,-0.6137 -0.0902,-0.6603" id="Shoe_Right" fill="#0b1938"/><path d="M236.5782,263.5491c0.5881,-0.0275 1.5846,0.0969 2.1356,0.2803c0.5776,0.1928 1.0659,0.6422 1.2065,1.234c0.3952,1.6815 -0.7875,3.0305 -2.1935,3.7744c-0.3734,0.1966 -1.1096,0.6013 -1.4421,0.8645c-0.3287,0.2593 -0.8921,0.5044 -1.2616,0.703c-0.8094,0.4284 -1.7319,0.5747 -2.5831,0.8977c-0.893,0.3382 -1.3214,0.609 -2.2752,0.6403c-0.6593,0.0209 -1.2901,0.2043 -1.9542,0.0988c-0.246,-0.0389 -0.8027,-0.1776 -1.0497,-0.2574c-0.3392,-0.1074 -0.3734,-0.0817 -0.7125,-0.2204c-0.2594,-0.1102 -0.6878,-0.4275 -0.8959,-0.6109c-0.2631,-0.2299 -0.6137,-0.4636 -0.8958,-0.6735c-0.5681,-0.4152 -1.254,-0.8778 -1.8981,-1.217c-0.6052,-0.323 -1.0061,-0.2859 -1.6549,-0.512c-0.9833,-0.343 -1.9988,-0.703 -3.0115,-0.8721c-0.9909,-0.1672 -2.0796,-0.4104 -2.8054,-1.1429c-0.4056,-0.4161 -0.74,-0.7856 -0.74,-1.3604c0,-0.2707 -0.0133,-0.4902 -0.0836,-0.7514c-0.0627,-0.2299 -0.1929,-0.5026 -0.152,-0.7458c0.6574,0.1729 1.1732,0.8721 1.6777,1.2825c0.6327,0.5159 1.5532,0.8161 2.2895,1.1723c0.5719,0.2746 1.026,0.5178 1.6796,0.5178c0.1966,0 0.6954,0.1349 0.8445,0.0589c0.2176,-0.1093 0.2005,-0.9016 0.1473,-1.1001c-0.1226,-0.4693 -0.6508,-0.4285 -1.0631,-0.6736c-0.5453,-0.3249 -0.9072,-0.6137 -1.4734,-0.8996c-0.3506,-0.1805 -0.8132,-0.4361 -1.1543,-0.6441c-0.2527,-0.1482 -0.436,-0.1558 -0.5624,-0.438c-0.1833,-0.4094 -0.3154,-0.9139 -0.3211,-1.3689c-0.0028,-0.3601 -0.1016,-1.3319 0.3363,-1.3006c0.1596,0.0133 0.3791,-0.0722 0.5254,0c0.1339,0.0665 0.5757,0.4788 0.6403,0.6251c0.0665,0.1435 0.0589,0.4997 0.0275,0.7315c-0.095,0.7011 0.4931,0.8332 1.026,1.1172c0.6698,0.3544 1.0593,0.8104 1.7186,1.1799c0.627,0.3525 1.5162,0.5491 2.1337,0.9149c0.4246,0.2536 0.6327,0.5434 0.8198,1.0146c0.362,0.8949 0.4921,1.7708 1.444,2.3085c1.3006,0.7362 2.2249,0.931 3.6813,0.7923c0.7258,-0.0665 2.0415,-0.2945 2.7464,-0.4674c1.1001,-0.2679 1.8772,-0.5529 2.9127,-1.008c0.3582,-0.1596 0.4551,-0.2707 0.722,-0.5025c0.2328,-0.2062 0.5586,-0.3154 0.8113,-0.4883c0.4285,-0.2907 0.5178,-0.6033 0.7752,-1.0222c0.2451,-0.4028 0.761,-1.6815 -0.0218,-1.8668" id="Shoe_Trim_Right" fill="#a2c6dd"/><g id="Right_Shoe_Lines" fill="#010101"><g id="ID0.46400449564680457"><path d="M214.8052,264.0678c0.3486,3.2433 3.4789,3.2452 5.6696,3.9387c4.4925,1.4174 6.3317,4.7348 11.9443,3.2044c1.7946,-0.4893 3.42,-1.4041 4.9676,-2.4083c1.7603,-1.0326 1.7176,-2.7417 -0.1302,-5.1262c-0.7866,-0.0332 -1.5665,-0.1282 -2.3379,-0.2783c-2.1727,-0.3449 -3.8181,-2.9868 -5.7998,-3.8779c-0.3087,-0.1387 -0.0351,-0.4228 0.2223,-0.3078c2.7978,1.2616 4.5401,3.819 7.8765,4.0859c1.1428,0.0931 2.3674,0.4456 2.8832,1.596c1.7129,3.8105 -6.4258,6.3973 -8.7466,7.03c-1.4972,0.4104 -3.3193,0.6479 -4.77,-0.0646c-3.3136,-1.6302 -5.8938,-3.5786 -9.6387,-4.4137c-3.325,-0.74 -3.4713,-5.795 -2.0149,-8.1899c0.1206,-0.2005 0.5899,-0.0057 0.4512,0.2204c-0.873,1.4411 -0.7476,3.0058 -0.5766,4.5913z" id="ID0.5707608116790652"/><path d="M214.3093,263.3895c-0.2166,-0.2261 0.2584,-0.3268 0.4161,-0.1577c1.5865,1.6834 3.7686,3.1711 6.1835,3.1322c0.2917,-0.0076 0.3753,0.3705 0.0409,0.3762c-2.5897,0.0427 -4.9362,-1.5438 -6.6405,-3.3507z" id="ID0.8593268063850701"/><path d="M237.2746,265.0159c-0.7106,1.8943 -2.7474,2.7237 -4.5049,3.3364c-2.1299,0.7391 -4.4384,1.1191 -6.6225,0.4437c-1.937,-0.5995 -2.3294,-1.5656 -2.6666,-3.4438c-0.0466,-0.2584 0.4598,-0.1985 0.5025,0.0333c0.7591,4.2322 5.3789,3.5587 8.5016,2.622c1.3081,-0.3914 2.7464,-0.9985 3.6499,-2.0596c0.3211,-0.3762 1.4535,-2.0406 0.4104,-2.2952c-0.3078,-0.0741 -0.2109,-0.4304 0.0969,-0.3563c0.9652,0.2337 0.9633,0.837 0.6327,1.7195z" id="ID0.3978022029623389"/><path d="M221.306,263.8617c0.8123,0.4702 1.7566,0.8445 2.4805,1.444c0.2593,0.2156 -0.134,0.4047 -0.3325,0.2394c-0.7885,-0.6536 -1.8554,-1.0745 -2.7427,-1.5865c-0.9329,-0.5415 -1.8658,-1.0792 -2.8291,-1.5637c-0.303,-0.1539 -0.0323,-0.438 0.2242,-0.3116c1.0906,0.5529 2.1413,1.1685 3.1996,1.7784z" id="ID0.5943231699056923"/><path d="M221.2604,265.5356c0.2822,0.1786 -0.1216,0.3733 -0.3325,0.2394c-1.3632,-0.8607 -2.7274,-1.7129 -4.1372,-2.4919c-0.2936,-0.1653 -0.0285,-0.4484 0.2242,-0.3078c1.4478,0.8018 2.8481,1.6777 4.2455,2.5603z" id="ID0.9454279155470431"/><path d="M216.5028,260.017c0.1378,-0.1919 0.6071,0.0048 0.4513,0.2204c-0.5567,0.7752 -0.247,2.1318 0.1558,2.9146c0.132,0.2556 -0.3715,0.2708 -0.475,0.0665c-0.4551,-0.8816 -0.7534,-2.336 -0.1321,-3.2015z" id="ID0.877310321200639"/><path d="M217.8053,260.8568c0.0874,-0.2337 0.5814,-0.0959 0.494,0.134c-0.1511,0.4085 -0.1967,0.8075 -0.058,1.2264c0.0931,0.2746 -0.4009,0.2812 -0.475,0.0627c-0.1596,-0.4864 -0.1387,-0.9443 0.039,-1.4231z" id="ID0.9973637200891972"/><path d="M220.8899,265.6239c0.0542,-0.2394 0.5501,-0.1092 0.494,0.134c-0.0598,0.2764 -0.0266,0.5624 -0.019,0.8426c0.0076,0.2689 -0.4968,0.1986 -0.5025,-0.0332c-0.0076,-0.3154 -0.0399,-0.6327 0.0275,-0.9434z" id="ID0.047688459511846304"/></g></g><g id="Left_Shoe_Lines" fill="#010101"><g id="ID0.6327651622705162"><path d="M235.2815,252.8132c4.3728,1.8012 8.5595,2.5213 13.2515,2.2762c2.5707,-0.1387 4.142,-1.3984 4.6911,-3.7126c0.6033,-2.5536 -1.7214,-3.0324 -3.4637,-3.4903c-2.8775,-0.7553 -5.5527,-1.7404 -8.1396,-3.2215c-0.2869,-0.1634 0.1634,-0.1577 0.2898,-0.0855c3.3145,1.8924 6.8362,3.0058 10.5877,3.648c0.0969,0.0181 0.2356,0.0532 0.2879,0.1425c1.5865,2.7702 0.8141,6.214 -2.7797,6.7593c-3.2376,0.4921 -7.3958,0.6593 -10.526,-0.4598c-2.9108,-1.0431 -5.4996,-1.4288 -8.5367,-1.5884c-0.3781,-0.02 -0.931,-0.5102 -1.0944,-0.6156c-0.2138,-0.1368 0.285,-0.0922 0.3838,-0.0295c1.633,1.0678 3.4029,-0.3002 5.0483,0.3772z" id="ID0.09817028185352683"/><path d="M249.8535,252.1957c-1.7736,0.798 -3.6271,0.3306 -5.4919,0.2451c-0.1435,-0.0067 -0.5406,-0.2356 -0.21,-0.2185c1.6644,0.076 3.3003,0.4607 4.9315,-0.0627c1.9351,-0.6213 1.9608,-2.4681 1.8145,-4.1173c-0.0067,-0.0922 0.4807,-0.0314 0.494,0.1282c0.1406,1.5751 0.1672,3.2604 -1.5381,4.0252z" id="ID0.4330968065187335"/><path d="M244.5003,252.3733c0.0475,0.0836 -0.4161,0.0504 -0.4902,-0.0817c-0.4123,-0.7267 -0.9557,-1.3594 -1.4735,-2.013c-0.1092,-0.1397 0.3734,-0.0732 0.4513,0.0256c0.5329,0.6698 1.0896,1.3215 1.5124,2.0691z" id="ID0.04435650538653135"/><path d="M242.8957,250.2729c0.286,0.0874 0.2413,0.266 -0.0465,0.1767c-2.5888,-0.7904 -5.3476,-1.3319 -8.0361,-1.6587c-0.2118,-0.0247 -0.4341,-0.247 -0.0874,-0.2062c2.737,0.3316 5.5347,0.8826 8.17,1.6882z" id="ID0.6301096081733704"/><path d="M240.9264,251.3692c0.2945,0.0712 0.2432,0.2489 -0.0466,0.1786c-1.4345,-0.3544 -2.8519,-0.761 -4.275,-1.1543c-1.1115,-0.3078 -2.4861,-0.7771 -3.6717,-0.7571c-0.115,0.0019 -0.5681,-0.2166 -0.3154,-0.2204c2.7407,-0.0504 5.6867,1.3043 8.3087,1.9532z" id="ID0.4619297771714628"/><path d="M233.885,251.4053c-1.0517,-0.0219 -2.9612,-0.039 -3.3231,-1.2987c-0.0352,-0.1225 0.4531,-0.056 0.4921,0.0817c0.3914,1.3623 3.4532,0.9415 4.5885,1.1657c1.8867,0.3752 3.7848,1.3271 5.7589,1.1656c0.1168,-0.0161 0.5728,0.1938 0.3154,0.2157c-2.6695,0.2166 -5.1652,-1.2787 -7.8318,-1.33z" id="ID0.6656136251986027"/><path d="M241.9134,252.7039c0.0456,0.0912 -0.4218,0.0523 -0.4902,-0.0817c-0.209,-0.4028 -0.3724,-0.8208 -0.6194,-1.2046c-0.0475,-0.0741 0.4066,-0.0465 0.4902,0.0817c0.247,0.3791 0.4114,0.8018 0.6194,1.2046z" id="ID0.04304128931835294"/></g></g></g><g data-paper-data="{&quot;index&quot;:null}" id="Eyes"><path d="M235.8477,105.1908c-0.4988,0.5947 1.2901,1.1789 1.6682,1.2093c0.8113,0.0665 1.9247,-0.0361 2.5811,-0.5567c0.418,-0.3306 0.7885,-0.835 0.5567,-1.4164c-0.2261,-0.571 -0.8645,-0.8332 -1.3898,-0.8588c-1.1989,-0.0589 -2.6847,0.589 -3.4105,1.5247M230.2864,103.9871c0.5975,-0.4341 1.1485,0.8493 0.8464,1.2322c-0.2394,0.3021 -1.0212,0.6393 -1.4031,0.759c-0.8702,0.2727 -1.9219,0.0124 -2.718,-0.4664c-0.7239,-0.438 -1.5399,-1.0935 -0.9034,-1.9361c0.5215,-0.6916 1.3822,-0.6099 2.1802,-0.5197c0.4988,0.0561 2.0444,0.2622 2.2154,0.798" id="Eye_Whites" fill="#f5f6f6"/><path d="M230.731,103.8294c-0.0874,0.6403 -0.1501,1.9589 -1.9133,1.3177c-0.7809,-0.2831 -0.5719,-1.4155 -0.5292,-2.091c0.4988,-0.3011 2.0834,0.3468 2.4805,0.7325" id="Right_Iris" fill="#33512e"/><path d="M239.7892,103.5454c0.3506,-0.0266 0.1112,1.6302 -0.2337,1.824c-0.5529,0.3106 -0.8103,0.2992 -1.2616,0.1149c-0.3363,-0.1377 -0.7144,-0.4246 -0.4398,-1.0336c0.1966,-0.4351 -0.0504,-0.7419 0.3876,-0.854c0.2261,-0.0599 1.3233,-0.0713 1.5475,-0.0513" id="Left_Iris" fill="#33512e"/><g id="Eye_Lines" fill="#010101"><g id="ID0.5999500970356166"><path d="M226.0019,104.1306c-0.1672,1.1257 1.5703,1.5846 2.3455,1.7081c1.0431,0.1643 2.4368,0.018 3.021,-0.9823c0.0656,-0.1112 0.418,0.0199 0.3715,0.0997c-0.6954,1.1932 -2.3399,1.2151 -3.5473,1.0241c-0.8588,-0.1358 -2.566,-0.6773 -2.5603,-1.8002c0.0171,-2.5745 5.6221,-1.065 6.1104,0.7524c0.0276,0.114 -0.3439,0.0579 -0.3714,-0.0532c-0.4313,-1.6046 -5.0436,-2.927 -5.3694,-0.7486z" id="ID0.11482875887304544"/><path d="M240.8247,104.692c0.191,1.1372 -1.4411,1.5637 -2.2505,1.6701c-0.9035,0.1178 -2.1233,0.0095 -2.7446,-0.7457c-0.0931,-0.1131 0.2746,-0.0741 0.3411,0.0076c0.8721,1.0621 4.142,0.7609 4.2883,-0.875c0.1225,-1.3642 -1.7832,-1.1153 -2.5698,-0.8341c-0.8018,0.286 -1.5361,0.8911 -1.7033,1.7556c-0.019,0.1064 -0.3933,0.0181 -0.3696,-0.1007c0.3506,-1.8221 4.5999,-3.2917 5.0084,-0.8778z" id="ID0.6037495052441955"/></g></g><g id="Iris_Lines" fill="#010101"><g id="ID0.13504116842523217"><path d="M229.0903,105.2164c0.8664,0.3458 1.6046,-0.2973 1.6198,-1.1599c0.0019,-0.0827 0.3733,-0.02 0.3714,0.0997c-0.0427,2.3285 -4.312,1.2103 -2.9317,-1.1951c0.0599,-0.1045 0.4123,0.0295 0.3715,0.1007c-0.4608,0.8018 -0.3772,1.7765 0.569,2.1546z" id="ID0.7619374375790358"/><path d="M238.6682,105.6639c-0.3638,-0.0675 -0.702,-0.1862 -0.8892,-0.5273c-0.2175,-0.3933 -0.019,-0.9823 0.0608,-1.3851c0.0209,-0.0978 0.3914,-0.0076 0.3715,0.0998c-0.1245,0.6241 -0.4009,2.0102 0.8141,1.596c0.6109,-0.209 0.7885,-1.0612 0.7648,-1.6198c-0.0019,-0.0769 0.3676,-0.0228 0.3733,0.1007c0.0371,0.8664 -0.4674,1.9285 -1.4953,1.7357z" id="ID0.1282954690977931"/></g></g></g><g data-paper-data="{&quot;index&quot;:null}" id="Shirt"><path d="M223.8919,116.378c-0.6479,0.4997 -0.0332,1.9636 0.5007,2.602c0.6954,0.8294 0.9186,1.8145 1.3566,2.8206c0.4845,1.1134 1.3281,2.6951 1.7774,3.8218c0.4209,1.0669 0.8873,1.6321 1.4877,2.6296c0.7999,1.3281 1.6996,1.5305 3.3212,1.692c1.5267,0.1501 2.414,-0.817 3.1873,-2.0359c0.7666,-1.2084 0.2375,-2.4681 -0.2651,-3.6603c-0.2175,-0.5159 -0.3914,-1.0859 -0.7277,-1.5789c-0.3838,-0.5643 -0.6289,-1.3015 -1.0887,-2.2145c0.8911,0.7011 2.0767,1.3509 2.9878,2.0739c1.881,1.4915 3.8522,2.4804 4.1391,5.0464c0.1406,1.2654 0.2005,3.2851 0.3781,4.5619c0.171,1.2378 0.4655,2.4681 0.8037,3.6641c0.3411,1.2094 0.7667,2.3636 1.4051,3.3972c0.5747,0.9253 1.805,1.5618 1.0079,2.8538c-0.5747,0.9301 -1.4753,1.9437 -2.394,2.4662c-0.5329,0.3059 -1.0877,0.5121 -1.6824,0.609c-0.8142,0.1301 -1.2559,-0.3743 -1.0821,1.1039c0.1691,1.4459 -0.2413,2.5127 0.1929,3.5644c0.5215,1.2654 0.2964,2.4567 0.5139,3.7981c0.1055,0.6517 0.3325,1.2587 0.5159,1.9c0.2185,0.7571 0.6013,1.3642 0.7923,2.0539c0.1729,0.6127 0.1016,1.1808 0.3154,1.7594c0.2242,0.6032 0.588,1.1609 0.8588,1.7556c0.5472,1.197 1.3138,2.0833 1.69,3.3677c0.1834,0.6289 0.4969,1.1913 0.3971,1.901c-0.0817,0.588 -0.512,1.1447 -0.5548,1.7385c-0.0931,1.3024 0.7049,2.3484 1.0241,3.401c0.2138,0.7039 0.3525,1.3138 0.2318,1.9465c-0.171,0.8845 -0.2688,0.9111 -1.0982,1.4374c-1.1875,0.7505 -2.6809,1.31 -3.8237,2.1175c-1.236,0.8712 -2.4064,1.4744 -3.705,2.2297c-1.217,0.7068 -2.2211,1.7109 -3.4637,2.3807c-1.0004,0.5377 -2.9878,1.3062 -4.0879,1.4449c-2.6419,0.3344 -4.4346,0.5738 -6.7165,-0.5253c-1.3053,-0.6289 -5.1281,-2.4567 -4.5552,-2.8519c1.1172,-0.7714 0.3135,-4.4783 -0.0019,-5.7798c-0.7011,-2.8719 -1.559,-5.9356 -1.7309,-9.1789c-0.1283,-2.395 0.3363,-1.0583 -0.2081,-3.6442c-0.6441,-3.06 1.9561,-2.8519 1.9561,-2.8519c0.3581,-0.5957 2.0501,-4.2769 2.1185,-5.5737c0.1016,-1.9342 -0.8531,-7.0936 0.1767,-7.6095c-0.8854,0.4418 -1.8003,1.0175 -3.0932,0.8626c-1.1077,-0.1349 -1.4345,0.0855 -2.5071,-0.2185c-1.3081,-0.3676 -2.052,-3.0856 -3.0761,-3.7962c-0.6697,-0.4664 -1.2521,-1.6596 -2.0482,-2.6913c-0.3657,-0.4731 -1.2027,-1.7879 -0.9832,-2.4244c0.2042,-0.5852 0.57,-1.179 0.7714,-1.7775c0.3971,-1.1808 0.8569,-1.4126 0.9699,-2.7113c0.2223,-2.5697 0.2879,-4.2636 0.8465,-6.9074c0.2764,-1.3082 1.2378,-1.862 1.9798,-3.0248c0.8512,-1.3376 2.7274,-2.395 3.9282,-3.0334c2.2021,-1.1694 4.4137,-1.6064 6.7165,-2.242" id="Shirt_1_" fill="#555d7b"/><g id="Shirt_Lines" fill="#010101"><g id="ID0.5607676925137639"><path d="M240.7981,133.5369c-0.1577,-1.8677 -0.1691,-3.7402 -0.3914,-5.6031c-0.4132,-3.4666 -4.4678,-5.6782 -7.1953,-7.3578c-0.2859,-0.1767 0.1387,-0.2897 0.3173,-0.1795c3.5492,2.1878 6.9911,4.3662 7.5145,8.7504c0.2375,1.9941 0.0979,4.0195 0.4579,6.0021c0.4152,2.2876 2.1119,4.3368 3.3212,6.2605c0.1359,0.2109 -0.3667,0.1824 -0.4655,0.0276c-1.5751,-2.5023 -3.3022,-4.8678 -3.5587,-7.9002z" id="ID0.17105125915259123"/><path d="M239.1736,145.3321c-0.2508,-0.0371 -0.3971,-0.362 -0.0579,-0.3097c1.9522,0.303 4.4213,-2.0435 5.2269,-3.6661c0.094,-0.1909 0.5785,-0.037 0.4949,0.1321c-0.8901,1.7964 -3.4884,4.1828 -5.6639,3.8437z" id="ID0.14216047013178468"/><path d="M239.5546,132.0159c-0.0152,-0.227 0.4854,-0.1377 0.4968,0.0532c0.4009,5.8786 -1.2872,11.7743 -0.6602,17.6197c0.0266,0.2223 -0.4769,0.1368 -0.4969,-0.0523c-0.627,-5.851 1.064,-11.7401 0.6603,-17.6206z" id="ID0.3323298548348248"/><path d="M241.2883,158.2293c0.913,3.0333 3.1721,5.2905 3.0723,8.5224c-0.0541,1.7281 -1.8021,3.6518 -2.6201,5.036c-0.0959,0.1615 -0.5747,-0.0057 -0.4579,-0.2043c0.4598,-0.8008 0.9424,-1.5884 1.4488,-2.3598c2.0833,-3.2851 0.9167,-5.0388 -0.646,-7.8745c-1.0935,-1.9846 -1.654,-4.2712 -2.1936,-6.4477c-1.2017,-4.8478 -1.2397,-9.7726 -1.1409,-14.7269c0.0028,-0.2318 0.5006,-0.1339 0.4968,0.0504c-0.1206,6.1826 0.2461,12.0469 2.0406,18.0044z" id="ID0.6100210850127041"/><path d="M232.213,130.1967c-1.8516,-0.0827 -3.0742,-1.7081 -4.067,-3.0742c-2.1631,-2.9802 -3.3858,-6.9417 -5.0464,-10.2258c-0.1168,-0.2299 0.3819,-0.1948 0.4636,-0.0295c1.8886,3.7297 3.2709,8.1681 5.9632,11.4c2.7407,3.2937 6.6756,0.8446 5.8482,-2.8481c-0.4019,-1.8012 -1.1923,-3.3468 -2.3209,-4.7851c-0.1482,-0.191 0.3563,-0.1729 0.4655,-0.0304c2.1917,2.792 4.5553,9.8505 -1.3062,9.5931z" id="ID0.5865667168982327"/><path d="M244.4756,174.8628c-0.1444,0.1321 -0.6118,-0.0636 -0.4579,-0.2042c1.9332,-1.7623 -0.666,-4.4308 -0.6698,-6.5294c0,-0.2299 0.4988,-0.1339 0.4988,0.0542c0.0038,2.1337 2.6495,4.8374 0.6289,6.6794z" id="ID0.9558550114743412"/><path d="M216.7109,171.8361c-0.1359,-0.2109 0.3667,-0.1814 0.4655,-0.0275c2.4643,3.8598 6.1398,8.7039 11.2071,8.6041c0.209,-0.0076 0.5216,0.304 0.1853,0.3097c-5.3789,0.1074 -9.2274,-4.7642 -11.8579,-8.8863z" id="ID0.7952060573734343"/><path d="M217.4025,179.7639c-0.2109,-0.2147 0.2726,-0.2394 0.4066,-0.1074c8.1453,8.2289 18.9781,-0.5548 26.3625,-5.2839c0.152,-0.0997 0.6032,0.1188 0.3857,0.2584c-7.6608,4.9058 -18.6599,13.7161 -27.1548,5.1329z" id="ID0.779692891985178"/><path d="M217.1507,171.6974c0.4513,2.4054 2.5346,5.8995 0.685,8.1254c-0.1235,0.1482 -0.5985,-0.0333 -0.456,-0.2043c1.9817,-2.3816 -0.8142,-8.2061 -1.1761,-10.7967c-0.4874,-3.5169 -0.8104,-6.688 -0.7714,-10.2258c-0.001,-0.2299 0.4959,-0.133 0.494,0.0532c-0.0485,4.4431 0.4075,8.6725 1.2245,13.0482z" id="ID0.2749494747258723"/><path d="M209.869,131.2521c0.5975,-2.3037 -0.171,-4.9561 1.0925,-7.0737c2.5137,-4.2066 7.7577,-6.1474 12.2179,-7.4442c0.1796,-0.0532 0.5862,0.2119 0.2964,0.2955c-4.8336,1.405 -10.4262,3.5501 -12.5485,8.5025c-0.6308,1.4696 -0.1729,4.1885 -0.5662,5.852c-0.4788,2.0244 -1.312,3.8703 -2.1261,5.7741c-0.0798,0.1928 -0.5681,0.0437 -0.4921,-0.134c0.817,-1.9133 1.6036,-3.7534 2.1261,-5.7722z" id="ID0.4790680818259716"/><path d="M213.7212,145.7615c-0.2935,-0.0969 -0.2204,-0.3829 0.076,-0.286c1.9076,0.627 4.789,0.3772 6.3498,-0.9794c0.1425,-0.1273 0.6109,0.0693 0.4551,0.2042c-1.7034,1.482 -4.7909,1.748 -6.8809,1.0612z" id="ID0.3614720068871975"/><path d="M222.4042,135.6753c0.1653,-0.076 0.6118,0.1568 0.3876,0.2575c-2.7968,1.2825 -2.5963,6.1712 -2.1698,8.6915c0.0371,0.2176 -0.4655,0.1378 -0.4968,-0.0522c-0.4437,-2.622 -0.6223,-7.5677 2.279,-8.8968z" id="ID0.6648804335854948"/></g></g></g><g data-paper-data="{&quot;index&quot;:null}" id="Right_Arm"><path d="M219.5571,146.1329c0.113,1.9219 0.0038,2.1907 0.095,3.8114c0.1187,2.0748 -0.1273,4.1753 -1.0127,6.1123c-0.5795,1.2626 -1.0583,2.7455 -2.7408,2.5137c-0.3619,-0.0484 -0.7372,-0.2954 -1.0374,-0.4978c-0.4056,-0.2745 -0.8065,-0.4883 -1.2464,-0.7049c-1.1656,-0.5776 -1.8458,-1.6425 -2.7759,-2.4823c-0.4227,-0.3829 -0.4636,-0.761 -0.7828,-1.2246c-0.303,-0.4436 -1.1894,-1.5551 -1.4012,-2.0691c-0.4114,-1.0041 -0.6375,-1.9389 -0.97,-2.9649c-0.3505,-1.0963 -0.6393,-1.54 -0.892,-2.6866c-0.2005,-0.9006 -0.3914,-1.9038 -0.874,-2.6828c-0.4114,-0.6622 -1.0146,0.1653 -1.445,0.4731c-0.6659,0.4778 -1.2426,1.0022 -1.8829,1.5c-0.645,0.4997 -1.2226,1.0213 -1.7309,1.6578c-0.1843,0.228 -0.3866,0.512 -0.6536,0.6602c-0.4009,0.2252 -1.0763,0.3059 -1.5513,0.3762c-0.989,0.1511 -2.0045,0.494 -2.9878,0.3886c-0.36,-0.039 -1.2435,-0.2119 -1.1561,-0.7705c-0.627,0.229 -1.3272,0.4057 -1.9836,0.6565c-0.304,0.114 -0.6213,0.2242 -0.9149,0.3182c-0.3401,0.1083 -0.7125,0.3715 -1.045,0.4237c-0.5681,0.0922 -1.4421,-0.3344 -1.5029,-0.9129c-0.0294,-0.266 -0.0484,-0.5529 -0.0332,-0.8161c0.0228,-0.3353 0.2375,-0.3467 0.3192,-0.6298c0.0142,-0.0475 0.057,-0.0988 0.0684,-0.1473c-0.5567,-0.0351 -1.3025,-0.2356 -1.3338,-0.9196c-0.0257,-0.5586 0.7533,-0.9538 1.1428,-1.272c0.7287,-0.5985 1.4136,-0.9719 2.2838,-1.3709c0.9263,-0.4237 1.8316,-0.817 2.7351,-1.2815c0.8084,-0.4152 1.7527,-0.5539 2.5232,-1.0365c0.4788,-0.2983 0.8312,-1.0231 0.911,-1.5675c0.0504,-0.341 0.0931,-0.6099 -0.1966,-0.7809c-0.286,-0.1672 -0.8123,-0.228 -1.141,-0.3021c-0.4731,-0.1064 -0.9072,-0.2755 -1.3395,-0.4902c-0.3505,-0.1738 -0.4674,-0.3372 -0.6773,-0.646c-0.1416,-0.208 -0.2195,-0.3752 -0.0038,-0.6346c0.1881,-0.228 0.5852,-0.3353 0.8464,-0.3429c1.274,-0.0466 2.5289,0.1064 3.7848,0.1634c1.9209,0.0855 3.3516,-1.4041 5.5167,-1.2987c0.6916,0.0352 1.4972,0.2784 2.0871,0.6546c0.2765,0.1757 0.5064,0.4208 0.7182,0.6688c0.2299,0.2688 0.2565,0.5035 0.3971,0.7904c0.1264,0.2536 0.3876,0.4227 0.5491,0.6526c0.2081,0.2926 0.3819,0.627 0.5548,0.9386c0.1986,0.3563 0.514,0.6261 0.6926,0.9871c0.1615,0.3211 0.2574,0.665 0.4227,0.9861c0.3563,0.683 0.8351,1.1172 1.3234,1.6862c0.7961,0.9358 1.5418,1.9323 2.1489,3.0286c0.1358,0.2413 0.3306,0.6964 0.5937,0.7686c0.1264,0.0332 0.4399,0.1387 0.5919,0.1425c0.3524,0.0123 0.6754,0.0446 1.026,0.0646c0.5757,0.0342 1.3442,-0.0114 1.919,-0.1207c0.3372,-0.0627 0.9129,-0.132 1.2226,-0.2793c1.7091,-0.8141 0.6603,0.7857 0.8389,0.5092" id="rightArm" fill="#d8ad8c"/><g id="rightArmLines" fill="#010101"><g id="ID0.6482561915181577"><path d="M219.3956,145.1193c0.0142,-0.1482 0.512,-0.0447 0.4949,0.132c-0.4085,4.2361 0.9206,8.4607 -1.6701,12.1942c-0.0864,0.1264 -0.5652,-0.0351 -0.4598,-0.1881c2.5527,-3.6841 1.2341,-7.9667 1.635,-12.1381z" id="ID0.9835319672711194"/><path d="M214.4119,146.2203c1.6948,2.3959 3.0115,4.4764 2.3104,7.5041c-0.0371,0.1577 -0.5339,0.0313 -0.495,-0.133c0.7591,-3.2747 -0.9072,-5.4416 -2.6961,-7.9724c-1.7128,-2.4235 -3.4665,-4.8251 -5.11,-7.2941c-0.1226,-0.1796 0.3724,-0.1245 0.456,0c1.7812,2.6723 3.6812,5.2715 5.5347,7.8954z" id="ID0.6821252652443945"/><path d="M208.8867,152.0049c-1.5124,-2.945 -1.9988,-6.309 -3.4827,-9.2872c-0.0637,-0.1321 0.4189,-0.0817 0.4949,0.0665c1.1875,2.3854 1.8592,4.9162 2.7142,7.4261c1.2806,3.7411 3.8427,6.2738 7.144,8.3486c0.2802,0.1767 -0.1558,0.2214 -0.304,0.1283c-2.774,-1.7442 -5.055,-3.7411 -6.5664,-6.6823z" id="ID0.7460683146491647"/><path d="M215.7761,158.7527c-0.171,-0.0066 -0.5311,-0.2783 -0.1967,-0.2622c0.9624,0.0447 1.7775,-0.285 2.1575,-1.216c0.0646,-0.1624 0.5529,-0.0085 0.4949,0.134c-0.4284,1.045 -1.3851,1.3955 -2.4557,1.3442z" id="ID0.5399242821149528"/><path d="M196.2213,140.9915c-0.1397,0.0589 -0.5919,-0.1453 -0.3971,-0.228c0.6916,-0.2954 2.7236,-1.7926 1.501,-2.5536c-0.286,-0.1767 0.152,-0.2213 0.3021,-0.1282c1.4829,0.9205 -0.4361,2.4975 -1.406,2.9098z" id="ID0.6365619981661439"/><path d="M195.8242,140.7635c0.1406,-0.0494 0.5918,0.1615 0.3971,0.228c-1.1581,0.4038 -8.4911,3.4162 -7.658,4.9277c0.1083,0.1947 -0.3857,0.1301 -0.4579,0c-0.9708,-1.7623 6.5237,-4.7386 7.7188,-5.1557z" id="ID0.19215049594640732"/><path d="M200.4573,147.6083c-0.0826,0.1596 -0.5614,-0.0057 -0.4949,-0.1321c1.1561,-2.1983 11.7334,-7.8337 7.3919,-10.6675c-0.2802,-0.1834 0.1539,-0.2242 0.3021,-0.1273c4.8403,3.1597 -5.9584,8.5623 -7.1991,10.9269z" id="ID0.7470083083026111"/><path d="M196.7153,148.3103c-0.7401,0.0703 -1.7756,0.2242 -2.3266,-0.3933c-1.3642,-1.5285 3.2671,-2.4329 4.0983,-2.3864c0.1691,0.0105 0.5292,0.2822 0.1967,0.2632c-0.9386,-0.0532 -4.067,0.4512 -4.0043,1.7613c0.057,1.215 4.5344,0.1168 5.3286,-0.1283c0.1425,-0.0427 0.5899,0.1701 0.399,0.229c-1.1856,0.3676 -2.4624,0.5348 -3.6917,0.6545z" id="ID0.6254154616035521"/><path d="M190.1812,146.7599c2.451,-1.5 5.4007,-1.8088 7.8631,-3.2613c0.1302,-0.0751 0.59,0.1149 0.3971,0.228c-1.9722,1.1637 -4.2446,1.5475 -6.3213,2.4757c-0.8996,0.4047 -4.1524,1.805 -1.7366,2.6828c0.3268,0.1187 0.0266,0.2622 -0.1909,0.1843c-1.6549,-0.6023 -1.3975,-1.464 -0.0114,-2.3095z" id="ID0.9454569141380489"/><path d="M190.6676,149.1074c-0.1378,0.0579 -0.5919,-0.1482 -0.3971,-0.228c1.2378,-0.5092 2.5517,-0.7904 3.7591,-1.3661c0.1378,-0.0656 0.5919,0.1339 0.3971,0.228c-1.2084,0.5776 -2.5213,0.8578 -3.7591,1.3661z" id="ID0.5843424391932786"/><path d="M196.9024,142.3234c0.133,-0.1007 0.5843,0.095 0.4617,0.1872c-1.8373,1.3756 -8.5557,2.4662 -7.9306,5.5765c0.0371,0.1757 -0.4607,0.0902 -0.4921,-0.0656c-0.6564,-3.2746 6.1066,-4.3063 7.961,-5.6981z" id="ID0.3663862473331392"/><path d="M188.0028,145.7995c-0.0436,-0.1663 0.4513,-0.0912 0.494,0.0665c0.0817,0.304 0.2784,0.4246 0.5938,0.4341c0.171,0.0057 0.531,0.2746 0.1985,0.2632c-0.5529,-0.0171 -1.1286,-0.172 -1.2863,-0.7638z" id="ID0.18257175525650382"/><path d="M200.8582,142.3234c0.0941,-0.1263 0.5729,0.039 0.4598,0.1872c-0.8151,1.0944 -1.748,2.1061 -2.5032,3.2452c-0.0836,0.1282 -0.5634,-0.0295 -0.4598,-0.1872c0.7552,-1.1409 1.6862,-2.1498 2.5032,-3.2452z" id="ID0.11023869644850492"/><path d="M194.1693,137.0405c-1.2056,-1.6027 1.6387,-1.3766 2.2363,-1.3338c1.5979,0.1168 2.887,0.2783 4.3937,-0.3297c0.9662,-0.3885 2.0169,-0.8683 3.0742,-0.93c1.8725,-0.1093 3.0334,0.6811 3.8779,2.3322c0.0675,0.1283 -0.417,0.0817 -0.4949,-0.0665c-2.129,-4.1657 -5.1405,-0.7818 -7.9344,-0.5605c-0.7306,0.0589 -1.5248,-0.0722 -2.2525,-0.1387c-0.6631,-0.0589 -2.1584,-0.456 -2.5517,0.4009c-0.5491,1.1913 2.2781,1.4811 2.8405,1.502c0.1748,0.0057 0.5349,0.2755 0.2005,0.2631c-1.0783,-0.0437 -2.6781,-0.1928 -3.3896,-1.139z" id="ID0.14409671537578106"/></g></g></g><g data-paper-data="{&quot;index&quot;:null}" id="Pants"><path d="M229.3354,249.9964c0.0741,0.0171 0.1444,-0.0076 0.2223,0.0114c0.0171,0.7144 0.2337,1.3319 0.4617,1.9428c0.2546,0.6935 0.2119,1.2454 0.3192,2.0035c0.0998,0.703 0.2765,1.3918 0.3895,2.0948c0.1055,0.6498 0.5453,1.0858 0.7201,1.6843c0.3249,1.1267 -2.0672,1.178 -2.9687,1.5903c-1.445,0.6584 -2.9127,1.5162 -4.3643,2.1223c-1.2189,0.5064 -2.2857,1.2806 -3.4561,0.7125c-1.5333,-0.7438 -1.3737,-0.6289 -3.0153,-1.7964c-1.7613,-0.9519 -2.2344,-0.8075 -3.1113,-2.3171c-0.4731,-0.8179 -0.5994,-1.6881 -0.5196,-2.5887c0.1149,-1.2806 0.3249,-2.1356 0.5842,-3.364c0.2375,-1.1295 0.8531,-2.2192 1.254,-3.3449c0.3952,-1.1115 0.5748,-2.1964 0.4532,-3.4884c-0.115,-1.2227 -0.4285,-2.262 -0.4807,-3.5407c-0.0969,-2.4747 0.1577,-5.0825 0.304,-7.4755c0.1558,-2.5717 0.512,-5.0151 0.8892,-7.5259c0.189,-1.273 0.2935,-2.4311 0.4655,-3.7297c0.1691,-1.293 0.6032,-2.3921 0.7381,-3.8542c0.0542,-0.5766 -0.1406,-1.1447 -0.0114,-1.7641c0.1406,-0.6755 0.5738,-1.1723 0.9757,-1.6644c0.8778,-1.0631 0.6811,-2.3399 0.6811,-3.6661c0,-1.4677 -0.0351,-2.8443 -0.1577,-4.3272c-0.1377,-1.6568 -0.2821,-3.3136 -0.5472,-5.0968c-0.3752,-2.5032 -0.816,-5.2791 -0.6013,-7.8451c0.6659,-0.1463 -0.6232,-1.501 -0.1036,-1.3281c0.4617,0.152 -0.4085,-1.5656 0.0485,-1.3917c0.5804,0.2223 -0.5767,0.171 -0.191,-1.748c0.0912,-0.456 -0.5785,-2.1375 -0.0589,-2.11c-0.1073,0.3211 -0.1387,-2.1764 -0.1672,-2.5089c-0.1596,-1.7946 0.4323,-4.8317 0.742,-4.6645c0.0503,0.0579 2.9089,1.5181 2.9089,1.5181c1.6606,0.7381 4.5752,0.8797 5.6002,0.7752c1.5381,-0.1596 1.6977,-0.2375 3.3231,-0.6137c2.015,-0.4674 11.2129,-6.6272 13.6373,-8.0085c0.6973,-0.3971 1.5219,13.7047 -0.2394,17.8182c-0.2898,0.6716 -0.2565,1.8648 -0.3753,2.4785c-0.1596,0.8142 -0.2688,1.7423 -0.3078,2.5584c-0.0703,1.4639 -0.2137,2.564 -0.3657,3.9928c-0.1672,1.5656 -0.3506,3.3754 -0.191,4.9001c0.1378,1.3234 -0.4322,2.679 -0.4303,4.0062c0,1.2929 -0.1815,2.8538 -0.1786,4.1638c0.0133,5.1566 -0.7182,9.9494 -0.4636,15.0347c0.0589,1.2265 0.3505,2.546 0.2318,3.7411c-0.1226,1.2483 -0.5453,2.4605 -1.1799,3.5511c-0.8626,1.4839 -0.2432,2.4292 0.1928,3.5815c0.3753,0.989 1.3281,1.9542 1.065,3.1075c-0.2138,0.9348 -1.4136,1.5827 -2.1727,2.1337c-1.0763,0.7809 -2.8832,1.7109 -4.0565,2.2952c-2.2097,1.1039 -3.6983,2.0928 -6.2643,2.1137" id="Pants_1_" fill="#244764"/><g id="Pants_Lines" fill="#010101"><g id="ID0.24004322243854403"><path d="M237.2356,188.0992c-1.0079,1.0098 -1.3993,2.698 -1.7983,4.0137c-0.058,0.191 -0.5529,0.057 -0.494,-0.1339c0.4284,-1.4193 0.8512,-3.098 1.9351,-4.1838c0.6498,-0.6508 1.6255,-0.8569 2.4643,-1.1429c0.172,-0.0608 0.5805,0.191 0.2964,0.2879c-0.8559,0.2935 -1.748,0.4997 -2.4035,1.159z" id="ID0.0030760220251977444"/><path d="M235.0221,202.0252c-0.8417,3.9416 -3.629,7.9544 -3.629,12.0384c0,0.2242 -0.4968,0.1273 -0.4968,-0.056c0,-3.5084 2.1584,-7.3397 3.2214,-10.6315c1.5476,-4.7946 2.2791,-10.2476 2.6591,-15.2541c0.0142,-0.1834 0.5101,-0.0741 0.4949,0.132c-0.3553,4.6389 -1.2768,9.2274 -2.2496,13.7712z" id="ID0.5458010639995337"/><path d="M219.4469,202.6836c0.2983,3.4238 0.6526,6.8191 0.6954,10.2628c0.0085,0.8617 -0.2309,1.9893 -0.7296,2.7113c-1.2702,1.8326 -1.4621,5.2355 -1.6046,7.4661c-0.0114,0.1814 -0.5092,0.0722 -0.494,-0.134c0.1302,-2.033 0.6612,-3.952 0.7648,-5.9983c0.0684,-0.2356 0.1615,-0.4579 0.2783,-0.6735c1.2616,-1.8221 1.2968,-2.6781 1.2692,-4.9619c-0.0446,-3.5511 -0.5434,-7.1098 -0.8388,-10.6485c-0.5377,-6.422 -1.6255,-13.6354 -0.3116,-20.0203c0.0389,-0.191 0.5358,-0.0684 0.4949,0.1301c-1.4269,6.9322 -0.1301,14.8808 0.476,21.8662z" id="ID0.8358211521990597"/><path d="M233.5097,215.0896c0.2565,2.5014 -0.8645,4.9837 -0.9015,7.4889c-0.0019,0.2242 -0.4988,0.1254 -0.4969,-0.0561c0.0276,-1.9313 0.5159,-3.7724 0.8256,-5.6724c0.4322,-2.6572 -0.6973,-5.2773 -0.8256,-7.9097c-0.0095,-0.2223 0.4893,-0.1311 0.4969,0.0541c0.1007,2.0672 0.6925,4.0413 0.9015,6.0952z" id="ID0.8330993736162782"/><path d="M245.3505,185.6596c-0.0551,4.4403 -1.7309,8.6003 -1.9256,13.033c-0.0076,0.1796 -0.5054,0.076 -0.494,-0.132c0.1729,-3.9112 1.4202,-7.5687 1.8373,-11.439c0.4541,-4.1999 -0.2252,-8.4787 -0.6517,-12.6464c-0.0247,-0.2213 0.4759,-0.1311 0.4949,0.0532c0.3819,3.7231 0.7828,7.3796 0.7391,11.1312z" id="ID0.9138506408780813"/><path d="M239.0644,240.7102c-1.7205,1.9969 -3.2253,2.6277 -5.8967,2.7464c-0.2052,0.0095 -0.5215,-0.2926 -0.1852,-0.304c2.7911,-0.1263 4.1363,-0.9148 5.8786,-2.9336c1.6473,-1.9085 2.0501,-4.8032 3.0875,-7.0689c0.0855,-0.1891 0.5719,-0.039 0.494,0.132c-1.141,2.4957 -1.5647,5.3333 -3.3782,7.4281z" id="ID0.2178500685840845"/><path d="M242.0056,215.3404c0.4028,-6.1018 0.7343,-12.1657 0.9851,-18.2723c0.0067,-0.1795 0.5026,-0.0741 0.495,0.134c-0.2005,4.9001 -0.304,9.7489 -0.703,14.6433c-0.5529,6.8115 -1.8592,15.1534 -0.3392,21.8775c0.0466,0.2052 -0.4541,0.1311 -0.4968,-0.056c-1.3129,-5.8169 -0.3316,-12.4156 0.0589,-18.3265z" id="ID0.1934722112491727"/><path d="M242.3096,242.8733c0.5586,1.0897 -0.6232,2.0178 -1.3671,2.5536c-1.824,1.3063 -4.0508,2.3323 -6.0211,3.4124c-1.7185,0.9396 -3.4922,1.4659 -5.4425,1.5571c-0.2052,0.0114 -0.5216,-0.2907 -0.1853,-0.3059c3.8352,-0.1777 6.7669,-2.5023 10.0358,-4.2171c0.8056,-0.4208 1.5162,-0.8512 2.1841,-1.4858c1.0497,-1.0041 -0.0874,-2.2116 -0.6033,-2.9412c-0.5842,-0.8236 -0.6849,-2.0909 -0.9034,-3.0485c-0.0466,-0.2109 0.4541,-0.1368 0.4968,0.0503c0.3895,1.6939 1.026,2.9089 1.806,4.4251z" id="ID0.2144880727864802"/><path d="M215.5063,237.9124c0.3638,-4.8583 0.5937,-10.4025 1.7888,-15.1411c0.0475,-0.1928 0.5434,-0.0589 0.495,0.1321c-1.1058,4.3785 -0.8474,9.0839 -1.4953,13.5242c-0.8313,5.6876 0.9272,10.1298 1.653,15.6123c0.0285,0.2147 -0.4731,0.1292 -0.4969,-0.0561c-0.6346,-4.8003 -2.317,-9.1323 -1.9446,-14.0714z" id="ID0.984399170614779"/><path d="M228.7806,259.466c-2.4747,0.7106 -5.319,3.7544 -8.037,3.0267c-1.0611,-0.2859 -2.1489,-1.1837 -3.0504,-1.7423c-0.5881,-0.3629 -3.0058,-1.3946 -3.2281,-2.0035c-1.7167,-4.7225 1.5285,-8.4018 1.577,-13.0312c0.0019,-0.2242 0.4987,-0.1254 0.4968,0.0561c-0.0522,4.8098 -5.1452,10.7768 0.4399,14.1721c1.6292,0.9889 3.856,2.8129 5.9394,1.9256c1.2464,-0.5329 2.412,-1.3214 3.6366,-1.9095c0.6992,-0.3372 4.8459,-1.3376 4.7367,-2.2372c-0.0266,-0.2166 0.475,-0.1292 0.4968,0.056c0.1577,1.2949 -2.1375,1.4393 -3.0077,1.6872z" id="ID0.7462755013257265"/><path d="M230.3614,237.1439c-1.2654,2.6932 0.9386,4.5476 0.6403,6.9872c-0.2631,2.1508 -1.6055,3.0856 -2.6144,4.9115c-0.0864,0.1577 -0.5671,-0.0038 -0.456,-0.2023c1.2987,-2.3484 2.9298,-3.1892 2.2544,-6.2748c-0.5254,-2.3845 -1.1315,-3.1435 -0.3154,-5.5556c0.6393,-1.8886 1.5713,-3.4561 1.9997,-5.4473c0.6346,-2.9526 0.1786,-6.2196 0.1321,-9.2273c-0.0057,-0.2242 0.4911,-0.1254 0.4949,0.056c0.0836,5.4103 0.2195,9.7442 -2.1356,14.7526z" id="ID0.21510788705199957"/><path d="M229.9805,251.0158c0.6422,2.3892 0.7296,4.6778 1.7926,6.9559c0.1083,0.2318 -0.3895,0.189 -0.4655,0.0256c-1.1153,-2.3959 -0.9224,-5.1138 -2.0225,-7.4556c-0.7268,-1.5475 -2.4653,-2.1023 -2.2392,-4.0242c0.0219,-0.1871 0.5187,-0.0722 0.495,0.1321c-0.2461,2.1004 1.9722,2.6267 2.4396,4.3662z" id="ID0.38066613022238016"/></g></g></g></g></g></svg>