<svg xmlns="http://www.w3.org/2000/svg" xmlns:xlink="http://www.w3.org/1999/xlink" version="1.1" width="96.13480651855468" height="256.41038024902343" viewBox="-2.190019557774067 -2.189985694885254 96.13480651855468 256.41038024902343"><g><g data-paper-data="{&quot;isPaintingLayer&quot;:true}" fill-rule="nonzero" stroke-linejoin="miter" stroke-miterlimit="10" stroke-dasharray="" stroke-dashoffset="0" style="mix-blend-mode: normal"><g stroke-linecap="butt"><path d="M 16.8029 252.0304 L 17.7029 242.3304 L 32.5029 242.9304 L 41.9029 245.2304 L 49.3029 252.0304 Z " fill="#ebebeb" stroke-width="1" stroke="none"/><path d="M 18.3029 243.7304 L 18.8029 191.4304 L 19.5029 131.3304 L 48.6029 131.3304 L 42.0029 193.1304 L 37.3029 243.7304 Z " fill="#00bcbd" stroke-width="1" stroke="none"/></g><g stroke-linecap="butt"><path d="M 54.7029 252.0304 L 55.6029 242.3304 L 70.4029 242.9304 L 79.8029 245.2304 L 87.2029 252.0304 Z " fill="#ebebeb" stroke-width="1" stroke="none"/><path d="M 53.9029 243.7304 L 50.2029 193.3304 L 43.8029 131.3304 L 73.8029 131.3304 L 74.5029 193.6304 L 74.5029 243.7304 Z " fill="#00bcbd" stroke-width="1" stroke="none"/></g><g data-paper-data="{&quot;origPos&quot;:null}" stroke-linecap="butt"><path d="M 80.1029 110.4526 C 76.9029 110.8526 71.5029 109.1526 71.5029 109.1526 C 71.5029 109.1526 63.4029 62.2526 70.4029 60.5526 C 83.0029 57.1526 85.3029 107.1526 85.3029 107.1526 C 85.3029 107.1526 83.2029 110.0526 80.1029 110.4526 Z " fill="#9e6b30" stroke-width="1" stroke="none"/><path d="M 65.7029 92.1526 C 65.7029 92.1526 56.7029 59.2526 68.2029 57.0526 C 78.3029 55.0526 89.8029 86.0526 89.8029 86.0526 Z " fill="#62a7a7" stroke-width="1" stroke="none"/></g><g data-paper-data="{&quot;origPos&quot;:null}" stroke-linecap="butt"><g data-paper-data="{&quot;origPos&quot;:null}"><path d="M 88.1029 134.2526 L 79.9029 136.6526 L 71.1029 109.5526 C 71.1029 109.5526 74.2029 105.3526 77.8029 105.6526 C 80.5029 105.8526 85.1029 106.6526 85.1029 106.6526 Z " data-paper-data="{&quot;origPos&quot;:null}" stroke-width="1" fill="#9e6b30" stroke="none"/></g><path d="M 84.6187 156.8255 C 82.7352 157.0947 83.5058 148.0755 81.7412 147.9137 C 80.3884 147.7726 82.0004 153.3665 81.5664 154.2674 C 81.0343 155.1876 78.2929 153.6894 78.2929 153.6894 C 78.2929 153.6894 75.7578 148.5832 75.3338 145.9149 C 74.2718 140.0087 79.9366 134.102 79.9366 134.102 L 87.2134 133.7891 C 87.2134 133.7891 91.6084 140.0575 91.753 144.4118 C 91.8397 148.4716 88.7451 153.9738 88.7451 153.9738 C 88.7451 153.9738 86.4427 156.7718 84.6187 156.8255 Z " data-paper-data="{&quot;origPos&quot;:null,&quot;index&quot;:null,&quot;origRot&quot;:0}" stroke-width="1" fill="#9e6b30" stroke="none"/></g><path d="M 16.1029 136.6304 L 16.3029 60.3304 C 16.3029 60.3304 32.1029 52.4304 45.6029 52.2304 C 59.1029 52.0304 70.9029 57.1304 73.5029 58.4304 C 75.9029 59.6304 76.1029 138.8304 76.1029 138.8304 C 76.1029 138.8304 58.3029 141.6304 46.3029 141.5304 C 34.0029 141.3304 16.1029 136.6304 16.1029 136.6304 Z " fill="#a7d2fe" stroke="none" stroke-width="1" stroke-linecap="butt"/><g stroke-linecap="butt"><path d="M 37.6029 42.4304 L 52.8029 45.8304 L 52.7029 54.9304 C 52.7029 54.9304 57.6029 55.8304 57.5029 58.6304 C 57.4029 63.1304 38.6029 65.5304 34.7029 58.6304 C 33.2029 55.2304 36.7029 54.0304 36.7029 54.0304 Z " data-paper-data="{&quot;origPos&quot;:null}" stroke-width="1" fill="#9e6b30" stroke="none"/><path d="M 33.0029 31.3304 C 33.8029 33.7304 33.3029 36.0304 32.0029 36.4304 C 30.6029 36.9304 28.8029 35.4304 28.0029 33.0304 C 27.2029 30.6304 27.7029 28.3304 29.0029 27.9304 C 30.4029 27.4304 32.2029 29.0304 33.0029 31.3304 Z " data-paper-data="{&quot;origPos&quot;:null}" stroke-width="1" fill="#9e6b30" stroke="none"/><path d="M 64.5029 29.1304 C 64.5029 41.9304 56.6029 48.7304 49.8029 49.0304 C 38.0029 49.2304 30.4029 39.5304 30.4029 26.7304 C 30.4029 13.9304 32.6029 4.3304 47.6029 3.6304 C 59.0029 3.0304 66.4654 15.1304 64.4654 28.8304 Z " data-paper-data="{&quot;origPos&quot;:null}" stroke-width="1" fill="#9e6b30" stroke="none"/></g><path d="M 52.9029 41.8304 C 52.9029 42.5304 50.9029 44.0304 49.2029 44.0304 C 47.5029 44.0304 45.7029 42.1304 45.7029 41.3304 C 45.7029 40.6304 47.9029 41.3304 49.7029 41.3304 C 51.5029 41.3304 52.9029 41.1304 52.9029 41.8304 Z " fill="#000000" stroke="none" stroke-width="1" stroke-linecap="butt"/><path d="M 51.0029 31.6304 C 51.0029 31.6304 52.5029 32.6304 52.4029 34.1304 C 52.4029 34.8304 49.9029 36.2304 49.9029 36.2304 " data-paper-data="{&quot;origPos&quot;:null}" fill="none" stroke="#000000" stroke-width="1.46" stroke-linecap="round"/><path d="M 31.6029 13.8304 " fill="none" stroke="#000000" stroke-width="4.38" stroke-linecap="round"/><g stroke-linecap="butt"><path d="M 6.7029 112.7304 C 4.2029 112.5304 0.4029 110.5304 0.4029 110.5304 C 0.4029 110.5304 6.0029 59.9304 20.3029 60.2304 C 31.5029 59.9304 13.1029 111.5304 13.1029 111.5304 C 13.1029 111.5304 9.2029 112.9304 6.7029 112.7304 Z " fill="#9e6b30" stroke-width="1" stroke="none"/><path d="M 0.6029 86.8304 C 0.6029 86.8304 12.0029 57.8304 19.0029 58.6304 C 35.6029 60.4304 22.9029 95.5304 22.9029 95.5304 Z " fill="#62a7a7" stroke-width="1" stroke="none"/></g><g data-paper-data="{&quot;origPos&quot;:null}"><path d="M 38.8029 22.6304 C 38.8029 22.6304 41.7029 21.8304 43.2029 21.8304 C 44.9029 21.7304 46.9029 22.6304 46.9029 22.6304 " fill="none" stroke="#000000" stroke-width="1.46" stroke-linecap="round"/><g><path d="M 38.7029 26.9304 C 38.7029 26.9304 40.9029 25.0304 43.2029 25.2304 C 45.7029 25.4304 46.1029 26.7304 46.1029 26.7304 " fill="none" stroke="#000000" stroke-width="1.46" stroke-linecap="round"/><path d="M 42.0029 27.7304 C 42.0029 26.5304 42.9029 25.5304 44.1029 25.5304 C 45.3029 25.5304 46.2029 26.5304 46.2029 27.7304 C 46.2029 28.9304 45.3029 29.9304 44.1029 29.9304 C 43.0029 29.9304 42.0029 28.9304 42.0029 27.7304 Z " fill="#000000" stroke="none" stroke-width="1" stroke-linecap="butt"/></g></g><g data-paper-data="{&quot;origPos&quot;:null}"><path d="M 54.2029 22.5304 C 54.2029 22.5304 56.5029 21.7304 58.2029 21.7304 C 59.7029 21.8304 61.4029 22.2304 61.4029 22.2304 " fill="none" stroke="#000000" stroke-width="1.46" stroke-linecap="round"/><g><path d="M 54.2029 26.6304 C 54.2029 26.6304 54.7029 25.3304 57.1029 25.1304 C 59.4029 24.9304 61.6029 25.8304 61.6029 25.8304 " fill="none" stroke="#000000" stroke-width="1.46" stroke-linecap="round"/><path d="M 59.1029 29.6304 C 57.9029 29.6304 57.0029 28.6304 57.0029 27.4304 C 57.0029 26.2304 57.9029 25.2304 59.1029 25.2304 C 60.3029 25.2304 61.2029 26.2304 61.2029 27.4304 C 61.2029 28.6304 60.3029 29.6304 59.1029 29.6304 Z " fill="#000000" stroke="none" stroke-width="1" stroke-linecap="butt"/></g></g><g stroke-linecap="butt"><path d="M 2.4029 137.4304 L 0.3029 109.7304 C 0.3029 109.7304 4.3029 108.5304 6.6029 108.1304 C 9.8029 107.5304 13.3029 111.4304 13.3029 111.4304 L 10.1029 139.1304 Z " stroke-width="1" fill="#9e6b30" stroke="none"/><path d="M 4.9029 156.5304 C 4.9029 156.5304 0.8029 151.7304 0.1029 147.7304 C -0.5971 143.4304 2.5029 136.4304 2.5029 136.4304 L 9.7029 135.3304 C 9.7029 135.3304 16.4029 140.0304 16.5029 146.0304 C 16.6029 148.7304 15.1029 154.2304 15.1029 154.2304 C 15.1029 154.2304 12.7029 156.2304 12.0029 155.4304 C 11.3029 154.6304 11.9029 148.8304 10.6029 149.2304 C 8.9029 149.7304 11.4029 158.4304 9.5029 158.5304 C 7.7029 158.8304 4.9029 156.5304 4.9029 156.5304 Z " stroke-width="1" fill="#9e6b30" stroke="none"/></g><path d="M 56.3029 13.7304 C 53.8029 13.2304 41.3029 13.6304 39.0029 14.7304 C 33.3029 17.6304 32.4029 29.1304 32.4029 29.1304 L 29.8029 28.3304 C 29.8029 28.3304 26.3029 3.4304 47.7029 3.6304 C 59.1029 3.0304 64.0029 13.8304 64.5029 20.3304 C 64.5029 20.2304 64.4029 15.3304 56.3029 13.7304 Z " data-paper-data="{&quot;origPos&quot;:null}" fill="#4d2f15" stroke="none" stroke-width="1" stroke-linecap="butt"/><g data-paper-data="{&quot;origPos&quot;:null}" stroke-linecap="butt"><path d="M 27.7183 31.6766 C 27.894 33.7437 29.4406 35.2531 29.1481 35.3299 C 28.9291 35.3874 28.7293 35.4304 28.5029 35.4304 C 26.6029 35.4304 26.3029 33.6304 26.3029 31.4304 C 26.3029 29.1304 27.326 27.4843 28.726 27.4843 C 30.126 27.4843 27.372 27.6034 27.7183 31.6766 Z " data-paper-data="{&quot;origPos&quot;:null}" fill="#c5c5c5" stroke-width="1" stroke="none"/><path d="M 29.1029 31.7304 C 29.1029 30.9304 29.8029 30.2304 30.6029 30.2304 C 31.4029 30.2304 32.1029 30.9304 32.1029 31.7304 C 32.1029 32.5304 31.4029 33.2304 30.6029 33.2304 C 29.8029 33.2304 29.1029 32.5304 29.1029 31.7304 Z " data-paper-data="{&quot;origPos&quot;:null}" fill="#f2f2f2" stroke-width="1" stroke="none"/><path d="M217.27275,85.22729c0.7391,1.05988 -0.07179,3.45282 -1.00531,2.84416c-0.66052,-0.41684 -0.03726,-1.47202 -0.35833,-2.07143c-0.80346,-1.5 -2.44019,-0.15627 -2.72727,-1.31818c-0.18213,-0.73712 2.38641,-1.89881 4.09091,0.54545z" data-paper-data="{&quot;origPos&quot;:null,&quot;origRot&quot;:0}" fill="#f2f2f2" stroke-width="0" stroke="none" transform="matrix(1,0,0,1,-185.3971,-57.0196)"/></g><g data-paper-data="{&quot;origPos&quot;:null}" stroke-linecap="butt"><path d="M 44.3029 3.2304 C 45.1029 7.0304 39.5778 4.9611 35.0029 7.2304 C 30.5769 9.4259 28.2205 14.4981 25.8029 11.5304 C 23.735 8.992 27.5786 6.137 31.4363 3.5638 C 36.7046 0.0496 43.8492 1.0754 44.3029 3.2304 Z " data-paper-data="{&quot;origPos&quot;:null}" stroke-width="1" fill="#000000" stroke="none"/><path d="M 45.9029 5.4304 C 46.7029 9.2304 40.7029 6.6304 35.5029 11.4304 C 30.5339 16.0172 29.5709 21.7689 26.2029 20.1304 C 23.7363 18.9304 27.8236 12.7077 31.1363 8.7638 C 36.5571 2.3099 45.4492 3.2754 45.9029 5.4304 Z " data-paper-data="{&quot;origPos&quot;:null}" stroke-width="1" fill="#000000" stroke="none"/><path d="M 46.5029 8.0304 C 47.3029 11.8304 40.5029 10.0304 36.3029 15.3304 C 32.1029 20.6304 32.1709 25.6689 28.8029 24.0304 C 26.3363 22.8304 29.3236 15.9077 32.6363 11.9638 C 38.0571 5.5099 46.0492 5.8754 46.5029 8.0304 Z " data-paper-data="{&quot;origPos&quot;:null}" stroke-width="1" fill="#000000" stroke="none"/><path d="M 48.8029 9.6304 C 49.8029 14.0304 45.6876 11.5293 41.7029 14.4304 C 36.8586 17.9574 42.5709 24.9689 38.6029 26.1304 C 35.9363 27.3304 33.1236 17.7077 36.4363 13.7638 C 41.8571 7.3099 48.3492 7.4754 48.8029 9.6304 Z " data-paper-data="{&quot;origPos&quot;:null}" stroke-width="1" fill="#000000" stroke="none"/></g><g data-paper-data="{&quot;origPos&quot;:null}" stroke-linecap="butt"><path d="M 64.3972 7.166 C 63.0181 9.5366 60.2061 5.6442 55.3176 4.9281 C 50.2647 4.188 45.9527 7.1673 45.5359 3.3064 C 45.2996 1.1169 51.652 -1.2271 57.6727 0.7368 C 65.6706 3.3457 64.3972 7.166 64.3972 7.166 Z " data-paper-data="{&quot;origPos&quot;:null,&quot;index&quot;:null,&quot;origRot&quot;:0}" stroke-width="1" fill="#000000" stroke="none"/><path d="M 60.2381 6.025 C 65.196 9.5045 70.9807 15.996 68.8782 17.7579 C 66.0075 20.1634 63.0798 13.2164 57.1475 9.9701 C 50.9396 6.5728 48.6842 9.3379 48.3038 6.6683 C 47.9149 3.9387 55.7006 2.8405 60.2381 6.0249 Z " data-paper-data="{&quot;origPos&quot;:null,&quot;index&quot;:null,&quot;origRot&quot;:0}" stroke-width="1" fill="#000000" stroke="none"/><path d="M 62.7064 12.4648 C 65.6979 17.2074 68.3054 25.3418 64.0721 25.2422 C 60.8701 25.1668 62.8767 22.9437 60.1393 17.0187 C 57.3031 10.8799 47.9505 12.5868 48.8653 8.8128 C 49.3842 6.6725 57.4837 5.8495 62.7064 12.4648 Z " data-paper-data="{&quot;origPos&quot;:null,&quot;index&quot;:null,&quot;origRot&quot;:0}" stroke-width="1" fill="#000000" stroke="none"/></g></g></g></svg>