<svg xmlns="http://www.w3.org/2000/svg" xmlns:xlink="http://www.w3.org/1999/xlink" version="1.1" width="6.444080829620361" height="8.631203174591064" viewBox="0.24700003862380981 1.3152967691421509 6.444080829620361 8.631203174591064">
  <!-- Exported by Scratch - http://scratch.mit.edu/ -->
  <g id="ID0.9421495934948325">
    <path id="ID0.37715673074126244" fill="#FF0000" stroke="#000000" stroke-width="0.8733332810798965" d="M 4.4795 2.7234 C 5.1198 3.1747 5.6189 3.6974 5.9089 4.1774 C 6.1995 4.658 6.2802 5.0952 6.0825 5.3758 C 5.8848 5.6563 5.4458 5.7273 4.8956 5.6151 C 4.346 5.5035 3.6859 5.2091 3.0456 4.7578 C 2.4052 4.3065 1.9061 3.7838 1.6162 3.3038 C 1.3255 2.8233 1.2448 2.386 1.4425 2.1055 C 1.6402 1.8249 2.0792 1.7539 2.6294 1.8661 C 3.179 1.9778 3.8391 2.2721 4.4795 2.7234 Z "/>
    <path id="ID0.7872034898027778" fill="none" stroke="#000000" stroke-width="0.9999999765023586" stroke-linecap="round" d="M 3.109 4.6838 L 0.747 8.0351 L 2.7496 9.4465 "/>
    <path id="ID0.800788416992873" fill="none" stroke="#000000" stroke-width="0.9999999765023586" stroke-linecap="round" d="M 1.9398 6.5227 L 3.738 7.7901 "/>
  </g>
</svg>