<svg xmlns="http://www.w3.org/2000/svg" xmlns:xlink="http://www.w3.org/1999/xlink" version="1.1" width="80.7633207495866" height="38.05751783210613" viewBox="-0.41460992673326436 -0.384209933671245 80.7633207495866 38.05751783210613">
  <defs>
    <radialGradient id="grad_1" cx="0.3533" cy="0.2097" r="1.02739">
      <stop offset="0" stop-color="#FFFF99" stop-opacity="1"/>
      <stop offset="1" stop-color="#CC7700" stop-opacity="1"/>
    </radialGradient>
    <radialGradient id="grad_2" cx="0.3533" cy="0.2097" r="1.02739">
      <stop offset="0" stop-color="#FFFF99" stop-opacity="1"/>
      <stop offset="1" stop-color="#CC7700" stop-opacity="1"/>
    </radialGradient>
    <radialGradient id="grad_3" cx="0.321" cy="0.3564" r="0.8826999999999999">
      <stop offset="0" stop-color="#FFFF99" stop-opacity="1"/>
      <stop offset="1" stop-color="#CC7700" stop-opacity="1"/>
    </radialGradient>
    <radialGradient id="grad_4" cx="0.3874" cy="0.46240000000000003" r="0.7963800000000001">
      <stop offset="0" stop-color="#FFFF99" stop-opacity="1"/>
      <stop offset="1" stop-color="#CC7700" stop-opacity="1"/>
    </radialGradient>
    <radialGradient id="grad_5" cx="0.4814" cy="0.4573" r="0.70551">
      <stop offset="0" stop-color="#FFFF99" stop-opacity="1"/>
      <stop offset="1" stop-color="#CC7700" stop-opacity="1"/>
    </radialGradient>
    <radialGradient id="grad_6" cx="0.537" cy="0.47979999999999995" r="0.6981">
      <stop offset="0" stop-color="#FFFF99" stop-opacity="1"/>
      <stop offset="1" stop-color="#CC7700" stop-opacity="1"/>
    </radialGradient>
    <radialGradient id="grad_7" cx="0.3448" cy="0.37329999999999997" r="0.8517600000000001">
      <stop offset="0" stop-color="#FF00BF" stop-opacity="1"/>
      <stop offset="1" stop-color="#990072" stop-opacity="1"/>
    </radialGradient>
  <radialGradient id="grad_1-.8573749661445618,0,0,0.8573749661445618,-23.150000000000006,-48.89999999999999" cx="75.5893" cy="5.2025" r="11.2412" gradientUnits="userSpaceOnUse">
      <stop offset="0" stop-color="#FFFF99" stop-opacity="1"/>
      <stop offset="1" stop-color="#CC7700" stop-opacity="1"/>
    </radialGradient><radialGradient id="grad_2-0.8573749661445618,0,0,0.8573749661445618,167.85000000000002,-48.8" cx="69.1107" cy="5.3025" r="11.2412" gradientUnits="userSpaceOnUse">
      <stop offset="0" stop-color="#FFFF99" stop-opacity="1"/>
      <stop offset="1" stop-color="#CC7700" stop-opacity="1"/>
    </radialGradient><radialGradient id="grad_3-.8573749661445618,0,0,0.8573749661445618,-23.05000000000001,-48.8" cx="11.3349" cy="13.327" r="31.8041" gradientUnits="userSpaceOnUse">
      <stop offset="0" stop-color="#FFFF99" stop-opacity="1"/>
      <stop offset="1" stop-color="#CC7700" stop-opacity="1"/>
    </radialGradient><radialGradient id="grad_4-.8573749661445618,0,0,0.8573749661445618,-23.05000000000001,-48.8" cx="50.0808" cy="18.4571" r="27.667" gradientUnits="userSpaceOnUse">
      <stop offset="0" stop-color="#FFFF99" stop-opacity="1"/>
      <stop offset="1" stop-color="#CC7700" stop-opacity="1"/>
    </radialGradient><radialGradient id="grad_5-.8573749661445618,0,0,0.8573749661445618,-23.05000000000001,-48.8" cx="32.9366" cy="18.3272" r="4.9162" gradientUnits="userSpaceOnUse">
      <stop offset="0" stop-color="#FFFF99" stop-opacity="1"/>
      <stop offset="1" stop-color="#CC7700" stop-opacity="1"/>
    </radialGradient><radialGradient id="grad_6-.8573749661445618,0,0,0.8573749661445618,-23.05000000000001,-48.8" cx="35.6847" cy="18.5425" r="4.8645" gradientUnits="userSpaceOnUse">
      <stop offset="0" stop-color="#FFFF99" stop-opacity="1"/>
      <stop offset="1" stop-color="#CC7700" stop-opacity="1"/>
    </radialGradient><radialGradient id="grad_7-.0551724433898926,0,0,0.9988965392112732,-212.3,-164.7" cx="17.1996" cy="16.6991" r="12.9098" gradientUnits="userSpaceOnUse">
      <stop offset="0" stop-color="#FF00BF" stop-opacity="1"/>
      <stop offset="1" stop-color="#990072" stop-opacity="1"/>
    </radialGradient></defs>
  <!-- Exported by Scratch - http://scratch.mit.edu/ -->
  <g id="ID0.44095461489632726">
    <path id="ID0.8694397993385792" fill="url(#grad_1-.8573749661445618,0,0,0.8573749661445618,-23.150000000000006,-48.89999999999999)" d="M 73.3244 2.2493 L 79.735 2.2493 L 79.735 4.3258 L 76.3947 4.3258 L 76.3947 7.1243 L 79.735 7.1243 L 79.735 9.4727 L 76.3947 9.4727 L 76.3947 12.2703 L 79.735 12.2703 L 79.735 16.3325 L 73.3244 16.3325 L 73.3244 2.2493 " stroke-width="0.8573749661445618"/>
    <path id="ID0.8694397993385792" fill="url(#grad_2-0.8573749661445618,0,0,0.8573749661445618,167.85000000000002,-48.8)" d="M 71.3756 2.3493 L 64.965 2.3493 L 64.965 4.4258 L 68.3053 4.4258 L 68.3053 7.2243 L 64.965 7.2243 L 64.965 9.5727 L 68.3053 9.5727 L 68.3053 12.3703 L 64.965 12.3703 L 64.965 16.4325 L 71.3756 16.4325 L 71.3756 2.3493 " stroke-width="0.8573749661445618"/>
    <path id="ID0.7121701026335359" fill="url(#grad_3-.8573749661445618,0,0,0.8573749661445618,-23.05000000000001,-48.8)" d="M 19.6824 22.4093 C 21.8464 22.4093 23.6006 20.6551 23.6006 18.4911 C 23.6006 16.3288 21.8464 14.5746 19.6824 14.5746 C 17.5184 14.5746 15.7642 16.3288 15.7642 18.4911 C 15.7642 20.6551 17.5184 22.4093 19.6824 22.4093 L 19.6824 22.4093 L 19.6824 22.4093 Z M 7.404 22.4093 C 9.568 22.4093 11.3222 20.6551 11.3222 18.4911 C 11.3222 16.3288 9.568 14.5746 7.404 14.5746 C 5.2399 14.5746 3.4858 16.3288 3.4858 18.4911 C 3.4858 20.6551 5.2399 22.4093 7.404 22.4093 L 7.404 22.4093 L 7.404 22.4093 Z M 26.0724 27.3795 C 26.0724 26.3618 25.8427 25.3989 25.4328 24.5399 C 23.9307 26.0025 21.8773 26.9054 19.6121 26.9054 C 17.2423 26.9054 15.104 25.9185 13.5865 24.3332 C 13.1124 25.2446 12.844 26.2803 12.844 27.3821 C 12.844 31.0353 15.8054 33.995 19.4578 33.995 C 23.1119 33.9933 26.0724 31.0328 26.0724 27.3795 L 26.0724 27.3795 L 26.0724 27.3795 Z M 25.5306 12.6746 C 25.8795 11.8696 26.0733 10.9805 26.0733 10.0468 C 26.0733 6.3935 23.1119 3.4321 19.4595 3.4321 C 15.8071 3.4321 12.8457 6.3935 12.8457 10.0468 C 12.8457 11.1391 13.1098 12.1671 13.475 12.9061 C 14.9994 11.2514 17.1849 10.2131 19.6138 10.2131 C 21.9262 10.2131 24.0199 11.1545 25.5306 12.6746 L 25.5306 12.6746 L 25.5306 12.6746 Z M 27.6337 15.5083 C 28.1499 17.1553 28.3308 19.9092 27.6337 21.7542 L 30.8575 18.6643 L 27.6337 15.5083 L 27.6337 15.5083 L 27.6337 15.5083 Z M 9.6794 9.9782 C 9.6794 4.539 14.0889 0.1295 19.5281 0.1295 C 24.9673 0.1295 29.3768 4.539 29.3768 9.9782 C 29.3768 11.9047 33.2058 16.7034 35.1015 18.9609 C 33.1149 20.5865 29.3768 25.3724 29.3768 27.3117 C 29.3768 32.7509 24.9673 37.1596 19.5281 37.1596 C 14.0889 37.1596 9.6794 32.7492 9.6794 27.3117 C 9.6794 26.6473 9.7454 25.9974 9.8715 25.3681 C 9.1007 25.6442 8.2699 25.7951 7.4048 25.7951 C 3.3692 25.7951 0.0991 22.5259 0.0991 18.4894 C 0.0991 14.4546 3.3692 11.1837 7.4048 11.1837 C 8.2476 11.1837 9.0578 11.3268 9.8123 11.5892 C 9.7249 11.0671 9.6794 10.5278 9.6794 9.9782 L 9.6794 9.9782 L 9.6794 9.9782 Z " stroke-width="0.8573749661445618"/>
    <path id="ID0.7789692673832178" fill="url(#grad_4-.8573749661445618,0,0,0.8573749661445618,-23.05000000000001,-48.8)" d="M 31.2647 15.0341 L 79.835 15.0341 L 79.835 22.4367 L 31.2647 22.4367 L 31.2647 15.0341 L 31.2647 15.0341 Z " stroke-width="0.8573749661445618"/>
    <path id="ID0.578137279022485" fill="url(#grad_5-.8573749661445618,0,0,0.8573749661445618,-23.05000000000001,-48.8)" d="M 31.8066 15.2142 C 31.8066 14.5171 32.3321 13.9504 32.9803 13.9504 L 32.9803 13.9504 C 33.6285 13.9504 34.1541 14.5163 34.1541 15.2142 L 34.1541 22.2567 C 34.1541 22.9546 33.6285 23.5213 32.9803 23.5213 L 32.9803 23.5213 C 32.3321 23.5213 31.8066 22.9554 31.8066 22.2567 L 31.8066 15.2142 L 31.8066 15.2142 L 31.8066 15.2142 L 31.8066 15.2142 Z " stroke-width="0.8573749661445618"/>
    <path id="ID0.029240664094686508" fill="url(#grad_6-.8573749661445618,0,0,0.8573749661445618,-23.05000000000001,-48.8)" d="M 34.4241 15.2142 C 34.4241 14.5171 34.9497 13.9504 35.5979 13.9504 L 35.5979 13.9504 C 36.2461 13.9504 36.7716 14.5163 36.7716 15.2142 L 36.7716 22.2567 C 36.7716 22.9546 36.2461 23.5213 35.5979 23.5213 L 35.5979 23.5213 C 34.9497 23.5213 34.4241 22.9554 34.4241 22.2567 L 34.4241 15.2142 L 34.4241 15.2142 L 34.4241 15.2142 L 34.4241 15.2142 Z " stroke-width="0.8573749661445618"/>
    <path id="ID0.4025340974330902" fill="url(#grad_7-.0551724433898926,0,0,0.9988965392112732,-212.3,-164.7)" stroke="none" d="M 19.5741 11.1058 C 21.6845 11.1058 23.5975 11.9449 24.9819 13.3014 C 26.3673 14.6579 27.2241 16.5308 27.2241 18.5975 C 27.2241 20.6642 26.3673 22.5372 24.9819 23.8937 C 23.5975 25.2502 21.6845 26.0892 19.5741 26.0892 C 17.4638 26.0892 15.5508 25.2502 14.1664 23.8937 C 12.7809 22.5372 11.9241 20.6642 11.9241 18.5975 C 11.9241 16.5308 12.7809 14.6579 14.1664 13.3014 C 15.5508 11.9449 17.4638 11.1058 19.5741 11.1058 Z " stroke-width="1.0274198706803501"/>
  </g>
</svg>