<svg version="1.1" xmlns="http://www.w3.org/2000/svg" xmlns:xlink="http://www.w3.org/1999/xlink" width="114.50036" height="99.13719" viewBox="0,0,114.50036,99.13719"><g transform="translate(-185.59506,-129.13926)"><g data-paper-data="{&quot;isPaintingLayer&quot;:true}" stroke="none" stroke-width="1" stroke-linecap="butt" stroke-linejoin="miter" stroke-miterlimit="10" stroke-dasharray="" stroke-dashoffset="0" style="mix-blend-mode: normal"><g data-paper-data="{&quot;index&quot;:null}" id="flippers_x2F_fins"><g id="Group" fill-rule="nonzero"><path d="M272.23272,196.88302c0.23802,0.47208 0.47605,0.70812 0.71407,0.94416c0.35703,0.94416 0.47605,2.12437 0.83308,2.95051c0.59506,1.29822 2.0232,2.12436 2.26122,3.42259c0.23803,1.29823 -0.95209,2.59645 -1.0711,3.89468c-0.11901,1.29823 0.59506,2.8325 0.11901,4.0127c-0.47604,1.1802 -2.1422,1.88833 -2.85627,2.95051c-0.71407,1.06219 -0.59506,2.8325 -1.42814,3.77666c-0.83308,0.94417 -2.61825,1.06219 -3.57034,2.00635c-0.95209,0.94416 -1.30913,2.59645 -2.38023,3.30457c-1.19012,0.82614 -2.85628,0.47208 -3.92738,0.94416c-1.30913,0.5901 -2.14221,2.12437 -3.33232,2.36041c-0.95209,0.23604 -2.14221,-0.82614 -3.21331,-0.70812c-0.95209,0.11803 -2.0232,1.29823 -3.0943,1.29823c-0.95209,0 -2.0232,-1.18021 -3.0943,-1.29823c-1.0711,-0.11802 -2.14221,1.06218 -3.21331,0.94416c-1.0711,-0.11802 -1.90418,-1.41625 -2.97528,-1.53427c-1.0711,-0.11802 -2.26122,0.82614 -3.33232,0.5901c-1.0711,-0.23604 -1.78517,-1.53427 -2.85627,-1.77031c-1.0711,-0.23604 -2.38023,0.5901 -3.33232,0.35406c-1.0711,-0.23604 -1.66616,-1.65229 -2.61825,-2.00635c-1.0711,-0.35406 -2.38023,0.35406 -3.33232,0c-0.59506,-0.23604 -1.07111,-1.88833 -2.14221,-2.83249c-0.71407,-0.59011 -2.38023,-0.47209 -3.21331,-1.29823c-0.71407,-0.70812 -0.71407,-2.36041 -1.54715,-3.18655c-0.71407,-0.82615 -2.38023,-0.82615 -3.0943,-1.65229c-0.71406,-0.82614 -0.47604,-2.47843 -1.19011,-3.30457c-0.71406,-0.94417 -2.26121,-1.18021 -2.85627,-2.00635c-0.59506,-0.94416 -0.23802,-2.47843 -0.71407,-3.42259c-0.59506,-1.06218 -2.0232,-1.53427 -2.38023,-2.59645c-0.35704,-1.06218 0.47604,-2.47843 0.35703,-3.42259c-0.11901,-0.94416 -0.35703,-2.12437 -0.35703,-2.95051c0.11901,-0.11802 0.11901,-0.11802 0.23802,-0.23604h3.80836c0.59506,0.23604 1.30913,0.47208 2.38023,0.5901c1.78517,0.23604 2.49924,-0.11802 3.45133,-0.5901l6.06958,0.11802c0.83308,0.35406 1.54715,0.5901 3.0943,0.5901c1.54715,0 2.38023,-0.23604 3.0943,-0.5901l6.3076,0.11802c0.83308,0.35406 1.54715,0.5901 3.0943,0.5901c1.54715,0 2.38023,-0.23604 3.0943,-0.5901l6.3076,0.11802c0.83308,0.35406 1.54715,0.5901 3.0943,0.5901c1.54715,0 2.38023,-0.23604 3.0943,-0.5901l6.3076,0.11802c0.83308,0.35406 1.54715,0.5901 3.0943,0.5901c1.30912,0 2.1422,-0.23604 2.85627,-0.5901h3.45133z" id="Shape" fill="#cec800"/><path d="M272.11373,201.2498c1.66615,0.82614 2.73726,2.00634 3.80836,3.30457c0,0.59011 -0.23803,1.18021 -0.47605,1.77031c-1.19012,-1.65229 -2.61825,-3.18655 -4.1654,-4.6028c-0.71407,0.35406 -1.42814,0.70812 -2.14221,1.06218c2.38023,2.59646 4.40342,5.66499 5.95057,8.73352c0,0.23604 0,0.47208 -0.11901,0.5901c-0.11901,0.35406 -0.35704,0.70812 -0.71407,0.94416c-1.78517,-3.54061 -3.92738,-6.84519 -6.54563,-9.7957c-0.71407,0.35406 -1.42814,0.5901 -2.26122,0.94416c-0.23802,0.11802 -0.47605,0.11802 -0.71407,0.23604c2.73727,4.36676 5.11749,8.85154 6.42662,13.69038c-0.11902,0.23604 -0.23803,0.5901 -0.47605,0.70812c-0.23802,0.23604 -0.47605,0.35406 -0.71407,0.5901c-1.30913,-5.07488 -3.68936,-9.91372 -6.66464,-14.51652c-1.19011,0.35406 -2.26122,0.70812 -3.45133,1.06218c2.61825,5.54696 4.40342,11.32997 5.47452,17.46703c-0.23802,0.23604 -0.35704,0.47208 -0.71407,0.70812c-0.23803,0.11802 -0.35704,0.23604 -0.59506,0.35406c-1.07111,-6.3731 -2.97529,-12.39215 -5.59354,-18.05713c-0.95209,0.23604 -1.90418,0.47208 -2.85627,0.70812c0.23802,0.94416 0.47605,1.88833 0.71407,2.83249c1.30912,5.1929 2.85627,11.56601 2.02319,17.23099c-0.23802,0.23604 -0.59506,0.35406 -0.83308,0.47208c-0.23802,0 -0.47605,0 -0.71407,0c1.19011,-5.90103 -0.71407,-12.98226 -2.26122,-18.52922c-0.11902,-0.47209 -0.23803,-1.06219 -0.47605,-1.53427c-0.71407,0.11802 -1.42814,0.23604 -2.26122,0.35406c0.95209,6.60915 0.59506,13.57235 0.11901,20.06348c-0.23802,0.11802 -0.59506,0.23604 -0.95209,0.23604c-0.23803,0 -0.35704,0 -0.59506,-0.11802c0.47605,-6.49113 0.95209,-13.45433 0,-19.94546c-1.30912,0.11802 -2.49923,0.23604 -3.80836,0.35406c0.23802,2.95052 0.35703,6.01905 0.23802,8.96956c-0.11901,3.30457 -0.47604,7.19925 -1.78517,10.3858c-0.11902,0 -0.35704,0 -0.47605,0c-0.35703,0 -0.59506,-0.23604 -0.95209,-0.35406c1.90418,-4.13072 1.78517,-9.67768 1.66616,-13.57236c0,-1.77031 -0.11901,-3.54061 -0.23802,-5.31092c-1.0711,0 -2.14221,0 -3.33232,0c0,3.30457 -0.23802,6.72717 -0.71407,10.03174c-0.47605,2.95051 -1.54715,5.66498 -2.49924,8.37945c-0.11901,0 -0.11901,0 -0.23802,0c-0.35703,-0.11802 -0.71407,-0.23604 -0.95209,-0.47208c0.83308,-2.00634 1.66616,-3.89467 2.02319,-6.01904c0.71407,-3.89468 1.0711,-7.90737 0.95209,-11.92007c-1.19011,0 -2.38022,-0.11802 -3.68935,-0.23604c-0.59505,5.90102 -2.1422,11.68403 -4.64144,17.23099c-0.47604,-0.11802 -0.83308,-0.47208 -1.19011,-0.94416c2.38023,-5.31092 3.80836,-10.73987 4.40342,-16.40485c-0.59506,0 -1.19011,-0.11802 -1.78517,-0.11802c-0.71406,-0.11802 -1.30912,-0.11802 -2.02319,-0.23604c-0.23802,1.77031 -0.59505,3.42259 -1.0711,5.1929c-0.83308,3.30457 -1.90418,7.31727 -3.80836,10.73986c-0.11902,0 -0.35704,0 -0.47605,-0.11802c-0.23803,-0.11802 -0.47605,-0.35406 -0.59506,-0.70812c2.49924,-4.24874 3.57034,-10.03174 4.28441,-14.16246c0.11901,-0.35406 0.11901,-0.70812 0.23802,-1.06218c-0.95209,-0.11802 -1.78517,-0.23604 -2.73726,-0.35406c-1.19011,4.6028 -3.0943,8.96956 -5.95057,12.62819c-0.23802,-0.11802 -0.47605,-0.23604 -0.71407,-0.47208c-0.11901,-0.11802 -0.23802,-0.35406 -0.35703,-0.47208c2.61826,-3.4226 4.40343,-7.55331 5.59354,-11.92007c-1.0711,-0.23604 -2.14221,-0.47208 -3.21331,-0.82614c-0.23802,0.47209 -0.47605,0.94417 -0.71407,1.41625c-1.42813,2.59645 -3.2133,5.42894 -5.47452,7.43529c-0.11902,-0.11802 -0.35704,-0.23604 -0.47605,-0.35406c-0.23802,-0.23604 -0.35703,-0.47208 -0.35703,-0.82614c2.38023,-2.12437 4.28441,-5.1929 5.71255,-8.02539c-1.30913,-0.47208 -2.61825,-1.06219 -3.92738,-1.77031c-1.19012,2.36041 -2.61825,4.48477 -4.76046,5.90102c-0.23803,-0.11802 -0.47605,-0.35406 -0.59506,-0.5901c-0.11901,-0.23604 -0.23802,-0.35406 -0.23802,-0.5901c1.90418,-1.29822 3.33232,-3.30457 4.40342,-5.42894c-1.19011,-0.82614 -2.38023,-1.77031 -3.57034,-2.83249c-1.0711,1.06218 -2.38022,2.00635 -3.68935,2.83249c-0.11901,-0.59011 -0.11901,-1.06219 0.11901,-1.65229c0.95209,-0.5901 1.78517,-1.41625 2.61825,-2.12437c-0.35704,-0.35406 -1.30913,-1.65229 -2.14221,-2.83249h3.57034c0.59506,0.23604 1.30913,0.47208 2.38023,0.5901c1.78517,0.23604 2.49924,-0.11802 3.45133,-0.5901l6.06958,0.11802c0.83308,0.35406 1.54715,0.5901 3.0943,0.5901c1.54715,0 2.38023,-0.23604 3.0943,-0.5901l6.3076,0.11802c0.83308,0.35406 1.54715,0.5901 3.0943,0.5901c1.54715,0 2.38023,-0.23604 3.0943,-0.5901l6.3076,0.11802c0.83308,0.35406 1.54715,0.5901 3.0943,0.5901c1.54715,0 2.38023,-0.23604 3.0943,-0.5901l6.3076,0.11802c0.83308,0.35406 1.54715,0.5901 3.0943,0.5901c1.30912,0 2.1422,-0.23604 2.85627,-0.5901h3.45133c0.23802,0.23604 0.47605,0.47208 0.71407,0.70812c0.23803,0.82614 0.35704,1.65229 0.59506,2.36041c-0.35703,0.23604 -0.71407,0.47208 -0.95209,0.70812z" id="Shape" fill="#fbdf00"/></g><g id="Group" fill-rule="nonzero"><path d="M207.84753,188.03148c-2.38023,1.77031 -5.83156,2.83249 -8.56882,4.6028c-2.85627,1.88833 -5.2365,4.83884 -8.09277,6.60915c-5.71255,-3.54062 1.66616,-18.52922 1.66616,-18.52922c0,0 -8.33079,-9.7957 -7.14068,-14.51652c3.68935,0.94417 6.66464,2.00635 10.11597,3.89468c3.0943,1.65229 7.37871,4.95686 10.94905,5.1929z" id="Shape" fill="#cec800"/><path d="M207.84756,187.20535c-5.47453,2.36041 -14.04335,4.83884 -18.56578,9.32362c-0.11901,-0.59011 -0.23802,-1.18021 -0.23802,-1.77031c4.99848,-4.60279 13.5673,-7.67133 18.68479,-8.61549v-0.11802c-5.83156,-1.06218 -12.25817,0.47208 -17.85171,2.59645c0.11902,-0.59011 0.35704,-1.18021 0.47605,-1.77031c5.47452,-2.00635 11.5441,-3.30457 17.25665,-2.36041l-0.11901,-0.82614c-3.80837,-0.47209 -7.61673,-1.29823 -11.54411,-1.29823c-1.07111,0 -2.38023,-0.11802 -3.92738,-0.11802c0.23803,-0.59011 0.47605,-1.06219 0.59506,-1.29823c0.23802,0 0.59506,0 0.83308,0c4.76045,-0.11802 9.28289,0.70813 13.80532,1.29823v-0.23604c0,0 0,0 -0.11901,0c-5.2365,-3.06853 -11.18707,-4.36676 -17.13764,-4.95686c-0.35703,-0.47209 -0.71407,-0.94417 -1.0711,-1.53427c6.3076,0.35406 12.49619,1.77031 18.08973,4.72082l0.11901,-0.94416c-3.21331,-2.00635 -6.66464,-3.77666 -9.99696,-4.95686c-3.57035,-1.18021 -7.02168,-2.71448 -10.71103,-3.77666c-0.23803,-0.59011 -0.35704,-1.18021 -0.59506,-1.65229c4.40342,1.18021 8.56882,3.06853 12.85323,4.6028c2.73726,0.94416 5.47452,2.00634 8.09277,3.30457l1.54715,0.70812l0.35703,3.54061l0.59506,5.66498z" id="Shape" fill="#fbdf00"/></g><g id="Group" fill-rule="nonzero"><path d="M210.4658,165.84364c-1.07111,1.18021 -1.42814,0.47209 -3.0943,1.41625c-1.42814,0.11802 -2.49924,0.82614 -3.0943,0.35406c-0.83308,-0.5901 -0.11901,-2.00634 -0.11901,-3.30457c0,-0.94416 -0.95209,-2.12437 -0.71407,-3.30457c0.23802,-0.94416 1.66616,-1.65229 2.02319,-2.71447c0.35703,-0.94416 -0.35703,-2.36041 0,-3.42259c0.47604,-1.29822 2.1422,-2.00634 2.73726,-3.30457c0.59505,-1.18021 0.35703,-3.06854 1.0711,-4.13072c0.71407,-1.1802 2.49924,-1.53427 3.45133,-2.59645c0.9521,-1.06219 1.07111,-2.8325 2.14221,-3.77666c1.07111,-0.82615 2.85628,-0.70813 4.04639,-1.41625c1.19012,-0.70812 1.90418,-2.24239 3.21331,-2.83249c1.30913,-0.47208 2.97528,0.11802 4.28441,-0.23604c1.30912,-0.35406 2.38022,-1.88833 3.68935,-2.12437c1.42814,-0.35406 2.97528,0.5901 4.28441,0.47208c1.54715,-0.23604 2.85628,-1.41625 4.04639,-1.53427c0.95209,0 1.90419,1.41625 3.0943,1.88833c0.95209,0.47208 2.61825,0 3.57034,0.82614c0.95209,0.70812 1.0711,2.36041 1.78517,3.18655c0.83307,0.94417 2.49923,1.18021 2.97528,2.12437c0.59506,1.06219 -0.35703,3.4226 -0.35703,4.6028c-1.19012,1.29822 -1.90418,1.88833 -4.1654,2.95051c-1.78517,0.82614 -4.1654,0.47208 -6.18859,1.1802c-1.90419,0.70812 -3.57035,2.36041 -5.59354,2.95051c-2.02319,0.5901 -4.40342,0.11802 -6.3076,0.5901c-2.26121,0.70812 -3.80836,2.36041 -5.35551,3.06853c-1.54715,1.06219 -2.1422,0.23605 -3.57034,1.29823c-1.42814,1.1802 -0.71407,2.00635 -2.14221,3.18655c-1.42813,1.18021 -2.1422,0.23605 -3.57034,1.41625c-1.42814,1.1802 -0.71407,2.12437 -2.14221,3.18655z" id="Shape" fill="#cec800"/><path d="M207.01442,166.43377c-0.11901,0.94416 -0.11901,0.94416 -0.23802,0.94416c-0.11901,0 -0.23802,0 -0.35703,0.11802c0,0 0,0 -0.11901,0c-0.23803,0 -0.47605,0.11802 -0.59506,0.11802v0c0.11901,-0.35406 0.23802,-0.70812 0.35703,-0.94416c-0.71406,0.11802 -1.42813,0.35406 -2.02319,0.70812c-0.23802,-0.35407 -0.11901,-0.94417 -0.11901,-1.53427c0.83308,-0.35406 1.78517,-0.5901 2.61825,-0.70812c0.23802,-0.70812 0.59506,-1.29823 0.95209,-2.00635c-1.30913,-0.47209 -2.73726,-0.94417 -4.1654,-1.29823c0,-0.23604 0,-0.47208 0,-0.70812c0.11901,-0.23604 0.23802,-0.47208 0.35703,-0.70812c1.54715,0.35407 2.97528,0.82615 4.40342,1.41625c0.59505,-0.94416 1.19011,-2.00635 1.90418,-2.95051c-0.35703,-0.35406 -0.71407,-0.5901 -1.0711,-0.82614c-1.19011,-0.94416 -2.38023,-1.65229 -3.57034,-2.36041c0,-0.23604 0,-0.35406 0.11901,-0.5901c0.11902,-0.23604 0.23803,-0.47208 0.47605,-0.70812c1.42814,0.70812 2.73726,1.53427 4.04639,2.59645c0.23802,0.23604 0.59506,0.47208 0.83308,0.70812c1.19012,-1.53427 2.49924,-3.06853 4.1654,-4.36676c-1.78517,-1.88833 -3.80836,-3.65863 -5.95057,-5.07488c0.11901,-0.23604 0.11901,-0.47208 0.23802,-0.5901c0.11901,-0.23604 0.35704,-0.47208 0.59506,-0.5901c2.26121,1.41624 4.40342,3.30457 6.18859,5.31092c1.30912,-1.06218 2.85627,-2.00635 4.52243,-2.95051c-0.23803,-0.35406 -0.35704,-0.70812 -0.59506,-0.94416c-1.54715,-2.24238 -3.57034,-4.24873 -5.71255,-6.13706c0.23802,-0.35406 0.35704,-0.70812 0.71407,-0.94416c0.11901,-0.11802 0.11901,-0.11802 0.23802,-0.11802c1.78518,1.53427 3.33232,3.06853 4.76046,4.83884c0.71407,0.82614 1.30912,1.77031 1.90418,2.71447c0.35703,-0.23604 0.71406,-0.35406 1.19011,-0.5901c1.42813,-0.59011 2.97528,-1.18021 4.52243,-1.77031c-1.66616,-3.18656 -3.57034,-6.25509 -5.71255,-9.08758c0.11902,-0.11802 0.23803,-0.11802 0.47605,-0.23604c0.35703,-0.11802 0.71407,-0.23604 1.0711,-0.23604c2.14221,2.95052 3.92738,5.90103 5.59354,9.08758c1.78518,-0.59011 3.68936,-1.06219 5.59354,-1.41625c-0.95209,-3.42259 -2.49924,-6.72717 -4.40342,-9.7957c0.11901,0 0.23802,-0.11802 0.35703,-0.11802c0.47605,-0.11802 0.9521,-0.11802 1.30913,0c1.78517,2.95051 3.21331,6.25509 4.28441,9.55966c1.0711,-0.23604 2.14221,-0.35406 3.21331,-0.5901c-0.11901,-2.47843 -0.23802,-5.07488 -0.83308,-7.55331c-0.11902,-0.70812 -0.35704,-1.53427 -0.47605,-2.36041c0.23802,-0.11802 0.59506,-0.23604 0.83308,-0.23604c0.23803,0 0.35704,0.11802 0.59506,0.11802c0.83308,3.18655 1.07111,6.49113 1.30913,9.67768c1.19011,-0.11802 2.26122,-0.23604 3.45133,-0.35406c0.23803,-2.36041 0.47605,-4.83884 0.59506,-7.19925c0.35703,0.11802 0.59506,0.23604 0.83308,0.35406c0.23803,0.11802 0.35704,0.35406 0.59506,0.5901c-0.11902,2.00634 -0.35704,4.13071 -0.47605,6.13706c0.83308,0 1.66616,-0.11802 2.49924,-0.11802c0.23802,-0.82614 0.59506,-1.65229 0.83308,-2.47843c0.47605,0.23604 0.9521,0.47208 1.30913,0.82614c-0.11902,0.47209 -0.35704,1.06219 -0.47605,1.53427c0.23802,0 0.59506,0 0.83308,0c-0.11902,0.94416 -0.35704,2.00635 -0.47605,2.71447v0.11802c0,0.11802 0,0.35406 0,0.47208c-0.11901,0.11802 -0.23802,0.23604 -0.35703,0.35406c0,0.11802 -0.11901,0.11802 -0.11901,0.11802c-0.11901,0.11802 -0.11901,0.11802 -0.23802,0.23604c-0.11901,0.11802 -0.11901,0.11802 -0.23802,0.23604l-0.11901,0.11802c-0.11901,0.11802 -0.23802,0.11802 -0.23802,0.23604v0c-0.47605,0.35406 -0.95209,0.70812 -1.66616,1.06218c-0.35703,0.11802 -0.59505,0.35406 -1.0711,0.47208c-0.35703,0.23604 -0.83308,0.35406 -1.19011,0.35406c-1.0711,0.23604 -2.14221,0.23604 -3.33232,0.35406h-0.11901c-0.23803,0 -0.35704,0.11802 -0.59506,0.11802c-0.11901,0 -0.11901,0 -0.23802,0c-0.23802,0 -0.47605,0.11802 -0.71407,0.23604c-1.90419,0.70812 -3.57035,2.36041 -5.59354,2.95051c-0.23802,0.11802 -0.59506,0.11802 -0.83308,0.23604h-0.11901c-0.23802,0 -0.47605,0.11802 -0.71407,0.11802c-0.83308,0 -1.54715,0 -2.38023,0.11802c-0.11901,0 -0.23802,0 -0.35703,0c-0.11902,0 -0.23803,0 -0.47605,0c-0.11902,0 -0.35704,0 -0.47605,0c-0.11901,0 -0.23802,0 -0.35703,0c-0.23802,0 -0.47605,0.11802 -0.71407,0.11802c-0.23802,0.11802 -0.47605,0.11802 -0.83308,0.23604c-0.11901,0 -0.23802,0.11802 -0.35703,0.11802c-0.11901,0.11802 -0.23802,0.11802 -0.35703,0.23604c-0.11902,0.11802 -0.23803,0.11802 -0.47605,0.23604c-0.11901,0 -0.11901,0.11802 -0.23802,0.11802c-0.59506,0.35406 -1.19011,0.82614 -1.78517,1.1802c-0.23803,0.11802 -0.47605,0.23604 -0.59506,0.47208l-0.11901,0.11802c-0.23802,0.11802 -0.47605,0.23604 -0.71407,0.35406c-0.11901,0.11802 -0.23802,0.11802 -0.35703,0.23604h-0.11901c-0.11901,0 -0.11901,0.11802 -0.23802,0.11802h-0.11901c0,0 -0.11901,0 -0.11901,0.11802h-0.11901h-0.11901h-0.11901h-0.11901c-0.23802,0 -0.59506,0.11802 -0.83308,0.11802v0c-0.35704,0.11802 -0.83308,0.23604 -1.30913,0.5901c0,0 0,0 -0.11901,0.11802c-1.42814,1.1802 -0.71407,2.00635 -2.14221,3.18655c-0.11902,0.11802 -0.23803,0.23604 -0.47605,0.23604v0c-0.11901,0.11802 -0.23802,0.11802 -0.35703,0.11802c0,0 0,0 -0.11901,0c-0.11901,0 -0.23802,0.11802 -0.35703,0.11802v0c-0.11901,0 -0.23802,0 -0.35703,0c-0.59505,0.11802 -1.19011,0.11802 -2.02319,0.70812c-0.11901,0.11802 -0.23802,0.11802 -0.23802,0.23604v0l-0.11901,0.11802v0c0,0.11802 -0.11901,0.11802 -0.11901,0.23604v0c-0.35704,0.59011 -0.35704,1.06219 -0.71407,1.53427c0,0.11802 -0.11901,0.11802 -0.11901,0.23604c-0.11901,0.23604 -0.35704,0.47208 -0.71407,0.70812c-0.23802,0.23604 -0.47605,0.35406 -0.71407,0.35406c-0.59506,0.35406 -1.0711,0.23604 -1.78517,0.47208c0,0 0,0 -0.11901,0c-0.11901,0 -0.23802,0.11802 -0.35703,0.11802h-0.11901c-0.11902,0.11802 -0.35704,0.11802 -0.47605,0.23604c-0.11902,0 -0.35704,0 -0.47605,0.11802z" id="Shape" fill="#fbdf00"/></g><g id="Group"><path d="M258.18936,145.78015c-0.35703,-1.29823 -1.30912,-1.29823 -2.02319,-2.12437c-1.54715,-1.77031 -1.19011,-4.48478 -1.0711,-6.60915c0,-3.06853 -1.42814,-4.13071 0.95209,-7.90737c5.2365,5.1929 6.18859,11.68403 6.3076,17.70307z" id="Shape" fill="#d8d213" fill-rule="nonzero"/><path d="M261.16465,146.37025c0,0 -4.28441,-1.88833 -4.99848,-2.71447c-1.54715,-1.77031 -1.19011,-4.48478 -1.0711,-6.60915c0,-3.06853 -1.42814,-4.13071 0.95209,-7.90737c5.2365,5.1929 6.18859,11.68403 6.3076,17.70307z" id="Shape" fill="none" fill-rule="evenodd"/><path d="M261.16464,146.37024c0,0 -0.35703,-0.11802 -0.95209,-0.47208c-1.30912,-2.00635 -3.21331,-3.77665 -5.2365,-5.31092c0,-0.59011 0,-1.18021 0,-1.77031c1.78518,1.18021 3.45133,2.59645 4.76046,4.13072c-0.71407,-2.12436 -1.54715,-4.24873 -2.73726,-6.13706c-0.71407,-1.06218 -1.42814,-2.24239 -2.38023,-3.42259c0,-0.5901 0,-1.18021 0.23802,-1.88833c0.95209,1.06218 1.66616,2.24239 2.49924,3.30457c2.49924,3.4226 3.57034,7.31727 4.87947,11.21195c0,0.35406 0,0.5901 0,0.94416z" id="Shape" fill="#fbdf00" fill-rule="nonzero"/></g></g><g data-paper-data="{&quot;index&quot;:null}" id="fish" fill-rule="nonzero"><g id="body" fill="#fbdf00"><path d="M299.84333,166.55177c1.19012,2.00635 -2.1422,3.77665 -3.57034,5.07488c-3.57034,3.54062 -8.21179,7.67133 -10.94905,12.03809c-2.97528,4.72082 -4.52243,7.55331 -7.85475,12.15611c-3.33232,4.72082 -7.02167,6.25508 -12.13916,8.26143c-10.59201,4.13071 -20.58897,4.83883 -31.77604,3.65863c-9.16387,-0.94417 -17.25665,-2.24239 -24.27832,-11.56601c-0.95209,-1.18021 -1.30913,-2.47843 -2.26122,-3.77666c-0.95209,-1.41624 -3.21331,-2.24239 -7.02167,-0.35406c0,0 1.0711,-4.6028 0.95209,-9.55966c-0.11901,-4.83884 -4.76046,-9.44164 -3.21331,-11.56601c2.73726,1.77031 5.59353,3.30458 7.85475,-2.95051c1.66616,-6.01904 6.66464,-15.22464 17.49468,-20.06348c10.23498,-4.48478 23.68327,-6.13707 34.87034,-4.6028c9.99696,1.41624 14.04335,7.55331 25.34943,10.14976c3.0943,0.70812 13.09126,2.00635 13.32928,7.55331c-1.42814,-0.5901 -8.56882,-0.94416 -8.56882,2.71447c6.42662,-1.65229 9.75894,-0.23604 11.78213,2.83249z" id="Shape"/></g><g id="eye"><path d="M270.09051,174.57713c3.33232,0.23605 11.78213,1.18021 11.30608,6.37311c-0.35703,4.48478 -7.73574,7.31727 -11.30608,7.31727c-3.80837,0.11802 -7.85476,-0.82614 -10.83004,-3.18655c-0.71407,-0.5901 -2.26122,-1.65229 -2.26122,-2.71447c0,-1.29823 2.49924,-3.4226 3.33232,-4.13072c2.73726,-2.3604 6.18859,-3.42259 9.75893,-3.65863zM280.08746,180.83222c0.47604,-3.77666 -7.2597,-4.72082 -9.99696,-4.83884c-3.57034,0.11802 -10.473,2.24239 -11.78213,6.49113c0,0 0,0 0.11901,0.11802c0.47605,0.59011 0.95209,1.06219 1.54715,1.41625c2.49924,1.88833 5.71254,2.71447 8.80684,2.83249c3.33232,0.11802 6.54563,-0.70812 9.04487,-3.06853c0.59506,-0.5901 2.26122,-2.47843 2.26122,-2.95051z" id="Shape" fill="#cec800"/><path d="M275.80305,191.45407c-4.87947,2.59645 -11.06806,2.12437 -15.82852,-0.47208c-0.71407,-0.35406 -0.11901,-1.53426 0.71407,-1.1802c4.28441,2.36041 9.99696,2.95051 14.40038,0.47208c0.83308,-0.35407 1.42814,0.70812 0.71407,1.1802z" id="Shape" fill="#cec800"/><path d="M269.73347,177.76369c6.54563,0 6.54563,3.54061 6.54563,3.54061c0,0 -1.90419,4.0127 -6.54563,4.0127c-5.83156,0 -7.73574,-3.06853 -7.73574,-3.06853c0,0 2.26122,-4.48478 7.73574,-4.48478z" id="Shape" fill="#ffffff"/><path d="M276.39811,181.1863c0,0 -1.90418,4.13072 -6.66464,4.13072c-0.11901,0 -0.11901,0 -0.23802,0c-0.47604,-0.47208 -0.83308,-1.06219 -1.0711,-1.77031c0.83308,-0.11802 1.42814,-0.82615 1.42814,-1.77031c0,-0.82615 -0.59506,-1.53427 -1.42814,-1.77031c0.35703,-0.94416 0.83308,-1.65229 1.66616,-2.36041c6.18859,0.11802 6.3076,3.54061 6.3076,3.54061z" id="Shape" fill="#748706"/><path d="M272.23271,184.84492c-0.95209,-0.70812 -1.54715,-1.88832 -1.54715,-3.18655c0,-1.65228 0.95209,-2.95051 2.38023,-3.65863c3.33232,0.94416 3.33232,3.18655 3.33232,3.18655c0,0 -1.30913,2.59645 -4.1654,3.65863z" id="Shape" fill="#302f38"/></g><path d="M241.40875,171.39059c0,2.71447 0,5.31092 0,8.02539c0,0.23604 0,0.47208 -0.35703,0.5901c-4.04638,1.77031 -7.3787,4.95686 -11.42509,6.49113c-3.21331,1.29823 -6.18859,0.82614 -9.4019,-0.23604c-4.76046,-1.65228 -9.99696,-4.72082 -7.61673,-10.50382c3.33232,-7.90737 20.11292,-16.28683 27.61064,-9.67768c1.66616,1.53426 1.19011,3.18655 1.19011,5.31092zM228.3175,185.67107c3.92738,-1.1802 7.14069,-4.13071 10.71103,-6.01904c-5.59354,1.65228 -10.94905,3.77665 -16.18555,6.13706c1.90418,0.35406 3.68935,0.47208 5.47452,-0.11802zM216.17834,183.07462c1.42813,0.94416 2.97528,1.65229 4.64144,2.24239c6.1886,-2.95051 12.61521,-5.42894 19.27985,-7.31727v-0.11802c-8.21179,0.35406 -16.18555,2.00635 -23.92129,5.1929zM213.44107,177.99974c-0.35703,1.29823 0,2.71447 1.42814,4.13072c7.37871,-3.4226 14.99544,-5.90103 22.9692,-6.72717c-2.97528,-0.11802 -6.06958,-0.23604 -8.80684,0.11802c-4.99848,0.5901 -10.473,1.06218 -15.59049,2.47843zM213.79811,176.34745c4.52243,-1.06219 9.28289,-1.53427 13.68631,-2.12437c4.1654,-0.5901 8.44981,-0.82614 12.61521,-0.82614v-0.11802c-3.33232,-0.82615 -6.78365,-1.29823 -10.23498,-1.65229c-3.68936,-0.23604 -7.73574,-0.47208 -11.66312,-0.35406c-1.90418,1.53427 -3.57034,3.30457 -4.40342,5.07488zM222.24792,168.67611c-0.71407,0.23605 -1.42814,0.70813 -2.26122,1.29823c3.80836,0 7.61673,0.23604 11.18707,0.5901c3.0943,0.35407 6.06959,0.82615 9.04487,1.53427c0,-0.11802 0,-0.23604 0,-0.23604c-4.52243,-2.12437 -9.16387,-3.77666 -14.04334,-4.95686c-1.30913,0.47208 -2.73727,1.06219 -3.92738,1.77031zM240.21863,170.32841c0.11901,-1.06218 0.11901,-2.00635 -0.23802,-2.59645c-1.19011,-2.24239 -5.59353,-2.47843 -7.73574,-2.24239c-1.19011,0.11802 -2.38022,0.35406 -3.68935,0.5901c4.04639,1.06219 7.85476,2.47843 11.66312,4.24874z" id="fin" fill="#cec800"/></g></g></g></svg>