<svg version="1.1" xmlns="http://www.w3.org/2000/svg" xmlns:xlink="http://www.w3.org/1999/xlink" width="61.01892" height="27.56226" viewBox="0,0,61.01892,27.56226"><defs><radialGradient cx="226.0556" cy="176.3737" r="16.3858" gradientUnits="userSpaceOnUse" id="color-1"><stop offset="0" stop-color="#99b2ff"/><stop offset="1" stop-color="#0033cc"/></radialGradient><radialGradient cx="233.11077" cy="174.36183" r="12.97287" gradientUnits="userSpaceOnUse" id="color-2"><stop offset="0" stop-color="#99b2ff"/><stop offset="1" stop-color="#0033cc"/></radialGradient><radialGradient cx="237.2485" cy="177.4089" r="24.0168" gradientUnits="userSpaceOnUse" id="color-3"><stop offset="0" stop-color="#99b2ff"/><stop offset="1" stop-color="#0033cc"/></radialGradient><radialGradient cx="237.2485" cy="177.082" r="31.45909" gradientUnits="userSpaceOnUse" id="color-4"><stop offset="0" stop-color="#99b2ff"/><stop offset="1" stop-color="#0033cc"/></radialGradient><radialGradient cx="264.0417" cy="178.68" r="7.4323" gradientUnits="userSpaceOnUse" id="color-5"><stop offset="0" stop-color="#99b2ff"/><stop offset="1" stop-color="#0033cc"/></radialGradient><radialGradient cx="264.0417" cy="178.55958" r="6.33054" gradientUnits="userSpaceOnUse" id="color-6"><stop offset="0" stop-color="#99b2ff"/><stop offset="1" stop-color="#0033cc"/></radialGradient><radialGradient cx="224.4114" cy="180.7608" r="8.9462" gradientUnits="userSpaceOnUse" id="color-7"><stop offset="0" stop-color="#ffffff"/><stop offset="1" stop-color="#7f7f7f"/></radialGradient><radialGradient cx="224.30903" cy="180.76082" r="1.81907" gradientUnits="userSpaceOnUse" id="color-8"><stop offset="0" stop-color="#ffffff"/><stop offset="1" stop-color="#7f7f7f"/></radialGradient><radialGradient cx="222.9137" cy="181.3915" r="25.457" gradientUnits="userSpaceOnUse" id="color-9"><stop offset="0" stop-color="#ffff99"/><stop offset="1" stop-color="#ffff99" stop-opacity="0"/></radialGradient><radialGradient cx="223.38232" cy="181.51674" r="19.99702" gradientUnits="userSpaceOnUse" id="color-10"><stop offset="0" stop-color="#ffff99"/><stop offset="1" stop-color="#ffff99" stop-opacity="0"/></radialGradient></defs><g transform="translate(-207.43108,-167.43663)"><g data-paper-data="{&quot;isPaintingLayer&quot;:true}" fill="none" fill-rule="nonzero" stroke="none" stroke-width="none" stroke-linecap="none" stroke-linejoin="miter" stroke-miterlimit="10" stroke-dasharray="" stroke-dashoffset="0" font-family="none" font-weight="none" font-size="none" text-anchor="none" style="mix-blend-mode: normal"><path d="M224.4384,180.9641c0.0128,-2.6139 0.0229,-5.2536 0.4939,-7.8211c0.0905,-0.6466 0.4105,-0.9572 1.0131,-0.8024c2.4102,0.6195 5.0874,1.0808 6.9467,2.728c1.6555,1.4745 2.8642,3.8273 2.8592,6.0773c0.0279,2.197 -1.1112,4.5399 -2.7972,6.0039c-1.9026,1.649 -4.6647,1.9398 -7.1247,2.5444c-0.6174,0.1371 -0.8408,0.042 -0.9423,-0.6291c-0.4264,-2.6666 -0.4616,-5.3985 -0.4487,-8.101z" id="Fill" fill="url(#color-1)" stroke="url(#color-2)" stroke-width="1.39668" stroke-linecap="butt"/><path d="M234.2484,175.4873l27.1994,1.5845l-0.048,7.9707l-27.1034,1.4884z" id="ID0.25581852719187737" fill="url(#color-3)" stroke="url(#color-4)" stroke-width="0.95987" stroke-linecap="round"/><path d="M261.9,176.95l6.05,0.25v7.7l-6.05,0.3z" id="ID0.08080003643408418" fill="url(#color-5)" stroke="url(#color-6)" stroke-width="1" stroke-linecap="round"/><path d="M240.2784,180.1537l0.0012,-1.7975l6.1977,0.004l-0.0012,1.7975z" id="Button" fill="#231f20" stroke="none" stroke-width="0.69834" stroke-linecap="butt"/><path d="M225.45,189.4674c-0.095,1.3986 -1,0.4923 -1.15,0c-0.548,-1.7999 -0.577,-3.8265 -0.7,-5.7341c-0.078,-1.835 -0.048,-3.6517 0.1,-5.4545c0.155,-1.8895 0.266,-3.8489 0.8,-5.5943c0.135,-0.4405 0.862,-1.4867 0.95,-0.0699c0.308,5.5831 0.379,11.2585 0,16.8528z" id="ID0.07518937904387712" fill="url(#color-7)" stroke="url(#color-8)" stroke-width="1.21574" stroke-linecap="round"/><path d="M208,168.1607l16.05,3.9081l-0.1,17.9018l-15.95,4.2863z" id="ID0.7630628109909594" fill="url(#color-9)" stroke="url(#color-10)" stroke-width="1.13784" stroke-linecap="round"/></g></g></svg>