<svg version="1.1" xmlns="http://www.w3.org/2000/svg" xmlns:xlink="http://www.w3.org/1999/xlink" width="495.00197" height="369.13699" viewBox="0,0,495.00197,369.13699"><g transform="translate(6.53442,3.73677)"><g data-paper-data="{&quot;isPaintingLayer&quot;:true}" fill="none" fill-rule="nonzero" stroke="none" stroke-width="none" stroke-linecap="none" stroke-linejoin="miter" stroke-miterlimit="10" stroke-dasharray="" stroke-dashoffset="0" font-family="none" font-weight="none" font-size="none" text-anchor="none" style="mix-blend-mode: normal"><g id="ID0.924645765684545"><path d="M1,0h479v360h-479z" id="ID0.11298934044316411" fill="#dbffe2" stroke="none" stroke-width="1" stroke-linecap="butt"/><g id="ID0.6381962765008211" fill="#ffffff" stroke="#ffffff" stroke-width="15" stroke-linecap="round"><g id="ID0.5106810196302831"><path d="M249.61137,39.2l0.66866,37.1l-63.90474,-33.9l-62.56742,34.6l-65.71967,-34.6l-57.12262,30v-37.8l55.7853,-29.7l65.81519,34.7l62.56742,-34.7l64.47788,34.3" id="ID0.2934924350120127"/><path d="M480.96754,21.5v36.8l-30.08968,-16l-62.56742,34.6l-65.71967,-34.6l-65.81519,34.6l-0.66866,-37.1l1.33732,-1l63.80922,-34l65.81519,34.7l62.56742,-34.7l31.33147,16.7" id="ID0.6386130140163004"/></g><g id="ID0.5106810196302831_1_"><path d="M253.71885,132.1l0.57314,37.1l-63.80922,-34l-62.56742,34.7l-65.81519,-34.7l-61.13458,32.2v-37.8l59.89278,-31.8l65.71967,34.6l62.56742,-34.6l64.5734,34.3" id="ID0.07775965007022023"/><path d="M480.96754,112.2v36.7l-25.9822,-13.8l-62.56742,34.6l-65.81519,-34.6l-65.81519,34.6l-0.57314,-37.1l1.2418,-1l63.90474,-34l65.71967,34.7l62.56742,-34.7l27.31951,14.6" id="ID0.7981367814354599"/></g><g id="ID0.5106810196302831_2_"><path d="M4.02231,315l63.90474,-34l65.71967,34.6l62.56742,-34.6l64.5734,34.3l0.66866,37.1l-63.80922,-33.9l-62.56742,34.6l-65.81519,-34.6l-65.81519,34.6l-0.66866,-37.1z" id="ID0.4129948583431542_4_"/><path d="M480.96754,291.7v36.8l-18.91351,-10.1l-62.56742,34.6l-65.81519,-34.6l-65.81519,34.6l-0.57314,-37.1l1.2418,-1l63.90474,-34l65.71967,34.7l62.56742,-34.7l20.25083,10.8" id="ID0.8041921514086425"/></g><g id="ID0.5106810196302831_3_"><path d="M256.68006,222.5l0.66866,37.1l-63.90474,-33.9l-62.56742,34.6l-65.71967,-34.6l-64.19131,33.8v-37.9l62.85399,-33.4l65.81519,34.7l62.56742,-34.7l64.47788,34.3" id="ID0.4512990266084671"/><path d="M480.96754,201.1v36.7l-23.02099,-12.2l-62.56742,34.6l-65.71967,-34.6l-65.81519,34.6l-0.66866,-37.1l1.33732,-1l63.80922,-34l65.81519,34.7l62.56742,-34.7l24.26279,13" id="ID0.9629462924785912"/></g></g></g><path d="M480,21l0.3,0.3" id="ID0.9278498468920588" fill="none" stroke="#000000" stroke-width="2" stroke-linecap="round"/><text transform="translate(220.90501,165.41562) scale(3.08333,3.08333)" font-size="40" xml:space="preserve" data-paper-data="{&quot;origPos&quot;:null}" fill="#2d61ff" fill-rule="nonzero" stroke="none" stroke-width="1" stroke-linecap="butt" stroke-linejoin="miter" stroke-miterlimit="10" stroke-dasharray="" stroke-dashoffset="0" font-family="Sans Serif" font-weight="normal" text-anchor="start" style="mix-blend-mode: normal"><tspan x="0" dy="0">?</tspan></text></g></g></svg>