<svg version="1.1" xmlns="http://www.w3.org/2000/svg" xmlns:xlink="http://www.w3.org/1999/xlink" width="15.18" height="26.64"><g transform="translate(-230.92,-153.55)"><g data-paper-data="{&quot;isPaintingLayer&quot;:true}" fill="none" fill-rule="nonzero" stroke="none" stroke-width="1" stroke-linecap="butt" stroke-linejoin="miter" stroke-miterlimit="10" stroke-dasharray="" stroke-dashoffset="0" font-family="none" font-weight="none" font-size="none" text-anchor="none" style="mix-blend-mode: normal"><path d="M241.39,180.19c-3.75,0 -4.16,-2.6 -4.15,-3.71c0,-0.6 0.13,-1.18 0.39,-1.71v-7.12c-0.71,0.7 -1.7,1.13 -2.76,1.13c-2.17,0 -3.94,-1.82 -3.94,-4.07c0,-1.81 1.19,-3.41 2.9,-3.97l5.52,-3.25c0.65,-0.39 1.56,-0.94 2.84,-0.94c2.23,0 3.91,1.62 3.91,3.77c0,0.59 -0.14,1.17 -0.39,1.71v12.92c0.17,0.43 0.25,0.9 0.25,1.39c0,1.92 -1.41,3.85 -4.57,3.85z" data-paper-data="{&quot;origPos&quot;:null}" fill="#000000" opacity="0.35"/><path d="M237.23,173.48c0,-0.6 0.13,-1.17 0.39,-1.71v-7.12c-0.71,0.7 -1.71,1.13 -2.76,1.13c-2.17,0 -3.94,-1.83 -3.94,-4.07c0,-1.81 1.19,-3.41 2.9,-3.97l5.52,-3.25c0.65,-0.39 1.56,-0.94 2.84,-0.94c2.23,0 3.91,1.62 3.91,3.77c0,0.59 -0.13,1.17 -0.39,1.71v12.92c0.17,0.43 0.25,0.9 0.25,1.39c0.01,1.91 -1.4,3.85 -4.56,3.85c-3.75,0 -4.16,-2.6 -4.16,-3.71z" data-paper-data="{&quot;origPos&quot;:null}" fill="#ffffff"/><path d="M241.39,174.69c-0.81,0 -1.66,0 -1.66,-1.21c0,-0.45 0.19,-0.77 0.39,-1v-12.4l-3.97,2.34c-0.16,0.49 -0.7,0.86 -1.29,0.86c-0.81,0 -1.44,-0.69 -1.44,-1.57c0,-0.89 0.71,-1.52 1.39,-1.65l5.81,-3.41c0.53,-0.32 0.99,-0.59 1.58,-0.59c0.84,0 1.41,0.51 1.41,1.27c0,0.45 -0.22,0.82 -0.39,1.03v14.19c0.13,0.19 0.25,0.42 0.25,0.8c-0.01,0.6 -0.37,1.34 -2.08,1.34z" data-paper-data="{&quot;origPos&quot;:null}" fill="#f7931e"/></g></g></svg>