<svg xmlns="http://www.w3.org/2000/svg" xmlns:xlink="http://www.w3.org/1999/xlink" version="1.1" width="481.95091063301356" height="303.10090452949794" viewBox="-0.7229492094148824 -0.4893492188085744 481.95091063301356 303.10090452949794">
  <defs>
    <radialGradient id="grad_1" cx="0.5036" cy="0.49420000000000003" r="0.6575399999999999">
      <stop offset="0" stop-color="#000000" stop-opacity="1"/>
      <stop offset="1" stop-color="#000000" stop-opacity="0"/>
    </radialGradient>
    <radialGradient id="grad_2" cx="0.4902" cy="0.9947" r="1.29311">
      <stop offset="0" stop-color="#FFFFFF" stop-opacity="1"/>
      <stop offset="1" stop-color="#FFFFFF" stop-opacity="0"/>
    </radialGradient>
    <radialGradient id="grad_3" cx="0.4985" cy="0.3256" r="0.8767199999999999">
      <stop offset="0" stop-color="#FFFFFF" stop-opacity="1"/>
      <stop offset="1" stop-color="#FFFFFF" stop-opacity="0"/>
    </radialGradient>
  <radialGradient id="grad_1-.9629921317100525,0,0,1.0365536212921143,7.3,16.5" cx="240.8588" cy="147.5161" r="98.3165" gradientUnits="userSpaceOnUse">
      <stop offset="0" stop-color="#000000" stop-opacity="1"/>
      <stop offset="1" stop-color="#000000" stop-opacity="0"/>
    </radialGradient><radialGradient id="grad_3-.180688738822937,0,0,1.4545893669128418,-46.95,-66.4" cx="239.5326" cy="98.5493" r="374.6299" gradientUnits="userSpaceOnUse">
      <stop offset="0" stop-color="#FFFFFF" stop-opacity="1"/>
      <stop offset="1" stop-color="#FFFFFF" stop-opacity="0"/>
    </radialGradient></defs>
  <!-- Exported by Scratch - http://scratch.mit.edu/ -->
  <path id="ID0.9176602242514491" fill="url(#grad_1-.9629921317100525,0,0,1.0365536212921143,7.3,16.5)" stroke="url(#grad_2)" stroke-width="2.000898425982322" d="M 240.1033 98.906 C 265.144 98.906 287.8341 109.9111 304.2646 127.6901 C 320.6952 145.4701 333.1698 194.7924 330.8654 197.1195 C 328.5609 199.4465 305.2642 158.0445 287.2418 144.9808 C 273.2832 135.2631 255.3302 130.978 238.7552 131.5056 C 219.867 132.1079 200.0891 137.1984 184.2498 148.5051 C 168.4134 159.8149 150.4363 200.0042 149.3413 197.1195 C 148.2464 194.2337 159.5115 145.4701 175.9421 127.6901 C 192.3726 109.9111 215.0627 98.906 240.1033 98.906 Z "/>
  <path id="ID0.8883960330858827" fill="url(#grad_3-.180688738822937,0,0,1.4545893669128418,-46.95,-66.4)" stroke="none" d="M 0.2775 0.5111 L 480.2275 0.5111 L 480.2275 301.6111 L 0.2775 301.6111 L 0.2775 0.5111 Z " stroke-width="1.3247369784827476"/>
</svg>