<svg version="1.1" xmlns="http://www.w3.org/2000/svg" xmlns:xlink="http://www.w3.org/1999/xlink" width="21.06" height="27.14"><g transform="translate(-229.03,-153.4)"><g data-paper-data="{&quot;isPaintingLayer&quot;:true}" fill="none" fill-rule="nonzero" stroke="none" stroke-width="1" stroke-linecap="butt" stroke-linejoin="miter" stroke-miterlimit="10" stroke-dasharray="" stroke-dashoffset="0" font-family="none" font-weight="none" font-size="none" text-anchor="none" style="mix-blend-mode: normal"><path d="M237.85,180.54c-3.2,0 -5.67,-1.25 -7.34,-3.73c-0.9,-0.69 -1.48,-1.83 -1.48,-3.04c0,-1.89 1.08,-3.25 2.46,-3.9c-1.07,-1.21 -1.71,-2.63 -1.71,-3.94c0,-5.7 4.45,-9.53 11.08,-9.53c2.66,0 5.11,1.2 6.96,3.39c1.33,0.9 1.94,2.54 1.94,3.91c0,0.19 -0.01,0.36 -0.03,0.53c0.2,0.89 0.36,1.86 0.36,2.94c-0.01,8.26 -6.36,13.37 -12.24,13.37z" fill="#000000" opacity="0.35"/><path d="M238.16,165.03c0.39,-0.74 1.48,-0.92 2.42,-0.92c0.13,0 0.24,0.02 0.34,0.04c-0.55,0.44 -1.53,0.93 -2.57,0.97c-0.05,-0.02 -0.12,-0.05 -0.19,-0.09z" fill="#000000" opacity="0.35"/><path d="M230.51,173.81c-0.9,-0.69 -1.48,-1.83 -1.48,-3.04c0,-1.89 1.08,-3.25 2.46,-3.9c-1.07,-1.21 -1.71,-2.63 -1.71,-3.94c0,-5.7 4.45,-9.53 11.08,-9.53c2.66,0 5.11,1.2 6.96,3.39c1.33,0.9 1.94,2.54 1.94,3.91c0,0.18 -0.01,0.36 -0.03,0.53c0.2,0.89 0.36,1.86 0.36,2.94c-0.01,8.26 -6.36,13.37 -12.24,13.37c-3.2,0 -5.67,-1.25 -7.34,-3.73zM238.35,162.12c1.04,-0.04 2.02,-0.53 2.57,-0.97c-0.1,-0.02 -0.21,-0.04 -0.34,-0.04c-0.94,0 -2.03,0.18 -2.42,0.92c0.07,0.04 0.14,0.07 0.19,0.09z" fill="#ffffff"/><path d="M237.85,175.04c-2.56,0 -4.32,-0.97 -5.54,-3.07c-0.44,-0.14 -0.78,-0.65 -0.78,-1.21c0,-1.34 1.11,-1.82 1.85,-1.82c0.68,0 1.22,0.24 1.52,0.69c0.22,0.32 0.29,0.72 0.18,1.09c0.44,0.82 1.46,1.62 2.62,1.62c4.17,0 6.73,-4.16 6.73,-7.14c0,-0.19 -0.01,-0.39 -0.02,-0.59c-1.31,1.53 -4.06,2.71 -6.48,2.71c-3.32,0 -5.65,-2.85 -5.65,-4.39c0,-4.34 3.29,-7.03 8.58,-7.03c2.03,0 3.91,1 5.31,2.83c0.71,0.29 1.09,1.22 1.09,1.97c0,0.23 -0.03,0.41 -0.09,0.56c0.21,0.85 0.43,1.84 0.43,2.92c-0.02,6.71 -5.07,10.86 -9.75,10.86zM240.58,158.61c-2.45,0 -5.07,1.07 -5.07,4.08c0,0.79 1.76,1.93 2.73,1.93c2.67,0 5.59,-1.95 5.59,-3.72c0,-0.93 -1.27,-2.29 -3.25,-2.29z" fill="#f7931e"/></g></g></svg>