<svg version="1.1" xmlns="http://www.w3.org/2000/svg" xmlns:xlink="http://www.w3.org/1999/xlink" width="307.7139" height="166.34598" viewBox="0,0,307.7139,166.34598"><g transform="translate(-81.0576,-103.50989)"><g data-paper-data="{&quot;isPaintingLayer&quot;:true}" fill-rule="nonzero" stroke="none" stroke-linecap="butt" stroke-linejoin="miter" stroke-miterlimit="10" stroke-dasharray="" stroke-dashoffset="0" style="mix-blend-mode: normal"><g id="Head" stroke-width="1"><path d="M264.422,112.35257l0.811,1.937c-1.54,0.726 -6.404,2.823 -9.565,3.953l-0.81,-1.936c2.756,-1.13 6.889,-2.905 9.564,-3.954z" id="Shape" fill="#fab414"/><path d="M267.259,118.08057c-1.54,0.485 -3.08,0.888 -4.701,1.13l-3.08,-10.649c1.459,-0.726 4.539,-0.968 4.539,-0.968z" id="Shape" fill="#ffc800"/><path d="M207.28,116.22557l-0.567,2.017c-3.242,-0.807 -8.268,-2.501 -9.889,-2.985l0.568,-2.017c2.755,0.807 7.051,2.097 9.888,2.985z" id="Shape" fill="#fab414"/><path d="M197.959,108.39957c0,0 3.08,0.242 4.539,0.968l-3.161,10.65c-1.621,-0.242 -3.161,-0.646 -4.701,-1.13z" id="Shape" fill="#ffc800"/><path d="M261.909,135.34557l-61.113,0.242c0.81,-7.18 2.188,-20.895 4.296,-25.251c2.512,-5.164 7.619,-3.954 12.725,-4.034c5.43,-0.081 30.151,-1.049 37.77,1.049c2.027,1.936 5.593,21.459 6.322,27.994z" id="Shape" fill="#a0aa1e"/><path d="M248.617,116.62857c-0.324,-0.484 -0.243,-0.806 0,-0.968c0.81,-0.726 1.459,-1.613 2.512,-2.097c0.325,-0.242 0.73,-0.484 0.973,-0.807l0.73,0.403c0.081,0.484 -0.163,0.968 -0.649,1.13c-1.054,0.322 -1.945,1.129 -2.431,2.097z" id="Shape" fill="#82783c"/><path d="M259.64,117.67757c0,0 0.081,0 0.081,0.081z" id="Shape" fill="#a0aa1e"/><path d="M253.237,118.08057c0,1.211 -0.649,1.372 -1.135,1.372c-1.297,-0.081 -1.378,-1.775 -1.054,-2.259c0.163,-0.403 0.568,-0.726 1.054,-0.726c0.486,0 1.135,0.403 1.135,1.613z" id="Shape" fill="#000000"/><path d="M214.007,118.08057c0,1.211 -0.648,1.372 -1.134,1.372c-1.297,-0.081 -1.378,-1.775 -1.054,-2.259c0.162,-0.403 0.567,-0.726 1.054,-0.726c0.486,0 1.134,0.403 1.134,1.613z" id="Shape" fill="#000000"/><path d="M239.377,123.72857c-3.566,1.21 -15.481,0.645 -15.968,0.323c-0.081,-3.066 -0.648,-6.132 6.971,-6.697c7.619,-0.564 8.348,3.631 8.997,6.374z" id="Shape" fill="#82783c"/><path d="M234.838,118.88757c0.81,0.081 1.459,0.807 1.378,1.614c0,1.129 -0.811,1.291 -1.54,1.291c-1.783,-0.081 -1.864,-1.695 -1.459,-2.179c0.324,-0.484 0.891,-0.726 1.459,-0.726c0,0 0.081,0 0.162,0z" id="Shape" fill="#645a1e"/><path d="M227.462,119.53357c0.649,0.08 1.216,0.645 1.135,1.29c0,0.969 -0.649,1.049 -1.216,1.049c-1.378,-0.08 -1.459,-1.291 -1.135,-1.694c0.325,-0.323 0.73,-0.565 1.216,-0.565c0,0 0,0 0,-0.08z" id="Shape" fill="#645a1e"/><path d="M217.249,116.62857l-1.053,0.242c-1.054,-0.887 -1.945,-1.694 -2.918,-2.42c-0.405,-0.323 -0.892,-0.565 -1.378,-0.726c-0.405,-0.161 -0.729,-0.403 -0.811,-0.887c0.163,-0.323 0.649,-0.485 0.973,-0.243h0.081c0.324,0.162 0.73,0.404 0.973,0.646c1.216,0.887 2.35,1.775 3.566,2.662c0.243,0.081 0.486,0.404 0.567,0.726z" id="Shape" fill="#82783c"/></g><g id="Arm-L" stroke-width="1"><path d="M132.631,196.09457c2.026,5.083 0.405,12.989 5.268,21.46c4.863,8.471 11.834,10.004 12.077,10.488c1.54,3.873 -1.378,6.777 -5.593,8.391c-9.24,3.549 -16.535,-2.34 -23.1,-7.584z" id="Shape" fill="#645a1e"/><path d="M146.572,229.17257c-1.621,-0.404 -4.053,-4.76 3.89,-4.357c7.538,2.582 8.024,12.344 -1.459,11.214c-0.567,-2.339 -0.567,-5.082 -2.431,-6.857z" id="Shape" fill="#a0aa1e"/><path d="M143.573,235.22357c-0.081,-1.211 -0.487,-2.421 -0.973,-3.47c-1.54,-0.726 -2.999,-5.486 4.701,-3.469c0.892,0.484 1.702,1.13 2.432,1.856c0.891,1.129 1.54,2.34 2.026,3.711c0.243,0.645 0.243,1.372 0.162,2.017c-0.243,1.452 -1.216,2.662 -2.513,3.227c-2.431,1.21 -5.835,-0.081 -5.835,-0.081c-0.081,-1.291 -0.081,-2.501 0,-3.791z" id="Shape" fill="#82783c"/><path d="M81.324,176.32957c-1.135,-10.972 1.378,-21.944 7.133,-31.303c2.918,-5.002 6.403,-9.681 10.294,-13.876c2.269,-2.34 15.967,-16.135 36.797,-15.974c20.831,0.161 38.338,6.374 41.661,9.117c-0.405,3.307 -15.724,36.143 -15.724,36.143c0,0 -16.94,-4.76 -24.072,-2.501c-7.133,2.259 -9.97,10.81 -9.078,18.394c0.891,7.422 4.782,14.199 5.511,21.863c0.568,6.293 -1.053,23.477 -4.62,29.931c1.054,5.728 6.89,7.261 8.754,8.713c1.864,1.452 2.269,-0.484 2.837,-1.613c-0.081,-0.485 1.135,-2.743 -1.864,-2.017c-1.135,0.322 -3.81,0.403 -2.351,-2.179c0.811,-1.371 2.351,-2.259 3.891,-2.259c4.295,0.162 5.106,7.907 3.647,10.811c-1.864,3.63 -8.024,3.711 -11.672,3.066c-9.159,-1.775 -17.183,-8.875 -23.748,-15.006c-14.671,-13.796 -25.126,-30.899 -27.396,-51.31z" id="Shape" fill="#a0aa1e"/><path d="M134.981,229.09157c-2.432,0.323 -4.053,0.807 -6.484,0.646c-2.756,-0.243 -5.269,-1.775 -6.646,-4.196c-1.459,-2.339 -2.999,-10.165 5.511,-10.891c8.511,-0.726 8.754,6.858 10.942,6.615c1.783,-1.936 6.079,-5.97 9.159,-2.581c1.216,1.694 -1.54,5.324 -4.863,7.503c-2.107,1.855 -5.268,2.259 -7.619,2.904z" id="Shape" fill="#a0aa1e"/><path d="M173.805,119.04957c4.701,1.048 16.13,6.938 20.182,9.519l-14.265,44.211c-7.538,-3.308 -24.235,-10.649 -24.235,-10.649c0,0 14.347,-37.676 18.318,-43.081z" id="Shape" fill="#824600"/></g><g id="Arm-R" stroke-width="1"><path d="M355.931,215.05357c-5.836,6.051 -12.239,12.828 -21.885,10.488c-4.377,-1.129 -7.619,-3.63 -6.646,-7.664c0.162,-0.565 6.889,-2.985 10.618,-12.021c3.728,-9.035 1.054,-16.7 2.431,-21.944z" id="Shape" fill="#645a1e"/><path d="M329.345,225.54157c-9.24,2.34 -10.05,-7.341 -2.918,-10.891c7.781,-1.371 5.998,3.227 4.458,3.792c-1.54,2.017 -1.216,4.76 -1.54,7.099z" id="Shape" fill="#a0aa1e"/><path d="M335.181,227.88157c0,0 -3.242,1.694 -5.836,0.887c-1.378,-0.403 -2.431,-1.532 -2.837,-2.904c-0.243,-0.645 -0.243,-1.371 -0.081,-2.017c0.244,-1.371 0.811,-2.743 1.54,-3.953c0.568,-0.807 1.297,-1.533 2.108,-2.098c7.376,-2.985 6.565,1.856 5.106,2.824c-0.405,1.13 -0.567,2.34 -0.567,3.55c0.243,1.21 0.405,2.42 0.567,3.711z" id="Shape" fill="#82783c"/><path d="M368.007,212.14957c-5.673,6.858 -12.725,15.006 -21.56,17.91c-3.404,1.13 -9.564,1.856 -11.914,-1.533c-1.784,-2.743 -2.027,-10.488 2.269,-11.214c1.621,-0.242 3.242,0.404 4.215,1.695c1.783,2.42 -0.811,2.662 -2.026,2.501c-3.162,-0.323 -1.622,1.774 -1.622,2.258c0.649,1.049 1.216,2.905 2.999,1.211c1.784,-1.695 7.376,-3.954 7.619,-9.762c-4.376,-5.89 -8.186,-22.751 -8.429,-29.044c-0.324,-7.745 2.675,-15.006 2.594,-22.428c-0.081,-7.664 -4.053,-15.812 -11.429,-17.103c-7.376,-1.291 -23.586,5.567 -23.586,5.567c0,0 -19.372,-30.577 -20.263,-33.804c2.918,-3.146 19.452,-11.537 40.121,-14.441c20.668,-2.904 36.068,9.036 38.581,11.053c4.458,3.711 8.51,7.906 12.077,12.505c6.889,8.632 10.78,19.201 11.104,30.173c0.405,20.491 -7.7,38.805 -20.75,54.456z" id="Shape" fill="#a0aa1e"/><path d="M313.459,153.09457c0,0 -15.724,9.439 -22.695,13.715l-19.939,-42.032c3.729,-3.066 14.266,-10.327 18.804,-12.021c4.539,4.921 23.83,40.338 23.83,40.338z" id="Shape" fill="#824600"/><path d="M339.639,216.26457c-3.972,-0.081 -6.89,-1.13 -9.645,-3.954c-0.568,-4.84 8.267,-3.227 10.78,-2.42c2.026,-0.968 -1.702,-7.503 5.917,-11.295c7.618,-3.791 10.374,3.631 10.374,6.455c0.081,2.823 -1.216,5.405 -3.485,7.018c-2.026,1.291 -3.728,1.775 -5.917,2.743c-2.269,0.646 -5.268,1.856 -8.024,1.453z" id="Shape" fill="#a0aa1e"/></g><g id="Leg-L"><path d="M209.549,269.75257c0,0 -28.206,0.161 -31.448,0.081c-0.081,-0.242 -0.162,-0.888 -0.162,-0.888l9.807,-0.161c0,0 -3.809,-21.783 -3.809,-22.186l24.883,-3.792c0.081,0.484 0.729,26.946 0.729,26.946z" id="Shape" fill="#a0aa1e" stroke-width="1"/><path d="M181.424,255.87657c-3.08,-7.987 -7.781,-32.11 -7.781,-32.11l33.88,-14.36l5.35,42.597z" id="Shape" fill="#005a5a" stroke-width="1"/><path d="M176.2076,253.29697l39.3414,-4.8235l1.62,13.213l-39.3414,4.8236z" id="Rectangle-path" fill="#006482" stroke-width="1"/></g><g id="Overalls" stroke-width="1"><path d="M180.127,139.21857c5.998,-11.456 17.346,-15.974 17.346,-15.974c0,0 61.275,-1.533 69.3,-0.162c6.97,1.211 16.615,9.682 21.722,20.492c5.754,12.182 6.484,26.785 6.484,26.785l-62.978,24.606l-60.627,-23.557c0,0 4.458,-23.881 8.753,-32.19z" id="Shape" fill="#a0640a"/><path d="M240.025,177.62057l-7.7,45.42l-58.763,0.726l-2.269,-52.358c0,0 20.101,-26.543 24.64,-28.237c0.081,0.242 3.647,0 3.647,0c0,0 16.373,-0.162 32.745,-0.162z" id="Shape" fill="#008264"/><path d="M232.325,143.00957c14.833,0 30.152,0.081 35.339,0.404c5.269,2.904 27.234,26.946 27.234,26.946l-0.73,44.533l-61.843,8.148z" id="Shape" fill="#00a08c"/><path d="M271.96,122.84057c-0.486,8.391 -6.971,35.579 -6.971,35.579l-7.537,-1.775l7.294,-35.417z" id="Shape" fill="#005a5a"/><path d="M263.044,151.48057c1.216,0.404 1.864,1.614 1.54,2.824c-0.405,1.694 -1.621,1.694 -2.675,1.372c-2.593,-0.726 -2.188,-2.985 -1.458,-3.631c0.648,-0.565 1.54,-0.807 2.431,-0.565c0.081,0 0.081,0.081 0.162,0z" id="Shape" fill="#ffc800"/><path d="M196.905,120.82357l8.43,35.175l-7.457,2.017c0,0 -7.376,-26.946 -8.105,-35.336z" id="Shape" fill="#005a5a"/><path d="M199.823,150.99657c0.811,-0.242 1.783,-0.08 2.432,0.484c0.729,0.565 1.297,2.905 -1.297,3.712c-0.973,0.322 -2.27,0.403 -2.756,-1.291c-0.405,-1.21 0.243,-2.421 1.459,-2.824c0,0 0.081,-0.081 0.162,-0.081z" id="Shape" fill="#ffc800"/><path d="M245.78,162.69457c0.081,1.13 0.081,2.259 0.081,3.389c0.081,4.921 -1.216,11.214 -6.079,13.957c-4.215,2.42 -13.211,2.097 -17.183,-0.807c-3.323,-3.55 -5.593,-11.053 -4.296,-16.539z" id="Shape" fill="#005a5a"/><path d="M216.358,157.53157h31.124v8.713h-31.124z" id="Rectangle-path" fill="#006482"/><path d="M232.406,159.95157c1.297,0.081 2.27,1.211 2.189,2.501c0,1.775 -1.216,2.098 -2.351,2.017c-2.756,-0.161 -2.918,-2.581 -2.269,-3.388c0.567,-0.726 1.459,-1.21 2.35,-1.13z" id="Shape" fill="#fab414"/></g><g id="Leg-R"><path d="M254.209,200.04857l29.098,16.296c-0.162,0.404 -13.535,35.901 -13.535,35.901l8.915,3.873c0,0 -0.324,0.564 -0.486,0.726c-2.999,-1.13 -29.017,-12.182 -29.017,-12.182c0,0 4.701,-44.211 5.025,-44.614z" id="Shape" fill="#a0aa1e" stroke-width="1"/><path d="M246.428,234.90057c-0.081,-13.473 3.81,-50.181 4.053,-52.359c0,0 0.648,-20.492 22.614,-19.766c21.965,0.726 17.507,23.477 17.507,23.477c0.081,2.34 -6.889,39.289 -7.7,43.565c-0.567,2.824 -0.81,5.809 -1.216,8.713z" id="Shape" fill="#005a5a" stroke-width="1"/><path d="M242.5942,241.86747l1.3614,-13.3045l41.3322,4.2296l-1.3615,13.3046z" id="Rectangle-path" fill="#006482" stroke-width="1"/></g></g></g></svg>