<svg xmlns="http://www.w3.org/2000/svg" xmlns:xlink="http://www.w3.org/1999/xlink" version="1.1" width="38.88979721069336" height="41.516700744628906" viewBox="0.39719998836517334 0.4207000136375427 38.88979721069336 41.516700744628906">
  <!-- Exported by Scratch - http://scratch.mit.edu/ -->
  <g id="ID0.5521168457344174">
    <path id="ID0.9095093756914139" fill="none" stroke="#000000" stroke-width="0.8056840002536774" stroke-linecap="round" d="M 6.3534 1.0707 L 7.0449 2.9909 "/>
    <path id="ID0.9095093756914139" fill="none" stroke="#000000" stroke-width="0.8056840002536774" stroke-linecap="round" d="M 16.4034 0.9707 L 17.0949 2.8909 "/>
    <path id="ID0.9095093756914139" fill="none" stroke="#000000" stroke-width="0.8056840002536774" stroke-linecap="round" d="M 18.9534 1.0207 L 19.6449 2.9409 "/>
    <path id="ID0.9095093756914139" fill="none" stroke="#000000" stroke-width="0.8056840002536774" stroke-linecap="round" d="M 8.8534 1.1207 L 9.5449 3.0409 "/>
    <path id="ID0.9095093756914139" fill="none" stroke="#000000" stroke-width="0.8056840002536774" stroke-linecap="round" d="M 21.4034 0.9707 L 22.0949 2.8909 "/>
    <path id="ID0.9095093756914139" fill="none" stroke="#000000" stroke-width="0.8056840002536774" stroke-linecap="round" d="M 23.9034 1.0207 L 24.5949 2.9409 "/>
    <path id="ID0.9095093756914139" fill="none" stroke="#000000" stroke-width="0.8056840002536774" stroke-linecap="round" d="M 26.4034 1.0207 L 27.0949 2.9409 "/>
    <path id="ID0.9095093756914139" fill="none" stroke="#000000" stroke-width="0.8056840002536774" stroke-linecap="round" d="M 36.4534 1.1207 L 37.1449 3.0409 "/>
    <path id="ID0.9095093756914139" fill="none" stroke="#000000" stroke-width="0.8056840002536774" stroke-linecap="round" d="M 33.9034 1.1207 L 34.5949 3.0409 "/>
    <path id="ID0.9095093756914139" fill="none" stroke="#000000" stroke-width="0.8056840002536774" stroke-linecap="round" d="M 13.9034 0.9207 L 14.5949 2.8409 "/>
    <path id="ID0.9095093756914139" fill="none" stroke="#000000" stroke-width="0.8056840002536774" stroke-linecap="round" d="M 28.8534 1.1207 L 29.5449 3.0409 "/>
    <path id="ID0.9095093756914139" fill="none" stroke="#000000" stroke-width="0.8056840002536774" stroke-linecap="round" d="M 11.4034 1.1207 L 12.0949 3.0409 "/>
    <path id="ID0.9095093756914139" fill="none" stroke="#000000" stroke-width="0.8056840002536774" stroke-linecap="round" d="M 31.4034 1.0707 L 32.0949 2.9909 "/>
    <path id="ID0.9095093756914139" fill="none" stroke="#000000" stroke-width="0.8056840002536774" stroke-linecap="round" d="M 3.9034 1.0707 L 4.5949 2.9909 "/>
    <path id="ID0.07590068271383643" fill="#CCCCCC" stroke="none" d="M 1.7972 3.7005 L 38.787 3.7005 L 38.787 41.4374 L 1.7972 41.4374 L 1.7972 3.7005 Z " stroke-width="0.167909896807401"/>
    <path id="ID0.07590068271383643" fill="#E5E5E5" stroke="none" d="M 1.3472 3.3505 L 38.337 3.3505 L 38.337 41.0874 L 1.3472 41.0874 L 1.3472 3.3505 Z " stroke-width="0.167909896807401"/>
    <path id="ID0.07590068271383643" fill="#99FFBB" stroke="none" d="M 0.8972 2.9505 L 37.887 2.9505 L 37.887 40.6874 L 0.8972 40.6874 L 0.8972 2.9505 Z " stroke-width="0.167909896807401"/>
    <path id="ID0.36722757993265986" fill="#CCCCCC" stroke="none" d="M 2.6753 3.7832 C 2.9293 3.7832 3.1595 3.8885 3.3261 4.0587 C 3.4928 4.2288 3.5959 4.4639 3.5959 4.7232 C 3.5959 4.9825 3.4928 5.2175 3.3261 5.3876 C 3.1595 5.5579 2.9293 5.6631 2.6753 5.6631 C 2.4214 5.6631 2.1912 5.5579 2.0246 5.3876 C 1.8579 5.2175 1.7548 4.9825 1.7548 4.7232 C 1.7548 4.4639 1.8579 4.2288 2.0246 4.0587 C 2.1912 3.8885 2.4214 3.7832 2.6753 3.7832 Z " stroke-width="0.13894444934715933"/>
    <path id="ID0.272235160227865" fill="none" stroke="#000000" stroke-width="0.8056840002536774" stroke-linecap="round" d="M 2.6464 4.7677 L 3.875 0.9944 "/>
    <path id="ID0.36722757993265986" fill="#CCCCCC" stroke="none" d="M 5.1753 3.8332 C 5.4293 3.8332 5.6595 3.9385 5.8261 4.1087 C 5.9928 4.2788 6.0959 4.5139 6.0959 4.7732 C 6.0959 5.0325 5.9928 5.2675 5.8261 5.4376 C 5.6595 5.6079 5.4293 5.7131 5.1753 5.7131 C 4.9214 5.7131 4.6912 5.6079 4.5246 5.4376 C 4.3579 5.2675 4.2548 5.0325 4.2548 4.7732 C 4.2548 4.5139 4.3579 4.2788 4.5246 4.1087 C 4.6912 3.9385 4.9214 3.8332 5.1753 3.8332 Z " stroke-width="0.13894444934715933"/>
    <path id="ID0.272235160227865" fill="none" stroke="#000000" stroke-width="0.8056840002536774" stroke-linecap="round" d="M 5.1464 4.8177 L 6.375 1.0444 "/>
    <path id="ID0.36722757993265986" fill="#CCCCCC" stroke="none" d="M 7.6253 3.8832 C 7.8793 3.8832 8.1095 3.9885 8.2761 4.1587 C 8.4428 4.3288 8.5459 4.5639 8.5459 4.8232 C 8.5459 5.0825 8.4428 5.3175 8.2761 5.4876 C 8.1095 5.6579 7.8793 5.7631 7.6253 5.7631 C 7.3714 5.7631 7.1412 5.6579 6.9746 5.4876 C 6.8079 5.3175 6.7048 5.0825 6.7048 4.8232 C 6.7048 4.5639 6.8079 4.3288 6.9746 4.1587 C 7.1412 3.9885 7.3714 3.8832 7.6253 3.8832 Z " stroke-width="0.13894444934715933"/>
    <path id="ID0.272235160227865" fill="none" stroke="#000000" stroke-width="0.8056840002536774" stroke-linecap="round" d="M 7.6464 4.8677 L 8.875 1.0944 "/>
    <path id="ID0.36722757993265986" fill="#CCCCCC" stroke="none" d="M 10.1753 3.8332 C 10.4293 3.8332 10.6595 3.9385 10.8261 4.1087 C 10.9928 4.2788 11.0959 4.5139 11.0959 4.7732 C 11.0959 5.0325 10.9928 5.2675 10.8261 5.4376 C 10.6595 5.6079 10.4293 5.7131 10.1753 5.7131 C 9.9214 5.7131 9.6912 5.6079 9.5246 5.4376 C 9.3579 5.2675 9.2548 5.0325 9.2548 4.7732 C 9.2548 4.5139 9.3579 4.2788 9.5246 4.1087 C 9.6912 3.9385 9.9214 3.8332 10.1753 3.8332 Z " stroke-width="0.13894444934715933"/>
    <path id="ID0.272235160227865" fill="none" stroke="#000000" stroke-width="0.8056840002536774" stroke-linecap="round" d="M 10.1464 4.8677 L 11.375 1.0944 "/>
    <path id="ID0.36722757993265986" fill="#CCCCCC" stroke="none" d="M 12.7753 3.6832 C 13.0293 3.6832 13.2595 3.7885 13.4261 3.9587 C 13.5928 4.1288 13.6959 4.3639 13.6959 4.6232 C 13.6959 4.8825 13.5928 5.1175 13.4261 5.2876 C 13.2595 5.4579 13.0293 5.5631 12.7753 5.5631 C 12.5214 5.5631 12.2912 5.4579 12.1246 5.2876 C 11.9579 5.1175 11.8548 4.8825 11.8548 4.6232 C 11.8548 4.3639 11.9579 4.1288 12.1246 3.9587 C 12.2912 3.7885 12.5214 3.6832 12.7753 3.6832 Z " stroke-width="0.13894444934715933"/>
    <path id="ID0.272235160227865" fill="none" stroke="#000000" stroke-width="0.8056840002536774" stroke-linecap="round" d="M 12.6464 4.7177 L 13.875 0.9444 "/>
    <path id="ID0.36722757993265986" fill="#CCCCCC" stroke="none" d="M 15.2253 3.7332 C 15.4793 3.7332 15.7095 3.8385 15.8761 4.0087 C 16.0428 4.1788 16.1459 4.4139 16.1459 4.6732 C 16.1459 4.9325 16.0428 5.1675 15.8761 5.3376 C 15.7095 5.5079 15.4793 5.6131 15.2253 5.6131 C 14.9714 5.6131 14.7412 5.5079 14.5746 5.3376 C 14.4079 5.1675 14.3048 4.9325 14.3048 4.6732 C 14.3048 4.4139 14.4079 4.1788 14.5746 4.0087 C 14.7412 3.8385 14.9714 3.7332 15.2253 3.7332 Z " stroke-width="0.13894444934715933"/>
    <path id="ID0.272235160227865" fill="none" stroke="#000000" stroke-width="0.8056840002536774" stroke-linecap="round" d="M 15.1464 4.7677 L 16.375 0.9944 "/>
    <path id="ID0.36722757993265986" fill="#CCCCCC" stroke="none" d="M 17.7253 3.7832 C 17.9793 3.7832 18.2095 3.8885 18.3761 4.0587 C 18.5428 4.2288 18.6459 4.4639 18.6459 4.7232 C 18.6459 4.9825 18.5428 5.2175 18.3761 5.3876 C 18.2095 5.5579 17.9793 5.6631 17.7253 5.6631 C 17.4714 5.6631 17.2412 5.5579 17.0746 5.3876 C 16.9079 5.2175 16.8048 4.9825 16.8048 4.7232 C 16.8048 4.4639 16.9079 4.2288 17.0746 4.0587 C 17.2412 3.8885 17.4714 3.7832 17.7253 3.7832 Z " stroke-width="0.13894444934715933"/>
    <path id="ID0.272235160227865" fill="none" stroke="#000000" stroke-width="0.8056840002536774" stroke-linecap="round" d="M 17.6464 4.7677 L 18.875 0.9944 "/>
    <path id="ID0.36722757993265986" fill="#CCCCCC" stroke="none" d="M 20.2753 3.7832 C 20.5293 3.7832 20.7595 3.8885 20.9261 4.0587 C 21.0928 4.2288 21.1959 4.4639 21.1959 4.7232 C 21.1959 4.9825 21.0928 5.2175 20.9261 5.3876 C 20.7595 5.5579 20.5293 5.6631 20.2753 5.6631 C 20.0214 5.6631 19.7912 5.5579 19.6246 5.3876 C 19.4579 5.2175 19.3548 4.9825 19.3548 4.7232 C 19.3548 4.4639 19.4579 4.2288 19.6246 4.0587 C 19.7912 3.8885 20.0214 3.7832 20.2753 3.7832 Z " stroke-width="0.13894444934715933"/>
    <path id="ID0.272235160227865" fill="none" stroke="#000000" stroke-width="0.8056840002536774" stroke-linecap="round" d="M 20.1464 4.7677 L 21.375 0.9944 "/>
    <path id="ID0.36722757993265986" fill="#CCCCCC" stroke="none" d="M 22.7253 3.7332 C 22.9793 3.7332 23.2095 3.8385 23.3761 4.0087 C 23.5428 4.1788 23.6459 4.4139 23.6459 4.6732 C 23.6459 4.9325 23.5428 5.1675 23.3761 5.3376 C 23.2095 5.5079 22.9793 5.6131 22.7253 5.6131 C 22.4714 5.6131 22.2412 5.5079 22.0746 5.3376 C 21.9079 5.1675 21.8048 4.9325 21.8048 4.6732 C 21.8048 4.4139 21.9079 4.1788 22.0746 4.0087 C 22.2412 3.8385 22.4714 3.7332 22.7253 3.7332 Z " stroke-width="0.13894444934715933"/>
    <path id="ID0.272235160227865" fill="none" stroke="#000000" stroke-width="0.8056840002536774" stroke-linecap="round" d="M 22.6464 4.7677 L 23.875 0.9944 "/>
    <path id="ID0.36722757993265986" fill="#CCCCCC" stroke="none" d="M 25.2253 3.7832 C 25.4793 3.7832 25.7095 3.8885 25.8761 4.0587 C 26.0428 4.2288 26.1459 4.4639 26.1459 4.7232 C 26.1459 4.9825 26.0428 5.2175 25.8761 5.3876 C 25.7095 5.5579 25.4793 5.6631 25.2253 5.6631 C 24.9714 5.6631 24.7412 5.5579 24.5746 5.3876 C 24.4079 5.2175 24.3048 4.9825 24.3048 4.7232 C 24.3048 4.4639 24.4079 4.2288 24.5746 4.0587 C 24.7412 3.8885 24.9714 3.7832 25.2253 3.7832 Z " stroke-width="0.13894444934715933"/>
    <path id="ID0.272235160227865" fill="none" stroke="#000000" stroke-width="0.8056840002536774" stroke-linecap="round" d="M 25.1464 4.7677 L 26.375 0.9944 "/>
    <path id="ID0.36722757993265986" fill="#CCCCCC" stroke="none" d="M 27.7253 3.8332 C 27.9793 3.8332 28.2095 3.9385 28.3761 4.1087 C 28.5428 4.2788 28.6459 4.5139 28.6459 4.7732 C 28.6459 5.0325 28.5428 5.2675 28.3761 5.4376 C 28.2095 5.6079 27.9793 5.7131 27.7253 5.7131 C 27.4714 5.7131 27.2412 5.6079 27.0746 5.4376 C 26.9079 5.2675 26.8048 5.0325 26.8048 4.7732 C 26.8048 4.5139 26.9079 4.2788 27.0746 4.1087 C 27.2412 3.9385 27.4714 3.8332 27.7253 3.8332 Z " stroke-width="0.13894444934715933"/>
    <path id="ID0.272235160227865" fill="none" stroke="#000000" stroke-width="0.8056840002536774" stroke-linecap="round" d="M 27.6464 4.8177 L 28.875 1.0444 "/>
    <path id="ID0.36722757993265986" fill="#CCCCCC" stroke="none" d="M 30.2253 3.7832 C 30.4793 3.7832 30.7095 3.8885 30.8761 4.0587 C 31.0428 4.2288 31.1459 4.4639 31.1459 4.7232 C 31.1459 4.9825 31.0428 5.2175 30.8761 5.3876 C 30.7095 5.5579 30.4793 5.6631 30.2253 5.6631 C 29.9714 5.6631 29.7412 5.5579 29.5746 5.3876 C 29.4079 5.2175 29.3048 4.9825 29.3048 4.7232 C 29.3048 4.4639 29.4079 4.2288 29.5746 4.0587 C 29.7412 3.8885 29.9714 3.7832 30.2253 3.7832 Z " stroke-width="0.13894444934715933"/>
    <path id="ID0.272235160227865" fill="none" stroke="#000000" stroke-width="0.8056840002536774" stroke-linecap="round" d="M 30.1464 4.8177 L 31.375 1.0444 "/>
    <path id="ID0.36722757993265986" fill="#CCCCCC" stroke="none" d="M 32.7253 3.8332 C 32.9793 3.8332 33.2095 3.9385 33.3761 4.1087 C 33.5428 4.2788 33.6459 4.5139 33.6459 4.7732 C 33.6459 5.0325 33.5428 5.2675 33.3761 5.4376 C 33.2095 5.6079 32.9793 5.7131 32.7253 5.7131 C 32.4714 5.7131 32.2412 5.6079 32.0746 5.4376 C 31.9079 5.2675 31.8048 5.0325 31.8048 4.7732 C 31.8048 4.5139 31.9079 4.2788 32.0746 4.1087 C 32.2412 3.9385 32.4714 3.8332 32.7253 3.8332 Z " stroke-width="0.13894444934715933"/>
    <path id="ID0.272235160227865" fill="none" stroke="#000000" stroke-width="0.8056840002536774" stroke-linecap="round" d="M 32.6464 4.8677 L 33.875 1.0944 "/>
    <path id="ID0.36722757993265986" fill="#CCCCCC" stroke="none" d="M 35.2753 3.8332 C 35.5293 3.8332 35.7595 3.9385 35.9261 4.1087 C 36.0928 4.2788 36.1959 4.5139 36.1959 4.7732 C 36.1959 5.0325 36.0928 5.2675 35.9261 5.4376 C 35.7595 5.6079 35.5293 5.7131 35.2753 5.7131 C 35.0214 5.7131 34.7912 5.6079 34.6246 5.4376 C 34.4579 5.2675 34.3548 5.0325 34.3548 4.7732 C 34.3548 4.5139 34.4579 4.2788 34.6246 4.1087 C 34.7912 3.9385 35.0214 3.8332 35.2753 3.8332 Z " stroke-width="0.13894444934715933"/>
    <path id="ID0.272235160227865" fill="none" stroke="#000000" stroke-width="0.8056840002536774" stroke-linecap="round" d="M 35.1964 4.8177 L 36.425 1.0444 "/>
  </g>
  <text id="ID0.5259432690218091" fill="#000000" text-anchor="start" font-family="Sans Serif" font-size="22" transform="matrix(0.493708 0 0 0.493708 2.88742 6.81888)" stroke-width="1" alignment-baseline="text-before-edge" xml:space="preserve"><tspan x="0" style="white-space: pre" dy="1.13em">Notes</tspan></text>
</svg>