<svg xmlns="http://www.w3.org/2000/svg" xmlns:xlink="http://www.w3.org/1999/xlink" version="1.1" width="481.95091063301356" height="303.10090452949794" viewBox="-0.7229492094148824 -0.4893492188085744 481.95091063301356 303.10090452949794">
  <defs>
    <radialGradient id="grad_1" cx="0.5036" cy="0.49420000000000003" r="0.6575399999999999">
      <stop offset="0" stop-color="#000000" stop-opacity="1"/>
      <stop offset="1" stop-color="#000000" stop-opacity="0"/>
    </radialGradient>
    <radialGradient id="grad_2" cx="0.4902" cy="0.9947" r="1.29311">
      <stop offset="0" stop-color="#FFFFFF" stop-opacity="1"/>
      <stop offset="1" stop-color="#FFFFFF" stop-opacity="0"/>
    </radialGradient>
    <radialGradient id="grad_3" cx="0.4985" cy="0.3256" r="0.8767199999999999">
      <stop offset="0" stop-color="#FFFFFF" stop-opacity="1"/>
      <stop offset="1" stop-color="#FFFFFF" stop-opacity="0"/>
    </radialGradient>
  <radialGradient id="grad_1-.9629921317100525,0,0,1.0365536212921143,7.3,16.5" cx="239.7659" cy="115.0871" r="64.4592" gradientUnits="userSpaceOnUse">
      <stop offset="0" stop-color="#000000" stop-opacity="1"/>
      <stop offset="1" stop-color="#000000" stop-opacity="0"/>
    </radialGradient><radialGradient id="grad_3-.180688738822937,0,0,1.4545893669128418,-46.95,-66.4" cx="239.5326" cy="98.5493" r="374.6299" gradientUnits="userSpaceOnUse">
      <stop offset="0" stop-color="#FFFFFF" stop-opacity="1"/>
      <stop offset="1" stop-color="#FFFFFF" stop-opacity="0"/>
    </radialGradient></defs>
  <!-- Exported by Scratch - http://scratch.mit.edu/ -->
  <path id="ID0.9176602242514491" fill="url(#grad_1-.9629921317100525,0,0,1.0365536212921143,7.3,16.5)" stroke="url(#grad_2)" stroke-width="2.000898425982322" d="M 240.1033 98.906 C 264.6702 98.906 284.6889 116.1315 304.2646 127.6901 C 301.4363 134.8112 292.0808 126.6131 285.2677 123.9906 C 270.4395 118.4181 255.9763 109.1192 240.2478 108.4941 C 226.8352 107.9603 213.3418 114.8731 200.7651 120.5182 C 177.6292 137.5591 170.8141 130.7645 175.9421 127.6901 C 192.6837 117.4634 215.5365 98.906 240.1033 98.906 Z "/>
  <path id="ID0.8883960330858827" fill="url(#grad_3-.180688738822937,0,0,1.4545893669128418,-46.95,-66.4)" stroke="none" d="M 0.2775 0.5111 L 480.2275 0.5111 L 480.2275 301.6111 L 0.2775 301.6111 L 0.2775 0.5111 Z " stroke-width="1.3247369784827476"/>
</svg>