<svg xmlns="http://www.w3.org/2000/svg" xmlns:xlink="http://www.w3.org/1999/xlink" version="1.1" width="68.57761521960697" height="29.52485032702884" viewBox="0.37825050043363917 0.42146851705808985 68.57761521960697 29.52485032702884">
  <defs>
    <radialGradient id="grad_1" cx="0.7666" cy="0.14279999999999998" r="1.11436">
      <stop offset="0" stop-color="#99B2FF" stop-opacity="1"/>
      <stop offset="1" stop-color="#0033CC" stop-opacity="1"/>
    </radialGradient>
    <radialGradient id="grad_2" cx="0.7666" cy="0.11810000000000001" r="1.14647">
      <stop offset="0" stop-color="#99B2FF" stop-opacity="1"/>
      <stop offset="1" stop-color="#0033CC" stop-opacity="1"/>
    </radialGradient>
    <radialGradient id="grad_3" cx="0.1103" cy="0.174" r="1.15661">
      <stop offset="0" stop-color="#99B2FF" stop-opacity="1"/>
      <stop offset="1" stop-color="#0033CC" stop-opacity="1"/>
    </radialGradient>
    <radialGradient id="grad_4" cx="0.1103" cy="0.1444" r="1.15661">
      <stop offset="0" stop-color="#99B2FF" stop-opacity="1"/>
      <stop offset="1" stop-color="#0033CC" stop-opacity="1"/>
    </radialGradient>
    <radialGradient id="grad_5" cx="0.354" cy="0.2097" r="1.02739">
      <stop offset="0" stop-color="#99B2FF" stop-opacity="1"/>
      <stop offset="1" stop-color="#0033CC" stop-opacity="1"/>
    </radialGradient>
    <radialGradient id="grad_6" cx="0.354" cy="0.19510000000000002" r="1.04637">
      <stop offset="0" stop-color="#99B2FF" stop-opacity="1"/>
      <stop offset="1" stop-color="#0033CC" stop-opacity="1"/>
    </radialGradient>
    <radialGradient id="grad_7" cx="0.47450000000000003" cy="0.2384" r="0.99008">
      <stop offset="0" stop-color="#CCCCCC" stop-opacity="1"/>
      <stop offset="1" stop-color="#7F7F7F" stop-opacity="1"/>
    </radialGradient>
    <radialGradient id="grad_8" cx="0.4067" cy="0.2339" r="0.99593">
      <stop offset="0" stop-color="#CCCCCC" stop-opacity="1"/>
      <stop offset="1" stop-color="#7F7F7F" stop-opacity="1"/>
    </radialGradient>
  <radialGradient id="grad_1-.0006748177693225443,-1.0459675788879395,1.0459675788879395,0.0006748177693225443,-16.80000000000001,37.35000000000002" cx="5.3008" cy="8.1036" r="24.5426" gradientUnits="userSpaceOnUse">
      <stop offset="0" stop-color="#99B2FF" stop-opacity="1"/>
      <stop offset="1" stop-color="#0033CC" stop-opacity="1"/>
    </radialGradient><radialGradient id="grad_3-.4370087385177612,0,0,1.4383609294891357,-315.45,-234.6" cx="21.9266" cy="9.779" r="35.9722" gradientUnits="userSpaceOnUse">
      <stop offset="0" stop-color="#99B2FF" stop-opacity="1"/>
      <stop offset="1" stop-color="#0033CC" stop-opacity="1"/>
    </radialGradient><radialGradient id="grad_5-.4977973699569702,0,0,1.4977973699569702,-333.35,-254.6" cx="62.0561" cy="11.6785" r="11.132" gradientUnits="userSpaceOnUse">
      <stop offset="0" stop-color="#99B2FF" stop-opacity="1"/>
      <stop offset="1" stop-color="#0033CC" stop-opacity="1"/>
    </radialGradient><radialGradient id="grad_7-.4977973699569702,0,0,2.0947842597961426,-313.5,-358.6" cx="2.9523" cy="8.0074" r="16.9183" gradientUnits="userSpaceOnUse">
      <stop offset="0" stop-color="#CCCCCC" stop-opacity="1"/>
      <stop offset="1" stop-color="#7F7F7F" stop-opacity="1"/>
    </radialGradient></defs>
  <!-- Exported by Scratch - http://scratch.mit.edu/ -->
  <g id="ID0.31250254483893514">
    <path id="Fill" fill="url(#grad_1-.0006748177693225443,-1.0459675788879395,1.0459675788879395,0.0006748177693225443,-16.80000000000001,37.35000000000002)" stroke="url(#grad_2)" stroke-width="2.091935593142121" d="M 2.8786 14.979 C 2.8979 11.0639 2.913 7.1102 3.6184 3.2646 C 3.7539 2.2961 4.2333 1.831 5.1358 2.0627 C 8.7459 2.9907 12.7557 3.6816 15.5405 6.1487 C 18.0202 8.3573 19.8305 11.8813 19.8231 15.2514 C 19.8649 18.542 18.1588 22.0512 15.6335 24.244 C 12.7837 26.7138 8.6466 27.1494 4.9621 28.0549 C 4.0374 28.2604 3.7027 28.1179 3.5507 27.1126 C 2.9121 23.1187 2.8593 19.0269 2.8786 14.979 Z "/>
    <path id="ID0.25581852719187737" fill="url(#grad_3-.4370087385177612,0,0,1.4383609294891357,-315.45,-234.6)" stroke="url(#grad_4)" stroke-width="1.4376849929760793" stroke-linecap="round" d="M 17.4331 6.9008 L 58.1723 9.2741 L 58.1004 21.2125 L 17.5049 23.442 L 17.4331 6.9008 Z "/>
    <path id="ID0.08080003643408418" fill="url(#grad_5-.4977973699569702,0,0,1.4977973699569702,-333.35,-254.6)" stroke="url(#grad_6)" stroke-width="1.4977973699569702" stroke-linecap="round" d="M 58.8482 9.0872 L 67.9099 9.4617 L 67.9099 20.9947 L 58.8482 21.4441 L 58.8482 9.0872 Z "/>
    <path id="Button" fill="#231F20" d="M 26.6016 13.7598 L 26.6033 11.0674 L 35.8863 11.0734 L 35.8845 13.7657 L 26.6016 13.7598 Z " stroke-width="1.0459677965710605"/>
    <path id="ID0.07518937904387712" fill="url(#grad_7-.4977973699569702,0,0,2.0947842597961426,-313.5,-358.6)" stroke="url(#grad_8)" stroke-linecap="round" d="M 4.2577 2.5408 C 4.1259 0.4188 3.037 1.9857 2.8348 2.6455 C 2.035 5.2598 1.8687 8.1946 1.6366 11.0247 C 1.4149 13.7249 1.37 16.446 1.4868 19.1943 C 1.671 22.0516 1.7145 25.087 2.5352 27.783 C 2.7599 28.5203 4.1154 29.8777 4.2577 27.783 C 4.8254 19.4038 4.719 10.9032 4.2577 2.5408 Z " stroke-width="1.8209225761327266"/>
  </g>
</svg>