<svg xmlns="http://www.w3.org/2000/svg" xmlns:xlink="http://www.w3.org/1999/xlink" version="1.1" width="85.5659044601773" height="25.77980216525542" viewBox="0.34234984625107445 -0.17255024205916725 85.5659044601773 25.77980216525542">
  <defs>
    <radialGradient id="grad_1" cx="0.22940000000000002" cy="0.9476" r="1.23188">
      <stop offset="0" stop-color="#000000" stop-opacity="1"/>
      <stop offset="1" stop-color="#CCCCCC" stop-opacity="1"/>
    </radialGradient>
    <radialGradient id="grad_2" cx="0.2459" cy="0.9689" r="1.2595699999999999">
      <stop offset="0" stop-color="#666666" stop-opacity="1"/>
      <stop offset="1" stop-color="#FFFFFF" stop-opacity="1"/>
    </radialGradient>
    <radialGradient id="grad_3" cx="0.5605" cy="0.336" r="0.8632">
      <stop offset="0" stop-color="#FF9400" stop-opacity="1"/>
      <stop offset="1" stop-color="#995900" stop-opacity="1"/>
    </radialGradient>
    <radialGradient id="grad_4" cx="0.5605" cy="0.336" r="0.8632">
      <stop offset="0" stop-color="#FF9400" stop-opacity="1"/>
      <stop offset="1" stop-color="#995900" stop-opacity="1"/>
    </radialGradient>
    <radialGradient id="grad_5" cx="0.5605" cy="0.336" r="0.8632">
      <stop offset="0" stop-color="#FF9400" stop-opacity="1"/>
      <stop offset="1" stop-color="#995900" stop-opacity="1"/>
    </radialGradient>
    <radialGradient id="grad_6" cx="0.5605" cy="0.336" r="0.8632">
      <stop offset="0" stop-color="#FF9400" stop-opacity="1"/>
      <stop offset="1" stop-color="#995900" stop-opacity="1"/>
    </radialGradient>
    <radialGradient id="grad_7" cx="0.5605" cy="0.336" r="0.8632">
      <stop offset="0" stop-color="#FF9400" stop-opacity="1"/>
      <stop offset="1" stop-color="#995900" stop-opacity="1"/>
    </radialGradient>
    <radialGradient id="grad_8" cx="0.5540999999999999" cy="0.3099" r="0.8971300000000001">
      <stop offset="0" stop-color="#FF0000" stop-opacity="1"/>
      <stop offset="1" stop-color="#660000" stop-opacity="1"/>
    </radialGradient>
  <radialGradient id="grad_1-.23159217834472656,0,0,0.15481433272361755,-30.55000000000001,-26.600000000000023" cx="20.3796" cy="24.0912" r="64.3246" gradientUnits="userSpaceOnUse">
      <stop offset="0" stop-color="#000000" stop-opacity="1"/>
      <stop offset="1" stop-color="#CCCCCC" stop-opacity="1"/>
    </radialGradient><radialGradient id="grad_2-.23159217834472656,0,0,0.15481433272361755,-16.150000000000006,-10.100000000000023" cx="21.8054" cy="22.2571" r="68.4637" gradientUnits="userSpaceOnUse">
      <stop offset="0" stop-color="#666666" stop-opacity="1"/>
      <stop offset="1" stop-color="#FFFFFF" stop-opacity="1"/>
    </radialGradient><radialGradient id="grad_3-.2471061497926712,0.005928137805312872,-0.0085219731554389,0.1587376743555069,9.800000000000011,-21.5" cx="50.9954" cy="6.5285" r="8.5241" gradientUnits="userSpaceOnUse">
      <stop offset="0" stop-color="#FF9400" stop-opacity="1"/>
      <stop offset="1" stop-color="#995900" stop-opacity="1"/>
    </radialGradient><radialGradient id="grad_4-.2471061497926712,0.005928137805312872,-0.0085219731554389,0.1587376743555069,19.05000000000001,-16.05000000000001" cx="60.2454" cy="11.9785" r="8.5241" gradientUnits="userSpaceOnUse">
      <stop offset="0" stop-color="#FF9400" stop-opacity="1"/>
      <stop offset="1" stop-color="#995900" stop-opacity="1"/>
    </radialGradient><radialGradient id="grad_5-.2471061497926712,0.005928137805312872,-0.0085219731554389,0.1587376743555069,-5.800000000000011,-19.600000000000023" cx="35.3954" cy="8.4285" r="8.5241" gradientUnits="userSpaceOnUse">
      <stop offset="0" stop-color="#FF9400" stop-opacity="1"/>
      <stop offset="1" stop-color="#995900" stop-opacity="1"/>
    </radialGradient><radialGradient id="grad_6-.2471061497926712,0.005928137805312872,-0.0085219731554389,0.1587376743555069,2.9000000000000057,-14.100000000000023" cx="44.0954" cy="13.9285" r="8.5241" gradientUnits="userSpaceOnUse">
      <stop offset="0" stop-color="#FF9400" stop-opacity="1"/>
      <stop offset="1" stop-color="#995900" stop-opacity="1"/>
    </radialGradient><radialGradient id="grad_7-.2471061497926712,0.005928137805312872,-0.0085219731554389,0.1587376743555069,-21.900000000000006,-16.850000000000023" cx="19.2954" cy="11.1785" r="8.5241" gradientUnits="userSpaceOnUse">
      <stop offset="0" stop-color="#FF9400" stop-opacity="1"/>
      <stop offset="1" stop-color="#995900" stop-opacity="1"/>
    </radialGradient><radialGradient id="grad_8-.2471061497926712,0.005928137805312872,-0.0085219731554389,0.1587376743555069,-12.75,-11.350000000000023" cx="28.3556" cy="16.5575" r="8.8591" gradientUnits="userSpaceOnUse">
      <stop offset="0" stop-color="#FF0000" stop-opacity="1"/>
      <stop offset="1" stop-color="#660000" stop-opacity="1"/>
    </radialGradient></defs>
  <!-- Exported by Scratch - http://scratch.mit.edu/ -->
  <g id="ID0.6616348065435886">
    <path id="ID0.03498283354565501" fill="url(#grad_1-.23159217834472656,0,0,0.15481433272361755,-30.55000000000001,-26.600000000000023)" stroke="#000000" stroke-width="0.3939604413824175" stroke-linecap="round" d="M 1.0971 11.1979 L 1.3518 10.3232 L 21.014 22.182 L 85.1535 13.9768 L 85.1303 15.7417 L 83.4512 16.6706 L 22.6815 24.8525 L 18.8602 24.2101 L 1.0971 12.9396 L 1.0971 11.1979 Z "/>
    <path id="ID0.07586668198928237" fill="url(#grad_2-.23159217834472656,0,0,0.15481433272361755,-16.150000000000006,-10.100000000000023)" stroke="#000000" stroke-width="0.3939604413824175" stroke-linecap="round" d="M 1.2773 10.0259 L 59.7543 0.5822 L 63.8072 0.737 L 85.1137 13.8188 L 83.4925 14.8251 L 22.6996 22.9529 L 18.9941 22.2562 L 1.1615 11.2644 L 1.2773 10.0259 Z "/>
    <path id="ID0.43733123503625393" fill="url(#grad_3-.2471061497926712,0.005928137805312872,-0.0085219731554389,0.1587376743555069,9.800000000000011,-21.5)" stroke="#000000" stroke-width="0.4155590405222057" stroke-linecap="round" d="M 50.1685 4.9787 C 52.2409 5.0284 54.1053 5.3282 55.443 5.7724 C 56.781 6.2168 57.5921 6.8055 57.5584 7.4328 C 57.5247 8.0601 56.6526 8.6084 55.2704 8.9875 C 53.8885 9.3665 51.9968 9.5762 49.9243 9.5265 C 47.8518 9.4768 45.9875 9.1769 44.6498 8.7327 C 43.3118 8.2883 42.5007 7.6997 42.5343 7.0724 C 42.568 6.445 43.4402 5.8968 44.8224 5.5176 C 46.2043 5.1387 48.096 4.9289 50.1685 4.9787 Z "/>
    <path id="ID0.43733123503625393" fill="url(#grad_4-.2471061497926712,0.005928137805312872,-0.0085219731554389,0.1587376743555069,19.05000000000001,-16.05000000000001)" stroke="#000000" stroke-width="0.4155590405222057" stroke-linecap="round" d="M 59.4185 10.4287 C 61.4909 10.4784 63.3553 10.7782 64.693 11.2224 C 66.031 11.6668 66.8421 12.2555 66.8084 12.8828 C 66.7747 13.5101 65.9026 14.0584 64.5204 14.4375 C 63.1385 14.8165 61.2468 15.0262 59.1743 14.9765 C 57.1018 14.9268 55.2375 14.6269 53.8998 14.1827 C 52.5618 13.7383 51.7507 13.1497 51.7843 12.5224 C 51.818 11.895 52.6902 11.3468 54.0724 10.9676 C 55.4543 10.5887 57.346 10.3789 59.4185 10.4287 Z "/>
    <path id="ID0.43733123503625393" fill="url(#grad_5-.2471061497926712,0.005928137805312872,-0.0085219731554389,0.1587376743555069,-5.800000000000011,-19.600000000000023)" stroke="#000000" stroke-width="0.4155590405222057" stroke-linecap="round" d="M 34.5685 6.8787 C 36.6409 6.9284 38.5053 7.2282 39.843 7.6724 C 41.181 8.1168 41.9921 8.7055 41.9584 9.3328 C 41.9247 9.9601 41.0526 10.5084 39.6704 10.8875 C 38.2885 11.2665 36.3968 11.4762 34.3243 11.4265 C 32.2518 11.3768 30.3875 11.0769 29.0498 10.6327 C 27.7118 10.1883 26.9007 9.5997 26.9343 8.9724 C 26.968 8.345 27.8402 7.7968 29.2224 7.4176 C 30.6043 7.0387 32.496 6.8289 34.5685 6.8787 Z "/>
    <path id="ID0.43733123503625393" fill="url(#grad_6-.2471061497926712,0.005928137805312872,-0.0085219731554389,0.1587376743555069,2.9000000000000057,-14.100000000000023)" stroke="#000000" stroke-width="0.4155590405222057" stroke-linecap="round" d="M 43.2685 12.3787 C 45.3409 12.4284 47.2053 12.7282 48.543 13.1724 C 49.881 13.6168 50.6921 14.2055 50.6584 14.8328 C 50.6247 15.4601 49.7526 16.0084 48.3704 16.3875 C 46.9885 16.7665 45.0968 16.9762 43.0243 16.9265 C 40.9518 16.8768 39.0875 16.5769 37.7498 16.1327 C 36.4118 15.6883 35.6007 15.0997 35.6343 14.4724 C 35.668 13.845 36.5402 13.2968 37.9224 12.9176 C 39.3043 12.5387 41.196 12.3289 43.2685 12.3787 Z "/>
    <path id="ID0.43733123503625393" fill="url(#grad_7-.2471061497926712,0.005928137805312872,-0.0085219731554389,0.1587376743555069,-21.900000000000006,-16.850000000000023)" stroke="#000000" stroke-width="0.4155590405222057" stroke-linecap="round" d="M 18.4685 9.6287 C 20.5409 9.6784 22.4053 9.9782 23.743 10.4224 C 25.081 10.8668 25.8921 11.4555 25.8584 12.0828 C 25.8247 12.7101 24.9526 13.2584 23.5704 13.6375 C 22.1885 14.0165 20.2968 14.2262 18.2243 14.1765 C 16.1518 14.1268 14.2875 13.8269 12.9498 13.3827 C 11.6118 12.9383 10.8007 12.3497 10.8343 11.7224 C 10.868 11.095 11.7402 10.5468 13.1224 10.1676 C 14.5043 9.7887 16.396 9.5789 18.4685 9.6287 Z "/>
    <path id="ID0.43733123503625393" fill="url(#grad_8-.2471061497926712,0.005928137805312872,-0.0085219731554389,0.1587376743555069,-12.75,-11.350000000000023)" stroke="#000000" stroke-width="0.4155590405222057" stroke-linecap="round" d="M 27.6185 15.1287 C 29.6909 15.1784 31.5553 15.4782 32.893 15.9224 C 34.231 16.3668 35.0421 16.9555 35.0084 17.5828 C 34.9747 18.2101 34.1026 18.7584 32.7204 19.1375 C 31.3385 19.5165 29.4468 19.7262 27.3743 19.6765 C 25.3018 19.6268 23.4375 19.3269 22.0998 18.8827 C 20.7618 18.4383 19.9507 17.8497 19.9843 17.2224 C 20.018 16.595 20.8902 16.0468 22.2724 15.6676 C 23.6543 15.2887 25.546 15.0789 27.6185 15.1287 Z "/>
    <g id="ID0.9585692379623652">
      <path id="ID0.4384414437226951" fill="#003FFF" stroke="#000000" d="M 68.0598 5.4811 C 68.6856 5.8712 69.1962 6.3169 69.5139 6.7214 C 69.8326 7.1266 69.9589 7.4896 69.8174 7.7165 C 69.676 7.9435 69.2944 7.9899 68.7903 7.8821 C 68.2872 7.775 67.6622 7.5128 67.0364 7.1227 C 66.4107 6.7326 65.9001 6.2869 65.5824 5.8824 C 65.2637 5.4772 65.1373 5.1142 65.2788 4.8873 C 65.4203 4.6603 65.8019 4.6139 66.3059 4.7217 C 66.809 4.8288 67.434 5.091 68.0598 5.4811 Z " stroke-width="1.1379310072459543"/>
      <path id="ID0.292195423040539" fill="#003FFF" stroke="#003FFF" d="M 63.7026 7.0895 L 66.8578 6.3033 L 67.7153 6.9412 L 64.2172 8.3591 L 63.7026 7.0895 Z " stroke-width="1.0635697726836593"/>
      <path id="ID0.4384414437226951" fill="#003FFF" stroke="#000000" d="M 65.1569 6.2912 C 65.987 6.8087 66.6643 7.3999 67.0858 7.9366 C 67.5085 8.474 67.6761 8.9556 67.4884 9.2567 C 67.3008 9.5577 66.7946 9.6192 66.1259 9.4763 C 65.4585 9.3342 64.6294 8.9864 63.7994 8.4689 C 62.9693 7.9515 62.2919 7.3602 61.8705 6.8236 C 61.4478 6.2861 61.2801 5.8046 61.4678 5.5035 C 61.6555 5.2025 62.1616 5.1409 62.8303 5.2838 C 63.4977 5.4259 64.3268 5.7738 65.1569 6.2912 Z " stroke-width="1.5095003464077632"/>
      <path id="ID0.4384414437226951" fill="#003FFF" stroke="#000000" d="M 64.5369 6.9096 C 65.2329 7.3435 65.8009 7.8392 66.1542 8.2891 C 66.5087 8.7398 66.6492 9.1436 66.4918 9.396 C 66.3345 9.6484 65.9101 9.7 65.3494 9.5802 C 64.7898 9.461 64.0947 9.1694 63.3987 8.7355 C 62.7027 8.3016 62.1348 7.8059 61.7814 7.3559 C 61.427 6.9053 61.2864 6.5015 61.4438 6.2491 C 61.6011 5.9967 62.0255 5.9451 62.5862 6.0649 C 63.1458 6.1841 63.8409 6.4757 64.5369 6.9096 Z " stroke-width="1.2656580066685366"/>
    </g>
  </g>
</svg>