<svg xmlns="http://www.w3.org/2000/svg" xmlns:xlink="http://www.w3.org/1999/xlink" width="114.4516372680664" height="135.5822296142578" viewBox="-0.08074396848678589 -0.2691958546638489 114.4516372680664 135.5822296142578" version="1.1" xml:space="preserve">
  <!-- Generator: Sketch 52.4 (67378) - http://www.bohemiancoding.com/sketch -->
  <g>
    <title>Slice 1</title>
    <desc>Created with Sketch.</desc>
    <g id="Page-1" stroke="none" fill-rule="evenodd">
      <g id="dot-d-[space,dog,wren-mcdonald]">
        <g id="Group-2">
          <path d="M 78.825 76.2 L 82.275 71.85 L 84.547 62.625 L 84.547 56.325 L 81.686 49.2 L 75.75 41.4 L 67.275 35.625 L 59.325 32.85 L 50.325 31.275 L 38.025 31.5 L 30.225 32.7 L 22.425 34.35 L 14.325 38.625 L 8.25 44.025 L 4.65 50.1 L 2.325 57.15 L 1.725 63.975 L 3.375 71.925 L 7.125 78.6 L 13.875 85.275 L 21.9 90.225 L 27.75 91.95 L 30.375 88.5 L 33.6 84.225 L 40.05 80.55 L 51.15 76.425 C 51.15 76.425 63.525 75.525 63.825 75.6 C 64.125 75.675 78.825 76.2 78.825 76.2 Z " id="Shape" fill="#FFFFFF" stroke-width="1"/>
          <path d="M 63.525 74.55 L 65.625 65.55 C 65.625 65.55 69.75 69.825 69.975 70.05 C 70.2 70.275 75.075 70.65 75.075 70.65 L 76.35 67.05 L 76.35 51.6 C 76.35 51.6 72.6 50.7 72.375 50.7 C 72.15 50.7 57.9 52.5 57.9 52.5 C 57.9 52.5 52.5 51.075 52.275 51.075 C 52.05 51.075 42.825 49.725 42.6 49.8 C 42.375 49.875 32.025 50.625 32.025 50.625 L 29.7 52.05 L 26.775 51.225 L 10.65 51.3 L 10.65 62.7 L 11.625 71.625 L 14.475 73.575 L 19.125 70.575 L 20.175 72.75 L 21.45 79.35 L 24.3 83.85 L 30.075 87.675 L 28.725 90.9 L 26.8 98.8 L 25.4 107.5 L 25.5 117 L 25.8 123.8 L 27.4 128.7 L 31.8 132.3 L 37.4 132.7 L 41.7 130.1 L 43.9 132.1 L 48.8 131.7 L 52.4 129 L 54.8 119.4 L 53.1 111.9 L 61.3 112.6 L 66.3 112.6 L 65.7 118.2 C 65.7 118.2 66.301 125.7 66.4 126 C 66.5 126.3 68 131.4 68 131.4 L 71.4 132.7 L 75.7 133.1 L 80.2 131.2 L 82.6 126.2 L 85 130 L 88.4 131.1 L 93.9 131 L 96.6 127.5 L 98 119.2 L 96.2 99.1 L 102.1 95.9 L 108.7 91.448 L 112.3 86.2 L 111.2 82.8 L 108.5 81.6 L 105.8 82.4 L 103 85.1 L 98.2 87.7 L 94.2 89.2 L 87.5 88.3 L 83.077 87.1 L 74.2 84.5 L 63.8 76.8 L 63.525 74.55 Z " id="Shape" fill="#FCB322" stroke-width="1"/>
          <path d="M 80.5 78.2 C 80.5 78.2 75.1 76.2 74.7 76.3 C 74.3 76.4 62.2 75.8 62.2 75.8 L 48.1 77 L 44.4 78.8 L 43.136 81.5 L 42.6 84 L 44.4 88.3 L 49.2 90.4 L 52.7 91.448 L 51.5 94.7 C 51.5 94.7 50.6 100.2 50.6 100.5 C 50.6 100.8 51.1 104.6 51.1 104.6 L 53.2 110.2 L 55 112.1 L 62.7 112.4 L 60.7 109.5 L 59.6 105.166 L 58.4 100.8 L 59.1 96.4 L 60.3 91.95 L 63.9 91.448 L 70.7 91.448 L 76.5 90.6 L 81.607 89 L 83.8 84.2 L 83.8 81.3 L 80.5 78.2 Z " id="Shape" fill="#71CBD2" stroke-width="1"/>
          <path d="M 48.75 1.65 L 42.075 2.625 L 38.925 6.3 L 38.025 10.125 L 39.225 14.025 L 41.85 16.575 L 46.725 16.95 C 46.725 16.95 51.525 15.15 51.75 15.075 C 51.975 15 54.225 10.8 54.225 10.8 L 54.225 6 L 51.525 2.7 L 48.75 1.65 Z " id="Shape" fill="#EF463C" stroke-width="1"/>
        </g>
        <g id="Group">
          <path d="M82.78,129.226 C82.172,131.353 80.593,132.485 78.892,133.696 C76.915,135.106 74.877,134.786 72.786,134.773 C72.328,134.771 71.868,134.587 71.412,134.598 C69.232,134.649 67.471,133.516 66.738,131.755 C65.776,129.442 64.816,127.087 64.545,124.451 C64.216,121.237 64.048,118.077 64.376,114.871 C64.406,114.577 63.927,113.966 63.658,113.95 C61.607,113.826 59.549,113.827 57.495,113.76 C56.751,113.735 56.009,113.63 55.122,113.548 C55.199,113.555 55.495,116.168 55.53,116.422 C55.858,118.802 55.708,121.232 55.279,123.589 C54.872,125.829 54.34,127.966 52.98,129.816 C52.28,130.768 51.724,131.692 50.749,132.41 C48.679,133.933 45.679,133.827 43.297,133.207 C42.382,132.97 42.039,132.512 41.581,131.724 C40.234,132.599 38.78,133.306 37.201,133.704 C36.319,133.925 35.428,133.892 34.515,133.892 C32.426,133.892 30.681,133.43 29.064,132.077 C27.654,130.898 26.582,129.352 25.799,127.699 C25.246,126.528 24.826,125.296 24.509,124.042 C24.14,122.58 24.193,121.08 24.176,119.581 C24.163,118.477 24.177,117.373 24.177,116.269 C24.177,112.66 24.271,109.05 24.565,105.454 C24.642,104.509 24.686,103.579 24.919,102.673 C25.165,101.716 25.105,100.704 25.339,99.739 C25.591,98.701 25.73,97.653 25.932,96.601 C26.078,95.839 26.215,95.064 26.479,94.33 C26.555,94.118 26.953,93.523 26.843,93.329 C26.73,93.132 26.012,93.075 25.804,93.031 C25.443,92.954 25.054,92.909 24.691,92.819 C23.832,92.609 22.921,92.099 22.106,91.741 C21.14,91.316 20.188,90.853 19.297,90.285 C16.961,88.801 14.631,87.289 12.428,85.617 C9.524,83.412 7.282,80.573 5.285,77.538 C5.035,77.159 4.583,76.908 4.352,76.522 C2.542,73.499 1.165,70.315 0.683,66.78 C0.257,63.647 0.325,59.9 1.049,56.811 C1.485,54.95 1.787,53.026 2.476,51.246 C3.159,49.484 3.914,47.758 4.822,46.099 C5.66,44.569 6.47,43.457 7.731,42.191 C10.234,39.679 13.153,37.588 16.317,35.989 C20.287,33.982 24.537,32.583 28.868,31.597 C31.003,31.11 33.158,30.722 35.323,30.403 C37.3,30.11 39.271,30.198 41.239,29.961 C42.155,29.851 43.145,29.716 44.087,29.629 C44.182,27.467 44.508,25.369 44.487,23.185 C44.476,22.097 44.377,21.011 44.373,19.924 C44.368,18.613 43.576,17.641 41.969,17.197 C39.356,16.474 36.503,12.996 36.393,9.783 C36.313,7.431 37.472,6.011 38.584,4.355 C40.374,1.691 43.214,0.537 46.061,0.278 C49.171,-0.004 52.316,0.955 54.305,3.769 C55.44,5.374 55.673,7.301 55.352,9.253 C55.141,10.542 55.011,11.864 54.622,13.101 C53.987,15.124 52.483,16.51 50.649,17.432 C49.56,17.979 48.299,18.184 46.909,18.606 C46.909,22.093 46.909,25.847 46.909,29.673 C51.07,29.486 55.022,29.914 58.858,30.995 C61.273,31.676 63.6,32.689 65.93,33.641 C67.826,34.417 69.758,35.174 71.508,36.217 C73.092,37.162 74.589,38.346 75.878,39.666 C77.882,41.718 80.068,43.75 81.472,46.195 C83.855,50.345 86.303,54.652 86.213,59.657 C86.165,62.318 85.542,64.978 85.069,67.619 C84.527,70.643 82.952,73.231 81.337,75.782 C81.172,76.042 80.817,76.181 80.451,76.449 C82.219,77.39 83.939,78.238 84.851,80.152 C85.777,82.097 84.83,83.944 84.851,85.884 C87.263,86.548 89.657,87.421 92.128,87.826 C94.633,88.238 97.123,87.536 99.245,86.184 C101.295,84.877 103.071,83.147 105.073,81.754 C105.823,81.233 106.856,81.075 107.786,80.873 C108.4,80.738 109.06,80.824 109.699,80.81 C112.333,80.75 114.056,82.669 113.855,85.296 C113.638,88.113 111.982,90.131 110.16,92 C107.463,94.765 104.141,96.661 100.672,98.293 C99.919,98.648 99.091,98.844 98.08,99.186 C98.293,101.458 98.468,103.771 98.732,106.073 C99.367,111.628 100.013,117.189 99.109,122.764 C98.773,124.843 98.237,126.914 97.555,128.908 C96.658,131.529 93.131,133.422 90.158,133.333 C87.025,133.238 85.01,131.337 82.78,129.226 Z M64.913,74.439 C65.146,74.464 65.438,74.508 65.732,74.523 C69.062,74.693 72.452,74.534 75.702,75.133 C78.034,75.564 78.994,74.225 79.87,72.918 C81.639,70.28 82.458,67.217 83.078,64.099 C83.837,60.276 83.382,56.623 81.965,53.039 C81.516,51.904 81.328,50.617 80.681,49.619 C79.401,47.644 78.019,45.699 76.431,43.969 C74.773,42.162 72.912,40.511 70.982,38.99 C67.402,36.17 63.01,34.952 58.785,33.671 C53.995,32.22 48.955,31.814 43.899,32.279 C41.288,32.52 38.654,32.542 36.05,32.837 C31.706,33.33 27.083,33.842 23.032,35.561 C21.421,36.244 19.918,36.981 18.331,37.736 C16.583,38.569 14.792,39.409 13.231,40.566 C12.571,41.055 12.017,41.66 11.429,42.229 C10.334,43.291 9.535,44.536 8.57,45.7 C7.458,47.04 6.485,48.502 5.759,50.088 C4.224,53.447 3.1,56.774 2.753,60.54 C2.148,67.108 4.593,74.435 9.873,79.762 C12.286,82.198 14.65,84.608 17.621,86.43 C20.759,88.354 23.841,90.251 27.56,90.569 C28.054,89.879 28.531,89.214 29.126,88.385 C25.529,86.383 22.379,83.79 20.848,79.886 C20.315,78.526 19.922,77.136 19.469,75.748 C19.115,74.665 18.753,73.699 18.724,72.563 C18.347,72.772 18.145,73.181 17.803,73.438 C17.434,73.715 17.014,73.921 16.579,74.071 C15.748,74.359 14.83,74.458 13.958,74.335 C12.274,74.098 11.129,72.81 10.44,71.336 C9.727,69.812 9.376,68.055 9.185,66.367 C8.967,64.432 9.109,62.456 9.094,60.498 C9.084,59.179 8.997,57.862 8.953,56.545 C8.887,54.618 8.403,51.833 10.14,50.433 C10.502,50.142 11.024,49.874 11.462,49.715 C13.1,49.12 15.184,49.84 16.873,49.901 C18.739,49.969 20.621,49.662 22.484,49.753 C23.392,49.796 24.284,49.829 25.177,49.916 C26.169,50.012 27.154,49.831 28.15,50.017 C28.651,50.111 29.587,50.431 29.88,50.836 C30.274,50.507 30.748,50.249 31.193,49.97 C31.743,49.625 32.529,49.553 33.155,49.412 C33.821,49.261 34.489,49.057 35.171,48.983 C38.99,48.572 42.835,47.938 46.691,48.679 C48.539,49.033 50.395,49.355 52.233,49.759 C53.517,50.042 54.7,50.584 55.97,50.98 C56.333,51.092 56.796,51.23 57.173,51.242 C57.635,51.257 57.337,51.287 57.688,51.068 C58.394,50.629 58.877,50.371 59.817,50.277 C60.388,50.219 60.912,50.12 61.498,50.12 C62.379,50.12 63.134,50.07 63.991,49.978 C64.988,49.871 65.993,49.729 66.996,49.711 C68.791,49.678 70.536,49.526 72.338,49.522 C73.337,49.52 74.45,49.545 75.314,49.965 C77.149,50.859 77.467,52.844 77.649,54.563 C77.964,57.532 77.981,60.544 77.946,63.535 C77.926,65.346 77.747,67.196 77.315,68.949 C76.985,70.288 76.474,71.818 74.654,71.964 C74.015,72.016 73.364,71.922 72.718,71.885 C70.502,71.761 68.688,70.917 67.475,68.973 C67.224,68.569 66.898,68.213 66.488,67.684 C65.935,70.061 65.438,72.182 64.913,74.439 Z M95.506,100.298 C93.15,100.298 91.193,100.374 89.244,100.274 C88.118,100.216 86.731,100.324 85.694,99.794 C84.948,99.412 83.753,98.412 84.152,97.483 C84.479,96.719 86,97.016 86.601,97.184 C90.146,98.173 93.691,97.867 97.139,96.886 C99.005,96.354 100.754,95.345 102.489,94.426 C105.95,92.591 109.015,90.278 111.001,86.786 C111.529,85.859 111.727,84.94 111.167,83.899 C110.73,83.084 110.189,82.343 109.273,82.503 C108.307,82.671 107.311,83.071 106.496,83.621 C104.416,85.03 102.517,86.723 100.379,88.028 C98.197,89.36 95.906,90.511 93.157,90.404 C91.67,90.347 90.011,90.328 88.61,89.776 C87.53,89.35 86.414,89.29 85.337,88.888 C84.994,88.76 84.439,88.155 84.164,88.111 C83.563,88.016 83.44,88.644 83.054,89.039 C80.231,91.936 75.629,91.664 71.911,92.086 C70.49,92.248 69.08,92.539 67.655,92.626 C65.903,92.732 64.129,92.581 62.389,92.761 C61.729,92.83 60.901,93.374 60.564,93.946 C60.089,94.752 59.886,95.769 59.765,96.722 C59.413,99.484 59.347,102.34 60.122,105.04 C60.685,107 62.22,111.422 64.715,111.606 C65.352,111.653 65.911,111.256 66.519,111.638 C67.026,111.958 67.172,112.584 67.195,113.143 C67.273,114.959 66.519,116.741 66.632,118.591 C66.856,122.221 66.965,125.853 68.652,129.158 C69.16,130.153 69.995,131.217 70.957,131.695 C72.69,132.556 74.701,132.413 76.544,131.962 C78.922,131.379 79.979,129.408 80.663,127.252 C81.522,124.546 80.752,121.787 80.722,119.065 C80.696,116.801 80.153,114.562 80.456,112.243 C80.558,111.462 80.757,110.702 81.626,110.546 C82.417,110.404 83.45,110.608 83.704,111.445 C84.174,112.989 83.791,114.812 83.929,116.405 C84.022,117.47 84.027,118.511 84.08,119.575 C84.176,121.472 84.643,123.325 84.742,125.221 C84.875,127.726 86.886,129.472 89.222,130.142 C90.8,130.595 92.818,130.667 93.917,129.255 C95.132,127.693 96.028,125.605 96.306,123.643 C96.88,119.584 97.307,115.483 96.658,111.333 C96.09,107.718 95.883,104.046 95.506,100.298 Z M60.013,74.83 C60.842,74.936 61.735,75.062 62.242,74.276 C62.482,73.903 62.552,73.406 62.68,72.988 C62.899,72.271 63.194,71.573 63.343,70.835 C63.658,69.287 63.918,67.712 63.918,66.127 C63.918,65.431 63.945,64.658 63.616,64.045 C63.292,63.439 62.729,63.001 62.371,62.419 C61.799,61.488 61.278,60.526 60.726,59.585 C59.685,57.81 59.057,55.362 57.181,54.257 C56.12,53.632 55.241,52.919 54.041,52.57 C52.334,52.075 50.625,51.691 48.895,51.298 C46.922,50.849 44.954,50.677 42.935,50.678 C41.248,50.678 39.577,50.813 37.892,50.872 C36.814,50.909 35.79,50.998 34.717,51.109 C33.139,51.274 31.172,51.815 30.39,53.369 C29.623,54.893 29.042,56.504 28.19,57.988 C26.791,60.422 25.235,62.766 23.78,65.169 C22.843,66.716 21.344,68.561 21.29,70.412 C21.195,73.632 21.251,76.25 22.756,79.198 C23.86,81.361 25.543,84.247 27.781,85.397 C28.339,85.685 28.981,85.944 29.596,86.078 C30.533,86.284 31.043,86.281 31.668,85.507 C32.286,84.741 33.238,84.162 34.09,83.692 C35.248,83.053 36.311,82.346 37.612,81.997 C38.818,81.674 39.979,81.13 41.228,80.991 C41.917,80.914 41.955,80.999 42.202,80.355 C42.482,79.623 42.769,79.076 43.412,78.548 C45.506,76.827 48.445,75.565 51.157,75.3 C52.76,75.143 54.347,75.044 55.959,74.978 C57.071,74.932 58.189,74.75 59.301,74.765 C59.525,74.768 59.767,74.798 60.013,74.83 Z M52.426,111.013 C52.472,110.891 52.517,110.769 52.564,110.647 C48.582,104.56 49.43,98.17 51.464,91.876 C51.512,91.727 48.724,90.928 48.463,90.844 C48.009,90.7 47.56,90.589 47.11,90.47 C46.661,90.353 46.329,90.06 45.904,89.882 C45.1,89.545 44.246,89.079 43.549,88.49 C42.899,87.943 42.128,87.169 41.695,86.441 C40.89,85.087 41.454,82.967 39.393,83.465 C36.902,84.067 34.541,85.273 32.866,87.238 C32.278,87.928 31.845,88.726 31.278,89.424 C29.111,92.091 28.123,95.396 27.584,98.739 C27.315,100.412 27.143,102.1 26.941,103.781 C26.842,104.606 26.6,105.502 26.603,106.33 C26.607,107.169 26.686,108.01 26.659,108.864 C26.589,111.001 26.452,113.135 26.447,115.273 C26.444,117.066 26.39,118.924 26.544,120.696 C26.683,122.287 26.739,123.984 27.348,125.413 C28.648,128.465 31.061,130.55 34.15,131.785 C35.366,132.271 37.576,131.524 38.59,130.823 C39.181,130.414 39.65,129.442 40.009,128.82 C40.485,127.996 40.749,127.078 40.837,126.133 C40.918,125.251 40.989,124.384 40.989,123.492 C40.989,122.779 40.967,122.077 41.065,121.372 C41.258,119.976 41.16,118.559 41.177,117.14 C41.197,115.52 41.218,113.9 41.218,112.28 C41.218,111.598 41.075,110.915 40.979,110.071 C40.628,109.911 40.073,109.763 39.652,109.441 C39.096,109.014 38.426,108.508 38.896,107.648 C39.316,106.878 39.988,106.937 40.648,107.316 C41.416,107.757 42.104,108.446 42.924,108.67 C46.071,109.529 49.256,110.244 52.426,111.013 Z M72.699,90.001 C70.651,88.176 70.795,85.87 70.714,83.612 C70.625,81.122 72.046,79.301 73.551,77.377 C70.97,77.168 68.591,76.796 66.221,76.842 C64.403,76.878 62.601,77.147 60.748,77.087 C58.287,77.006 55.82,77.036 53.368,77.255 C51.211,77.45 49.181,77.452 47.242,78.588 C46.492,79.027 45.706,79.333 45.103,79.95 C44.506,80.561 43.793,81.373 43.475,82.181 C43.19,82.905 43.312,83.779 43.312,84.545 C43.312,85.536 43.546,85.959 44.229,86.702 C44.786,87.305 45.424,87.769 46.177,88.086 C46.872,88.377 47.41,88.943 48.112,89.249 C48.781,89.541 49.523,89.581 50.191,89.841 C50.958,90.14 51.728,90.319 52.554,90.415 C55.3,90.737 58.061,90.568 60.799,90.568 C64.045,90.568 67.292,90.422 70.539,90.319 C71.227,90.296 71.91,90.122 72.699,90.001 Z M11.682,52.033 C11.578,53.074 11.414,53.997 11.413,54.92 C11.41,56.302 11.717,57.708 11.543,59.06 C11.158,62.066 11.756,65.008 11.909,67.975 C11.956,68.892 12.45,69.817 12.865,70.679 C13.375,71.736 15.343,72.313 16.168,71.54 C17.398,70.388 18.617,69.143 19.501,67.726 C20.601,65.961 21.236,63.911 22.287,62.11 C24.019,59.143 25.923,56.275 27.787,53.311 C27.229,52.942 26.96,52.61 26.676,52.598 C21.713,52.387 16.749,52.216 11.682,52.033 Z M59.704,53.165 C60.071,53.982 60.247,54.504 60.524,54.966 C61.793,57.092 62.953,59.302 64.414,61.291 C66.303,63.862 68.375,66.308 70.496,68.696 C71.843,70.21 74.078,69.491 74.627,67.57 C75.307,65.188 75.473,62.767 75.444,60.314 C75.425,58.754 75.464,57.191 75.392,55.634 C75.36,54.96 75.146,54.287 74.954,53.63 C74.567,52.304 73.858,51.899 71.569,52 C69.026,52.112 66.486,52.351 63.95,52.587 C62.612,52.712 61.284,52.946 59.704,53.165 Z M43.891,111.296 C43.783,111.274 43.675,111.251 43.567,111.229 C43.592,114.113 43.906,116.909 43.868,119.792 C43.828,122.879 43.649,125.986 42.922,128.998 C42.708,129.883 43.097,130.33 43.918,130.598 C47.204,131.671 50.798,129.872 51.82,126.573 C53.134,122.329 53.179,118.037 52.14,113.735 C52.063,113.413 51.722,112.976 51.433,112.913 C48.915,112.355 46.403,111.815 43.891,111.296 Z M39.01,10.294 C38.697,11.864 39.704,13.144 40.873,14.021 C42.934,15.568 45.517,15.457 47.972,15.61 C48.211,15.624 48.472,15.532 48.699,15.433 C51.358,14.268 53.355,10.206 52.717,7.282 C52.138,4.63 49.215,2.622 46.526,3.166 C45.394,3.395 44.333,3.962 43.229,4.346 C40.666,5.236 39.071,7.409 39.01,10.294 Z M82.653,83.232 C82.828,81.158 81.57,78.863 79.448,78.668 C77.241,78.465 75.091,78.776 73.716,80.639 C72.605,82.142 72.257,83.888 72.77,85.696 C73.397,87.908 76.115,89.786 77.937,89.267 C80.821,88.445 82.386,86.404 82.653,83.232 Z M54.038,92.361 C53.976,92.361 53.929,92.364 53.9,92.371 C52.768,92.66 52.663,94.676 52.463,95.618 C52.325,96.275 52.229,96.72 52.13,97.364 C51.968,98.428 52.61,98.129 53.444,98.141 C53.749,98.146 57.206,98.579 57.216,98.521 C57.558,96.521 57.872,94.685 58.198,92.782 C58.167,92.963 54.838,92.366 54.038,92.361 Z M57.249,100.46 C56.456,99.951 54.636,100.237 53.846,100.163 C53.435,100.124 52.738,100.057 52.346,100.163 C51.738,100.326 51.867,100.311 51.82,100.979 C51.751,101.959 51.775,103.244 52.043,104.176 C52.473,105.671 56.839,105.098 57.984,104.998 C57.213,103.679 58.234,102.086 57.541,100.767 C57.475,100.641 57.375,100.541 57.249,100.46 Z M52.811,108 C53.064,108.787 53.651,109.507 54.149,110.104 C55.009,111.137 55.201,111.224 56.566,111.338 C57.233,111.394 57.905,111.372 58.576,111.372 C59.302,111.372 60.035,111.392 60.757,111.364 C60.092,110.503 59.515,109.778 58.963,108.815 C58.57,108.128 58.25,107.14 57.421,106.905 C56.056,106.518 54.152,106.691 52.741,106.763 C52.642,107.188 52.684,107.602 52.811,108 Z" id="Shape" fill-rule="nonzero" stroke-width="1" fill="#2A3D98"/>
          <path d="M84.458,103.024 C84.55,103.368 84.574,103.711 84.517,103.957 C84.383,104.528 84.025,105.026 83.422,105.146 C82.457,105.34 81.533,104.019 81.612,103.14 C81.674,102.451 82.347,101.94 82.956,101.732 C83.707,101.477 84.253,102.256 84.458,103.024 Z" id="Shape" stroke-width="1" fill="#2A3D98"/>
        </g>
      </g>
    </g>
  </g>
</svg>