<svg xmlns="http://www.w3.org/2000/svg" xmlns:xlink="http://www.w3.org/1999/xlink" version="1.1" width="39.578399658203125" height="39.464698791503906" viewBox="1.3873000144958496 2.5171000957489014 39.578399658203125 39.464698791503906">
  <defs>
    <radialGradient id="grad_1" cx="0.26" cy="0.2188" r="1.01556">
      <stop offset="0" stop-color="#FF9400" stop-opacity="1"/>
      <stop offset="1" stop-color="#995900" stop-opacity="1"/>
    </radialGradient>
    <radialGradient id="grad_2" cx="0.3063" cy="0.36340000000000006" r="0.90181">
      <stop offset="0" stop-color="#FF9400" stop-opacity="1"/>
      <stop offset="1" stop-color="#995900" stop-opacity="1"/>
    </radialGradient>
    <radialGradient id="grad_3" cx="0.3433" cy="0.3236" r="0.87932">
      <stop offset="0" stop-color="#FF9400" stop-opacity="1"/>
      <stop offset="1" stop-color="#995900" stop-opacity="1"/>
    </radialGradient>
    <radialGradient id="grad_4" cx="0.4814" cy="0.41700000000000004" r="0.7578999999999999">
      <stop offset="0" stop-color="#FF9400" stop-opacity="1"/>
      <stop offset="1" stop-color="#995900" stop-opacity="1"/>
    </radialGradient>
    <radialGradient id="grad_5" cx="0.42590000000000006" cy="0.4035" r="0.77545">
      <stop offset="0" stop-color="#FF9400" stop-opacity="1"/>
      <stop offset="1" stop-color="#995900" stop-opacity="1"/>
    </radialGradient>
    <radialGradient id="grad_6" cx="0.3953" cy="0.31679999999999997" r="0.8881600000000001">
      <stop offset="0" stop-color="#FF9400" stop-opacity="1"/>
      <stop offset="1" stop-color="#995900" stop-opacity="1"/>
    </radialGradient>
    <radialGradient id="grad_7" cx="0.3333" cy="0.5266" r="0.8667100000000001">
      <stop offset="0" stop-color="#CCCCCC" stop-opacity="1"/>
      <stop offset="1" stop-color="#7F7F7F" stop-opacity="1"/>
    </radialGradient>
  <radialGradient id="grad_1-.24756072461605072,0.3506893217563629,-0.3506893217563629,0.24756072461605072,28.55,-23.25" cx="34.7057" cy="32.5511" r="5.5634" gradientUnits="userSpaceOnUse">
      <stop offset="0" stop-color="#FF9400" stop-opacity="1"/>
      <stop offset="1" stop-color="#995900" stop-opacity="1"/>
    </radialGradient><radialGradient id="grad_2-.24756072461605072,0.3506893217563629,-0.3506893217563629,0.24756072461605072,28.55,-23.25" cx="12.8122" cy="8.6174" r="16.2682" gradientUnits="userSpaceOnUse">
      <stop offset="0" stop-color="#FF9400" stop-opacity="1"/>
      <stop offset="1" stop-color="#995900" stop-opacity="1"/>
    </radialGradient><radialGradient id="grad_3-.24756072461605072,0.3506893217563629,-0.3506893217563629,0.24756072461605072,28.55,-23.25" cx="21.9578" cy="24.9097" r="15.2948" gradientUnits="userSpaceOnUse">
      <stop offset="0" stop-color="#FF9400" stop-opacity="1"/>
      <stop offset="1" stop-color="#995900" stop-opacity="1"/>
    </radialGradient><radialGradient id="grad_4-.24756072461605072,0.3506893217563629,-0.3506893217563629,0.24756072461605072,28.55,-23.25" cx="17.4167" cy="18.9211" r="2.6442" gradientUnits="userSpaceOnUse">
      <stop offset="0" stop-color="#FF9400" stop-opacity="1"/>
      <stop offset="1" stop-color="#995900" stop-opacity="1"/>
    </radialGradient><radialGradient id="grad_5-.24756072461605072,0.3506893217563629,-0.3506893217563629,0.24756072461605072,28.55,-23.25" cx="18.1877" cy="19.9012" r="2.7054" gradientUnits="userSpaceOnUse">
      <stop offset="0" stop-color="#FF9400" stop-opacity="1"/>
      <stop offset="1" stop-color="#995900" stop-opacity="1"/>
    </radialGradient><radialGradient id="grad_6-.24756072461605072,0.3506893217563629,-0.3506893217563629,0.24756072461605072,28.55,-23.25" cx="30.5564" cy="30.1832" r="2.9633" gradientUnits="userSpaceOnUse">
      <stop offset="0" stop-color="#FF9400" stop-opacity="1"/>
      <stop offset="1" stop-color="#995900" stop-opacity="1"/>
    </radialGradient><radialGradient id="grad_7-.32617226243019104,0.46204873919487,-0.40902677178382874,0.28874266147613525,17.15,-141.55" cx="12.4223" cy="12.709" r="6.6058" gradientUnits="userSpaceOnUse">
      <stop offset="0" stop-color="#CCCCCC" stop-opacity="1"/>
      <stop offset="1" stop-color="#7F7F7F" stop-opacity="1"/>
    </radialGradient></defs>
  <!-- Exported by Scratch - http://scratch.mit.edu/ -->
  <path id="ID0.6994185303337872" fill="#00FFFF" stroke="#000000" stroke-width="0.8527569463995485" d="M 1.8873 3.0171 L 40.4657 3.0171 L 40.4657 41.4818 L 1.8873 41.4818 L 1.8873 3.0171 Z "/>
  <g id="ID0.865684209857136">
    <path id="ID0.8694397993385792" fill="url(#grad_1-.24756072461605072,0.3506893217563629,-0.3506893217563629,0.24756072461605072,28.55,-23.25)" d="M 35.4849 30.9796 L 37.3359 33.6017 L 36.4865 34.2013 L 35.522 32.835 L 34.3773 33.643 L 35.3418 35.0093 L 34.3813 35.6874 L 33.4168 34.3211 L 32.2725 35.1289 L 33.237 36.4952 L 31.5754 37.6681 L 29.7244 35.046 L 35.4849 30.9796 " stroke-width="0.4292660163189743"/>
    <path id="ID0.7121701026335359" fill="url(#grad_2-.24756072461605072,0.3506893217563629,-0.3506893217563629,0.24756072461605072,28.55,-23.25)" d="M 11.7622 14.7899 C 12.387 15.675 13.611 15.886 14.4962 15.2612 C 15.3806 14.6368 15.5916 13.4128 14.9668 12.5277 C 14.3419 11.6425 13.1179 11.4315 12.2335 12.0559 C 11.3483 12.6807 11.1373 13.9047 11.7622 14.7899 L 11.7622 14.7899 L 11.7622 14.7899 Z M 8.2169 9.7676 C 8.8417 10.6528 10.0657 10.8638 10.9509 10.2389 C 11.8353 9.6146 12.0463 8.3906 11.4215 7.5054 C 10.7966 6.6203 9.5726 6.4093 8.6882 7.0336 C 7.803 7.6585 7.592 8.8825 8.2169 9.7676 L 8.2169 9.7676 L 8.2169 9.7676 Z M 11.5743 18.8387 C 11.9906 18.5448 12.318 18.1728 12.5511 17.7571 C 11.5191 17.5651 10.5569 16.9858 9.9029 16.0593 C 9.2186 15.09 9.0048 13.9304 9.2151 12.852 C 8.7054 12.9212 8.2043 13.1105 7.7536 13.4286 C 6.2593 14.4835 5.9038 16.5493 6.9584 18.0433 C 8.0143 19.5374 10.08 19.8935 11.5743 18.8387 L 11.5743 18.8387 L 11.5743 18.8387 Z M 17.4325 14.3711 C 17.8626 14.2814 18.2822 14.1039 18.6641 13.8343 C 20.1584 12.7795 20.5146 10.7131 19.46 9.2192 C 18.4054 7.7252 16.339 7.369 14.8447 8.4239 C 14.3979 8.7393 14.0537 9.1441 13.8569 9.5069 C 14.9739 9.6526 16.0296 10.2468 16.7309 11.2403 C 17.3986 12.1861 17.6181 13.3143 17.4325 14.3711 L 17.4325 14.3711 L 17.4325 14.3711 Z M 16.8807 16.0495 C 16.3561 16.7362 15.2819 17.6054 14.326 17.853 L 16.5207 18.2794 L 16.8807 16.0495 L 16.8807 16.0495 L 16.8807 16.0495 Z M 13.9585 7.109 C 16.1833 5.5385 19.2601 6.0689 20.8306 8.2936 C 22.4011 10.5184 21.8708 13.5952 19.646 15.1657 C 18.858 15.722 18.0008 18.6738 17.6248 20.101 C 16.3863 19.7578 13.3494 19.6107 12.5561 20.1707 C 10.3313 21.7412 7.2549 21.2105 5.6844 18.9858 C 4.1138 16.761 4.6446 13.684 6.8686 12.1139 C 7.1404 11.9221 7.4253 11.7614 7.7191 11.6313 C 7.3836 11.3957 7.082 11.0995 6.8322 10.7456 C 5.667 9.0949 6.0599 6.8134 7.711 5.6479 C 9.3613 4.4829 11.6434 4.876 12.8087 6.5267 C 13.052 6.8714 13.2274 7.2442 13.338 7.6285 C 13.5263 7.442 13.7337 7.2677 13.9585 7.109 L 13.9585 7.109 L 13.9585 7.109 Z " stroke-width="0.4292660163189743"/>
    <path id="ID0.7789692673832178" fill="url(#grad_3-.24756072461605072,0.3506893217563629,-0.3506893217563629,0.24756072461605072,28.55,-23.25)" d="M 18.1231 17.3978 L 32.1474 37.2644 L 29.1196 39.4018 L 15.0952 19.5352 L 18.1231 17.3978 L 18.1231 17.3978 Z " stroke-width="0.4292660163189743"/>
    <path id="ID0.578137279022485" fill="url(#grad_4-.24756072461605072,0.3506893217563629,-0.3506893217563629,0.24756072461605072,28.55,-23.25)" d="M 18.2059 17.6714 C 18.491 17.4702 18.8746 17.5215 19.0617 17.7866 L 19.0617 17.7866 C 19.2489 18.0517 19.1692 18.4301 18.8837 18.6316 L 16.0032 20.6651 C 15.7177 20.8666 15.3342 20.8153 15.147 20.5501 L 15.147 20.5501 C 14.9598 20.285 15.0395 19.9067 15.3254 19.7049 L 18.2059 17.6714 L 18.2059 17.6714 L 18.2059 17.6714 L 18.2059 17.6714 Z " stroke-width="0.4292660163189743"/>
    <path id="ID0.029240664094686508" fill="url(#grad_5-.24756072461605072,0.3506893217563629,-0.3506893217563629,0.24756072461605072,28.55,-23.25)" d="M 18.9617 18.7421 C 19.2468 18.5408 19.6304 18.5922 19.8175 18.8573 L 19.8175 18.8573 C 20.0047 19.1224 19.925 19.5008 19.6395 19.7023 L 16.759 21.7357 C 16.4735 21.9373 16.09 21.8859 15.9028 21.6208 L 15.9028 21.6208 C 15.7156 21.3557 15.7953 20.9773 16.0812 20.7755 L 18.9617 18.7421 L 18.9617 18.7421 L 18.9617 18.7421 L 18.9617 18.7421 Z " stroke-width="0.4292660163189743"/>
    <path id="ID0.5972161572426558" fill="url(#grad_6-.24756072461605072,0.3506893217563629,-0.3506893217563629,0.24756072461605072,28.55,-23.25)" d="M 31.2571 28.792 L 32.3256 30.3056 L 28.7805 32.8082 L 27.712 31.2946 L 31.2571 28.792 " stroke-width="0.4292660163189743"/>
    <path id="ID0.7050072336569428" fill="url(#grad_7-.32617226243019104,0.46204873919487,-0.40902677178382874,0.28874266147613525,17.15,-141.55)" stroke="none" d="M 16.3872 11.4681 C 16.9945 12.3284 17.2015 13.3509 17.0446 14.3076 C 16.8878 15.2643 16.3674 16.155 15.5212 16.7525 C 14.6749 17.3499 13.6614 17.5419 12.7073 17.3694 C 11.7533 17.1969 10.8591 16.6595 10.2518 15.7992 C 9.6445 14.9389 9.4375 13.9164 9.5943 12.9596 C 9.7512 12.0029 10.2715 11.1122 11.1178 10.5148 C 11.9641 9.9174 12.9776 9.7253 13.9317 9.8978 C 14.8857 10.0703 15.7799 10.6077 16.3872 11.4681 Z " stroke-width="0.5341126317372679"/>
  </g>
</svg>