<svg xmlns="http://www.w3.org/2000/svg" xmlns:xlink="http://www.w3.org/1999/xlink" version="1.1" width="63.603110172178965" height="162.14151654424927" viewBox="3.493344377564083 -0.5865555891526834 63.603110172178965 162.14151654424927">
  <defs>
    <radialGradient id="grad_1" cx="0.4476" cy="0.4199" r="0.75413">
      <stop offset="0" stop-color="#E5E5E5" stop-opacity="1"/>
      <stop offset="1" stop-color="#B2B2B2" stop-opacity="1"/>
    </radialGradient>
    <radialGradient id="grad_2" cx="0.0837" cy="0.2682" r="1.19119">
      <stop offset="0" stop-color="#FFFFFF" stop-opacity="1"/>
      <stop offset="1" stop-color="#666666" stop-opacity="1"/>
    </radialGradient>
    <radialGradient id="grad_3" cx="0.1673" cy="0.1648" r="1.0857599999999998">
      <stop offset="0" stop-color="#FF9400" stop-opacity="1"/>
      <stop offset="1" stop-color="#995900" stop-opacity="1"/>
    </radialGradient>
    <radialGradient id="grad_4" cx="0.102" cy="0.1648" r="1.1674">
      <stop offset="0" stop-color="#FF9400" stop-opacity="1"/>
      <stop offset="1" stop-color="#995900" stop-opacity="1"/>
    </radialGradient>
    <radialGradient id="grad_5" cx="0.1959" cy="0.1791" r="1.06717">
      <stop offset="0" stop-color="#FF9400" stop-opacity="1"/>
      <stop offset="1" stop-color="#995900" stop-opacity="1"/>
    </radialGradient>
    <radialGradient id="grad_6" cx="0.0897" cy="0.1461" r="1.18339">
      <stop offset="0" stop-color="#FF9400" stop-opacity="1"/>
      <stop offset="1" stop-color="#995900" stop-opacity="1"/>
    </radialGradient>
    <radialGradient id="grad_7" cx="0.6829000000000001" cy="0.0712" r="1.20744">
      <stop offset="0" stop-color="#003FFF" stop-opacity="1"/>
      <stop offset="1" stop-color="#002699" stop-opacity="1"/>
    </radialGradient>
    <radialGradient id="grad_8" cx="0.6685" cy="0.053899999999999997" r="1.22993">
      <stop offset="0" stop-color="#003FFF" stop-opacity="1"/>
      <stop offset="1" stop-color="#002699" stop-opacity="1"/>
    </radialGradient>
    <radialGradient id="grad_9" cx="0.1536" cy="0.22519999999999998" r="1.10032">
      <stop offset="0" stop-color="#003FFF" stop-opacity="1"/>
      <stop offset="1" stop-color="#002699" stop-opacity="1"/>
    </radialGradient>
    <radialGradient id="grad_10" cx="0.0492" cy="0.22519999999999998" r="1.23604">
      <stop offset="0" stop-color="#003FFF" stop-opacity="1"/>
      <stop offset="1" stop-color="#002699" stop-opacity="1"/>
    </radialGradient>
    <radialGradient id="grad_11" cx="0.2842" cy="0.233" r="0.9971">
      <stop offset="0" stop-color="#003FFF" stop-opacity="1"/>
      <stop offset="1" stop-color="#002699" stop-opacity="1"/>
    </radialGradient>
    <radialGradient id="grad_12" cx="0.040999999999999995" cy="0.1319" r="1.2467">
      <stop offset="0" stop-color="#003FFF" stop-opacity="1"/>
      <stop offset="1" stop-color="#002699" stop-opacity="1"/>
    </radialGradient>
  <radialGradient id="grad_1-.275246798992157,0,0,0.275246798992157,-37.5,115.05" cx="14.7042" cy="150.0559" r="10.4856" gradientUnits="userSpaceOnUse">
      <stop offset="0" stop-color="#E5E5E5" stop-opacity="1"/>
      <stop offset="1" stop-color="#B2B2B2" stop-opacity="1"/>
    </radialGradient><radialGradient id="grad_3-.0613114833831787,0,0,0.92707359790802,-220.85,-117.6" cx="41.2566" cy="94.3928" r="34.1901" gradientUnits="userSpaceOnUse">
      <stop offset="0" stop-color="#FF9400" stop-opacity="1"/>
      <stop offset="1" stop-color="#995900" stop-opacity="1"/>
    </radialGradient><radialGradient id="grad_5-.0613114833831787,0,0,0.92707359790802,-240,-117.5" cx="22.4177" cy="95.0695" r="33.6047" gradientUnits="userSpaceOnUse">
      <stop offset="0" stop-color="#FF9400" stop-opacity="1"/>
      <stop offset="1" stop-color="#995900" stop-opacity="1"/>
    </radialGradient><radialGradient id="grad_7-,0,0,1,-279.35,-87.5" cx="15.5325" cy="40.5571" r="42.3358" gradientUnits="userSpaceOnUse">
      <stop offset="0" stop-color="#003FFF" stop-opacity="1"/>
      <stop offset="1" stop-color="#002699" stop-opacity="1"/>
    </radialGradient><radialGradient id="grad_9-,0,0,1,-217.9,-90.25" cx="53.1924" cy="47.297" r="38.8151" gradientUnits="userSpaceOnUse">
      <stop offset="0" stop-color="#003FFF" stop-opacity="1"/>
      <stop offset="1" stop-color="#002699" stop-opacity="1"/>
    </radialGradient><radialGradient id="grad_11-.8348466157913208,0,0,0.8348466157913208,-161.75,-91.75" cx="26.5725" cy="48.3226" r="46.5081" gradientUnits="userSpaceOnUse">
      <stop offset="0" stop-color="#003FFF" stop-opacity="1"/>
      <stop offset="1" stop-color="#002699" stop-opacity="1"/>
    </radialGradient></defs>
  <!-- Exported by Scratch - http://scratch.mit.edu/ -->
  <g id="ID0.9854236710816622">
    <path id="ID0.3515064688399434" fill="#FFFFFF" stroke="#000000" stroke-width="0.7439915734681651" d="M 4.4898 140.8907 L 65.8943 140.8907 L 65.8943 160.5585 L 4.4898 160.5585 L 4.4898 140.8907 Z "/>
    <text id="ID0.9115317738614976" fill="#000000" text-anchor="start" font-family="Sans Serif" font-size="22" transform="matrix(0.612951 0 0 0.612951 24.6259 140.161)" stroke-width="1" alignment-baseline="text-before-edge" xml:space="preserve"><tspan x="0" style="white-space: pre" dy="1.13em">Bob</tspan></text>
    <path id="ID0.25286548025906086" fill="url(#grad_1-.275246798992157,0,0,0.275246798992157,-37.5,115.05)" stroke="url(#grad_2)" stroke-width="1.651480793952942" d="M 15.4506 144.3638 C 17.4156 144.3638 19.1959 145.1232 20.4854 146.3502 C 21.7747 147.5773 22.5726 149.2717 22.5726 151.1417 C 22.5726 153.0118 21.7747 154.7062 20.4854 155.9332 C 19.1959 157.1603 17.4156 157.9197 15.4506 157.9197 C 13.4856 157.9197 11.7053 157.1603 10.4158 155.9332 C 9.1265 154.7062 8.3286 153.0118 8.3286 151.1417 C 8.3286 149.2717 9.1265 147.5773 10.4158 146.3502 C 11.7053 145.1232 13.4856 144.3638 15.4506 144.3638 Z "/>
  </g>
  <g id="ID0.41841530660167336">
    <g id="ID0.7356321816332638">
      <path id="ID0.8654622961767018" fill="#000000" stroke="#000000" stroke-width="1.6696932315826416" d="M 44.8267 127.9723 C 46.842 127.9723 48.6686 128.4515 49.991 129.2262 C 51.3134 130.0009 52.1316 131.0704 52.1316 132.2509 C 52.1316 133.4313 51.1047 134.7354 49.991 135.2755 C 48.4491 136.0227 46.5498 135.8399 44.7849 135.8616 C 43.0894 135.8399 41.2285 136.026 39.6623 135.2755 C 38.547 134.7395 37.5218 133.4313 37.5218 132.2509 C 37.5218 131.0704 38.3399 130.0009 39.6623 129.2262 C 40.9847 128.4515 42.8114 127.9723 44.8267 127.9723 Z "/>
      <path id="ID0.47236768435686827" fill="url(#grad_3-.0613114833831787,0,0,0.92707359790802,-220.85,-117.6)" stroke="url(#grad_4)" stroke-width="1.992911197569588" d="M 39.4366 87.7468 L 50.3151 87.7468 L 50.3151 128.0745 L 39.4366 128.0745 L 39.4366 87.7468 Z "/>
    </g>
    <g id="ID0.7477488755248487">
      <path id="ID0.8654622961767018" fill="#000000" stroke="#000000" stroke-width="1.6696932315826416" d="M 25.6767 128.0723 C 27.692 128.0723 29.5186 128.5515 30.841 129.3262 C 32.1634 130.1009 32.9816 131.1704 32.9816 132.3509 C 32.9816 133.5313 31.9639 134.8345 30.841 135.3755 C 29.2056 136.1611 27.2328 135.995 25.468 136.0033 C 23.7682 135.995 21.9599 136.1269 20.5123 135.3755 C 19.4062 134.8003 18.3718 133.5313 18.3718 132.3509 C 18.3718 131.1704 19.1899 130.1009 20.5123 129.3262 C 21.8347 128.5515 23.6614 128.0723 25.6767 128.0723 Z "/>
      <path id="ID0.47236768435686827" fill="url(#grad_5-.0613114833831787,0,0,0.92707359790802,-240,-117.5)" stroke="url(#grad_6)" stroke-width="1.992911197569588" d="M 20.2866 87.8468 L 31.1651 87.8468 L 31.1651 128.1745 L 20.2866 128.1745 L 20.2866 87.8468 Z "/>
    </g>
    <g id="ID0.9803413534536958">
      <path id="ID0.7297148094512522" fill="#FFDEAE" d="M 7.9078 84.5485 C 7.3566 85.8104 6.3433 87.0527 6.4466 88.4959 C 6.6326 91.0895 7.5235 93.6491 8.6743 95.9889 C 8.9497 96.5725 9.969 96.7482 10.4496 96.3895 C 10.8445 96.114 10.5155 95.308 10.4284 94.7146 C 10.1908 93.3027 9.5895 91.9824 9.3859 90.5329 C 9.2544 89.6701 9.0187 88.7104 9.3578 87.9064 C 10.4342 86.667 11.2189 86.9888 11.9849 86.6988 C 13.6225 87.0265 14.061 85.1185 14.4437 83.6593 C 14.7775 82.5051 15.7616 80.9483 14.9434 80.0228 C 13.8977 78.818 11.8442 78.4067 10.2625 78.88 C 9.2379 79.1927 9.5146 80.9186 9.0986 81.8859 C 8.7155 82.7782 8.2409 83.6058 7.9078 84.5485 Z " stroke-width="1.0756632577153913"/>
      <path id="ID0.7297148094512522" fill="#FFD499" d="M 13.8301 83.9724 C 12.8151 83.5243 11.7192 84.6627 10.7444 85.241 C 9.9923 85.689 9.0989 86.1292 8.7841 87.0032 C 8.3911 88.1037 8.8177 89.3445 8.9736 90.5101 C 9.1389 91.7332 9.2606 93.0134 9.8447 94.1155 C 10.1617 94.775 11.1667 95.8292 11.5483 95.5411 C 12.0072 95.1924 11.641 93.6873 11.486 92.7994 C 11.2499 91.4569 10.7782 90.1553 10.5513 88.8115 C 10.4586 88.2735 10.3081 87.6879 10.5644 87.2518 C 10.8318 86.8466 11.4263 86.5183 11.8766 86.686 C 12.3698 86.8696 12.5132 87.5341 12.7465 88.0083 C 13.1396 88.8073 13.2567 89.7411 13.6918 90.5126 C 13.9593 90.9886 14.2571 91.6308 14.7579 91.651 C 15.2783 91.681 15.8224 91.1228 15.8571 90.6216 C 15.9392 89.4189 15.4739 88.2438 15.1355 87.0973 C 14.8178 86.0184 14.8846 84.3981 13.8301 83.9724 Z " stroke-width="1.0756632577153913"/>
    </g>
    <path id="ID0.012270784005522728" fill="url(#grad_7-,0,0,1,-279.35,-87.5)" stroke="url(#grad_8)" stroke-linecap="round" d="M 14.55 39 L 16.9 37.2 L 20.4 46 L 17.55 84.35 L 5.05 79.85 L 14.55 39 Z " stroke-width="1"/>
    <g id="ID0.9803413534536958">
      <path id="ID0.7297148094512522" fill="#FFDEAE" d="M 62.9922 84.4485 C 63.5434 85.7104 64.5567 86.9527 64.4534 88.3959 C 64.2674 90.9895 63.3765 93.5491 62.2257 95.8889 C 61.9503 96.4725 60.931 96.6482 60.4504 96.2895 C 60.0555 96.014 60.3845 95.208 60.4716 94.6146 C 60.7092 93.2027 61.3105 91.8824 61.5141 90.4329 C 61.6456 89.5701 61.8813 88.6104 61.5422 87.8064 C 60.4658 86.567 59.6811 86.8888 58.9151 86.5988 C 57.2775 86.9265 56.839 85.0185 56.4563 83.5593 C 56.1225 82.4051 55.1384 80.8483 55.9566 79.9228 C 57.0023 78.718 59.0558 78.3067 60.6375 78.78 C 61.6621 79.0927 61.3854 80.8186 61.8014 81.7859 C 62.1845 82.6782 62.6591 83.5058 62.9922 84.4485 Z " stroke-width="1.0756632577153913"/>
      <path id="ID0.7297148094512522" fill="#FFD499" d="M 57.0699 83.8724 C 58.0849 83.4243 59.1808 84.5627 60.1556 85.141 C 60.9077 85.589 61.8011 86.0292 62.1159 86.9032 C 62.5089 88.0037 62.0823 89.2445 61.9264 90.4101 C 61.7611 91.6332 61.6394 92.9134 61.0553 94.0155 C 60.7383 94.675 59.7333 95.7292 59.3517 95.4411 C 58.8928 95.0924 59.259 93.5873 59.414 92.6994 C 59.6501 91.3569 60.1218 90.0553 60.3487 88.7115 C 60.4414 88.1735 60.5919 87.5879 60.3356 87.1518 C 60.0682 86.7466 59.4737 86.4183 59.0234 86.586 C 58.5302 86.7696 58.3868 87.4341 58.1535 87.9083 C 57.7604 88.7073 57.6433 89.6411 57.2082 90.4126 C 56.9407 90.8886 56.6429 91.5308 56.1421 91.551 C 55.6217 91.581 55.0776 91.0228 55.0429 90.5216 C 54.9608 89.3189 55.4261 88.1438 55.7645 86.9973 C 56.0822 85.9184 56.0154 84.2981 57.0699 83.8724 Z " stroke-width="1.0756632577153913"/>
    </g>
    <path id="ID0.633912967517972" fill="url(#grad_9-,0,0,1,-217.9,-90.25)" stroke="url(#grad_10)" stroke-linecap="round" d="M 50.85 46.35 L 53.85 36.6 L 56.6 38.95 L 66.1 79.35 L 53.5 84.1 L 50.85 46.35 Z " stroke-width="1"/>
    <path id="ID0.43916446389630437" fill="url(#grad_11-.8348466157913208,0,0,0.8348466157913208,-161.75,-91.75)" stroke="url(#grad_12)" d="M 15.1957 38.8618 L 16.9907 37.0251 L 19.2865 36.1902 L 51.3446 36.1068 L 53.6822 36.9416 L 55.2266 38.7365 L 52.3047 67.2048 L 52.3047 88.5351 L 18.4516 88.5351 L 18.4516 66.9961 L 15.1957 38.8618 Z " stroke-width="0.8348466157913208"/>
    <g id="ID0.06994365435093641">
      <g id="ID0.2824689648114145">
        <path id="ID0.8757698251865804" fill="#995900" stroke="#995900" stroke-width="0.38399542291352456" d="M 14.525 11.1026 L 17.6824 11.3611 L 16.4998 25.8086 L 13.3424 25.5501 L 14.525 11.1026 Z "/>
        <path id="ID0.6422801343724132" fill="none" stroke="#000000" stroke-width="0.38399542291352456" stroke-linecap="round" d="M 15.1886 12.4091 C 15.1886 12.4091 15.6352 12.4909 15.8505 12.5596 C 16.0432 12.621 16.2145 12.7422 16.4089 12.798 C 16.5318 12.8333 16.7917 12.8293 16.7917 12.8293 "/>
        <path id="ID0.7584992088377476" fill="none" stroke="#000000" stroke-width="0.38399542291352456" stroke-linecap="round" d="M 15.1198 14.4262 C 15.1198 14.4262 15.6715 14.664 15.9653 14.688 C 16.1369 14.7021 16.4593 14.5358 16.4593 14.5358 "/>
        <path id="ID0.40438934741541743" fill="none" stroke="#000000" stroke-width="0.38399542291352456" stroke-linecap="round" d="M 15.0057 18.1733 C 15.308 18.0056 15.6184 17.8496 15.9138 17.6698 C 15.9911 17.6227 16.1208 17.4941 16.1208 17.4941 "/>
        <path id="ID0.7633831659331918" fill="none" stroke="#000000" stroke-width="0.38399542291352456" stroke-linecap="round" d="M 14.242 19.2667 C 14.242 19.2667 14.8734 19.3917 15.1909 19.4407 C 15.3173 19.4601 15.4462 19.4616 15.5737 19.472 C 15.7331 19.485 15.8926 19.4981 16.0521 19.5111 C 16.0919 19.5144 16.0521 19.5111 16.0521 19.5111 "/>
        <path id="ID0.8195131137035787" fill="none" stroke="#000000" stroke-width="0.38399542291352456" stroke-linecap="round" d="M 14.6203 21.7056 C 14.6203 21.7056 14.8598 21.9181 14.9795 22.024 C 15.0991 22.1299 15.2157 22.2404 15.3387 22.3423 C 15.5162 22.4896 15.7007 22.629 15.8814 22.7721 C 15.9267 22.8077 15.8814 22.7721 15.8814 22.7721 "/>
        <path id="ID0.923992021009326" fill="none" stroke="#000000" stroke-width="0.38399542291352456" stroke-linecap="round" d="M 14.5123 24.2011 C 14.5123 24.2011 16.1388 24.3342 16.1388 24.3342 "/>
      </g>
      <g id="ID0.2824689648114145">
        <path id="ID0.8757698251865804" fill="#995900" stroke="#995900" stroke-width="0.3839954137802124" d="M 41.1599 2.1099 L 44.3279 2.1099 L 44.3279 16.6057 L 41.1599 16.6057 L 41.1599 2.1099 Z "/>
        <path id="ID0.6422801343724132" fill="none" stroke="#000000" stroke-width="0.3839954137802124" stroke-linecap="round" d="M 41.9279 3.3579 C 41.9279 3.3579 42.3797 3.403 42.5999 3.4539 C 42.7969 3.4994 42.9776 3.6061 43.1759 3.6459 C 43.3013 3.671 43.5599 3.6459 43.5599 3.6459 "/>
        <path id="ID0.7584992088377476" fill="none" stroke="#000000" stroke-width="0.3839954137802124" stroke-linecap="round" d="M 42.0239 5.3739 C 42.0239 5.3739 42.5932 5.5659 42.8879 5.5659 C 43.0601 5.5659 43.3679 5.3739 43.3679 5.3739 "/>
        <path id="ID0.40438934741541743" fill="none" stroke="#000000" stroke-width="0.3839954137802124" stroke-linecap="round" d="M 42.2159 9.1178 C 42.5035 8.926 42.8002 8.7452 43.0799 8.5418 C 43.1531 8.4886 43.2719 8.3498 43.2719 8.3498 "/>
        <path id="ID0.7633831659331918" fill="none" stroke="#000000" stroke-width="0.3839954137802124" stroke-linecap="round" d="M 41.5439 10.2698 C 41.5439 10.2698 42.1835 10.343 42.5039 10.3658 C 42.6314 10.3748 42.76 10.3658 42.8879 10.3658 C 43.0478 10.3658 43.208 10.3658 43.3679 10.3658 C 43.4078 10.3658 43.3679 10.3658 43.3679 10.3658 "/>
        <path id="ID0.8195131137035787" fill="none" stroke="#000000" stroke-width="0.3839954137802124" stroke-linecap="round" d="M 42.1199 12.6698 C 42.1199 12.6698 42.376 12.862 42.5039 12.9578 C 42.6318 13.0536 42.757 13.1542 42.8879 13.2458 C 43.0768 13.3781 43.2721 13.5019 43.4639 13.6298 C 43.5119 13.6616 43.4639 13.6298 43.4639 13.6298 "/>
        <path id="ID0.923992021009326" fill="none" stroke="#000000" stroke-width="0.3839954137802124" stroke-linecap="round" d="M 42.2159 15.1657 C 42.2159 15.1657 43.8479 15.1657 43.8479 15.1657 "/>
      </g>
      <g id="ID0.2824689648114145">
        <path id="ID0.8757698251865804" fill="#995900" stroke="#995900" stroke-width="0.3839954137802124" d="M 22.7099 4.2599 L 25.8779 4.2599 L 25.8779 18.7557 L 22.7099 18.7557 L 22.7099 4.2599 Z "/>
        <path id="ID0.6422801343724132" fill="none" stroke="#000000" stroke-width="0.3839954137802124" stroke-linecap="round" d="M 23.4779 5.5079 C 23.4779 5.5079 23.9297 5.553 24.1499 5.6039 C 24.3469 5.6494 24.5276 5.7561 24.7259 5.7959 C 24.8513 5.821 25.1099 5.7959 25.1099 5.7959 "/>
        <path id="ID0.7584992088377476" fill="none" stroke="#000000" stroke-width="0.3839954137802124" stroke-linecap="round" d="M 23.5739 7.5239 C 23.5739 7.5239 24.1432 7.7159 24.4379 7.7159 C 24.6101 7.7159 24.9179 7.5239 24.9179 7.5239 "/>
        <path id="ID0.40438934741541743" fill="none" stroke="#000000" stroke-width="0.3839954137802124" stroke-linecap="round" d="M 23.7659 11.2678 C 24.0535 11.076 24.3502 10.8952 24.6299 10.6918 C 24.7031 10.6386 24.8219 10.4998 24.8219 10.4998 "/>
        <path id="ID0.7633831659331918" fill="none" stroke="#000000" stroke-width="0.3839954137802124" stroke-linecap="round" d="M 23.0939 12.4198 C 23.0939 12.4198 23.7335 12.493 24.0539 12.5158 C 24.1814 12.5248 24.31 12.5158 24.4379 12.5158 C 24.5978 12.5158 24.758 12.5158 24.9179 12.5158 C 24.9578 12.5158 24.9179 12.5158 24.9179 12.5158 "/>
        <path id="ID0.8195131137035787" fill="none" stroke="#000000" stroke-width="0.3839954137802124" stroke-linecap="round" d="M 23.6699 14.8198 C 23.6699 14.8198 23.926 15.012 24.0539 15.1078 C 24.1818 15.2036 24.307 15.3042 24.4379 15.3958 C 24.6268 15.5281 24.8221 15.6519 25.0139 15.7798 C 25.0619 15.8116 25.0139 15.7798 25.0139 15.7798 "/>
        <path id="ID0.923992021009326" fill="none" stroke="#000000" stroke-width="0.3839954137802124" stroke-linecap="round" d="M 23.7659 17.3157 C 23.7659 17.3157 25.3979 17.3157 25.3979 17.3157 "/>
      </g>
      <g id="ID0.2824689648114145">
        <path id="ID0.8757698251865804" fill="#995900" stroke="#995900" stroke-width="0.3839954137802124" d="M 19.3099 6.2599 L 22.4779 6.2599 L 22.4779 20.7557 L 19.3099 20.7557 L 19.3099 6.2599 Z "/>
        <path id="ID0.6422801343724132" fill="none" stroke="#000000" stroke-width="0.3839954137802124" stroke-linecap="round" d="M 20.0779 7.5079 C 20.0779 7.5079 20.5297 7.553 20.7499 7.6039 C 20.9469 7.6494 21.1276 7.7561 21.3259 7.7959 C 21.4513 7.821 21.7099 7.7959 21.7099 7.7959 "/>
        <path id="ID0.7584992088377476" fill="none" stroke="#000000" stroke-width="0.3839954137802124" stroke-linecap="round" d="M 20.1739 9.5239 C 20.1739 9.5239 20.7432 9.7159 21.0379 9.7159 C 21.2101 9.7159 21.5179 9.5239 21.5179 9.5239 "/>
        <path id="ID0.40438934741541743" fill="none" stroke="#000000" stroke-width="0.3839954137802124" stroke-linecap="round" d="M 20.3659 13.2678 C 20.6535 13.076 20.9502 12.8952 21.2299 12.6918 C 21.3031 12.6386 21.4219 12.4998 21.4219 12.4998 "/>
        <path id="ID0.7633831659331918" fill="none" stroke="#000000" stroke-width="0.3839954137802124" stroke-linecap="round" d="M 19.6939 14.4198 C 19.6939 14.4198 20.3335 14.493 20.6539 14.5158 C 20.7814 14.5248 20.91 14.5158 21.0379 14.5158 C 21.1978 14.5158 21.358 14.5158 21.5179 14.5158 C 21.5578 14.5158 21.5179 14.5158 21.5179 14.5158 "/>
        <path id="ID0.8195131137035787" fill="none" stroke="#000000" stroke-width="0.3839954137802124" stroke-linecap="round" d="M 20.2699 16.8198 C 20.2699 16.8198 20.526 17.012 20.6539 17.1078 C 20.7818 17.2036 20.907 17.3042 21.0379 17.3958 C 21.2268 17.5281 21.4221 17.6519 21.6139 17.7798 C 21.6619 17.8116 21.6139 17.7798 21.6139 17.7798 "/>
        <path id="ID0.923992021009326" fill="none" stroke="#000000" stroke-width="0.3839954137802124" stroke-linecap="round" d="M 20.3659 19.3157 C 20.3659 19.3157 21.9979 19.3157 21.9979 19.3157 "/>
      </g>
      <g id="ID0.2824689648114145">
        <path id="ID0.8757698251865804" fill="#995900" stroke="#995900" stroke-width="0.38399544251400886" d="M 52.4101 10.6378 L 55.5594 10.2946 L 57.13 24.705 L 53.9807 25.0483 L 52.4101 10.6378 Z "/>
        <path id="ID0.6422801343724132" fill="none" stroke="#000000" stroke-width="0.38399544251400886" stroke-linecap="round" d="M 53.3088 11.7952 C 53.3088 11.7952 53.7628 11.7911 53.9872 11.8178 C 54.188 11.8417 54.3792 11.9283 54.5807 11.9463 C 54.708 11.9577 54.9624 11.9047 54.9624 11.9047 "/>
        <path id="ID0.7584992088377476" fill="none" stroke="#000000" stroke-width="0.38399544251400886" stroke-linecap="round" d="M 53.6227 13.7889 C 53.6227 13.7889 54.2094 13.9181 54.5024 13.8862 C 54.6736 13.8675 54.9587 13.6433 54.9587 13.6433 "/>
        <path id="ID0.40438934741541743" fill="none" stroke="#000000" stroke-width="0.38399544251400886" stroke-linecap="round" d="M 54.2192 17.49 C 54.4843 17.2682 54.7596 17.0563 55.0157 16.8238 C 55.0826 16.763 55.1857 16.6122 55.1857 16.6122 "/>
        <path id="ID0.7633831659331918" fill="none" stroke="#000000" stroke-width="0.38399544251400886" stroke-linecap="round" d="M 53.676 18.7081 C 53.676 18.7081 54.3197 18.7115 54.6407 18.6995 C 54.7684 18.6946 54.8953 18.6717 55.0224 18.6579 C 55.1814 18.6405 55.3406 18.6232 55.4996 18.6059 C 55.5393 18.6015 55.4996 18.6059 55.4996 18.6059 "/>
        <path id="ID0.8195131137035787" fill="none" stroke="#000000" stroke-width="0.38399544251400886" stroke-linecap="round" d="M 54.5086 21.0315 C 54.5086 21.0315 54.784 21.1948 54.9215 21.2762 C 55.059 21.3576 55.1944 21.444 55.3345 21.5209 C 55.5366 21.6319 55.7441 21.7339 55.9487 21.8402 C 55.9998 21.8667 55.9487 21.8402 55.9487 21.8402 "/>
        <path id="ID0.923992021009326" fill="none" stroke="#000000" stroke-width="0.38399544251400886" stroke-linecap="round" d="M 54.8745 23.5024 C 54.8745 23.5024 56.4968 23.3255 56.4968 23.3255 "/>
      </g>
      <g id="ID0.2824689648114145">
        <path id="ID0.8757698251865804" fill="#995900" stroke="#995900" stroke-width="0.3839954137802124" d="M 16.0099 8.7599 L 19.1779 8.7599 L 19.1779 23.2557 L 16.0099 23.2557 L 16.0099 8.7599 Z "/>
        <path id="ID0.6422801343724132" fill="none" stroke="#000000" stroke-width="0.3839954137802124" stroke-linecap="round" d="M 16.7779 10.0079 C 16.7779 10.0079 17.2297 10.053 17.4499 10.1039 C 17.6469 10.1494 17.8276 10.2561 18.0259 10.2959 C 18.1513 10.321 18.4099 10.2959 18.4099 10.2959 "/>
        <path id="ID0.7584992088377476" fill="none" stroke="#000000" stroke-width="0.3839954137802124" stroke-linecap="round" d="M 16.8739 12.0239 C 16.8739 12.0239 17.4432 12.2159 17.7379 12.2159 C 17.9101 12.2159 18.2179 12.0239 18.2179 12.0239 "/>
        <path id="ID0.40438934741541743" fill="none" stroke="#000000" stroke-width="0.3839954137802124" stroke-linecap="round" d="M 17.0659 15.7678 C 17.3535 15.576 17.6502 15.3952 17.9299 15.1918 C 18.0031 15.1386 18.1219 14.9998 18.1219 14.9998 "/>
        <path id="ID0.7633831659331918" fill="none" stroke="#000000" stroke-width="0.3839954137802124" stroke-linecap="round" d="M 16.3939 16.9198 C 16.3939 16.9198 17.0335 16.993 17.3539 17.0158 C 17.4814 17.0248 17.61 17.0158 17.7379 17.0158 C 17.8978 17.0158 18.058 17.0158 18.2179 17.0158 C 18.2578 17.0158 18.2179 17.0158 18.2179 17.0158 "/>
        <path id="ID0.8195131137035787" fill="none" stroke="#000000" stroke-width="0.3839954137802124" stroke-linecap="round" d="M 16.9699 19.3198 C 16.9699 19.3198 17.226 19.512 17.3539 19.6078 C 17.4818 19.7036 17.607 19.8042 17.7379 19.8958 C 17.9268 20.0281 18.1221 20.1519 18.3139 20.2798 C 18.3619 20.3116 18.3139 20.2798 18.3139 20.2798 "/>
        <path id="ID0.923992021009326" fill="none" stroke="#000000" stroke-width="0.3839954137802124" stroke-linecap="round" d="M 17.0659 21.8157 C 17.0659 21.8157 18.6979 21.8157 18.6979 21.8157 "/>
      </g>
      <g id="ID0.2824689648114145">
        <path id="ID0.8757698251865804" fill="#995900" stroke="#995900" stroke-width="0.3839954137802124" d="M 44.5599 4.0099 L 47.7279 4.0099 L 47.7279 18.5057 L 44.5599 18.5057 L 44.5599 4.0099 Z "/>
        <path id="ID0.6422801343724132" fill="none" stroke="#000000" stroke-width="0.3839954137802124" stroke-linecap="round" d="M 45.3279 5.2579 C 45.3279 5.2579 45.7797 5.303 45.9999 5.3539 C 46.1969 5.3994 46.3776 5.5061 46.5759 5.5459 C 46.7013 5.571 46.9599 5.5459 46.9599 5.5459 "/>
        <path id="ID0.7584992088377476" fill="none" stroke="#000000" stroke-width="0.3839954137802124" stroke-linecap="round" d="M 45.4239 7.2739 C 45.4239 7.2739 45.9932 7.4659 46.2879 7.4659 C 46.4601 7.4659 46.7679 7.2739 46.7679 7.2739 "/>
        <path id="ID0.40438934741541743" fill="none" stroke="#000000" stroke-width="0.3839954137802124" stroke-linecap="round" d="M 45.6159 11.0178 C 45.9035 10.826 46.2002 10.6452 46.4799 10.4418 C 46.5531 10.3886 46.6719 10.2498 46.6719 10.2498 "/>
        <path id="ID0.7633831659331918" fill="none" stroke="#000000" stroke-width="0.3839954137802124" stroke-linecap="round" d="M 44.9439 12.1698 C 44.9439 12.1698 45.5835 12.243 45.9039 12.2658 C 46.0314 12.2748 46.16 12.2658 46.2879 12.2658 C 46.4478 12.2658 46.608 12.2658 46.7679 12.2658 C 46.8078 12.2658 46.7679 12.2658 46.7679 12.2658 "/>
        <path id="ID0.8195131137035787" fill="none" stroke="#000000" stroke-width="0.3839954137802124" stroke-linecap="round" d="M 45.5199 14.5698 C 45.5199 14.5698 45.776 14.762 45.9039 14.8578 C 46.0318 14.9536 46.157 15.0542 46.2879 15.1458 C 46.4768 15.2781 46.6721 15.4019 46.8639 15.5298 C 46.9119 15.5616 46.8639 15.5298 46.8639 15.5298 "/>
        <path id="ID0.923992021009326" fill="none" stroke="#000000" stroke-width="0.3839954137802124" stroke-linecap="round" d="M 45.6159 17.0657 C 45.6159 17.0657 47.2479 17.0657 47.2479 17.0657 "/>
      </g>
      <g id="ID0.2824689648114145">
        <path id="ID0.8757698251865804" fill="#995900" stroke="#995900" stroke-width="0.3839954137802124" d="M 47.7599 6.3099 L 50.9279 6.3099 L 50.9279 20.8057 L 47.7599 20.8057 L 47.7599 6.3099 Z "/>
        <path id="ID0.6422801343724132" fill="none" stroke="#000000" stroke-width="0.3839954137802124" stroke-linecap="round" d="M 48.5279 7.5579 C 48.5279 7.5579 48.9797 7.603 49.1999 7.6539 C 49.3969 7.6994 49.5776 7.8061 49.7759 7.8459 C 49.9013 7.871 50.1599 7.8459 50.1599 7.8459 "/>
        <path id="ID0.7584992088377476" fill="none" stroke="#000000" stroke-width="0.3839954137802124" stroke-linecap="round" d="M 48.6239 9.5739 C 48.6239 9.5739 49.1932 9.7659 49.4879 9.7659 C 49.6601 9.7659 49.9679 9.5739 49.9679 9.5739 "/>
        <path id="ID0.40438934741541743" fill="none" stroke="#000000" stroke-width="0.3839954137802124" stroke-linecap="round" d="M 48.8159 13.3178 C 49.1035 13.126 49.4002 12.9452 49.6799 12.7418 C 49.7531 12.6886 49.8719 12.5498 49.8719 12.5498 "/>
        <path id="ID0.7633831659331918" fill="none" stroke="#000000" stroke-width="0.3839954137802124" stroke-linecap="round" d="M 48.1439 14.4698 C 48.1439 14.4698 48.7835 14.543 49.1039 14.5658 C 49.2314 14.5748 49.36 14.5658 49.4879 14.5658 C 49.6478 14.5658 49.808 14.5658 49.9679 14.5658 C 50.0078 14.5658 49.9679 14.5658 49.9679 14.5658 "/>
        <path id="ID0.8195131137035787" fill="none" stroke="#000000" stroke-width="0.3839954137802124" stroke-linecap="round" d="M 48.7199 16.8698 C 48.7199 16.8698 48.976 17.062 49.1039 17.1578 C 49.2318 17.2536 49.357 17.3542 49.4879 17.4458 C 49.6768 17.5781 49.8721 17.7019 50.0639 17.8298 C 50.1119 17.8616 50.0639 17.8298 50.0639 17.8298 "/>
        <path id="ID0.923992021009326" fill="none" stroke="#000000" stroke-width="0.3839954137802124" stroke-linecap="round" d="M 48.8159 19.3657 C 48.8159 19.3657 50.4479 19.3657 50.4479 19.3657 "/>
      </g>
      <g id="ID0.2824689648114145">
        <path id="ID0.8757698251865804" fill="#995900" stroke="#995900" stroke-width="0.3839954137802124" d="M 38.0099 1.0599 L 41.1779 1.0599 L 41.1779 15.5557 L 38.0099 15.5557 L 38.0099 1.0599 Z "/>
        <path id="ID0.6422801343724132" fill="none" stroke="#000000" stroke-width="0.3839954137802124" stroke-linecap="round" d="M 38.7779 2.3079 C 38.7779 2.3079 39.2297 2.353 39.4499 2.4039 C 39.6469 2.4494 39.8276 2.5561 40.0259 2.5959 C 40.1513 2.621 40.4099 2.5959 40.4099 2.5959 "/>
        <path id="ID0.7584992088377476" fill="none" stroke="#000000" stroke-width="0.3839954137802124" stroke-linecap="round" d="M 38.8739 4.3239 C 38.8739 4.3239 39.4432 4.5159 39.7379 4.5159 C 39.9101 4.5159 40.2179 4.3239 40.2179 4.3239 "/>
        <path id="ID0.40438934741541743" fill="none" stroke="#000000" stroke-width="0.3839954137802124" stroke-linecap="round" d="M 39.0659 8.0678 C 39.3535 7.876 39.6502 7.6952 39.9299 7.4918 C 40.0031 7.4386 40.1219 7.2998 40.1219 7.2998 "/>
        <path id="ID0.7633831659331918" fill="none" stroke="#000000" stroke-width="0.3839954137802124" stroke-linecap="round" d="M 38.3939 9.2198 C 38.3939 9.2198 39.0335 9.293 39.3539 9.3158 C 39.4814 9.3248 39.61 9.3158 39.7379 9.3158 C 39.8978 9.3158 40.058 9.3158 40.2179 9.3158 C 40.2578 9.3158 40.2179 9.3158 40.2179 9.3158 "/>
        <path id="ID0.8195131137035787" fill="none" stroke="#000000" stroke-width="0.3839954137802124" stroke-linecap="round" d="M 38.9699 11.6198 C 38.9699 11.6198 39.226 11.812 39.3539 11.9078 C 39.4818 12.0036 39.607 12.1042 39.7379 12.1958 C 39.9268 12.3281 40.1221 12.4519 40.3139 12.5798 C 40.3619 12.6116 40.3139 12.5798 40.3139 12.5798 "/>
        <path id="ID0.923992021009326" fill="none" stroke="#000000" stroke-width="0.3839954137802124" stroke-linecap="round" d="M 39.0659 14.1157 C 39.0659 14.1157 40.6979 14.1157 40.6979 14.1157 "/>
      </g>
      <g id="ID0.2824689648114145">
        <path id="ID0.8757698251865804" fill="#995900" stroke="#995900" stroke-width="0.3839954137802124" d="M 31.7099 0.4099 L 34.8779 0.4099 L 34.8779 14.9057 L 31.7099 14.9057 L 31.7099 0.4099 Z "/>
        <path id="ID0.6422801343724132" fill="none" stroke="#000000" stroke-width="0.3839954137802124" stroke-linecap="round" d="M 32.4779 1.6579 C 32.4779 1.6579 32.9297 1.703 33.1499 1.7539 C 33.3469 1.7994 33.5276 1.9061 33.7259 1.9459 C 33.8513 1.971 34.1099 1.9459 34.1099 1.9459 "/>
        <path id="ID0.7584992088377476" fill="none" stroke="#000000" stroke-width="0.3839954137802124" stroke-linecap="round" d="M 32.5739 3.6739 C 32.5739 3.6739 33.1432 3.8659 33.4379 3.8659 C 33.6101 3.8659 33.9179 3.6739 33.9179 3.6739 "/>
        <path id="ID0.40438934741541743" fill="none" stroke="#000000" stroke-width="0.3839954137802124" stroke-linecap="round" d="M 32.7659 7.4178 C 33.0535 7.226 33.3502 7.0452 33.6299 6.8418 C 33.7031 6.7886 33.8219 6.6498 33.8219 6.6498 "/>
        <path id="ID0.7633831659331918" fill="none" stroke="#000000" stroke-width="0.3839954137802124" stroke-linecap="round" d="M 32.0939 8.5698 C 32.0939 8.5698 32.7335 8.643 33.0539 8.6658 C 33.1814 8.6748 33.31 8.6658 33.4379 8.6658 C 33.5978 8.6658 33.758 8.6658 33.9179 8.6658 C 33.9578 8.6658 33.9179 8.6658 33.9179 8.6658 "/>
        <path id="ID0.8195131137035787" fill="none" stroke="#000000" stroke-width="0.3839954137802124" stroke-linecap="round" d="M 32.6699 10.9698 C 32.6699 10.9698 32.926 11.162 33.0539 11.2578 C 33.1818 11.3536 33.307 11.4542 33.4379 11.5458 C 33.6268 11.6781 33.8221 11.8019 34.0139 11.9298 C 34.0619 11.9616 34.0139 11.9298 34.0139 11.9298 "/>
        <path id="ID0.923992021009326" fill="none" stroke="#000000" stroke-width="0.3839954137802124" stroke-linecap="round" d="M 32.7659 13.4657 C 32.7659 13.4657 34.3979 13.4657 34.3979 13.4657 "/>
      </g>
      <g id="ID0.2824689648114145">
        <path id="ID0.8757698251865804" fill="#995900" stroke="#995900" stroke-width="0.3839954137802124" d="M 28.7599 1.1599 L 31.9279 1.1599 L 31.9279 15.6557 L 28.7599 15.6557 L 28.7599 1.1599 Z "/>
        <path id="ID0.6422801343724132" fill="none" stroke="#000000" stroke-width="0.3839954137802124" stroke-linecap="round" d="M 29.5279 2.4079 C 29.5279 2.4079 29.9797 2.453 30.1999 2.5039 C 30.3969 2.5494 30.5776 2.6561 30.7759 2.6959 C 30.9013 2.721 31.1599 2.6959 31.1599 2.6959 "/>
        <path id="ID0.7584992088377476" fill="none" stroke="#000000" stroke-width="0.3839954137802124" stroke-linecap="round" d="M 29.6239 4.4239 C 29.6239 4.4239 30.1932 4.6159 30.4879 4.6159 C 30.6601 4.6159 30.9679 4.4239 30.9679 4.4239 "/>
        <path id="ID0.40438934741541743" fill="none" stroke="#000000" stroke-width="0.3839954137802124" stroke-linecap="round" d="M 29.8159 8.1678 C 30.1035 7.976 30.4002 7.7952 30.6799 7.5918 C 30.7531 7.5386 30.8719 7.3998 30.8719 7.3998 "/>
        <path id="ID0.7633831659331918" fill="none" stroke="#000000" stroke-width="0.3839954137802124" stroke-linecap="round" d="M 29.1439 9.3198 C 29.1439 9.3198 29.7835 9.393 30.1039 9.4158 C 30.2314 9.4248 30.36 9.4158 30.4879 9.4158 C 30.6478 9.4158 30.808 9.4158 30.9679 9.4158 C 31.0078 9.4158 30.9679 9.4158 30.9679 9.4158 "/>
        <path id="ID0.8195131137035787" fill="none" stroke="#000000" stroke-width="0.3839954137802124" stroke-linecap="round" d="M 29.7199 11.7198 C 29.7199 11.7198 29.976 11.912 30.1039 12.0078 C 30.2318 12.1036 30.357 12.2042 30.4879 12.2958 C 30.6768 12.4281 30.8721 12.5519 31.0639 12.6798 C 31.1119 12.7116 31.0639 12.6798 31.0639 12.6798 "/>
        <path id="ID0.923992021009326" fill="none" stroke="#000000" stroke-width="0.3839954137802124" stroke-linecap="round" d="M 29.8159 14.2157 C 29.8159 14.2157 31.4479 14.2157 31.4479 14.2157 "/>
      </g>
      <g id="ID0.2824689648114145">
        <path id="ID0.8757698251865804" fill="#995900" stroke="#995900" stroke-width="0.3839954137802124" d="M 25.5599 2.8599 L 28.7279 2.8599 L 28.7279 17.3557 L 25.5599 17.3557 L 25.5599 2.8599 Z "/>
        <path id="ID0.6422801343724132" fill="none" stroke="#000000" stroke-width="0.3839954137802124" stroke-linecap="round" d="M 26.3279 4.1079 C 26.3279 4.1079 26.7797 4.153 26.9999 4.2039 C 27.1969 4.2494 27.3776 4.3561 27.5759 4.3959 C 27.7013 4.421 27.9599 4.3959 27.9599 4.3959 "/>
        <path id="ID0.7584992088377476" fill="none" stroke="#000000" stroke-width="0.3839954137802124" stroke-linecap="round" d="M 26.4239 6.1239 C 26.4239 6.1239 26.9932 6.3159 27.2879 6.3159 C 27.4601 6.3159 27.7679 6.1239 27.7679 6.1239 "/>
        <path id="ID0.40438934741541743" fill="none" stroke="#000000" stroke-width="0.3839954137802124" stroke-linecap="round" d="M 26.6159 9.8678 C 26.9035 9.676 27.2002 9.4952 27.4799 9.2918 C 27.5531 9.2386 27.6719 9.0998 27.6719 9.0998 "/>
        <path id="ID0.7633831659331918" fill="none" stroke="#000000" stroke-width="0.3839954137802124" stroke-linecap="round" d="M 25.9439 11.0198 C 25.9439 11.0198 26.5835 11.093 26.9039 11.1158 C 27.0314 11.1248 27.16 11.1158 27.2879 11.1158 C 27.4478 11.1158 27.608 11.1158 27.7679 11.1158 C 27.8078 11.1158 27.7679 11.1158 27.7679 11.1158 "/>
        <path id="ID0.8195131137035787" fill="none" stroke="#000000" stroke-width="0.3839954137802124" stroke-linecap="round" d="M 26.5199 13.4198 C 26.5199 13.4198 26.776 13.612 26.9039 13.7078 C 27.0318 13.8036 27.157 13.9042 27.2879 13.9958 C 27.4768 14.1281 27.6721 14.2519 27.8639 14.3798 C 27.9119 14.4116 27.8639 14.3798 27.8639 14.3798 "/>
        <path id="ID0.923992021009326" fill="none" stroke="#000000" stroke-width="0.3839954137802124" stroke-linecap="round" d="M 26.6159 15.9157 C 26.6159 15.9157 28.2479 15.9157 28.2479 15.9157 "/>
      </g>
      <g id="ID0.2824689648114145">
        <path id="ID0.8757698251865804" fill="#995900" stroke="#995900" stroke-width="0.3839954137802124" d="M 35.0099 0.4599 L 38.1779 0.4599 L 38.1779 14.9557 L 35.0099 14.9557 L 35.0099 0.4599 Z "/>
        <path id="ID0.6422801343724132" fill="none" stroke="#000000" stroke-width="0.3839954137802124" stroke-linecap="round" d="M 35.7779 1.7079 C 35.7779 1.7079 36.2297 1.753 36.4499 1.8039 C 36.6469 1.8494 36.8276 1.9561 37.0259 1.9959 C 37.1513 2.021 37.4099 1.9959 37.4099 1.9959 "/>
        <path id="ID0.7584992088377476" fill="none" stroke="#000000" stroke-width="0.3839954137802124" stroke-linecap="round" d="M 35.8739 3.7239 C 35.8739 3.7239 36.4432 3.9159 36.7379 3.9159 C 36.9101 3.9159 37.2179 3.7239 37.2179 3.7239 "/>
        <path id="ID0.40438934741541743" fill="none" stroke="#000000" stroke-width="0.3839954137802124" stroke-linecap="round" d="M 36.0659 7.4678 C 36.3535 7.276 36.6502 7.0952 36.9299 6.8918 C 37.0031 6.8386 37.1219 6.6998 37.1219 6.6998 "/>
        <path id="ID0.7633831659331918" fill="none" stroke="#000000" stroke-width="0.3839954137802124" stroke-linecap="round" d="M 35.3939 8.6198 C 35.3939 8.6198 36.0335 8.693 36.3539 8.7158 C 36.4814 8.7248 36.61 8.7158 36.7379 8.7158 C 36.8978 8.7158 37.058 8.7158 37.2179 8.7158 C 37.2578 8.7158 37.2179 8.7158 37.2179 8.7158 "/>
        <path id="ID0.8195131137035787" fill="none" stroke="#000000" stroke-width="0.3839954137802124" stroke-linecap="round" d="M 35.9699 11.0198 C 35.9699 11.0198 36.226 11.212 36.3539 11.3078 C 36.4818 11.4036 36.607 11.5042 36.7379 11.5958 C 36.9268 11.7281 37.1221 11.8519 37.3139 11.9798 C 37.3619 12.0116 37.3139 11.9798 37.3139 11.9798 "/>
        <path id="ID0.923992021009326" fill="none" stroke="#000000" stroke-width="0.3839954137802124" stroke-linecap="round" d="M 36.0659 13.5157 C 36.0659 13.5157 37.6979 13.5157 37.6979 13.5157 "/>
      </g>
      <g id="ID0.2824689648114145">
        <path id="ID0.8757698251865804" fill="#995900" stroke="#995900" stroke-width="0.3839954137802124" d="M 51.0599 8.3099 L 54.2279 8.3099 L 54.2279 22.8057 L 51.0599 22.8057 L 51.0599 8.3099 Z "/>
        <path id="ID0.6422801343724132" fill="none" stroke="#000000" stroke-width="0.3839954137802124" stroke-linecap="round" d="M 51.8279 9.5579 C 51.8279 9.5579 52.2797 9.603 52.4999 9.6539 C 52.6969 9.6994 52.8776 9.8061 53.0759 9.8459 C 53.2013 9.871 53.4599 9.8459 53.4599 9.8459 "/>
        <path id="ID0.7584992088377476" fill="none" stroke="#000000" stroke-width="0.3839954137802124" stroke-linecap="round" d="M 51.9239 11.5739 C 51.9239 11.5739 52.4932 11.7659 52.7879 11.7659 C 52.9601 11.7659 53.2679 11.5739 53.2679 11.5739 "/>
        <path id="ID0.40438934741541743" fill="none" stroke="#000000" stroke-width="0.3839954137802124" stroke-linecap="round" d="M 52.1159 15.3178 C 52.4035 15.126 52.7002 14.9452 52.9799 14.7418 C 53.0531 14.6886 53.1719 14.5498 53.1719 14.5498 "/>
        <path id="ID0.7633831659331918" fill="none" stroke="#000000" stroke-width="0.3839954137802124" stroke-linecap="round" d="M 51.4439 16.4698 C 51.4439 16.4698 52.0835 16.543 52.4039 16.5658 C 52.5314 16.5748 52.66 16.5658 52.7879 16.5658 C 52.9478 16.5658 53.108 16.5658 53.2679 16.5658 C 53.3078 16.5658 53.2679 16.5658 53.2679 16.5658 "/>
        <path id="ID0.8195131137035787" fill="none" stroke="#000000" stroke-width="0.3839954137802124" stroke-linecap="round" d="M 52.0199 18.8698 C 52.0199 18.8698 52.276 19.062 52.4039 19.1578 C 52.5318 19.2536 52.657 19.3542 52.7879 19.4458 C 52.9768 19.5781 53.1721 19.7019 53.3639 19.8298 C 53.4119 19.8616 53.3639 19.8298 53.3639 19.8298 "/>
        <path id="ID0.923992021009326" fill="none" stroke="#000000" stroke-width="0.3839954137802124" stroke-linecap="round" d="M 52.1159 21.3657 C 52.1159 21.3657 53.7479 21.3657 53.7479 21.3657 "/>
      </g>
      <g id="ID0.2824689648114145">
        <path id="ID0.8757698251865804" fill="#995900" stroke="#995900" stroke-width="0.3839954137802124" d="M 41.2599 39.2401 L 44.4279 39.2401 L 44.4279 24.7443 L 41.2599 24.7443 L 41.2599 39.2401 Z "/>
        <path id="ID0.6422801343724132" fill="none" stroke="#000000" stroke-width="0.3839954137802124" stroke-linecap="round" d="M 42.0279 37.9921 C 42.0279 37.9921 42.4797 37.947 42.6999 37.8961 C 42.8969 37.8506 43.0776 37.7439 43.2759 37.7041 C 43.4013 37.679 43.6599 37.7041 43.6599 37.7041 "/>
        <path id="ID0.7584992088377476" fill="none" stroke="#000000" stroke-width="0.3839954137802124" stroke-linecap="round" d="M 42.1239 35.9761 C 42.1239 35.9761 42.6932 35.7841 42.9879 35.7841 C 43.1601 35.7841 43.4679 35.9761 43.4679 35.9761 "/>
        <path id="ID0.40438934741541743" fill="none" stroke="#000000" stroke-width="0.3839954137802124" stroke-linecap="round" d="M 42.3159 32.2322 C 42.6035 32.424 42.9002 32.6048 43.1799 32.8082 C 43.2531 32.8614 43.3719 33.0002 43.3719 33.0002 "/>
        <path id="ID0.7633831659331918" fill="none" stroke="#000000" stroke-width="0.3839954137802124" stroke-linecap="round" d="M 41.6439 31.0802 C 41.6439 31.0802 42.2835 31.007 42.6039 30.9842 C 42.7314 30.9752 42.86 30.9842 42.9879 30.9842 C 43.1478 30.9842 43.308 30.9842 43.4679 30.9842 C 43.5078 30.9842 43.4679 30.9842 43.4679 30.9842 "/>
        <path id="ID0.8195131137035787" fill="none" stroke="#000000" stroke-width="0.3839954137802124" stroke-linecap="round" d="M 42.2199 28.6802 C 42.2199 28.6802 42.476 28.488 42.6039 28.3922 C 42.7318 28.2964 42.857 28.1958 42.9879 28.1042 C 43.1768 27.9719 43.3721 27.8481 43.5639 27.7202 C 43.6119 27.6884 43.5639 27.7202 43.5639 27.7202 "/>
        <path id="ID0.923992021009326" fill="none" stroke="#000000" stroke-width="0.3839954137802124" stroke-linecap="round" d="M 42.3159 26.1843 C 42.3159 26.1843 43.9479 26.1843 43.9479 26.1843 "/>
      </g>
      <g id="ID0.2824689648114145">
        <path id="ID0.8757698251865804" fill="#995900" stroke="#995900" stroke-width="0.3839954137802124" d="M 22.8099 37.0901 L 25.9779 37.0901 L 25.9779 22.5943 L 22.8099 22.5943 L 22.8099 37.0901 Z "/>
        <path id="ID0.6422801343724132" fill="none" stroke="#000000" stroke-width="0.3839954137802124" stroke-linecap="round" d="M 23.5779 35.8421 C 23.5779 35.8421 24.0297 35.797 24.2499 35.7461 C 24.4469 35.7006 24.6276 35.5939 24.8259 35.5541 C 24.9513 35.529 25.2099 35.5541 25.2099 35.5541 "/>
        <path id="ID0.7584992088377476" fill="none" stroke="#000000" stroke-width="0.3839954137802124" stroke-linecap="round" d="M 23.6739 33.8261 C 23.6739 33.8261 24.2432 33.6341 24.5379 33.6341 C 24.7101 33.6341 25.0179 33.8261 25.0179 33.8261 "/>
        <path id="ID0.40438934741541743" fill="none" stroke="#000000" stroke-width="0.3839954137802124" stroke-linecap="round" d="M 23.8659 30.0822 C 24.1535 30.274 24.4502 30.4548 24.7299 30.6582 C 24.8031 30.7114 24.9219 30.8502 24.9219 30.8502 "/>
        <path id="ID0.7633831659331918" fill="none" stroke="#000000" stroke-width="0.3839954137802124" stroke-linecap="round" d="M 23.1939 28.9302 C 23.1939 28.9302 23.8335 28.857 24.1539 28.8342 C 24.2814 28.8252 24.41 28.8342 24.5379 28.8342 C 24.6978 28.8342 24.858 28.8342 25.0179 28.8342 C 25.0578 28.8342 25.0179 28.8342 25.0179 28.8342 "/>
        <path id="ID0.8195131137035787" fill="none" stroke="#000000" stroke-width="0.3839954137802124" stroke-linecap="round" d="M 23.7699 26.5302 C 23.7699 26.5302 24.026 26.338 24.1539 26.2422 C 24.2818 26.1464 24.407 26.0458 24.5379 25.9542 C 24.7268 25.8219 24.9221 25.6981 25.1139 25.5702 C 25.1619 25.5384 25.1139 25.5702 25.1139 25.5702 "/>
        <path id="ID0.923992021009326" fill="none" stroke="#000000" stroke-width="0.3839954137802124" stroke-linecap="round" d="M 23.8659 24.0343 C 23.8659 24.0343 25.4979 24.0343 25.4979 24.0343 "/>
      </g>
      <g id="ID0.2824689648114145">
        <path id="ID0.8757698251865804" fill="#995900" stroke="#995900" stroke-width="0.3839954137802124" d="M 19.4099 35.1401 L 22.5779 35.1401 L 22.5779 20.6443 L 19.4099 20.6443 L 19.4099 35.1401 Z "/>
        <path id="ID0.6422801343724132" fill="none" stroke="#000000" stroke-width="0.3839954137802124" stroke-linecap="round" d="M 20.1779 33.8921 C 20.1779 33.8921 20.6297 33.847 20.8499 33.7961 C 21.0469 33.7506 21.2276 33.6439 21.4259 33.6041 C 21.5513 33.579 21.8099 33.6041 21.8099 33.6041 "/>
        <path id="ID0.7584992088377476" fill="none" stroke="#000000" stroke-width="0.3839954137802124" stroke-linecap="round" d="M 20.2739 31.8761 C 20.2739 31.8761 20.8432 31.6841 21.1379 31.6841 C 21.3101 31.6841 21.6179 31.8761 21.6179 31.8761 "/>
        <path id="ID0.40438934741541743" fill="none" stroke="#000000" stroke-width="0.3839954137802124" stroke-linecap="round" d="M 20.4659 28.1322 C 20.7535 28.324 21.0502 28.5048 21.3299 28.7082 C 21.4031 28.7614 21.5219 28.9002 21.5219 28.9002 "/>
        <path id="ID0.7633831659331918" fill="none" stroke="#000000" stroke-width="0.3839954137802124" stroke-linecap="round" d="M 19.7939 26.9802 C 19.7939 26.9802 20.4335 26.907 20.7539 26.8842 C 20.8814 26.8752 21.01 26.8842 21.1379 26.8842 C 21.2978 26.8842 21.458 26.8842 21.6179 26.8842 C 21.6578 26.8842 21.6179 26.8842 21.6179 26.8842 "/>
        <path id="ID0.8195131137035787" fill="none" stroke="#000000" stroke-width="0.3839954137802124" stroke-linecap="round" d="M 20.3699 24.5802 C 20.3699 24.5802 20.626 24.388 20.7539 24.2922 C 20.8818 24.1964 21.007 24.0958 21.1379 24.0042 C 21.3268 23.8719 21.5221 23.7481 21.7139 23.6202 C 21.7619 23.5884 21.7139 23.6202 21.7139 23.6202 "/>
        <path id="ID0.923992021009326" fill="none" stroke="#000000" stroke-width="0.3839954137802124" stroke-linecap="round" d="M 20.4659 22.0843 C 20.4659 22.0843 22.0979 22.0843 22.0979 22.0843 "/>
      </g>
      <g id="ID0.2824689648114145">
        <path id="ID0.8757698251865804" fill="#995900" stroke="#995900" stroke-width="0.3839954137802124" d="M 16.1099 32.4901 L 19.2779 32.4901 L 19.2779 17.9943 L 16.1099 17.9943 L 16.1099 32.4901 Z "/>
        <path id="ID0.6422801343724132" fill="none" stroke="#000000" stroke-width="0.3839954137802124" stroke-linecap="round" d="M 16.8779 31.2421 C 16.8779 31.2421 17.3297 31.197 17.5499 31.1461 C 17.7469 31.1006 17.9276 30.9939 18.1259 30.9541 C 18.2513 30.929 18.5099 30.9541 18.5099 30.9541 "/>
        <path id="ID0.7584992088377476" fill="none" stroke="#000000" stroke-width="0.3839954137802124" stroke-linecap="round" d="M 16.9739 29.2261 C 16.9739 29.2261 17.5432 29.0341 17.8379 29.0341 C 18.0101 29.0341 18.3179 29.2261 18.3179 29.2261 "/>
        <path id="ID0.40438934741541743" fill="none" stroke="#000000" stroke-width="0.3839954137802124" stroke-linecap="round" d="M 17.1659 25.4822 C 17.4535 25.674 17.7502 25.8548 18.0299 26.0582 C 18.1031 26.1114 18.2219 26.2502 18.2219 26.2502 "/>
        <path id="ID0.7633831659331918" fill="none" stroke="#000000" stroke-width="0.3839954137802124" stroke-linecap="round" d="M 16.4939 24.3302 C 16.4939 24.3302 17.1335 24.257 17.4539 24.2342 C 17.5814 24.2252 17.71 24.2342 17.8379 24.2342 C 17.9978 24.2342 18.158 24.2342 18.3179 24.2342 C 18.3578 24.2342 18.3179 24.2342 18.3179 24.2342 "/>
        <path id="ID0.8195131137035787" fill="none" stroke="#000000" stroke-width="0.3839954137802124" stroke-linecap="round" d="M 17.0699 21.9302 C 17.0699 21.9302 17.326 21.738 17.4539 21.6422 C 17.5818 21.5464 17.707 21.4458 17.8379 21.3542 C 18.0268 21.2219 18.2221 21.0981 18.4139 20.9702 C 18.4619 20.9384 18.4139 20.9702 18.4139 20.9702 "/>
        <path id="ID0.923992021009326" fill="none" stroke="#000000" stroke-width="0.3839954137802124" stroke-linecap="round" d="M 17.1659 19.4343 C 17.1659 19.4343 18.7979 19.4343 18.7979 19.4343 "/>
      </g>
      <g id="ID0.2824689648114145">
        <path id="ID0.8757698251865804" fill="#995900" stroke="#995900" stroke-width="0.3839954137802124" d="M 44.6099 37.3901 L 47.7779 37.3901 L 47.7779 22.8943 L 44.6099 22.8943 L 44.6099 37.3901 Z "/>
        <path id="ID0.6422801343724132" fill="none" stroke="#000000" stroke-width="0.3839954137802124" stroke-linecap="round" d="M 45.3779 36.1421 C 45.3779 36.1421 45.8297 36.097 46.0499 36.0461 C 46.2469 36.0006 46.4276 35.8939 46.6259 35.8541 C 46.7513 35.829 47.0099 35.8541 47.0099 35.8541 "/>
        <path id="ID0.7584992088377476" fill="none" stroke="#000000" stroke-width="0.3839954137802124" stroke-linecap="round" d="M 45.4739 34.1261 C 45.4739 34.1261 46.0432 33.9341 46.3379 33.9341 C 46.5101 33.9341 46.8179 34.1261 46.8179 34.1261 "/>
        <path id="ID0.40438934741541743" fill="none" stroke="#000000" stroke-width="0.3839954137802124" stroke-linecap="round" d="M 45.6659 30.3822 C 45.9535 30.574 46.2502 30.7548 46.5299 30.9582 C 46.6031 31.0114 46.7219 31.1502 46.7219 31.1502 "/>
        <path id="ID0.7633831659331918" fill="none" stroke="#000000" stroke-width="0.3839954137802124" stroke-linecap="round" d="M 44.9939 29.2302 C 44.9939 29.2302 45.6335 29.157 45.9539 29.1342 C 46.0814 29.1252 46.21 29.1342 46.3379 29.1342 C 46.4978 29.1342 46.658 29.1342 46.8179 29.1342 C 46.8578 29.1342 46.8179 29.1342 46.8179 29.1342 "/>
        <path id="ID0.8195131137035787" fill="none" stroke="#000000" stroke-width="0.3839954137802124" stroke-linecap="round" d="M 45.5699 26.8302 C 45.5699 26.8302 45.826 26.638 45.9539 26.5422 C 46.0818 26.4464 46.207 26.3458 46.3379 26.2542 C 46.5268 26.1219 46.7221 25.9981 46.9139 25.8702 C 46.9619 25.8384 46.9139 25.8702 46.9139 25.8702 "/>
        <path id="ID0.923992021009326" fill="none" stroke="#000000" stroke-width="0.3839954137802124" stroke-linecap="round" d="M 45.6659 24.3343 C 45.6659 24.3343 47.2979 24.3343 47.2979 24.3343 "/>
      </g>
      <g id="ID0.2824689648114145">
        <path id="ID0.8757698251865804" fill="#995900" stroke="#995900" stroke-width="0.3839954137802124" d="M 47.9099 35.0901 L 51.0779 35.0901 L 51.0779 20.5943 L 47.9099 20.5943 L 47.9099 35.0901 Z "/>
        <path id="ID0.6422801343724132" fill="none" stroke="#000000" stroke-width="0.3839954137802124" stroke-linecap="round" d="M 48.6779 33.8421 C 48.6779 33.8421 49.1297 33.797 49.3499 33.7461 C 49.5469 33.7006 49.7276 33.5939 49.9259 33.5541 C 50.0513 33.529 50.3099 33.5541 50.3099 33.5541 "/>
        <path id="ID0.7584992088377476" fill="none" stroke="#000000" stroke-width="0.3839954137802124" stroke-linecap="round" d="M 48.7739 31.8261 C 48.7739 31.8261 49.3432 31.6341 49.6379 31.6341 C 49.8101 31.6341 50.1179 31.8261 50.1179 31.8261 "/>
        <path id="ID0.40438934741541743" fill="none" stroke="#000000" stroke-width="0.3839954137802124" stroke-linecap="round" d="M 48.9659 28.0822 C 49.2535 28.274 49.5502 28.4548 49.8299 28.6582 C 49.9031 28.7114 50.0219 28.8502 50.0219 28.8502 "/>
        <path id="ID0.7633831659331918" fill="none" stroke="#000000" stroke-width="0.3839954137802124" stroke-linecap="round" d="M 48.2939 26.9302 C 48.2939 26.9302 48.9335 26.857 49.2539 26.8342 C 49.3814 26.8252 49.51 26.8342 49.6379 26.8342 C 49.7978 26.8342 49.958 26.8342 50.1179 26.8342 C 50.1578 26.8342 50.1179 26.8342 50.1179 26.8342 "/>
        <path id="ID0.8195131137035787" fill="none" stroke="#000000" stroke-width="0.3839954137802124" stroke-linecap="round" d="M 48.8699 24.5302 C 48.8699 24.5302 49.126 24.338 49.2539 24.2422 C 49.3818 24.1464 49.507 24.0458 49.6379 23.9542 C 49.8268 23.8219 50.0221 23.6981 50.2139 23.5702 C 50.2619 23.5384 50.2139 23.5702 50.2139 23.5702 "/>
        <path id="ID0.923992021009326" fill="none" stroke="#000000" stroke-width="0.3839954137802124" stroke-linecap="round" d="M 48.9659 22.0343 C 48.9659 22.0343 50.5979 22.0343 50.5979 22.0343 "/>
      </g>
      <g id="ID0.2824689648114145">
        <path id="ID0.8757698251865804" fill="#995900" stroke="#995900" stroke-width="0.3839954137802124" d="M 38.1099 40.2901 L 41.2779 40.2901 L 41.2779 25.7943 L 38.1099 25.7943 L 38.1099 40.2901 Z "/>
        <path id="ID0.6422801343724132" fill="none" stroke="#000000" stroke-width="0.3839954137802124" stroke-linecap="round" d="M 38.8779 39.0421 C 38.8779 39.0421 39.3297 38.997 39.5499 38.9461 C 39.7469 38.9006 39.9276 38.7939 40.1259 38.7541 C 40.2513 38.729 40.5099 38.7541 40.5099 38.7541 "/>
        <path id="ID0.7584992088377476" fill="none" stroke="#000000" stroke-width="0.3839954137802124" stroke-linecap="round" d="M 38.9739 37.0261 C 38.9739 37.0261 39.5432 36.8341 39.8379 36.8341 C 40.0101 36.8341 40.3179 37.0261 40.3179 37.0261 "/>
        <path id="ID0.40438934741541743" fill="none" stroke="#000000" stroke-width="0.3839954137802124" stroke-linecap="round" d="M 39.1659 33.2822 C 39.4535 33.474 39.7502 33.6548 40.0299 33.8582 C 40.1031 33.9114 40.2219 34.0502 40.2219 34.0502 "/>
        <path id="ID0.7633831659331918" fill="none" stroke="#000000" stroke-width="0.3839954137802124" stroke-linecap="round" d="M 38.4939 32.1302 C 38.4939 32.1302 39.1335 32.057 39.4539 32.0342 C 39.5814 32.0252 39.71 32.0342 39.8379 32.0342 C 39.9978 32.0342 40.158 32.0342 40.3179 32.0342 C 40.3578 32.0342 40.3179 32.0342 40.3179 32.0342 "/>
        <path id="ID0.8195131137035787" fill="none" stroke="#000000" stroke-width="0.3839954137802124" stroke-linecap="round" d="M 39.0699 29.7302 C 39.0699 29.7302 39.326 29.538 39.4539 29.4422 C 39.5818 29.3464 39.707 29.2458 39.8379 29.1542 C 40.0268 29.0219 40.2221 28.8981 40.4139 28.7702 C 40.4619 28.7384 40.4139 28.7702 40.4139 28.7702 "/>
        <path id="ID0.923992021009326" fill="none" stroke="#000000" stroke-width="0.3839954137802124" stroke-linecap="round" d="M 39.1659 27.2343 C 39.1659 27.2343 40.7979 27.2343 40.7979 27.2343 "/>
      </g>
      <g id="ID0.2824689648114145">
        <path id="ID0.8757698251865804" fill="#995900" stroke="#995900" stroke-width="0.3839954137802124" d="M 31.8099 40.9901 L 34.9779 40.9901 L 34.9779 26.4943 L 31.8099 26.4943 L 31.8099 40.9901 Z "/>
        <path id="ID0.6422801343724132" fill="none" stroke="#000000" stroke-width="0.3839954137802124" stroke-linecap="round" d="M 32.5779 39.7421 C 32.5779 39.7421 33.0297 39.697 33.2499 39.6461 C 33.4469 39.6006 33.6276 39.4939 33.8259 39.4541 C 33.9513 39.429 34.2099 39.4541 34.2099 39.4541 "/>
        <path id="ID0.7584992088377476" fill="none" stroke="#000000" stroke-width="0.3839954137802124" stroke-linecap="round" d="M 32.6739 37.7261 C 32.6739 37.7261 33.2432 37.5341 33.5379 37.5341 C 33.7101 37.5341 34.0179 37.7261 34.0179 37.7261 "/>
        <path id="ID0.40438934741541743" fill="none" stroke="#000000" stroke-width="0.3839954137802124" stroke-linecap="round" d="M 32.8659 33.9822 C 33.1535 34.174 33.4502 34.3548 33.7299 34.5582 C 33.8031 34.6114 33.9219 34.7502 33.9219 34.7502 "/>
        <path id="ID0.7633831659331918" fill="none" stroke="#000000" stroke-width="0.3839954137802124" stroke-linecap="round" d="M 32.1939 32.8302 C 32.1939 32.8302 32.8335 32.757 33.1539 32.7342 C 33.2814 32.7252 33.41 32.7342 33.5379 32.7342 C 33.6978 32.7342 33.858 32.7342 34.0179 32.7342 C 34.0578 32.7342 34.0179 32.7342 34.0179 32.7342 "/>
        <path id="ID0.8195131137035787" fill="none" stroke="#000000" stroke-width="0.3839954137802124" stroke-linecap="round" d="M 32.7699 30.4302 C 32.7699 30.4302 33.026 30.238 33.1539 30.1422 C 33.2818 30.0464 33.407 29.9458 33.5379 29.8542 C 33.7268 29.7219 33.9221 29.5981 34.1139 29.4702 C 34.1619 29.4384 34.1139 29.4702 34.1139 29.4702 "/>
        <path id="ID0.923992021009326" fill="none" stroke="#000000" stroke-width="0.3839954137802124" stroke-linecap="round" d="M 32.8659 27.9343 C 32.8659 27.9343 34.4979 27.9343 34.4979 27.9343 "/>
      </g>
      <g id="ID0.2824689648114145">
        <path id="ID0.8757698251865804" fill="#995900" stroke="#995900" stroke-width="0.3839954137802124" d="M 28.8099 40.1901 L 31.9779 40.1901 L 31.9779 25.6943 L 28.8099 25.6943 L 28.8099 40.1901 Z "/>
        <path id="ID0.6422801343724132" fill="none" stroke="#000000" stroke-width="0.3839954137802124" stroke-linecap="round" d="M 29.5779 38.9421 C 29.5779 38.9421 30.0297 38.897 30.2499 38.8461 C 30.4469 38.8006 30.6276 38.6939 30.8259 38.6541 C 30.9513 38.629 31.2099 38.6541 31.2099 38.6541 "/>
        <path id="ID0.7584992088377476" fill="none" stroke="#000000" stroke-width="0.3839954137802124" stroke-linecap="round" d="M 29.6739 36.9261 C 29.6739 36.9261 30.2432 36.7341 30.5379 36.7341 C 30.7101 36.7341 31.0179 36.9261 31.0179 36.9261 "/>
        <path id="ID0.40438934741541743" fill="none" stroke="#000000" stroke-width="0.3839954137802124" stroke-linecap="round" d="M 29.8659 33.1822 C 30.1535 33.374 30.4502 33.5548 30.7299 33.7582 C 30.8031 33.8114 30.9219 33.9502 30.9219 33.9502 "/>
        <path id="ID0.7633831659331918" fill="none" stroke="#000000" stroke-width="0.3839954137802124" stroke-linecap="round" d="M 29.1939 32.0302 C 29.1939 32.0302 29.8335 31.957 30.1539 31.9342 C 30.2814 31.9252 30.41 31.9342 30.5379 31.9342 C 30.6978 31.9342 30.858 31.9342 31.0179 31.9342 C 31.0578 31.9342 31.0179 31.9342 31.0179 31.9342 "/>
        <path id="ID0.8195131137035787" fill="none" stroke="#000000" stroke-width="0.3839954137802124" stroke-linecap="round" d="M 29.7699 29.6302 C 29.7699 29.6302 30.026 29.438 30.1539 29.3422 C 30.2818 29.2464 30.407 29.1458 30.5379 29.0542 C 30.7268 28.9219 30.9221 28.7981 31.1139 28.6702 C 31.1619 28.6384 31.1139 28.6702 31.1139 28.6702 "/>
        <path id="ID0.923992021009326" fill="none" stroke="#000000" stroke-width="0.3839954137802124" stroke-linecap="round" d="M 29.8659 27.1343 C 29.8659 27.1343 31.4979 27.1343 31.4979 27.1343 "/>
      </g>
      <g id="ID0.2824689648114145">
        <path id="ID0.8757698251865804" fill="#995900" stroke="#995900" stroke-width="0.3839954137802124" d="M 25.6599 38.4901 L 28.8279 38.4901 L 28.8279 23.9943 L 25.6599 23.9943 L 25.6599 38.4901 Z "/>
        <path id="ID0.6422801343724132" fill="none" stroke="#000000" stroke-width="0.3839954137802124" stroke-linecap="round" d="M 26.4279 37.2421 C 26.4279 37.2421 26.8797 37.197 27.0999 37.1461 C 27.2969 37.1006 27.4776 36.9939 27.6759 36.9541 C 27.8013 36.929 28.0599 36.9541 28.0599 36.9541 "/>
        <path id="ID0.7584992088377476" fill="none" stroke="#000000" stroke-width="0.3839954137802124" stroke-linecap="round" d="M 26.5239 35.2261 C 26.5239 35.2261 27.0932 35.0341 27.3879 35.0341 C 27.5601 35.0341 27.8679 35.2261 27.8679 35.2261 "/>
        <path id="ID0.40438934741541743" fill="none" stroke="#000000" stroke-width="0.3839954137802124" stroke-linecap="round" d="M 26.7159 31.4822 C 27.0035 31.674 27.3002 31.8548 27.5799 32.0582 C 27.6531 32.1114 27.7719 32.2502 27.7719 32.2502 "/>
        <path id="ID0.7633831659331918" fill="none" stroke="#000000" stroke-width="0.3839954137802124" stroke-linecap="round" d="M 26.0439 30.3302 C 26.0439 30.3302 26.6835 30.257 27.0039 30.2342 C 27.1314 30.2252 27.26 30.2342 27.3879 30.2342 C 27.5478 30.2342 27.708 30.2342 27.8679 30.2342 C 27.9078 30.2342 27.8679 30.2342 27.8679 30.2342 "/>
        <path id="ID0.8195131137035787" fill="none" stroke="#000000" stroke-width="0.3839954137802124" stroke-linecap="round" d="M 26.6199 27.9302 C 26.6199 27.9302 26.876 27.738 27.0039 27.6422 C 27.1318 27.5464 27.257 27.4458 27.3879 27.3542 C 27.5768 27.2219 27.7721 27.0981 27.9639 26.9702 C 28.0119 26.9384 27.9639 26.9702 27.9639 26.9702 "/>
        <path id="ID0.923992021009326" fill="none" stroke="#000000" stroke-width="0.3839954137802124" stroke-linecap="round" d="M 26.7159 25.4343 C 26.7159 25.4343 28.3479 25.4343 28.3479 25.4343 "/>
      </g>
      <g id="ID0.2824689648114145">
        <path id="ID0.8757698251865804" fill="#995900" stroke="#995900" stroke-width="0.3839954137802124" d="M 35.1099 40.8901 L 38.2779 40.8901 L 38.2779 26.3943 L 35.1099 26.3943 L 35.1099 40.8901 Z "/>
        <path id="ID0.6422801343724132" fill="none" stroke="#000000" stroke-width="0.3839954137802124" stroke-linecap="round" d="M 35.8779 39.6421 C 35.8779 39.6421 36.3297 39.597 36.5499 39.5461 C 36.7469 39.5006 36.9276 39.3939 37.1259 39.3541 C 37.2513 39.329 37.5099 39.3541 37.5099 39.3541 "/>
        <path id="ID0.7584992088377476" fill="none" stroke="#000000" stroke-width="0.3839954137802124" stroke-linecap="round" d="M 35.9739 37.6261 C 35.9739 37.6261 36.5432 37.4341 36.8379 37.4341 C 37.0101 37.4341 37.3179 37.6261 37.3179 37.6261 "/>
        <path id="ID0.40438934741541743" fill="none" stroke="#000000" stroke-width="0.3839954137802124" stroke-linecap="round" d="M 36.1659 33.8822 C 36.4535 34.074 36.7502 34.2548 37.0299 34.4582 C 37.1031 34.5114 37.2219 34.6502 37.2219 34.6502 "/>
        <path id="ID0.7633831659331918" fill="none" stroke="#000000" stroke-width="0.3839954137802124" stroke-linecap="round" d="M 35.4939 32.7302 C 35.4939 32.7302 36.1335 32.657 36.4539 32.6342 C 36.5814 32.6252 36.71 32.6342 36.8379 32.6342 C 36.9978 32.6342 37.158 32.6342 37.3179 32.6342 C 37.3578 32.6342 37.3179 32.6342 37.3179 32.6342 "/>
        <path id="ID0.8195131137035787" fill="none" stroke="#000000" stroke-width="0.3839954137802124" stroke-linecap="round" d="M 36.0699 30.3302 C 36.0699 30.3302 36.326 30.138 36.4539 30.0422 C 36.5818 29.9464 36.707 29.8458 36.8379 29.7542 C 37.0268 29.6219 37.2221 29.4981 37.4139 29.3702 C 37.4619 29.3384 37.4139 29.3702 37.4139 29.3702 "/>
        <path id="ID0.923992021009326" fill="none" stroke="#000000" stroke-width="0.3839954137802124" stroke-linecap="round" d="M 36.1659 27.8343 C 36.1659 27.8343 37.7979 27.8343 37.7979 27.8343 "/>
      </g>
      <g id="ID0.2824689648114145">
        <path id="ID0.8757698251865804" fill="#995900" stroke="#995900" stroke-width="0.3839954137802124" d="M 51.1599 32.9901 L 54.3279 32.9901 L 54.3279 18.4943 L 51.1599 18.4943 L 51.1599 32.9901 Z "/>
        <path id="ID0.6422801343724132" fill="none" stroke="#000000" stroke-width="0.3839954137802124" stroke-linecap="round" d="M 51.9279 31.7421 C 51.9279 31.7421 52.3797 31.697 52.5999 31.6461 C 52.7969 31.6006 52.9776 31.4939 53.1759 31.4541 C 53.3013 31.429 53.5599 31.4541 53.5599 31.4541 "/>
        <path id="ID0.7584992088377476" fill="none" stroke="#000000" stroke-width="0.3839954137802124" stroke-linecap="round" d="M 52.0239 29.7261 C 52.0239 29.7261 52.5932 29.5341 52.8879 29.5341 C 53.0601 29.5341 53.3679 29.7261 53.3679 29.7261 "/>
        <path id="ID0.40438934741541743" fill="none" stroke="#000000" stroke-width="0.3839954137802124" stroke-linecap="round" d="M 52.2159 25.9822 C 52.5035 26.174 52.8002 26.3548 53.0799 26.5582 C 53.1531 26.6114 53.2719 26.7502 53.2719 26.7502 "/>
        <path id="ID0.7633831659331918" fill="none" stroke="#000000" stroke-width="0.3839954137802124" stroke-linecap="round" d="M 51.5439 24.8302 C 51.5439 24.8302 52.1835 24.757 52.5039 24.7342 C 52.6314 24.7252 52.76 24.7342 52.8879 24.7342 C 53.0478 24.7342 53.208 24.7342 53.3679 24.7342 C 53.4078 24.7342 53.3679 24.7342 53.3679 24.7342 "/>
        <path id="ID0.8195131137035787" fill="none" stroke="#000000" stroke-width="0.3839954137802124" stroke-linecap="round" d="M 52.1199 22.4302 C 52.1199 22.4302 52.376 22.238 52.5039 22.1422 C 52.6318 22.0464 52.757 21.9458 52.8879 21.8542 C 53.0768 21.7219 53.2721 21.5981 53.4639 21.4702 C 53.5119 21.4384 53.4639 21.4702 53.4639 21.4702 "/>
        <path id="ID0.923992021009326" fill="none" stroke="#000000" stroke-width="0.3839954137802124" stroke-linecap="round" d="M 52.2159 19.9343 C 52.2159 19.9343 53.8479 19.9343 53.8479 19.9343 "/>
      </g>
      <g id="ID0.2824689648114145">
        <path id="ID0.8757698251865804" fill="#995900" stroke="#995900" stroke-width="0.3839954137802124" d="M 41.1599 31.2901 L 44.3279 31.2901 L 44.3279 16.7943 L 41.1599 16.7943 L 41.1599 31.2901 Z "/>
        <path id="ID0.6422801343724132" fill="none" stroke="#000000" stroke-width="0.3839954137802124" stroke-linecap="round" d="M 41.9279 30.0421 C 41.9279 30.0421 42.3797 29.997 42.5999 29.9461 C 42.7969 29.9006 42.9776 29.7939 43.1759 29.7541 C 43.3013 29.729 43.5599 29.7541 43.5599 29.7541 "/>
        <path id="ID0.7584992088377476" fill="none" stroke="#000000" stroke-width="0.3839954137802124" stroke-linecap="round" d="M 42.0239 28.0261 C 42.0239 28.0261 42.5932 27.8341 42.8879 27.8341 C 43.0601 27.8341 43.3679 28.0261 43.3679 28.0261 "/>
        <path id="ID0.40438934741541743" fill="none" stroke="#000000" stroke-width="0.3839954137802124" stroke-linecap="round" d="M 42.2159 24.2822 C 42.5035 24.474 42.8002 24.6548 43.0799 24.8582 C 43.1531 24.9114 43.2719 25.0502 43.2719 25.0502 "/>
        <path id="ID0.7633831659331918" fill="none" stroke="#000000" stroke-width="0.3839954137802124" stroke-linecap="round" d="M 41.5439 23.1302 C 41.5439 23.1302 42.1835 23.057 42.5039 23.0342 C 42.6314 23.0252 42.76 23.0342 42.8879 23.0342 C 43.0478 23.0342 43.208 23.0342 43.3679 23.0342 C 43.4078 23.0342 43.3679 23.0342 43.3679 23.0342 "/>
        <path id="ID0.8195131137035787" fill="none" stroke="#000000" stroke-width="0.3839954137802124" stroke-linecap="round" d="M 42.1199 20.7302 C 42.1199 20.7302 42.376 20.538 42.5039 20.4422 C 42.6318 20.3464 42.757 20.2458 42.8879 20.1542 C 43.0768 20.0219 43.2721 19.8981 43.4639 19.7702 C 43.5119 19.7384 43.4639 19.7702 43.4639 19.7702 "/>
        <path id="ID0.923992021009326" fill="none" stroke="#000000" stroke-width="0.3839954137802124" stroke-linecap="round" d="M 42.2159 18.2343 C 42.2159 18.2343 43.8479 18.2343 43.8479 18.2343 "/>
      </g>
      <g id="ID0.2824689648114145">
        <path id="ID0.8757698251865804" fill="#995900" stroke="#995900" stroke-width="0.3839954137802124" d="M 22.6599 29.1401 L 25.8279 29.1401 L 25.8279 14.6443 L 22.6599 14.6443 L 22.6599 29.1401 Z "/>
        <path id="ID0.6422801343724132" fill="none" stroke="#000000" stroke-width="0.3839954137802124" stroke-linecap="round" d="M 23.4279 27.8921 C 23.4279 27.8921 23.8797 27.847 24.0999 27.7961 C 24.2969 27.7506 24.4776 27.6439 24.6759 27.6041 C 24.8013 27.579 25.0599 27.6041 25.0599 27.6041 "/>
        <path id="ID0.7584992088377476" fill="none" stroke="#000000" stroke-width="0.3839954137802124" stroke-linecap="round" d="M 23.5239 25.8761 C 23.5239 25.8761 24.0932 25.6841 24.3879 25.6841 C 24.5601 25.6841 24.8679 25.8761 24.8679 25.8761 "/>
        <path id="ID0.40438934741541743" fill="none" stroke="#000000" stroke-width="0.3839954137802124" stroke-linecap="round" d="M 23.7159 22.1322 C 24.0035 22.324 24.3002 22.5048 24.5799 22.7082 C 24.6531 22.7614 24.7719 22.9002 24.7719 22.9002 "/>
        <path id="ID0.7633831659331918" fill="none" stroke="#000000" stroke-width="0.3839954137802124" stroke-linecap="round" d="M 23.0439 20.9802 C 23.0439 20.9802 23.6835 20.907 24.0039 20.8842 C 24.1314 20.8752 24.26 20.8842 24.3879 20.8842 C 24.5478 20.8842 24.708 20.8842 24.8679 20.8842 C 24.9078 20.8842 24.8679 20.8842 24.8679 20.8842 "/>
        <path id="ID0.8195131137035787" fill="none" stroke="#000000" stroke-width="0.3839954137802124" stroke-linecap="round" d="M 23.6199 18.5802 C 23.6199 18.5802 23.876 18.388 24.0039 18.2922 C 24.1318 18.1964 24.257 18.0958 24.3879 18.0042 C 24.5768 17.8719 24.7721 17.7481 24.9639 17.6202 C 25.0119 17.5884 24.9639 17.6202 24.9639 17.6202 "/>
        <path id="ID0.923992021009326" fill="none" stroke="#000000" stroke-width="0.3839954137802124" stroke-linecap="round" d="M 23.7159 16.0843 C 23.7159 16.0843 25.3479 16.0843 25.3479 16.0843 "/>
      </g>
      <g id="ID0.2824689648114145">
        <path id="ID0.8757698251865804" fill="#995900" stroke="#995900" stroke-width="0.3839954137802124" d="M 44.5099 29.4401 L 47.6779 29.4401 L 47.6779 14.9443 L 44.5099 14.9443 L 44.5099 29.4401 Z "/>
        <path id="ID0.6422801343724132" fill="none" stroke="#000000" stroke-width="0.3839954137802124" stroke-linecap="round" d="M 45.2779 28.1921 C 45.2779 28.1921 45.7297 28.147 45.9499 28.0961 C 46.1469 28.0506 46.3276 27.9439 46.5259 27.9041 C 46.6513 27.879 46.9099 27.9041 46.9099 27.9041 "/>
        <path id="ID0.7584992088377476" fill="none" stroke="#000000" stroke-width="0.3839954137802124" stroke-linecap="round" d="M 45.3739 26.1761 C 45.3739 26.1761 45.9432 25.9841 46.2379 25.9841 C 46.4101 25.9841 46.7179 26.1761 46.7179 26.1761 "/>
        <path id="ID0.40438934741541743" fill="none" stroke="#000000" stroke-width="0.3839954137802124" stroke-linecap="round" d="M 45.5659 22.4322 C 45.8535 22.624 46.1502 22.8048 46.4299 23.0082 C 46.5031 23.0614 46.6219 23.2002 46.6219 23.2002 "/>
        <path id="ID0.7633831659331918" fill="none" stroke="#000000" stroke-width="0.3839954137802124" stroke-linecap="round" d="M 44.8939 21.2802 C 44.8939 21.2802 45.5335 21.207 45.8539 21.1842 C 45.9814 21.1752 46.11 21.1842 46.2379 21.1842 C 46.3978 21.1842 46.558 21.1842 46.7179 21.1842 C 46.7578 21.1842 46.7179 21.1842 46.7179 21.1842 "/>
        <path id="ID0.8195131137035787" fill="none" stroke="#000000" stroke-width="0.3839954137802124" stroke-linecap="round" d="M 45.4699 18.8802 C 45.4699 18.8802 45.726 18.688 45.8539 18.5922 C 45.9818 18.4964 46.107 18.3958 46.2379 18.3042 C 46.4268 18.1719 46.6221 18.0481 46.8139 17.9202 C 46.8619 17.8884 46.8139 17.9202 46.8139 17.9202 "/>
        <path id="ID0.923992021009326" fill="none" stroke="#000000" stroke-width="0.3839954137802124" stroke-linecap="round" d="M 45.5659 16.3843 C 45.5659 16.3843 47.1979 16.3843 47.1979 16.3843 "/>
      </g>
      <g id="ID0.2824689648114145">
        <path id="ID0.8757698251865804" fill="#995900" stroke="#995900" stroke-width="0.3839954137802124" d="M 38.0099 32.3401 L 41.1779 32.3401 L 41.1779 17.8443 L 38.0099 17.8443 L 38.0099 32.3401 Z "/>
        <path id="ID0.6422801343724132" fill="none" stroke="#000000" stroke-width="0.3839954137802124" stroke-linecap="round" d="M 38.7779 31.0921 C 38.7779 31.0921 39.2297 31.047 39.4499 30.9961 C 39.6469 30.9506 39.8276 30.8439 40.0259 30.8041 C 40.1513 30.779 40.4099 30.8041 40.4099 30.8041 "/>
        <path id="ID0.7584992088377476" fill="none" stroke="#000000" stroke-width="0.3839954137802124" stroke-linecap="round" d="M 38.8739 29.0761 C 38.8739 29.0761 39.4432 28.8841 39.7379 28.8841 C 39.9101 28.8841 40.2179 29.0761 40.2179 29.0761 "/>
        <path id="ID0.40438934741541743" fill="none" stroke="#000000" stroke-width="0.3839954137802124" stroke-linecap="round" d="M 39.0659 25.3322 C 39.3535 25.524 39.6502 25.7048 39.9299 25.9082 C 40.0031 25.9614 40.1219 26.1002 40.1219 26.1002 "/>
        <path id="ID0.7633831659331918" fill="none" stroke="#000000" stroke-width="0.3839954137802124" stroke-linecap="round" d="M 38.3939 24.1802 C 38.3939 24.1802 39.0335 24.107 39.3539 24.0842 C 39.4814 24.0752 39.61 24.0842 39.7379 24.0842 C 39.8978 24.0842 40.058 24.0842 40.2179 24.0842 C 40.2578 24.0842 40.2179 24.0842 40.2179 24.0842 "/>
        <path id="ID0.8195131137035787" fill="none" stroke="#000000" stroke-width="0.3839954137802124" stroke-linecap="round" d="M 38.9699 21.7802 C 38.9699 21.7802 39.226 21.588 39.3539 21.4922 C 39.4818 21.3964 39.607 21.2958 39.7379 21.2042 C 39.9268 21.0719 40.1221 20.9481 40.3139 20.8202 C 40.3619 20.7884 40.3139 20.8202 40.3139 20.8202 "/>
        <path id="ID0.923992021009326" fill="none" stroke="#000000" stroke-width="0.3839954137802124" stroke-linecap="round" d="M 39.0659 19.2843 C 39.0659 19.2843 40.6979 19.2843 40.6979 19.2843 "/>
      </g>
      <g id="ID0.2824689648114145">
        <path id="ID0.8757698251865804" fill="#995900" stroke="#995900" stroke-width="0.3839954137802124" d="M 31.7099 33.0401 L 34.8779 33.0401 L 34.8779 18.5443 L 31.7099 18.5443 L 31.7099 33.0401 Z "/>
        <path id="ID0.6422801343724132" fill="none" stroke="#000000" stroke-width="0.3839954137802124" stroke-linecap="round" d="M 32.4779 31.7921 C 32.4779 31.7921 32.9297 31.747 33.1499 31.6961 C 33.3469 31.6506 33.5276 31.5439 33.7259 31.5041 C 33.8513 31.479 34.1099 31.5041 34.1099 31.5041 "/>
        <path id="ID0.7584992088377476" fill="none" stroke="#000000" stroke-width="0.3839954137802124" stroke-linecap="round" d="M 32.5739 29.7761 C 32.5739 29.7761 33.1432 29.5841 33.4379 29.5841 C 33.6101 29.5841 33.9179 29.7761 33.9179 29.7761 "/>
        <path id="ID0.40438934741541743" fill="none" stroke="#000000" stroke-width="0.3839954137802124" stroke-linecap="round" d="M 32.7659 26.0322 C 33.0535 26.224 33.3502 26.4048 33.6299 26.6082 C 33.7031 26.6614 33.8219 26.8002 33.8219 26.8002 "/>
        <path id="ID0.7633831659331918" fill="none" stroke="#000000" stroke-width="0.3839954137802124" stroke-linecap="round" d="M 32.0939 24.8802 C 32.0939 24.8802 32.7335 24.807 33.0539 24.7842 C 33.1814 24.7752 33.31 24.7842 33.4379 24.7842 C 33.5978 24.7842 33.758 24.7842 33.9179 24.7842 C 33.9578 24.7842 33.9179 24.7842 33.9179 24.7842 "/>
        <path id="ID0.8195131137035787" fill="none" stroke="#000000" stroke-width="0.3839954137802124" stroke-linecap="round" d="M 32.6699 22.4802 C 32.6699 22.4802 32.926 22.288 33.0539 22.1922 C 33.1818 22.0964 33.307 21.9958 33.4379 21.9042 C 33.6268 21.7719 33.8221 21.6481 34.0139 21.5202 C 34.0619 21.4884 34.0139 21.5202 34.0139 21.5202 "/>
        <path id="ID0.923992021009326" fill="none" stroke="#000000" stroke-width="0.3839954137802124" stroke-linecap="round" d="M 32.7659 19.9843 C 32.7659 19.9843 34.3979 19.9843 34.3979 19.9843 "/>
      </g>
      <g id="ID0.2824689648114145">
        <path id="ID0.8757698251865804" fill="#995900" stroke="#995900" stroke-width="0.3839954137802124" d="M 28.7099 32.2401 L 31.8779 32.2401 L 31.8779 17.7443 L 28.7099 17.7443 L 28.7099 32.2401 Z "/>
        <path id="ID0.6422801343724132" fill="none" stroke="#000000" stroke-width="0.3839954137802124" stroke-linecap="round" d="M 29.4779 30.9921 C 29.4779 30.9921 29.9297 30.947 30.1499 30.8961 C 30.3469 30.8506 30.5276 30.7439 30.7259 30.7041 C 30.8513 30.679 31.1099 30.7041 31.1099 30.7041 "/>
        <path id="ID0.7584992088377476" fill="none" stroke="#000000" stroke-width="0.3839954137802124" stroke-linecap="round" d="M 29.5739 28.9761 C 29.5739 28.9761 30.1432 28.7841 30.4379 28.7841 C 30.6101 28.7841 30.9179 28.9761 30.9179 28.9761 "/>
        <path id="ID0.40438934741541743" fill="none" stroke="#000000" stroke-width="0.3839954137802124" stroke-linecap="round" d="M 29.7659 25.2322 C 30.0535 25.424 30.3502 25.6048 30.6299 25.8082 C 30.7031 25.8614 30.8219 26.0002 30.8219 26.0002 "/>
        <path id="ID0.7633831659331918" fill="none" stroke="#000000" stroke-width="0.3839954137802124" stroke-linecap="round" d="M 29.0939 24.0802 C 29.0939 24.0802 29.7335 24.007 30.0539 23.9842 C 30.1814 23.9752 30.31 23.9842 30.4379 23.9842 C 30.5978 23.9842 30.758 23.9842 30.9179 23.9842 C 30.9578 23.9842 30.9179 23.9842 30.9179 23.9842 "/>
        <path id="ID0.8195131137035787" fill="none" stroke="#000000" stroke-width="0.3839954137802124" stroke-linecap="round" d="M 29.6699 21.6802 C 29.6699 21.6802 29.926 21.488 30.0539 21.3922 C 30.1818 21.2964 30.307 21.1958 30.4379 21.1042 C 30.6268 20.9719 30.8221 20.8481 31.0139 20.7202 C 31.0619 20.6884 31.0139 20.7202 31.0139 20.7202 "/>
        <path id="ID0.923992021009326" fill="none" stroke="#000000" stroke-width="0.3839954137802124" stroke-linecap="round" d="M 29.7659 19.1843 C 29.7659 19.1843 31.3979 19.1843 31.3979 19.1843 "/>
      </g>
      <g id="ID0.2824689648114145">
        <path id="ID0.8757698251865804" fill="#995900" stroke="#995900" stroke-width="0.3839954137802124" d="M 25.5099 30.5901 L 28.6779 30.5901 L 28.6779 16.0943 L 25.5099 16.0943 L 25.5099 30.5901 Z "/>
        <path id="ID0.6422801343724132" fill="none" stroke="#000000" stroke-width="0.3839954137802124" stroke-linecap="round" d="M 26.2779 29.3421 C 26.2779 29.3421 26.7297 29.297 26.9499 29.2461 C 27.1469 29.2006 27.3276 29.0939 27.5259 29.0541 C 27.6513 29.029 27.9099 29.0541 27.9099 29.0541 "/>
        <path id="ID0.7584992088377476" fill="none" stroke="#000000" stroke-width="0.3839954137802124" stroke-linecap="round" d="M 26.3739 27.3261 C 26.3739 27.3261 26.9432 27.1341 27.2379 27.1341 C 27.4101 27.1341 27.7179 27.3261 27.7179 27.3261 "/>
        <path id="ID0.40438934741541743" fill="none" stroke="#000000" stroke-width="0.3839954137802124" stroke-linecap="round" d="M 26.5659 23.5822 C 26.8535 23.774 27.1502 23.9548 27.4299 24.1582 C 27.5031 24.2114 27.6219 24.3502 27.6219 24.3502 "/>
        <path id="ID0.7633831659331918" fill="none" stroke="#000000" stroke-width="0.3839954137802124" stroke-linecap="round" d="M 25.8939 22.4302 C 25.8939 22.4302 26.5335 22.357 26.8539 22.3342 C 26.9814 22.3252 27.11 22.3342 27.2379 22.3342 C 27.3978 22.3342 27.558 22.3342 27.7179 22.3342 C 27.7578 22.3342 27.7179 22.3342 27.7179 22.3342 "/>
        <path id="ID0.8195131137035787" fill="none" stroke="#000000" stroke-width="0.3839954137802124" stroke-linecap="round" d="M 26.4699 20.0302 C 26.4699 20.0302 26.726 19.838 26.8539 19.7422 C 26.9818 19.6464 27.107 19.5458 27.2379 19.4542 C 27.4268 19.3219 27.6221 19.1981 27.8139 19.0702 C 27.8619 19.0384 27.8139 19.0702 27.8139 19.0702 "/>
        <path id="ID0.923992021009326" fill="none" stroke="#000000" stroke-width="0.3839954137802124" stroke-linecap="round" d="M 26.5659 17.5343 C 26.5659 17.5343 28.1979 17.5343 28.1979 17.5343 "/>
      </g>
      <g id="ID0.2824689648114145">
        <path id="ID0.8757698251865804" fill="#995900" stroke="#995900" stroke-width="0.3839954137802124" d="M 34.9599 32.9401 L 38.1279 32.9401 L 38.1279 18.4443 L 34.9599 18.4443 L 34.9599 32.9401 Z "/>
        <path id="ID0.6422801343724132" fill="none" stroke="#000000" stroke-width="0.3839954137802124" stroke-linecap="round" d="M 35.7279 31.6921 C 35.7279 31.6921 36.1797 31.647 36.3999 31.5961 C 36.5969 31.5506 36.7776 31.4439 36.9759 31.4041 C 37.1013 31.379 37.3599 31.4041 37.3599 31.4041 "/>
        <path id="ID0.7584992088377476" fill="none" stroke="#000000" stroke-width="0.3839954137802124" stroke-linecap="round" d="M 35.8239 29.6761 C 35.8239 29.6761 36.3932 29.4841 36.6879 29.4841 C 36.8601 29.4841 37.1679 29.6761 37.1679 29.6761 "/>
        <path id="ID0.40438934741541743" fill="none" stroke="#000000" stroke-width="0.3839954137802124" stroke-linecap="round" d="M 36.0159 25.9322 C 36.3035 26.124 36.6002 26.3048 36.8799 26.5082 C 36.9531 26.5614 37.0719 26.7002 37.0719 26.7002 "/>
        <path id="ID0.7633831659331918" fill="none" stroke="#000000" stroke-width="0.3839954137802124" stroke-linecap="round" d="M 35.3439 24.7802 C 35.3439 24.7802 35.9835 24.707 36.3039 24.6842 C 36.4314 24.6752 36.56 24.6842 36.6879 24.6842 C 36.8478 24.6842 37.008 24.6842 37.1679 24.6842 C 37.2078 24.6842 37.1679 24.6842 37.1679 24.6842 "/>
        <path id="ID0.8195131137035787" fill="none" stroke="#000000" stroke-width="0.3839954137802124" stroke-linecap="round" d="M 35.9199 22.3802 C 35.9199 22.3802 36.176 22.188 36.3039 22.0922 C 36.4318 21.9964 36.557 21.8958 36.6879 21.8042 C 36.8768 21.6719 37.0721 21.5481 37.2639 21.4202 C 37.3119 21.3884 37.2639 21.4202 37.2639 21.4202 "/>
        <path id="ID0.923992021009326" fill="none" stroke="#000000" stroke-width="0.3839954137802124" stroke-linecap="round" d="M 36.0159 19.8843 C 36.0159 19.8843 37.6479 19.8843 37.6479 19.8843 "/>
      </g>
      <g id="ID0.2824689648114145">
        <path id="ID0.8757698251865804" fill="#995900" stroke="#995900" stroke-width="0.3839954137802124" d="M 37.7099 25.5401 L 40.8779 25.5401 L 40.8779 11.0443 L 37.7099 11.0443 L 37.7099 25.5401 Z "/>
        <path id="ID0.6422801343724132" fill="none" stroke="#000000" stroke-width="0.3839954137802124" stroke-linecap="round" d="M 38.4779 24.2921 C 38.4779 24.2921 38.9297 24.247 39.1499 24.1961 C 39.3469 24.1506 39.5276 24.0439 39.7259 24.0041 C 39.8513 23.979 40.1099 24.0041 40.1099 24.0041 "/>
        <path id="ID0.7584992088377476" fill="none" stroke="#000000" stroke-width="0.3839954137802124" stroke-linecap="round" d="M 38.5739 22.2761 C 38.5739 22.2761 39.1432 22.0841 39.4379 22.0841 C 39.6101 22.0841 39.9179 22.2761 39.9179 22.2761 "/>
        <path id="ID0.40438934741541743" fill="none" stroke="#000000" stroke-width="0.3839954137802124" stroke-linecap="round" d="M 38.7659 18.5322 C 39.0535 18.724 39.3502 18.9048 39.6299 19.1082 C 39.7031 19.1614 39.8219 19.3002 39.8219 19.3002 "/>
        <path id="ID0.7633831659331918" fill="none" stroke="#000000" stroke-width="0.3839954137802124" stroke-linecap="round" d="M 38.0939 17.3802 C 38.0939 17.3802 38.7335 17.307 39.0539 17.2842 C 39.1814 17.2752 39.31 17.2842 39.4379 17.2842 C 39.5978 17.2842 39.758 17.2842 39.9179 17.2842 C 39.9578 17.2842 39.9179 17.2842 39.9179 17.2842 "/>
        <path id="ID0.8195131137035787" fill="none" stroke="#000000" stroke-width="0.3839954137802124" stroke-linecap="round" d="M 38.6699 14.9802 C 38.6699 14.9802 38.926 14.788 39.0539 14.6922 C 39.1818 14.5964 39.307 14.4958 39.4379 14.4042 C 39.6268 14.2719 39.8221 14.1481 40.0139 14.0202 C 40.0619 13.9884 40.0139 14.0202 40.0139 14.0202 "/>
        <path id="ID0.923992021009326" fill="none" stroke="#000000" stroke-width="0.3839954137802124" stroke-linecap="round" d="M 38.7659 12.4843 C 38.7659 12.4843 40.3979 12.4843 40.3979 12.4843 "/>
      </g>
      <g id="ID0.2824689648114145">
        <path id="ID0.8757698251865804" fill="#995900" stroke="#995900" stroke-width="0.3839954137802124" d="M 31.4099 26.2401 L 34.5779 26.2401 L 34.5779 11.7443 L 31.4099 11.7443 L 31.4099 26.2401 Z "/>
        <path id="ID0.6422801343724132" fill="none" stroke="#000000" stroke-width="0.3839954137802124" stroke-linecap="round" d="M 32.1779 24.9921 C 32.1779 24.9921 32.6297 24.947 32.8499 24.8961 C 33.0469 24.8506 33.2276 24.7439 33.4259 24.7041 C 33.5513 24.679 33.8099 24.7041 33.8099 24.7041 "/>
        <path id="ID0.7584992088377476" fill="none" stroke="#000000" stroke-width="0.3839954137802124" stroke-linecap="round" d="M 32.2739 22.9761 C 32.2739 22.9761 32.8432 22.7841 33.1379 22.7841 C 33.3101 22.7841 33.6179 22.9761 33.6179 22.9761 "/>
        <path id="ID0.40438934741541743" fill="none" stroke="#000000" stroke-width="0.3839954137802124" stroke-linecap="round" d="M 32.4659 19.2322 C 32.7535 19.424 33.0502 19.6048 33.3299 19.8082 C 33.4031 19.8614 33.5219 20.0002 33.5219 20.0002 "/>
        <path id="ID0.7633831659331918" fill="none" stroke="#000000" stroke-width="0.3839954137802124" stroke-linecap="round" d="M 31.7939 18.0802 C 31.7939 18.0802 32.4335 18.007 32.7539 17.9842 C 32.8814 17.9752 33.01 17.9842 33.1379 17.9842 C 33.2978 17.9842 33.458 17.9842 33.6179 17.9842 C 33.6578 17.9842 33.6179 17.9842 33.6179 17.9842 "/>
        <path id="ID0.8195131137035787" fill="none" stroke="#000000" stroke-width="0.3839954137802124" stroke-linecap="round" d="M 32.3699 15.6802 C 32.3699 15.6802 32.626 15.488 32.7539 15.3922 C 32.8818 15.2964 33.007 15.1958 33.1379 15.1042 C 33.3268 14.9719 33.5221 14.8481 33.7139 14.7202 C 33.7619 14.6884 33.7139 14.7202 33.7139 14.7202 "/>
        <path id="ID0.923992021009326" fill="none" stroke="#000000" stroke-width="0.3839954137802124" stroke-linecap="round" d="M 32.4659 13.1843 C 32.4659 13.1843 34.0979 13.1843 34.0979 13.1843 "/>
      </g>
      <g id="ID0.2824689648114145">
        <path id="ID0.8757698251865804" fill="#995900" stroke="#995900" stroke-width="0.3839954137802124" d="M 28.4599 25.4401 L 31.6279 25.4401 L 31.6279 10.9443 L 28.4599 10.9443 L 28.4599 25.4401 Z "/>
        <path id="ID0.6422801343724132" fill="none" stroke="#000000" stroke-width="0.3839954137802124" stroke-linecap="round" d="M 29.2279 24.1921 C 29.2279 24.1921 29.6797 24.147 29.8999 24.0961 C 30.0969 24.0506 30.2776 23.9439 30.4759 23.9041 C 30.6013 23.879 30.8599 23.9041 30.8599 23.9041 "/>
        <path id="ID0.7584992088377476" fill="none" stroke="#000000" stroke-width="0.3839954137802124" stroke-linecap="round" d="M 29.3239 22.1761 C 29.3239 22.1761 29.8932 21.9841 30.1879 21.9841 C 30.3601 21.9841 30.6679 22.1761 30.6679 22.1761 "/>
        <path id="ID0.40438934741541743" fill="none" stroke="#000000" stroke-width="0.3839954137802124" stroke-linecap="round" d="M 29.5159 18.4322 C 29.8035 18.624 30.1002 18.8048 30.3799 19.0082 C 30.4531 19.0614 30.5719 19.2002 30.5719 19.2002 "/>
        <path id="ID0.7633831659331918" fill="none" stroke="#000000" stroke-width="0.3839954137802124" stroke-linecap="round" d="M 28.8439 17.2802 C 28.8439 17.2802 29.4835 17.207 29.8039 17.1842 C 29.9314 17.1752 30.06 17.1842 30.1879 17.1842 C 30.3478 17.1842 30.508 17.1842 30.6679 17.1842 C 30.7078 17.1842 30.6679 17.1842 30.6679 17.1842 "/>
        <path id="ID0.8195131137035787" fill="none" stroke="#000000" stroke-width="0.3839954137802124" stroke-linecap="round" d="M 29.4199 14.8802 C 29.4199 14.8802 29.676 14.688 29.8039 14.5922 C 29.9318 14.4964 30.057 14.3958 30.1879 14.3042 C 30.3768 14.1719 30.5721 14.0481 30.7639 13.9202 C 30.8119 13.8884 30.7639 13.9202 30.7639 13.9202 "/>
        <path id="ID0.923992021009326" fill="none" stroke="#000000" stroke-width="0.3839954137802124" stroke-linecap="round" d="M 29.5159 12.3843 C 29.5159 12.3843 31.1479 12.3843 31.1479 12.3843 "/>
      </g>
      <g id="ID0.2824689648114145">
        <path id="ID0.8757698251865804" fill="#995900" stroke="#995900" stroke-width="0.3839954137802124" d="M 34.7099 26.1901 L 37.8779 26.1901 L 37.8779 11.6943 L 34.7099 11.6943 L 34.7099 26.1901 Z "/>
        <path id="ID0.6422801343724132" fill="none" stroke="#000000" stroke-width="0.3839954137802124" stroke-linecap="round" d="M 35.4779 24.9421 C 35.4779 24.9421 35.9297 24.897 36.1499 24.8461 C 36.3469 24.8006 36.5276 24.6939 36.7259 24.6541 C 36.8513 24.629 37.1099 24.6541 37.1099 24.6541 "/>
        <path id="ID0.7584992088377476" fill="none" stroke="#000000" stroke-width="0.3839954137802124" stroke-linecap="round" d="M 35.5739 22.9261 C 35.5739 22.9261 36.1432 22.7341 36.4379 22.7341 C 36.6101 22.7341 36.9179 22.9261 36.9179 22.9261 "/>
        <path id="ID0.40438934741541743" fill="none" stroke="#000000" stroke-width="0.3839954137802124" stroke-linecap="round" d="M 35.7659 19.1822 C 36.0535 19.374 36.3502 19.5548 36.6299 19.7582 C 36.7031 19.8114 36.8219 19.9502 36.8219 19.9502 "/>
        <path id="ID0.7633831659331918" fill="none" stroke="#000000" stroke-width="0.3839954137802124" stroke-linecap="round" d="M 35.0939 18.0302 C 35.0939 18.0302 35.7335 17.957 36.0539 17.9342 C 36.1814 17.9252 36.31 17.9342 36.4379 17.9342 C 36.5978 17.9342 36.758 17.9342 36.9179 17.9342 C 36.9578 17.9342 36.9179 17.9342 36.9179 17.9342 "/>
        <path id="ID0.8195131137035787" fill="none" stroke="#000000" stroke-width="0.3839954137802124" stroke-linecap="round" d="M 35.6699 15.6302 C 35.6699 15.6302 35.926 15.438 36.0539 15.3422 C 36.1818 15.2464 36.307 15.1458 36.4379 15.0542 C 36.6268 14.9219 36.8221 14.7981 37.0139 14.6702 C 37.0619 14.6384 37.0139 14.6702 37.0139 14.6702 "/>
        <path id="ID0.923992021009326" fill="none" stroke="#000000" stroke-width="0.3839954137802124" stroke-linecap="round" d="M 35.7659 13.1343 C 35.7659 13.1343 37.3979 13.1343 37.3979 13.1343 "/>
      </g>
    </g>
  </g>
</svg>