<svg version="1.1" xmlns="http://www.w3.org/2000/svg" xmlns:xlink="http://www.w3.org/1999/xlink" width="20.45" height="27.61"><g transform="translate(-229.63,-152.91)"><g data-paper-data="{&quot;isPaintingLayer&quot;:true}" fill="none" fill-rule="nonzero" stroke="none" stroke-width="1" stroke-linecap="butt" stroke-linejoin="miter" stroke-miterlimit="10" stroke-dasharray="" stroke-dashoffset="0" font-family="none" font-weight="none" font-size="none" text-anchor="none" style="mix-blend-mode: normal"><path d="M237.48,180.52c-2.28,0 -3.99,-1.8 -3.99,-4.17c0,-1.1 0.49,-2.08 0.89,-2.87l0.19,-0.39l4.29,-8.36l-1.02,0.06c-0.51,1.61 -2.22,2.83 -4.19,2.83c-2.52,-0.08 -4.02,-2.02 -4.02,-3.77c0,-0.47 0.1,-0.94 0.28,-1.39v-1.31c0,-0.87 0.29,-3.7 3.97,-3.88l9.31,-0.44c0.67,-0.6 1.58,-0.91 2.71,-0.91c2.34,0 4.18,1.66 4.18,3.77c0,1.22 -0.42,2.33 -1.17,3.13c-0.76,1.37 -2.21,4.15 -3.79,7.29l-0.47,0.92c-1.3,2.54 -2.28,4.45 -2.76,5.53c-0.09,1.34 -0.66,2.21 -1.16,2.72c-0.8,0.82 -1.9,1.24 -3.25,1.24z" data-paper-data="{&quot;origPos&quot;:null}" fill="#000000" opacity="0.35"/><path d="M233.49,173.34c0,-1.1 0.49,-2.08 0.89,-2.87l0.19,-0.39l4.29,-8.36l-1.02,0.06c-0.51,1.61 -2.22,2.83 -4.19,2.83c-2.52,-0.08 -4.02,-2.02 -4.02,-3.77c0,-0.47 0.1,-0.95 0.28,-1.39v-1.31c0,-0.86 0.29,-3.7 3.97,-3.88l9.31,-0.44c0.67,-0.6 1.58,-0.91 2.71,-0.91c2.35,0 4.18,1.66 4.18,3.77c0,1.22 -0.42,2.32 -1.17,3.13c-0.76,1.37 -2.21,4.16 -3.79,7.29l-0.47,0.92c-1.3,2.54 -2.28,4.45 -2.76,5.53c-0.08,1.34 -0.65,2.21 -1.16,2.72c-0.8,0.83 -1.9,1.25 -3.25,1.25c-2.27,0 -3.99,-1.8 -3.99,-4.18z" data-paper-data="{&quot;origPos&quot;:null}" fill="#ffffff"/><path d="M237.48,175.02c-0.91,0 -1.49,-0.66 -1.49,-1.68c0,-0.5 0.32,-1.13 0.62,-1.74l0.2,-0.41l6.28,-12.23c-0.32,0.04 -0.68,0.06 -0.91,0.07l-6.9,0.4v0.7c0.15,0.2 0.22,0.43 0.22,0.66c0,0.68 -0.9,1.33 -1.85,1.33c-0.97,-0.03 -1.52,-0.76 -1.52,-1.27c0,-0.26 0.1,-0.54 0.28,-0.78v-1.93c0,-0.94 0.45,-1.32 1.59,-1.38l9.9,-0.47c0.57,-0.04 0.64,-0.15 0.74,-0.32c0.17,-0.3 0.39,-0.56 1.25,-0.56c0.94,0 1.68,0.56 1.68,1.27c0,0.68 -0.24,1.24 -0.67,1.57c-0.71,1.25 -2.28,4.27 -4.02,7.72l-0.47,0.91c-1.57,3.06 -2.6,5.08 -3.03,6.15c0.03,0.64 -0.11,1.15 -0.45,1.49c-0.31,0.34 -0.79,0.5 -1.45,0.5z" data-paper-data="{&quot;origPos&quot;:null}" fill="#f7931e"/></g></g></svg>