<svg version="1.1" xmlns="http://www.w3.org/2000/svg" xmlns:xlink="http://www.w3.org/1999/xlink" width="91.75481" height="252.03039" viewBox="0,0,91.75481,252.03039"><g transform="translate(-185.39708,71.64781)"><g data-paper-data="{&quot;isPaintingLayer&quot;:true}" fill-rule="nonzero" stroke-linejoin="miter" stroke-miterlimit="10" stroke-dasharray="" stroke-dashoffset="0" style="mix-blend-mode: normal"><g stroke="none" stroke-width="1" stroke-linecap="butt"><path d="M202.2,180.38257l0.9,-9.7l14.8,0.6l9.4,2.3l7.4,6.8z" fill="#ebebeb"/><path d="M203.7,172.08257l0.5,-52.3l0.7,-60.1h29.1l-6.6,61.8l-4.7,50.6z" fill="#00bcbd"/></g><g stroke="none" stroke-width="1" stroke-linecap="butt"><path d="M240.1,180.38257l0.9,-9.7l14.8,0.6l9.4,2.3l7.4,6.8z" fill="#ebebeb"/><path d="M239.3,172.08257l-3.7,-50.4l-6.4,-62h30l0.7,62.3v50.1z" fill="#00bcbd"/></g><g data-paper-data="{&quot;origPos&quot;:null}" stroke="none" stroke-width="1" stroke-linecap="butt"><path d="M265.5,38.80477c-3.2,0.4 -8.6,-1.3 -8.6,-1.3c0,0 -8.1,-46.9 -1.1,-48.6c12.6,-3.4 14.9,46.6 14.9,46.6c0,0 -2.1,2.9 -5.2,3.3z" fill="#9e6b30"/><path d="M251.1,20.50477c0,0 -9,-32.9 2.5,-35.1c10.1,-2 21.6,29 21.6,29z" fill="#62a7a7"/></g><g data-paper-data="{&quot;origPos&quot;:null}" fill="#9e6b30" stroke="none" stroke-width="1" stroke-linecap="butt"><g data-paper-data="{&quot;origPos&quot;:null}"><path d="M273.5,62.60477l-8.2,2.4l-8.8,-27.1c0,0 3.1,-4.2 6.7,-3.9c2.7,0.2 7.3,1 7.3,1z" data-paper-data="{&quot;origPos&quot;:null}"/></g><path d="M270.0158,85.17767c-1.8835,0.2692 -1.1129,-8.75 -2.8775,-8.9118c-1.3528,-0.1411 0.2592,5.4528 -0.1748,6.3537c-0.5321,0.9202 -3.2735,-0.578 -3.2735,-0.578c0,0 -2.5351,-5.1062 -2.9591,-7.7745c-1.062,-5.9062 4.6028,-11.8129 4.6028,-11.8129l7.2768,-0.3129c0,0 4.395,6.2684 4.5396,10.6227c0.0867,4.0598 -3.0079,9.562 -3.0079,9.562c0,0 -2.3024,2.798 -4.1264,2.8517z" data-paper-data="{&quot;origPos&quot;:null,&quot;index&quot;:null,&quot;origRot&quot;:0}"/></g><path d="M201.5,64.98257l0.2,-76.3c0,0 15.8,-7.9 29.3,-8.1c13.5,-0.2 25.3,4.9 27.9,6.2c2.4,1.2 2.6,80.4 2.6,80.4c0,0 -17.8,2.8 -29.8,2.7c-12.3,-0.2 -30.2,-4.9 -30.2,-4.9z" fill="#a7d2fe" stroke="none" stroke-width="1" stroke-linecap="butt"/><g fill="#9e6b30" stroke="none" stroke-width="1" stroke-linecap="butt"><path d="M223,-29.21743l15.2,3.4l-0.1,9.1c0,0 4.9,0.9 4.8,3.7c-0.1,4.5 -18.9,6.9 -22.8,0c-1.5,-3.4 2,-4.6 2,-4.6z" data-paper-data="{&quot;origPos&quot;:null}"/><path d="M218.4,-40.31743c0.8,2.4 0.3,4.7 -1,5.1c-1.4,0.5 -3.2,-1 -4,-3.4c-0.8,-2.4 -0.3,-4.7 1,-5.1c1.4,-0.5 3.2,1.1 4,3.4z" data-paper-data="{&quot;origPos&quot;:null}"/><path d="M249.9,-42.51743c0,12.8 -7.9,19.6 -14.7,19.9c-11.8,0.2 -19.4,-9.5 -19.4,-22.3c0,-12.8 2.2,-22.4 17.2,-23.1c11.4,-0.6 18.8625,11.5 16.8625,25.2z" data-paper-data="{&quot;origPos&quot;:null}"/></g><path d="M238.3,-29.81743c0,0.7 -2,2.2 -3.7,2.2c-1.7,0 -3.5,-1.9 -3.5,-2.7c0,-0.7 2.2,0 4,0c1.8,0 3.2,-0.2 3.2,0.5z" fill="#000000" stroke="none" stroke-width="1" stroke-linecap="butt"/><path d="M236.4,-40.01743c0,0 1.5,1 1.4,2.5c0,0.7 -2.5,2.1 -2.5,2.1" data-paper-data="{&quot;origPos&quot;:null}" fill="none" stroke="#000000" stroke-width="1.46" stroke-linecap="round"/><path d="M217,-57.81743" fill="none" stroke="#000000" stroke-width="4.38" stroke-linecap="round"/><g stroke="none" stroke-width="1" stroke-linecap="butt"><path d="M192.1,41.08257c-2.5,-0.2 -6.3,-2.2 -6.3,-2.2c0,0 5.6,-50.6 19.9,-50.3c11.2,-0.3 -7.2,51.3 -7.2,51.3c0,0 -3.9,1.4 -6.4,1.2z" fill="#9e6b30"/><path d="M186,15.18257c0,0 11.4,-29 18.4,-28.2c16.6,1.8 3.9,36.9 3.9,36.9z" fill="#62a7a7"/></g><g data-paper-data="{&quot;origPos&quot;:null}"><path d="M224.2,-49.01743c0,0 2.9,-0.8 4.4,-0.8c1.7,-0.1 3.7,0.8 3.7,0.8" fill="none" stroke="#000000" stroke-width="1.46" stroke-linecap="round"/><g><path d="M224.1,-44.71743c0,0 2.2,-1.9 4.5,-1.7c2.5,0.2 2.9,1.5 2.9,1.5" fill="none" stroke="#000000" stroke-width="1.46" stroke-linecap="round"/><path d="M227.4,-43.91743c0,-1.2 0.9,-2.2 2.1,-2.2c1.2,0 2.1,1 2.1,2.2c0,1.2 -0.9,2.2 -2.1,2.2c-1.1,0 -2.1,-1 -2.1,-2.2z" fill="#000000" stroke="none" stroke-width="1" stroke-linecap="butt"/></g></g><g data-paper-data="{&quot;origPos&quot;:null}"><path d="M239.6,-49.11743c0,0 2.3,-0.8 4,-0.8c1.5,0.1 3.2,0.5 3.2,0.5" fill="none" stroke="#000000" stroke-width="1.46" stroke-linecap="round"/><g><path d="M239.6,-45.01743c0,0 0.5,-1.3 2.9,-1.5c2.3,-0.2 4.5,0.7 4.5,0.7" fill="none" stroke="#000000" stroke-width="1.46" stroke-linecap="round"/><path d="M244.5,-42.01743c-1.2,0 -2.1,-1 -2.1,-2.2c0,-1.2 0.9,-2.2 2.1,-2.2c1.2,0 2.1,1 2.1,2.2c0,1.2 -0.9,2.2 -2.1,2.2z" fill="#000000" stroke="none" stroke-width="1" stroke-linecap="butt"/></g></g><g fill="#9e6b30" stroke="none" stroke-width="1" stroke-linecap="butt"><path d="M187.8,65.78257l-2.1,-27.7c0,0 4,-1.2 6.3,-1.6c3.2,-0.6 6.7,3.3 6.7,3.3l-3.2,27.7z"/><path d="M190.3,84.88257c0,0 -4.1,-4.8 -4.8,-8.8c-0.7,-4.3 2.4,-11.3 2.4,-11.3l7.2,-1.1c0,0 6.7,4.7 6.8,10.7c0.1,2.7 -1.4,8.2 -1.4,8.2c0,0 -2.4,2 -3.1,1.2c-0.7,-0.8 -0.1,-6.6 -1.4,-6.2c-1.7,0.5 0.8,9.2 -1.1,9.3c-1.8,0.3 -4.6,-2 -4.6,-2z"/></g><path d="M241.7,-57.91743c-2.5,-0.5 -15,-0.1 -17.3,1c-5.7,2.9 -6.6,14.4 -6.6,14.4l-2.6,-0.8c0,0 -3.5,-24.9 17.9,-24.7c11.4,-0.6 16.3,10.2 16.8,16.7c0,-0.1 -0.1,-5 -8.2,-6.6z" data-paper-data="{&quot;origPos&quot;:null}" fill="#4d2f15" stroke="none" stroke-width="1" stroke-linecap="butt"/><g data-paper-data="{&quot;origPos&quot;:null}" stroke="none" stroke-linecap="butt"><path d="M213.1154,-39.97123c0.1757,2.0671 1.7223,3.5765 1.4298,3.6533c-0.219,0.0575 -0.4188,0.1005 -0.6452,0.1005c-1.9,0 -2.2,-1.8 -2.2,-4c0,-2.3 1.0231,-3.9461 2.4231,-3.9461c1.4,0 -1.354,0.1191 -1.0077,4.1923z" data-paper-data="{&quot;origPos&quot;:null}" fill="#c5c5c5" stroke-width="1"/><path d="M214.5,-39.91743c0,-0.8 0.7,-1.5 1.5,-1.5c0.8,0 1.5,0.7 1.5,1.5c0,0.8 -0.7,1.5 -1.5,1.5c-0.8,0 -1.5,-0.7 -1.5,-1.5z" data-paper-data="{&quot;origPos&quot;:null}" fill="#f2f2f2" stroke-width="1"/><path d="M217.27275,-43.44014c0.7391,1.05988 -0.07179,3.45282 -1.00531,2.84416c-0.66052,-0.41684 -0.03726,-1.47202 -0.35833,-2.07143c-0.80346,-1.5 -2.44019,-0.15627 -2.72727,-1.31818c-0.18213,-0.73712 2.38641,-1.89881 4.09091,0.54545z" data-paper-data="{&quot;origPos&quot;:null,&quot;origRot&quot;:0}" fill="#f2f2f2" stroke-width="0"/></g><g data-paper-data="{&quot;origPos&quot;:null}" fill="#000000" stroke="none" stroke-width="1" stroke-linecap="butt"><path d="M229.7,-68.41743c0.8,3.8 -4.7251,1.7307 -9.3,4c-4.426,2.1955 -6.7824,7.2677 -9.2,4.3c-2.0679,-2.5384 1.7757,-5.3934 5.6334,-7.9666c5.2683,-3.5142 12.4129,-2.4884 12.8666,-0.3334z" data-paper-data="{&quot;origPos&quot;:null}"/><path d="M231.3,-66.21743c0.8,3.8 -5.2,1.2 -10.4,6c-4.969,4.5868 -5.932,10.3385 -9.3,8.7c-2.4666,-1.2 1.6207,-7.4227 4.9334,-11.3666c5.4208,-6.4539 14.3129,-5.4884 14.7666,-3.3334z" data-paper-data="{&quot;origPos&quot;:null}"/><path d="M231.9,-63.61743c0.8,3.8 -6,2 -10.2,7.3c-4.2,5.3 -4.132,10.3385 -7.5,8.7c-2.4666,-1.2 0.5207,-8.1227 3.8334,-12.0666c5.4208,-6.4539 13.4129,-6.0884 13.8666,-3.9334z" data-paper-data="{&quot;origPos&quot;:null}"/><path d="M234.2,-62.01743c1,4.4 -3.1153,1.8989 -7.1,4.8c-4.8443,3.527 0.868,10.5385 -3.1,11.7c-2.6666,1.2 -5.4793,-8.4227 -2.1666,-12.3666c5.4208,-6.4539 11.9129,-6.2884 12.3666,-4.1334z" data-paper-data="{&quot;origPos&quot;:null}"/></g><g data-paper-data="{&quot;origPos&quot;:null}" fill="#000000" stroke="none" stroke-width="1" stroke-linecap="butt"><path d="M249.7943,-64.48183c-1.3791,2.3706 -4.1911,-1.5218 -9.0796,-2.2379c-5.0529,-0.7401 -9.3649,2.2392 -9.7817,-1.6217c-0.2363,-2.1895 6.1161,-4.5335 12.1368,-2.5696c7.9979,2.6089 6.7245,6.4292 6.7245,6.4292z" data-paper-data="{&quot;origPos&quot;:null,&quot;index&quot;:null,&quot;origRot&quot;:0}"/><path d="M245.6352,-65.62283c4.9579,3.4795 10.7426,9.971 8.6401,11.7329c-2.8707,2.4055 -5.7984,-4.5415 -11.7307,-7.7878c-6.2079,-3.3973 -8.4633,-0.6322 -8.8437,-3.3018c-0.3889,-2.7296 7.3968,-3.8278 11.9343,-0.6434z" data-paper-data="{&quot;origPos&quot;:null,&quot;index&quot;:null,&quot;origRot&quot;:0}"/><path d="M248.1035,-59.18303c2.9915,4.7426 5.599,12.877 1.3657,12.7774c-3.202,-0.0754 -1.1954,-2.2985 -3.9328,-8.2235c-2.8362,-6.1388 -12.1888,-4.4319 -11.274,-8.2059c0.5189,-2.1403 8.6184,-2.9633 13.8411,3.652z" data-paper-data="{&quot;origPos&quot;:null,&quot;index&quot;:null,&quot;origRot&quot;:0}"/></g></g></g></svg>