<svg xmlns="http://www.w3.org/2000/svg" xmlns:xlink="http://www.w3.org/1999/xlink" version="1.1" width="56.22486742269667" height="35.00816591512831" viewBox="-1.272034021375935 -0.677034000216286 56.22486742269667 35.00816591512831">
  <defs>
    <linearGradient id="grad_1" x1="27.1699" y1="75.8438" x2="118.1699" y2="75.8438" gradientUnits="userSpaceOnUse">
      <stop offset="0.012" stop-color="#66B3E3"/>
      <stop offset="1" stop-color="#1C75BC"/>
    </linearGradient>
  <linearGradient id="grad_1-.5881476402282715,0,0,-0.5908936858177185,-15.9,57.099999999999994" x1="0.0799" y1="12.2844" x2="53.6013" y2="12.2844" gradientUnits="userSpaceOnUse">
      <stop offset="0.012" stop-color="#66B3E3"/>
      <stop offset="1" stop-color="#1C75BC"/>
    </linearGradient></defs>
  <!-- Exported by Scratch - http://scratch.mit.edu/ -->
  <g id="ID0.4901528996415436">
    <path id="ID0.38118362659588456" fill="url(#grad_1-.5881476402282715,0,0,-0.5908936858177185,-15.9,57.099999999999994)" d="M 53.6014 5.759 C 53.6014 2.9511 51.3347 0.6744 48.5404 0.6744 L 5.1398 0.6744 C 2.3449 0.6744 0.0794 2.9517 0.0794 5.759 L 0.0794 27.8957 C 0.0794 30.7036 2.3449 32.9797 5.1398 32.9797 L 48.5398 32.9797 C 51.3359 32.9797 53.6008 30.7036 53.6008 27.8957 L 53.6008 5.759 L 53.6014 5.759 Z " stroke-width="0.5895222619398409"/>
    <path id="ID0.21476437570527196" fill="#27AAE1" d="M 48.5398 30.963 L 5.1398 30.963 C 3.4571 30.963 2.0873 29.5874 2.0873 27.8963 L 2.0873 5.7596 C 2.0873 4.0685 3.4571 2.6929 5.1398 2.6929 L 48.5398 2.6929 C 50.2243 2.6929 51.5929 4.0685 51.5929 5.7596 L 51.5929 27.8957 C 51.5929 29.5868 50.2243 30.963 48.5398 30.963 Z " stroke-width="0.5895222619398409"/>
  </g>
  <path id="ID0.8179688826203346" fill="#003FFF" stroke="#000000" stroke-width="2.1266202301100137" stroke-linecap="round" d="M 21.7469 13.7762 L 32.7216 13.683 L 40.7462 6.5996 L 12.5422 6.5996 L 21.7469 13.7762 Z "/>
  <path id="ID0.8179688826203346" fill="#003FFF" stroke="#000000" stroke-width="2.7028680635658118" stroke-linecap="round" d="M 27.0945 27.8426 L 45.2827 13.6714 L 8.7534 13.6714 L 27.0945 27.8426 Z "/>
</svg>