<svg version="1.1" xmlns="http://www.w3.org/2000/svg" xmlns:xlink="http://www.w3.org/1999/xlink" width="114.50036" height="99.13719" viewBox="0,0,114.50036,99.13719"><g transform="translate(-185.59506,-129.13926)"><g data-paper-data="{&quot;isPaintingLayer&quot;:true}" stroke="none" stroke-width="1" stroke-linecap="butt" stroke-linejoin="miter" stroke-miterlimit="10" stroke-dasharray="" stroke-dashoffset="0" style="mix-blend-mode: normal"><g id="flippers_x2F_fins"><g id="Group" fill-rule="nonzero"><path d="M272.23272,160.5327h-3.45133c-0.71407,-0.35406 -1.54715,-0.5901 -2.85627,-0.5901c-1.54715,0 -2.26122,0.23604 -3.0943,0.5901l-6.3076,0.11802c-0.71407,-0.35406 -1.54715,-0.5901 -3.0943,-0.5901c-1.54715,0 -2.26122,0.23604 -3.0943,0.5901l-6.3076,0.11802c-0.71407,-0.35406 -1.54715,-0.5901 -3.0943,-0.5901c-1.54715,0 -2.26122,0.23604 -3.0943,0.5901l-6.3076,0.11802c-0.71407,-0.35406 -1.54715,-0.5901 -3.0943,-0.5901c-1.54715,0 -2.26122,0.23604 -3.0943,0.5901l-6.06958,0.11802c-0.95209,-0.47208 -1.66616,-0.82614 -3.45133,-0.5901c-1.0711,0.11802 -1.78517,0.35406 -2.38023,0.5901h-3.80836c-0.11901,-0.11802 -0.11901,-0.11802 -0.23802,-0.23604c0,-0.82614 0.23802,-2.00635 0.35703,-2.95051c0.11901,-0.94416 -0.71407,-2.36041 -0.35703,-3.42259c0.35703,-1.06218 1.78517,-1.53427 2.38023,-2.59645c0.47605,-0.94416 0.11901,-2.47843 0.71407,-3.42259c0.59506,-0.82614 2.14221,-1.06218 2.85627,-2.00635c0.71407,-0.82614 0.47605,-2.47843 1.19011,-3.30457c0.71407,-0.82614 2.38023,-0.82614 3.0943,-1.65229c0.83308,-0.82614 0.83308,-2.47843 1.54715,-3.18655c0.83308,-0.82614 2.49924,-0.70812 3.21331,-1.29823c1.0711,-0.94416 1.54715,-2.59645 2.14221,-2.83249c0.95209,-0.35406 2.26122,0.35406 3.33232,0c0.95209,-0.35406 1.54715,-1.77031 2.61825,-2.00635c0.95209,-0.23604 2.26122,0.5901 3.33232,0.35406c1.0711,-0.23604 1.78517,-1.53427 2.85627,-1.77031c1.0711,-0.23604 2.26122,0.70812 3.33232,0.5901c1.0711,-0.11802 1.90418,-1.41625 2.97528,-1.53427c1.0711,-0.11802 2.14221,1.06218 3.21331,0.94416c1.0711,-0.11802 2.14221,-1.29823 3.0943,-1.29823c1.0711,0 2.14221,1.1802 3.0943,1.29823c1.0711,0.11802 2.26122,-0.94416 3.21331,-0.70812c1.19011,0.23604 2.02319,1.77031 3.33232,2.36041c1.0711,0.47208 2.73726,0.11802 3.92738,0.94416c1.0711,0.70812 1.42814,2.36041 2.38023,3.30457c0.95209,0.94416 2.73726,1.06218 3.57034,2.00635c0.83308,0.94416 0.71407,2.71447 1.42814,3.77666c0.71407,1.06218 2.38023,1.77031 2.85627,2.95051c0.47605,1.1802 -0.23802,2.71447 -0.11901,4.0127c0.11901,1.29823 1.30913,2.59645 1.0711,3.89468c-0.23802,1.29823 -1.66616,2.12437 -2.26122,3.42259c-0.35703,0.82614 -0.47605,2.00635 -0.83308,2.95051c-0.23802,0.23604 -0.47605,0.47208 -0.71407,0.94416z" id="Shape" fill="#cec800"/><path d="M272.11371,156.16594c0.23802,0.23604 0.59506,0.47208 0.95209,0.70812c-0.23802,0.70812 -0.35703,1.53427 -0.59506,2.36041c-0.23802,0.23604 -0.47605,0.47208 -0.71407,0.70812h-3.45133c-0.71407,-0.35406 -1.54715,-0.5901 -2.85627,-0.5901c-1.54715,0 -2.26122,0.23604 -3.0943,0.5901l-6.3076,0.11802c-0.71407,-0.35406 -1.54715,-0.5901 -3.0943,-0.5901c-1.54715,0 -2.26122,0.23604 -3.0943,0.5901l-6.3076,0.11802c-0.71407,-0.35406 -1.54715,-0.5901 -3.0943,-0.5901c-1.54715,0 -2.26122,0.23604 -3.0943,0.5901l-6.3076,0.11802c-0.71407,-0.35406 -1.54715,-0.5901 -3.0943,-0.5901c-1.54715,0 -2.26122,0.23604 -3.0943,0.5901l-6.06958,0.11802c-0.95209,-0.47208 -1.66616,-0.82614 -3.45133,-0.5901c-1.0711,0.11802 -1.78517,0.35406 -2.38023,0.5901h-3.57034c0.83308,-1.1802 1.78517,-2.47843 2.14221,-2.83249c-0.83308,-0.70812 -1.66616,-1.53427 -2.61825,-2.12437c-0.23802,-0.5901 -0.23802,-1.06218 -0.11901,-1.65229c1.30913,0.82614 2.61825,1.77031 3.68935,2.83249c1.19011,-1.06218 2.38023,-2.00635 3.57034,-2.83249c-1.0711,-2.12437 -2.49924,-4.13072 -4.40342,-5.42894c0,-0.23604 0.11901,-0.35406 0.23802,-0.5901c0.11901,-0.23604 0.35703,-0.47208 0.59506,-0.5901c2.14221,1.41625 3.57034,3.54061 4.76046,5.90102c1.30913,-0.70812 2.61825,-1.29823 3.92738,-1.77031c-1.42814,-2.83249 -3.33232,-5.90102 -5.71255,-8.02539c0,-0.35406 0.11901,-0.5901 0.35703,-0.82614c0.11901,-0.11802 0.35703,-0.23604 0.47605,-0.35406c2.26122,2.00635 4.04639,4.83884 5.47452,7.43529c0.23802,0.47208 0.47605,0.94416 0.71407,1.41625c1.0711,-0.35406 2.14221,-0.5901 3.21331,-0.82614c-1.19011,-4.36676 -2.97528,-8.49747 -5.59354,-11.92007c0.11901,-0.11802 0.23802,-0.35406 0.35703,-0.47208c0.23802,-0.23604 0.47605,-0.35406 0.71407,-0.47208c2.85627,3.65863 4.76046,8.02539 5.95057,12.62819c0.95209,-0.11802 1.78517,-0.23604 2.73726,-0.35406c-0.11901,-0.35406 -0.11901,-0.70812 -0.23802,-1.06218c-0.71407,-4.13072 -1.78517,-9.91372 -4.28441,-14.16246c0.11901,-0.35406 0.35703,-0.5901 0.59506,-0.70812c0.11901,-0.11802 0.35703,-0.11802 0.47605,-0.11802c1.90418,3.42259 2.97528,7.43529 3.80836,10.73986c0.47605,1.77031 0.83308,3.42259 1.0711,5.1929c0.71407,-0.11802 1.30913,-0.11802 2.02319,-0.23604c0.59506,0 1.19011,-0.11802 1.78517,-0.11802c-0.59506,-5.66498 -2.02319,-11.09393 -4.40342,-16.40485c0.35703,-0.47208 0.71407,-0.82614 1.19011,-0.94416c2.49924,5.54696 4.04639,11.32997 4.64144,17.23099c1.30913,-0.11802 2.49924,-0.23604 3.68935,-0.23604c0.11901,-4.0127 -0.23802,-8.02539 -0.95209,-11.92007c-0.35703,-2.12437 -1.19011,-4.0127 -2.02319,-6.01904c0.23802,-0.23604 0.59506,-0.35406 0.95209,-0.47208c0.11901,0 0.11901,0 0.23802,0c0.95209,2.71447 2.02319,5.42894 2.49924,8.37945c0.47605,3.30457 0.71407,6.72717 0.71407,10.03174c1.19011,0 2.26122,0 3.33232,0c0.11901,-1.77031 0.23802,-3.54061 0.23802,-5.31092c0.11901,-3.89468 0.23802,-9.44164 -1.66616,-13.57236c0.35703,-0.11802 0.59506,-0.35406 0.95209,-0.35406c0.11901,0 0.35703,0 0.47605,0c1.30913,3.18655 1.66616,7.08123 1.78517,10.3858c0.11901,2.95051 0,6.01904 -0.23802,8.96956c1.30913,0.11802 2.49924,0.23604 3.80836,0.35406c0.95209,-6.49113 0.47605,-13.45433 0,-19.94546c0.23802,-0.11802 0.35703,-0.11802 0.59506,-0.11802c0.35703,0 0.71407,0.11802 0.95209,0.23604c0.47605,6.49113 0.83308,13.45433 -0.11901,20.06348c0.83308,0.11802 1.54715,0.23604 2.26122,0.35406c0.23802,-0.47208 0.35703,-1.06218 0.47605,-1.53427c1.54715,-5.54696 3.45133,-12.62819 2.26122,-18.52922c0.23802,0 0.47605,0 0.71407,0c0.23802,0.11802 0.59506,0.23604 0.83308,0.47208c0.83308,5.66498 -0.71407,12.03809 -2.02319,17.23099c-0.23802,0.94416 -0.47605,1.88833 -0.71407,2.83249c0.95209,0.23604 1.90418,0.47208 2.85627,0.70812c2.61825,-5.66498 4.52243,-11.68403 5.59354,-18.05713c0.23802,0.11802 0.35703,0.23604 0.59506,0.35406c0.35703,0.23604 0.47605,0.47208 0.71407,0.70812c-1.0711,6.13706 -2.85627,11.92007 -5.47452,17.46703c1.19011,0.35406 2.26122,0.70812 3.45133,1.06218c2.97528,-4.6028 5.35551,-9.44164 6.66464,-14.51652c0.23802,0.23604 0.47605,0.35406 0.71407,0.5901c0.23802,0.11802 0.35703,0.47208 0.47605,0.70812c-1.30913,4.83884 -3.68935,9.32362 -6.42662,13.69038c0.23802,0.11802 0.47605,0.11802 0.71407,0.23604c0.83308,0.35406 1.54715,0.5901 2.26122,0.94416c2.61825,-2.95051 4.76046,-6.25509 6.54563,-9.7957c0.35703,0.23604 0.59506,0.5901 0.71407,0.94416c0.11901,0.11802 0.11901,0.35406 0.11901,0.5901c-1.54715,3.06853 -3.57034,6.13706 -5.95057,8.73352c0.71407,0.35406 1.42814,0.70812 2.14221,1.06218c1.54715,-1.41625 2.97528,-2.95051 4.1654,-4.6028c0.23802,0.5901 0.47605,1.1802 0.47605,1.77031c-1.0711,1.29823 -2.14221,2.47843 -3.80836,3.30457z" id="Shape" fill="#fbdf00"/></g><g id="Group" fill-rule="nonzero"><path d="M206.77645,182.13044c-3.57034,0.23604 -7.85475,3.54061 -10.94905,5.1929c-3.45133,1.88833 -6.42662,2.95051 -10.11597,3.89468c-1.19011,-4.72082 7.14068,-14.51652 7.14068,-14.51652c0,0 -7.37871,-14.9886 -1.66616,-18.52922c2.85627,1.77031 5.2365,4.72082 8.09277,6.60915c2.73726,1.77031 6.18859,2.83249 8.56882,4.6028z" id="Shape" fill="#cec800"/><path d="M209.27569,170.68246l-0.59506,5.66498l-0.35703,3.54061l-1.54715,0.70812c-2.61825,1.29823 -5.35551,2.36041 -8.09277,3.30457c-4.28441,1.53427 -8.44981,3.42259 -12.85323,4.6028c0.23802,-0.47208 0.35703,-1.06218 0.59506,-1.65229c3.68935,-1.06218 7.14068,-2.59645 10.71103,-3.77666c3.33232,-1.1802 6.78365,-2.95051 9.99696,-4.95686l-0.11901,-0.94416c-5.59354,2.95051 -11.78213,4.36676 -18.08973,4.72082c0.35703,-0.5901 0.71407,-1.06218 1.0711,-1.53427c5.95057,-0.5901 11.90114,-1.88833 17.13764,-4.95686c0.11901,0 0.11901,0 0.11901,0v-0.23604c-4.52243,0.5901 -9.04487,1.41625 -13.80532,1.29823c-0.23802,0 -0.59506,0 -0.83308,0c-0.11901,-0.23604 -0.35703,-0.70812 -0.59506,-1.29823c1.54715,0 2.85627,-0.11802 3.92738,-0.11802c3.92738,0 7.73574,-0.82614 11.54411,-1.29823l0.11901,-0.82614c-5.71255,0.94416 -11.78213,-0.35406 -17.25665,-2.36041c-0.11901,-0.5901 -0.35703,-1.1802 -0.47605,-1.77031c5.59354,2.12437 12.02015,3.65863 17.85171,2.59645v-0.11802c-5.11749,-0.94416 -13.68631,-4.0127 -18.68479,-8.61549c0,-0.5901 0.11901,-1.1802 0.23802,-1.77031c4.52243,4.48478 13.09125,6.96321 18.56578,9.32362z" id="Shape" fill="#fbdf00"/></g><g id="Group" fill-rule="nonzero"><path d="M210.4658,191.57208c1.42814,1.06218 0.71407,2.00635 2.14221,3.18655c1.42814,1.1802 2.14221,0.23604 3.57034,1.41625c1.42814,1.1802 0.71407,2.00635 2.14221,3.18655c1.42814,1.06218 2.02319,0.23604 3.57034,1.29823c1.54715,0.70812 3.0943,2.36041 5.35551,3.06853c1.90418,0.47208 4.28441,0 6.3076,0.5901c2.02319,0.5901 3.68935,2.24239 5.59354,2.95051c2.02319,0.70812 4.40342,0.35406 6.18859,1.1802c2.26122,1.06218 2.97528,1.65229 4.1654,2.95051c0,1.1802 0.95209,3.54061 0.35703,4.6028c-0.47605,0.94416 -2.14221,1.1802 -2.97528,2.12437c-0.71407,0.82614 -0.83308,2.47843 -1.78517,3.18655c-0.95209,0.82614 -2.61825,0.35406 -3.57034,0.82614c-1.19011,0.47208 -2.14221,1.88833 -3.0943,1.88833c-1.19011,-0.11802 -2.49924,-1.29823 -4.04639,-1.53427c-1.30913,-0.11802 -2.85627,0.82614 -4.28441,0.47208c-1.30913,-0.23604 -2.38023,-1.77031 -3.68935,-2.12437c-1.30913,-0.35406 -2.97528,0.23604 -4.28441,-0.23604c-1.30913,-0.5901 -2.02319,-2.12437 -3.21331,-2.83249c-1.19011,-0.70812 -2.97528,-0.5901 -4.04639,-1.41625c-1.0711,-0.94416 -1.19011,-2.71447 -2.14221,-3.77666c-0.95209,-1.06218 -2.73726,-1.41625 -3.45133,-2.59645c-0.71407,-1.06218 -0.47605,-2.95051 -1.0711,-4.13072c-0.59506,-1.29823 -2.26122,-2.00635 -2.73726,-3.30457c-0.35703,-1.06218 0.35703,-2.47843 0,-3.42259c-0.35703,-1.06218 -1.78517,-1.77031 -2.02319,-2.71447c-0.23802,-1.1802 0.71407,-2.36041 0.71407,-3.30457c0,-1.29823 -0.71407,-2.71447 0.11901,-3.30457c0.59506,-0.47208 1.66616,0.23604 3.0943,0.35406c1.66616,0.94416 2.02319,0.23604 3.0943,1.41625z" id="Shape" fill="#cec800"/><path d="M207.01447,190.98198c0.11901,0.11802 0.35703,0.11802 0.47605,0.11802c0.11901,0.11802 0.35703,0.11802 0.47605,0.23604h0.11901c0.11901,0 0.23802,0.11802 0.35703,0.11802c0.11901,0 0.11901,0 0.11901,0c0.71407,0.23604 1.19011,0.11802 1.78517,0.47208c0.23802,0 0.47605,0.11802 0.71407,0.35406c0.35703,0.23604 0.59506,0.47208 0.71407,0.70812c0,0.11802 0.11901,0.11802 0.11901,0.23604c0.35703,0.47208 0.35703,0.94416 0.71407,1.53427v0c0,0.11802 0.11901,0.11802 0.11901,0.23604v0l0.11901,0.11802v0c0,0.11802 0.11901,0.11802 0.23802,0.23604c0.83308,0.5901 1.42814,0.5901 2.02319,0.70812c0.11901,0 0.23802,0 0.35703,0v0c0.11901,0 0.23802,0.11802 0.35703,0.11802c0.11901,0 0.11901,0 0.11901,0c0.11901,0 0.23802,0 0.35703,0.11802v0c0.23802,0 0.35703,0.11802 0.47605,0.23604c1.42814,1.1802 0.71407,2.00635 2.14221,3.18655c0.11901,0.11802 0.11901,0.11802 0.11901,0.11802c0.47605,0.35406 0.95209,0.47208 1.30913,0.5901v0c0.23802,0 0.59506,0.11802 0.83308,0.11802h0.11901h0.11901h0.11901h0.11901c0,0.11802 0.11901,0.11802 0.11901,0.11802h0.11901c0.11901,0 0.11901,0.11802 0.23802,0.11802h0.11901c0.11901,0.11802 0.23802,0.11802 0.35703,0.23604c0.23802,0.11802 0.47605,0.23604 0.71407,0.35406l0.11901,0.11802c0.11901,0.23604 0.35703,0.35406 0.59506,0.47208c0.59506,0.35406 1.19011,0.82614 1.78517,1.1802c0.11901,0 0.11901,0.11802 0.23802,0.11802c0.23802,0.11802 0.35703,0.11802 0.47605,0.23604c0.11901,0.11802 0.23802,0.11802 0.35703,0.23604c0.11901,0 0.23802,0.11802 0.35703,0.11802c0.35703,0.11802 0.59506,0.11802 0.83308,0.23604c0.23802,0 0.47605,0.11802 0.71407,0.11802c0.11901,0 0.23802,0 0.35703,0c0.11901,0 0.35703,0 0.47605,0c0.23802,0 0.35703,0 0.47605,0c0.11901,0 0.23802,0 0.35703,0c0.83308,0.11802 1.54715,0.11802 2.38023,0.11802c0.23802,0 0.47605,0.11802 0.71407,0.11802h0.11901c0.23802,0.11802 0.59506,0.11802 0.83308,0.23604c2.02319,0.5901 3.68935,2.24239 5.59354,2.95051c0.23802,0.11802 0.47605,0.23604 0.71407,0.23604c0.11901,0 0.11901,0 0.23802,0c0.23802,0 0.35703,0.11802 0.59506,0.11802h0.11901c1.19011,0.11802 2.26122,0.11802 3.33232,0.35406c0.35703,0 0.83308,0.11802 1.19011,0.35406c0.47605,0.11802 0.71407,0.35406 1.0711,0.47208c0.71407,0.35406 1.19011,0.70812 1.66616,1.06218v0c0,0.11802 0.11901,0.11802 0.23802,0.23604l0.11901,0.11802c0.11901,0.11802 0.11901,0.11802 0.23802,0.23604c0.11901,0.11802 0.11901,0.11802 0.23802,0.23604c0,0 0.11901,0 0.11901,0.11802c0.11901,0.11802 0.23802,0.23604 0.35703,0.35406c0,0.11802 0,0.35406 0,0.47208v0.11802c0.11901,0.70812 0.35703,1.77031 0.47605,2.71447c-0.23802,0 -0.59506,0 -0.83308,0c0.11901,0.47208 0.35703,1.06218 0.47605,1.53427c-0.35703,0.35406 -0.83308,0.5901 -1.30913,0.82614c-0.23802,-0.82614 -0.59506,-1.65229 -0.83308,-2.47843c-0.83308,0 -1.66616,-0.11802 -2.49924,-0.11802c0.11901,2.00635 0.35703,4.13072 0.47605,6.13706c-0.23802,0.23604 -0.35703,0.47208 -0.59506,0.5901c-0.23802,0.11802 -0.47605,0.23604 -0.83308,0.35406c-0.11901,-2.36041 -0.35703,-4.83884 -0.59506,-7.19925c-1.19011,-0.11802 -2.26122,-0.23604 -3.45133,-0.35406c-0.23802,3.18655 -0.47605,6.49113 -1.30913,9.67768c-0.23802,0 -0.35703,0.11802 -0.59506,0.11802c-0.23802,0 -0.59506,-0.11802 -0.83308,-0.23604c0.11901,-0.82614 0.35703,-1.65229 0.47605,-2.36041c0.59506,-2.47843 0.71407,-5.07488 0.83308,-7.55331c-1.0711,-0.23604 -2.14221,-0.35406 -3.21331,-0.5901c-1.0711,3.30457 -2.49924,6.60915 -4.28441,9.55966c-0.35703,0.11802 -0.83308,0.11802 -1.30913,0c-0.11901,0 -0.23802,-0.11802 -0.35703,-0.11802c1.90418,-3.06853 3.45133,-6.37311 4.40342,-9.7957c-1.90418,-0.35406 -3.80836,-0.82614 -5.59354,-1.41625c-1.66616,3.18655 -3.45133,6.13706 -5.59354,9.08758c-0.35703,0 -0.71407,-0.11802 -1.0711,-0.23604c-0.23802,-0.11802 -0.35703,-0.11802 -0.47605,-0.23604c2.14221,-2.83249 4.04639,-5.90102 5.71255,-9.08758c-1.54715,-0.5901 -3.0943,-1.1802 -4.52243,-1.77031c-0.47605,-0.23604 -0.83308,-0.35406 -1.19011,-0.5901c-0.59506,0.94416 -1.19011,1.88833 -1.90418,2.71447c-1.42814,1.77031 -2.97528,3.30457 -4.76046,4.83884c-0.11901,0 -0.11901,0 -0.23802,-0.11802c-0.35703,-0.23604 -0.47605,-0.5901 -0.71407,-0.94416c2.14221,-1.88833 4.1654,-3.89468 5.71255,-6.13706c0.23802,-0.23604 0.35703,-0.5901 0.59506,-0.94416c-1.66616,-0.94416 -3.21331,-1.88833 -4.52243,-2.95051c-1.78517,2.00635 -3.92738,3.89468 -6.18859,5.31092c-0.23802,-0.11802 -0.47605,-0.35406 -0.59506,-0.5901c-0.11901,-0.11802 -0.11901,-0.35406 -0.23802,-0.5901c2.14221,-1.41625 4.1654,-3.18655 5.95057,-5.07488c-1.66616,-1.29823 -2.97528,-2.83249 -4.1654,-4.36676c-0.23802,0.23604 -0.59506,0.47208 -0.83308,0.70812c-1.30913,1.06218 -2.61825,1.88833 -4.04639,2.59645c-0.23802,-0.23604 -0.35703,-0.47208 -0.47605,-0.70812c-0.11901,-0.23604 -0.11901,-0.35406 -0.11901,-0.5901c1.19011,-0.70812 2.38023,-1.41625 3.57034,-2.36041c0.35703,-0.23604 0.71407,-0.47208 1.0711,-0.82614c-0.71407,-0.94416 -1.30913,-2.00635 -1.90418,-2.95051c-1.42814,0.5901 -2.85627,1.06218 -4.40342,1.41625c-0.11901,-0.23604 -0.23802,-0.47208 -0.35703,-0.70812c0,-0.23604 0,-0.47208 0,-0.70812c1.42814,-0.35406 2.85627,-0.82614 4.1654,-1.29823c-0.35703,-0.70812 -0.71407,-1.29823 -0.95209,-2.00635c-0.83308,-0.11802 -1.78517,-0.35406 -2.61825,-0.70812c0,-0.5901 -0.11901,-1.1802 0.11901,-1.53427c0.59506,0.35406 1.30913,0.5901 2.02319,0.70812c-0.11901,-0.23604 -0.23802,-0.5901 -0.35703,-0.94416v0c0.11901,0 0.35703,0.11802 0.59506,0.11802c0.11901,0 0.11901,0 0.11901,0c0.11901,0.11802 0.23802,0.11802 0.35703,0.11802c0.11901,0 0.11901,0 0.23802,0.94416z" id="Shape" fill="#fbdf00"/></g><g id="Group"><path d="M262.35477,210.57338c-0.11901,6.01904 -1.0711,12.51017 -6.3076,17.70307c-2.38023,-3.77666 -0.95209,-4.83884 -0.95209,-7.90737c-0.11901,-2.12437 -0.47605,-4.83884 1.0711,-6.60915c0.71407,-0.82614 1.66616,-0.82614 2.02319,-2.12437z" id="Shape" fill="#d8d213" fill-rule="nonzero"/><path d="M262.35477,210.57338c-0.11901,6.01904 -1.0711,12.51017 -6.3076,17.70307c-2.38023,-3.77666 -0.95209,-4.83884 -0.95209,-7.90737c-0.11901,-2.12437 -0.47605,-4.83884 1.0711,-6.60915c0.71407,-0.82614 4.99848,-2.71447 4.99848,-2.71447z" id="Shape" fill="none" fill-rule="evenodd"/><path d="M262.23576,210.45536c0,0.35406 0,0.5901 0,0.94416c-1.30913,3.89468 -2.38023,7.78935 -4.87947,11.21195c-0.83308,1.06218 -1.54715,2.24239 -2.49924,3.30457c-0.23802,-0.70812 -0.23802,-1.29823 -0.23802,-1.88833c0.95209,-1.1802 1.66616,-2.36041 2.38023,-3.42259c1.19011,-1.88833 2.02319,-4.0127 2.73726,-6.13706c-1.30913,1.53427 -2.97528,2.95051 -4.76046,4.13072c0,-0.5901 0,-1.1802 0,-1.77031c2.02319,-1.53427 3.92738,-3.30457 5.2365,-5.31092c0.59506,-0.35406 0.95209,-0.47208 0.95209,-0.47208z" id="Shape" fill="#fbdf00" fill-rule="nonzero"/></g></g><g id="fish" fill-rule="nonzero"><g id="body" fill="#fbdf00"><path d="M299.84335,190.86396c-2.02319,3.06853 -5.35551,4.48478 -11.78213,2.83249c0,3.65863 7.14068,3.30457 8.56882,2.71447c-0.23802,5.54696 -10.23498,6.84519 -13.32928,7.55331c-11.30608,2.59645 -15.35247,8.73352 -25.34943,10.14976c-11.18707,1.53427 -24.63536,-0.11802 -34.87034,-4.6028c-10.83004,-4.83884 -15.82852,-14.04444 -17.49468,-20.06348c-2.26122,-6.25509 -5.11749,-4.72082 -7.85475,-2.95051c-1.54715,-2.12437 3.0943,-6.72717 3.21331,-11.56601c0.11901,-4.95686 -0.95209,-9.55966 -0.95209,-9.55966c3.80836,1.88833 6.06958,1.06218 7.02167,-0.35406c0.95209,-1.29823 1.30913,-2.59645 2.26122,-3.77666c7.02167,-9.32362 15.11445,-10.62184 24.27832,-11.56601c11.18707,-1.1802 21.18403,-0.47208 31.77604,3.65863c5.11749,2.00635 8.80684,3.54061 12.13916,8.26143c3.33232,4.6028 4.87947,7.43529 7.85475,12.15611c2.73726,4.36676 7.37871,8.49747 10.94905,12.03809c1.42814,1.29823 4.76046,3.06853 3.57034,5.07488z" id="Shape"/></g><g id="eye"><path d="M270.09051,182.83857c-3.57034,-0.23604 -7.02167,-1.29823 -9.75893,-3.65863c-0.83308,-0.70812 -3.33232,-2.83249 -3.33232,-4.13072c0,-1.06218 1.54715,-2.12437 2.26122,-2.71447c2.97528,-2.36041 7.02167,-3.30457 10.83004,-3.18655c3.57034,0 10.94905,2.83249 11.30608,7.31727c0.47605,5.1929 -7.97376,6.13706 -11.30608,6.37311zM280.08747,176.58348c0,-0.47208 -1.66616,-2.36041 -2.26122,-2.95051c-2.49924,-2.36041 -5.71255,-3.18655 -9.04487,-3.06853c-3.0943,0.11802 -6.3076,0.94416 -8.80684,2.83249c-0.59506,0.35406 -1.0711,0.82614 -1.54715,1.41625c-0.11901,0.11802 -0.11901,0.11802 -0.11901,0.11802c1.30913,4.24874 8.21179,6.37311 11.78213,6.49113c2.73726,-0.11802 10.473,-1.06218 9.99696,-4.83884z" id="Shape" fill="#cec800"/><path d="M275.08898,167.14184c-4.40342,-2.47843 -10.11597,-1.88833 -14.40038,0.47208c-0.83308,0.35406 -1.42814,-0.82614 -0.71407,-1.1802c4.76046,-2.59645 10.94905,-3.06853 15.82852,-0.47208c0.71407,0.47208 0.11901,1.53427 -0.71407,1.1802z" id="Shape" fill="#cec800"/><path d="M261.99773,175.16724c0,0 1.90418,-3.06853 7.73574,-3.06853c4.64144,0 6.54563,4.0127 6.54563,4.0127c0,0 0,3.54061 -6.54563,3.54061c-5.47452,0 -7.73574,-4.48478 -7.73574,-4.48478z" id="Shape" fill="#ffffff"/><path d="M276.39812,176.22942c0,0 -0.11901,3.42259 -6.3076,3.54061c-0.83308,-0.70812 -1.30913,-1.41625 -1.66616,-2.36041c0.83308,-0.23604 1.42814,-0.94416 1.42814,-1.77031c0,-0.94416 -0.59506,-1.65229 -1.42814,-1.77031c0.23802,-0.70812 0.59506,-1.29823 1.0711,-1.77031c0.11901,0 0.11901,0 0.23802,0c4.76046,0 6.66464,4.13072 6.66464,4.13072z" id="Shape" fill="#748706"/><path d="M276.39812,176.22942c0,0 0,2.24239 -3.33232,3.18655c-1.42814,-0.70812 -2.38023,-2.00635 -2.38023,-3.65863c0,-1.29823 0.59506,-2.47843 1.54715,-3.18655c2.85627,1.06218 4.1654,3.65863 4.1654,3.65863z" id="Shape" fill="#302f38"/></g><path d="M240.21865,191.33604c-7.49772,6.60915 -24.27832,-1.77031 -27.61064,-9.67768c-2.38023,-5.783 2.85627,-8.85154 7.61673,-10.50382c3.21331,-1.06218 6.18859,-1.53427 9.4019,-0.23604c4.04639,1.53427 7.37871,4.72082 11.42509,6.49113c0.35703,0.11802 0.35703,0.35406 0.35703,0.5901c0,2.71447 0,5.31092 0,8.02539c0,2.12437 0.47605,3.77666 -1.19011,5.31092zM222.84299,171.62662c5.2365,2.36041 10.59201,4.48478 16.18555,6.13706c-3.57034,-1.88833 -6.78365,-4.83884 -10.71103,-6.01904c-1.78517,-0.5901 -3.57034,-0.47208 -5.47452,-0.11802zM240.09964,179.53399v-0.11802c-6.66464,-1.88833 -13.09125,-4.36676 -19.27985,-7.31727c-1.66616,0.5901 -3.21331,1.29823 -4.64144,2.24239c7.73574,3.18655 15.7095,4.83884 23.92129,5.1929zM213.44109,179.41597c5.11749,1.41625 10.59201,1.88833 15.59049,2.47843c2.73726,0.35406 5.83156,0.23604 8.80684,0.11802c-7.97376,-0.82614 -15.59049,-3.30457 -22.9692,-6.72717c-1.42814,1.41625 -1.78517,2.83249 -1.42814,4.13072zM218.20154,186.14314c3.92738,0.11802 7.97376,-0.11802 11.66312,-0.35406c3.45133,-0.35406 6.90266,-0.82614 10.23498,-1.65229v-0.11802c-4.1654,0 -8.44981,-0.23604 -12.61521,-0.82614c-4.40342,-0.5901 -9.16388,-1.06218 -13.68631,-2.12437c0.83308,1.77031 2.49924,3.54061 4.40342,5.07488zM222.24793,188.73959c1.19011,0.70812 2.61825,1.29823 3.92738,1.77031c4.87947,-1.1802 9.52091,-2.83249 14.04334,-4.95686c0,0 0,-0.11802 0,-0.23604c-2.97528,0.70812 -5.95057,1.1802 -9.04487,1.53427c-3.57034,0.35406 -7.37871,0.5901 -11.18707,0.5901c0.83308,0.5901 1.54715,1.06218 2.26122,1.29823zM240.21865,187.0873c-3.80836,1.77031 -7.61673,3.18655 -11.66312,4.24874c1.30913,0.23604 2.49924,0.47208 3.68935,0.5901c2.14221,0.23604 6.54563,0 7.73574,-2.24239c0.35703,-0.5901 0.35703,-1.53427 0.23802,-2.59645z" id="fin" fill="#cec800"/></g></g></g></svg>