<svg version="1.1" xmlns="http://www.w3.org/2000/svg" xmlns:xlink="http://www.w3.org/1999/xlink" width="168.09" height="135.75" viewBox="0,0,168.09,135.75"><g transform="translate(-149.359,-100.629)"><g data-paper-data="{&quot;isPaintingLayer&quot;:true}" fill-rule="nonzero" stroke="none" stroke-width="1" stroke-linecap="butt" stroke-linejoin="miter" stroke-miterlimit="10" stroke-dasharray="" stroke-dashoffset="0" style="mix-blend-mode: normal"><path d="M203.636,153.879v-52.5h29.958v52.5z" fill="#ffffff"/><path d="M232.845,102.129h-28.458v51h28.458v-51M234.345,100.629v54h-31.458v-54h31.458z" fill="#d6d6d6"/><path d="M259.761,153.879v-36.5h22.75v15.216l10.375,2.5v18.784z" fill="#ffffff"/><path d="M281.761,118.129h-21.25v35h31.625v-17.443l-9.227,-2.224l-1.148,-0.276v-1.182v-13.875M283.261,116.629v15.375l10.375,2.5v20.125h-34.625v-38h24.25z" fill="#d6d6d6"/><path d="M299.38,235.629c-6.551,0 -11.88,-5.33 -11.88,-11.881c0,-6.551 5.33,-11.881 11.88,-11.881c6.551,0 11.881,5.33 11.881,11.881c0,6.551 -5.329,11.881 -11.881,11.881z" fill="#ffffff"/><path d="M299.38,212.617c-6.137,0 -11.13,4.993 -11.13,11.131c0,6.138 4.993,11.131 11.13,11.131c6.138,0 11.131,-4.993 11.131,-11.131c0,-6.138 -4.993,-11.131 -11.131,-11.131M299.38,211.117c6.976,0 12.631,5.655 12.631,12.631c0,6.976 -5.655,12.631 -12.631,12.631c-6.975,0 -12.63,-5.655 -12.63,-12.631c0,-6.976 5.654,-12.631 12.63,-12.631z" fill="#d6d6d6"/><path d="M259.761,197.129v-17h21.5v17z" fill="#ffffff"/><path d="M280.511,180.879h-20v15.5h20v-15.5M282.011,179.379v18.5h-23v-18.5h23z" fill="#d6d6d6"/><path d="M287.011,193.879v-13.75h29.572l-1.972,13.75z" fill="#ffffff"/><path d="M315.718,180.879h-27.957v12.25h26.2l1.757,-12.25M317.449,179.379l-2.188,15.25h-29v-15.25h31.188z" fill="#d6d6d6"/><path d="M259.761,219.857v-16.478h14.75v16.478z" fill="#ffffff"/><path d="M273.761,204.129h-13.25v14.978h13.25v-14.978M275.261,202.629v17.978h-16.25v-17.978h16.25z" fill="#d6d6d6"/><path d="M259.761,233.291v-8.416h9.129v1.821l6.144,0.573l-0.686,7.378z" fill="#ffffff"/><path d="M268.14,225.625h-7.629v6.982l13.16,1.224l0.547,-5.886l-4.717,-0.439l-1.361,-0.126v-1.367v-0.388M269.64,224.125v1.888l6.21,0.578l-0.825,8.873l-16.014,-1.489v-9.85h10.629z" fill="#d6d6d6"/><path d="M209.595,203.462v-23.333h16.94l7.06,7.06v16.273z" fill="#ffffff"/><path d="M226.224,180.879h-15.879v21.833h22.5v-15.212l-6.621,-6.621M226.845,179.379l7.5,7.5v17.333h-25.5v-24.833h18z" fill="#d6d6d6"/><path d="M175.25408,208.74813l6.30486,0.60553l-1.5535,16.17525l-6.30486,-0.60553z" fill="#ffffff"/><path d="M175.923,209.562l-1.411,14.683l4.812,0.462l1.411,-14.683l-4.812,-0.462M174.574,207.925l7.798,0.749l-1.698,17.669l-7.798,-0.749l1.698,-17.669z" fill="#d6d6d6"/><path d="M163.49544,207.61765l6.30486,0.60553l-1.5535,16.17525l-6.30486,-0.60553z" fill="#ffffff"/><path d="M164.165,208.432l-1.411,14.683l4.812,0.462l1.411,-14.683l-4.812,-0.462M162.815,206.795l7.798,0.749l-1.698,17.669l-7.798,-0.749l1.698,-17.669z" fill="#d6d6d6"/><path d="M151.73671,206.48826l6.30486,0.60553l-1.5535,16.17525l-6.30486,-0.60553z" fill="#ffffff"/><path d="M152.407,207.302l-1.411,14.683l4.812,0.462l1.411,-14.683l-4.812,-0.462M151.057,205.665l7.798,0.749l-1.698,17.669l-7.798,-0.749l1.698,-17.669z" fill="#d6d6d6"/><path d="M215.511,228.297v-3.464h1.5v-11.954h-1.5v-4.204h18.084v4.204h-1.334v11.954h1.334v3.464z" fill="#ffffff"/><path d="M232.845,209.425h-16.583v2.704h1.5v1.5v10.454v1.5h-1.5v1.964h16.583v-1.964h-1.333v-1.5v-10.454v-1.5h1.333v-2.704M234.345,207.925v5.704h-1.333v10.454h1.333v4.964h-19.583v-4.964h1.5v-10.454h-1.5v-5.704h19.583z" fill="#d6d6d6"/><path d="M208.845,149.379v-17h11.771v17z" fill="#f2f2f2"/><path d="M208.845,128.754v-7.042h6.667v7.042z" fill="#f2f2f2"/><path d="M273.261,149.379v-10h15.583v10z" fill="#f2f2f2"/><path d="M263.761,193.879v-10.5h3.375v10.5z" fill="#f2f2f2"/><path d="M268.845,193.879v-10.5h3v10.5z" fill="#f2f2f2"/><path d="M273.845,193.879v-10.5h3.417v10.5z" fill="#f2f2f2"/></g></g></svg>