<svg xmlns="http://www.w3.org/2000/svg" xmlns:xlink="http://www.w3.org/1999/xlink" version="1.1" width="60.156599799759526" height="73.29500464595093" viewBox="0.2999490300976546 0.3623490135037215 60.156599799759526 73.29500464595093">
  <defs>
    <radialGradient id="grad_1" cx="0.5176" cy="0.5046" r="0.6728799999999999">
      <stop offset="0" stop-color="#99B2FF" stop-opacity="1"/>
      <stop offset="1" stop-color="#003FFF" stop-opacity="1"/>
    </radialGradient>
    <radialGradient id="grad_2" cx="0.5201" cy="0.5188" r="0.67613">
      <stop offset="0" stop-color="#99B2FF" stop-opacity="1"/>
      <stop offset="1" stop-color="#003FFF" stop-opacity="1"/>
    </radialGradient>
  <radialGradient id="grad_1-,0,0,1,-230.15,-139.45" cx="51.1813" cy="21.6435" r="13.1956" gradientUnits="userSpaceOnUse">
      <stop offset="0" stop-color="#99B2FF" stop-opacity="1"/>
      <stop offset="1" stop-color="#003FFF" stop-opacity="1"/>
    </radialGradient><radialGradient id="grad_2-,0,0,1,-241.9,-129.1" cx="51.379" cy="52.1241" r="13.5894" gradientUnits="userSpaceOnUse">
      <stop offset="0" stop-color="#99B2FF" stop-opacity="1"/>
      <stop offset="1" stop-color="#003FFF" stop-opacity="1"/>
    </radialGradient></defs>
  <!-- Exported by Scratch - http://scratch.mit.edu/ -->
  <path id="ID0.7634384990669787" fill="#CCCCCC" stroke="#7F7F7F" stroke-width="2.064902106888431" d="M 1.3324 1.3948 L 59.4241 1.3948 L 59.4241 72.6249 L 1.3324 72.6249 L 1.3324 1.3948 Z "/>
  <path id="ID0.011029717978090048" fill="url(#grad_1-,0,0,1,-230.15,-139.45)" stroke="#003FFF" stroke-linecap="round" d="M 45.85 15.15 L 54.9 8.65 L 56.1 10.25 L 56.15 29.55 L 51 34.4 L 45.85 29.55 L 45.85 15.15 Z " stroke-width="1"/>
  <path id="ID0.9163109455257654" fill="#E5E5E5" stroke="#E5E5E5" stroke-linecap="round" d="M 7.65 6.15 L 9 4.4 L 52.5 4.35 L 53.85 6.15 L 44 13.15 L 17.5 13.15 L 7.65 6.15 Z " stroke-width="1"/>
  <path id="ID0.8086974886246026" fill="#E5E5E5" stroke="#E5E5E5" stroke-linecap="round" d="M 4.75 9.6 L 6 8.15 L 16.15 15.4 L 16 29.75 L 10.15 34.4 L 4.75 29.4 L 4.75 9.6 Z " stroke-width="1"/>
  <path id="ID0.5550704752095044" fill="#E5E5E5" stroke="#E5E5E5" stroke-linecap="round" d="M 17.75 31.6 L 44.25 31.7 L 49.5 36.5 L 44.35 40.5 L 17.75 40.5 L 12.15 36.1 L 17.75 31.6 Z " stroke-width="1"/>
  <path id="ID0.9545283783227205" fill="url(#grad_2-,0,0,1,-241.9,-129.1)" stroke="#003FFF" stroke-linecap="round" d="M 46.1 42.25 L 51.25 38.35 L 56.25 42.6 L 56.25 62 L 53.5 64.9 L 46.1 59.25 L 46.1 42.25 Z " stroke-width="1"/>
  <path id="ID0.08932892605662346" fill="#E5E5E5" stroke="#E5E5E5" stroke-linecap="round" d="M 5 42.15 L 9.65 37.75 L 15.65 42.4 L 15.65 58.55 L 6.85 65.15 L 5 63.15 L 5 42.15 Z " stroke-width="1"/>
  <path id="ID0.9426794587634504" fill="#E5E5E5" stroke="#E5E5E5" stroke-linecap="round" d="M 17.15 60.55 L 44.15 60.65 L 52.5 66.65 L 50.5 69.15 L 10.5 69.05 L 8.5 66.9 L 17.15 60.55 Z " stroke-width="1"/>
</svg>