<svg xmlns="http://www.w3.org/2000/svg" xmlns:xlink="http://www.w3.org/1999/xlink" version="1.1" width="80.80268648535143" height="38.09688356787096" viewBox="-0.43429279461567927 -0.10389278963273096 80.80268648535143 38.09688356787096">
  <defs>
    <radialGradient id="grad_1" cx="0.26" cy="0.2188" r="1.01556">
      <stop offset="0" stop-color="#FF9400" stop-opacity="1"/>
      <stop offset="1" stop-color="#995900" stop-opacity="1"/>
    </radialGradient>
    <radialGradient id="grad_2" cx="0.3063" cy="0.36340000000000006" r="0.90181">
      <stop offset="0" stop-color="#FF9400" stop-opacity="1"/>
      <stop offset="1" stop-color="#995900" stop-opacity="1"/>
    </radialGradient>
    <radialGradient id="grad_3" cx="0.3433" cy="0.3236" r="0.87932">
      <stop offset="0" stop-color="#FF9400" stop-opacity="1"/>
      <stop offset="1" stop-color="#995900" stop-opacity="1"/>
    </radialGradient>
    <radialGradient id="grad_4" cx="0.4814" cy="0.41700000000000004" r="0.7578999999999999">
      <stop offset="0" stop-color="#FF9400" stop-opacity="1"/>
      <stop offset="1" stop-color="#995900" stop-opacity="1"/>
    </radialGradient>
    <radialGradient id="grad_5" cx="0.42590000000000006" cy="0.4035" r="0.77545">
      <stop offset="0" stop-color="#FF9400" stop-opacity="1"/>
      <stop offset="1" stop-color="#995900" stop-opacity="1"/>
    </radialGradient>
    <radialGradient id="grad_6" cx="0.3953" cy="0.31679999999999997" r="0.8881600000000001">
      <stop offset="0" stop-color="#FF9400" stop-opacity="1"/>
      <stop offset="1" stop-color="#995900" stop-opacity="1"/>
    </radialGradient>
    <radialGradient id="grad_7" cx="0.3592" cy="0.3799" r="0.83304">
      <stop offset="0" stop-color="#00FF55" stop-opacity="1"/>
      <stop offset="1" stop-color="#009933" stop-opacity="1"/>
    </radialGradient>
  <radialGradient id="grad_1-.8573749661445618,0,0,0.8573749661445618,-23.05,-48.5" cx="75.0912" cy="5.7307" r="11.1118" gradientUnits="userSpaceOnUse">
      <stop offset="0" stop-color="#FF9400" stop-opacity="1"/>
      <stop offset="1" stop-color="#995900" stop-opacity="1"/>
    </radialGradient><radialGradient id="grad_2-.8573749661445618,0,0,0.8573749661445618,-23.05,-48.5" cx="10.8203" cy="13.8862" r="32.4926" gradientUnits="userSpaceOnUse">
      <stop offset="0" stop-color="#FF9400" stop-opacity="1"/>
      <stop offset="1" stop-color="#995900" stop-opacity="1"/>
    </radialGradient><radialGradient id="grad_3-.8573749661445618,0,0,0.8573749661445618,-23.05,-48.5" cx="47.9389" cy="17.7296" r="30.5484" gradientUnits="userSpaceOnUse">
      <stop offset="0" stop-color="#FF9400" stop-opacity="1"/>
      <stop offset="1" stop-color="#995900" stop-opacity="1"/>
    </radialGradient><radialGradient id="grad_4-.8573749661445618,0,0,0.8573749661445618,-23.05,-48.5" cx="32.9366" cy="18.2415" r="5.2812" gradientUnits="userSpaceOnUse">
      <stop offset="0" stop-color="#FF9400" stop-opacity="1"/>
      <stop offset="1" stop-color="#995900" stop-opacity="1"/>
    </radialGradient><radialGradient id="grad_5-.8573749661445618,0,0,0.8573749661445618,-23.05,-48.5" cx="35.4239" cy="18.1123" r="5.4035" gradientUnits="userSpaceOnUse">
      <stop offset="0" stop-color="#FF9400" stop-opacity="1"/>
      <stop offset="1" stop-color="#995900" stop-opacity="1"/>
    </radialGradient><radialGradient id="grad_6-.8573749661445618,0,0,0.8573749661445618,-23.05,-48.5" cx="66.448" cy="9.7737" r="5.9186" gradientUnits="userSpaceOnUse">
      <stop offset="0" stop-color="#FF9400" stop-opacity="1"/>
      <stop offset="1" stop-color="#995900" stop-opacity="1"/>
    </radialGradient><radialGradient id="grad_7-.1296296119689941,0,0,1,-229.2,-166.1" cx="17.4537" cy="17.0985" r="12.6811" gradientUnits="userSpaceOnUse">
      <stop offset="0" stop-color="#00FF55" stop-opacity="1"/>
      <stop offset="1" stop-color="#009933" stop-opacity="1"/>
    </radialGradient></defs>
  <!-- Exported by Scratch - http://scratch.mit.edu/ -->
  <g id="ID0.865684209857136">
    <path id="ID0.8694397993385792" fill="url(#grad_1-.8573749661445618,0,0,0.8573749661445618,-23.05,-48.5)" d="M 73.4244 2.6493 L 79.835 2.6493 L 79.835 4.7258 L 76.4947 4.7258 L 76.4947 7.5243 L 79.835 7.5243 L 79.835 9.8727 L 76.4947 9.8727 L 76.4947 12.6703 L 79.835 12.6703 L 79.835 16.7325 L 73.4244 16.7325 L 73.4244 2.6493 " stroke-width="0.8573749661445618"/>
    <path id="ID0.7121701026335359" fill="url(#grad_2-.8573749661445618,0,0,0.8573749661445618,-23.05,-48.5)" d="M 19.6824 22.7093 C 21.8464 22.7093 23.6006 20.9551 23.6006 18.7911 C 23.6006 16.6288 21.8464 14.8746 19.6824 14.8746 C 17.5184 14.8746 15.7642 16.6288 15.7642 18.7911 C 15.7642 20.9551 17.5184 22.7093 19.6824 22.7093 L 19.6824 22.7093 L 19.6824 22.7093 Z M 7.404 22.7093 C 9.568 22.7093 11.3222 20.9551 11.3222 18.7911 C 11.3222 16.6288 9.568 14.8746 7.404 14.8746 C 5.2399 14.8746 3.4858 16.6288 3.4858 18.7911 C 3.4858 20.9551 5.2399 22.7093 7.404 22.7093 L 7.404 22.7093 L 7.404 22.7093 Z M 26.0724 27.6795 C 26.0724 26.6618 25.8427 25.6989 25.4328 24.8399 C 23.9307 26.3025 21.8773 27.2054 19.6121 27.2054 C 17.2423 27.2054 15.104 26.2185 13.5865 24.6332 C 13.1124 25.5446 12.844 26.5803 12.844 27.6821 C 12.844 31.3353 15.8054 34.295 19.4578 34.295 C 23.1119 34.2933 26.0724 31.3328 26.0724 27.6795 L 26.0724 27.6795 L 26.0724 27.6795 Z M 25.5306 12.9746 C 25.8795 12.1696 26.0733 11.2805 26.0733 10.3468 C 26.0733 6.6935 23.1119 3.7321 19.4595 3.7321 C 15.8071 3.7321 12.8457 6.6935 12.8457 10.3468 C 12.8457 11.4391 13.1098 12.4671 13.475 13.2061 C 14.9994 11.5514 17.1849 10.5131 19.6138 10.5131 C 21.9262 10.5131 24.0199 11.4545 25.5306 12.9746 L 25.5306 12.9746 L 25.5306 12.9746 Z M 27.6337 15.8083 C 28.1499 17.4553 28.3308 20.2092 27.6337 22.0542 L 30.8575 18.9643 L 27.6337 15.8083 L 27.6337 15.8083 L 27.6337 15.8083 Z M 9.6794 10.2782 C 9.6794 4.839 14.0889 0.4295 19.5281 0.4295 C 24.9673 0.4295 29.3768 4.839 29.3768 10.2782 C 29.3768 12.2047 33.2058 17.0034 35.1015 19.2609 C 33.1149 20.8865 29.3768 25.6724 29.3768 27.6117 C 29.3768 33.0509 24.9673 37.4596 19.5281 37.4596 C 14.0889 37.4596 9.6794 33.0492 9.6794 27.6117 C 9.6794 26.9473 9.7454 26.2974 9.8715 25.6681 C 9.1007 25.9442 8.2699 26.0951 7.4048 26.0951 C 3.3692 26.0951 0.0991 22.8259 0.0991 18.7894 C 0.0991 14.7546 3.3692 11.4837 7.4048 11.4837 C 8.2476 11.4837 9.0578 11.6268 9.8123 11.8892 C 9.7249 11.3671 9.6794 10.8278 9.6794 10.2782 L 9.6794 10.2782 L 9.6794 10.2782 Z " stroke-width="0.8573749661445618"/>
    <path id="ID0.7789692673832178" fill="url(#grad_3-.8573749661445618,0,0,0.8573749661445618,-23.05,-48.5)" d="M 31.2647 15.3341 L 79.835 15.3341 L 79.835 22.7367 L 31.2647 22.7367 L 31.2647 15.3341 L 31.2647 15.3341 Z " stroke-width="0.8573749661445618"/>
    <path id="ID0.578137279022485" fill="url(#grad_4-.8573749661445618,0,0,0.8573749661445618,-23.05,-48.5)" d="M 31.8066 15.5142 C 31.8066 14.8171 32.3321 14.2504 32.9803 14.2504 L 32.9803 14.2504 C 33.6285 14.2504 34.1541 14.8163 34.1541 15.5142 L 34.1541 22.5567 C 34.1541 23.2546 33.6285 23.8213 32.9803 23.8213 L 32.9803 23.8213 C 32.3321 23.8213 31.8066 23.2554 31.8066 22.5567 L 31.8066 15.5142 L 31.8066 15.5142 L 31.8066 15.5142 L 31.8066 15.5142 Z " stroke-width="0.8573749661445618"/>
    <path id="ID0.029240664094686508" fill="url(#grad_5-.8573749661445618,0,0,0.8573749661445618,-23.05,-48.5)" d="M 34.4241 15.5142 C 34.4241 14.8171 34.9497 14.2504 35.5979 14.2504 L 35.5979 14.2504 C 36.2461 14.2504 36.7716 14.8163 36.7716 15.5142 L 36.7716 22.5567 C 36.7716 23.2546 36.2461 23.8213 35.5979 23.8213 L 35.5979 23.8213 C 34.9497 23.8213 34.4241 23.2554 34.4241 22.5567 L 34.4241 15.5142 L 34.4241 15.5142 L 34.4241 15.5142 L 34.4241 15.5142 Z " stroke-width="0.8573749661445618"/>
    <path id="ID0.5972161572426558" fill="url(#grad_6-.8573749661445618,0,0,0.8573749661445618,-23.05,-48.5)" d="M 64.9853 7.0279 L 68.6857 7.0279 L 68.6857 15.6951 L 64.9853 15.6951 L 64.9853 7.0279 " stroke-width="0.8573749661445618"/>
    <path id="ID0.7050072336569428" fill="url(#grad_7-.1296296119689941,0,0,1,-229.2,-166.1)" stroke="none" d="M 19.6009 11.4 C 21.7043 11.4 23.6111 12.24 24.9915 13.598 C 26.3719 14.956 27.2259 16.831 27.2259 18.9 C 27.2259 20.969 26.3719 22.844 24.9915 24.202 C 23.6111 25.56 21.7043 26.4 19.6009 26.4 C 17.4976 26.4 15.5907 25.56 14.2103 24.202 C 12.8299 22.844 11.9759 20.969 11.9759 18.9 C 11.9759 16.831 12.8299 14.956 14.2103 13.598 C 15.5907 12.24 17.4976 11.4 19.6009 11.4 Z " stroke-width="1.06678560644518"/>
  </g>
</svg>