<svg xmlns="http://www.w3.org/2000/svg" xmlns:xlink="http://www.w3.org/1999/xlink" version="1.1" width="154.0643380245076" height="336.156226452242" viewBox="8.967830987746202 -0.6248578111582161 154.0643380245076 336.156226452242">
  <defs>
    <radialGradient id="grad_1" cx="0.19010000000000002" cy="0.1306" r="1.13022">
      <stop offset="0" stop-color="#FFE9CC" stop-opacity="1"/>
      <stop offset="1" stop-color="#FFD499" stop-opacity="1"/>
    </radialGradient>
    <radialGradient id="grad_2" cx="0.1197" cy="0.1306" r="1.14439">
      <stop offset="0" stop-color="#FFE9CC" stop-opacity="1"/>
      <stop offset="1" stop-color="#FFD499" stop-opacity="1"/>
    </radialGradient>
    <radialGradient id="grad_3" cx="0.8521" cy="0.10640000000000001" r="1.16168">
      <stop offset="0" stop-color="#FFE9CC" stop-opacity="1"/>
      <stop offset="1" stop-color="#FFD499" stop-opacity="1"/>
    </radialGradient>
    <radialGradient id="grad_4" cx="0.9612" cy="0.0916" r="1.2495600000000002">
      <stop offset="0" stop-color="#FFE9CC" stop-opacity="1"/>
      <stop offset="1" stop-color="#FFD499" stop-opacity="1"/>
    </radialGradient>
    <radialGradient id="grad_5" cx="0.7222" cy="0.5583" r="0.9388599999999999">
      <stop offset="0" stop-color="#FFCCF2" stop-opacity="1"/>
      <stop offset="1" stop-color="#CC99FF" stop-opacity="1"/>
    </radialGradient>
    <radialGradient id="grad_6" cx="0.7998999999999999" cy="0.5614" r="1.0398699999999999">
      <stop offset="0" stop-color="#FFCCF2" stop-opacity="1"/>
      <stop offset="1" stop-color="#CC99FF" stop-opacity="1"/>
    </radialGradient>
    <radialGradient id="grad_7" cx="0.7304999999999999" cy="0.5468" r="0.94965">
      <stop offset="0" stop-color="#FFCCF2" stop-opacity="1"/>
      <stop offset="1" stop-color="#CC99FF" stop-opacity="1"/>
    </radialGradient>
    <radialGradient id="grad_8" cx="0.8388" cy="0.5437" r="1.09044">
      <stop offset="0" stop-color="#FFCCF2" stop-opacity="1"/>
      <stop offset="1" stop-color="#CC99FF" stop-opacity="1"/>
    </radialGradient>
    <radialGradient id="grad_9" cx="0.10779999999999999" cy="0.1047" r="1.1638899999999999">
      <stop offset="0" stop-color="#FFCCF2" stop-opacity="1"/>
      <stop offset="1" stop-color="#CC99FF" stop-opacity="1"/>
    </radialGradient>
    <radialGradient id="grad_10" cx="0.0929" cy="0.0647" r="1.21589">
      <stop offset="0" stop-color="#FFCCF2" stop-opacity="1"/>
      <stop offset="1" stop-color="#CC99FF" stop-opacity="1"/>
    </radialGradient>
    <radialGradient id="grad_11" cx="0.8525" cy="0.48340000000000005" r="1.10825">
      <stop offset="0" stop-color="#00CCCC" stop-opacity="1"/>
      <stop offset="1" stop-color="#99FFFF" stop-opacity="1"/>
    </radialGradient>
    <radialGradient id="grad_12" cx="0.8875" cy="0.48340000000000005" r="1.15375">
      <stop offset="0" stop-color="#00CCCC" stop-opacity="1"/>
      <stop offset="1" stop-color="#99FFFF" stop-opacity="1"/>
    </radialGradient>
  <radialGradient id="grad_1-.5987741947174072,0,0,1.3593894243240356,-584.05,-41.25" cx="54.129" cy="267.7878" r="77.9945" gradientUnits="userSpaceOnUse">
      <stop offset="0" stop-color="#FFE9CC" stop-opacity="1"/>
      <stop offset="1" stop-color="#FFD499" stop-opacity="1"/>
    </radialGradient><radialGradient id="grad_3-2.5987741947174072,0,0,1.3593627214431763,755.8,-41.25" cx="96.6323" cy="266.2866" r="80.1651" gradientUnits="userSpaceOnUse">
      <stop offset="0" stop-color="#FFE9CC" stop-opacity="1"/>
      <stop offset="1" stop-color="#FFD499" stop-opacity="1"/>
    </radialGradient><radialGradient id="grad_5-1.7967947721481323,-0.5688834190368652,-0.4052964746952057,2.3242316246032715,664.95,-97.95" cx="27.3127" cy="149.4306" r="68.6609" gradientUnits="userSpaceOnUse">
      <stop offset="0" stop-color="#FFCCF2" stop-opacity="1"/>
      <stop offset="1" stop-color="#CC99FF" stop-opacity="1"/>
    </radialGradient><radialGradient id="grad_7-.7967947721481323,-0.5688834190368652,0.4052964746952057,2.3242316246032715,-492.95,-98.1" cx="144.7115" cy="147.9755" r="69.45" gradientUnits="userSpaceOnUse">
      <stop offset="0" stop-color="#FFCCF2" stop-opacity="1"/>
      <stop offset="1" stop-color="#CC99FF" stop-opacity="1"/>
    </radialGradient><radialGradient id="grad_9-.0538699626922607,0,0,1.7736421823501587,-397.75,-186.75" cx="46.8793" cy="94.7101" r="115.0889" gradientUnits="userSpaceOnUse">
      <stop offset="0" stop-color="#FFCCF2" stop-opacity="1"/>
      <stop offset="1" stop-color="#CC99FF" stop-opacity="1"/>
    </radialGradient><radialGradient id="grad_11-.0030394792556763,0,0,0.9945966005325317,-155,-13.25" cx="125.0869" cy="219.8457" r="106.8979" gradientUnits="userSpaceOnUse">
      <stop offset="0" stop-color="#00CCCC" stop-opacity="1"/>
      <stop offset="1" stop-color="#99FFFF" stop-opacity="1"/>
    </radialGradient></defs>
  <!-- Exported by Scratch - http://scratch.mit.edu/ -->
  <g id="ID0.473294491879642">
    <path id="ID0.47236768435686827" fill="url(#grad_1-.5987741947174072,0,0,1.3593894243240356,-584.05,-41.25)" stroke="url(#grad_2)" d="M 48.1018 259.7188 L 79.8069 259.7188 L 76.1686 321.5031 L 57.0676 320.7554 L 48.1018 259.7188 Z " stroke-width="2.0738330359618082"/>
    <path id="ID0.8654622961767018" fill="#000000" stroke="#000000" stroke-width="3.123863406209485" d="M 66.371 317.0691 C 70.0849 317.0691 73.4511 317.9789 75.888 319.4499 C 78.325 320.9208 79.8327 322.9512 79.8327 325.1924 C 79.8327 327.4337 78.325 329.4641 75.888 330.935 C 73.4511 332.4059 70.0849 333.3158 66.371 333.3158 C 62.6571 333.3158 59.2909 332.4059 56.854 330.935 C 54.417 329.4641 52.9093 327.4337 52.9093 325.1924 C 52.9093 322.9512 54.417 320.9208 56.854 319.4499 C 59.2909 317.9789 62.6571 317.0691 66.371 317.0691 Z "/>
    <g id="ID0.5111573790200055">
      <path id="ID0.7297148094512522" fill="#FFDEAE" d="M 16.8666 205.7416 C 15.9121 208.9923 13.8237 212.3379 14.523 215.8283 C 15.78 222.1005 18.7472 228.0715 22.2805 233.4256 C 23.1334 234.7647 25.6756 234.8779 26.7373 233.8537 C 27.6157 233.059 26.5632 231.1937 26.1668 229.7724 C 25.1497 226.4002 23.2733 223.3641 22.3274 219.8893 C 21.7392 217.8245 20.8668 215.5551 21.4455 213.4879 C 23.6886 210.1297 25.7035 210.6719 27.4831 209.727 C 31.5813 210.0195 32.0606 205.2271 32.5426 201.5471 C 33 198.6268 34.9195 194.5227 32.636 192.5171 C 29.7107 189.9007 24.5716 189.5329 20.8579 191.1778 C 18.4539 192.2582 19.6639 196.3848 18.9481 198.8745 C 18.2894 201.1709 17.3874 203.3378 16.8666 205.7416 Z " stroke-width="2.64632138354387"/>
      <path id="ID0.7297148094512522" fill="#FFD499" d="M 31.1772 202.5108 C 28.5613 201.7317 26.2392 204.8493 24.0392 206.5628 C 22.3423 207.889 20.2982 209.2402 19.8006 211.4707 C 19.1823 214.2783 20.6077 217.1743 21.3491 219.971 C 22.1315 222.9048 22.8249 225.9916 24.5918 228.5004 C 25.5699 230.0119 28.3491 232.2736 29.1912 231.4523 C 30.2032 230.4591 28.8434 226.8991 28.19 224.7802 C 27.1981 221.5766 25.6435 218.5461 24.6736 215.3367 C 24.2807 214.0523 23.732 212.6697 24.2225 211.5261 C 24.7498 210.4543 26.0989 209.469 27.25 209.7388 C 28.5106 210.0342 29.0663 211.6115 29.7826 212.6965 C 30.9895 214.5248 31.5643 216.7676 32.8652 218.5157 C 33.6655 219.5947 34.5912 221.0697 35.8199 220.964 C 37.099 220.876 38.2542 219.345 38.1837 218.1112 C 38.0114 215.1503 36.5119 212.4266 35.331 209.7332 C 34.2214 207.1985 33.8827 203.2233 31.1772 202.5108 Z " stroke-width="2.64632138354387"/>
    </g>
    <g id="ID0.716745896730572">
      <path id="ID0.7297148094512522" fill="#FFDEAE" d="M 155.2005 206.5713 C 155.9724 209.8701 157.8709 213.327 156.9781 216.7729 C 155.3734 222.9654 152.0779 228.7616 148.2516 233.9104 C 147.3254 235.1998 144.7808 235.1711 143.7778 234.0893 C 142.9451 233.2469 144.1 231.4432 144.575 230.0462 C 145.7785 226.7359 147.8213 223.8092 148.9595 220.3926 C 149.6619 218.3637 150.6594 216.1465 150.1969 214.0503 C 148.1445 210.5722 146.1025 211.0012 144.3784 209.9586 C 140.2702 210.0221 140.0589 205.2105 139.7828 201.5093 C 139.4889 198.5681 137.8012 194.3633 140.193 192.4882 C 143.2596 190.0389 148.4112 189.9582 152.0274 191.8076 C 154.3674 193.0204 152.9293 197.0731 153.5051 199.5988 C 154.0347 201.9283 154.8145 204.1422 155.2005 206.5713 Z " stroke-width="2.6463212738603072"/>
      <path id="ID0.7297148094512522" fill="#FFD499" d="M 141.1095 202.5314 C 143.7648 201.8994 145.9095 205.1416 148.0105 206.9751 C 149.6308 208.3938 151.5964 209.8569 151.9688 212.1117 C 152.4296 214.9493 150.845 217.7614 149.9488 220.5124 C 149.0041 223.3979 148.1396 226.4413 146.2356 228.8477 C 145.1749 230.3023 142.2738 232.4056 141.4788 231.5386 C 140.5238 230.4905 142.08 227.0118 142.8505 224.9327 C 144.0195 221.7894 145.7406 218.8502 146.8879 215.6999 C 147.3518 214.4394 147.9767 213.0896 147.5508 211.9205 C 147.0841 210.8209 145.7919 209.7618 144.6276 209.9671 C 143.3525 210.1917 142.7097 211.7357 141.9341 212.779 C 140.6271 214.5372 139.9281 216.7444 138.5318 218.4173 C 137.6726 219.45 136.6661 220.8711 135.4452 220.697 C 134.173 220.5379 133.1049 218.9449 133.2442 217.7169 C 133.5812 214.7702 135.2302 212.1344 136.5595 209.5109 C 137.8087 207.042 138.3685 203.0919 141.1095 202.5314 Z " stroke-width="2.6463212738603072"/>
    </g>
    <path id="ID0.47236768435686827" fill="url(#grad_3-2.5987741947174072,0,0,1.3593627214431763,755.8,-41.25)" stroke="url(#grad_4)" d="M 123.6482 259.7129 L 91.9431 259.7129 L 95.5814 321.4959 L 114.6824 320.7483 L 123.6482 259.7129 Z " stroke-width="2.0738242842124435"/>
    <path id="ID0.8654622961767018" fill="#000000" stroke="#000000" stroke-width="3.1238318324763044" d="M 105.429 317.1615 C 101.7151 317.1615 98.3489 318.0713 95.912 319.5422 C 93.475 321.013 91.9673 323.0434 91.9673 325.2846 C 91.9673 327.5258 93.475 329.5562 95.912 331.0271 C 98.3489 332.498 101.7151 333.4078 105.429 333.4078 C 109.1429 333.4078 112.5091 332.498 114.946 331.0271 C 117.383 329.5562 118.8907 327.5258 118.8907 325.2846 C 118.8907 323.0434 117.383 321.013 114.946 319.5422 C 112.5091 318.0713 109.1429 317.1615 105.429 317.1615 Z "/>
    <path id="ID0.41013610642403364" fill="url(#grad_5-1.7967947721481323,-0.5688834190368652,-0.4052964746952057,2.3242316246032715,664.95,-97.95)" stroke="url(#grad_6)" stroke-width="4.247138317476344" d="M 43.4819 115.4763 L 47.2903 102.3347 L 42.8517 91.3644 L 38.0476 94.9937 L 35.7854 100.8994 L 11.0914 194.1262 L 39.8401 203.2283 L 38.5973 155.9911 L 43.4819 115.4763 Z "/>
    <path id="ID0.41013610642403364" fill="url(#grad_7-.7967947721481323,-0.5688834190368652,0.4052964746952057,2.3242316246032715,-492.95,-98.1)" stroke="url(#grad_8)" stroke-width="4.247138317476344" d="M 128.5181 115.3263 L 124.7097 102.1847 L 129.1483 91.2144 L 133.9524 94.8437 L 136.2146 100.7494 L 160.9086 193.9762 L 132.1599 203.0783 L 133.4027 155.8411 L 128.5181 115.3263 Z "/>
    <path id="ID0.43916446389630437" fill="url(#grad_9-.0538699626922607,0,0,1.7736421823501587,-397.75,-186.75)" stroke="url(#grad_10)" stroke-width="3.837756744417588" d="M 47.4263 86.923 L 59.1334 84.8833 L 111.0963 84.6173 L 125.1653 86.7456 L 130.7107 90.2042 L 133.8942 94.6383 L 135.8454 101.5555 L 118.901 181.0147 L 52.6637 181.0147 L 36.13 101.7329 L 37.6704 94.3723 L 41.6755 90.2042 L 47.4263 86.923 Z "/>
    <path id="ID0.10144270723685622" fill="url(#grad_11-.0030394792556763,0,0,0.9945966005325317,-155,-13.25)" stroke="url(#grad_12)" stroke-width="3.9953078426938435" stroke-linecap="round" d="M 53.4818 181.0942 L 118.8799 181.0942 L 141.3982 261.2587 L 30.8131 261.2587 L 53.4818 181.0942 Z "/>
    <g id="ID0.9729278031736612">
      <g id="ID0.809288214892149">
        <path id="ID0.8839382561855018" fill="#FFFF00" stroke="#FFFF00" stroke-width="2.025195199111021" stroke-linecap="round" d="M 120.3 52.6943 C 108.674 53.6568 97.369 58.3115 85.7 58.332 C 74.326 58.3545 63.18 53.5707 51.7 52.7968 C 48.906 52.6041 50.215 54.7146 50.1 55.9231 C 49.97 57.433 51.198 58.7779 51.3 60.2796 C 51.283 61.6019 50.315 62.8083 50.35 64.1235 C 50.389 65.6139 51.333 66.9997 51.3 68.4799 C 51.16 69.9252 49.899 71.147 49.85 72.58 C 49.803 73.9833 50.83 75.2831 50.8 76.6802 C 50.657 78.1245 49.345 79.3515 49.35 80.7804 C 49.357 82.3743 50.611 83.8196 50.6 85.3931 C 50.524 86.865 49.152 88.0756 49.1 89.4932 C 49.052 90.8493 49.989 92.0876 50.1 93.4396 C 50.074 94.8778 49.121 96.2882 49.35 97.6935 C 49.566 99.0107 50.116 100.4519 51.1 101.2812 C 52.175 102.091 54.172 101.15 54.95 102.1525 C 56.064 103.5957 54.798 106.4792 56.2 107.5339 C 57.453 108.4698 59.417 106.2096 60.8 106.7651 C 62.371 107.3986 62.602 110.1129 64.1 110.7116 C 65.618 111.3143 67.448 109.6916 68.95 110.0965 C 70.421 110.4963 71.135 112.5761 72.6 112.9154 C 74.108 113.2629 75.749 112.041 77.2 112.2491 C 78.676 112.4623 79.876 114.085 81.3 114.0942 C 82.943 114.0983 84.37 112.4203 85.95 112.4029 C 87.514 112.3916 88.941 113.883 90.45 113.7867 C 92.493 113.6401 94.32 112.1743 96.3 111.8903 C 97.966 111.6536 99.716 112.3383 101.35 112.0441 C 102.759 111.7868 104.138 111.2558 105.35 110.5065 C 106.494 109.8003 106.977 108.1274 108.2 107.5339 C 109.722 106.802 111.84 107.8302 113.3 106.9189 C 114.685 106.0486 114.603 103.688 115.8 102.5112 C 116.871 101.5036 118.86 101.6891 119.95 100.6149 C 121.088 99.4925 122.11 97.9734 122.3 96.361 C 122.461 94.9126 120.55 93.6723 120.6 92.1583 C 120.757 90.8053 122.641 90.0826 122.85 88.7244 C 123.095 87.1213 121.607 85.597 121.6 83.958 C 121.694 82.6336 123.053 81.5973 123.1 80.2679 C 123.15 78.8502 121.729 77.6284 121.7 76.1677 C 121.729 74.7408 123.078 73.5128 123.1 72.0675 C 123.124 70.4818 121.697 69.1318 121.6 67.5574 C 121.61 66.0116 123.001 64.635 122.85 63.0984 C 122.725 61.8346 120.757 60.9694 120.8 59.6133 C 120.853 57.9599 123.221 56.8703 123.1 55.2569 C 123.009 53.9438 123.207 52.4534 120.3 52.6943 Z "/>
        <path id="ID0.4806634387932718" fill="none" stroke="#CCCC00" stroke-width="2.229000442569227" stroke-linecap="round" d="M 80.2501 60.3677 C 80.2501 60.3677 81.5765 65.6927 81.9652 68.507 C 82.1192 69.6231 81.9416 70.8178 81.8509 71.9559 C 81.751 73.214 81.5734 74.4529 81.3935 75.6806 C 81.2304 76.7967 80.9483 77.8589 80.8218 78.9916 C 80.5923 81.0388 80.2364 83.1178 80.3263 85.1995 C 80.3705 86.2162 80.9765 86.8867 81.2029 87.8206 C 81.437 88.7849 81.6504 89.8058 81.6984 90.8556 C 81.8417 93.9693 81.9294 97.1243 81.7746 100.2365 C 81.7228 101.2822 81.2266 102.1141 81.0886 103.1336 C 80.9438 104.2082 80.9156 105.3381 80.9361 106.4445 C 80.9537 107.3771 81.036 108.3207 81.2029 109.2036 C 81.3447 109.9527 81.8509 111.2729 81.8509 111.2729 "/>
        <path id="ID0.7519200313836336" fill="none" stroke="#FF9400" stroke-width="2.229000442569227" stroke-linecap="round" d="M 83.3754 60.2297 C 83.3754 60.2297 84.8185 64.985 85.0144 67.6103 C 85.1272 69.1154 84.4869 70.4977 84.2521 71.9559 C 84.0424 73.2554 83.518 74.566 83.6804 75.8876 C 83.813 76.9664 84.8329 77.1085 85.0144 78.1638 C 85.2308 79.4234 84.855 80.7905 84.7476 82.0955 C 84.6393 83.4102 84.4312 84.7029 84.3664 86.0272 C 84.3039 87.3088 84.3969 88.6042 84.3664 89.89 C 84.2696 93.9582 83.9289 98.0279 83.9853 102.0989 C 84.0181 104.4966 84.3169 106.8749 84.6332 109.2036 C 84.727 109.892 85.2049 111.066 85.2049 111.066 "/>
        <path id="ID0.4806634387932718" fill="none" stroke="#FF9400" stroke-width="1.892105289214821" stroke-linecap="round" d="M 121.8499 54.5751 C 121.8499 54.5751 120.5235 58.8192 120.1348 61.0622 C 119.9808 61.9518 120.1584 62.9039 120.2491 63.8111 C 120.349 64.8138 120.5266 65.8012 120.7065 66.7798 C 120.8696 67.6693 121.1517 68.5159 121.2782 69.4186 C 121.5077 71.0503 121.8636 72.7073 121.7737 74.3665 C 121.7295 75.1768 121.1235 75.7112 120.8971 76.4556 C 120.663 77.2241 120.4496 78.0378 120.4016 78.8745 C 120.2583 81.3562 120.1706 83.8708 120.3254 86.3513 C 120.3772 87.1847 120.8734 87.8478 121.0114 88.6603 C 121.1562 89.5168 121.1844 90.4173 121.1639 91.2992 C 121.1463 92.0424 121.064 92.7945 120.8971 93.4982 C 120.7553 94.0952 120.2491 95.1475 120.2491 95.1475 "/>
        <path id="ID0.7519200313836336" fill="none" stroke="#CCCC00" stroke-width="1.892105289214821" stroke-linecap="round" d="M 118.7246 54.4651 C 118.7246 54.4651 117.2815 58.2552 117.0856 60.3476 C 116.9728 61.5471 117.6131 62.6489 117.8479 63.8111 C 118.0576 64.8468 118.582 65.8914 118.4196 66.9447 C 118.287 67.8045 117.2671 67.9178 117.0856 68.7589 C 116.8692 69.7628 117.245 70.8524 117.3524 71.8926 C 117.4607 72.9404 117.6688 73.9707 117.7336 75.0262 C 117.7961 76.0477 117.7031 77.0801 117.7336 78.1049 C 117.8304 81.3474 118.1711 84.591 118.1147 87.8357 C 118.0819 89.7466 117.7831 91.6422 117.4668 93.4982 C 117.373 94.0469 116.8951 94.9826 116.8951 94.9826 "/>
        <path id="ID0.4806634387932718" fill="none" stroke="#995900" stroke-width="2.1220661445855895" stroke-linecap="round" d="M 115.3499 56.9839 C 115.3499 56.9839 114.0235 61.9728 113.6348 64.6095 C 113.4808 65.6551 113.6584 66.7744 113.7491 67.8407 C 113.849 69.0194 114.0266 70.1801 114.2065 71.3304 C 114.3696 72.376 114.6517 73.3712 114.7782 74.4323 C 115.0077 76.3504 115.3636 78.2982 115.2737 80.2485 C 115.2295 81.2011 114.6235 81.8292 114.3971 82.7042 C 114.163 83.6077 113.9496 84.5641 113.9016 85.5477 C 113.7583 88.4648 113.6706 91.4207 113.8254 94.3365 C 113.8772 95.3162 114.3734 96.0956 114.5114 97.0507 C 114.6562 98.0576 114.6844 99.1161 114.6639 100.1527 C 114.6463 101.0264 114.564 101.9105 114.3971 102.7377 C 114.2553 103.4395 113.7491 104.6764 113.7491 104.6764 "/>
        <path id="ID0.7519200313836336" fill="none" stroke="#FF9400" stroke-width="2.1220661445855895" stroke-linecap="round" d="M 112.2246 56.8546 C 112.2246 56.8546 110.7815 61.3098 110.5856 63.7694 C 110.4728 65.1795 111.1131 66.4745 111.3479 67.8407 C 111.5576 69.0582 112.082 70.2861 111.9196 71.5243 C 111.787 72.535 110.7671 72.6681 110.5856 73.6569 C 110.3692 74.8369 110.745 76.1177 110.8524 77.3404 C 110.9607 78.5722 111.1688 79.7832 111.2336 81.024 C 111.2961 82.2247 111.2031 83.4383 111.2336 84.6429 C 111.3304 88.4545 111.6711 92.2673 111.6147 96.0814 C 111.5819 98.3277 111.2831 100.5559 110.9668 102.7377 C 110.873 103.3826 110.3951 104.4825 110.3951 104.4825 "/>
        <path id="ID0.4806634387932718" fill="none" stroke="#CCCC00" stroke-width="2.1220661445855895" stroke-linecap="round" d="M 108.1499 57.8339 C 108.1499 57.8339 106.8235 62.8228 106.4348 65.4595 C 106.2808 66.5051 106.4584 67.6244 106.5491 68.6907 C 106.649 69.8694 106.8266 71.0301 107.0065 72.1804 C 107.1696 73.226 107.4517 74.2212 107.5782 75.2823 C 107.8077 77.2004 108.1636 79.1482 108.0737 81.0985 C 108.0295 82.0511 107.4235 82.6792 107.1971 83.5542 C 106.963 84.4577 106.7496 85.4141 106.7016 86.3977 C 106.5583 89.3148 106.4706 92.2707 106.6254 95.1865 C 106.6772 96.1662 107.1734 96.9456 107.3114 97.9007 C 107.4562 98.9076 107.4844 99.9661 107.4639 101.0027 C 107.4463 101.8764 107.364 102.7605 107.1971 103.5877 C 107.0553 104.2895 106.5491 105.5264 106.5491 105.5264 "/>
        <path id="ID0.7519200313836336" fill="none" stroke="#995900" stroke-width="2.1220661445855895" stroke-linecap="round" d="M 105.0246 57.7046 C 105.0246 57.7046 103.5815 62.1598 103.3856 64.6194 C 103.2728 66.0295 103.9131 67.3245 104.1479 68.6907 C 104.3576 69.9082 104.882 71.1361 104.7196 72.3743 C 104.587 73.385 103.5671 73.5181 103.3856 74.5069 C 103.1692 75.6869 103.545 76.9677 103.6524 78.1904 C 103.7607 79.4222 103.9688 80.6332 104.0336 81.874 C 104.0961 83.0747 104.0031 84.2883 104.0336 85.4929 C 104.1304 89.3045 104.4711 93.1173 104.4147 96.9314 C 104.3819 99.1777 104.0831 101.4059 103.7668 103.5877 C 103.673 104.2326 103.1951 105.3325 103.1951 105.3325 "/>
        <path id="ID0.4806634387932718" fill="none" stroke="#FF9400" stroke-width="2.229000295010233" stroke-linecap="round" d="M 100.5999 59.3177 C 100.5999 59.3177 99.2735 64.6427 98.8848 67.457 C 98.7308 68.5731 98.9084 69.7677 98.9991 70.9059 C 99.099 72.164 99.2766 73.4028 99.4565 74.6306 C 99.6196 75.7467 99.9017 76.8089 100.0282 77.9415 C 100.2577 79.9888 100.6136 82.0678 100.5237 84.1495 C 100.4795 85.1662 99.8735 85.8367 99.6471 86.7706 C 99.413 87.7349 99.1996 88.7558 99.1516 89.8056 C 99.0083 92.9193 98.9206 96.0743 99.0754 99.1865 C 99.1272 100.2322 99.6234 101.0641 99.7614 102.0836 C 99.9062 103.1582 99.9344 104.2881 99.9139 105.3945 C 99.8963 106.3271 99.814 107.2707 99.6471 108.1536 C 99.5053 108.9027 98.9991 110.2229 98.9991 110.2229 "/>
        <path id="ID0.7519200313836336" fill="none" stroke="#CCCC00" stroke-width="2.229000295010233" stroke-linecap="round" d="M 97.4746 59.1797 C 97.4746 59.1797 96.0315 63.935 95.8356 66.5603 C 95.7228 68.0654 96.3631 69.4477 96.5979 70.9059 C 96.8076 72.2054 97.332 73.516 97.1696 74.8376 C 97.037 75.9164 96.0171 76.0585 95.8356 77.1138 C 95.6192 78.3733 95.995 79.7405 96.1024 81.0455 C 96.2107 82.3602 96.4188 83.6529 96.4836 84.9772 C 96.5461 86.2588 96.4531 87.5542 96.4836 88.8399 C 96.5804 92.9082 96.9211 96.9779 96.8647 101.0489 C 96.8319 103.4466 96.5331 105.8249 96.2168 108.1536 C 96.123 108.842 95.6451 110.016 95.6451 110.016 "/>
        <path id="ID0.4806634387932718" fill="none" stroke="#995900" stroke-width="2.229000295010233" stroke-linecap="round" d="M 93.6499 59.8677 C 93.6499 59.8677 92.3235 65.1927 91.9348 68.007 C 91.7808 69.1231 91.9584 70.3177 92.0491 71.4559 C 92.149 72.714 92.3266 73.9528 92.5065 75.1806 C 92.6696 76.2967 92.9517 77.3589 93.0782 78.4915 C 93.3077 80.5388 93.6636 82.6178 93.5737 84.6995 C 93.5295 85.7162 92.9235 86.3867 92.6971 87.3206 C 92.463 88.2849 92.2496 89.3058 92.2016 90.3556 C 92.0583 93.4693 91.9706 96.6243 92.1254 99.7365 C 92.1772 100.7822 92.6734 101.6141 92.8114 102.6336 C 92.9562 103.7082 92.9844 104.8381 92.9639 105.9445 C 92.9463 106.8771 92.864 107.8207 92.6971 108.7036 C 92.5553 109.4527 92.0491 110.7729 92.0491 110.7729 "/>
        <path id="ID0.7519200313836336" fill="none" stroke="#CCCC00" stroke-width="2.229000295010233" stroke-linecap="round" d="M 90.5246 59.7297 C 90.5246 59.7297 89.0815 64.485 88.8856 67.1103 C 88.7728 68.6154 89.4131 69.9977 89.6479 71.4559 C 89.8576 72.7554 90.382 74.066 90.2196 75.3876 C 90.087 76.4664 89.0671 76.6085 88.8856 77.6638 C 88.6692 78.9233 89.045 80.2905 89.1524 81.5955 C 89.2607 82.9102 89.4688 84.2029 89.5336 85.5272 C 89.5961 86.8088 89.5031 88.1042 89.5336 89.3899 C 89.6304 93.4582 89.9711 97.5279 89.9147 101.5989 C 89.8819 103.9966 89.5831 106.3749 89.2668 108.7036 C 89.173 109.392 88.6951 110.566 88.6951 110.566 "/>
        <path id="ID0.4806634387932718" fill="none" stroke="#995900" stroke-width="1.9046536918282957" stroke-linecap="round" d="M 50.6501 54.6635 C 50.6501 54.6635 51.9765 58.9493 52.3652 61.2143 C 52.5192 62.1126 52.3416 63.0741 52.2509 63.9901 C 52.151 65.0027 51.9734 65.9997 51.7935 66.9879 C 51.6304 67.8862 51.3483 68.7411 51.2218 69.6526 C 50.9923 71.3003 50.6364 72.9736 50.7263 74.649 C 50.7705 75.4673 51.3765 76.0069 51.6029 76.7586 C 51.837 77.5347 52.0504 78.3563 52.0984 79.2013 C 52.2417 81.7072 52.3294 84.2465 52.1746 86.7513 C 52.1228 87.5929 51.6266 88.2624 51.4886 89.083 C 51.3438 89.9479 51.3156 90.8572 51.3361 91.7477 C 51.3537 92.4983 51.436 93.2577 51.6029 93.9683 C 51.7447 94.5712 52.2509 95.6338 52.2509 95.6338 "/>
        <path id="ID0.7519200313836336" fill="none" stroke="#CCCC00" stroke-width="1.9046536918282957" stroke-linecap="round" d="M 53.7754 54.5525 C 53.7754 54.5525 55.2185 58.3797 55.4144 60.4926 C 55.5272 61.704 54.8869 62.8165 54.6521 63.9901 C 54.4424 65.036 53.918 66.0908 54.0804 67.1545 C 54.213 68.0227 55.2329 68.1371 55.4144 68.9865 C 55.6308 70.0002 55.255 71.1005 55.1476 72.1508 C 55.0393 73.2089 54.8312 74.2493 54.7664 75.3152 C 54.7039 76.3467 54.7969 77.3892 54.7664 78.424 C 54.6696 81.6983 54.3289 84.9737 54.3853 88.2502 C 54.4181 90.1799 54.7169 92.0941 55.0332 93.9683 C 55.127 94.5223 55.6049 95.4672 55.6049 95.4672 "/>
        <path id="ID0.4806634387932718" fill="none" stroke="#FF9400" stroke-width="2.122066289798414" stroke-linecap="round" d="M 57.3001 57.0839 C 57.3001 57.0839 58.6265 62.0728 59.0152 64.7095 C 59.1692 65.7551 58.9916 66.8744 58.9009 67.9407 C 58.801 69.1194 58.6234 70.2801 58.4435 71.4304 C 58.2804 72.476 57.9983 73.4712 57.8718 74.5324 C 57.6423 76.4504 57.2864 78.3982 57.3763 80.3485 C 57.4205 81.3011 58.0265 81.9292 58.2529 82.8042 C 58.487 83.7077 58.7004 84.6641 58.7484 85.6477 C 58.8917 88.5648 58.9794 91.5207 58.8246 94.4365 C 58.7728 95.4162 58.2766 96.1956 58.1386 97.1508 C 57.9938 98.1576 57.9656 99.2161 57.9861 100.2527 C 58.0037 101.1264 58.086 102.0105 58.2529 102.8377 C 58.3947 103.5395 58.9009 104.7764 58.9009 104.7764 "/>
        <path id="ID0.7519200313836336" fill="none" stroke="#995900" stroke-width="2.122066289798414" stroke-linecap="round" d="M 60.4254 56.9546 C 60.4254 56.9546 61.8685 61.4098 62.0644 63.8694 C 62.1772 65.2795 61.5369 66.5746 61.3021 67.9407 C 61.0924 69.1582 60.568 70.3861 60.7304 71.6243 C 60.863 72.635 61.8829 72.7681 62.0644 73.7569 C 62.2808 74.9369 61.905 76.2177 61.7976 77.4404 C 61.6893 78.6722 61.4812 79.8832 61.4164 81.124 C 61.3539 82.3247 61.4469 83.5384 61.4164 84.7429 C 61.3196 88.5545 60.9789 92.3673 61.0353 96.1814 C 61.0681 98.4277 61.3669 100.656 61.6832 102.8377 C 61.777 103.4826 62.2549 104.5825 62.2549 104.5825 "/>
        <path id="ID0.4806634387932718" fill="none" stroke="#FF9400" stroke-width="2.122066289798414" stroke-linecap="round" d="M 64.4001 57.8839 C 64.4001 57.8839 65.7265 62.8728 66.1152 65.5095 C 66.2692 66.5551 66.0916 67.6744 66.0009 68.7407 C 65.901 69.9194 65.7234 71.0801 65.5435 72.2304 C 65.3804 73.276 65.0983 74.2712 64.9718 75.3324 C 64.7423 77.2504 64.3864 79.1982 64.4763 81.1485 C 64.5205 82.1011 65.1265 82.7292 65.3529 83.6042 C 65.587 84.5077 65.8004 85.4641 65.8484 86.4477 C 65.9917 89.3648 66.0794 92.3207 65.9246 95.2365 C 65.8728 96.2162 65.3766 96.9956 65.2386 97.9508 C 65.0938 98.9576 65.0656 100.0161 65.0861 101.0527 C 65.1037 101.9264 65.186 102.8105 65.3529 103.6377 C 65.4947 104.3395 66.0009 105.5764 66.0009 105.5764 "/>
        <path id="ID0.7519200313836336" fill="none" stroke="#CCCC00" stroke-width="2.229000442569227" stroke-linecap="round" d="M 67.5254 57.8297 C 67.5254 57.8297 68.9685 62.585 69.1644 65.2103 C 69.2772 66.7154 68.6369 68.0977 68.4021 69.5559 C 68.1924 70.8554 67.668 72.166 67.8304 73.4876 C 67.963 74.5664 68.9829 74.7085 69.1644 75.7638 C 69.3808 77.0234 69.005 78.3905 68.8976 79.6955 C 68.7893 81.0102 68.5812 82.3029 68.5164 83.6272 C 68.4539 84.9088 68.5469 86.2042 68.5164 87.49 C 68.4196 91.5582 68.0789 95.6279 68.1353 99.6989 C 68.1681 102.0966 68.4669 104.4749 68.7832 106.8036 C 68.877 107.492 69.3549 108.666 69.3549 108.666 "/>
        <path id="ID0.4806634387932718" fill="none" stroke="#995900" stroke-width="2.229000442569227" stroke-linecap="round" d="M 72.1501 59.3677 C 72.1501 59.3677 73.4765 64.6927 73.8652 67.507 C 74.0192 68.6231 73.8416 69.8178 73.7509 70.9559 C 73.651 72.214 73.4734 73.4529 73.2935 74.6806 C 73.1304 75.7967 72.8483 76.8589 72.7218 77.9916 C 72.4923 80.0388 72.1364 82.1178 72.2263 84.1995 C 72.2705 85.2162 72.8765 85.8867 73.1029 86.8206 C 73.337 87.7849 73.5504 88.8058 73.5984 89.8556 C 73.7417 92.9693 73.8294 96.1243 73.6746 99.2365 C 73.6228 100.2822 73.1266 101.1141 72.9886 102.1336 C 72.8438 103.2082 72.8156 104.3381 72.8361 105.4445 C 72.8537 106.3771 72.936 107.3207 73.1029 108.2036 C 73.2447 108.9527 73.7509 110.2729 73.7509 110.2729 "/>
        <path id="ID0.7519200313836336" fill="none" stroke="#FF9400" stroke-width="2.229000442569227" stroke-linecap="round" d="M 75.2754 59.2297 C 75.2754 59.2297 76.7185 63.985 76.9144 66.6103 C 77.0272 68.1154 76.3869 69.4977 76.1521 70.9559 C 75.9424 72.2554 75.418 73.566 75.5804 74.8876 C 75.713 75.9664 76.7329 76.1085 76.9144 77.1638 C 77.1308 78.4234 76.755 79.7905 76.6476 81.0955 C 76.5393 82.4102 76.3312 83.7029 76.2664 85.0272 C 76.2039 86.3088 76.2969 87.6042 76.2664 88.89 C 76.1696 92.9582 75.8289 97.0279 75.8853 101.0989 C 75.9181 103.4966 76.2169 105.8749 76.5332 108.2036 C 76.627 108.892 77.1049 110.066 77.1049 110.066 "/>
      </g>
      <g id="ID0.762429166585207">
        <path id="ID0.6504686716943979" fill="#FFFF00" stroke="#FFFF00" stroke-width="2" stroke-linecap="round" d="M 125.4 24.6 C 126.869 25.942 126.573 27.207 126.4 28.55 C 126.226 29.95 124.385 30.571 124.25 31.75 C 124.139 33.121 125.678 34.008 125.75 35.25 C 125.824 36.606 124.112 37.837 124.25 39.25 C 124.59 40.605 126.127 41.386 127 42.5 C 127.757 43.469 128.968 44.386 129.25 45.75 C 129.511 46.921 128.427 48.141 128.5 49.5 C 128.58 51.024 129.588 52.425 129.6 53.95 C 129.606 55.462 128.089 56.996 128.25 58.75 C 128.454 60.026 130.489 60.851 130.6 62.25 C 130.71 63.68 128.923 64.662 129 66 C 128.923 67.583 130.726 68.819 130.6 70.35 C 130.47 71.865 128.163 72.811 128 74.5 C 127.9 76.006 129.691 77.282 129.9 78.85 C 130.075 80.174 128.975 81.411 128.75 82.75 C 128.754 84.205 129.415 85.658 129.25 87.1 C 129.115 88.245 129.075 89.949 128 90.5 C 126.894 91.052 125.279 90.091 124.25 89.25 C 122.897 88.166 122.844 85.497 121.25 84.5 C 119.988 83.788 117.976 85.362 116.75 84.5 C 115.403 83.553 116.037 81.154 115 80 C 114.024 79.05 112.258 79.48 111.25 78.75 C 109.921 77.786 109.542 75.764 108 75 C 107.117 74.459 105.918 75.517 104.75 75.25 C 103.445 74.939 102.445 72.711 101.25 73.25 C 99.783 73.915 99.237 76.099 98.75 77.75 C 98.518 78.87 99.927 80.422 99.5 81.75 C 97.088 82.947 96.252 83.397 95.1 83.35 C 93.422 83.149 92.127 82.617 91.4 81.45 C 90.695 80.259 91.694 78.802 91.5 77.5 C 91.273 75.889 90.281 74.531 90 73 C 89.804 71.679 91.541 69.499 90.5 69 C 88.988 68.273 86.931 70.762 85 71 C 83.365 71.187 81.345 68.762 80 69.75 C 78.599 70.843 79.813 73.113 79.5 74.75 C 79.247 76.107 78.561 77.06 78.25 78.25 C 77.802 79.983 78.806 82.314 77.5 83.5 C 76.289 84.59 73.887 84.045 72.25 83.25 C 71.39 82.773 71.166 81.315 71.1 80.25 C 70.998 78.415 72.788 76.3 72 74.5 C 71.315 73.27 69.211 73.338 67.75 73.35 C 66.121 73.362 64.07 73.237 62.75 74.25 C 61.636 75.34 62.578 77.647 61.5 78.75 C 60.448 79.824 58.225 78.686 57 79.5 C 55.68 80.659 55.878 82.962 54.6 84.1 C 53.614 84.986 51.648 83.579 50.75 84.5 C 49.404 85.894 50.384 89.08 48.75 90.5 C 47.213 91.656 44.303 92.13 42.75 91 C 41.526 90.103 43.495 87.813 43.25 86.25 C 43.003 84.525 41.097 83.082 41 81.25 C 40.945 79.435 42.363 77.825 42.25 76 C 42.442 74.412 41.338 73.008 41.25 71.35 C 41.177 69.779 42.528 68.322 42.5 66.75 C 42.227 65.224 40.428 64.141 40.4 62.6 C 40.374 61.049 42.69 60.064 42.75 58.5 C 42.071 56.864 41.189 56.278 41 55 C 40.684 53.099 41.699 51.176 41.75 49.25 C 41.565 47.663 39.998 46.076 40.6 44.6 C 41.516 42.576 44.125 42.298 45 40.5 C 45.693 39.094 44.399 37.5 44.5 36 C 44.648 34.652 45.828 33.278 46 31.75 C 45.963 30.606 44.838 29.641 44.9 28.35 C 44.964 26.93 44.563 25.877 46.1 24.25 C 47.574 22.892 49.508 23.784 52.25 24.25 C 63.22 26.116 73.906 30.196 85 30.25 C 96.576 30.567 107.935 27.128 119.4 25.35 C 122.266 24.905 123.841 23.449 125.4 24.6 Z "/>
        <path id="ID0.4806634387932718" fill="none" stroke="#CCCC00" stroke-width="1.904175058052451" stroke-linecap="round" d="M 127.9999 46.3507 C 127.9999 46.3507 126.6735 50.6348 126.2848 52.899 C 126.1308 53.7969 126.3084 54.7581 126.3991 55.6738 C 126.499 56.686 126.6766 57.6827 126.8565 58.6705 C 127.0196 59.5684 127.3017 60.423 127.4282 61.3342 C 127.6577 62.9813 128.0136 64.6539 127.9237 66.3287 C 127.8795 67.1467 127.2735 67.6861 127.0471 68.4375 C 126.813 69.2133 126.5996 70.0347 126.5516 70.8793 C 126.4083 73.3843 126.3206 75.9226 126.4754 78.4266 C 126.5272 79.2679 127.0234 79.9371 127.1614 80.7573 C 127.3062 81.622 127.3344 82.531 127.3139 83.4211 C 127.2963 84.1714 127.214 84.9305 127.0471 85.6409 C 126.9053 86.2435 126.3991 87.3057 126.3991 87.3057 "/>
        <path id="ID0.7519200313836336" fill="none" stroke="#995900" stroke-width="1.904175058052451" stroke-linecap="round" d="M 124.8746 46.2397 C 124.8746 46.2397 123.4315 50.0655 123.2356 52.1776 C 123.1228 53.3885 123.7631 54.5006 123.9979 55.6738 C 124.2076 56.7193 124.732 57.7737 124.5696 58.837 C 124.437 59.7049 123.4171 59.8192 123.2356 60.6683 C 123.0192 61.6816 123.395 62.7815 123.5024 63.8315 C 123.6107 64.8892 123.8188 65.9292 123.8836 66.9947 C 123.9461 68.0258 123.8531 69.0679 123.8836 70.1024 C 123.9804 73.3754 124.3211 76.6496 124.2647 79.9249 C 124.2319 81.8539 123.9331 83.7674 123.6168 85.6409 C 123.523 86.1947 123.0451 87.1392 123.0451 87.1392 "/>
        <path id="ID0.4806634387932718" fill="none" stroke="#995900" stroke-width="1.6922017242245628" stroke-linecap="round" d="M 123.9999 26.2112 C 123.9999 26.2112 122.6735 29.7714 122.2848 31.653 C 122.1308 32.3991 122.3084 33.1979 122.3991 33.9588 C 122.499 34.8 122.6766 35.6282 122.8565 36.4491 C 123.0196 37.1953 123.3017 37.9054 123.4282 38.6627 C 123.6577 40.0314 124.0136 41.4214 123.9237 42.8132 C 123.8795 43.4929 123.2735 43.9412 123.0471 44.5656 C 122.813 45.2103 122.5996 45.8928 122.5516 46.5947 C 122.4083 48.6764 122.3206 50.7858 122.4754 52.8666 C 122.5272 53.5657 123.0234 54.1219 123.1614 54.8035 C 123.3062 55.522 123.3344 56.2774 123.3139 57.0171 C 123.2963 57.6406 123.214 58.2714 123.0471 58.8617 C 122.9053 59.3626 122.3991 60.2452 122.3991 60.2452 "/>
        <path id="ID0.7519200313836336" fill="none" stroke="#CCCC00" stroke-width="1.6922017242245628" stroke-linecap="round" d="M 120.8746 26.119 C 120.8746 26.119 119.4315 29.2982 119.2356 31.0534 C 119.1228 32.0597 119.7631 32.9839 119.9979 33.9588 C 120.2076 34.8276 120.732 35.7038 120.5696 36.5874 C 120.437 37.3087 119.4171 37.4037 119.2356 38.1093 C 119.0192 38.9514 119.395 39.8654 119.5024 40.7379 C 119.6107 41.6169 119.8188 42.4811 119.8836 43.3666 C 119.9461 44.2234 119.8531 45.0895 119.8836 45.9491 C 119.9804 48.6691 120.3211 51.3899 120.2647 54.1117 C 120.2319 55.7147 119.9331 57.3048 119.6168 58.8617 C 119.523 59.322 119.0451 60.1069 119.0451 60.1069 "/>
        <path id="ID0.4806634387932718" fill="none" stroke="#FF9400" stroke-width="2.0372818938305786" stroke-linecap="round" d="M 118.8499 35.3823 C 118.8499 35.3823 117.5235 40.1007 117.1348 42.5943 C 116.9808 43.5832 117.1584 44.6417 117.2491 45.6502 C 117.349 46.765 117.5266 47.8627 117.7065 48.9506 C 117.8696 49.9395 118.1517 50.8807 118.2782 51.8843 C 118.5077 53.6983 118.8636 55.5404 118.7737 57.3849 C 118.7295 58.2858 118.1235 58.8799 117.8971 59.7074 C 117.663 60.5619 117.4496 61.4664 117.4016 62.3966 C 117.2583 65.1555 117.1706 67.9511 117.3254 70.7087 C 117.3772 71.6353 117.8734 72.3724 118.0114 73.2757 C 118.1562 74.2279 118.1844 75.229 118.1639 76.2094 C 118.1463 77.0357 118.064 77.8718 117.8971 78.6541 C 117.7553 79.3178 117.2491 80.4877 117.2491 80.4877 "/>
        <path id="ID0.7519200313836336" fill="none" stroke="#995900" stroke-width="2.0372818938305786" stroke-linecap="round" d="M 115.7246 35.2601 C 115.7246 35.2601 114.2815 39.4736 114.0856 41.7997 C 113.9728 43.1333 114.6131 44.3582 114.8479 45.6502 C 115.0576 46.8017 115.582 47.9629 115.4196 49.1339 C 115.287 50.0898 114.2671 50.2157 114.0856 51.1508 C 113.8692 52.2669 114.245 53.4782 114.3524 54.6346 C 114.4607 55.7995 114.6688 56.9449 114.7336 58.1183 C 114.7961 59.2539 114.7031 60.4017 114.7336 61.541 C 114.8304 65.1457 115.1711 68.7517 115.1147 72.3589 C 115.0819 74.4834 114.7831 76.5907 114.4668 78.6541 C 114.373 79.2641 113.8951 80.3043 113.8951 80.3043 "/>
        <path id="ID0.4806634387932718" fill="none" stroke="#CCCC00" stroke-width="1.8670607754207065" stroke-linecap="round" d="M 111.8999 35.2462 C 111.8999 35.2462 110.5735 39.4069 110.1848 41.6059 C 110.0308 42.4779 110.2084 43.4114 110.2991 44.3006 C 110.399 45.2837 110.5766 46.2516 110.7565 47.211 C 110.9196 48.083 111.2017 48.913 111.3282 49.7979 C 111.5577 51.3976 111.9136 53.022 111.8237 54.6485 C 111.7795 55.4429 111.1735 55.9668 110.9471 56.6965 C 110.713 57.45 110.4996 58.2476 110.4516 59.0679 C 110.3083 61.5008 110.2206 63.9659 110.3754 66.3977 C 110.4272 67.2147 110.9234 67.8647 111.0614 68.6613 C 111.2062 69.501 111.2344 70.3838 111.2139 71.2483 C 111.1963 71.9769 111.114 72.7142 110.9471 73.4041 C 110.8053 73.9894 110.2991 75.0209 110.2991 75.0209 "/>
        <path id="ID0.7519200313836336" fill="none" stroke="#FF9400" stroke-width="1.8670607754207065" stroke-linecap="round" d="M 108.7746 35.1384 C 108.7746 35.1384 107.3315 38.854 107.1356 40.9052 C 107.0228 42.0812 107.6631 43.1613 107.8979 44.3006 C 108.1076 45.316 108.632 46.34 108.4696 47.3727 C 108.337 48.2156 107.3171 48.3266 107.1356 49.1512 C 106.9192 50.1353 107.295 51.2035 107.4024 52.2232 C 107.5107 53.2505 107.7188 54.2605 107.7836 55.2953 C 107.8461 56.2966 107.7531 57.3088 107.7836 58.3134 C 107.8804 61.4921 108.2211 64.672 108.1647 67.8529 C 108.1319 69.7263 107.8331 71.5846 107.5168 73.4041 C 107.423 73.9419 106.9451 74.8592 106.9451 74.8592 "/>
        <path id="ID0.4806634387932718" fill="none" stroke="#CCCC00" stroke-width="1.6922017242245628" stroke-linecap="round" d="M 105.2499 37.2112 C 105.2499 37.2112 103.9235 40.7714 103.5348 42.653 C 103.3808 43.3991 103.5584 44.1979 103.6491 44.9588 C 103.749 45.8 103.9266 46.6282 104.1065 47.4491 C 104.2696 48.1953 104.5517 48.9054 104.6782 49.6627 C 104.9077 51.0314 105.2636 52.4214 105.1737 53.8132 C 105.1295 54.4929 104.5235 54.9412 104.2971 55.5656 C 104.063 56.2103 103.8496 56.8928 103.8016 57.5947 C 103.6583 59.6764 103.5706 61.7858 103.7254 63.8666 C 103.7772 64.5657 104.2734 65.1219 104.4114 65.8035 C 104.5562 66.522 104.5844 67.2774 104.5639 68.0171 C 104.5463 68.6406 104.464 69.2714 104.2971 69.8617 C 104.1553 70.3626 103.6491 71.2452 103.6491 71.2452 "/>
        <path id="ID0.7519200313836336" fill="none" stroke="#995900" stroke-width="1.6922017242245628" stroke-linecap="round" d="M 102.1246 37.119 C 102.1246 37.119 100.6815 40.2982 100.4856 42.0534 C 100.3728 43.0597 101.0131 43.9839 101.2479 44.9588 C 101.4576 45.8276 101.982 46.7038 101.8196 47.5874 C 101.687 48.3087 100.6671 48.4037 100.4856 49.1093 C 100.2692 49.9514 100.645 50.8654 100.7524 51.7379 C 100.8607 52.6169 101.0688 53.4811 101.1336 54.3666 C 101.1961 55.2234 101.1031 56.0895 101.1336 56.9491 C 101.2304 59.6691 101.5711 62.3899 101.5147 65.1117 C 101.4819 66.7147 101.1831 68.3048 100.8668 69.8617 C 100.773 70.322 100.2951 71.1069 100.2951 71.1069 "/>
        <path id="ID0.4806634387932718" fill="none" stroke="#FF9400" stroke-width="1.944809120850888" stroke-linecap="round" d="M 98.1499 38.5898 C 98.1499 38.5898 96.8235 43.0079 96.4348 45.3428 C 96.2808 46.2688 96.4584 47.26 96.5491 48.2043 C 96.649 49.2481 96.8266 50.276 97.0065 51.2946 C 97.1696 52.2206 97.4517 53.1019 97.5782 54.0416 C 97.8077 55.7402 98.1636 57.4651 98.0737 59.1922 C 98.0295 60.0358 97.4235 60.5921 97.1971 61.3669 C 96.963 62.167 96.7496 63.014 96.7016 63.885 C 96.5583 66.4683 96.4706 69.086 96.6254 71.6682 C 96.6772 72.5358 97.1734 73.2259 97.3114 74.0718 C 97.4562 74.9634 97.4844 75.9008 97.4639 76.8188 C 97.4463 77.5925 97.364 78.3754 97.1971 79.1079 C 97.0553 79.7294 96.5491 80.8248 96.5491 80.8248 "/>
        <path id="ID0.7519200313836336" fill="none" stroke="#995900" stroke-width="1.944809120850888" stroke-linecap="round" d="M 95.0246 38.4754 C 95.0246 38.4754 93.5815 42.4207 93.3856 44.5989 C 93.2728 45.8476 93.9131 46.9945 94.1479 48.2043 C 94.3576 49.2825 94.882 50.3698 94.7196 51.4663 C 94.587 52.3614 93.5671 52.4793 93.3856 53.3549 C 93.1692 54.3999 93.545 55.5342 93.6524 56.6169 C 93.7607 57.7077 93.9688 58.7802 94.0336 59.879 C 94.0961 60.9423 94.0031 62.0171 94.0336 63.0838 C 94.1304 66.4592 94.4711 69.8357 94.4147 73.2134 C 94.3819 75.2026 94.0831 77.1759 93.7668 79.1079 C 93.673 79.6791 93.1951 80.6531 93.1951 80.6531 "/>
        <path id="ID0.4806634387932718" fill="none" stroke="#CCCC00" stroke-width="1.6922017242245628" stroke-linecap="round" d="M 91.3999 33.7112 C 91.3999 33.7112 90.0735 37.2714 89.6848 39.153 C 89.5308 39.8991 89.7084 40.6979 89.7991 41.4588 C 89.899 42.3 90.0766 43.1282 90.2565 43.9491 C 90.4196 44.6953 90.7017 45.4054 90.8282 46.1627 C 91.0577 47.5314 91.4136 48.9214 91.3237 50.3132 C 91.2795 50.9929 90.6735 51.4412 90.4471 52.0656 C 90.213 52.7103 89.9996 53.3928 89.9516 54.0947 C 89.8083 56.1764 89.7206 58.2858 89.8754 60.3666 C 89.9272 61.0657 90.4234 61.6219 90.5614 62.3035 C 90.7062 63.022 90.7344 63.7774 90.7139 64.5171 C 90.6963 65.1406 90.614 65.7714 90.4471 66.3617 C 90.3053 66.8626 89.7991 67.7452 89.7991 67.7452 "/>
        <path id="ID0.7519200313836336" fill="none" stroke="#FF9400" stroke-width="1.6922017242245628" stroke-linecap="round" d="M 88.2746 33.619 C 88.2746 33.619 86.8315 36.7982 86.6356 38.5534 C 86.5228 39.5597 87.1631 40.4839 87.3979 41.4588 C 87.6076 42.3276 88.132 43.2038 87.9696 44.0874 C 87.837 44.8087 86.8171 44.9037 86.6356 45.6093 C 86.4192 46.4514 86.795 47.3654 86.9024 48.2379 C 87.0107 49.1169 87.2188 49.9811 87.2836 50.8666 C 87.3461 51.7234 87.2531 52.5895 87.2836 53.4491 C 87.3804 56.1691 87.7211 58.8899 87.6647 61.6117 C 87.6319 63.2147 87.3331 64.8048 87.0168 66.3617 C 86.923 66.822 86.4451 67.6069 86.4451 67.6069 "/>
        <path id="ID0.4806634387932718" fill="none" stroke="#CCCC00" stroke-width="1.983808926983925" stroke-linecap="round" d="M 42.5501 45.9757 C 42.5501 45.9757 43.8765 50.5211 44.2652 52.9234 C 44.4192 53.876 44.2416 54.8958 44.1509 55.8673 C 44.051 56.9412 43.8734 57.9987 43.6935 59.0467 C 43.5304 59.9994 43.2483 60.9061 43.1218 61.8729 C 42.8923 63.6204 42.5364 65.395 42.6263 67.172 C 42.6705 68.0398 43.2765 68.6121 43.5029 69.4093 C 43.737 70.2325 43.9504 71.1039 43.9984 72 C 44.1417 74.6578 44.2294 77.3509 44.0746 80.0075 C 44.0228 80.9001 43.5266 81.6101 43.3886 82.4804 C 43.2438 83.3977 43.2156 84.3621 43.2361 85.3065 C 43.2537 86.1026 43.336 86.908 43.5029 87.6617 C 43.6447 88.3011 44.1509 89.428 44.1509 89.428 "/>
        <path id="ID0.7519200313836336" fill="none" stroke="#FF9400" stroke-width="1.983808926983925" stroke-linecap="round" d="M 45.6754 45.8579 C 45.6754 45.8579 47.1185 49.917 47.3144 52.1579 C 47.4272 53.4427 46.7869 54.6226 46.5521 55.8673 C 46.3424 56.9766 45.818 58.0952 45.9804 59.2234 C 46.113 60.1442 47.1329 60.2655 47.3144 61.1663 C 47.5308 62.2415 47.155 63.4084 47.0476 64.5224 C 46.9393 65.6446 46.7312 66.748 46.6664 67.8785 C 46.6039 68.9725 46.6969 70.0782 46.6664 71.1757 C 46.5696 74.6483 46.2289 78.1222 46.2853 81.5972 C 46.3181 83.6438 46.6169 85.6739 46.9332 87.6617 C 47.027 88.2493 47.5049 89.2514 47.5049 89.2514 "/>
        <path id="ID0.4806634387932718" fill="none" stroke="#CCCC00" stroke-width="1.6922017242245628" stroke-linecap="round" d="M 46.2501 25.7112 C 46.2501 25.7112 47.5765 29.2714 47.9652 31.153 C 48.1192 31.8991 47.9416 32.6979 47.8509 33.4588 C 47.751 34.3 47.5734 35.1282 47.3935 35.9491 C 47.2304 36.6953 46.9483 37.4054 46.8218 38.1627 C 46.5923 39.5314 46.2364 40.9214 46.3263 42.3132 C 46.3705 42.9929 46.9765 43.4412 47.2029 44.0656 C 47.437 44.7103 47.6504 45.3928 47.6984 46.0947 C 47.8417 48.1764 47.9294 50.2858 47.7746 52.3666 C 47.7228 53.0657 47.2266 53.6219 47.0886 54.3035 C 46.9438 55.022 46.9156 55.7774 46.9361 56.5171 C 46.9537 57.1406 47.036 57.7714 47.2029 58.3617 C 47.3447 58.8626 47.8509 59.7452 47.8509 59.7452 "/>
        <path id="ID0.7519200313836336" fill="none" stroke="#CCCC00" stroke-width="1.6922017242245628" stroke-linecap="round" d="M 49.3754 25.619 C 49.3754 25.619 50.8185 28.7982 51.0144 30.5534 C 51.1272 31.5597 50.4869 32.4839 50.2521 33.4588 C 50.0424 34.3276 49.518 35.2038 49.6804 36.0874 C 49.813 36.8087 50.8329 36.9037 51.0144 37.6093 C 51.2308 38.4514 50.855 39.3654 50.7476 40.2379 C 50.6393 41.1169 50.4312 41.9811 50.3664 42.8666 C 50.3039 43.7234 50.3969 44.5895 50.3664 45.4491 C 50.2696 48.1691 49.9289 50.8899 49.9853 53.6117 C 50.0181 55.2147 50.3169 56.8048 50.6332 58.3617 C 50.727 58.822 51.2049 59.6069 51.2049 59.6069 "/>
        <path id="ID0.4806634387932718" fill="none" stroke="#FF9400" stroke-width="2.0372818938305786" stroke-linecap="round" d="M 51.4001 35.1323 C 51.4001 35.1323 52.7265 39.8507 53.1152 42.3443 C 53.2692 43.3332 53.0916 44.3917 53.0009 45.4002 C 52.901 46.515 52.7234 47.6127 52.5435 48.7006 C 52.3804 49.6895 52.0983 50.6307 51.9718 51.6343 C 51.7423 53.4483 51.3864 55.2904 51.4763 57.1349 C 51.5205 58.0358 52.1265 58.6299 52.3529 59.4574 C 52.587 60.3119 52.8004 61.2164 52.8484 62.1466 C 52.9917 64.9055 53.0794 67.7011 52.9246 70.4587 C 52.8728 71.3853 52.3766 72.1224 52.2386 73.0257 C 52.0938 73.9779 52.0656 74.979 52.0861 75.9594 C 52.1037 76.7857 52.186 77.6218 52.3529 78.4041 C 52.4947 79.0678 53.0009 80.2377 53.0009 80.2377 "/>
        <path id="ID0.7519200313836336" fill="none" stroke="#CCCC00" stroke-width="2.0372818938305786" stroke-linecap="round" d="M 54.5254 35.0101 C 54.5254 35.0101 55.9685 39.2236 56.1644 41.5497 C 56.2772 42.8833 55.6369 44.1082 55.4021 45.4002 C 55.1924 46.5517 54.668 47.7129 54.8304 48.8839 C 54.963 49.8398 55.9829 49.9657 56.1644 50.9008 C 56.3808 52.0169 56.005 53.2282 55.8976 54.3846 C 55.7893 55.5495 55.5812 56.6949 55.5164 57.8683 C 55.4539 59.0039 55.5469 60.1517 55.5164 61.291 C 55.4196 64.8957 55.0789 68.5017 55.1353 72.1089 C 55.1681 74.2334 55.4669 76.3407 55.7832 78.4041 C 55.877 79.0141 56.3549 80.0543 56.3549 80.0543 "/>
        <path id="ID0.4806634387932718" fill="none" stroke="#995900" stroke-width="1.8670607754207065" stroke-linecap="round" d="M 58.3501 34.7962 C 58.3501 34.7962 59.6765 38.9569 60.0652 41.1559 C 60.2192 42.0279 60.0416 42.9614 59.9509 43.8506 C 59.851 44.8337 59.6734 45.8016 59.4935 46.761 C 59.3304 47.633 59.0483 48.463 58.9218 49.3479 C 58.6923 50.9476 58.3364 52.572 58.4263 54.1985 C 58.4705 54.9929 59.0765 55.5168 59.3029 56.2465 C 59.537 57 59.7504 57.7976 59.7984 58.6179 C 59.9417 61.0508 60.0294 63.5159 59.8746 65.9477 C 59.8228 66.7647 59.3266 67.4147 59.1886 68.2113 C 59.0438 69.051 59.0156 69.9338 59.0361 70.7983 C 59.0537 71.5269 59.136 72.2642 59.3029 72.9541 C 59.4447 73.5394 59.9509 74.5709 59.9509 74.5709 "/>
        <path id="ID0.7519200313836336" fill="none" stroke="#CCCC00" stroke-width="1.8670607754207065" stroke-linecap="round" d="M 61.4754 34.6884 C 61.4754 34.6884 62.9185 38.404 63.1144 40.4552 C 63.2272 41.6312 62.5869 42.7113 62.3521 43.8506 C 62.1424 44.866 61.618 45.89 61.7804 46.9227 C 61.913 47.7656 62.9329 47.8766 63.1144 48.7012 C 63.3308 49.6853 62.955 50.7535 62.8476 51.7732 C 62.7393 52.8005 62.5312 53.8105 62.4664 54.8453 C 62.4039 55.8466 62.4969 56.8588 62.4664 57.8634 C 62.3696 61.0421 62.0289 64.222 62.0853 67.4029 C 62.1181 69.2763 62.4169 71.1346 62.7332 72.9541 C 62.827 73.4919 63.3049 74.4092 63.3049 74.4092 "/>
        <path id="ID0.4806634387932718" fill="none" stroke="#995900" stroke-width="1.6922017242245628" stroke-linecap="round" d="M 65.1001 37.2112 C 65.1001 37.2112 66.4265 40.7714 66.8152 42.653 C 66.9692 43.3991 66.7916 44.1979 66.7009 44.9588 C 66.601 45.8 66.4234 46.6282 66.2435 47.4491 C 66.0804 48.1953 65.7983 48.9054 65.6718 49.6627 C 65.4423 51.0314 65.0864 52.4214 65.1763 53.8132 C 65.2205 54.4929 65.8265 54.9412 66.0529 55.5656 C 66.287 56.2103 66.5004 56.8928 66.5484 57.5947 C 66.6917 59.6764 66.7794 61.7858 66.6246 63.8666 C 66.5728 64.5657 66.0766 65.1219 65.9386 65.8035 C 65.7938 66.522 65.7656 67.2774 65.7861 68.0171 C 65.8037 68.6406 65.886 69.2714 66.0529 69.8617 C 66.1947 70.3626 66.7009 71.2452 66.7009 71.2452 "/>
        <path id="ID0.7519200313836336" fill="none" stroke="#FF9400" stroke-width="1.6922017242245628" stroke-linecap="round" d="M 68.2254 37.119 C 68.2254 37.119 69.6685 40.2982 69.8644 42.0534 C 69.9772 43.0597 69.3369 43.9839 69.1021 44.9588 C 68.8924 45.8276 68.368 46.7038 68.5304 47.5874 C 68.663 48.3087 69.6829 48.4037 69.8644 49.1093 C 70.0808 49.9514 69.705 50.8654 69.5976 51.7379 C 69.4893 52.6169 69.2812 53.4811 69.2164 54.3666 C 69.1539 55.2234 69.2469 56.0895 69.2164 56.9491 C 69.1196 59.6691 68.7789 62.3899 68.8353 65.1117 C 68.8681 66.7147 69.1669 68.3048 69.4832 69.8617 C 69.577 70.322 70.0549 71.1069 70.0549 71.1069 "/>
        <path id="ID0.4806634387932718" fill="none" stroke="#CCCC00" stroke-width="1.944809120850888" stroke-linecap="round" d="M 72.1501 38.5898 C 72.1501 38.5898 73.4765 43.0079 73.8652 45.3428 C 74.0192 46.2688 73.8416 47.26 73.7509 48.2043 C 73.651 49.2481 73.4734 50.276 73.2935 51.2946 C 73.1304 52.2206 72.8483 53.1019 72.7218 54.0416 C 72.4923 55.7402 72.1364 57.4651 72.2263 59.1922 C 72.2705 60.0358 72.8765 60.5921 73.1029 61.3669 C 73.337 62.167 73.5504 63.014 73.5984 63.885 C 73.7417 66.4683 73.8294 69.086 73.6746 71.6682 C 73.6228 72.5358 73.1266 73.2259 72.9886 74.0718 C 72.8438 74.9634 72.8156 75.9008 72.8361 76.8188 C 72.8537 77.5925 72.936 78.3754 73.1029 79.1079 C 73.2447 79.7294 73.7509 80.8248 73.7509 80.8248 "/>
        <path id="ID0.7519200313836336" fill="none" stroke="#995900" stroke-width="1.944809120850888" stroke-linecap="round" d="M 75.2754 38.4754 C 75.2754 38.4754 76.7185 42.4207 76.9144 44.5989 C 77.0272 45.8476 76.3869 46.9945 76.1521 48.2043 C 75.9424 49.2825 75.418 50.3698 75.5804 51.4663 C 75.713 52.3614 76.7329 52.4793 76.9144 53.3549 C 77.1308 54.3999 76.755 55.5342 76.6476 56.6169 C 76.5393 57.7077 76.3312 58.7802 76.2664 59.879 C 76.2039 60.9423 76.2969 62.0171 76.2664 63.0838 C 76.1696 66.4592 75.8289 69.8357 75.8853 73.2134 C 75.9181 75.2026 76.2169 77.1759 76.5332 79.1079 C 76.627 79.6791 77.1049 80.6531 77.1049 80.6531 "/>
        <path id="ID0.4806634387932718" fill="none" stroke="#CCCC00" stroke-width="1.6922017242245628" stroke-linecap="round" d="M 78.8501 33.7112 C 78.8501 33.7112 80.1765 37.2714 80.5652 39.153 C 80.7192 39.8991 80.5416 40.6979 80.4509 41.4588 C 80.351 42.3 80.1734 43.1282 79.9935 43.9491 C 79.8304 44.6953 79.5483 45.4054 79.4218 46.1627 C 79.1923 47.5314 78.8364 48.9214 78.9263 50.3132 C 78.9705 50.9929 79.5765 51.4412 79.8029 52.0656 C 80.037 52.7103 80.2504 53.3928 80.2984 54.0947 C 80.4417 56.1764 80.5294 58.2858 80.3746 60.3666 C 80.3228 61.0657 79.8266 61.6219 79.6886 62.3035 C 79.5438 63.022 79.5156 63.7774 79.5361 64.5171 C 79.5537 65.1406 79.636 65.7714 79.8029 66.3617 C 79.9447 66.8626 80.4509 67.7452 80.4509 67.7452 "/>
        <path id="ID0.7519200313836336" fill="none" stroke="#995900" stroke-width="1.6922017242245628" stroke-linecap="round" d="M 81.9754 33.619 C 81.9754 33.619 83.4185 36.7982 83.6144 38.5534 C 83.7272 39.5597 83.0869 40.4839 82.8521 41.4588 C 82.6424 42.3276 82.118 43.2038 82.2804 44.0874 C 82.413 44.8087 83.4329 44.9037 83.6144 45.6093 C 83.8308 46.4514 83.455 47.3654 83.3476 48.2379 C 83.2393 49.1169 83.0312 49.9811 82.9664 50.8666 C 82.9039 51.7234 82.9969 52.5895 82.9664 53.4491 C 82.8696 56.1691 82.5289 58.8899 82.5853 61.6117 C 82.6181 63.2147 82.9169 64.8048 83.2332 66.3617 C 83.327 66.822 83.8049 67.6069 83.8049 67.6069 "/>
      </g>
      <g id="ID0.09922660375013947">
        <path id="ID0.8346671243198216" fill="#FFFF00" stroke="#FFFF00" stroke-width="2" stroke-linecap="round" d="M 86.05 36 C 87.194 36.08 88.519 34.653 89.45 35.4 C 91.135 36.771 90.751 39.829 92.35 41.25 C 93.354 42.14 95.232 41.983 96.35 41.75 C 98.215 40.452 98.029 39.743 98.35 38.75 C 98.526 36.41 98.15 35.649 98.85 34.75 C 101.095 34.223 101.913 34.195 102.6 35.25 C 103.593 36.778 101.507 39.397 102.8 40.65 C 104.128 41.944 106.687 41.643 108.45 41 C 109.475 40.548 109.007 38.649 109.8 37.9 C 110.587 37.159 111.828 36.288 112.8 36.65 C 114.052 37.114 114.051 39.036 115.15 39.9 C 116.047 40.599 117.398 41.186 118.45 40.8 C 119.677 40.349 120.583 38.879 120.8 37.65 C 121.098 35.904 119.887 34.141 119.95 32.4 C 120.012 30.87 121.064 29.464 120.95 27.9 C 120.831 26.247 119.662 24.873 119.45 23.15 C 119.338 22.252 119.973 21.451 120.05 20.5 C 120.148 19.269 120.543 17.908 119.8 16.8 C 119.155 15.856 117.524 16.318 116.55 15.65 C 115.419 14.864 114.792 13.465 113.6 12.75 C 112.644 12.179 111.391 12.371 110.45 11.9 C 109.295 11.196 108.53 9.937 107.45 9.3 C 106.652 8.829 105.536 9.049 104.8 8.5 C 103.962 7.858 103.924 6.544 103.05 6.15 C 102.081 5.587 100.802 6.224 99.8 5.9 C 98.871 5.601 98.337 4.363 97.45 4.15 C 95.993 3.794 94.429 4.641 92.95 4.3 C 91.931 4.065 91.367 2.838 90.45 2.4 C 89.399 1.888 88.266 1.536 87.15 1.5 C 86.258 1.472 85.412 1.907 84.55 2.15 C 82.954 2.602 81.392 3.446 79.8 3.65 C 78.42 3.828 77.101 2.849 75.65 3.15 C 74.583 3.372 74.013 4.579 72.95 5 C 71.544 5.56 69.871 5.409 68.55 6.15 C 67.642 6.66 67.406 7.898 66.65 8.65 C 65.391 9.745 64.034 10.843 62.55 11.65 C 61.19 12.389 59.536 12.374 58.15 13.15 C 56.986 13.8 56.308 15.142 55.15 15.8 C 53.941 16.486 51.815 15.721 51.15 17 C 50.35 18.54 52.019 20.486 51.95 22.15 C 51.893 23.535 50.813 24.679 50.8 26.15 C 50.788 27.282 51.741 28.184 51.8 29.4 C 51.86 30.72 50.948 31.914 51.05 33.3 C 51.128 34.392 51.88 35.295 52.15 36.4 C 52.493 37.781 51.576 39.696 52.55 40.65 C 53.528 41.605 55.354 41.505 56.65 40.9 C 57.634 40.437 57.101 38.54 57.95 37.9 C 58.667 37.359 59.733 37.869 60.65 37.9 C 61.615 37.918 62.887 37.089 63.55 37.8 C 64.379 38.687 63.157 40.724 64.15 41.4 C 65.612 42.395 68.212 42.803 69.45 41.65 C 70.864 40.329 69.036 37.313 70.3 35.9 C 71.244 34.846 73.754 34.792 74.55 35.9 C 75.634 37.416 73.331 40.295 74.65 41.5 C 76.258 42.964 79.327 43.166 81.15 42.15 C 82.287 41.515 80.438 39.453 80.65 38.15 C 80.844 36.958 81.337 35.473 82.45 35 C 83.594 34.513 84.775 35.911 86.05 36 Z "/>
        <path id="ID0.4806634387932718" fill="none" stroke="#CCCC00" stroke-width="1.3623144473467341" stroke-linecap="round" d="M 119.4499 17.3933 C 119.4499 17.3933 118.1235 19.6667 117.7348 20.8682 C 117.5808 21.3446 117.7584 21.8547 117.8491 22.3406 C 117.949 22.8777 118.1266 23.4066 118.3065 23.9307 C 118.4696 24.4072 118.7517 24.8607 118.8782 25.3442 C 119.1077 26.2183 119.4636 27.1058 119.3737 27.9946 C 119.3295 28.4286 118.7235 28.7148 118.4971 29.1136 C 118.263 29.5253 118.0496 29.9611 118.0016 30.4093 C 117.8583 31.7386 117.7706 33.0855 117.9254 34.4142 C 117.9772 34.8606 118.4734 35.2158 118.6114 35.651 C 118.7562 36.1098 118.7844 36.5922 118.7639 37.0645 C 118.7463 37.4627 118.664 37.8655 118.4971 38.2424 C 118.3553 38.5622 117.8491 39.1259 117.8491 39.1259 "/>
        <path id="ID0.7519200313836336" fill="none" stroke="#FF9400" stroke-width="1.3623144473467341" stroke-linecap="round" d="M 116.3246 17.3344 C 116.3246 17.3344 114.8815 19.3645 114.6856 20.4853 C 114.5728 21.1279 115.2131 21.718 115.4479 22.3406 C 115.6576 22.8953 116.182 23.4549 116.0196 24.0191 C 115.887 24.4796 114.8671 24.5403 114.6856 24.9909 C 114.4692 25.5286 114.845 26.1122 114.9524 26.6694 C 115.0607 27.2307 115.2688 27.7825 115.3336 28.3479 C 115.3961 28.8951 115.3031 29.4481 115.3336 29.997 C 115.4304 31.7339 115.7711 33.4713 115.7147 35.2093 C 115.6819 36.2329 115.3831 37.2483 115.0668 38.2424 C 114.973 38.5363 114.4951 39.0375 114.4951 39.0375 "/>
        <path id="ID0.4806634387932718" fill="none" stroke="#995900" stroke-width="1.3623144473467341" stroke-linecap="round" d="M 113.2999 13.6933 C 113.2999 13.6933 111.9735 15.9667 111.5848 17.1682 C 111.4308 17.6446 111.6084 18.1547 111.6991 18.6406 C 111.799 19.1777 111.9766 19.7066 112.1565 20.2307 C 112.3196 20.7072 112.6017 21.1607 112.7282 21.6442 C 112.9577 22.5183 113.3136 23.4058 113.2237 24.2946 C 113.1795 24.7286 112.5735 25.0148 112.3471 25.4136 C 112.113 25.8253 111.8996 26.2611 111.8516 26.7093 C 111.7083 28.0386 111.6206 29.3855 111.7754 30.7142 C 111.8272 31.1606 112.3234 31.5158 112.4614 31.951 C 112.6062 32.4098 112.6344 32.8922 112.6139 33.3645 C 112.5963 33.7627 112.514 34.1655 112.3471 34.5424 C 112.2053 34.8622 111.6991 35.4259 111.6991 35.4259 "/>
        <path id="ID0.7519200313836336" fill="none" stroke="#CCCC00" stroke-width="1.3623144473467341" stroke-linecap="round" d="M 110.1746 13.6344 C 110.1746 13.6344 108.7315 15.6645 108.5356 16.7853 C 108.4228 17.4279 109.0631 18.018 109.2979 18.6406 C 109.5076 19.1953 110.032 19.7549 109.8696 20.3191 C 109.737 20.7796 108.7171 20.8403 108.5356 21.2909 C 108.3192 21.8286 108.695 22.4122 108.8024 22.9694 C 108.9107 23.5307 109.1188 24.0825 109.1836 24.6479 C 109.2461 25.1951 109.1531 25.7481 109.1836 26.297 C 109.2804 28.0339 109.6211 29.7713 109.5647 31.5093 C 109.5319 32.5329 109.2331 33.5483 108.9168 34.5424 C 108.823 34.8363 108.3451 35.3375 108.3451 35.3375 "/>
        <path id="ID0.4806634387932718" fill="none" stroke="#995900" stroke-width="1.5234864035522133" stroke-linecap="round" d="M 108.0499 11.7517 C 108.0499 11.7517 106.7235 14.69 106.3348 16.2428 C 106.1808 16.8586 106.3584 17.5178 106.4491 18.1458 C 106.549 18.84 106.7266 19.5236 106.9065 20.2011 C 107.0696 20.8169 107.3517 21.403 107.4782 22.0279 C 107.7077 23.1576 108.0636 24.3047 107.9737 25.4533 C 107.9295 26.0143 107.3235 26.3843 107.0971 26.8996 C 106.863 27.4317 106.6496 27.995 106.6016 28.5743 C 106.4583 30.2923 106.3706 32.0332 106.5254 33.7504 C 106.5772 34.3274 107.0734 34.7864 107.2114 35.349 C 107.3562 35.9419 107.3844 36.5654 107.3639 37.1758 C 107.3463 37.6904 107.264 38.2111 107.0971 38.6982 C 106.9553 39.1116 106.4491 39.84 106.4491 39.84 "/>
        <path id="ID0.7519200313836336" fill="none" stroke="#CCCC00" stroke-width="1.5234864035522133" stroke-linecap="round" d="M 104.9246 11.6756 C 104.9246 11.6756 103.4815 14.2995 103.2856 15.748 C 103.1728 16.5785 103.8131 17.3412 104.0479 18.1458 C 104.2576 18.8629 104.782 19.586 104.6196 20.3152 C 104.487 20.9105 103.4671 20.9889 103.2856 21.5712 C 103.0692 22.2662 103.445 23.0205 103.5524 23.7406 C 103.6607 24.4661 103.8688 25.1793 103.9336 25.9101 C 103.9961 26.6172 103.9031 27.332 103.9336 28.0414 C 104.0304 30.2862 104.3711 32.5317 104.3147 34.7781 C 104.2819 36.101 103.9831 37.4133 103.6668 38.6982 C 103.573 39.0781 103.0951 39.7259 103.0951 39.7259 "/>
        <path id="ID0.4806634387932718" fill="none" stroke="#FF9400" stroke-width="1.5290487853815156" stroke-linecap="round" d="M 102.3499 6.4262 C 102.3499 6.4262 101.0235 9.3859 100.6348 10.9501 C 100.4808 11.5704 100.6584 12.2344 100.7491 12.8669 C 100.849 13.5662 101.0266 14.2548 101.2065 14.9372 C 101.3696 15.5575 101.6517 16.1479 101.7782 16.7774 C 102.0077 17.9153 102.3636 19.0708 102.2737 20.2278 C 102.2295 20.7929 101.6235 21.1656 101.3971 21.6847 C 101.163 22.2206 100.9496 22.788 100.9016 23.3715 C 100.7583 25.1021 100.6706 26.8557 100.8254 28.5855 C 100.8772 29.1667 101.3734 29.629 101.5114 30.1957 C 101.6562 30.793 101.6844 31.4209 101.6639 32.0359 C 101.6463 32.5542 101.564 33.0787 101.3971 33.5694 C 101.2553 33.9857 100.7491 34.7195 100.7491 34.7195 "/>
        <path id="ID0.7519200313836336" fill="none" stroke="#995900" stroke-width="1.5290487853815156" stroke-linecap="round" d="M 99.2246 6.3495 C 99.2246 6.3495 97.7815 8.9925 97.5856 10.4517 C 97.4728 11.2882 98.1131 12.0565 98.3479 12.8669 C 98.5576 13.5892 99.082 14.3177 98.9196 15.0522 C 98.787 15.6518 97.7671 15.7308 97.5856 16.3174 C 97.3692 17.0174 97.745 17.7773 97.8524 18.5026 C 97.9607 19.2333 98.1688 19.9518 98.2336 20.6879 C 98.2961 21.4002 98.2031 22.1202 98.2336 22.8348 C 98.3304 25.096 98.6711 27.3579 98.6147 29.6206 C 98.5819 30.9532 98.2831 32.2751 97.9668 33.5694 C 97.873 33.952 97.3951 34.6045 97.3951 34.6045 "/>
        <path id="ID0.4806634387932718" fill="none" stroke="#FF9400" stroke-width="1.710437983335185" stroke-linecap="round" d="M 96.5999 5.2346 C 96.5999 5.2346 95.2735 8.8591 94.8848 10.7747 C 94.7308 11.5343 94.9084 12.3475 94.9991 13.1222 C 95.099 13.9786 95.2766 14.8218 95.4565 15.6575 C 95.6196 16.4171 95.9017 17.1402 96.0282 17.9111 C 96.2577 19.3046 96.6136 20.7196 96.5237 22.1366 C 96.4795 22.8286 95.8735 23.285 95.6471 23.9207 C 95.413 24.5771 95.1996 25.2719 95.1516 25.9865 C 95.0083 28.1058 94.9206 30.2533 95.0754 32.3717 C 95.1272 33.0835 95.6234 33.6497 95.7614 34.3436 C 95.9062 35.0751 95.9344 35.8441 95.9139 36.5972 C 95.8963 37.232 95.814 37.8742 95.6471 38.4752 C 95.5053 38.9851 94.9991 39.8837 94.9991 39.8837 "/>
        <path id="ID0.7519200313836336" fill="none" stroke="#CCCC00" stroke-width="1.710437983335185" stroke-linecap="round" d="M 93.4746 5.1407 C 93.4746 5.1407 92.0315 8.3774 91.8356 10.1643 C 91.7228 11.1888 92.3631 12.1297 92.5979 13.1222 C 92.8076 14.0067 93.332 14.8988 93.1696 15.7983 C 93.037 16.5326 92.0171 16.6294 91.8356 17.3477 C 91.6192 18.205 91.995 19.1356 92.1024 20.0238 C 92.2107 20.9187 92.4188 21.7986 92.4836 22.7 C 92.5461 23.5723 92.4531 24.454 92.4836 25.3292 C 92.5804 28.0983 92.9211 30.8684 92.8647 33.6393 C 92.8319 35.2713 92.5331 36.8902 92.2168 38.4752 C 92.123 38.9438 91.6451 39.7428 91.6451 39.7428 "/>
        <path id="ID0.4806634387932718" fill="none" stroke="#995900" stroke-width="1.5571573872534457" stroke-linecap="round" d="M 91.2999 3.6485 C 91.2999 3.6485 89.9735 6.7154 89.5848 8.3363 C 89.4308 8.9791 89.6084 9.6671 89.6991 10.3226 C 89.799 11.0473 89.9766 11.7607 90.1565 12.4679 C 90.3196 13.1107 90.6017 13.7225 90.7282 14.3748 C 90.9577 15.5539 91.3136 16.7512 91.2237 17.9502 C 91.1795 18.5358 90.5735 18.9219 90.3471 19.4598 C 90.113 20.0152 89.8996 20.6032 89.8516 21.2078 C 89.7083 23.0011 89.6206 24.8182 89.7754 26.6107 C 89.8272 27.2129 90.3234 27.692 90.4614 28.2792 C 90.6062 28.8981 90.6344 29.5489 90.6139 30.1861 C 90.5963 30.7232 90.514 31.2667 90.3471 31.7752 C 90.2053 32.2066 89.6991 32.967 89.6991 32.967 "/>
        <path id="ID0.7519200313836336" fill="none" stroke="#CCCC00" stroke-width="1.5571573872534457" stroke-linecap="round" d="M 88.1746 3.5691 C 88.1746 3.5691 86.7315 6.3078 86.5356 7.8198 C 86.4228 8.6867 87.0631 9.4828 87.2979 10.3226 C 87.5076 11.0711 88.032 11.8259 87.8696 12.5871 C 87.737 13.2084 86.7171 13.2902 86.5356 13.8981 C 86.3192 14.6235 86.695 15.4109 86.8024 16.1625 C 86.9107 16.9197 87.1188 17.6642 87.1836 18.4269 C 87.2461 19.1651 87.1531 19.9111 87.1836 20.6516 C 87.2804 22.9947 87.6211 25.3386 87.5647 27.6833 C 87.5319 29.0642 87.2331 30.434 86.9168 31.7752 C 86.823 32.1716 86.3451 32.8478 86.3451 32.8478 "/>
        <path id="ID0.4806634387932718" fill="none" stroke="#995900" stroke-width="1.3623144473467341" stroke-linecap="round" d="M 52.5001 17.3433 C 52.5001 17.3433 53.8265 19.6167 54.2152 20.8182 C 54.3692 21.2946 54.1916 21.8047 54.1009 22.2906 C 54.001 22.8277 53.8234 23.3566 53.6435 23.8807 C 53.4804 24.3572 53.1983 24.8107 53.0718 25.2942 C 52.8423 26.1683 52.4864 27.0558 52.5763 27.9446 C 52.6205 28.3786 53.2265 28.6648 53.4529 29.0636 C 53.687 29.4753 53.9004 29.9111 53.9484 30.3593 C 54.0917 31.6886 54.1794 33.0355 54.0246 34.3642 C 53.9728 34.8106 53.4766 35.1658 53.3386 35.601 C 53.1938 36.0598 53.1656 36.5422 53.1861 37.0145 C 53.2037 37.4127 53.286 37.8155 53.4529 38.1924 C 53.5947 38.5122 54.1009 39.0759 54.1009 39.0759 "/>
        <path id="ID0.7519200313836336" fill="none" stroke="#CCCC00" stroke-width="1.3623144473467341" stroke-linecap="round" d="M 55.6254 17.2844 C 55.6254 17.2844 57.0685 19.3145 57.2644 20.4353 C 57.3772 21.0779 56.7369 21.668 56.5021 22.2906 C 56.2924 22.8453 55.768 23.4049 55.9304 23.9691 C 56.063 24.4296 57.0829 24.4903 57.2644 24.9409 C 57.4808 25.4786 57.105 26.0622 56.9976 26.6194 C 56.8893 27.1807 56.6812 27.7325 56.6164 28.2979 C 56.5539 28.8451 56.6469 29.3981 56.6164 29.947 C 56.5196 31.6839 56.1789 33.4213 56.2353 35.1593 C 56.2681 36.1829 56.5669 37.1983 56.8832 38.1924 C 56.977 38.4863 57.4549 38.9875 57.4549 38.9875 "/>
        <path id="ID0.4806634387932718" fill="none" stroke="#FF9400" stroke-width="1.3623144473467341" stroke-linecap="round" d="M 58.6501 13.9433 C 58.6501 13.9433 59.9765 16.2167 60.3652 17.4182 C 60.5192 17.8946 60.3416 18.4047 60.2509 18.8906 C 60.151 19.4277 59.9734 19.9566 59.7935 20.4807 C 59.6304 20.9572 59.3483 21.4107 59.2218 21.8942 C 58.9923 22.7683 58.6364 23.6558 58.7263 24.5446 C 58.7705 24.9786 59.3765 25.2648 59.6029 25.6636 C 59.837 26.0753 60.0504 26.5111 60.0984 26.9593 C 60.2417 28.2886 60.3294 29.6355 60.1746 30.9642 C 60.1228 31.4106 59.6266 31.7658 59.4886 32.201 C 59.3438 32.6598 59.3156 33.1422 59.3361 33.6145 C 59.3537 34.0127 59.436 34.4155 59.6029 34.7924 C 59.7447 35.1122 60.2509 35.6759 60.2509 35.6759 "/>
        <path id="ID0.7519200313836336" fill="none" stroke="#995900" stroke-width="1.3623144473467341" stroke-linecap="round" d="M 61.7754 13.8844 C 61.7754 13.8844 63.2185 15.9145 63.4144 17.0353 C 63.5272 17.6779 62.8869 18.268 62.6521 18.8906 C 62.4424 19.4453 61.918 20.0049 62.0804 20.5691 C 62.213 21.0296 63.2329 21.0903 63.4144 21.5409 C 63.6308 22.0786 63.255 22.6622 63.1476 23.2194 C 63.0393 23.7807 62.8312 24.3325 62.7664 24.8979 C 62.7039 25.4451 62.7969 25.9981 62.7664 26.547 C 62.6696 28.2839 62.3289 30.0213 62.3853 31.7593 C 62.4181 32.7829 62.7169 33.7983 63.0332 34.7924 C 63.127 35.0863 63.6049 35.5875 63.6049 35.5875 "/>
        <path id="ID0.4806634387932718" fill="none" stroke="#CCCC00" stroke-width="1.523486463114449" stroke-linecap="round" d="M 63.8001 11.9017 C 63.8001 11.9017 65.1265 14.84 65.5152 16.3928 C 65.6692 17.0086 65.4916 17.6678 65.4009 18.2958 C 65.301 18.99 65.1234 19.6736 64.9435 20.3511 C 64.7804 20.9669 64.4983 21.553 64.3718 22.1779 C 64.1423 23.3076 63.7864 24.4547 63.8763 25.6033 C 63.9205 26.1643 64.5265 26.5343 64.7529 27.0496 C 64.987 27.5817 65.2004 28.145 65.2484 28.7243 C 65.3917 30.4423 65.4794 32.1832 65.3246 33.9004 C 65.2728 34.4774 64.7766 34.9364 64.6386 35.499 C 64.4938 36.0919 64.4656 36.7154 64.4861 37.3258 C 64.5037 37.8404 64.586 38.3611 64.7529 38.8482 C 64.8947 39.2616 65.4009 39.99 65.4009 39.99 "/>
        <path id="ID0.7519200313836336" fill="none" stroke="#FF9400" stroke-width="1.523486463114449" stroke-linecap="round" d="M 66.9254 11.8256 C 66.9254 11.8256 68.3685 14.4495 68.5644 15.898 C 68.6772 16.7285 68.0369 17.4912 67.8021 18.2958 C 67.5924 19.0129 67.068 19.736 67.2304 20.4652 C 67.363 21.0605 68.3829 21.1389 68.5644 21.7212 C 68.7808 22.4162 68.405 23.1705 68.2976 23.8906 C 68.1893 24.6161 67.9812 25.3293 67.9164 26.0601 C 67.8539 26.7672 67.9469 27.482 67.9164 28.1914 C 67.8196 30.4362 67.4789 32.6818 67.5353 34.9281 C 67.5681 36.251 67.8669 37.5633 68.1832 38.8482 C 68.277 39.2281 68.7549 39.8759 68.7549 39.8759 "/>
        <path id="ID0.4806634387932718" fill="none" stroke="#CCCC00" stroke-width="1.5290487853815156" stroke-linecap="round" d="M 69.5501 6.6762 C 69.5501 6.6762 70.8765 9.6359 71.2652 11.2001 C 71.4192 11.8204 71.2416 12.4844 71.1509 13.1169 C 71.051 13.8162 70.8734 14.5048 70.6935 15.1872 C 70.5304 15.8075 70.2483 16.3979 70.1218 17.0274 C 69.8923 18.1653 69.5364 19.3208 69.6263 20.4778 C 69.6705 21.0429 70.2765 21.4156 70.5029 21.9347 C 70.737 22.4706 70.9504 23.038 70.9984 23.6215 C 71.1417 25.3521 71.2294 27.1057 71.0746 28.8355 C 71.0228 29.4167 70.5266 29.879 70.3886 30.4457 C 70.2438 31.043 70.2156 31.6709 70.2361 32.2859 C 70.2537 32.8042 70.336 33.3287 70.5029 33.8194 C 70.6447 34.2357 71.1509 34.9695 71.1509 34.9695 "/>
        <path id="ID0.7519200313836336" fill="none" stroke="#995900" stroke-width="1.5290487853815156" stroke-linecap="round" d="M 72.6754 6.5995 C 72.6754 6.5995 74.1185 9.2425 74.3144 10.7017 C 74.4272 11.5382 73.7869 12.3065 73.5521 13.1169 C 73.3424 13.8392 72.818 14.5677 72.9804 15.3022 C 73.113 15.9018 74.1329 15.9808 74.3144 16.5674 C 74.5308 17.2674 74.155 18.0273 74.0476 18.7526 C 73.9393 19.4833 73.7312 20.2018 73.6664 20.9379 C 73.6039 21.6502 73.6969 22.3702 73.6664 23.0848 C 73.5696 25.346 73.2289 27.6079 73.2853 29.8706 C 73.3181 31.2032 73.6169 32.5251 73.9332 33.8194 C 74.027 34.202 74.5049 34.8545 74.5049 34.8545 "/>
        <path id="ID0.4806634387932718" fill="none" stroke="#CCCC00" stroke-width="1.710437983335185" stroke-linecap="round" d="M 75.3001 5.4846 C 75.3001 5.4846 76.6265 9.1091 77.0152 11.0247 C 77.1692 11.7843 76.9916 12.5975 76.9009 13.3722 C 76.801 14.2286 76.6234 15.0718 76.4435 15.9075 C 76.2804 16.6671 75.9983 17.3902 75.8718 18.1611 C 75.6423 19.5546 75.2864 20.9696 75.3763 22.3866 C 75.4205 23.0786 76.0265 23.535 76.2529 24.1707 C 76.487 24.8271 76.7004 25.5219 76.7484 26.2365 C 76.8917 28.3558 76.9794 30.5033 76.8246 32.6217 C 76.7728 33.3335 76.2766 33.8997 76.1386 34.5936 C 75.9938 35.3251 75.9656 36.0941 75.9861 36.8472 C 76.0037 37.482 76.086 38.1242 76.2529 38.7252 C 76.3947 39.2351 76.9009 40.1337 76.9009 40.1337 "/>
        <path id="ID0.7519200313836336" fill="none" stroke="#CCCC00" stroke-width="1.710437983335185" stroke-linecap="round" d="M 78.4254 5.3907 C 78.4254 5.3907 79.8685 8.6274 80.0644 10.4143 C 80.1772 11.4388 79.5369 12.3797 79.3021 13.3722 C 79.0924 14.2567 78.568 15.1488 78.7304 16.0483 C 78.863 16.7826 79.8829 16.8794 80.0644 17.5977 C 80.2808 18.455 79.905 19.3856 79.7976 20.2738 C 79.6893 21.1687 79.4812 22.0486 79.4164 22.95 C 79.3539 23.8223 79.4469 24.704 79.4164 25.5792 C 79.3196 28.3483 78.9789 31.1184 79.0353 33.8893 C 79.0681 35.5213 79.3669 37.1402 79.6832 38.7252 C 79.777 39.1938 80.2549 39.9928 80.2549 39.9928 "/>
        <path id="ID0.4806634387932718" fill="none" stroke="#995900" stroke-width="1.5571573872534457" stroke-linecap="round" d="M 80.7001 3.8985 C 80.7001 3.8985 82.0265 6.9654 82.4152 8.5863 C 82.5692 9.2291 82.3916 9.9171 82.3009 10.5726 C 82.201 11.2973 82.0234 12.0107 81.8435 12.7179 C 81.6804 13.3607 81.3983 13.9725 81.2718 14.6248 C 81.0423 15.8039 80.6864 17.0012 80.7763 18.2002 C 80.8205 18.7858 81.4265 19.1719 81.6529 19.7098 C 81.887 20.2652 82.1004 20.8532 82.1484 21.4578 C 82.2917 23.2511 82.3794 25.0682 82.2246 26.8607 C 82.1728 27.4629 81.6766 27.942 81.5386 28.5292 C 81.3938 29.1481 81.3656 29.7989 81.3861 30.4361 C 81.4037 30.9732 81.486 31.5167 81.6529 32.0252 C 81.7947 32.4566 82.3009 33.217 82.3009 33.217 "/>
        <path id="ID0.7519200313836336" fill="none" stroke="#FF9400" stroke-width="1.5571573872534457" stroke-linecap="round" d="M 83.8254 3.8191 C 83.8254 3.8191 85.2685 6.5578 85.4644 8.0698 C 85.5772 8.9367 84.9369 9.7328 84.7021 10.5726 C 84.4924 11.3211 83.968 12.0759 84.1304 12.8371 C 84.263 13.4584 85.2829 13.5402 85.4644 14.1481 C 85.6808 14.8735 85.305 15.6609 85.1976 16.4125 C 85.0893 17.1697 84.8812 17.9142 84.8164 18.6769 C 84.7539 19.4151 84.8469 20.1611 84.8164 20.9016 C 84.7196 23.2447 84.3789 25.5886 84.4353 27.9333 C 84.4681 29.3142 84.7669 30.684 85.0832 32.0252 C 85.177 32.4216 85.6549 33.0978 85.6549 33.0978 "/>
      </g>
    </g>
  </g>
</svg>