<svg version="1.1" xmlns="http://www.w3.org/2000/svg" xmlns:xlink="http://www.w3.org/1999/xlink" width="107.69814" height="80.58589" viewBox="0,0,107.69814,80.58589"><g transform="translate(-186.15093,-120.18754)"><g data-paper-data="{&quot;isPaintingLayer&quot;:true}" fill-rule="nonzero" stroke-linecap="butt" stroke-linejoin="miter" stroke-miterlimit="10" stroke-dasharray="" stroke-dashoffset="0" style="mix-blend-mode: normal"><g stroke="none" stroke-width="0.63025"><g><path d="M239.4061,199.03473c-0.75217,0 -1.1743,-0.01824 -1.19488,-0.01932c-51.35523,-4.89308 -50.40048,-37.41697 -50.3344,-38.79944c0.21955,-4.60637 2.47714,-9.31041 4.14073,-12.19271c2.47281,3.41023 7.17577,6.05817 14.00669,7.88118c6.17192,1.6477 15.50056,4.13856 31.49295,4.27957l1.04231,0.00469c0.45625,0 42.52833,-0.15491 49.88845,-12.69229c2.38849,3.88128 3.43984,11.69421 3.54564,16.63857c-7.50672,33.21341 -45.10803,34.89974 -52.58749,34.89974c0.00108,0 0,0 0,0z" fill="#65cbeb"/><path d="M288.10418,150.69721c-10.6714,10.83985 -45.08293,11.19951 -49.5436,11.19951c-0.36074,0 -0.71227,-0.00235 -1.05712,-0.00469c-16.2085,-0.14336 -25.66227,-2.66726 -31.9185,-4.33771c-5.89549,-1.57476 -10.32546,-3.77548 -13.22816,-6.56678c-1.31097,2.62393 -2.61725,6.01267 -2.77433,9.30915c-0.07962,1.66702 -0.10815,10.43127 7.14382,19.24101c8.17024,9.92717 22.17802,15.90572 41.63624,17.77423c0.14805,0.00578 0.50644,0.01481 1.04358,0.01481c7.23138,0 43.54338,-1.61249 50.87605,-33.36362c-0.10923,-4.0055 -0.83288,-9.55849 -2.17797,-13.2659M288.10418,150.69721l-95.53469,-6.49402v0c-0.17188,0.61676 -0.12061,1.26999 0.26848,1.94813c2.24748,3.93147 7.56955,6.48734 13.62664,8.10416c6.05709,1.617 15.29131,4.08169 31.06739,4.2218c0.33564,0.00343 0.67706,0.00451 1.02751,0.00451c16.14007,0 47.89933,-3.19862 49.23179,-14.21379c5.65428,3.85763 5.91265,20.03868 5.91265,20.03868c-7.69919,34.73598 -46.73749,36.43387 -54.29783,36.43387c-0.81934,0 -1.26999,-0.02058 -1.26999,-0.02058c-47.79244,-4.55166 -52.3441,-32.62048 -51.96513,-40.58598c0.37897,-7.96532 6.25858,-15.93081 6.25858,-15.93081h0.13993c0,0.00108 0,0 0,0z" fill="#000000"/></g><g><path d="M237.3657,160.18402c-15.96151,-0.14895 -25.273,-2.78895 -31.43481,-4.53559c-6.67168,-1.89126 -11.14823,-4.65638 -12.94723,-7.99727c-0.16845,-0.31289 -0.20709,-0.57577 -0.1262,-0.87964c0.38908,-1.48719 3.26235,-3.25224 5.76803,-4.26495l0.28455,-0.11158c12.06976,-4.27271 25.65884,-6.45303 40.31624,-6.45303c21.94348,0 39.66878,4.90103 43.30795,6.58971c3.59457,1.66936 4.47186,3.4411 4.65963,3.96451c-1.60671,9.44239 -29.36607,13.69362 -48.78691,13.69362l-1.04123,-0.00578z" fill="#4c8ac1"/><path d="M239.22627,137.64761c-14.40264,0 -27.7469,2.13031 -39.6677,6.33026l-0.19463,0.07168l-0.02961,0.01264l-0.05561,0.02383l-0.065,0.02383c-2.484,1.01162 -4.16583,2.26915 -4.61413,2.93249c1.65781,2.84023 5.72812,5.24353 11.79785,6.96399c6.07297,1.72172 15.25141,4.32417 30.98434,4.47096c0.33329,0.00343 0.67471,0.00451 1.02408,0.00451c7.91422,0 20.0033,-0.82963 30.20129,-3.15782c9.5426,-2.17797 15.69754,-5.36179 16.77976,-8.62523c-0.35496,-0.52811 -1.28588,-1.55796 -3.572,-2.6196c-3.05526,-1.41786 -20.73615,-6.43155 -42.58864,-6.43155M239.22627,137.64761v-3.41366v0c22.55916,0 40.59284,5.15596 44.02581,6.74787c5.3802,2.49881 5.67594,5.42552 5.67594,5.42552c-1.36766,12.00277 -33.95871,15.48811 -50.52326,15.48811c-0.35966,0 -0.71245,-0.00108 -1.05604,-0.00451c-16.19135,-0.1513 -25.66805,-2.83788 -31.88438,-4.60059c-6.21651,-1.76253 -11.6785,-4.54588 -13.98503,-8.83015c-0.39829,-0.73971 -0.45065,-1.4509 -0.27426,-2.12345c0.73628,-2.81405 5.57123,-4.92486 6.77983,-5.41306c0.0056,-0.00217 0.01246,-0.00451 0.01697,-0.00668c0.08089,-0.03196 0.14119,-0.05705 0.18542,-0.07294c0.00686,-0.00343 0.01264,-0.00451 0.01824,-0.00686c0.03304,-0.01354 0.05687,-0.02275 0.05687,-0.02275c13.88717,-4.91908 28.1544,-6.5805 40.96387,-6.5805z" fill="#000000"/></g></g><g stroke="none" stroke-width="0.63025"><g><path d="M235.98883,169.53542c-9.654,0.00126 -10.10357,-7.5125 -10.11819,-7.83225c0.01697,-0.24916 0.58245,-7.39189 14.91685,-8.38871c-0.02275,0.00451 0.59744,0.06265 1.57494,0.06265c2.62844,0 7.58634,-0.41653 11.28238,-3.21126c2.06982,-1.56573 3.3306,-1.89577 4.02139,-1.89577c0.89318,0 1.15498,0.544 1.18116,0.60538c0.03178,0.07059 1.96745,4.27398 -0.02383,8.93722c-1.81055,4.24093 -6.20405,7.55457 -13.05989,9.84755c-3.71427,1.24489 -7.00389,1.87519 -9.77479,1.87519v0z" fill="#f37920"/><path d="M257.66727,148.84025c-0.49489,0 -1.63181,0.23092 -3.67888,1.77968c-3.82784,2.89476 -8.92693,3.32609 -11.62596,3.32609c-0.81482,0 -1.39403,-0.03864 -1.61935,-0.05796c-13.18718,0.94319 -14.22624,7.15393 -14.30009,7.85049c0.0603,0.75091 0.83522,7.22795 9.54585,7.22795c2.70951,0 5.93774,-0.62019 9.59496,-1.84341c6.70454,-2.24405 10.98664,-5.45622 12.72533,-9.54946c1.88657,-4.44225 0.05687,-8.38293 0.03755,-8.42157l-0.04333,-0.09334c-0.04098,-0.04893 -0.20583,-0.21847 -0.63608,-0.21847v0M257.66727,148.84025l-0.00108,-1.13801v0c1.33932,0 1.708,0.96053 1.708,0.96053c0,0 6.18004,12.97792 -13.42966,19.5391c-4.0658,1.35972 -7.33267,1.90263 -9.9557,1.90263c-10.3094,0 -10.68729,-8.37516 -10.68729,-8.37516c0,0 0.35731,-7.93354 15.45073,-8.98145c0,0 0.61549,0.06139 1.61014,0.06139c2.48852,0 7.35542,-0.38692 10.93861,-3.09625c2.05177,-1.55219 3.4411,-2.01078 4.36515,-2.01078z" fill="#000000"/></g><g><path d="M234.72462,165.25007c-5.93648,0 -8.44323,-3.119 -8.87565,-3.72781c-0.04098,-0.43458 -0.08305,-2.09366 1.33354,-3.88597c1.55219,-1.96402 5.20254,-4.43214 13.78245,-5.04203c0.00921,0 0.01715,0 0.02401,0c1.35394,0 7.69449,-0.17983 12.39637,-3.36599c1.26078,-0.85454 2.38163,-1.28804 3.32844,-1.28804c1.72949,0 2.34968,1.49405 2.37586,1.55778c0.02401,0.0603 2.0153,5.7395 -12.95734,12.76505c-4.22288,1.98226 -8.06209,2.98702 -11.40768,2.98702v0z" fill="#faab18"/><path d="M256.71378,148.51021c-0.81934,0 -1.86057,0.41075 -3.00868,1.18802c-4.86907,3.29883 -11.41111,3.46602 -12.67189,3.46602h-0.07041c-8.37625,0.60195 -11.88794,2.97113 -13.35798,4.85318c-1.13006,1.44747 -1.2142,2.79256 -1.19831,3.30009c0.58029,0.74874 2.99045,3.36256 8.31811,3.36256c3.26127,0 7.01761,-0.9867 11.1652,-2.93141c14.33999,-6.72837 12.68561,-11.99699 12.66738,-12.04935c-0.0455,-0.10689 -0.53714,-1.1891 -1.84341,-1.1891v0M256.71378,148.51021v-1.13783v0c2.15974,0 2.90505,1.91961 2.90505,1.91961c0,0 2.54322,6.08092 -13.24532,13.48888c-4.80768,2.25525 -8.6413,3.03938 -11.64889,3.03938c-6.86848,0 -9.42308,-4.0909 -9.42308,-4.0909c0,0 -1.48719,-8.48548 15.6237,-9.70076c0,0 0.03755,0 0.10797,0c0.90817,0 7.37492,-0.11375 12.03347,-3.2703c1.51572,-1.02751 2.71403,-1.3859 3.64711,-1.3859z" fill="#000000"/></g></g><g stroke="none" stroke-width="0.63025"><path d="M197.79821,166.98316c-0.39252,-0.20258 -1.80929,-1.0629 -2.55352,-3.2192c-0.8159,-2.36574 -0.92514,-6.7717 3.19068,-14.32518c0.14011,-0.20492 4.02482,-6.10258 3.86557,-12.2736c-0.04785,-1.84341 0.30838,-3.16793 1.05712,-3.93599c0.60304,-0.61911 1.34618,-0.74874 1.86273,-0.74874c0.21738,0 0.36309,0.02383 0.38457,0.02835c0.06373,0.01264 5.92059,1.39854 3.75977,17.79589c-2.07109,15.68725 -10.42441,16.62376 -11.56692,16.67847v0z" fill="#faab18"/><path d="M205.22079,133.04936c-0.40732,0 -0.99104,0.10021 -1.45415,0.57686c-0.6294,0.64529 -0.93994,1.864 -0.89679,3.52415c0.15816,6.13562 -3.55358,11.98562 -3.95765,12.60238c-3.97462,7.31353 -3.90421,11.5328 -3.14283,13.78588c0.60304,1.78762 1.70908,2.59901 2.15974,2.86641c1.46336,-0.1262 8.93252,-1.48611 10.87163,-16.17546c2.05737,-15.61666 -3.20097,-17.1358 -3.31255,-17.16433v0c-0.00343,0 -0.10923,-0.01589 -0.26739,-0.01589v0M205.22079,133.04936v-1.13783v0c0.30043,0 0.49272,0.03972 0.49272,0.03972c0,0 6.49293,1.13801 4.21367,18.42854c-2.25073,17.06304 -11.99248,17.17571 -12.24724,17.17571c-0.00343,0 -0.00469,0 -0.00469,0c0,0 -7.94708,-3.32501 0.26071,-18.38864c0,0 3.95296,-5.92402 3.79606,-11.98688c-0.12295,-4.75532 2.39535,-5.26844 3.48876,-5.26844z" fill="#000000"/></g><g stroke="none" stroke-width="0.63025"><g><path d="M257.76964,156.38796c-2.26662,0 -3.89952,-0.92965 -3.91432,-0.93994c-0.20149,-0.14895 -5.9103,-4.47998 0.98544,-17.09031c0.14444,-0.16845 4.7815,-6.1015 4.28192,-12.51933c-0.22749,-2.92328 0.29809,-4.15572 0.77943,-4.6757c0.32553,-0.35388 0.67363,-0.40624 0.85129,-0.40624l0.12061,0.01029c0.0455,0.0056 4.62894,0.64294 7.48162,4.83621c2.5945,3.81303 3.01338,9.29904 1.24832,16.30961c-3.01536,11.96413 -8.10073,14.4754 -11.83432,14.4754v0z" fill="#f37920"/><path d="M260.75341,121.32536v0c-0.10364,0 -0.26288,0.03882 -0.43368,0.22424c-0.26739,0.28671 -0.86014,1.27667 -0.62922,4.24437c0.49164,6.30859 -3.79155,12.13367 -4.3935,12.91762c-6.33242,11.63752 -1.59299,15.8808 -1.10948,16.26989c0.27534,0.14336 1.70692,0.83757 3.58211,0.83757c5.06496,0 8.96683,-4.85661 11.28256,-14.04642c1.7284,-6.85475 1.33246,-12.19163 -1.17664,-15.86473c-2.72305,-3.9851 -7.02772,-4.5699 -7.07105,-4.57567l-0.0511,-0.00686M260.75341,121.32536v-1.13783v0c0.12169,0 0.19229,0.01481 0.19229,0.01481c0,0 14.26253,1.79683 9.20912,21.84797c-3.14175,12.46245 -8.59363,14.90674 -12.38626,14.90674c-2.44537,0 -4.19995,-1.01631 -4.19995,-1.01631c0,0 -6.48734,-4.58109 0.77257,-17.85493c0,0 4.70188,-5.93305 4.21367,-12.203c-0.41075,-5.2753 1.56121,-5.69526 2.19856,-5.69526z" fill="#000000"/></g><g><path d="M253.69138,155.36839c-0.39252,-0.20258 -1.80929,-1.06272 -2.55352,-3.21794c-0.81572,-2.36574 -0.92387,-6.7717 3.19194,-14.32518c0.13884,-0.20492 4.02373,-6.10276 3.86431,-12.2736c-0.04767,-1.84341 0.30838,-3.16793 1.05712,-3.93599c0.60322,-0.61911 1.34618,-0.74874 1.864,-0.74874c0.21738,0 0.36291,0.02383 0.38457,0.02835c0.06265,0.01246 5.91951,1.39854 3.75851,17.79589c-2.06982,15.68725 -10.42441,16.62376 -11.56692,16.67721v0z" fill="#faab18"/><path d="M261.11396,121.43477c-0.40732,0 -0.99104,0.10002 -1.4565,0.57577c-0.62922,0.6451 -0.93868,1.8649 -0.89553,3.52397c0.15708,6.13562 -3.55485,11.9858 -3.95765,12.60256c-4.00893,7.37474 -3.90872,11.60899 -3.11665,13.86207c0.60863,1.73418 1.69879,2.53059 2.13356,2.79004c1.46101,-0.12512 8.93252,-1.48376 10.87163,-16.1742c2.05845,-15.61684 -3.19988,-17.13598 -3.31255,-17.16433v0c-0.00343,0 -0.10815,-0.01589 -0.26631,-0.01589v0M261.11396,121.43477v-1.13801v0c0.3017,0 0.49398,0.03864 0.49398,0.03864c0,0 6.49293,1.13801 4.21367,18.4298c-2.252,17.06286 -11.99248,17.17552 -12.24742,17.17552c-0.00343,0 -0.0056,0 -0.0056,0c0,0 -7.94726,-3.32501 0.26053,-18.38864c0,0 3.95314,-5.92402 3.79606,-11.9867c-0.12404,-4.7555 2.39535,-5.26862 3.48876,-5.26862z" fill="#000000"/></g></g><g><g fill="#fff4a0" stroke="#000000"><path d="M215.36462,141.72514c2.3105,0.31163 4.31785,1.23695 5.69346,2.48003c1.37651,1.24327 2.12128,2.8043 1.90787,4.38628c-0.21359,1.58216 -1.34528,2.89006 -3.00218,3.72402c-1.65564,0.83414 -3.8365,1.19434 -6.147,0.88253c-2.31068,-0.31163 -4.31803,-1.23695 -5.69346,-2.48003c-1.37669,-1.24327 -2.12128,-2.80412 -1.90787,-4.38628c0.21341,-1.58216 1.3451,-2.89006 3.002,-3.72402c1.65564,-0.83396 3.8365,-1.19434 6.14718,-0.88253z" stroke-width="0.63024"/><path d="M215.39008,141.396c2.31068,0.31163 4.33915,1.08113 5.74835,2.07361c1.41064,0.99158 2.20217,2.20632 2.04039,3.40607c-0.16177,1.19993 -1.2467,2.16154 -2.86948,2.74418c-1.62188,0.58408 -3.78162,0.78882 -6.09229,0.47737c-2.3105,-0.31145 -4.33897,-1.08095 -5.74835,-2.07361c-1.41046,-0.99158 -2.20199,-2.20614 -2.04039,-3.40607c0.16177,-1.19975 1.2467,-2.16154 2.86966,-2.74418c1.62188,-0.5839 3.78162,-0.78882 6.09211,-0.47737z" stroke-width="0.63023"/></g><path d="M214.32068,146.02837c0.06951,0.04225 0.10129,0.09334 0.13993,0.16502c0.08648,0.17748 0.02058,0.36868 -0.11375,0.49958c-0.297,0.28906 -0.62579,0.49037 -0.98544,0.68735c-0.2822,0.15816 -0.54508,-0.21395 -0.38349,-0.45751c0.23562,-0.34702 0.50193,-0.61784 0.83179,-0.87513c0.15943,-0.12386 0.34485,-0.11934 0.51096,-0.01932z" fill="#000000" stroke="none" stroke-width="0.63025"/><path d="M216.04584,146.52687c0.39143,0.36291 0.91485,0.58606 1.07644,1.12302c0.06139,0.20041 -0.16159,0.45408 -0.37211,0.41201c-0.58263,-0.11844 -0.99447,-0.67255 -1.27901,-1.16978c-0.21395,-0.36868 0.31632,-0.60881 0.57469,-0.36525z" fill="#000000" stroke="none" stroke-width="0.63025"/><path d="M215.73963,144.42743c0.28906,0.29574 0.0603,0.54616 -0.05344,0.87151c-0.07619,0.20727 -0.44379,0.20601 -0.4586,-0.03972c-0.01932,-0.32896 -0.13415,-0.63951 0.17766,-0.86249c0.11248,-0.07854 0.23778,-0.06843 0.33438,0.03069z" fill="#000000" stroke="none" stroke-width="0.63025"/></g><g stroke="none" stroke-width="0.63025"><path d="M227.9939,161.6963c-5.23215,0 -8.46381,-4.35468 -9.34688,-12.59209c0.00921,-0.26631 0.07854,-8.22477 -5.19785,-12.08474c-1.2597,-0.92171 -1.88566,-1.9048 -1.85822,-2.92328c0.05344,-2.01855 2.54088,-3.66624 2.56597,-3.68213c0.02492,-0.01607 1.94813,-1.27577 5.03301,-1.27577c3.32717,0 8.52285,1.48845 14.37754,8.57648c10.39028,12.58432 -0.26288,22.21323 -1.24038,23.05188c-0.34485,0.156 -2.15631,0.92965 -4.3332,0.92965v0z" fill="#fff4c7"/><path d="M219.19102,129.70739c-2.89259,0 -4.6961,1.16509 -4.71325,1.17773c-0.63716,0.42104 -2.28269,1.8138 -2.31682,3.23166c-0.01932,0.81934 0.52684,1.64084 1.62495,2.44428c5.29697,3.8746 5.4369,11.63969 5.43473,12.54659c0.59852,5.49955 2.61039,12.01974 8.77328,12.01974c1.95951,0 3.58211,-0.65088 4.02139,-0.84425c1.21979,-1.07084 10.974,-10.26516 1.11399,-22.20637c-5.71224,-6.91741 -10.73278,-8.36939 -13.93827,-8.36939v0M219.19102,129.70739l-0.00108,-1.13801v0c3.68105,0 8.95184,1.68182 14.81556,8.78357c11.14697,13.50134 -1.37001,23.89739 -1.37001,23.89739c0,0 -2.05971,1.01505 -4.64158,1.01505c-3.804,0 -8.74493,-2.20199 -9.91237,-13.10088c0,0 0.1309,-7.95629 -4.96819,-11.68645c-5.10125,-3.72998 0.73285,-7.54084 0.73285,-7.54084c0,0 2.02559,-1.36785 5.34373,-1.36785z" fill="#000000"/></g><g stroke="none" stroke-width="0.63025"><g><path d="M228.9918,150.92831c-0.02275,-0.00578 -2.86515,-0.34828 -4.02482,-2.79708c-0.95348,-2.01638 -1.02173,-6.04445 4.07375,-13.7857c5.98324,-9.08743 11.6034,-10.99458 15.26513,-10.99458c2.51939,0 4.10444,0.91593 4.12051,0.92514c0.0511,0.02835 0.18091,0.11826 0.20366,0.35496c0.03521,0.36995 -0.15943,1.47256 -2.70933,3.72781c-4.60294,4.07375 -5.86606,10.34262 -5.91842,10.60658c-4.38086,11.71823 -10.83516,11.95944 -11.01047,11.96287v0z" fill="#f30d00"/><g fill="#000000"><path d="M244.30586,123.91878c-3.5218,0 -8.94624,1.86382 -14.78938,10.73856c-4.94309,7.51015 -4.92486,11.33347 -4.03962,13.21914c0.94554,2.0106 3.14861,2.42027 3.56279,2.48057c0.54616,-0.0399 6.33477,-0.71462 10.42441,-11.59762c0.18542,-0.87278 1.59425,-6.85475 6.07875,-10.82613c2.30309,-2.03462 2.50675,-2.9881 2.52048,-3.20783c-0.31867,-0.16268 -1.70457,-0.8067 -3.75742,-0.8067M244.30586,123.91878v-1.13801v0c2.72757,0 4.41065,1.00476 4.41065,1.00476c0,0 2.09709,1.00819 -2.41919,5.00015c-4.51068,3.99178 -5.73625,10.28899 -5.73625,10.28899c-4.60853,12.34744 -11.40876,12.42147 -11.5727,12.42147c-0.00108,0 -0.00217,0 -0.00217,0c0,0 -11.18452,-1.11291 -0.41996,-17.46477c6.1266,-9.3059 11.94464,-11.2506 15.73961,-11.2506z"/></g></g><g><path d="M229.66092,150.98518c-0.17856,0 -0.31867,-0.01137 -0.41183,-0.02275c-0.67363,-0.69746 -4.4937,-5.48709 4.52891,-16.67612c7.52839,-9.33551 11.88325,-10.34244 13.40691,-10.34244c0.53479,0 0.79767,0.11934 0.8011,0.12061c0.02275,0.01137 0.60647,0.31849 0.70884,1.01379c0.09334,0.63499 -0.18326,1.76271 -2.0301,3.53661c-4.2375,4.07375 -5.92059,9.94775 -5.991,10.19457c-4.23534,11.29502 -9.50053,12.17574 -11.01282,12.17574v0z" fill="#fff4c7"/><g fill="#000000"><path d="M247.18491,124.51279c-1.44061,0 -5.58946,0.98761 -12.96546,10.13191c-8.22368,10.198 -5.50641,14.78378 -4.69953,15.76922c0.04315,0.00108 0.08991,0.00235 0.13993,0.00235c1.41786,0 6.36095,-0.85346 10.4802,-11.8094c0.18542,-0.63824 1.93892,-6.37341 6.12985,-10.40166c1.81398,-1.74213 1.90715,-2.70012 1.864,-3.03125c-0.05001,-0.38024 -0.35388,-0.57126 -0.41075,-0.6043c0,0 0,0 -0.00126,0c-0.01137,0 -0.19915,-0.05687 -0.53696,-0.05687M247.18491,124.51279v-1.13801v0c0.70884,0 1.05242,0.17983 1.05242,0.17983c0,0 3.00074,1.4565 -1.17773,5.47102c-4.17503,4.01236 -5.83736,9.93855 -5.83736,9.93855c-4.31514,11.51005 -9.6939,12.58992 -11.56133,12.58992c-0.43115,0 -0.67471,-0.05796 -0.67471,-0.05796c0,0 -5.95471,-4.78945 4.34908,-17.56714c7.48975,-9.28658 11.96395,-10.55422 13.84962,-10.55422z"/></g></g></g><g stroke="none" stroke-width="0.63025"><g><path d="M267.36695,162.77617c-4.18424,0 -6.11865,-3.99629 -6.13797,-4.03601c-0.08414,-0.2367 -2.38506,-6.94015 8.36939,-13.9964c0.16611,-0.05814 6.28006,-2.6548 8.79494,-8.36253c1.41551,-3.22263 2.49989,-3.57073 2.90162,-3.57073c0.29484,0 0.47448,0.17405 0.48243,0.18199c0.40172,0.37663 9.17969,8.86084 -3.00182,22.57396c-4.24996,4.78385 -8.08827,7.20972 -11.40858,7.20972v0z" fill="#f30d00"/><g fill="#000000"><path d="M281.29492,133.37833c-0.33329,0 -1.25843,0.6758 -2.38163,3.22823c-2.45439,5.57231 -8.20436,8.27713 -9.084,8.66404c-9.88727,6.52814 -8.26684,12.6309 -8.06101,13.2715c0.2311,0.45282 1.99833,3.66299 5.59867,3.66299c3.10528,0 6.90477,-2.42731 10.98303,-7.01869c11.84804,-13.33758 3.42629,-21.41899 3.06213,-21.75698l-0.02618,-0.02383c-0.01481,-0.00921 -0.04767,-0.02726 -0.091,-0.02726v0M281.29492,133.37833v-1.13801v0c0.56223,0 0.89101,0.35622 0.89101,0.35622c0,0 9.7394,9.02478 -2.98467,23.34762c-5.03084,5.66457 -8.93722,7.4011 -11.83432,7.4011c-4.59265,0 -6.65236,-4.36281 -6.65236,-4.36281c0,0 -2.74345,-7.28952 8.57196,-14.71445c0,0 6.13454,-2.55225 8.58551,-8.11662c1.4202,-3.23166 2.64451,-3.91107 3.42286,-3.91107z"/></g></g><g><path d="M264.56752,159.46037c-1.85587,0 -3.09047,-0.67128 -3.42738,-0.87856c-0.46762,-0.87603 -3.15872,-7.00154 8.32046,-14.55954c0.18669,-0.09443 5.72144,-3.05761 8.37282,-8.37498c0.91936,-1.84125 1.94236,-2.81531 2.96084,-2.81531c0.80796,0 1.39619,0.60665 1.40071,0.61224c0.04333,0.04658 3.77223,4.33771 -5.19117,17.10962c-5.16716,7.3612 -9.61536,8.90652 -12.43627,8.90652v0z" fill="#fff4c7"/><g fill="#000000"><path d="M280.79426,133.40108c-0.776,0 -1.64661,0.88758 -2.45223,2.49989c-2.62393,5.26519 -7.98355,8.28399 -8.61169,8.62432c-10.51215,6.94015 -8.69149,12.50217 -8.15544,13.65264c0.41183,0.22641 1.47238,0.71353 2.99261,0.71353c2.68676,0 6.94359,-1.50326 11.971,-8.66531c8.50805,-12.12338 5.29697,-16.33579 5.2605,-16.37334c-0.01354,-0.01372 -0.45174,-0.45174 -1.00476,-0.45174v0M280.79426,133.40108v-1.13801v0c1.07987,0 1.81832,0.79316 1.81832,0.79316c0,0 4.29113,4.38212 -5.14332,17.82424c-5.25707,7.48975 -9.85892,9.14882 -12.90173,9.14882c-2.41919,0 -3.85402,-1.04683 -3.85402,-1.04683c0,0 -4.38664,-6.99594 8.43312,-15.43575c0,0 5.57809,-2.93935 8.17819,-8.15435c1.23695,-2.47841 2.49195,-3.12929 3.46945,-3.12929z"/></g></g></g><g stroke="none" stroke-width="0.63025"><g><path d="M237.0176,157.22896c-4.2478,0 -6.55215,-2.252 -6.5749,-2.27583c-0.04207,-0.04098 -0.1457,-0.15943 -0.10923,-0.39595c0.05922,-0.36652 0.52233,-1.38608 3.55593,-2.93141c5.47572,-2.79473 8.26593,-8.54687 8.38076,-8.79025c5.63045,-8.04277 10.72827,-8.92024 12.65708,-8.92024c0.63373,0 0.99339,0.091 0.99682,0.09226v0c-0.00921,0 2.68207,1.03997 3.19519,3.71517c0.41996,2.19061 -0.52107,6.10836 -7.39081,12.32939c-5.25942,4.76327 -10.20937,7.17794 -14.70867,7.17794c-0.00108,-0.00108 -0.00217,-0.00108 -0.00217,-0.00108z" fill="#f30d00"/><g fill="#000000"><path d="M254.92724,134.48437c-1.8333,0 -6.68414,0.84876 -12.18946,8.68679c-0.39703,0.79875 -3.25549,6.23908 -8.5911,8.96213c-2.74129,1.39619 -3.17605,2.26789 -3.24195,2.47606c0.37085,0.33582 2.44194,2.05068 6.11161,2.05068c4.35595,0 9.17735,-2.36466 14.32988,-7.03007c6.66482,-6.03434 7.60241,-9.74175 7.21549,-11.78882c-0.41201,-2.18375 -2.44194,-3.13164 -2.82994,-3.29323c-0.10021,-0.01932 -0.38132,-0.06355 -0.80453,-0.06355M254.92724,134.48437v-1.13801v0c0.73159,0 1.14234,0.11032 1.14234,0.11032c0,0 10.55314,3.8746 -3.95874,17.01646c-6.33712,5.73733 -11.41328,7.32473 -15.09324,7.32473c-4.56304,0 -6.97879,-2.44302 -6.97879,-2.44302c0,0 -1.7786,-1.49983 3.5924,-4.23534c5.36522,-2.73894 8.12583,-8.52863 8.12583,-8.52863c5.74762,-8.22495 10.94547,-9.24451 13.17021,-9.24451z"/></g></g><g><path d="M232.82542,155.72913c-1.4314,0 -2.00501,-0.45625 -2.0106,-0.46076c-0.01932,-0.01715 -0.50861,-0.46094 -0.4335,-1.15967c0.06825,-0.63716 0.61784,-1.66016 2.84926,-2.91642c5.12057,-2.88464 8.22025,-8.15092 8.35007,-8.3739c5.60535,-7.99493 10.15015,-9.19432 12.35773,-9.19432c0.89101,0 1.49405,0.18994 1.74213,0.28563c0.479,0.84551 2.97673,6.43714 -8.5559,15.01362c-7.56161,5.62467 -11.94933,6.80583 -14.29919,6.80583v0z" fill="#fff4c7"/><g fill="#000000"><path d="M253.93946,134.19297c-2.09366,0 -6.42125,1.16527 -11.89336,8.95654c-0.33799,0.57234 -3.47179,5.68624 -8.53549,8.53892c-2.19061,1.23352 -2.52174,2.13699 -2.56272,2.4692c-0.04767,0.39035 0.21395,0.65558 0.25042,0.69078v0c0.00794,0 0.49272,0.31181 1.62712,0.31181c1.85262,0 6.13111,-0.86935 13.96228,-6.69316c10.51197,-7.81871 9.02821,-12.9382 8.49343,-14.09426c-0.26523,-0.07962 -0.72256,-0.17983 -1.34167,-0.17983M253.93946,134.19297v-1.13783v0c1.36442,0 2.13013,0.40154 2.13013,0.40154c0,0 4.56773,6.12551 -8.60374,15.92179c-7.7037,5.72939 -12.21997,6.91849 -14.64042,6.91849c-1.71811,0 -2.38163,-0.59852 -2.38163,-0.59852c0,0 -2.54088,-2.15974 2.5091,-5.00231c5.04438,-2.84131 8.13612,-8.16338 8.13612,-8.16338c5.65771,-8.0713 10.30037,-9.4776 12.85045,-9.4776z"/></g></g></g><g><g fill="#fff4a0" stroke="#000000"><path d="M199.94188,142.99044c2.03805,-0.3871 3.99123,-0.1708 5.50208,0.49073c1.51102,0.66153 2.57843,1.76885 2.8433,3.16396c0.26505,1.39511 -0.3221,2.81658 -1.4852,3.986c-1.1631,1.1696 -2.90107,2.08698 -4.93894,2.47389c-2.03787,0.3871 -3.99123,0.17098 -5.50208,-0.49055c-1.51084,-0.66172 -2.57825,-1.76885 -2.8433,-3.16396c-0.26487,-1.39511 0.3221,-2.81658 1.4852,-3.98618c1.1631,-1.16942 2.90107,-2.08679 4.93894,-2.47389z" stroke-width="0.63023"/><path d="M199.83102,142.742c2.03787,-0.38728 3.96524,-0.30874 5.43437,0.13252c1.46877,0.44 2.47823,1.24092 2.67936,2.29948c0.20113,1.05874 -0.44397,2.174 -1.64914,3.12225c-1.20481,0.94933 -2.96878,1.72949 -5.00665,2.11677c-2.03805,0.38728 -3.96524,0.30874 -5.43437,-0.13252c-1.46895,-0.44018 -2.47823,-1.24092 -2.67936,-2.29948c-0.20113,-1.05874 0.44397,-2.174 1.64896,-3.12225c1.20481,-0.94933 2.96896,-1.72949 5.00683,-2.11677z" stroke-width="0.63024"/></g><path d="M200.20042,146.99792c0.06933,0.01589 0.1114,0.05001 0.16376,0.09894c0.12295,0.12638 0.12187,0.30621 0.0455,0.45408c-0.16845,0.3277 -0.38908,0.5895 -0.63824,0.85689c-0.19355,0.21269 -0.52016,-0.02618 -0.45192,-0.27769c0.10021,-0.35731 0.24934,-0.66226 0.45517,-0.97172c0.09912,-0.15022 0.25837,-0.19806 0.42574,-0.16051z" fill="#000000" stroke="none" stroke-width="0.63025"/><path d="M201.79685,146.9331c0.43133,0.1968 0.93651,0.2367 1.22431,0.6451c0.10815,0.15148 -0.00794,0.4279 -0.19788,0.45174c-0.52576,0.065 -1.02877,-0.28888 -1.40883,-0.62687c-0.28437,-0.25151 0.09569,-0.60322 0.3824,-0.46997z" fill="#000000" stroke="none" stroke-width="0.63025"/><path d="M200.94682,145.24677c0.3277,0.16954 0.20474,0.44487 0.20023,0.75091c-0.0056,0.19698 -0.31632,0.29935 -0.39703,0.09569c-0.1105,-0.27317 -0.29484,-0.50301 -0.09443,-0.77835c0.07384,-0.09677 0.18199,-0.12404 0.29123,-0.06825z" fill="#000000" stroke="none" stroke-width="0.63025"/></g><g><g fill="#fff4a0" stroke="#000000"><path d="M269.64747,149.27357c2.17328,-0.84425 4.37761,-1.00476 6.18275,-0.58173c1.80604,0.42267 3.21252,1.42905 3.79064,2.91714c0.57812,1.48809 0.21973,3.18002 -0.82728,4.71109c-1.04611,1.5307 -2.78083,2.90035 -4.95411,3.7446c-2.17328,0.84425 -4.37779,1.00494 -6.18275,0.58173c-1.80604,-0.42267 -3.2127,-1.42887 -3.79082,-2.91696c-0.57794,-1.48809 -0.21973,-3.1802 0.82746,-4.71127c1.04593,-1.53052 2.78083,-2.90035 4.95411,-3.7446z" stroke-width="0.63023"/><path d="M269.49978,148.97476c2.17328,-0.84443 4.32092,-1.15155 6.03452,-0.96414c1.71432,0.18597 2.99442,0.86664 3.43297,1.99508c0.43856,1.12862 -0.04622,2.49502 -1.18513,3.78974c-1.13728,1.29526 -2.92888,2.51885 -5.10216,3.36346c-2.17328,0.84443 -4.32092,1.15155 -6.03452,0.96414c-1.71432,-0.18597 -2.9946,-0.86664 -3.43297,-1.99508c-0.43856,-1.12862 0.04604,-2.49502 1.18495,-3.78974c1.13746,-1.29526 2.92906,-2.51885 5.10234,-3.36346z" stroke-width="0.63025"/></g><path d="M270.77031,153.62861c0.08089,0.00343 0.13433,0.03286 0.20041,0.07511c0.16268,0.11375 0.1968,0.31398 0.14209,0.49272c-0.11934,0.39703 -0.31055,0.73159 -0.53027,1.0786c-0.16954,0.27426 -0.58029,0.07637 -0.55627,-0.21503c0.03972,-0.41635 0.14101,-0.78395 0.30603,-1.16744c0.07962,-0.18542 0.24465,-0.27082 0.43801,-0.26396z" fill="#000000" stroke="none" stroke-width="0.63025"/><path d="M272.52164,153.23032c0.51782,0.12963 1.08438,0.07168 1.48502,0.46203c0.1513,0.14552 0.07854,0.47557 -0.12638,0.54039c-0.56783,0.17874 -1.19488,-0.10797 -1.68525,-0.40497c-0.36525,-0.21847 -0.01824,-0.68627 0.32661,-0.59744z" fill="#000000" stroke="none" stroke-width="0.63025"/><path d="M271.23812,151.54056c0.39703,0.12061 0.31632,0.44939 0.3732,0.78738c0.03412,0.21847 -0.28906,0.39595 -0.41996,0.18777c-0.1764,-0.27769 -0.42772,-0.49507 -0.26162,-0.841c0.06139,-0.12277 0.1764,-0.17405 0.30838,-0.13415z" fill="#000000" stroke="none" stroke-width="0.63025"/></g><g><g fill="#fff4a0" stroke="#000000"><path d="M261.11234,144.80009c2.28197,0.47864 4.21692,1.54731 5.49865,2.88681c1.28263,1.34004 1.91202,2.95091 1.58432,4.51338c-0.3277,1.56248 -1.55146,2.7848 -3.26452,3.49635c-1.71197,0.71173 -3.91324,0.91268 -6.19521,0.43386c-2.28179,-0.47864 -4.21674,-1.54713 -5.49846,-2.88681c-1.28263,-1.34004 -1.9122,-2.95091 -1.58432,-4.51338c0.3277,-1.56248 1.55146,-2.7848 3.26452,-3.49617c1.71197,-0.71173 3.91324,-0.91286 6.19503,-0.43404z" stroke-width="0.63025"/><path d="M261.15856,144.47239c2.28197,0.47846 4.24924,1.39312 5.58278,2.48545c1.3348,1.09142 2.03606,2.36033 1.78762,3.54528c-0.24844,1.18495 -1.40034,2.06549 -3.06122,2.52878c-1.65998,0.46455 -3.82892,0.51204 -6.11089,0.03358c-2.28179,-0.47846 -4.24906,-1.39312 -5.5826,-2.48545c-1.33499,-1.09124 -2.03624,-2.36033 -1.7878,-3.54528c0.24844,-1.18495 1.40034,-2.06531 3.06122,-2.5286c1.65998,-0.46474 3.82892,-0.51222 6.11089,-0.03376z" stroke-width="0.63024"/></g><path d="M259.76562,148.98921c0.06608,0.04676 0.09443,0.10021 0.12747,0.17188c0.07403,0.18434 -0.00578,0.37103 -0.14913,0.49037c-0.31632,0.26866 -0.65991,0.44506 -1.03311,0.61567c-0.29249,0.13776 -0.52811,-0.25259 -0.34936,-0.48351c0.25945,-0.32896 0.54508,-0.58047 0.89318,-0.81247c0.16737,-0.11158 0.35279,-0.09334 0.51096,0.01805z" fill="#000000" stroke="none" stroke-width="0.63025"/><path d="M261.44979,149.61174c0.36399,0.39143 0.87043,0.65088 0.99339,1.19939c0.04658,0.20474 -0.19463,0.44036 -0.40172,0.38349c-0.57361,-0.16051 -0.94229,-0.74314 -1.19145,-1.2597c-0.18651,-0.38457 0.35857,-0.58498 0.59979,-0.32318z" fill="#000000" stroke="none" stroke-width="0.63025"/><path d="M261.29722,147.49516c0.26631,0.31759 0.01932,0.54851 -0.11718,0.86592c-0.08991,0.20149 -0.45751,0.17297 -0.45408,-0.07276c0.00451,-0.32878 -0.08757,-0.64853 0.24013,-0.84768c0.11718,-0.07059 0.24248,-0.05128 0.33113,0.05453z" fill="#000000" stroke="none" stroke-width="0.63025"/></g><path d="M215.80805,151.87836c1.00476,0 1.91383,0.42104 2.57284,1.10153c0.65991,0.68049 1.06723,1.62043 1.06723,2.65715c0,1.03654 -0.40732,1.97648 -1.06723,2.65697c-0.65901,0.68049 -1.56808,1.10153 -2.57284,1.10153c-1.00476,0 -1.91401,-0.42104 -2.57284,-1.10153c-0.66009,-0.68049 -1.06741,-1.62043 -1.06741,-2.65697c0,-1.03672 0.40732,-1.97666 1.06741,-2.65715c0.65883,-0.68049 1.56808,-1.10153 2.57284,-1.10153z" fill="#3f64ff" stroke="#000000" stroke-width="0.63025"/><path d="M200.46655,142.55549c1.00476,0 1.91401,0.42104 2.57284,1.10153c0.66009,0.68049 1.06741,1.62043 1.06741,2.65697c0,1.03672 -0.40732,1.97666 -1.06741,2.65715c-0.65883,0.68031 -1.56808,1.10135 -2.57284,1.10135c-1.00476,0 -1.91383,-0.42104 -2.57284,-1.10135c-0.65991,-0.68049 -1.06723,-1.62043 -1.06723,-2.65715c0,-1.03654 0.40732,-1.97648 1.06723,-2.65697c0.65901,-0.68049 1.56808,-1.10153 2.57284,-1.10153z" fill="#3f64ff" stroke="#000000" stroke-width="0.63025"/><path d="M252.03122,151.68951c1.00476,0 1.91401,0.42104 2.57284,1.10153c0.65991,0.68049 1.06741,1.62043 1.06741,2.65697c0,1.03672 -0.4075,1.97666 -1.06741,2.65715c-0.65883,0.68049 -1.56808,1.10153 -2.57284,1.10153c-1.00476,0 -1.91401,-0.42104 -2.57284,-1.10153c-0.65991,-0.68049 -1.06741,-1.62043 -1.06741,-2.65715c0,-1.03654 0.4075,-1.97648 1.06741,-2.65697c0.65883,-0.68049 1.56808,-1.10153 2.57284,-1.10153z" fill="#3f64ff" stroke="#000000" stroke-width="0.63025"/><path d="M269.66896,142.77522c1.00476,0 1.91383,0.42086 2.57284,1.10135c0.65991,0.68049 1.06723,1.62043 1.06723,2.65715c0,1.03654 -0.40732,1.97648 -1.06723,2.65697c-0.65901,0.68049 -1.56808,1.10153 -2.57284,1.10153c-1.00494,0 -1.91401,-0.42104 -2.57284,-1.10153c-0.66009,-0.68049 -1.06741,-1.62043 -1.06741,-2.65697c0,-1.03672 0.40732,-1.97666 1.06741,-2.65715c0.65883,-0.68049 1.56789,-1.10135 2.57284,-1.10135z" fill="#3f64ff" stroke="#000000" stroke-width="0.63025"/><path d="M248.61739,135.56876c1.00494,0 1.91401,0.42104 2.57284,1.10153c0.66009,0.68049 1.06741,1.62025 1.06741,2.65697c0,1.03672 -0.40732,1.97648 -1.06741,2.65697c-0.65883,0.68049 -1.56789,1.10153 -2.57284,1.10153c-1.00476,0 -1.91383,-0.42104 -2.57284,-1.10153c-0.65991,-0.68049 -1.06723,-1.62025 -1.06723,-2.65697c0,-1.03672 0.40732,-1.97648 1.06723,-2.65697c0.65901,-0.68049 1.56808,-1.10153 2.57284,-1.10153z" fill="#3f64ff" stroke="#000000" stroke-width="0.63025"/><g><g fill="#fff4a0" stroke="#000000" stroke-width="0.63026"><path d="M235.29245,135.89627c2.56146,-0.55429 5.03572,-0.34341 6.96525,0.44415c1.92954,0.78629 3.31345,2.15161 3.69315,3.90565c0.37952,1.75386 -0.31632,3.56929 -1.7479,5.08302c-1.43158,1.51481 -3.59727,2.72973 -6.15874,3.28402c-2.56128,0.55429 -5.03572,0.34341 -6.96525,-0.44415c-1.92936,-0.78629 -3.31345,-2.15179 -3.69297,-3.90565c-0.37952,-1.75386 0.31614,-3.56947 1.7479,-5.08302c1.4314,-1.51481 3.59709,-2.72973 6.15855,-3.28402z"/><path d="M235.2103,135.57435c2.56128,-0.55429 4.99834,-0.51565 6.86775,-0.00632c1.86923,0.50825 3.17009,1.48899 3.45789,2.81911c0.2878,1.33011 -0.4911,2.76079 -1.98298,3.99647c-1.4917,1.23677 -3.69477,2.27926 -6.25605,2.83355c-2.56146,0.55429 -4.99852,0.51583 -6.86793,0.00632c-1.86923,-0.50825 -3.16991,-1.48881 -3.45789,-2.81911c-0.2878,-1.33011 0.49128,-2.76079 1.98316,-3.99647c1.49152,-1.23677 3.69459,-2.27926 6.25605,-2.83355z"/></g><path d="M235.81135,140.92025c0.08883,0.01824 0.14336,0.0603 0.2116,0.11952c0.15943,0.15473 0.16286,0.3824 0.07059,0.57126c-0.20258,0.41996 -0.4734,0.75795 -0.77835,1.10496c-0.23778,0.27426 -0.65774,-0.01824 -0.58137,-0.33691c0.11609,-0.45733 0.29357,-0.84551 0.54508,-1.24363c0.12061,-0.1912 0.31849,-0.25728 0.53244,-0.21522z" fill="#000000" stroke="none" stroke-width="0.63025"/><path d="M237.82665,140.78719c0.55194,0.23562 1.19018,0.26974 1.56681,0.77492c0.14119,0.18886 0.00235,0.54273 -0.23544,0.57812c-0.66226,0.09786 -1.30754,-0.33113 -1.80026,-0.74657c-0.36634,-0.30838 0.10021,-0.76463 0.46889,-0.60647z" fill="#000000" stroke="none" stroke-width="0.63025"/><path d="M236.69785,138.68541c0.41978,0.20366 0.27299,0.55537 0.27642,0.94121c0,0.24789 -0.38908,0.388 -0.49832,0.13307c-0.14679,-0.33907 -0.38692,-0.62362 -0.14227,-0.97858c0.08757,-0.1253 0.22533,-0.16394 0.36417,-0.09569z" fill="#000000" stroke="none" stroke-width="0.63025"/></g><g stroke="none" stroke-width="0.63025"><g><path d="M223.68689,175.88499c-1.53847,0 -2.61599,-0.35388 -2.62736,-0.35604c-0.2618,-0.12187 -7.56269,-3.63682 -2.74923,-19.11246c0.12512,-0.22767 3.89952,-7.76166 1.93206,-14.68827c-0.99898,-3.5218 -0.4846,-4.95555 -0.08973,-5.4972c0.39143,-0.53605 0.90004,-0.5588 0.92171,-0.5588c0.03864,-0.00108 0.16268,-0.01011 0.38222,-0.01011c1.29165,0 5.78175,0.28888 9.33208,4.01344c3.49219,3.66408 5.07056,9.5175 4.69267,17.39977c-0.78503,16.3654 -7.72645,18.80968 -11.79442,18.80968v0z" fill="#f37920"/><path d="M221.45764,136.22867c-0.18199,0 -0.29123,0.00686 -0.3082,0.00921l-0.03882,0.00217h-0.04207c-0.00794,0.00343 -0.25945,0.04098 -0.47448,0.35279c-0.25837,0.37663 -0.75795,1.61592 0.1968,4.97956c1.93333,6.81034 -1.49965,14.15457 -1.96402,15.1001c-4.43105,14.3445 1.78094,17.98024 2.47046,18.33411c0.22876,0.0659 1.14812,0.30946 2.38958,0.30946c3.86557,0 10.46431,-2.37369 11.22659,-18.2693c0.37103,-7.72067 -1.15498,-13.43309 -4.53559,-16.97981c-3.39452,-3.56062 -7.68546,-3.83831 -8.92024,-3.83831M221.45764,136.22867v-1.13674v0c2.45223,0 15.60203,0.97641 14.5915,22.00957c-0.81247,16.93323 -8.20545,19.35241 -12.36333,19.35241c-1.66359,0 -2.80845,-0.38674 -2.80845,-0.38674c0,0 -8.15544,-3.60269 -3.11105,-19.82022c0,0 3.85763,-7.57172 1.92881,-14.364c-1.92087,-6.76719 1.34618,-6.78073 1.37236,-6.78073v0c0,0 0.13884,-0.01029 0.39017,-0.01029z" fill="#000000"/></g><g><path d="M220.8853,175.48219c-0.4586,-0.1262 -2.25416,-0.75325 -3.57976,-3.00868c-1.43158,-2.43399 -2.53871,-7.27796 0.32318,-16.53277c0.10923,-0.26053 3.06881,-7.5932 1.52817,-14.32862c-0.50301,-2.19946 -0.34593,-3.83018 0.46419,-4.8474c0.86267,-1.08222 2.19169,-1.09467 2.20542,-1.09467c0.07619,0 6.89339,0.21503 8.15652,18.8142c1.21636,17.89827 -7.89833,20.7078 -9.09773,20.99795v0z" fill="#faab18"/><path d="M221.83553,136.24004c-0.16159,0.00686 -1.14812,0.08305 -1.78419,0.89896c-0.67363,0.86483 -0.79099,2.36809 -0.33925,4.34565c1.53052,6.69443 -1.25952,13.93718 -1.55309,14.66895c-2.79256,9.05891 -1.72858,13.73461 -0.3425,16.06514c1.10135,1.85009 2.55568,2.49195 3.08361,2.67178c1.52944,-0.43242 9.65978,-3.53661 8.51617,-20.36765c-1.19813,-17.62401 -7.32364,-18.26568 -7.58075,-18.28284M221.83553,136.24004l-0.00108,-1.13909v0c0.26956,0 7.41464,0.18109 8.7164,19.34465c1.32794,19.53351 -9.67223,21.6203 -9.67223,21.6203c0,0 -9.4823,-1.89577 -3.79281,-20.29344c0,0 3.03486,-7.39658 1.51698,-14.03396c-1.51806,-6.63755 3.22372,-6.63755 3.22372,-6.63755c0,0 0.00325,0 0.00794,0z" fill="#000000"/></g></g><g stroke="none" stroke-width="0.63025"><path d="M240.64178,199.63777c-1.53395,0 -2.42027,-0.0511 -2.43959,-0.05218c-51.93444,-4.94779 -50.96037,-37.99166 -50.89321,-39.39688c0.24573,-5.16499 2.97781,-10.42459 4.6813,-13.23394c2.22004,3.65487 6.98908,6.48029 14.18074,8.40008c6.14465,1.64084 15.43123,4.12033 31.35067,4.26025l1.0378,0.00451c0.46419,0 44.41165,-0.16033 49.86227,-13.31808c4.07375,4.31388 4.59933,13.64253 4.15102,17.88581c-3.47974,32.8913 -40.62461,35.45042 -51.93101,35.45042c0.00126,0 0.00126,0 0,0z" fill="#65cbeb"/><path d="M288.57993,148.36107c-8.36036,12.24399 -48.17358,12.39763 -50.02169,12.39763c-0.35731,0 -0.70541,-0.00217 -1.04683,-0.00451c-16.06388,-0.14227 -25.43351,-2.64343 -31.63396,-4.29907c-6.49871,-1.73526 -11.12205,-4.2227 -13.78354,-7.41013c-1.57151,2.85287 -3.45247,7.0734 -3.64927,11.19824c-0.08323,1.74104 -0.11501,10.88643 7.402,20.01828c8.37733,10.17741 22.6628,16.29715 42.459,18.18949c0.17748,0.00903 1.0127,0.04785 2.33613,0.04785c11.06283,0 47.41925,-2.48292 50.79878,-34.42995c0.4734,-4.47547 -0.22063,-11.62723 -2.86063,-15.70784M288.57993,148.36107l-96.01044,-4.15788v0c-0.17188,0.61676 -0.12061,1.26999 0.26848,1.94813c2.24748,3.93147 7.56955,6.48734 13.62664,8.10416c6.05709,1.617 15.29131,4.08169 31.06739,4.2218c0.33564,0.00343 0.67706,0.00451 1.02751,0.00451c16.14007,0 47.89933,-3.19862 49.23179,-14.21379c5.65428,3.85763 6.46116,14.84408 5.91265,20.03868c-3.61623,34.18874 -42.70473,36.46673 -53.06215,36.46673c-1.59191,0 -2.50567,-0.05344 -2.50567,-0.05344c-47.79244,-4.55166 -52.3441,-32.62048 -51.96513,-40.58598c0.37897,-7.96532 6.25858,-15.93081 6.25858,-15.93081h0.13993c0,0.00108 0,0 0,0z" fill="#000000"/></g></g></g></svg>