<svg version="1.1" xmlns="http://www.w3.org/2000/svg" xmlns:xlink="http://www.w3.org/1999/xlink" width="72.31797" height="58.9138" viewBox="0,0,72.31797,58.9138"><g transform="translate(-203.86559,-150.54)"><g data-paper-data="{&quot;isPaintingLayer&quot;:true}" fill="none" fill-rule="none" stroke="none" stroke-width="none" stroke-linecap="none" stroke-linejoin="none" stroke-miterlimit="10" stroke-dasharray="" stroke-dashoffset="0" font-family="none" font-weight="none" font-size="none" text-anchor="none" style="mix-blend-mode: normal"><path d="M243.24115,157.404c-1.76289,0 -3.192,-1.42911 -3.192,-3.192c0,-1.76289 1.42911,-3.192 3.192,-3.192c1.76289,0 3.192,1.42911 3.192,3.192c0,1.76289 -1.42911,3.192 -3.192,3.192z" data-paper-data="{&quot;index&quot;:null}" id="Oval" fill="#c9e2b3" fill-rule="nonzero" stroke="#149948" stroke-width="0.96" stroke-linecap="butt" stroke-linejoin="miter"/><g data-paper-data="{&quot;index&quot;:null}" id="Group"><path d="M251.02915,197.496c-4.7811,4.5269 -10.5925,7.8217 -16.932,9.6c-11.34,3.192 -22.728,2.196 -27.48,-2.088c-4.752,-4.284 -1.416,-11.928 4.188,-15.6z" id="Shape" fill="#c9e2b3" fill-rule="nonzero" stroke="#149948" stroke-width="0.96" stroke-linecap="butt" stroke-linejoin="miter"/><path d="M234.46915,155.772c2.865,-0.7376 5.8136,-1.1007 8.772,-1.08c-4.368,0 -13.308,10.908 -16.248,21.6c-1.6404,6.3321 -2.776,12.7843 -3.396,19.296c-2.9841,-0.8052 -5.8637,-1.9571 -8.58,-3.432c1.38,-12 3.972,-19.392 8.688,-26.064c2.9507,-4.0484 6.5949,-7.5424 10.764,-10.32z" id="Shape" fill="#ff7bd0" fill-rule="nonzero" stroke="none" stroke-width="1" stroke-linecap="butt" stroke-linejoin="miter"/><path d="M234.46915,155.772c-4.1769,2.7564 -7.8332,6.2299 -10.8,10.26c-4.716,6.672 -7.308,14.016 -8.688,26.064c-1.4669,-0.8158 -2.8743,-1.7341 -4.212,-2.748c-0.42,-0.348 1.548,-27.768 23.7,-33.576z" id="Shape" fill="#ffa1e2" fill-rule="nonzero" stroke="none" stroke-width="1" stroke-linecap="butt" stroke-linejoin="miter"/><path d="M243.24115,154.692c2.268,0 7.968,12.48 9.804,22.8c1.1593,6.4545 1.8013,12.9913 1.92,19.548c-3.8901,0.4692 -7.8058,0.6936 -11.724,0.672c-6.619,0.1362 -13.2262,-0.6186 -19.644,-2.244c0.62,-6.5117 1.7556,-12.9639 3.396,-19.296c2.94,-10.572 11.856,-21.48 16.248,-21.48z" id="Shape" fill="#ffff4f" fill-rule="nonzero" stroke="none" stroke-width="1" stroke-linecap="butt" stroke-linejoin="miter"/><path d="M243.24115,154.692c30.444,0 32.952,34.26 32.4,34.656c-5.76,4.416 -12.732,6.732 -20.724,7.752c-0.1054,-6.5394 -0.7314,-13.06 -1.872,-19.5c-1.836,-10.428 -7.536,-22.908 -9.804,-22.908z" id="Shape" fill="#149948" fill-rule="nonzero" stroke="none" stroke-width="1" stroke-linecap="butt" stroke-linejoin="miter"/><path d="M243.24115,154.692c30.444,0 32.952,34.26 32.4,34.656c-5.76,4.416 -12.732,6.732 -20.724,7.752c-3.8901,0.4692 -7.8058,0.6936 -11.724,0.672c-6.619,0.1362 -13.2262,-0.6186 -19.644,-2.244c-4.6237,-1.2128 -8.9681,-3.3117 -12.792,-6.18c-0.456,-0.396 2.052,-34.656 32.484,-34.656z" id="Shape" fill="none" fill-rule="evenodd" stroke="#149948" stroke-width="0.96" stroke-linecap="butt" stroke-linejoin="miter"/><path d="M209.83315,204.228c-2.424,-1.284 -3.192,-3.204 -3.024,-4.884" id="Shape" fill="none" fill-rule="evenodd" stroke="#ffffff" stroke-width="1.272" stroke-linecap="round" stroke-linejoin="round"/><path d="M207.43315,197.004c0.2321,-0.5303 0.5348,-1.0268 0.9,-1.476" id="Shape" fill="none" fill-rule="evenodd" stroke="#ffffff" stroke-width="1.272" stroke-linecap="round" stroke-linejoin="round"/><path d="M271.24915,185.076c0,0 0.204,0.924 0.408,2.544" id="Shape" fill="none" fill-rule="evenodd" stroke="#047f30" stroke-width="1.92" stroke-linecap="round" stroke-linejoin="round"/><path d="M266.76115,172.296c1.7085,2.9736 2.9777,6.1788 3.768,9.516" id="Shape" fill="none" fill-rule="evenodd" stroke="#047f30" stroke-width="1.92" stroke-linecap="round" stroke-linejoin="round"/></g><path d="M235.65715,190.272c-1.8224,-0.607 -3.1461,-2.1908 -3.42,-4.092c-0.192,-1.38 -0.048,-4.98 5.568,-6.372c1.2,-0.336 1.68,-0.888 1.74,-1.536c0.06,-0.648 -0.504,-1.032 -0.84,-1.2c-1.08,-0.552 -2.604,0.384 -2.604,0.384c-0.5273,0.3473 -1.1999,0.3868 -1.7643,0.1038c-0.5644,-0.2831 -0.9349,-0.8457 -0.972,-1.476c-0.037,-0.6303 0.265,-1.2325 0.7923,-1.5798c1.8149,-1.2383 4.1362,-1.4645 6.156,-0.6c1.8162,0.8254 2.9166,2.7042 2.748,4.692c-0.356,2.2774 -2.0784,4.1 -4.332,4.584c-3.12,0.852 -2.892,2.124 -2.892,2.544c0.091,0.5743 0.5081,1.043 1.068,1.2c1.154,0.277 2.3662,-0.1117 3.144,-1.008c0.4328,-0.5322 1.1348,-0.7652 1.7999,-0.5975c0.6651,0.1677 1.1726,0.7057 1.3013,1.3795c0.1288,0.6737 -0.1448,1.3609 -0.7012,1.762c-1.2905,1.324 -3.0477,2.0906 -4.896,2.136c-0.6458,-0.0003 -1.2868,-0.1098 -1.896,-0.324z" data-paper-data="{&quot;index&quot;:null}" id="Shape" fill="#ffa1e2" fill-rule="nonzero" stroke="#149948" stroke-width="0.636" stroke-linecap="butt" stroke-linejoin="miter"/></g></g></svg>