<svg xmlns="http://www.w3.org/2000/svg" xmlns:xlink="http://www.w3.org/1999/xlink" version="1.1" width="63.055983662605286" height="159.82848274707794" viewBox="2.664059579372406 -0.3942404091358185 63.055983662605286 159.82848274707794">
  <defs>
    <radialGradient id="grad_1" cx="0.3774" cy="0.428" r="0.80938">
      <stop offset="0" stop-color="#E5E5E5" stop-opacity="1"/>
      <stop offset="1" stop-color="#B2B2B2" stop-opacity="1"/>
    </radialGradient>
    <radialGradient id="grad_2" cx="0.0837" cy="0.2682" r="1.19119">
      <stop offset="0" stop-color="#FFFFFF" stop-opacity="1"/>
      <stop offset="1" stop-color="#666666" stop-opacity="1"/>
    </radialGradient>
    <radialGradient id="grad_3" cx="0.4235" cy="0.3037" r="0.90519">
      <stop offset="0" stop-color="#FFCCF2" stop-opacity="1"/>
      <stop offset="1" stop-color="#CC99FF" stop-opacity="1"/>
    </radialGradient>
    <radialGradient id="grad_4" cx="0.5205" cy="0.2848" r="0.92976">
      <stop offset="0" stop-color="#FFCCF2" stop-opacity="1"/>
      <stop offset="1" stop-color="#CC99FF" stop-opacity="1"/>
    </radialGradient>
    <radialGradient id="grad_5" cx="0.8273999999999999" cy="0.15380000000000002" r="1.10006">
      <stop offset="0" stop-color="#FFD499" stop-opacity="1"/>
      <stop offset="1" stop-color="#FFE9CC" stop-opacity="1"/>
    </radialGradient>
    <radialGradient id="grad_6" cx="0.9470999999999999" cy="0.15380000000000002" r="1.23123">
      <stop offset="0" stop-color="#FFD499" stop-opacity="1"/>
      <stop offset="1" stop-color="#FFE9CC" stop-opacity="1"/>
    </radialGradient>
    <radialGradient id="grad_7" cx="0.4235" cy="0.3037" r="0.90519">
      <stop offset="0" stop-color="#FFCCF2" stop-opacity="1"/>
      <stop offset="1" stop-color="#CC99FF" stop-opacity="1"/>
    </radialGradient>
    <radialGradient id="grad_8" cx="0.5205" cy="0.2848" r="0.92976">
      <stop offset="0" stop-color="#FFCCF2" stop-opacity="1"/>
      <stop offset="1" stop-color="#CC99FF" stop-opacity="1"/>
    </radialGradient>
    <radialGradient id="grad_9" cx="0.2429" cy="0.138" r="1.1206">
      <stop offset="0" stop-color="#FFD499" stop-opacity="1"/>
      <stop offset="1" stop-color="#FFE9CC" stop-opacity="1"/>
    </radialGradient>
    <radialGradient id="grad_10" cx="0.0669" cy="0.138" r="1.21303">
      <stop offset="0" stop-color="#FFD499" stop-opacity="1"/>
      <stop offset="1" stop-color="#FFE9CC" stop-opacity="1"/>
    </radialGradient>
    <radialGradient id="grad_11" cx="0.09789999999999999" cy="0.1091" r="1.17273">
      <stop offset="0" stop-color="#FFCCF2" stop-opacity="1"/>
      <stop offset="1" stop-color="#CC99FF" stop-opacity="1"/>
    </radialGradient>
    <radialGradient id="grad_12" cx="0.08900000000000001" cy="0.0842" r="1.19054">
      <stop offset="0" stop-color="#FFCCF2" stop-opacity="1"/>
      <stop offset="1" stop-color="#CC99FF" stop-opacity="1"/>
    </radialGradient>
    <radialGradient id="grad_13" cx="0.8525" cy="0.48340000000000005" r="1.10825">
      <stop offset="0" stop-color="#00CCCC" stop-opacity="1"/>
      <stop offset="1" stop-color="#99FFFF" stop-opacity="1"/>
    </radialGradient>
    <radialGradient id="grad_14" cx="0.8787" cy="0.48340000000000005" r="1.14231">
      <stop offset="0" stop-color="#00CCCC" stop-opacity="1"/>
      <stop offset="1" stop-color="#99FFFF" stop-opacity="1"/>
    </radialGradient>
  <radialGradient id="grad_1-.275246798992157,0,0,0.275246798992157,-38.5,113.05" cx="12.7043" cy="148.1657" r="11.2538" gradientUnits="userSpaceOnUse">
      <stop offset="0" stop-color="#E5E5E5" stop-opacity="1"/>
      <stop offset="1" stop-color="#B2B2B2" stop-opacity="1"/>
    </radialGradient><radialGradient id="grad_3-1,0,0,1,305.05,-93.25" cx="12.6975" cy="50.288" r="30.604" gradientUnits="userSpaceOnUse">
      <stop offset="0" stop-color="#FFCCF2" stop-opacity="1"/>
      <stop offset="1" stop-color="#CC99FF" stop-opacity="1"/>
    </radialGradient><radialGradient id="grad_5-.0393205881118774,0,0,0.5436568856239319,-233.4,-16" cx="29.9059" cy="108.1659" r="30.3598" gradientUnits="userSpaceOnUse">
      <stop offset="0" stop-color="#FFD499" stop-opacity="1"/>
      <stop offset="1" stop-color="#FFE9CC" stop-opacity="1"/>
    </radialGradient><radialGradient id="grad_7-,0,0,1,-236.15,-93.5" cx="56.2025" cy="50.038" r="30.604" gradientUnits="userSpaceOnUse">
      <stop offset="0" stop-color="#FFCCF2" stop-opacity="1"/>
      <stop offset="1" stop-color="#CC99FF" stop-opacity="1"/>
    </radialGradient><radialGradient id="grad_9-1.0393205881118774,0,0,0.5400999188423157,302.35,-15" cx="46.4554" cy="107.9657" r="30.8833" gradientUnits="userSpaceOnUse">
      <stop offset="0" stop-color="#FFD499" stop-opacity="1"/>
      <stop offset="1" stop-color="#FFE9CC" stop-opacity="1"/>
    </radialGradient><radialGradient id="grad_11-.8213985562324524,0,0,0.7093278765678406,-158.95,-74.25" cx="18.4746" cy="38.4832" r="46.3768" gradientUnits="userSpaceOnUse">
      <stop offset="0" stop-color="#FFCCF2" stop-opacity="1"/>
      <stop offset="1" stop-color="#CC99FF" stop-opacity="1"/>
    </radialGradient><radialGradient id="grad_13-.40114283561706543,0,0,0.3977662920951843,-61.80000000000001,-4.900000000000006" cx="50.2144" cy="88.3213" r="42.7514" gradientUnits="userSpaceOnUse">
      <stop offset="0" stop-color="#00CCCC" stop-opacity="1"/>
      <stop offset="1" stop-color="#99FFFF" stop-opacity="1"/>
    </radialGradient></defs>
  <!-- Exported by Scratch - http://scratch.mit.edu/ -->
  <g id="ID0.9854236710816622">
    <path id="ID0.3515064688399434" fill="#FFFFFF" stroke="#000000" stroke-width="0.7439915734681651" d="M 3.4898 138.9407 L 64.8943 138.9407 L 64.8943 158.6085 L 3.4898 158.6085 L 3.4898 138.9407 Z "/>
    <text id="ID0.9115317738614976" fill="#000000" text-anchor="start" font-family="Sans Serif" font-size="22" transform="matrix(0.612951 0 0 0.612951 23.6259 138.161)" stroke-width="1" alignment-baseline="text-before-edge" xml:space="preserve"><tspan x="0" style="white-space: pre" dy="1.13em">Mary</tspan></text>
    <path id="ID0.25286548025906086" fill="url(#grad_1-.275246798992157,0,0,0.275246798992157,-38.5,113.05)" stroke="url(#grad_2)" stroke-width="1.651480793952942" d="M 14.4506 142.3638 C 16.4156 142.3638 18.1959 143.1232 19.4854 144.3502 C 20.7747 145.5773 21.5726 147.2717 21.5726 149.1417 C 21.5726 151.0118 20.7747 152.7062 19.4854 153.9332 C 18.1959 155.1603 16.4156 155.9197 14.4506 155.9197 C 12.4856 155.9197 10.7053 155.1603 9.4158 153.9332 C 8.1265 152.7062 7.3286 151.0118 7.3286 149.1417 C 7.3286 147.2717 8.1265 145.5773 9.4158 144.3502 C 10.7053 143.1232 12.4856 142.3638 14.4506 142.3638 Z "/>
  </g>
  <g id="ID0.6858774372376502">
    <g id="ID0.5111573790200055">
      <path id="ID0.7297148094512522" fill="#FFDEAE" d="M 6.9163 82.8283 C 6.5345 84.1283 5.6993 85.4663 5.979 86.8622 C 6.4817 89.3707 7.6683 91.7586 9.0814 93.8999 C 9.4225 94.4354 10.4392 94.4807 10.8638 94.0711 C 11.2151 93.7533 10.7942 93.0073 10.6357 92.4388 C 10.2289 91.0902 9.4785 89.876 9.1002 88.4863 C 8.8649 87.6605 8.516 86.7529 8.7475 85.9263 C 9.6446 84.5832 10.4504 84.8 11.1621 84.4222 C 12.8011 84.5391 12.9927 82.6225 13.1855 81.1508 C 13.3684 79.9829 14.1361 78.3415 13.2229 77.5394 C 12.0529 76.4931 9.9977 76.346 8.5125 77.0038 C 7.5511 77.4359 8.035 79.0862 7.7487 80.0819 C 7.4853 81.0003 7.1246 81.8669 6.9163 82.8283 Z " stroke-width="1.0583360625046387"/>
      <path id="ID0.7297148094512522" fill="#FFD499" d="M 12.6094 81.5662 C 11.5632 81.2546 10.6346 82.5014 9.7548 83.1867 C 9.0761 83.7171 8.2586 84.2575 8.0596 85.1495 C 7.8124 86.2724 8.3824 87.4306 8.6789 88.549 C 8.9918 89.7223 9.2691 90.9568 9.9758 91.9602 C 10.3669 92.5646 11.4784 93.4692 11.8152 93.1407 C 12.2199 92.7435 11.6761 91.3197 11.4148 90.4723 C 11.0181 89.1911 10.3964 87.9792 10.0085 86.6956 C 9.8513 86.182 9.6319 85.629 9.8281 85.1717 C 10.0389 84.743 10.5785 84.349 11.0388 84.4569 C 11.543 84.575 11.7652 85.2058 12.0517 85.6397 C 12.5344 86.3709 12.7643 87.2679 13.2845 87.967 C 13.6046 88.3985 13.9748 88.9884 14.4662 88.9461 C 14.9777 88.911 15.4397 88.2987 15.4115 87.8052 C 15.3426 86.6211 14.7429 85.5318 14.2707 84.4546 C 13.8269 83.4409 13.6914 81.8511 12.6094 81.5662 Z " stroke-width="1.0583360625046387"/>
    </g>
    <g id="ID0.716745896730572">
      <path id="ID0.7297148094512522" fill="#FFDEAE" d="M 62.2216 83.1696 C 62.5303 84.4889 63.2896 85.8714 62.9325 87.2496 C 62.2908 89.7261 60.9728 92.0442 59.4425 94.1033 C 59.0721 94.619 58.0545 94.6075 57.6534 94.1748 C 57.3204 93.838 57.7822 93.1166 57.9722 92.5579 C 58.4535 91.234 59.2705 90.0635 59.7257 88.6971 C 60.0066 87.8857 60.4055 86.999 60.2205 86.1607 C 59.3997 84.7697 58.5831 84.9413 57.8936 84.5243 C 56.2506 84.5497 56.1661 82.6254 56.0556 81.1452 C 55.9381 79.969 55.2632 78.2873 56.2197 77.5374 C 57.4461 76.5579 59.5064 76.5256 60.9526 77.2652 C 61.8884 77.7503 61.3133 79.3711 61.5436 80.3812 C 61.7554 81.3128 62.0673 82.1982 62.2216 83.1696 Z " stroke-width="1.058336015007963"/>
      <path id="ID0.7297148094512522" fill="#FFD499" d="M 56.6163 81.584 C 57.6782 81.3312 58.5359 82.6279 59.3762 83.3611 C 60.0242 83.9285 60.8102 84.5137 60.9592 85.4154 C 61.1435 86.5503 60.5097 87.6749 60.1514 88.7751 C 59.7735 89.9291 59.4278 91.1462 58.6663 92.1086 C 58.2421 92.6904 57.0819 93.5315 56.764 93.1848 C 56.382 92.7656 57.0044 91.3744 57.3125 90.5429 C 57.78 89.2858 58.4684 88.1104 58.9272 86.8505 C 59.1127 86.3463 59.3626 85.8065 59.1923 85.3389 C 59.0057 84.8992 58.4889 84.4757 58.0232 84.5578 C 57.5133 84.6476 57.2562 85.265 56.946 85.6823 C 56.4233 86.3854 56.1438 87.2682 55.5854 87.9372 C 55.2418 88.3502 54.8392 88.9186 54.351 88.8489 C 53.8422 88.7853 53.415 88.1482 53.4707 87.6571 C 53.6055 86.4786 54.265 85.4245 54.7966 84.3753 C 55.2962 83.3879 55.5201 81.8082 56.6163 81.584 Z " stroke-width="1.058336015007963"/>
    </g>
    <path id="ID0.33803378930315375" fill="url(#grad_3-1,0,0,1,305.05,-93.25)" stroke="url(#grad_4)" stroke-width="1" stroke-linecap="round" d="M 15.55 62.75 L 17.4 46.4 L 19.05 41.1 L 17.15 36.5 L 14.65 38.25 L 13.85 40.4 L 4.05 78.1 L 15.75 81.9 L 15.55 62.75 Z "/>
    <path id="ID0.47236768435686827" fill="url(#grad_5-.0393205881118774,0,0,0.5436568856239319,-233.4,-16)" stroke="url(#grad_6)" d="M 19.4147 104.3656 L 32.0944 104.3656 L 30.6394 129.0748 L 23.0004 128.7758 L 19.4147 104.3656 Z " stroke-width="0.8293823286517298"/>
    <path id="ID0.8654622961767018" fill="#000000" stroke="#000000" stroke-width="1.2493181250671537" d="M 26.6131 127.2393 C 28.0984 127.2393 29.4447 127.6032 30.4193 128.1914 C 31.3939 128.7797 31.9968 129.5917 31.9968 130.488 C 31.9968 131.3844 31.3939 132.1964 30.4193 132.7846 C 29.4447 133.3729 28.0984 133.7368 26.6131 133.7368 C 25.1278 133.7368 23.7816 133.3729 22.807 132.7846 C 21.8324 132.1964 21.2294 131.3844 21.2294 130.488 C 21.2294 129.5917 21.8324 128.7797 22.807 128.1914 C 23.7816 127.6032 25.1278 127.2393 26.6131 127.2393 Z "/>
    <path id="ID0.33803378930315375" fill="url(#grad_7-,0,0,1,-236.15,-93.5)" stroke="url(#grad_8)" stroke-width="1" stroke-linecap="round" d="M 53.35 62.5 L 51.5 46.15 L 49.85 40.85 L 51.75 36.25 L 54.25 38 L 55.05 40.15 L 64.85 77.85 L 53.15 81.65 L 53.35 62.5 Z "/>
    <path id="ID0.47236768435686827" fill="url(#grad_9-1.0393205881118774,0,0,0.5400999188423157,302.35,-15)" stroke="url(#grad_10)" d="M 49.5353 104.5781 L 36.8556 104.5781 L 38.3106 129.1257 L 45.9496 128.8286 L 49.5353 104.5781 Z " stroke-width="0.8282195382888208"/>
    <path id="ID0.8654622961767018" fill="#000000" stroke="#000000" stroke-width="1.2451160640667225" d="M 42.2369 127.369 C 40.7516 127.369 39.4053 127.7305 38.4307 128.3149 C 37.4561 128.8993 36.8532 129.706 36.8532 130.5965 C 36.8532 131.487 37.4561 132.2937 38.4307 132.8781 C 39.4053 133.4625 40.7516 133.824 42.2369 133.824 C 43.7222 133.824 45.0684 133.4625 46.043 132.8781 C 47.0176 132.2937 47.6206 131.487 47.6206 130.5965 C 47.6206 129.706 47.0176 128.8993 46.043 128.3149 C 45.0684 127.7305 43.7222 127.369 42.2369 127.369 Z "/>
    <path id="ID0.43916446389630437" fill="url(#grad_11-.8213985562324524,0,0,0.7093278765678406,-158.95,-74.25)" stroke="url(#grad_12)" stroke-width="1.5348235238339285" d="M 19.0881 35.1993 L 23.7701 34.3836 L 44.5515 34.2772 L 50.1781 35.1284 L 52.3958 36.5115 L 53.669 38.2849 L 54.4493 41.0512 L 47.6728 72.8291 L 21.1827 72.8291 L 14.5704 41.1222 L 15.1865 38.1785 L 16.7882 36.5115 L 19.0881 35.1993 Z "/>
    <path id="ID0.10144270723685622" fill="url(#grad_13-.40114283561706543,0,0,0.3977662920951843,-61.80000000000001,-4.900000000000006)" stroke="url(#grad_14)" stroke-width="1.5978325261279456" stroke-linecap="round" d="M 21.5775 72.8235 L 47.7321 72.8235 L 56.7377 104.8835 L 12.5117 104.8835 L 21.5775 72.8235 Z "/>
    <g id="ID0.47322673816233873">
      <g id="ID0.3303819177672267">
        <path id="ID0.8757698251865804" fill="#FFFF00" stroke="#FFFF00" stroke-width="0.4608157329393802" d="M 36.0526 24.5352 L 33.359 24.5352 L 33.359 45.8264 L 36.0526 45.8264 L 36.0526 24.5352 Z "/>
        <path id="ID0.4806634387932718" fill="none" stroke="#CCCC00" stroke-width="0.8605594501895221" stroke-linecap="round" d="M 35.8228 25.6863 C 35.8228 25.6863 35.2924 27.7191 35.1369 28.7934 C 35.0753 29.2195 35.1464 29.6755 35.1826 30.11 C 35.2226 30.5903 35.2936 31.0632 35.3655 31.5319 C 35.4308 31.958 35.5436 32.3635 35.5942 32.7958 C 35.686 33.5774 35.8283 34.371 35.7923 35.1657 C 35.7747 35.5538 35.5323 35.8098 35.4418 36.1663 C 35.3482 36.5344 35.2628 36.9241 35.2436 37.3249 C 35.1863 38.5135 35.1512 39.7179 35.2131 40.906 C 35.2338 41.3052 35.4323 41.6227 35.4875 42.0119 C 35.5454 42.4222 35.5567 42.8535 35.5485 43.2758 C 35.5414 43.6318 35.5085 43.9921 35.4418 44.3291 C 35.3851 44.6151 35.1826 45.1191 35.1826 45.1191 "/>
        <path id="ID0.7519200313836336" fill="none" stroke="#FF9400" stroke-width="0.8605594501895221" stroke-linecap="round" d="M 34.5729 25.6336 C 34.5729 25.6336 33.9958 27.4489 33.9175 28.4511 C 33.8723 29.0257 34.1284 29.5534 34.2223 30.11 C 34.3062 30.6061 34.5159 31.1064 34.451 31.6109 C 34.3979 32.0227 33.99 32.077 33.9175 32.4799 C 33.8309 32.9607 33.9812 33.4826 34.0242 33.9808 C 34.0675 34.4826 34.1507 34.9761 34.1766 35.4817 C 34.2016 35.9709 34.1644 36.4654 34.1766 36.9562 C 34.2153 38.5093 34.3516 40.0628 34.329 41.6169 C 34.3159 42.5322 34.1964 43.4401 34.0699 44.3291 C 34.0324 44.5919 33.8413 45.0401 33.8413 45.0401 "/>
      </g>
      <g id="ID0.3303819177672267">
        <path id="ID0.8757698251865804" fill="#FFFF00" stroke="#FFFF00" stroke-width="0.40778786718094556" d="M 16.9974 17.1018 L 19.691 17.1018 L 19.691 35.0473 L 16.9974 35.0473 L 16.9974 17.1018 Z "/>
        <path id="ID0.4806634387932718" fill="none" stroke="#CCCC00" stroke-width="0.761531511251192" stroke-linecap="round" d="M 17.3272 18.0377 C 17.3272 18.0377 17.8576 19.7511 18.0131 20.6566 C 18.0747 21.0157 18.0036 21.4001 17.9674 21.7663 C 17.9274 22.1711 17.8564 22.5697 17.7845 22.9648 C 17.7192 23.3239 17.6064 23.6656 17.5558 24.0301 C 17.464 24.6888 17.3217 25.3577 17.3577 26.0275 C 17.3753 26.3546 17.6177 26.5704 17.7082 26.8709 C 17.8018 27.1811 17.8872 27.5096 17.9064 27.8474 C 17.9637 28.8492 17.9988 29.8644 17.9369 30.8658 C 17.9162 31.2022 17.7177 31.4699 17.6625 31.7979 C 17.6046 32.1437 17.5933 32.5072 17.6015 32.8632 C 17.6086 33.1633 17.6415 33.4669 17.7082 33.751 C 17.7649 33.992 17.9674 34.4168 17.9674 34.4168 "/>
        <path id="ID0.7519200313836336" fill="none" stroke="#995900" stroke-width="0.761531511251192" stroke-linecap="round" d="M 18.5771 17.9933 C 18.5771 17.9933 19.1542 19.5234 19.2325 20.3681 C 19.2777 20.8523 19.0216 21.2971 18.9277 21.7663 C 18.8438 22.1844 18.6341 22.6061 18.699 23.0313 C 18.7521 23.3784 19.16 23.4242 19.2325 23.7637 C 19.3191 24.169 19.1688 24.6089 19.1258 25.0288 C 19.0825 25.4518 18.9993 25.8677 18.9734 26.2938 C 18.9484 26.7062 18.9856 27.123 18.9734 27.5367 C 18.9347 28.8457 18.7984 30.1551 18.821 31.465 C 18.8341 32.2364 18.9536 33.0017 19.0801 33.751 C 19.1176 33.9725 19.3087 34.3502 19.3087 34.3502 "/>
      </g>
      <g id="ID0.3303819177672267">
        <path id="ID0.8757698251865804" fill="#FFFF00" stroke="#FFFF00" stroke-width="0.4103729034436091" d="M 19.8474 22.2459 L 22.541 22.2459 L 22.541 40.3586 L 19.8474 40.3586 L 19.8474 22.2459 Z "/>
        <path id="ID0.4806634387932718" fill="none" stroke="#FF9400" stroke-width="0.7663589718673522" stroke-linecap="round" d="M 20.2272 23.2176 C 20.2272 23.2176 20.7576 24.9469 20.9131 25.8608 C 20.9747 26.2233 20.9036 26.6113 20.8674 26.9809 C 20.8274 27.3894 20.7564 27.7918 20.6845 28.1905 C 20.6192 28.5529 20.5064 28.8979 20.4558 29.2657 C 20.364 29.9306 20.2217 30.6057 20.2577 31.2818 C 20.2753 31.612 20.5177 31.8297 20.6082 32.133 C 20.7018 32.4462 20.7872 32.7777 20.8064 33.1186 C 20.8637 34.1298 20.8988 35.1544 20.8369 36.1651 C 20.8162 36.5047 20.6177 36.7748 20.5625 37.1059 C 20.5046 37.4549 20.4933 37.8218 20.5015 38.1811 C 20.5086 38.484 20.5415 38.7904 20.6082 39.0772 C 20.6649 39.3204 20.8674 39.7492 20.8674 39.7492 "/>
        <path id="ID0.7519200313836336" fill="none" stroke="#CCCC00" stroke-width="0.7663589718673522" stroke-linecap="round" d="M 21.4771 23.1728 C 21.4771 23.1728 22.0542 24.7171 22.1325 25.5696 C 22.1777 26.0584 21.9216 26.5073 21.8277 26.9809 C 21.7438 27.4029 21.5341 27.8285 21.599 28.2577 C 21.6521 28.608 22.06 28.6542 22.1325 28.9969 C 22.2191 29.4059 22.0688 29.8499 22.0258 30.2737 C 21.9825 30.7007 21.8993 31.1205 21.8734 31.5506 C 21.8484 31.9668 21.8856 32.3875 21.8734 32.805 C 21.8347 34.1262 21.6984 35.4478 21.721 36.7699 C 21.7341 37.5486 21.8536 38.3209 21.9801 39.0772 C 22.0176 39.3007 22.2087 39.682 22.2087 39.682 "/>
      </g>
      <g id="ID0.3303819177672267">
        <path id="ID0.8757698251865804" fill="#FFFF00" stroke="#FFFF00" stroke-width="0.46081569646335424" d="M 22.4974 23.0852 L 25.191 23.0852 L 25.191 44.3764 L 22.4974 44.3764 L 22.4974 23.0852 Z "/>
        <path id="ID0.4806634387932718" fill="none" stroke="#995900" stroke-width="0.8605593772374719" stroke-linecap="round" d="M 22.8272 24.1863 C 22.8272 24.1863 23.3576 26.2191 23.5131 27.2934 C 23.5747 27.7195 23.5036 28.1755 23.4674 28.61 C 23.4274 29.0903 23.3564 29.5632 23.2845 30.0319 C 23.2192 30.458 23.1064 30.8635 23.0558 31.2958 C 22.964 32.0774 22.8217 32.871 22.8577 33.6657 C 22.8753 34.0538 23.1177 34.3098 23.2082 34.6663 C 23.3018 35.0344 23.3872 35.4241 23.4064 35.8249 C 23.4637 37.0135 23.4988 38.2179 23.4369 39.406 C 23.4162 39.8052 23.2177 40.1227 23.1625 40.5119 C 23.1046 40.9222 23.0933 41.3535 23.1015 41.7758 C 23.1086 42.1318 23.1415 42.4921 23.2082 42.8291 C 23.2649 43.1151 23.4674 43.619 23.4674 43.619 "/>
        <path id="ID0.7519200313836336" fill="none" stroke="#FF9400" stroke-width="0.8605593772374719" stroke-linecap="round" d="M 24.0771 24.1336 C 24.0771 24.1336 24.6542 25.9489 24.7325 26.9511 C 24.7777 27.5257 24.5216 28.0534 24.4277 28.61 C 24.3438 29.1061 24.1341 29.6064 24.199 30.1109 C 24.2521 30.5227 24.66 30.577 24.7325 30.9799 C 24.8191 31.4607 24.6688 31.9826 24.6258 32.4808 C 24.5825 32.9826 24.4993 33.4761 24.4734 33.9817 C 24.4484 34.4709 24.4856 34.9654 24.4734 35.4562 C 24.4347 37.0093 24.2984 38.5628 24.321 40.1169 C 24.3341 41.0322 24.4536 41.9401 24.5801 42.8291 C 24.6176 43.0919 24.8087 43.5401 24.8087 43.5401 "/>
      </g>
      <g id="ID0.3303819177672267">
        <path id="ID0.8757698251865804" fill="#FFFF00" stroke="#FFFF00" stroke-width="0.46081569646335424" d="M 25.3474 23.4352 L 28.041 23.4352 L 28.041 44.7264 L 25.3474 44.7264 L 25.3474 23.4352 Z "/>
        <path id="ID0.4806634387932718" fill="none" stroke="#CCCC00" stroke-width="0.8605593772374719" stroke-linecap="round" d="M 25.7272 24.5363 C 25.7272 24.5363 26.2576 26.5691 26.4131 27.6434 C 26.4747 28.0695 26.4036 28.5255 26.3674 28.96 C 26.3274 29.4403 26.2564 29.9132 26.1845 30.3819 C 26.1192 30.808 26.0064 31.2135 25.9558 31.6458 C 25.864 32.4274 25.7217 33.221 25.7577 34.0157 C 25.7753 34.4038 26.0177 34.6598 26.1082 35.0163 C 26.2018 35.3844 26.2872 35.7741 26.3064 36.1749 C 26.3637 37.3635 26.3988 38.5679 26.3369 39.756 C 26.3162 40.1552 26.1177 40.4727 26.0625 40.8619 C 26.0046 41.2722 25.9933 41.7035 26.0015 42.1258 C 26.0086 42.4818 26.0415 42.8421 26.1082 43.1791 C 26.1649 43.4651 26.3674 43.969 26.3674 43.969 "/>
        <path id="ID0.7519200313836336" fill="none" stroke="#995900" stroke-width="0.8605593772374719" stroke-linecap="round" d="M 26.9771 24.4836 C 26.9771 24.4836 27.5542 26.2989 27.6325 27.3011 C 27.6777 27.8757 27.4216 28.4034 27.3277 28.96 C 27.2438 29.4561 27.0341 29.9564 27.099 30.4609 C 27.1521 30.8727 27.56 30.927 27.6325 31.3299 C 27.7191 31.8107 27.5688 32.3326 27.5258 32.8308 C 27.4825 33.3326 27.3993 33.8261 27.3734 34.3317 C 27.3484 34.8209 27.3856 35.3154 27.3734 35.8062 C 27.3347 37.3593 27.1984 38.9128 27.221 40.4669 C 27.2341 41.3822 27.3536 42.2901 27.4801 43.1791 C 27.5176 43.4419 27.7087 43.8901 27.7087 43.8901 "/>
      </g>
      <g id="ID0.3303819177672267">
        <path id="ID0.8757698251865804" fill="#FFFF00" stroke="#FFFF00" stroke-width="0.46081569646335424" d="M 28.4474 23.9352 L 31.141 23.9352 L 31.141 45.2264 L 28.4474 45.2264 L 28.4474 23.9352 Z "/>
        <path id="ID0.4806634387932718" fill="none" stroke="#FF9400" stroke-width="0.8605593772374719" stroke-linecap="round" d="M 28.7772 25.0863 C 28.7772 25.0863 29.3076 27.1191 29.4631 28.1934 C 29.5247 28.6195 29.4536 29.0755 29.4174 29.51 C 29.3774 29.9903 29.3064 30.4632 29.2345 30.9319 C 29.1692 31.358 29.0564 31.7635 29.0058 32.1958 C 28.914 32.9774 28.7717 33.771 28.8077 34.5657 C 28.8253 34.9538 29.0677 35.2098 29.1582 35.5663 C 29.2518 35.9344 29.3372 36.3241 29.3564 36.7249 C 29.4137 37.9135 29.4488 39.1179 29.3869 40.306 C 29.3662 40.7052 29.1677 41.0227 29.1125 41.4119 C 29.0546 41.8222 29.0433 42.2535 29.0515 42.6758 C 29.0586 43.0318 29.0915 43.3921 29.1582 43.7291 C 29.2149 44.0151 29.4174 44.519 29.4174 44.519 "/>
        <path id="ID0.7519200313836336" fill="none" stroke="#CCCC00" stroke-width="0.8605593772374719" stroke-linecap="round" d="M 30.0271 25.0336 C 30.0271 25.0336 30.6042 26.8489 30.6825 27.8511 C 30.7277 28.4257 30.4716 28.9534 30.3777 29.51 C 30.2938 30.0061 30.0841 30.5064 30.149 31.0109 C 30.2021 31.4227 30.61 31.477 30.6825 31.8799 C 30.7691 32.3607 30.6188 32.8826 30.5758 33.3808 C 30.5325 33.8826 30.4493 34.3761 30.4234 34.8817 C 30.3984 35.3709 30.4356 35.8654 30.4234 36.3562 C 30.3847 37.9093 30.2484 39.4628 30.271 41.0169 C 30.2841 41.9322 30.4036 42.8401 30.5301 43.7291 C 30.5676 43.9919 30.7587 44.4401 30.7587 44.4401 "/>
      </g>
      <g id="ID0.3303819177672267">
        <path id="ID0.8757698251865804" fill="#FFFF00" stroke="#FFFF00" stroke-width="0.46081569646335424" d="M 31.1974 24.1352 L 33.891 24.1352 L 33.891 45.4264 L 31.1974 45.4264 L 31.1974 24.1352 Z "/>
        <path id="ID0.4806634387932718" fill="none" stroke="#995900" stroke-width="0.8605593772374719" stroke-linecap="round" d="M 31.5272 25.2863 C 31.5272 25.2863 32.0576 27.3191 32.2131 28.3934 C 32.2747 28.8195 32.2036 29.2755 32.1674 29.71 C 32.1274 30.1903 32.0564 30.6632 31.9845 31.1319 C 31.9192 31.558 31.8064 31.9635 31.7558 32.3958 C 31.664 33.1774 31.5217 33.971 31.5577 34.7657 C 31.5753 35.1538 31.8177 35.4098 31.9082 35.7663 C 32.0018 36.1344 32.0872 36.5241 32.1064 36.9249 C 32.1637 38.1135 32.1988 39.3179 32.1369 40.506 C 32.1162 40.9052 31.9177 41.2227 31.8625 41.6119 C 31.8046 42.0222 31.7933 42.4535 31.8015 42.8758 C 31.8086 43.2318 31.8415 43.5921 31.9082 43.9291 C 31.9649 44.2151 32.1674 44.719 32.1674 44.719 "/>
        <path id="ID0.7519200313836336" fill="none" stroke="#CCCC00" stroke-width="0.8605593772374719" stroke-linecap="round" d="M 32.7771 25.2336 C 32.7771 25.2336 33.3542 27.0489 33.4325 28.0511 C 33.4777 28.6257 33.2216 29.1534 33.1277 29.71 C 33.0438 30.2061 32.8341 30.7064 32.899 31.2109 C 32.9521 31.6227 33.36 31.677 33.4325 32.0799 C 33.5191 32.5607 33.3688 33.0826 33.3258 33.5808 C 33.2825 34.0826 33.1993 34.5761 33.1734 35.0817 C 33.1484 35.5709 33.1856 36.0654 33.1734 36.5562 C 33.1347 38.1093 32.9984 39.6628 33.021 41.2169 C 33.0341 42.1322 33.1536 43.0401 33.2801 43.9291 C 33.3176 44.1919 33.5087 44.6401 33.5087 44.6401 "/>
      </g>
      <g id="ID0.3303819177672267">
        <path id="ID0.8757698251865804" fill="#FFFF00" stroke="#FFFF00" stroke-width="0.36239277661776254" d="M 18.5974 9.0947 L 21.291 9.0947 L 21.291 24.0075 L 18.5974 24.0075 L 18.5974 9.0947 Z "/>
        <path id="ID0.4806634387932718" fill="none" stroke="#995900" stroke-width="0.6767575903372622" stroke-linecap="round" d="M 18.9272 9.9324 C 18.9272 9.9324 19.4576 11.3562 19.6131 12.1087 C 19.6747 12.4071 19.6036 12.7265 19.5674 13.0308 C 19.5274 13.3673 19.4564 13.6985 19.3845 14.0268 C 19.3192 14.3252 19.2064 14.6092 19.1558 14.9121 C 19.064 15.4595 18.9217 16.0153 18.9577 16.572 C 18.9753 16.8438 19.2177 17.0231 19.3082 17.2728 C 19.4018 17.5306 19.4872 17.8036 19.5064 18.0843 C 19.5637 18.9168 19.5988 19.7604 19.5369 20.5926 C 19.5162 20.8722 19.3177 21.0946 19.2625 21.3672 C 19.2046 21.6546 19.1933 21.9567 19.2015 22.2525 C 19.2086 22.5018 19.2415 22.7541 19.3082 22.9902 C 19.3649 23.1905 19.5674 23.5435 19.5674 23.5435 "/>
        <path id="ID0.7519200313836336" fill="none" stroke="#CCCC00" stroke-width="0.6767575903372622" stroke-linecap="round" d="M 20.1771 9.8955 C 20.1771 9.8955 20.7542 11.167 20.8325 11.8689 C 20.8777 12.2714 20.6216 12.641 20.5277 13.0308 C 20.4438 13.3783 20.2341 13.7287 20.299 14.0821 C 20.3521 14.3706 20.76 14.4086 20.8325 14.6907 C 20.9191 15.0275 20.7688 15.3931 20.7258 15.742 C 20.6825 16.0935 20.5993 16.4392 20.5734 16.7933 C 20.5484 17.1359 20.5856 17.4823 20.5734 17.8261 C 20.5347 18.9139 20.3984 20.002 20.421 21.0906 C 20.4341 21.7316 20.5536 22.3676 20.6801 22.9902 C 20.7176 23.1743 20.9087 23.4882 20.9087 23.4882 "/>
      </g>
      <g id="ID0.3303819177672267">
        <path id="ID0.8757698251865804" fill="#FFFF00" stroke="#FFFF00" stroke-width="0.43629330802437355" d="M 20.5974 12.5255 L 23.291 12.5255 L 23.291 32.2895 L 20.5974 32.2895 L 20.5974 12.5255 Z "/>
        <path id="ID0.4806634387932718" fill="none" stroke="#FF9400" stroke-width="0.8147645605504814" stroke-linecap="round" d="M 20.9772 13.6501 C 20.9772 13.6501 21.5076 15.5371 21.6631 16.5344 C 21.7247 16.9299 21.6536 17.3532 21.6174 17.7565 C 21.5774 18.2024 21.5064 18.6414 21.4345 19.0765 C 21.3692 19.4719 21.2564 19.8484 21.2058 20.2497 C 21.114 20.9752 20.9717 21.7119 21.0077 22.4496 C 21.0253 22.8099 21.2677 23.0474 21.3582 23.3784 C 21.4518 23.7201 21.5372 24.0819 21.5564 24.4539 C 21.6137 25.5572 21.6488 26.6753 21.5869 27.7781 C 21.5662 28.1487 21.3677 28.4435 21.3125 28.8047 C 21.2546 29.1855 21.2433 29.5859 21.2515 29.978 C 21.2586 30.3085 21.2915 30.6428 21.3582 30.9557 C 21.4149 31.2212 21.6174 31.689 21.6174 31.689 "/>
        <path id="ID0.7519200313836336" fill="none" stroke="#995900" stroke-width="0.8147645605504814" stroke-linecap="round" d="M 22.2271 13.6012 C 22.2271 13.6012 22.8042 15.2863 22.8825 16.2166 C 22.9277 16.75 22.6716 17.2398 22.5777 17.7565 C 22.4938 18.217 22.2841 18.6815 22.349 19.1498 C 22.4021 19.5321 22.81 19.5824 22.8825 19.9564 C 22.9691 20.4027 22.8188 20.8872 22.7758 21.3496 C 22.7325 21.8155 22.6493 22.2736 22.6234 22.7429 C 22.5984 23.197 22.6356 23.6561 22.6234 24.1117 C 22.5847 25.5533 22.4484 26.9955 22.471 28.4381 C 22.4841 29.2877 22.6036 30.1305 22.7301 30.9557 C 22.7676 31.1996 22.9587 31.6157 22.9587 31.6157 "/>
      </g>
      <g id="ID0.3303819177672267">
        <path id="ID0.8757698251865804" fill="#FFFF00" stroke="#FFFF00" stroke-width="0.399839662168126" d="M 23.3474 12.6106 L 26.041 12.6106 L 26.041 30.0389 L 23.3474 30.0389 L 23.3474 12.6106 Z "/>
        <path id="ID0.4806634387932718" fill="none" stroke="#CCCC00" stroke-width="0.7466884953030252" stroke-linecap="round" d="M 23.7272 13.536 C 23.7272 13.536 24.2576 15.2 24.4131 16.0794 C 24.4747 16.4282 24.4036 16.8015 24.3674 17.1571 C 24.3274 17.5503 24.2564 17.9374 24.1845 18.3211 C 24.1192 18.6698 24.0064 19.0017 23.9558 19.3557 C 23.864 19.9954 23.7217 20.645 23.7577 21.2955 C 23.7753 21.6132 24.0177 21.8228 24.1082 22.1146 C 24.2018 22.4159 24.2872 22.7349 24.3064 23.063 C 24.3637 24.0359 24.3988 25.0218 24.3369 25.9943 C 24.3162 26.3211 24.1177 26.5811 24.0625 26.8996 C 24.0046 27.2354 23.9933 27.5885 24.0015 27.9342 C 24.0086 28.2256 24.0415 28.5205 24.1082 28.7964 C 24.1649 29.0305 24.3674 29.443 24.3674 29.443 "/>
        <path id="ID0.7519200313836336" fill="none" stroke="#FF9400" stroke-width="0.7466884953030252" stroke-linecap="round" d="M 24.9771 13.4929 C 24.9771 13.4929 25.5542 14.9789 25.6325 15.7992 C 25.6777 16.2695 25.4216 16.7015 25.3277 17.1571 C 25.2438 17.5632 25.0341 17.9727 25.099 18.3857 C 25.1521 18.7228 25.56 18.7672 25.6325 19.097 C 25.7191 19.4906 25.5688 19.9178 25.5258 20.3256 C 25.4825 20.7364 25.3993 21.1403 25.3734 21.5542 C 25.3484 21.9547 25.3856 22.3594 25.3734 22.7612 C 25.3347 24.0325 25.1984 25.3042 25.221 26.5763 C 25.2341 27.3255 25.3536 28.0687 25.4801 28.7964 C 25.5176 29.0115 25.7087 29.3784 25.7087 29.3784 "/>
      </g>
      <g id="ID0.3303819177672267">
        <path id="ID0.8757698251865804" fill="#FFFF00" stroke="#FFFF00" stroke-width="0.36239277661776254" d="M 26.0974 13.5447 L 28.791 13.5447 L 28.791 28.4575 L 26.0974 28.4575 L 26.0974 13.5447 Z "/>
        <path id="ID0.4806634387932718" fill="none" stroke="#CCCC00" stroke-width="0.6767575903372622" stroke-linecap="round" d="M 26.4272 14.3324 C 26.4272 14.3324 26.9576 15.7562 27.1131 16.5087 C 27.1747 16.8071 27.1036 17.1265 27.0674 17.4308 C 27.0274 17.7673 26.9564 18.0985 26.8845 18.4268 C 26.8192 18.7252 26.7064 19.0092 26.6558 19.3121 C 26.564 19.8595 26.4217 20.4153 26.4577 20.972 C 26.4753 21.2438 26.7177 21.4231 26.8082 21.6728 C 26.9018 21.9306 26.9872 22.2036 27.0064 22.4843 C 27.0637 23.3168 27.0988 24.1604 27.0369 24.9926 C 27.0162 25.2722 26.8177 25.4946 26.7625 25.7672 C 26.7046 26.0546 26.6933 26.3567 26.7015 26.6525 C 26.7086 26.9018 26.7415 27.1541 26.8082 27.3902 C 26.8649 27.5905 27.0674 27.9435 27.0674 27.9435 "/>
        <path id="ID0.7519200313836336" fill="none" stroke="#995900" stroke-width="0.6767575903372622" stroke-linecap="round" d="M 27.6771 14.2955 C 27.6771 14.2955 28.2542 15.567 28.3325 16.2689 C 28.3777 16.6714 28.1216 17.041 28.0277 17.4308 C 27.9438 17.7783 27.7341 18.1287 27.799 18.4821 C 27.8521 18.7706 28.26 18.8086 28.3325 19.0907 C 28.4191 19.4275 28.2688 19.7931 28.2258 20.142 C 28.1825 20.4935 28.0993 20.8392 28.0734 21.1933 C 28.0484 21.5359 28.0856 21.8823 28.0734 22.2261 C 28.0347 23.3139 27.8984 24.402 27.921 25.4906 C 27.9341 26.1316 28.0536 26.7676 28.1801 27.3902 C 28.2176 27.5743 28.4087 27.8882 28.4087 27.8882 "/>
      </g>
      <g id="ID0.3303819177672267">
        <path id="ID0.8757698251865804" fill="#FFFF00" stroke="#FFFF00" stroke-width="0.41648984001991574" d="M 28.8974 13.8675 L 31.591 13.8675 L 31.591 32.3738 L 28.8974 32.3738 L 28.8974 13.8675 Z "/>
        <path id="ID0.4806634387932718" fill="none" stroke="#FF9400" stroke-width="0.7777821968450049" stroke-linecap="round" d="M 29.2772 14.8733 C 29.2772 14.8733 29.8076 16.6402 29.9631 17.574 C 30.0247 17.9443 29.9536 18.3408 29.9174 18.7184 C 29.8774 19.1359 29.8064 19.5469 29.7345 19.9543 C 29.6692 20.3246 29.5564 20.6771 29.5058 21.0529 C 29.414 21.7322 29.2717 22.422 29.3077 23.1128 C 29.3253 23.4501 29.5677 23.6726 29.6582 23.9825 C 29.7518 24.3025 29.8372 24.6412 29.8564 24.9896 C 29.9137 26.0227 29.9488 27.0696 29.8869 28.1022 C 29.8662 28.4492 29.6677 28.7252 29.6125 29.0635 C 29.5546 29.4201 29.5433 29.795 29.5515 30.1621 C 29.5586 30.4716 29.5915 30.7847 29.6582 31.0776 C 29.7149 31.3262 29.9174 31.7642 29.9174 31.7642 "/>
        <path id="ID0.7519200313836336" fill="none" stroke="#995900" stroke-width="0.7777821968450049" stroke-linecap="round" d="M 30.5271 14.8275 C 30.5271 14.8275 31.1042 16.4054 31.1825 17.2765 C 31.2277 17.7759 30.9716 18.2346 30.8777 18.7184 C 30.7938 19.1496 30.5841 19.5845 30.649 20.023 C 30.7021 20.3809 31.11 20.4281 31.1825 20.7783 C 31.2691 21.1962 31.1188 21.6498 31.0758 22.0829 C 31.0325 22.5191 30.9493 22.948 30.9234 23.3874 C 30.8984 23.8127 30.9356 24.2425 30.9234 24.6691 C 30.8847 26.019 30.7484 27.3694 30.771 28.7202 C 30.7841 29.5158 30.9036 30.3049 31.0301 31.0776 C 31.0676 31.306 31.2587 31.6956 31.2587 31.6956 "/>
      </g>
      <g id="ID0.3303819177672267">
        <path id="ID0.8757698251865804" fill="#FFFF00" stroke="#FFFF00" stroke-width="0.36239277661776254" d="M 31.5974 12.1447 L 34.291 12.1447 L 34.291 27.0575 L 31.5974 27.0575 L 31.5974 12.1447 Z "/>
        <path id="ID0.4806634387932718" fill="none" stroke="#CCCC00" stroke-width="0.6767575903372622" stroke-linecap="round" d="M 31.9272 12.9324 C 31.9272 12.9324 32.4576 14.3562 32.6131 15.1087 C 32.6747 15.4071 32.6036 15.7265 32.5674 16.0308 C 32.5274 16.3673 32.4564 16.6985 32.3845 17.0268 C 32.3192 17.3252 32.2064 17.6092 32.1558 17.9121 C 32.064 18.4595 31.9217 19.0153 31.9577 19.572 C 31.9753 19.8438 32.2177 20.0231 32.3082 20.2728 C 32.4018 20.5306 32.4872 20.8036 32.5064 21.0843 C 32.5637 21.9168 32.5988 22.7604 32.5369 23.5926 C 32.5162 23.8722 32.3177 24.0946 32.2625 24.3672 C 32.2046 24.6546 32.1933 24.9567 32.2015 25.2525 C 32.2086 25.5018 32.2415 25.7541 32.3082 25.9902 C 32.3649 26.1905 32.5674 26.5435 32.5674 26.5435 "/>
        <path id="ID0.7519200313836336" fill="none" stroke="#FF9400" stroke-width="0.6767575903372622" stroke-linecap="round" d="M 33.1771 12.8955 C 33.1771 12.8955 33.7542 14.167 33.8325 14.8689 C 33.8777 15.2714 33.6216 15.641 33.5277 16.0308 C 33.4438 16.3783 33.2341 16.7287 33.299 17.0821 C 33.3521 17.3706 33.76 17.4086 33.8325 17.6907 C 33.9191 18.0275 33.7688 18.3931 33.7258 18.742 C 33.6825 19.0935 33.5993 19.4392 33.5734 19.7933 C 33.5484 20.1359 33.5856 20.4823 33.5734 20.8261 C 33.5347 21.9139 33.3984 23.002 33.421 24.0906 C 33.4341 24.7316 33.5536 25.3676 33.6801 25.9902 C 33.7176 26.1743 33.9087 26.4882 33.9087 26.4882 "/>
      </g>
      <g id="ID0.3303819177672267">
        <path id="ID0.8757698251865804" fill="#FFFF00" stroke="#FFFF00" stroke-width="0.29174589800190703" d="M 20.6974 6.0104 L 23.391 6.0104 L 23.391 15.5331 L 20.6974 15.5331 L 20.6974 6.0104 Z "/>
        <path id="ID0.4806634387932718" fill="none" stroke="#CCCC00" stroke-width="0.5448266823975695" stroke-linecap="round" d="M 21.0272 6.596 C 21.0272 6.596 21.5576 7.5052 21.7131 7.9857 C 21.7747 8.1762 21.7036 8.3802 21.6674 8.5745 C 21.6274 8.7893 21.5564 9.0008 21.4845 9.2105 C 21.4192 9.401 21.3064 9.5824 21.2558 9.7758 C 21.164 10.1253 21.0217 10.4803 21.0577 10.8357 C 21.0753 11.0093 21.3177 11.1238 21.4082 11.2832 C 21.5018 11.4479 21.5872 11.6222 21.6064 11.8014 C 21.6637 12.333 21.6988 12.8717 21.6369 13.4031 C 21.6162 13.5816 21.4177 13.7237 21.3625 13.8977 C 21.3046 14.0812 21.2933 14.2741 21.3015 14.463 C 21.3086 14.6223 21.3415 14.7834 21.4082 14.9341 C 21.4649 15.062 21.6674 15.2874 21.6674 15.2874 "/>
        <path id="ID0.7519200313836336" fill="none" stroke="#FF9400" stroke-width="0.5448266823975695" stroke-linecap="round" d="M 22.2771 6.5724 C 22.2771 6.5724 22.8542 7.3843 22.9325 7.8326 C 22.9777 8.0895 22.7216 8.3255 22.6277 8.5745 C 22.5438 8.7964 22.3341 9.0202 22.399 9.2458 C 22.4521 9.43 22.86 9.4543 22.9325 9.6344 C 23.0191 9.8495 22.8688 10.0829 22.8258 10.3057 C 22.7825 10.5302 22.6993 10.7509 22.6734 10.977 C 22.6484 11.1958 22.6856 11.417 22.6734 11.6365 C 22.6347 12.3312 22.4984 13.026 22.521 13.7211 C 22.5341 14.1304 22.6536 14.5365 22.7801 14.9341 C 22.8176 15.0516 23.0087 15.2521 23.0087 15.2521 "/>
      </g>
      <g id="ID0.3303819177672267">
        <path id="ID0.8757698251865804" fill="#FFFF00" stroke="#FFFF00" stroke-width="0.29174589800190703" d="M 23.1474 4.6604 L 25.841 4.6604 L 25.841 14.1831 L 23.1474 14.1831 L 23.1474 4.6604 Z "/>
        <path id="ID0.4806634387932718" fill="none" stroke="#995900" stroke-width="0.5448266823975695" stroke-linecap="round" d="M 23.5272 5.146 C 23.5272 5.146 24.0576 6.0552 24.2131 6.5357 C 24.2747 6.7262 24.2036 6.9302 24.1674 7.1245 C 24.1274 7.3393 24.0564 7.5508 23.9845 7.7605 C 23.9192 7.951 23.8064 8.1324 23.7558 8.3258 C 23.664 8.6753 23.5217 9.0303 23.5577 9.3857 C 23.5753 9.5593 23.8177 9.6738 23.9082 9.8332 C 24.0018 9.9979 24.0872 10.1722 24.1064 10.3514 C 24.1637 10.883 24.1988 11.4217 24.1369 11.9531 C 24.1162 12.1316 23.9177 12.2737 23.8625 12.4477 C 23.8046 12.6312 23.7933 12.8241 23.8015 13.013 C 23.8086 13.1723 23.8415 13.3334 23.9082 13.4841 C 23.9649 13.612 24.1674 13.8374 24.1674 13.8374 "/>
        <path id="ID0.7519200313836336" fill="none" stroke="#CCCC00" stroke-width="0.5448266823975695" stroke-linecap="round" d="M 24.7771 5.1224 C 24.7771 5.1224 25.3542 5.9343 25.4325 6.3826 C 25.4777 6.6395 25.2216 6.8755 25.1277 7.1245 C 25.0438 7.3464 24.8341 7.5702 24.899 7.7958 C 24.9521 7.98 25.36 8.0043 25.4325 8.1844 C 25.5191 8.3995 25.3688 8.6329 25.3258 8.8557 C 25.2825 9.0802 25.1993 9.3009 25.1734 9.527 C 25.1484 9.7458 25.1856 9.967 25.1734 10.1865 C 25.1347 10.8812 24.9984 11.576 25.021 12.2711 C 25.0341 12.6804 25.1536 13.0865 25.2801 13.4841 C 25.3176 13.6016 25.5087 13.8021 25.5087 13.8021 "/>
      </g>
      <g id="ID0.3303819177672267">
        <path id="ID0.8757698251865804" fill="#FFFF00" stroke="#FFFF00" stroke-width="0.32626163270309605" d="M 25.2474 3.7281 L 27.941 3.7281 L 27.941 16.0357 L 25.2474 16.0357 L 25.2474 3.7281 Z "/>
        <path id="ID0.4806634387932718" fill="none" stroke="#995900" stroke-width="0.6092837503902209" stroke-linecap="round" d="M 25.6272 4.3589 C 25.6272 4.3589 26.1576 5.534 26.3131 6.1551 C 26.3747 6.4013 26.3036 6.665 26.2674 6.9161 C 26.2274 7.1938 26.1564 7.4671 26.0845 7.7381 C 26.0192 7.9843 25.9064 8.2188 25.8558 8.4687 C 25.764 8.9205 25.6217 9.3792 25.6577 9.8386 C 25.6753 10.063 25.9177 10.2109 26.0082 10.417 C 26.1018 10.6298 26.1872 10.8551 26.2064 11.0867 C 26.2637 11.7738 26.2988 12.4701 26.2369 13.1568 C 26.2162 13.3876 26.0177 13.5712 25.9625 13.7961 C 25.9046 14.0333 25.8933 14.2826 25.9015 14.5267 C 25.9086 14.7325 25.9415 14.9408 26.0082 15.1356 C 26.0649 15.3009 26.2674 15.5922 26.2674 15.5922 "/>
        <path id="ID0.7519200313836336" fill="none" stroke="#CCCC00" stroke-width="0.6092837503902209" stroke-linecap="round" d="M 26.8771 4.3285 C 26.8771 4.3285 27.4542 5.3779 27.5325 5.9572 C 27.5777 6.2893 27.3216 6.5943 27.2277 6.9161 C 27.1438 7.2029 26.9341 7.4921 26.999 7.7837 C 27.0521 8.0218 27.46 8.0531 27.5325 8.286 C 27.6191 8.564 27.4688 8.8657 27.4258 9.1536 C 27.3825 9.4438 27.2993 9.729 27.2734 10.0213 C 27.2484 10.3041 27.2856 10.5899 27.2734 10.8736 C 27.2347 11.7714 27.0984 12.6695 27.121 13.5678 C 27.1341 14.0969 27.2536 14.6217 27.3801 15.1356 C 27.4176 15.2875 27.6087 15.5466 27.6087 15.5466 "/>
      </g>
      <g id="ID0.3303819177672267">
        <path id="ID0.8757698251865804" fill="#FFFF00" stroke="#FFFF00" stroke-width="0.32745282368961093" d="M 27.4974 1.5787 L 30.191 1.5787 L 30.191 13.9761 L 27.4974 13.9761 L 27.4974 1.5787 Z "/>
        <path id="ID0.4806634387932718" fill="none" stroke="#FF9400" stroke-width="0.6115082734861678" stroke-linecap="round" d="M 27.8772 2.2287 C 27.8772 2.2287 28.4076 3.4124 28.5631 4.0379 C 28.6247 4.286 28.5536 4.5516 28.5174 4.8046 C 28.4774 5.0842 28.4064 5.3596 28.3345 5.6325 C 28.2692 5.8806 28.1564 6.1167 28.1058 6.3685 C 28.014 6.8235 27.8717 7.2856 27.9077 7.7484 C 27.9253 7.9744 28.1677 8.1234 28.2582 8.331 C 28.3518 8.5453 28.4372 8.7723 28.4564 9.0056 C 28.5137 9.6977 28.5488 10.399 28.4869 11.0908 C 28.4662 11.3233 28.2677 11.5082 28.2125 11.7348 C 28.1546 11.9737 28.1433 12.2248 28.1515 12.4707 C 28.1586 12.678 28.1915 12.8878 28.2582 13.084 C 28.3149 13.2505 28.5174 13.544 28.5174 13.544 "/>
        <path id="ID0.7519200313836336" fill="none" stroke="#995900" stroke-width="0.6115082734861678" stroke-linecap="round" d="M 29.1271 2.1981 C 29.1271 2.1981 29.7042 3.2551 29.7825 3.8386 C 29.8277 4.1732 29.5716 4.4804 29.4777 4.8046 C 29.3938 5.0934 29.1841 5.3847 29.249 5.6785 C 29.3021 5.9183 29.71 5.9499 29.7825 6.1845 C 29.8691 6.4644 29.7188 6.7683 29.6758 7.0584 C 29.6325 7.3506 29.5493 7.638 29.5234 7.9324 C 29.4984 8.2172 29.5356 8.5052 29.5234 8.791 C 29.4847 9.6953 29.3484 10.5999 29.371 11.5048 C 29.3841 12.0378 29.5036 12.5664 29.6301 13.084 C 29.6676 13.237 29.8587 13.498 29.8587 13.498 "/>
      </g>
      <g id="ID0.3303819177672267">
        <path id="ID0.8757698251865804" fill="#FFFF00" stroke="#FFFF00" stroke-width="0.3662981873351164" d="M 29.8974 0.9964 L 32.591 0.9964 L 32.591 16.1788 L 29.8974 16.1788 L 29.8974 0.9964 Z "/>
        <path id="ID0.4806634387932718" fill="none" stroke="#FF9400" stroke-width="0.6840507701809969" stroke-linecap="round" d="M 30.1772 1.7917 C 30.1772 1.7917 30.7076 3.2412 30.8631 4.0073 C 30.9247 4.3111 30.8536 4.6363 30.8174 4.9462 C 30.7774 5.2886 30.7064 5.6259 30.6345 5.9601 C 30.5692 6.2639 30.4564 6.5531 30.4058 6.8614 C 30.314 7.4187 30.1717 7.9846 30.2077 8.5513 C 30.2253 8.828 30.4677 9.0105 30.5582 9.2648 C 30.6518 9.5273 30.7372 9.8052 30.7564 10.0909 C 30.8137 10.9385 30.8488 11.7974 30.7869 12.6446 C 30.7662 12.9292 30.5677 13.1557 30.5125 13.4332 C 30.4546 13.7257 30.4433 14.0333 30.4515 14.3345 C 30.4586 14.5883 30.4915 14.8452 30.5582 15.0855 C 30.6149 15.2894 30.8174 15.6488 30.8174 15.6488 "/>
        <path id="ID0.7519200313836336" fill="none" stroke="#CCCC00" stroke-width="0.6840507701809969" stroke-linecap="round" d="M 31.4271 1.7541 C 31.4271 1.7541 32.0042 3.0486 32.0825 3.7632 C 32.1277 4.1729 31.8716 4.5492 31.7777 4.9462 C 31.6938 5.2999 31.4841 5.6567 31.549 6.0164 C 31.6021 6.3101 32.01 6.3488 32.0825 6.6361 C 32.1691 6.9789 32.0188 7.3511 31.9758 7.7063 C 31.9325 8.0642 31.8493 8.4161 31.8234 8.7766 C 31.7984 9.1255 31.8356 9.4781 31.8234 9.8281 C 31.7847 10.9355 31.6484 12.0433 31.671 13.1515 C 31.6841 13.8042 31.8036 14.4516 31.9301 15.0855 C 31.9676 15.2729 32.1587 15.5925 32.1587 15.5925 "/>
      </g>
      <g id="ID0.3303819177672267">
        <path id="ID0.8757698251865804" fill="#FFFF00" stroke="#FFFF00" stroke-width="0.33347241901937963" d="M 31.9974 0.4315 L 34.691 0.4315 L 34.691 13.2782 L 31.9974 13.2782 L 31.9974 0.4315 Z "/>
        <path id="ID0.4806634387932718" fill="none" stroke="#995900" stroke-width="0.6227496878121505" stroke-linecap="round" d="M 32.3272 1.1276 C 32.3272 1.1276 32.8576 2.3541 33.0131 3.0024 C 33.0747 3.2594 33.0036 3.5346 32.9674 3.7968 C 32.9274 4.0865 32.8564 4.3719 32.7845 4.6547 C 32.7192 4.9118 32.6064 5.1564 32.5558 5.4173 C 32.464 5.8889 32.3217 6.3677 32.3577 6.8472 C 32.3753 7.0814 32.6177 7.2358 32.7082 7.451 C 32.8018 7.6731 32.8872 7.9082 32.9064 8.15 C 32.9637 8.8672 32.9988 9.5939 32.9369 10.3108 C 32.9162 10.5516 32.7177 10.7433 32.6625 10.9781 C 32.6046 11.2256 32.5933 11.4859 32.6015 11.7407 C 32.6086 11.9555 32.6415 12.1728 32.7082 12.3762 C 32.7649 12.5488 32.9674 12.8528 32.9674 12.8528 "/>
        <path id="ID0.7519200313836336" fill="none" stroke="#CCCC00" stroke-width="0.6227496878121505" stroke-linecap="round" d="M 33.5771 1.0958 C 33.5771 1.0958 34.1542 2.1911 34.2325 2.7958 C 34.2777 3.1425 34.0216 3.4609 33.9277 3.7968 C 33.8438 4.0961 33.6341 4.398 33.699 4.7024 C 33.7521 4.9508 34.16 4.9836 34.2325 5.2267 C 34.3191 5.5168 34.1688 5.8317 34.1258 6.1323 C 34.0825 6.4351 33.9993 6.7328 33.9734 7.0379 C 33.9484 7.3331 33.9856 7.6315 33.9734 7.9276 C 33.9347 8.8647 33.7984 9.8021 33.821 10.7398 C 33.8341 11.292 33.9536 11.8398 34.0801 12.3762 C 34.1176 12.5348 34.3087 12.8052 34.3087 12.8052 "/>
      </g>
      <g id="ID0.3303819177672267">
        <path id="ID0.8757698251865804" fill="#FFFF00" stroke="#FFFF00" stroke-width="0.4248418077926783" d="M 51.7526 16.9177 L 49.059 16.9177 L 49.059 35.9575 L 51.7526 35.9575 L 51.7526 16.9177 Z "/>
        <path id="ID0.4806634387932718" fill="none" stroke="#CCCC00" stroke-width="0.7933792656343243" stroke-linecap="round" d="M 51.5228 17.9376 C 51.5228 17.9376 50.9924 19.7554 50.8369 20.7161 C 50.7753 21.0971 50.8464 21.505 50.8826 21.8935 C 50.9226 22.323 50.9936 22.7459 51.0655 23.165 C 51.1308 23.546 51.2436 23.9087 51.2942 24.2953 C 51.386 24.9942 51.5283 25.7039 51.4923 26.4145 C 51.4747 26.7616 51.2323 26.9905 51.1418 27.3093 C 51.0482 27.6385 50.9628 27.987 50.9436 28.3454 C 50.8863 29.4083 50.8512 30.4854 50.9131 31.5478 C 50.9338 31.9048 51.1323 32.1888 51.1875 32.5368 C 51.2454 32.9037 51.2567 33.2894 51.2485 33.6671 C 51.2414 33.9854 51.2085 34.3075 51.1418 34.6089 C 51.0851 34.8647 50.8826 35.3154 50.8826 35.3154 "/>
        <path id="ID0.7519200313836336" fill="none" stroke="#FF9400" stroke-width="0.7933792656343243" stroke-linecap="round" d="M 50.2729 17.8905 C 50.2729 17.8905 49.6958 19.5138 49.6175 20.41 C 49.5723 20.9238 49.8284 21.3957 49.9223 21.8935 C 50.0062 22.3371 50.2159 22.7845 50.151 23.2357 C 50.0979 23.604 49.69 23.6525 49.6175 24.0127 C 49.5309 24.4427 49.6812 24.9094 49.7242 25.3549 C 49.7675 25.8037 49.8507 26.245 49.8766 26.6971 C 49.9016 27.1346 49.8644 27.5768 49.8766 28.0158 C 49.9153 29.4046 50.0516 30.7938 50.029 32.1836 C 50.0159 33.0021 49.8964 33.814 49.7699 34.6089 C 49.7324 34.8439 49.5413 35.2447 49.5413 35.2447 "/>
      </g>
      <g id="ID0.3303819177672267">
        <path id="ID0.8757698251865804" fill="#FFFF00" stroke="#FFFF00" stroke-width="0.4131270873540167" d="M 48.8026 22.2958 L 46.109 22.2958 L 46.109 40.5861 L 48.8026 40.5861 L 48.8026 22.2958 Z "/>
        <path id="ID0.4806634387932718" fill="none" stroke="#995900" stroke-width="0.7715024067348702" stroke-linecap="round" d="M 48.6728 23.2555 C 48.6728 23.2555 48.1424 25.0018 47.9869 25.9247 C 47.9253 26.2907 47.9964 26.6824 48.0326 27.0557 C 48.0726 27.4683 48.1436 27.8745 48.2155 28.2772 C 48.2808 28.6432 48.3936 28.9915 48.4442 29.3629 C 48.536 30.0343 48.6783 30.7161 48.6423 31.3988 C 48.6247 31.7322 48.3823 31.952 48.2918 32.2583 C 48.1982 32.5746 48.1128 32.9093 48.0936 33.2536 C 48.0363 34.2747 48.0012 35.3093 48.0631 36.33 C 48.0838 36.6729 48.2823 36.9457 48.3375 37.28 C 48.3954 37.6324 48.4067 38.0029 48.3985 38.3658 C 48.3914 38.6716 48.3585 38.981 48.2918 39.2706 C 48.2351 39.5162 48.0326 39.9492 48.0326 39.9492 "/>
        <path id="ID0.7519200313836336" fill="none" stroke="#CCCC00" stroke-width="0.7715024067348702" stroke-linecap="round" d="M 47.4229 23.2102 C 47.4229 23.2102 46.8458 24.7697 46.7675 25.6306 C 46.7223 26.1242 46.9784 26.5775 47.0723 27.0557 C 47.1562 27.4818 47.3659 27.9116 47.301 28.345 C 47.2479 28.6988 46.84 28.7454 46.7675 29.0915 C 46.6809 29.5045 46.8312 29.9529 46.8742 30.3808 C 46.9175 30.812 47.0007 31.2359 47.0266 31.6702 C 47.0516 32.0905 47.0144 32.5153 47.0266 32.9369 C 47.0653 34.2711 47.2016 35.6057 47.179 36.9407 C 47.1659 37.727 47.0464 38.5069 46.9199 39.2706 C 46.8824 39.4963 46.6913 39.8813 46.6913 39.8813 "/>
      </g>
      <g id="ID0.3303819177672267">
        <path id="ID0.8757698251865804" fill="#FFFF00" stroke="#FFFF00" stroke-width="0.4608157329393802" d="M 46.2526 23.1352 L 43.559 23.1352 L 43.559 44.4264 L 46.2526 44.4264 L 46.2526 23.1352 Z "/>
        <path id="ID0.4806634387932718" fill="none" stroke="#FF9400" stroke-width="0.8605594501895221" stroke-linecap="round" d="M 45.9728 24.2363 C 45.9728 24.2363 45.4424 26.2691 45.2869 27.3434 C 45.2253 27.7695 45.2964 28.2255 45.3326 28.66 C 45.3726 29.1403 45.4436 29.6132 45.5155 30.0819 C 45.5808 30.508 45.6936 30.9135 45.7442 31.3458 C 45.836 32.1274 45.9783 32.921 45.9423 33.7157 C 45.9247 34.1038 45.6823 34.3598 45.5918 34.7163 C 45.4982 35.0844 45.4128 35.4741 45.3936 35.8749 C 45.3363 37.0635 45.3012 38.2679 45.3631 39.456 C 45.3838 39.8552 45.5823 40.1727 45.6375 40.5619 C 45.6954 40.9722 45.7067 41.4035 45.6985 41.8258 C 45.6914 42.1818 45.6585 42.5421 45.5918 42.8791 C 45.5351 43.1651 45.3326 43.6691 45.3326 43.6691 "/>
        <path id="ID0.7519200313836336" fill="none" stroke="#995900" stroke-width="0.8605594501895221" stroke-linecap="round" d="M 44.7229 24.1836 C 44.7229 24.1836 44.1458 25.9989 44.0675 27.0011 C 44.0223 27.5757 44.2784 28.1034 44.3723 28.66 C 44.4562 29.1561 44.6659 29.6564 44.601 30.1609 C 44.5479 30.5727 44.14 30.627 44.0675 31.0299 C 43.9809 31.5107 44.1312 32.0326 44.1742 32.5308 C 44.2175 33.0326 44.3007 33.5261 44.3266 34.0317 C 44.3516 34.5209 44.3144 35.0154 44.3266 35.5062 C 44.3653 37.0593 44.5016 38.6128 44.479 40.1669 C 44.4659 41.0822 44.3464 41.9901 44.2199 42.8791 C 44.1824 43.1419 43.9913 43.5901 43.9913 43.5901 "/>
      </g>
      <g id="ID0.3303819177672267">
        <path id="ID0.8757698251865804" fill="#FFFF00" stroke="#FFFF00" stroke-width="0.4608157329393802" d="M 43.3526 23.4352 L 40.659 23.4352 L 40.659 44.7264 L 43.3526 44.7264 L 43.3526 23.4352 Z "/>
        <path id="ID0.4806634387932718" fill="none" stroke="#FF9400" stroke-width="0.8605594501895221" stroke-linecap="round" d="M 43.1728 24.5863 C 43.1728 24.5863 42.6424 26.6191 42.4869 27.6934 C 42.4253 28.1195 42.4964 28.5755 42.5326 29.01 C 42.5726 29.4903 42.6436 29.9632 42.7155 30.4319 C 42.7808 30.858 42.8936 31.2635 42.9442 31.6958 C 43.036 32.4774 43.1783 33.271 43.1423 34.0657 C 43.1247 34.4538 42.8823 34.7098 42.7918 35.0663 C 42.6982 35.4344 42.6128 35.8241 42.5936 36.2249 C 42.5363 37.4135 42.5012 38.6179 42.5631 39.806 C 42.5838 40.2052 42.7823 40.5227 42.8375 40.9119 C 42.8954 41.3222 42.9067 41.7535 42.8985 42.1758 C 42.8914 42.5318 42.8585 42.8921 42.7918 43.2291 C 42.7351 43.5151 42.5326 44.0191 42.5326 44.0191 "/>
        <path id="ID0.7519200313836336" fill="none" stroke="#CCCC00" stroke-width="0.8605594501895221" stroke-linecap="round" d="M 41.9229 24.5336 C 41.9229 24.5336 41.3458 26.3489 41.2675 27.3511 C 41.2223 27.9257 41.4784 28.4534 41.5723 29.01 C 41.6562 29.5061 41.8659 30.0064 41.801 30.5109 C 41.7479 30.9227 41.34 30.977 41.2675 31.3799 C 41.1809 31.8607 41.3312 32.3826 41.3742 32.8808 C 41.4175 33.3826 41.5007 33.8761 41.5266 34.3817 C 41.5516 34.8709 41.5144 35.3654 41.5266 35.8562 C 41.5653 37.4093 41.7016 38.9628 41.679 40.5169 C 41.6659 41.4322 41.5464 42.3401 41.4199 43.2291 C 41.3824 43.4919 41.1913 43.9401 41.1913 43.9401 "/>
      </g>
      <g id="ID0.3303819177672267">
        <path id="ID0.8757698251865804" fill="#FFFF00" stroke="#FFFF00" stroke-width="0.4608157329393802" d="M 40.3026 23.9852 L 37.609 23.9852 L 37.609 45.2764 L 40.3026 45.2764 L 40.3026 23.9852 Z "/>
        <path id="ID0.4806634387932718" fill="none" stroke="#995900" stroke-width="0.8605594501895221" stroke-linecap="round" d="M 40.0728 25.0863 C 40.0728 25.0863 39.5424 27.1191 39.3869 28.1934 C 39.3253 28.6195 39.3964 29.0755 39.4326 29.51 C 39.4726 29.9903 39.5436 30.4632 39.6155 30.9319 C 39.6808 31.358 39.7936 31.7635 39.8442 32.1958 C 39.936 32.9774 40.0783 33.771 40.0423 34.5657 C 40.0247 34.9538 39.7823 35.2098 39.6918 35.5663 C 39.5982 35.9344 39.5128 36.3241 39.4936 36.7249 C 39.4363 37.9135 39.4012 39.1179 39.4631 40.306 C 39.4838 40.7052 39.6823 41.0227 39.7375 41.4119 C 39.7954 41.8222 39.8067 42.2535 39.7985 42.6758 C 39.7914 43.0318 39.7585 43.3921 39.6918 43.7291 C 39.6351 44.0151 39.4326 44.5191 39.4326 44.5191 "/>
        <path id="ID0.7519200313836336" fill="none" stroke="#FF9400" stroke-width="0.8605594501895221" stroke-linecap="round" d="M 38.8229 25.0336 C 38.8229 25.0336 38.2458 26.8489 38.1675 27.8511 C 38.1223 28.4257 38.3784 28.9534 38.4723 29.51 C 38.5562 30.0061 38.7659 30.5064 38.701 31.0109 C 38.6479 31.4227 38.24 31.477 38.1675 31.8799 C 38.0809 32.3607 38.2312 32.8826 38.2742 33.3808 C 38.3175 33.8826 38.4007 34.3761 38.4266 34.8817 C 38.4516 35.3709 38.4144 35.8654 38.4266 36.3562 C 38.4653 37.9093 38.6016 39.4628 38.579 41.0169 C 38.5659 41.9322 38.4464 42.8401 38.3199 43.7291 C 38.2824 43.9919 38.0913 44.4401 38.0913 44.4401 "/>
      </g>
      <g id="ID0.3303819177672267">
        <path id="ID0.8757698251865804" fill="#FFFF00" stroke="#FFFF00" stroke-width="0.4608157329393802" d="M 37.5026 24.1352 L 34.809 24.1352 L 34.809 45.4264 L 37.5026 45.4264 L 37.5026 24.1352 Z "/>
        <path id="ID0.4806634387932718" fill="none" stroke="#CCCC00" stroke-width="0.8605594501895221" stroke-linecap="round" d="M 37.2728 25.2863 C 37.2728 25.2863 36.7424 27.3191 36.5869 28.3934 C 36.5253 28.8195 36.5964 29.2755 36.6326 29.71 C 36.6726 30.1903 36.7436 30.6632 36.8155 31.1319 C 36.8808 31.558 36.9936 31.9635 37.0442 32.3958 C 37.136 33.1774 37.2783 33.971 37.2423 34.7657 C 37.2247 35.1538 36.9823 35.4098 36.8918 35.7663 C 36.7982 36.1344 36.7128 36.5241 36.6936 36.9249 C 36.6363 38.1135 36.6012 39.3179 36.6631 40.506 C 36.6838 40.9052 36.8823 41.2227 36.9375 41.6119 C 36.9954 42.0222 37.0067 42.4535 36.9985 42.8758 C 36.9914 43.2318 36.9585 43.5921 36.8918 43.9291 C 36.8351 44.2151 36.6326 44.7191 36.6326 44.7191 "/>
        <path id="ID0.7519200313836336" fill="none" stroke="#995900" stroke-width="0.8605594501895221" stroke-linecap="round" d="M 36.0229 25.2336 C 36.0229 25.2336 35.4458 27.0489 35.3675 28.0511 C 35.3223 28.6257 35.5784 29.1534 35.6723 29.71 C 35.7562 30.2061 35.9659 30.7064 35.901 31.2109 C 35.8479 31.6227 35.44 31.677 35.3675 32.0799 C 35.2809 32.5607 35.4312 33.0826 35.4742 33.5808 C 35.5175 34.0826 35.6007 34.5761 35.6266 35.0817 C 35.6516 35.5709 35.6144 36.0654 35.6266 36.5562 C 35.6653 38.1093 35.8016 39.6628 35.779 41.2169 C 35.7659 42.1322 35.6464 43.0401 35.5199 43.9291 C 35.4824 44.1919 35.2913 44.6401 35.2913 44.6401 "/>
      </g>
      <g id="ID0.3303819177672267">
        <path id="ID0.8757698251865804" fill="#FFFF00" stroke="#FFFF00" stroke-width="0.36239277661776254" d="M 50.1526 8.9447 L 47.459 8.9447 L 47.459 23.8575 L 50.1526 23.8575 L 50.1526 8.9447 Z "/>
        <path id="ID0.4806634387932718" fill="none" stroke="#CCCC00" stroke-width="0.6767575903372622" stroke-linecap="round" d="M 49.9728 9.7824 C 49.9728 9.7824 49.4424 11.2062 49.2869 11.9587 C 49.2253 12.2571 49.2964 12.5765 49.3326 12.8808 C 49.3726 13.2173 49.4436 13.5485 49.5155 13.8768 C 49.5808 14.1752 49.6936 14.4592 49.7442 14.7621 C 49.836 15.3095 49.9783 15.8653 49.9423 16.422 C 49.9247 16.6938 49.6823 16.8731 49.5918 17.1228 C 49.4982 17.3806 49.4128 17.6536 49.3936 17.9343 C 49.3363 18.7668 49.3012 19.6104 49.3631 20.4426 C 49.3838 20.7222 49.5823 20.9446 49.6375 21.2172 C 49.6954 21.5046 49.7067 21.8067 49.6985 22.1025 C 49.6914 22.3518 49.6585 22.6041 49.5918 22.8402 C 49.5351 23.0405 49.3326 23.3935 49.3326 23.3935 "/>
        <path id="ID0.7519200313836336" fill="none" stroke="#CCCC00" stroke-width="0.6767575903372622" stroke-linecap="round" d="M 48.7229 9.7455 C 48.7229 9.7455 48.1458 11.017 48.0675 11.7189 C 48.0223 12.1214 48.2784 12.491 48.3723 12.8808 C 48.4562 13.2283 48.6659 13.5787 48.601 13.9321 C 48.5479 14.2206 48.14 14.2586 48.0675 14.5407 C 47.9809 14.8775 48.1312 15.2431 48.1742 15.592 C 48.2175 15.9435 48.3007 16.2892 48.3266 16.6433 C 48.3516 16.9859 48.3144 17.3323 48.3266 17.6761 C 48.3653 18.7639 48.5016 19.852 48.479 20.9406 C 48.4659 21.5816 48.3464 22.2176 48.2199 22.8402 C 48.1824 23.0243 47.9913 23.3382 47.9913 23.3382 "/>
      </g>
      <g id="ID0.3303819177672267">
        <path id="ID0.8757698251865804" fill="#FFFF00" stroke="#FFFF00" stroke-width="0.43629330802437355" d="M 48.1026 12.4255 L 45.409 12.4255 L 45.409 32.1895 L 48.1026 32.1895 L 48.1026 12.4255 Z "/>
        <path id="ID0.4806634387932718" fill="none" stroke="#FF9400" stroke-width="0.8147645605504814" stroke-linecap="round" d="M 47.8728 13.5501 C 47.8728 13.5501 47.3424 15.4371 47.1869 16.4344 C 47.1253 16.8299 47.1964 17.2532 47.2326 17.6565 C 47.2726 18.1024 47.3436 18.5414 47.4155 18.9765 C 47.4808 19.3719 47.5936 19.7484 47.6442 20.1497 C 47.736 20.8752 47.8783 21.6119 47.8423 22.3496 C 47.8247 22.7099 47.5823 22.9474 47.4918 23.2784 C 47.3982 23.6201 47.3128 23.9819 47.2936 24.3539 C 47.2363 25.4572 47.2012 26.5753 47.2631 27.6781 C 47.2838 28.0487 47.4823 28.3435 47.5375 28.7047 C 47.5954 29.0855 47.6067 29.4859 47.5985 29.878 C 47.5914 30.2085 47.5585 30.5428 47.4918 30.8557 C 47.4351 31.1212 47.2326 31.589 47.2326 31.589 "/>
        <path id="ID0.7519200313836336" fill="none" stroke="#CCCC00" stroke-width="0.8147645605504814" stroke-linecap="round" d="M 46.6229 13.5012 C 46.6229 13.5012 46.0458 15.1863 45.9675 16.1166 C 45.9223 16.65 46.1784 17.1398 46.2723 17.6565 C 46.3562 18.117 46.5659 18.5815 46.501 19.0498 C 46.4479 19.4321 46.04 19.4824 45.9675 19.8564 C 45.8809 20.3027 46.0312 20.7872 46.0742 21.2496 C 46.1175 21.7155 46.2007 22.1736 46.2266 22.6429 C 46.2516 23.097 46.2144 23.5561 46.2266 24.0117 C 46.2653 25.4533 46.4016 26.8955 46.379 28.3381 C 46.3659 29.1877 46.2464 30.0305 46.1199 30.8557 C 46.0824 31.0996 45.8913 31.5157 45.8913 31.5157 "/>
      </g>
      <g id="ID0.3303819177672267">
        <path id="ID0.8757698251865804" fill="#FFFF00" stroke="#FFFF00" stroke-width="0.399839662168126" d="M 45.3526 12.3606 L 42.659 12.3606 L 42.659 29.7889 L 45.3526 29.7889 L 45.3526 12.3606 Z "/>
        <path id="ID0.4806634387932718" fill="none" stroke="#995900" stroke-width="0.7466884953030252" stroke-linecap="round" d="M 45.1228 13.436 C 45.1228 13.436 44.5924 15.1 44.4369 15.9794 C 44.3753 16.3282 44.4464 16.7015 44.4826 17.0571 C 44.5226 17.4503 44.5936 17.8374 44.6655 18.2211 C 44.7308 18.5698 44.8436 18.9017 44.8942 19.2557 C 44.986 19.8954 45.1283 20.545 45.0923 21.1955 C 45.0747 21.5132 44.8323 21.7228 44.7418 22.0146 C 44.6482 22.3159 44.5628 22.6349 44.5436 22.963 C 44.4863 23.9359 44.4512 24.9218 44.5131 25.8943 C 44.5338 26.2211 44.7323 26.4811 44.7875 26.7996 C 44.8454 27.1354 44.8567 27.4885 44.8485 27.8342 C 44.8414 28.1256 44.8085 28.4205 44.7418 28.6964 C 44.6851 28.9305 44.4826 29.343 44.4826 29.343 "/>
        <path id="ID0.7519200313836336" fill="none" stroke="#CCCC00" stroke-width="0.7466884953030252" stroke-linecap="round" d="M 43.8729 13.3929 C 43.8729 13.3929 43.2958 14.8789 43.2175 15.6992 C 43.1723 16.1695 43.4284 16.6015 43.5223 17.0571 C 43.6062 17.4632 43.8159 17.8727 43.751 18.2857 C 43.6979 18.6228 43.29 18.6672 43.2175 18.997 C 43.1309 19.3906 43.2812 19.8178 43.3242 20.2256 C 43.3675 20.6364 43.4507 21.0403 43.4766 21.4542 C 43.5016 21.8547 43.4644 22.2594 43.4766 22.6612 C 43.5153 23.9325 43.6516 25.2042 43.629 26.4763 C 43.6159 27.2255 43.4964 27.9687 43.3699 28.6964 C 43.3324 28.9115 43.1413 29.2784 43.1413 29.2784 "/>
      </g>
      <g id="ID0.3303819177672267">
        <path id="ID0.8757698251865804" fill="#FFFF00" stroke="#FFFF00" stroke-width="0.36239277661776254" d="M 42.6526 13.5947 L 39.959 13.5947 L 39.959 28.5075 L 42.6526 28.5075 L 42.6526 13.5947 Z "/>
        <path id="ID0.4806634387932718" fill="none" stroke="#995900" stroke-width="0.6767575903372622" stroke-linecap="round" d="M 42.4228 14.3824 C 42.4228 14.3824 41.8924 15.8062 41.7369 16.5587 C 41.6753 16.8571 41.7464 17.1765 41.7826 17.4808 C 41.8226 17.8173 41.8936 18.1485 41.9655 18.4768 C 42.0308 18.7752 42.1436 19.0592 42.1942 19.3621 C 42.286 19.9095 42.4283 20.4653 42.3923 21.022 C 42.3747 21.2938 42.1323 21.4731 42.0418 21.7228 C 41.9482 21.9806 41.8628 22.2536 41.8436 22.5343 C 41.7863 23.3668 41.7512 24.2104 41.8131 25.0426 C 41.8338 25.3222 42.0323 25.5446 42.0875 25.8172 C 42.1454 26.1046 42.1567 26.4067 42.1485 26.7025 C 42.1414 26.9518 42.1085 27.2041 42.0418 27.4402 C 41.9851 27.6405 41.7826 27.9935 41.7826 27.9935 "/>
        <path id="ID0.7519200313836336" fill="none" stroke="#FF9400" stroke-width="0.6767575903372622" stroke-linecap="round" d="M 41.1729 14.3455 C 41.1729 14.3455 40.5958 15.617 40.5175 16.3189 C 40.4723 16.7214 40.7284 17.091 40.8223 17.4808 C 40.9062 17.8283 41.1159 18.1787 41.051 18.5321 C 40.9979 18.8206 40.59 18.8586 40.5175 19.1407 C 40.4309 19.4775 40.5812 19.8431 40.6242 20.192 C 40.6675 20.5435 40.7507 20.8892 40.7766 21.2433 C 40.8016 21.5859 40.7644 21.9323 40.7766 22.2761 C 40.8153 23.3639 40.9516 24.452 40.929 25.5406 C 40.9159 26.1816 40.7964 26.8176 40.6699 27.4402 C 40.6324 27.6243 40.4413 27.9382 40.4413 27.9382 "/>
      </g>
      <g id="ID0.3303819177672267">
        <path id="ID0.8757698251865804" fill="#FFFF00" stroke="#FFFF00" stroke-width="0.41648984001991574" d="M 39.8026 13.9175 L 37.109 13.9175 L 37.109 32.4238 L 39.8026 32.4238 L 39.8026 13.9175 Z "/>
        <path id="ID0.4806634387932718" fill="none" stroke="#CCCC00" stroke-width="0.7777821968450049" stroke-linecap="round" d="M 39.5728 14.9233 C 39.5728 14.9233 39.0424 16.6902 38.8869 17.624 C 38.8253 17.9943 38.8964 18.3908 38.9326 18.7684 C 38.9726 19.1859 39.0436 19.5969 39.1155 20.0043 C 39.1808 20.3746 39.2936 20.7271 39.3442 21.1029 C 39.436 21.7822 39.5783 22.472 39.5423 23.1628 C 39.5247 23.5001 39.2823 23.7226 39.1918 24.0325 C 39.0982 24.3525 39.0128 24.6912 38.9936 25.0396 C 38.9363 26.0727 38.9012 27.1196 38.9631 28.1522 C 38.9838 28.4992 39.1823 28.7752 39.2375 29.1135 C 39.2954 29.4701 39.3067 29.845 39.2985 30.2121 C 39.2914 30.5216 39.2585 30.8347 39.1918 31.1276 C 39.1351 31.3762 38.9326 31.8142 38.9326 31.8142 "/>
        <path id="ID0.7519200313836336" fill="none" stroke="#995900" stroke-width="0.7777821968450049" stroke-linecap="round" d="M 38.3229 14.8775 C 38.3229 14.8775 37.7458 16.4554 37.6675 17.3265 C 37.6223 17.8259 37.8784 18.2846 37.9723 18.7684 C 38.0562 19.1996 38.2659 19.6345 38.201 20.073 C 38.1479 20.4309 37.74 20.4781 37.6675 20.8283 C 37.5809 21.2462 37.7312 21.6998 37.7742 22.1329 C 37.8175 22.5691 37.9007 22.998 37.9266 23.4374 C 37.9516 23.8627 37.9144 24.2925 37.9266 24.7191 C 37.9653 26.069 38.1016 27.4194 38.079 28.7702 C 38.0659 29.5658 37.9464 30.3549 37.8199 31.1276 C 37.7824 31.356 37.5913 31.7456 37.5913 31.7456 "/>
      </g>
      <g id="ID0.3303819177672267">
        <path id="ID0.8757698251865804" fill="#FFFF00" stroke="#FFFF00" stroke-width="0.29174589800190703" d="M 48.0526 6.0104 L 45.359 6.0104 L 45.359 15.5331 L 48.0526 15.5331 L 48.0526 6.0104 Z "/>
        <path id="ID0.4806634387932718" fill="none" stroke="#995900" stroke-width="0.5448266823975695" stroke-linecap="round" d="M 47.7728 6.596 C 47.7728 6.596 47.2424 7.5052 47.0869 7.9857 C 47.0253 8.1762 47.0964 8.3802 47.1326 8.5745 C 47.1726 8.7893 47.2436 9.0008 47.3155 9.2105 C 47.3808 9.401 47.4936 9.5824 47.5442 9.7758 C 47.636 10.1253 47.7783 10.4803 47.7423 10.8357 C 47.7247 11.0093 47.4823 11.1238 47.3918 11.2832 C 47.2982 11.4479 47.2128 11.6222 47.1936 11.8014 C 47.1363 12.333 47.1012 12.8717 47.1631 13.4031 C 47.1838 13.5816 47.3823 13.7237 47.4375 13.8977 C 47.4954 14.0812 47.5067 14.2741 47.4985 14.463 C 47.4914 14.6223 47.4585 14.7834 47.3918 14.9341 C 47.3351 15.062 47.1326 15.2874 47.1326 15.2874 "/>
        <path id="ID0.7519200313836336" fill="none" stroke="#CCCC00" stroke-width="0.5448266823975695" stroke-linecap="round" d="M 46.5229 6.5724 C 46.5229 6.5724 45.9458 7.3843 45.8675 7.8326 C 45.8223 8.0895 46.0784 8.3255 46.1723 8.5745 C 46.2562 8.7964 46.4659 9.0202 46.401 9.2458 C 46.3479 9.43 45.94 9.4543 45.8675 9.6344 C 45.7809 9.8495 45.9312 10.0829 45.9742 10.3057 C 46.0175 10.5302 46.1007 10.7509 46.1266 10.977 C 46.1516 11.1958 46.1144 11.417 46.1266 11.6365 C 46.1653 12.3312 46.3016 13.026 46.279 13.7211 C 46.2659 14.1304 46.1464 14.5365 46.0199 14.9341 C 45.9824 15.0516 45.7913 15.2521 45.7913 15.2521 "/>
      </g>
      <g id="ID0.3303819177672267">
        <path id="ID0.8757698251865804" fill="#FFFF00" stroke="#FFFF00" stroke-width="0.29174589800190703" d="M 45.5526 4.7604 L 42.859 4.7604 L 42.859 14.2831 L 45.5526 14.2831 L 45.5526 4.7604 Z "/>
        <path id="ID0.4806634387932718" fill="none" stroke="#FF9400" stroke-width="0.5448266823975695" stroke-linecap="round" d="M 45.3228 5.246 C 45.3228 5.246 44.7924 6.1552 44.6369 6.6357 C 44.5753 6.8262 44.6464 7.0302 44.6826 7.2245 C 44.7226 7.4393 44.7936 7.6508 44.8655 7.8605 C 44.9308 8.051 45.0436 8.2324 45.0942 8.4258 C 45.186 8.7753 45.3283 9.1303 45.2923 9.4857 C 45.2747 9.6593 45.0323 9.7738 44.9418 9.9332 C 44.8482 10.0979 44.7628 10.2722 44.7436 10.4514 C 44.6863 10.983 44.6512 11.5217 44.7131 12.0531 C 44.7338 12.2316 44.9323 12.3737 44.9875 12.5477 C 45.0454 12.7312 45.0567 12.9241 45.0485 13.113 C 45.0414 13.2723 45.0085 13.4334 44.9418 13.5841 C 44.8851 13.712 44.6826 13.9374 44.6826 13.9374 "/>
        <path id="ID0.7519200313836336" fill="none" stroke="#995900" stroke-width="0.5448266823975695" stroke-linecap="round" d="M 44.0729 5.2224 C 44.0729 5.2224 43.4958 6.0343 43.4175 6.4826 C 43.3723 6.7395 43.6284 6.9755 43.7223 7.2245 C 43.8062 7.4464 44.0159 7.6702 43.951 7.8958 C 43.8979 8.08 43.49 8.1043 43.4175 8.2844 C 43.3309 8.4995 43.4812 8.7329 43.5242 8.9557 C 43.5675 9.1802 43.6507 9.4009 43.6766 9.627 C 43.7016 9.8458 43.6644 10.067 43.6766 10.2865 C 43.7153 10.9812 43.8516 11.676 43.829 12.3711 C 43.8159 12.7804 43.6964 13.1865 43.5699 13.5841 C 43.5324 13.7016 43.3413 13.9021 43.3413 13.9021 "/>
      </g>
      <g id="ID0.3303819177672267">
        <path id="ID0.8757698251865804" fill="#FFFF00" stroke="#FFFF00" stroke-width="0.32626163270309605" d="M 43.5026 3.8281 L 40.809 3.8281 L 40.809 16.1357 L 43.5026 16.1357 L 43.5026 3.8281 Z "/>
        <path id="ID0.4806634387932718" fill="none" stroke="#CCCC00" stroke-width="0.6092837503902209" stroke-linecap="round" d="M 43.2728 4.4589 C 43.2728 4.4589 42.7424 5.634 42.5869 6.2551 C 42.5253 6.5013 42.5964 6.765 42.6326 7.0161 C 42.6726 7.2938 42.7436 7.5671 42.8155 7.8381 C 42.8808 8.0843 42.9936 8.3188 43.0442 8.5687 C 43.136 9.0205 43.2783 9.4792 43.2423 9.9386 C 43.2247 10.163 42.9823 10.3109 42.8918 10.517 C 42.7982 10.7298 42.7128 10.9551 42.6936 11.1867 C 42.6363 11.8738 42.6012 12.5701 42.6631 13.2568 C 42.6838 13.4876 42.8823 13.6712 42.9375 13.8961 C 42.9954 14.1333 43.0067 14.3826 42.9985 14.6267 C 42.9914 14.8325 42.9585 15.0408 42.8918 15.2356 C 42.8351 15.4009 42.6326 15.6922 42.6326 15.6922 "/>
        <path id="ID0.7519200313836336" fill="none" stroke="#FF9400" stroke-width="0.6092837503902209" stroke-linecap="round" d="M 42.0229 4.4285 C 42.0229 4.4285 41.4458 5.4779 41.3675 6.0572 C 41.3223 6.3893 41.5784 6.6943 41.6723 7.0161 C 41.7562 7.3029 41.9659 7.5921 41.901 7.8837 C 41.8479 8.1218 41.44 8.1531 41.3675 8.386 C 41.2809 8.664 41.4312 8.9657 41.4742 9.2536 C 41.5175 9.5438 41.6007 9.829 41.6266 10.1213 C 41.6516 10.4041 41.6144 10.6899 41.6266 10.9736 C 41.6653 11.8714 41.8016 12.7695 41.779 13.6678 C 41.7659 14.1969 41.6464 14.7217 41.5199 15.2356 C 41.4824 15.3875 41.2913 15.6466 41.2913 15.6466 "/>
      </g>
      <g id="ID0.3303819177672267">
        <path id="ID0.8757698251865804" fill="#FFFF00" stroke="#FFFF00" stroke-width="0.36239277661776254" d="M 37.1026 12.1947 L 34.409 12.1947 L 34.409 27.1075 L 37.1026 27.1075 L 37.1026 12.1947 Z "/>
        <path id="ID0.4806634387932718" fill="none" stroke="#CCCC00" stroke-width="0.6767575903372622" stroke-linecap="round" d="M 36.9228 12.9824 C 36.9228 12.9824 36.3924 14.4062 36.2369 15.1587 C 36.1753 15.4571 36.2464 15.7765 36.2826 16.0808 C 36.3226 16.4173 36.3936 16.7485 36.4655 17.0768 C 36.5308 17.3752 36.6436 17.6592 36.6942 17.9621 C 36.786 18.5095 36.9283 19.0653 36.8923 19.622 C 36.8747 19.8938 36.6323 20.0731 36.5418 20.3228 C 36.4482 20.5806 36.3628 20.8536 36.3436 21.1343 C 36.2863 21.9668 36.2512 22.8104 36.3131 23.6426 C 36.3338 23.9222 36.5323 24.1446 36.5875 24.4172 C 36.6454 24.7046 36.6567 25.0067 36.6485 25.3025 C 36.6414 25.5518 36.6085 25.8041 36.5418 26.0402 C 36.4851 26.2405 36.2826 26.5935 36.2826 26.5935 "/>
        <path id="ID0.7519200313836336" fill="none" stroke="#995900" stroke-width="0.6767575903372622" stroke-linecap="round" d="M 35.6729 12.9455 C 35.6729 12.9455 35.0958 14.217 35.0175 14.9189 C 34.9723 15.3214 35.2284 15.691 35.3223 16.0808 C 35.4062 16.4283 35.6159 16.7787 35.551 17.1321 C 35.4979 17.4206 35.09 17.4586 35.0175 17.7407 C 34.9309 18.0775 35.0812 18.4431 35.1242 18.792 C 35.1675 19.1435 35.2507 19.4892 35.2766 19.8433 C 35.3016 20.1859 35.2644 20.5323 35.2766 20.8761 C 35.3153 21.9639 35.4516 23.052 35.429 24.1406 C 35.4159 24.7816 35.2964 25.4176 35.1699 26.0402 C 35.1324 26.2243 34.9413 26.5382 34.9413 26.5382 "/>
      </g>
      <g id="ID0.3303819177672267">
        <path id="ID0.8757698251865804" fill="#FFFF00" stroke="#FFFF00" stroke-width="0.32745282368961093" d="M 41.2026 1.6787 L 38.509 1.6787 L 38.509 14.0761 L 41.2026 14.0761 L 41.2026 1.6787 Z "/>
        <path id="ID0.4806634387932718" fill="none" stroke="#CCCC00" stroke-width="0.6115082734861678" stroke-linecap="round" d="M 40.9728 2.3287 C 40.9728 2.3287 40.4424 3.5124 40.2869 4.1379 C 40.2253 4.386 40.2964 4.6516 40.3326 4.9046 C 40.3726 5.1842 40.4436 5.4596 40.5155 5.7325 C 40.5808 5.9806 40.6936 6.2167 40.7442 6.4685 C 40.836 6.9235 40.9783 7.3856 40.9423 7.8484 C 40.9247 8.0744 40.6823 8.2234 40.5918 8.431 C 40.4982 8.6453 40.4128 8.8723 40.3936 9.1056 C 40.3363 9.7977 40.3012 10.499 40.3631 11.1908 C 40.3838 11.4233 40.5823 11.6082 40.6375 11.8348 C 40.6954 12.0737 40.7067 12.3248 40.6985 12.5707 C 40.6914 12.778 40.6585 12.9878 40.5918 13.184 C 40.5351 13.3505 40.3326 13.644 40.3326 13.644 "/>
        <path id="ID0.7519200313836336" fill="none" stroke="#995900" stroke-width="0.6115082734861678" stroke-linecap="round" d="M 39.7229 2.2981 C 39.7229 2.2981 39.1458 3.3551 39.0675 3.9386 C 39.0223 4.2732 39.2784 4.5804 39.3723 4.9046 C 39.4562 5.1934 39.6659 5.4847 39.601 5.7785 C 39.5479 6.0183 39.14 6.0499 39.0675 6.2845 C 38.9809 6.5644 39.1312 6.8683 39.1742 7.1584 C 39.2175 7.4506 39.3007 7.738 39.3266 8.0324 C 39.3516 8.3172 39.3144 8.6052 39.3266 8.891 C 39.3653 9.7953 39.5016 10.6999 39.479 11.6048 C 39.4659 12.1378 39.3464 12.6664 39.2199 13.184 C 39.1824 13.337 38.9913 13.598 38.9913 13.598 "/>
      </g>
      <g id="ID0.3303819177672267">
        <path id="ID0.8757698251865804" fill="#FFFF00" stroke="#FFFF00" stroke-width="0.3662981873351164" d="M 38.9026 1.0464 L 36.209 1.0464 L 36.209 16.2288 L 38.9026 16.2288 L 38.9026 1.0464 Z "/>
        <path id="ID0.4806634387932718" fill="none" stroke="#CCCC00" stroke-width="0.6840507701809969" stroke-linecap="round" d="M 38.6728 1.8917 C 38.6728 1.8917 38.1424 3.3412 37.9869 4.1073 C 37.9253 4.4111 37.9964 4.7363 38.0326 5.0462 C 38.0726 5.3886 38.1436 5.7259 38.2155 6.0601 C 38.2808 6.3639 38.3936 6.6531 38.4442 6.9614 C 38.536 7.5187 38.6783 8.0846 38.6423 8.6513 C 38.6247 8.928 38.3823 9.1105 38.2918 9.3648 C 38.1982 9.6273 38.1128 9.9052 38.0936 10.1909 C 38.0363 11.0385 38.0012 11.8974 38.0631 12.7446 C 38.0838 13.0292 38.2823 13.2557 38.3375 13.5332 C 38.3954 13.8257 38.4067 14.1333 38.3985 14.4345 C 38.3914 14.6883 38.3585 14.9452 38.2918 15.1855 C 38.2351 15.3894 38.0326 15.7488 38.0326 15.7488 "/>
        <path id="ID0.7519200313836336" fill="none" stroke="#CCCC00" stroke-width="0.6840507701809969" stroke-linecap="round" d="M 37.4229 1.8541 C 37.4229 1.8541 36.8458 3.1486 36.7675 3.8632 C 36.7223 4.2729 36.9784 4.6492 37.0723 5.0462 C 37.1562 5.3999 37.3659 5.7567 37.301 6.1164 C 37.2479 6.4101 36.84 6.4488 36.7675 6.7361 C 36.6809 7.0789 36.8312 7.4511 36.8742 7.8063 C 36.9175 8.1642 37.0007 8.5161 37.0266 8.8766 C 37.0516 9.2255 37.0144 9.5781 37.0266 9.9281 C 37.0653 11.0355 37.2016 12.1433 37.179 13.2515 C 37.1659 13.9042 37.0464 14.5516 36.9199 15.1855 C 36.8824 15.3729 36.6913 15.6925 36.6913 15.6925 "/>
      </g>
      <g id="ID0.3303819177672267">
        <path id="ID0.8757698251865804" fill="#FFFF00" stroke="#FFFF00" stroke-width="0.33347241901937963" d="M 36.7526 0.5315 L 34.059 0.5315 L 34.059 13.3782 L 36.7526 13.3782 L 36.7526 0.5315 Z "/>
        <path id="ID0.4806634387932718" fill="none" stroke="#995900" stroke-width="0.6227496878121505" stroke-linecap="round" d="M 36.5228 1.2276 C 36.5228 1.2276 35.9924 2.4541 35.8369 3.1024 C 35.7753 3.3594 35.8464 3.6346 35.8826 3.8968 C 35.9226 4.1865 35.9936 4.4719 36.0655 4.7547 C 36.1308 5.0118 36.2436 5.2564 36.2942 5.5173 C 36.386 5.9889 36.5283 6.4677 36.4923 6.9472 C 36.4747 7.1814 36.2323 7.3358 36.1418 7.551 C 36.0482 7.7731 35.9628 8.0082 35.9436 8.25 C 35.8863 8.9672 35.8512 9.6939 35.9131 10.4108 C 35.9338 10.6516 36.1323 10.8433 36.1875 11.0781 C 36.2454 11.3256 36.2567 11.5859 36.2485 11.8407 C 36.2414 12.0555 36.2085 12.2728 36.1418 12.4762 C 36.0851 12.6488 35.8826 12.9528 35.8826 12.9528 "/>
        <path id="ID0.7519200313836336" fill="none" stroke="#FF9400" stroke-width="0.6227496878121505" stroke-linecap="round" d="M 35.2729 1.1958 C 35.2729 1.1958 34.6958 2.2911 34.6175 2.8958 C 34.5723 3.2425 34.8284 3.5609 34.9223 3.8968 C 35.0062 4.1961 35.2159 4.498 35.151 4.8024 C 35.0979 5.0508 34.69 5.0836 34.6175 5.3267 C 34.5309 5.6168 34.6812 5.9317 34.7242 6.2323 C 34.7675 6.5351 34.8507 6.8328 34.8766 7.1379 C 34.9016 7.4331 34.8644 7.7315 34.8766 8.0276 C 34.9153 8.9647 35.0516 9.9021 35.029 10.8398 C 35.0159 11.392 34.8964 11.9398 34.7699 12.4762 C 34.7324 12.6348 34.5413 12.9052 34.5413 12.9052 "/>
      </g>
    </g>
  </g>
</svg>