<svg version="1.1" xmlns="http://www.w3.org/2000/svg" xmlns:xlink="http://www.w3.org/1999/xlink" width="292.60731" height="245.90997" viewBox="0,0,292.60731,245.90997"><g transform="translate(-95.42425,-55.79773)"><g data-paper-data="{&quot;isPaintingLayer&quot;:true}" fill-rule="nonzero" stroke="none" stroke-width="1" stroke-linecap="butt" stroke-linejoin="miter" stroke-miterlimit="10" stroke-dasharray="" stroke-dashoffset="0" style="mix-blend-mode: normal"><path d="M348.09551,270.52487l-0.07968,-214.24298l39.83528,-0.10991l0.07969,214.24298z" fill="#b3b3b3"/><path d="M387.80897,95.62251h-281.92929v-39.74255h281.92929z" fill="#b3b3b3"/><path d="M388.03157,301.7077h-292.60731v-39.74255h292.60731z" fill="#b3b3b3"/><path d="M366.57818,282.41929h-3.41731v-0.72006h3.41731zM359.74434,282.41929h-3.41653v-0.72006h3.41653zM352.91049,282.41929h-3.41731v-0.72006h3.41731zM346.07663,282.41929h-3.41731v-0.72006h3.41731zM339.24277,282.41929h-3.41732v-0.72006h3.41732zM332.40814,282.41929h-3.41654v-0.72006h3.41654zM325.57429,282.41929h-3.41732v-0.72006h3.41732zM318.74044,282.41929h-3.41732v-0.72006h3.41732zM311.90658,282.41929h-3.41653v-0.72006h3.41653zM305.07273,282.41929h-3.41731v-0.72006h3.41731zM298.23887,282.41929h-3.41731v-0.72006h3.41731zM291.40424,282.41929h-3.41653v-0.72006h3.41653zM284.57038,282.41929h-3.41652v-0.72006h3.41652zM277.73654,282.41929h-3.41731v-0.72006h3.41731zM270.90269,282.41929h-3.41732v-0.72006h3.41732zM264.06884,282.41929h-3.41653v-0.72006h3.41653zM257.23497,282.41929h-3.41731v-0.72006h3.41731zM250.40112,282.41929h-3.41731v-0.72006h3.41731zM243.56649,282.41929h-3.41654v-0.72006h3.41654zM236.73265,282.41929h-3.41732v-0.72006h3.41732zM229.89879,282.41929h-3.41732v-0.72006h3.41732zM223.06493,282.41929h-3.41654v-0.72006h3.41654zM216.23108,282.41929h-3.41731v-0.72006h3.41731zM209.39722,282.41929h-3.41732v-0.72006h3.41732zM202.56259,282.41929h-3.41652v-0.72006h3.41652zM195.72873,282.41929h-3.41732v-0.72006h3.41732zM188.8949,282.41929h-3.41732v-0.72006h3.41732zM182.06103,282.41929h-3.41652v-0.72006h3.41652zM175.22717,282.41929h-3.41652v-0.72006h3.41652zM168.39332,282.41929h-3.41732v-0.72006h3.41732zM161.55947,282.41929h-3.41732v-0.72006h3.41732zM154.72484,282.41929h-3.41653v-0.72006h3.41653zM147.89099,282.41929h-3.41732v-0.72006h3.41732zM141.05713,282.41929h-3.41732v-0.72006h3.41732zM134.22327,282.41929h-3.41653v-0.72006h3.41653zM127.38942,282.41929h-3.41732v-0.72006h3.41732zM120.55558,282.41929h-3.41732v-0.72006h3.41732z" fill="#f2e54e"/><path d="M378.41652,292.18511h-3.73236v-0.48004h3.73236zM370.95264,292.18511h-3.73151v-0.48004h3.73151zM363.48876,292.18511h-3.73236v-0.48004h3.73236zM356.02486,292.18511h-3.73236v-0.48004h3.73236zM348.56098,292.18511h-3.73237v-0.48004h3.73237zM341.09623,292.18511h-3.73153v-0.48004h3.73153zM333.63235,292.18511h-3.73237v-0.48004h3.73237zM326.16846,292.18511h-3.73237v-0.48004h3.73237zM318.70457,292.18511h-3.73151v-0.48004h3.73151zM311.24068,292.18511h-3.73236v-0.48004h3.73236zM303.7768,292.18511h-3.73236v-0.48004h3.73236zM296.31205,292.18511h-3.73151v-0.48004h3.73151zM288.84817,292.18511h-3.73151v-0.48004h3.73151zM281.38427,292.18511h-3.73236v-0.48004h3.73236zM273.9204,292.18511h-3.73237v-0.48004h3.73237zM266.45651,292.18511h-3.73151v-0.48004h3.73151zM258.9926,292.18511h-3.73236v-0.48004h3.73236zM251.52872,292.18511h-3.73236v-0.48004h3.73236zM244.06399,292.18511h-3.73153v-0.48004h3.73153zM236.6001,292.18511h-3.73237v-0.48004h3.73237zM229.13622,292.18511h-3.73237v-0.48004h3.73237zM221.67232,292.18511h-3.73153v-0.48004h3.73153zM214.20844,292.18511h-3.73236v-0.48004h3.73236zM206.74455,292.18511h-3.73237v-0.48004h3.73237zM199.2798,292.18511h-3.7315v-0.48004h3.7315zM191.81592,292.18511h-3.73237v-0.48004h3.73237zM184.35203,292.18511h-3.73237v-0.48004h3.73237zM176.88814,292.18511h-3.7315v-0.48004h3.7315zM169.42425,292.18511h-3.7315v-0.48004h3.7315zM161.96036,292.18511h-3.73237v-0.48004h3.73237zM154.49648,292.18511h-3.73237v-0.48004h3.73237zM147.03174,292.18511h-3.73151v-0.48004h3.73151zM139.56785,292.18511h-3.73237v-0.48004h3.73237zM132.10396,292.18511h-3.73237v-0.48004h3.73237zM124.64006,292.18511h-3.73151v-0.48004h3.73151zM117.17619,292.18511h-3.73237v-0.48004h3.73237zM109.7123,292.18511h-3.73237v-0.48004h3.73237z" fill="#f2f2f2"/><path d="M358.31333,272.94623h-3.1777v-0.48004h3.1777zM351.95865,272.94623h-3.17698v-0.48004h3.17698zM345.60397,272.94623h-3.17771v-0.48004h3.17771zM339.24928,272.94623h-3.1777v-0.48004h3.1777zM332.89458,272.94623h-3.17772v-0.48004h3.17772zM326.53918,272.94623h-3.17699v-0.48004h3.17699zM320.18448,272.94623h-3.17772v-0.48004h3.17772zM313.82979,272.94623h-3.17771v-0.48004h3.17771zM307.47511,272.94623h-3.17698v-0.48004h3.17698zM301.12041,272.94623h-3.1777v-0.48004h3.1777zM294.76572,272.94623h-3.1777v-0.48004h3.1777zM288.41031,272.94623h-3.17698v-0.48004h3.17698zM282.05562,272.94623h-3.17697v-0.48004h3.17697zM275.70093,272.94623h-3.1777v-0.48004h3.1777zM269.34624,272.94623h-3.17772v-0.48004h3.17772zM262.99156,272.94623h-3.17698v-0.48004h3.17698zM256.63686,272.94623h-3.1777v-0.48004h3.1777zM250.28216,272.94623h-3.1777v-0.48004h3.1777zM243.92677,272.94623h-3.17699v-0.48004h3.17699zM237.57207,272.94623h-3.17772v-0.48004h3.17772zM231.21738,272.94623h-3.17771v-0.48004h3.17771zM224.8627,272.94623h-3.17699v-0.48004h3.17699zM218.508,272.94623h-3.1777v-0.48004h3.1777zM212.15331,272.94623h-3.17771v-0.48004h3.17771zM205.7979,272.94623h-3.17697v-0.48004h3.17697zM199.44321,272.94623h-3.17771v-0.48004h3.17771zM193.08853,272.94623h-3.17772v-0.48004h3.17772zM186.73383,272.94623h-3.17697v-0.48004h3.17697zM180.37914,272.94623h-3.17697v-0.48004h3.17697zM174.02445,272.94623h-3.17772v-0.48004h3.17772zM167.66975,272.94623h-3.17771v-0.48004h3.17771zM161.31436,272.94623h-3.17698v-0.48004h3.17698zM154.95966,272.94623h-3.17771v-0.48004h3.17771zM148.60496,272.94623h-3.17772v-0.48004h3.17772zM142.25028,272.94623h-3.17698v-0.48004h3.17698zM135.89559,272.94623h-3.17771v-0.48004h3.17771zM129.5409,272.94623h-3.17771v-0.48004h3.17771z" fill="#f2f2f2"/><path d="M377.88151,289.95167l0.00008,-3.0493l0.54486,-0.00266l-0.00009,3.04929zM377.88168,283.85378l0.00009,-3.04858l0.54485,-0.00267l-0.00009,3.0486zM377.88185,277.75588l0.00008,-3.04929l0.54487,-0.00267l-0.00009,3.04929zM377.88202,271.65801l0.00008,-3.04929l0.54486,-0.00267l-0.00009,3.04929zM377.88219,265.56014l0.00009,-3.04929l0.54485,-0.00267l-0.00009,3.04929zM377.88235,259.46156l0.00009,-3.04861l0.54487,-0.00267l-0.00009,3.04862zM377.88253,253.36367l0.00009,-3.04929l0.54485,-0.00267l-0.00009,3.04929zM377.8827,247.26579l0.00008,-3.04929l0.54487,-0.00267l-0.00009,3.04929zM377.88286,241.16792l0.00009,-3.04861l0.54485,-0.00266l-0.00008,3.0486zM377.88304,235.07002l0.00009,-3.04928l0.54485,-0.00267l-0.00009,3.04929zM377.8832,228.97215l0.00009,-3.04929l0.54487,-0.00267l-0.00009,3.04929zM377.88336,222.87357l0.00009,-3.04859l0.54485,-0.00267l-0.00009,3.04857zM377.88354,216.77568l0.00007,-3.04859l0.54486,-0.00266l-0.00008,3.04858zM377.8837,210.67778l0.00009,-3.04928l0.54487,-0.00267l-0.00008,3.04929zM377.88388,204.57991l0.00009,-3.04929l0.54486,-0.00267l-0.00008,3.0493zM377.88404,198.48202l0.00009,-3.04858l0.54486,-0.00267l-0.00008,3.04859zM377.88421,192.38415l0.00009,-3.04929l0.54487,-0.00266l-0.00009,3.04929zM377.88439,186.28627l0.00008,-3.04929l0.54487,-0.00267l-0.00008,3.04929zM377.88455,180.18769l0.00009,-3.04858l0.54486,-0.00267l-0.00009,3.04859zM377.88472,174.08979l0.00009,-3.04929l0.54485,-0.00266l-0.00009,3.04929zM377.88489,167.99192l0.00009,-3.04929l0.54485,-0.00266l-0.00008,3.04929zM377.88506,161.89405l0.00009,-3.0486l0.54485,-0.00266l-0.00009,3.0486zM377.88523,155.79616l0.00008,-3.0493l0.54486,-0.00267l-0.00008,3.04929zM377.8854,149.69828l0.00009,-3.04929l0.54485,-0.00267l-0.00009,3.04928zM377.88557,143.59971l0.00009,-3.04859l0.54485,-0.00267l-0.00009,3.04859zM377.88574,137.50181l0.00009,-3.04929l0.54485,-0.00267l-0.00008,3.04928zM377.8859,131.40392l0.00008,-3.04929l0.54487,-0.00267l-0.00009,3.04931zM377.88608,125.30605l0.00008,-3.04859l0.54487,-0.00266l-0.00009,3.04858zM377.88625,119.20817l0.00009,-3.04859l0.54486,-0.00266l-0.00008,3.04858zM377.88642,113.11029l0.00008,-3.04929l0.54487,-0.00267l-0.00009,3.04929zM377.88657,107.0124l0.00009,-3.04929l0.54487,-0.00267l-0.00009,3.04929zM377.88675,100.91382l0.00009,-3.0486l0.54485,-0.00266l-0.00008,3.04859zM377.88692,94.81594l0.00008,-3.04928l0.54487,-0.00267l-0.00009,3.04929zM377.88708,88.71807l0.00009,-3.04929l0.54487,-0.00267l-0.00008,3.04929zM377.88726,82.62017l0.00009,-3.04859l0.54486,-0.00267l-0.00009,3.0486zM377.88742,76.5223l0.00009,-3.04929l0.54485,-0.00267l-0.00008,3.04929zM377.8876,70.42439l0.00009,-3.04929l0.54487,-0.00266l-0.00009,3.04929z" fill="#f2f2f2"/><path d="M358.67839,271.62523l0.00007,-2.53173l0.4719,-0.0022l-0.00008,2.53172zM358.67854,266.56235l0.00008,-2.53113l0.4719,-0.00222l-0.00008,2.53115zM358.67869,261.49947l0.00007,-2.53172l0.4719,-0.00222l-0.00008,2.53172zM358.67883,256.43662l0.00007,-2.53172l0.4719,-0.00222l-0.00008,2.53172zM358.67897,251.37376l0.00008,-2.53173l0.4719,-0.00222l-0.00008,2.53173zM358.67912,246.31032l0.00008,-2.53115l0.47191,-0.00222l-0.00008,2.53116zM358.67927,241.24745l0.00008,-2.53173l0.4719,-0.00222l-0.00008,2.53173zM358.67942,236.18458l0.00007,-2.53173l0.47191,-0.00222l-0.00008,2.53173zM358.67956,231.12172l0.00008,-2.53115l0.4719,-0.0022l-0.00007,2.53115zM358.67971,226.05885l0.00008,-2.53171l0.47189,-0.00222l-0.00008,2.53173zM358.67985,220.99599l0.00008,-2.53173l0.47191,-0.00222l-0.00008,2.53173zM358.68,215.93254l0.00008,-2.53114l0.4719,-0.00222l-0.00008,2.53113zM358.68015,210.86968l0.00006,-2.53114l0.4719,-0.0022l-0.00007,2.53113zM358.68029,205.8068l0.00008,-2.53171l0.4719,-0.00222l-0.00007,2.53173zM358.68044,200.74394l0.00008,-2.53173l0.4719,-0.00222l-0.00007,2.53173zM358.68058,195.68107l0.00008,-2.53113l0.4719,-0.00222l-0.00007,2.53114zM358.68073,190.61822l0.00008,-2.53173l0.4719,-0.0022l-0.00008,2.53173zM358.68088,185.55535l0.00006,-2.53173l0.47191,-0.00222l-0.00007,2.53173zM358.68103,180.49191l0.00008,-2.53113l0.4719,-0.00222l-0.00008,2.53114zM358.68117,175.42903l0.00008,-2.53173l0.4719,-0.0022l-0.00008,2.53173zM358.68131,170.36617l0.00008,-2.53173l0.4719,-0.0022l-0.00007,2.53173zM358.68147,165.30332l0.00008,-2.53115l0.4719,-0.0022l-0.00008,2.53115zM358.68161,160.24044l0.00007,-2.53173l0.4719,-0.00222l-0.00007,2.53173zM358.68175,155.17759l0.00008,-2.53173l0.4719,-0.00222l-0.00008,2.53171zM358.6819,150.11415l0.00008,-2.53114l0.4719,-0.00222l-0.00008,2.53114zM358.68205,145.05126l0.00008,-2.53173l0.4719,-0.00222l-0.00007,2.53171zM358.68219,139.9884l0.00007,-2.53173l0.4719,-0.00222l-0.00008,2.53174zM358.68234,134.92554l0.00007,-2.53114l0.47191,-0.0022l-0.00008,2.53113zM358.68249,129.86267l0.00008,-2.53114l0.4719,-0.0022l-0.00007,2.53113zM358.68264,124.79981l0.00007,-2.53172l0.4719,-0.00222l-0.00008,2.53172zM358.68278,119.73695l0.00008,-2.53173l0.47191,-0.00222l-0.00008,2.53173zM358.68293,114.6735l0.00008,-2.53115l0.47189,-0.0022l-0.00007,2.53114zM358.68308,109.61063l0.00007,-2.53171l0.4719,-0.00222l-0.00008,2.53173zM358.68322,104.54777l0.00008,-2.53172l0.4719,-0.00222l-0.00007,2.53172zM358.68337,99.4849l0.00008,-2.53114l0.4719,-0.00222l-0.00008,2.53115zM358.68351,94.42205l0.00008,-2.53173l0.47189,-0.00222l-0.00007,2.53173zM358.68366,89.35916l0.00008,-2.53172l0.4719,-0.0022l-0.00008,2.53172z" fill="#f2f2f2"/><path d="M367.68211,282.03864l0.0001,-2.82247l0.70058,-0.00246l-0.00011,2.82246zM367.68233,276.39437l0.00011,-2.82179l0.70057,-0.00247l-0.00011,2.82182zM367.68255,270.75009l0.00011,-2.82246l0.70057,-0.00247l-0.00011,2.82246zM367.68277,265.10585l0.0001,-2.82246l0.70058,-0.00247l-0.00011,2.82246zM367.68298,259.46158l0.00011,-2.82246l0.70057,-0.00247l-0.00011,2.82246zM367.6832,253.81669l0.00011,-2.82182l0.70058,-0.00247l-0.00011,2.82183zM367.68342,248.17243l0.00011,-2.82246l0.70057,-0.00247l-0.00011,2.82246zM367.68364,242.52815l0.00011,-2.82246l0.70058,-0.00247l-0.00011,2.82246zM367.68385,236.8839l0.00011,-2.82182l0.70057,-0.00246l-0.0001,2.82182zM367.68407,231.23963l0.00011,-2.82244l0.70056,-0.00247l-0.00011,2.82246zM367.68429,225.59538l0.00011,-2.82246l0.70058,-0.00247l-0.00011,2.82246zM367.6845,219.95047l0.00011,-2.82181l0.70057,-0.00247l-0.00011,2.82179zM367.68472,214.30621l0.0001,-2.82181l0.70057,-0.00246l-0.00011,2.82179zM367.68494,208.66194l0.00011,-2.82244l0.70058,-0.00247l-0.00011,2.82246zM367.68516,203.01768l0.00011,-2.82246l0.70057,-0.00247l-0.0001,2.82246zM367.68537,197.37342l0.00011,-2.82179l0.70057,-0.00247l-0.00011,2.82181zM367.68559,191.72917l0.00011,-2.82246l0.70058,-0.00246l-0.00011,2.82246zM367.68581,186.08491l0.0001,-2.82246l0.70058,-0.00247l-0.0001,2.82246zM367.68603,180.44001l0.00011,-2.82179l0.70057,-0.00247l-0.00011,2.82181zM367.68624,174.79572l0.00011,-2.82246l0.70057,-0.00246l-0.00011,2.82246zM367.68646,169.15148l0.00011,-2.82246l0.70057,-0.00246l-0.00011,2.82246zM367.68668,163.50723l0.00011,-2.82182l0.70057,-0.00246l-0.00011,2.82182zM367.68689,157.86295l0.00011,-2.82246l0.70057,-0.00247l-0.0001,2.82246zM367.68711,152.2187l0.00011,-2.82246l0.70057,-0.00247l-0.00011,2.82244zM367.68733,146.57381l0.00011,-2.82181l0.70057,-0.00247l-0.00011,2.82181zM367.68755,140.92952l0.00011,-2.82246l0.70057,-0.00247l-0.00011,2.82244zM367.68776,135.28526l0.0001,-2.82246l0.70058,-0.00247l-0.00011,2.82247zM367.68798,129.64101l0.00011,-2.82181l0.70058,-0.00246l-0.00011,2.82179zM367.6882,123.99675l0.00011,-2.82181l0.70058,-0.00246l-0.00011,2.82179zM367.68842,118.35249l0.0001,-2.82246l0.70058,-0.00247l-0.00011,2.82246zM367.68863,112.70823l0.00011,-2.82246l0.70058,-0.00247l-0.00011,2.82246zM367.68885,107.06332l0.00011,-2.82182l0.70056,-0.00246l-0.0001,2.82181zM367.68907,101.41906l0.00011,-2.82244l0.70057,-0.00247l-0.00011,2.82246zM367.68928,95.77481l0.00011,-2.82246l0.70058,-0.00247l-0.00011,2.82246zM367.6895,90.13054l0.00011,-2.82181l0.70057,-0.00247l-0.00011,2.82182zM367.68972,84.48629l0.00012,-2.82246l0.70056,-0.00247l-0.00011,2.82246zM367.68994,78.842l0.00011,-2.82246l0.70058,-0.00246l-0.00011,2.82246z" fill="#f2e54e"/><path d="M95.99138,270.15062l-0.07968,-214.24298l39.83528,-0.10991l0.07969,214.24298z" fill="#b3b3b3"/><path d="M126.09614,271.62527l-0.00007,-2.53827l-0.51068,-0.00221l0.00008,2.53826zM126.09598,266.54932l-0.00008,-2.53767l-0.51067,-0.00223l0.00008,2.53769zM126.09582,261.47336l-0.00008,-2.53826l-0.51068,-0.00222l0.00009,2.53826zM126.09566,256.39742l-0.00007,-2.53826l-0.51068,-0.00222l0.00008,2.53826zM126.09551,251.32148l-0.00008,-2.53826l-0.51067,-0.00223l0.00008,2.53827zM126.09535,246.24496l-0.00008,-2.53769l-0.51069,-0.00222l0.00008,2.5377zM126.09519,241.16901l-0.00008,-2.53827l-0.51067,-0.00222l0.00008,2.53826zM126.09502,236.09306l-0.00007,-2.53826l-0.51068,-0.00222l0.00008,2.53827zM126.09487,231.01712l-0.00008,-2.53769l-0.51067,-0.00221l0.00008,2.53769zM126.09471,225.94116l-0.00008,-2.53825l-0.51067,-0.00222l0.00008,2.53827zM126.09455,220.86522l-0.00008,-2.53826l-0.51068,-0.00222l0.00008,2.53827zM126.0944,215.7887l-0.00008,-2.53768l-0.51067,-0.00222l0.00008,2.53766zM126.09423,210.71275l-0.00007,-2.53768l-0.51068,-0.00221l0.00008,2.53767zM126.09408,205.63679l-0.00008,-2.53826l-0.51068,-0.00222l0.00007,2.53827zM126.09392,200.56085l-0.00008,-2.53827l-0.51068,-0.00223l0.00007,2.53827zM126.09377,195.4849l-0.00008,-2.53767l-0.51068,-0.00222l0.00007,2.53768zM126.0936,190.40897l-0.00008,-2.53827l-0.51068,-0.00221l0.00008,2.53827zM126.09344,185.33302l-0.00007,-2.53827l-0.51069,-0.00222l0.00008,2.53827zM126.09328,180.2565l-0.00008,-2.53767l-0.51068,-0.00222l0.00008,2.53768zM126.09313,175.18053l-0.00008,-2.53826l-0.51067,-0.00221l0.00008,2.53826zM126.09297,170.10459l-0.00008,-2.53826l-0.51067,-0.00221l0.00007,2.53826zM126.09281,165.02866l-0.00008,-2.53769l-0.51067,-0.00221l0.00008,2.53769zM126.09265,159.95271l-0.00007,-2.53827l-0.51068,-0.00222l0.00007,2.53827zM126.0925,154.87677l-0.00008,-2.53827l-0.51067,-0.00222l0.00008,2.53826zM126.09233,149.80025l-0.00008,-2.53768l-0.51067,-0.00222l0.00008,2.53768zM126.09218,144.72429l-0.00008,-2.53827l-0.51067,-0.00223l0.00008,2.53825zM126.09202,139.64834l-0.00007,-2.53827l-0.51068,-0.00222l0.00008,2.53828zM126.09185,134.5724l-0.00007,-2.53768l-0.51068,-0.00221l0.00008,2.53767zM126.0917,129.49646l-0.00008,-2.53768l-0.51068,-0.00221l0.00007,2.53767zM126.09154,124.42051l-0.00007,-2.53826l-0.51068,-0.00223l0.00008,2.53826zM126.09139,119.34456l-0.00008,-2.53827l-0.51069,-0.00222l0.00008,2.53826zM126.09123,114.26803l-0.00008,-2.53769l-0.51067,-0.00221l0.00008,2.53768zM126.09107,109.19209l-0.00007,-2.53825l-0.51068,-0.00222l0.00008,2.53827zM126.09092,104.11615l-0.00008,-2.53826l-0.51068,-0.00223l0.00007,2.53826zM126.09075,99.04019l-0.00008,-2.53768l-0.51068,-0.00222l0.00008,2.53769zM126.09059,93.96426l-0.00008,-2.53826l-0.51067,-0.00222l0.00007,2.53827zM126.09043,88.88829l-0.00008,-2.53826l-0.51068,-0.00221l0.00008,2.53826z" fill="#f2f2f2"/><path d="M105.58263,291.89057l0.00009,-3.07958l0.62595,-0.00268l-0.0001,3.07956zM105.58283,285.73214l0.0001,-3.07885l0.62594,-0.0027l-0.0001,3.07887zM105.58303,279.57369l0.00009,-3.07956l0.62595,-0.00269l-0.00011,3.07956zM105.58322,273.41527l0.00009,-3.07956l0.62595,-0.00269l-0.0001,3.07956zM105.58341,267.25685l0.0001,-3.07957l0.62594,-0.0027l-0.0001,3.07957zM105.5836,261.09773l0.0001,-3.07888l0.62596,-0.00269l-0.00011,3.07889zM105.5838,254.93929l0.0001,-3.07957l0.62594,-0.00269l-0.0001,3.07957zM105.584,248.78086l0.00009,-3.07957l0.62595,-0.00269l-0.0001,3.07957zM105.58419,242.62244l0.0001,-3.07888l0.62594,-0.00268l-0.00009,3.07887zM105.58439,236.464l0.0001,-3.07956l0.62593,-0.00269l-0.0001,3.07957zM105.58458,230.30558l0.0001,-3.07957l0.62595,-0.00269l-0.0001,3.07957zM105.58477,224.14645l0.00011,-3.07886l0.62594,-0.00269l-0.0001,3.07884zM105.58497,217.98802l0.00008,-3.07886l0.62595,-0.00268l-0.00009,3.07885zM105.58516,211.82957l0.0001,-3.07956l0.62595,-0.00269l-0.00009,3.07957zM105.58536,205.67115l0.0001,-3.07957l0.62595,-0.0027l-0.00009,3.07958zM105.58554,199.51272l0.0001,-3.07885l0.62595,-0.00269l-0.00009,3.07886zM105.58574,193.3543l0.0001,-3.07957l0.62595,-0.00268l-0.0001,3.07957zM105.58594,187.19587l0.00009,-3.07957l0.62596,-0.00269l-0.00009,3.07957zM105.58613,181.03674l0.0001,-3.07885l0.62595,-0.00269l-0.0001,3.07886zM105.58632,174.87829l0.0001,-3.07957l0.62594,-0.00268l-0.0001,3.07957zM105.58652,168.71988l0.0001,-3.07957l0.62594,-0.00268l-0.00009,3.07957zM105.58672,162.56146l0.0001,-3.07887l0.62594,-0.00268l-0.0001,3.07887zM105.58691,156.40303l0.00009,-3.07958l0.62595,-0.00269l-0.00009,3.07957zM105.5871,150.24461l0.0001,-3.07957l0.62594,-0.00269l-0.0001,3.07956zM105.5873,144.08548l0.0001,-3.07886l0.62594,-0.00269l-0.0001,3.07886zM105.58749,137.92703l0.0001,-3.07957l0.62594,-0.0027l-0.00009,3.07956zM105.58768,131.7686l0.00009,-3.07957l0.62595,-0.00269l-0.0001,3.07958zM105.58788,125.61018l0.00009,-3.07886l0.62595,-0.00268l-0.0001,3.07885zM105.58807,119.45175l0.0001,-3.07886l0.62595,-0.00268l-0.00009,3.07885zM105.58827,113.29333l0.00009,-3.07956l0.62595,-0.0027l-0.0001,3.07956zM105.58845,107.1349l0.0001,-3.07957l0.62596,-0.00269l-0.0001,3.07957zM105.58865,100.97576l0.0001,-3.07887l0.62594,-0.00268l-0.00009,3.07886zM105.58885,94.81733l0.00009,-3.07956l0.62595,-0.00269l-0.0001,3.07957zM105.58904,88.65891l0.0001,-3.07956l0.62595,-0.0027l-0.00009,3.07956zM105.58924,82.50047l0.0001,-3.07886l0.62595,-0.00269l-0.0001,3.07887zM105.58943,76.34206l0.00011,-3.07957l0.62593,-0.00269l-0.00009,3.07957zM105.58963,70.1836l0.0001,-3.07956l0.62595,-0.00268l-0.0001,3.07956z" fill="#f2f2f2"/><path d="M115.57798,281.66439l0.0001,-2.82246l0.70058,-0.00246l-0.00011,2.82246zM115.5782,276.02011l0.00011,-2.82179l0.70057,-0.00247l-0.00011,2.82182zM115.57842,270.37584l0.00011,-2.82245l0.70057,-0.00247l-0.00011,2.82246zM115.57864,264.73159l0.0001,-2.82245l0.70058,-0.00247l-0.00011,2.82246zM115.57885,259.08733l0.00011,-2.82245l0.70057,-0.00247l-0.00011,2.82245zM115.57907,253.44243l0.00011,-2.82182l0.70058,-0.00247l-0.00011,2.82182zM115.57929,247.79817l0.00011,-2.82245l0.70057,-0.00247l-0.00011,2.82245zM115.57951,242.1539l0.00011,-2.82245l0.70058,-0.00248l-0.00011,2.82245zM115.57972,236.50965l0.00011,-2.82182l0.70057,-0.00245l-0.0001,2.82182zM115.57994,230.86538l0.00011,-2.82244l0.70056,-0.00248l-0.00011,2.82246zM115.58016,225.22113l0.00011,-2.82246l0.70058,-0.00247l-0.00011,2.82245zM115.58037,219.57622l0.00011,-2.8218l0.70057,-0.00247l-0.00011,2.8218zM115.58059,213.93196l0.0001,-2.8218l0.70057,-0.00246l-0.00011,2.8218zM115.58081,208.28769l0.00011,-2.82244l0.70058,-0.00247l-0.00011,2.82245zM115.58103,202.64343l0.00011,-2.82246l0.70057,-0.00248l-0.0001,2.82246zM115.58124,196.99916l0.00011,-2.82179l0.70057,-0.00247l-0.00011,2.8218zM115.58146,191.35492l0.00011,-2.82246l0.70058,-0.00246l-0.00011,2.82245zM115.58168,185.71065l0.0001,-2.82245l0.70058,-0.00247l-0.0001,2.82245zM115.5819,180.06576l0.00011,-2.8218l0.70057,-0.00247l-0.00011,2.8218zM115.58211,174.42147l0.00011,-2.82245l0.70057,-0.00246l-0.00011,2.82245zM115.58233,168.77722l0.00011,-2.82245l0.70057,-0.00246l-0.00011,2.82245zM115.58255,163.13297l0.00011,-2.82182l0.70057,-0.00246l-0.00011,2.82182zM115.58276,157.4887l0.00011,-2.82245l0.70057,-0.00247l-0.0001,2.82246zM115.58298,151.84445l0.00011,-2.82245l0.70057,-0.00247l-0.00011,2.82245zM115.5832,146.19955l0.00011,-2.8218l0.70057,-0.00247l-0.00011,2.82181zM115.58342,140.55527l0.00011,-2.82245l0.70057,-0.00247l-0.00011,2.82245zM115.58363,134.91101l0.0001,-2.82245l0.70058,-0.00247l-0.00011,2.82247zM115.58385,129.26676l0.00011,-2.8218l0.70058,-0.00245l-0.00011,2.82179zM115.58407,123.6225l0.00011,-2.82181l0.70058,-0.00246l-0.00011,2.8218zM115.58429,117.97824l0.0001,-2.82246l0.70058,-0.00247l-0.00011,2.82246zM115.5845,112.33398l0.00011,-2.82246l0.70058,-0.00247l-0.00011,2.82246zM115.58472,106.68907l0.00011,-2.82182l0.70056,-0.00246l-0.0001,2.8218zM115.58494,101.04481l0.00011,-2.82245l0.70057,-0.00247l-0.00011,2.82246zM115.58515,95.40056l0.00011,-2.82246l0.70058,-0.00247l-0.00011,2.82246zM115.58537,89.75629l0.00011,-2.82181l0.70057,-0.00247l-0.00011,2.82182zM115.58559,84.11204l0.00012,-2.82245l0.70056,-0.00247l-0.00011,2.82245zM115.58581,78.46775l0.00011,-2.82246l0.70058,-0.00246l-0.00011,2.82246z" fill="#f2e54e"/><path d="M358.37531,86.09992h-3.15894v-0.48004h3.15894zM352.05814,86.09992h-3.15822v-0.48004h3.15822zM345.74097,86.09992h-3.15894v-0.48004h3.15894zM339.42378,86.09992h-3.15894v-0.48004h3.15894zM333.10661,86.09992h-3.15895v-0.48004h3.15895zM326.78871,86.09992h-3.15823v-0.48004h3.15823zM320.47153,86.09992h-3.15895v-0.48004h3.15895zM314.15436,86.09992h-3.15895v-0.48004h3.15895zM307.83718,86.09992h-3.15822v-0.48004h3.15822zM301.52,86.09992h-3.15894v-0.48004h3.15894zM295.20283,86.09992h-3.15894v-0.48004h3.15894zM288.88493,86.09992h-3.15822v-0.48004h3.15822zM282.56775,86.09992h-3.15822v-0.48004h3.15822zM276.25057,86.09992h-3.15894v-0.48004h3.15894zM269.93341,86.09992h-3.15895v-0.48004h3.15895zM263.61623,86.09992h-3.15822v-0.48004h3.15822zM257.29904,86.09992h-3.15894v-0.48004h3.15894zM250.98186,86.09992h-3.15894v-0.48004h3.15894zM244.66397,86.09992h-3.15824v-0.48004h3.15824zM238.3468,86.09992h-3.15895v-0.48004h3.15895zM232.02962,86.09992h-3.15895v-0.48004h3.15895zM225.71244,86.09992h-3.15823v-0.48004h3.15823zM219.39527,86.09992h-3.15894v-0.48004h3.15894zM213.07809,86.09992h-3.15895v-0.48004h3.15895zM206.76019,86.09992h-3.15821v-0.48004h3.15821zM200.44302,86.09992h-3.15895v-0.48004h3.15895zM194.12584,86.09992h-3.15895v-0.48004h3.15895zM187.80866,86.09992h-3.15821v-0.48004h3.15821zM181.49148,86.09992h-3.15821v-0.48004h3.15821zM175.1743,86.09992h-3.15895v-0.48004h3.15895zM168.85713,86.09992h-3.15895v-0.48004h3.15895zM162.53924,86.09992h-3.15822v-0.48004h3.15822zM156.22206,86.09992h-3.15895v-0.48004h3.15895zM149.90488,86.09992h-3.15895v-0.48004h3.15895zM143.58769,86.09992h-3.15822v-0.48004h3.15822zM137.27053,86.09992h-3.15895v-0.48004h3.15895zM130.95335,86.09992h-3.15895v-0.48004h3.15895z" fill="#f2f2f2"/><path d="M366.35558,76.33411h-3.42762v-0.72006h3.42762zM359.50113,76.33411h-3.42684v-0.72006h3.42684zM352.64666,76.33411h-3.42762v-0.72006h3.42762zM345.79218,76.33411h-3.42762v-0.72006h3.42762zM338.93771,76.33411h-3.42763v-0.72006h3.42763zM332.08246,76.33411h-3.42685v-0.72006h3.42685zM325.22799,76.33411h-3.42763v-0.72006h3.42763zM318.37353,76.33411h-3.42763v-0.72006h3.42763zM311.51906,76.33411h-3.42684v-0.72006h3.42684zM304.66458,76.33411h-3.42762v-0.72006h3.42762zM297.81011,76.33411h-3.42762v-0.72006h3.42762zM290.95486,76.33411h-3.42684v-0.72006h3.42684zM284.10039,76.33411h-3.42683v-0.72006h3.42683zM277.24593,76.33411h-3.42762v-0.72006h3.42762zM270.39147,76.33411h-3.42763v-0.72006h3.42763zM263.537,76.33411h-3.42684v-0.72006h3.42684zM256.68251,76.33411h-3.42762v-0.72006h3.42762zM249.82805,76.33411h-3.42762v-0.72006h3.42762zM242.9728,76.33411h-3.42685v-0.72006h3.42685zM236.11834,76.33411h-3.42763v-0.72006h3.42763zM229.26387,76.33411h-3.42763v-0.72006h3.42763zM222.4094,76.33411h-3.42685v-0.72006h3.42685zM215.55492,76.33411h-3.42762v-0.72006h3.42762zM208.70045,76.33411h-3.42763v-0.72006h3.42763zM201.8452,76.33411h-3.42683v-0.72006h3.42683zM194.99073,76.33411h-3.42763v-0.72006h3.42763zM188.13628,76.33411h-3.42763v-0.72006h3.42763zM181.2818,76.33411h-3.42683v-0.72006h3.42683zM174.42732,76.33411h-3.42683v-0.72006h3.42683zM167.57285,76.33411h-3.42763v-0.72006h3.42763zM160.71839,76.33411h-3.42763v-0.72006h3.42763zM153.86314,76.33411h-3.42684v-0.72006h3.42684zM147.00868,76.33411h-3.42763v-0.72006h3.42763zM140.1542,76.33411h-3.42763v-0.72006h3.42763zM133.29973,76.33411h-3.42684v-0.72006h3.42684zM126.44526,76.33411h-3.42763v-0.72006h3.42763zM119.5908,76.33411h-3.42763v-0.72006h3.42763z" fill="#f2e54e"/><path d="M378.17477,66.86104h-3.72677v-0.48004h3.72677zM370.72207,66.86104h-3.72593v-0.48004h3.72593zM363.26936,66.86104h-3.72678v-0.48004h3.72678zM355.81664,66.86104h-3.72677v-0.48004h3.72677zM348.36392,66.86104h-3.7268v-0.48004h3.7268zM340.91036,66.86104h-3.72594v-0.48004h3.72594zM333.45764,66.86104h-3.7268v-0.48004h3.7268zM326.00492,66.86104h-3.72678v-0.48004h3.72678zM318.55221,66.86104h-3.72593v-0.48004h3.72593zM311.09949,66.86104h-3.72677v-0.48004h3.72677zM303.64677,66.86104h-3.72677v-0.48004h3.72677zM296.19321,66.86104h-3.72593v-0.48004h3.72593zM288.74049,66.86104h-3.72592v-0.48004h3.72592zM281.28778,66.86104h-3.72677v-0.48004h3.72677zM273.83507,66.86104h-3.7268v-0.48004h3.7268zM266.38235,66.86104h-3.72593v-0.48004h3.72593zM258.92963,66.86104h-3.72677v-0.48004h3.72677zM251.47691,66.86104h-3.72677v-0.48004h3.72677zM244.02336,66.86104h-3.72594v-0.48004h3.72594zM236.57063,66.86104h-3.7268v-0.48004h3.7268zM229.11792,66.86104h-3.72678v-0.48004h3.72678zM221.66521,66.86104h-3.72594v-0.48004h3.72594zM214.21248,66.86104h-3.72677v-0.48004h3.72677zM206.75977,66.86104h-3.72678v-0.48004h3.72678zM199.3062,66.86104h-3.72592v-0.48004h3.72592zM191.85349,66.86104h-3.72678v-0.48004h3.72678zM184.40079,66.86104h-3.7268v-0.48004h3.7268zM176.94805,66.86104h-3.72592v-0.48004h3.72592zM169.49534,66.86104h-3.72592v-0.48004h3.72592zM162.04263,66.86104h-3.7268v-0.48004h3.7268zM154.5899,66.86104h-3.72678v-0.48004h3.72678zM147.13636,66.86104h-3.72593v-0.48004h3.72593zM139.68363,66.86104h-3.72678v-0.48004h3.72678zM132.23091,66.86104h-3.7268v-0.48004h3.7268zM124.77819,66.86104h-3.72593v-0.48004h3.72593zM117.32548,66.86104h-3.72678v-0.48004h3.72678zM109.87277,66.86104h-3.72678v-0.48004h3.72678z" fill="#f2f2f2"/></g></g></svg>