<svg version="1.1" xmlns="http://www.w3.org/2000/svg" xmlns:xlink="http://www.w3.org/1999/xlink" width="53.05362" height="66.21243" viewBox="0,0,53.05362,66.21243"><g transform="translate(-304.97883,-294.16985)"><g data-paper-data="{&quot;isPaintingLayer&quot;:true}" fill-rule="nonzero" stroke="none" stroke-linecap="butt" stroke-linejoin="miter" stroke-miterlimit="10" stroke-dasharray="" stroke-dashoffset="0" style="mix-blend-mode: normal"><path d="M341.78696,359.9533c0,-0.23692 0.33579,-0.42898 0.75,-0.42898c0.41421,0 0.75,0.19206 0.75,0.42898c0,0.23692 -0.33579,0.42898 -0.75,0.42898c-0.41421,0 -0.75,-0.19206 -0.75,-0.42898z" fill="#9966ff" stroke-width="0.5"/><path d="M304.97883,358.72949v-64.55964h53.05362v64.55964z" fill="#ff6e15" stroke-width="0"/><path d="M331.83177,311.3479c0,-0.23692 0.33579,-0.42898 0.75,-0.42898c0.41421,0 0.75,0.19206 0.75,0.42898c0,0.23692 -0.33579,0.42898 -0.75,0.42898c-0.41421,0 -0.75,-0.19206 -0.75,-0.42898z" fill="#9966ff" stroke-width="0.5"/></g></g></svg>