<svg xmlns="http://www.w3.org/2000/svg" xmlns:xlink="http://www.w3.org/1999/xlink" version="1.1" width="150.7201127408254" height="339.2712296841848" viewBox="10.6399436295873 -1.2830955683344532 150.7201127408254 339.2712296841848">
  <defs>
    <radialGradient id="grad_1" cx="0.1673" cy="0.1648" r="1.0857599999999998">
      <stop offset="0" stop-color="#FF9400" stop-opacity="1"/>
      <stop offset="1" stop-color="#995900" stop-opacity="1"/>
    </radialGradient>
    <radialGradient id="grad_2" cx="0.102" cy="0.1648" r="1.1674">
      <stop offset="0" stop-color="#FF9400" stop-opacity="1"/>
      <stop offset="1" stop-color="#995900" stop-opacity="1"/>
    </radialGradient>
    <radialGradient id="grad_3" cx="0.1959" cy="0.1791" r="1.06717">
      <stop offset="0" stop-color="#FF9400" stop-opacity="1"/>
      <stop offset="1" stop-color="#995900" stop-opacity="1"/>
    </radialGradient>
    <radialGradient id="grad_4" cx="0.0897" cy="0.1461" r="1.18339">
      <stop offset="0" stop-color="#FF9400" stop-opacity="1"/>
      <stop offset="1" stop-color="#995900" stop-opacity="1"/>
    </radialGradient>
    <radialGradient id="grad_5" cx="0.6333" cy="0.2954" r="0.91598">
      <stop offset="0" stop-color="#003FFF" stop-opacity="1"/>
      <stop offset="1" stop-color="#002699" stop-opacity="1"/>
    </radialGradient>
    <radialGradient id="grad_6" cx="0.466" cy="0.1754" r="1.07198">
      <stop offset="0" stop-color="#003FFF" stop-opacity="1"/>
      <stop offset="1" stop-color="#002699" stop-opacity="1"/>
    </radialGradient>
    <radialGradient id="grad_7" cx="0.6916" cy="0.3453" r="0.89908">
      <stop offset="0" stop-color="#003FFF" stop-opacity="1"/>
      <stop offset="1" stop-color="#002699" stop-opacity="1"/>
    </radialGradient>
    <radialGradient id="grad_8" cx="0.9416" cy="0.2486" r="1.22408">
      <stop offset="0" stop-color="#003FFF" stop-opacity="1"/>
      <stop offset="1" stop-color="#002699" stop-opacity="1"/>
    </radialGradient>
    <radialGradient id="grad_9" cx="0.2842" cy="0.233" r="0.9971">
      <stop offset="0" stop-color="#003FFF" stop-opacity="1"/>
      <stop offset="1" stop-color="#002699" stop-opacity="1"/>
    </radialGradient>
    <radialGradient id="grad_10" cx="0.040999999999999995" cy="0.1319" r="1.2467">
      <stop offset="0" stop-color="#003FFF" stop-opacity="1"/>
      <stop offset="1" stop-color="#002699" stop-opacity="1"/>
    </radialGradient>
    <radialGradient id="grad_11" cx="0.7393000000000001" cy="0.10830000000000001" r="1.15921">
      <stop offset="0" stop-color="#995900" stop-opacity="1"/>
      <stop offset="1" stop-color="#663B00" stop-opacity="1"/>
    </radialGradient>
    <radialGradient id="grad_12" cx="0.7437999999999999" cy="0.0987" r="1.17169">
      <stop offset="0" stop-color="#995900" stop-opacity="1"/>
      <stop offset="1" stop-color="#663B00" stop-opacity="1"/>
    </radialGradient>
  <radialGradient id="grad_1-.611013412475586,0,0,2.280764579772949,-544.25,-288.4" cx="100.5785" cy="233.1397" r="84.1136" gradientUnits="userSpaceOnUse">
      <stop offset="0" stop-color="#FF9400" stop-opacity="1"/>
      <stop offset="1" stop-color="#995900" stop-opacity="1"/>
    </radialGradient><radialGradient id="grad_3-.611013412475586,0,0,2.280764579772949,-591.35,-288.15" cx="54.2439" cy="234.8084" r="82.6734" gradientUnits="userSpaceOnUse">
      <stop offset="0" stop-color="#FF9400" stop-opacity="1"/>
      <stop offset="1" stop-color="#995900" stop-opacity="1"/>
    </radialGradient><radialGradient id="grad_5-.82351815700531,-0.6343110799789429,0.4976893663406372,2.3240959644317627,-522.25,-75.95" cx="132.4118" cy="125.2422" r="66.7371" gradientUnits="userSpaceOnUse">
      <stop offset="0" stop-color="#003FFF" stop-opacity="1"/>
      <stop offset="1" stop-color="#002699" stop-opacity="1"/>
    </radialGradient><radialGradient id="grad_7-1.82351815700531,-0.6343110799789429,-0.4976893663406372,2.3240959644317627,694.25,-75.75" cx="36.7684" cy="130.0751" r="65.5058" gradientUnits="userSpaceOnUse">
      <stop offset="0" stop-color="#003FFF" stop-opacity="1"/>
      <stop offset="1" stop-color="#002699" stop-opacity="1"/>
    </radialGradient><radialGradient id="grad_9-.0538699626922607,0,0,2.0538699626922607,-399,-224.85" cx="64.3066" cy="119.7532" r="114.4181" gradientUnits="userSpaceOnUse">
      <stop offset="0" stop-color="#003FFF" stop-opacity="1"/>
      <stop offset="1" stop-color="#002699" stop-opacity="1"/>
    </radialGradient><radialGradient id="grad_11-1,0,0,1,324.45,-15.6" cx="59.9346" cy="12.1978" r="122.5403" gradientUnits="userSpaceOnUse">
      <stop offset="0" stop-color="#995900" stop-opacity="1"/>
      <stop offset="1" stop-color="#663B00" stop-opacity="1"/>
    </radialGradient></defs>
  <!-- Exported by Scratch - http://scratch.mit.edu/ -->
  <g id="ID0.4656454767100513">
    <g id="ID0.9803413534536958">
      <path id="ID0.7297148094512522" fill="#FFDEAE" d="M 153.8174 209.386 C 155.1736 212.4907 157.6665 215.5468 157.4122 219.0974 C 156.9548 225.478 154.7629 231.7751 151.9317 237.5314 C 151.2542 238.9672 148.7465 239.3995 147.5643 238.5171 C 146.5928 237.8393 147.4021 235.8563 147.6164 234.3964 C 148.2009 230.923 149.6802 227.6749 150.1811 224.1087 C 150.5047 221.9862 151.0845 219.625 150.2501 217.6472 C 147.6021 214.598 145.6715 215.3896 143.7871 214.6763 C 139.7583 215.4823 138.6796 210.7884 137.7381 207.1984 C 136.9167 204.3589 134.4958 200.529 136.5087 198.2519 C 139.0813 195.2881 144.1332 194.2763 148.0244 195.4405 C 150.5453 196.2098 149.8645 200.4559 150.8879 202.8356 C 151.8305 205.0308 152.9981 207.067 153.8174 209.386 Z " stroke-width="2.646321324006666"/>
      <path id="ID0.7297148094512522" fill="#FFD499" d="M 139.2786 207.9727 C 141.7756 206.8704 144.4717 209.6709 146.8699 211.0938 C 148.7202 212.1959 150.9181 213.279 151.6926 215.4291 C 152.6594 218.1365 151.6099 221.189 151.2265 224.0567 C 150.8196 227.0656 150.5204 230.2152 149.0834 232.9265 C 148.3034 234.549 145.8309 237.1426 144.8922 236.4339 C 143.7632 235.576 144.664 231.8731 145.0455 229.6888 C 145.6262 226.3859 146.7869 223.1837 147.345 219.8778 C 147.5731 218.5541 147.9434 217.1135 147.3129 216.0408 C 146.6549 215.0438 145.1924 214.2362 144.0844 214.6488 C 142.8711 215.1005 142.5184 216.7353 141.9444 217.9018 C 140.9772 219.8675 140.6893 222.1648 139.6188 224.0628 C 138.9608 225.2339 138.2281 226.8137 136.9959 226.8635 C 135.7158 226.9373 134.3771 225.5639 134.2918 224.331 C 134.0899 221.372 135.2346 218.4812 136.067 215.6605 C 136.8487 213.0063 136.6843 209.02 139.2786 207.9727 Z " stroke-width="2.646321324006666"/>
    </g>
    <g id="ID0.9803413534536958">
      <path id="ID0.7297148094512522" fill="#FFDEAE" d="M 18.4326 209.586 C 17.0764 212.6907 14.5835 215.7468 14.8378 219.2974 C 15.2952 225.678 17.4871 231.9751 20.3183 237.7314 C 20.9958 239.1672 23.5035 239.5995 24.6857 238.7171 C 25.6572 238.0393 24.8479 236.0563 24.6336 234.5964 C 24.0491 231.123 22.5698 227.8749 22.0689 224.3087 C 21.7453 222.1862 21.1655 219.825 21.9999 217.8472 C 24.6479 214.798 26.5785 215.5896 28.4629 214.8763 C 32.4917 215.6823 33.5704 210.9884 34.5119 207.3984 C 35.3333 204.5589 37.7542 200.729 35.7413 198.4519 C 33.1687 195.4881 28.1168 194.4763 24.2256 195.6405 C 21.7047 196.4098 22.3855 200.6559 21.3621 203.0356 C 20.4195 205.2308 19.2519 207.267 18.4326 209.586 Z " stroke-width="2.646321324006666"/>
      <path id="ID0.7297148094512522" fill="#FFD499" d="M 32.9714 208.1727 C 30.4744 207.0704 27.7783 209.8709 25.3801 211.2938 C 23.5298 212.3959 21.3319 213.479 20.5574 215.6291 C 19.5906 218.3365 20.6401 221.389 21.0235 224.2567 C 21.4304 227.2656 21.7296 230.4152 23.1666 233.1265 C 23.9466 234.749 26.4191 237.3426 27.3578 236.6339 C 28.4868 235.776 27.586 232.0731 27.2045 229.8888 C 26.6238 226.5859 25.4631 223.3837 24.905 220.0778 C 24.6769 218.7541 24.3066 217.3135 24.9371 216.2408 C 25.5951 215.2438 27.0576 214.4362 28.1656 214.8488 C 29.3789 215.3005 29.7316 216.9353 30.3056 218.1018 C 31.2728 220.0675 31.5607 222.3648 32.6312 224.2628 C 33.2892 225.4339 34.0219 227.0137 35.2541 227.0635 C 36.5342 227.1373 37.8729 225.7639 37.9582 224.531 C 38.1601 221.572 37.0154 218.6812 36.183 215.8605 C 35.4013 213.2063 35.5657 209.22 32.9714 208.1727 Z " stroke-width="2.646321324006666"/>
    </g>
    <g id="ID0.7356321816332638">
      <path id="ID0.8654622961767018" fill="#000000" stroke="#000000" stroke-width="4.1077399253845215" d="M 109.369 315.752 C 114.3271 315.752 118.8209 316.9309 122.0743 318.8369 C 125.3276 320.7429 127.3404 323.3739 127.3404 326.2781 C 127.3404 329.1823 124.8141 332.3904 122.0743 333.7193 C 118.2808 335.5575 113.6082 335.1077 109.2663 335.1611 C 105.0949 335.1077 100.5169 335.5657 96.6638 333.7193 C 93.9198 332.4007 91.3977 329.1823 91.3977 326.2781 C 91.3977 323.3739 93.4105 320.7429 96.6638 318.8369 C 99.9171 316.9309 104.411 315.752 109.369 315.752 Z "/>
      <path id="ID0.47236768435686827" fill="url(#grad_1-.611013412475586,0,0,2.280764579772949,-544.25,-288.4)" stroke="url(#grad_2)" stroke-width="4.90291303379415" d="M 96.101 216.7894 L 122.8639 216.7894 L 122.8639 316.0026 L 96.101 316.0026 L 96.101 216.7894 Z "/>
    </g>
    <g id="ID0.7477488755248487">
      <path id="ID0.8654622961767018" fill="#000000" stroke="#000000" stroke-width="4.1077399253845215" d="M 62.269 316.002 C 67.2271 316.002 71.7209 317.1809 74.9743 319.0869 C 78.2276 320.9929 80.2404 323.6239 80.2404 326.5281 C 80.2404 329.4323 77.7367 332.6384 74.9743 333.9693 C 70.9507 335.902 66.0975 335.4932 61.7556 335.5138 C 57.5739 335.4932 53.1252 335.8177 49.5638 333.9693 C 46.8424 332.5541 44.2977 329.4323 44.2977 326.5281 C 44.2977 323.6239 46.3105 320.9929 49.5638 319.0869 C 52.8171 317.1809 57.311 316.002 62.269 316.002 Z "/>
      <path id="ID0.47236768435686827" fill="url(#grad_3-.611013412475586,0,0,2.280764579772949,-591.35,-288.15)" stroke="url(#grad_4)" stroke-width="4.90291303379415" d="M 49.001 217.0394 L 75.7639 217.0394 L 75.7639 316.2526 L 49.001 316.2526 L 49.001 217.0394 Z "/>
    </g>
    <path id="ID0.41013610642403364" fill="url(#grad_5-.82351815700531,-0.6343110799789429,0.4976893663406372,2.3240959644317627,-522.25,-75.95)" stroke="url(#grad_6)" d="M 130.5612 92.6536 L 136.0991 97.4697 L 158.9086 195.2926 L 129.7323 205.4416 L 123.0627 114.3657 L 130.5612 92.6536 Z " stroke-width="2.155289382121667"/>
    <path id="ID0.41013610642403364" fill="url(#grad_7-1.82351815700531,-0.6343110799789429,-0.4976893663406372,2.3240959644317627,694.25,-75.75)" stroke="url(#grad_8)" d="M 41.4388 92.8536 L 35.9009 97.6697 L 13.0914 195.4926 L 42.2677 205.6416 L 48.9373 114.5657 L 41.4388 92.8536 Z " stroke-width="2.155289382121667"/>
    <path id="ID0.43916446389630437" fill="url(#grad_9-.0538699626922607,0,0,2.0538699626922607,-399,-224.85)" stroke="url(#grad_10)" d="M 36.3177 96.478 L 40.7336 91.9594 L 46.3817 89.9056 L 125.2503 89.7002 L 131.0011 91.7541 L 134.8008 96.1699 L 127.6123 166.2068 L 127.6123 218.6832 L 44.3278 218.6832 L 44.3278 165.6934 L 36.3177 96.478 Z " stroke-width="2.0538699626922607"/>
    <g id="ID0.7377356672659516">
      <path id="ID0.20264252508059144" fill="url(#grad_11-1,0,0,1,324.45,-15.6)" stroke="url(#grad_12)" stroke-width="2" stroke-linecap="round" d="M 138.95 28.4 C 137.928 26.653 134.359 28.841 132.95 27.4 C 131.546 25.944 133.911 22.242 132.2 20.9 C 130.445 19.766 127.777 23.39 125.95 22.4 C 124.243 21.46 125.306 18.11 123.95 16.9 C 122.95 16.017 121.142 16.9 119.95 16.9 C 117.868 16.9 116.992 17.624 115.95 16.9 C 115.119 16.309 115.897 14.57 115.45 13.4 C 114.867 12.166 113.984 11.053 112.95 9.9 C 111.196 8.047 109.587 6.328 107.95 5.9 C 106.051 7.204 105.586 7.734 104.45 7.9 C 102.155 7.262 102.031 6.326 100.95 5.9 C 98.052 5.345 97.372 5.606 95.95 5.4 C 93.612 4.844 93.114 4.593 91.95 4.4 C 89.609 4.274 89.034 4.303 87.95 3.9 C 85.609 2.341 85.036 1.793 83.95 1.4 C 83.32 1.191 82.483 1.005 81.95 1.4 C 80.687 3.663 80.928 4.584 79.95 5.4 C 77.673 5.585 77.078 5.589 75.95 5.4 C 73.625 4.486 73.009 3.954 71.95 4.4 C 71.235 6.581 72.005 7.396 71.45 8.4 C 69.266 10.053 68.666 10.07 67.45 10.4 C 64.961 10.486 64.26 10.422 62.95 10.4 C 60.604 10.316 59.94 9.685 58.95 9.9 C 58.263 10.06 57.719 10.747 57.45 11.4 C 57.272 13.726 57.437 14.355 56.95 15.4 C 55.183 17.155 54.604 17.458 53.45 17.9 C 51.135 18.005 50.594 17.879 49.45 17.9 C 47.104 17.985 46.43 18.141 45.45 18.4 C 44.588 18.643 43.576 18.77 42.95 19.4 C 41.964 21.699 42.463 22.391 42.45 23.4 C 42.464 24.062 42.858 24.882 42.45 25.4 C 40.034 26.594 39.244 26.439 37.95 26.9 C 35.183 28.025 34.329 28.102 33.45 28.9 C 32.962 29.378 32.732 30.251 32.95 30.9 C 34.608 32.715 35.215 32.934 35.95 33.9 C 37.166 36.202 37.78 36.643 37.95 37.9 C 37.188 40.265 36.255 40.432 35.45 41.4 C 35.004 41.912 34.714 42.571 34.2 42.9 C 33.489 43.271 32.45 42.859 31.95 43.4 C 31.338 45.682 31.361 46.256 31.45 47.4 C 32.154 49.689 32.711 50.006 33.45 50.9 C 35.537 52.761 35.876 53.231 36.45 54.4 C 36.863 56.928 36.449 57.584 35.95 58.9 C 33.673 62.477 33.069 62.738 32.95 64.4 C 34.552 66.207 35.623 65.983 36.45 66.9 C 37.517 69.167 37.469 69.555 37.45 70.9 C 37.366 72.324 36.417 73.074 36.2 74.15 C 36.077 75.284 35.608 76.993 36.45 77.4 C 37.672 77.957 39.105 76.299 40.45 76.4 C 41.354 76.674 42.44 77.549 42.45 78.4 C 42.479 80.343 40.236 81.992 40.45 83.9 C 40.842 85.325 42.66 86.22 43.95 86.65 C 45.527 87.179 47.583 85.85 48.95 86.4 C 50.508 87.071 51.836 88.374 52.45 89.9 C 52.983 91.246 51.026 93.291 51.95 94.65 C 52.992 95.912 55.239 95.932 56.95 95.9 C 58.854 95.861 60.515 93.928 62.45 93.9 C 64.144 94.11 65.661 95.371 66.95 96.4 C 68.342 97.506 68.562 100.198 70.2 100.65 C 71.974 101.051 73.338 98.223 74.95 98.4 C 76.609 98.599 77.698 100.597 78.95 101.4 C 81.648 102.868 82.4 103.223 83.45 102.9 C 84.324 102.538 84.495 101.257 84.95 100.4 C 86.03 98.095 85.598 97.249 86.45 96.4 C 89.468 95.333 90.35 95.82 91.95 95.9 C 94.292 96.418 94.79 96.683 95.95 96.9 C 100.828 97.634 101.716 98.2 103.95 97.9 C 105.656 96.247 105.561 95.483 105.95 94.4 C 106.3 92.13 106.6 91.366 107.45 90.9 C 108.202 90.542 109.107 91.299 109.95 91.4 C 116.779 91.87 117.84 92.319 119.95 91.9 C 120.744 91.677 121.235 90.7 121.45 89.9 C 121.464 85.89 120.418 85.427 120.95 83.9 C 123.25 82.681 124.331 83.619 125.45 82.9 C 126.575 80.685 126.257 80.145 126.45 78.9 C 126.946 74.907 125.528 74.271 126.95 72.9 C 128.206 71.773 130.223 74.305 131.95 74.15 C 133.948 73.684 136.841 73.096 137.45 71.15 C 138.214 68.713 134.179 66.309 134.95 63.9 C 135.51 62.172 138.946 63.622 139.95 62.15 C 141.145 60.724 140.96 58.419 140.45 56.65 C 139.926 54.847 138.209 53.647 137.45 51.9 C 136.695 50.536 135.982 49.037 135.95 47.4 C 135.926 46.263 136.103 44.868 136.95 44.15 C 137.875 43.096 140.511 43.989 140.7 42.65 C 140.998 40.416 138.103 38.675 137.7 36.4 C 137.496 33.727 140.289 30.697 138.95 28.4 Z "/>
      <path id="ID0.6422801343724132" fill="none" stroke="#000000" stroke-width="0.9446965000148362" stroke-linecap="round" d="M 137.075 32.6055 C 137.075 32.6055 135.9673 32.749 135.4294 32.89 C 134.9482 33.0161 134.5116 33.2917 134.0268 33.4037 C 133.7203 33.4746 133.0825 33.4313 133.0825 33.4313 "/>
      <path id="ID0.7584992088377476" fill="none" stroke="#000000" stroke-width="0.9446965000148362" stroke-linecap="round" d="M 136.9842 37.57 C 136.9842 37.57 135.5981 38.0831 134.8734 38.1044 C 134.4498 38.1168 133.6792 37.6668 133.6792 37.6668 "/>
      <path id="ID0.40438934741541743" fill="none" stroke="#000000" stroke-width="0.9446965000148362" stroke-linecap="round" d="M 136.7818 46.7907 C 136.0607 46.3397 135.3182 45.9163 134.6157 45.4365 C 134.4319 45.311 134.1297 44.9782 134.1297 44.9782 "/>
      <path id="ID0.8195131137035787" fill="none" stroke="#000000" stroke-width="0.9446965000148362" stroke-linecap="round" d="M 137.2738 55.5184 C 137.2738 55.5184 136.6578 56.0095 136.3503 56.2543 C 136.0428 56.4991 135.7422 56.7556 135.4268 56.9902 C 134.9717 57.3291 134.5005 57.6477 134.038 57.976 C 133.9223 58.0578 134.038 57.976 134.038 57.976 "/>
      <path id="ID0.923992021009326" fill="none" stroke="#000000" stroke-width="0.9446965000148362" stroke-linecap="round" d="M 137.2176 61.6632 C 137.2176 61.6632 133.2044 61.7808 133.2044 61.7808 "/>
      <path id="ID0.6422801343724132" fill="none" stroke="#000000" stroke-width="0.9446965000148362" stroke-linecap="round" d="M 130.475 23.5555 C 130.475 23.5555 129.3673 23.699 128.8294 23.84 C 128.3482 23.9661 127.9116 24.2417 127.4268 24.3537 C 127.1203 24.4246 126.4825 24.3813 126.4825 24.3813 "/>
      <path id="ID0.7584992088377476" fill="none" stroke="#000000" stroke-width="0.9446965000148362" stroke-linecap="round" d="M 130.3842 28.52 C 130.3842 28.52 128.9981 29.0331 128.2734 29.0544 C 127.8498 29.0668 127.0792 28.6168 127.0792 28.6168 "/>
      <path id="ID0.40438934741541743" fill="none" stroke="#000000" stroke-width="0.9446965000148362" stroke-linecap="round" d="M 130.1818 37.7407 C 129.4607 37.2897 128.7182 36.8663 128.0157 36.3865 C 127.8319 36.261 127.5297 35.9282 127.5297 35.9282 "/>
      <path id="ID0.7633831659331918" fill="none" stroke="#000000" stroke-width="0.9446965000148362" stroke-linecap="round" d="M 131.9173 40.5251 C 131.9173 40.5251 130.3499 40.7511 129.5635 40.8304 C 129.2507 40.8617 128.9337 40.8488 128.6192 40.858 C 128.2259 40.8695 127.8322 40.8811 127.4389 40.8926 C 127.3407 40.8955 127.4389 40.8926 127.4389 40.8926 "/>
      <path id="ID0.8195131137035787" fill="none" stroke="#000000" stroke-width="0.9446965000148362" stroke-linecap="round" d="M 130.6738 46.4684 C 130.6738 46.4684 130.0578 46.9595 129.7503 47.2043 C 129.4428 47.4491 129.1422 47.7056 128.8268 47.9402 C 128.3717 48.2791 127.9005 48.5977 127.438 48.926 C 127.3223 49.0078 127.438 48.926 127.438 48.926 "/>
      <path id="ID0.923992021009326" fill="none" stroke="#000000" stroke-width="0.9446965000148362" stroke-linecap="round" d="M 130.6176 52.6132 C 130.6176 52.6132 126.6044 52.7308 126.6044 52.7308 "/>
      <path id="ID0.6422801343724132" fill="none" stroke="#000000" stroke-width="0.9446965000148362" stroke-linecap="round" d="M 122.625 18.8555 C 122.625 18.8555 121.5173 18.999 120.9794 19.14 C 120.4982 19.2661 120.0616 19.5417 119.5768 19.6537 C 119.2703 19.7246 118.6325 19.6813 118.6325 19.6813 "/>
      <path id="ID0.7584992088377476" fill="none" stroke="#000000" stroke-width="0.9446965000148362" stroke-linecap="round" d="M 122.5342 23.82 C 122.5342 23.82 121.1481 24.3331 120.4234 24.3544 C 119.9998 24.3668 119.2292 23.9168 119.2292 23.9168 "/>
      <path id="ID0.40438934741541743" fill="none" stroke="#000000" stroke-width="0.9446965000148362" stroke-linecap="round" d="M 122.3318 33.0407 C 121.6107 32.5897 120.8682 32.1663 120.1657 31.6865 C 119.9819 31.561 119.6797 31.2282 119.6797 31.2282 "/>
      <path id="ID0.7633831659331918" fill="none" stroke="#000000" stroke-width="0.9446965000148362" stroke-linecap="round" d="M 124.0673 35.8251 C 124.0673 35.8251 122.4999 36.0511 121.7135 36.1304 C 121.4007 36.1617 121.0837 36.1488 120.7692 36.158 C 120.3759 36.1695 119.9822 36.1811 119.5889 36.1926 C 119.4907 36.1955 119.5889 36.1926 119.5889 36.1926 "/>
      <path id="ID0.8195131137035787" fill="none" stroke="#000000" stroke-width="0.9446965000148362" stroke-linecap="round" d="M 122.8238 41.7684 C 122.8238 41.7684 122.2078 42.2595 121.9003 42.5043 C 121.5928 42.7491 121.2922 43.0056 120.9768 43.2402 C 120.5217 43.5791 120.0505 43.8977 119.588 44.226 C 119.4723 44.3078 119.588 44.226 119.588 44.226 "/>
      <path id="ID0.923992021009326" fill="none" stroke="#000000" stroke-width="0.9446965000148362" stroke-linecap="round" d="M 122.7676 47.9132 C 122.7676 47.9132 118.7544 48.0308 118.7544 48.0308 "/>
      <path id="ID0.6422801343724132" fill="none" stroke="#000000" stroke-width="0.9446965000148362" stroke-linecap="round" d="M 114.925 15.8555 C 114.925 15.8555 113.8173 15.999 113.2794 16.14 C 112.7982 16.2661 112.3616 16.5417 111.8768 16.6537 C 111.5703 16.7246 110.9325 16.6813 110.9325 16.6813 "/>
      <path id="ID0.7584992088377476" fill="none" stroke="#000000" stroke-width="0.9446965000148362" stroke-linecap="round" d="M 114.8342 20.82 C 114.8342 20.82 113.4481 21.3331 112.7234 21.3544 C 112.2998 21.3668 111.5292 20.9168 111.5292 20.9168 "/>
      <path id="ID0.40438934741541743" fill="none" stroke="#000000" stroke-width="0.9446965000148362" stroke-linecap="round" d="M 114.6318 30.0407 C 113.9107 29.5897 113.1682 29.1663 112.4657 28.6865 C 112.2819 28.561 111.9797 28.2282 111.9797 28.2282 "/>
      <path id="ID0.7633831659331918" fill="none" stroke="#000000" stroke-width="0.9446965000148362" stroke-linecap="round" d="M 116.3673 32.8251 C 116.3673 32.8251 114.7999 33.0511 114.0135 33.1304 C 113.7007 33.1617 113.3837 33.1488 113.0692 33.158 C 112.6759 33.1695 112.2822 33.1811 111.8889 33.1926 C 111.7907 33.1955 111.8889 33.1926 111.8889 33.1926 "/>
      <path id="ID0.8195131137035787" fill="none" stroke="#000000" stroke-width="0.9446965000148362" stroke-linecap="round" d="M 115.1238 38.7684 C 115.1238 38.7684 114.5078 39.2595 114.2003 39.5043 C 113.8928 39.7491 113.5922 40.0056 113.2768 40.2402 C 112.8217 40.5791 112.3505 40.8977 111.888 41.226 C 111.7723 41.3078 111.888 41.226 111.888 41.226 "/>
      <path id="ID0.923992021009326" fill="none" stroke="#000000" stroke-width="0.9446965000148362" stroke-linecap="round" d="M 115.0676 44.9132 C 115.0676 44.9132 111.0544 45.0308 111.0544 45.0308 "/>
      <path id="ID0.6422801343724132" fill="none" stroke="#000000" stroke-width="0.9446965000148362" stroke-linecap="round" d="M 109.975 9.2055 C 109.975 9.2055 108.8673 9.349 108.3294 9.49 C 107.8482 9.6161 107.4116 9.8917 106.9268 10.0037 C 106.6203 10.0746 105.9825 10.0313 105.9825 10.0313 "/>
      <path id="ID0.7584992088377476" fill="none" stroke="#000000" stroke-width="0.9446965000148362" stroke-linecap="round" d="M 109.8842 14.17 C 109.8842 14.17 108.4981 14.6831 107.7734 14.7044 C 107.3498 14.7168 106.5792 14.2668 106.5792 14.2668 "/>
      <path id="ID0.40438934741541743" fill="none" stroke="#000000" stroke-width="0.9446965000148362" stroke-linecap="round" d="M 109.6818 23.3907 C 108.9607 22.9397 108.2182 22.5163 107.5157 22.0365 C 107.3319 21.911 107.0297 21.5782 107.0297 21.5782 "/>
      <path id="ID0.7633831659331918" fill="none" stroke="#000000" stroke-width="0.9446965000148362" stroke-linecap="round" d="M 111.4173 26.1751 C 111.4173 26.1751 109.8499 26.4011 109.0635 26.4804 C 108.7507 26.5117 108.4337 26.4988 108.1192 26.508 C 107.7259 26.5195 107.3322 26.5311 106.9389 26.5426 C 106.8407 26.5455 106.9389 26.5426 106.9389 26.5426 "/>
      <path id="ID0.8195131137035787" fill="none" stroke="#000000" stroke-width="0.9446965000148362" stroke-linecap="round" d="M 110.1738 32.1184 C 110.1738 32.1184 109.5578 32.6095 109.2503 32.8543 C 108.9428 33.0991 108.6422 33.3556 108.3268 33.5902 C 107.8717 33.9291 107.4005 34.2477 106.938 34.576 C 106.8223 34.6578 106.938 34.576 106.938 34.576 "/>
      <path id="ID0.923992021009326" fill="none" stroke="#000000" stroke-width="0.9446965000148362" stroke-linecap="round" d="M 110.1176 38.2632 C 110.1176 38.2632 106.1044 38.3808 106.1044 38.3808 "/>
      <path id="ID0.6422801343724132" fill="none" stroke="#000000" stroke-width="0.9446965000148362" stroke-linecap="round" d="M 101.875 7.9055 C 101.875 7.9055 100.7673 8.049 100.2294 8.19 C 99.7482 8.3161 99.3116 8.5917 98.8268 8.7037 C 98.5203 8.7746 97.8825 8.7313 97.8825 8.7313 "/>
      <path id="ID0.7584992088377476" fill="none" stroke="#000000" stroke-width="0.9446965000148362" stroke-linecap="round" d="M 101.7842 12.87 C 101.7842 12.87 100.3981 13.3831 99.6734 13.4044 C 99.2498 13.4168 98.4792 12.9668 98.4792 12.9668 "/>
      <path id="ID0.40438934741541743" fill="none" stroke="#000000" stroke-width="0.9446965000148362" stroke-linecap="round" d="M 101.5818 22.0907 C 100.8607 21.6397 100.1182 21.2163 99.4157 20.7365 C 99.2319 20.611 98.9297 20.2782 98.9297 20.2782 "/>
      <path id="ID0.7633831659331918" fill="none" stroke="#000000" stroke-width="0.9446965000148362" stroke-linecap="round" d="M 103.3173 24.8751 C 103.3173 24.8751 101.7499 25.1011 100.9635 25.1804 C 100.6507 25.2117 100.3337 25.1988 100.0192 25.208 C 99.6259 25.2195 99.2322 25.2311 98.8389 25.2426 C 98.7407 25.2455 98.8389 25.2426 98.8389 25.2426 "/>
      <path id="ID0.8195131137035787" fill="none" stroke="#000000" stroke-width="0.9446965000148362" stroke-linecap="round" d="M 102.0738 30.8184 C 102.0738 30.8184 101.4578 31.3095 101.1503 31.5543 C 100.8428 31.7991 100.5422 32.0556 100.2268 32.2902 C 99.7717 32.6291 99.3005 32.9477 98.838 33.276 C 98.7223 33.3578 98.838 33.276 98.838 33.276 "/>
      <path id="ID0.923992021009326" fill="none" stroke="#000000" stroke-width="0.9446965000148362" stroke-linecap="round" d="M 102.0176 36.9632 C 102.0176 36.9632 98.0044 37.0808 98.0044 37.0808 "/>
      <path id="ID0.6422801343724132" fill="none" stroke="#000000" stroke-width="0.9446965000148362" stroke-linecap="round" d="M 94.625 5.0055 C 94.625 5.0055 93.5173 5.149 92.9794 5.29 C 92.4982 5.4161 92.0616 5.6917 91.5768 5.8037 C 91.2703 5.8746 90.6325 5.8313 90.6325 5.8313 "/>
      <path id="ID0.7584992088377476" fill="none" stroke="#000000" stroke-width="0.9446965000148362" stroke-linecap="round" d="M 94.5342 9.97 C 94.5342 9.97 93.1481 10.4831 92.4234 10.5044 C 91.9998 10.5168 91.2292 10.0668 91.2292 10.0668 "/>
      <path id="ID0.40438934741541743" fill="none" stroke="#000000" stroke-width="0.9446965000148362" stroke-linecap="round" d="M 94.3318 19.1907 C 93.6107 18.7397 92.8682 18.3163 92.1657 17.8365 C 91.9819 17.711 91.6797 17.3782 91.6797 17.3782 "/>
      <path id="ID0.7633831659331918" fill="none" stroke="#000000" stroke-width="0.9446965000148362" stroke-linecap="round" d="M 96.0673 21.9751 C 96.0673 21.9751 94.4999 22.2011 93.7135 22.2804 C 93.4007 22.3117 93.0837 22.2988 92.7692 22.308 C 92.3759 22.3195 91.9822 22.3311 91.5889 22.3426 C 91.4907 22.3455 91.5889 22.3426 91.5889 22.3426 "/>
      <path id="ID0.8195131137035787" fill="none" stroke="#000000" stroke-width="0.9446965000148362" stroke-linecap="round" d="M 94.8238 27.9184 C 94.8238 27.9184 94.2078 28.4095 93.9003 28.6543 C 93.5928 28.8991 93.2922 29.1556 92.9768 29.3902 C 92.5217 29.7291 92.0505 30.0477 91.588 30.376 C 91.4723 30.4578 91.588 30.376 91.588 30.376 "/>
      <path id="ID0.923992021009326" fill="none" stroke="#000000" stroke-width="0.9446965000148362" stroke-linecap="round" d="M 94.7676 34.0632 C 94.7676 34.0632 90.7544 34.1808 90.7544 34.1808 "/>
      <path id="ID0.6422801343724132" fill="none" stroke="#000000" stroke-width="0.9446965000148362" stroke-linecap="round" d="M 87.825 4.6055 C 87.825 4.6055 86.7173 4.749 86.1794 4.89 C 85.6982 5.0161 85.2616 5.2917 84.7768 5.4037 C 84.4703 5.4746 83.8325 5.4313 83.8325 5.4313 "/>
      <path id="ID0.7584992088377476" fill="none" stroke="#000000" stroke-width="0.9446965000148362" stroke-linecap="round" d="M 87.7342 9.57 C 87.7342 9.57 86.3481 10.0831 85.6234 10.1044 C 85.1998 10.1168 84.4292 9.6668 84.4292 9.6668 "/>
      <path id="ID0.40438934741541743" fill="none" stroke="#000000" stroke-width="0.9446965000148362" stroke-linecap="round" d="M 87.5318 18.7907 C 86.8107 18.3397 86.0682 17.9163 85.3657 17.4365 C 85.1819 17.311 84.8797 16.9782 84.8797 16.9782 "/>
      <path id="ID0.7633831659331918" fill="none" stroke="#000000" stroke-width="0.9446965000148362" stroke-linecap="round" d="M 89.2673 21.5751 C 89.2673 21.5751 87.6999 21.8011 86.9135 21.8804 C 86.6007 21.9117 86.2837 21.8988 85.9692 21.908 C 85.5759 21.9195 85.1822 21.9311 84.7889 21.9426 C 84.6907 21.9455 84.7889 21.9426 84.7889 21.9426 "/>
      <path id="ID0.8195131137035787" fill="none" stroke="#000000" stroke-width="0.9446965000148362" stroke-linecap="round" d="M 88.0238 27.5184 C 88.0238 27.5184 87.4078 28.0095 87.1003 28.2543 C 86.7928 28.4991 86.4922 28.7556 86.1768 28.9902 C 85.7217 29.3291 85.2505 29.6477 84.788 29.976 C 84.6723 30.0578 84.788 29.976 84.788 29.976 "/>
      <path id="ID0.923992021009326" fill="none" stroke="#000000" stroke-width="0.9446965000148362" stroke-linecap="round" d="M 87.9676 33.6632 C 87.9676 33.6632 83.9544 33.7808 83.9544 33.7808 "/>
      <path id="ID0.6422801343724132" fill="none" stroke="#000000" stroke-width="0.9446965000148362" stroke-linecap="round" d="M 81.275 8.6055 C 81.275 8.6055 80.1673 8.749 79.6294 8.89 C 79.1482 9.0161 78.7116 9.2917 78.2268 9.4037 C 77.9203 9.4746 77.2825 9.4313 77.2825 9.4313 "/>
      <path id="ID0.7584992088377476" fill="none" stroke="#000000" stroke-width="0.9446965000148362" stroke-linecap="round" d="M 81.1842 13.57 C 81.1842 13.57 79.7981 14.0831 79.0734 14.1044 C 78.6498 14.1168 77.8792 13.6668 77.8792 13.6668 "/>
      <path id="ID0.40438934741541743" fill="none" stroke="#000000" stroke-width="0.9446965000148362" stroke-linecap="round" d="M 80.9818 22.7907 C 80.2607 22.3397 79.5182 21.9163 78.8157 21.4365 C 78.6319 21.311 78.3297 20.9782 78.3297 20.9782 "/>
      <path id="ID0.7633831659331918" fill="none" stroke="#000000" stroke-width="0.9446965000148362" stroke-linecap="round" d="M 82.7173 25.5751 C 82.7173 25.5751 81.1499 25.8011 80.3635 25.8804 C 80.0507 25.9117 79.7337 25.8988 79.4192 25.908 C 79.0259 25.9195 78.6322 25.9311 78.2389 25.9426 C 78.1407 25.9455 78.2389 25.9426 78.2389 25.9426 "/>
      <path id="ID0.8195131137035787" fill="none" stroke="#000000" stroke-width="0.9446965000148362" stroke-linecap="round" d="M 81.4738 31.5184 C 81.4738 31.5184 80.8578 32.0095 80.5503 32.2543 C 80.2428 32.4991 79.9422 32.7556 79.6268 32.9902 C 79.1717 33.3291 78.7005 33.6477 78.238 33.976 C 78.1223 34.0578 78.238 33.976 78.238 33.976 "/>
      <path id="ID0.6422801343724132" fill="none" stroke="#000000" stroke-width="0.9446965000148362" stroke-linecap="round" d="M 75.525 6.6055 C 75.525 6.6055 74.4173 6.749 73.8794 6.89 C 73.3982 7.0161 72.9616 7.2917 72.4768 7.4037 C 72.1703 7.4746 71.5325 7.4313 71.5325 7.4313 "/>
      <path id="ID0.7584992088377476" fill="none" stroke="#000000" stroke-width="0.9446965000148362" stroke-linecap="round" d="M 75.4342 11.57 C 75.4342 11.57 74.0481 12.0831 73.3234 12.1044 C 72.8998 12.1168 72.1292 11.6668 72.1292 11.6668 "/>
      <path id="ID0.40438934741541743" fill="none" stroke="#000000" stroke-width="0.9446965000148362" stroke-linecap="round" d="M 75.2318 20.7907 C 74.5107 20.3397 73.7682 19.9163 73.0657 19.4365 C 72.8819 19.311 72.5797 18.9782 72.5797 18.9782 "/>
      <path id="ID0.7633831659331918" fill="none" stroke="#000000" stroke-width="0.9446965000148362" stroke-linecap="round" d="M 76.9673 23.5751 C 76.9673 23.5751 75.3999 23.8011 74.6135 23.8804 C 74.3007 23.9117 73.9837 23.8988 73.6692 23.908 C 73.2759 23.9195 72.8822 23.9311 72.4889 23.9426 C 72.3907 23.9455 72.4889 23.9426 72.4889 23.9426 "/>
      <path id="ID0.8195131137035787" fill="none" stroke="#000000" stroke-width="0.9446965000148362" stroke-linecap="round" d="M 75.7238 29.5184 C 75.7238 29.5184 75.1078 30.0095 74.8003 30.2543 C 74.4928 30.4991 74.1922 30.7556 73.8768 30.9902 C 73.4217 31.3291 72.9505 31.6477 72.488 31.976 C 72.3723 32.0578 72.488 31.976 72.488 31.976 "/>
      <path id="ID0.923992021009326" fill="none" stroke="#000000" stroke-width="0.9446965000148362" stroke-linecap="round" d="M 75.6676 35.6632 C 75.6676 35.6632 71.6544 35.7808 71.6544 35.7808 "/>
      <path id="ID0.6422801343724132" fill="none" stroke="#000000" stroke-width="0.9446965000148362" stroke-linecap="round" d="M 68.425 11.6555 C 68.425 11.6555 67.3173 11.799 66.7794 11.94 C 66.2982 12.0661 65.8616 12.3417 65.3768 12.4537 C 65.0703 12.5246 64.4325 12.4813 64.4325 12.4813 "/>
      <path id="ID0.7584992088377476" fill="none" stroke="#000000" stroke-width="0.9446965000148362" stroke-linecap="round" d="M 68.3342 16.62 C 68.3342 16.62 66.9481 17.1331 66.2234 17.1544 C 65.7998 17.1668 65.0292 16.7168 65.0292 16.7168 "/>
      <path id="ID0.40438934741541743" fill="none" stroke="#000000" stroke-width="0.9446965000148362" stroke-linecap="round" d="M 68.1318 25.8407 C 67.4107 25.3897 66.6682 24.9663 65.9657 24.4865 C 65.7819 24.361 65.4797 24.0282 65.4797 24.0282 "/>
      <path id="ID0.7633831659331918" fill="none" stroke="#000000" stroke-width="0.9446965000148362" stroke-linecap="round" d="M 69.8673 28.6251 C 69.8673 28.6251 68.2999 28.8511 67.5135 28.9304 C 67.2007 28.9617 66.8837 28.9488 66.5692 28.958 C 66.1759 28.9695 65.7822 28.9811 65.3889 28.9926 C 65.2907 28.9955 65.3889 28.9926 65.3889 28.9926 "/>
      <path id="ID0.8195131137035787" fill="none" stroke="#000000" stroke-width="0.9446965000148362" stroke-linecap="round" d="M 68.6238 34.5684 C 68.6238 34.5684 68.0078 35.0595 67.7003 35.3043 C 67.3928 35.5491 67.0922 35.8056 66.7768 36.0402 C 66.3217 36.3791 65.8505 36.6977 65.388 37.026 C 65.2723 37.1078 65.388 37.026 65.388 37.026 "/>
      <path id="ID0.923992021009326" fill="none" stroke="#000000" stroke-width="0.9446965000148362" stroke-linecap="round" d="M 68.5676 40.7132 C 68.5676 40.7132 64.5544 40.8308 64.5544 40.8308 "/>
      <path id="ID0.6422801343724132" fill="none" stroke="#000000" stroke-width="0.9446965000148362" stroke-linecap="round" d="M 61.425 15.1555 C 61.425 15.1555 60.3173 15.299 59.7794 15.44 C 59.2982 15.5661 58.8616 15.8417 58.3768 15.9537 C 58.0703 16.0246 57.4325 15.9813 57.4325 15.9813 "/>
      <path id="ID0.7584992088377476" fill="none" stroke="#000000" stroke-width="0.9446965000148362" stroke-linecap="round" d="M 61.3342 20.12 C 61.3342 20.12 59.9481 20.6331 59.2234 20.6544 C 58.7998 20.6668 58.0292 20.2168 58.0292 20.2168 "/>
      <path id="ID0.40438934741541743" fill="none" stroke="#000000" stroke-width="0.9446965000148362" stroke-linecap="round" d="M 61.1318 29.3407 C 60.4107 28.8897 59.6682 28.4663 58.9657 27.9865 C 58.7819 27.861 58.4797 27.5282 58.4797 27.5282 "/>
      <path id="ID0.7633831659331918" fill="none" stroke="#000000" stroke-width="0.9446965000148362" stroke-linecap="round" d="M 62.8673 32.1251 C 62.8673 32.1251 61.2999 32.3511 60.5135 32.4304 C 60.2007 32.4617 59.8837 32.4488 59.5692 32.458 C 59.1759 32.4695 58.7822 32.4811 58.3889 32.4926 C 58.2907 32.4955 58.3889 32.4926 58.3889 32.4926 "/>
      <path id="ID0.8195131137035787" fill="none" stroke="#000000" stroke-width="0.9446965000148362" stroke-linecap="round" d="M 61.6238 38.0684 C 61.6238 38.0684 61.0078 38.5595 60.7003 38.8043 C 60.3928 39.0491 60.0922 39.3056 59.7768 39.5402 C 59.3217 39.8791 58.8505 40.1977 58.388 40.526 C 58.2723 40.6078 58.388 40.526 58.388 40.526 "/>
      <path id="ID0.923992021009326" fill="none" stroke="#000000" stroke-width="0.9446965000148362" stroke-linecap="round" d="M 61.5676 44.2132 C 61.5676 44.2132 57.5544 44.3308 57.5544 44.3308 "/>
      <path id="ID0.6422801343724132" fill="none" stroke="#000000" stroke-width="0.9446965000148362" stroke-linecap="round" d="M 53.225 20.1055 C 53.225 20.1055 52.1173 20.249 51.5794 20.39 C 51.0982 20.5161 50.6616 20.7917 50.1768 20.9037 C 49.8703 20.9746 49.2325 20.9313 49.2325 20.9313 "/>
      <path id="ID0.7584992088377476" fill="none" stroke="#000000" stroke-width="0.9446965000148362" stroke-linecap="round" d="M 53.1342 25.07 C 53.1342 25.07 51.7481 25.5831 51.0234 25.6044 C 50.5998 25.6168 49.8292 25.1668 49.8292 25.1668 "/>
      <path id="ID0.40438934741541743" fill="none" stroke="#000000" stroke-width="0.9446965000148362" stroke-linecap="round" d="M 52.9318 34.2907 C 52.2107 33.8397 51.4682 33.4163 50.7657 32.9365 C 50.5819 32.811 50.2797 32.4782 50.2797 32.4782 "/>
      <path id="ID0.7633831659331918" fill="none" stroke="#000000" stroke-width="0.9446965000148362" stroke-linecap="round" d="M 54.6673 37.0751 C 54.6673 37.0751 53.0999 37.3011 52.3135 37.3804 C 52.0007 37.4117 51.6837 37.3988 51.3692 37.408 C 50.9759 37.4195 50.5822 37.4311 50.1889 37.4426 C 50.0907 37.4455 50.1889 37.4426 50.1889 37.4426 "/>
      <path id="ID0.8195131137035787" fill="none" stroke="#000000" stroke-width="0.9446965000148362" stroke-linecap="round" d="M 53.4238 43.0184 C 53.4238 43.0184 52.8078 43.5095 52.5003 43.7543 C 52.1928 43.9991 51.8922 44.2556 51.5768 44.4902 C 51.1217 44.8291 50.6505 45.1477 50.188 45.476 C 50.0723 45.5578 50.188 45.476 50.188 45.476 "/>
      <path id="ID0.6422801343724132" fill="none" stroke="#000000" stroke-width="0.9446965000148362" stroke-linecap="round" d="M 46.875 21.5555 C 46.875 21.5555 45.7673 21.699 45.2294 21.84 C 44.7482 21.9661 44.3116 22.2417 43.8268 22.3537 C 43.5203 22.4246 42.8825 22.3813 42.8825 22.3813 "/>
      <path id="ID0.7584992088377476" fill="none" stroke="#000000" stroke-width="0.9446965000148362" stroke-linecap="round" d="M 46.7842 26.52 C 46.7842 26.52 45.3981 27.0331 44.6734 27.0544 C 44.2498 27.0668 43.4792 26.6168 43.4792 26.6168 "/>
      <path id="ID0.40438934741541743" fill="none" stroke="#000000" stroke-width="0.9446965000148362" stroke-linecap="round" d="M 46.5818 35.7407 C 45.8607 35.2897 45.1182 34.8663 44.4157 34.3865 C 44.2319 34.261 43.9297 33.9282 43.9297 33.9282 "/>
      <path id="ID0.7633831659331918" fill="none" stroke="#000000" stroke-width="0.9446965000148362" stroke-linecap="round" d="M 48.3173 38.5251 C 48.3173 38.5251 46.7499 38.7511 45.9635 38.8304 C 45.6507 38.8617 45.3337 38.8488 45.0192 38.858 C 44.6259 38.8695 44.2322 38.8811 43.8389 38.8926 C 43.7407 38.8955 43.8389 38.8926 43.8389 38.8926 "/>
      <path id="ID0.8195131137035787" fill="none" stroke="#000000" stroke-width="0.9446965000148362" stroke-linecap="round" d="M 47.0738 44.4684 C 47.0738 44.4684 46.4578 44.9595 46.1503 45.2043 C 45.8428 45.4491 45.5422 45.7056 45.2268 45.9402 C 44.7717 46.2791 44.3005 46.5977 43.838 46.926 C 43.7223 47.0078 43.838 46.926 43.838 46.926 "/>
      <path id="ID0.923992021009326" fill="none" stroke="#000000" stroke-width="0.9446965000148362" stroke-linecap="round" d="M 47.0176 50.6132 C 47.0176 50.6132 43.0044 50.7308 43.0044 50.7308 "/>
      <path id="ID0.6422801343724132" fill="none" stroke="#000000" stroke-width="0.9446965000148362" stroke-linecap="round" d="M 41.175 28.7555 C 41.175 28.7555 40.0673 28.899 39.5294 29.04 C 39.0482 29.1661 38.6116 29.4417 38.1268 29.5537 C 37.8203 29.6246 37.1825 29.5813 37.1825 29.5813 "/>
      <path id="ID0.7584992088377476" fill="none" stroke="#000000" stroke-width="0.9446965000148362" stroke-linecap="round" d="M 41.0842 33.72 C 41.0842 33.72 39.6981 34.2331 38.9734 34.2544 C 38.5498 34.2668 37.7792 33.8168 37.7792 33.8168 "/>
      <path id="ID0.40438934741541743" fill="none" stroke="#000000" stroke-width="0.9446965000148362" stroke-linecap="round" d="M 40.8818 42.9407 C 40.1607 42.4897 39.4182 42.0663 38.7157 41.5865 C 38.5319 41.461 38.2297 41.1282 38.2297 41.1282 "/>
      <path id="ID0.7633831659331918" fill="none" stroke="#000000" stroke-width="0.9446965000148362" stroke-linecap="round" d="M 42.6173 45.7251 C 42.6173 45.7251 41.0499 45.9511 40.2635 46.0304 C 39.9507 46.0617 39.6337 46.0488 39.3192 46.058 C 38.9259 46.0695 38.5322 46.0811 38.1389 46.0926 C 38.0407 46.0955 38.1389 46.0926 38.1389 46.0926 "/>
      <path id="ID0.8195131137035787" fill="none" stroke="#000000" stroke-width="0.9446965000148362" stroke-linecap="round" d="M 41.3738 51.6684 C 41.3738 51.6684 40.7578 52.1595 40.4503 52.4043 C 40.1428 52.6491 39.8422 52.9056 39.5268 53.1402 C 39.0717 53.4791 38.6005 53.7977 38.138 54.126 C 38.0223 54.2078 38.138 54.126 38.138 54.126 "/>
      <path id="ID0.923992021009326" fill="none" stroke="#000000" stroke-width="0.9446965000148362" stroke-linecap="round" d="M 41.3176 57.8132 C 41.3176 57.8132 37.3044 57.9308 37.3044 57.9308 "/>
      <path id="ID0.6422801343724132" fill="none" stroke="#000000" stroke-width="0.9446965000148362" stroke-linecap="round" d="M 123.075 51.5055 C 123.075 51.5055 121.9673 51.649 121.4294 51.79 C 120.9482 51.9161 120.5116 52.1917 120.0268 52.3037 C 119.7203 52.3746 119.0825 52.3313 119.0825 52.3313 "/>
      <path id="ID0.7584992088377476" fill="none" stroke="#000000" stroke-width="0.9446965000148362" stroke-linecap="round" d="M 122.9842 56.47 C 122.9842 56.47 121.5981 56.9831 120.8734 57.0044 C 120.4498 57.0168 119.6792 56.5668 119.6792 56.5668 "/>
      <path id="ID0.40438934741541743" fill="none" stroke="#000000" stroke-width="0.9446965000148362" stroke-linecap="round" d="M 122.7818 65.6907 C 122.0607 65.2397 121.3182 64.8163 120.6157 64.3365 C 120.4319 64.211 120.1297 63.8782 120.1297 63.8782 "/>
      <path id="ID0.7633831659331918" fill="none" stroke="#000000" stroke-width="0.9446965000148362" stroke-linecap="round" d="M 124.5173 68.4751 C 124.5173 68.4751 122.9499 68.7011 122.1635 68.7804 C 121.8507 68.8117 121.5337 68.7988 121.2192 68.808 C 120.8259 68.8195 120.4322 68.8311 120.0389 68.8426 C 119.9407 68.8455 120.0389 68.8426 120.0389 68.8426 "/>
      <path id="ID0.8195131137035787" fill="none" stroke="#000000" stroke-width="0.9446965000148362" stroke-linecap="round" d="M 123.2738 74.4184 C 123.2738 74.4184 122.6578 74.9095 122.3503 75.1543 C 122.0428 75.3991 121.7422 75.6556 121.4268 75.8902 C 120.9717 76.2291 120.5005 76.5477 120.038 76.876 C 119.9223 76.9578 120.038 76.876 120.038 76.876 "/>
      <path id="ID0.923992021009326" fill="none" stroke="#000000" stroke-width="0.9446965000148362" stroke-linecap="round" d="M 123.2176 80.5632 C 123.2176 80.5632 119.2044 80.6808 119.2044 80.6808 "/>
      <path id="ID0.6422801343724132" fill="none" stroke="#000000" stroke-width="0.9446965000148362" stroke-linecap="round" d="M 116.975 62.2555 C 116.975 62.2555 115.8673 62.399 115.3294 62.54 C 114.8482 62.6661 114.4116 62.9417 113.9268 63.0537 C 113.6203 63.1246 112.9825 63.0813 112.9825 63.0813 "/>
      <path id="ID0.7584992088377476" fill="none" stroke="#000000" stroke-width="0.9446965000148362" stroke-linecap="round" d="M 116.8842 67.22 C 116.8842 67.22 115.4981 67.7331 114.7734 67.7544 C 114.3498 67.7668 113.5792 67.3168 113.5792 67.3168 "/>
      <path id="ID0.40438934741541743" fill="none" stroke="#000000" stroke-width="0.9446965000148362" stroke-linecap="round" d="M 116.6818 76.4407 C 115.9607 75.9897 115.2182 75.5663 114.5157 75.0865 C 114.3319 74.961 114.0297 74.6282 114.0297 74.6282 "/>
      <path id="ID0.7633831659331918" fill="none" stroke="#000000" stroke-width="0.9446965000148362" stroke-linecap="round" d="M 118.4173 79.2251 C 118.4173 79.2251 116.8499 79.4511 116.0635 79.5304 C 115.7507 79.5617 115.4337 79.5488 115.1192 79.558 C 114.7259 79.5695 114.3322 79.5811 113.9389 79.5926 C 113.8407 79.5955 113.9389 79.5926 113.9389 79.5926 "/>
      <path id="ID0.8195131137035787" fill="none" stroke="#000000" stroke-width="0.9446965000148362" stroke-linecap="round" d="M 117.1738 85.1684 C 117.1738 85.1684 116.5578 85.6595 116.2503 85.9043 C 115.9428 86.1491 115.6422 86.4056 115.3268 86.6402 C 114.8717 86.9791 114.4005 87.2977 113.938 87.626 C 113.8223 87.7078 113.938 87.626 113.938 87.626 "/>
      <path id="ID0.923992021009326" fill="none" stroke="#000000" stroke-width="0.9446965000148362" stroke-linecap="round" d="M 117.1176 91.3132 C 117.1176 91.3132 113.1044 91.4308 113.1044 91.4308 "/>
      <path id="ID0.7584992088377476" fill="none" stroke="#000000" stroke-width="0.9446965000148362" stroke-linecap="round" d="M 110.3842 66.22 C 110.3842 66.22 108.9981 66.7331 108.2734 66.7544 C 107.8498 66.7668 107.0792 66.3168 107.0792 66.3168 "/>
      <path id="ID0.40438934741541743" fill="none" stroke="#000000" stroke-width="0.9446965000148362" stroke-linecap="round" d="M 110.1818 75.4407 C 109.4607 74.9897 108.7182 74.5663 108.0157 74.0865 C 107.8319 73.961 107.5297 73.6282 107.5297 73.6282 "/>
      <path id="ID0.7633831659331918" fill="none" stroke="#000000" stroke-width="0.9446965000148362" stroke-linecap="round" d="M 111.9173 78.2251 C 111.9173 78.2251 110.3499 78.4511 109.5635 78.5304 C 109.2507 78.5617 108.9337 78.5488 108.6192 78.558 C 108.2259 78.5695 107.8322 78.5811 107.4389 78.5926 C 107.3407 78.5955 107.4389 78.5926 107.4389 78.5926 "/>
      <path id="ID0.8195131137035787" fill="none" stroke="#000000" stroke-width="0.9446965000148362" stroke-linecap="round" d="M 110.6738 84.1684 C 110.6738 84.1684 110.0578 84.6595 109.7503 84.9043 C 109.4428 85.1491 109.1422 85.4056 108.8268 85.6402 C 108.3717 85.9791 107.9005 86.2977 107.438 86.626 C 107.3223 86.7078 107.438 86.626 107.438 86.626 "/>
      <path id="ID0.923992021009326" fill="none" stroke="#000000" stroke-width="0.9446965000148362" stroke-linecap="round" d="M 110.6176 90.3132 C 110.6176 90.3132 106.6044 90.4308 106.6044 90.4308 "/>
      <path id="ID0.6422801343724132" fill="none" stroke="#000000" stroke-width="0.9446965000148362" stroke-linecap="round" d="M 103.175 64.7555 C 103.175 64.7555 102.0673 64.899 101.5294 65.04 C 101.0482 65.1661 100.6116 65.4417 100.1268 65.5537 C 99.8203 65.6246 99.1825 65.5813 99.1825 65.5813 "/>
      <path id="ID0.7584992088377476" fill="none" stroke="#000000" stroke-width="0.9446965000148362" stroke-linecap="round" d="M 103.0842 69.72 C 103.0842 69.72 101.6981 70.2331 100.9734 70.2544 C 100.5498 70.2668 99.7792 69.8168 99.7792 69.8168 "/>
      <path id="ID0.40438934741541743" fill="none" stroke="#000000" stroke-width="0.9446965000148362" stroke-linecap="round" d="M 102.8818 78.9407 C 102.1607 78.4897 101.4182 78.0663 100.7157 77.5865 C 100.5319 77.461 100.2297 77.1282 100.2297 77.1282 "/>
      <path id="ID0.7633831659331918" fill="none" stroke="#000000" stroke-width="0.9446965000148362" stroke-linecap="round" d="M 104.6173 81.7251 C 104.6173 81.7251 103.0499 81.9511 102.2635 82.0304 C 101.9507 82.0617 101.6337 82.0488 101.3192 82.058 C 100.9259 82.0695 100.5322 82.0811 100.1389 82.0926 C 100.0407 82.0955 100.1389 82.0926 100.1389 82.0926 "/>
      <path id="ID0.8195131137035787" fill="none" stroke="#000000" stroke-width="0.9446965000148362" stroke-linecap="round" d="M 103.3738 87.6684 C 103.3738 87.6684 102.7578 88.1595 102.4503 88.4043 C 102.1428 88.6491 101.8422 88.9056 101.5268 89.1402 C 101.0717 89.4791 100.6005 89.7977 100.138 90.126 C 100.0223 90.2078 100.138 90.126 100.138 90.126 "/>
      <path id="ID0.923992021009326" fill="none" stroke="#000000" stroke-width="0.9446965000148362" stroke-linecap="round" d="M 103.3176 93.8132 C 103.3176 93.8132 99.3044 93.9308 99.3044 93.9308 "/>
      <path id="ID0.6422801343724132" fill="none" stroke="#000000" stroke-width="0.9446965000148362" stroke-linecap="round" d="M 96.125 66.2555 C 96.125 66.2555 95.0173 66.399 94.4794 66.54 C 93.9982 66.6661 93.5616 66.9417 93.0768 67.0537 C 92.7703 67.1246 92.1325 67.0813 92.1325 67.0813 "/>
      <path id="ID0.7584992088377476" fill="none" stroke="#000000" stroke-width="0.9446965000148362" stroke-linecap="round" d="M 96.0342 71.22 C 96.0342 71.22 94.6481 71.7331 93.9234 71.7544 C 93.4998 71.7668 92.7292 71.3168 92.7292 71.3168 "/>
      <path id="ID0.40438934741541743" fill="none" stroke="#000000" stroke-width="0.9446965000148362" stroke-linecap="round" d="M 95.8318 80.4407 C 95.1107 79.9897 94.3682 79.5663 93.6657 79.0865 C 93.4819 78.961 93.1797 78.6282 93.1797 78.6282 "/>
      <path id="ID0.7633831659331918" fill="none" stroke="#000000" stroke-width="0.9446965000148362" stroke-linecap="round" d="M 97.5673 83.2251 C 97.5673 83.2251 95.9999 83.4511 95.2135 83.5304 C 94.9007 83.5617 94.5837 83.5488 94.2692 83.558 C 93.8759 83.5695 93.4822 83.5811 93.0889 83.5926 C 92.9907 83.5955 93.0889 83.5926 93.0889 83.5926 "/>
      <path id="ID0.8195131137035787" fill="none" stroke="#000000" stroke-width="0.9446965000148362" stroke-linecap="round" d="M 96.3238 89.1684 C 96.3238 89.1684 95.7078 89.6595 95.4003 89.9043 C 95.0928 90.1491 94.7922 90.4056 94.4768 90.6402 C 94.0217 90.9791 93.5505 91.2977 93.088 91.626 C 92.9723 91.7078 93.088 91.626 93.088 91.626 "/>
      <path id="ID0.923992021009326" fill="none" stroke="#000000" stroke-width="0.9446965000148362" stroke-linecap="round" d="M 96.2676 95.3132 C 96.2676 95.3132 92.2544 95.4308 92.2544 95.4308 "/>
      <path id="ID0.6422801343724132" fill="none" stroke="#000000" stroke-width="0.9446965000148362" stroke-linecap="round" d="M 83.225 71.5055 C 83.225 71.5055 82.1173 71.649 81.5794 71.79 C 81.0982 71.9161 80.6616 72.1917 80.1768 72.3037 C 79.8703 72.3746 79.2325 72.3313 79.2325 72.3313 "/>
      <path id="ID0.7584992088377476" fill="none" stroke="#000000" stroke-width="0.9446965000148362" stroke-linecap="round" d="M 83.1342 76.47 C 83.1342 76.47 81.7481 76.9831 81.0234 77.0044 C 80.5998 77.0168 79.8292 76.5668 79.8292 76.5668 "/>
      <path id="ID0.40438934741541743" fill="none" stroke="#000000" stroke-width="0.9446965000148362" stroke-linecap="round" d="M 82.9318 85.6907 C 82.2107 85.2397 81.4682 84.8163 80.7657 84.3365 C 80.5819 84.211 80.2797 83.8782 80.2797 83.8782 "/>
      <path id="ID0.7633831659331918" fill="none" stroke="#000000" stroke-width="0.9446965000148362" stroke-linecap="round" d="M 84.6673 88.4751 C 84.6673 88.4751 83.0999 88.7011 82.3135 88.7804 C 82.0007 88.8117 81.6837 88.7988 81.3692 88.808 C 80.9759 88.8195 80.5822 88.8311 80.1889 88.8426 C 80.0907 88.8455 80.1889 88.8426 80.1889 88.8426 "/>
      <path id="ID0.8195131137035787" fill="none" stroke="#000000" stroke-width="0.9446965000148362" stroke-linecap="round" d="M 83.4238 94.4184 C 83.4238 94.4184 82.8078 94.9095 82.5003 95.1543 C 82.1928 95.3991 81.8922 95.6556 81.5768 95.8902 C 81.1217 96.2291 80.6505 96.5477 80.188 96.876 C 80.0723 96.9578 80.188 96.876 80.188 96.876 "/>
      <path id="ID0.923992021009326" fill="none" stroke="#000000" stroke-width="0.9446965000148362" stroke-linecap="round" d="M 83.3676 100.5632 C 83.3676 100.5632 79.3544 100.6808 79.3544 100.6808 "/>
      <path id="ID0.7584992088377476" fill="none" stroke="#000000" stroke-width="0.9446965000148362" stroke-linecap="round" d="M 89.3342 69.47 C 89.3342 69.47 87.9481 69.9831 87.2234 70.0044 C 86.7998 70.0168 86.0292 69.5668 86.0292 69.5668 "/>
      <path id="ID0.40438934741541743" fill="none" stroke="#000000" stroke-width="0.9446965000148362" stroke-linecap="round" d="M 89.1318 78.6907 C 88.4107 78.2397 87.6682 77.8163 86.9657 77.3365 C 86.7819 77.211 86.4797 76.8782 86.4797 76.8782 "/>
      <path id="ID0.7633831659331918" fill="none" stroke="#000000" stroke-width="0.9446965000148362" stroke-linecap="round" d="M 90.8673 81.4751 C 90.8673 81.4751 89.2999 81.7011 88.5135 81.7804 C 88.2007 81.8117 87.8837 81.7988 87.5692 81.808 C 87.1759 81.8195 86.7822 81.8311 86.3889 81.8426 C 86.2907 81.8455 86.3889 81.8426 86.3889 81.8426 "/>
      <path id="ID0.8195131137035787" fill="none" stroke="#000000" stroke-width="0.9446965000148362" stroke-linecap="round" d="M 89.6238 87.4184 C 89.6238 87.4184 89.0078 87.9095 88.7003 88.1543 C 88.3928 88.3991 88.0922 88.6556 87.7768 88.8902 C 87.3217 89.2291 86.8505 89.5477 86.388 89.876 C 86.2723 89.9578 86.388 89.876 86.388 89.876 "/>
      <path id="ID0.923992021009326" fill="none" stroke="#000000" stroke-width="0.9446965000148362" stroke-linecap="round" d="M 89.5676 93.5632 C 89.5676 93.5632 85.5544 93.6808 85.5544 93.6808 "/>
      <path id="ID0.7584992088377476" fill="none" stroke="#000000" stroke-width="0.9446965000148362" stroke-linecap="round" d="M 77.0342 71.22 C 77.0342 71.22 75.6481 71.7331 74.9234 71.7544 C 74.4998 71.7668 73.7292 71.3168 73.7292 71.3168 "/>
      <path id="ID0.40438934741541743" fill="none" stroke="#000000" stroke-width="0.9446965000148362" stroke-linecap="round" d="M 76.8318 80.4407 C 76.1107 79.9897 75.3682 79.5663 74.6657 79.0865 C 74.4819 78.961 74.1797 78.6282 74.1797 78.6282 "/>
      <path id="ID0.7633831659331918" fill="none" stroke="#000000" stroke-width="0.9446965000148362" stroke-linecap="round" d="M 78.5673 83.2251 C 78.5673 83.2251 76.9999 83.4511 76.2135 83.5304 C 75.9007 83.5617 75.5837 83.5488 75.2692 83.558 C 74.8759 83.5695 74.4822 83.5811 74.0889 83.5926 C 73.9907 83.5955 74.0889 83.5926 74.0889 83.5926 "/>
      <path id="ID0.8195131137035787" fill="none" stroke="#000000" stroke-width="0.9446965000148362" stroke-linecap="round" d="M 77.3238 89.1684 C 77.3238 89.1684 76.7078 89.6595 76.4003 89.9043 C 76.0928 90.1491 75.7922 90.4056 75.4768 90.6402 C 75.0217 90.9791 74.5505 91.2977 74.088 91.626 C 73.9723 91.7078 74.088 91.626 74.088 91.626 "/>
      <path id="ID0.923992021009326" fill="none" stroke="#000000" stroke-width="0.9446965000148362" stroke-linecap="round" d="M 77.2676 95.3132 C 77.2676 95.3132 73.2544 95.4308 73.2544 95.4308 "/>
      <path id="ID0.6422801343724132" fill="none" stroke="#000000" stroke-width="0.9446965000148362" stroke-linecap="round" d="M 69.375 65.0055 C 69.375 65.0055 68.2673 65.149 67.7294 65.29 C 67.2482 65.4161 66.8116 65.6917 66.3268 65.8037 C 66.0203 65.8746 65.3825 65.8313 65.3825 65.8313 "/>
      <path id="ID0.7584992088377476" fill="none" stroke="#000000" stroke-width="0.9446965000148362" stroke-linecap="round" d="M 69.2842 69.97 C 69.2842 69.97 67.8981 70.4831 67.1734 70.5044 C 66.7498 70.5168 65.9792 70.0668 65.9792 70.0668 "/>
      <path id="ID0.40438934741541743" fill="none" stroke="#000000" stroke-width="0.9446965000148362" stroke-linecap="round" d="M 69.0818 79.1907 C 68.3607 78.7397 67.6182 78.3163 66.9157 77.8365 C 66.7319 77.711 66.4297 77.3782 66.4297 77.3782 "/>
      <path id="ID0.7633831659331918" fill="none" stroke="#000000" stroke-width="0.9446965000148362" stroke-linecap="round" d="M 70.8173 81.9751 C 70.8173 81.9751 69.2499 82.2011 68.4635 82.2804 C 68.1507 82.3117 67.8337 82.2988 67.5192 82.308 C 67.1259 82.3195 66.7322 82.3311 66.3389 82.3426 C 66.2407 82.3455 66.3389 82.3426 66.3389 82.3426 "/>
      <path id="ID0.8195131137035787" fill="none" stroke="#000000" stroke-width="0.9446965000148362" stroke-linecap="round" d="M 69.5738 87.9184 C 69.5738 87.9184 68.9578 88.4095 68.6503 88.6543 C 68.3428 88.8991 68.0422 89.1556 67.7268 89.3902 C 67.2717 89.7291 66.8005 90.0477 66.338 90.376 C 66.2223 90.4578 66.338 90.376 66.338 90.376 "/>
      <path id="ID0.923992021009326" fill="none" stroke="#000000" stroke-width="0.9446965000148362" stroke-linecap="round" d="M 69.5176 94.0632 C 69.5176 94.0632 65.5044 94.1808 65.5044 94.1808 "/>
      <path id="ID0.7584992088377476" fill="none" stroke="#000000" stroke-width="0.9446965000148362" stroke-linecap="round" d="M 62.3842 69.22 C 62.3842 69.22 60.9981 69.7331 60.2734 69.7544 C 59.8498 69.7668 59.0792 69.3168 59.0792 69.3168 "/>
      <path id="ID0.40438934741541743" fill="none" stroke="#000000" stroke-width="0.9446965000148362" stroke-linecap="round" d="M 62.1818 78.4407 C 61.4607 77.9897 60.7182 77.5663 60.0157 77.0865 C 59.8319 76.961 59.5297 76.6282 59.5297 76.6282 "/>
      <path id="ID0.7633831659331918" fill="none" stroke="#000000" stroke-width="0.9446965000148362" stroke-linecap="round" d="M 63.9173 81.2251 C 63.9173 81.2251 62.3499 81.4511 61.5635 81.5304 C 61.2507 81.5617 60.9337 81.5488 60.6192 81.558 C 60.2259 81.5695 59.8322 81.5811 59.4389 81.5926 C 59.3407 81.5955 59.4389 81.5926 59.4389 81.5926 "/>
      <path id="ID0.8195131137035787" fill="none" stroke="#000000" stroke-width="0.9446965000148362" stroke-linecap="round" d="M 62.6738 87.1684 C 62.6738 87.1684 62.0578 87.6595 61.7503 87.9043 C 61.4428 88.1491 61.1422 88.4056 60.8268 88.6402 C 60.3717 88.9791 59.9005 89.2977 59.438 89.626 C 59.3223 89.7078 59.438 89.626 59.438 89.626 "/>
      <path id="ID0.923992021009326" fill="none" stroke="#000000" stroke-width="0.9446965000148362" stroke-linecap="round" d="M 62.6176 93.3132 C 62.6176 93.3132 58.6044 93.4308 58.6044 93.4308 "/>
      <path id="ID0.7584992088377476" fill="none" stroke="#000000" stroke-width="0.9446965000148362" stroke-linecap="round" d="M 56.1842 66.47 C 56.1842 66.47 54.7981 66.9831 54.0734 67.0044 C 53.6498 67.0168 52.8792 66.5668 52.8792 66.5668 "/>
      <path id="ID0.40438934741541743" fill="none" stroke="#000000" stroke-width="0.9446965000148362" stroke-linecap="round" d="M 55.9818 75.6907 C 55.2607 75.2397 54.5182 74.8163 53.8157 74.3365 C 53.6319 74.211 53.3297 73.8782 53.3297 73.8782 "/>
      <path id="ID0.7633831659331918" fill="none" stroke="#000000" stroke-width="0.9446965000148362" stroke-linecap="round" d="M 57.7173 78.4751 C 57.7173 78.4751 56.1499 78.7011 55.3635 78.7804 C 55.0507 78.8117 54.7337 78.7988 54.4192 78.808 C 54.0259 78.8195 53.6322 78.8311 53.2389 78.8426 C 53.1407 78.8455 53.2389 78.8426 53.2389 78.8426 "/>
      <path id="ID0.8195131137035787" fill="none" stroke="#000000" stroke-width="0.9446965000148362" stroke-linecap="round" d="M 56.4738 84.4184 C 56.4738 84.4184 55.8578 84.9095 55.5503 85.1543 C 55.2428 85.3991 54.9422 85.6556 54.6268 85.8902 C 54.1717 86.2291 53.7005 86.5477 53.238 86.876 C 53.1223 86.9578 53.238 86.876 53.238 86.876 "/>
      <path id="ID0.923992021009326" fill="none" stroke="#000000" stroke-width="0.9446965000148362" stroke-linecap="round" d="M 56.4176 90.5632 C 56.4176 90.5632 52.4044 90.6808 52.4044 90.6808 "/>
      <path id="ID0.6422801343724132" fill="none" stroke="#000000" stroke-width="0.9446965000148362" stroke-linecap="round" d="M 49.125 57.5055 C 49.125 57.5055 48.0173 57.649 47.4794 57.79 C 46.9982 57.9161 46.5616 58.1917 46.0768 58.3037 C 45.7703 58.3746 45.1325 58.3313 45.1325 58.3313 "/>
      <path id="ID0.7584992088377476" fill="none" stroke="#000000" stroke-width="0.9446965000148362" stroke-linecap="round" d="M 49.0342 62.47 C 49.0342 62.47 47.6481 62.9831 46.9234 63.0044 C 46.4998 63.0168 45.7292 62.5668 45.7292 62.5668 "/>
      <path id="ID0.40438934741541743" fill="none" stroke="#000000" stroke-width="0.9446965000148362" stroke-linecap="round" d="M 48.8318 71.6907 C 48.1107 71.2397 47.3682 70.8163 46.6657 70.3365 C 46.4819 70.211 46.1797 69.8782 46.1797 69.8782 "/>
      <path id="ID0.7633831659331918" fill="none" stroke="#000000" stroke-width="0.9446965000148362" stroke-linecap="round" d="M 50.5673 74.4751 C 50.5673 74.4751 48.9999 74.7011 48.2135 74.7804 C 47.9007 74.8117 47.5837 74.7988 47.2692 74.808 C 46.8759 74.8195 46.4822 74.8311 46.0889 74.8426 C 45.9907 74.8455 46.0889 74.8426 46.0889 74.8426 "/>
      <path id="ID0.8195131137035787" fill="none" stroke="#000000" stroke-width="0.9446965000148362" stroke-linecap="round" d="M 49.3238 80.4184 C 49.3238 80.4184 48.7078 80.9095 48.4003 81.1543 C 48.0928 81.3991 47.7922 81.6556 47.4768 81.8902 C 47.0217 82.2291 46.5505 82.5477 46.088 82.876 C 45.9723 82.9578 46.088 82.876 46.088 82.876 "/>
      <path id="ID0.923992021009326" fill="none" stroke="#000000" stroke-width="0.9446965000148362" stroke-linecap="round" d="M 49.2676 86.5632 C 49.2676 86.5632 45.2544 86.6808 45.2544 86.6808 "/>
      <path id="ID0.6422801343724132" fill="none" stroke="#000000" stroke-width="0.9446965000148362" stroke-linecap="round" d="M 43.675 55.2555 C 43.675 55.2555 42.5673 55.399 42.0294 55.54 C 41.5482 55.6661 41.1116 55.9417 40.6268 56.0537 C 40.3203 56.1246 39.6825 56.0813 39.6825 56.0813 "/>
      <path id="ID0.7584992088377476" fill="none" stroke="#000000" stroke-width="0.9446965000148362" stroke-linecap="round" d="M 42.0342 62.97 C 42.0342 62.97 40.6481 63.4831 39.9234 63.5044 C 39.4998 63.5168 38.7292 63.0668 38.7292 63.0668 "/>
      <path id="ID0.40438934741541743" fill="none" stroke="#000000" stroke-width="0.9446965000148362" stroke-linecap="round" d="M 43.3818 69.4407 C 42.6607 68.9897 41.9182 68.5663 41.2157 68.0865 C 41.0319 67.961 40.7297 67.6282 40.7297 67.6282 "/>
      <path id="ID0.7633831659331918" fill="none" stroke="#000000" stroke-width="0.9446965000148362" stroke-linecap="round" d="M 45.1173 72.2251 C 45.1173 72.2251 43.5499 72.4511 42.7635 72.5304 C 42.4507 72.5617 42.1337 72.5488 41.8192 72.558 C 41.4259 72.5695 41.0322 72.5811 40.6389 72.5926 C 40.5407 72.5955 40.6389 72.5926 40.6389 72.5926 "/>
      <path id="ID0.8195131137035787" fill="none" stroke="#000000" stroke-width="0.9446965000148362" stroke-linecap="round" d="M 43.8738 78.1684 C 43.8738 78.1684 43.2578 78.6595 42.9503 78.9043 C 42.6428 79.1491 42.3422 79.4056 42.0268 79.6402 C 41.5717 79.9791 41.1005 80.2977 40.638 80.626 C 40.5223 80.7078 40.638 80.626 40.638 80.626 "/>
      <path id="ID0.923992021009326" fill="none" stroke="#000000" stroke-width="0.9446965000148362" stroke-linecap="round" d="M 43.8176 84.3132 C 43.8176 84.3132 39.8044 84.4308 39.8044 84.4308 "/>
      <path id="ID0.6422801343724132" fill="none" stroke="#000000" stroke-width="0.9446965000148362" stroke-linecap="round" d="M 94.725 35.9555 C 94.725 35.9555 93.6173 36.099 93.0794 36.24 C 92.5982 36.3661 92.1616 36.6417 91.6768 36.7537 C 91.3703 36.8246 90.7325 36.7813 90.7325 36.7813 "/>
      <path id="ID0.7584992088377476" fill="none" stroke="#000000" stroke-width="0.9446965000148362" stroke-linecap="round" d="M 94.6342 40.92 C 94.6342 40.92 93.2481 41.4331 92.5234 41.4544 C 92.0998 41.4668 91.3292 41.0168 91.3292 41.0168 "/>
      <path id="ID0.40438934741541743" fill="none" stroke="#000000" stroke-width="0.9446965000148362" stroke-linecap="round" d="M 94.4318 50.1407 C 93.7107 49.6897 92.9682 49.2663 92.2657 48.7865 C 92.0819 48.661 91.7797 48.3282 91.7797 48.3282 "/>
      <path id="ID0.7633831659331918" fill="none" stroke="#000000" stroke-width="0.9446965000148362" stroke-linecap="round" d="M 96.1673 52.9251 C 96.1673 52.9251 94.5999 53.1511 93.8135 53.2304 C 93.5007 53.2617 93.1837 53.2488 92.8692 53.258 C 92.4759 53.2695 92.0822 53.2811 91.6889 53.2926 C 91.5907 53.2955 91.6889 53.2926 91.6889 53.2926 "/>
      <path id="ID0.8195131137035787" fill="none" stroke="#000000" stroke-width="0.9446965000148362" stroke-linecap="round" d="M 94.9238 58.8684 C 94.9238 58.8684 94.3078 59.3595 94.0003 59.6043 C 93.6928 59.8491 93.3922 60.1056 93.0768 60.3402 C 92.6217 60.6791 92.1505 60.9977 91.688 61.326 C 91.5723 61.4078 91.688 61.326 91.688 61.326 "/>
      <path id="ID0.6422801343724132" fill="none" stroke="#000000" stroke-width="0.9446965000148362" stroke-linecap="round" d="M 86.875 36.2055 C 86.875 36.2055 85.7673 36.349 85.2294 36.49 C 84.7482 36.6161 84.3116 36.8917 83.8268 37.0037 C 83.5203 37.0746 82.8825 37.0313 82.8825 37.0313 "/>
      <path id="ID0.7584992088377476" fill="none" stroke="#000000" stroke-width="0.9446965000148362" stroke-linecap="round" d="M 86.7842 41.17 C 86.7842 41.17 85.3981 41.6831 84.6734 41.7044 C 84.2498 41.7168 83.4792 41.2668 83.4792 41.2668 "/>
      <path id="ID0.40438934741541743" fill="none" stroke="#000000" stroke-width="0.9446965000148362" stroke-linecap="round" d="M 86.5818 50.3907 C 85.8607 49.9397 85.1182 49.5163 84.4157 49.0365 C 84.2319 48.911 83.9297 48.5782 83.9297 48.5782 "/>
      <path id="ID0.7633831659331918" fill="none" stroke="#000000" stroke-width="0.9446965000148362" stroke-linecap="round" d="M 88.3173 53.1751 C 88.3173 53.1751 86.7499 53.4011 85.9635 53.4804 C 85.6507 53.5117 85.3337 53.4988 85.0192 53.508 C 84.6259 53.5195 84.2322 53.5311 83.8389 53.5426 C 83.7407 53.5455 83.8389 53.5426 83.8389 53.5426 "/>
      <path id="ID0.8195131137035787" fill="none" stroke="#000000" stroke-width="0.9446965000148362" stroke-linecap="round" d="M 87.0738 59.1184 C 87.0738 59.1184 86.4578 59.6095 86.1503 59.8543 C 85.8428 60.0991 85.5422 60.3556 85.2268 60.5902 C 84.7717 60.9291 84.3005 61.2477 83.838 61.576 C 83.7223 61.6578 83.838 61.576 83.838 61.576 "/>
      <path id="ID0.923992021009326" fill="none" stroke="#000000" stroke-width="0.9446965000148362" stroke-linecap="round" d="M 87.0176 65.2632 C 87.0176 65.2632 83.0044 65.3808 83.0044 65.3808 "/>
      <path id="ID0.6422801343724132" fill="none" stroke="#000000" stroke-width="0.9446965000148362" stroke-linecap="round" d="M 79.475 38.7555 C 79.475 38.7555 78.3673 38.899 77.8294 39.04 C 77.3482 39.1661 76.9116 39.4417 76.4268 39.5537 C 76.1203 39.6246 75.4825 39.5813 75.4825 39.5813 "/>
      <path id="ID0.7584992088377476" fill="none" stroke="#000000" stroke-width="0.9446965000148362" stroke-linecap="round" d="M 79.3842 43.72 C 79.3842 43.72 77.9981 44.2331 77.2734 44.2544 C 76.8498 44.2668 76.0792 43.8168 76.0792 43.8168 "/>
      <path id="ID0.40438934741541743" fill="none" stroke="#000000" stroke-width="0.9446965000148362" stroke-linecap="round" d="M 79.1818 52.9407 C 78.4607 52.4897 77.7182 52.0663 77.0157 51.5865 C 76.8319 51.461 76.5297 51.1282 76.5297 51.1282 "/>
      <path id="ID0.7633831659331918" fill="none" stroke="#000000" stroke-width="0.9446965000148362" stroke-linecap="round" d="M 80.9173 55.7251 C 80.9173 55.7251 79.3499 55.9511 78.5635 56.0304 C 78.2507 56.0617 77.9337 56.0488 77.6192 56.058 C 77.2259 56.0695 76.8322 56.0811 76.4389 56.0926 C 76.3407 56.0955 76.4389 56.0926 76.4389 56.0926 "/>
      <path id="ID0.8195131137035787" fill="none" stroke="#000000" stroke-width="0.9446965000148362" stroke-linecap="round" d="M 79.6738 61.6684 C 79.6738 61.6684 79.0578 62.1595 78.7503 62.4043 C 78.4428 62.6491 78.1422 62.9056 77.8268 63.1402 C 77.3717 63.4791 76.9005 63.7977 76.438 64.126 C 76.3223 64.2078 76.438 64.126 76.438 64.126 "/>
      <path id="ID0.923992021009326" fill="none" stroke="#000000" stroke-width="0.9446965000148362" stroke-linecap="round" d="M 79.6176 67.8132 C 79.6176 67.8132 75.6044 67.9308 75.6044 67.9308 "/>
      <path id="ID0.6422801343724132" fill="none" stroke="#000000" stroke-width="0.9446965000148362" stroke-linecap="round" d="M 72.775 43.0055 C 72.775 43.0055 71.6673 43.149 71.1294 43.29 C 70.6482 43.4161 70.2116 43.6917 69.7268 43.8037 C 69.4203 43.8746 68.7825 43.8313 68.7825 43.8313 "/>
      <path id="ID0.7584992088377476" fill="none" stroke="#000000" stroke-width="0.9446965000148362" stroke-linecap="round" d="M 72.6842 47.97 C 72.6842 47.97 71.2981 48.4831 70.5734 48.5044 C 70.1498 48.5168 69.3792 48.0668 69.3792 48.0668 "/>
      <path id="ID0.40438934741541743" fill="none" stroke="#000000" stroke-width="0.9446965000148362" stroke-linecap="round" d="M 72.4818 57.1907 C 71.7607 56.7397 71.0182 56.3163 70.3157 55.8365 C 70.1319 55.711 69.8297 55.3782 69.8297 55.3782 "/>
      <path id="ID0.7633831659331918" fill="none" stroke="#000000" stroke-width="0.9446965000148362" stroke-linecap="round" d="M 74.2173 59.9751 C 74.2173 59.9751 72.6499 60.2011 71.8635 60.2804 C 71.5507 60.3117 71.2337 60.2988 70.9192 60.308 C 70.5259 60.3195 70.1322 60.3311 69.7389 60.3426 C 69.6407 60.3455 69.7389 60.3426 69.7389 60.3426 "/>
      <path id="ID0.6422801343724132" fill="none" stroke="#000000" stroke-width="0.9446965000148362" stroke-linecap="round" d="M 66.125 44.6055 C 66.125 44.6055 65.0173 44.749 64.4794 44.89 C 63.9982 45.0161 63.5616 45.2917 63.0768 45.4037 C 62.7703 45.4746 62.1325 45.4313 62.1325 45.4313 "/>
      <path id="ID0.7584992088377476" fill="none" stroke="#000000" stroke-width="0.9446965000148362" stroke-linecap="round" d="M 66.0342 49.57 C 66.0342 49.57 64.6481 50.0831 63.9234 50.1044 C 63.4998 50.1168 62.7292 49.6668 62.7292 49.6668 "/>
      <path id="ID0.40438934741541743" fill="none" stroke="#000000" stroke-width="0.9446965000148362" stroke-linecap="round" d="M 65.8318 58.7907 C 65.1107 58.3397 64.3682 57.9163 63.6657 57.4365 C 63.4819 57.311 63.1797 56.9782 63.1797 56.9782 "/>
      <path id="ID0.7633831659331918" fill="none" stroke="#000000" stroke-width="0.9446965000148362" stroke-linecap="round" d="M 67.5673 61.5751 C 67.5673 61.5751 65.9999 61.8011 65.2135 61.8804 C 64.9007 61.9117 64.5837 61.8988 64.2692 61.908 C 63.8759 61.9195 63.4822 61.9311 63.0889 61.9426 C 62.9907 61.9455 63.0889 61.9426 63.0889 61.9426 "/>
      <path id="ID0.6422801343724132" fill="none" stroke="#000000" stroke-width="0.9446965000148362" stroke-linecap="round" d="M 102.375 41.3555 C 102.375 41.3555 101.2673 41.499 100.7294 41.64 C 100.2482 41.7661 99.8116 42.0417 99.3268 42.1537 C 99.0203 42.2246 98.3825 42.1813 98.3825 42.1813 "/>
      <path id="ID0.7584992088377476" fill="none" stroke="#000000" stroke-width="0.9446965000148362" stroke-linecap="round" d="M 102.2842 46.32 C 102.2842 46.32 100.8981 46.8331 100.1734 46.8544 C 99.7498 46.8668 98.9792 46.4168 98.9792 46.4168 "/>
      <path id="ID0.40438934741541743" fill="none" stroke="#000000" stroke-width="0.9446965000148362" stroke-linecap="round" d="M 102.0818 55.5407 C 101.3607 55.0897 100.6182 54.6663 99.9157 54.1865 C 99.7319 54.061 99.4297 53.7282 99.4297 53.7282 "/>
      <path id="ID0.7633831659331918" fill="none" stroke="#000000" stroke-width="0.9446965000148362" stroke-linecap="round" d="M 103.8173 58.3251 C 103.8173 58.3251 102.2499 58.5511 101.4635 58.6304 C 101.1507 58.6617 100.8337 58.6488 100.5192 58.658 C 100.1259 58.6695 99.7322 58.6811 99.3389 58.6926 C 99.2407 58.6955 99.3389 58.6926 99.3389 58.6926 "/>
      <path id="ID0.6422801343724132" fill="none" stroke="#000000" stroke-width="0.9446965000148362" stroke-linecap="round" d="M 108.925 42.2055 C 108.925 42.2055 107.8173 42.349 107.2794 42.49 C 106.7982 42.6161 106.3616 42.8917 105.8768 43.0037 C 105.5703 43.0746 104.9325 43.0313 104.9325 43.0313 "/>
      <path id="ID0.7584992088377476" fill="none" stroke="#000000" stroke-width="0.9446965000148362" stroke-linecap="round" d="M 108.8342 47.17 C 108.8342 47.17 107.4481 47.6831 106.7234 47.7044 C 106.2998 47.7168 105.5292 47.2668 105.5292 47.2668 "/>
      <path id="ID0.40438934741541743" fill="none" stroke="#000000" stroke-width="0.9446965000148362" stroke-linecap="round" d="M 108.6318 56.3907 C 107.9107 55.9397 107.1682 55.5163 106.4657 55.0365 C 106.2819 54.911 105.9797 54.5782 105.9797 54.5782 "/>
      <path id="ID0.7633831659331918" fill="none" stroke="#000000" stroke-width="0.9446965000148362" stroke-linecap="round" d="M 110.3673 59.1751 C 110.3673 59.1751 108.7999 59.4011 108.0135 59.4804 C 107.7007 59.5117 107.3837 59.4988 107.0692 59.508 C 106.6759 59.5195 106.2822 59.5311 105.8889 59.5426 C 105.7907 59.5455 105.8889 59.5426 105.8889 59.5426 "/>
      <path id="ID0.6422801343724132" fill="none" stroke="#000000" stroke-width="0.9446965000148362" stroke-linecap="round" d="M 130.225 56.1555 C 130.225 56.1555 129.1173 56.299 128.5794 56.44 C 128.0982 56.5661 127.6616 56.8417 127.1768 56.9537 C 126.8703 57.0246 126.2325 56.9813 126.2325 56.9813 "/>
      <path id="ID0.7584992088377476" fill="none" stroke="#000000" stroke-width="0.9446965000148362" stroke-linecap="round" d="M 130.1342 61.12 C 130.1342 61.12 128.7481 61.6331 128.0234 61.6544 C 127.5998 61.6668 126.8292 61.2168 126.8292 61.2168 "/>
      <path id="ID0.40438934741541743" fill="none" stroke="#000000" stroke-width="0.9446965000148362" stroke-linecap="round" d="M 129.9318 70.3407 C 129.2107 69.8897 128.4682 69.4663 127.7657 68.9865 C 127.5819 68.861 127.2797 68.5282 127.2797 68.5282 "/>
      <path id="ID0.7633831659331918" fill="none" stroke="#000000" stroke-width="0.9446965000148362" stroke-linecap="round" d="M 131.6673 73.1251 C 131.6673 73.1251 130.0999 73.3511 129.3135 73.4304 C 129.0007 73.4617 128.6837 73.4488 128.3692 73.458 C 127.9759 73.4695 127.5822 73.4811 127.1889 73.4926 C 127.0907 73.4955 127.1889 73.4926 127.1889 73.4926 "/>
      <path id="ID0.6422801343724132" fill="none" stroke="#000000" stroke-width="0.9446965000148362" stroke-linecap="round" d="M 59.525 46.0055 C 59.525 46.0055 58.4173 46.149 57.8794 46.29 C 57.3982 46.4161 56.9616 46.6917 56.4768 46.8037 C 56.1703 46.8746 55.5325 46.8313 55.5325 46.8313 "/>
      <path id="ID0.7584992088377476" fill="none" stroke="#000000" stroke-width="0.9446965000148362" stroke-linecap="round" d="M 59.4342 50.97 C 59.4342 50.97 58.0481 51.4831 57.3234 51.5044 C 56.8998 51.5168 56.1292 51.0668 56.1292 51.0668 "/>
      <path id="ID0.40438934741541743" fill="none" stroke="#000000" stroke-width="0.9446965000148362" stroke-linecap="round" d="M 59.2318 60.1907 C 58.5107 59.7397 57.7682 59.3163 57.0657 58.8365 C 56.8819 58.711 56.5797 58.3782 56.5797 58.3782 "/>
      <path id="ID0.7633831659331918" fill="none" stroke="#000000" stroke-width="0.9446965000148362" stroke-linecap="round" d="M 60.9673 62.9751 C 60.9673 62.9751 59.3999 63.2011 58.6135 63.2804 C 58.3007 63.3117 57.9837 63.2988 57.6692 63.308 C 57.2759 63.3195 56.8822 63.3311 56.4889 63.3426 C 56.3907 63.3455 56.4889 63.3426 56.4889 63.3426 "/>
      <path id="ID0.6422801343724132" fill="none" stroke="#000000" stroke-width="0.9446965000148362" stroke-linecap="round" d="M 53.225 46.2555 C 53.225 46.2555 52.1173 46.399 51.5794 46.54 C 51.0982 46.6661 50.6616 46.9417 50.1768 47.0537 C 49.8703 47.1246 49.2325 47.0813 49.2325 47.0813 "/>
      <path id="ID0.7584992088377476" fill="none" stroke="#000000" stroke-width="0.9446965000148362" stroke-linecap="round" d="M 53.1342 51.22 C 53.1342 51.22 51.7481 51.7331 51.0234 51.7544 C 50.5998 51.7668 49.8292 51.3168 49.8292 51.3168 "/>
      <path id="ID0.40438934741541743" fill="none" stroke="#000000" stroke-width="0.9446965000148362" stroke-linecap="round" d="M 52.9318 60.4407 C 52.2107 59.9897 51.4682 59.5663 50.7657 59.0865 C 50.5819 58.961 50.2797 58.6282 50.2797 58.6282 "/>
      <path id="ID0.7633831659331918" fill="none" stroke="#000000" stroke-width="0.9446965000148362" stroke-linecap="round" d="M 54.6673 63.2251 C 54.6673 63.2251 53.0999 63.4511 52.3135 63.5304 C 52.0007 63.5617 51.6837 63.5488 51.3692 63.558 C 50.9759 63.5695 50.5822 63.5811 50.1889 63.5926 C 50.0907 63.5955 50.1889 63.5926 50.1889 63.5926 "/>
      <path id="ID0.7584992088377476" fill="none" stroke="#000000" stroke-width="0.9446965000148362" stroke-linecap="round" d="M 114.1342 50.47 C 114.1342 50.47 112.7481 50.9831 112.0234 51.0044 C 111.5998 51.0168 110.8292 50.5668 110.8292 50.5668 "/>
      <path id="ID0.40438934741541743" fill="none" stroke="#000000" stroke-width="0.9446965000148362" stroke-linecap="round" d="M 113.9318 59.6907 C 113.2107 59.2397 112.4682 58.8163 111.7657 58.3365 C 111.5819 58.211 111.2797 57.8782 111.2797 57.8782 "/>
    </g>
  </g>
</svg>