<svg xmlns="http://www.w3.org/2000/svg" xmlns:xlink="http://www.w3.org/1999/xlink" version="1.1" width="141.9600030517578" height="181.62011352539062" viewBox="-0.36000003099441535 -0.4306238460540772 141.9600030517578 181.62011352539062"><g><g data-paper-data="{&quot;isPaintingLayer&quot;:true}" fill-rule="none" stroke-linecap="none" stroke-linejoin="none" stroke-miterlimit="10" stroke-dasharray="" stroke-dashoffset="0" font-family="none" font-weight="none" font-size="none" text-anchor="none" style="mix-blend-mode: normal"><g data-paper-data="{&quot;index&quot;:null}" id="Wheels"><path d="M 123.72 165.6795 C 126.72 165.6795 129.15 168.9195 129.15 172.8795 C 129.15 176.8395 126.72 180.1095 123.72 180.1095 L 118.32 180.1095 L 118.32 165.6795 Z " id="Shape" fill="#c9e2b3" fill-rule="nonzero" stroke="none" stroke-width="1" stroke-linecap="butt" stroke-linejoin="miter"/><path d="M 118.32 180.1095 C 115.3377 180.1095 112.92 176.8725 112.92 172.8795 C 112.92 168.8865 115.3377 165.6495 118.32 165.6495 C 121.3023 165.6495 123.72 168.8865 123.72 172.8795 C 123.72 176.8725 121.3023 180.1095 118.32 180.1095 Z " id="Oval" fill="#61bb4e" fill-rule="nonzero" stroke="none" stroke-width="1" stroke-linecap="butt" stroke-linejoin="miter"/><path d="M 74.16 165.6795 C 77.16 165.6795 79.59 168.9195 79.59 172.8795 C 79.59 176.8395 77.16 180.1095 74.16 180.1095 L 68.76 180.1095 L 68.76 165.6795 Z " id="Shape" fill="#c9e2b3" fill-rule="nonzero" stroke="none" stroke-width="1" stroke-linecap="butt" stroke-linejoin="miter"/><path d="M 68.76 180.1095 C 65.7777 180.1095 63.36 176.8725 63.36 172.8795 C 63.36 168.8865 65.7777 165.6495 68.76 165.6495 C 71.7423 165.6495 74.16 168.8865 74.16 172.8795 C 74.16 176.8725 71.7423 180.1095 68.76 180.1095 Z " id="Oval" fill="#61bb4e" fill-rule="nonzero" stroke="none" stroke-width="1" stroke-linecap="butt" stroke-linejoin="miter"/><path d="M 19.62 152.5995 C 22.62 152.5995 25.05 155.8395 25.05 159.8295 C 25.05 163.8195 22.62 167.0295 19.62 167.0295 L 14.22 167.0295 L 14.22 152.5995 Z " id="Shape" fill="#c9e2b3" fill-rule="nonzero" stroke="none" stroke-width="1" stroke-linecap="butt" stroke-linejoin="miter"/><path d="M 14.13 167.0595 C 11.1477 167.0595 8.73 163.8225 8.73 159.8295 C 8.73 155.8365 11.1477 152.5995 14.13 152.5995 C 17.1123 152.5995 19.53 155.8365 19.53 159.8295 C 19.53 163.8225 17.1123 167.0595 14.13 167.0595 Z " id="Oval" fill="#61bb4e" fill-rule="nonzero" stroke="none" stroke-width="1" stroke-linecap="butt" stroke-linejoin="miter"/><path d="M 118.32 165.6795 L 123.72 165.6795 C 126.72 165.6795 129.15 168.9195 129.15 172.8795 C 129.15 176.8395 126.72 180.1095 123.72 180.1095 L 118.32 180.1095 C 115.32 180.1095 112.89 176.8695 112.89 172.8795 C 112.89 168.8895 115.32 165.6795 118.32 165.6795 Z " id="Shape" fill="none" fill-rule="evenodd" stroke="#5e154d" stroke-width="1.44" stroke-linecap="round" stroke-linejoin="round"/><path d="M 68.76 165.6795 L 74.16 165.6795 C 77.16 165.6795 79.59 168.9195 79.59 172.8795 C 79.59 176.8395 77.16 180.1095 74.16 180.1095 L 68.76 180.1095 C 65.76 180.1095 63.33 176.8695 63.33 172.8795 C 63.33 168.8895 65.76 165.6795 68.76 165.6795 Z " id="Shape" fill="none" fill-rule="evenodd" stroke="#5e154d" stroke-width="1.44" stroke-linecap="round" stroke-linejoin="round"/><path d="M 14.13 152.5995 L 19.62 152.5995 C 22.62 152.5995 25.05 155.8395 25.05 159.8295 C 25.05 163.8195 22.62 167.0295 19.62 167.0295 L 14.22 167.0295 C 11.22 167.0295 8.79 163.8195 8.79 159.8295 C 8.79 155.8395 11.13 152.5995 14.13 152.5995 Z " id="Shape" fill="none" fill-rule="evenodd" stroke="#5e154d" stroke-width="1.44" stroke-linecap="round" stroke-linejoin="round"/></g><g data-paper-data="{&quot;index&quot;:null}" id="Left-Arm"><path d="M 119.73 104.8095 L 123.27 102.3795 C 130.68 100.7295 137.76 107.7795 139.65 113.8095 L 136.65 116.8095 C 135.72 112.6995 128.97 110.8095 125.31 111.4995 C 123.6757 111.6971 122.1944 112.5576 121.213 113.8793 C 120.2317 115.201 119.8365 116.8679 120.12 118.4895 L 116.55 121.2795 C 114.9 114.5295 119.73 104.8095 119.73 104.8095 Z " id="Shape" fill="#61bb4e" fill-rule="nonzero" stroke="none" stroke-width="1" stroke-linecap="butt" stroke-linejoin="miter"/><path d="M 119.73 104.8095 C 127.6693 103.5423 135.1538 108.8884 136.53 116.8095 L 129.75 118.3095 C 129.462 115.6864 127.6969 113.4601 125.2086 112.5814 C 122.7203 111.7027 119.9486 112.3269 118.0772 114.1875 C 116.2059 116.0481 115.5657 118.8162 116.43 121.3095 L 109.65 122.8095 C 107.5113 115.0612 112.0061 107.0347 119.73 104.8095 Z " id="Shape" fill="#c9e2b3" fill-rule="nonzero" stroke="none" stroke-width="1" stroke-linecap="butt" stroke-linejoin="miter"/><path d="M 121.41 112.4295 C 121.9765 112.3402 122.5535 112.3402 123.12 112.4295 C 120.806 113.5897 119.5715 116.1697 120.12 118.6995 L 116.55 121.4895 C 115.9903 119.6436 116.1882 117.6508 117.1 115.951 C 118.0118 114.2512 119.5626 112.9842 121.41 112.4295 Z " id="Shape" fill="#61bb4e" fill-rule="nonzero" stroke="#5e154d" stroke-width="1.44" stroke-linecap="round" stroke-linejoin="round"/><path d="M 119.73 104.8095 L 123.27 102.3795 C 130.68 100.7295 137.76 107.7795 139.65 113.8095 L 136.65 116.8095 L 129.87 118.3095 C 129.2153 115.0718 126.5268 112.6388 123.24 112.3095 C 122.6735 112.2202 122.0965 112.2202 121.53 112.3095 C 119.6741 112.8395 118.1057 114.0867 117.1712 115.7754 C 116.2368 117.4642 116.0132 119.4556 116.55 121.3095 L 109.77 122.8095 C 107.622 115.0969 112.0545 107.0865 119.73 104.8095 Z " id="Shape" fill="none" fill-rule="evenodd" stroke="#5e154d" stroke-width="1.44" stroke-linecap="round" stroke-linejoin="round"/><path d="M 116.0679 105.9652 L 114.504 100.3904 L 119.299 99.0453 L 120.8628 104.6201 Z " id="Rectangle-path" fill="#c9e2b3" fill-rule="nonzero" stroke="none" stroke-width="1" stroke-linecap="butt" stroke-linejoin="miter"/><path d="M 119.31 99.0495 L 122.67 98.1195 L 123.81 102.1695 L 120.87 104.6295 Z " id="Shape" fill="#61bb4e" fill-rule="nonzero" stroke="none" stroke-width="1" stroke-linecap="butt" stroke-linejoin="miter"/><path d="M 101.04 40.1895 L 106.14 38.7495 C 112.1396 37.5487 117.9874 41.4026 119.25 47.3895 L 131.91 92.3895 L 127.62 96.6495 Z " id="Shape" fill="#61bb4e" fill-rule="nonzero" stroke="none" stroke-width="1" stroke-linecap="butt" stroke-linejoin="miter"/><path d="M 101.07 40.1895 C 107.0662 39.0059 112.9029 42.8525 114.18 48.8295 L 127.62 96.6495 L 107.88 102.1995 L 94.41 54.3795 C 92.3755 48.6241 95.3427 42.3019 101.07 40.1895 Z " id="Shape" fill="#c9e2b3" fill-rule="nonzero" stroke="none" stroke-width="1" stroke-linecap="butt" stroke-linejoin="miter"/><path d="M 101.04 40.1895 L 106.14 38.7495 C 112.1396 37.5487 117.9874 41.4026 119.25 47.3895 L 131.91 92.3895 L 127.62 96.6495 L 107.88 102.1995 L 94.41 54.3795 C 92.3897 48.6334 95.3364 42.3268 101.04 40.1895 Z " id="Shape" fill="none" fill-rule="evenodd" stroke="#5e154d" stroke-width="1.44" stroke-linecap="round" stroke-linejoin="round"/><path d="M 114.96 95.8395 C 113.3031 95.8395 111.96 94.4963 111.96 92.8395 C 111.96 91.1827 113.3031 89.8395 114.96 89.8395 C 116.6168 89.8395 117.96 91.1827 117.96 92.8395 C 117.96 94.4963 116.6168 95.8395 114.96 95.8395 Z " id="Oval" fill="none" fill-rule="evenodd" stroke="#149948" stroke-width="1.08" stroke-linecap="round" stroke-linejoin="round"/></g><g data-paper-data="{&quot;index&quot;:null}" id="Base"><path d="M 0.72 126.5895 L 53.16 143.8395 L 53.16 172.8795 L 0.72 155.0295 Z " id="Shape" fill="#dd3627" fill-rule="nonzero" stroke="none" stroke-width="1" stroke-linecap="butt" stroke-linejoin="miter"/><path d="M 53.16 143.8395 L 41.7 118.0395 L 125.73 118.0395 L 140.52 143.8395 Z " id="Shape" fill="#f05822" fill-rule="nonzero" stroke="none" stroke-width="1" stroke-linecap="butt" stroke-linejoin="miter"/><path d="M 53.16 143.8395 L 0.72 126.5895 L 16.17 109.3695 L 41.7 118.0395 Z " id="Shape" fill="#dd3627" fill-rule="nonzero" stroke="none" stroke-width="1" stroke-linecap="butt" stroke-linejoin="miter"/><path d="M 16.17 109.3695 L 99.36 109.3695 L 125.73 118.0395 L 41.7 118.0395 Z " id="Shape" fill="#61bb4e" fill-rule="nonzero" stroke="#5e154d" stroke-width="1.44" stroke-linecap="round" stroke-linejoin="round"/><path d="M 53.16 172.9095 L 53.16 143.8395 L 140.52 143.8395 L 140.52 172.9095 Z " id="Rectangle-path" fill="#f05822" fill-rule="nonzero" stroke="none" stroke-width="1" stroke-linecap="butt" stroke-linejoin="miter"/><path d="M 16.17 109.3695 L 41.7 118.0395 L 125.73 118.0395 L 140.52 143.8395 L 53.16 143.8395 L 0.72 126.5895 Z " id="Shape" fill="none" fill-rule="evenodd" stroke="#5e154d" stroke-width="1.44" stroke-linecap="round" stroke-linejoin="round"/><path d="M 53.16 143.8395 L 140.52 143.8395 L 140.52 172.8795 L 53.16 172.8795 L 0.72 155.0295 L 0.72 126.5895 Z " id="Shape" fill="none" fill-rule="evenodd" stroke="#5e154d" stroke-width="1.44" stroke-linecap="round" stroke-linejoin="round"/><g id="Pattern" fill-rule="evenodd" stroke-linecap="round" stroke-linejoin="round"><path d="M 118.32 124.7295 L 116.49 126.5895 " id="Shape" stroke-width="1.08" fill="none" stroke="#dd3627"/><path d="M 125.73 133.8495 L 127.62 136.5195 " id="Shape" stroke-width="1.08" fill="none" stroke="#dd3627"/><path d="M 112.89 135.1995 L 116.13 134.8095 " id="Shape" stroke-width="1.08" fill="none" stroke="#dd3627"/><path d="M 105.39 129.1995 L 104.19 126.5895 " id="Shape" stroke-width="1.08" fill="none" stroke="#dd3627"/><path d="M 95.28 122.8695 L 91.98 122.8695 " id="Shape" stroke-width="1.08" fill="none" stroke="#dd3627"/><path d="M 96.84 134.9895 L 99.48 136.7295 " id="Shape" stroke-width="1.08" fill="none" stroke="#dd3627"/><path d="M 82.89 139.1595 L 85.77 138.1995 " id="Shape" stroke-width="1.08" fill="none" stroke="#dd3627"/><path d="M 85.05 127.7895 L 83.97 130.3695 " id="Shape" stroke-width="1.08" fill="none" stroke="#dd3627"/><path d="M 71.46 125.2395 L 74.16 123.5295 " id="Shape" stroke-width="1.08" fill="none" stroke="#dd3627"/><path d="M 70.5 133.2195 L 72.84 133.2195 " id="Shape" stroke-width="1.08" fill="none" stroke="#dd3627"/><path d="M 59.43 136.5195 L 61.83 138.6795 " id="Shape" stroke-width="1.08" fill="none" stroke="#dd3627"/><path d="M 57.27 126.5895 L 56.88 123.6495 " id="Shape" stroke-width="1.08" fill="none" stroke="#dd3627"/><path d="M 134.49 150.5595 L 132.54 153.0495 " id="Shape" stroke-width="1.08" fill="none" stroke="#dd3627"/><path d="M 132.87 162.9495 L 132.87 165.6795 " id="Shape" stroke-width="1.08" fill="none" stroke="#dd3627"/><path d="M 127.2 157.6095 L 124.44 158.3595 " id="Shape" stroke-width="1.08" fill="none" stroke="#dd3627"/><path d="M 115.53 150.4695 L 117.36 152.5995 " id="Shape" stroke-width="1.08" fill="none" stroke="#dd3627"/><path d="M 119.16 164.4195 L 117.81 166.8195 " id="Shape" stroke-width="1.08" fill="none" stroke="#dd3627"/><path d="M 106.44 164.2995 L 103.83 164.4195 " id="Shape" stroke-width="1.08" fill="none" stroke="#dd3627"/><path d="M 105.15 155.1795 L 105.12 152.8395 " id="Shape" stroke-width="1.08" fill="none" stroke="#dd3627"/><path d="M 94.56 157.5795 L 92.04 158.5395 " id="Shape" stroke-width="1.08" fill="none" stroke="#dd3627"/><path d="M 86.55 165.1995 L 87.96 166.9395 " id="Shape" stroke-width="1.08" fill="none" stroke="#dd3627"/><path d="M 87.39 149.8395 L 86.4 152.2395 " id="Shape" stroke-width="1.08" fill="none" stroke="#dd3627"/><path d="M 77.25 156.3495 L 75.21 155.2995 " id="Shape" stroke-width="1.08" fill="none" stroke="#dd3627"/><path d="M 73.17 165.0795 L 75.03 163.7295 " id="Shape" stroke-width="1.08" fill="none" stroke="#dd3627"/><path d="M 65.64 152.2395 L 63.03 151.7895 " id="Shape" stroke-width="1.08" fill="none" stroke="#dd3627"/><path d="M 62.25 164.2695 L 63.33 166.5795 " id="Shape" stroke-width="1.08" fill="none" stroke="#dd3627"/></g></g><g data-paper-data="{&quot;index&quot;:null}" id="Body/Face"><path d="M 82.92 12.0495 C 81.685 8.0895 79.919 4.3151 77.67 0.8295 C 79.4418 1.0004 81.1973 1.3114 82.92 1.7595 C 84.8695 4.9946 86.4303 8.4485 87.57 12.0495 C 90.57 21.9495 90.57 35.1195 90.57 43.7295 L 90.57 112.9095 C 89.1 113.1795 87.57 113.4195 85.92 113.5995 L 85.92 43.7295 C 86.04 35.1195 86.04 21.9495 82.92 12.0495 Z " id="Shape" fill="#dcefca" fill-rule="nonzero" stroke="none" stroke-width="1" stroke-linecap="butt" stroke-linejoin="miter"/><path d="M 87.57 12.0495 C 86.4303 8.4485 84.8695 4.9946 82.92 1.7595 C 95.9644 5.2062 105.7712 15.9878 107.97 29.2995 C 108.2712 31.124 108.4217 32.9703 108.42 34.8195 L 108.42 103.1895 C 108.42 107.3595 101.25 111.0195 90.69 112.9095 L 90.69 43.7295 C 90.69 35.1195 90.69 21.9495 87.57 12.0495 Z " id="Shape" fill="#c9e2b3" fill-rule="nonzero" stroke="none" stroke-width="1" stroke-linecap="butt" stroke-linejoin="miter"/><path d="M 40.62 29.2995 C 43.06 14.4097 54.9693 2.8783 69.93 0.9195 C 72.1294 4.392 73.8737 8.1326 75.12 12.0495 C 78.12 21.9495 78.12 35.1195 78.12 43.7295 L 78.12 114.1995 C 76.86 114.1995 75.54 114.1995 74.22 114.1995 C 55.35 114.1995 40.05 109.2195 40.05 103.0995 L 40.05 34.8195 C 40.0879 32.967 40.2785 31.1207 40.62 29.2995 Z " id="Shape" fill="#c9e2b3" fill-rule="nonzero" stroke="none" stroke-width="1" stroke-linecap="butt" stroke-linejoin="miter"/><path d="M 75 12.0495 C 73.7537 8.1326 72.0094 4.392 69.81 0.9195 C 71.2731 0.7399 72.7459 0.6497 74.22 0.6495 C 76.5256 4.1888 78.342 8.0235 79.62 12.0495 C 82.62 21.9495 82.62 35.1195 82.62 43.7295 L 82.62 113.9295 C 81.12 113.9295 79.62 114.1395 78 114.1995 L 78 43.7295 C 78.12 35.1195 78.12 21.9495 75 12.0495 Z " id="Shape" fill="#dcefca" fill-rule="nonzero" stroke="none" stroke-width="1" stroke-linecap="butt" stroke-linejoin="miter"/><path d="M 79.62 12.0495 C 78.3609 8.0266 76.5646 4.192 74.28 0.6494 C 75.4224 0.648 76.5641 0.7081 77.7 0.8295 C 79.949 4.3151 81.715 8.0895 82.95 12.0495 C 85.95 21.9495 85.95 35.1195 85.95 43.7295 L 85.95 113.5995 L 82.65 113.9295 L 82.65 43.7295 C 82.62 35.1195 82.62 21.9495 79.62 12.0495 Z " id="Shape" fill="#f3ffe6" fill-rule="nonzero" stroke="none" stroke-width="1" stroke-linecap="butt" stroke-linejoin="miter"/><path d="M 87.63 27.3495 C 83.7695 27.3495 80.64 24.22 80.64 20.3595 C 80.64 16.499 83.7695 13.3695 87.63 13.3695 C 91.4905 13.3695 94.62 16.499 94.62 20.3595 C 94.62 24.22 91.4905 27.3495 87.63 27.3495 Z " id="Oval" fill="#ffdb48" fill-rule="nonzero" stroke="#f05822" stroke-width="1.08" stroke-linecap="round" stroke-linejoin="round"/><path d="M 87.63 23.8395 C 85.708 23.8395 84.15 22.2814 84.15 20.3595 C 84.15 18.4375 85.7081 16.8795 87.63 16.8795 C 89.5519 16.8795 91.11 18.4375 91.11 20.3595 C 91.11 22.2814 89.552 23.8395 87.63 23.8395 Z " id="Oval" fill="none" fill-rule="evenodd" stroke="#61bb4e" stroke-width="1.08" stroke-linecap="round" stroke-linejoin="round"/><path d="M 66 27.3495 C 62.1395 27.3495 59.01 24.22 59.01 20.3595 C 59.01 16.499 62.1395 13.3695 66 13.3695 C 69.8605 13.3695 72.99 16.499 72.99 20.3595 C 72.99 24.22 69.8605 27.3495 66 27.3495 Z " id="Oval" fill="#ffdb48" fill-rule="nonzero" stroke="#f05822" stroke-width="1.08" stroke-linecap="round" stroke-linejoin="round"/><path d="M 66 23.8395 C 64.078 23.8395 62.52 22.2814 62.52 20.3595 C 62.52 18.4375 64.0781 16.8795 66 16.8795 C 67.922 16.8795 69.48 18.4375 69.48 20.3595 C 69.48 22.2814 67.9219 23.8395 66 23.8395 Z " id="Oval" fill="none" fill-rule="evenodd" stroke="#61bb4e" stroke-width="1.08" stroke-linecap="round" stroke-linejoin="round"/><path d="M 40.62 29.2995 C 43.3676 12.8078 57.6359 0.72 74.355 0.72 C 91.0741 0.72 105.3424 12.8078 108.09 29.2995 C 108.3912 31.124 108.5417 32.9703 108.54 34.8195 L 108.54 103.1895 C 108.54 109.1895 93.24 114.2895 74.34 114.2895 C 55.44 114.2895 40.17 109.3095 40.17 103.1895 L 40.17 34.8195 C 40.1683 32.9703 40.3188 31.124 40.62 29.2995 Z " id="Shape" fill="none" fill-rule="evenodd" stroke="#5e154d" stroke-width="1.44" stroke-linecap="round" stroke-linejoin="round"/><path d="M 104.7 32.5695 C 104.7 32.5695 95.31 38.7195 74.22 38.7195 C 53.13 38.7195 43.47 32.5695 43.47 32.5695 " id="Shape" fill="none" fill-rule="evenodd" stroke="#61bb4e" stroke-width="1.44" stroke-linecap="round" stroke-linejoin="round"/></g><path d="M 97.62 47.9595 L 97.62 98.5095 C 97.62 98.5095 93.21 101.2095 79.62 102.0495 C 71.809 102.781 63.9306 102.203 56.31 100.3395 L 56.31 49.3395 C 63.1707 50.359 70.1059 50.7905 77.04 50.6295 C 83.9764 50.4874 90.8769 49.5922 97.62 47.9595 Z " data-paper-data="{&quot;index&quot;:null}" id="Shape" fill="#61bb4e" fill-rule="nonzero" stroke="#61bb4e" stroke-width="1.44" stroke-linecap="round" stroke-linejoin="round"/><g data-paper-data="{&quot;index&quot;:null}" id="Bars" fill-rule="nonzero" stroke-linecap="round" stroke-linejoin="round"><path d="M 91.98 69.6795 C 90.1512 70.1564 88.2987 70.5369 86.43 70.8195 L 86.43 59.7495 C 88.71 59.4495 90.63 59.1195 91.98 58.8795 Z " id="Shape" fill="#5e154d" stroke-width="0.72" stroke="#5e154d"/><path d="M 91.98 54.7095 L 91.98 58.8795 C 90.63 59.1195 88.71 59.4495 86.43 59.7495 L 86.43 55.4895 C 89.7 55.0695 91.98 54.7095 91.98 54.7095 Z " id="Shape" fill="#c9e2b3" stroke-width="0.72" stroke="#5e154d"/><path d="M 83.91 71.1495 C 82.29 71.3295 80.46 71.5095 78.48 71.6295 L 78.48 63.7395 C 80.37 63.7395 82.2 63.4395 83.91 63.2295 Z " id="Shape" fill="#5e154d" stroke-width="0.72" stroke="#5e154d"/><path d="M 83.91 55.7595 L 83.91 63.3795 C 82.2 63.5895 80.37 63.7395 78.48 63.8895 L 78.48 56.3895 C 80.34 56.1195 82.2 55.9395 83.91 55.7595 Z " id="Shape" fill="#c9e2b3" stroke-width="0.72" stroke="#5e154d"/><path d="M 70.62 61.9695 L 70.62 56.3295 C 72.36 56.3295 74.22 56.3295 76.05 56.3295 L 76.05 61.9695 C 74.13 62.0595 72.27 62.0295 70.62 61.9695 Z " id="Shape" fill="#c9e2b3" stroke-width="0.72" stroke="#5e154d"/><path d="M 75.93 61.9995 L 75.93 71.7195 C 73.92 71.7195 72.12 71.7195 70.5 71.7195 L 70.5 61.9695 C 72.27 62.0295 74.13 62.0595 75.93 61.9995 Z " id="Shape" fill="#5e154d" stroke-width="0.72" stroke="#5e154d"/><path d="M 62.58 55.8495 C 62.58 55.8495 64.83 56.0595 67.98 56.2395 L 67.98 67.7895 C 65.85 67.7895 63.96 67.4595 62.58 67.3095 Z " id="Shape" fill="#c9e2b3" stroke-width="0.72" stroke="#5e154d"/><path d="M 67.98 67.7895 L 67.98 71.5995 C 64.56 71.3895 62.58 71.0595 62.58 71.0595 L 62.58 67.3095 C 63.96 67.4595 65.85 67.6695 67.98 67.7895 Z " id="Shape" fill="#5e154d" stroke-width="0.72" stroke="#5e154d"/></g><g data-paper-data="{&quot;index&quot;:null}" id="Graph" fill-rule="nonzero" stroke-linecap="round" stroke-linejoin="round"><path d="M 80.67 85.4595 L 77.28 83.6295 L 71.76 88.6995 L 67.05 80.3895 L 62.58 88.5495 L 62.58 76.1895 C 67.5663 76.645 72.5776 76.7653 77.58 76.5495 C 84.87 76.0695 92.13 74.7495 92.13 74.7495 L 92.13 87.5295 L 85.47 81.3795 Z " id="Shape" stroke-width="0.72" fill="#ffdb48" stroke="#f05822"/><path d="M 67.05 80.3895 L 71.76 88.6995 L 77.28 83.6295 L 80.67 85.4595 L 85.47 81.3795 L 91.98 87.5595 L 91.98 93.8295 C 87.3247 95.1369 82.5318 95.8921 77.7 96.0795 C 72.6892 96.4416 67.6531 96.1999 62.7 95.3595 L 62.7 88.5495 Z " id="Shape" stroke-width="0.72" fill="#ffdb48" stroke="#f05822"/></g><g data-paper-data="{&quot;index&quot;:null}" id="Right-Arm"><path d="M 28.29 104.6895 L 32.46 103.7895 C 39.96 105.0195 43.92 114.1995 43.44 120.4995 L 39.39 122.1495 C 40.08 117.9795 34.56 113.5995 30.84 113.1495 C 29.2502 112.7275 27.5569 112.9767 26.1561 113.8387 C 24.7552 114.7008 23.7697 116.1001 23.43 117.7095 L 19.08 118.9695 C 20.22 111.8895 28.29 104.6895 28.29 104.6895 Z " id="Shape" fill="#61bb4e" fill-rule="nonzero" stroke="none" stroke-width="1" stroke-linecap="butt" stroke-linejoin="miter"/><path d="M 28.29 104.6895 C 28.9541 104.7855 29.6072 104.9463 30.24 105.1695 L 28.98 113.0295 C 28.3821 112.702 27.7328 112.4788 27.06 112.3695 L 26.31 112.3695 L 27.57 104.6595 C 27.8103 104.6405 28.0521 104.6506 28.29 104.6895 Z " id="Shape" fill="#dcefca" fill-rule="nonzero" stroke="none" stroke-width="1" stroke-linecap="butt" stroke-linejoin="miter"/><path d="M 39.39 122.1495 L 32.55 121.0095 C 33.1559 117.8635 31.7293 114.6745 28.98 113.0295 L 30.24 105.1695 C 37.0072 107.8583 40.8658 115.0189 39.39 122.1495 Z " id="Shape" fill="#c9e2b3" fill-rule="nonzero" stroke="none" stroke-width="1" stroke-linecap="butt" stroke-linejoin="miter"/><path d="M 25.35 104.5695 L 24.03 112.6395 C 22.947 113.0093 21.9763 113.6495 21.21 114.4995 L 22.62 105.0495 C 23.5057 104.7732 24.4232 104.6119 25.35 104.5695 Z " id="Shape" fill="#dcefca" fill-rule="nonzero" stroke="none" stroke-width="1" stroke-linecap="butt" stroke-linejoin="miter"/><path d="M 12.24 117.7095 C 13.0298 111.8671 17.0457 106.9691 22.62 105.0495 L 21.21 114.3795 C 20.083 115.5735 19.3409 117.0786 19.08 118.6995 Z " id="Shape" fill="#c9e2b3" fill-rule="nonzero" stroke="none" stroke-width="1" stroke-linecap="butt" stroke-linejoin="miter"/><path d="M 27.57 104.5995 L 26.31 112.3095 C 25.5358 112.2712 24.7615 112.3833 24.03 112.6395 L 25.35 104.5695 C 26.0891 104.5047 26.8329 104.5147 27.57 104.5995 Z " id="Shape" fill="#f3ffe6" fill-rule="nonzero" stroke="none" stroke-width="1" stroke-linecap="butt" stroke-linejoin="miter"/><path d="M 27.06 112.3695 C 27.6215 112.4618 28.1669 112.6335 28.68 112.8795 C 26.0702 113.066 23.9139 114.9882 23.43 117.5595 L 19.08 118.8195 C 19.5205 114.8446 23.0811 111.9666 27.06 112.3695 Z " id="Shape" fill="#61bb4e" fill-rule="nonzero" stroke="#5e154d" stroke-width="1.44" stroke-linecap="round" stroke-linejoin="round"/><path d="M 28.29 104.6895 L 32.46 103.7895 C 39.96 105.0195 43.92 114.1995 43.44 120.4995 L 39.39 122.1495 L 32.55 121.0095 C 33.1801 117.7289 31.5824 114.4236 28.62 112.8795 C 28.1069 112.6335 27.5615 112.4618 27 112.3695 C 23.0211 111.9666 19.4605 114.8446 19.02 118.8195 L 12.18 117.7095 C 12.588 113.8459 14.5151 110.3029 17.5367 107.8608 C 20.5584 105.4188 24.4268 104.2779 28.29 104.6895 Z " id="Shape" fill="none" fill-rule="evenodd" stroke="#5e154d" stroke-width="1.44" stroke-linecap="round" stroke-linejoin="round"/><path d="M 39.36 38.5095 L 44.58 39.3795 C 50.5228 40.8181 54.2015 46.7709 52.83 52.7295 L 45.51 98.8695 L 39.81 100.9395 Z " id="Shape" fill="#61bb4e" fill-rule="nonzero" stroke="none" stroke-width="1" stroke-linecap="butt" stroke-linejoin="miter"/><path d="M 39.39 38.5095 C 40.0365 38.6256 40.6697 38.8065 41.28 39.0495 L 31.17 99.5295 L 28.41 99.1095 L 38.55 38.4495 Z " id="Shape" fill="#dcefca" fill-rule="nonzero" stroke="none" stroke-width="1" stroke-linecap="butt" stroke-linejoin="miter"/><path d="M 47.64 51.8595 L 39.84 100.9095 L 31.17 99.5295 L 41.28 39.0495 C 46.0986 41.3438 48.7252 46.6341 47.64 51.8595 Z " id="Shape" fill="#c9e2b3" fill-rule="nonzero" stroke="none" stroke-width="1" stroke-linecap="butt" stroke-linejoin="miter"/><path d="M 38.55 38.4495 L 28.41 99.1095 L 26.28 98.7495 L 36.36 38.5695 C 37.0804 38.4241 37.818 38.3837 38.55 38.4495 Z " id="Shape" fill="#f3ffe6" fill-rule="nonzero" stroke="none" stroke-width="1" stroke-linecap="butt" stroke-linejoin="miter"/><path d="M 33.6 39.5295 C 34.4683 39.0767 35.3981 38.7533 36.36 38.5695 L 26.28 98.7495 L 23.76 98.3595 Z " id="Shape" fill="#dcefca" fill-rule="nonzero" stroke="none" stroke-width="1" stroke-linecap="butt" stroke-linejoin="miter"/><path d="M 19.62 97.6995 L 27.42 48.6495 C 28.0023 44.8483 30.3045 41.5279 33.66 39.6495 L 23.82 98.4795 Z " id="Shape" fill="#c9e2b3" fill-rule="nonzero" stroke="none" stroke-width="1" stroke-linecap="butt" stroke-linejoin="miter"/><path d="M 30.87 95.0595 C 29.2132 95.0595 27.87 93.7163 27.87 92.0595 C 27.87 90.4027 29.2132 89.0595 30.87 89.0595 C 32.5268 89.0595 33.87 90.4027 33.87 92.0595 C 33.87 93.7163 32.5268 95.0595 30.87 95.0595 Z " id="Oval" fill="none" fill-rule="evenodd" stroke="#149948" stroke-width="1.08" stroke-linecap="round" stroke-linejoin="round"/><path d="M 25.7945 104.5175 L 26.7092 98.8002 L 31.6267 99.587 L 30.7119 105.3043 Z " id="Rectangle-path" fill="#c9e2b3" fill-rule="nonzero" stroke="none" stroke-width="1" stroke-linecap="butt" stroke-linejoin="miter"/><path d="M 31.62 99.5895 L 35.07 100.1295 L 34.41 104.2995 L 30.69 105.3195 Z " id="Shape" fill="#61bb4e" fill-rule="nonzero" stroke="none" stroke-width="1" stroke-linecap="butt" stroke-linejoin="miter"/><path d="M 27.36 48.6495 C 27.9315 42.5657 33.2662 38.0579 39.36 38.5095 L 44.58 39.3795 C 50.5228 40.8181 54.2015 46.7709 52.83 52.7295 L 45.51 98.8695 L 39.81 100.9395 L 19.62 97.6995 Z " id="Shape" fill="none" fill-rule="evenodd" stroke="#5e154d" stroke-width="1.44" stroke-linecap="round" stroke-linejoin="round"/><path d="M 26.7 98.8095 L 31.62 99.5895 L 35.07 100.1295 L 34.41 104.2995 L 30.69 105.3195 L 25.77 104.5095 Z " id="Shape" fill="none" fill-rule="evenodd" stroke="#5e154d" stroke-width="1.44" stroke-linecap="round" stroke-linejoin="round"/></g><path d="M 119.31 99.0495 L 122.67 98.1195 L 123.81 102.1695 L 120.87 104.6295 L 116.07 105.9795 L 114.48 100.3995 Z " data-paper-data="{&quot;index&quot;:null}" id="Shape" fill="none" fill-rule="evenodd" stroke="#5e154d" stroke-width="1.44" stroke-linecap="round" stroke-linejoin="round"/><g data-paper-data="{&quot;index&quot;:null}" id="Reflection" fill-rule="evenodd" stroke-linecap="round" stroke-linejoin="round"><path d="M 45.06 27.6195 C 45.2446 26.6602 45.5054 25.7173 45.84 24.7995 " id="Shape" stroke-width="2.16" fill="none" stroke="#ffffff"/><path d="M 47.13 21.3795 C 48.567 17.8642 50.868 14.7686 53.82 12.3795 " id="Shape" stroke-width="2.16" fill="none" stroke="#ffffff"/></g></g></g></svg>