<svg version="1.1" xmlns="http://www.w3.org/2000/svg" xmlns:xlink="http://www.w3.org/1999/xlink" width="189.902" height="135.75" viewBox="0,0,189.902,135.75"><g transform="translate(-149.248,-100.55)"><g data-paper-data="{&quot;isPaintingLayer&quot;:true}" fill-rule="nonzero" stroke="none" stroke-linecap="butt" stroke-linejoin="miter" stroke-miterlimit="10" stroke-dasharray="" stroke-dashoffset="0" style="mix-blend-mode: normal"><g stroke-width="1"><path d="M202.975,100.75h31.058v53.6h-31.058z" fill="#f5f5f5"/><path d="M233.834,100.95h-30.659v53.199h30.659v-53.199M234.233,100.55v54h-31.458v-54h31.458z" fill="#c9c9c9"/></g><g stroke-width="1"><path d="M259.1,154.35v-37.6h23.85v15.332l10.375,2.5v19.768h-34.225" fill="#f5f5f5"/><path d="M282.75,116.95h-23.45v37.199h33.825v-19.409l-10.069,-2.427l-0.306,-0.073v-0.315v-14.975M283.15,116.55v15.375l10.375,2.5v20.125h-34.625v-38h24.25z" fill="#c9c9c9"/></g><g stroke-width="1"><path d="M299.269,236.1c-6.854,0 -12.43,-5.576 -12.43,-12.431c0,-6.855 5.576,-12.431 12.43,-12.431c6.854,0 12.431,5.576 12.431,12.431c0,6.855 -5.576,12.431 -12.431,12.431z" fill="#f5f5f5"/><path d="M299.269,211.439c-6.744,0 -12.23,5.486 -12.23,12.23c0,6.744 5.486,12.23 12.23,12.23c6.744,0 12.231,-5.486 12.231,-12.23c0,-6.744 -5.487,-12.23 -12.231,-12.23M299.269,211.038c6.976,0 12.631,5.655 12.631,12.631c0,6.976 -5.655,12.631 -12.631,12.631c-6.975,0 -12.63,-5.655 -12.63,-12.631c0,-6.976 5.654,-12.631 12.63,-12.631z" fill="#c9c9c9"/></g><g stroke-width="1"><path d="M259.1,179.5h22.6v18.1h-22.6z" fill="#f5f5f5"/><path d="M281.5,179.7h-22.2v17.7h22.2v-17.7M281.9,179.3v18.5h-23v-18.5h23z" fill="#c9c9c9"/></g><g stroke-width="1"><path d="M298.85,135.75h18.6v18.6h-18.6z" fill="#f5f5f5"/><path d="M317.25,135.95h-18.2v18.199h18.2v-18.199M317.65,135.55v19h-19v-19h19z" fill="#c9c9c9"/></g><g stroke-width="1"><path d="M321.85,145.25h17.1v9.1h-17.1z" fill="#f5f5f5"/><path d="M338.75,145.45h-16.7v8.699h16.7v-8.699M339.15,145.05v9.5h-17.5v-9.5h17.5z" fill="#c9c9c9"/></g><g stroke-width="1"><path d="M187.1,193.1v-13.641h17.1v9.1h-5.5v4.541h-11.6" fill="#f5f5f5"/><path d="M204,179.658h-5.1h-11.6v9.1v4.141h11.2v-4.141v-0.4h0.4h5.1v-8.699M204.4,179.259v9.5h-5.5v4.541h-12v-4.541v-9.5h12h5.5z" fill="#c9c9c9"/></g><g stroke-width="1"><path d="M286.35,194.35v-14.85h30.757l-2.13,14.85h-28.627" fill="#f5f5f5"/><path d="M316.876,179.7h-30.326v14.449h28.253l2.073,-14.449M317.338,179.3l-2.188,15.25h-29v-15.25h31.188z" fill="#c9c9c9"/></g><g stroke-width="1"><path d="M259.1,202.75h15.85v17.577h-15.85z" fill="#f5f5f5"/><path d="M274.75,202.95h-15.45v17.177h15.45v-17.177M275.15,202.55v17.978h-16.25v-17.978h16.25z" fill="#c9c9c9"/></g><g stroke-width="1"><path d="M259.1,233.713v-9.467h10.229v1.87l6.193,0.577l-0.789,8.474l-15.633,-1.454" fill="#f5f5f5"/><path d="M269.129,224.445h-9.829v9.085l15.253,1.418l0.751,-8.076l-5.812,-0.541l-0.363,-0.034v-0.364v-1.487M269.529,224.046v1.888l6.21,0.578l-0.825,8.873l-16.014,-1.489v-9.85h10.629z" fill="#c9c9c9"/></g><g stroke-width="1"><path d="M208.934,203.933v-24.433h17.717l7.382,7.383v17.05h-25.099" fill="#f5f5f5"/><path d="M226.568,179.7h-17.435v24.033h24.7v-16.767l-7.265,-7.266M226.734,179.3l7.5,7.5v17.333h-25.5v-24.833h18z" fill="#c9c9c9"/></g><g><path d="M182.0226,208.7245l-1.6605,17.2711l-7.3988,-0.7113l1.6604,-17.2712z" fill="#f5f5f5" stroke-width="0.99999"/><path d="M174.822,208.282l-1.621,16.872l7.001,0.673l1.621,-16.872l-7.001,-0.673M174.463,207.846l7.798,0.749l-1.698,17.669l-7.798,-0.749l1.698,-17.669z" fill="#c9c9c9" stroke-width="1"/></g><g><path d="M170.2726,207.6287l-1.6605,17.2712l-7.3988,-0.7114l1.6605,-17.2712z" fill="#f5f5f5" stroke-width="0.99999"/><path d="M163.064,207.153l-1.621,16.872l7.001,0.673l1.621,-16.872l-7.001,-0.673M162.704,206.716l7.798,0.749l-1.698,17.669l-7.798,-0.749l1.698,-17.669z" fill="#c9c9c9" stroke-width="1"/></g><g><path d="M158.4727,206.4319l-1.6605,17.2712l-7.3988,-0.7113l1.6605,-17.2712z" fill="#f5f5f5" stroke-width="0.99999"/><path d="M151.306,206.023l-1.621,16.872l7.001,0.673l1.621,-16.872l-7.001,-0.673M150.946,205.586l7.798,0.749l-1.698,17.669l-7.798,-0.749l1.698,-17.669z" fill="#c9c9c9" stroke-width="1"/></g><g stroke-width="1"><path d="M214.85,228.768v-4.564h1.5v-10.854h-1.5v-5.304h19.183v5.304h-1.333v10.854h1.333v4.564h-19.183" fill="#f5f5f5"/><path d="M233.834,208.247h-18.784v4.903h1.1h0.4v0.4v10.453v0.4h-0.4h-1.1v4.163h18.784v-4.163h-0.934h-0.4v-0.4v-10.454v-0.4h0.4h0.934v-4.903M234.233,207.846v5.704h-1.333v10.454h1.333v4.964h-19.583v-4.964h1.5v-10.454h-1.5v-5.704h19.583z" fill="#c9c9c9"/></g><g><path d="M201.0806,215.5412l-1.0352,12.707l-15.424,-1.2566l1.0352,-12.7069z" fill="#f5f5f5" stroke-width="1"/><path d="M185.936,214.528l-1.003,12.308l15.025,1.225l1.003,-12.308l-15.025,-1.225M185.569,214.096l15.823,1.29l-1.068,13.105l-15.823,-1.29l1.068,-13.105z" fill="#c9c9c9" stroke-width="1"/></g><g stroke-width="1"><path d="M163.35,179.5h18.71v18.1h-18.71z" fill="#f5f5f5"/><path d="M181.86,179.7h-18.31v17.7h18.31v-17.7M182.26,179.3v18.5h-19.11v-18.5h19.11z" fill="#c9c9c9"/></g></g></g></svg>