<svg version="1.1" xmlns="http://www.w3.org/2000/svg" xmlns:xlink="http://www.w3.org/1999/xlink" width="91.75481" height="255.90059" viewBox="0,0,91.75481,255.90059"><g transform="translate(-185.39707,75.51799)"><g data-paper-data="{&quot;isPaintingLayer&quot;:true}" fill-rule="nonzero" stroke-linejoin="miter" stroke-miterlimit="10" stroke-dasharray="" stroke-dashoffset="0" style="mix-blend-mode: normal"><g data-paper-data="{&quot;origPos&quot;:null}" stroke="none" stroke-width="1" stroke-linecap="butt"><path d="M240.09999,180.3826l0.9,-9.7l14.8,0.6l9.4,2.3l7.4,6.8z" fill="#d8d8d8"/><path d="M240.79999,172.0826l-3.7,-50.4l-7.9,-62h30l0.7,62.3v50.1z" fill="#98c1dd"/></g><g stroke="none" stroke-width="1" stroke-linecap="butt"><path d="M202.19999,180.3826l0.9,-9.7l14.8,0.6l9.4,2.3l7.4,6.8z" fill="#d8d8d8"/><path d="M203.69999,172.0826l0.5,-52.3l0.7,-60.1h29.1l-8,61.8l-4.7,50.6z" fill="#98c1dd"/></g><g data-paper-data="{&quot;origPos&quot;:null}" stroke="none" stroke-width="1" stroke-linecap="butt"><path d="M265.49999,39.027c-3.2,0.4 -8.6,-1.3 -8.6,-1.3c0,0 -8.1,-46.9 -1.1,-48.6c12.6,-3.4 14.9,46.6 14.9,46.6c0,0 -2.1,2.9 -5.2,3.3z" fill="#ac752d"/><path d="M251.09999,20.727c0,0 -9,-32.9 2.5,-35.1c10.1,-2 21.6,29 21.6,29z" fill="#485963"/></g><g data-paper-data="{&quot;origPos&quot;:null}" fill="#ac752d" stroke="none" stroke-width="1" stroke-linecap="butt"><g data-paper-data="{&quot;origPos&quot;:null}"><path d="M273.49999,62.827l-8.2,2.4l-8.8,-27.1c0,0 3.1,-4.2 6.7,-3.9c2.7,0.2 7.3,1 7.3,1z" data-paper-data="{&quot;origPos&quot;:null}"/></g><path d="M270.01579,85.3999c-1.8835,0.2693 -1.1129,-8.7499 -2.8775,-8.9118c-1.3528,-0.1411 0.2592,5.4528 -0.1748,6.3537c-0.5321,0.9202 -3.2735,-0.578 -3.2735,-0.578c0,0 -2.5351,-5.1061 -2.9591,-7.7745c-1.062,-5.9061 4.6028,-11.8129 4.6028,-11.8129l7.2768,-0.3129c0,0 4.395,6.2685 4.5396,10.6227c0.0867,4.0598 -3.0078,9.562 -3.0078,9.562c0,0 -2.3025,2.798 -4.1265,2.8517z" data-paper-data="{&quot;origPos&quot;:null,&quot;index&quot;:null,&quot;origRot&quot;:0}"/></g><path d="M202.49999,64.7826l-0.2,-76.3c0,0 15.2,-7.9 28.2,-8.1c13,-0.2 23.9334,4.0111 26.3334,5.3111c2.3,1.2 3.0666,81.2889 3.0666,81.2889c0,0 -17.1,2.8 -28.7,2.7c-11.8,-0.2 -28.7,-4.9 -28.7,-4.9z" data-paper-data="{&quot;origPos&quot;:null}" fill="#536672" stroke="none" stroke-width="1" stroke-linecap="butt"/><g stroke="none" stroke-width="1" stroke-linecap="butt"><path d="M192.09999,41.0826c-2.5,-0.2 -6.3,-2.2 -6.3,-2.2c0,0 5.6,-50.6 19.9,-50.3c11.2,-0.3 -7.2,51.3 -7.2,51.3c0,0 -3.9,1.4 -6.4,1.2z" fill="#ac752d"/><path d="M185.99999,15.1826c0,0 12.5,-28.3 19.5,-27.5c16.6,1.8 2.8,36.2 2.8,36.2z" fill="#485963"/></g><g fill="#ac752d" stroke="none" stroke-width="1" stroke-linecap="butt"><path d="M187.79999,65.7826l-2.1,-27.7c0,0 4,-1.2 6.3,-1.6c3.2,-0.6 6.7,3.3 6.7,3.3l-3.2,27.7z"/><path d="M190.29999,84.8826c0,0 -4.1,-4.8 -4.8,-8.8c-0.7,-4.3 2.4,-11.3 2.4,-11.3l7.2,-1.1c0,0 6.7,4.7 6.8,10.7c0.1,2.7 -1.4,8.2 -1.4,8.2c0,0 -2.4,2 -3.1,1.2c-0.7,-0.8 -0.1,-6.6 -1.4,-6.2c-1.7,0.5 0.8,9.2 -1.1,9.3c-1.8,0.3 -4.6,-2 -4.6,-2z"/></g><path d="M257.59999,-47.2174c0,15.7 -20.6,31.3 -34.8,31.3c-14.2,0 -16.7,-15.7 -16.7,-31.3c0,-15.6 11.5,-28.3 25.8,-28.3c14.2,-0.1 25.7,12.6 25.7,28.3z" data-paper-data="{&quot;origPos&quot;:null}" fill="#241608" stroke="none" stroke-width="1" stroke-linecap="butt"/><g fill="#9e6b30" stroke="none" stroke-width="1" stroke-linecap="butt"><path d="M222.99999,-29.2174l15.2,3.4l-0.1,9.1c0,0 4.9,0.9 4.8,3.7c-0.1,4.5 -18.9,6.9 -22.8,0c-1.5,-3.4 2,-4.6 2,-4.6z" data-paper-data="{&quot;origPos&quot;:null}"/><path d="M218.39999,-40.3174c0.8,2.4 0.3,4.7 -1,5.1c-1.4,0.5 -3.2,-1 -4,-3.4c-0.8,-2.4 -0.3,-4.7 1,-5.1c1.4,-0.5 3.2,1.1 4,3.4z" data-paper-data="{&quot;origPos&quot;:null}"/><path d="M249.89999,-42.5174c0,12.8 -7.9,19.6 -14.7,19.9c-11.8,0.2 -19.4,-9.5 -19.4,-22.3c0,-12.8 2.2,-22.4 17.2,-23.1c11.4,-0.6 18.88,11.5 16.88,25.2z" data-paper-data="{&quot;origPos&quot;:null}"/></g><path d="M238.29999,-29.8174c0,0.7 -2,2.2 -3.7,2.2c-1.8,0 -3.5,-1.9 -3.5,-2.7c0,-0.8 2.2,0 4,0c1.7,0.1 3.2,-0.2 3.2,0.5z" fill="#000000" stroke="none" stroke-width="1" stroke-linecap="butt"/><path d="M235.59999,-42.0174c0,0 2.3,3 2.2,4.5c0,0.7 -2.5,2.1 -2.5,2.1" fill="none" stroke="#000000" stroke-width="1.46" stroke-linecap="round"/><path d="M212.59999,-43.4174c0,0 -1.4067,-20.2748 9.8,-26.25c15.641,-8.3394 25,5.15 25,5.15c0,0 -7.4,6 -14.6,10.4c-7.2,4.4 -20.2,10.7 -20.2,10.7z" data-paper-data="{&quot;origPos&quot;:null}" fill="#241608" stroke="none" stroke-width="1" stroke-linecap="butt"/><g><path d="M224.19999,-49.0174c0,0 2.9,-0.8 4.4,-0.8c1.7,-0.1 3.7,0.8 3.7,0.8" fill="none" stroke="#000000" stroke-width="1.46" stroke-linecap="round"/><g><path d="M224.09999,-44.7174c0,0 2.2,-1.9 4.5,-1.7c2.5,0.2 2.9,1.5 2.9,1.5" fill="none" stroke="#000000" stroke-width="1.46" stroke-linecap="round"/><path d="M227.39999,-43.9174c0,-1.2 0.9,-2.2 2.1,-2.2c1.2,0 2.1,1 2.1,2.2c0,1.2 -0.9,2.2 -2.1,2.2c-1.1,0 -2.1,-1 -2.1,-2.2z" fill="#000000" stroke="none" stroke-width="1" stroke-linecap="butt"/></g></g><g><path d="M239.59999,-49.1174c0,0 2.3,-0.8 4,-0.8c1.5,0.1 3.2,0.5 3.2,0.5" fill="none" stroke="#000000" stroke-width="1.46" stroke-linecap="round"/><g><path d="M239.59999,-45.0174c0,0 0.5,-1.3 2.9,-1.5c2.3,-0.2 4.5,1.7 4.5,1.7" fill="none" stroke="#000000" stroke-width="1.46" stroke-linecap="round"/><path d="M244.29999,-42.0174c-1.2,0 -2.1,-1 -2.1,-2.2c0,-1.2 0.9,-2.2 2.1,-2.2c1.2,0 2.1,1 2.1,2.2c0,1.2 -1,2.2 -2.1,2.2z" fill="#000000" stroke="none" stroke-width="1" stroke-linecap="butt"/></g></g><g data-paper-data="{&quot;origPos&quot;:null}" fill="#241608" stroke="none" stroke-width="1" stroke-linecap="butt"><path d="M224.09999,-16.2174c0,5.5 -2.6,10 -5.7,10c-3.1,0 -5.7,-4.5 -5.7,-10c0,-5.5 2.6,-10 5.7,-10c3.1,0 5.7,4.5 5.7,10z"/><path d="M212.09999,-4.8174c0,-4.3 2.2,-7.8 4.9,-7.8c2.7,0 4.9,3.5 4.9,7.8c0,4.3 -2.2,7.8 -4.9,7.8c-2.7,0 -4.9,-3.5 -4.9,-7.8z"/><path d="M212.69999,6.2826c0,-3.3 1.7,-6 3.7,-6c2.1,0 3.7,2.7 3.7,6c0,3.3 -1.7,6 -3.7,6c-2,0 -3.7,-2.7 -3.7,-6z"/><path d="M213.99999,14.6826c0,-2.3 1.2,-4.1 2.6,-4.1c1.4,0 2.6,1.9 2.6,4.1c0,2.2 -1.2,4.1 -2.6,4.1c-1.5,0 -2.6,-1.8 -2.6,-4.1z"/><path d="M219.79999,22.0826c0.3,2.6 -2.4,4.9 -2.4,4.9c0,0 -3.5,-1.9 -3.7,-4.5c-0.2,-2.6 1.6,-4.8 2.7,-4.9c1.1,-0.1 3.1,1.9 3.4,4.5z"/></g></g></g></svg>