<svg xmlns="http://www.w3.org/2000/svg" xmlns:xlink="http://www.w3.org/1999/xlink" version="1.1" width="8.240600109100342" height="10.848099708557129" viewBox="0.3797000050544739 -0.020299971103668213 8.240600109100342 10.848099708557129">
  <!-- Exported by Scratch - http://scratch.mit.edu/ -->
  <path id="ID0.26244490034878254" fill="#CCCCCC" stroke="#000000" stroke-width="0.15189873799681664" d="M 0.8797 0.9354 L 1.1835 0.4797 L 7.8418 0.4797 L 8.1203 0.9101 L 7.7658 10.0241 L 7.2595 10.3278 L 1.6646 10.3278 L 1.2089 10.0494 L 0.8797 0.9354 Z "/>
  <path id="ID0.7293737544678152" fill="#995900" stroke="#FF9400" stroke-width="0.07967189067245836" d="M 3.0689 1.5713 C 3.3331 1.5749 3.65 1.6041 3.842 1.7911 C 4.0219 1.9732 4.0409 2.2818 4.0419 2.537 C 4.0429 2.7987 4.0177 3.1101 3.834 3.2949 C 3.645 3.4801 3.3327 3.5052 3.0689 3.5027 C 2.8142 3.5004 2.5092 3.4742 2.3236 3.2949 C 2.14 3.1078 2.0963 2.8005 2.096 2.537 C 2.0955 2.279 2.1261 1.967 2.3091 1.7805 C 2.4974 1.5986 2.8067 1.5677 3.0689 1.5713 Z "/>
  <path id="ID0.7293737544678152" fill="#995900" stroke="#FF9400" stroke-width="0.07967189067245836" d="M 5.7689 1.5713 C 6.0331 1.5749 6.35 1.6041 6.542 1.7911 C 6.7219 1.9732 6.7409 2.2818 6.7419 2.537 C 6.7429 2.7987 6.7177 3.1101 6.534 3.2949 C 6.345 3.4801 6.0327 3.5052 5.7689 3.5027 C 5.5142 3.5004 5.2092 3.4742 5.0236 3.2949 C 4.84 3.1078 4.7963 2.8005 4.796 2.537 C 4.7955 2.279 4.8261 1.967 5.0091 1.7805 C 5.1974 1.5986 5.5067 1.5677 5.7689 1.5713 Z "/>
  <path id="ID0.7293737544678152" fill="#995900" stroke="#FF9400" stroke-width="0.07967189067245836" d="M 3.0689 4.5213 C 3.3331 4.5249 3.65 4.5541 3.842 4.7411 C 4.0219 4.9232 4.0409 5.2318 4.0419 5.487 C 4.0429 5.7487 4.0177 6.0601 3.834 6.2449 C 3.645 6.4301 3.3327 6.4552 3.0689 6.4527 C 2.8142 6.4504 2.5092 6.4242 2.3236 6.2449 C 2.14 6.0578 2.0963 5.7505 2.096 5.487 C 2.0955 5.229 2.1261 4.917 2.3091 4.7305 C 2.4974 4.5486 2.8067 4.5177 3.0689 4.5213 Z "/>
  <path id="ID0.7293737544678152" fill="#995900" stroke="#FF9400" stroke-width="0.07967189067245836" d="M 5.7689 4.3713 C 6.0331 4.3749 6.35 4.4041 6.542 4.5911 C 6.7219 4.7732 6.7409 5.0818 6.7419 5.337 C 6.7429 5.5987 6.7177 5.9101 6.534 6.0949 C 6.345 6.2801 6.0327 6.3052 5.7689 6.3027 C 5.5142 6.3004 5.2092 6.2742 5.0236 6.0949 C 4.84 5.9078 4.7963 5.6005 4.796 5.337 C 4.7955 5.079 4.8261 4.767 5.0091 4.5805 C 5.1974 4.3986 5.5067 4.3677 5.7689 4.3713 Z "/>
  <path id="ID0.7293737544678152" fill="#995900" stroke="#FF9400" stroke-width="0.07967189067245836" d="M 3.0689 7.3713 C 3.3331 7.3749 3.65 7.4041 3.842 7.5911 C 4.0219 7.7732 4.0409 8.0818 4.0419 8.337 C 4.0429 8.5987 4.0177 8.9101 3.834 9.0949 C 3.645 9.2801 3.3327 9.3052 3.0689 9.3027 C 2.8142 9.3004 2.5092 9.2742 2.3236 9.0949 C 2.14 8.9078 2.0963 8.6005 2.096 8.337 C 2.0955 8.079 2.1261 7.767 2.3091 7.5805 C 2.4974 7.3986 2.8067 7.3677 3.0689 7.3713 Z "/>
  <path id="ID0.7293737544678152" fill="#FF0000" stroke="#FF9400" stroke-width="0.07967189067245836" d="M 5.9189 7.3713 C 6.1831 7.3749 6.5 7.4041 6.692 7.5911 C 6.8719 7.7732 6.8909 8.0818 6.8919 8.337 C 6.8929 8.5987 6.8677 8.9101 6.684 9.0949 C 6.495 9.2801 6.1827 9.3052 5.9189 9.3027 C 5.6642 9.3004 5.3592 9.2742 5.1736 9.0949 C 4.99 8.9078 4.9463 8.6005 4.946 8.337 C 4.9455 8.079 4.9761 7.767 5.1591 7.5805 C 5.3474 7.3986 5.6567 7.3677 5.9189 7.3713 Z "/>
</svg>