<svg xmlns="http://www.w3.org/2000/svg" xmlns:xlink="http://www.w3.org/1999/xlink" version="1.1" width="56.224867287875355" height="35.008165780306996" viewBox="-1.2720339539652779 -0.5311339813476517 56.224867287875355 35.008165780306996">
  <defs>
    <linearGradient id="grad_1" x1="27.1699" y1="75.8438" x2="118.1699" y2="75.8438" gradientUnits="userSpaceOnUse">
      <stop offset="0.012" stop-color="#66B3E3"/>
      <stop offset="1" stop-color="#1C75BC"/>
    </linearGradient>
  <linearGradient id="grad_1-.5881476402282715,0,0,0.5908936858177185,-15.9,-23.3" x1="0.0799" y1="21.5156" x2="53.6013" y2="21.5156" gradientUnits="userSpaceOnUse">
      <stop offset="0.012" stop-color="#66B3E3"/>
      <stop offset="1" stop-color="#1C75BC"/>
    </linearGradient></defs>
  <!-- Exported by Scratch - http://scratch.mit.edu/ -->
  <g id="ID0.4901528996415436">
    <path id="ID0.38118362659588456" fill="url(#grad_1-.5881476402282715,0,0,0.5908936858177185,-15.9,-23.3)" d="M 53.6014 28.041 C 53.6014 30.8489 51.3347 33.1256 48.5404 33.1256 L 5.1398 33.1256 C 2.3449 33.1256 0.0794 30.8483 0.0794 28.041 L 0.0794 5.9043 C 0.0794 3.0964 2.3449 0.8203 5.1398 0.8203 L 48.5398 0.8203 C 51.3359 0.8203 53.6008 3.0964 53.6008 5.9043 L 53.6008 28.041 L 53.6014 28.041 Z " stroke-width="0.5895222619398409"/>
    <path id="ID0.21476437570527196" fill="#27AAE1" d="M 48.5398 2.837 L 5.1398 2.837 C 3.4571 2.837 2.0873 4.2126 2.0873 5.9037 L 2.0873 28.0404 C 2.0873 29.7315 3.4571 31.1071 5.1398 31.1071 L 48.5398 31.1071 C 50.2243 31.1071 51.5929 29.7315 51.5929 28.0404 L 51.5929 5.9043 C 51.5929 4.2132 50.2243 2.837 48.5398 2.837 Z " stroke-width="0.5895222619398409"/>
  </g>
  <path id="ID0.8179688826203346" fill="#003FFF" stroke="#000000" stroke-width="2.1266202301100137" stroke-linecap="round" d="M 21.7469 20.1238 L 32.7216 20.217 L 40.7462 27.3004 L 12.5422 27.3004 L 21.7469 20.1238 Z "/>
  <path id="ID0.8179688826203346" fill="#003FFF" stroke="#000000" stroke-width="2.7028679287444977" stroke-linecap="round" d="M 27.0445 6.0074 L 45.2327 20.1786 L 8.7034 20.1786 L 27.0445 6.0074 Z "/>
</svg>