<svg xmlns="http://www.w3.org/2000/svg" xmlns:xlink="http://www.w3.org/1999/xlink" version="1.1" width="80.73590087890625" height="38.03009796142578" viewBox="-0.4008999913930893 -0.07049998641014099 80.73590087890625 38.03009796142578">
  <defs>
    <radialGradient id="grad_1" cx="0.4133" cy="0.2188" r="1.01556">
      <stop offset="0" stop-color="#CCCCCC" stop-opacity="1"/>
      <stop offset="1" stop-color="#666666" stop-opacity="1"/>
    </radialGradient>
    <radialGradient id="grad_2" cx="0.31370000000000003" cy="0.3599" r="0.8921899999999999">
      <stop offset="0" stop-color="#CCCCCC" stop-opacity="1"/>
      <stop offset="1" stop-color="#666666" stop-opacity="1"/>
    </radialGradient>
    <radialGradient id="grad_3" cx="0.2656" cy="0.39299999999999996" r="0.9547199999999999">
      <stop offset="0" stop-color="#CCCCCC" stop-opacity="1"/>
      <stop offset="1" stop-color="#666666" stop-opacity="1"/>
    </radialGradient>
    <radialGradient id="grad_4" cx="0.42590000000000006" cy="0.3497" r="0.84539">
      <stop offset="0" stop-color="#CCCCCC" stop-opacity="1"/>
      <stop offset="1" stop-color="#666666" stop-opacity="1"/>
    </radialGradient>
    <radialGradient id="grad_5" cx="0.4814" cy="0.3632" r="0.8278399999999999">
      <stop offset="0" stop-color="#CCCCCC" stop-opacity="1"/>
      <stop offset="1" stop-color="#666666" stop-opacity="1"/>
    </radialGradient>
    <radialGradient id="grad_6" cx="0.5581" cy="0.43060000000000004" r="0.7402199999999999">
      <stop offset="0" stop-color="#CCCCCC" stop-opacity="1"/>
      <stop offset="1" stop-color="#666666" stop-opacity="1"/>
    </radialGradient>
    <radialGradient id="grad_7" cx="0.34990000000000004" cy="0.35710000000000003" r="0.84513">
      <stop offset="0" stop-color="#00FFFF" stop-opacity="1"/>
      <stop offset="1" stop-color="#009999" stop-opacity="1"/>
    </radialGradient>
  <radialGradient id="grad_1-0.8573749661445618,0,0,0.8573749661445618,167.85,-48.5" cx="68.7261" cy="5.7307" r="11.1118" gradientUnits="userSpaceOnUse">
      <stop offset="0" stop-color="#CCCCCC" stop-opacity="1"/>
      <stop offset="1" stop-color="#666666" stop-opacity="1"/>
    </radialGradient><radialGradient id="grad_2-.8573749661445618,0,0,0.8573749661445618,-23.05,-48.5" cx="11.0794" cy="13.7566" r="32.146" gradientUnits="userSpaceOnUse">
      <stop offset="0" stop-color="#CCCCCC" stop-opacity="1"/>
      <stop offset="1" stop-color="#666666" stop-opacity="1"/>
    </radialGradient><radialGradient id="grad_3-.8573749661445618,0,0,0.8573749661445618,-23.05,-48.5" cx="44.165" cy="18.2434" r="33.1679" gradientUnits="userSpaceOnUse">
      <stop offset="0" stop-color="#CCCCCC" stop-opacity="1"/>
      <stop offset="1" stop-color="#666666" stop-opacity="1"/>
    </radialGradient><radialGradient id="grad_4-.8573749661445618,0,0,0.8573749661445618,-23.05,-48.5" cx="32.8064" cy="17.5974" r="5.8909" gradientUnits="userSpaceOnUse">
      <stop offset="0" stop-color="#CCCCCC" stop-opacity="1"/>
      <stop offset="1" stop-color="#666666" stop-opacity="1"/>
    </radialGradient><radialGradient id="grad_5-.8573749661445618,0,0,0.8573749661445618,-23.05,-48.5" cx="35.5542" cy="17.7266" r="5.7686" gradientUnits="userSpaceOnUse">
      <stop offset="0" stop-color="#CCCCCC" stop-opacity="1"/>
      <stop offset="1" stop-color="#666666" stop-opacity="1"/>
    </radialGradient><radialGradient id="grad_6-0.8573749661445618,0,0,0.8573749661445618,167.85,-48.5" cx="77.7495" cy="10.76" r="4.9327" gradientUnits="userSpaceOnUse">
      <stop offset="0" stop-color="#CCCCCC" stop-opacity="1"/>
      <stop offset="1" stop-color="#666666" stop-opacity="1"/>
    </radialGradient><radialGradient id="grad_7-.7842105627059937,0,0,0.8421052694320679,-186.6,-105.7" cx="17.4109" cy="17.0362" r="12.5604" gradientUnits="userSpaceOnUse">
      <stop offset="0" stop-color="#00FFFF" stop-opacity="1"/>
      <stop offset="1" stop-color="#009999" stop-opacity="1"/>
    </radialGradient></defs>
  <!-- Exported by Scratch - http://scratch.mit.edu/ -->
  <g id="ID0.8154793148860335">
    <path id="ID0.8694397993385792" fill="url(#grad_1-0.8573749661445618,0,0,0.8573749661445618,167.85,-48.5)" d="M 71.3756 2.6493 L 64.965 2.6493 L 64.965 4.7258 L 68.3053 4.7258 L 68.3053 7.5243 L 64.965 7.5243 L 64.965 9.8727 L 68.3053 9.8727 L 68.3053 12.6703 L 64.965 12.6703 L 64.965 16.7325 L 71.3756 16.7325 L 71.3756 2.6493 " stroke-width="0.8573749661445618"/>
    <path id="ID0.7121701026335359" fill="url(#grad_2-.8573749661445618,0,0,0.8573749661445618,-23.05,-48.5)" d="M 19.6824 22.7093 C 21.8464 22.7093 23.6006 20.9551 23.6006 18.7911 C 23.6006 16.6288 21.8464 14.8746 19.6824 14.8746 C 17.5184 14.8746 15.7642 16.6288 15.7642 18.7911 C 15.7642 20.9551 17.5184 22.7093 19.6824 22.7093 L 19.6824 22.7093 L 19.6824 22.7093 Z M 7.404 22.7093 C 9.568 22.7093 11.3222 20.9551 11.3222 18.7911 C 11.3222 16.6288 9.568 14.8746 7.404 14.8746 C 5.2399 14.8746 3.4858 16.6288 3.4858 18.7911 C 3.4858 20.9551 5.2399 22.7093 7.404 22.7093 L 7.404 22.7093 L 7.404 22.7093 Z M 26.0724 27.6795 C 26.0724 26.6618 25.8427 25.6989 25.4328 24.8399 C 23.9307 26.3025 21.8773 27.2054 19.6121 27.2054 C 17.2423 27.2054 15.104 26.2185 13.5865 24.6332 C 13.1124 25.5446 12.844 26.5803 12.844 27.6821 C 12.844 31.3353 15.8054 34.295 19.4578 34.295 C 23.1119 34.2933 26.0724 31.3328 26.0724 27.6795 L 26.0724 27.6795 L 26.0724 27.6795 Z M 25.5306 12.9746 C 25.8795 12.1696 26.0733 11.2805 26.0733 10.3468 C 26.0733 6.6935 23.1119 3.7321 19.4595 3.7321 C 15.8071 3.7321 12.8457 6.6935 12.8457 10.3468 C 12.8457 11.4391 13.1098 12.4671 13.475 13.2061 C 14.9994 11.5514 17.1849 10.5131 19.6138 10.5131 C 21.9262 10.5131 24.0199 11.4545 25.5306 12.9746 L 25.5306 12.9746 L 25.5306 12.9746 Z M 27.6337 15.8083 C 28.1499 17.4553 28.3308 20.2092 27.6337 22.0542 L 30.8575 18.9643 L 27.6337 15.8083 L 27.6337 15.8083 L 27.6337 15.8083 Z M 9.6794 10.2782 C 9.6794 4.839 14.0889 0.4295 19.5281 0.4295 C 24.9673 0.4295 29.3768 4.839 29.3768 10.2782 C 29.3768 12.2047 33.2058 17.0034 35.1015 19.2609 C 33.1149 20.8865 29.3768 25.6724 29.3768 27.6117 C 29.3768 33.0509 24.9673 37.4596 19.5281 37.4596 C 14.0889 37.4596 9.6794 33.0492 9.6794 27.6117 C 9.6794 26.9473 9.7454 26.2974 9.8715 25.6681 C 9.1007 25.9442 8.2699 26.0951 7.4048 26.0951 C 3.3692 26.0951 0.0991 22.8259 0.0991 18.7894 C 0.0991 14.7546 3.3692 11.4837 7.4048 11.4837 C 8.2476 11.4837 9.0578 11.6268 9.8123 11.8892 C 9.7249 11.3671 9.6794 10.8278 9.6794 10.2782 L 9.6794 10.2782 L 9.6794 10.2782 Z " stroke-width="0.8573749661445618"/>
    <path id="ID0.7789692673832178" fill="url(#grad_3-.8573749661445618,0,0,0.8573749661445618,-23.05,-48.5)" d="M 31.2647 15.3341 L 79.835 15.3341 L 79.835 22.7367 L 31.2647 22.7367 L 31.2647 15.3341 L 31.2647 15.3341 Z " stroke-width="0.8573749661445618"/>
    <path id="ID0.578137279022485" fill="url(#grad_4-.8573749661445618,0,0,0.8573749661445618,-23.05,-48.5)" d="M 31.8066 15.5142 C 31.8066 14.8171 32.3321 14.2504 32.9803 14.2504 L 32.9803 14.2504 C 33.6285 14.2504 34.1541 14.8163 34.1541 15.5142 L 34.1541 22.5567 C 34.1541 23.2546 33.6285 23.8213 32.9803 23.8213 L 32.9803 23.8213 C 32.3321 23.8213 31.8066 23.2554 31.8066 22.5567 L 31.8066 15.5142 L 31.8066 15.5142 L 31.8066 15.5142 L 31.8066 15.5142 Z " stroke-width="0.8573749661445618"/>
    <path id="ID0.029240664094686508" fill="url(#grad_5-.8573749661445618,0,0,0.8573749661445618,-23.05,-48.5)" d="M 34.4241 15.5142 C 34.4241 14.8171 34.9497 14.2504 35.5979 14.2504 L 35.5979 14.2504 C 36.2461 14.2504 36.7716 14.8163 36.7716 15.5142 L 36.7716 22.5567 C 36.7716 23.2546 36.2461 23.8213 35.5979 23.8213 L 35.5979 23.8213 C 34.9497 23.8213 34.4241 23.2554 34.4241 22.5567 L 34.4241 15.5142 L 34.4241 15.5142 L 34.4241 15.5142 L 34.4241 15.5142 Z " stroke-width="0.8573749661445618"/>
    <path id="ID0.5972161572426558" fill="url(#grad_6-0.8573749661445618,0,0,0.8573749661445618,167.85,-48.5)" d="M 79.8147 7.0279 L 76.1143 7.0279 L 76.1143 15.6951 L 79.8147 15.6951 L 79.8147 7.0279 " stroke-width="0.8573749661445618"/>
    <path id="ID0.38933458272367716" fill="url(#grad_7-.7842105627059937,0,0,0.8421052694320679,-186.6,-105.7)" stroke="none" d="M 19.6474 11.7737 C 21.7028 11.7737 23.5653 12.5989 24.9141 13.9328 C 26.2622 15.2667 27.0974 17.1093 27.0974 19.1421 C 27.0974 21.1749 26.2622 23.0175 24.9141 24.3514 C 23.5653 25.6853 21.7028 26.5105 19.6474 26.5105 C 17.592 26.5105 15.7295 25.6853 14.3806 24.3514 C 13.0326 23.0175 12.1974 21.1749 12.1974 19.1421 C 12.1974 17.1093 13.0326 15.2667 14.3806 13.9328 C 15.7295 12.5989 17.592 11.7737 19.6474 11.7737 Z " stroke-width="0.8136729968067352"/>
  </g>
</svg>