<svg xmlns="http://www.w3.org/2000/svg" xmlns:xlink="http://www.w3.org/1999/xlink" version="1.1" width="177.29176330566406" height="274.9674072265625" viewBox="-0.7196829319000244 -0.7798999547958374 177.29176330566406 274.9674072265625">
  <defs>
    <radialGradient id="grad_1" cx="0.13" cy="0.36340000000000006" r="1.131">
      <stop offset="0" stop-color="#9B8579" stop-opacity="1"/>
      <stop offset="1" stop-color="#C2B59B" stop-opacity="1"/>
    </radialGradient>
    <radialGradient id="grad_2" cx="0.1032" cy="0.2602" r="1.16584">
      <stop offset="0" stop-color="#9B8579" stop-opacity="1"/>
      <stop offset="1" stop-color="#C2B59B" stop-opacity="1"/>
    </radialGradient>
    <radialGradient id="grad_3" cx="0.6685" cy="0.3483" r="0.86905">
      <stop offset="0" stop-color="#594A42" stop-opacity="1"/>
      <stop offset="1" stop-color="#726658" stop-opacity="1"/>
    </radialGradient>
    <radialGradient id="grad_4" cx="0.7161" cy="0.2862" r="0.93093">
      <stop offset="0" stop-color="#594A42" stop-opacity="1"/>
      <stop offset="1" stop-color="#726658" stop-opacity="1"/>
    </radialGradient>
    <radialGradient id="grad_5" cx="0.2658" cy="0.1962" r="1.04494">
      <stop offset="0" stop-color="#9B8579" stop-opacity="1"/>
      <stop offset="1" stop-color="#C2B59B" stop-opacity="1"/>
    </radialGradient>
    <radialGradient id="grad_6" cx="0.2658" cy="0.11689999999999999" r="1.1480299999999999">
      <stop offset="0" stop-color="#9B8579" stop-opacity="1"/>
      <stop offset="1" stop-color="#C2B59B" stop-opacity="1"/>
    </radialGradient>
    <radialGradient id="grad_7" cx="0.2805" cy="0.35960000000000003" r="0.93535">
      <stop offset="0" stop-color="#594A42" stop-opacity="1"/>
      <stop offset="1" stop-color="#726658" stop-opacity="1"/>
    </radialGradient>
    <radialGradient id="grad_8" cx="0.24100000000000002" cy="0.3429" r="0.9867">
      <stop offset="0" stop-color="#594A42" stop-opacity="1"/>
      <stop offset="1" stop-color="#726658" stop-opacity="1"/>
    </radialGradient>
    <radialGradient id="grad_9" cx="0.5779" cy="0.1263" r="1.13581">
      <stop offset="0" stop-color="#C2B59B" stop-opacity="1"/>
      <stop offset="1" stop-color="#9B8579" stop-opacity="1"/>
    </radialGradient>
    <radialGradient id="grad_10" cx="0.5831000000000001" cy="0.0297" r="1.26139">
      <stop offset="0" stop-color="#C2B59B" stop-opacity="1"/>
      <stop offset="1" stop-color="#9B8579" stop-opacity="1"/>
    </radialGradient>
    <radialGradient id="grad_11" cx="0.43170000000000003" cy="0.1654" r="1.08498">
      <stop offset="0" stop-color="#594A42" stop-opacity="1"/>
      <stop offset="1" stop-color="#726658" stop-opacity="1"/>
    </radialGradient>
    <radialGradient id="grad_12" cx="0.3812" cy="0.1437" r="1.1131900000000001">
      <stop offset="0" stop-color="#594A42" stop-opacity="1"/>
      <stop offset="1" stop-color="#726658" stop-opacity="1"/>
    </radialGradient>
    <radialGradient id="grad_13" cx="0.43189999999999995" cy="0.1096" r="1.1575199999999999">
      <stop offset="0" stop-color="#C2B59B" stop-opacity="1"/>
      <stop offset="1" stop-color="#9B8579" stop-opacity="1"/>
    </radialGradient>
    <radialGradient id="grad_14" cx="0.43189999999999995" cy="0.0371" r="1.25177">
      <stop offset="0" stop-color="#C2B59B" stop-opacity="1"/>
      <stop offset="1" stop-color="#9B8579" stop-opacity="1"/>
    </radialGradient>
    <radialGradient id="grad_15" cx="0.27899999999999997" cy="0.2477" r="0.97799">
      <stop offset="0" stop-color="#594A42" stop-opacity="1"/>
      <stop offset="1" stop-color="#726658" stop-opacity="1"/>
    </radialGradient>
    <radialGradient id="grad_16" cx="0.19879999999999998" cy="0.26030000000000003" r="1.04156">
      <stop offset="0" stop-color="#594A42" stop-opacity="1"/>
      <stop offset="1" stop-color="#726658" stop-opacity="1"/>
    </radialGradient>
    <radialGradient id="grad_17" cx="0.45" cy="0.29" r="0.9229999999999999">
      <stop offset="0" stop-color="#594A42" stop-opacity="1"/>
      <stop offset="1" stop-color="#726658" stop-opacity="1"/>
    </radialGradient>
    <radialGradient id="grad_18" cx="0.4462" cy="0.0152" r="1.28024">
      <stop offset="0" stop-color="#594A42" stop-opacity="1"/>
      <stop offset="1" stop-color="#726658" stop-opacity="1"/>
    </radialGradient>
    <radialGradient id="grad_19" cx="0.6492" cy="0.8679000000000001" r="1.1282699999999999">
      <stop offset="0" stop-color="#9B8579" stop-opacity="1"/>
      <stop offset="1" stop-color="#C2B59B" stop-opacity="1"/>
    </radialGradient>
    <radialGradient id="grad_20" cx="0.7054" cy="0.9190999999999999" r="1.19483">
      <stop offset="0" stop-color="#9B8579" stop-opacity="1"/>
      <stop offset="1" stop-color="#C2B59B" stop-opacity="1"/>
    </radialGradient>
    <radialGradient id="grad_21" cx="0.49450000000000005" cy="0.8093" r="1.05209">
      <stop offset="0" stop-color="#594A42" stop-opacity="1"/>
      <stop offset="1" stop-color="#726658" stop-opacity="1"/>
    </radialGradient>
    <radialGradient id="grad_22" cx="0.4753" cy="0.7256" r="0.94328">
      <stop offset="0" stop-color="#594A42" stop-opacity="1"/>
      <stop offset="1" stop-color="#726658" stop-opacity="1"/>
    </radialGradient>
    <radialGradient id="grad_23" cx="0.6581999999999999" cy="0.9367" r="1.21771">
      <stop offset="0" stop-color="#9B8579" stop-opacity="1"/>
      <stop offset="1" stop-color="#C2B59B" stop-opacity="1"/>
    </radialGradient>
    <radialGradient id="grad_24" cx="0.6373" cy="0.9704999999999999" r="1.2616500000000002">
      <stop offset="0" stop-color="#9B8579" stop-opacity="1"/>
      <stop offset="1" stop-color="#C2B59B" stop-opacity="1"/>
    </radialGradient>
    <radialGradient id="grad_25" cx="0.494" cy="0.4639" r="0.6969299999999999">
      <stop offset="0" stop-color="#594A42" stop-opacity="1"/>
      <stop offset="1" stop-color="#726658" stop-opacity="1"/>
    </radialGradient>
    <radialGradient id="grad_26" cx="0.45880000000000004" cy="0.095" r="1.1765">
      <stop offset="0" stop-color="#594A42" stop-opacity="1"/>
      <stop offset="1" stop-color="#726658" stop-opacity="1"/>
    </radialGradient>
  <radialGradient id="grad_1-.044956922531128,0,0,1.044956922531128,-179.5,-278.5" cx="152.7129" cy="188.7455" r="26.824" gradientUnits="userSpaceOnUse">
      <stop offset="0" stop-color="#9B8579" stop-opacity="1"/>
      <stop offset="1" stop-color="#C2B59B" stop-opacity="1"/>
    </radialGradient><radialGradient id="grad_3-.044956922531128,0,0,1.044956922531128,-179.5,-278.5" cx="148.6295" cy="161.7525" r="37.5004" gradientUnits="userSpaceOnUse">
      <stop offset="0" stop-color="#594A42" stop-opacity="1"/>
      <stop offset="1" stop-color="#726658" stop-opacity="1"/>
    </radialGradient><radialGradient id="grad_5-.044956922531128,0,0,1.044956922531128,-179.5,-278.5" cx="51.1521" cy="190.6404" r="25.1091" gradientUnits="userSpaceOnUse">
      <stop offset="0" stop-color="#9B8579" stop-opacity="1"/>
      <stop offset="1" stop-color="#C2B59B" stop-opacity="1"/>
    </radialGradient><radialGradient id="grad_7-.044956922531128,0,0,1.044956922531128,-179.5,-278.5" cx="65.4138" cy="164.8172" r="40.4632" gradientUnits="userSpaceOnUse">
      <stop offset="0" stop-color="#594A42" stop-opacity="1"/>
      <stop offset="1" stop-color="#726658" stop-opacity="1"/>
    </radialGradient><radialGradient id="grad_9-.044956922531128,0,0,1.044956922531128,-179.65,-278.5" cx="75.3989" cy="249.5346" r="44.0085" gradientUnits="userSpaceOnUse">
      <stop offset="0" stop-color="#C2B59B" stop-opacity="1"/>
      <stop offset="1" stop-color="#9B8579" stop-opacity="1"/>
    </radialGradient><radialGradient id="grad_11-.044956922531128,0,0,1.044956922531128,-179.65,-278.5" cx="85.4645" cy="218.2181" r="44.5905" gradientUnits="userSpaceOnUse">
      <stop offset="0" stop-color="#594A42" stop-opacity="1"/>
      <stop offset="1" stop-color="#726658" stop-opacity="1"/>
    </radialGradient><radialGradient id="grad_13-.044956922531128,0,0,1.044956922531128,-179.65,-278.5" cx="145.4759" cy="249.0994" r="44.8491" gradientUnits="userSpaceOnUse">
      <stop offset="0" stop-color="#C2B59B" stop-opacity="1"/>
      <stop offset="1" stop-color="#9B8579" stop-opacity="1"/>
    </radialGradient><radialGradient id="grad_15-.044956922531128,0,0,1.044956922531128,-179.65,-278.5" cx="130.0682" cy="222.7975" r="40.1928" gradientUnits="userSpaceOnUse">
      <stop offset="0" stop-color="#594A42" stop-opacity="1"/>
      <stop offset="1" stop-color="#726658" stop-opacity="1"/>
    </radialGradient><radialGradient id="grad_17-.044956922531128,0,0,1.044956922531128,-179.65,-278.5" cx="106.4501" cy="163.9605" r="69.7121" gradientUnits="userSpaceOnUse">
      <stop offset="0" stop-color="#594A42" stop-opacity="1"/>
      <stop offset="1" stop-color="#726658" stop-opacity="1"/>
    </radialGradient><radialGradient id="grad_19-.044956922531128,0,0,1.044956922531128,-179.65,-278.5" cx="162.523" cy="81.2492" r="35.3461" gradientUnits="userSpaceOnUse">
      <stop offset="0" stop-color="#9B8579" stop-opacity="1"/>
      <stop offset="1" stop-color="#C2B59B" stop-opacity="1"/>
    </radialGradient><radialGradient id="grad_21-.044956922531128,0,0,1.044956922531128,-178.3,-277.85" cx="57.2212" cy="234.5114" r="91.6146" gradientUnits="userSpaceOnUse">
      <stop offset="0" stop-color="#594A42" stop-opacity="1"/>
      <stop offset="1" stop-color="#726658" stop-opacity="1"/>
    </radialGradient><radialGradient id="grad_23-.044956922531128,0,0,1.044956922531128,-179.65,-278.5" cx="34.0413" cy="96.627" r="36.0757" gradientUnits="userSpaceOnUse">
      <stop offset="0" stop-color="#9B8579" stop-opacity="1"/>
      <stop offset="1" stop-color="#C2B59B" stop-opacity="1"/>
    </radialGradient><radialGradient id="grad_25-.044956922531128,0,0,1.044956922531128,-179.65,-278.5" cx="97.5811" cy="71.5984" r="99.5696" gradientUnits="userSpaceOnUse">
      <stop offset="0" stop-color="#594A42" stop-opacity="1"/>
      <stop offset="1" stop-color="#726658" stop-opacity="1"/>
    </radialGradient></defs>
  <!-- Exported by Scratch - http://scratch.mit.edu/ -->
  <g id="ID0.19938789354637265">
    <path id="Hand_1_" fill="url(#grad_1-.044956922531128,0,0,1.044956922531128,-179.5,-278.5)" stroke="url(#grad_2)" stroke-width="2.089913845062256" d="M 150.7513 187.2707 C 150.7513 187.2707 147.3333 198.7141 151.5225 199.7245 C 155.7107 200.7371 155.9291 193.9449 155.9291 193.9449 C 155.9291 193.9449 163.7046 207.6432 171.8668 201.0391 C 180.0289 194.4371 167.5396 182.5486 167.5396 182.5486 C 167.5396 182.5486 163.4841 179.9487 158.6878 180.9164 C 153.8987 181.8809 150.7513 187.2707 150.7513 187.2707 L 150.7513 187.2707 L 150.7513 187.2707 L 150.7513 187.2707 L 150.7513 187.2707 L 150.7513 187.2707 L 150.7513 187.2707 L 150.7513 187.2707 L 150.7513 187.2707 L 150.7513 187.2707 L 150.7513 187.2707 L 150.7513 187.2707 L 150.7513 187.2707 Z "/>
    <path id="Arm_1_" fill="url(#grad_3-.044956922531128,0,0,1.044956922531128,-179.5,-278.5)" stroke="url(#grad_4)" stroke-width="2.089913845062256" d="M 124.7935 158.1332 C 127.9984 158.6619 140.145 160.7665 145.0375 167.6046 C 151.2153 176.2444 153.3094 182.9937 153.3115 183.069 C 153.4933 188.8016 163.6774 191.763 163.6774 181.767 L 163.6774 181.767 C 163.6262 181.3322 162.2772 171.0321 152.7691 160.5742 C 141.9465 148.6753 125.8469 147.2447 121.1655 147.5916 C 121.1655 147.5916 117.9553 148.041 118.3117 151.7004 C 118.6617 155.3567 124.7935 158.1332 124.7935 158.1332 L 124.7935 158.1332 L 124.7935 158.1332 L 124.7935 158.1332 L 124.7935 158.1332 L 124.7935 158.1332 L 124.7935 158.1332 L 124.7935 158.1332 L 124.7935 158.1332 L 124.7935 158.1332 L 124.7935 158.1332 L 124.7935 158.1332 L 124.7935 158.1332 Z "/>
    <path id="Hand" fill="url(#grad_5-.044956922531128,0,0,1.044956922531128,-179.5,-278.5)" stroke="url(#grad_6)" stroke-width="2.089913845062256" d="M 58.6321 186.1892 C 53.7553 185.7994 50.0384 188.8633 50.0384 188.8633 C 50.0384 188.8633 39.0517 202.1541 47.9411 207.7373 C 56.8306 213.3257 62.9216 198.7977 62.9216 198.7977 C 62.9216 198.7977 63.9447 205.5167 67.9845 204.0141 C 72.0243 202.5114 67.2697 191.5561 67.2697 191.5561 C 67.2697 191.5561 63.5037 186.579 58.6321 186.1892 L 58.6321 186.1892 L 58.6321 186.1892 L 58.6321 186.1892 L 58.6321 186.1892 L 58.6321 186.1892 L 58.6321 186.1892 L 58.6321 186.1892 L 58.6321 186.1892 L 58.6321 186.1892 L 58.6321 186.1892 L 58.6321 186.1892 L 58.6321 186.1892 Z "/>
    <path id="Arm" fill="url(#grad_7-.044956922531128,0,0,1.044956922531128,-179.5,-278.5)" stroke="url(#grad_8)" stroke-width="2.089913845062256" d="M 95.2505 152.3817 C 95.169 148.7056 91.9276 148.6429 91.9276 148.6429 C 87.2388 148.855 71.4234 152.1884 62.093 165.289 C 53.8953 176.8045 53.7804 187.1903 53.7814 187.6292 L 53.7814 187.6292 C 54.9706 197.5542 64.7294 193.4046 64.2289 187.6908 C 64.2226 187.6156 65.4975 180.6635 70.6063 171.3508 C 74.6492 163.9807 86.4593 160.4456 89.5795 159.5397 C 89.5785 159.5386 95.3362 156.0527 95.2505 152.3817 L 95.2505 152.3817 L 95.2505 152.3817 L 95.2505 152.3817 L 95.2505 152.3817 L 95.2505 152.3817 L 95.2505 152.3817 L 95.2505 152.3817 L 95.2505 152.3817 L 95.2505 152.3817 L 95.2505 152.3817 L 95.2505 152.3817 L 95.2505 152.3817 Z "/>
    <path id="Foot_1_" fill="url(#grad_9-.044956922531128,0,0,1.044956922531128,-179.65,-278.5)" stroke="url(#grad_10)" stroke-width="2.089913845062256" stroke-linecap="round" stroke-linejoin="round" d="M 95.6 265.7982 C 95.6 265.7982 92.4547 245.34 69.4792 246.2826 C 46.5027 247.2272 47.3366 260.7406 47.6031 264.2224 C 48.2342 272.4044 59.2501 272.2498 59.2501 272.2498 L 95.7588 268.4743 L 95.6 265.7982 L 95.6 265.7982 L 95.6 265.7982 L 95.6 265.7982 L 95.6 265.7982 L 95.6 265.7982 L 95.6 265.7982 L 95.6 265.7982 L 95.6 265.7982 L 95.6 265.7982 L 95.6 265.7982 L 95.6 265.7982 L 95.6 265.7982 Z "/>
    <path id="Leg_1_" fill="url(#grad_11-.044956922531128,0,0,1.044956922531128,-179.65,-278.5)" stroke="url(#grad_12)" stroke-width="2.089913845062256" d="M 86.7597 263.1691 C 83.5161 261.1858 81.2214 256.1689 80.12 252.0215 C 78.4439 245.7068 77.3446 241.2469 79.0751 229.9165 C 80.0751 223.375 84.7408 214.3383 84.7408 214.3383 C 84.7408 214.3383 88.1307 206.7414 93.7107 209.7007 C 96.67 211.287 93.7107 220.003 93.7107 220.003 C 93.7107 220.003 91.3669 227.2581 90.7211 238.8853 C 90.2509 247.384 95.3377 258.7395 94.0524 263.3415 C 93.5697 265.072 90.0064 265.1556 86.7597 263.1691 L 86.7597 263.1691 L 86.7597 263.1691 L 86.7597 263.1691 L 86.7597 263.1691 L 86.7597 263.1691 L 86.7597 263.1691 L 86.7597 263.1691 L 86.7597 263.1691 L 86.7597 263.1691 L 86.7597 263.1691 L 86.7597 263.1691 L 86.7597 263.1691 Z "/>
    <path id="Foot" fill="url(#grad_13-.044956922531128,0,0,1.044956922531128,-179.65,-278.5)" stroke="url(#grad_14)" stroke-width="2.089913845062256" stroke-linecap="round" stroke-linejoin="round" d="M 124.6435 268.4733 L 161.1512 272.2487 C 161.1512 272.2487 172.1661 272.4034 172.7983 264.2214 C 173.0658 260.7396 173.8986 247.2262 150.9211 246.2815 C 127.9456 245.339 124.8003 265.7972 124.8003 265.7972 L 124.6435 268.4733 L 124.6435 268.4733 L 124.6435 268.4733 L 124.6435 268.4733 L 124.6435 268.4733 L 124.6435 268.4733 L 124.6435 268.4733 L 124.6435 268.4733 L 124.6435 268.4733 L 124.6435 268.4733 L 124.6435 268.4733 L 124.6435 268.4733 L 124.6435 268.4733 Z "/>
    <path id="Leg" fill="url(#grad_15-.044956922531128,0,0,1.044956922531128,-179.65,-278.5)" stroke="url(#grad_16)" stroke-width="2.089913845062256" d="M 126.3479 263.3426 C 125.0636 258.7406 130.1505 247.385 129.6792 238.8864 C 129.0334 227.2592 126.6896 220.004 126.6896 220.004 C 126.6896 220.004 123.7303 211.287 126.6896 209.7018 C 132.2696 206.7425 135.6595 214.3393 135.6595 214.3393 C 135.6595 214.3393 140.3252 223.3761 141.3242 229.9175 C 143.0546 241.249 141.9564 245.7079 140.2792 252.0225 C 139.1779 256.17 136.8831 261.1868 133.6396 263.1701 C 130.395 265.1556 126.8306 265.072 126.3479 263.3426 L 126.3479 263.3426 L 126.3479 263.3426 L 126.3479 263.3426 L 126.3479 263.3426 L 126.3479 263.3426 L 126.3479 263.3426 L 126.3479 263.3426 L 126.3479 263.3426 L 126.3479 263.3426 L 126.3479 263.3426 L 126.3479 263.3426 L 126.3479 263.3426 Z "/>
    <path id="Body" fill="url(#grad_17-.044956922531128,0,0,1.044956922531128,-179.65,-278.5)" stroke="url(#grad_18)" stroke-width="2.089913845062256" d="M 137.0117 212.1219 C 142.7443 204.2137 144.4685 193.0901 141.6272 182.3688 C 139.2217 173.2903 140.2019 176.7888 134.6229 164.1824 C 121.9747 135.5997 95.7568 132.2015 85.5465 153.1508 C 81.6112 161.2252 80.7439 165.0947 80.747 165.1396 L 80.7606 165.3434 L 80.6947 165.5471 C 80.6394 165.7122 75.1638 182.164 76.9151 196.4977 C 78.5463 209.847 91.2739 223.3625 112.4458 223.3625 C 113.4301 223.3625 114.4395 223.3343 115.4448 223.2768 C 124.6477 222.7491 132.1035 218.8911 137.0117 212.1219 L 137.0117 212.1219 L 137.0117 212.1219 L 137.0117 212.1219 L 137.0117 212.1219 L 137.0117 212.1219 L 137.0117 212.1219 L 137.0117 212.1219 L 137.0117 212.1219 L 137.0117 212.1219 L 137.0117 212.1219 L 137.0117 212.1219 L 137.0117 212.1219 Z "/>
    <path id="Ear_1_" fill="url(#grad_19-.044956922531128,0,0,1.044956922531128,-179.65,-278.5)" stroke="url(#grad_20)" stroke-width="2.089913845062256" d="M 154.9504 86.0928 C 154.9504 86.0928 160.9798 85.6988 165.4533 82.7134 C 172.117 78.265 173.4786 68.1833 167.1837 58.392 C 160.89 48.6018 155.5461 48.2873 150.7497 50.6489 C 147.3452 52.325 146.5458 56.7399 146.4069 57.7159 L 146.3786 57.8288 C 152.0078 71.8667 152.7665 84.3613 152.7665 84.3613 C 152.7665 84.3613 154.3569 85.1032 154.9504 86.0928 L 154.9504 86.0928 L 154.9504 86.0928 L 154.9504 86.0928 L 154.9504 86.0928 L 154.9504 86.0928 L 154.9504 86.0928 L 154.9504 86.0928 L 154.9504 86.0928 L 154.9504 86.0928 L 154.9504 86.0928 L 154.9504 86.0928 L 154.9504 86.0928 Z "/>
    <path id="Tail" fill="url(#grad_21-.044956922531128,0,0,1.044956922531128,-178.3,-277.85)" stroke="url(#grad_22)" stroke-width="2.089913845062256" d="M 81.0374 239.9282 C 72.2838 242.945 61.5113 244.549 48.4024 243.3181 C 18.6368 240.526 4.6511 215.8514 1.4148 203.1938 C 0.5569 199.8385 2.581 196.4204 5.9353 195.5646 C 9.2907 194.7098 12.7056 196.7318 13.5625 200.0872 C 13.8592 201.2115 21.2836 228.1808 49.5738 230.8361 C 88.6781 234.506 102.0107 208.4186 102.5604 207.3057 C 104.086 204.2137 107.8301 202.9138 110.9315 204.4217 C 114.034 205.9274 115.3454 209.6402 113.8553 212.751 C 113.3537 213.7939 104.3901 231.8831 81.0374 239.9282 L 81.0374 239.9282 L 81.0374 239.9282 L 81.0374 239.9282 L 81.0374 239.9282 L 81.0374 239.9282 L 81.0374 239.9282 L 81.0374 239.9282 L 81.0374 239.9282 L 81.0374 239.9282 L 81.0374 239.9282 L 81.0374 239.9282 L 81.0374 239.9282 L 81.0374 239.9282 Z "/>
    <path id="Ear" fill="url(#grad_23-.044956922531128,0,0,1.044956922531128,-179.65,-278.5)" stroke="url(#grad_24)" stroke-width="2.089913845062256" d="M 41.7889 70.2 C 41.7889 70.2 40.9655 64.9314 37.6718 64.1079 C 34.3781 63.2845 26.474 62.7913 21.5335 73.3297 C 16.5929 83.8681 19.2795 93.6813 26.474 97.208 C 30.4135 99.138 35.1597 98.904 36.7731 98.7535 C 36.7731 98.7535 39.5851 95.7367 40.3113 95.093 C 40.3113 95.092 39.6562 84.3258 41.8443 70.9012 L 41.7889 70.2 L 41.7889 70.2 L 41.7889 70.2 L 41.7889 70.2 L 41.7889 70.2 L 41.7889 70.2 L 41.7889 70.2 L 41.7889 70.2 L 41.7889 70.2 L 41.7889 70.2 L 41.7889 70.2 L 41.7889 70.2 L 41.7889 70.2 Z "/>
    <path id="Head_1_" fill="url(#grad_25-.044956922531128,0,0,1.044956922531128,-179.65,-278.5)" stroke="url(#grad_26)" stroke-width="2.089913845062256" d="M 154.8877 84.9193 C 154.8982 85.1053 159.0038 87.9601 160.4835 90.0041 L 163.4616 97.5277 C 164.4533 100.0336 165.585 109.9168 164.7156 116.0235 C 163.9141 121.544 162.7051 128.0384 158.4981 132.0113 C 150.7936 139.3448 141.3242 145.6303 130.7545 148.2604 C 112.3716 152.8007 92.9343 153.7517 73.961 152.4925 C 64.4822 151.8028 56.155 148.2907 48.2551 143.9761 C 43.0638 141.0471 38.7481 137.6342 35.7156 133.004 C 33.0019 128.3247 32.0353 123.0811 31.7448 117.2252 C 31.5692 111.2846 33.9831 105.8958 35.9769 99.7744 C 36.5568 98.0116 39.0459 97.3104 39.4649 95.5287 L 41.4629 75.2702 C 42.1442 68.8552 42.2173 72.3704 42.9781 70.2544 C 45.8789 62.203 48.5602 54.0042 52.2259 46.2726 C 54.2929 41.9663 56.6033 38.518 59.4884 35.2483 C 61.9054 32.2148 64.7989 30.0194 68.0048 27.5156 C 71.0446 25.199 73.775 24.0129 77.678 21.2166 L 77.7083 21.0933 C 77.5985 19.7558 77.5515 16.9187 78.4084 12.5874 C 79.6414 6.3584 83.4116 1.1576 83.4116 1.1576 C 83.4116 1.1576 84.4043 6.5381 87.0951 10.4316 C 89.8642 14.438 92.2938 15.6303 92.2938 15.6303 C 92.2938 15.6303 91.4505 12.5195 91.5863 10.0419 C 91.8632 5.0114 94.2781 2.515 94.2781 2.515 C 94.2781 2.515 97.2061 9.674 100.8635 13.8016 C 104.7747 18.2166 109.5115 21.1038 109.5115 21.1038 L 109.5805 21.1226 C 151.6421 31.5826 151.1081 79.0822 154.8574 84.3613 L 154.8877 84.9193 Z "/>
    <path id="ID0.11469296598806977" fill="#66584C" stroke="#66584C" stroke-width="3.875" d="M 109.0719 203.025 C 110.5424 203.025 111.8735 203.676 112.8384 204.7281 C 113.8033 205.7801 114.4 207.2332 114.4 208.8375 C 114.4 210.4417 113.8033 211.8949 112.8384 212.9469 C 111.8735 213.999 110.5424 214.65 109.0719 214.65 C 107.6013 214.65 106.2702 213.999 105.3054 212.9469 C 104.3405 211.8949 103.7437 210.4417 103.7437 208.8375 C 103.7437 207.2332 104.3405 205.7801 105.3054 204.7281 C 106.2702 203.676 107.6013 203.025 109.0719 203.025 Z "/>
  </g>
</svg>