<svg xmlns="http://www.w3.org/2000/svg" xmlns:xlink="http://www.w3.org/1999/xlink" version="1.1" width="92.0009994506836" height="57.76197814941406" viewBox="-0.08100000023841858 -2.0699751377105713 92.0009994506836 57.76197814941406">
  <defs>
    <linearGradient id="grad_1" x1="27.1699" y1="75.8438" x2="118.1699" y2="75.8438" gradientUnits="userSpaceOnUse">
      <stop offset="0.012" stop-color="#66B3E3"/>
      <stop offset="1" stop-color="#1C75BC"/>
    </linearGradient>
  <linearGradient id="grad_1-,0,0,1,-26.75,-40.3" x1="0.4199" y1="35.5438" x2="91.4199" y2="35.5438" gradientUnits="userSpaceOnUse">
      <stop offset="0.012" stop-color="#66B3E3"/>
      <stop offset="1" stop-color="#1C75BC"/>
    </linearGradient></defs>
  <!-- Exported by Scratch - http://scratch.mit.edu/ -->
  <g id="ID0.4901528996415436">
    <path id="ID0.38118362659588456" fill="url(#grad_1-,0,0,1,-26.75,-40.3)" d="M 91.42 46.587 C 91.42 51.339 87.566 55.192 82.815 55.192 L 9.023 55.192 C 4.271 55.192 0.419 51.338 0.419 46.587 L 0.419 9.124 C 0.419 4.372 4.271 0.52 9.023 0.52 L 82.814 0.52 C 87.568 0.52 91.419 4.372 91.419 9.124 L 91.419 46.587 L 91.42 46.587 Z " stroke-width="1"/>
    <path id="ID0.21476437570527196" fill="#27AAE1" d="M 82.814 3.933 L 9.023 3.933 C 6.162 3.933 3.833 6.261 3.833 9.123 L 3.833 46.586 C 3.833 49.448 6.162 51.776 9.023 51.776 L 82.814 51.776 C 85.678 51.776 88.005 49.448 88.005 46.586 L 88.005 9.124 C 88.005 6.262 85.678 3.933 82.814 3.933 Z " stroke-width="1"/>
  </g>
  <text id="ID0.7136925770901144" fill="#000000" text-anchor="start" font-family="Sans Serif" font-size="22" transform="matrix(0.997848 0 0 1.00503 18.9957 -2.46508)" stroke-width="1" alignment-baseline="text-before-edge" xml:space="preserve"><tspan x="0" style="white-space: pre" dy="1.13em">Start</tspan><tspan x="0" style="white-space: pre" dy="1.13em">Maze</tspan></text>
</svg>