<svg xmlns="http://www.w3.org/2000/svg" xmlns:xlink="http://www.w3.org/1999/xlink" version="1.1" width="80.73590087890625" height="38.03009796142578" viewBox="-0.45089999586343765 -0.07049998641014099 80.73590087890625 38.03009796142578">
  <defs>
    <radialGradient id="grad_1" cx="0.6333" cy="0.1033" r="1.16571">
      <stop offset="0" stop-color="#FF9400" stop-opacity="1"/>
      <stop offset="1" stop-color="#995900" stop-opacity="1"/>
    </radialGradient>
    <radialGradient id="grad_2" cx="0.31739999999999996" cy="0.3703" r="0.88738">
      <stop offset="0" stop-color="#FF9400" stop-opacity="1"/>
      <stop offset="1" stop-color="#995900" stop-opacity="1"/>
    </radialGradient>
    <radialGradient id="grad_3" cx="0.2303" cy="0.3757" r="1.00061">
      <stop offset="0" stop-color="#FF9400" stop-opacity="1"/>
      <stop offset="1" stop-color="#995900" stop-opacity="1"/>
    </radialGradient>
    <radialGradient id="grad_4" cx="0.42590000000000006" cy="0.3497" r="0.84539">
      <stop offset="0" stop-color="#FF9400" stop-opacity="1"/>
      <stop offset="1" stop-color="#995900" stop-opacity="1"/>
    </radialGradient>
    <radialGradient id="grad_5" cx="0.4814" cy="0.3766" r="0.81042">
      <stop offset="0" stop-color="#FF9400" stop-opacity="1"/>
      <stop offset="1" stop-color="#995900" stop-opacity="1"/>
    </radialGradient>
    <radialGradient id="grad_6" cx="0.3604" cy="0.3564" r="0.8366800000000001">
      <stop offset="0" stop-color="#FF9400" stop-opacity="1"/>
      <stop offset="1" stop-color="#995900" stop-opacity="1"/>
    </radialGradient>
    <radialGradient id="grad_7" cx="0.3757" cy="0.37" r="0.8190000000000001">
      <stop offset="0" stop-color="#FFFF00" stop-opacity="1"/>
      <stop offset="1" stop-color="#999900" stop-opacity="1"/>
    </radialGradient>
  <radialGradient id="grad_1-0.8573749661445618,0,0,0.8573749661445618,176.2,-48.5" cx="75.6658" cy="4.1041" r="12.7546" gradientUnits="userSpaceOnUse">
      <stop offset="0" stop-color="#FF9400" stop-opacity="1"/>
      <stop offset="1" stop-color="#995900" stop-opacity="1"/>
    </radialGradient><radialGradient id="grad_2-.8573749661445618,0,0,0.8573749661445618,-23.1,-48.5" cx="11.1589" cy="14.1418" r="31.9727" gradientUnits="userSpaceOnUse">
      <stop offset="0" stop-color="#FF9400" stop-opacity="1"/>
      <stop offset="1" stop-color="#995900" stop-opacity="1"/>
    </radialGradient><radialGradient id="grad_3-.8573749661445618,0,0,0.8573749661445618,-23.1,-48.5" cx="42.4004" cy="18.1153" r="34.7622" gradientUnits="userSpaceOnUse">
      <stop offset="0" stop-color="#FF9400" stop-opacity="1"/>
      <stop offset="1" stop-color="#995900" stop-opacity="1"/>
    </radialGradient><radialGradient id="grad_4-.8573749661445618,0,0,0.8573749661445618,-23.1,-48.5" cx="32.7564" cy="17.5974" r="5.8909" gradientUnits="userSpaceOnUse">
      <stop offset="0" stop-color="#FF9400" stop-opacity="1"/>
      <stop offset="1" stop-color="#995900" stop-opacity="1"/>
    </radialGradient><radialGradient id="grad_5-.8573749661445618,0,0,0.8573749661445618,-23.1,-48.5" cx="35.5042" cy="17.8548" r="5.6472" gradientUnits="userSpaceOnUse">
      <stop offset="0" stop-color="#FF9400" stop-opacity="1"/>
      <stop offset="1" stop-color="#995900" stop-opacity="1"/>
    </radialGradient><radialGradient id="grad_6-.8573749661445618,0,0,0.8573749661445618,-23.1,-48.5" cx="66.2689" cy="10.1169" r="5.5755" gradientUnits="userSpaceOnUse">
      <stop offset="0" stop-color="#FF9400" stop-opacity="1"/>
      <stop offset="1" stop-color="#995900" stop-opacity="1"/>
    </radialGradient><radialGradient id="grad_7-.939393937587738,0,0,0.939393937587738,-190.55,-121.65" cx="17.7127" cy="16.9576" r="12.1312" gradientUnits="userSpaceOnUse">
      <stop offset="0" stop-color="#FFFF00" stop-opacity="1"/>
      <stop offset="1" stop-color="#999900" stop-opacity="1"/>
    </radialGradient></defs>
  <!-- Exported by Scratch - http://scratch.mit.edu/ -->
  <g id="ID0.08052826253697276">
    <path id="ID0.8694397993385792" fill="url(#grad_1-0.8573749661445618,0,0,0.8573749661445618,176.2,-48.5)" d="M 79.7256 2.6493 L 73.315 2.6493 L 73.315 4.7258 L 76.6553 4.7258 L 76.6553 7.5243 L 73.315 7.5243 L 73.315 9.8727 L 76.6553 9.8727 L 76.6553 12.6703 L 73.315 12.6703 L 73.315 16.7325 L 79.7256 16.7325 L 79.7256 2.6493 " stroke-width="0.8573749661445618"/>
    <path id="ID0.7121701026335359" fill="url(#grad_2-.8573749661445618,0,0,0.8573749661445618,-23.1,-48.5)" d="M 19.6324 22.7093 C 21.7964 22.7093 23.5506 20.9551 23.5506 18.7911 C 23.5506 16.6288 21.7964 14.8746 19.6324 14.8746 C 17.4684 14.8746 15.7142 16.6288 15.7142 18.7911 C 15.7142 20.9551 17.4684 22.7093 19.6324 22.7093 L 19.6324 22.7093 L 19.6324 22.7093 Z M 7.354 22.7093 C 9.518 22.7093 11.2722 20.9551 11.2722 18.7911 C 11.2722 16.6288 9.518 14.8746 7.354 14.8746 C 5.1899 14.8746 3.4358 16.6288 3.4358 18.7911 C 3.4358 20.9551 5.1899 22.7093 7.354 22.7093 L 7.354 22.7093 L 7.354 22.7093 Z M 26.0224 27.6795 C 26.0224 26.6618 25.7927 25.6989 25.3828 24.8399 C 23.8807 26.3025 21.8273 27.2054 19.5621 27.2054 C 17.1923 27.2054 15.054 26.2185 13.5365 24.6332 C 13.0624 25.5446 12.794 26.5803 12.794 27.6821 C 12.794 31.3353 15.7554 34.295 19.4078 34.295 C 23.0619 34.2933 26.0224 31.3328 26.0224 27.6795 L 26.0224 27.6795 L 26.0224 27.6795 Z M 25.4806 12.9746 C 25.8295 12.1696 26.0233 11.2805 26.0233 10.3468 C 26.0233 6.6935 23.0619 3.7321 19.4095 3.7321 C 15.7571 3.7321 12.7957 6.6935 12.7957 10.3468 C 12.7957 11.4391 13.0598 12.4671 13.425 13.2061 C 14.9494 11.5514 17.1349 10.5131 19.5638 10.5131 C 21.8762 10.5131 23.9699 11.4545 25.4806 12.9746 L 25.4806 12.9746 L 25.4806 12.9746 Z M 27.5837 15.8083 C 28.0999 17.4553 28.2808 20.2092 27.5837 22.0542 L 30.8075 18.9643 L 27.5837 15.8083 L 27.5837 15.8083 L 27.5837 15.8083 Z M 9.6294 10.2782 C 9.6294 4.839 14.0389 0.4295 19.4781 0.4295 C 24.9173 0.4295 29.3268 4.839 29.3268 10.2782 C 29.3268 12.2047 33.1558 17.0034 35.0515 19.2609 C 33.0649 20.8865 29.3268 25.6724 29.3268 27.6117 C 29.3268 33.0509 24.9173 37.4596 19.4781 37.4596 C 14.0389 37.4596 9.6294 33.0492 9.6294 27.6117 C 9.6294 26.9473 9.6954 26.2974 9.8215 25.6681 C 9.0507 25.9442 8.2199 26.0951 7.3548 26.0951 C 3.3192 26.0951 0.0491 22.8259 0.0491 18.7894 C 0.0491 14.7546 3.3192 11.4837 7.3548 11.4837 C 8.1976 11.4837 9.0078 11.6268 9.7623 11.8892 C 9.6749 11.3671 9.6294 10.8278 9.6294 10.2782 L 9.6294 10.2782 L 9.6294 10.2782 Z " stroke-width="0.8573749661445618"/>
    <path id="ID0.7789692673832178" fill="url(#grad_3-.8573749661445618,0,0,0.8573749661445618,-23.1,-48.5)" d="M 31.2147 15.3341 L 79.785 15.3341 L 79.785 22.7367 L 31.2147 22.7367 L 31.2147 15.3341 L 31.2147 15.3341 Z " stroke-width="0.8573749661445618"/>
    <path id="ID0.578137279022485" fill="url(#grad_4-.8573749661445618,0,0,0.8573749661445618,-23.1,-48.5)" d="M 31.7566 15.5142 C 31.7566 14.8171 32.2821 14.2504 32.9303 14.2504 L 32.9303 14.2504 C 33.5785 14.2504 34.1041 14.8163 34.1041 15.5142 L 34.1041 22.5567 C 34.1041 23.2546 33.5785 23.8213 32.9303 23.8213 L 32.9303 23.8213 C 32.2821 23.8213 31.7566 23.2554 31.7566 22.5567 L 31.7566 15.5142 L 31.7566 15.5142 L 31.7566 15.5142 L 31.7566 15.5142 Z " stroke-width="0.8573749661445618"/>
    <path id="ID0.029240664094686508" fill="url(#grad_5-.8573749661445618,0,0,0.8573749661445618,-23.1,-48.5)" d="M 34.3741 15.5142 C 34.3741 14.8171 34.8997 14.2504 35.5479 14.2504 L 35.5479 14.2504 C 36.1961 14.2504 36.7216 14.8163 36.7216 15.5142 L 36.7216 22.5567 C 36.7216 23.2546 36.1961 23.8213 35.5479 23.8213 L 35.5479 23.8213 C 34.8997 23.8213 34.3741 23.2554 34.3741 22.5567 L 34.3741 15.5142 L 34.3741 15.5142 L 34.3741 15.5142 L 34.3741 15.5142 Z " stroke-width="0.8573749661445618"/>
    <path id="ID0.5972161572426558" fill="url(#grad_6-.8573749661445618,0,0,0.8573749661445618,-23.1,-48.5)" d="M 64.9353 7.0279 L 68.6357 7.0279 L 68.6357 15.6951 L 64.9353 15.6951 L 64.9353 7.0279 " stroke-width="0.8573749661445618"/>
    <path id="ID0.19716371269896626" fill="url(#grad_7-.939393937587738,0,0,0.939393937587738,-190.55,-121.65)" stroke="none" d="M 19.6394 11.7439 C 21.7775 11.7439 23.7154 12.533 25.1179 13.8087 C 26.5214 15.0844 27.3894 16.8458 27.3894 18.7894 C 27.3894 20.733 26.5214 22.4944 25.1179 23.7701 C 23.7154 25.0458 21.7775 25.8348 19.6394 25.8348 C 17.5013 25.8348 15.5634 25.0458 14.1608 23.7701 C 12.7574 22.4944 11.8894 20.733 11.8894 18.7894 C 11.8894 16.8458 12.7574 15.0844 14.1608 13.8087 C 15.5634 12.533 17.5013 11.7439 19.6394 11.7439 Z " stroke-width="0.939393937587738"/>
  </g>
</svg>