<svg xmlns="http://www.w3.org/2000/svg" xmlns:xlink="http://www.w3.org/1999/xlink" version="1.1" width="142.10134058798417" height="336.11664515341386" viewBox="8.667830797011339 -0.6748577634745003 142.10134058798417 336.11664515341386">
  <defs>
    <radialGradient id="grad_1" cx="0.8482" cy="0.6758" r="1.10266">
      <stop offset="0" stop-color="#FFCCF2" stop-opacity="1"/>
      <stop offset="1" stop-color="#CC99FF" stop-opacity="1"/>
    </radialGradient>
    <radialGradient id="grad_2" cx="0.9214" cy="0.6836" r="1.1978199999999999">
      <stop offset="0" stop-color="#FFCCF2" stop-opacity="1"/>
      <stop offset="1" stop-color="#CC99FF" stop-opacity="1"/>
    </radialGradient>
    <radialGradient id="grad_3" cx="0.7555" cy="0.5572" r="0.9821500000000001">
      <stop offset="0" stop-color="#FFCCF2" stop-opacity="1"/>
      <stop offset="1" stop-color="#CC99FF" stop-opacity="1"/>
    </radialGradient>
    <radialGradient id="grad_4" cx="0.7998999999999999" cy="0.5614" r="1.0398699999999999">
      <stop offset="0" stop-color="#FFCCF2" stop-opacity="1"/>
      <stop offset="1" stop-color="#CC99FF" stop-opacity="1"/>
    </radialGradient>
    <radialGradient id="grad_5" cx="0.8521" cy="0.10640000000000001" r="1.16168">
      <stop offset="0" stop-color="#FFE9CC" stop-opacity="1"/>
      <stop offset="1" stop-color="#FFD499" stop-opacity="1"/>
    </radialGradient>
    <radialGradient id="grad_6" cx="0.9329999999999999" cy="0.10640000000000001" r="1.2129">
      <stop offset="0" stop-color="#FFE9CC" stop-opacity="1"/>
      <stop offset="1" stop-color="#FFD499" stop-opacity="1"/>
    </radialGradient>
    <radialGradient id="grad_7" cx="0.8783" cy="0.0827" r="1.19249">
      <stop offset="0" stop-color="#FFCCF2" stop-opacity="1"/>
      <stop offset="1" stop-color="#CC99FF" stop-opacity="1"/>
    </radialGradient>
    <radialGradient id="grad_8" cx="0.8970999999999999" cy="0.059000000000000004" r="1.2233">
      <stop offset="0" stop-color="#FFCCF2" stop-opacity="1"/>
      <stop offset="1" stop-color="#CC99FF" stop-opacity="1"/>
    </radialGradient>
    <radialGradient id="grad_9" cx="0.19010000000000002" cy="0.1085" r="1.15895">
      <stop offset="0" stop-color="#FFE9CC" stop-opacity="1"/>
      <stop offset="1" stop-color="#FFD499" stop-opacity="1"/>
    </radialGradient>
    <radialGradient id="grad_10" cx="0.1338" cy="0.1085" r="1.15895">
      <stop offset="0" stop-color="#FFE9CC" stop-opacity="1"/>
      <stop offset="1" stop-color="#FFD499" stop-opacity="1"/>
    </radialGradient>
    <radialGradient id="grad_11" cx="0.1175" cy="0.5403" r="1.1472499999999999">
      <stop offset="0" stop-color="#00CCCC" stop-opacity="1"/>
      <stop offset="1" stop-color="#99FFFF" stop-opacity="1"/>
    </radialGradient>
    <radialGradient id="grad_12" cx="0.1041" cy="0.5403" r="1.16467">
      <stop offset="0" stop-color="#00CCCC" stop-opacity="1"/>
      <stop offset="1" stop-color="#99FFFF" stop-opacity="1"/>
    </radialGradient>
  <radialGradient id="grad_1-.7967947721481323,-0.5688834190368652,0.4052964746952057,2.3242316246032715,-493.25,-97.95" cx="143.8134" cy="146.7083" r="65.9116" gradientUnits="userSpaceOnUse">
      <stop offset="0" stop-color="#FFCCF2" stop-opacity="1"/>
      <stop offset="1" stop-color="#CC99FF" stop-opacity="1"/>
    </radialGradient><radialGradient id="grad_3-1.7967947721481323,-0.5688834190368652,-0.4052964746952057,2.3242316246032715,664.65,-98.1" cx="26.0759" cy="148.8599" r="71.8268" gradientUnits="userSpaceOnUse">
      <stop offset="0" stop-color="#FFCCF2" stop-opacity="1"/>
      <stop offset="1" stop-color="#CC99FF" stop-opacity="1"/>
    </radialGradient><radialGradient id="grad_5-2.5987741947174072,0,0,1.3771361112594604,755.9,-46.2" cx="96.7323" cy="265.3576" r="80.3915" gradientUnits="userSpaceOnUse">
      <stop offset="0" stop-color="#FFE9CC" stop-opacity="1"/>
      <stop offset="1" stop-color="#FFD499" stop-opacity="1"/>
    </radialGradient><radialGradient id="grad_7-2.0531585216522217,0.054054200649261475,0.04667910188436508,1.773027777671814,561,-199.35" cx="47.0835" cy="94.0417" r="121.4566" gradientUnits="userSpaceOnUse">
      <stop offset="0" stop-color="#FFCCF2" stop-opacity="1"/>
      <stop offset="1" stop-color="#CC99FF" stop-opacity="1"/>
    </radialGradient><radialGradient id="grad_9-.5987741947174072,0,0,1.0508567094802856,-583.9,24" cx="54.279" cy="261.8418" r="76.4418" gradientUnits="userSpaceOnUse">
      <stop offset="0" stop-color="#FFE9CC" stop-opacity="1"/>
      <stop offset="1" stop-color="#FFD499" stop-opacity="1"/>
    </radialGradient><radialGradient id="grad_11-1.0030394792556763,0,0,0.9945966005325317,326.9,-13.25" cx="128.376" cy="224.5899" r="108.9021" gradientUnits="userSpaceOnUse">
      <stop offset="0" stop-color="#00CCCC" stop-opacity="1"/>
      <stop offset="1" stop-color="#99FFFF" stop-opacity="1"/>
    </radialGradient></defs>
  <!-- Exported by Scratch - http://scratch.mit.edu/ -->
  <g id="ID0.15539652993902564">
    <g id="ID0.5111573790200055">
      <path id="ID0.7297148094512522" fill="#FFDEAE" d="M 16.4666 206.0916 C 15.5121 209.3423 13.4237 212.6879 14.123 216.1783 C 15.38 222.4505 18.3472 228.4215 21.8805 233.7756 C 22.7334 235.1147 25.2756 235.2279 26.3373 234.2037 C 27.2157 233.409 26.1632 231.5437 25.7668 230.1224 C 24.7497 226.7502 22.8733 223.7141 21.9274 220.2393 C 21.3392 218.1745 20.4668 215.9051 21.0455 213.8379 C 23.2886 210.4797 25.3035 211.0219 27.0831 210.077 C 31.1813 210.3695 31.6606 205.5771 32.1426 201.8971 C 32.6 198.9768 34.5195 194.8727 32.236 192.8671 C 29.3107 190.2507 24.1716 189.8829 20.4579 191.5278 C 18.0539 192.6082 19.2639 196.7348 18.5481 199.2245 C 17.8894 201.5209 16.9874 203.6878 16.4666 206.0916 Z " stroke-width="2.64632138354387"/>
      <path id="ID0.7297148094512522" fill="#FFD499" d="M 30.7772 202.8608 C 28.1613 202.0817 25.8392 205.1993 23.6392 206.9128 C 21.9423 208.239 19.8982 209.5902 19.4006 211.8207 C 18.7823 214.6283 20.2077 217.5243 20.9491 220.321 C 21.7315 223.2548 22.4249 226.3416 24.1918 228.8504 C 25.1699 230.3619 27.9491 232.6236 28.7912 231.8023 C 29.8032 230.8091 28.4434 227.2491 27.79 225.1302 C 26.7981 221.9266 25.2435 218.8961 24.2736 215.6867 C 23.8807 214.4023 23.332 213.0197 23.8225 211.8761 C 24.3498 210.8043 25.6989 209.819 26.85 210.0888 C 28.1106 210.3842 28.6663 211.9615 29.3826 213.0465 C 30.5895 214.8748 31.1643 217.1176 32.4652 218.8657 C 33.2655 219.9447 34.1912 221.4197 35.4199 221.314 C 36.699 221.226 37.8542 219.695 37.7837 218.4612 C 37.6114 215.5003 36.1119 212.7766 34.931 210.0832 C 33.8214 207.5485 33.4827 203.5733 30.7772 202.8608 Z " stroke-width="2.64632138354387"/>
    </g>
    <path id="ID0.41013610642403364" fill="url(#grad_1-.7967947721481323,-0.5688834190368652,0.4052964746952057,2.3242316246032715,-493.25,-97.95)" stroke="url(#grad_2)" stroke-width="4.247138317476344" d="M 128.2181 115.4763 L 124.4097 102.3347 L 128.8483 91.3644 L 133.6524 94.9937 L 135.9146 100.8994 L 148.6456 147.2686 L 148.1984 152.3153 L 144.1172 158.2673 L 123.5061 181.9608 L 126.6842 153.9765 L 130.9357 152.2626 L 133.1911 147.2565 L 128.2181 115.4763 Z "/>
    <path id="ID0.41013610642403364" fill="url(#grad_3-1.7967947721481323,-0.5688834190368652,-0.4052964746952057,2.3242316246032715,664.65,-98.1)" stroke="url(#grad_4)" stroke-width="4.247138317476344" d="M 43.1819 115.3263 L 46.9903 102.1847 L 42.5517 91.2144 L 37.7476 94.8437 L 35.4854 100.7494 L 10.7914 193.9762 L 39.5401 203.0783 L 38.2973 155.8411 L 43.1819 115.3263 Z "/>
    <path id="ID0.47236768435686827" fill="url(#grad_5-2.5987741947174072,0,0,1.3771361112594604,755.9,-46.2)" stroke="url(#grad_6)" d="M 123.7482 258.6979 L 92.0431 258.6979 L 95.6814 321.2888 L 114.7824 320.5313 L 123.7482 258.6979 Z " stroke-width="2.079679204115858"/>
    <path id="ID0.8654622961767018" fill="#000000" stroke="#000000" stroke-width="3.1449280204830425" d="M 105.479 316.8595 C 101.7651 316.8595 98.3989 317.7812 95.962 319.2713 C 93.525 320.7614 92.0173 322.8183 92.0173 325.0888 C 92.0173 327.3593 93.525 329.4163 95.962 330.9064 C 98.3989 332.3965 101.7651 333.3182 105.479 333.3182 C 109.1929 333.3182 112.5591 332.3965 114.996 330.9064 C 117.433 329.4163 118.9407 327.3593 118.9407 325.0888 C 118.9407 322.8183 117.433 320.7614 114.996 319.2713 C 112.5591 317.7812 109.1929 316.8595 105.479 316.8595 Z "/>
    <path id="ID0.43916446389630437" fill="url(#grad_7-2.0531585216522217,0.054054200649261475,0.04667910188436508,1.773027777671814,561,-199.35)" stroke="url(#grad_8)" stroke-width="3.837756691242828" d="M 123.1805 85.9444 L 111.4238 84.2136 L 59.4719 85.3152 L 45.4638 87.8131 L 40.0113 91.4164 L 36.9456 95.9328 L 35.1771 102.8989 L 57.5946 181.7955 L 122.9177 185.221 L 134.8626 100.4519 L 133.129 93.1344 L 129.0157 89.0732 L 123.1805 85.9444 Z "/>
    <path id="ID0.47236768435686827" fill="url(#grad_9-.5987741947174072,0,0,1.0508567094802856,-583.9,24)" stroke="url(#grad_10)" d="M 48.2518 256.6597 L 79.9569 256.6597 L 76.3186 304.4211 L 57.2176 303.8431 L 48.2518 256.6597 Z " stroke-width="1.9821613379072909"/>
    <path id="ID0.8654622961767018" fill="#000000" stroke="#000000" stroke-width="2.7814584458268437" d="M 66.471 301.0715 C 70.1849 301.0715 73.5511 301.7748 75.988 302.9119 C 78.425 304.0489 79.9327 305.6185 79.9327 307.3511 C 79.9327 309.0836 78.425 310.6532 75.988 311.7903 C 73.5511 312.9274 70.1849 313.6307 66.471 313.6307 C 62.7571 313.6307 59.3909 312.9274 56.954 311.7903 C 54.517 310.6532 53.0093 309.0836 53.0093 307.3511 C 53.0093 305.6185 54.517 304.0489 56.954 302.9119 C 59.3909 301.7748 62.7571 301.0715 66.471 301.0715 Z "/>
    <path id="ID0.10144270723685622" fill="url(#grad_11-1.0030394792556763,0,0,0.9945966005325317,326.9,-13.25)" stroke="url(#grad_12)" stroke-width="3.9953078426938435" stroke-linecap="round" d="M 122.8818 184.4758 L 57.3833 181.492 L 32.9091 256.7332 L 141.0869 261.2587 L 122.8818 184.4758 Z "/>
    <g id="ID0.9729278031736612">
      <g id="ID0.809288214892149">
        <path id="ID0.8839382561855018" fill="#FFFF00" stroke="#FFFF00" stroke-width="2.025195199111021" stroke-linecap="round" d="M 120.55 52.6443 C 108.924 53.6068 97.619 58.2615 85.95 58.282 C 74.576 58.3045 63.43 53.5207 51.95 52.7468 C 49.156 52.5541 50.465 54.6646 50.35 55.8731 C 50.22 57.383 51.448 58.7279 51.55 60.2296 C 51.533 61.5519 50.565 62.7583 50.6 64.0735 C 50.639 65.5639 51.583 66.9497 51.55 68.4299 C 51.41 69.8752 50.149 71.097 50.1 72.53 C 50.053 73.9333 51.08 75.2331 51.05 76.6302 C 50.907 78.0745 49.595 79.3015 49.6 80.7304 C 49.607 82.3243 50.861 83.7696 50.85 85.3431 C 50.774 86.815 49.402 88.0256 49.35 89.4432 C 49.302 90.7993 50.239 92.0376 50.35 93.3896 C 50.324 94.8278 49.371 96.2382 49.6 97.6435 C 49.816 98.9607 50.366 100.4019 51.35 101.2312 C 52.425 102.041 54.422 101.1 55.2 102.1025 C 56.314 103.5457 55.048 106.4292 56.45 107.4839 C 57.703 108.4198 59.667 106.1596 61.05 106.7151 C 62.621 107.3486 62.852 110.0629 64.35 110.6616 C 65.868 111.2643 67.698 109.6416 69.2 110.0465 C 70.671 110.4463 71.385 112.5261 72.85 112.8654 C 74.358 113.2129 75.999 111.991 77.45 112.1991 C 78.926 112.4123 80.126 114.035 81.55 114.0442 C 83.193 114.0483 84.62 112.3703 86.2 112.3529 C 87.764 112.3416 89.191 113.833 90.7 113.7367 C 92.743 113.5901 94.57 112.1243 96.55 111.8403 C 98.216 111.6036 99.966 112.2883 101.6 111.9941 C 103.009 111.7368 104.388 111.2058 105.6 110.4565 C 106.744 109.7503 107.227 108.0774 108.45 107.4839 C 109.972 106.752 112.09 107.7802 113.55 106.8689 C 114.935 105.9986 114.853 103.638 116.05 102.4612 C 117.121 101.4536 119.11 101.6391 120.2 100.5649 C 121.338 99.4425 122.36 97.9234 122.55 96.311 C 122.711 94.8626 120.8 93.6223 120.85 92.1083 C 121.007 90.7553 122.891 90.0326 123.1 88.6744 C 123.345 87.0713 121.857 85.547 121.85 83.908 C 121.944 82.5836 123.303 81.5473 123.35 80.2179 C 123.4 78.8002 121.979 77.5784 121.95 76.1177 C 121.979 74.6908 123.328 73.4628 123.35 72.0175 C 123.374 70.4318 121.947 69.0818 121.85 67.5074 C 121.86 65.9616 123.251 64.585 123.1 63.0484 C 122.975 61.7846 121.007 60.9194 121.05 59.5633 C 121.103 57.9099 123.471 56.8203 123.35 55.2069 C 123.259 53.8938 123.457 52.4034 120.55 52.6443 Z "/>
        <path id="ID0.4806634387932718" fill="none" stroke="#CCCC00" stroke-width="2.229000442569227" stroke-linecap="round" d="M 80.5001 60.3177 C 80.5001 60.3177 81.8265 65.6427 82.2152 68.457 C 82.3692 69.5731 82.1916 70.7678 82.1009 71.9059 C 82.001 73.164 81.8234 74.4029 81.6435 75.6306 C 81.4804 76.7467 81.1983 77.8089 81.0718 78.9416 C 80.8423 80.9888 80.4864 83.0678 80.5763 85.1495 C 80.6205 86.1662 81.2265 86.8367 81.4529 87.7706 C 81.687 88.7349 81.9004 89.7558 81.9484 90.8056 C 82.0917 93.9193 82.1794 97.0743 82.0246 100.1865 C 81.9728 101.2322 81.4766 102.0641 81.3386 103.0836 C 81.1938 104.1582 81.1656 105.2881 81.1861 106.3945 C 81.2037 107.3271 81.286 108.2707 81.4529 109.1536 C 81.5947 109.9027 82.1009 111.2229 82.1009 111.2229 "/>
        <path id="ID0.7519200313836336" fill="none" stroke="#FF9400" stroke-width="2.229000442569227" stroke-linecap="round" d="M 83.6254 60.1797 C 83.6254 60.1797 85.0685 64.935 85.2644 67.5603 C 85.3772 69.0654 84.7369 70.4477 84.5021 71.9059 C 84.2924 73.2054 83.768 74.516 83.9304 75.8376 C 84.063 76.9164 85.0829 77.0585 85.2644 78.1138 C 85.4808 79.3734 85.105 80.7405 84.9976 82.0455 C 84.8893 83.3602 84.6812 84.6529 84.6164 85.9772 C 84.5539 87.2588 84.6469 88.5542 84.6164 89.84 C 84.5196 93.9082 84.1789 97.9779 84.2353 102.0489 C 84.2681 104.4466 84.5669 106.8249 84.8832 109.1536 C 84.977 109.842 85.4549 111.016 85.4549 111.016 "/>
        <path id="ID0.4806634387932718" fill="none" stroke="#FF9400" stroke-width="1.892105289214821" stroke-linecap="round" d="M 122.0999 54.5251 C 122.0999 54.5251 120.7735 58.7692 120.3848 61.0122 C 120.2308 61.9018 120.4084 62.8539 120.4991 63.7611 C 120.599 64.7638 120.7766 65.7512 120.9565 66.7298 C 121.1196 67.6193 121.4017 68.4659 121.5282 69.3686 C 121.7577 71.0003 122.1136 72.6573 122.0237 74.3165 C 121.9795 75.1268 121.3735 75.6612 121.1471 76.4056 C 120.913 77.1741 120.6996 77.9878 120.6516 78.8245 C 120.5083 81.3062 120.4206 83.8208 120.5754 86.3013 C 120.6272 87.1347 121.1234 87.7978 121.2614 88.6103 C 121.4062 89.4668 121.4344 90.3673 121.4139 91.2492 C 121.3963 91.9924 121.314 92.7445 121.1471 93.4482 C 121.0053 94.0452 120.4991 95.0975 120.4991 95.0975 "/>
        <path id="ID0.7519200313836336" fill="none" stroke="#CCCC00" stroke-width="1.892105289214821" stroke-linecap="round" d="M 118.9746 54.4151 C 118.9746 54.4151 117.5315 58.2052 117.3356 60.2976 C 117.2228 61.4971 117.8631 62.5989 118.0979 63.7611 C 118.3076 64.7968 118.832 65.8414 118.6696 66.8947 C 118.537 67.7545 117.5171 67.8678 117.3356 68.7089 C 117.1192 69.7128 117.495 70.8024 117.6024 71.8426 C 117.7107 72.8904 117.9188 73.9207 117.9836 74.9762 C 118.0461 75.9977 117.9531 77.0301 117.9836 78.0549 C 118.0804 81.2974 118.4211 84.541 118.3647 87.7857 C 118.3319 89.6966 118.0331 91.5922 117.7168 93.4482 C 117.623 93.9969 117.1451 94.9326 117.1451 94.9326 "/>
        <path id="ID0.4806634387932718" fill="none" stroke="#995900" stroke-width="2.1220661445855895" stroke-linecap="round" d="M 115.5999 56.9339 C 115.5999 56.9339 114.2735 61.9228 113.8848 64.5595 C 113.7308 65.6051 113.9084 66.7244 113.9991 67.7907 C 114.099 68.9694 114.2766 70.1301 114.4565 71.2804 C 114.6196 72.326 114.9017 73.3212 115.0282 74.3823 C 115.2577 76.3004 115.6136 78.2482 115.5237 80.1985 C 115.4795 81.1511 114.8735 81.7792 114.6471 82.6542 C 114.413 83.5577 114.1996 84.5141 114.1516 85.4977 C 114.0083 88.4148 113.9206 91.3707 114.0754 94.2865 C 114.1272 95.2662 114.6234 96.0456 114.7614 97.0007 C 114.9062 98.0076 114.9344 99.0661 114.9139 100.1027 C 114.8963 100.9764 114.814 101.8605 114.6471 102.6877 C 114.5053 103.3895 113.9991 104.6264 113.9991 104.6264 "/>
        <path id="ID0.7519200313836336" fill="none" stroke="#FF9400" stroke-width="2.1220661445855895" stroke-linecap="round" d="M 112.4746 56.8046 C 112.4746 56.8046 111.0315 61.2598 110.8356 63.7194 C 110.7228 65.1295 111.3631 66.4245 111.5979 67.7907 C 111.8076 69.0082 112.332 70.2361 112.1696 71.4743 C 112.037 72.485 111.0171 72.6181 110.8356 73.6069 C 110.6192 74.7869 110.995 76.0677 111.1024 77.2904 C 111.2107 78.5222 111.4188 79.7332 111.4836 80.974 C 111.5461 82.1747 111.4531 83.3883 111.4836 84.5929 C 111.5804 88.4045 111.9211 92.2173 111.8647 96.0314 C 111.8319 98.2777 111.5331 100.5059 111.2168 102.6877 C 111.123 103.3326 110.6451 104.4325 110.6451 104.4325 "/>
        <path id="ID0.4806634387932718" fill="none" stroke="#CCCC00" stroke-width="2.1220661445855895" stroke-linecap="round" d="M 108.3999 57.7839 C 108.3999 57.7839 107.0735 62.7728 106.6848 65.4095 C 106.5308 66.4551 106.7084 67.5744 106.7991 68.6407 C 106.899 69.8194 107.0766 70.9801 107.2565 72.1304 C 107.4196 73.176 107.7017 74.1712 107.8282 75.2323 C 108.0577 77.1504 108.4136 79.0982 108.3237 81.0485 C 108.2795 82.0011 107.6735 82.6292 107.4471 83.5042 C 107.213 84.4077 106.9996 85.3641 106.9516 86.3477 C 106.8083 89.2648 106.7206 92.2207 106.8754 95.1365 C 106.9272 96.1162 107.4234 96.8956 107.5614 97.8507 C 107.7062 98.8576 107.7344 99.9161 107.7139 100.9527 C 107.6963 101.8264 107.614 102.7105 107.4471 103.5377 C 107.3053 104.2395 106.7991 105.4764 106.7991 105.4764 "/>
        <path id="ID0.7519200313836336" fill="none" stroke="#995900" stroke-width="2.1220661445855895" stroke-linecap="round" d="M 105.2746 57.6546 C 105.2746 57.6546 103.8315 62.1098 103.6356 64.5694 C 103.5228 65.9795 104.1631 67.2745 104.3979 68.6407 C 104.6076 69.8582 105.132 71.0861 104.9696 72.3243 C 104.837 73.335 103.8171 73.4681 103.6356 74.4569 C 103.4192 75.6369 103.795 76.9177 103.9024 78.1404 C 104.0107 79.3722 104.2188 80.5832 104.2836 81.824 C 104.3461 83.0247 104.2531 84.2383 104.2836 85.4429 C 104.3804 89.2545 104.7211 93.0673 104.6647 96.8814 C 104.6319 99.1277 104.3331 101.3559 104.0168 103.5377 C 103.923 104.1826 103.4451 105.2825 103.4451 105.2825 "/>
        <path id="ID0.4806634387932718" fill="none" stroke="#FF9400" stroke-width="2.229000295010233" stroke-linecap="round" d="M 100.8499 59.2677 C 100.8499 59.2677 99.5235 64.5927 99.1348 67.407 C 98.9808 68.5231 99.1584 69.7177 99.2491 70.8559 C 99.349 72.114 99.5266 73.3528 99.7065 74.5806 C 99.8696 75.6967 100.1517 76.7589 100.2782 77.8915 C 100.5077 79.9388 100.8636 82.0178 100.7737 84.0995 C 100.7295 85.1162 100.1235 85.7867 99.8971 86.7206 C 99.663 87.6849 99.4496 88.7058 99.4016 89.7556 C 99.2583 92.8693 99.1706 96.0243 99.3254 99.1365 C 99.3772 100.1822 99.8734 101.0141 100.0114 102.0336 C 100.1562 103.1082 100.1844 104.2381 100.1639 105.3445 C 100.1463 106.2771 100.064 107.2207 99.8971 108.1036 C 99.7553 108.8527 99.2491 110.1729 99.2491 110.1729 "/>
        <path id="ID0.7519200313836336" fill="none" stroke="#CCCC00" stroke-width="2.229000295010233" stroke-linecap="round" d="M 97.7246 59.1297 C 97.7246 59.1297 96.2815 63.885 96.0856 66.5103 C 95.9728 68.0154 96.6131 69.3977 96.8479 70.8559 C 97.0576 72.1554 97.582 73.466 97.4196 74.7876 C 97.287 75.8664 96.2671 76.0085 96.0856 77.0638 C 95.8692 78.3233 96.245 79.6905 96.3524 80.9955 C 96.4607 82.3102 96.6688 83.6029 96.7336 84.9272 C 96.7961 86.2088 96.7031 87.5042 96.7336 88.7899 C 96.8304 92.8582 97.1711 96.9279 97.1147 100.9989 C 97.0819 103.3966 96.7831 105.7749 96.4668 108.1036 C 96.373 108.792 95.8951 109.966 95.8951 109.966 "/>
        <path id="ID0.4806634387932718" fill="none" stroke="#995900" stroke-width="2.229000295010233" stroke-linecap="round" d="M 93.8999 59.8177 C 93.8999 59.8177 92.5735 65.1427 92.1848 67.957 C 92.0308 69.0731 92.2084 70.2677 92.2991 71.4059 C 92.399 72.664 92.5766 73.9028 92.7565 75.1306 C 92.9196 76.2467 93.2017 77.3089 93.3282 78.4415 C 93.5577 80.4888 93.9136 82.5678 93.8237 84.6495 C 93.7795 85.6662 93.1735 86.3367 92.9471 87.2706 C 92.713 88.2349 92.4996 89.2558 92.4516 90.3056 C 92.3083 93.4193 92.2206 96.5743 92.3754 99.6865 C 92.4272 100.7322 92.9234 101.5641 93.0614 102.5836 C 93.2062 103.6582 93.2344 104.7881 93.2139 105.8945 C 93.1963 106.8271 93.114 107.7707 92.9471 108.6536 C 92.8053 109.4027 92.2991 110.7229 92.2991 110.7229 "/>
        <path id="ID0.7519200313836336" fill="none" stroke="#CCCC00" stroke-width="2.229000295010233" stroke-linecap="round" d="M 90.7746 59.6797 C 90.7746 59.6797 89.3315 64.435 89.1356 67.0603 C 89.0228 68.5654 89.6631 69.9477 89.8979 71.4059 C 90.1076 72.7054 90.632 74.016 90.4696 75.3376 C 90.337 76.4164 89.3171 76.5585 89.1356 77.6138 C 88.9192 78.8733 89.295 80.2405 89.4024 81.5455 C 89.5107 82.8602 89.7188 84.1529 89.7836 85.4772 C 89.8461 86.7588 89.7531 88.0542 89.7836 89.3399 C 89.8804 93.4082 90.2211 97.4779 90.1647 101.5489 C 90.1319 103.9466 89.8331 106.3249 89.5168 108.6536 C 89.423 109.342 88.9451 110.516 88.9451 110.516 "/>
        <path id="ID0.4806634387932718" fill="none" stroke="#995900" stroke-width="1.9046536918282957" stroke-linecap="round" d="M 50.9001 54.6135 C 50.9001 54.6135 52.2265 58.8993 52.6152 61.1643 C 52.7692 62.0626 52.5916 63.0241 52.5009 63.9401 C 52.401 64.9527 52.2234 65.9497 52.0435 66.9379 C 51.8804 67.8362 51.5983 68.6911 51.4718 69.6026 C 51.2423 71.2503 50.8864 72.9236 50.9763 74.599 C 51.0205 75.4173 51.6265 75.9569 51.8529 76.7086 C 52.087 77.4847 52.3004 78.3063 52.3484 79.1513 C 52.4917 81.6572 52.5794 84.1965 52.4246 86.7013 C 52.3728 87.5429 51.8766 88.2124 51.7386 89.033 C 51.5938 89.8979 51.5656 90.8072 51.5861 91.6977 C 51.6037 92.4483 51.686 93.2077 51.8529 93.9183 C 51.9947 94.5212 52.5009 95.5838 52.5009 95.5838 "/>
        <path id="ID0.7519200313836336" fill="none" stroke="#CCCC00" stroke-width="1.9046536918282957" stroke-linecap="round" d="M 54.0254 54.5025 C 54.0254 54.5025 55.4685 58.3297 55.6644 60.4426 C 55.7772 61.654 55.1369 62.7665 54.9021 63.9401 C 54.6924 64.986 54.168 66.0408 54.3304 67.1045 C 54.463 67.9727 55.4829 68.0871 55.6644 68.9365 C 55.8808 69.9502 55.505 71.0505 55.3976 72.1008 C 55.2893 73.1589 55.0812 74.1993 55.0164 75.2652 C 54.9539 76.2967 55.0469 77.3392 55.0164 78.374 C 54.9196 81.6483 54.5789 84.9237 54.6353 88.2002 C 54.6681 90.1299 54.9669 92.0441 55.2832 93.9183 C 55.377 94.4723 55.8549 95.4172 55.8549 95.4172 "/>
        <path id="ID0.4806634387932718" fill="none" stroke="#FF9400" stroke-width="2.122066289798414" stroke-linecap="round" d="M 57.5501 57.0339 C 57.5501 57.0339 58.8765 62.0228 59.2652 64.6595 C 59.4192 65.7051 59.2416 66.8244 59.1509 67.8907 C 59.051 69.0694 58.8734 70.2301 58.6935 71.3804 C 58.5304 72.426 58.2483 73.4212 58.1218 74.4824 C 57.8923 76.4004 57.5364 78.3482 57.6263 80.2985 C 57.6705 81.2511 58.2765 81.8792 58.5029 82.7542 C 58.737 83.6577 58.9504 84.6141 58.9984 85.5977 C 59.1417 88.5148 59.2294 91.4707 59.0746 94.3865 C 59.0228 95.3662 58.5266 96.1456 58.3886 97.1008 C 58.2438 98.1076 58.2156 99.1661 58.2361 100.2027 C 58.2537 101.0764 58.336 101.9605 58.5029 102.7877 C 58.6447 103.4895 59.1509 104.7264 59.1509 104.7264 "/>
        <path id="ID0.7519200313836336" fill="none" stroke="#995900" stroke-width="2.122066289798414" stroke-linecap="round" d="M 60.6754 56.9046 C 60.6754 56.9046 62.1185 61.3598 62.3144 63.8194 C 62.4272 65.2295 61.7869 66.5246 61.5521 67.8907 C 61.3424 69.1082 60.818 70.3361 60.9804 71.5743 C 61.113 72.585 62.1329 72.7181 62.3144 73.7069 C 62.5308 74.8869 62.155 76.1677 62.0476 77.3904 C 61.9393 78.6222 61.7312 79.8332 61.6664 81.074 C 61.6039 82.2747 61.6969 83.4884 61.6664 84.6929 C 61.5696 88.5045 61.2289 92.3173 61.2853 96.1314 C 61.3181 98.3777 61.6169 100.606 61.9332 102.7877 C 62.027 103.4326 62.5049 104.5325 62.5049 104.5325 "/>
        <path id="ID0.4806634387932718" fill="none" stroke="#FF9400" stroke-width="2.122066289798414" stroke-linecap="round" d="M 64.6501 57.8339 C 64.6501 57.8339 65.9765 62.8228 66.3652 65.4595 C 66.5192 66.5051 66.3416 67.6244 66.2509 68.6907 C 66.151 69.8694 65.9734 71.0301 65.7935 72.1804 C 65.6304 73.226 65.3483 74.2212 65.2218 75.2824 C 64.9923 77.2004 64.6364 79.1482 64.7263 81.0985 C 64.7705 82.0511 65.3765 82.6792 65.6029 83.5542 C 65.837 84.4577 66.0504 85.4141 66.0984 86.3977 C 66.2417 89.3148 66.3294 92.2707 66.1746 95.1865 C 66.1228 96.1662 65.6266 96.9456 65.4886 97.9008 C 65.3438 98.9076 65.3156 99.9661 65.3361 101.0027 C 65.3537 101.8764 65.436 102.7605 65.6029 103.5877 C 65.7447 104.2895 66.2509 105.5264 66.2509 105.5264 "/>
        <path id="ID0.7519200313836336" fill="none" stroke="#CCCC00" stroke-width="2.229000442569227" stroke-linecap="round" d="M 67.7754 57.7797 C 67.7754 57.7797 69.2185 62.535 69.4144 65.1603 C 69.5272 66.6654 68.8869 68.0477 68.6521 69.5059 C 68.4424 70.8054 67.918 72.116 68.0804 73.4376 C 68.213 74.5164 69.2329 74.6585 69.4144 75.7138 C 69.6308 76.9734 69.255 78.3405 69.1476 79.6455 C 69.0393 80.9602 68.8312 82.2529 68.7664 83.5772 C 68.7039 84.8588 68.7969 86.1542 68.7664 87.44 C 68.6696 91.5082 68.3289 95.5779 68.3853 99.6489 C 68.4181 102.0466 68.7169 104.4249 69.0332 106.7536 C 69.127 107.442 69.6049 108.616 69.6049 108.616 "/>
        <path id="ID0.4806634387932718" fill="none" stroke="#995900" stroke-width="2.229000442569227" stroke-linecap="round" d="M 72.4001 59.3177 C 72.4001 59.3177 73.7265 64.6427 74.1152 67.457 C 74.2692 68.5731 74.0916 69.7678 74.0009 70.9059 C 73.901 72.164 73.7234 73.4029 73.5435 74.6306 C 73.3804 75.7467 73.0983 76.8089 72.9718 77.9416 C 72.7423 79.9888 72.3864 82.0678 72.4763 84.1495 C 72.5205 85.1662 73.1265 85.8367 73.3529 86.7706 C 73.587 87.7349 73.8004 88.7558 73.8484 89.8056 C 73.9917 92.9193 74.0794 96.0743 73.9246 99.1865 C 73.8728 100.2322 73.3766 101.0641 73.2386 102.0836 C 73.0938 103.1582 73.0656 104.2881 73.0861 105.3945 C 73.1037 106.3271 73.186 107.2707 73.3529 108.1536 C 73.4947 108.9027 74.0009 110.2229 74.0009 110.2229 "/>
        <path id="ID0.7519200313836336" fill="none" stroke="#FF9400" stroke-width="2.229000442569227" stroke-linecap="round" d="M 75.5254 59.1797 C 75.5254 59.1797 76.9685 63.935 77.1644 66.5603 C 77.2772 68.0654 76.6369 69.4477 76.4021 70.9059 C 76.1924 72.2054 75.668 73.516 75.8304 74.8376 C 75.963 75.9164 76.9829 76.0585 77.1644 77.1138 C 77.3808 78.3734 77.005 79.7405 76.8976 81.0455 C 76.7893 82.3602 76.5812 83.6529 76.5164 84.9772 C 76.4539 86.2588 76.5469 87.5542 76.5164 88.84 C 76.4196 92.9082 76.0789 96.9779 76.1353 101.0489 C 76.1681 103.4466 76.4669 105.8249 76.7832 108.1536 C 76.877 108.842 77.3549 110.016 77.3549 110.016 "/>
      </g>
      <g id="ID0.762429166585207">
        <path id="ID0.6504686716943979" fill="#FFFF00" stroke="#FFFF00" stroke-width="2" stroke-linecap="round" d="M 125.65 24.55 C 127.119 25.892 126.823 27.157 126.65 28.5 C 126.476 29.9 124.635 30.521 124.5 31.7 C 124.389 33.071 125.928 33.958 126 35.2 C 126.074 36.556 124.362 37.787 124.5 39.2 C 124.84 40.555 126.377 41.336 127.25 42.45 C 128.007 43.419 129.218 44.336 129.5 45.7 C 129.761 46.871 128.677 48.091 128.75 49.45 C 128.83 50.974 129.838 52.375 129.85 53.9 C 129.856 55.412 128.339 56.946 128.5 58.7 C 128.704 59.976 130.739 60.801 130.85 62.2 C 130.96 63.63 129.173 64.612 129.25 65.95 C 129.173 67.533 130.976 68.769 130.85 70.3 C 130.72 71.815 128.413 72.761 128.25 74.45 C 128.15 75.956 129.941 77.232 130.15 78.8 C 130.325 80.124 129.225 81.361 129 82.7 C 129.004 84.155 129.665 85.608 129.5 87.05 C 129.365 88.195 129.325 89.899 128.25 90.45 C 127.144 91.002 125.529 90.041 124.5 89.2 C 123.147 88.116 123.094 85.447 121.5 84.45 C 120.238 83.738 118.226 85.312 117 84.45 C 115.653 83.503 116.287 81.104 115.25 79.95 C 114.274 79 112.508 79.43 111.5 78.7 C 110.171 77.736 109.792 75.714 108.25 74.95 C 107.367 74.409 106.168 75.467 105 75.2 C 103.695 74.889 102.695 72.661 101.5 73.2 C 100.033 73.865 99.487 76.049 99 77.7 C 98.768 78.82 100.177 80.372 99.75 81.7 C 97.338 82.897 96.502 83.347 95.35 83.3 C 93.672 83.099 92.377 82.567 91.65 81.4 C 90.945 80.209 91.944 78.752 91.75 77.45 C 91.523 75.839 90.531 74.481 90.25 72.95 C 90.054 71.629 91.791 69.449 90.75 68.95 C 89.238 68.223 87.181 70.712 85.25 70.95 C 83.615 71.137 81.595 68.712 80.25 69.7 C 78.849 70.793 80.063 73.063 79.75 74.7 C 79.497 76.057 78.811 77.01 78.5 78.2 C 78.052 79.933 79.056 82.264 77.75 83.45 C 76.539 84.54 74.137 83.995 72.5 83.2 C 71.64 82.723 71.416 81.265 71.35 80.2 C 71.248 78.365 73.038 76.25 72.25 74.45 C 71.565 73.22 69.461 73.288 68 73.3 C 66.371 73.312 64.32 73.187 63 74.2 C 61.886 75.29 62.828 77.597 61.75 78.7 C 60.698 79.774 58.475 78.636 57.25 79.45 C 55.93 80.609 56.128 82.912 54.85 84.05 C 53.864 84.936 51.898 83.529 51 84.45 C 49.654 85.844 50.634 89.03 49 90.45 C 47.463 91.606 44.553 92.08 43 90.95 C 41.776 90.053 43.745 87.763 43.5 86.2 C 43.253 84.475 41.347 83.032 41.25 81.2 C 41.195 79.385 42.613 77.775 42.5 75.95 C 42.692 74.362 41.588 72.958 41.5 71.3 C 41.427 69.729 42.778 68.272 42.75 66.7 C 42.477 65.174 40.678 64.091 40.65 62.55 C 40.624 60.999 42.94 60.014 43 58.45 C 42.321 56.814 41.439 56.228 41.25 54.95 C 40.934 53.049 41.949 51.126 42 49.2 C 41.815 47.613 40.248 46.026 40.85 44.55 C 41.766 42.526 44.375 42.248 45.25 40.45 C 45.943 39.044 44.649 37.45 44.75 35.95 C 44.898 34.602 46.078 33.228 46.25 31.7 C 46.213 30.556 45.088 29.591 45.15 28.3 C 45.214 26.88 44.813 25.827 46.35 24.2 C 47.824 22.842 49.758 23.734 52.5 24.2 C 63.47 26.066 74.156 30.146 85.25 30.2 C 96.826 30.517 108.185 27.078 119.65 25.3 C 122.516 24.855 124.091 23.399 125.65 24.55 Z "/>
        <path id="ID0.4806634387932718" fill="none" stroke="#CCCC00" stroke-width="1.904175058052451" stroke-linecap="round" d="M 128.2499 46.3007 C 128.2499 46.3007 126.9235 50.5848 126.5348 52.849 C 126.3808 53.7469 126.5584 54.7081 126.6491 55.6238 C 126.749 56.636 126.9266 57.6327 127.1065 58.6205 C 127.2696 59.5184 127.5517 60.373 127.6782 61.2842 C 127.9077 62.9313 128.2636 64.6039 128.1737 66.2787 C 128.1295 67.0967 127.5235 67.6361 127.2971 68.3875 C 127.063 69.1633 126.8496 69.9847 126.8016 70.8293 C 126.6583 73.3343 126.5706 75.8726 126.7254 78.3766 C 126.7772 79.2179 127.2734 79.8871 127.4114 80.7073 C 127.5562 81.572 127.5844 82.481 127.5639 83.3711 C 127.5463 84.1214 127.464 84.8805 127.2971 85.5909 C 127.1553 86.1935 126.6491 87.2557 126.6491 87.2557 "/>
        <path id="ID0.7519200313836336" fill="none" stroke="#995900" stroke-width="1.904175058052451" stroke-linecap="round" d="M 125.1246 46.1897 C 125.1246 46.1897 123.6815 50.0155 123.4856 52.1276 C 123.3728 53.3385 124.0131 54.4506 124.2479 55.6238 C 124.4576 56.6693 124.982 57.7237 124.8196 58.787 C 124.687 59.6549 123.6671 59.7692 123.4856 60.6183 C 123.2692 61.6316 123.645 62.7315 123.7524 63.7815 C 123.8607 64.8392 124.0688 65.8792 124.1336 66.9447 C 124.1961 67.9758 124.1031 69.0179 124.1336 70.0524 C 124.2304 73.3254 124.5711 76.5996 124.5147 79.8749 C 124.4819 81.8039 124.1831 83.7174 123.8668 85.5909 C 123.773 86.1447 123.2951 87.0892 123.2951 87.0892 "/>
        <path id="ID0.4806634387932718" fill="none" stroke="#995900" stroke-width="1.6922017242245628" stroke-linecap="round" d="M 124.2499 26.1612 C 124.2499 26.1612 122.9235 29.7214 122.5348 31.603 C 122.3808 32.3491 122.5584 33.1479 122.6491 33.9088 C 122.749 34.75 122.9266 35.5782 123.1065 36.3991 C 123.2696 37.1453 123.5517 37.8554 123.6782 38.6127 C 123.9077 39.9814 124.2636 41.3714 124.1737 42.7632 C 124.1295 43.4429 123.5235 43.8912 123.2971 44.5156 C 123.063 45.1603 122.8496 45.8428 122.8016 46.5447 C 122.6583 48.6264 122.5706 50.7358 122.7254 52.8166 C 122.7772 53.5157 123.2734 54.0719 123.4114 54.7535 C 123.5562 55.472 123.5844 56.2274 123.5639 56.9671 C 123.5463 57.5906 123.464 58.2214 123.2971 58.8117 C 123.1553 59.3126 122.6491 60.1952 122.6491 60.1952 "/>
        <path id="ID0.7519200313836336" fill="none" stroke="#CCCC00" stroke-width="1.6922017242245628" stroke-linecap="round" d="M 121.1246 26.069 C 121.1246 26.069 119.6815 29.2482 119.4856 31.0034 C 119.3728 32.0097 120.0131 32.9339 120.2479 33.9088 C 120.4576 34.7776 120.982 35.6538 120.8196 36.5374 C 120.687 37.2587 119.6671 37.3537 119.4856 38.0593 C 119.2692 38.9014 119.645 39.8154 119.7524 40.6879 C 119.8607 41.5669 120.0688 42.4311 120.1336 43.3166 C 120.1961 44.1734 120.1031 45.0395 120.1336 45.8991 C 120.2304 48.6191 120.5711 51.3399 120.5147 54.0617 C 120.4819 55.6647 120.1831 57.2548 119.8668 58.8117 C 119.773 59.272 119.2951 60.0569 119.2951 60.0569 "/>
        <path id="ID0.4806634387932718" fill="none" stroke="#FF9400" stroke-width="2.0372818938305786" stroke-linecap="round" d="M 119.0999 35.3323 C 119.0999 35.3323 117.7735 40.0507 117.3848 42.5443 C 117.2308 43.5332 117.4084 44.5917 117.4991 45.6002 C 117.599 46.715 117.7766 47.8127 117.9565 48.9006 C 118.1196 49.8895 118.4017 50.8307 118.5282 51.8343 C 118.7577 53.6483 119.1136 55.4904 119.0237 57.3349 C 118.9795 58.2358 118.3735 58.8299 118.1471 59.6574 C 117.913 60.5119 117.6996 61.4164 117.6516 62.3466 C 117.5083 65.1055 117.4206 67.9011 117.5754 70.6587 C 117.6272 71.5853 118.1234 72.3224 118.2614 73.2257 C 118.4062 74.1779 118.4344 75.179 118.4139 76.1594 C 118.3963 76.9857 118.314 77.8218 118.1471 78.6041 C 118.0053 79.2678 117.4991 80.4377 117.4991 80.4377 "/>
        <path id="ID0.7519200313836336" fill="none" stroke="#995900" stroke-width="2.0372818938305786" stroke-linecap="round" d="M 115.9746 35.2101 C 115.9746 35.2101 114.5315 39.4236 114.3356 41.7497 C 114.2228 43.0833 114.8631 44.3082 115.0979 45.6002 C 115.3076 46.7517 115.832 47.9129 115.6696 49.0839 C 115.537 50.0398 114.5171 50.1657 114.3356 51.1008 C 114.1192 52.2169 114.495 53.4282 114.6024 54.5846 C 114.7107 55.7495 114.9188 56.8949 114.9836 58.0683 C 115.0461 59.2039 114.9531 60.3517 114.9836 61.491 C 115.0804 65.0957 115.4211 68.7017 115.3647 72.3089 C 115.3319 74.4334 115.0331 76.5407 114.7168 78.6041 C 114.623 79.2141 114.1451 80.2543 114.1451 80.2543 "/>
        <path id="ID0.4806634387932718" fill="none" stroke="#CCCC00" stroke-width="1.8670607754207065" stroke-linecap="round" d="M 112.1499 35.1962 C 112.1499 35.1962 110.8235 39.3569 110.4348 41.5559 C 110.2808 42.4279 110.4584 43.3614 110.5491 44.2506 C 110.649 45.2337 110.8266 46.2016 111.0065 47.161 C 111.1696 48.033 111.4517 48.863 111.5782 49.7479 C 111.8077 51.3476 112.1636 52.972 112.0737 54.5985 C 112.0295 55.3929 111.4235 55.9168 111.1971 56.6465 C 110.963 57.4 110.7496 58.1976 110.7016 59.0179 C 110.5583 61.4508 110.4706 63.9159 110.6254 66.3477 C 110.6772 67.1647 111.1734 67.8147 111.3114 68.6113 C 111.4562 69.451 111.4844 70.3338 111.4639 71.1983 C 111.4463 71.9269 111.364 72.6642 111.1971 73.3541 C 111.0553 73.9394 110.5491 74.9709 110.5491 74.9709 "/>
        <path id="ID0.7519200313836336" fill="none" stroke="#FF9400" stroke-width="1.8670607754207065" stroke-linecap="round" d="M 109.0246 35.0884 C 109.0246 35.0884 107.5815 38.804 107.3856 40.8552 C 107.2728 42.0312 107.9131 43.1113 108.1479 44.2506 C 108.3576 45.266 108.882 46.29 108.7196 47.3227 C 108.587 48.1656 107.5671 48.2766 107.3856 49.1012 C 107.1692 50.0853 107.545 51.1535 107.6524 52.1732 C 107.7607 53.2005 107.9688 54.2105 108.0336 55.2453 C 108.0961 56.2466 108.0031 57.2588 108.0336 58.2634 C 108.1304 61.4421 108.4711 64.622 108.4147 67.8029 C 108.3819 69.6763 108.0831 71.5346 107.7668 73.3541 C 107.673 73.8919 107.1951 74.8092 107.1951 74.8092 "/>
        <path id="ID0.4806634387932718" fill="none" stroke="#CCCC00" stroke-width="1.6922017242245628" stroke-linecap="round" d="M 105.4999 37.1612 C 105.4999 37.1612 104.1735 40.7214 103.7848 42.603 C 103.6308 43.3491 103.8084 44.1479 103.8991 44.9088 C 103.999 45.75 104.1766 46.5782 104.3565 47.3991 C 104.5196 48.1453 104.8017 48.8554 104.9282 49.6127 C 105.1577 50.9814 105.5136 52.3714 105.4237 53.7632 C 105.3795 54.4429 104.7735 54.8912 104.5471 55.5156 C 104.313 56.1603 104.0996 56.8428 104.0516 57.5447 C 103.9083 59.6264 103.8206 61.7358 103.9754 63.8166 C 104.0272 64.5157 104.5234 65.0719 104.6614 65.7535 C 104.8062 66.472 104.8344 67.2274 104.8139 67.9671 C 104.7963 68.5906 104.714 69.2214 104.5471 69.8117 C 104.4053 70.3126 103.8991 71.1952 103.8991 71.1952 "/>
        <path id="ID0.7519200313836336" fill="none" stroke="#995900" stroke-width="1.6922017242245628" stroke-linecap="round" d="M 102.3746 37.069 C 102.3746 37.069 100.9315 40.2482 100.7356 42.0034 C 100.6228 43.0097 101.2631 43.9339 101.4979 44.9088 C 101.7076 45.7776 102.232 46.6538 102.0696 47.5374 C 101.937 48.2587 100.9171 48.3537 100.7356 49.0593 C 100.5192 49.9014 100.895 50.8154 101.0024 51.6879 C 101.1107 52.5669 101.3188 53.4311 101.3836 54.3166 C 101.4461 55.1734 101.3531 56.0395 101.3836 56.8991 C 101.4804 59.6191 101.8211 62.3399 101.7647 65.0617 C 101.7319 66.6647 101.4331 68.2548 101.1168 69.8117 C 101.023 70.272 100.5451 71.0569 100.5451 71.0569 "/>
        <path id="ID0.4806634387932718" fill="none" stroke="#FF9400" stroke-width="1.944809120850888" stroke-linecap="round" d="M 98.3999 38.5398 C 98.3999 38.5398 97.0735 42.9579 96.6848 45.2928 C 96.5308 46.2188 96.7084 47.21 96.7991 48.1543 C 96.899 49.1981 97.0766 50.226 97.2565 51.2446 C 97.4196 52.1706 97.7017 53.0519 97.8282 53.9916 C 98.0577 55.6902 98.4136 57.4151 98.3237 59.1422 C 98.2795 59.9858 97.6735 60.5421 97.4471 61.3169 C 97.213 62.117 96.9996 62.964 96.9516 63.835 C 96.8083 66.4183 96.7206 69.036 96.8754 71.6182 C 96.9272 72.4858 97.4234 73.1759 97.5614 74.0218 C 97.7062 74.9134 97.7344 75.8508 97.7139 76.7688 C 97.6963 77.5425 97.614 78.3254 97.4471 79.0579 C 97.3053 79.6794 96.7991 80.7748 96.7991 80.7748 "/>
        <path id="ID0.7519200313836336" fill="none" stroke="#995900" stroke-width="1.944809120850888" stroke-linecap="round" d="M 95.2746 38.4254 C 95.2746 38.4254 93.8315 42.3707 93.6356 44.5489 C 93.5228 45.7976 94.1631 46.9445 94.3979 48.1543 C 94.6076 49.2325 95.132 50.3198 94.9696 51.4163 C 94.837 52.3114 93.8171 52.4293 93.6356 53.3049 C 93.4192 54.3499 93.795 55.4842 93.9024 56.5669 C 94.0107 57.6577 94.2188 58.7302 94.2836 59.829 C 94.3461 60.8923 94.2531 61.9671 94.2836 63.0338 C 94.3804 66.4092 94.7211 69.7857 94.6647 73.1634 C 94.6319 75.1526 94.3331 77.1259 94.0168 79.0579 C 93.923 79.6291 93.4451 80.6031 93.4451 80.6031 "/>
        <path id="ID0.4806634387932718" fill="none" stroke="#CCCC00" stroke-width="1.6922017242245628" stroke-linecap="round" d="M 91.6499 33.6612 C 91.6499 33.6612 90.3235 37.2214 89.9348 39.103 C 89.7808 39.8491 89.9584 40.6479 90.0491 41.4088 C 90.149 42.25 90.3266 43.0782 90.5065 43.8991 C 90.6696 44.6453 90.9517 45.3554 91.0782 46.1127 C 91.3077 47.4814 91.6636 48.8714 91.5737 50.2632 C 91.5295 50.9429 90.9235 51.3912 90.6971 52.0156 C 90.463 52.6603 90.2496 53.3428 90.2016 54.0447 C 90.0583 56.1264 89.9706 58.2358 90.1254 60.3166 C 90.1772 61.0157 90.6734 61.5719 90.8114 62.2535 C 90.9562 62.972 90.9844 63.7274 90.9639 64.4671 C 90.9463 65.0906 90.864 65.7214 90.6971 66.3117 C 90.5553 66.8126 90.0491 67.6952 90.0491 67.6952 "/>
        <path id="ID0.7519200313836336" fill="none" stroke="#FF9400" stroke-width="1.6922017242245628" stroke-linecap="round" d="M 88.5246 33.569 C 88.5246 33.569 87.0815 36.7482 86.8856 38.5034 C 86.7728 39.5097 87.4131 40.4339 87.6479 41.4088 C 87.8576 42.2776 88.382 43.1538 88.2196 44.0374 C 88.087 44.7587 87.0671 44.8537 86.8856 45.5593 C 86.6692 46.4014 87.045 47.3154 87.1524 48.1879 C 87.2607 49.0669 87.4688 49.9311 87.5336 50.8166 C 87.5961 51.6734 87.5031 52.5395 87.5336 53.3991 C 87.6304 56.1191 87.9711 58.8399 87.9147 61.5617 C 87.8819 63.1647 87.5831 64.7548 87.2668 66.3117 C 87.173 66.772 86.6951 67.5569 86.6951 67.5569 "/>
        <path id="ID0.4806634387932718" fill="none" stroke="#CCCC00" stroke-width="1.983808926983925" stroke-linecap="round" d="M 42.8001 45.9757 C 42.8001 45.9757 44.1265 50.5211 44.5152 52.9234 C 44.6692 53.876 44.4916 54.8958 44.4009 55.8673 C 44.301 56.9412 44.1234 57.9987 43.9435 59.0467 C 43.7804 59.9994 43.4983 60.9061 43.3718 61.8729 C 43.1423 63.6204 42.7864 65.395 42.8763 67.172 C 42.9205 68.0398 43.5265 68.6121 43.7529 69.4093 C 43.987 70.2325 44.2004 71.1039 44.2484 72 C 44.3917 74.6578 44.4794 77.3509 44.3246 80.0075 C 44.2728 80.9001 43.7766 81.6101 43.6386 82.4804 C 43.4938 83.3977 43.4656 84.3621 43.4861 85.3065 C 43.5037 86.1026 43.586 86.908 43.7529 87.6617 C 43.8947 88.3011 44.4009 89.428 44.4009 89.428 "/>
        <path id="ID0.7519200313836336" fill="none" stroke="#FF9400" stroke-width="1.983808926983925" stroke-linecap="round" d="M 45.9254 45.8579 C 45.9254 45.8579 47.3685 49.917 47.5644 52.1579 C 47.6772 53.4427 47.0369 54.6226 46.8021 55.8673 C 46.5924 56.9766 46.068 58.0952 46.2304 59.2234 C 46.363 60.1442 47.3829 60.2655 47.5644 61.1663 C 47.7808 62.2415 47.405 63.4084 47.2976 64.5224 C 47.1893 65.6446 46.9812 66.748 46.9164 67.8785 C 46.8539 68.9725 46.9469 70.0782 46.9164 71.1757 C 46.8196 74.6483 46.4789 78.1222 46.5353 81.5972 C 46.5681 83.6438 46.8669 85.6739 47.1832 87.6617 C 47.277 88.2493 47.7549 89.2514 47.7549 89.2514 "/>
        <path id="ID0.4806634387932718" fill="none" stroke="#CCCC00" stroke-width="1.6922017242245628" stroke-linecap="round" d="M 46.5001 25.6612 C 46.5001 25.6612 47.8265 29.2214 48.2152 31.103 C 48.3692 31.8491 48.1916 32.6479 48.1009 33.4088 C 48.001 34.25 47.8234 35.0782 47.6435 35.8991 C 47.4804 36.6453 47.1983 37.3554 47.0718 38.1127 C 46.8423 39.4814 46.4864 40.8714 46.5763 42.2632 C 46.6205 42.9429 47.2265 43.3912 47.4529 44.0156 C 47.687 44.6603 47.9004 45.3428 47.9484 46.0447 C 48.0917 48.1264 48.1794 50.2358 48.0246 52.3166 C 47.9728 53.0157 47.4766 53.5719 47.3386 54.2535 C 47.1938 54.972 47.1656 55.7274 47.1861 56.4671 C 47.2037 57.0906 47.286 57.7214 47.4529 58.3117 C 47.5947 58.8126 48.1009 59.6952 48.1009 59.6952 "/>
        <path id="ID0.7519200313836336" fill="none" stroke="#CCCC00" stroke-width="1.6922017242245628" stroke-linecap="round" d="M 49.6254 25.569 C 49.6254 25.569 51.0685 28.7482 51.2644 30.5034 C 51.3772 31.5097 50.7369 32.4339 50.5021 33.4088 C 50.2924 34.2776 49.768 35.1538 49.9304 36.0374 C 50.063 36.7587 51.0829 36.8537 51.2644 37.5593 C 51.4808 38.4014 51.105 39.3154 50.9976 40.1879 C 50.8893 41.0669 50.6812 41.9311 50.6164 42.8166 C 50.5539 43.6734 50.6469 44.5395 50.6164 45.3991 C 50.5196 48.1191 50.1789 50.8399 50.2353 53.5617 C 50.2681 55.1647 50.5669 56.7548 50.8832 58.3117 C 50.977 58.772 51.4549 59.5569 51.4549 59.5569 "/>
        <path id="ID0.4806634387932718" fill="none" stroke="#FF9400" stroke-width="2.0372818938305786" stroke-linecap="round" d="M 51.6501 35.0823 C 51.6501 35.0823 52.9765 39.8007 53.3652 42.2943 C 53.5192 43.2832 53.3416 44.3417 53.2509 45.3502 C 53.151 46.465 52.9734 47.5627 52.7935 48.6506 C 52.6304 49.6395 52.3483 50.5807 52.2218 51.5843 C 51.9923 53.3983 51.6364 55.2404 51.7263 57.0849 C 51.7705 57.9858 52.3765 58.5799 52.6029 59.4074 C 52.837 60.2619 53.0504 61.1664 53.0984 62.0966 C 53.2417 64.8555 53.3294 67.6511 53.1746 70.4087 C 53.1228 71.3353 52.6266 72.0724 52.4886 72.9757 C 52.3438 73.9279 52.3156 74.929 52.3361 75.9094 C 52.3537 76.7357 52.436 77.5718 52.6029 78.3541 C 52.7447 79.0178 53.2509 80.1877 53.2509 80.1877 "/>
        <path id="ID0.7519200313836336" fill="none" stroke="#CCCC00" stroke-width="2.0372818938305786" stroke-linecap="round" d="M 54.7754 34.9601 C 54.7754 34.9601 56.2185 39.1736 56.4144 41.4997 C 56.5272 42.8333 55.8869 44.0582 55.6521 45.3502 C 55.4424 46.5017 54.918 47.6629 55.0804 48.8339 C 55.213 49.7898 56.2329 49.9157 56.4144 50.8508 C 56.6308 51.9669 56.255 53.1782 56.1476 54.3346 C 56.0393 55.4995 55.8312 56.6449 55.7664 57.8183 C 55.7039 58.9539 55.7969 60.1017 55.7664 61.241 C 55.6696 64.8457 55.3289 68.4517 55.3853 72.0589 C 55.4181 74.1834 55.7169 76.2907 56.0332 78.3541 C 56.127 78.9641 56.6049 80.0043 56.6049 80.0043 "/>
        <path id="ID0.4806634387932718" fill="none" stroke="#995900" stroke-width="1.8670607754207065" stroke-linecap="round" d="M 58.6001 34.7462 C 58.6001 34.7462 59.9265 38.9069 60.3152 41.1059 C 60.4692 41.9779 60.2916 42.9114 60.2009 43.8006 C 60.101 44.7837 59.9234 45.7516 59.7435 46.711 C 59.5804 47.583 59.2983 48.413 59.1718 49.2979 C 58.9423 50.8976 58.5864 52.522 58.6763 54.1485 C 58.7205 54.9429 59.3265 55.4668 59.5529 56.1965 C 59.787 56.95 60.0004 57.7476 60.0484 58.5679 C 60.1917 61.0008 60.2794 63.4659 60.1246 65.8977 C 60.0728 66.7147 59.5766 67.3647 59.4386 68.1613 C 59.2938 69.001 59.2656 69.8838 59.2861 70.7483 C 59.3037 71.4769 59.386 72.2142 59.5529 72.9041 C 59.6947 73.4894 60.2009 74.5209 60.2009 74.5209 "/>
        <path id="ID0.7519200313836336" fill="none" stroke="#CCCC00" stroke-width="1.8670607754207065" stroke-linecap="round" d="M 61.7254 34.6384 C 61.7254 34.6384 63.1685 38.354 63.3644 40.4052 C 63.4772 41.5812 62.8369 42.6613 62.6021 43.8006 C 62.3924 44.816 61.868 45.84 62.0304 46.8727 C 62.163 47.7156 63.1829 47.8266 63.3644 48.6512 C 63.5808 49.6353 63.205 50.7035 63.0976 51.7232 C 62.9893 52.7505 62.7812 53.7605 62.7164 54.7953 C 62.6539 55.7966 62.7469 56.8088 62.7164 57.8134 C 62.6196 60.9921 62.2789 64.172 62.3353 67.3529 C 62.3681 69.2263 62.6669 71.0846 62.9832 72.9041 C 63.077 73.4419 63.5549 74.3592 63.5549 74.3592 "/>
        <path id="ID0.4806634387932718" fill="none" stroke="#995900" stroke-width="1.6922017242245628" stroke-linecap="round" d="M 65.3501 37.1612 C 65.3501 37.1612 66.6765 40.7214 67.0652 42.603 C 67.2192 43.3491 67.0416 44.1479 66.9509 44.9088 C 66.851 45.75 66.6734 46.5782 66.4935 47.3991 C 66.3304 48.1453 66.0483 48.8554 65.9218 49.6127 C 65.6923 50.9814 65.3364 52.3714 65.4263 53.7632 C 65.4705 54.4429 66.0765 54.8912 66.3029 55.5156 C 66.537 56.1603 66.7504 56.8428 66.7984 57.5447 C 66.9417 59.6264 67.0294 61.7358 66.8746 63.8166 C 66.8228 64.5157 66.3266 65.0719 66.1886 65.7535 C 66.0438 66.472 66.0156 67.2274 66.0361 67.9671 C 66.0537 68.5906 66.136 69.2214 66.3029 69.8117 C 66.4447 70.3126 66.9509 71.1952 66.9509 71.1952 "/>
        <path id="ID0.7519200313836336" fill="none" stroke="#FF9400" stroke-width="1.6922017242245628" stroke-linecap="round" d="M 68.4754 37.069 C 68.4754 37.069 69.9185 40.2482 70.1144 42.0034 C 70.2272 43.0097 69.5869 43.9339 69.3521 44.9088 C 69.1424 45.7776 68.618 46.6538 68.7804 47.5374 C 68.913 48.2587 69.9329 48.3537 70.1144 49.0593 C 70.3308 49.9014 69.955 50.8154 69.8476 51.6879 C 69.7393 52.5669 69.5312 53.4311 69.4664 54.3166 C 69.4039 55.1734 69.4969 56.0395 69.4664 56.8991 C 69.3696 59.6191 69.0289 62.3399 69.0853 65.0617 C 69.1181 66.6647 69.4169 68.2548 69.7332 69.8117 C 69.827 70.272 70.3049 71.0569 70.3049 71.0569 "/>
        <path id="ID0.4806634387932718" fill="none" stroke="#CCCC00" stroke-width="1.944809120850888" stroke-linecap="round" d="M 72.4001 38.5398 C 72.4001 38.5398 73.7265 42.9579 74.1152 45.2928 C 74.2692 46.2188 74.0916 47.21 74.0009 48.1543 C 73.901 49.1981 73.7234 50.226 73.5435 51.2446 C 73.3804 52.1706 73.0983 53.0519 72.9718 53.9916 C 72.7423 55.6902 72.3864 57.4151 72.4763 59.1422 C 72.5205 59.9858 73.1265 60.5421 73.3529 61.3169 C 73.587 62.117 73.8004 62.964 73.8484 63.835 C 73.9917 66.4183 74.0794 69.036 73.9246 71.6182 C 73.8728 72.4858 73.3766 73.1759 73.2386 74.0218 C 73.0938 74.9134 73.0656 75.8508 73.0861 76.7688 C 73.1037 77.5425 73.186 78.3254 73.3529 79.0579 C 73.4947 79.6794 74.0009 80.7748 74.0009 80.7748 "/>
        <path id="ID0.7519200313836336" fill="none" stroke="#995900" stroke-width="1.944809120850888" stroke-linecap="round" d="M 75.5254 38.4254 C 75.5254 38.4254 76.9685 42.3707 77.1644 44.5489 C 77.2772 45.7976 76.6369 46.9445 76.4021 48.1543 C 76.1924 49.2325 75.668 50.3198 75.8304 51.4163 C 75.963 52.3114 76.9829 52.4293 77.1644 53.3049 C 77.3808 54.3499 77.005 55.4842 76.8976 56.5669 C 76.7893 57.6577 76.5812 58.7302 76.5164 59.829 C 76.4539 60.8923 76.5469 61.9671 76.5164 63.0338 C 76.4196 66.4092 76.0789 69.7857 76.1353 73.1634 C 76.1681 75.1526 76.4669 77.1259 76.7832 79.0579 C 76.877 79.6291 77.3549 80.6031 77.3549 80.6031 "/>
        <path id="ID0.4806634387932718" fill="none" stroke="#CCCC00" stroke-width="1.6922017242245628" stroke-linecap="round" d="M 79.1001 33.6612 C 79.1001 33.6612 80.4265 37.2214 80.8152 39.103 C 80.9692 39.8491 80.7916 40.6479 80.7009 41.4088 C 80.601 42.25 80.4234 43.0782 80.2435 43.8991 C 80.0804 44.6453 79.7983 45.3554 79.6718 46.1127 C 79.4423 47.4814 79.0864 48.8714 79.1763 50.2632 C 79.2205 50.9429 79.8265 51.3912 80.0529 52.0156 C 80.287 52.6603 80.5004 53.3428 80.5484 54.0447 C 80.6917 56.1264 80.7794 58.2358 80.6246 60.3166 C 80.5728 61.0157 80.0766 61.5719 79.9386 62.2535 C 79.7938 62.972 79.7656 63.7274 79.7861 64.4671 C 79.8037 65.0906 79.886 65.7214 80.0529 66.3117 C 80.1947 66.8126 80.7009 67.6952 80.7009 67.6952 "/>
        <path id="ID0.7519200313836336" fill="none" stroke="#995900" stroke-width="1.6922017242245628" stroke-linecap="round" d="M 82.2254 33.569 C 82.2254 33.569 83.6685 36.7482 83.8644 38.5034 C 83.9772 39.5097 83.3369 40.4339 83.1021 41.4088 C 82.8924 42.2776 82.368 43.1538 82.5304 44.0374 C 82.663 44.7587 83.6829 44.8537 83.8644 45.5593 C 84.0808 46.4014 83.705 47.3154 83.5976 48.1879 C 83.4893 49.0669 83.2812 49.9311 83.2164 50.8166 C 83.1539 51.6734 83.2469 52.5395 83.2164 53.3991 C 83.1196 56.1191 82.7789 58.8399 82.8353 61.5617 C 82.8681 63.1647 83.1669 64.7548 83.4832 66.3117 C 83.577 66.772 84.0549 67.5569 84.0549 67.5569 "/>
      </g>
      <g id="ID0.09922660375013947">
        <path id="ID0.8346671243198216" fill="#FFFF00" stroke="#FFFF00" stroke-width="2" stroke-linecap="round" d="M 86.25 35.95 C 87.394 36.03 88.719 34.603 89.65 35.35 C 91.335 36.721 90.951 39.779 92.55 41.2 C 93.554 42.09 95.432 41.933 96.55 41.7 C 98.415 40.402 98.229 39.693 98.55 38.7 C 98.726 36.36 98.35 35.599 99.05 34.7 C 101.295 34.173 102.113 34.145 102.8 35.2 C 103.793 36.728 101.707 39.347 103 40.6 C 104.328 41.894 106.887 41.593 108.65 40.95 C 109.675 40.498 109.207 38.599 110 37.85 C 110.787 37.109 112.028 36.238 113 36.6 C 114.252 37.064 114.251 38.986 115.35 39.85 C 116.247 40.549 117.598 41.136 118.65 40.75 C 119.877 40.299 120.783 38.829 121 37.6 C 121.298 35.854 120.087 34.091 120.15 32.35 C 120.212 30.82 121.264 29.414 121.15 27.85 C 121.031 26.197 119.862 24.823 119.65 23.1 C 119.538 22.202 120.173 21.401 120.25 20.45 C 120.348 19.219 120.743 17.858 120 16.75 C 119.355 15.806 117.724 16.268 116.75 15.6 C 115.619 14.814 114.992 13.415 113.8 12.7 C 112.844 12.129 111.591 12.321 110.65 11.85 C 109.495 11.146 108.73 9.887 107.65 9.25 C 106.852 8.779 105.736 8.999 105 8.45 C 104.162 7.808 104.124 6.494 103.25 6.1 C 102.281 5.537 101.002 6.174 100 5.85 C 99.071 5.551 98.537 4.313 97.65 4.1 C 96.193 3.744 94.629 4.591 93.15 4.25 C 92.131 4.015 91.567 2.788 90.65 2.35 C 89.599 1.838 88.466 1.486 87.35 1.45 C 86.458 1.422 85.612 1.857 84.75 2.1 C 83.154 2.552 81.592 3.396 80 3.6 C 78.62 3.778 77.301 2.799 75.85 3.1 C 74.783 3.322 74.213 4.529 73.15 4.95 C 71.744 5.51 70.071 5.359 68.75 6.1 C 67.842 6.61 67.606 7.848 66.85 8.6 C 65.591 9.695 64.234 10.793 62.75 11.6 C 61.39 12.339 59.736 12.324 58.35 13.1 C 57.186 13.75 56.508 15.092 55.35 15.75 C 54.141 16.436 52.015 15.671 51.35 16.95 C 50.55 18.49 52.219 20.436 52.15 22.1 C 52.093 23.485 51.013 24.629 51 26.1 C 50.988 27.232 51.941 28.134 52 29.35 C 52.06 30.67 51.148 31.864 51.25 33.25 C 51.328 34.342 52.08 35.245 52.35 36.35 C 52.693 37.731 51.776 39.646 52.75 40.6 C 53.728 41.555 55.554 41.455 56.85 40.85 C 57.834 40.387 57.301 38.49 58.15 37.85 C 58.867 37.309 59.933 37.819 60.85 37.85 C 61.815 37.868 63.087 37.039 63.75 37.75 C 64.579 38.637 63.357 40.674 64.35 41.35 C 65.812 42.345 68.412 42.753 69.65 41.6 C 71.064 40.279 69.236 37.263 70.5 35.85 C 71.444 34.796 73.954 34.742 74.75 35.85 C 75.834 37.366 73.531 40.245 74.85 41.45 C 76.458 42.914 79.527 43.116 81.35 42.1 C 82.487 41.465 80.638 39.403 80.85 38.1 C 81.044 36.908 81.537 35.423 82.65 34.95 C 83.794 34.463 84.975 35.861 86.25 35.95 Z "/>
        <path id="ID0.4806634387932718" fill="none" stroke="#CCCC00" stroke-width="1.3623144473467341" stroke-linecap="round" d="M 119.6499 17.3433 C 119.6499 17.3433 118.3235 19.6167 117.9348 20.8182 C 117.7808 21.2946 117.9584 21.8047 118.0491 22.2906 C 118.149 22.8277 118.3266 23.3566 118.5065 23.8807 C 118.6696 24.3572 118.9517 24.8107 119.0782 25.2942 C 119.3077 26.1683 119.6636 27.0558 119.5737 27.9446 C 119.5295 28.3786 118.9235 28.6648 118.6971 29.0636 C 118.463 29.4753 118.2496 29.9111 118.2016 30.3593 C 118.0583 31.6886 117.9706 33.0355 118.1254 34.3642 C 118.1772 34.8106 118.6734 35.1658 118.8114 35.601 C 118.9562 36.0598 118.9844 36.5422 118.9639 37.0145 C 118.9463 37.4127 118.864 37.8155 118.6971 38.1924 C 118.5553 38.5122 118.0491 39.0759 118.0491 39.0759 "/>
        <path id="ID0.7519200313836336" fill="none" stroke="#FF9400" stroke-width="1.3623144473467341" stroke-linecap="round" d="M 116.5246 17.2844 C 116.5246 17.2844 115.0815 19.3145 114.8856 20.4353 C 114.7728 21.0779 115.4131 21.668 115.6479 22.2906 C 115.8576 22.8453 116.382 23.4049 116.2196 23.9691 C 116.087 24.4296 115.0671 24.4903 114.8856 24.9409 C 114.6692 25.4786 115.045 26.0622 115.1524 26.6194 C 115.2607 27.1807 115.4688 27.7325 115.5336 28.2979 C 115.5961 28.8451 115.5031 29.3981 115.5336 29.947 C 115.6304 31.6839 115.9711 33.4213 115.9147 35.1593 C 115.8819 36.1829 115.5831 37.1983 115.2668 38.1924 C 115.173 38.4863 114.6951 38.9875 114.6951 38.9875 "/>
        <path id="ID0.4806634387932718" fill="none" stroke="#995900" stroke-width="1.3623144473467341" stroke-linecap="round" d="M 113.5499 13.6433 C 113.5499 13.6433 112.2235 15.9167 111.8348 17.1182 C 111.6808 17.5946 111.8584 18.1047 111.9491 18.5906 C 112.049 19.1277 112.2266 19.6566 112.4065 20.1807 C 112.5696 20.6572 112.8517 21.1107 112.9782 21.5942 C 113.2077 22.4683 113.5636 23.3558 113.4737 24.2446 C 113.4295 24.6786 112.8235 24.9648 112.5971 25.3636 C 112.363 25.7753 112.1496 26.2111 112.1016 26.6593 C 111.9583 27.9886 111.8706 29.3355 112.0254 30.6642 C 112.0772 31.1106 112.5734 31.4658 112.7114 31.901 C 112.8562 32.3598 112.8844 32.8422 112.8639 33.3145 C 112.8463 33.7127 112.764 34.1155 112.5971 34.4924 C 112.4553 34.8122 111.9491 35.3759 111.9491 35.3759 "/>
        <path id="ID0.7519200313836336" fill="none" stroke="#CCCC00" stroke-width="1.3623144473467341" stroke-linecap="round" d="M 110.4246 13.5844 C 110.4246 13.5844 108.9815 15.6145 108.7856 16.7353 C 108.6728 17.3779 109.3131 17.968 109.5479 18.5906 C 109.7576 19.1453 110.282 19.7049 110.1196 20.2691 C 109.987 20.7296 108.9671 20.7903 108.7856 21.2409 C 108.5692 21.7786 108.945 22.3622 109.0524 22.9194 C 109.1607 23.4807 109.3688 24.0325 109.4336 24.5979 C 109.4961 25.1451 109.4031 25.6981 109.4336 26.247 C 109.5304 27.9839 109.8711 29.7213 109.8147 31.4593 C 109.7819 32.4829 109.4831 33.4983 109.1668 34.4924 C 109.073 34.7863 108.5951 35.2875 108.5951 35.2875 "/>
        <path id="ID0.4806634387932718" fill="none" stroke="#995900" stroke-width="1.5234864035522133" stroke-linecap="round" d="M 108.2999 11.7017 C 108.2999 11.7017 106.9735 14.64 106.5848 16.1928 C 106.4308 16.8086 106.6084 17.4678 106.6991 18.0958 C 106.799 18.79 106.9766 19.4736 107.1565 20.1511 C 107.3196 20.7669 107.6017 21.353 107.7282 21.9779 C 107.9577 23.1076 108.3136 24.2547 108.2237 25.4033 C 108.1795 25.9643 107.5735 26.3343 107.3471 26.8496 C 107.113 27.3817 106.8996 27.945 106.8516 28.5243 C 106.7083 30.2423 106.6206 31.9832 106.7754 33.7004 C 106.8272 34.2774 107.3234 34.7364 107.4614 35.299 C 107.6062 35.8919 107.6344 36.5154 107.6139 37.1258 C 107.5963 37.6404 107.514 38.1611 107.3471 38.6482 C 107.2053 39.0616 106.6991 39.79 106.6991 39.79 "/>
        <path id="ID0.7519200313836336" fill="none" stroke="#CCCC00" stroke-width="1.5234864035522133" stroke-linecap="round" d="M 105.1746 11.6256 C 105.1746 11.6256 103.7315 14.2495 103.5356 15.698 C 103.4228 16.5285 104.0631 17.2912 104.2979 18.0958 C 104.5076 18.8129 105.032 19.536 104.8696 20.2652 C 104.737 20.8605 103.7171 20.9389 103.5356 21.5212 C 103.3192 22.2162 103.695 22.9705 103.8024 23.6906 C 103.9107 24.4161 104.1188 25.1293 104.1836 25.8601 C 104.2461 26.5672 104.1531 27.282 104.1836 27.9914 C 104.2804 30.2362 104.6211 32.4817 104.5647 34.7281 C 104.5319 36.051 104.2331 37.3633 103.9168 38.6482 C 103.823 39.0281 103.3451 39.6759 103.3451 39.6759 "/>
        <path id="ID0.4806634387932718" fill="none" stroke="#FF9400" stroke-width="1.5290487853815156" stroke-linecap="round" d="M 102.5499 6.3762 C 102.5499 6.3762 101.2235 9.3359 100.8348 10.9001 C 100.6808 11.5204 100.8584 12.1844 100.9491 12.8169 C 101.049 13.5162 101.2266 14.2048 101.4065 14.8872 C 101.5696 15.5075 101.8517 16.0979 101.9782 16.7274 C 102.2077 17.8653 102.5636 19.0208 102.4737 20.1778 C 102.4295 20.7429 101.8235 21.1156 101.5971 21.6347 C 101.363 22.1706 101.1496 22.738 101.1016 23.3215 C 100.9583 25.0521 100.8706 26.8057 101.0254 28.5355 C 101.0772 29.1167 101.5734 29.579 101.7114 30.1457 C 101.8562 30.743 101.8844 31.3709 101.8639 31.9859 C 101.8463 32.5042 101.764 33.0287 101.5971 33.5194 C 101.4553 33.9357 100.9491 34.6695 100.9491 34.6695 "/>
        <path id="ID0.7519200313836336" fill="none" stroke="#995900" stroke-width="1.5290487853815156" stroke-linecap="round" d="M 99.4246 6.2995 C 99.4246 6.2995 97.9815 8.9425 97.7856 10.4017 C 97.6728 11.2382 98.3131 12.0065 98.5479 12.8169 C 98.7576 13.5392 99.282 14.2677 99.1196 15.0022 C 98.987 15.6018 97.9671 15.6808 97.7856 16.2674 C 97.5692 16.9674 97.945 17.7273 98.0524 18.4526 C 98.1607 19.1833 98.3688 19.9018 98.4336 20.6379 C 98.4961 21.3502 98.4031 22.0702 98.4336 22.7848 C 98.5304 25.046 98.8711 27.3079 98.8147 29.5706 C 98.7819 30.9032 98.4831 32.2251 98.1668 33.5194 C 98.073 33.902 97.5951 34.5545 97.5951 34.5545 "/>
        <path id="ID0.4806634387932718" fill="none" stroke="#FF9400" stroke-width="1.710437983335185" stroke-linecap="round" d="M 96.7999 5.1846 C 96.7999 5.1846 95.4735 8.8091 95.0848 10.7247 C 94.9308 11.4843 95.1084 12.2975 95.1991 13.0722 C 95.299 13.9286 95.4766 14.7718 95.6565 15.6075 C 95.8196 16.3671 96.1017 17.0902 96.2282 17.8611 C 96.4577 19.2546 96.8136 20.6696 96.7237 22.0866 C 96.6795 22.7786 96.0735 23.235 95.8471 23.8707 C 95.613 24.5271 95.3996 25.2219 95.3516 25.9365 C 95.2083 28.0558 95.1206 30.2033 95.2754 32.3217 C 95.3272 33.0335 95.8234 33.5997 95.9614 34.2936 C 96.1062 35.0251 96.1344 35.7941 96.1139 36.5472 C 96.0963 37.182 96.014 37.8242 95.8471 38.4252 C 95.7053 38.9351 95.1991 39.8337 95.1991 39.8337 "/>
        <path id="ID0.7519200313836336" fill="none" stroke="#CCCC00" stroke-width="1.710437983335185" stroke-linecap="round" d="M 93.6746 5.0907 C 93.6746 5.0907 92.2315 8.3274 92.0356 10.1143 C 91.9228 11.1388 92.5631 12.0797 92.7979 13.0722 C 93.0076 13.9567 93.532 14.8488 93.3696 15.7483 C 93.237 16.4826 92.2171 16.5794 92.0356 17.2977 C 91.8192 18.155 92.195 19.0856 92.3024 19.9738 C 92.4107 20.8687 92.6188 21.7486 92.6836 22.65 C 92.7461 23.5223 92.6531 24.404 92.6836 25.2792 C 92.7804 28.0483 93.1211 30.8184 93.0647 33.5893 C 93.0319 35.2213 92.7331 36.8402 92.4168 38.4252 C 92.323 38.8938 91.8451 39.6928 91.8451 39.6928 "/>
        <path id="ID0.4806634387932718" fill="none" stroke="#995900" stroke-width="1.5571573872534457" stroke-linecap="round" d="M 91.5499 3.5985 C 91.5499 3.5985 90.2235 6.6654 89.8348 8.2863 C 89.6808 8.9291 89.8584 9.6171 89.9491 10.2726 C 90.049 10.9973 90.2266 11.7107 90.4065 12.4179 C 90.5696 13.0607 90.8517 13.6725 90.9782 14.3248 C 91.2077 15.5039 91.5636 16.7012 91.4737 17.9002 C 91.4295 18.4858 90.8235 18.8719 90.5971 19.4098 C 90.363 19.9652 90.1496 20.5532 90.1016 21.1578 C 89.9583 22.9511 89.8706 24.7682 90.0254 26.5607 C 90.0772 27.1629 90.5734 27.642 90.7114 28.2292 C 90.8562 28.8481 90.8844 29.4989 90.8639 30.1361 C 90.8463 30.6732 90.764 31.2167 90.5971 31.7252 C 90.4553 32.1566 89.9491 32.917 89.9491 32.917 "/>
        <path id="ID0.7519200313836336" fill="none" stroke="#CCCC00" stroke-width="1.5571573872534457" stroke-linecap="round" d="M 88.4246 3.5191 C 88.4246 3.5191 86.9815 6.2578 86.7856 7.7698 C 86.6728 8.6367 87.3131 9.4328 87.5479 10.2726 C 87.7576 11.0211 88.282 11.7759 88.1196 12.5371 C 87.987 13.1584 86.9671 13.2402 86.7856 13.8481 C 86.5692 14.5735 86.945 15.3609 87.0524 16.1125 C 87.1607 16.8697 87.3688 17.6142 87.4336 18.3769 C 87.4961 19.1151 87.4031 19.8611 87.4336 20.6016 C 87.5304 22.9447 87.8711 25.2886 87.8147 27.6333 C 87.7819 29.0142 87.4831 30.384 87.1668 31.7252 C 87.073 32.1216 86.5951 32.7978 86.5951 32.7978 "/>
        <path id="ID0.4806634387932718" fill="none" stroke="#995900" stroke-width="1.3623144473467341" stroke-linecap="round" d="M 52.7001 17.2933 C 52.7001 17.2933 54.0265 19.5667 54.4152 20.7682 C 54.5692 21.2446 54.3916 21.7547 54.3009 22.2406 C 54.201 22.7777 54.0234 23.3066 53.8435 23.8307 C 53.6804 24.3072 53.3983 24.7607 53.2718 25.2442 C 53.0423 26.1183 52.6864 27.0058 52.7763 27.8946 C 52.8205 28.3286 53.4265 28.6148 53.6529 29.0136 C 53.887 29.4253 54.1004 29.8611 54.1484 30.3093 C 54.2917 31.6386 54.3794 32.9855 54.2246 34.3142 C 54.1728 34.7606 53.6766 35.1158 53.5386 35.551 C 53.3938 36.0098 53.3656 36.4922 53.3861 36.9645 C 53.4037 37.3627 53.486 37.7655 53.6529 38.1424 C 53.7947 38.4622 54.3009 39.0259 54.3009 39.0259 "/>
        <path id="ID0.7519200313836336" fill="none" stroke="#CCCC00" stroke-width="1.3623144473467341" stroke-linecap="round" d="M 55.8254 17.2344 C 55.8254 17.2344 57.2685 19.2645 57.4644 20.3853 C 57.5772 21.0279 56.9369 21.618 56.7021 22.2406 C 56.4924 22.7953 55.968 23.3549 56.1304 23.9191 C 56.263 24.3796 57.2829 24.4403 57.4644 24.8909 C 57.6808 25.4286 57.305 26.0122 57.1976 26.5694 C 57.0893 27.1307 56.8812 27.6825 56.8164 28.2479 C 56.7539 28.7951 56.8469 29.3481 56.8164 29.897 C 56.7196 31.6339 56.3789 33.3713 56.4353 35.1093 C 56.4681 36.1329 56.7669 37.1483 57.0832 38.1424 C 57.177 38.4363 57.6549 38.9375 57.6549 38.9375 "/>
        <path id="ID0.4806634387932718" fill="none" stroke="#FF9400" stroke-width="1.3623144473467341" stroke-linecap="round" d="M 58.9001 13.8933 C 58.9001 13.8933 60.2265 16.1667 60.6152 17.3682 C 60.7692 17.8446 60.5916 18.3547 60.5009 18.8406 C 60.401 19.3777 60.2234 19.9066 60.0435 20.4307 C 59.8804 20.9072 59.5983 21.3607 59.4718 21.8442 C 59.2423 22.7183 58.8864 23.6058 58.9763 24.4946 C 59.0205 24.9286 59.6265 25.2148 59.8529 25.6136 C 60.087 26.0253 60.3004 26.4611 60.3484 26.9093 C 60.4917 28.2386 60.5794 29.5855 60.4246 30.9142 C 60.3728 31.3606 59.8766 31.7158 59.7386 32.151 C 59.5938 32.6098 59.5656 33.0922 59.5861 33.5645 C 59.6037 33.9627 59.686 34.3655 59.8529 34.7424 C 59.9947 35.0622 60.5009 35.6259 60.5009 35.6259 "/>
        <path id="ID0.7519200313836336" fill="none" stroke="#995900" stroke-width="1.3623144473467341" stroke-linecap="round" d="M 62.0254 13.8344 C 62.0254 13.8344 63.4685 15.8645 63.6644 16.9853 C 63.7772 17.6279 63.1369 18.218 62.9021 18.8406 C 62.6924 19.3953 62.168 19.9549 62.3304 20.5191 C 62.463 20.9796 63.4829 21.0403 63.6644 21.4909 C 63.8808 22.0286 63.505 22.6122 63.3976 23.1694 C 63.2893 23.7307 63.0812 24.2825 63.0164 24.8479 C 62.9539 25.3951 63.0469 25.9481 63.0164 26.497 C 62.9196 28.2339 62.5789 29.9713 62.6353 31.7093 C 62.6681 32.7329 62.9669 33.7483 63.2832 34.7424 C 63.377 35.0363 63.8549 35.5375 63.8549 35.5375 "/>
        <path id="ID0.4806634387932718" fill="none" stroke="#CCCC00" stroke-width="1.523486463114449" stroke-linecap="round" d="M 64.0001 11.8517 C 64.0001 11.8517 65.3265 14.79 65.7152 16.3428 C 65.8692 16.9586 65.6916 17.6178 65.6009 18.2458 C 65.501 18.94 65.3234 19.6236 65.1435 20.3011 C 64.9804 20.9169 64.6983 21.503 64.5718 22.1279 C 64.3423 23.2576 63.9864 24.4047 64.0763 25.5533 C 64.1205 26.1143 64.7265 26.4843 64.9529 26.9996 C 65.187 27.5317 65.4004 28.095 65.4484 28.6743 C 65.5917 30.3923 65.6794 32.1332 65.5246 33.8504 C 65.4728 34.4274 64.9766 34.8864 64.8386 35.449 C 64.6938 36.0419 64.6656 36.6654 64.6861 37.2758 C 64.7037 37.7904 64.786 38.3111 64.9529 38.7982 C 65.0947 39.2116 65.6009 39.94 65.6009 39.94 "/>
        <path id="ID0.7519200313836336" fill="none" stroke="#FF9400" stroke-width="1.523486463114449" stroke-linecap="round" d="M 67.1254 11.7756 C 67.1254 11.7756 68.5685 14.3995 68.7644 15.848 C 68.8772 16.6785 68.2369 17.4412 68.0021 18.2458 C 67.7924 18.9629 67.268 19.686 67.4304 20.4152 C 67.563 21.0105 68.5829 21.0889 68.7644 21.6712 C 68.9808 22.3662 68.605 23.1205 68.4976 23.8406 C 68.3893 24.5661 68.1812 25.2793 68.1164 26.0101 C 68.0539 26.7172 68.1469 27.432 68.1164 28.1414 C 68.0196 30.3862 67.6789 32.6318 67.7353 34.8781 C 67.7681 36.201 68.0669 37.5133 68.3832 38.7982 C 68.477 39.1781 68.9549 39.8259 68.9549 39.8259 "/>
        <path id="ID0.4806634387932718" fill="none" stroke="#CCCC00" stroke-width="1.5290487853815156" stroke-linecap="round" d="M 69.8001 6.6262 C 69.8001 6.6262 71.1265 9.5859 71.5152 11.1501 C 71.6692 11.7704 71.4916 12.4344 71.4009 13.0669 C 71.301 13.7662 71.1234 14.4548 70.9435 15.1372 C 70.7804 15.7575 70.4983 16.3479 70.3718 16.9774 C 70.1423 18.1153 69.7864 19.2708 69.8763 20.4278 C 69.9205 20.9929 70.5265 21.3656 70.7529 21.8847 C 70.987 22.4206 71.2004 22.988 71.2484 23.5715 C 71.3917 25.3021 71.4794 27.0557 71.3246 28.7855 C 71.2728 29.3667 70.7766 29.829 70.6386 30.3957 C 70.4938 30.993 70.4656 31.6209 70.4861 32.2359 C 70.5037 32.7542 70.586 33.2787 70.7529 33.7694 C 70.8947 34.1857 71.4009 34.9195 71.4009 34.9195 "/>
        <path id="ID0.7519200313836336" fill="none" stroke="#995900" stroke-width="1.5290487853815156" stroke-linecap="round" d="M 72.9254 6.5495 C 72.9254 6.5495 74.3685 9.1925 74.5644 10.6517 C 74.6772 11.4882 74.0369 12.2565 73.8021 13.0669 C 73.5924 13.7892 73.068 14.5177 73.2304 15.2522 C 73.363 15.8518 74.3829 15.9308 74.5644 16.5174 C 74.7808 17.2174 74.405 17.9773 74.2976 18.7026 C 74.1893 19.4333 73.9812 20.1518 73.9164 20.8879 C 73.8539 21.6002 73.9469 22.3202 73.9164 23.0348 C 73.8196 25.296 73.4789 27.5579 73.5353 29.8206 C 73.5681 31.1532 73.8669 32.4751 74.1832 33.7694 C 74.277 34.152 74.7549 34.8045 74.7549 34.8045 "/>
        <path id="ID0.4806634387932718" fill="none" stroke="#CCCC00" stroke-width="1.710437983335185" stroke-linecap="round" d="M 75.5501 5.4346 C 75.5501 5.4346 76.8765 9.0591 77.2652 10.9747 C 77.4192 11.7343 77.2416 12.5475 77.1509 13.3222 C 77.051 14.1786 76.8734 15.0218 76.6935 15.8575 C 76.5304 16.6171 76.2483 17.3402 76.1218 18.1111 C 75.8923 19.5046 75.5364 20.9196 75.6263 22.3366 C 75.6705 23.0286 76.2765 23.485 76.5029 24.1207 C 76.737 24.7771 76.9504 25.4719 76.9984 26.1865 C 77.1417 28.3058 77.2294 30.4533 77.0746 32.5717 C 77.0228 33.2835 76.5266 33.8497 76.3886 34.5436 C 76.2438 35.2751 76.2156 36.0441 76.2361 36.7972 C 76.2537 37.432 76.336 38.0742 76.5029 38.6752 C 76.6447 39.1851 77.1509 40.0837 77.1509 40.0837 "/>
        <path id="ID0.7519200313836336" fill="none" stroke="#CCCC00" stroke-width="1.710437983335185" stroke-linecap="round" d="M 78.6754 5.3407 C 78.6754 5.3407 80.1185 8.5774 80.3144 10.3643 C 80.4272 11.3888 79.7869 12.3297 79.5521 13.3222 C 79.3424 14.2067 78.818 15.0988 78.9804 15.9983 C 79.113 16.7326 80.1329 16.8294 80.3144 17.5477 C 80.5308 18.405 80.155 19.3356 80.0476 20.2238 C 79.9393 21.1187 79.7312 21.9986 79.6664 22.9 C 79.6039 23.7723 79.6969 24.654 79.6664 25.5292 C 79.5696 28.2983 79.2289 31.0684 79.2853 33.8393 C 79.3181 35.4713 79.6169 37.0902 79.9332 38.6752 C 80.027 39.1438 80.5049 39.9428 80.5049 39.9428 "/>
        <path id="ID0.4806634387932718" fill="none" stroke="#995900" stroke-width="1.5571573872534457" stroke-linecap="round" d="M 80.8501 3.8485 C 80.8501 3.8485 82.1765 6.9154 82.5652 8.5363 C 82.7192 9.1791 82.5416 9.8671 82.4509 10.5226 C 82.351 11.2473 82.1734 11.9607 81.9935 12.6679 C 81.8304 13.3107 81.5483 13.9225 81.4218 14.5748 C 81.1923 15.7539 80.8364 16.9512 80.9263 18.1502 C 80.9705 18.7358 81.5765 19.1219 81.8029 19.6598 C 82.037 20.2152 82.2504 20.8032 82.2984 21.4078 C 82.4417 23.2011 82.5294 25.0182 82.3746 26.8107 C 82.3228 27.4129 81.8266 27.892 81.6886 28.4792 C 81.5438 29.0981 81.5156 29.7489 81.5361 30.3861 C 81.5537 30.9232 81.636 31.4667 81.8029 31.9752 C 81.9447 32.4066 82.4509 33.167 82.4509 33.167 "/>
        <path id="ID0.7519200313836336" fill="none" stroke="#FF9400" stroke-width="1.5571573872534457" stroke-linecap="round" d="M 83.9754 3.7691 C 83.9754 3.7691 85.4185 6.5078 85.6144 8.0198 C 85.7272 8.8867 85.0869 9.6828 84.8521 10.5226 C 84.6424 11.2711 84.118 12.0259 84.2804 12.7871 C 84.413 13.4084 85.4329 13.4902 85.6144 14.0981 C 85.8308 14.8235 85.455 15.6109 85.3476 16.3625 C 85.2393 17.1197 85.0312 17.8642 84.9664 18.6269 C 84.9039 19.3651 84.9969 20.1111 84.9664 20.8516 C 84.8696 23.1947 84.5289 25.5386 84.5853 27.8833 C 84.6181 29.2642 84.9169 30.634 85.2332 31.9752 C 85.327 32.3716 85.8049 33.0478 85.8049 33.0478 "/>
      </g>
    </g>
  </g>
</svg>