<svg xmlns="http://www.w3.org/2000/svg" xmlns:xlink="http://www.w3.org/1999/xlink" version="1.1" width="39.5" height="51" viewBox="0.25 0.7000000476837158 39.5 51">
  <defs>
    <radialGradient id="grad_1" cx="0.1673" cy="0.1648" r="1.0857599999999998">
      <stop offset="0" stop-color="#FF9400" stop-opacity="1"/>
      <stop offset="1" stop-color="#995900" stop-opacity="1"/>
    </radialGradient>
    <radialGradient id="grad_2" cx="0.102" cy="0.1648" r="1.1674">
      <stop offset="0" stop-color="#FF9400" stop-opacity="1"/>
      <stop offset="1" stop-color="#995900" stop-opacity="1"/>
    </radialGradient>
    <radialGradient id="grad_3" cx="0.1959" cy="0.1791" r="1.06717">
      <stop offset="0" stop-color="#FF9400" stop-opacity="1"/>
      <stop offset="1" stop-color="#995900" stop-opacity="1"/>
    </radialGradient>
    <radialGradient id="grad_4" cx="0.0897" cy="0.1461" r="1.18339">
      <stop offset="0" stop-color="#FF9400" stop-opacity="1"/>
      <stop offset="1" stop-color="#995900" stop-opacity="1"/>
    </radialGradient>
    <radialGradient id="grad_5" cx="0.6333" cy="0.2954" r="0.91598">
      <stop offset="0" stop-color="#003FFF" stop-opacity="1"/>
      <stop offset="1" stop-color="#002699" stop-opacity="1"/>
    </radialGradient>
    <radialGradient id="grad_6" cx="0.466" cy="0.1754" r="1.07198">
      <stop offset="0" stop-color="#003FFF" stop-opacity="1"/>
      <stop offset="1" stop-color="#002699" stop-opacity="1"/>
    </radialGradient>
    <radialGradient id="grad_7" cx="0.6916" cy="0.3453" r="0.89908">
      <stop offset="0" stop-color="#003FFF" stop-opacity="1"/>
      <stop offset="1" stop-color="#002699" stop-opacity="1"/>
    </radialGradient>
    <radialGradient id="grad_8" cx="0.9416" cy="0.2486" r="1.22408">
      <stop offset="0" stop-color="#003FFF" stop-opacity="1"/>
      <stop offset="1" stop-color="#002699" stop-opacity="1"/>
    </radialGradient>
    <radialGradient id="grad_9" cx="0.2842" cy="0.233" r="0.9971">
      <stop offset="0" stop-color="#003FFF" stop-opacity="1"/>
      <stop offset="1" stop-color="#002699" stop-opacity="1"/>
    </radialGradient>
    <radialGradient id="grad_10" cx="0.040999999999999995" cy="0.1319" r="1.2467">
      <stop offset="0" stop-color="#003FFF" stop-opacity="1"/>
      <stop offset="1" stop-color="#002699" stop-opacity="1"/>
    </radialGradient>
  <radialGradient id="grad_1-.35205301017188617,0,0,0.30752428615109295,-64.64587962850929,-35.57874276041984" cx="22.2988" cy="34.7425" r="11.3414" gradientUnits="userSpaceOnUse">
      <stop offset="0" stop-color="#FF9400" stop-opacity="1"/>
      <stop offset="1" stop-color="#995900" stop-opacity="1"/>
    </radialGradient><radialGradient id="grad_3-.35205301017188617,0,0,0.30752428615109295,-70.996554312855,-35.545034296065566" cx="16.0514" cy="34.9675" r="11.1472" gradientUnits="userSpaceOnUse">
      <stop offset="0" stop-color="#FF9400" stop-opacity="1"/>
      <stop offset="1" stop-color="#995900" stop-opacity="1"/>
    </radialGradient><radialGradient id="grad_5-.24587198717915904,-0.0855266097159717,0.06710537705918362,0.3133668238918652,-61.67279307246208,-6.940031445026397" cx="26.5978" cy="20.1875" r="8.9984" gradientUnits="userSpaceOnUse">
      <stop offset="0" stop-color="#003FFF" stop-opacity="1"/>
      <stop offset="1" stop-color="#002699" stop-opacity="1"/>
    </radialGradient><radialGradient id="grad_7-0.24587198717915904,-0.0855266097159717,-0.06710537705918362,0.3133668238918652,102.31888601109385,-6.906322980672121" cx="13.6681" cy="20.8459" r="8.8324" gradientUnits="userSpaceOnUse">
      <stop offset="0" stop-color="#003FFF" stop-opacity="1"/>
      <stop offset="1" stop-color="#002699" stop-opacity="1"/>
    </radialGradient><radialGradient id="grad_9-.2769312097029264,0,0,0.2769312097029264,-45.05452014580369,-27.01005112156272" cx="17.4149" cy="19.4541" r="15.4274" gradientUnits="userSpaceOnUse">
      <stop offset="0" stop-color="#003FFF" stop-opacity="1"/>
      <stop offset="1" stop-color="#002699" stop-opacity="1"/>
    </radialGradient></defs>
  <!-- Exported by Scratch - http://scratch.mit.edu/ -->
  <path id="ID0.5680907857604325" fill="#00FFFF" stroke="#000000" stroke-width="2" d="M 1.25 1.7 L 38.75 1.7 L 38.75 50.7 L 1.25 50.7 L 1.25 1.7 Z "/>
  <g id="ID0.2620258550159633">
    <g id="ID0.9803413534536958">
      <path id="ID0.7297148094512522" fill="#FFDEAE" d="M 11.2497 31.4723 C 11.0669 31.8909 10.7308 32.3029 10.7651 32.7817 C 10.8267 33.642 11.1223 34.4911 11.504 35.2672 C 11.5954 35.4608 11.9335 35.5191 12.0929 35.4001 C 12.2239 35.3087 12.1147 35.0413 12.0859 34.8445 C 12.007 34.3762 11.8076 33.9382 11.74 33.4574 C 11.6964 33.1712 11.6182 32.8528 11.7307 32.5861 C 12.0878 32.175 12.3481 32.2817 12.6022 32.1856 C 13.1454 32.2942 13.2908 31.6613 13.4178 31.1773 C 13.5285 30.7944 13.855 30.278 13.5836 29.971 C 13.2367 29.5714 12.5555 29.4349 12.0308 29.5919 C 11.6909 29.6956 11.7827 30.2682 11.6447 30.589 C 11.5177 30.885 11.3602 31.1596 11.2497 31.4723 Z " stroke-width="0.35681371208096363"/>
      <path id="ID0.7297148094512522" fill="#FFD499" d="M 13.2101 31.2817 C 12.8734 31.1331 12.5099 31.5107 12.1865 31.7025 C 11.937 31.8511 11.6407 31.9972 11.5363 32.2871 C 11.4059 32.6521 11.5474 33.0637 11.5991 33.4504 C 11.654 33.8561 11.6943 34.2807 11.8881 34.6463 C 11.9932 34.8651 12.3266 35.2148 12.4532 35.1192 C 12.6054 35.0035 12.4839 34.5043 12.4325 34.2098 C 12.3542 33.7644 12.1977 33.3326 12.1224 32.8869 C 12.0917 32.7084 12.0418 32.5142 12.1268 32.3695 C 12.2155 32.2351 12.4127 32.1262 12.5621 32.1818 C 12.7257 32.2427 12.7732 32.4632 12.8506 32.6205 C 12.981 32.8855 13.0199 33.1953 13.1642 33.4512 C 13.2529 33.6091 13.3517 33.8221 13.5179 33.8288 C 13.6905 33.8388 13.871 33.6536 13.8825 33.4873 C 13.9097 33.0884 13.7553 32.6986 13.6431 32.3183 C 13.5377 31.9604 13.5599 31.4229 13.2101 31.2817 Z " stroke-width="0.35681371208096363"/>
    </g>
    <g id="ID0.9803413534536958">
      <path id="ID0.7297148094512522" fill="#FFDEAE" d="M 29.5042 31.4385 C 29.6871 31.8572 30.0232 32.2692 29.9889 32.748 C 29.9272 33.6083 29.6317 34.4573 29.25 35.2335 C 29.1586 35.4271 28.8205 35.4854 28.6611 35.3664 C 28.5301 35.275 28.6392 35.0076 28.6681 34.8108 C 28.7469 34.3425 28.9464 33.9045 29.0139 33.4237 C 29.0575 33.1375 29.1357 32.8191 29.0232 32.5524 C 28.6662 32.1413 28.4059 32.248 28.1518 32.1518 C 27.6086 32.2605 27.4631 31.6276 27.3362 31.1436 C 27.2254 30.7607 26.899 30.2443 27.1704 29.9373 C 27.5173 29.5377 28.1984 29.4012 28.7231 29.5582 C 29.063 29.6619 28.9712 30.2345 29.1092 30.5553 C 29.2363 30.8513 29.3937 31.1259 29.5042 31.4385 Z " stroke-width="0.35681371208096363"/>
      <path id="ID0.7297148094512522" fill="#FFD499" d="M 27.5439 31.248 C 27.8806 31.0994 28.2441 31.477 28.5674 31.6688 C 28.8169 31.8174 29.1133 31.9634 29.2177 32.2534 C 29.3481 32.6184 29.2066 33.03 29.1549 33.4166 C 29.1 33.8223 29.0597 34.247 28.8659 34.6126 C 28.7607 34.8314 28.4274 35.1811 28.3008 35.0855 C 28.1486 34.9698 28.27 34.4706 28.3215 34.176 C 28.3998 33.7307 28.5563 33.2989 28.6315 32.8532 C 28.6623 32.6747 28.7122 32.4805 28.6272 32.3358 C 28.5385 32.2014 28.3413 32.0925 28.1919 32.1481 C 28.0283 32.209 27.9807 32.4295 27.9033 32.5867 C 27.7729 32.8518 27.7341 33.1616 27.5898 33.4175 C 27.501 33.5754 27.4022 33.7884 27.2361 33.7951 C 27.0635 33.805 26.883 33.6199 26.8715 33.4536 C 26.8443 33.0547 26.9986 32.6649 27.1109 32.2846 C 27.2163 31.9267 27.1941 31.3892 27.5439 31.248 Z " stroke-width="0.35681371208096363"/>
    </g>
    <g id="ID0.7356321816332638">
      <path id="ID0.8654622961767018" fill="#000000" stroke="#000000" stroke-width="0.5538624194058528" d="M 23.4841 45.8814 C 24.1526 45.8814 24.7585 46.0404 25.1972 46.2974 C 25.6359 46.5543 25.9072 46.9091 25.9072 47.3007 C 25.9072 47.6923 25.5666 48.1248 25.1972 48.304 C 24.6857 48.5519 24.0557 48.4912 23.4703 48.4984 C 22.9078 48.4912 22.2905 48.553 21.771 48.304 C 21.401 48.1262 21.0609 47.6923 21.0609 47.3007 C 21.0609 46.9091 21.3323 46.5543 21.771 46.2974 C 22.2097 46.0404 22.8156 45.8814 23.4841 45.8814 Z "/>
      <path id="ID0.47236768435686827" fill="url(#grad_1-.35205301017188617,0,0,0.30752428615109295,-64.64587962850929,-35.57874276041984)" stroke="url(#grad_2)" stroke-width="0.6610786769270742" d="M 21.6951 32.5379 L 25.3037 32.5379 L 25.3037 45.9152 L 21.6951 45.9152 L 21.6951 32.5379 Z "/>
    </g>
    <g id="ID0.7477488755248487">
      <path id="ID0.8654622961767018" fill="#000000" stroke="#000000" stroke-width="0.5538624194058528" d="M 17.1334 45.9151 C 17.8019 45.9151 18.4079 46.0741 18.8465 46.3311 C 19.2852 46.5881 19.5566 46.9428 19.5566 47.3344 C 19.5566 47.726 19.219 48.1583 18.8465 48.3377 C 18.304 48.5983 17.6496 48.5432 17.0642 48.546 C 16.5004 48.5432 15.9005 48.5869 15.4203 48.3377 C 15.0534 48.1469 14.7103 47.726 14.7103 47.3344 C 14.7103 46.9428 14.9817 46.5881 15.4203 46.3311 C 15.859 46.0741 16.4649 45.9151 17.1334 45.9151 Z "/>
      <path id="ID0.47236768435686827" fill="url(#grad_3-.35205301017188617,0,0,0.30752428615109295,-70.996554312855,-35.545034296065566)" stroke="url(#grad_4)" stroke-width="0.6610786769270742" d="M 15.3444 32.5716 L 18.953 32.5716 L 18.953 45.9489 L 15.3444 45.9489 L 15.3444 32.5716 Z "/>
    </g>
    <path id="ID0.41013610642403364" fill="url(#grad_5-.24587198717915904,-0.0855266097159717,0.06710537705918362,0.3133668238918652,-61.67279307246208,-6.940031445026397)" stroke="url(#grad_6)" d="M 26.3483 15.7934 L 27.095 16.4428 L 30.1704 29.6327 L 26.2365 31.0011 L 25.3372 18.721 L 26.3483 15.7934 Z " stroke-width="0.2906059812415967"/>
    <path id="ID0.41013610642403364" fill="url(#grad_7-0.24587198717915904,-0.0855266097159717,-0.06710537705918362,0.3133668238918652,102.31888601109385,-6.906322980672121)" stroke="url(#grad_8)" d="M 14.2978 15.8271 L 13.5511 16.4765 L 10.4756 29.6664 L 14.4096 31.0348 L 15.3089 18.7547 L 14.2978 15.8271 Z " stroke-width="0.2906059812415967"/>
    <path id="ID0.43916446389630437" fill="url(#grad_9-.2769312097029264,0,0,0.2769312097029264,-45.05452014580369,-27.01005112156272)" stroke="url(#grad_10)" d="M 13.641 16.3158 L 14.2365 15.7066 L 14.998 15.4297 L 25.6322 15.402 L 26.4076 15.6789 L 26.9199 16.2743 L 25.9506 25.7177 L 25.9506 32.7932 L 14.7211 32.7932 L 14.7211 25.6484 L 13.641 16.3158 Z " stroke-width="0.2769312097029264"/>
    <g id="ID0.06994365435093641">
      <g id="ID0.2824689648114145">
        <path id="ID0.8757698251865804" fill="#995900" stroke="#995900" stroke-width="0.12737707413310595" d="M 13.4412 7.1318 L 14.4885 7.2175 L 14.0962 12.01 L 13.0489 11.9242 L 13.4412 7.1318 Z "/>
        <path id="ID0.6422801343724132" fill="none" stroke="#000000" stroke-width="0.12737707413310595" stroke-linecap="round" d="M 13.6613 7.5651 C 13.6613 7.5651 13.8094 7.5923 13.8809 7.6151 C 13.9448 7.6354 14.0016 7.6756 14.0661 7.6941 C 14.1069 7.7058 14.1931 7.7045 14.1931 7.7045 "/>
        <path id="ID0.7584992088377476" fill="none" stroke="#000000" stroke-width="0.12737707413310595" stroke-linecap="round" d="M 13.6385 8.2342 C 13.6385 8.2342 13.8215 8.3131 13.9189 8.3211 C 13.9759 8.3258 14.0828 8.2706 14.0828 8.2706 "/>
        <path id="ID0.40438934741541743" fill="none" stroke="#000000" stroke-width="0.12737707413310595" stroke-linecap="round" d="M 13.6006 9.4772 C 13.7009 9.4216 13.8039 9.3698 13.9019 9.3102 C 13.9275 9.2946 13.9705 9.2519 13.9705 9.2519 "/>
        <path id="ID0.7633831659331918" fill="none" stroke="#000000" stroke-width="0.12737707413310595" stroke-linecap="round" d="M 13.3473 9.8399 C 13.3473 9.8399 13.5568 9.8814 13.6621 9.8976 C 13.704 9.9041 13.7468 9.9045 13.789 9.908 C 13.8419 9.9123 13.8948 9.9167 13.9477 9.921 C 13.9609 9.9221 13.9477 9.921 13.9477 9.921 "/>
        <path id="ID0.8195131137035787" fill="none" stroke="#000000" stroke-width="0.12737707413310595" stroke-linecap="round" d="M 13.4728 10.6489 C 13.4728 10.6489 13.5523 10.7194 13.5919 10.7545 C 13.6316 10.7897 13.6703 10.8263 13.7111 10.8602 C 13.77 10.909 13.8312 10.9552 13.8911 11.0027 C 13.9061 11.0145 13.8911 11.0027 13.8911 11.0027 "/>
        <path id="ID0.923992021009326" fill="none" stroke="#000000" stroke-width="0.12737707413310595" stroke-linecap="round" d="M 13.437 11.4767 C 13.437 11.4767 13.9765 11.5209 13.9765 11.5209 "/>
      </g>
      <g id="ID0.2824689648114145">
        <path id="ID0.8757698251865804" fill="#995900" stroke="#995900" stroke-width="0.12737707129525955" d="M 22.2843 4.1332 L 23.3351 4.1332 L 23.3351 8.9417 L 22.2843 8.9417 L 22.2843 4.1332 Z "/>
        <path id="ID0.6422801343724132" fill="none" stroke="#000000" stroke-width="0.12737707129525955" stroke-linecap="round" d="M 22.539 4.5471 C 22.539 4.5471 22.6889 4.5621 22.7619 4.579 C 22.8273 4.5941 22.8872 4.6295 22.953 4.6427 C 22.9946 4.651 23.0804 4.6427 23.0804 4.6427 "/>
        <path id="ID0.7584992088377476" fill="none" stroke="#000000" stroke-width="0.12737707129525955" stroke-linecap="round" d="M 22.5709 5.2159 C 22.5709 5.2159 22.7597 5.2796 22.8575 5.2796 C 22.9146 5.2796 23.0167 5.2159 23.0167 5.2159 "/>
        <path id="ID0.40438934741541743" fill="none" stroke="#000000" stroke-width="0.12737707129525955" stroke-linecap="round" d="M 22.6346 6.4578 C 22.73 6.3942 22.8284 6.3342 22.9212 6.2667 C 22.9454 6.2491 22.9848 6.203 22.9848 6.203 "/>
        <path id="ID0.7633831659331918" fill="none" stroke="#000000" stroke-width="0.12737707129525955" stroke-linecap="round" d="M 22.4116 6.8399 C 22.4116 6.8399 22.6238 6.8642 22.7301 6.8718 C 22.7724 6.8748 22.815 6.8718 22.8575 6.8718 C 22.9105 6.8718 22.9636 6.8718 23.0167 6.8718 C 23.0299 6.8718 23.0167 6.8718 23.0167 6.8718 "/>
        <path id="ID0.8195131137035787" fill="none" stroke="#000000" stroke-width="0.12737707129525955" stroke-linecap="round" d="M 22.6027 7.636 C 22.6027 7.636 22.6877 7.6998 22.7301 7.7316 C 22.7725 7.7634 22.814 7.7967 22.8575 7.8271 C 22.9201 7.871 22.9849 7.9121 23.0485 7.9545 C 23.0644 7.9651 23.0485 7.9545 23.0485 7.9545 "/>
        <path id="ID0.923992021009326" fill="none" stroke="#000000" stroke-width="0.12737707129525955" stroke-linecap="round" d="M 22.6346 8.464 C 22.6346 8.464 23.1759 8.464 23.1759 8.464 "/>
      </g>
      <g id="ID0.2824689648114145">
        <path id="ID0.8757698251865804" fill="#995900" stroke="#995900" stroke-width="0.12737707129525955" d="M 16.1561 4.841 L 17.2069 4.841 L 17.2069 9.6495 L 16.1561 9.6495 L 16.1561 4.841 Z "/>
        <path id="ID0.6422801343724132" fill="none" stroke="#000000" stroke-width="0.12737707129525955" stroke-linecap="round" d="M 16.4108 5.255 C 16.4108 5.255 16.5607 5.27 16.6337 5.2869 C 16.6991 5.302 16.759 5.3374 16.8248 5.3506 C 16.8664 5.3589 16.9522 5.3506 16.9522 5.3506 "/>
        <path id="ID0.7584992088377476" fill="none" stroke="#000000" stroke-width="0.12737707129525955" stroke-linecap="round" d="M 16.4427 5.9238 C 16.4427 5.9238 16.6315 5.9874 16.7293 5.9874 C 16.7864 5.9874 16.8885 5.9238 16.8885 5.9238 "/>
        <path id="ID0.40438934741541743" fill="none" stroke="#000000" stroke-width="0.12737707129525955" stroke-linecap="round" d="M 16.5064 7.1657 C 16.6018 7.1021 16.7002 7.0421 16.793 6.9746 C 16.8172 6.957 16.8566 6.9109 16.8566 6.9109 "/>
        <path id="ID0.7633831659331918" fill="none" stroke="#000000" stroke-width="0.12737707129525955" stroke-linecap="round" d="M 16.2834 7.5478 C 16.2834 7.5478 16.4956 7.5721 16.6019 7.5797 C 16.6442 7.5827 16.6868 7.5797 16.7293 7.5797 C 16.7823 7.5797 16.8354 7.5797 16.8885 7.5797 C 16.9017 7.5797 16.8885 7.5797 16.8885 7.5797 "/>
        <path id="ID0.8195131137035787" fill="none" stroke="#000000" stroke-width="0.12737707129525955" stroke-linecap="round" d="M 16.4745 8.3439 C 16.4745 8.3439 16.5595 8.4077 16.6019 8.4395 C 16.6443 8.4712 16.6858 8.5046 16.7293 8.535 C 16.7919 8.5789 16.8567 8.6199 16.9203 8.6624 C 16.9363 8.6729 16.9203 8.6624 16.9203 8.6624 "/>
        <path id="ID0.923992021009326" fill="none" stroke="#000000" stroke-width="0.12737707129525955" stroke-linecap="round" d="M 16.5064 9.1719 C 16.5064 9.1719 17.0477 9.1719 17.0477 9.1719 "/>
      </g>
      <g id="ID0.2824689648114145">
        <path id="ID0.8757698251865804" fill="#995900" stroke="#995900" stroke-width="0.12737707129525955" d="M 15.0302 5.5017 L 16.0811 5.5017 L 16.0811 10.3102 L 15.0302 10.3102 L 15.0302 5.5017 Z "/>
        <path id="ID0.6422801343724132" fill="none" stroke="#000000" stroke-width="0.12737707129525955" stroke-linecap="round" d="M 15.285 5.9157 C 15.285 5.9157 15.4348 5.9307 15.5079 5.9476 C 15.5732 5.9626 15.6331 5.9981 15.6989 6.0112 C 15.7405 6.0196 15.8263 6.0112 15.8263 6.0112 "/>
        <path id="ID0.7584992088377476" fill="none" stroke="#000000" stroke-width="0.12737707129525955" stroke-linecap="round" d="M 15.3168 6.5844 C 15.3168 6.5844 15.5056 6.6481 15.6034 6.6481 C 15.6605 6.6481 15.7626 6.5844 15.7626 6.5844 "/>
        <path id="ID0.40438934741541743" fill="none" stroke="#000000" stroke-width="0.12737707129525955" stroke-linecap="round" d="M 15.3805 7.8264 C 15.4759 7.7627 15.5743 7.7027 15.6671 7.6353 C 15.6914 7.6177 15.7308 7.5716 15.7308 7.5716 "/>
        <path id="ID0.7633831659331918" fill="none" stroke="#000000" stroke-width="0.12737707129525955" stroke-linecap="round" d="M 15.1576 8.2085 C 15.1576 8.2085 15.3697 8.2328 15.476 8.2403 C 15.5183 8.2433 15.561 8.2403 15.6034 8.2403 C 15.6565 8.2403 15.7096 8.2403 15.7626 8.2403 C 15.7759 8.2403 15.7626 8.2403 15.7626 8.2403 "/>
        <path id="ID0.8195131137035787" fill="none" stroke="#000000" stroke-width="0.12737707129525955" stroke-linecap="round" d="M 15.3486 9.0046 C 15.3486 9.0046 15.4336 9.0684 15.476 9.1001 C 15.5184 9.1319 15.56 9.1653 15.6034 9.1957 C 15.6661 9.2396 15.7308 9.2806 15.7945 9.323 C 15.8104 9.3336 15.7945 9.323 15.7945 9.323 "/>
        <path id="ID0.923992021009326" fill="none" stroke="#000000" stroke-width="0.12737707129525955" stroke-linecap="round" d="M 15.3805 9.8326 C 15.3805 9.8326 15.9218 9.8326 15.9218 9.8326 "/>
      </g>
      <g id="ID0.2824689648114145">
        <path id="ID0.8757698251865804" fill="#995900" stroke="#995900" stroke-width="0.12737707439377" d="M 26.0046 6.971 L 27.0492 6.8571 L 27.5702 11.6373 L 26.5255 11.7511 L 26.0046 6.971 Z "/>
        <path id="ID0.6422801343724132" fill="none" stroke="#000000" stroke-width="0.12737707439377" stroke-linecap="round" d="M 26.3027 7.3549 C 26.3027 7.3549 26.4533 7.3535 26.5277 7.3624 C 26.5943 7.3703 26.6577 7.399 26.7245 7.405 C 26.7668 7.4088 26.8512 7.3912 26.8512 7.3912 "/>
        <path id="ID0.7584992088377476" fill="none" stroke="#000000" stroke-width="0.12737707439377" stroke-linecap="round" d="M 26.4068 8.0162 C 26.4068 8.0162 26.6014 8.0591 26.6986 8.0485 C 26.7554 8.0423 26.85 7.9679 26.85 7.9679 "/>
        <path id="ID0.40438934741541743" fill="none" stroke="#000000" stroke-width="0.12737707439377" stroke-linecap="round" d="M 26.6046 9.2439 C 26.6926 9.1704 26.7839 9.1001 26.8689 9.023 C 26.8911 9.0028 26.9253 8.9527 26.9253 8.9527 "/>
        <path id="ID0.7633831659331918" fill="none" stroke="#000000" stroke-width="0.12737707439377" stroke-linecap="round" d="M 26.4244 9.648 C 26.4244 9.648 26.638 9.6491 26.7445 9.6451 C 26.7868 9.6435 26.8289 9.6359 26.8711 9.6313 C 26.9238 9.6256 26.9766 9.6198 27.0294 9.6141 C 27.0425 9.6126 27.0294 9.6141 27.0294 9.6141 "/>
        <path id="ID0.8195131137035787" fill="none" stroke="#000000" stroke-width="0.12737707439377" stroke-linecap="round" d="M 26.7006 10.4187 C 26.7006 10.4187 26.792 10.4729 26.8376 10.4999 C 26.8832 10.5269 26.9281 10.5555 26.9746 10.581 C 27.0417 10.6179 27.1105 10.6517 27.1783 10.687 C 27.1953 10.6957 27.1783 10.687 27.1783 10.687 "/>
        <path id="ID0.923992021009326" fill="none" stroke="#000000" stroke-width="0.12737707439377" stroke-linecap="round" d="M 26.822 11.2383 C 26.822 11.2383 27.3602 11.1797 27.3602 11.1797 "/>
      </g>
      <g id="ID0.2824689648114145">
        <path id="ID0.8757698251865804" fill="#995900" stroke="#995900" stroke-width="0.12737707129525955" d="M 13.938 6.3579 L 14.9889 6.3579 L 14.9889 11.1664 L 13.938 11.1664 L 13.938 6.3579 Z "/>
        <path id="ID0.6422801343724132" fill="none" stroke="#000000" stroke-width="0.12737707129525955" stroke-linecap="round" d="M 14.1928 6.7719 C 14.1928 6.7719 14.3427 6.7869 14.4157 6.8038 C 14.4811 6.8188 14.541 6.8543 14.6068 6.8674 C 14.6484 6.8758 14.7342 6.8674 14.7342 6.8674 "/>
        <path id="ID0.7584992088377476" fill="none" stroke="#000000" stroke-width="0.12737707129525955" stroke-linecap="round" d="M 14.2246 7.4406 C 14.2246 7.4406 14.4135 7.5043 14.5112 7.5043 C 14.5684 7.5043 14.6705 7.4406 14.6705 7.4406 "/>
        <path id="ID0.40438934741541743" fill="none" stroke="#000000" stroke-width="0.12737707129525955" stroke-linecap="round" d="M 14.2883 8.6826 C 14.3837 8.6189 14.4821 8.5589 14.5749 8.4915 C 14.5992 8.4739 14.6386 8.4278 14.6386 8.4278 "/>
        <path id="ID0.7633831659331918" fill="none" stroke="#000000" stroke-width="0.12737707129525955" stroke-linecap="round" d="M 14.0654 9.0647 C 14.0654 9.0647 14.2776 9.089 14.3839 9.0965 C 14.4262 9.0995 14.4688 9.0965 14.5112 9.0965 C 14.5643 9.0965 14.6174 9.0965 14.6705 9.0965 C 14.6837 9.0965 14.6705 9.0965 14.6705 9.0965 "/>
        <path id="ID0.8195131137035787" fill="none" stroke="#000000" stroke-width="0.12737707129525955" stroke-linecap="round" d="M 14.2565 9.8608 C 14.2565 9.8608 14.3415 9.9246 14.3839 9.9563 C 14.4263 9.9881 14.4678 10.0215 14.5112 10.0519 C 14.5739 10.0957 14.6387 10.1368 14.7023 10.1792 C 14.7182 10.1898 14.7023 10.1792 14.7023 10.1792 "/>
        <path id="ID0.923992021009326" fill="none" stroke="#000000" stroke-width="0.12737707129525955" stroke-linecap="round" d="M 14.2883 10.6888 C 14.2883 10.6888 14.8297 10.6888 14.8297 10.6888 "/>
      </g>
      <g id="ID0.2824689648114145">
        <path id="ID0.8757698251865804" fill="#995900" stroke="#995900" stroke-width="0.12737707129525955" d="M 23.4101 4.7534 L 24.461 4.7534 L 24.461 9.5619 L 23.4101 9.5619 L 23.4101 4.7534 Z "/>
        <path id="ID0.6422801343724132" fill="none" stroke="#000000" stroke-width="0.12737707129525955" stroke-linecap="round" d="M 23.6649 5.1674 C 23.6649 5.1674 23.8147 5.1824 23.8878 5.1992 C 23.9531 5.2143 24.0131 5.2497 24.0789 5.2629 C 24.1204 5.2713 24.2062 5.2629 24.2062 5.2629 "/>
        <path id="ID0.7584992088377476" fill="none" stroke="#000000" stroke-width="0.12737707129525955" stroke-linecap="round" d="M 23.6967 5.8361 C 23.6967 5.8361 23.8856 5.8998 23.9833 5.8998 C 24.0405 5.8998 24.1425 5.8361 24.1425 5.8361 "/>
        <path id="ID0.40438934741541743" fill="none" stroke="#000000" stroke-width="0.12737707129525955" stroke-linecap="round" d="M 23.7604 7.078 C 23.8558 7.0144 23.9542 6.9544 24.047 6.887 C 24.0713 6.8693 24.1107 6.8233 24.1107 6.8233 "/>
        <path id="ID0.7633831659331918" fill="none" stroke="#000000" stroke-width="0.12737707129525955" stroke-linecap="round" d="M 23.5375 7.4602 C 23.5375 7.4602 23.7497 7.4844 23.8559 7.492 C 23.8982 7.495 23.9409 7.492 23.9833 7.492 C 24.0364 7.492 24.0895 7.492 24.1425 7.492 C 24.1558 7.492 24.1425 7.492 24.1425 7.492 "/>
        <path id="ID0.8195131137035787" fill="none" stroke="#000000" stroke-width="0.12737707129525955" stroke-linecap="round" d="M 23.7286 8.2563 C 23.7286 8.2563 23.8135 8.32 23.8559 8.3518 C 23.8984 8.3836 23.9399 8.417 23.9833 8.4473 C 24.046 8.4912 24.1108 8.5323 24.1744 8.5747 C 24.1903 8.5853 24.1744 8.5747 24.1744 8.5747 "/>
        <path id="ID0.923992021009326" fill="none" stroke="#000000" stroke-width="0.12737707129525955" stroke-linecap="round" d="M 23.7604 9.0842 C 23.7604 9.0842 24.3018 9.0842 24.3018 9.0842 "/>
      </g>
      <g id="ID0.2824689648114145">
        <path id="ID0.8757698251865804" fill="#995900" stroke="#995900" stroke-width="0.12737707129525955" d="M 24.4753 5.522 L 25.5262 5.522 L 25.5262 10.3304 L 24.4753 10.3304 L 24.4753 5.522 Z "/>
        <path id="ID0.6422801343724132" fill="none" stroke="#000000" stroke-width="0.12737707129525955" stroke-linecap="round" d="M 24.7301 5.9359 C 24.7301 5.9359 24.8799 5.9509 24.953 5.9678 C 25.0183 5.9829 25.0783 6.0183 25.144 6.0315 C 25.1856 6.0398 25.2714 6.0315 25.2714 6.0315 "/>
        <path id="ID0.7584992088377476" fill="none" stroke="#000000" stroke-width="0.12737707129525955" stroke-linecap="round" d="M 24.7619 6.6047 C 24.7619 6.6047 24.9508 6.6684 25.0485 6.6684 C 25.1056 6.6684 25.2077 6.6047 25.2077 6.6047 "/>
        <path id="ID0.40438934741541743" fill="none" stroke="#000000" stroke-width="0.12737707129525955" stroke-linecap="round" d="M 24.8256 7.8466 C 24.921 7.783 25.0194 7.723 25.1122 7.6555 C 25.1365 7.6379 25.1759 7.5918 25.1759 7.5918 "/>
        <path id="ID0.7633831659331918" fill="none" stroke="#000000" stroke-width="0.12737707129525955" stroke-linecap="round" d="M 24.6027 8.2287 C 24.6027 8.2287 24.8148 8.253 24.9211 8.2606 C 24.9634 8.2636 25.0061 8.2606 25.0485 8.2606 C 25.1016 8.2606 25.1547 8.2606 25.2077 8.2606 C 25.221 8.2606 25.2077 8.2606 25.2077 8.2606 "/>
        <path id="ID0.8195131137035787" fill="none" stroke="#000000" stroke-width="0.12737707129525955" stroke-linecap="round" d="M 24.7938 9.0248 C 24.7938 9.0248 24.8787 9.0886 24.9211 9.1204 C 24.9636 9.1521 25.0051 9.1855 25.0485 9.2159 C 25.1112 9.2598 25.176 9.3009 25.2396 9.3433 C 25.2555 9.3538 25.2396 9.3433 25.2396 9.3433 "/>
        <path id="ID0.923992021009326" fill="none" stroke="#000000" stroke-width="0.12737707129525955" stroke-linecap="round" d="M 24.8256 9.8528 C 24.8256 9.8528 25.367 9.8528 25.367 9.8528 "/>
      </g>
      <g id="ID0.2824689648114145">
        <path id="ID0.8757698251865804" fill="#995900" stroke="#995900" stroke-width="0.12737707129525955" d="M 21.2393 3.7893 L 22.2902 3.7893 L 22.2902 8.5978 L 21.2393 8.5978 L 21.2393 3.7893 Z "/>
        <path id="ID0.6422801343724132" fill="none" stroke="#000000" stroke-width="0.12737707129525955" stroke-linecap="round" d="M 21.4941 4.2033 C 21.4941 4.2033 21.6439 4.2183 21.717 4.2352 C 21.7823 4.2503 21.8422 4.2857 21.908 4.2989 C 21.9496 4.3072 22.0354 4.2989 22.0354 4.2989 "/>
        <path id="ID0.7584992088377476" fill="none" stroke="#000000" stroke-width="0.12737707129525955" stroke-linecap="round" d="M 21.5259 4.8721 C 21.5259 4.8721 21.7147 4.9357 21.8125 4.9357 C 21.8696 4.9357 21.9717 4.8721 21.9717 4.8721 "/>
        <path id="ID0.40438934741541743" fill="none" stroke="#000000" stroke-width="0.12737707129525955" stroke-linecap="round" d="M 21.5896 6.114 C 21.685 6.0504 21.7834 5.9904 21.8762 5.9229 C 21.9005 5.9053 21.9399 5.8592 21.9399 5.8592 "/>
        <path id="ID0.7633831659331918" fill="none" stroke="#000000" stroke-width="0.12737707129525955" stroke-linecap="round" d="M 21.3667 6.4961 C 21.3667 6.4961 21.5788 6.5204 21.6851 6.528 C 21.7274 6.5309 21.7701 6.528 21.8125 6.528 C 21.8656 6.528 21.9187 6.528 21.9717 6.528 C 21.985 6.528 21.9717 6.528 21.9717 6.528 "/>
        <path id="ID0.8195131137035787" fill="none" stroke="#000000" stroke-width="0.12737707129525955" stroke-linecap="round" d="M 21.5577 7.2922 C 21.5577 7.2922 21.6427 7.356 21.6851 7.3877 C 21.7275 7.4195 21.7691 7.4529 21.8125 7.4833 C 21.8752 7.5272 21.9399 7.5682 22.0036 7.6107 C 22.0195 7.6212 22.0036 7.6107 22.0036 7.6107 "/>
        <path id="ID0.923992021009326" fill="none" stroke="#000000" stroke-width="0.12737707129525955" stroke-linecap="round" d="M 21.5896 8.1202 C 21.5896 8.1202 22.1309 8.1202 22.1309 8.1202 "/>
      </g>
      <g id="ID0.2824689648114145">
        <path id="ID0.8757698251865804" fill="#995900" stroke="#995900" stroke-width="0.12737707129525955" d="M 19.1426 3.5601 L 20.1935 3.5601 L 20.1935 8.3686 L 19.1426 8.3686 L 19.1426 3.5601 Z "/>
        <path id="ID0.6422801343724132" fill="none" stroke="#000000" stroke-width="0.12737707129525955" stroke-linecap="round" d="M 19.3974 3.9741 C 19.3974 3.9741 19.5472 3.9891 19.6203 4.0059 C 19.6856 4.021 19.7456 4.0565 19.8114 4.0696 C 19.853 4.078 19.9387 4.0696 19.9387 4.0696 "/>
        <path id="ID0.7584992088377476" fill="none" stroke="#000000" stroke-width="0.12737707129525955" stroke-linecap="round" d="M 19.4292 4.6428 C 19.4292 4.6428 19.6181 4.7065 19.7158 4.7065 C 19.773 4.7065 19.8751 4.6428 19.8751 4.6428 "/>
        <path id="ID0.40438934741541743" fill="none" stroke="#000000" stroke-width="0.12737707129525955" stroke-linecap="round" d="M 19.4929 5.8848 C 19.5883 5.8211 19.6867 5.7611 19.7795 5.6937 C 19.8038 5.6761 19.8432 5.63 19.8432 5.63 "/>
        <path id="ID0.7633831659331918" fill="none" stroke="#000000" stroke-width="0.12737707129525955" stroke-linecap="round" d="M 19.27 6.2669 C 19.27 6.2669 19.4822 6.2912 19.5885 6.2987 C 19.6307 6.3017 19.6734 6.2987 19.7158 6.2987 C 19.7689 6.2987 19.822 6.2987 19.8751 6.2987 C 19.8883 6.2987 19.8751 6.2987 19.8751 6.2987 "/>
        <path id="ID0.8195131137035787" fill="none" stroke="#000000" stroke-width="0.12737707129525955" stroke-linecap="round" d="M 19.4611 7.063 C 19.4611 7.063 19.546 7.1267 19.5885 7.1585 C 19.6309 7.1903 19.6724 7.2237 19.7158 7.2541 C 19.7785 7.2979 19.8433 7.339 19.9069 7.3814 C 19.9228 7.392 19.9069 7.3814 19.9069 7.3814 "/>
        <path id="ID0.923992021009326" fill="none" stroke="#000000" stroke-width="0.12737707129525955" stroke-linecap="round" d="M 19.4929 7.8909 C 19.4929 7.8909 20.0343 7.8909 20.0343 7.8909 "/>
      </g>
      <g id="ID0.2824689648114145">
        <path id="ID0.8757698251865804" fill="#995900" stroke="#995900" stroke-width="0.12737707129525955" d="M 18.1583 3.8231 L 19.2092 3.8231 L 19.2092 8.6315 L 18.1583 8.6315 L 18.1583 3.8231 Z "/>
        <path id="ID0.6422801343724132" fill="none" stroke="#000000" stroke-width="0.12737707129525955" stroke-linecap="round" d="M 18.4131 4.237 C 18.4131 4.237 18.563 4.252 18.636 4.2689 C 18.7014 4.284 18.7613 4.3194 18.8271 4.3326 C 18.8687 4.3409 18.9545 4.3326 18.9545 4.3326 "/>
        <path id="ID0.7584992088377476" fill="none" stroke="#000000" stroke-width="0.12737707129525955" stroke-linecap="round" d="M 18.4449 4.9058 C 18.4449 4.9058 18.6338 4.9694 18.7315 4.9694 C 18.7887 4.9694 18.8908 4.9058 18.8908 4.9058 "/>
        <path id="ID0.40438934741541743" fill="none" stroke="#000000" stroke-width="0.12737707129525955" stroke-linecap="round" d="M 18.5086 6.1477 C 18.604 6.0841 18.7024 6.0241 18.7952 5.9566 C 18.8195 5.939 18.8589 5.8929 18.8589 5.8929 "/>
        <path id="ID0.7633831659331918" fill="none" stroke="#000000" stroke-width="0.12737707129525955" stroke-linecap="round" d="M 18.2857 6.5298 C 18.2857 6.5298 18.4979 6.5541 18.6042 6.5617 C 18.6465 6.5647 18.6891 6.5617 18.7315 6.5617 C 18.7846 6.5617 18.8377 6.5617 18.8908 6.5617 C 18.904 6.5617 18.8908 6.5617 18.8908 6.5617 "/>
        <path id="ID0.8195131137035787" fill="none" stroke="#000000" stroke-width="0.12737707129525955" stroke-linecap="round" d="M 18.4768 7.3259 C 18.4768 7.3259 18.5618 7.3897 18.6042 7.4215 C 18.6466 7.4532 18.6881 7.4866 18.7315 7.517 C 18.7942 7.5609 18.859 7.6019 18.9226 7.6444 C 18.9385 7.6549 18.9226 7.6444 18.9226 7.6444 "/>
        <path id="ID0.923992021009326" fill="none" stroke="#000000" stroke-width="0.12737707129525955" stroke-linecap="round" d="M 18.5086 8.1539 C 18.5086 8.1539 19.05 8.1539 19.05 8.1539 "/>
      </g>
      <g id="ID0.2824689648114145">
        <path id="ID0.8757698251865804" fill="#995900" stroke="#995900" stroke-width="0.12737707129525955" d="M 17.0999 4.3759 L 18.1508 4.3759 L 18.1508 9.1844 L 17.0999 9.1844 L 17.0999 4.3759 Z "/>
        <path id="ID0.6422801343724132" fill="none" stroke="#000000" stroke-width="0.12737707129525955" stroke-linecap="round" d="M 17.3547 4.7898 C 17.3547 4.7898 17.5045 4.8048 17.5776 4.8217 C 17.6429 4.8368 17.7028 4.8722 17.7686 4.8854 C 17.8102 4.8937 17.896 4.8854 17.896 4.8854 "/>
        <path id="ID0.7584992088377476" fill="none" stroke="#000000" stroke-width="0.12737707129525955" stroke-linecap="round" d="M 17.3865 5.4586 C 17.3865 5.4586 17.5753 5.5223 17.6731 5.5223 C 17.7302 5.5223 17.8323 5.4586 17.8323 5.4586 "/>
        <path id="ID0.40438934741541743" fill="none" stroke="#000000" stroke-width="0.12737707129525955" stroke-linecap="round" d="M 17.4502 6.7005 C 17.5456 6.6369 17.644 6.5769 17.7368 6.5094 C 17.7611 6.4918 17.8005 6.4458 17.8005 6.4458 "/>
        <path id="ID0.7633831659331918" fill="none" stroke="#000000" stroke-width="0.12737707129525955" stroke-linecap="round" d="M 17.2273 7.0826 C 17.2273 7.0826 17.4394 7.1069 17.5457 7.1145 C 17.588 7.1175 17.6307 7.1145 17.6731 7.1145 C 17.7262 7.1145 17.7793 7.1145 17.8323 7.1145 C 17.8456 7.1145 17.8323 7.1145 17.8323 7.1145 "/>
        <path id="ID0.8195131137035787" fill="none" stroke="#000000" stroke-width="0.12737707129525955" stroke-linecap="round" d="M 17.4183 7.8787 C 17.4183 7.8787 17.5033 7.9425 17.5457 7.9743 C 17.5881 8.0061 17.6297 8.0394 17.6731 8.0698 C 17.7358 8.1137 17.8005 8.1548 17.8642 8.1972 C 17.8801 8.2078 17.8642 8.1972 17.8642 8.1972 "/>
        <path id="ID0.923992021009326" fill="none" stroke="#000000" stroke-width="0.12737707129525955" stroke-linecap="round" d="M 17.4502 8.7067 C 17.4502 8.7067 17.9915 8.7067 17.9915 8.7067 "/>
      </g>
      <g id="ID0.2824689648114145">
        <path id="ID0.8757698251865804" fill="#995900" stroke="#995900" stroke-width="0.12737707129525955" d="M 20.2415 3.5804 L 21.2924 3.5804 L 21.2924 8.3888 L 20.2415 8.3888 L 20.2415 3.5804 Z "/>
        <path id="ID0.6422801343724132" fill="none" stroke="#000000" stroke-width="0.12737707129525955" stroke-linecap="round" d="M 20.4963 3.9943 C 20.4963 3.9943 20.6461 4.0093 20.7192 4.0262 C 20.7845 4.0413 20.8445 4.0767 20.9103 4.0899 C 20.9519 4.0982 21.0376 4.0899 21.0376 4.0899 "/>
        <path id="ID0.7584992088377476" fill="none" stroke="#000000" stroke-width="0.12737707129525955" stroke-linecap="round" d="M 20.5281 4.6631 C 20.5281 4.6631 20.717 4.7267 20.8147 4.7267 C 20.8719 4.7267 20.974 4.6631 20.974 4.6631 "/>
        <path id="ID0.40438934741541743" fill="none" stroke="#000000" stroke-width="0.12737707129525955" stroke-linecap="round" d="M 20.5918 5.905 C 20.6872 5.8414 20.7856 5.7814 20.8784 5.7139 C 20.9027 5.6963 20.9421 5.6502 20.9421 5.6502 "/>
        <path id="ID0.7633831659331918" fill="none" stroke="#000000" stroke-width="0.12737707129525955" stroke-linecap="round" d="M 20.3689 6.2871 C 20.3689 6.2871 20.5811 6.3114 20.6874 6.319 C 20.7296 6.322 20.7723 6.319 20.8147 6.319 C 20.8678 6.319 20.9209 6.319 20.974 6.319 C 20.9872 6.319 20.974 6.319 20.974 6.319 "/>
        <path id="ID0.8195131137035787" fill="none" stroke="#000000" stroke-width="0.12737707129525955" stroke-linecap="round" d="M 20.56 7.0832 C 20.56 7.0832 20.6449 7.147 20.6874 7.1788 C 20.7298 7.2105 20.7713 7.2439 20.8147 7.2743 C 20.8774 7.3182 20.9422 7.3592 21.0058 7.4017 C 21.0217 7.4122 21.0058 7.4017 21.0058 7.4017 "/>
        <path id="ID0.923992021009326" fill="none" stroke="#000000" stroke-width="0.12737707129525955" stroke-linecap="round" d="M 20.5918 7.9112 C 20.5918 7.9112 21.1332 7.9112 21.1332 7.9112 "/>
      </g>
      <g id="ID0.2824689648114145">
        <path id="ID0.8757698251865804" fill="#995900" stroke="#995900" stroke-width="0.12737707129525955" d="M 25.5675 6.2029 L 26.6183 6.2029 L 26.6183 11.0114 L 25.5675 11.0114 L 25.5675 6.2029 Z "/>
        <path id="ID0.6422801343724132" fill="none" stroke="#000000" stroke-width="0.12737707129525955" stroke-linecap="round" d="M 25.8222 6.6168 C 25.8222 6.6168 25.9721 6.6318 26.0451 6.6487 C 26.1105 6.6638 26.1704 6.6992 26.2362 6.7124 C 26.2778 6.7207 26.3636 6.7124 26.3636 6.7124 "/>
        <path id="ID0.7584992088377476" fill="none" stroke="#000000" stroke-width="0.12737707129525955" stroke-linecap="round" d="M 25.8541 7.2856 C 25.8541 7.2856 26.0429 7.3493 26.1407 7.3493 C 26.1978 7.3493 26.2999 7.2856 26.2999 7.2856 "/>
        <path id="ID0.40438934741541743" fill="none" stroke="#000000" stroke-width="0.12737707129525955" stroke-linecap="round" d="M 25.9178 8.5275 C 26.0132 8.4639 26.1116 8.4039 26.2044 8.3364 C 26.2286 8.3188 26.268 8.2727 26.268 8.2727 "/>
        <path id="ID0.7633831659331918" fill="none" stroke="#000000" stroke-width="0.12737707129525955" stroke-linecap="round" d="M 25.6948 8.9096 C 25.6948 8.9096 25.907 8.9339 26.0133 8.9415 C 26.0556 8.9445 26.0982 8.9415 26.1407 8.9415 C 26.1937 8.9415 26.2468 8.9415 26.2999 8.9415 C 26.3131 8.9415 26.2999 8.9415 26.2999 8.9415 "/>
        <path id="ID0.8195131137035787" fill="none" stroke="#000000" stroke-width="0.12737707129525955" stroke-linecap="round" d="M 25.8859 9.7057 C 25.8859 9.7057 25.9709 9.7695 26.0133 9.8013 C 26.0557 9.8331 26.0972 9.8664 26.1407 9.8968 C 26.2033 9.9407 26.2681 9.9818 26.3317 10.0242 C 26.3477 10.0348 26.3317 10.0242 26.3317 10.0242 "/>
        <path id="ID0.923992021009326" fill="none" stroke="#000000" stroke-width="0.12737707129525955" stroke-linecap="round" d="M 25.9178 10.5337 C 25.9178 10.5337 26.4591 10.5337 26.4591 10.5337 "/>
      </g>
      <g id="ID0.2824689648114145">
        <path id="ID0.8757698251865804" fill="#995900" stroke="#995900" stroke-width="0.12737707129525955" d="M 22.3112 16.4705 L 23.3621 16.4705 L 23.3621 11.662 L 22.3112 11.662 L 22.3112 16.4705 Z "/>
        <path id="ID0.6422801343724132" fill="none" stroke="#000000" stroke-width="0.12737707129525955" stroke-linecap="round" d="M 22.566 16.0565 C 22.566 16.0565 22.7158 16.0416 22.7889 16.0247 C 22.8542 16.0096 22.9142 15.9742 22.98 15.961 C 23.0216 15.9527 23.1073 15.961 23.1073 15.961 "/>
        <path id="ID0.7584992088377476" fill="none" stroke="#000000" stroke-width="0.12737707129525955" stroke-linecap="round" d="M 22.5978 15.3878 C 22.5978 15.3878 22.7867 15.3241 22.8844 15.3241 C 22.9416 15.3241 23.0437 15.3878 23.0437 15.3878 "/>
        <path id="ID0.40438934741541743" fill="none" stroke="#000000" stroke-width="0.12737707129525955" stroke-linecap="round" d="M 22.6615 14.1459 C 22.7569 14.2095 22.8553 14.2695 22.9481 14.337 C 22.9724 14.3546 23.0118 14.4006 23.0118 14.4006 "/>
        <path id="ID0.7633831659331918" fill="none" stroke="#000000" stroke-width="0.12737707129525955" stroke-linecap="round" d="M 22.4386 13.7638 C 22.4386 13.7638 22.6508 13.7395 22.7571 13.7319 C 22.7993 13.7289 22.842 13.7319 22.8844 13.7319 C 22.9375 13.7319 22.9906 13.7319 23.0437 13.7319 C 23.0569 13.7319 23.0437 13.7319 23.0437 13.7319 "/>
        <path id="ID0.8195131137035787" fill="none" stroke="#000000" stroke-width="0.12737707129525955" stroke-linecap="round" d="M 22.6297 12.9677 C 22.6297 12.9677 22.7146 12.9039 22.7571 12.8721 C 22.7995 12.8403 22.841 12.807 22.8844 12.7766 C 22.9471 12.7327 23.0119 12.6916 23.0755 12.6492 C 23.0914 12.6386 23.0755 12.6492 23.0755 12.6492 "/>
        <path id="ID0.923992021009326" fill="none" stroke="#000000" stroke-width="0.12737707129525955" stroke-linecap="round" d="M 22.6615 12.1397 C 22.6615 12.1397 23.2029 12.1397 23.2029 12.1397 "/>
      </g>
      <g id="ID0.2824689648114145">
        <path id="ID0.8757698251865804" fill="#995900" stroke="#995900" stroke-width="0.12737707129525955" d="M 16.1898 15.7559 L 17.2406 15.7559 L 17.2406 10.9474 L 16.1898 10.9474 L 16.1898 15.7559 Z "/>
        <path id="ID0.6422801343724132" fill="none" stroke="#000000" stroke-width="0.12737707129525955" stroke-linecap="round" d="M 16.4445 15.3419 C 16.4445 15.3419 16.5944 15.327 16.6674 15.3101 C 16.7328 15.295 16.7927 15.2596 16.8585 15.2464 C 16.9001 15.2381 16.9859 15.2464 16.9859 15.2464 "/>
        <path id="ID0.7584992088377476" fill="none" stroke="#000000" stroke-width="0.12737707129525955" stroke-linecap="round" d="M 16.4764 14.6732 C 16.4764 14.6732 16.6652 14.6095 16.763 14.6095 C 16.8201 14.6095 16.9222 14.6732 16.9222 14.6732 "/>
        <path id="ID0.40438934741541743" fill="none" stroke="#000000" stroke-width="0.12737707129525955" stroke-linecap="round" d="M 16.5401 13.4313 C 16.6355 13.4949 16.7339 13.5549 16.8267 13.6223 C 16.8509 13.64 16.8903 13.686 16.8903 13.686 "/>
        <path id="ID0.7633831659331918" fill="none" stroke="#000000" stroke-width="0.12737707129525955" stroke-linecap="round" d="M 16.3172 13.0491 C 16.3172 13.0491 16.5293 13.0249 16.6356 13.0173 C 16.6779 13.0143 16.7206 13.0173 16.763 13.0173 C 16.816 13.0173 16.8691 13.0173 16.9222 13.0173 C 16.9354 13.0173 16.9222 13.0173 16.9222 13.0173 "/>
        <path id="ID0.8195131137035787" fill="none" stroke="#000000" stroke-width="0.12737707129525955" stroke-linecap="round" d="M 16.5082 12.253 C 16.5082 12.253 16.5932 12.1893 16.6356 12.1575 C 16.678 12.1257 16.7195 12.0923 16.763 12.062 C 16.8256 12.0181 16.8904 11.977 16.954 11.9346 C 16.97 11.924 16.954 11.9346 16.954 11.9346 "/>
        <path id="ID0.923992021009326" fill="none" stroke="#000000" stroke-width="0.12737707129525955" stroke-linecap="round" d="M 16.5401 11.4251 C 16.5401 11.4251 17.0814 11.4251 17.0814 11.4251 "/>
      </g>
      <g id="ID0.2824689648114145">
        <path id="ID0.8757698251865804" fill="#995900" stroke="#995900" stroke-width="0.12737707129525955" d="M 15.0639 15.102 L 16.1148 15.102 L 16.1148 10.2935 L 15.0639 10.2935 L 15.0639 15.102 Z "/>
        <path id="ID0.6422801343724132" fill="none" stroke="#000000" stroke-width="0.12737707129525955" stroke-linecap="round" d="M 15.3187 14.688 C 15.3187 14.688 15.4685 14.673 15.5416 14.6561 C 15.6069 14.641 15.6669 14.6056 15.7326 14.5925 C 15.7742 14.5841 15.86 14.5925 15.86 14.5925 "/>
        <path id="ID0.7584992088377476" fill="none" stroke="#000000" stroke-width="0.12737707129525955" stroke-linecap="round" d="M 15.3505 14.0193 C 15.3505 14.0193 15.5393 13.9556 15.6371 13.9556 C 15.6942 13.9556 15.7963 14.0193 15.7963 14.0193 "/>
        <path id="ID0.40438934741541743" fill="none" stroke="#000000" stroke-width="0.12737707129525955" stroke-linecap="round" d="M 15.4142 12.7773 C 15.5096 12.841 15.608 12.9009 15.7008 12.9684 C 15.7251 12.986 15.7645 13.0321 15.7645 13.0321 "/>
        <path id="ID0.7633831659331918" fill="none" stroke="#000000" stroke-width="0.12737707129525955" stroke-linecap="round" d="M 15.1913 12.3952 C 15.1913 12.3952 15.4034 12.3709 15.5097 12.3634 C 15.552 12.3604 15.5947 12.3634 15.6371 12.3634 C 15.6902 12.3634 15.7433 12.3634 15.7963 12.3634 C 15.8096 12.3634 15.7963 12.3634 15.7963 12.3634 "/>
        <path id="ID0.8195131137035787" fill="none" stroke="#000000" stroke-width="0.12737707129525955" stroke-linecap="round" d="M 15.3824 11.5991 C 15.3824 11.5991 15.4673 11.5353 15.5097 11.5036 C 15.5521 11.4718 15.5937 11.4384 15.6371 11.408 C 15.6998 11.3641 15.7645 11.3231 15.8282 11.2806 C 15.8441 11.2701 15.8282 11.2806 15.8282 11.2806 "/>
        <path id="ID0.923992021009326" fill="none" stroke="#000000" stroke-width="0.12737707129525955" stroke-linecap="round" d="M 15.4142 10.7711 C 15.4142 10.7711 15.9556 10.7711 15.9556 10.7711 "/>
      </g>
      <g id="ID0.2824689648114145">
        <path id="ID0.8757698251865804" fill="#995900" stroke="#995900" stroke-width="0.12737707129525955" d="M 13.9718 14.2323 L 15.0226 14.2323 L 15.0226 9.4238 L 13.9718 9.4238 L 13.9718 14.2323 Z "/>
        <path id="ID0.6422801343724132" fill="none" stroke="#000000" stroke-width="0.12737707129525955" stroke-linecap="round" d="M 14.2265 13.8183 C 14.2265 13.8183 14.3764 13.8033 14.4494 13.7865 C 14.5148 13.7714 14.5747 13.736 14.6405 13.7228 C 14.6821 13.7144 14.7679 13.7228 14.7679 13.7228 "/>
        <path id="ID0.7584992088377476" fill="none" stroke="#000000" stroke-width="0.12737707129525955" stroke-linecap="round" d="M 14.2584 13.1496 C 14.2584 13.1496 14.4472 13.0859 14.545 13.0859 C 14.6021 13.0859 14.7042 13.1496 14.7042 13.1496 "/>
        <path id="ID0.40438934741541743" fill="none" stroke="#000000" stroke-width="0.12737707129525955" stroke-linecap="round" d="M 14.322 11.9077 C 14.4175 11.9713 14.5158 12.0313 14.6086 12.0987 C 14.6329 12.1164 14.6723 12.1624 14.6723 12.1624 "/>
        <path id="ID0.7633831659331918" fill="none" stroke="#000000" stroke-width="0.12737707129525955" stroke-linecap="round" d="M 14.0991 11.5255 C 14.0991 11.5255 14.3113 11.5013 14.4176 11.4937 C 14.4599 11.4907 14.5025 11.4937 14.545 11.4937 C 14.598 11.4937 14.6511 11.4937 14.7042 11.4937 C 14.7174 11.4937 14.7042 11.4937 14.7042 11.4937 "/>
        <path id="ID0.8195131137035787" fill="none" stroke="#000000" stroke-width="0.12737707129525955" stroke-linecap="round" d="M 14.2902 10.7294 C 14.2902 10.7294 14.3752 10.6657 14.4176 10.6339 C 14.46 10.6021 14.5015 10.5687 14.545 10.5383 C 14.6076 10.4945 14.6724 10.4534 14.736 10.411 C 14.7519 10.4004 14.736 10.411 14.736 10.411 "/>
        <path id="ID0.923992021009326" fill="none" stroke="#000000" stroke-width="0.12737707129525955" stroke-linecap="round" d="M 14.322 9.9015 C 14.322 9.9015 14.8634 9.9015 14.8634 9.9015 "/>
      </g>
      <g id="ID0.2824689648114145">
        <path id="ID0.8757698251865804" fill="#995900" stroke="#995900" stroke-width="0.12737707129525955" d="M 23.4304 15.8435 L 24.4812 15.8435 L 24.4812 11.0351 L 23.4304 11.0351 L 23.4304 15.8435 Z "/>
        <path id="ID0.6422801343724132" fill="none" stroke="#000000" stroke-width="0.12737707129525955" stroke-linecap="round" d="M 23.6851 15.4296 C 23.6851 15.4296 23.835 15.4146 23.908 15.3977 C 23.9734 15.3826 24.0333 15.3472 24.0991 15.334 C 24.1407 15.3257 24.2265 15.334 24.2265 15.334 "/>
        <path id="ID0.7584992088377476" fill="none" stroke="#000000" stroke-width="0.12737707129525955" stroke-linecap="round" d="M 23.717 14.7608 C 23.717 14.7608 23.9058 14.6972 24.0035 14.6972 C 24.0607 14.6972 24.1628 14.7608 24.1628 14.7608 "/>
        <path id="ID0.40438934741541743" fill="none" stroke="#000000" stroke-width="0.12737707129525955" stroke-linecap="round" d="M 23.7806 13.5189 C 23.876 13.5825 23.9744 13.6425 24.0672 13.71 C 24.0915 13.7276 24.1309 13.7737 24.1309 13.7737 "/>
        <path id="ID0.7633831659331918" fill="none" stroke="#000000" stroke-width="0.12737707129525955" stroke-linecap="round" d="M 23.5577 13.1368 C 23.5577 13.1368 23.7699 13.1125 23.8762 13.1049 C 23.9185 13.1019 23.9611 13.1049 24.0035 13.1049 C 24.0566 13.1049 24.1097 13.1049 24.1628 13.1049 C 24.176 13.1049 24.1628 13.1049 24.1628 13.1049 "/>
        <path id="ID0.8195131137035787" fill="none" stroke="#000000" stroke-width="0.12737707129525955" stroke-linecap="round" d="M 23.7488 12.3407 C 23.7488 12.3407 23.8338 12.2769 23.8762 12.2451 C 23.9186 12.2134 23.9601 12.18 24.0035 12.1496 C 24.0662 12.1057 24.131 12.0647 24.1946 12.0222 C 24.2105 12.0117 24.1946 12.0222 24.1946 12.0222 "/>
        <path id="ID0.923992021009326" fill="none" stroke="#000000" stroke-width="0.12737707129525955" stroke-linecap="round" d="M 23.7806 11.5127 C 23.7806 11.5127 24.322 11.5127 24.322 11.5127 "/>
      </g>
      <g id="ID0.2824689648114145">
        <path id="ID0.8757698251865804" fill="#995900" stroke="#995900" stroke-width="0.12737707129525955" d="M 24.509 15.0817 L 25.5599 15.0817 L 25.5599 10.2733 L 24.509 10.2733 L 24.509 15.0817 Z "/>
        <path id="ID0.6422801343724132" fill="none" stroke="#000000" stroke-width="0.12737707129525955" stroke-linecap="round" d="M 24.7638 14.6678 C 24.7638 14.6678 24.9136 14.6528 24.9867 14.6359 C 25.052 14.6208 25.112 14.5854 25.1778 14.5722 C 25.2193 14.5639 25.3051 14.5722 25.3051 14.5722 "/>
        <path id="ID0.7584992088377476" fill="none" stroke="#000000" stroke-width="0.12737707129525955" stroke-linecap="round" d="M 24.7956 13.999 C 24.7956 13.999 24.9845 13.9353 25.0822 13.9353 C 25.1393 13.9353 25.2414 13.999 25.2414 13.999 "/>
        <path id="ID0.40438934741541743" fill="none" stroke="#000000" stroke-width="0.12737707129525955" stroke-linecap="round" d="M 24.8593 12.7571 C 24.9547 12.8207 25.0531 12.8807 25.1459 12.9482 C 25.1702 12.9658 25.2096 13.0119 25.2096 13.0119 "/>
        <path id="ID0.7633831659331918" fill="none" stroke="#000000" stroke-width="0.12737707129525955" stroke-linecap="round" d="M 24.6364 12.375 C 24.6364 12.375 24.8485 12.3507 24.9548 12.3431 C 24.9971 12.3401 25.0398 12.3431 25.0822 12.3431 C 25.1353 12.3431 25.1884 12.3431 25.2414 12.3431 C 25.2547 12.3431 25.2414 12.3431 25.2414 12.3431 "/>
        <path id="ID0.8195131137035787" fill="none" stroke="#000000" stroke-width="0.12737707129525955" stroke-linecap="round" d="M 24.8275 11.5789 C 24.8275 11.5789 24.9124 11.5151 24.9548 11.4833 C 24.9973 11.4516 25.0388 11.4182 25.0822 11.3878 C 25.1449 11.3439 25.2097 11.3028 25.2733 11.2604 C 25.2892 11.2499 25.2733 11.2604 25.2733 11.2604 "/>
        <path id="ID0.923992021009326" fill="none" stroke="#000000" stroke-width="0.12737707129525955" stroke-linecap="round" d="M 24.8593 10.7509 C 24.8593 10.7509 25.4007 10.7509 25.4007 10.7509 "/>
      </g>
      <g id="ID0.2824689648114145">
        <path id="ID0.8757698251865804" fill="#995900" stroke="#995900" stroke-width="0.12737707129525955" d="M 21.2663 16.8076 L 22.3171 16.8076 L 22.3171 11.9991 L 21.2663 11.9991 L 21.2663 16.8076 Z "/>
        <path id="ID0.6422801343724132" fill="none" stroke="#000000" stroke-width="0.12737707129525955" stroke-linecap="round" d="M 21.521 16.3936 C 21.521 16.3936 21.6709 16.3787 21.7439 16.3618 C 21.8093 16.3467 21.8692 16.3113 21.935 16.2981 C 21.9766 16.2898 22.0624 16.2981 22.0624 16.2981 "/>
        <path id="ID0.7584992088377476" fill="none" stroke="#000000" stroke-width="0.12737707129525955" stroke-linecap="round" d="M 21.5529 15.7249 C 21.5529 15.7249 21.7417 15.6612 21.8395 15.6612 C 21.8966 15.6612 21.9987 15.7249 21.9987 15.7249 "/>
        <path id="ID0.40438934741541743" fill="none" stroke="#000000" stroke-width="0.12737707129525955" stroke-linecap="round" d="M 21.6166 14.483 C 21.712 14.5466 21.8104 14.6066 21.9032 14.674 C 21.9274 14.6917 21.9668 14.7377 21.9668 14.7377 "/>
        <path id="ID0.7633831659331918" fill="none" stroke="#000000" stroke-width="0.12737707129525955" stroke-linecap="round" d="M 21.3936 14.1008 C 21.3936 14.1008 21.6058 14.0766 21.7121 14.069 C 21.7544 14.066 21.797 14.069 21.8395 14.069 C 21.8925 14.069 21.9456 14.069 21.9987 14.069 C 22.0119 14.069 21.9987 14.069 21.9987 14.069 "/>
        <path id="ID0.8195131137035787" fill="none" stroke="#000000" stroke-width="0.12737707129525955" stroke-linecap="round" d="M 21.5847 13.3047 C 21.5847 13.3047 21.6697 13.241 21.7121 13.2092 C 21.7545 13.1774 21.796 13.1441 21.8395 13.1137 C 21.9021 13.0698 21.9669 13.0287 22.0305 12.9863 C 22.0465 12.9757 22.0305 12.9863 22.0305 12.9863 "/>
        <path id="ID0.923992021009326" fill="none" stroke="#000000" stroke-width="0.12737707129525955" stroke-linecap="round" d="M 21.6166 12.4768 C 21.6166 12.4768 22.1579 12.4768 22.1579 12.4768 "/>
      </g>
      <g id="ID0.2824689648114145">
        <path id="ID0.8757698251865804" fill="#995900" stroke="#995900" stroke-width="0.12737707129525955" d="M 19.1696 17.0368 L 20.2205 17.0368 L 20.2205 12.2283 L 19.1696 12.2283 L 19.1696 17.0368 Z "/>
        <path id="ID0.6422801343724132" fill="none" stroke="#000000" stroke-width="0.12737707129525955" stroke-linecap="round" d="M 19.4244 16.6229 C 19.4244 16.6229 19.5742 16.6079 19.6473 16.591 C 19.7126 16.5759 19.7725 16.5405 19.8383 16.5273 C 19.8799 16.519 19.9657 16.5273 19.9657 16.5273 "/>
        <path id="ID0.7584992088377476" fill="none" stroke="#000000" stroke-width="0.12737707129525955" stroke-linecap="round" d="M 19.4562 15.9541 C 19.4562 15.9541 19.645 15.8904 19.7428 15.8904 C 19.7999 15.8904 19.902 15.9541 19.902 15.9541 "/>
        <path id="ID0.40438934741541743" fill="none" stroke="#000000" stroke-width="0.12737707129525955" stroke-linecap="round" d="M 19.5199 14.7122 C 19.6153 14.7758 19.7137 14.8358 19.8065 14.9033 C 19.8308 14.9209 19.8702 14.9669 19.8702 14.9669 "/>
        <path id="ID0.7633831659331918" fill="none" stroke="#000000" stroke-width="0.12737707129525955" stroke-linecap="round" d="M 19.297 14.3301 C 19.297 14.3301 19.5091 14.3058 19.6154 14.2982 C 19.6577 14.2952 19.7004 14.2982 19.7428 14.2982 C 19.7959 14.2982 19.849 14.2982 19.902 14.2982 C 19.9153 14.2982 19.902 14.2982 19.902 14.2982 "/>
        <path id="ID0.8195131137035787" fill="none" stroke="#000000" stroke-width="0.12737707129525955" stroke-linecap="round" d="M 19.488 13.534 C 19.488 13.534 19.573 13.4702 19.6154 13.4384 C 19.6578 13.4066 19.6994 13.3733 19.7428 13.3429 C 19.8055 13.299 19.8702 13.2579 19.9339 13.2155 C 19.9498 13.2049 19.9339 13.2155 19.9339 13.2155 "/>
        <path id="ID0.923992021009326" fill="none" stroke="#000000" stroke-width="0.12737707129525955" stroke-linecap="round" d="M 19.5199 12.706 C 19.5199 12.706 20.0612 12.706 20.0612 12.706 "/>
      </g>
      <g id="ID0.2824689648114145">
        <path id="ID0.8757698251865804" fill="#995900" stroke="#995900" stroke-width="0.12737707129525955" d="M 18.1853 16.7739 L 19.2362 16.7739 L 19.2362 11.9654 L 18.1853 11.9654 L 18.1853 16.7739 Z "/>
        <path id="ID0.6422801343724132" fill="none" stroke="#000000" stroke-width="0.12737707129525955" stroke-linecap="round" d="M 18.4401 16.3599 C 18.4401 16.3599 18.5899 16.345 18.663 16.3281 C 18.7283 16.313 18.7883 16.2776 18.854 16.2644 C 18.8956 16.256 18.9814 16.2644 18.9814 16.2644 "/>
        <path id="ID0.7584992088377476" fill="none" stroke="#000000" stroke-width="0.12737707129525955" stroke-linecap="round" d="M 18.4719 15.6912 C 18.4719 15.6912 18.6608 15.6275 18.7585 15.6275 C 18.8156 15.6275 18.9177 15.6912 18.9177 15.6912 "/>
        <path id="ID0.40438934741541743" fill="none" stroke="#000000" stroke-width="0.12737707129525955" stroke-linecap="round" d="M 18.5356 14.4493 C 18.631 14.5129 18.7294 14.5729 18.8222 14.6403 C 18.8465 14.658 18.8859 14.704 18.8859 14.704 "/>
        <path id="ID0.7633831659331918" fill="none" stroke="#000000" stroke-width="0.12737707129525955" stroke-linecap="round" d="M 18.3127 14.0671 C 18.3127 14.0671 18.5248 14.0429 18.6311 14.0353 C 18.6734 14.0323 18.7161 14.0353 18.7585 14.0353 C 18.8116 14.0353 18.8647 14.0353 18.9177 14.0353 C 18.931 14.0353 18.9177 14.0353 18.9177 14.0353 "/>
        <path id="ID0.8195131137035787" fill="none" stroke="#000000" stroke-width="0.12737707129525955" stroke-linecap="round" d="M 18.5038 13.271 C 18.5038 13.271 18.5887 13.2073 18.6311 13.1755 C 18.6736 13.1437 18.7151 13.1103 18.7585 13.08 C 18.8212 13.0361 18.886 12.995 18.9496 12.9526 C 18.9655 12.942 18.9496 12.9526 18.9496 12.9526 "/>
        <path id="ID0.923992021009326" fill="none" stroke="#000000" stroke-width="0.12737707129525955" stroke-linecap="round" d="M 18.5356 12.4431 C 18.5356 12.4431 19.077 12.4431 19.077 12.4431 "/>
      </g>
      <g id="ID0.2824689648114145">
        <path id="ID0.8757698251865804" fill="#995900" stroke="#995900" stroke-width="0.12737707129525955" d="M 17.1336 16.2211 L 18.1845 16.2211 L 18.1845 11.4126 L 17.1336 11.4126 L 17.1336 16.2211 Z "/>
        <path id="ID0.6422801343724132" fill="none" stroke="#000000" stroke-width="0.12737707129525955" stroke-linecap="round" d="M 17.3884 15.8071 C 17.3884 15.8071 17.5382 15.7921 17.6113 15.7753 C 17.6766 15.7602 17.7366 15.7248 17.8023 15.7116 C 17.8439 15.7032 17.9297 15.7116 17.9297 15.7116 "/>
        <path id="ID0.7584992088377476" fill="none" stroke="#000000" stroke-width="0.12737707129525955" stroke-linecap="round" d="M 17.4202 15.1384 C 17.4202 15.1384 17.609 15.0747 17.7068 15.0747 C 17.7639 15.0747 17.866 15.1384 17.866 15.1384 "/>
        <path id="ID0.40438934741541743" fill="none" stroke="#000000" stroke-width="0.12737707129525955" stroke-linecap="round" d="M 17.4839 13.8964 C 17.5793 13.9601 17.6777 14.0201 17.7705 14.0875 C 17.7948 14.1052 17.8342 14.1512 17.8342 14.1512 "/>
        <path id="ID0.7633831659331918" fill="none" stroke="#000000" stroke-width="0.12737707129525955" stroke-linecap="round" d="M 17.261 13.5143 C 17.261 13.5143 17.4731 13.4901 17.5794 13.4825 C 17.6217 13.4795 17.6644 13.4825 17.7068 13.4825 C 17.7599 13.4825 17.813 13.4825 17.866 13.4825 C 17.8793 13.4825 17.866 13.4825 17.866 13.4825 "/>
        <path id="ID0.8195131137035787" fill="none" stroke="#000000" stroke-width="0.12737707129525955" stroke-linecap="round" d="M 17.4521 12.7182 C 17.4521 12.7182 17.537 12.6545 17.5794 12.6227 C 17.6218 12.5909 17.6634 12.5575 17.7068 12.5271 C 17.7695 12.4833 17.8342 12.4422 17.8979 12.3998 C 17.9138 12.3892 17.8979 12.3998 17.8979 12.3998 "/>
        <path id="ID0.923992021009326" fill="none" stroke="#000000" stroke-width="0.12737707129525955" stroke-linecap="round" d="M 17.4839 11.8903 C 17.4839 11.8903 18.0253 11.8903 18.0253 11.8903 "/>
      </g>
      <g id="ID0.2824689648114145">
        <path id="ID0.8757698251865804" fill="#995900" stroke="#995900" stroke-width="0.12737707129525955" d="M 20.2752 17.0166 L 21.3261 17.0166 L 21.3261 12.2081 L 20.2752 12.2081 L 20.2752 17.0166 Z "/>
        <path id="ID0.6422801343724132" fill="none" stroke="#000000" stroke-width="0.12737707129525955" stroke-linecap="round" d="M 20.53 16.6026 C 20.53 16.6026 20.6799 16.5877 20.7529 16.5708 C 20.8182 16.5557 20.8782 16.5203 20.944 16.5071 C 20.9856 16.4987 21.0713 16.5071 21.0713 16.5071 "/>
        <path id="ID0.7584992088377476" fill="none" stroke="#000000" stroke-width="0.12737707129525955" stroke-linecap="round" d="M 20.5618 15.9339 C 20.5618 15.9339 20.7507 15.8702 20.8484 15.8702 C 20.9056 15.8702 21.0077 15.9339 21.0077 15.9339 "/>
        <path id="ID0.40438934741541743" fill="none" stroke="#000000" stroke-width="0.12737707129525955" stroke-linecap="round" d="M 20.6255 14.692 C 20.7209 14.7556 20.8193 14.8156 20.9121 14.883 C 20.9364 14.9007 20.9758 14.9467 20.9758 14.9467 "/>
        <path id="ID0.7633831659331918" fill="none" stroke="#000000" stroke-width="0.12737707129525955" stroke-linecap="round" d="M 20.4026 14.3098 C 20.4026 14.3098 20.6148 14.2856 20.7211 14.278 C 20.7633 14.275 20.806 14.278 20.8484 14.278 C 20.9015 14.278 20.9546 14.278 21.0077 14.278 C 21.0209 14.278 21.0077 14.278 21.0077 14.278 "/>
        <path id="ID0.8195131137035787" fill="none" stroke="#000000" stroke-width="0.12737707129525955" stroke-linecap="round" d="M 20.5937 13.5137 C 20.5937 13.5137 20.6786 13.45 20.7211 13.4182 C 20.7635 13.3864 20.805 13.353 20.8484 13.3227 C 20.9111 13.2788 20.9759 13.2377 21.0395 13.1953 C 21.0554 13.1847 21.0395 13.1953 21.0395 13.1953 "/>
        <path id="ID0.923992021009326" fill="none" stroke="#000000" stroke-width="0.12737707129525955" stroke-linecap="round" d="M 20.6255 12.6858 C 20.6255 12.6858 21.1669 12.6858 21.1669 12.6858 "/>
      </g>
      <g id="ID0.2824689648114145">
        <path id="ID0.8757698251865804" fill="#995900" stroke="#995900" stroke-width="0.12737707129525955" d="M 25.5944 14.3873 L 26.6453 14.3873 L 26.6453 9.5789 L 25.5944 9.5789 L 25.5944 14.3873 Z "/>
        <path id="ID0.6422801343724132" fill="none" stroke="#000000" stroke-width="0.12737707129525955" stroke-linecap="round" d="M 25.8492 13.9734 C 25.8492 13.9734 25.999 13.9584 26.0721 13.9415 C 26.1374 13.9264 26.1974 13.891 26.2632 13.8778 C 26.3048 13.8695 26.3905 13.8778 26.3905 13.8778 "/>
        <path id="ID0.7584992088377476" fill="none" stroke="#000000" stroke-width="0.12737707129525955" stroke-linecap="round" d="M 25.881 13.3046 C 25.881 13.3046 26.0699 13.2409 26.1676 13.2409 C 26.2248 13.2409 26.3269 13.3046 26.3269 13.3046 "/>
        <path id="ID0.40438934741541743" fill="none" stroke="#000000" stroke-width="0.12737707129525955" stroke-linecap="round" d="M 25.9447 12.0627 C 26.0401 12.1263 26.1385 12.1863 26.2313 12.2538 C 26.2556 12.2714 26.295 12.3175 26.295 12.3175 "/>
        <path id="ID0.7633831659331918" fill="none" stroke="#000000" stroke-width="0.12737707129525955" stroke-linecap="round" d="M 25.7218 11.6806 C 25.7218 11.6806 25.934 11.6563 26.0403 11.6487 C 26.0825 11.6457 26.1252 11.6487 26.1676 11.6487 C 26.2207 11.6487 26.2738 11.6487 26.3269 11.6487 C 26.3401 11.6487 26.3269 11.6487 26.3269 11.6487 "/>
        <path id="ID0.8195131137035787" fill="none" stroke="#000000" stroke-width="0.12737707129525955" stroke-linecap="round" d="M 25.9129 10.8845 C 25.9129 10.8845 25.9978 10.8207 26.0403 10.7889 C 26.0827 10.7572 26.1242 10.7238 26.1676 10.6934 C 26.2303 10.6495 26.2951 10.6084 26.3587 10.566 C 26.3746 10.5555 26.3587 10.566 26.3587 10.566 "/>
        <path id="ID0.923992021009326" fill="none" stroke="#000000" stroke-width="0.12737707129525955" stroke-linecap="round" d="M 25.9447 10.0565 C 25.9447 10.0565 26.4861 10.0565 26.4861 10.0565 "/>
      </g>
      <g id="ID0.2824689648114145">
        <path id="ID0.8757698251865804" fill="#995900" stroke="#995900" stroke-width="0.12737707129525955" d="M 22.2843 13.8345 L 23.3351 13.8345 L 23.3351 9.026 L 22.2843 9.026 L 22.2843 13.8345 Z "/>
        <path id="ID0.6422801343724132" fill="none" stroke="#000000" stroke-width="0.12737707129525955" stroke-linecap="round" d="M 22.539 13.4205 C 22.539 13.4205 22.6889 13.4056 22.7619 13.3887 C 22.8273 13.3736 22.8872 13.3382 22.953 13.325 C 22.9946 13.3167 23.0804 13.325 23.0804 13.325 "/>
        <path id="ID0.7584992088377476" fill="none" stroke="#000000" stroke-width="0.12737707129525955" stroke-linecap="round" d="M 22.5709 12.7518 C 22.5709 12.7518 22.7597 12.6881 22.8575 12.6881 C 22.9146 12.6881 23.0167 12.7518 23.0167 12.7518 "/>
        <path id="ID0.40438934741541743" fill="none" stroke="#000000" stroke-width="0.12737707129525955" stroke-linecap="round" d="M 22.6346 11.5099 C 22.73 11.5735 22.8284 11.6335 22.9212 11.701 C 22.9454 11.7186 22.9848 11.7646 22.9848 11.7646 "/>
        <path id="ID0.7633831659331918" fill="none" stroke="#000000" stroke-width="0.12737707129525955" stroke-linecap="round" d="M 22.4116 11.1278 C 22.4116 11.1278 22.6238 11.1035 22.7301 11.0959 C 22.7724 11.0929 22.815 11.0959 22.8575 11.0959 C 22.9105 11.0959 22.9636 11.0959 23.0167 11.0959 C 23.0299 11.0959 23.0167 11.0959 23.0167 11.0959 "/>
        <path id="ID0.8195131137035787" fill="none" stroke="#000000" stroke-width="0.12737707129525955" stroke-linecap="round" d="M 22.6027 10.3317 C 22.6027 10.3317 22.6877 10.2679 22.7301 10.2361 C 22.7725 10.2043 22.814 10.171 22.8575 10.1406 C 22.9201 10.0967 22.9849 10.0556 23.0485 10.0132 C 23.0644 10.0026 23.0485 10.0132 23.0485 10.0132 "/>
        <path id="ID0.923992021009326" fill="none" stroke="#000000" stroke-width="0.12737707129525955" stroke-linecap="round" d="M 22.6346 9.5037 C 22.6346 9.5037 23.1759 9.5037 23.1759 9.5037 "/>
      </g>
      <g id="ID0.2824689648114145">
        <path id="ID0.8757698251865804" fill="#995900" stroke="#995900" stroke-width="0.12737707129525955" d="M 16.1426 13.1199 L 17.1934 13.1199 L 17.1934 8.3114 L 16.1426 8.3114 L 16.1426 13.1199 Z "/>
        <path id="ID0.6422801343724132" fill="none" stroke="#000000" stroke-width="0.12737707129525955" stroke-linecap="round" d="M 16.3973 12.7059 C 16.3973 12.7059 16.5472 12.691 16.6202 12.6741 C 16.6856 12.659 16.7455 12.6236 16.8113 12.6104 C 16.8529 12.6021 16.9387 12.6104 16.9387 12.6104 "/>
        <path id="ID0.7584992088377476" fill="none" stroke="#000000" stroke-width="0.12737707129525955" stroke-linecap="round" d="M 16.4292 12.0372 C 16.4292 12.0372 16.618 11.9735 16.7158 11.9735 C 16.7729 11.9735 16.875 12.0372 16.875 12.0372 "/>
        <path id="ID0.40438934741541743" fill="none" stroke="#000000" stroke-width="0.12737707129525955" stroke-linecap="round" d="M 16.4929 10.7953 C 16.5883 10.8589 16.6867 10.9189 16.7795 10.9863 C 16.8037 11.004 16.8432 11.05 16.8432 11.05 "/>
        <path id="ID0.7633831659331918" fill="none" stroke="#000000" stroke-width="0.12737707129525955" stroke-linecap="round" d="M 16.27 10.4131 C 16.27 10.4131 16.4821 10.3889 16.5884 10.3813 C 16.6307 10.3783 16.6734 10.3813 16.7158 10.3813 C 16.7688 10.3813 16.8219 10.3813 16.875 10.3813 C 16.8882 10.3813 16.875 10.3813 16.875 10.3813 "/>
        <path id="ID0.8195131137035787" fill="none" stroke="#000000" stroke-width="0.12737707129525955" stroke-linecap="round" d="M 16.461 9.617 C 16.461 9.617 16.546 9.5533 16.5884 9.5215 C 16.6308 9.4897 16.6723 9.4563 16.7158 9.426 C 16.7784 9.3821 16.8432 9.341 16.9068 9.2986 C 16.9228 9.288 16.9068 9.2986 16.9068 9.2986 "/>
        <path id="ID0.923992021009326" fill="none" stroke="#000000" stroke-width="0.12737707129525955" stroke-linecap="round" d="M 16.4929 8.7891 C 16.4929 8.7891 17.0342 8.7891 17.0342 8.7891 "/>
      </g>
      <g id="ID0.2824689648114145">
        <path id="ID0.8757698251865804" fill="#995900" stroke="#995900" stroke-width="0.12737707129525955" d="M 23.3966 13.2075 L 24.4475 13.2075 L 24.4475 8.3991 L 23.3966 8.3991 L 23.3966 13.2075 Z "/>
        <path id="ID0.6422801343724132" fill="none" stroke="#000000" stroke-width="0.12737707129525955" stroke-linecap="round" d="M 23.6514 12.7936 C 23.6514 12.7936 23.8013 12.7786 23.8743 12.7617 C 23.9397 12.7466 23.9996 12.7112 24.0654 12.698 C 24.107 12.6897 24.1928 12.698 24.1928 12.698 "/>
        <path id="ID0.7584992088377476" fill="none" stroke="#000000" stroke-width="0.12737707129525955" stroke-linecap="round" d="M 23.6832 12.1248 C 23.6832 12.1248 23.8721 12.0612 23.9698 12.0612 C 24.027 12.0612 24.1291 12.1248 24.1291 12.1248 "/>
        <path id="ID0.40438934741541743" fill="none" stroke="#000000" stroke-width="0.12737707129525955" stroke-linecap="round" d="M 23.7469 10.8829 C 23.8423 10.9465 23.9407 11.0065 24.0335 11.074 C 24.0578 11.0916 24.0972 11.1377 24.0972 11.1377 "/>
        <path id="ID0.7633831659331918" fill="none" stroke="#000000" stroke-width="0.12737707129525955" stroke-linecap="round" d="M 23.524 10.5008 C 23.524 10.5008 23.7362 10.4765 23.8425 10.4689 C 23.8848 10.4659 23.9274 10.4689 23.9698 10.4689 C 24.0229 10.4689 24.076 10.4689 24.1291 10.4689 C 24.1423 10.4689 24.1291 10.4689 24.1291 10.4689 "/>
        <path id="ID0.8195131137035787" fill="none" stroke="#000000" stroke-width="0.12737707129525955" stroke-linecap="round" d="M 23.7151 9.7047 C 23.7151 9.7047 23.8 9.6409 23.8425 9.6091 C 23.8849 9.5774 23.9264 9.544 23.9698 9.5136 C 24.0325 9.4697 24.0973 9.4286 24.1609 9.3862 C 24.1768 9.3757 24.1609 9.3862 24.1609 9.3862 "/>
        <path id="ID0.923992021009326" fill="none" stroke="#000000" stroke-width="0.12737707129525955" stroke-linecap="round" d="M 23.7469 8.8767 C 23.7469 8.8767 24.2883 8.8767 24.2883 8.8767 "/>
      </g>
      <g id="ID0.2824689648114145">
        <path id="ID0.8757698251865804" fill="#995900" stroke="#995900" stroke-width="0.12737707129525955" d="M 21.2326 14.1716 L 22.2834 14.1716 L 22.2834 9.3631 L 21.2326 9.3631 L 21.2326 14.1716 Z "/>
        <path id="ID0.6422801343724132" fill="none" stroke="#000000" stroke-width="0.12737707129525955" stroke-linecap="round" d="M 21.4873 13.7576 C 21.4873 13.7576 21.6372 13.7427 21.7102 13.7258 C 21.7756 13.7107 21.8355 13.6753 21.9013 13.6621 C 21.9429 13.6538 22.0287 13.6621 22.0287 13.6621 "/>
        <path id="ID0.7584992088377476" fill="none" stroke="#000000" stroke-width="0.12737707129525955" stroke-linecap="round" d="M 21.5192 13.0889 C 21.5192 13.0889 21.708 13.0252 21.8058 13.0252 C 21.8629 13.0252 21.965 13.0889 21.965 13.0889 "/>
        <path id="ID0.40438934741541743" fill="none" stroke="#000000" stroke-width="0.12737707129525955" stroke-linecap="round" d="M 21.5828 11.847 C 21.6783 11.9106 21.7767 11.9706 21.8694 12.038 C 21.8937 12.0557 21.9331 12.1017 21.9331 12.1017 "/>
        <path id="ID0.7633831659331918" fill="none" stroke="#000000" stroke-width="0.12737707129525955" stroke-linecap="round" d="M 21.3599 11.4648 C 21.3599 11.4648 21.5721 11.4406 21.6784 11.433 C 21.7207 11.43 21.7633 11.433 21.8058 11.433 C 21.8588 11.433 21.9119 11.433 21.965 11.433 C 21.9782 11.433 21.965 11.433 21.965 11.433 "/>
        <path id="ID0.8195131137035787" fill="none" stroke="#000000" stroke-width="0.12737707129525955" stroke-linecap="round" d="M 21.551 10.6687 C 21.551 10.6687 21.636 10.605 21.6784 10.5732 C 21.7208 10.5414 21.7623 10.5081 21.8058 10.4777 C 21.8684 10.4338 21.9332 10.3927 21.9968 10.3503 C 22.0127 10.3397 21.9968 10.3503 21.9968 10.3503 "/>
        <path id="ID0.923992021009326" fill="none" stroke="#000000" stroke-width="0.12737707129525955" stroke-linecap="round" d="M 21.5828 9.8408 C 21.5828 9.8408 22.1242 9.8408 22.1242 9.8408 "/>
      </g>
      <g id="ID0.2824689648114145">
        <path id="ID0.8757698251865804" fill="#995900" stroke="#995900" stroke-width="0.12737707129525955" d="M 19.1359 14.4008 L 20.1868 14.4008 L 20.1868 9.5923 L 19.1359 9.5923 L 19.1359 14.4008 Z "/>
        <path id="ID0.6422801343724132" fill="none" stroke="#000000" stroke-width="0.12737707129525955" stroke-linecap="round" d="M 19.3906 13.9868 C 19.3906 13.9868 19.5405 13.9719 19.6136 13.955 C 19.6789 13.9399 19.7388 13.9045 19.8046 13.8913 C 19.8462 13.883 19.932 13.8913 19.932 13.8913 "/>
        <path id="ID0.7584992088377476" fill="none" stroke="#000000" stroke-width="0.12737707129525955" stroke-linecap="round" d="M 19.4225 13.3181 C 19.4225 13.3181 19.6113 13.2544 19.7091 13.2544 C 19.7662 13.2544 19.8683 13.3181 19.8683 13.3181 "/>
        <path id="ID0.40438934741541743" fill="none" stroke="#000000" stroke-width="0.12737707129525955" stroke-linecap="round" d="M 19.4862 12.0762 C 19.5816 12.1398 19.68 12.1998 19.7728 12.2673 C 19.797 12.2849 19.8365 12.3309 19.8365 12.3309 "/>
        <path id="ID0.7633831659331918" fill="none" stroke="#000000" stroke-width="0.12737707129525955" stroke-linecap="round" d="M 19.2633 11.6941 C 19.2633 11.6941 19.4754 11.6698 19.5817 11.6622 C 19.624 11.6592 19.6667 11.6622 19.7091 11.6622 C 19.7621 11.6622 19.8153 11.6622 19.8683 11.6622 C 19.8816 11.6622 19.8683 11.6622 19.8683 11.6622 "/>
        <path id="ID0.8195131137035787" fill="none" stroke="#000000" stroke-width="0.12737707129525955" stroke-linecap="round" d="M 19.4543 10.898 C 19.4543 10.898 19.5393 10.8342 19.5817 10.8024 C 19.6241 10.7706 19.6657 10.7373 19.7091 10.7069 C 19.7718 10.663 19.8365 10.6219 19.9002 10.5795 C 19.9161 10.5689 19.9002 10.5795 19.9002 10.5795 "/>
        <path id="ID0.923992021009326" fill="none" stroke="#000000" stroke-width="0.12737707129525955" stroke-linecap="round" d="M 19.4862 10.07 C 19.4862 10.07 20.0275 10.07 20.0275 10.07 "/>
      </g>
      <g id="ID0.2824689648114145">
        <path id="ID0.8757698251865804" fill="#995900" stroke="#995900" stroke-width="0.12737707129525955" d="M 18.1516 14.1446 L 19.2025 14.1446 L 19.2025 9.3362 L 18.1516 9.3362 L 18.1516 14.1446 Z "/>
        <path id="ID0.6422801343724132" fill="none" stroke="#000000" stroke-width="0.12737707129525955" stroke-linecap="round" d="M 18.4064 13.7307 C 18.4064 13.7307 18.5562 13.7157 18.6293 13.6988 C 18.6946 13.6837 18.7545 13.6483 18.8203 13.6351 C 18.8619 13.6268 18.9477 13.6351 18.9477 13.6351 "/>
        <path id="ID0.7584992088377476" fill="none" stroke="#000000" stroke-width="0.12737707129525955" stroke-linecap="round" d="M 18.4382 13.0619 C 18.4382 13.0619 18.627 12.9982 18.7248 12.9982 C 18.7819 12.9982 18.884 13.0619 18.884 13.0619 "/>
        <path id="ID0.40438934741541743" fill="none" stroke="#000000" stroke-width="0.12737707129525955" stroke-linecap="round" d="M 18.5019 11.82 C 18.5973 11.8836 18.6957 11.9436 18.7885 12.0111 C 18.8128 12.0287 18.8522 12.0748 18.8522 12.0748 "/>
        <path id="ID0.7633831659331918" fill="none" stroke="#000000" stroke-width="0.12737707129525955" stroke-linecap="round" d="M 18.279 11.4379 C 18.279 11.4379 18.4911 11.4136 18.5974 11.406 C 18.6397 11.403 18.6824 11.406 18.7248 11.406 C 18.7779 11.406 18.831 11.406 18.884 11.406 C 18.8973 11.406 18.884 11.406 18.884 11.406 "/>
        <path id="ID0.8195131137035787" fill="none" stroke="#000000" stroke-width="0.12737707129525955" stroke-linecap="round" d="M 18.4701 10.6418 C 18.4701 10.6418 18.555 10.578 18.5974 10.5462 C 18.6398 10.5145 18.6814 10.4811 18.7248 10.4507 C 18.7875 10.4068 18.8522 10.3657 18.9159 10.3233 C 18.9318 10.3128 18.9159 10.3233 18.9159 10.3233 "/>
        <path id="ID0.923992021009326" fill="none" stroke="#000000" stroke-width="0.12737707129525955" stroke-linecap="round" d="M 18.5019 9.8138 C 18.5019 9.8138 19.0432 9.8138 19.0432 9.8138 "/>
      </g>
      <g id="ID0.2824689648114145">
        <path id="ID0.8757698251865804" fill="#995900" stroke="#995900" stroke-width="0.12737707129525955" d="M 17.0864 13.5918 L 18.1373 13.5918 L 18.1373 8.7833 L 17.0864 8.7833 L 17.0864 13.5918 Z "/>
        <path id="ID0.6422801343724132" fill="none" stroke="#000000" stroke-width="0.12737707129525955" stroke-linecap="round" d="M 17.3412 13.1778 C 17.3412 13.1778 17.491 13.1629 17.5641 13.146 C 17.6294 13.1309 17.6894 13.0955 17.7551 13.0823 C 17.7967 13.074 17.8825 13.0823 17.8825 13.0823 "/>
        <path id="ID0.7584992088377476" fill="none" stroke="#000000" stroke-width="0.12737707129525955" stroke-linecap="round" d="M 17.373 12.5091 C 17.373 12.5091 17.5619 12.4454 17.6596 12.4454 C 17.7167 12.4454 17.8188 12.5091 17.8188 12.5091 "/>
        <path id="ID0.40438934741541743" fill="none" stroke="#000000" stroke-width="0.12737707129525955" stroke-linecap="round" d="M 17.4367 11.2672 C 17.5321 11.3308 17.6305 11.3908 17.7233 11.4583 C 17.7476 11.4759 17.787 11.5219 17.787 11.5219 "/>
        <path id="ID0.7633831659331918" fill="none" stroke="#000000" stroke-width="0.12737707129525955" stroke-linecap="round" d="M 17.2138 10.8851 C 17.2138 10.8851 17.4259 10.8608 17.5322 10.8532 C 17.5745 10.8502 17.6172 10.8532 17.6596 10.8532 C 17.7127 10.8532 17.7658 10.8532 17.8188 10.8532 C 17.8321 10.8532 17.8188 10.8532 17.8188 10.8532 "/>
        <path id="ID0.8195131137035787" fill="none" stroke="#000000" stroke-width="0.12737707129525955" stroke-linecap="round" d="M 17.4049 10.089 C 17.4049 10.089 17.4898 10.0252 17.5322 9.9934 C 17.5747 9.9616 17.6162 9.9283 17.6596 9.8979 C 17.7223 9.854 17.7871 9.8129 17.8507 9.7705 C 17.8666 9.7599 17.8507 9.7705 17.8507 9.7705 "/>
        <path id="ID0.923992021009326" fill="none" stroke="#000000" stroke-width="0.12737707129525955" stroke-linecap="round" d="M 17.4367 9.261 C 17.4367 9.261 17.9781 9.261 17.9781 9.261 "/>
      </g>
      <g id="ID0.2824689648114145">
        <path id="ID0.8757698251865804" fill="#995900" stroke="#995900" stroke-width="0.12737707129525955" d="M 20.228 14.3806 L 21.2789 14.3806 L 21.2789 9.5721 L 20.228 9.5721 L 20.228 14.3806 Z "/>
        <path id="ID0.6422801343724132" fill="none" stroke="#000000" stroke-width="0.12737707129525955" stroke-linecap="round" d="M 20.4828 13.9666 C 20.4828 13.9666 20.6327 13.9517 20.7057 13.9348 C 20.7711 13.9197 20.831 13.8843 20.8968 13.8711 C 20.9384 13.8627 21.0242 13.8711 21.0242 13.8711 "/>
        <path id="ID0.7584992088377476" fill="none" stroke="#000000" stroke-width="0.12737707129525955" stroke-linecap="round" d="M 20.5146 13.2979 C 20.5146 13.2979 20.7035 13.2342 20.8012 13.2342 C 20.8584 13.2342 20.9605 13.2979 20.9605 13.2979 "/>
        <path id="ID0.40438934741541743" fill="none" stroke="#000000" stroke-width="0.12737707129525955" stroke-linecap="round" d="M 20.5783 12.056 C 20.6737 12.1196 20.7721 12.1796 20.8649 12.247 C 20.8892 12.2647 20.9286 12.3107 20.9286 12.3107 "/>
        <path id="ID0.7633831659331918" fill="none" stroke="#000000" stroke-width="0.12737707129525955" stroke-linecap="round" d="M 20.3554 11.6738 C 20.3554 11.6738 20.5676 11.6496 20.6739 11.642 C 20.7162 11.639 20.7588 11.642 20.8012 11.642 C 20.8543 11.642 20.9074 11.642 20.9605 11.642 C 20.9737 11.642 20.9605 11.642 20.9605 11.642 "/>
        <path id="ID0.8195131137035787" fill="none" stroke="#000000" stroke-width="0.12737707129525955" stroke-linecap="round" d="M 20.5465 10.8777 C 20.5465 10.8777 20.6315 10.814 20.6739 10.7822 C 20.7163 10.7504 20.7578 10.717 20.8012 10.6867 C 20.8639 10.6428 20.9287 10.6017 20.9923 10.5593 C 21.0082 10.5487 20.9923 10.5593 20.9923 10.5593 "/>
        <path id="ID0.923992021009326" fill="none" stroke="#000000" stroke-width="0.12737707129525955" stroke-linecap="round" d="M 20.5783 10.0498 C 20.5783 10.0498 21.1197 10.0498 21.1197 10.0498 "/>
      </g>
      <g id="ID0.2824689648114145">
        <path id="ID0.8757698251865804" fill="#995900" stroke="#995900" stroke-width="0.12737707129525955" d="M 21.1382 11.9266 L 22.189 11.9266 L 22.189 7.1181 L 21.1382 7.1181 L 21.1382 11.9266 Z "/>
        <path id="ID0.6422801343724132" fill="none" stroke="#000000" stroke-width="0.12737707129525955" stroke-linecap="round" d="M 21.3929 11.5126 C 21.3929 11.5126 21.5428 11.4977 21.6158 11.4808 C 21.6812 11.4657 21.7411 11.4303 21.8069 11.4171 C 21.8485 11.4088 21.9343 11.4171 21.9343 11.4171 "/>
        <path id="ID0.7584992088377476" fill="none" stroke="#000000" stroke-width="0.12737707129525955" stroke-linecap="round" d="M 21.4248 10.8439 C 21.4248 10.8439 21.6136 10.7802 21.7114 10.7802 C 21.7685 10.7802 21.8706 10.8439 21.8706 10.8439 "/>
        <path id="ID0.40438934741541743" fill="none" stroke="#000000" stroke-width="0.12737707129525955" stroke-linecap="round" d="M 21.4885 9.602 C 21.5839 9.6656 21.6823 9.7256 21.7751 9.7931 C 21.7993 9.8107 21.8388 9.8567 21.8388 9.8567 "/>
        <path id="ID0.7633831659331918" fill="none" stroke="#000000" stroke-width="0.12737707129525955" stroke-linecap="round" d="M 21.2656 9.2199 C 21.2656 9.2199 21.4777 9.1956 21.584 9.188 C 21.6263 9.185 21.669 9.188 21.7114 9.188 C 21.7644 9.188 21.8175 9.188 21.8706 9.188 C 21.8838 9.188 21.8706 9.188 21.8706 9.188 "/>
        <path id="ID0.8195131137035787" fill="none" stroke="#000000" stroke-width="0.12737707129525955" stroke-linecap="round" d="M 21.4566 8.4238 C 21.4566 8.4238 21.5416 8.36 21.584 8.3282 C 21.6264 8.2964 21.6679 8.2631 21.7114 8.2327 C 21.774 8.1888 21.8388 8.1477 21.9024 8.1053 C 21.9184 8.0947 21.9024 8.1053 21.9024 8.1053 "/>
        <path id="ID0.923992021009326" fill="none" stroke="#000000" stroke-width="0.12737707129525955" stroke-linecap="round" d="M 21.4885 7.5958 C 21.4885 7.5958 22.0298 7.5958 22.0298 7.5958 "/>
      </g>
      <g id="ID0.2824689648114145">
        <path id="ID0.8757698251865804" fill="#995900" stroke="#995900" stroke-width="0.12737707129525955" d="M 19.0483 12.1558 L 20.0991 12.1558 L 20.0991 7.3474 L 19.0483 7.3474 L 19.0483 12.1558 Z "/>
        <path id="ID0.6422801343724132" fill="none" stroke="#000000" stroke-width="0.12737707129525955" stroke-linecap="round" d="M 19.303 11.7419 C 19.303 11.7419 19.4529 11.7269 19.5259 11.71 C 19.5913 11.6949 19.6512 11.6595 19.717 11.6463 C 19.7586 11.638 19.8444 11.6463 19.8444 11.6463 "/>
        <path id="ID0.7584992088377476" fill="none" stroke="#000000" stroke-width="0.12737707129525955" stroke-linecap="round" d="M 19.3349 11.0731 C 19.3349 11.0731 19.5237 11.0094 19.6214 11.0094 C 19.6786 11.0094 19.7807 11.0731 19.7807 11.0731 "/>
        <path id="ID0.40438934741541743" fill="none" stroke="#000000" stroke-width="0.12737707129525955" stroke-linecap="round" d="M 19.3985 9.8312 C 19.4939 9.8948 19.5923 9.9548 19.6851 10.0223 C 19.7094 10.0399 19.7488 10.086 19.7488 10.086 "/>
        <path id="ID0.7633831659331918" fill="none" stroke="#000000" stroke-width="0.12737707129525955" stroke-linecap="round" d="M 19.1756 9.4491 C 19.1756 9.4491 19.3878 9.4248 19.4941 9.4172 C 19.5364 9.4142 19.579 9.4172 19.6214 9.4172 C 19.6745 9.4172 19.7276 9.4172 19.7807 9.4172 C 19.7939 9.4172 19.7807 9.4172 19.7807 9.4172 "/>
        <path id="ID0.8195131137035787" fill="none" stroke="#000000" stroke-width="0.12737707129525955" stroke-linecap="round" d="M 19.3667 8.653 C 19.3667 8.653 19.4517 8.5892 19.4941 8.5574 C 19.5365 8.5257 19.578 8.4923 19.6214 8.4619 C 19.6841 8.418 19.7489 8.3769 19.8125 8.3345 C 19.8284 8.324 19.8125 8.3345 19.8125 8.3345 "/>
        <path id="ID0.923992021009326" fill="none" stroke="#000000" stroke-width="0.12737707129525955" stroke-linecap="round" d="M 19.3985 7.825 C 19.3985 7.825 19.9399 7.825 19.9399 7.825 "/>
      </g>
      <g id="ID0.2824689648114145">
        <path id="ID0.8757698251865804" fill="#995900" stroke="#995900" stroke-width="0.12737707129525955" d="M 18.064 11.8929 L 19.1148 11.8929 L 19.1148 7.0844 L 18.064 7.0844 L 18.064 11.8929 Z "/>
        <path id="ID0.6422801343724132" fill="none" stroke="#000000" stroke-width="0.12737707129525955" stroke-linecap="round" d="M 18.3187 11.4789 C 18.3187 11.4789 18.4686 11.464 18.5416 11.4471 C 18.607 11.432 18.6669 11.3966 18.7327 11.3834 C 18.7743 11.3751 18.8601 11.3834 18.8601 11.3834 "/>
        <path id="ID0.7584992088377476" fill="none" stroke="#000000" stroke-width="0.12737707129525955" stroke-linecap="round" d="M 18.3506 10.8102 C 18.3506 10.8102 18.5394 10.7465 18.6372 10.7465 C 18.6943 10.7465 18.7964 10.8102 18.7964 10.8102 "/>
        <path id="ID0.40438934741541743" fill="none" stroke="#000000" stroke-width="0.12737707129525955" stroke-linecap="round" d="M 18.4143 9.5683 C 18.5097 9.6319 18.6081 9.6919 18.7009 9.7593 C 18.7251 9.777 18.7645 9.823 18.7645 9.823 "/>
        <path id="ID0.7633831659331918" fill="none" stroke="#000000" stroke-width="0.12737707129525955" stroke-linecap="round" d="M 18.1913 9.1862 C 18.1913 9.1862 18.4035 9.1619 18.5098 9.1543 C 18.5521 9.1513 18.5947 9.1543 18.6372 9.1543 C 18.6902 9.1543 18.7433 9.1543 18.7964 9.1543 C 18.8096 9.1543 18.7964 9.1543 18.7964 9.1543 "/>
        <path id="ID0.8195131137035787" fill="none" stroke="#000000" stroke-width="0.12737707129525955" stroke-linecap="round" d="M 18.3824 8.39 C 18.3824 8.39 18.4674 8.3263 18.5098 8.2945 C 18.5522 8.2627 18.5937 8.2294 18.6372 8.199 C 18.6998 8.1551 18.7646 8.114 18.8282 8.0716 C 18.8442 8.061 18.8282 8.0716 18.8282 8.0716 "/>
        <path id="ID0.923992021009326" fill="none" stroke="#000000" stroke-width="0.12737707129525955" stroke-linecap="round" d="M 18.4143 7.5621 C 18.4143 7.5621 18.9556 7.5621 18.9556 7.5621 "/>
      </g>
      <g id="ID0.2824689648114145">
        <path id="ID0.8757698251865804" fill="#995900" stroke="#995900" stroke-width="0.12737707129525955" d="M 20.1404 12.1356 L 21.1913 12.1356 L 21.1913 7.3271 L 20.1404 7.3271 L 20.1404 12.1356 Z "/>
        <path id="ID0.6422801343724132" fill="none" stroke="#000000" stroke-width="0.12737707129525955" stroke-linecap="round" d="M 20.3952 11.7216 C 20.3952 11.7216 20.545 11.7067 20.6181 11.6898 C 20.6834 11.6747 20.7433 11.6393 20.8091 11.6261 C 20.8507 11.6178 20.9365 11.6261 20.9365 11.6261 "/>
        <path id="ID0.7584992088377476" fill="none" stroke="#000000" stroke-width="0.12737707129525955" stroke-linecap="round" d="M 20.427 11.0529 C 20.427 11.0529 20.6158 10.9892 20.7136 10.9892 C 20.7707 10.9892 20.8728 11.0529 20.8728 11.0529 "/>
        <path id="ID0.40438934741541743" fill="none" stroke="#000000" stroke-width="0.12737707129525955" stroke-linecap="round" d="M 20.4907 9.811 C 20.5861 9.8746 20.6845 9.9346 20.7773 10.002 C 20.8016 10.0197 20.841 10.0657 20.841 10.0657 "/>
        <path id="ID0.7633831659331918" fill="none" stroke="#000000" stroke-width="0.12737707129525955" stroke-linecap="round" d="M 20.2678 9.4289 C 20.2678 9.4289 20.4799 9.4046 20.5862 9.397 C 20.6285 9.394 20.6712 9.397 20.7136 9.397 C 20.7667 9.397 20.8198 9.397 20.8728 9.397 C 20.8861 9.397 20.8728 9.397 20.8728 9.397 "/>
        <path id="ID0.8195131137035787" fill="none" stroke="#000000" stroke-width="0.12737707129525955" stroke-linecap="round" d="M 20.4588 8.6327 C 20.4588 8.6327 20.5438 8.569 20.5862 8.5372 C 20.6286 8.5054 20.6702 8.4721 20.7136 8.4417 C 20.7763 8.3978 20.841 8.3567 20.9047 8.3143 C 20.9206 8.3037 20.9047 8.3143 20.9047 8.3143 "/>
        <path id="ID0.923992021009326" fill="none" stroke="#000000" stroke-width="0.12737707129525955" stroke-linecap="round" d="M 20.4907 7.8048 C 20.4907 7.8048 21.032 7.8048 21.032 7.8048 "/>
      </g>
    </g>
  </g>
</svg>