<svg version="1.1" xmlns="http://www.w3.org/2000/svg" xmlns:xlink="http://www.w3.org/1999/xlink" width="527" height="528.16741" viewBox="0,0,527,528.16741"><g transform="translate(22.98434,131.50637)"><g data-paper-data="{&quot;isPaintingLayer&quot;:true}" fill="none" fill-rule="nonzero" stroke-width="5" stroke-linecap="round" stroke-linejoin="miter" stroke-miterlimit="10" stroke-dasharray="" stroke-dashoffset="0" style="mix-blend-mode: normal"><g><path d="M-20.48434,31.5h521" stroke="#bbbbbb"/><path d="M-20.48434,81.5h521" stroke="#bbbbbb"/><path d="M-20.48434,131.5h521" stroke="#bbbbbb"/><path d="M-20.48434,181.5h521" stroke="#bbbbbb"/><path d="M-19.48434,229.5h521" stroke="#bbbbbb"/><path d="M-19.48434,279.5h521" stroke="#bbbbbb"/><path d="M-19.48434,329.5h521" stroke="#bbbbbb"/></g><path d="M43.40619,394.00637l-1.77591,-520.99697" stroke="#bbbbbb"/><path d="M93.4059,393.83594l-1.77591,-520.99697" stroke="#bbbbbb"/><path d="M143.40561,393.66551l-1.77591,-520.99697" stroke="#bbbbbb"/><path d="M193.40532,393.49508l-1.77591,-520.99697" stroke="#bbbbbb"/><path d="M241.40163,392.33147l-1.77591,-520.99697" stroke="#bbbbbb"/><path d="M291.40134,392.16103l-1.77591,-520.99697" stroke="#bbbbbb"/><path d="M341.40105,391.9906l-1.77591,-520.99697" stroke="#bbbbbb"/><path d="M393.40134,394.16104l-1.77591,-520.99697" stroke="#bbbbbb"/><path d="M443.40105,393.9906l-1.77591,-520.99697" stroke="#bbbbbb"/></g></g></svg>