<svg xmlns="http://www.w3.org/2000/svg" xmlns:xlink="http://www.w3.org/1999/xlink" version="1.1" width="142.10134058798417" height="335.61664515341386" viewBox="4.930830808455431 -0.17485776347450033 142.10134058798417 335.61664515341386">
  <defs>
    <radialGradient id="grad_1" cx="0.8319" cy="0.48619999999999997" r="1.0814700000000002">
      <stop offset="0" stop-color="#FFCCF2" stop-opacity="1"/>
      <stop offset="1" stop-color="#CC99FF" stop-opacity="1"/>
    </radialGradient>
    <radialGradient id="grad_2" cx="0.8753" cy="0.4915" r="1.13789">
      <stop offset="0" stop-color="#FFCCF2" stop-opacity="1"/>
      <stop offset="1" stop-color="#CC99FF" stop-opacity="1"/>
    </radialGradient>
    <radialGradient id="grad_3" cx="0.7333" cy="0.5156000000000001" r="0.95329">
      <stop offset="0" stop-color="#FFCCF2" stop-opacity="1"/>
      <stop offset="1" stop-color="#CC99FF" stop-opacity="1"/>
    </radialGradient>
    <radialGradient id="grad_4" cx="0.8194" cy="0.5239" r="1.06522">
      <stop offset="0" stop-color="#FFCCF2" stop-opacity="1"/>
      <stop offset="1" stop-color="#CC99FF" stop-opacity="1"/>
    </radialGradient>
    <radialGradient id="grad_5" cx="0.2147" cy="0.1527" r="1.10149">
      <stop offset="0" stop-color="#FFE9CC" stop-opacity="1"/>
      <stop offset="1" stop-color="#FFD499" stop-opacity="1"/>
    </radialGradient>
    <radialGradient id="grad_6" cx="0.1197" cy="0.1527" r="1.14439">
      <stop offset="0" stop-color="#FFE9CC" stop-opacity="1"/>
      <stop offset="1" stop-color="#FFD499" stop-opacity="1"/>
    </radialGradient>
    <radialGradient id="grad_7" cx="0.0751" cy="0.1375" r="1.20237">
      <stop offset="0" stop-color="#FFCCF2" stop-opacity="1"/>
      <stop offset="1" stop-color="#CC99FF" stop-opacity="1"/>
    </radialGradient>
    <radialGradient id="grad_8" cx="0.0504" cy="0.1139" r="1.23448">
      <stop offset="0" stop-color="#FFCCF2" stop-opacity="1"/>
      <stop offset="1" stop-color="#CC99FF" stop-opacity="1"/>
    </radialGradient>
    <radialGradient id="grad_9" cx="0.8273999999999999" cy="0.1485" r="1.1069499999999999">
      <stop offset="0" stop-color="#FFE9CC" stop-opacity="1"/>
      <stop offset="1" stop-color="#FFD499" stop-opacity="1"/>
    </radialGradient>
    <radialGradient id="grad_10" cx="0.9612" cy="0.138" r="1.2495600000000002">
      <stop offset="0" stop-color="#FFE9CC" stop-opacity="1"/>
      <stop offset="1" stop-color="#FFD499" stop-opacity="1"/>
    </radialGradient>
    <radialGradient id="grad_11" cx="0.8484" cy="0.4685" r="1.1029200000000001">
      <stop offset="0" stop-color="#00CCCC" stop-opacity="1"/>
      <stop offset="1" stop-color="#99FFFF" stop-opacity="1"/>
    </radialGradient>
    <radialGradient id="grad_12" cx="0.8618000000000001" cy="0.4685" r="1.1203400000000001">
      <stop offset="0" stop-color="#00CCCC" stop-opacity="1"/>
      <stop offset="1" stop-color="#99FFFF" stop-opacity="1"/>
    </radialGradient>
  <radialGradient id="grad_1-1.7967947721481323,-0.5688834190368652,-0.4052964746952057,2.3242316246032715,648.95,-97.95" cx="15.154" cy="130.8864" r="64.645" gradientUnits="userSpaceOnUse">
      <stop offset="0" stop-color="#FFCCF2" stop-opacity="1"/>
      <stop offset="1" stop-color="#CC99FF" stop-opacity="1"/>
    </radialGradient><radialGradient id="grad_3-.7967947721481323,-0.5688834190368652,0.4052964746952057,2.3242316246032715,-508.95,-98.1" cx="128.2103" cy="144.6143" r="69.7162" gradientUnits="userSpaceOnUse">
      <stop offset="0" stop-color="#FFCCF2" stop-opacity="1"/>
      <stop offset="1" stop-color="#CC99FF" stop-opacity="1"/>
    </radialGradient><radialGradient id="grad_5-.5987741947174072,0,0,1.3771361112594604,-600.05,-46.2" cx="38.9089" cy="268.2555" r="76.2262" gradientUnits="userSpaceOnUse">
      <stop offset="0" stop-color="#FFE9CC" stop-opacity="1"/>
      <stop offset="1" stop-color="#FFD499" stop-opacity="1"/>
    </radialGradient><radialGradient id="grad_7-.0531585216522217,0.054054196923971176,-0.04667910188436508,1.773027777671814,-405.1,-199.35" cx="28.6064" cy="97.4963" r="122.4629" gradientUnits="userSpaceOnUse">
      <stop offset="0" stop-color="#FFCCF2" stop-opacity="1"/>
      <stop offset="1" stop-color="#CC99FF" stop-opacity="1"/>
    </radialGradient><radialGradient id="grad_9-2.5987741947174072,0,0,1.0508567094802856,739.8,24" cx="81.4154" cy="263.7522" r="73.012" gradientUnits="userSpaceOnUse">
      <stop offset="0" stop-color="#FFE9CC" stop-opacity="1"/>
      <stop offset="1" stop-color="#FFD499" stop-opacity="1"/>
    </radialGradient><radialGradient id="grad_11-.0030394792556763,0,0,0.9945966005325317,-171,-13.25" cx="106.5911" cy="218.8627" r="104.6941" gradientUnits="userSpaceOnUse">
      <stop offset="0" stop-color="#00CCCC" stop-opacity="1"/>
      <stop offset="1" stop-color="#99FFFF" stop-opacity="1"/>
    </radialGradient></defs>
  <!-- Exported by Scratch - http://scratch.mit.edu/ -->
  <g id="ID0.04104035533964634">
    <g id="ID0.716745896730572">
      <path id="ID0.7297148094512522" fill="#FFDEAE" d="M 139.4005 207.0713 C 140.1724 210.3701 142.0709 213.827 141.1781 217.2729 C 139.5734 223.4654 136.2779 229.2616 132.4516 234.4104 C 131.5254 235.6998 128.9808 235.6711 127.9778 234.5893 C 127.1451 233.7469 128.3 231.9432 128.775 230.5462 C 129.9785 227.2359 132.0213 224.3092 133.1595 220.8926 C 133.8619 218.8637 134.8594 216.6465 134.3969 214.5503 C 132.3445 211.0722 130.3025 211.5012 128.5784 210.4586 C 124.4702 210.5221 124.2589 205.7105 123.9828 202.0093 C 123.6889 199.0681 122.0012 194.8633 124.393 192.9882 C 127.4596 190.5389 132.6112 190.4582 136.2274 192.3076 C 138.5674 193.5204 137.1293 197.5731 137.7051 200.0988 C 138.2347 202.4283 139.0145 204.6422 139.4005 207.0713 Z " stroke-width="2.6463212738603072"/>
      <path id="ID0.7297148094512522" fill="#FFD499" d="M 125.2595 203.0314 C 127.9148 202.3994 130.0595 205.6416 132.1605 207.4751 C 133.7808 208.8938 135.7464 210.3569 136.1188 212.6117 C 136.5796 215.4493 134.995 218.2614 134.0988 221.0124 C 133.1541 223.8979 132.2896 226.9413 130.3856 229.3477 C 129.3249 230.8023 126.4238 232.9056 125.6288 232.0386 C 124.6738 230.9905 126.23 227.5118 127.0005 225.4327 C 128.1695 222.2894 129.8906 219.3502 131.0379 216.1999 C 131.5018 214.9394 132.1267 213.5896 131.7008 212.4205 C 131.2341 211.3209 129.9419 210.2618 128.7776 210.4671 C 127.5025 210.6917 126.8597 212.2357 126.0841 213.279 C 124.7771 215.0372 124.0781 217.2444 122.6818 218.9173 C 121.8226 219.95 120.8161 221.3711 119.5952 221.197 C 118.323 221.0379 117.2549 219.4449 117.3942 218.2169 C 117.7312 215.2702 119.3802 212.6344 120.7095 210.0109 C 121.9587 207.542 122.5185 203.5919 125.2595 203.0314 Z " stroke-width="2.6463212738603072"/>
    </g>
    <path id="ID0.41013610642403364" fill="url(#grad_1-1.7967947721481323,-0.5688834190368652,-0.4052964746952057,2.3242316246032715,648.95,-97.95)" stroke="url(#grad_2)" stroke-width="4.247138317476344" d="M 27.4819 115.4763 L 31.2903 102.3347 L 26.8517 91.3644 L 22.0476 94.9937 L 19.7854 100.8994 L 7.0544 147.2686 L 7.5016 152.3153 L 11.5828 158.2673 L 32.1939 181.9608 L 29.0158 153.9765 L 24.7643 152.2626 L 22.5089 147.2565 L 27.4819 115.4763 Z "/>
    <path id="ID0.41013610642403364" fill="url(#grad_3-.7967947721481323,-0.5688834190368652,0.4052964746952057,2.3242316246032715,-508.95,-98.1)" stroke="url(#grad_4)" stroke-width="4.247138317476344" d="M 112.5181 115.3263 L 108.7097 102.1847 L 113.1483 91.2144 L 117.9524 94.8437 L 120.2146 100.7494 L 144.9086 193.9762 L 116.1599 203.0783 L 117.4027 155.8411 L 112.5181 115.3263 Z "/>
    <path id="ID0.47236768435686827" fill="url(#grad_5-.5987741947174072,0,0,1.3771361112594604,-600.05,-46.2)" stroke="url(#grad_6)" d="M 32.1018 258.6979 L 63.8069 258.6979 L 60.1686 321.2888 L 41.0676 320.5313 L 32.1018 258.6979 Z " stroke-width="2.079679204115858"/>
    <path id="ID0.8654622961767018" fill="#000000" stroke="#000000" stroke-width="3.1449280204830425" d="M 50.371 316.8595 C 54.0849 316.8595 57.4511 317.7812 59.888 319.2713 C 62.325 320.7614 63.8327 322.8183 63.8327 325.0888 C 63.8327 327.3593 62.325 329.4163 59.888 330.9064 C 57.4511 332.3965 54.0849 333.3182 50.371 333.3182 C 46.6571 333.3182 43.2909 332.3965 40.854 330.9064 C 38.417 329.4163 36.9093 327.3593 36.9093 325.0888 C 36.9093 322.8183 38.417 320.7614 40.854 319.2713 C 43.2909 317.7812 46.6571 316.8595 50.371 316.8595 Z "/>
    <path id="ID0.43916446389630437" fill="url(#grad_7-.0531585216522217,0.054054196923971176,-0.04667910188436508,1.773027777671814,-405.1,-199.35)" stroke="url(#grad_8)" stroke-width="3.8377566911378875" d="M 32.7195 85.9444 L 44.4762 84.2136 L 96.4281 85.3152 L 110.4362 87.8131 L 115.8887 91.4164 L 118.9544 95.9328 L 120.7229 102.8989 L 98.3054 181.7955 L 32.9823 185.221 L 21.0374 100.4519 L 22.771 93.1344 L 26.8843 89.0732 L 32.7195 85.9444 Z "/>
    <path id="ID0.47236768435686827" fill="url(#grad_9-2.5987741947174072,0,0,1.0508567094802856,739.8,24)" stroke="url(#grad_10)" d="M 107.6482 256.6597 L 75.9431 256.6597 L 79.5814 304.4211 L 98.6824 303.8431 L 107.6482 256.6597 Z " stroke-width="1.9821613379072909"/>
    <path id="ID0.8654622961767018" fill="#000000" stroke="#000000" stroke-width="2.7814584458268437" d="M 89.429 301.0715 C 85.7151 301.0715 82.3489 301.7748 79.912 302.9119 C 77.475 304.0489 75.9673 305.6185 75.9673 307.3511 C 75.9673 309.0836 77.475 310.6532 79.912 311.7903 C 82.3489 312.9274 85.7151 313.6307 89.429 313.6307 C 93.1429 313.6307 96.5091 312.9274 98.946 311.7903 C 101.383 310.6532 102.8907 309.0836 102.8907 307.3511 C 102.8907 305.6185 101.383 304.0489 98.946 302.9119 C 96.5091 301.7748 93.1429 301.0715 89.429 301.0715 Z "/>
    <path id="ID0.10144270723685622" fill="url(#grad_11-.0030394792556763,0,0,0.9945966005325317,-171,-13.25)" stroke="url(#grad_12)" stroke-width="3.9953078426938435" stroke-linecap="round" d="M 33.0182 184.4758 L 98.5167 181.492 L 122.9909 256.7332 L 14.8131 261.2587 L 33.0182 184.4758 Z "/>
    <g id="ID0.9729278031736612">
      <g id="ID0.809288214892149">
        <path id="ID0.8839382561855018" fill="#FFFF00" stroke="#FFFF00" stroke-width="2.025195199111021" stroke-linecap="round" d="M 34.45 53.1443 C 46.076 54.1068 57.381 58.7615 69.05 58.782 C 80.424 58.8045 91.57 54.0207 103.05 53.2468 C 105.844 53.0541 104.535 55.1646 104.65 56.3731 C 104.78 57.883 103.552 59.2279 103.45 60.7296 C 103.467 62.0519 104.435 63.2583 104.4 64.5735 C 104.361 66.0639 103.417 67.4497 103.45 68.9299 C 103.59 70.3752 104.851 71.597 104.9 73.03 C 104.947 74.4333 103.92 75.7331 103.95 77.1302 C 104.093 78.5745 105.405 79.8015 105.4 81.2304 C 105.393 82.8243 104.139 84.2696 104.15 85.8431 C 104.226 87.315 105.598 88.5256 105.65 89.9432 C 105.698 91.2993 104.761 92.5376 104.65 93.8896 C 104.676 95.3278 105.629 96.7382 105.4 98.1435 C 105.184 99.4607 104.634 100.9019 103.65 101.7312 C 102.575 102.541 100.578 101.6 99.8 102.6025 C 98.686 104.0457 99.952 106.9292 98.55 107.9839 C 97.297 108.9198 95.333 106.6596 93.95 107.2151 C 92.379 107.8486 92.148 110.5629 90.65 111.1616 C 89.132 111.7643 87.302 110.1416 85.8 110.5465 C 84.329 110.9463 83.615 113.0261 82.15 113.3654 C 80.642 113.7129 79.001 112.491 77.55 112.6991 C 76.074 112.9123 74.874 114.535 73.45 114.5442 C 71.807 114.5483 70.38 112.8703 68.8 112.8529 C 67.236 112.8416 65.809 114.333 64.3 114.2367 C 62.257 114.0901 60.43 112.6243 58.45 112.3403 C 56.784 112.1036 55.034 112.7883 53.4 112.4941 C 51.991 112.2368 50.612 111.7058 49.4 110.9565 C 48.256 110.2503 47.773 108.5774 46.55 107.9839 C 45.028 107.252 42.91 108.2802 41.45 107.3689 C 40.065 106.4986 40.147 104.138 38.95 102.9612 C 37.879 101.9536 35.89 102.1391 34.8 101.0649 C 33.662 99.9425 32.64 98.4234 32.45 96.811 C 32.289 95.3626 34.2 94.1223 34.15 92.6083 C 33.993 91.2553 32.109 90.5326 31.9 89.1744 C 31.655 87.5713 33.143 86.047 33.15 84.408 C 33.056 83.0836 31.697 82.0473 31.65 80.7179 C 31.6 79.3002 33.021 78.0784 33.05 76.6177 C 33.021 75.1908 31.672 73.9628 31.65 72.5175 C 31.626 70.9318 33.053 69.5818 33.15 68.0074 C 33.14 66.4616 31.749 65.085 31.9 63.5484 C 32.025 62.2846 33.993 61.4194 33.95 60.0633 C 33.897 58.4099 31.529 57.3203 31.65 55.7069 C 31.741 54.3938 31.543 52.9034 34.45 53.1443 Z "/>
        <path id="ID0.4806634387932718" fill="none" stroke="#CCCC00" stroke-width="2.229000442569227" stroke-linecap="round" d="M 74.5499 60.8177 C 74.5499 60.8177 73.2235 66.1427 72.8348 68.957 C 72.6808 70.0731 72.8584 71.2678 72.9491 72.4059 C 73.049 73.664 73.2266 74.9029 73.4065 76.1306 C 73.5696 77.2467 73.8517 78.3089 73.9782 79.4416 C 74.2077 81.4888 74.5636 83.5678 74.4737 85.6495 C 74.4295 86.6662 73.8235 87.3367 73.5971 88.2706 C 73.363 89.2349 73.1496 90.2558 73.1016 91.3056 C 72.9583 94.4193 72.8706 97.5743 73.0254 100.6865 C 73.0772 101.7322 73.5734 102.5641 73.7114 103.5836 C 73.8562 104.6582 73.8844 105.7881 73.8639 106.8945 C 73.8463 107.8271 73.764 108.7707 73.5971 109.6536 C 73.4553 110.4027 72.9491 111.7229 72.9491 111.7229 "/>
        <path id="ID0.7519200313836336" fill="none" stroke="#FF9400" stroke-width="2.229000442569227" stroke-linecap="round" d="M 71.4246 60.6797 C 71.4246 60.6797 69.9815 65.435 69.7856 68.0603 C 69.6728 69.5654 70.3131 70.9477 70.5479 72.4059 C 70.7576 73.7054 71.282 75.016 71.1196 76.3376 C 70.987 77.4164 69.9671 77.5585 69.7856 78.6138 C 69.5692 79.8734 69.945 81.2405 70.0524 82.5455 C 70.1607 83.8602 70.3688 85.1529 70.4336 86.4772 C 70.4961 87.7588 70.4031 89.0542 70.4336 90.34 C 70.5304 94.4082 70.8711 98.4779 70.8147 102.5489 C 70.7819 104.9466 70.4831 107.3249 70.1668 109.6536 C 70.073 110.342 69.5951 111.516 69.5951 111.516 "/>
        <path id="ID0.4806634387932718" fill="none" stroke="#FF9400" stroke-width="1.892105289214821" stroke-linecap="round" d="M 32.9001 55.0251 C 32.9001 55.0251 34.2265 59.2692 34.6152 61.5122 C 34.7692 62.4018 34.5916 63.3539 34.5009 64.2611 C 34.401 65.2638 34.2234 66.2512 34.0435 67.2298 C 33.8804 68.1193 33.5983 68.9659 33.4718 69.8686 C 33.2423 71.5003 32.8864 73.1573 32.9763 74.8165 C 33.0205 75.6268 33.6265 76.1612 33.8529 76.9056 C 34.087 77.6741 34.3004 78.4878 34.3484 79.3245 C 34.4917 81.8062 34.5794 84.3208 34.4246 86.8013 C 34.3728 87.6347 33.8766 88.2978 33.7386 89.1103 C 33.5938 89.9668 33.5656 90.8673 33.5861 91.7492 C 33.6037 92.4924 33.686 93.2445 33.8529 93.9482 C 33.9947 94.5452 34.5009 95.5975 34.5009 95.5975 "/>
        <path id="ID0.7519200313836336" fill="none" stroke="#CCCC00" stroke-width="1.892105289214821" stroke-linecap="round" d="M 36.0254 54.9151 C 36.0254 54.9151 37.4685 58.7052 37.6644 60.7976 C 37.7772 61.9971 37.1369 63.0989 36.9021 64.2611 C 36.6924 65.2968 36.168 66.3414 36.3304 67.3947 C 36.463 68.2545 37.4829 68.3678 37.6644 69.2089 C 37.8808 70.2128 37.505 71.3024 37.3976 72.3426 C 37.2893 73.3904 37.0812 74.4207 37.0164 75.4762 C 36.9539 76.4977 37.0469 77.5301 37.0164 78.5549 C 36.9196 81.7974 36.5789 85.041 36.6353 88.2857 C 36.6681 90.1966 36.9669 92.0922 37.2832 93.9482 C 37.377 94.4969 37.8549 95.4326 37.8549 95.4326 "/>
        <path id="ID0.4806634387932718" fill="none" stroke="#995900" stroke-width="2.1220661445855895" stroke-linecap="round" d="M 39.4001 57.4339 C 39.4001 57.4339 40.7265 62.4228 41.1152 65.0595 C 41.2692 66.1051 41.0916 67.2244 41.0009 68.2907 C 40.901 69.4694 40.7234 70.6301 40.5435 71.7804 C 40.3804 72.826 40.0983 73.8212 39.9718 74.8823 C 39.7423 76.8004 39.3864 78.7482 39.4763 80.6985 C 39.5205 81.6511 40.1265 82.2792 40.3529 83.1542 C 40.587 84.0577 40.8004 85.0141 40.8484 85.9977 C 40.9917 88.9148 41.0794 91.8707 40.9246 94.7865 C 40.8728 95.7662 40.3766 96.5456 40.2386 97.5007 C 40.0938 98.5076 40.0656 99.5661 40.0861 100.6027 C 40.1037 101.4764 40.186 102.3605 40.3529 103.1877 C 40.4947 103.8895 41.0009 105.1264 41.0009 105.1264 "/>
        <path id="ID0.7519200313836336" fill="none" stroke="#FF9400" stroke-width="2.1220661445855895" stroke-linecap="round" d="M 42.5254 57.3046 C 42.5254 57.3046 43.9685 61.7598 44.1644 64.2194 C 44.2772 65.6295 43.6369 66.9245 43.4021 68.2907 C 43.1924 69.5082 42.668 70.7361 42.8304 71.9743 C 42.963 72.985 43.9829 73.1181 44.1644 74.1069 C 44.3808 75.2869 44.005 76.5677 43.8976 77.7904 C 43.7893 79.0222 43.5812 80.2332 43.5164 81.474 C 43.4539 82.6747 43.5469 83.8883 43.5164 85.0929 C 43.4196 88.9045 43.0789 92.7173 43.1353 96.5314 C 43.1681 98.7777 43.4669 101.0059 43.7832 103.1877 C 43.877 103.8326 44.3549 104.9325 44.3549 104.9325 "/>
        <path id="ID0.4806634387932718" fill="none" stroke="#CCCC00" stroke-width="2.1220661445855895" stroke-linecap="round" d="M 46.6001 58.2839 C 46.6001 58.2839 47.9265 63.2728 48.3152 65.9095 C 48.4692 66.9551 48.2916 68.0744 48.2009 69.1407 C 48.101 70.3194 47.9234 71.4801 47.7435 72.6304 C 47.5804 73.676 47.2983 74.6712 47.1718 75.7323 C 46.9423 77.6504 46.5864 79.5982 46.6763 81.5485 C 46.7205 82.5011 47.3265 83.1292 47.5529 84.0042 C 47.787 84.9077 48.0004 85.8641 48.0484 86.8477 C 48.1917 89.7648 48.2794 92.7207 48.1246 95.6365 C 48.0728 96.6162 47.5766 97.3956 47.4386 98.3507 C 47.2938 99.3576 47.2656 100.4161 47.2861 101.4527 C 47.3037 102.3264 47.386 103.2105 47.5529 104.0377 C 47.6947 104.7395 48.2009 105.9764 48.2009 105.9764 "/>
        <path id="ID0.7519200313836336" fill="none" stroke="#995900" stroke-width="2.1220661445855895" stroke-linecap="round" d="M 49.7254 58.1546 C 49.7254 58.1546 51.1685 62.6098 51.3644 65.0694 C 51.4772 66.4795 50.8369 67.7745 50.6021 69.1407 C 50.3924 70.3582 49.868 71.5861 50.0304 72.8243 C 50.163 73.835 51.1829 73.9681 51.3644 74.9569 C 51.5808 76.1369 51.205 77.4177 51.0976 78.6404 C 50.9893 79.8722 50.7812 81.0832 50.7164 82.324 C 50.6539 83.5247 50.7469 84.7383 50.7164 85.9429 C 50.6196 89.7545 50.2789 93.5673 50.3353 97.3814 C 50.3681 99.6277 50.6669 101.8559 50.9832 104.0377 C 51.077 104.6826 51.5549 105.7825 51.5549 105.7825 "/>
        <path id="ID0.4806634387932718" fill="none" stroke="#FF9400" stroke-width="2.229000295010233" stroke-linecap="round" d="M 54.1501 59.7677 C 54.1501 59.7677 55.4765 65.0927 55.8652 67.907 C 56.0192 69.0231 55.8416 70.2177 55.7509 71.3559 C 55.651 72.614 55.4734 73.8528 55.2935 75.0806 C 55.1304 76.1967 54.8483 77.2589 54.7218 78.3915 C 54.4923 80.4388 54.1364 82.5178 54.2263 84.5995 C 54.2705 85.6162 54.8765 86.2867 55.1029 87.2206 C 55.337 88.1849 55.5504 89.2058 55.5984 90.2556 C 55.7417 93.3693 55.8294 96.5243 55.6746 99.6365 C 55.6228 100.6822 55.1266 101.5141 54.9886 102.5336 C 54.8438 103.6082 54.8156 104.7381 54.8361 105.8445 C 54.8537 106.7771 54.936 107.7207 55.1029 108.6036 C 55.2447 109.3527 55.7509 110.6729 55.7509 110.6729 "/>
        <path id="ID0.7519200313836336" fill="none" stroke="#CCCC00" stroke-width="2.229000295010233" stroke-linecap="round" d="M 57.2754 59.6297 C 57.2754 59.6297 58.7185 64.385 58.9144 67.0103 C 59.0272 68.5154 58.3869 69.8977 58.1521 71.3559 C 57.9424 72.6554 57.418 73.966 57.5804 75.2876 C 57.713 76.3664 58.7329 76.5085 58.9144 77.5638 C 59.1308 78.8233 58.755 80.1905 58.6476 81.4955 C 58.5393 82.8102 58.3312 84.1029 58.2664 85.4272 C 58.2039 86.7088 58.2969 88.0042 58.2664 89.2899 C 58.1696 93.3582 57.8289 97.4279 57.8853 101.4989 C 57.9181 103.8966 58.2169 106.2749 58.5332 108.6036 C 58.627 109.292 59.1049 110.466 59.1049 110.466 "/>
        <path id="ID0.4806634387932718" fill="none" stroke="#995900" stroke-width="2.229000295010233" stroke-linecap="round" d="M 61.1001 60.3177 C 61.1001 60.3177 62.4265 65.6427 62.8152 68.457 C 62.9692 69.5731 62.7916 70.7677 62.7009 71.9059 C 62.601 73.164 62.4234 74.4028 62.2435 75.6306 C 62.0804 76.7467 61.7983 77.8089 61.6718 78.9415 C 61.4423 80.9888 61.0864 83.0678 61.1763 85.1495 C 61.2205 86.1662 61.8265 86.8367 62.0529 87.7706 C 62.287 88.7349 62.5004 89.7558 62.5484 90.8056 C 62.6917 93.9193 62.7794 97.0743 62.6246 100.1865 C 62.5728 101.2322 62.0766 102.0641 61.9386 103.0836 C 61.7938 104.1582 61.7656 105.2881 61.7861 106.3945 C 61.8037 107.3271 61.886 108.2707 62.0529 109.1536 C 62.1947 109.9027 62.7009 111.2229 62.7009 111.2229 "/>
        <path id="ID0.7519200313836336" fill="none" stroke="#CCCC00" stroke-width="2.229000295010233" stroke-linecap="round" d="M 64.2254 60.1797 C 64.2254 60.1797 65.6685 64.935 65.8644 67.5603 C 65.9772 69.0654 65.3369 70.4477 65.1021 71.9059 C 64.8924 73.2054 64.368 74.516 64.5304 75.8376 C 64.663 76.9164 65.6829 77.0585 65.8644 78.1138 C 66.0808 79.3733 65.705 80.7405 65.5976 82.0455 C 65.4893 83.3602 65.2812 84.6529 65.2164 85.9772 C 65.1539 87.2588 65.2469 88.5542 65.2164 89.8399 C 65.1196 93.9082 64.7789 97.9779 64.8353 102.0489 C 64.8681 104.4466 65.1669 106.8249 65.4832 109.1536 C 65.577 109.842 66.0549 111.016 66.0549 111.016 "/>
        <path id="ID0.4806634387932718" fill="none" stroke="#995900" stroke-width="1.9046536918282957" stroke-linecap="round" d="M 104.0999 55.1135 C 104.0999 55.1135 102.7735 59.3993 102.3848 61.6643 C 102.2308 62.5626 102.4084 63.5241 102.4991 64.4401 C 102.599 65.4527 102.7766 66.4497 102.9565 67.4379 C 103.1196 68.3362 103.4017 69.1911 103.5282 70.1026 C 103.7577 71.7503 104.1136 73.4236 104.0237 75.099 C 103.9795 75.9173 103.3735 76.4569 103.1471 77.2086 C 102.913 77.9847 102.6996 78.8063 102.6516 79.6513 C 102.5083 82.1572 102.4206 84.6965 102.5754 87.2013 C 102.6272 88.0429 103.1234 88.7124 103.2614 89.533 C 103.4062 90.3979 103.4344 91.3072 103.4139 92.1977 C 103.3963 92.9483 103.314 93.7077 103.1471 94.4183 C 103.0053 95.0212 102.4991 96.0838 102.4991 96.0838 "/>
        <path id="ID0.7519200313836336" fill="none" stroke="#CCCC00" stroke-width="1.9046536918282957" stroke-linecap="round" d="M 100.9746 55.0025 C 100.9746 55.0025 99.5315 58.8297 99.3356 60.9426 C 99.2228 62.154 99.8631 63.2665 100.0979 64.4401 C 100.3076 65.486 100.832 66.5408 100.6696 67.6045 C 100.537 68.4727 99.5171 68.5871 99.3356 69.4365 C 99.1192 70.4502 99.495 71.5505 99.6024 72.6008 C 99.7107 73.6589 99.9188 74.6993 99.9836 75.7652 C 100.0461 76.7967 99.9531 77.8392 99.9836 78.874 C 100.0804 82.1483 100.4211 85.4237 100.3647 88.7002 C 100.3319 90.6299 100.0331 92.5441 99.7168 94.4183 C 99.623 94.9723 99.1451 95.9172 99.1451 95.9172 "/>
        <path id="ID0.4806634387932718" fill="none" stroke="#FF9400" stroke-width="2.122066289798414" stroke-linecap="round" d="M 97.4499 57.5339 C 97.4499 57.5339 96.1235 62.5228 95.7348 65.1595 C 95.5808 66.2051 95.7584 67.3244 95.8491 68.3907 C 95.949 69.5694 96.1266 70.7301 96.3065 71.8804 C 96.4696 72.926 96.7517 73.9212 96.8782 74.9824 C 97.1077 76.9004 97.4636 78.8482 97.3737 80.7985 C 97.3295 81.7511 96.7235 82.3792 96.4971 83.2542 C 96.263 84.1577 96.0496 85.1141 96.0016 86.0977 C 95.8583 89.0148 95.7706 91.9707 95.9254 94.8865 C 95.9772 95.8662 96.4734 96.6456 96.6114 97.6008 C 96.7562 98.6076 96.7844 99.6661 96.7639 100.7027 C 96.7463 101.5764 96.664 102.4605 96.4971 103.2877 C 96.3553 103.9895 95.8491 105.2264 95.8491 105.2264 "/>
        <path id="ID0.7519200313836336" fill="none" stroke="#995900" stroke-width="2.122066289798414" stroke-linecap="round" d="M 94.3246 57.4046 C 94.3246 57.4046 92.8815 61.8598 92.6856 64.3194 C 92.5728 65.7295 93.2131 67.0246 93.4479 68.3907 C 93.6576 69.6082 94.182 70.8361 94.0196 72.0743 C 93.887 73.085 92.8671 73.2181 92.6856 74.2069 C 92.4692 75.3869 92.845 76.6677 92.9524 77.8904 C 93.0607 79.1222 93.2688 80.3332 93.3336 81.574 C 93.3961 82.7747 93.3031 83.9884 93.3336 85.1929 C 93.4304 89.0045 93.7711 92.8173 93.7147 96.6314 C 93.6819 98.8777 93.3831 101.106 93.0668 103.2877 C 92.973 103.9326 92.4951 105.0325 92.4951 105.0325 "/>
        <path id="ID0.4806634387932718" fill="none" stroke="#FF9400" stroke-width="2.122066289798414" stroke-linecap="round" d="M 90.3499 58.3339 C 90.3499 58.3339 89.0235 63.3228 88.6348 65.9595 C 88.4808 67.0051 88.6584 68.1244 88.7491 69.1907 C 88.849 70.3694 89.0266 71.5301 89.2065 72.6804 C 89.3696 73.726 89.6517 74.7212 89.7782 75.7824 C 90.0077 77.7004 90.3636 79.6482 90.2737 81.5985 C 90.2295 82.5511 89.6235 83.1792 89.3971 84.0542 C 89.163 84.9577 88.9496 85.9141 88.9016 86.8977 C 88.7583 89.8148 88.6706 92.7707 88.8254 95.6865 C 88.8772 96.6662 89.3734 97.4456 89.5114 98.4008 C 89.6562 99.4076 89.6844 100.4661 89.6639 101.5027 C 89.6463 102.3764 89.564 103.2605 89.3971 104.0877 C 89.2553 104.7895 88.7491 106.0264 88.7491 106.0264 "/>
        <path id="ID0.7519200313836336" fill="none" stroke="#CCCC00" stroke-width="2.229000442569227" stroke-linecap="round" d="M 87.2246 58.2797 C 87.2246 58.2797 85.7815 63.035 85.5856 65.6603 C 85.4728 67.1654 86.1131 68.5477 86.3479 70.0059 C 86.5576 71.3054 87.082 72.616 86.9196 73.9376 C 86.787 75.0164 85.7671 75.1585 85.5856 76.2138 C 85.3692 77.4734 85.745 78.8405 85.8524 80.1455 C 85.9607 81.4602 86.1688 82.7529 86.2336 84.0772 C 86.2961 85.3588 86.2031 86.6542 86.2336 87.94 C 86.3304 92.0082 86.6711 96.0779 86.6147 100.1489 C 86.5819 102.5466 86.2831 104.9249 85.9668 107.2536 C 85.873 107.942 85.3951 109.116 85.3951 109.116 "/>
        <path id="ID0.4806634387932718" fill="none" stroke="#995900" stroke-width="2.229000442569227" stroke-linecap="round" d="M 82.5999 59.8177 C 82.5999 59.8177 81.2735 65.1427 80.8848 67.957 C 80.7308 69.0731 80.9084 70.2678 80.9991 71.4059 C 81.099 72.664 81.2766 73.9029 81.4565 75.1306 C 81.6196 76.2467 81.9017 77.3089 82.0282 78.4416 C 82.2577 80.4888 82.6136 82.5678 82.5237 84.6495 C 82.4795 85.6662 81.8735 86.3367 81.6471 87.2706 C 81.413 88.2349 81.1996 89.2558 81.1516 90.3056 C 81.0083 93.4193 80.9206 96.5743 81.0754 99.6865 C 81.1272 100.7322 81.6234 101.5641 81.7614 102.5836 C 81.9062 103.6582 81.9344 104.7881 81.9139 105.8945 C 81.8963 106.8271 81.814 107.7707 81.6471 108.6536 C 81.5053 109.4027 80.9991 110.7229 80.9991 110.7229 "/>
        <path id="ID0.7519200313836336" fill="none" stroke="#FF9400" stroke-width="2.229000442569227" stroke-linecap="round" d="M 79.4746 59.6797 C 79.4746 59.6797 78.0315 64.435 77.8356 67.0603 C 77.7228 68.5654 78.3631 69.9477 78.5979 71.4059 C 78.8076 72.7054 79.332 74.016 79.1696 75.3376 C 79.037 76.4164 78.0171 76.5585 77.8356 77.6138 C 77.6192 78.8734 77.995 80.2405 78.1024 81.5455 C 78.2107 82.8602 78.4188 84.1529 78.4836 85.4772 C 78.5461 86.7588 78.4531 88.0542 78.4836 89.34 C 78.5804 93.4082 78.9211 97.4779 78.8647 101.5489 C 78.8319 103.9466 78.5331 106.3249 78.2168 108.6536 C 78.123 109.342 77.6451 110.516 77.6451 110.516 "/>
      </g>
      <g id="ID0.762429166585207">
        <path id="ID0.6504686716943979" fill="#FFFF00" stroke="#FFFF00" stroke-width="2" stroke-linecap="round" d="M 29.35 25.05 C 27.881 26.392 28.177 27.657 28.35 29 C 28.524 30.4 30.365 31.021 30.5 32.2 C 30.611 33.571 29.072 34.458 29 35.7 C 28.926 37.056 30.638 38.287 30.5 39.7 C 30.16 41.055 28.623 41.836 27.75 42.95 C 26.993 43.919 25.782 44.836 25.5 46.2 C 25.239 47.371 26.323 48.591 26.25 49.95 C 26.17 51.474 25.162 52.875 25.15 54.4 C 25.144 55.912 26.661 57.446 26.5 59.2 C 26.296 60.476 24.261 61.301 24.15 62.7 C 24.04 64.13 25.827 65.112 25.75 66.45 C 25.827 68.033 24.024 69.269 24.15 70.8 C 24.28 72.315 26.587 73.261 26.75 74.95 C 26.85 76.456 25.059 77.732 24.85 79.3 C 24.675 80.624 25.775 81.861 26 83.2 C 25.996 84.655 25.335 86.108 25.5 87.55 C 25.635 88.695 25.675 90.399 26.75 90.95 C 27.856 91.502 29.471 90.541 30.5 89.7 C 31.853 88.616 31.906 85.947 33.5 84.95 C 34.762 84.238 36.774 85.812 38 84.95 C 39.347 84.003 38.713 81.604 39.75 80.45 C 40.726 79.5 42.492 79.93 43.5 79.2 C 44.829 78.236 45.208 76.214 46.75 75.45 C 47.633 74.909 48.832 75.967 50 75.7 C 51.305 75.389 52.305 73.161 53.5 73.7 C 54.967 74.365 55.513 76.549 56 78.2 C 56.232 79.32 54.823 80.872 55.25 82.2 C 57.662 83.397 58.498 83.847 59.65 83.8 C 61.328 83.599 62.623 83.067 63.35 81.9 C 64.055 80.709 63.056 79.252 63.25 77.95 C 63.477 76.339 64.469 74.981 64.75 73.45 C 64.946 72.129 63.209 69.949 64.25 69.45 C 65.762 68.723 67.819 71.212 69.75 71.45 C 71.385 71.637 73.405 69.212 74.75 70.2 C 76.151 71.293 74.937 73.563 75.25 75.2 C 75.503 76.557 76.189 77.51 76.5 78.7 C 76.948 80.433 75.944 82.764 77.25 83.95 C 78.461 85.04 80.863 84.495 82.5 83.7 C 83.36 83.223 83.584 81.765 83.65 80.7 C 83.752 78.865 81.962 76.75 82.75 74.95 C 83.435 73.72 85.539 73.788 87 73.8 C 88.629 73.812 90.68 73.687 92 74.7 C 93.114 75.79 92.172 78.097 93.25 79.2 C 94.302 80.274 96.525 79.136 97.75 79.95 C 99.07 81.109 98.872 83.412 100.15 84.55 C 101.136 85.436 103.102 84.029 104 84.95 C 105.346 86.344 104.366 89.53 106 90.95 C 107.537 92.106 110.447 92.58 112 91.45 C 113.224 90.553 111.255 88.263 111.5 86.7 C 111.747 84.975 113.653 83.532 113.75 81.7 C 113.805 79.885 112.387 78.275 112.5 76.45 C 112.308 74.862 113.412 73.458 113.5 71.8 C 113.573 70.229 112.222 68.772 112.25 67.2 C 112.523 65.674 114.322 64.591 114.35 63.05 C 114.376 61.499 112.06 60.514 112 58.95 C 112.679 57.314 113.561 56.728 113.75 55.45 C 114.066 53.549 113.051 51.626 113 49.7 C 113.185 48.113 114.752 46.526 114.15 45.05 C 113.234 43.026 110.625 42.748 109.75 40.95 C 109.057 39.544 110.351 37.95 110.25 36.45 C 110.102 35.102 108.922 33.728 108.75 32.2 C 108.787 31.056 109.912 30.091 109.85 28.8 C 109.786 27.38 110.187 26.327 108.65 24.7 C 107.176 23.342 105.242 24.234 102.5 24.7 C 91.53 26.566 80.844 30.646 69.75 30.7 C 58.174 31.017 46.815 27.578 35.35 25.8 C 32.484 25.355 30.909 23.899 29.35 25.05 Z "/>
        <path id="ID0.4806634387932718" fill="none" stroke="#CCCC00" stroke-width="1.904175058052451" stroke-linecap="round" d="M 26.7501 46.8007 C 26.7501 46.8007 28.0765 51.0848 28.4652 53.349 C 28.6192 54.2469 28.4416 55.2081 28.3509 56.1238 C 28.251 57.136 28.0734 58.1327 27.8935 59.1205 C 27.7304 60.0184 27.4483 60.873 27.3218 61.7842 C 27.0923 63.4313 26.7364 65.1039 26.8263 66.7787 C 26.8705 67.5967 27.4765 68.1361 27.7029 68.8875 C 27.937 69.6633 28.1504 70.4847 28.1984 71.3293 C 28.3417 73.8343 28.4294 76.3726 28.2746 78.8766 C 28.2228 79.7179 27.7266 80.3871 27.5886 81.2073 C 27.4438 82.072 27.4156 82.981 27.4361 83.8711 C 27.4537 84.6214 27.536 85.3805 27.7029 86.0909 C 27.8447 86.6935 28.3509 87.7557 28.3509 87.7557 "/>
        <path id="ID0.7519200313836336" fill="none" stroke="#995900" stroke-width="1.904175058052451" stroke-linecap="round" d="M 29.8754 46.6897 C 29.8754 46.6897 31.3185 50.5155 31.5144 52.6276 C 31.6272 53.8385 30.9869 54.9506 30.7521 56.1238 C 30.5424 57.1693 30.018 58.2237 30.1804 59.287 C 30.313 60.1549 31.3329 60.2692 31.5144 61.1183 C 31.7308 62.1316 31.355 63.2315 31.2476 64.2815 C 31.1393 65.3392 30.9312 66.3792 30.8664 67.4447 C 30.8039 68.4758 30.8969 69.5179 30.8664 70.5524 C 30.7696 73.8254 30.4289 77.0996 30.4853 80.3749 C 30.5181 82.3039 30.8169 84.2174 31.1332 86.0909 C 31.227 86.6447 31.7049 87.5892 31.7049 87.5892 "/>
        <path id="ID0.4806634387932718" fill="none" stroke="#995900" stroke-width="1.6922017242245628" stroke-linecap="round" d="M 30.7501 26.6612 C 30.7501 26.6612 32.0765 30.2214 32.4652 32.103 C 32.6192 32.8491 32.4416 33.6479 32.3509 34.4088 C 32.251 35.25 32.0734 36.0782 31.8935 36.8991 C 31.7304 37.6453 31.4483 38.3554 31.3218 39.1127 C 31.0923 40.4814 30.7364 41.8714 30.8263 43.2632 C 30.8705 43.9429 31.4765 44.3912 31.7029 45.0156 C 31.937 45.6603 32.1504 46.3428 32.1984 47.0447 C 32.3417 49.1264 32.4294 51.2358 32.2746 53.3166 C 32.2228 54.0157 31.7266 54.5719 31.5886 55.2535 C 31.4438 55.972 31.4156 56.7274 31.4361 57.4671 C 31.4537 58.0906 31.536 58.7214 31.7029 59.3117 C 31.8447 59.8126 32.3509 60.6952 32.3509 60.6952 "/>
        <path id="ID0.7519200313836336" fill="none" stroke="#CCCC00" stroke-width="1.6922017242245628" stroke-linecap="round" d="M 33.8754 26.569 C 33.8754 26.569 35.3185 29.7482 35.5144 31.5034 C 35.6272 32.5097 34.9869 33.4339 34.7521 34.4088 C 34.5424 35.2776 34.018 36.1538 34.1804 37.0374 C 34.313 37.7587 35.3329 37.8537 35.5144 38.5593 C 35.7308 39.4014 35.355 40.3154 35.2476 41.1879 C 35.1393 42.0669 34.9312 42.9311 34.8664 43.8166 C 34.8039 44.6734 34.8969 45.5395 34.8664 46.3991 C 34.7696 49.1191 34.4289 51.8399 34.4853 54.5617 C 34.5181 56.1647 34.8169 57.7548 35.1332 59.3117 C 35.227 59.772 35.7049 60.5569 35.7049 60.5569 "/>
        <path id="ID0.4806634387932718" fill="none" stroke="#FF9400" stroke-width="2.0372818938305786" stroke-linecap="round" d="M 35.9001 35.8323 C 35.9001 35.8323 37.2265 40.5507 37.6152 43.0443 C 37.7692 44.0332 37.5916 45.0917 37.5009 46.1002 C 37.401 47.215 37.2234 48.3127 37.0435 49.4006 C 36.8804 50.3895 36.5983 51.3307 36.4718 52.3343 C 36.2423 54.1483 35.8864 55.9904 35.9763 57.8349 C 36.0205 58.7358 36.6265 59.3299 36.8529 60.1574 C 37.087 61.0119 37.3004 61.9164 37.3484 62.8466 C 37.4917 65.6055 37.5794 68.4011 37.4246 71.1587 C 37.3728 72.0853 36.8766 72.8224 36.7386 73.7257 C 36.5938 74.6779 36.5656 75.679 36.5861 76.6594 C 36.6037 77.4857 36.686 78.3218 36.8529 79.1041 C 36.9947 79.7678 37.5009 80.9377 37.5009 80.9377 "/>
        <path id="ID0.7519200313836336" fill="none" stroke="#995900" stroke-width="2.0372818938305786" stroke-linecap="round" d="M 39.0254 35.7101 C 39.0254 35.7101 40.4685 39.9236 40.6644 42.2497 C 40.7772 43.5833 40.1369 44.8082 39.9021 46.1002 C 39.6924 47.2517 39.168 48.4129 39.3304 49.5839 C 39.463 50.5398 40.4829 50.6657 40.6644 51.6008 C 40.8808 52.7169 40.505 53.9282 40.3976 55.0846 C 40.2893 56.2495 40.0812 57.3949 40.0164 58.5683 C 39.9539 59.7039 40.0469 60.8517 40.0164 61.991 C 39.9196 65.5957 39.5789 69.2017 39.6353 72.8089 C 39.6681 74.9334 39.9669 77.0407 40.2832 79.1041 C 40.377 79.7141 40.8549 80.7543 40.8549 80.7543 "/>
        <path id="ID0.4806634387932718" fill="none" stroke="#CCCC00" stroke-width="1.8670607754207065" stroke-linecap="round" d="M 42.8501 35.6962 C 42.8501 35.6962 44.1765 39.8569 44.5652 42.0559 C 44.7192 42.9279 44.5416 43.8614 44.4509 44.7506 C 44.351 45.7337 44.1734 46.7016 43.9935 47.661 C 43.8304 48.533 43.5483 49.363 43.4218 50.2479 C 43.1923 51.8476 42.8364 53.472 42.9263 55.0985 C 42.9705 55.8929 43.5765 56.4168 43.8029 57.1465 C 44.037 57.9 44.2504 58.6976 44.2984 59.5179 C 44.4417 61.9508 44.5294 64.4159 44.3746 66.8477 C 44.3228 67.6647 43.8266 68.3147 43.6886 69.1113 C 43.5438 69.951 43.5156 70.8338 43.5361 71.6983 C 43.5537 72.4269 43.636 73.1642 43.8029 73.8541 C 43.9447 74.4394 44.4509 75.4709 44.4509 75.4709 "/>
        <path id="ID0.7519200313836336" fill="none" stroke="#FF9400" stroke-width="1.8670607754207065" stroke-linecap="round" d="M 45.9754 35.5884 C 45.9754 35.5884 47.4185 39.304 47.6144 41.3552 C 47.7272 42.5312 47.0869 43.6113 46.8521 44.7506 C 46.6424 45.766 46.118 46.79 46.2804 47.8227 C 46.413 48.6656 47.4329 48.7766 47.6144 49.6012 C 47.8308 50.5853 47.455 51.6535 47.3476 52.6732 C 47.2393 53.7005 47.0312 54.7105 46.9664 55.7453 C 46.9039 56.7466 46.9969 57.7588 46.9664 58.7634 C 46.8696 61.9421 46.5289 65.122 46.5853 68.3029 C 46.6181 70.1763 46.9169 72.0346 47.2332 73.8541 C 47.327 74.3919 47.8049 75.3092 47.8049 75.3092 "/>
        <path id="ID0.4806634387932718" fill="none" stroke="#CCCC00" stroke-width="1.6922017242245628" stroke-linecap="round" d="M 49.5001 37.6612 C 49.5001 37.6612 50.8265 41.2214 51.2152 43.103 C 51.3692 43.8491 51.1916 44.6479 51.1009 45.4088 C 51.001 46.25 50.8234 47.0782 50.6435 47.8991 C 50.4804 48.6453 50.1983 49.3554 50.0718 50.1127 C 49.8423 51.4814 49.4864 52.8714 49.5763 54.2632 C 49.6205 54.9429 50.2265 55.3912 50.4529 56.0156 C 50.687 56.6603 50.9004 57.3428 50.9484 58.0447 C 51.0917 60.1264 51.1794 62.2358 51.0246 64.3166 C 50.9728 65.0157 50.4766 65.5719 50.3386 66.2535 C 50.1938 66.972 50.1656 67.7274 50.1861 68.4671 C 50.2037 69.0906 50.286 69.7214 50.4529 70.3117 C 50.5947 70.8126 51.1009 71.6952 51.1009 71.6952 "/>
        <path id="ID0.7519200313836336" fill="none" stroke="#995900" stroke-width="1.6922017242245628" stroke-linecap="round" d="M 52.6254 37.569 C 52.6254 37.569 54.0685 40.7482 54.2644 42.5034 C 54.3772 43.5097 53.7369 44.4339 53.5021 45.4088 C 53.2924 46.2776 52.768 47.1538 52.9304 48.0374 C 53.063 48.7587 54.0829 48.8537 54.2644 49.5593 C 54.4808 50.4014 54.105 51.3154 53.9976 52.1879 C 53.8893 53.0669 53.6812 53.9311 53.6164 54.8166 C 53.5539 55.6734 53.6469 56.5395 53.6164 57.3991 C 53.5196 60.1191 53.1789 62.8399 53.2353 65.5617 C 53.2681 67.1647 53.5669 68.7548 53.8832 70.3117 C 53.977 70.772 54.4549 71.5569 54.4549 71.5569 "/>
        <path id="ID0.4806634387932718" fill="none" stroke="#FF9400" stroke-width="1.944809120850888" stroke-linecap="round" d="M 56.6001 39.0398 C 56.6001 39.0398 57.9265 43.4579 58.3152 45.7928 C 58.4692 46.7188 58.2916 47.71 58.2009 48.6543 C 58.101 49.6981 57.9234 50.726 57.7435 51.7446 C 57.5804 52.6706 57.2983 53.5519 57.1718 54.4916 C 56.9423 56.1902 56.5864 57.9151 56.6763 59.6422 C 56.7205 60.4858 57.3265 61.0421 57.5529 61.8169 C 57.787 62.617 58.0004 63.464 58.0484 64.335 C 58.1917 66.9183 58.2794 69.536 58.1246 72.1182 C 58.0728 72.9858 57.5766 73.6759 57.4386 74.5218 C 57.2938 75.4134 57.2656 76.3508 57.2861 77.2688 C 57.3037 78.0425 57.386 78.8254 57.5529 79.5579 C 57.6947 80.1794 58.2009 81.2748 58.2009 81.2748 "/>
        <path id="ID0.7519200313836336" fill="none" stroke="#995900" stroke-width="1.944809120850888" stroke-linecap="round" d="M 59.7254 38.9254 C 59.7254 38.9254 61.1685 42.8707 61.3644 45.0489 C 61.4772 46.2976 60.8369 47.4445 60.6021 48.6543 C 60.3924 49.7325 59.868 50.8198 60.0304 51.9163 C 60.163 52.8114 61.1829 52.9293 61.3644 53.8049 C 61.5808 54.8499 61.205 55.9842 61.0976 57.0669 C 60.9893 58.1577 60.7812 59.2302 60.7164 60.329 C 60.6539 61.3923 60.7469 62.4671 60.7164 63.5338 C 60.6196 66.9092 60.2789 70.2857 60.3353 73.6634 C 60.3681 75.6526 60.6669 77.6259 60.9832 79.5579 C 61.077 80.1291 61.5549 81.1031 61.5549 81.1031 "/>
        <path id="ID0.4806634387932718" fill="none" stroke="#CCCC00" stroke-width="1.6922017242245628" stroke-linecap="round" d="M 63.3501 34.1612 C 63.3501 34.1612 64.6765 37.7214 65.0652 39.603 C 65.2192 40.3491 65.0416 41.1479 64.9509 41.9088 C 64.851 42.75 64.6734 43.5782 64.4935 44.3991 C 64.3304 45.1453 64.0483 45.8554 63.9218 46.6127 C 63.6923 47.9814 63.3364 49.3714 63.4263 50.7632 C 63.4705 51.4429 64.0765 51.8912 64.3029 52.5156 C 64.537 53.1603 64.7504 53.8428 64.7984 54.5447 C 64.9417 56.6264 65.0294 58.7358 64.8746 60.8166 C 64.8228 61.5157 64.3266 62.0719 64.1886 62.7535 C 64.0438 63.472 64.0156 64.2274 64.0361 64.9671 C 64.0537 65.5906 64.136 66.2214 64.3029 66.8117 C 64.4447 67.3126 64.9509 68.1952 64.9509 68.1952 "/>
        <path id="ID0.7519200313836336" fill="none" stroke="#FF9400" stroke-width="1.6922017242245628" stroke-linecap="round" d="M 66.4754 34.069 C 66.4754 34.069 67.9185 37.2482 68.1144 39.0034 C 68.2272 40.0097 67.5869 40.9339 67.3521 41.9088 C 67.1424 42.7776 66.618 43.6538 66.7804 44.5374 C 66.913 45.2587 67.9329 45.3537 68.1144 46.0593 C 68.3308 46.9014 67.955 47.8154 67.8476 48.6879 C 67.7393 49.5669 67.5312 50.4311 67.4664 51.3166 C 67.4039 52.1734 67.4969 53.0395 67.4664 53.8991 C 67.3696 56.6191 67.0289 59.3399 67.0853 62.0617 C 67.1181 63.6647 67.4169 65.2548 67.7332 66.8117 C 67.827 67.272 68.3049 68.0569 68.3049 68.0569 "/>
        <path id="ID0.4806634387932718" fill="none" stroke="#CCCC00" stroke-width="1.983808926983925" stroke-linecap="round" d="M 112.1999 46.4757 C 112.1999 46.4757 110.8735 51.0211 110.4848 53.4234 C 110.3308 54.376 110.5084 55.3958 110.5991 56.3673 C 110.699 57.4412 110.8766 58.4987 111.0565 59.5467 C 111.2196 60.4994 111.5017 61.4061 111.6282 62.3729 C 111.8577 64.1204 112.2136 65.895 112.1237 67.672 C 112.0795 68.5398 111.4735 69.1121 111.2471 69.9093 C 111.013 70.7325 110.7996 71.6039 110.7516 72.5 C 110.6083 75.1578 110.5206 77.8509 110.6754 80.5075 C 110.7272 81.4001 111.2234 82.1101 111.3614 82.9804 C 111.5062 83.8977 111.5344 84.8621 111.5139 85.8065 C 111.4963 86.6026 111.414 87.408 111.2471 88.1617 C 111.1053 88.8011 110.5991 89.928 110.5991 89.928 "/>
        <path id="ID0.7519200313836336" fill="none" stroke="#FF9400" stroke-width="1.983808926983925" stroke-linecap="round" d="M 109.0746 46.3579 C 109.0746 46.3579 107.6315 50.417 107.4356 52.6579 C 107.3228 53.9427 107.9631 55.1226 108.1979 56.3673 C 108.4076 57.4766 108.932 58.5952 108.7696 59.7234 C 108.637 60.6442 107.6171 60.7655 107.4356 61.6663 C 107.2192 62.7415 107.595 63.9084 107.7024 65.0224 C 107.8107 66.1446 108.0188 67.248 108.0836 68.3785 C 108.1461 69.4725 108.0531 70.5782 108.0836 71.6757 C 108.1804 75.1483 108.5211 78.6222 108.4647 82.0972 C 108.4319 84.1438 108.1331 86.1739 107.8168 88.1617 C 107.723 88.7493 107.2451 89.7514 107.2451 89.7514 "/>
        <path id="ID0.4806634387932718" fill="none" stroke="#CCCC00" stroke-width="1.6922017242245628" stroke-linecap="round" d="M 108.4999 26.1612 C 108.4999 26.1612 107.1735 29.7214 106.7848 31.603 C 106.6308 32.3491 106.8084 33.1479 106.8991 33.9088 C 106.999 34.75 107.1766 35.5782 107.3565 36.3991 C 107.5196 37.1453 107.8017 37.8554 107.9282 38.6127 C 108.1577 39.9814 108.5136 41.3714 108.4237 42.7632 C 108.3795 43.4429 107.7735 43.8912 107.5471 44.5156 C 107.313 45.1603 107.0996 45.8428 107.0516 46.5447 C 106.9083 48.6264 106.8206 50.7358 106.9754 52.8166 C 107.0272 53.5157 107.5234 54.0719 107.6614 54.7535 C 107.8062 55.472 107.8344 56.2274 107.8139 56.9671 C 107.7963 57.5906 107.714 58.2214 107.5471 58.8117 C 107.4053 59.3126 106.8991 60.1952 106.8991 60.1952 "/>
        <path id="ID0.7519200313836336" fill="none" stroke="#CCCC00" stroke-width="1.6922017242245628" stroke-linecap="round" d="M 105.3746 26.069 C 105.3746 26.069 103.9315 29.2482 103.7356 31.0034 C 103.6228 32.0097 104.2631 32.9339 104.4979 33.9088 C 104.7076 34.7776 105.232 35.6538 105.0696 36.5374 C 104.937 37.2587 103.9171 37.3537 103.7356 38.0593 C 103.5192 38.9014 103.895 39.8154 104.0024 40.6879 C 104.1107 41.5669 104.3188 42.4311 104.3836 43.3166 C 104.4461 44.1734 104.3531 45.0395 104.3836 45.8991 C 104.4804 48.6191 104.8211 51.3399 104.7647 54.0617 C 104.7319 55.6647 104.4331 57.2548 104.1168 58.8117 C 104.023 59.272 103.5451 60.0569 103.5451 60.0569 "/>
        <path id="ID0.4806634387932718" fill="none" stroke="#FF9400" stroke-width="2.0372818938305786" stroke-linecap="round" d="M 103.3499 35.5823 C 103.3499 35.5823 102.0235 40.3007 101.6348 42.7943 C 101.4808 43.7832 101.6584 44.8417 101.7491 45.8502 C 101.849 46.965 102.0266 48.0627 102.2065 49.1506 C 102.3696 50.1395 102.6517 51.0807 102.7782 52.0843 C 103.0077 53.8983 103.3636 55.7404 103.2737 57.5849 C 103.2295 58.4858 102.6235 59.0799 102.3971 59.9074 C 102.163 60.7619 101.9496 61.6664 101.9016 62.5966 C 101.7583 65.3555 101.6706 68.1511 101.8254 70.9087 C 101.8772 71.8353 102.3734 72.5724 102.5114 73.4757 C 102.6562 74.4279 102.6844 75.429 102.6639 76.4094 C 102.6463 77.2357 102.564 78.0718 102.3971 78.8541 C 102.2553 79.5178 101.7491 80.6877 101.7491 80.6877 "/>
        <path id="ID0.7519200313836336" fill="none" stroke="#CCCC00" stroke-width="2.0372818938305786" stroke-linecap="round" d="M 100.2246 35.4601 C 100.2246 35.4601 98.7815 39.6736 98.5856 41.9997 C 98.4728 43.3333 99.1131 44.5582 99.3479 45.8502 C 99.5576 47.0017 100.082 48.1629 99.9196 49.3339 C 99.787 50.2898 98.7671 50.4157 98.5856 51.3508 C 98.3692 52.4669 98.745 53.6782 98.8524 54.8346 C 98.9607 55.9995 99.1688 57.1449 99.2336 58.3183 C 99.2961 59.4539 99.2031 60.6017 99.2336 61.741 C 99.3304 65.3457 99.6711 68.9517 99.6147 72.5589 C 99.5819 74.6834 99.2831 76.7907 98.9668 78.8541 C 98.873 79.4641 98.3951 80.5043 98.3951 80.5043 "/>
        <path id="ID0.4806634387932718" fill="none" stroke="#995900" stroke-width="1.8670607754207065" stroke-linecap="round" d="M 96.3999 35.2462 C 96.3999 35.2462 95.0735 39.4069 94.6848 41.6059 C 94.5308 42.4779 94.7084 43.4114 94.7991 44.3006 C 94.899 45.2837 95.0766 46.2516 95.2565 47.211 C 95.4196 48.083 95.7017 48.913 95.8282 49.7979 C 96.0577 51.3976 96.4136 53.022 96.3237 54.6485 C 96.2795 55.4429 95.6735 55.9668 95.4471 56.6965 C 95.213 57.45 94.9996 58.2476 94.9516 59.0679 C 94.8083 61.5008 94.7206 63.9659 94.8754 66.3977 C 94.9272 67.2147 95.4234 67.8647 95.5614 68.6613 C 95.7062 69.501 95.7344 70.3838 95.7139 71.2483 C 95.6963 71.9769 95.614 72.7142 95.4471 73.4041 C 95.3053 73.9894 94.7991 75.0209 94.7991 75.0209 "/>
        <path id="ID0.7519200313836336" fill="none" stroke="#CCCC00" stroke-width="1.8670607754207065" stroke-linecap="round" d="M 93.2746 35.1384 C 93.2746 35.1384 91.8315 38.854 91.6356 40.9052 C 91.5228 42.0812 92.1631 43.1613 92.3979 44.3006 C 92.6076 45.316 93.132 46.34 92.9696 47.3727 C 92.837 48.2156 91.8171 48.3266 91.6356 49.1512 C 91.4192 50.1353 91.795 51.2035 91.9024 52.2232 C 92.0107 53.2505 92.2188 54.2605 92.2836 55.2953 C 92.3461 56.2966 92.2531 57.3088 92.2836 58.3134 C 92.3804 61.4921 92.7211 64.672 92.6647 67.8529 C 92.6319 69.7263 92.3331 71.5846 92.0168 73.4041 C 91.923 73.9419 91.4451 74.8592 91.4451 74.8592 "/>
        <path id="ID0.4806634387932718" fill="none" stroke="#995900" stroke-width="1.6922017242245628" stroke-linecap="round" d="M 89.6499 37.6612 C 89.6499 37.6612 88.3235 41.2214 87.9348 43.103 C 87.7808 43.8491 87.9584 44.6479 88.0491 45.4088 C 88.149 46.25 88.3266 47.0782 88.5065 47.8991 C 88.6696 48.6453 88.9517 49.3554 89.0782 50.1127 C 89.3077 51.4814 89.6636 52.8714 89.5737 54.2632 C 89.5295 54.9429 88.9235 55.3912 88.6971 56.0156 C 88.463 56.6603 88.2496 57.3428 88.2016 58.0447 C 88.0583 60.1264 87.9706 62.2358 88.1254 64.3166 C 88.1772 65.0157 88.6734 65.5719 88.8114 66.2535 C 88.9562 66.972 88.9844 67.7274 88.9639 68.4671 C 88.9463 69.0906 88.864 69.7214 88.6971 70.3117 C 88.5553 70.8126 88.0491 71.6952 88.0491 71.6952 "/>
        <path id="ID0.7519200313836336" fill="none" stroke="#FF9400" stroke-width="1.6922017242245628" stroke-linecap="round" d="M 86.5246 37.569 C 86.5246 37.569 85.0815 40.7482 84.8856 42.5034 C 84.7728 43.5097 85.4131 44.4339 85.6479 45.4088 C 85.8576 46.2776 86.382 47.1538 86.2196 48.0374 C 86.087 48.7587 85.0671 48.8537 84.8856 49.5593 C 84.6692 50.4014 85.045 51.3154 85.1524 52.1879 C 85.2607 53.0669 85.4688 53.9311 85.5336 54.8166 C 85.5961 55.6734 85.5031 56.5395 85.5336 57.3991 C 85.6304 60.1191 85.9711 62.8399 85.9147 65.5617 C 85.8819 67.1647 85.5831 68.7548 85.2668 70.3117 C 85.173 70.772 84.6951 71.5569 84.6951 71.5569 "/>
        <path id="ID0.4806634387932718" fill="none" stroke="#CCCC00" stroke-width="1.944809120850888" stroke-linecap="round" d="M 82.5999 39.0398 C 82.5999 39.0398 81.2735 43.4579 80.8848 45.7928 C 80.7308 46.7188 80.9084 47.71 80.9991 48.6543 C 81.099 49.6981 81.2766 50.726 81.4565 51.7446 C 81.6196 52.6706 81.9017 53.5519 82.0282 54.4916 C 82.2577 56.1902 82.6136 57.9151 82.5237 59.6422 C 82.4795 60.4858 81.8735 61.0421 81.6471 61.8169 C 81.413 62.617 81.1996 63.464 81.1516 64.335 C 81.0083 66.9183 80.9206 69.536 81.0754 72.1182 C 81.1272 72.9858 81.6234 73.6759 81.7614 74.5218 C 81.9062 75.4134 81.9344 76.3508 81.9139 77.2688 C 81.8963 78.0425 81.814 78.8254 81.6471 79.5579 C 81.5053 80.1794 80.9991 81.2748 80.9991 81.2748 "/>
        <path id="ID0.7519200313836336" fill="none" stroke="#995900" stroke-width="1.944809120850888" stroke-linecap="round" d="M 79.4746 38.9254 C 79.4746 38.9254 78.0315 42.8707 77.8356 45.0489 C 77.7228 46.2976 78.3631 47.4445 78.5979 48.6543 C 78.8076 49.7325 79.332 50.8198 79.1696 51.9163 C 79.037 52.8114 78.0171 52.9293 77.8356 53.8049 C 77.6192 54.8499 77.995 55.9842 78.1024 57.0669 C 78.2107 58.1577 78.4188 59.2302 78.4836 60.329 C 78.5461 61.3923 78.4531 62.4671 78.4836 63.5338 C 78.5804 66.9092 78.9211 70.2857 78.8647 73.6634 C 78.8319 75.6526 78.5331 77.6259 78.2168 79.5579 C 78.123 80.1291 77.6451 81.1031 77.6451 81.1031 "/>
        <path id="ID0.4806634387932718" fill="none" stroke="#CCCC00" stroke-width="1.6922017242245628" stroke-linecap="round" d="M 75.8999 34.1612 C 75.8999 34.1612 74.5735 37.7214 74.1848 39.603 C 74.0308 40.3491 74.2084 41.1479 74.2991 41.9088 C 74.399 42.75 74.5766 43.5782 74.7565 44.3991 C 74.9196 45.1453 75.2017 45.8554 75.3282 46.6127 C 75.5577 47.9814 75.9136 49.3714 75.8237 50.7632 C 75.7795 51.4429 75.1735 51.8912 74.9471 52.5156 C 74.713 53.1603 74.4996 53.8428 74.4516 54.5447 C 74.3083 56.6264 74.2206 58.7358 74.3754 60.8166 C 74.4272 61.5157 74.9234 62.0719 75.0614 62.7535 C 75.2062 63.472 75.2344 64.2274 75.2139 64.9671 C 75.1963 65.5906 75.114 66.2214 74.9471 66.8117 C 74.8053 67.3126 74.2991 68.1952 74.2991 68.1952 "/>
        <path id="ID0.7519200313836336" fill="none" stroke="#995900" stroke-width="1.6922017242245628" stroke-linecap="round" d="M 72.7746 34.069 C 72.7746 34.069 71.3315 37.2482 71.1356 39.0034 C 71.0228 40.0097 71.6631 40.9339 71.8979 41.9088 C 72.1076 42.7776 72.632 43.6538 72.4696 44.5374 C 72.337 45.2587 71.3171 45.3537 71.1356 46.0593 C 70.9192 46.9014 71.295 47.8154 71.4024 48.6879 C 71.5107 49.5669 71.7188 50.4311 71.7836 51.3166 C 71.8461 52.1734 71.7531 53.0395 71.7836 53.8991 C 71.8804 56.6191 72.2211 59.3399 72.1647 62.0617 C 72.1319 63.6647 71.8331 65.2548 71.5168 66.8117 C 71.423 67.272 70.9451 68.0569 70.9451 68.0569 "/>
      </g>
      <g id="ID0.09922660375013947">
        <path id="ID0.8346671243198216" fill="#FFFF00" stroke="#FFFF00" stroke-width="2" stroke-linecap="round" d="M 68.7 36.45 C 67.556 36.53 66.231 35.103 65.3 35.85 C 63.615 37.221 63.999 40.279 62.4 41.7 C 61.396 42.59 59.518 42.433 58.4 42.2 C 56.535 40.902 56.721 40.193 56.4 39.2 C 56.224 36.86 56.6 36.099 55.9 35.2 C 53.655 34.673 52.837 34.645 52.15 35.7 C 51.157 37.228 53.243 39.847 51.95 41.1 C 50.622 42.394 48.063 42.093 46.3 41.45 C 45.275 40.998 45.743 39.099 44.95 38.35 C 44.163 37.609 42.922 36.738 41.95 37.1 C 40.698 37.564 40.699 39.486 39.6 40.35 C 38.703 41.049 37.352 41.636 36.3 41.25 C 35.073 40.799 34.167 39.329 33.95 38.1 C 33.652 36.354 34.863 34.591 34.8 32.85 C 34.738 31.32 33.686 29.914 33.8 28.35 C 33.919 26.697 35.088 25.323 35.3 23.6 C 35.412 22.702 34.777 21.901 34.7 20.95 C 34.602 19.719 34.207 18.358 34.95 17.25 C 35.595 16.306 37.226 16.768 38.2 16.1 C 39.331 15.314 39.958 13.915 41.15 13.2 C 42.106 12.629 43.359 12.821 44.3 12.35 C 45.455 11.646 46.22 10.387 47.3 9.75 C 48.098 9.279 49.214 9.499 49.95 8.95 C 50.788 8.308 50.826 6.994 51.7 6.6 C 52.669 6.037 53.948 6.674 54.95 6.35 C 55.879 6.051 56.413 4.813 57.3 4.6 C 58.757 4.244 60.321 5.091 61.8 4.75 C 62.819 4.515 63.383 3.288 64.3 2.85 C 65.351 2.338 66.484 1.986 67.6 1.95 C 68.492 1.922 69.338 2.357 70.2 2.6 C 71.796 3.052 73.358 3.896 74.95 4.1 C 76.33 4.278 77.649 3.299 79.1 3.6 C 80.167 3.822 80.737 5.029 81.8 5.45 C 83.206 6.01 84.879 5.859 86.2 6.6 C 87.108 7.11 87.344 8.348 88.1 9.1 C 89.359 10.195 90.716 11.293 92.2 12.1 C 93.56 12.839 95.214 12.824 96.6 13.6 C 97.764 14.25 98.442 15.592 99.6 16.25 C 100.809 16.936 102.935 16.171 103.6 17.45 C 104.4 18.99 102.731 20.936 102.8 22.6 C 102.857 23.985 103.937 25.129 103.95 26.6 C 103.962 27.732 103.009 28.634 102.95 29.85 C 102.89 31.17 103.802 32.364 103.7 33.75 C 103.622 34.842 102.87 35.745 102.6 36.85 C 102.257 38.231 103.174 40.146 102.2 41.1 C 101.222 42.055 99.396 41.955 98.1 41.35 C 97.116 40.887 97.649 38.99 96.8 38.35 C 96.083 37.809 95.017 38.319 94.1 38.35 C 93.135 38.368 91.863 37.539 91.2 38.25 C 90.371 39.137 91.593 41.174 90.6 41.85 C 89.138 42.845 86.538 43.253 85.3 42.1 C 83.886 40.779 85.714 37.763 84.45 36.35 C 83.506 35.296 80.996 35.242 80.2 36.35 C 79.116 37.866 81.419 40.745 80.1 41.95 C 78.492 43.414 75.423 43.616 73.6 42.6 C 72.463 41.965 74.312 39.903 74.1 38.6 C 73.906 37.408 73.413 35.923 72.3 35.45 C 71.156 34.963 69.975 36.361 68.7 36.45 Z "/>
        <path id="ID0.4806634387932718" fill="none" stroke="#CCCC00" stroke-width="1.3623144473467341" stroke-linecap="round" d="M 35.3001 17.8433 C 35.3001 17.8433 36.6265 20.1167 37.0152 21.3182 C 37.1692 21.7946 36.9916 22.3047 36.9009 22.7906 C 36.801 23.3277 36.6234 23.8566 36.4435 24.3807 C 36.2804 24.8572 35.9983 25.3107 35.8718 25.7942 C 35.6423 26.6683 35.2864 27.5558 35.3763 28.4446 C 35.4205 28.8786 36.0265 29.1648 36.2529 29.5636 C 36.487 29.9753 36.7004 30.4111 36.7484 30.8593 C 36.8917 32.1886 36.9794 33.5355 36.8246 34.8642 C 36.7728 35.3106 36.2766 35.6658 36.1386 36.101 C 35.9938 36.5598 35.9656 37.0422 35.9861 37.5145 C 36.0037 37.9127 36.086 38.3155 36.2529 38.6924 C 36.3947 39.0122 36.9009 39.5759 36.9009 39.5759 "/>
        <path id="ID0.7519200313836336" fill="none" stroke="#FF9400" stroke-width="1.3623144473467341" stroke-linecap="round" d="M 38.4254 17.7844 C 38.4254 17.7844 39.8685 19.8145 40.0644 20.9353 C 40.1772 21.5779 39.5369 22.168 39.3021 22.7906 C 39.0924 23.3453 38.568 23.9049 38.7304 24.4691 C 38.863 24.9296 39.8829 24.9903 40.0644 25.4409 C 40.2808 25.9786 39.905 26.5622 39.7976 27.1194 C 39.6893 27.6807 39.4812 28.2325 39.4164 28.7979 C 39.3539 29.3451 39.4469 29.8981 39.4164 30.447 C 39.3196 32.1839 38.9789 33.9213 39.0353 35.6593 C 39.0681 36.6829 39.3669 37.6983 39.6832 38.6924 C 39.777 38.9863 40.2549 39.4875 40.2549 39.4875 "/>
        <path id="ID0.4806634387932718" fill="none" stroke="#995900" stroke-width="1.3623144473467341" stroke-linecap="round" d="M 41.4501 14.1433 C 41.4501 14.1433 42.7765 16.4167 43.1652 17.6182 C 43.3192 18.0946 43.1416 18.6047 43.0509 19.0906 C 42.951 19.6277 42.7734 20.1566 42.5935 20.6807 C 42.4304 21.1572 42.1483 21.6107 42.0218 22.0942 C 41.7923 22.9683 41.4364 23.8558 41.5263 24.7446 C 41.5705 25.1786 42.1765 25.4648 42.4029 25.8636 C 42.637 26.2753 42.8504 26.7111 42.8984 27.1593 C 43.0417 28.4886 43.1294 29.8355 42.9746 31.1642 C 42.9228 31.6106 42.4266 31.9658 42.2886 32.401 C 42.1438 32.8598 42.1156 33.3422 42.1361 33.8145 C 42.1537 34.2127 42.236 34.6155 42.4029 34.9924 C 42.5447 35.3122 43.0509 35.8759 43.0509 35.8759 "/>
        <path id="ID0.7519200313836336" fill="none" stroke="#CCCC00" stroke-width="1.3623144473467341" stroke-linecap="round" d="M 44.5754 14.0844 C 44.5754 14.0844 46.0185 16.1145 46.2144 17.2353 C 46.3272 17.8779 45.6869 18.468 45.4521 19.0906 C 45.2424 19.6453 44.718 20.2049 44.8804 20.7691 C 45.013 21.2296 46.0329 21.2903 46.2144 21.7409 C 46.4308 22.2786 46.055 22.8622 45.9476 23.4194 C 45.8393 23.9807 45.6312 24.5325 45.5664 25.0979 C 45.5039 25.6451 45.5969 26.1981 45.5664 26.747 C 45.4696 28.4839 45.1289 30.2213 45.1853 31.9593 C 45.2181 32.9829 45.5169 33.9983 45.8332 34.9924 C 45.927 35.2863 46.4049 35.7875 46.4049 35.7875 "/>
        <path id="ID0.4806634387932718" fill="none" stroke="#995900" stroke-width="1.5234864035522133" stroke-linecap="round" d="M 46.7001 12.2017 C 46.7001 12.2017 48.0265 15.14 48.4152 16.6928 C 48.5692 17.3086 48.3916 17.9678 48.3009 18.5958 C 48.201 19.29 48.0234 19.9736 47.8435 20.6511 C 47.6804 21.2669 47.3983 21.853 47.2718 22.4779 C 47.0423 23.6076 46.6864 24.7547 46.7763 25.9033 C 46.8205 26.4643 47.4265 26.8343 47.6529 27.3496 C 47.887 27.8817 48.1004 28.445 48.1484 29.0243 C 48.2917 30.7423 48.3794 32.4832 48.2246 34.2004 C 48.1728 34.7774 47.6766 35.2364 47.5386 35.799 C 47.3938 36.3919 47.3656 37.0154 47.3861 37.6258 C 47.4037 38.1404 47.486 38.6611 47.6529 39.1482 C 47.7947 39.5616 48.3009 40.29 48.3009 40.29 "/>
        <path id="ID0.7519200313836336" fill="none" stroke="#CCCC00" stroke-width="1.5234864035522133" stroke-linecap="round" d="M 49.8254 12.1256 C 49.8254 12.1256 51.2685 14.7495 51.4644 16.198 C 51.5772 17.0285 50.9369 17.7912 50.7021 18.5958 C 50.4924 19.3129 49.968 20.036 50.1304 20.7652 C 50.263 21.3605 51.2829 21.4389 51.4644 22.0212 C 51.6808 22.7162 51.305 23.4705 51.1976 24.1906 C 51.0893 24.9161 50.8812 25.6293 50.8164 26.3601 C 50.7539 27.0672 50.8469 27.782 50.8164 28.4914 C 50.7196 30.7362 50.3789 32.9817 50.4353 35.2281 C 50.4681 36.551 50.7669 37.8633 51.0832 39.1482 C 51.177 39.5281 51.6549 40.1759 51.6549 40.1759 "/>
        <path id="ID0.4806634387932718" fill="none" stroke="#FF9400" stroke-width="1.5290487853815156" stroke-linecap="round" d="M 52.4001 6.8762 C 52.4001 6.8762 53.7265 9.8359 54.1152 11.4001 C 54.2692 12.0204 54.0916 12.6844 54.0009 13.3169 C 53.901 14.0162 53.7234 14.7048 53.5435 15.3872 C 53.3804 16.0075 53.0983 16.5979 52.9718 17.2274 C 52.7423 18.3653 52.3864 19.5208 52.4763 20.6778 C 52.5205 21.2429 53.1265 21.6156 53.3529 22.1347 C 53.587 22.6706 53.8004 23.238 53.8484 23.8215 C 53.9917 25.5521 54.0794 27.3057 53.9246 29.0355 C 53.8728 29.6167 53.3766 30.079 53.2386 30.6457 C 53.0938 31.243 53.0656 31.8709 53.0861 32.4859 C 53.1037 33.0042 53.186 33.5287 53.3529 34.0194 C 53.4947 34.4357 54.0009 35.1695 54.0009 35.1695 "/>
        <path id="ID0.7519200313836336" fill="none" stroke="#995900" stroke-width="1.5290487853815156" stroke-linecap="round" d="M 55.5254 6.7995 C 55.5254 6.7995 56.9685 9.4425 57.1644 10.9017 C 57.2772 11.7382 56.6369 12.5065 56.4021 13.3169 C 56.1924 14.0392 55.668 14.7677 55.8304 15.5022 C 55.963 16.1018 56.9829 16.1808 57.1644 16.7674 C 57.3808 17.4674 57.005 18.2273 56.8976 18.9526 C 56.7893 19.6833 56.5812 20.4018 56.5164 21.1379 C 56.4539 21.8502 56.5469 22.5702 56.5164 23.2848 C 56.4196 25.546 56.0789 27.8079 56.1353 30.0706 C 56.1681 31.4032 56.4669 32.7251 56.7832 34.0194 C 56.877 34.402 57.3549 35.0545 57.3549 35.0545 "/>
        <path id="ID0.4806634387932718" fill="none" stroke="#FF9400" stroke-width="1.710437983335185" stroke-linecap="round" d="M 58.1501 5.6846 C 58.1501 5.6846 59.4765 9.3091 59.8652 11.2247 C 60.0192 11.9843 59.8416 12.7975 59.7509 13.5722 C 59.651 14.4286 59.4734 15.2718 59.2935 16.1075 C 59.1304 16.8671 58.8483 17.5902 58.7218 18.3611 C 58.4923 19.7546 58.1364 21.1696 58.2263 22.5866 C 58.2705 23.2786 58.8765 23.735 59.1029 24.3707 C 59.337 25.0271 59.5504 25.7219 59.5984 26.4365 C 59.7417 28.5558 59.8294 30.7033 59.6746 32.8217 C 59.6228 33.5335 59.1266 34.0997 58.9886 34.7936 C 58.8438 35.5251 58.8156 36.2941 58.8361 37.0472 C 58.8537 37.682 58.936 38.3242 59.1029 38.9252 C 59.2447 39.4351 59.7509 40.3337 59.7509 40.3337 "/>
        <path id="ID0.7519200313836336" fill="none" stroke="#CCCC00" stroke-width="1.710437983335185" stroke-linecap="round" d="M 61.2754 5.5907 C 61.2754 5.5907 62.7185 8.8274 62.9144 10.6143 C 63.0272 11.6388 62.3869 12.5797 62.1521 13.5722 C 61.9424 14.4567 61.418 15.3488 61.5804 16.2483 C 61.713 16.9826 62.7329 17.0794 62.9144 17.7977 C 63.1308 18.655 62.755 19.5856 62.6476 20.4738 C 62.5393 21.3687 62.3312 22.2486 62.2664 23.15 C 62.2039 24.0223 62.2969 24.904 62.2664 25.7792 C 62.1696 28.5483 61.8289 31.3184 61.8853 34.0893 C 61.9181 35.7213 62.2169 37.3402 62.5332 38.9252 C 62.627 39.3938 63.1049 40.1928 63.1049 40.1928 "/>
        <path id="ID0.4806634387932718" fill="none" stroke="#995900" stroke-width="1.5571573872534457" stroke-linecap="round" d="M 63.4501 4.0985 C 63.4501 4.0985 64.7765 7.1654 65.1652 8.7863 C 65.3192 9.4291 65.1416 10.1171 65.0509 10.7726 C 64.951 11.4973 64.7734 12.2107 64.5935 12.9179 C 64.4304 13.5607 64.1483 14.1725 64.0218 14.8248 C 63.7923 16.0039 63.4364 17.2012 63.5263 18.4002 C 63.5705 18.9858 64.1765 19.3719 64.4029 19.9098 C 64.637 20.4652 64.8504 21.0532 64.8984 21.6578 C 65.0417 23.4511 65.1294 25.2682 64.9746 27.0607 C 64.9228 27.6629 64.4266 28.142 64.2886 28.7292 C 64.1438 29.3481 64.1156 29.9989 64.1361 30.6361 C 64.1537 31.1732 64.236 31.7167 64.4029 32.2252 C 64.5447 32.6566 65.0509 33.417 65.0509 33.417 "/>
        <path id="ID0.7519200313836336" fill="none" stroke="#CCCC00" stroke-width="1.5571573872534457" stroke-linecap="round" d="M 66.5754 4.0191 C 66.5754 4.0191 68.0185 6.7578 68.2144 8.2698 C 68.3272 9.1367 67.6869 9.9328 67.4521 10.7726 C 67.2424 11.5211 66.718 12.2759 66.8804 13.0371 C 67.013 13.6584 68.0329 13.7402 68.2144 14.3481 C 68.4308 15.0735 68.055 15.8609 67.9476 16.6125 C 67.8393 17.3697 67.6312 18.1142 67.5664 18.8769 C 67.5039 19.6151 67.5969 20.3611 67.5664 21.1016 C 67.4696 23.4447 67.1289 25.7886 67.1853 28.1333 C 67.2181 29.5142 67.5169 30.884 67.8332 32.2252 C 67.927 32.6216 68.4049 33.2978 68.4049 33.2978 "/>
        <path id="ID0.4806634387932718" fill="none" stroke="#995900" stroke-width="1.3623144473467341" stroke-linecap="round" d="M 102.2999 17.7933 C 102.2999 17.7933 100.9735 20.0667 100.5848 21.2682 C 100.4308 21.7446 100.6084 22.2547 100.6991 22.7406 C 100.799 23.2777 100.9766 23.8066 101.1565 24.3307 C 101.3196 24.8072 101.6017 25.2607 101.7282 25.7442 C 101.9577 26.6183 102.3136 27.5058 102.2237 28.3946 C 102.1795 28.8286 101.5735 29.1148 101.3471 29.5136 C 101.113 29.9253 100.8996 30.3611 100.8516 30.8093 C 100.7083 32.1386 100.6206 33.4855 100.7754 34.8142 C 100.8272 35.2606 101.3234 35.6158 101.4614 36.051 C 101.6062 36.5098 101.6344 36.9922 101.6139 37.4645 C 101.5963 37.8627 101.514 38.2655 101.3471 38.6424 C 101.2053 38.9622 100.6991 39.5259 100.6991 39.5259 "/>
        <path id="ID0.7519200313836336" fill="none" stroke="#CCCC00" stroke-width="1.3623144473467341" stroke-linecap="round" d="M 99.1746 17.7344 C 99.1746 17.7344 97.7315 19.7645 97.5356 20.8853 C 97.4228 21.5279 98.0631 22.118 98.2979 22.7406 C 98.5076 23.2953 99.032 23.8549 98.8696 24.4191 C 98.737 24.8796 97.7171 24.9403 97.5356 25.3909 C 97.3192 25.9286 97.695 26.5122 97.8024 27.0694 C 97.9107 27.6307 98.1188 28.1825 98.1836 28.7479 C 98.2461 29.2951 98.1531 29.8481 98.1836 30.397 C 98.2804 32.1339 98.6211 33.8713 98.5647 35.6093 C 98.5319 36.6329 98.2331 37.6483 97.9168 38.6424 C 97.823 38.9363 97.3451 39.4375 97.3451 39.4375 "/>
        <path id="ID0.4806634387932718" fill="none" stroke="#FF9400" stroke-width="1.3623144473467341" stroke-linecap="round" d="M 96.0999 14.3933 C 96.0999 14.3933 94.7735 16.6667 94.3848 17.8682 C 94.2308 18.3446 94.4084 18.8547 94.4991 19.3406 C 94.599 19.8777 94.7766 20.4066 94.9565 20.9307 C 95.1196 21.4072 95.4017 21.8607 95.5282 22.3442 C 95.7577 23.2183 96.1136 24.1058 96.0237 24.9946 C 95.9795 25.4286 95.3735 25.7148 95.1471 26.1136 C 94.913 26.5253 94.6996 26.9611 94.6516 27.4093 C 94.5083 28.7386 94.4206 30.0855 94.5754 31.4142 C 94.6272 31.8606 95.1234 32.2158 95.2614 32.651 C 95.4062 33.1098 95.4344 33.5922 95.4139 34.0645 C 95.3963 34.4627 95.314 34.8655 95.1471 35.2424 C 95.0053 35.5622 94.4991 36.1259 94.4991 36.1259 "/>
        <path id="ID0.7519200313836336" fill="none" stroke="#995900" stroke-width="1.3623144473467341" stroke-linecap="round" d="M 92.9746 14.3344 C 92.9746 14.3344 91.5315 16.3645 91.3356 17.4853 C 91.2228 18.1279 91.8631 18.718 92.0979 19.3406 C 92.3076 19.8953 92.832 20.4549 92.6696 21.0191 C 92.537 21.4796 91.5171 21.5403 91.3356 21.9909 C 91.1192 22.5286 91.495 23.1122 91.6024 23.6694 C 91.7107 24.2307 91.9188 24.7825 91.9836 25.3479 C 92.0461 25.8951 91.9531 26.4481 91.9836 26.997 C 92.0804 28.7339 92.4211 30.4713 92.3647 32.2093 C 92.3319 33.2329 92.0331 34.2483 91.7168 35.2424 C 91.623 35.5363 91.1451 36.0375 91.1451 36.0375 "/>
        <path id="ID0.4806634387932718" fill="none" stroke="#CCCC00" stroke-width="1.523486463114449" stroke-linecap="round" d="M 90.9499 12.3517 C 90.9499 12.3517 89.6235 15.29 89.2348 16.8428 C 89.0808 17.4586 89.2584 18.1178 89.3491 18.7458 C 89.449 19.44 89.6266 20.1236 89.8065 20.8011 C 89.9696 21.4169 90.2517 22.003 90.3782 22.6279 C 90.6077 23.7576 90.9636 24.9047 90.8737 26.0533 C 90.8295 26.6143 90.2235 26.9843 89.9971 27.4996 C 89.763 28.0317 89.5496 28.595 89.5016 29.1743 C 89.3583 30.8923 89.2706 32.6332 89.4254 34.3504 C 89.4772 34.9274 89.9734 35.3864 90.1114 35.949 C 90.2562 36.5419 90.2844 37.1654 90.2639 37.7758 C 90.2463 38.2904 90.164 38.8111 89.9971 39.2982 C 89.8553 39.7116 89.3491 40.44 89.3491 40.44 "/>
        <path id="ID0.7519200313836336" fill="none" stroke="#FF9400" stroke-width="1.523486463114449" stroke-linecap="round" d="M 87.8246 12.2756 C 87.8246 12.2756 86.3815 14.8995 86.1856 16.348 C 86.0728 17.1785 86.7131 17.9412 86.9479 18.7458 C 87.1576 19.4629 87.682 20.186 87.5196 20.9152 C 87.387 21.5105 86.3671 21.5889 86.1856 22.1712 C 85.9692 22.8662 86.345 23.6205 86.4524 24.3406 C 86.5607 25.0661 86.7688 25.7793 86.8336 26.5101 C 86.8961 27.2172 86.8031 27.932 86.8336 28.6414 C 86.9304 30.8862 87.2711 33.1318 87.2147 35.3781 C 87.1819 36.701 86.8831 38.0133 86.5668 39.2982 C 86.473 39.6781 85.9951 40.3259 85.9951 40.3259 "/>
        <path id="ID0.4806634387932718" fill="none" stroke="#CCCC00" stroke-width="1.5290487853815156" stroke-linecap="round" d="M 85.1999 7.1262 C 85.1999 7.1262 83.8735 10.0859 83.4848 11.6501 C 83.3308 12.2704 83.5084 12.9344 83.5991 13.5669 C 83.699 14.2662 83.8766 14.9548 84.0565 15.6372 C 84.2196 16.2575 84.5017 16.8479 84.6282 17.4774 C 84.8577 18.6153 85.2136 19.7708 85.1237 20.9278 C 85.0795 21.4929 84.4735 21.8656 84.2471 22.3847 C 84.013 22.9206 83.7996 23.488 83.7516 24.0715 C 83.6083 25.8021 83.5206 27.5557 83.6754 29.2855 C 83.7272 29.8667 84.2234 30.329 84.3614 30.8957 C 84.5062 31.493 84.5344 32.1209 84.5139 32.7359 C 84.4963 33.2542 84.414 33.7787 84.2471 34.2694 C 84.1053 34.6857 83.5991 35.4195 83.5991 35.4195 "/>
        <path id="ID0.7519200313836336" fill="none" stroke="#995900" stroke-width="1.5290487853815156" stroke-linecap="round" d="M 82.0746 7.0495 C 82.0746 7.0495 80.6315 9.6925 80.4356 11.1517 C 80.3228 11.9882 80.9631 12.7565 81.1979 13.5669 C 81.4076 14.2892 81.932 15.0177 81.7696 15.7522 C 81.637 16.3518 80.6171 16.4308 80.4356 17.0174 C 80.2192 17.7174 80.595 18.4773 80.7024 19.2026 C 80.8107 19.9333 81.0188 20.6518 81.0836 21.3879 C 81.1461 22.1002 81.0531 22.8202 81.0836 23.5348 C 81.1804 25.796 81.5211 28.0579 81.4647 30.3206 C 81.4319 31.6532 81.1331 32.9751 80.8168 34.2694 C 80.723 34.652 80.2451 35.3045 80.2451 35.3045 "/>
        <path id="ID0.4806634387932718" fill="none" stroke="#CCCC00" stroke-width="1.710437983335185" stroke-linecap="round" d="M 79.4499 5.9346 C 79.4499 5.9346 78.1235 9.5591 77.7348 11.4747 C 77.5808 12.2343 77.7584 13.0475 77.8491 13.8222 C 77.949 14.6786 78.1266 15.5218 78.3065 16.3575 C 78.4696 17.1171 78.7517 17.8402 78.8782 18.6111 C 79.1077 20.0046 79.4636 21.4196 79.3737 22.8366 C 79.3295 23.5286 78.7235 23.985 78.4971 24.6207 C 78.263 25.2771 78.0496 25.9719 78.0016 26.6865 C 77.8583 28.8058 77.7706 30.9533 77.9254 33.0717 C 77.9772 33.7835 78.4734 34.3497 78.6114 35.0436 C 78.7562 35.7751 78.7844 36.5441 78.7639 37.2972 C 78.7463 37.932 78.664 38.5742 78.4971 39.1752 C 78.3553 39.6851 77.8491 40.5837 77.8491 40.5837 "/>
        <path id="ID0.7519200313836336" fill="none" stroke="#CCCC00" stroke-width="1.710437983335185" stroke-linecap="round" d="M 76.3246 5.8407 C 76.3246 5.8407 74.8815 9.0774 74.6856 10.8643 C 74.5728 11.8888 75.2131 12.8297 75.4479 13.8222 C 75.6576 14.7067 76.182 15.5988 76.0196 16.4983 C 75.887 17.2326 74.8671 17.3294 74.6856 18.0477 C 74.4692 18.905 74.845 19.8356 74.9524 20.7238 C 75.0607 21.6187 75.2688 22.4986 75.3336 23.4 C 75.3961 24.2723 75.3031 25.154 75.3336 26.0292 C 75.4304 28.7983 75.7711 31.5684 75.7147 34.3393 C 75.6819 35.9713 75.3831 37.5902 75.0668 39.1752 C 74.973 39.6438 74.4951 40.4428 74.4951 40.4428 "/>
        <path id="ID0.4806634387932718" fill="none" stroke="#995900" stroke-width="1.5571573872534457" stroke-linecap="round" d="M 74.0999 4.3485 C 74.0999 4.3485 72.7735 7.4154 72.3848 9.0363 C 72.2308 9.6791 72.4084 10.3671 72.4991 11.0226 C 72.599 11.7473 72.7766 12.4607 72.9565 13.1679 C 73.1196 13.8107 73.4017 14.4225 73.5282 15.0748 C 73.7577 16.2539 74.1136 17.4512 74.0237 18.6502 C 73.9795 19.2358 73.3735 19.6219 73.1471 20.1598 C 72.913 20.7152 72.6996 21.3032 72.6516 21.9078 C 72.5083 23.7011 72.4206 25.5182 72.5754 27.3107 C 72.6272 27.9129 73.1234 28.392 73.2614 28.9792 C 73.4062 29.5981 73.4344 30.2489 73.4139 30.8861 C 73.3963 31.4232 73.314 31.9667 73.1471 32.4752 C 73.0053 32.9066 72.4991 33.667 72.4991 33.667 "/>
        <path id="ID0.7519200313836336" fill="none" stroke="#FF9400" stroke-width="1.5571573872534457" stroke-linecap="round" d="M 70.9746 4.2691 C 70.9746 4.2691 69.5315 7.0078 69.3356 8.5198 C 69.2228 9.3867 69.8631 10.1828 70.0979 11.0226 C 70.3076 11.7711 70.832 12.5259 70.6696 13.2871 C 70.537 13.9084 69.5171 13.9902 69.3356 14.5981 C 69.1192 15.3235 69.495 16.1109 69.6024 16.8625 C 69.7107 17.6197 69.9188 18.3642 69.9836 19.1269 C 70.0461 19.8651 69.9531 20.6111 69.9836 21.3516 C 70.0804 23.6947 70.4211 26.0386 70.3647 28.3833 C 70.3319 29.7642 70.0331 31.134 69.7168 32.4752 C 69.623 32.8716 69.1451 33.5478 69.1451 33.5478 "/>
      </g>
    </g>
  </g>
</svg>