<svg version="1.1" xmlns="http://www.w3.org/2000/svg" xmlns:xlink="http://www.w3.org/1999/xlink" width="479.9777" height="360" viewBox="0,0,479.9777,360"><g transform="translate(-0.01115,0)"><g data-paper-data="{&quot;isPaintingLayer&quot;:true}" fill-rule="nonzero" stroke-linejoin="miter" stroke-miterlimit="10" stroke-dasharray="" stroke-dashoffset="0" style="mix-blend-mode: normal"><path d="M0.01115,0h479.9777v360h-479.9777z" fill="#d0f6ff" stroke="none" stroke-width="1.00207" stroke-linecap="butt"/><path d="M72,128l0.3,0.3" fill="none" stroke="#ccd8ff" stroke-width="2" stroke-linecap="round"/><path d="M18,53.5c0,-11.32184 9.17816,-20.5 20.5,-20.5c11.32184,0 20.5,9.17816 20.5,20.5c0,11.32184 -9.17816,20.5 -20.5,20.5c-11.32184,0 -20.5,-9.17816 -20.5,-20.5z" fill="#ffc938" stroke="none" stroke-width="0" stroke-linecap="butt"/><path d="M18,109.5c0,-11.32183 9.17817,-20.5 20.5,-20.5c11.32184,0 20.5,9.17817 20.5,20.5c0,11.32183 -9.17816,20.5 -20.5,20.5c-11.32183,0 -20.5,-9.17817 -20.5,-20.5z" fill="#38c6ff" stroke="none" stroke-width="0" stroke-linecap="butt"/><path d="M18,164.5c0,-11.32183 9.17817,-20.5 20.5,-20.5c11.32184,0 20.5,9.17817 20.5,20.5c0,11.32183 -9.17816,20.5 -20.5,20.5c-11.32183,0 -20.5,-9.17817 -20.5,-20.5z" fill="#ff7ee9" stroke="none" stroke-width="0" stroke-linecap="butt"/><path d="M18,220.5c0,-11.32183 9.17817,-20.5 20.5,-20.5c11.32183,0 20.5,9.17817 20.5,20.5c0,11.32183 -9.17817,20.5 -20.5,20.5c-11.32183,0 -20.5,-9.17817 -20.5,-20.5z" fill="#46e232" stroke="none" stroke-width="0" stroke-linecap="butt"/><path d="M18,271.5c0,-11.32183 9.17817,-20.5 20.5,-20.5c11.32183,0 20.5,9.17817 20.5,20.5c0,11.32183 -9.17817,20.5 -20.5,20.5c-11.32183,0 -20.5,-9.17817 -20.5,-20.5z" fill="#a65dff" stroke="none" stroke-width="0" stroke-linecap="butt"/></g></g></svg>