<svg version="1.1" xmlns="http://www.w3.org/2000/svg" xmlns:xlink="http://www.w3.org/1999/xlink" width="30.59784" height="30.21706" viewBox="0,0,30.59784,30.21706"><defs><radialGradient cx="240.07432" cy="180" r="18.6777" gradientUnits="userSpaceOnUse" id="color-1"><stop offset="0" stop-color="#ff2e2e"/><stop offset="1" stop-color="#ff2e2e" stop-opacity="0"/></radialGradient></defs><g transform="translate(-225.70685,-164.89147)"><g data-paper-data="{&quot;isPaintingLayer&quot;:true}" fill-rule="nonzero" stroke-linejoin="miter" stroke-miterlimit="10" stroke-dasharray="" stroke-dashoffset="0" style="mix-blend-mode: normal"><path d="M239.8,170.4c2.621,0 4.996,1.065 6.716,2.784c1.719,1.72 2.784,4.095 2.784,6.716c0,2.621 -1.065,4.996 -2.784,6.716c-1.72,1.719 -4.095,2.784 -6.716,2.784c-2.621,0 -4.996,-1.065 -6.716,-2.784c-1.719,-1.72 -2.784,-4.095 -2.784,-6.716c0,-2.621 1.065,-4.996 2.784,-6.716c1.72,-1.719 4.095,-2.784 6.716,-2.784z" fill="#ffa2a2" stroke="#000000" stroke-width="1" stroke-linecap="butt"/><path d="M240.55469,180h15" fill="none" stroke="#000000" stroke-width="1.5" stroke-linecap="round"/><path d="M240,164.89147c3.94342,0 7.51671,1.69377 10.10451,4.42759c2.58632,2.73548 4.18864,6.51261 4.18864,10.68094c0,4.16838 -1.60232,7.94551 -4.18864,10.68094c-2.5878,2.73386 -6.16109,4.42759 -10.10451,4.42759c-3.94338,0 -7.51667,-1.69372 -10.10447,-4.42759c-2.58632,-2.73543 -4.18868,-6.51256 -4.18868,-10.68094c0,-4.16834 1.60236,-7.94547 4.18868,-10.68094c2.5878,-2.73381 6.16109,-4.42759 10.10447,-4.42759z" fill="url(#color-1)" stroke="none" stroke-width="3.34211" stroke-linecap="butt"/></g></g></svg>