<svg xmlns="http://www.w3.org/2000/svg" xmlns:xlink="http://www.w3.org/1999/xlink" version="1.1" width="39.650009378790855" height="39.4500086158514" viewBox="0.3567946031689644 0.21089459210634232 39.650009378790855 39.4500086158514">
  <!-- Exported by Scratch - http://scratch.mit.edu/ -->
  <g id="ID0.8605499099940062">
    <path id="ID0.32600250048562884" fill="#FFFFFF" stroke="#000000" stroke-width="2.203010782599449" d="M 1.7083 1.3624 L 38.9053 1.3624 L 38.9053 38.5594 L 1.7083 38.5594 L 1.7083 1.3624 Z "/>
    <path id="ID0.09598577674478292" fill="none" stroke="#003FFF" stroke-width="2.203010782599449" stroke-linecap="round" d="M 20.4381 18.2586 L 24.9288 18.3433 "/>
    <path id="ID0.8604466058313847" fill="none" stroke="#FF9400" stroke-width="2.203010782599449" stroke-linecap="round" d="M 6.4574 18.2586 L 11.2024 18.3433 L 11.2024 11.6496 L 20.4381 11.5648 L 20.4381 19.0212 L 15.9473 19.0212 L 16.032 23.0883 L 20.4381 23.0035 "/>
    <path id="ID0.22679236764088273" fill="none" stroke="#00FF55" stroke-width="2.203010782599449" stroke-linecap="round" d="M 15.6931 1.9055 L 15.8626 7.2435 L 20.777 7.3283 "/>
    <path id="ID0.24604363413527608" fill="none" stroke="#00FF55" stroke-width="2.203010782599449" stroke-linecap="round" d="M 20.6923 1.6513 L 20.6923 3.2612 Z "/>
    <path id="ID0.10768063738942146" fill="none" stroke="#00FF55" stroke-width="2.203010782599449" stroke-linecap="round" d="M 25.8609 1.736 L 25.8609 3.007 Z "/>
    <path id="ID0.030424184631556273" fill="none" stroke="#0033CC" stroke-width="2.203010782599449" stroke-linecap="round" d="M 14.3374 27.4943 L 5.7796 27.4096 L 5.6948 23.0035 L 10.694 23.173 "/>
    <path id="ID0.24557827459648252" fill="none" stroke="#FF0000" stroke-width="2.203010782599449" stroke-linecap="round" d="M 6.5422 13.7678 L 6.5422 7.8367 L 12.7275 7.8367 L 12.897 4.7863 L 6.7963 4.7863 "/>
    <path id="ID0.587421037722379" fill="none" stroke="#00FF55" stroke-width="2.203010782599449" stroke-linecap="round" d="M 15.1 14.7846 L 15.9473 14.7846 Z "/>
    <path id="ID0.3743340950459242" fill="none" stroke="#00FF55" stroke-width="2.203010782599449" stroke-linecap="round" d="M 15.9473 14.6999 L 17.2183 14.6999 Z "/>
    <path id="ID0.5107047813944519" fill="none" stroke="#003FFF" stroke-width="2.203010782599449" stroke-linecap="round" d="M 34.5034 6.3962 L 34.4187 11.4801 L 32.0462 11.3106 L 31.9615 18.2586 L 25.5219 18.2586 L 25.3525 11.3106 L 28.0639 11.1412 "/>
    <path id="ID0.7323964070528746" fill="none" stroke="#00FF55" stroke-width="2.203010782599449" stroke-linecap="round" d="M 18.2351 27.1554 L 25.6914 27.2401 L 25.4372 22.3257 L 32.9783 22.1562 L 32.9783 33.6797 L 14.2527 33.6797 "/>
    <path id="ID0.711514959577471" fill="none" stroke="#FFFF00" stroke-width="2.203010782599449" stroke-linecap="round" d="M 10.5245 33.5949 L 5.6948 33.5949 L 5.3559 30.0362 L 27.4708 30.2904 "/>
    <path id="ID0.007145847659558058" fill="none" stroke="#00FF55" stroke-width="2.203010782599449" stroke-linecap="round" d="M 32.8088 33.256 L 32.8935 37.662 "/>
    <path id="ID0.765577794983983" fill="none" stroke="#003FFF" stroke-width="2.203010782599449" stroke-linecap="round" d="M 5.949 24.6134 L 1.543 24.6134 "/>
    <path id="ID0.8537088991142809" fill="none" stroke="#003FFF" stroke-width="2.203010782599449" stroke-linecap="round" d="M 37.2996 11.0565 L 37.469 33.9339 "/>
    <path id="ID0.5040196306072176" fill="none" stroke="#003FFF" stroke-width="2.203010782599449" stroke-linecap="round" d="M 37.6385 9.5313 L 37.5538 2.4986 L 31.5379 2.3291 L 31.4531 6.5657 "/>
    <path id="ID0.06875528674572706" fill="none" stroke="#00FF55" stroke-width="2.203010782599449" stroke-linecap="round" d="M 24.9288 6.7352 L 30.7753 6.7352 L 30.6905 2.6681 "/>
    <path id="ID0.32600250048562884" fill="none" stroke="#000000" stroke-width="2.203010782599449" d="M 1.4583 1.3124 L 38.6553 1.3124 L 38.6553 38.5094 L 1.4583 38.5094 L 1.4583 1.3124 Z "/>
  </g>
</svg>