<svg xmlns="http://www.w3.org/2000/svg" xmlns:xlink="http://www.w3.org/1999/xlink" version="1.1" width="40.04410171508789" height="46" viewBox="-0.008799999952316284 0.3278999924659729 40.04410171508789 46">
  <!-- Exported by Scratch - http://scratch.mit.edu/ -->
  <g id="ID0.837238600011915">
    <path id="ID0.498876194935292" fill="none" stroke="none" d="M 0.4912 0.8279 L 39.5353 0.8279 L 39.5353 45.8279 L 0.4912 45.8279 L 0.4912 0.8279 Z " stroke-width="0.6617646813392639"/>
    <g id="ID0.5030678873881698">
      <path id="ID0.6034701126627624" fill="#CC0000" stroke="none" stroke-linecap="round" d="M 7.8954 32.0143 L 24.4803 28.5127 L 18.9988 42.0652 L 7.8954 32.0143 Z " stroke-width="0.42751323401048985"/>
      <path id="ID0.6149272532202303" fill="#CC0000" stroke="none" stroke-linecap="round" d="M 34.2052 16.8854 C 34.5702 17.212 26.4656 18.3588 22.8184 19.7548 C 21.3406 20.3165 20.0443 21.4276 19.214 22.8501 C 18.5805 23.9302 18.6694 25.3146 18.691 26.5741 C 18.7204 28.3132 20.8111 30.4846 19.7275 31.7398 C 18.3488 33.1274 15.4174 32.6851 13.7503 31.8715 C 12.4174 31.2148 11.9095 29.6354 11.639 27.9376 C 11.3122 25.8137 11.801 23.3627 13.0851 21.6343 C 14.7008 19.4633 16.9742 17.6691 19.4823 17.1258 C 24.3037 16.0214 33.8423 16.5611 34.2052 16.8854 Z " stroke-width="0.42751323401048985"/>
    </g>
    <text id="ID0.8189580743201077" fill="#000000" text-anchor="start" font-family="Sans Serif" font-size="22" transform="matrix(0.450607 0 0 0.450607 6.90121 3.79818)" stroke-width="1" alignment-baseline="text-before-edge" xml:space="preserve"><tspan x="0" style="white-space: pre" dy="1.13em">Close</tspan></text>
  </g>
</svg>