<svg version="1.1" xmlns="http://www.w3.org/2000/svg" xmlns:xlink="http://www.w3.org/1999/xlink" width="110.15766" height="150.4247" viewBox="0,0,110.15766,150.4247"><g transform="translate(-184.92117,-108.45385)"><g data-paper-data="{&quot;isPaintingLayer&quot;:true}" fill-rule="nonzero" stroke-linejoin="miter" stroke-miterlimit="10" stroke-dasharray="" stroke-dashoffset="0" style="mix-blend-mode: normal"><path d="M240.19806,235.65649l-0.7104,15.72206" fill="none" stroke="#000000" stroke-width="15" stroke-linecap="round"/><path d="M210.48226,130.09725l-6.90303,-14.14341" data-paper-data="{&quot;index&quot;:null}" fill="none" stroke="#000000" stroke-width="15" stroke-linecap="round"/><path d="M278.96188,116.25166l-6.90302,14.14341" data-paper-data="{&quot;index&quot;:null}" fill="none" stroke="#000000" stroke-width="15" stroke-linecap="round"/><path d="M192.42117,180c0,-26.27706 21.30177,-47.57883 47.57883,-47.57883c26.27706,0 47.57883,21.30177 47.57883,47.57883c0,26.27706 -21.30177,47.57883 -47.57883,47.57883c-26.27706,0 -47.57883,-21.30177 -47.57883,-47.57883z" fill="#baffd8" stroke="#45b1d5" stroke-width="15" stroke-linecap="butt"/><path d="M224.93806,190.13514c0,-7.92976 6.49137,-14.35811 14.49887,-14.35811c8.00751,0 14.49887,6.42834 14.49887,14.35811c0,7.92976 -6.49137,14.35811 -14.49887,14.35811c-8.00751,0 -14.49887,-6.42834 -14.49887,-14.35811z" fill="#45b4d6" stroke="#000000" stroke-width="0" stroke-linecap="butt"/></g></g></svg>