<svg version="1.1" xmlns="http://www.w3.org/2000/svg" xmlns:xlink="http://www.w3.org/1999/xlink" width="213.17151" height="172.4692" viewBox="0,0,213.17151,172.4692"><g transform="translate(-142.2797,-172.57852)"><g data-paper-data="{&quot;isPaintingLayer&quot;:true}" fill="#9966ff" fill-rule="nonzero" stroke="none" stroke-width="0.5" stroke-linecap="butt" stroke-linejoin="miter" stroke-miterlimit="10" stroke-dasharray="" stroke-dashoffset="0" style="mix-blend-mode: normal"><path d="M241.21088,174.64018c0.99001,-0.34318 1.8282,-0.34318 1.8282,-0.34318c8.87877,0 17.75754,0 26.63631,0c0.89209,0 8.91935,-0.01814 9.39327,0.06456c1.88572,0.32906 3.58882,1.37669 5.46054,1.77778c2.1568,0.46217 4.38912,0.46146 6.56876,0.79993c2.33384,0.36242 4.54224,1.34219 6.87389,1.71847c1.50072,0.24219 3.14575,-0.26744 4.54945,0.31604c1.35955,0.56513 2.00602,2.2286 3.29295,2.94385c1.68321,0.9355 3.84889,0.84604 5.45031,1.91551c1.23,0.82143 1.51321,2.63596 2.69559,3.52457c1.14136,0.85778 2.67147,1.00857 4.0072,1.51285c2.41463,2.32379 4.37051,5.09004 6.74208,7.45777c1.0317,1.03003 2.46311,1.60025 3.4926,2.6325c2.55155,2.55839 4.86214,5.34799 7.20506,8.09871c1.87807,2.20496 2.72097,5.11514 3.99534,7.71609c1.08524,2.21492 3.07516,3.88096 4.29996,6.02186c1.34647,2.35359 2.55541,4.7904 3.62744,7.281c1.8124,4.21067 0.61135,4.56309 1.85399,8.95956c0.58238,2.06049 2.51634,3.52819 3.2546,5.5381c2.99073,8.14221 3.00514,15.92173 3.00514,24.3629c0,6.10513 0.24609,12.32602 -2.05486,18.12847c-0.65346,1.64787 -1.90638,2.99672 -2.69875,4.58248c-0.49495,0.99054 -0.53019,2.1985 -1.14855,3.11708c-0.89274,1.3262 -2.12307,2.39768 -3.29543,3.48459c-0.43348,0.40188 -1.2566,0.41418 -1.49384,0.95559c-0.26875,0.61332 0.43585,1.37256 0.19918,1.99896c-0.59028,1.56226 -2.04852,2.71219 -2.57771,4.29618c-0.42467,1.27115 0.35042,2.79336 -0.19918,4.01569c-0.69423,1.544 -2.28056,2.50619 -3.33039,3.83424c-1.28082,1.62024 -2.09645,3.5842 -3.43694,5.15542c-0.98493,1.15445 -2.35725,1.96157 -3.24744,3.19055c-1.38114,1.90676 -1.80024,4.50847 -3.50528,6.13207c-1.15727,1.10199 -3.0831,0.88129 -4.54281,1.5316c-2.61955,1.16701 -5.49905,3.85261 -7.72726,5.52378c-6.85182,4.39701 -15.09516,6.04879 -22.83041,8.40889c-1.66894,0.50921 -3.17755,1.53071 -4.88899,1.87079c-1.61237,0.3204 -3.29232,-0.0499 -4.93103,0.08056c-2.30184,0.18325 -4.56771,0.74263 -6.87389,0.85924c-5.14884,0.26034 -10.32364,-0.36319 -15.46625,0c-18.65455,1.31747 -37.428,0.8689 -56.16102,0.8689c-5.22095,-0.06134 -8.1272,-2.06844 -13.03463,-3.53905c-0.94894,-0.28437 -2.07996,0.33701 -2.97032,-0.09729c-3.62585,-1.76862 -7.06785,-3.9435 -10.29007,-6.37087c-1.46198,-1.10134 -2.25072,-2.91769 -3.63291,-4.11764c-2.05096,-1.78055 -8.33157,-4.91674 -10.0602,-6.6497c-0.77869,-0.78064 -0.59845,-2.16174 -1.21228,-3.07769c-0.67648,-1.00943 -1.90367,-1.56665 -2.57771,-2.57771c-0.5024,-0.7536 -0.32638,-1.84532 -0.85924,-2.57771c-1.34233,-1.84496 -3.50635,-3.04433 -4.66232,-5.01142c-0.56601,-0.96316 0.05673,-2.26724 -0.24685,-3.34236c-0.65276,-2.31173 -1.92037,-4.40621 -2.99581,-6.55414c-0.48411,-0.96688 -1.30861,-1.73795 -1.78494,-2.70869c-0.72684,-1.48128 -0.51839,-3.3828 -1.48015,-4.72352c-0.70829,-0.98737 -1.96034,-1.53108 -2.57771,-2.57771c-1.92363,-3.26113 -1.54307,-4.62581 -1.56852,-8.03239c-0.82285,-3.12704 -2.11951,-6.24326 -2.57771,-9.45159c-0.92637,-6.48645 -0.03746,-13.82859 -0.03746,-20.37334c0,-3.70522 -0.81744,-8.72624 0.13376,-12.31883c0.52872,-1.99692 2.21638,-3.62183 2.50852,-5.6668c0.21498,-1.50486 -0.25582,-3.14098 0.31604,-4.54945c0.45713,-1.12588 2.00795,-1.50442 2.57771,-2.57771c0.28598,-0.53872 -0.42233,-1.22892 -0.24685,-1.81306c0.82536,-2.74746 3.4985,-6.85767 4.93737,-9.2581c1.91921,-2.84063 4.29902,-6.17187 6.70417,-8.59491c0.7275,-0.73291 1.8475,-0.98826 2.57771,-1.71847c0.73021,-0.73021 0.98556,-1.85021 1.71847,-2.57771c4.60919,-4.57516 11.04778,-8.86942 16.68125,-12.06343c2.42581,-1.37536 5.20195,-2.05134 7.64761,-3.39108c3.2917,-1.80319 6.30584,-4.47004 9.66088,-6.1232c3.16464,-1.55934 6.89141,-1.92822 10.25041,-2.88673c3.94853,-1.12674 7.11127,-2.06378 11.29637,-2.76007c0.00787,-0.00004 5.30498,-0.0359 5.56782,-0.01704c0.34214,0.02456 0.69267,0.41568 0.99657,0.25658c1.2687,-0.66422 2.11954,-2.01624 3.43694,-2.57771c1.26413,-0.53876 2.92758,-0.23193 3.96305,-1.13531l3.63274,-0.83975c0,0 2.76992,0 4.18645,2.06166zM238.85263,182.23534c-0.40053,0.13884 -0.77622,0.22152 -1.0816,0.27074c-0.8745,0.60326 -1.74393,1.21716 -2.73462,1.57638c-0.76646,0.27791 -1.6968,-0.36477 -2.44549,-0.04204c-1.31508,0.56688 -2.09525,2.07707 -3.43694,2.57771c-2.27088,0.84736 -6.38733,0.25933 -8.90186,0.23955c-3.45968,0.57799 -6.02717,1.45198 -9.3253,2.39535c-2.69605,0.77115 -6.12884,0.97504 -8.65278,2.26868c-3.19518,1.63768 -6.06918,4.18164 -9.24231,5.9061c-2.50681,1.36235 -5.34785,2.05616 -7.81864,3.48281c-4.34523,2.50896 -8.21485,5.72369 -12.03913,8.88941c-0.67047,0.55501 -1.59935,0.76917 -2.21212,1.38729c-0.72702,0.73339 -0.98826,1.8475 -1.71847,2.57771c-0.73021,0.73021 -1.84432,0.99145 -2.57771,1.71847c-1.90161,1.88511 -3.83571,4.59196 -5.32513,6.87134c-1.2365,2.05858 -3.03249,3.88884 -3.65499,6.20814c-0.28959,1.07897 0.23421,2.33409 -0.24685,3.34236c-0.52326,1.09671 -2.06865,1.47433 -2.57771,2.57771c-0.32758,0.71002 0.42662,1.55036 0.31604,2.32444c-0.32485,2.27395 -1.93452,4.17872 -2.6469,6.3625c-0.84691,2.5962 0.13376,7.24117 0.13376,10.0213c0,6.12025 -0.90358,13.09147 -0.03746,19.15151c0.44353,3.10328 1.84441,6.41841 2.57771,9.45159c-0.01113,1.33319 -0.70023,2.96992 0.14995,3.99691c0.77487,0.93603 1.92771,1.55103 2.57771,2.57771c1.05557,1.6673 1.0568,3.83114 1.95679,5.58731c0.44881,0.87577 1.21238,1.56631 1.65201,2.44672c1.44735,2.8985 2.97885,5.79963 3.87808,8.9121c0.16929,0.58596 -0.59079,1.30935 -0.24685,1.81306c0.99939,1.4636 2.84208,2.18191 3.93004,3.58094c0.556,0.71497 0.35684,1.82411 0.85924,2.57771c0.67404,1.01106 1.90664,1.56467 2.57771,2.57771c0.39366,0.59427 0.00095,1.57487 0.50619,2.07773c0.80527,0.80147 2.09907,0.8908 3.06972,1.48129c1.98381,1.20684 4.00583,2.39229 5.77328,3.89831c1.36647,1.16435 2.17119,2.90129 3.55247,4.04804c2.02602,1.68202 4.21566,3.21388 6.58316,4.36664c0.65551,0.31918 1.48682,-0.30699 2.1851,-0.09729c4.48226,1.34608 6.62783,3.41857 11.02397,3.33483c18.52889,0 37.08865,0.4177 55.53965,-0.84957c5.1433,-0.35326 10.3176,0.26409 15.46625,0c2.3061,-0.11829 4.57104,-0.68903 6.87389,-0.85924c1.21742,-0.08998 2.46469,0.32194 3.66133,0.08056c1.31384,-0.26503 2.42335,-1.16872 3.70337,-1.56616c5.82427,-1.8084 9.70887,-3.07097 15.40836,-5.13631c1.59791,-0.57904 3.34166,-0.93089 4.72303,-1.92105c2.7544,-2.0658 6.22922,-5.18351 9.45745,-6.50553c0.72137,-0.29541 1.80582,0.3891 2.33107,-0.18687c1.00911,-1.10655 0.81557,-2.93526 1.65013,-4.17876c0.96017,-1.43065 2.50199,-2.37786 3.62644,-3.68334c1.34789,-1.56488 2.06101,-3.61514 3.43694,-5.15542c0.50033,-0.56009 1.55274,-0.62126 1.82502,-1.32118c0.34625,-0.89007 -0.50047,-1.95192 -0.19918,-2.85819c0.52687,-1.58477 1.9946,-2.73123 2.57771,-4.29618c0.36809,-0.9879 -0.29074,-2.22296 0.19918,-3.15646c1.24841,-2.37873 4.04942,-3.6235 5.52156,-5.87065c0.38661,-0.59014 0.25421,-1.40742 0.56993,-2.03834c0.70148,-1.40181 1.86928,-2.55656 2.45666,-4.00988c1.84185,-4.55716 1.38208,-9.72125 1.38208,-14.5225c0,-6.97241 0.26099,-13.59455 -2.15028,-20.31737c-0.83638,-2.33188 -2.88096,-4.12644 -3.61929,-6.4912c-0.83212,-2.66515 -0.40995,-5.69149 -1.58296,-8.22516c-2.09896,-4.53374 -5.29981,-8.0712 -7.53884,-12.47421c-1.16794,-2.29673 -1.22631,-4.20742 -2.87854,-6.03169c-5.03273,-5.55676 -10.12787,-10.67388 -15.21123,-16.18046c-1.52839,-0.64136 -3.25823,-0.93084 -4.58516,-1.92409c-1.10893,-0.83007 -1.30659,-2.58199 -2.45982,-3.34932c-1.41341,-0.94044 -3.37628,-0.69729 -4.86052,-1.52143c-0.8426,-0.46786 -0.98448,-1.81407 -1.86247,-2.21156c-0.71234,-0.3225 -1.54807,0.4092 -2.32444,0.31604c-2.34499,-0.28139 -4.53902,-1.36274 -6.87389,-1.71847c-2.38499,-0.36337 -4.82005,-0.41305 -7.17901,-0.91854c-1.67081,-0.35803 -3.17191,-1.33848 -4.85029,-1.65917c-3.85144,-0.7359 -9.05115,0.06456 -12.94686,0.06456c-7.1603,0 -14.3206,0 -21.4809,0c0,0 -2.76992,0 -4.18645,-2.06166z"/></g></g></svg>