<svg xmlns="http://www.w3.org/2000/svg" xmlns:xlink="http://www.w3.org/1999/xlink" version="1.1" width="80.73590087890625" height="38.03009796142578" viewBox="-0.5009000000427477 -0.07049998641014099 80.73590087890625 38.03009796142578">
  <defs>
    <radialGradient id="grad_1" cx="0.2" cy="0.2826" r="1.04">
      <stop offset="0" stop-color="#FFFF99" stop-opacity="1"/>
      <stop offset="1" stop-color="#CC7700" stop-opacity="1"/>
    </radialGradient>
    <radialGradient id="grad_2" cx="0.2" cy="0.2826" r="1.04">
      <stop offset="0" stop-color="#FFFF99" stop-opacity="1"/>
      <stop offset="1" stop-color="#CC7700" stop-opacity="1"/>
    </radialGradient>
    <radialGradient id="grad_3" cx="0.3284" cy="0.3738" r="0.87308">
      <stop offset="0" stop-color="#FFFF99" stop-opacity="1"/>
      <stop offset="1" stop-color="#CC7700" stop-opacity="1"/>
    </radialGradient>
    <radialGradient id="grad_4" cx="0.2789" cy="0.3757" r="0.93743">
      <stop offset="0" stop-color="#FFFF99" stop-opacity="1"/>
      <stop offset="1" stop-color="#CC7700" stop-opacity="1"/>
    </radialGradient>
    <radialGradient id="grad_5" cx="0.42590000000000006" cy="0.33630000000000004" r="0.8628100000000001">
      <stop offset="0" stop-color="#FFFF99" stop-opacity="1"/>
      <stop offset="1" stop-color="#CC7700" stop-opacity="1"/>
    </radialGradient>
    <radialGradient id="grad_6" cx="0.5" cy="0.33630000000000004" r="0.8628100000000001">
      <stop offset="0" stop-color="#FFFF99" stop-opacity="1"/>
      <stop offset="1" stop-color="#CC7700" stop-opacity="1"/>
    </radialGradient>
    <radialGradient id="grad_7" cx="0.33990000000000004" cy="0.37329999999999997" r="0.8581300000000001">
      <stop offset="0" stop-color="#FF0000" stop-opacity="1"/>
      <stop offset="1" stop-color="#990000" stop-opacity="1"/>
    </radialGradient>
  <radialGradient id="grad_1-.8573749661445618,0,0,0.8573749661445618,-32.4,-48.55" cx="65.3565" cy="6.5792" r="11.3792" gradientUnits="userSpaceOnUse">
      <stop offset="0" stop-color="#FFFF99" stop-opacity="1"/>
      <stop offset="1" stop-color="#CC7700" stop-opacity="1"/>
    </radialGradient><radialGradient id="grad_2-0.8573749661445618,0,0,0.8573749661445618,176.15,-48.5" cx="78.3935" cy="6.6292" r="11.3792" gradientUnits="userSpaceOnUse">
      <stop offset="0" stop-color="#FFFF99" stop-opacity="1"/>
      <stop offset="1" stop-color="#CC7700" stop-opacity="1"/>
    </radialGradient><radialGradient id="grad_3-.8573749661445618,0,0,0.8573749661445618,-23.15,-48.5" cx="11.4939" cy="14.2714" r="31.4575" gradientUnits="userSpaceOnUse">
      <stop offset="0" stop-color="#FFFF99" stop-opacity="1"/>
      <stop offset="1" stop-color="#CC7700" stop-opacity="1"/>
    </radialGradient><radialGradient id="grad_4-.8573749661445618,0,0,0.8573749661445618,-23.15,-48.5" cx="44.711" cy="18.1153" r="32.5672" gradientUnits="userSpaceOnUse">
      <stop offset="0" stop-color="#FFFF99" stop-opacity="1"/>
      <stop offset="1" stop-color="#CC7700" stop-opacity="1"/>
    </radialGradient><radialGradient id="grad_5-.8573749661445618,0,0,0.8573749661445618,-23.15,-48.5" cx="32.7064" cy="17.4691" r="6.0123" gradientUnits="userSpaceOnUse">
      <stop offset="0" stop-color="#FFFF99" stop-opacity="1"/>
      <stop offset="1" stop-color="#CC7700" stop-opacity="1"/>
    </radialGradient><radialGradient id="grad_6-.8573749661445618,0,0,0.8573749661445618,-23.15,-48.5" cx="35.4979" cy="17.4691" r="6.0123" gradientUnits="userSpaceOnUse">
      <stop offset="0" stop-color="#FFFF99" stop-opacity="1"/>
      <stop offset="1" stop-color="#CC7700" stop-opacity="1"/>
    </radialGradient><radialGradient id="grad_7-,0,0,1,-199.5,-166.05" cx="17.0985" cy="17.0495" r="12.872" gradientUnits="userSpaceOnUse">
      <stop offset="0" stop-color="#FF0000" stop-opacity="1"/>
      <stop offset="1" stop-color="#990000" stop-opacity="1"/>
    </radialGradient></defs>
  <!-- Exported by Scratch - http://scratch.mit.edu/ -->
  <g id="ID0.13348541734740138">
    <path id="ID0.8694397993385792" fill="url(#grad_1-.8573749661445618,0,0,0.8573749661445618,-32.4,-48.55)" d="M 64.0744 2.5993 L 70.485 2.5993 L 70.485 4.6758 L 67.1447 4.6758 L 67.1447 7.4743 L 70.485 7.4743 L 70.485 9.8227 L 67.1447 9.8227 L 67.1447 12.6203 L 70.485 12.6203 L 70.485 16.6825 L 64.0744 16.6825 L 64.0744 2.5993 " stroke-width="0.8573749661445618"/>
    <path id="ID0.8694397993385792" fill="url(#grad_2-0.8573749661445618,0,0,0.8573749661445618,176.15,-48.5)" d="M 79.6756 2.6493 L 73.265 2.6493 L 73.265 4.7258 L 76.6053 4.7258 L 76.6053 7.5243 L 73.265 7.5243 L 73.265 9.8727 L 76.6053 9.8727 L 76.6053 12.6703 L 73.265 12.6703 L 73.265 16.7325 L 79.6756 16.7325 L 79.6756 2.6493 " stroke-width="0.8573749661445618"/>
    <path id="ID0.7121701026335359" fill="url(#grad_3-.8573749661445618,0,0,0.8573749661445618,-23.15,-48.5)" d="M 19.5824 22.7093 C 21.7464 22.7093 23.5006 20.9551 23.5006 18.7911 C 23.5006 16.6288 21.7464 14.8746 19.5824 14.8746 C 17.4184 14.8746 15.6642 16.6288 15.6642 18.7911 C 15.6642 20.9551 17.4184 22.7093 19.5824 22.7093 L 19.5824 22.7093 L 19.5824 22.7093 Z M 7.304 22.7093 C 9.468 22.7093 11.2222 20.9551 11.2222 18.7911 C 11.2222 16.6288 9.468 14.8746 7.304 14.8746 C 5.1399 14.8746 3.3858 16.6288 3.3858 18.7911 C 3.3858 20.9551 5.1399 22.7093 7.304 22.7093 L 7.304 22.7093 L 7.304 22.7093 Z M 25.9724 27.6795 C 25.9724 26.6618 25.7427 25.6989 25.3328 24.8399 C 23.8307 26.3025 21.7773 27.2054 19.5121 27.2054 C 17.1423 27.2054 15.004 26.2185 13.4865 24.6332 C 13.0124 25.5446 12.744 26.5803 12.744 27.6821 C 12.744 31.3353 15.7054 34.295 19.3578 34.295 C 23.0119 34.2933 25.9724 31.3328 25.9724 27.6795 L 25.9724 27.6795 L 25.9724 27.6795 Z M 25.4306 12.9746 C 25.7795 12.1696 25.9733 11.2805 25.9733 10.3468 C 25.9733 6.6935 23.0119 3.7321 19.3595 3.7321 C 15.7071 3.7321 12.7457 6.6935 12.7457 10.3468 C 12.7457 11.4391 13.0098 12.4671 13.375 13.2061 C 14.8994 11.5514 17.0849 10.5131 19.5138 10.5131 C 21.8262 10.5131 23.9199 11.4545 25.4306 12.9746 L 25.4306 12.9746 L 25.4306 12.9746 Z M 27.5337 15.8083 C 28.0499 17.4553 28.2308 20.2092 27.5337 22.0542 L 30.7575 18.9643 L 27.5337 15.8083 L 27.5337 15.8083 L 27.5337 15.8083 Z M 9.5794 10.2782 C 9.5794 4.839 13.9889 0.4295 19.4281 0.4295 C 24.8673 0.4295 29.2768 4.839 29.2768 10.2782 C 29.2768 12.2047 33.1058 17.0034 35.0015 19.2609 C 33.0149 20.8865 29.2768 25.6724 29.2768 27.6117 C 29.2768 33.0509 24.8673 37.4596 19.4281 37.4596 C 13.9889 37.4596 9.5794 33.0492 9.5794 27.6117 C 9.5794 26.9473 9.6454 26.2974 9.7715 25.6681 C 9.0007 25.9442 8.1699 26.0951 7.3048 26.0951 C 3.2692 26.0951 -0.0009 22.8259 -0.0009 18.7894 C -0.0009 14.7546 3.2692 11.4837 7.3048 11.4837 C 8.1476 11.4837 8.9578 11.6268 9.7123 11.8892 C 9.6249 11.3671 9.5794 10.8278 9.5794 10.2782 L 9.5794 10.2782 L 9.5794 10.2782 Z " stroke-width="0.8573749661445618"/>
    <path id="ID0.7789692673832178" fill="url(#grad_4-.8573749661445618,0,0,0.8573749661445618,-23.15,-48.5)" d="M 31.1647 15.3341 L 79.735 15.3341 L 79.735 22.7367 L 31.1647 22.7367 L 31.1647 15.3341 L 31.1647 15.3341 Z " stroke-width="0.8573749661445618"/>
    <path id="ID0.578137279022485" fill="url(#grad_5-.8573749661445618,0,0,0.8573749661445618,-23.15,-48.5)" d="M 31.7066 15.5142 C 31.7066 14.8171 32.2321 14.2504 32.8803 14.2504 L 32.8803 14.2504 C 33.5285 14.2504 34.0541 14.8163 34.0541 15.5142 L 34.0541 22.5567 C 34.0541 23.2546 33.5285 23.8213 32.8803 23.8213 L 32.8803 23.8213 C 32.2321 23.8213 31.7066 23.2554 31.7066 22.5567 L 31.7066 15.5142 L 31.7066 15.5142 L 31.7066 15.5142 L 31.7066 15.5142 Z " stroke-width="0.8573749661445618"/>
    <path id="ID0.029240664094686508" fill="url(#grad_6-.8573749661445618,0,0,0.8573749661445618,-23.15,-48.5)" d="M 34.3241 15.5142 C 34.3241 14.8171 34.8497 14.2504 35.4979 14.2504 L 35.4979 14.2504 C 36.1461 14.2504 36.6716 14.8163 36.6716 15.5142 L 36.6716 22.5567 C 36.6716 23.2546 36.1461 23.8213 35.4979 23.8213 L 35.4979 23.8213 C 34.8497 23.8213 34.3241 23.2554 34.3241 22.5567 L 34.3241 15.5142 L 34.3241 15.5142 L 34.3241 15.5142 L 34.3241 15.5142 Z " stroke-width="0.8573749661445618"/>
    <path id="ID0.2235101368278265" fill="url(#grad_7-,0,0,1,-199.5,-166.05)" stroke="none" d="M 19.5 11.45 C 21.569 11.45 23.444 12.29 24.802 13.648 C 26.16 15.006 27 16.881 27 18.95 C 27 21.019 26.16 22.894 24.802 24.252 C 23.444 25.61 21.569 26.45 19.5 26.45 C 17.431 26.45 15.556 25.61 14.198 24.252 C 12.84 22.894 12 21.019 12 18.95 C 12 16.881 12.84 15.006 14.198 13.648 C 15.556 12.29 17.431 11.45 19.5 11.45 Z " stroke-width="1"/>
  </g>
</svg>