<svg xmlns="http://www.w3.org/2000/svg" xmlns:xlink="http://www.w3.org/1999/xlink" version="1.1" width="32.691200256347656" height="32.613698959350586" viewBox="-0.3147999942302704 -0.24329999089241028 32.691200256347656 32.613698959350586">
  <!-- Exported by Scratch - http://scratch.mit.edu/ -->
  <g id="ID0.4172856151126325">
    <path id="ID0.019175943452864885" fill="#B2B2B2" stroke="none" d="M 15.9971 3.7974 C 19.3779 3.7974 22.4414 5.1631 24.6597 7.37 C 26.8777 9.5765 28.251 12.6241 28.251 15.9871 C 28.251 19.3501 26.8777 22.3978 24.6597 24.6043 C 22.4414 26.8112 19.3779 28.1769 15.9971 28.1769 C 12.6163 28.1769 9.5528 26.8112 7.3345 24.6043 C 5.1165 22.3978 3.7432 19.3501 3.7432 15.9871 C 3.7432 12.6241 5.1165 9.5765 7.3345 7.37 C 9.5528 5.1631 12.6163 3.7974 15.9971 3.7974 Z " stroke-width="0.43943180661351683"/>
    <g id="ID0.5704719456844032">
      <path id="ID0.7649938287213445" fill="#CCCCCC" stroke="none" d="M 13.2837 0.2567 L 18.7878 0.2567 L 18.7878 8.1204 L 13.2837 8.1204 L 13.2837 0.2567 Z " stroke-width="0.5601322159465607"/>
      <path id="ID0.7649938287213445" fill="#CCCCCC" stroke="none" d="M 13.2837 24.0067 L 18.7878 24.0067 L 18.7878 31.8704 L 13.2837 31.8704 L 13.2837 24.0067 Z " stroke-width="0.5601322159465607"/>
      <path id="ID0.7649938287213445" fill="#CCCCCC" stroke="none" d="M 0.1852 18.5414 L 0.1852 13.0216 L 8.0264 13.0216 L 8.0264 18.5414 L 0.1852 18.5414 Z " stroke-width="0.559509393876048"/>
      <path id="ID0.7649938287213445" fill="#CCCCCC" stroke="none" d="M 24.0352 18.6914 L 24.0352 13.1716 L 31.8764 13.1716 L 31.8764 18.6914 L 24.0352 18.6914 Z " stroke-width="0.559509393876048"/>
    </g>
    <g id="ID0.5704719456844032">
      <path id="ID0.7649938287213445" fill="#CCCCCC" stroke="none" d="M 25.0952 2.8563 L 28.953 6.7935 L 23.36 12.305 L 19.5023 8.3678 L 25.0952 2.8563 Z " stroke-width="0.5598138491767103"/>
      <path id="ID0.7649938287213445" fill="#CCCCCC" stroke="none" d="M 8.4952 19.5063 L 12.353 23.4435 L 6.76 28.955 L 2.9023 25.0178 L 8.4952 19.5063 Z " stroke-width="0.5598138491767103"/>
      <path id="ID0.7649938287213445" fill="#CCCCCC" stroke="none" d="M 3.0343 6.1708 L 6.9602 2.302 L 12.456 7.9109 L 8.5301 11.7797 L 3.0343 6.1708 Z " stroke-width="0.5598247801995148"/>
      <path id="ID0.7649938287213445" fill="#CCCCCC" stroke="none" d="M 19.6843 23.4208 L 23.6102 19.552 L 29.106 25.1609 L 25.1801 29.0297 L 19.6843 23.4208 Z " stroke-width="0.5598247801995148"/>
    </g>
    <path id="ID0.019175943452864885" fill="#7F7F7F" stroke="none" d="M 16.1767 11.7376 C 17.2954 11.7376 18.309 12.1895 19.043 12.9197 C 19.7769 13.6498 20.2313 14.6582 20.2313 15.7709 C 20.2313 16.8837 19.7769 17.8921 19.043 18.6222 C 18.309 19.3524 17.2954 19.8043 16.1767 19.8043 C 15.0581 19.8043 14.0445 19.3524 13.3104 18.6222 C 12.5766 17.8921 12.1222 16.8837 12.1222 15.7709 C 12.1222 14.6582 12.5766 13.6498 13.3104 12.9197 C 14.0445 12.1895 15.0581 11.7376 16.1767 11.7376 Z " stroke-width="0.14539914332292914"/>
  </g>
</svg>