<svg version="1.1" xmlns="http://www.w3.org/2000/svg" xmlns:xlink="http://www.w3.org/1999/xlink" width="189.9" height="135.747" viewBox="0,0,189.9,135.747"><g transform="translate(-149.298,-100.502)"><g data-paper-data="{&quot;isPaintingLayer&quot;:true}" fill-rule="nonzero" stroke="none" stroke-linecap="butt" stroke-linejoin="miter" stroke-miterlimit="10" stroke-dasharray="" stroke-dashoffset="0" style="mix-blend-mode: normal"><g stroke-width="1"><g fill="#9598a2"><path d="M202.821,100.502h31.464z"/></g><g fill="#bdbec2"><path d="M230.285,150.502l4,4h-31.464l4,-4h23.464"/></g><g fill="#b6b8bd"><path d="M206.821,150.502l-4,4v-54l4,4v46"/></g><g fill="#9598a2"><path d="M206.821,104.502l-4,-4h31.464l-4,4h-23.464"/></g><g fill="#9598a2"><path d="M230.285,104.502l4,-4v54l-4,-4v-46"/></g><g fill="#9ea0a9"><path d="M206.821,104.502h23.464v46h-23.464z"/></g></g><g stroke-width="1"><g fill="#9598a2"><path d="M283.2,131.876l10.377,2.502z"/></g><g fill="#9598a2"><path d="M283.2,116.504h-24.246z"/></g><g fill="#9598a2"><path d="M289.577,137.528l4,-3.15v20.124l-4,-4v-12.974"/></g><g fill="#bdbec2"><path d="M289.577,150.502l4,4h-34.623l4,-4h26.623"/></g><g fill="#b6b8bd"><path d="M262.954,150.502l-4,4v-37.998l4,4v29.998"/></g><g fill="#9598a2"><path d="M262.954,120.504l-4,-4h24.246l-4,4h-16.246"/></g><g fill="#9598a2"><path d="M279.2,135.026l4,-3.15l10.377,2.502l-4,3.15l-10.377,-2.502"/></g><g fill="#9598a2"><path d="M279.2,120.504l4,-4v15.372l-4,3.15v-14.522"/></g><g fill="#9ea0a9"><path d="M279.2,120.504v14.522l10.377,2.502v12.974h-26.623v-29.998h16.246"/></g></g><g stroke-width="1"><g><g><path d="M299.319,214.985v-4c6.975,0 12.627,5.661 12.627,12.636c0,4.215 -2.063,7.946 -5.235,10.24l-2.343,-3.244c2.167,-1.567 3.579,-4.118 3.578,-6.996c0.003,-4.763 -3.868,-8.639 -8.627,-8.636" fill="#9d9fa8"/><path d="M304.368,230.617l2.343,3.244c-0.633,0.457 -1.31,0.857 -2.023,1.193l-1.702,-3.621c0.487,-0.229 0.95,-0.502 1.382,-0.816" fill="#a5a7af"/><path d="M302.986,231.434l1.702,3.621c-0.58,0.272 -1.183,0.502 -1.807,0.686l-1.129,-3.839c0.426,-0.126 0.838,-0.282 1.234,-0.468" fill="#adafb5"/><path d="M301.751,231.901l1.129,3.839c-0.566,0.166 -1.149,0.293 -1.746,0.379l-0.576,-3.958c0.408,-0.058 0.807,-0.145 1.193,-0.26" fill="#b5b7bc"/><path d="M300.559,232.161l0.576,3.958c-0.581,0.084 -1.175,0.128 -1.779,0.13l-0.012,-4c0.412,-0.001 0.818,-0.031 1.215,-0.088" fill="#bdbfc2"/><path d="M299.344,232.249l0.012,4c-0.012,0 -0.024,0 -0.036,0c-0.627,0 -1.243,-0.046 -1.845,-0.134l0.585,-3.957c0.411,0.06 0.832,0.091 1.26,0.091c0.007,0 0.016,0 0.024,0" fill="#c6c6c9"/><path d="M298.059,232.158l-0.585,3.957c-0.712,-0.104 -1.406,-0.268 -2.074,-0.486l1.243,-3.803c0.456,0.15 0.93,0.261 1.416,0.332" fill="#cececf"/><path d="M296.643,231.826l-1.243,3.803c-1.107,-0.36 -2.146,-0.87 -3.095,-1.505l2.223,-3.327c0.648,0.434 1.359,0.782 2.115,1.029" fill="#d6d6d6"/><path d="M294.528,230.797l-2.223,3.327c-0.944,-0.632 -1.798,-1.388 -2.539,-2.244l3.027,-2.616c0.506,0.585 1.09,1.101 1.735,1.533" fill="#e2e2e2"/><path d="M292.793,229.264l-3.027,2.616c-0.74,-0.854 -1.366,-1.81 -1.857,-2.843l3.614,-1.717c0.336,0.706 0.764,1.359 1.27,1.944" fill="#d6d6d6"/><path d="M291.523,227.32l-3.614,1.717c-0.304,-0.64 -0.556,-1.309 -0.75,-2.002l3.852,-1.083c0.132,0.474 0.304,0.932 0.512,1.368" fill="#cececf"/><path d="M291.011,225.952l-3.852,1.083c-0.166,-0.591 -0.289,-1.198 -0.367,-1.819l3.968,-0.506c0.053,0.425 0.137,0.84 0.251,1.242" fill="#c6c6c9"/><path d="M290.76,224.71l-3.968,0.506c-0.066,-0.522 -0.1,-1.055 -0.1,-1.595c0,-0.065 0,-0.132 0.001,-0.197l4,0.063c0,0.045 -0.001,0.09 -0.001,0.135c0,0.368 0.023,0.732 0.068,1.088" fill="#bdbfc2"/><path d="M290.693,223.486l-4,-0.063c0.009,-0.611 0.062,-1.213 0.156,-1.801l3.95,0.634c-0.064,0.402 -0.099,0.812 -0.106,1.23" fill="#b5b7bc"/><path d="M290.799,222.257l-3.95,-0.634c0.102,-0.645 0.253,-1.272 0.449,-1.881l3.808,1.229c-0.134,0.416 -0.237,0.845 -0.307,1.286" fill="#adafb5"/><path d="M291.106,220.972l-3.808,-1.229c0.243,-0.756 0.556,-1.48 0.93,-2.166l3.513,1.915c-0.255,0.468 -0.469,0.963 -0.635,1.48" fill="#a5a7af"/><path d="M291.742,219.491l-3.513,-1.915c2.142,-3.926 6.305,-6.591 11.09,-6.591v4c-3.265,-0.002 -6.112,1.823 -7.577,4.506" fill="#9d9fa8"/></g></g><g fill="#9ea0a9"><path d="M299.319,214.985c4.759,-0.003 8.629,3.873 8.627,8.636c0.002,4.763 -3.865,8.63 -8.627,8.628c-4.762,0.002 -8.629,-3.865 -8.627,-8.628c-0.002,-4.763 3.868,-8.639 8.627,-8.636z"/></g></g><g stroke-width="1"><g fill="#9598a2"><path d="M281.949,179.252h-22.995z"/></g><g fill="#bdbec2"><path d="M277.949,193.746l4,4h-22.995l4,-4h14.995"/></g><g fill="#b6b8bd"><path d="M262.954,193.746l-4,4v-18.494l4,4v10.494"/></g><g fill="#9598a2"><path d="M262.954,183.252l-4,-4h22.995l-4,4h-14.995"/></g><g fill="#9598a2"><path d="M277.949,183.252l4,-4v18.494l-4,-4v-10.494"/></g><g fill="#9ea0a9"><path d="M262.954,183.252h14.995v10.494h-14.995z"/></g></g><g stroke-width="1"><g fill="#9598a2"><path d="M298.698,135.503h18.999z"/></g><g fill="#bdbec2"><path d="M313.697,150.502l4,4h-18.999l4,-4h10.999"/></g><g fill="#b6b8bd"><path d="M302.698,150.502l-4,4v-18.999l4,4v10.999"/></g><g fill="#9598a2"><path d="M302.698,139.503l-4,-4h18.999l-4,4h-10.999"/></g><g fill="#9598a2"><path d="M313.697,139.503l4,-4v18.999l-4,-4v-10.999"/></g><g fill="#9ea0a9"><path d="M302.698,139.503h10.999v10.999h-10.999z"/></g></g><g stroke-width="1"><g fill="#9598a2"><path d="M321.702,144.997h17.496z"/></g><g fill="#bdbec2"><path d="M335.198,150.502l4,4h-17.496l4,-4h9.496"/></g><g fill="#b6b8bd"><path d="M325.702,150.502l-4,4v-9.505l4,4v1.505"/></g><g fill="#9598a2"><path d="M325.702,148.997l-4,-4h17.496l-4,4h-9.496"/></g><g fill="#9598a2"><path d="M335.198,148.997l4,-4v9.505l-4,-4v-1.505"/></g><g fill="#9ea0a9"><path d="M325.702,148.997h9.496v1.505h-9.496z"/></g></g><g stroke-width="1"><g fill="#9598a2"><path d="M198.951,179.206h5.499z"/></g><g fill="#9598a2"><path d="M186.954,179.206h11.997z"/></g><g fill="#9598a2"><path d="M194.951,184.711l4,4v4.535l-4,-4v-4.535"/></g><g fill="#bdbec2"><path d="M194.951,189.246l4,4h-11.997l4,-4h3.997"/></g><g fill="#9598a2"><path d="M200.45,183.206l4,-4v9.505l-4,-4v-1.505"/></g><g fill="#b6b8bd"><path d="M190.954,188.711h-4v-9.505l4,4v5.505"/></g><g fill="#9598a2"><path d="M190.954,183.206l-4,-4h11.997v4h-7.997"/></g><g fill="#9598a2"><path d="M198.951,183.206v-4h5.499l-4,4h-1.499"/></g><g fill="#b6b8bd"><path d="M190.954,189.246l-4,4v-4.535h4v0.535"/></g><g fill="#bdbec2"><path d="M200.45,184.711l4,4h-5.499l-4,-4h5.499"/></g><g fill="#9ea0a9"><path d="M200.45,183.206v1.505h-5.499v4.535h-3.997v-0.535v-5.505h7.997h1.499"/></g></g><g stroke-width="1"><g fill="#9598a2"><path d="M286.197,179.252h31.194z"/></g><g fill="#bdbec2"><path d="M311.737,190.497l3.467,4h-29.007l4,-4h21.54"/></g><g fill="#b6b8bd"><path d="M290.197,190.497l-4,4v-15.245l4,4v7.245"/></g><g fill="#9598a2"><path d="M290.197,183.252l-4,-4h31.194l-4.615,4h-22.579"/></g><g fill="#9598a2"><path d="M312.776,183.252l4.615,-4l-2.187,15.245l-3.467,-4l1.039,-7.245"/></g><g fill="#9ea0a9"><path d="M312.776,183.252l-1.039,7.245h-21.54v-7.245h22.579"/></g></g><g stroke-width="1"><g fill="#9598a2"><path d="M258.954,202.499h16.245z"/></g><g fill="#bdbec2"><path d="M271.199,216.48l4,4h-16.245l4,-4h8.245"/></g><g fill="#b6b8bd"><path d="M262.954,216.48l-4,4v-17.981l4,4v9.981"/></g><g fill="#9598a2"><path d="M262.954,206.499l-4,-4h16.245l-4,4h-8.245"/></g><g fill="#9598a2"><path d="M271.199,206.499l4,-4v17.981l-4,-4v-9.981"/></g><g fill="#9ea0a9"><path d="M262.954,206.499h8.245v9.981h-8.245z"/></g></g><g stroke-width="1"><g fill="#9598a2"><path d="M269.583,225.881l6.21,0.585z"/></g><g fill="#9598a2"><path d="M269.583,224h-10.629z"/></g><g fill="#9598a2"><path d="M271.438,230.073l4.355,-3.607l-0.828,8.864l-3.611,-4.351l0.084,-0.906"/></g><g fill="#c1c2c5"><path d="M271.354,230.979l3.611,4.351l-16.011,-1.484l4,-3.647l8.4,0.78"/></g><g fill="#b6b8bd"><path d="M262.954,230.199l-4,3.647v-9.846l4,4v2.199"/></g><g fill="#9598a2"><path d="M262.954,228l-4,-4h10.629l-4,4h-2.629"/></g><g fill="#9598a2"><path d="M265.583,229.521l4,-3.64l6.21,0.585l-4.355,3.607l-5.855,-0.552"/></g><g fill="#9598a2"><path d="M265.583,228l4,-4v1.881l-4,3.64v-1.521"/></g><g fill="#9ea0a9"><path d="M265.583,228v1.521l5.855,0.552l-0.084,0.906l-8.4,-0.78v-2.199h2.629"/></g></g><g stroke-width="1"><g fill="#9598a2"><path d="M226.788,179.252l7.497,7.497z"/></g><g fill="#9598a2"><path d="M208.779,179.252h18.009z"/></g><g fill="#bdbec2"><path d="M230.285,200.083l4,4h-25.506l4,-4h17.506"/></g><g fill="#b6b8bd"><path d="M212.779,200.083l-4,4v-24.831l4,4v16.831"/></g><g fill="#9598a2"><path d="M212.779,183.252l-4,-4h18.009l-1.657,4h-12.352"/></g><g fill="#9598a2"><path d="M230.285,188.406l4,-1.657v17.334l-4,-4v-11.677"/></g><g fill="#9598a2"><path d="M225.131,183.252l1.657,-4l7.497,7.497l-4,1.657l-5.154,-5.154"/></g><g fill="#9ea0a9"><path d="M225.131,183.252l5.154,5.154v11.677h-17.506v-16.831h12.352"/></g></g><g><g fill="#9ea0a9" stroke-width="1"><path d="M177.0247,221.8114l0.934,-9.7042l0.1702,0.0164l-0.934,9.7042z"/></g><g fill="#c1c2c5" stroke-width="1"><path d="M174.516,207.8l7.794,0.747l-4.365,3.599l0.17,0.017l-3.599,-4.363"/></g><g fill="#9598a2" stroke-width="1"><path d="M180.609,226.214l-7.794,-0.747l4.365,-3.6l-0.169,-0.016l3.598,4.363"/></g><g fill="#9598a2" stroke-width="1"><path d="M182.31,208.547l-7.794,-0.747z"/></g><g fill="#a8aab1" stroke-width="1"><path d="M174.516,207.8l-1.701,17.667z"/></g><g fill="#9598a2" stroke-width="1"><path d="M177.945,212.146l4.365,-3.599l-1.701,17.667l-3.598,-4.363l0.934,-9.705"/></g><g fill="#b1b3b9" stroke-width="1"><path d="M177.18,221.867l-4.365,3.6l1.701,-17.667l3.599,4.363l-0.935,9.704"/></g><g fill="#9598a2" stroke-width="1"><path d="M178.115,212.163l-3.599,-4.363l7.794,0.747l-4.365,3.599l0.17,0.017"/></g><g fill="#c1c2c5" stroke-width="1"><path d="M177.011,221.851l3.598,4.363l-7.794,-0.747l4.365,-3.6l-0.169,-0.016"/></g></g><g><g fill="#9ea0a9" stroke-width="1"><path d="M165.3244,220.7081l0.934,-9.7041l0.1612,0.0155l-0.9339,9.7041z"/></g><g fill="#c1c2c5" stroke-width="1"><path d="M162.753,206.665l7.803,0.747l-4.365,3.601l0.16,0.015l-3.598,-4.363"/></g><g fill="#9598a2" stroke-width="1"><path d="M168.855,225.079l-7.803,-0.746l4.365,-3.601l-0.161,-0.015l3.599,4.362"/></g><g fill="#9598a2" stroke-width="1"><path d="M170.556,207.412l-7.803,-0.747z"/></g><g fill="#a8aab1" stroke-width="1"><path d="M161.052,224.333l1.701,-17.668z"/></g><g fill="#b1b3b9" stroke-width="1"><path d="M165.417,220.732l-4.365,3.601l1.701,-17.668l3.598,4.363l-0.934,9.704"/></g><g fill="#9598a2" stroke-width="1"><path d="M166.191,211.013l4.365,-3.601l-1.701,17.667l-3.599,-4.362l0.935,-9.704"/></g><g fill="#9598a2" stroke-width="1"><path d="M166.351,211.028l-3.598,-4.363l7.803,0.747l-4.365,3.601l0.16,0.015"/></g><g fill="#c1c2c5" stroke-width="1"><path d="M165.256,220.717l3.599,4.362l-7.803,-0.746l4.365,-3.601l-0.161,-0.015"/></g></g><g><g fill="#9ea0a9" stroke-width="1"><path d="M153.5732,219.5538l0.9339,-9.7042l0.1702,0.0164l-0.9339,9.7042z"/></g><g fill="#c1c2c5" stroke-width="1"><path d="M150.999,205.54l7.794,0.747l-4.365,3.6l0.169,0.016l-3.598,-4.363"/></g><g fill="#9598a2" stroke-width="1"><path d="M157.092,223.954l-7.794,-0.746l4.365,-3.601l-0.17,-0.016l3.599,4.363"/></g><g fill="#9598a2" stroke-width="1"><path d="M150.999,205.54l7.794,0.747z"/></g><g fill="#a8aab1" stroke-width="1"><path d="M150.999,205.54l-1.701,17.668z"/></g><g fill="#9598a2" stroke-width="1"><path d="M154.428,209.887l4.365,-3.6l-1.701,17.667l-3.599,-4.363l0.935,-9.704"/></g><g fill="#b1b3b9" stroke-width="1"><path d="M153.663,219.607l-4.365,3.601l1.701,-17.668l3.598,4.363l-0.934,9.704"/></g><g fill="#9598a2" stroke-width="1"><path d="M154.597,209.903l-3.598,-4.363l7.794,0.747l-4.365,3.6l0.169,0.016"/></g><g fill="#c1c2c5" stroke-width="1"><path d="M153.493,219.591l3.599,4.363l-7.794,-0.746l4.365,-3.601l-0.17,-0.016"/></g></g><g stroke-width="1"><g fill="#9598a2"><path d="M214.701,213.496v-5.696l4,4v-2.304l-4,4"/></g><g fill="#b6b8bd"><path d="M234.285,223.954v4.959l-4,-4v3.041l4,-4"/></g><g fill="#b6b8bd"><path d="M234.285,207.8v5.696l-4,-4v2.304l4,-4"/></g><g fill="#9598a2"><path d="M214.701,228.913v-4.959l4,4v-3.041l-4,4"/></g><g fill="#9598a2"><path d="M214.701,207.8h19.584z"/></g><g fill="#9598a2"><path d="M232.953,223.954h1.332z"/></g><g fill="#9598a2"><path d="M216.204,223.954h-1.503z"/></g><g fill="#9598a2"><path d="M218.701,227.954l-4,-4h1.503l4,4h-1.503"/></g><g fill="#9598a2"><path d="M228.953,209.496l4,4v10.458l-4,4v-18.458"/></g><g fill="#9598a2"><path d="M228.953,227.954l4,-4h1.332l-4,4h-1.332"/></g><g fill="#b6b8bd"><path d="M220.204,227.954l-4,-4v-10.458l4,-4v18.458"/></g><g fill="#bdbec2"><path d="M230.285,224.913l4,4h-19.584l4,-4h11.584"/></g><g fill="#bdbec2"><path d="M220.204,209.496l-4,4h-1.503l4,-4h1.503"/></g><g fill="#bdbec2"><path d="M230.285,209.496l4,4h-1.332l-4,-4h1.332"/></g><g fill="#9598a2"><path d="M218.701,211.8l-4,-4h19.584l-4,4h-11.584"/></g><g fill="#b6b8bd"><path d="M218.701,209.496l-4,4v-5.696l4,4v-2.304"/></g><g fill="#9598a2"><path d="M230.285,227.954l4,-4v4.959l-4,-4v3.041"/></g><g fill="#b6b8bd"><path d="M218.701,224.913l-4,4v-4.959l4,4v-3.041"/></g><g fill="#9598a2"><path d="M230.285,211.8l4,-4v5.696l-4,-4v2.304"/></g><g fill="#9ea0a9"><path d="M230.285,211.8v-2.304h-1.332v18.458h1.332v-3.041h-11.584v3.041h1.503v-18.458h-1.503v2.304h11.584"/></g></g><g><g fill="#9598a2" stroke-width="1"><path d="M201.444,215.333l-15.822,-1.287z"/></g><g fill="#a9abb2" stroke-width="1"><path d="M185.622,214.045l-1.071,13.104z"/></g><g fill="#c1c2c5" stroke-width="1"><path d="M196.712,224.132l3.661,4.313l-15.822,-1.296l4.313,-3.66l7.848,0.643"/></g><g fill="#b2b3b9" stroke-width="1"><path d="M188.864,223.489l-4.313,3.66l1.071,-13.103l3.661,4.31l-0.419,5.133"/></g><g fill="#9598a2" stroke-width="1"><path d="M197.132,218.995l4.312,-3.662l-1.071,13.112l-3.661,-4.313l0.42,-5.137"/></g><g fill="#9598a2" stroke-width="1"><path d="M189.283,218.356l-3.661,-4.31l15.822,1.287l-4.312,3.662l-7.849,-0.639"/></g><g fill="#9ea0a9" stroke-width="0.99999"><path d="M196.676,224.1075l-7.849,-0.6387l0.418,-5.1369l7.849,0.6386z"/></g></g><g stroke-width="1"><g fill="#9598a2"><path d="M163.203,179.252h19.107z"/></g><g fill="#bdbec2"><path d="M178.31,193.746l4,4h-19.107l4,-4h11.107"/></g><g fill="#b6b8bd"><path d="M167.203,193.746l-4,4v-18.494l4,4v10.494"/></g><g fill="#9598a2"><path d="M167.203,183.252l-4,-4h19.107l-4,4h-11.107"/></g><g fill="#9598a2"><path d="M178.31,183.252l4,-4v18.494l-4,-4v-10.494"/></g><g fill="#9ea0a9"><path d="M167.203,183.252h11.107v10.494h-11.107z"/></g></g></g></g></svg>