<svg version="1.1" xmlns="http://www.w3.org/2000/svg" xmlns:xlink="http://www.w3.org/1999/xlink" width="20.48" height="27.23"><g transform="translate(-229.9,-153.23)"><g data-paper-data="{&quot;isPaintingLayer&quot;:true}" fill="none" fill-rule="nonzero" stroke="none" stroke-width="1" stroke-linecap="butt" stroke-linejoin="miter" stroke-miterlimit="10" stroke-dasharray="" stroke-dashoffset="0" font-family="none" font-weight="none" font-size="none" text-anchor="none" style="mix-blend-mode: normal"><path d="M238.63,180.46c-2.89,0 -5.02,-0.72 -6.65,-2.25c-1.3,-0.65 -2.08,-1.92 -2.08,-3.48c0,-1.43 0.5,-2.6 1.36,-3.39c-0.57,-0.65 -0.92,-1.5 -0.92,-2.43c0,-0.63 0.15,-1.17 0.28,-1.66c0.09,-0.33 0.18,-0.64 0.2,-0.92c0.21,-2.07 0.27,-5.16 0.27,-5.53c0,-1.7 1.15,-3.46 3.73,-3.57l8.25,-0.57c0.65,-0.29 1.29,-0.43 1.89,-0.43c2.34,0 4.1,1.8 4.1,4.18c0,1.41 -0.56,2.57 -1.51,3.3c1.66,1.21 2.83,3.13 2.83,5.99c-0.01,7.43 -6.87,10.76 -11.75,10.76z" data-paper-data="{&quot;origPos&quot;:null}" fill="#000000" opacity="0.35"/><path d="M237.82,172.72c-0.15,-0.39 -0.35,-0.74 -0.6,-1.03c0.21,-0.15 0.42,-0.31 0.62,-0.46c1.03,-0.78 1.91,-1.45 3.65,-1.45c0.35,0 0.56,0.04 0.65,0.08c0.01,0.04 0.02,0.12 0.02,0.25c0,1.43 -1.74,2.65 -3.81,2.65c-0.21,0 -0.39,-0.02 -0.53,-0.04z" data-paper-data="{&quot;origPos&quot;:null}" fill="#000000" opacity="0.35"/><path d="M231.98,175.21c-1.3,-0.65 -2.08,-1.92 -2.08,-3.48c0,-1.43 0.5,-2.6 1.36,-3.39c-0.57,-0.65 -0.92,-1.5 -0.92,-2.43c0,-0.63 0.15,-1.17 0.28,-1.66c0.09,-0.34 0.18,-0.65 0.2,-0.92c0.21,-2.07 0.27,-5.16 0.27,-5.53c0,-1.7 1.15,-3.46 3.73,-3.57l8.25,-0.57c0.65,-0.29 1.29,-0.43 1.89,-0.43c2.34,0 4.1,1.8 4.1,4.18c0,1.41 -0.56,2.57 -1.51,3.3c1.66,1.21 2.83,3.13 2.83,5.99c-0.01,7.43 -6.87,10.76 -11.75,10.76c-2.89,0 -5.02,-0.72 -6.65,-2.25zM238.35,169.76c2.07,0 3.81,-1.22 3.81,-2.65c0,-0.13 -0.01,-0.21 -0.02,-0.25c-0.09,-0.04 -0.3,-0.08 -0.65,-0.08c-1.74,0 -2.62,0.67 -3.65,1.45c-0.2,0.15 -0.41,0.31 -0.62,0.46c0.25,0.29 0.45,0.64 0.6,1.03c0.14,0.02 0.32,0.04 0.53,0.04z" data-paper-data="{&quot;origPos&quot;:null}" fill="#ffffff"/><path d="M238.63,174.96c-2.42,0 -4.04,-0.58 -5.24,-1.87c-0.65,-0.18 -1,-0.65 -1,-1.35c0,-1.28 0.59,-1.93 1.77,-1.93c0.65,0 1.44,0.26 1.44,1.52c0.04,0.18 0.87,0.94 2.76,0.94c3.48,0 6.31,-2.31 6.31,-5.15c0,-1.83 -1.13,-2.84 -3.17,-2.84v0c-2.58,0 -4.01,1.09 -5.16,1.96c-0.73,0.55 -1.3,0.99 -1.95,0.99c-0.9,0 -1.55,-0.55 -1.55,-1.3c0,-0.29 0.09,-0.63 0.19,-1.01c0.11,-0.4 0.23,-0.86 0.28,-1.36c0.22,-2.15 0.27,-5.34 0.27,-5.74c0,-0.46 0.23,-1.03 1.34,-1.08l8.79,-0.6c0.46,-0.25 0.9,-0.39 1.23,-0.39c0.97,0 1.6,0.66 1.6,1.68c0,1.05 -0.56,1.63 -1.57,1.63c-0.29,0 -0.56,-0.08 -0.81,-0.24l-7.63,0.53c-0.03,0.72 -0.16,2.71 -0.32,3.95c2.62,-1.73 4.52,-1.73 5.68,-1.73c1.4,0 5.99,0.37 5.99,5.16c-0.01,5.67 -5.41,8.23 -9.25,8.23z" data-paper-data="{&quot;origPos&quot;:null}" fill="#f7931e"/></g></g></svg>