<svg xmlns="http://www.w3.org/2000/svg" xmlns:xlink="http://www.w3.org/1999/xlink" version="1.1" width="10.083841323852539" height="10.075721740722656" viewBox="1.754579782485962 1.5554389953613281 10.083841323852539 10.075721740722656">
  <!-- Exported by Scratch - http://scratch.mit.edu/ -->
  <g id="ID0.4913200307637453">
    <path id="ID0.7366980100050569" fill="#CCD8FF" stroke="#000000" stroke-width="0.1450197552099701" stroke-linecap="round" d="M 9.7065 3.1225 C 10.669 3.9295 11.215 5.0496 11.3198 6.2075 C 11.4246 7.3653 11.088 8.5607 10.2851 9.5183 C 9.4823 10.4758 8.3639 11.0158 7.2056 11.1146 C 6.0472 11.2134 4.849 10.871 3.8865 10.0641 C 2.924 9.2571 2.378 8.137 2.2732 6.9792 C 2.1684 5.8213 2.505 4.6259 3.3079 3.6683 C 4.1107 2.7108 5.2291 2.1708 6.3875 2.072 C 7.5458 1.9732 8.744 2.3156 9.7065 3.1225 Z "/>
    <path id="ID0.3161723455414176" fill="#FF0000" stroke="#000000" stroke-width="0.18181774211332383" stroke-linecap="round" d="M 6.3568 7.1866 L 2.846 8.0033 L 9.5255 3.3216 L 6.2221 10.7751 L 6.3568 7.1866 Z "/>
  </g>
</svg>