<svg version="1.1" xmlns="http://www.w3.org/2000/svg" xmlns:xlink="http://www.w3.org/1999/xlink" width="606.99999" height="434" viewBox="0,0,606.99999,434"><g transform="translate(8.48436,22.5)"><g data-paper-data="{&quot;isPaintingLayer&quot;:true}" fill="none" fill-rule="nonzero" stroke="#000000" stroke-width="10" stroke-linecap="round" stroke-linejoin="miter" stroke-miterlimit="10" stroke-dasharray="" stroke-dashoffset="0" style="mix-blend-mode: normal"><path d="M-0.48432,178.5l489,-1"/><path d="M-3.48433,130.5h527"/><path d="M530.51566,77.5l-36.43657,-0.06849"/><path d="M0.51563,80.5h593"/><path d="M-1.48434,31.5h521"/><path d="M-3.48434,229.5h557"/><path d="M548.51566,281.5l-549,-3"/><path d="M-3.48435,327.5l561,2"/><path d="M40.51565,384.5l-1,-386"/><path d="M240.51565,-10.5l1,400"/><path d="M138.51565,3.5l2,379"/><path d="M89.51564,384.5l-3,-390"/><path d="M187.51564,-7.5l3,413"/><path d="M288.51563,-7.5l3,380"/><path d="M337.51564,-12.5l5,409"/><path d="M392.51564,382.5l-5,-400"/><path d="M442.51563,406.5l-6,-419"/></g></g></svg>