<svg id="Logo" xmlns="http://www.w3.org/2000/svg" viewBox="0 0 651.24 176.1"><defs><style>.cls-1{fill:#00aeef;}.cls-1,.cls-2{fill-rule:evenodd;}.cls-2{fill:#1f3674;}.cls-3{fill:#2aace2;}.cls-4{fill:#253873;}</style></defs><title>acl-logo</title><path class="cls-1" d="M88.09,176.09h9.63L138.31,0h36.07A49.81,49.81,0,0,1,185.7.91a22.4,22.4,0,0,1,8.42,4.26,22.13,22.13,0,0,1,5.51,7.47A38.91,38.91,0,0,1,202.7,25q.42,4.89.47,20.19c0,5.91.23,10.82.57,14.72L149,31.65V52.59l72.78,36.53-72.78,37v20.94l54.74-28.71q-.39,5.67-.43,13.82-.09,16.49-1.25,23.72a24.25,24.25,0,0,1-5,11.92,21.77,21.77,0,0,1-9.69,6.82c-2.69,1-7.05,1.47-13,1.47H88.09Z"/><path class="cls-2" d="M18.28,59.91q.52-5.85.58-14.72,0-15.32.47-20.19A38.38,38.38,0,0,1,22.4,12.64a22,22,0,0,1,5.5-7.47A22.4,22.4,0,0,1,36.32.91,48,48,0,0,1,47.1,0h77.39L83.91,176.09H47.61c-6,0-10.32-.5-13-1.47a21.8,21.8,0,0,1-9.7-6.82,24.34,24.34,0,0,1-5-11.92q-1.17-7.23-1.25-23.72,0-8.14-.43-13.82L73,147.06V126.12l-73-37L73,52.59V31.65L18.28,59.91Z"/><path class="cls-3" d="M265.8,87.88H244V160h49.22V141H265.8ZM298.62,160h54.74V141H320.47v-7.9H352.6v-19H320.47v-7.14h32.89v-19H298.62Zm83.61-72.16L355.62,160h24.77l2.6-8.44h26l2.59,8.44h24.78L409.71,87.88Zm6.6,44.68L396,109.3l7.14,23.26Zm81.33,3.68h13.41v2.6c-2.27,1.73-7.14,3.24-11.25,3.24-10.49,0-17.53-8-17.53-18.07s7-18.06,17.53-18.06c6.49,0,11.25,4.54,13.31,9L504,105.52c-4.55-9.31-14.5-18.83-31.7-18.83-21.85,0-39.7,14.17-39.7,37.32s17.85,37.33,39.7,37.33a42.83,42.83,0,0,0,33-14.61V117.2H470.16Zm93-6.6c0,6.92-4.54,12.44-13.41,12.44s-13.53-5.52-13.53-12.44V87.88H514.09V130.4c0,17.85,11.36,30.94,35.7,30.94s35.59-13.09,35.59-31.05V87.88H563.2Zm88-22.72v-19H596.5V160h54.74V141H618.35v-7.9h32.13v-19H618.35v-7.14Z"/><path class="cls-4" d="M262.67,15.65,243.43,67.82h17.91l1.88-6.1H282l1.87,6.1h17.91L282.53,15.65ZM267.44,48l5.16-16.81L277.76,48Zm36.83,19.87h15.8V15.65h-15.8Zm70.07-39.11a11.07,11.07,0,0,1,10.09,7.59L398,30c-3.12-7.2-10-15.18-23.69-15.18-16.35,0-28.7,10.87-28.7,27s12.35,27,28.7,27C388,68.75,395,60.46,398,53.5l-13.6-6.25a11.06,11.06,0,0,1-10.09,7.58c-7.59,0-12.67-5.78-12.67-13.06S366.75,28.71,374.34,28.71Zm53.34-13.92c-16.11,0-28.54,11-28.54,27s12.43,27,28.54,27,28.55-10.94,28.55-27S443.79,14.79,427.68,14.79Zm0,40c-7.58,0-12.51-5.78-12.51-13.06s4.93-13.06,12.51-13.06,12.51,5.79,12.51,13.06S435.27,54.83,427.68,54.83Zm57.26-39.18h-23.3V67.82H485c16.35,0,28.55-9.47,28.55-26.12S501.37,15.65,484.94,15.65Zm0,38.4h-7.5V29.42H485c8.45,0,12.51,5.24,12.51,12.28C497.53,48.27,492.84,54.05,484.94,54.05ZM519.1,67.82h15.79V15.65H519.1Zm58.42-27.45L559.38,15.65H543.11V67.82h15.8V41.38l19.24,26.44h15.17V15.65h-15.8Zm48.3-3.52V50.61h9.7v1.88a15.4,15.4,0,0,1-8.13,2.34c-7.59,0-12.67-5.78-12.67-13.06s5.08-13.06,12.67-13.06a10.9,10.9,0,0,1,9.62,6.5L650.3,28.4c-3.28-6.72-10.48-13.61-22.91-13.61-15.8,0-28.7,10.25-28.7,27s12.9,27,28.7,27A31,31,0,0,0,651.24,58.2V36.85Z"/></svg>