<?xml version="1.0" encoding="utf-8"?>
<!-- Generator: Adobe Illustrator 20.1.0, SVG Export Plug-In . SVG Version: 6.00 Build 0)  -->
<svg version="1.1" id="Layer_1" xmlns="http://www.w3.org/2000/svg" xmlns:xlink="http://www.w3.org/1999/xlink" x="0px" y="0px"
	 viewBox="0 0 77.7 97.7" style="enable-background:new 0 0 77.7 97.7;" xml:space="preserve">
<style type="text/css">
	.st0{fill:#E7E4E4;}
</style>
<g>
	<path class="st0" d="M41.3,79.8v-4.2h-5.1v4.2c0.8-0.3,1.7-0.4,2.6-0.4S40.5,79.5,41.3,79.8z"/>
	<path class="st0" d="M67.6,74.6v-7.3c0-4.1-3.4-7.5-7.5-7.5h-7.2c-2.7-4.2-7.5-7.1-13-7.1h-2.3c-5.4,0-10.2,2.8-13,7.1h-7.2
		c-4.1,0-7.5,3.4-7.5,7.5v7.3c-3.5,1.1-6.2,4.4-6.2,8.3c0,2.9,1.5,5.6,4,7.3l2.8-4.3c-1.1-0.7-1.6-1.8-1.6-3c0-2,1.6-3.6,3.6-3.6
		s3.6,1.6,3.6,3.6c0,1.2-0.6,2.3-1.6,3l2.8,4.3c2.5-1.6,4-4.3,4-7.3c0-3.9-2.6-7.2-6.2-8.3v-7.3c0-1.3,1.1-2.4,2.4-2.4h5.1
		c-0.3,1.1-0.4,2.1-0.4,3.2v5.4h33V68c0-1.1-0.1-2.2-0.4-3.2h5.1c1.3,0,2.4,1.1,2.4,2.4v7.3c-3.5,1.1-6.2,4.4-6.2,8.3
		c0,2.9,1.5,5.6,4,7.3l2.8-4.3c-1.1-0.7-1.6-1.8-1.6-3c0-2,1.6-3.6,3.6-3.6c1.9,0,3.6,1.6,3.6,3.6c0,1.2-0.6,2.3-1.6,3l2.8,4.3
		c2.5-1.6,4-4.3,4-7.3C73.7,79,71.1,75.6,67.6,74.6z M33.8,65.3h-3.2V62h3.2V65.3z M40.3,65.3h-3.2V62h3.2V65.3z M46.9,65.3h-3.2V62
		h3.2V65.3z"/>
	<path class="st0" d="M60.1,20.9H43.6v-4.1h-3.4v-3.1c1.1-0.5,1.9-1.7,1.9-3c0-1.9-1.5-3.3-3.3-3.3s-3.3,1.5-3.3,3.3
		c0,1.3,0.8,2.4,1.9,2.9v3.2H34v4.1H17.4c-1.5,0-2.8,1.2-2.8,2.8v24.5c0,1.5,1.2,2.8,2.8,2.8h42.7c1.5,0,2.8-1.2,2.8-2.8V23.7
		C62.9,22.2,61.6,20.9,60.1,20.9z M56.4,35.2c0,1.5-1.2,2.6-2.6,2.6H23.7c-1.5,0-2.6-1.2-2.6-2.6V34c0-1.5,1.2-2.6,2.6-2.6h30.1
		c1.5,0,2.6,1.2,2.6,2.6V35.2z"/>
	<path class="st0" d="M38.7,81.3c-3.4,0-6.3,2.8-6.3,6.3s2.8,6.3,6.3,6.3S45,91,45,87.5S42.2,81.3,38.7,81.3z M38.7,89.5
		c-1.1,0-1.9-0.8-1.9-1.9s0.8-1.9,1.9-1.9c1.1,0,1.9,0.8,1.9,1.9C40.6,88.6,39.8,89.5,38.7,89.5z"/>
</g>
</svg>
