<?xml version="1.0" encoding="utf-8"?>
<!-- Generator: Adobe Illustrator 20.1.0, SVG Export Plug-In . SVG Version: 6.00 Build 0)  -->
<svg version="1.1" id="Layer_1" xmlns="http://www.w3.org/2000/svg" xmlns:xlink="http://www.w3.org/1999/xlink" x="0px" y="0px"
	 viewBox="0 0 100 97.7" style="enable-background:new 0 0 100 97.7;" xml:space="preserve">
<style type="text/css">
	.st0{fill:#D5D5D5;}
</style>
<path class="st0" d="M78.1,89.1H21.9c-0.6,0-1,0.4-1,1s0.4,1,1,1h56.2c0.6,0,1-0.4,1-1C79.1,89.6,78.6,89.1,78.1,89.1z"/>
<path class="st0" d="M36.3,28.7c0-0.1,0,0.6,0.4,1.3c0.3,0.7,1.1,1.4,2.3,1.7c0.1,0.5,0.4,1.6,0.9,3c0.7,1.8,1.9,3.9,4,5.5
	c0.2,0.2,2.1,2,5.5,2c1.5,0,3.1-0.3,5.1-1.2c0,0,1.2-0.6,2.6-2.1c1.3-1.5,2.8-3.7,3.4-7c0.3,0,0.8-0.2,1.3-0.5
	c0.7-0.5,1.4-1.2,1.6-2.7c0,0,0-0.8-0.3-1.6c-0.2-0.4-0.4-0.9-0.8-1.2c-0.3-0.2-0.7-0.5-1.2-0.5h0.1l0.6-4.1c0.5-6.4-4-8-4-8
	c-0.1-2.1-1.9-3.4-1.9-3.4C52.5,7.6,45,10.4,45,10.4c-5.8,1.4-7.1,5.4-7.1,5.4c-1.8,4.1,0,9.3,0.2,9.7c-0.2,0.1-0.4,0.2-0.6,0.5
	C37,26.6,36.3,27.4,36.3,28.7z"/>
<path class="st0" d="M63.4,45.9c-0.1,0-0.1-0.1-0.2-0.1c-0.2-0.1-0.5-0.2-0.7-0.3c-2.1-0.9-4.2-1.5-6.3-1.8
	c-0.9,0.8-1.6,1.2-1.6,1.2c-1.9,0.9-3.6,1.2-5.1,1.2c-3.4,0-5.4-1.9-5.5-2s-0.2-0.2-0.2-0.2c-2.6,0.5-4.7,1.1-5.9,1.5v-0.1
	c0,0-0.5,0.2-1.3,0.5c-1.8,0.8-5,2.7-7.1,6.1h41.2C69.4,50,67.2,47.6,63.4,45.9z"/>
<path class="st0" d="M79.8,52.9H20.2c0,0-3.1,0.4-2.3,3.8L24.1,86c0,0,0.3,1.7,2,1.7h47.5c0,0,1.7-0.2,2.3-2.2l6-28.8
	C81.8,56.8,82.6,53.6,79.8,52.9z M52.6,70.2c0,1.2-1,2.2-2.1,2.2s-2.2-1-2.2-2.2c0-1.2,1-2.2,2.2-2.2S52.6,69,52.6,70.2z"/>
</svg>
