<?xml version="1.0" encoding="utf-8"?>
<!-- Generator: Adobe Illustrator 20.1.0, SVG Export Plug-In . SVG Version: 6.00 Build 0)  -->
<svg version="1.1" xmlns="http://www.w3.org/2000/svg" xmlns:xlink="http://www.w3.org/1999/xlink" x="0px" y="0px"
	 viewBox="0 0 800 576" style="enable-background:new 0 0 800 576;" xml:space="preserve">
<style type="text/css">
	.st0{fill:#F8F9F9;}
	.st1{fill:#414042;}
	.st2{fill:#B3C1C5;}
	.st3{fill:#70D5DA;}
	.st4{fill:#AEBDC1;}
	.st5{fill:#F7941E;}
	.st6{fill:#FFFFFF;}
	.st7{fill:#DAE1E3;}
	.st8{fill:#9FA0A2;}
</style>
<g id="Background">
</g>
<g id="Objects">
	<g>
		<g>
			<g>
				<path class="st0" d="M149,105.4v388.7c116.3,0,436,0,589.3,0V105.4C573.6,105.4,248.9,105.4,149,105.4z"/>
				<path class="st1" d="M738.3,497.9H149c-2.1,0-3.8-1.7-3.8-3.8V105.4c0-2.1,1.7-3.8,3.8-3.8h589.3c2.1,0,3.8,1.7,3.8,3.8v388.7
					C742,496.2,740.4,497.9,738.3,497.9z M152.8,490.4h581.7V109.2H152.8V490.4z"/>
			</g>
			<g>
				<path class="st2" d="M738.3,72.5c0-4.4-3.5-7.9-7.9-7.9H156.9c-4.4,0-7.9,3.5-7.9,7.9v32.9c99.8,0,424.6,0,589.3,0V72.5z"/>
				<path class="st1" d="M738.3,109.2H149c-2.1,0-3.8-1.7-3.8-3.8V72.5c0-6.4,5.2-11.7,11.7-11.7h573.4c6.4,0,11.7,5.2,11.7,11.7
					v32.9C742,107.5,740.4,109.2,738.3,109.2z M152.8,101.6h581.7V72.5c0-2.3-1.9-4.1-4.1-4.1H156.9c-2.3,0-4.1,1.9-4.1,4.1V101.6z"
					/>
			</g>
		</g>
		<g>
			<path class="st1" d="M211.9,435.5c-2.1,0-3.8-1.7-3.8-3.8V108.9c0-2.1,1.7-3.8,3.8-3.8c2.1,0,3.8,1.7,3.8,3.8v322.8
				C215.7,433.8,214,435.5,211.9,435.5z"/>
		</g>
		<g>
			<path class="st3" d="M308.8,232.4h-65.2c-2.1,0-3.8-1.7-3.8-3.8c0-2.1,1.7-3.8,3.8-3.8h65.2c2.1,0,3.8,1.7,3.8,3.8
				C312.5,230.7,310.8,232.4,308.8,232.4z"/>
		</g>
		<g>
			<path class="st4" d="M684.3,232.4H326.5c-2.1,0-3.8-1.7-3.8-3.8c0-2.1,1.7-3.8,3.8-3.8h357.8c2.1,0,3.8,1.7,3.8,3.8
				C688.1,230.7,686.4,232.4,684.3,232.4z"/>
		</g>
		<g>
			<path class="st3" d="M263.3,289h-19.8c-2.1,0-3.8-1.7-3.8-3.8s1.7-3.8,3.8-3.8h19.8c2.1,0,3.8,1.7,3.8,3.8S265.4,289,263.3,289z"
				/>
		</g>
		<g>
			<path class="st4" d="M497.5,289H283.1c-2.1,0-3.8-1.7-3.8-3.8s1.7-3.8,3.8-3.8h214.5c2.1,0,3.8,1.7,3.8,3.8S499.6,289,497.5,289z
				"/>
		</g>
		<g>
			<path class="st5" d="M317.6,345.4h-74.1c-2.1,0-3.8-1.7-3.8-3.8c0-2.1,1.7-3.8,3.8-3.8h74.1c2.1,0,3.8,1.7,3.8,3.8
				C321.4,343.7,319.7,345.4,317.6,345.4z"/>
		</g>
		<g>
			<path class="st3" d="M367.1,345.4H347c-2.1,0-3.8-1.7-3.8-3.8c0-2.1,1.7-3.8,3.8-3.8h20.1c2.1,0,3.8,1.7,3.8,3.8
				C370.8,343.7,369.1,345.4,367.1,345.4z"/>
		</g>
		<g>
			<path class="st4" d="M622,345.4H386.3c-2.1,0-3.8-1.7-3.8-3.8c0-2.1,1.7-3.8,3.8-3.8H622c2.1,0,3.8,1.7,3.8,3.8
				C625.8,343.7,624.1,345.4,622,345.4z"/>
		</g>
		<g>
			<path class="st4" d="M451.1,399.7H243.5c-2.1,0-3.8-1.7-3.8-3.8c0-2.1,1.7-3.8,3.8-3.8h207.5c2.1,0,3.8,1.7,3.8,3.8
				C454.8,398,453.1,399.7,451.1,399.7z"/>
		</g>
		<g>
			<path class="st5" d="M480.7,399.7h-19.8c-2.1,0-3.8-1.7-3.8-3.8c0-2.1,1.7-3.8,3.8-3.8h19.8c2.1,0,3.8,1.7,3.8,3.8
				C484.5,398,482.8,399.7,480.7,399.7z"/>
		</g>
		<g>
			<path class="st5" d="M308.8,457h-65.2c-2.1,0-3.8-1.7-3.8-3.8c0-2.1,1.7-3.8,3.8-3.8h65.2c2.1,0,3.8,1.7,3.8,3.8
				C312.5,455.3,310.8,457,308.8,457z"/>
		</g>
		<g>
			<path class="st3" d="M347.3,457h-20.8c-2.1,0-3.8-1.7-3.8-3.8c0-2.1,1.7-3.8,3.8-3.8h20.8c2.1,0,3.8,1.7,3.8,3.8
				C351.1,455.3,349.4,457,347.3,457z"/>
		</g>
		<g>
			<path class="st4" d="M593.4,457H367.1c-2.1,0-3.8-1.7-3.8-3.8c0-2.1,1.7-3.8,3.8-3.8h226.3c2.1,0,3.8,1.7,3.8,3.8
				C597.1,455.3,595.5,457,593.4,457z"/>
		</g>
		<rect x="153.1" y="109.3" class="st3" width="54.8" height="381.5"/>
		<g>
			<path class="st3" d="M326.5,141.4h-83c-2.1,0-3.8-1.7-3.8-3.8c0-2.1,1.7-3.8,3.8-3.8h83c2.1,0,3.8,1.7,3.8,3.8
				C330.3,139.8,328.6,141.4,326.5,141.4z"/>
		</g>
		<g>
			<path class="st5" d="M364.1,141.4h-22.7c-2.1,0-3.8-1.7-3.8-3.8c0-2.1,1.7-3.8,3.8-3.8h22.7c2.1,0,3.8,1.7,3.8,3.8
				C367.9,139.8,366.2,141.4,364.1,141.4z"/>
		</g>
		<g>
			<path class="st4" d="M470.8,180.3H263.3c-2.1,0-3.8-1.7-3.8-3.8c0-2.1,1.7-3.8,3.8-3.8h207.5c2.1,0,3.8,1.7,3.8,3.8
				C474.6,178.6,472.9,180.3,470.8,180.3z"/>
		</g>
		<g>
			<path class="st5" d="M511.3,180.3h-18.8c-2.1,0-3.8-1.7-3.8-3.8c0-2.1,1.7-3.8,3.8-3.8h18.8c2.1,0,3.8,1.7,3.8,3.8
				C515.1,178.6,513.4,180.3,511.3,180.3z"/>
		</g>
		<g>
			<path class="st6" d="M189.5,141.4h-25.7c-2.1,0-3.8-1.7-3.8-3.8c0-2.1,1.7-3.8,3.8-3.8h25.7c2.1,0,3.8,1.7,3.8,3.8
				C193.3,139.8,191.6,141.4,189.5,141.4z"/>
		</g>
		<g>
			<path class="st6" d="M189.5,180.3h-25.7c-2.1,0-3.8-1.7-3.8-3.8c0-2.1,1.7-3.8,3.8-3.8h25.7c2.1,0,3.8,1.7,3.8,3.8
				C193.3,178.6,191.6,180.3,189.5,180.3z"/>
		</g>
		<g>
			<path class="st6" d="M189.5,232.4h-25.7c-2.1,0-3.8-1.7-3.8-3.8c0-2.1,1.7-3.8,3.8-3.8h25.7c2.1,0,3.8,1.7,3.8,3.8
				C193.3,230.7,191.6,232.4,189.5,232.4z"/>
		</g>
		<g>
			<path class="st6" d="M189.5,289h-25.7c-2.1,0-3.8-1.7-3.8-3.8s1.7-3.8,3.8-3.8h25.7c2.1,0,3.8,1.7,3.8,3.8S191.6,289,189.5,289z"
				/>
		</g>
		<g>
			<path class="st6" d="M189.5,347h-25.7c-2.1,0-3.8-1.7-3.8-3.8c0-2.1,1.7-3.8,3.8-3.8h25.7c2.1,0,3.8,1.7,3.8,3.8
				C193.3,345.3,191.6,347,189.5,347z"/>
		</g>
		<g>
			<path class="st6" d="M189.5,399.7h-25.7c-2.1,0-3.8-1.7-3.8-3.8c0-2.1,1.7-3.8,3.8-3.8h25.7c2.1,0,3.8,1.7,3.8,3.8
				C193.3,398,191.6,399.7,189.5,399.7z"/>
		</g>
		<g>
			<path class="st6" d="M189.5,457h-25.7c-2.1,0-3.8-1.7-3.8-3.8c0-2.1,1.7-3.8,3.8-3.8h25.7c2.1,0,3.8,1.7,3.8,3.8
				C193.3,455.3,191.6,457,189.5,457z"/>
		</g>
	</g>
	<g>
		<g>
			<path class="st2" d="M778.1,121.3V97.8h-29.3c-1.6-8.7-4.9-16.8-9.5-24l21.3-21.3L744,35.9l-20.8,20.8
				c-8.1-6-17.5-10.1-27.9-11.9v-28h-23.5v28.2c-9.8,1.9-18.9,6-26.6,11.7l-20.8-20.8l-16.6,16.6l21.3,21.3
				c-4.6,7.1-7.9,15.2-9.5,23.9h-29.1v23.5h29.1c1.3,7.4,3.9,14.4,7.5,20.7l-23.4,23.4l16.6,16.6l21.9-21.9
				c8.3,6.9,18.4,11.8,29.5,13.9v27.8h23.5v-27.6c9.6-1.6,18.5-5.3,26.2-10.6l18.4,18.4l16.6-16.6L738.2,147
				c5.3-7.6,9-16.3,10.7-25.7H778.1z"/>
			<path class="st1" d="M695.3,205.6h-23.5c-2.1,0-3.8-1.7-3.8-3.8v-24.8c-9.2-2.2-17.9-6.3-25.5-11.9L623,184.7
				c-1.4,1.4-3.9,1.4-5.3,0l-16.6-16.6c-1.5-1.5-1.5-3.8,0-5.3l21.4-21.4c-2.7-5.2-4.6-10.6-5.9-16.3h-26.1c-2.1,0-3.8-1.7-3.8-3.8
				V97.8c0-2.1,1.7-3.8,3.8-3.8h26.1c1.6-6.9,4.2-13.5,7.8-19.6l-19.2-19.2c-1.5-1.5-1.5-3.8,0-5.3l16.6-16.6c1.5-1.5,3.8-1.5,5.3,0
				l18.6,18.6c6.9-4.6,14.4-7.9,22.4-9.8V16.9c0-2.1,1.7-3.8,3.8-3.8h23.5c2.1,0,3.8,1.7,3.8,3.8v24.9c8.4,1.8,16.5,5.3,23.7,10.1
				l18.5-18.5c1.4-1.4,3.9-1.4,5.3,0l16.6,16.6c1.5,1.5,1.5,3.8,0,5.3l-19.1,19.2c3.6,6.1,6.2,12.7,7.8,19.6h26.2
				c2.1,0,3.8,1.7,3.8,3.8v23.5c0,2.1-1.7,3.8-3.8,3.8h-26.2c-1.7,7.7-4.7,14.9-8.9,21.5l16.2,16.2c1.5,1.5,1.5,3.8,0,5.3
				l-16.6,16.6c-0.7,0.7-1.7,1.1-2.7,1.1l0,0c-1,0-2-0.4-2.7-1.1L721,168.4c-6.7,4.2-14.1,7.2-21.9,8.9v24.5
				C699.1,203.9,697.4,205.6,695.3,205.6z M675.6,198.1h16v-23.8c0-1.8,1.3-3.4,3.1-3.7c9-1.5,17.3-4.9,24.7-10
				c1.5-1,3.5-0.9,4.8,0.4l15.8,15.8l11.3-11.3l-15.7-15.7c-1.3-1.3-1.5-3.3-0.4-4.8c5.1-7.3,8.5-15.4,10-24.2
				c0.3-1.8,1.9-3.1,3.7-3.1h25.5v-16h-25.5c-1.8,0-3.4-1.3-3.7-3.1c-1.5-8.1-4.5-15.7-9-22.6c-1-1.5-0.8-3.5,0.5-4.7l18.6-18.6
				L744,41.3l-18.1,18.1c-1.3,1.3-3.4,1.5-4.9,0.4c-7.7-5.7-16.8-9.6-26.3-11.2c-1.8-0.3-3.1-1.9-3.1-3.7V20.6h-16v24.4
				c0,1.8-1.3,3.4-3.1,3.7c-9.1,1.7-17.5,5.4-25.1,11c-1.5,1.1-3.6,1-4.9-0.4l-18.2-18.2l-11.3,11.3l18.7,18.7
				c1.3,1.3,1.5,3.2,0.5,4.7c-4.5,6.9-7.5,14.5-8.9,22.5c-0.3,1.8-1.9,3.1-3.7,3.1h-25.4v16h25.4c1.8,0,3.4,1.3,3.7,3.1
				c1.2,6.9,3.6,13.5,7.1,19.5c0.8,1.5,0.6,3.3-0.6,4.5l-20.7,20.7l11.3,11.3l19.3-19.3c1.4-1.4,3.6-1.5,5.1-0.2
				c8,6.6,17.6,11.2,27.8,13.1c1.8,0.3,3.1,1.9,3.1,3.7V198.1z"/>
		</g>
		<g>
			<path class="st6" d="M715.8,109.5c0,17.4-14.1,31.6-31.6,31.6c-17.4,0-31.6-14.1-31.6-31.6c0-17.5,14.1-31.6,31.6-31.6
				C701.7,77.9,715.8,92.1,715.8,109.5z"/>
			<path class="st1" d="M684.2,144.9c-19.5,0-35.4-15.9-35.4-35.4c0-19.5,15.9-35.4,35.4-35.4c19.5,0,35.4,15.9,35.4,35.4
				C719.6,129,703.7,144.9,684.2,144.9z M684.2,81.7c-15.3,0-27.8,12.5-27.8,27.8s12.5,27.8,27.8,27.8c15.3,0,27.8-12.5,27.8-27.8
				S699.6,81.7,684.2,81.7z"/>
		</g>
	</g>
	<g>
		<path class="st1" d="M71.6,419.3c-2,0-3.6-1.6-3.6-3.6v-62.6c0-0.5-0.1-13.4,8.7-22.2c5.3-5.4,12.6-8.1,21.6-8.1H149
			c2,0,3.6,1.6,3.6,3.6c0,2-1.6,3.6-3.6,3.6H98.4c-7,0-12.6,2-16.5,5.9c-6.7,6.7-6.7,17.1-6.7,17.3v62.6
			C75.1,417.7,73.5,419.3,71.6,419.3z"/>
	</g>
	<g>
		<g>
			<g>
				<path class="st4" d="M600.4,15.5h-9c-1.1,0-2-0.9-2-2c0-1.1,0.9-2,2-2h9c1.1,0,2,0.9,2,2C602.4,14.6,601.5,15.5,600.4,15.5z"/>
			</g>
			<g>
				<path class="st4" d="M572.9,15.5h-18.5c-1.1,0-2-0.9-2-2c0-1.1,0.9-2,2-2h18.5c1.1,0,2,0.9,2,2C575,14.6,574.1,15.5,572.9,15.5z
					 M536,15.5h-18.5c-1.1,0-2-0.9-2-2c0-1.1,0.9-2,2-2H536c1.1,0,2,0.9,2,2C538,14.6,537.1,15.5,536,15.5z M499.1,15.5h-18.5
					c-1.1,0-2-0.9-2-2c0-1.1,0.9-2,2-2h18.5c1.1,0,2,0.9,2,2C501.1,14.6,500.2,15.5,499.1,15.5z M462.1,15.5h-18.5c-1.1,0-2-0.9-2-2
					c0-1.1,0.9-2,2-2h18.5c1.1,0,2,0.9,2,2C464.1,14.6,463.2,15.5,462.1,15.5z"/>
			</g>
			<g>
				<path class="st4" d="M425.2,15.5h-9c-1.1,0-2-0.9-2-2c0-1.1,0.9-2,2-2h9c1.1,0,2,0.9,2,2C427.2,14.6,426.3,15.5,425.2,15.5z"/>
			</g>
		</g>
	</g>
	<g>
		<g>
			<g>
				<path class="st4" d="M468.5,43.6h-9c-1.1,0-2-0.9-2-2c0-1.1,0.9-2,2-2h9c1.1,0,2,0.9,2,2C470.5,42.6,469.6,43.6,468.5,43.6z"/>
			</g>
			<g>
				<path class="st4" d="M442.1,43.6h-17.4c-1.1,0-2-0.9-2-2c0-1.1,0.9-2,2-2h17.4c1.1,0,2,0.9,2,2
					C444.1,42.6,443.2,43.6,442.1,43.6z M407.2,43.6h-17.4c-1.1,0-2-0.9-2-2c0-1.1,0.9-2,2-2h17.4c1.1,0,2,0.9,2,2
					C409.3,42.6,408.3,43.6,407.2,43.6z M372.4,43.6h-17.4c-1.1,0-2-0.9-2-2c0-1.1,0.9-2,2-2h17.4c1.1,0,2,0.9,2,2
					C374.4,42.6,373.5,43.6,372.4,43.6z M337.5,43.6h-17.4c-1.1,0-2-0.9-2-2c0-1.1,0.9-2,2-2h17.4c1.1,0,2,0.9,2,2
					C339.5,42.6,338.6,43.6,337.5,43.6z M302.6,43.6h-17.4c-1.1,0-2-0.9-2-2c0-1.1,0.9-2,2-2h17.4c1.1,0,2,0.9,2,2
					C304.7,42.6,303.8,43.6,302.6,43.6z M267.8,43.6h-17.4c-1.1,0-2-0.9-2-2c0-1.1,0.9-2,2-2h17.4c1.1,0,2,0.9,2,2
					C269.8,42.6,268.9,43.6,267.8,43.6z"/>
			</g>
			<g>
				<path class="st4" d="M232.9,43.6h-9c-1.1,0-2-0.9-2-2c0-1.1,0.9-2,2-2h9c1.1,0,2,0.9,2,2C235,42.6,234.1,43.6,232.9,43.6z"/>
			</g>
		</g>
	</g>
	<g>
		<g>
			<g>
				<path class="st4" d="M373,15.5h-9c-1.1,0-2-0.9-2-2c0-1.1,0.9-2,2-2h9c1.1,0,2,0.9,2,2C375,14.6,374.1,15.5,373,15.5z"/>
			</g>
			<g>
				<path class="st4" d="M345.9,15.5h-9c-1.1,0-2-0.9-2-2c0-1.1,0.9-2,2-2h9c1.1,0,2,0.9,2,2C347.9,14.6,347,15.5,345.9,15.5z"/>
			</g>
		</g>
	</g>
	<g>
		<g>
			<g>
				<path class="st4" d="M187,43.6h-9c-1.1,0-2-0.9-2-2c0-1.1,0.9-2,2-2h9c1.1,0,2,0.9,2,2C189.1,42.6,188.2,43.6,187,43.6z"/>
			</g>
			<g>
				<path class="st4" d="M163.4,43.6h-14.6c-1.1,0-2-0.9-2-2c0-1.1,0.9-2,2-2h14.6c1.1,0,2,0.9,2,2
					C165.5,42.6,164.6,43.6,163.4,43.6z M134.2,43.6h-14.6c-1.1,0-2-0.9-2-2c0-1.1,0.9-2,2-2h14.6c1.1,0,2,0.9,2,2
					C136.2,42.6,135.3,43.6,134.2,43.6z"/>
			</g>
			<g>
				<path class="st4" d="M104.9,43.6h-9c-1.1,0-2-0.9-2-2c0-1.1,0.9-2,2-2h9c1.1,0,2,0.9,2,2C106.9,42.6,106,43.6,104.9,43.6z"/>
			</g>
		</g>
	</g>
	<g>
		<g>
			<g>
				<path class="st4" d="M243.5,15.5h-9c-1.1,0-2-0.9-2-2c0-1.1,0.9-2,2-2h9c1.1,0,2,0.9,2,2C245.6,14.6,244.7,15.5,243.5,15.5z"/>
			</g>
			<g>
				<path class="st4" d="M211.8,15.5H189c-1.1,0-2-0.9-2-2c0-1.1,0.9-2,2-2h22.8c1.1,0,2,0.9,2,2C213.8,14.6,212.9,15.5,211.8,15.5z
					"/>
			</g>
			<g>
				<path class="st4" d="M166.2,15.5h-9c-1.1,0-2-0.9-2-2c0-1.1,0.9-2,2-2h9c1.1,0,2,0.9,2,2C168.2,14.6,167.3,15.5,166.2,15.5z"/>
			</g>
		</g>
	</g>
	<g>
		<g>
			<g>
				<path class="st4" d="M762.8,227.3c-1.1,0-2-0.9-2-2v-9c0-1.1,0.9-2,2-2c1.1,0,2,0.9,2,2v9C764.8,226.4,763.9,227.3,762.8,227.3z
					"/>
			</g>
			<g>
				<path class="st4" d="M762.8,284.5c-1.1,0-2-0.9-2-2v-14.3c0-1.1,0.9-2,2-2c1.1,0,2,0.9,2,2v14.3
					C764.8,283.6,763.9,284.5,762.8,284.5z M762.8,255.9c-1.1,0-2-0.9-2-2v-14.3c0-1.1,0.9-2,2-2c1.1,0,2,0.9,2,2v14.3
					C764.8,255,763.9,255.9,762.8,255.9z"/>
			</g>
			<g>
				<path class="st4" d="M762.8,307.8c-1.1,0-2-0.9-2-2v-9c0-1.1,0.9-2,2-2c1.1,0,2,0.9,2,2v9C764.8,306.9,763.9,307.8,762.8,307.8z
					"/>
			</g>
		</g>
	</g>
	<g>
		<g>
			<g>
				<path class="st4" d="M762.8,337.4c-1.1,0-2-0.9-2-2v-9c0-1.1,0.9-2,2-2c1.1,0,2,0.9,2,2v9C764.8,336.5,763.9,337.4,762.8,337.4z
					"/>
			</g>
			<g>
				<path class="st4" d="M762.8,353.8c-1.1,0-2-0.9-2-2v-9c0-1.1,0.9-2,2-2c1.1,0,2,0.9,2,2v9C764.8,352.9,763.9,353.8,762.8,353.8z
					"/>
			</g>
		</g>
	</g>
	<g>
		<g>
			<g>
				<path class="st4" d="M792.3,183.3c-1.1,0-2-0.9-2-2v-9c0-1.1,0.9-2,2-2c1.1,0,2,0.9,2,2v9C794.3,182.4,793.4,183.3,792.3,183.3z
					"/>
			</g>
			<g>
				<path class="st4" d="M792.3,399.3c-1.1,0-2-0.9-2-2v-18c0-1.1,0.9-2,2-2c1.1,0,2,0.9,2,2v18
					C794.3,398.3,793.4,399.3,792.3,399.3z M792.3,363.3c-1.1,0-2-0.9-2-2v-18c0-1.1,0.9-2,2-2c1.1,0,2,0.9,2,2v18
					C794.3,362.4,793.4,363.3,792.3,363.3z M792.3,327.3c-1.1,0-2-0.9-2-2v-18c0-1.1,0.9-2,2-2c1.1,0,2,0.9,2,2v18
					C794.3,326.4,793.4,327.3,792.3,327.3z M792.3,291.3c-1.1,0-2-0.9-2-2v-18c0-1.1,0.9-2,2-2c1.1,0,2,0.9,2,2v18
					C794.3,290.4,793.4,291.3,792.3,291.3z M792.3,255.3c-1.1,0-2-0.9-2-2v-18c0-1.1,0.9-2,2-2c1.1,0,2,0.9,2,2v18
					C794.3,254.4,793.4,255.3,792.3,255.3z M792.3,219.3c-1.1,0-2-0.9-2-2v-18c0-1.1,0.9-2,2-2c1.1,0,2,0.9,2,2v18
					C794.3,218.4,793.4,219.3,792.3,219.3z"/>
			</g>
			<g>
				<path class="st4" d="M792.3,426.2c-1.1,0-2-0.9-2-2v-9c0-1.1,0.9-2,2-2c1.1,0,2,0.9,2,2v9C794.3,425.3,793.4,426.2,792.3,426.2z
					"/>
			</g>
		</g>
	</g>
	<g>
		<g>
			<g>
				<path class="st4" d="M792.3,465.6c-1.1,0-2-0.9-2-2v-9c0-1.1,0.9-2,2-2c1.1,0,2,0.9,2,2v9C794.3,464.6,793.4,465.6,792.3,465.6z
					"/>
			</g>
			<g>
				<path class="st4" d="M792.3,482.7c-1.1,0-2-0.9-2-2v-9c0-1.1,0.9-2,2-2c1.1,0,2,0.9,2,2v9C794.3,481.8,793.4,482.7,792.3,482.7z
					"/>
			</g>
		</g>
	</g>
	<g>
		<g>
			<g>
				<path class="st4" d="M762.8,406.9c-1.1,0-2-0.9-2-2v-9c0-1.1,0.9-2,2-2c1.1,0,2,0.9,2,2v9C764.8,406,763.9,406.9,762.8,406.9z"
					/>
			</g>
			<g>
				<path class="st4" d="M762.8,427.9c-1.1,0-2-0.9-2-2v-10.5c0-1.1,0.9-2,2-2c1.1,0,2,0.9,2,2v10.5
					C764.8,427,763.9,427.9,762.8,427.9z"/>
			</g>
			<g>
				<path class="st4" d="M762.8,447.3c-1.1,0-2-0.9-2-2v-9c0-1.1,0.9-2,2-2c1.1,0,2,0.9,2,2v9C764.8,446.4,763.9,447.3,762.8,447.3z
					"/>
			</g>
		</g>
	</g>
	<g>
		<g>
			<g>
				<rect x="11.8" y="432.6" class="st7" width="312.5" height="133.3"/>
				<path class="st1" d="M324.3,569.7H11.8c-2.1,0-3.8-1.7-3.8-3.8V432.6c0-2.1,1.7-3.8,3.8-3.8h312.5c2.1,0,3.8,1.7,3.8,3.8v133.3
					C328.1,568,326.4,569.7,324.3,569.7z M15.6,562.1h305V436.4h-305V562.1z"/>
			</g>
			<g>
				<path class="st1" d="M277.9,521.6h-31.5c-2.1,0-3.8-1.7-3.8-3.8c0-2.1,1.7-3.8,3.8-3.8h27.7v-33.4c0-2.1,1.7-3.8,3.8-3.8
					c2.1,0,3.8,1.7,3.8,3.8v37.1C281.6,519.9,279.9,521.6,277.9,521.6z"/>
			</g>
			<g>
				<path class="st1" d="M178.7,544.3H66c-2.1,0-3.8-1.7-3.8-3.8c0-2.1,1.7-3.8,3.8-3.8h112.7c2.1,0,3.8,1.7,3.8,3.8
					C182.4,542.7,180.8,544.3,178.7,544.3z"/>
			</g>
			<g>
				<path class="st1" d="M214.9,544.3h-19.1c-2.1,0-3.8-1.7-3.8-3.8c0-2.1,1.7-3.8,3.8-3.8h19.1c2.1,0,3.8,1.7,3.8,3.8
					C218.6,542.7,217,544.3,214.9,544.3z"/>
			</g>
			<g>
				<path class="st1" d="M252.6,544.3h-22c-2.1,0-3.8-1.7-3.8-3.8c0-2.1,1.7-3.8,3.8-3.8h22c2.1,0,3.8,1.7,3.8,3.8
					C256.4,542.7,254.7,544.3,252.6,544.3z"/>
			</g>
			<g>
				<path class="st1" d="M49.1,544.3H29.6c-2.1,0-3.8-1.7-3.8-3.8c0-2.1,1.7-3.8,3.8-3.8h19.5c2.1,0,3.8,1.7,3.8,3.8
					C52.9,542.7,51.2,544.3,49.1,544.3z"/>
			</g>
			<g>
				<path class="st1" d="M49.1,458.3H29.6c-2.1,0-3.8-1.7-3.8-3.8c0-2.1,1.7-3.8,3.8-3.8h19.5c2.1,0,3.8,1.7,3.8,3.8
					C52.9,456.6,51.2,458.3,49.1,458.3z"/>
			</g>
			<g>
				<path class="st1" d="M95.9,458.3H66c-2.1,0-3.8-1.7-3.8-3.8c0-2.1,1.7-3.8,3.8-3.8h29.9c2.1,0,3.8,1.7,3.8,3.8
					C99.7,456.6,98,458.3,95.9,458.3z"/>
			</g>
			<g>
				<path class="st1" d="M263,458.3H114.5c-2.1,0-3.8-1.7-3.8-3.8c0-2.1,1.7-3.8,3.8-3.8H263c2.1,0,3.8,1.7,3.8,3.8
					C266.7,456.6,265,458.3,263,458.3z"/>
			</g>
			<g>
				<path class="st1" d="M306.8,458.3H279c-2.1,0-3.8-1.7-3.8-3.8c0-2.1,1.7-3.8,3.8-3.8h27.8c2.1,0,3.8,1.7,3.8,3.8
					C310.6,456.6,308.9,458.3,306.8,458.3z"/>
			</g>
			<g>
				<path class="st1" d="M51.5,482.8H29.6c-2.1,0-3.8-1.7-3.8-3.8s1.7-3.8,3.8-3.8h21.9c2.1,0,3.8,1.7,3.8,3.8
					S53.6,482.8,51.5,482.8z"/>
			</g>
			<g>
				<path class="st1" d="M102.9,482.8H78.9c-2.1,0-3.8-1.7-3.8-3.8s1.7-3.8,3.8-3.8h23.9c2.1,0,3.8,1.7,3.8,3.8
					S104.9,482.8,102.9,482.8z"/>
			</g>
			<g>
				<path class="st1" d="M156.9,482.8H133c-2.1,0-3.8-1.7-3.8-3.8s1.7-3.8,3.8-3.8h23.9c2.1,0,3.8,1.7,3.8,3.8
					S159,482.8,156.9,482.8z"/>
			</g>
			<g>
				<path class="st1" d="M51.8,514.8H29.9c-2.1,0-3.8-1.7-3.8-3.8c0-2.1,1.7-3.8,3.8-3.8h21.9c2.1,0,3.8,1.7,3.8,3.8
					C55.6,513.1,53.9,514.8,51.8,514.8z"/>
			</g>
			<g>
				<path class="st1" d="M103.1,514.8H79.2c-2.1,0-3.8-1.7-3.8-3.8c0-2.1,1.7-3.8,3.8-3.8h23.9c2.1,0,3.8,1.7,3.8,3.8
					C106.9,513.1,105.2,514.8,103.1,514.8z"/>
			</g>
			<g>
				<path class="st1" d="M157.2,514.8h-23.9c-2.1,0-3.8-1.7-3.8-3.8c0-2.1,1.7-3.8,3.8-3.8h23.9c2.1,0,3.8,1.7,3.8,3.8
					C161,513.1,159.3,514.8,157.2,514.8z"/>
			</g>
			<g>
				<path class="st1" d="M211,482.8H187c-2.1,0-3.8-1.7-3.8-3.8s1.7-3.8,3.8-3.8H211c2.1,0,3.8,1.7,3.8,3.8S213,482.8,211,482.8z"/>
			</g>
			<g>
				<path class="st1" d="M211.2,514.8h-23.9c-2.1,0-3.8-1.7-3.8-3.8c0-2.1,1.7-3.8,3.8-3.8h23.9c2.1,0,3.8,1.7,3.8,3.8
					C215,513.1,213.3,514.8,211.2,514.8z"/>
			</g>
			<g>
				<rect x="11.8" y="415.8" class="st4" width="312.5" height="16.9"/>
				<path class="st1" d="M324.3,436.4H11.8c-2.1,0-3.8-1.7-3.8-3.8v-16.9c0-2.1,1.7-3.8,3.8-3.8h312.5c2.1,0,3.8,1.7,3.8,3.8v16.9
					C328.1,434.7,326.4,436.4,324.3,436.4z M15.6,428.9h305v-9.3h-305V428.9z"/>
			</g>
		</g>
		<g>
			<rect x="324.3" y="432.6" class="st8" width="17.2" height="133.3"/>
			<path class="st1" d="M341.5,569.7h-17.2c-2.1,0-3.8-1.7-3.8-3.8V432.6c0-2.1,1.7-3.8,3.8-3.8h17.2c2.1,0,3.8,1.7,3.8,3.8v133.3
				C345.3,568,343.6,569.7,341.5,569.7z M328.1,562.1h9.7V436.4h-9.7V562.1z"/>
		</g>
		<g>
			<rect x="324.3" y="415.8" class="st8" width="17.2" height="16.9"/>
			<path class="st1" d="M341.5,436.4h-17.2c-2.1,0-3.8-1.7-3.8-3.8v-16.9c0-2.1,1.7-3.8,3.8-3.8h17.2c2.1,0,3.8,1.7,3.8,3.8v16.9
				C345.3,434.7,343.6,436.4,341.5,436.4z M328.1,428.9h9.7v-9.3h-9.7V428.9z"/>
		</g>
	</g>
</g>
</svg>
