<?xml version="1.0" encoding="utf-8"?>
<!-- Generator: Adobe Illustrator 20.1.0, SVG Export Plug-In . SVG Version: 6.00 Build 0)  -->
<svg version="1.1" id="Layer_1" xmlns="http://www.w3.org/2000/svg" xmlns:xlink="http://www.w3.org/1999/xlink" x="0px" y="0px"
	 viewBox="0 0 87 85.3" style="enable-background:new 0 0 87 85.3;" xml:space="preserve">
<style type="text/css">
	.st0{fill:#0A73BC;}
	.st1{fill:#FFFFFF;}
	.st2{font-family:'DistrictPro-Book';}
	.st3{font-size:31.584px;}
</style>
<g>
	<rect x="18.6" y="18.4" class="st0" width="49" height="49"/>
	<rect x="21.3" y="10.8" class="st0" width="5" height="5"/>
	<rect x="22.8" y="3.7" class="st0" width="2" height="6"/>
	<rect x="29.4" y="10.8" class="st0" width="5" height="5"/>
	<rect x="30.9" y="3.7" class="st0" width="2" height="6"/>
	<rect x="37.2" y="10.8" class="st0" width="5" height="5"/>
	<rect x="38.7" y="3.7" class="st0" width="2" height="6"/>
	<rect x="44.6" y="10.8" class="st0" width="5" height="5"/>
	<rect x="46.1" y="3.7" class="st0" width="2" height="6"/>
	<rect x="51.9" y="10.8" class="st0" width="5" height="5"/>
	<rect x="53.4" y="3.7" class="st0" width="2" height="6"/>
	<rect x="59.1" y="10.8" class="st0" width="5" height="5"/>
	<rect x="60.6" y="3.7" class="st0" width="2" height="6"/>
	<rect x="21.3" y="69.9" class="st0" width="5" height="5"/>
	<rect x="22.8" y="76" class="st0" width="2" height="6"/>
	<rect x="29.4" y="69.9" class="st0" width="5" height="5"/>
	<rect x="30.9" y="76" class="st0" width="2" height="6"/>
	<rect x="29.4" y="69.9" class="st0" width="5" height="5"/>
	<rect x="30.9" y="76" class="st0" width="2" height="6"/>
	<rect x="37.2" y="69.9" class="st0" width="5" height="5"/>
	<rect x="38.7" y="76" class="st0" width="2" height="6"/>
	<rect x="44.6" y="70" class="st0" width="5" height="5"/>
	<rect x="46.1" y="76" class="st0" width="2" height="6"/>
	<rect x="51.9" y="69.9" class="st0" width="5" height="5"/>
	<rect x="53.4" y="76" class="st0" width="2" height="6"/>
	<rect x="59.1" y="69.9" class="st0" width="5" height="5"/>
	<rect x="60.6" y="76" class="st0" width="2" height="6"/>
	<rect x="69.7" y="59.5" class="st0" width="5" height="5"/>
	<rect x="75.7" y="61" class="st0" width="6" height="2"/>
	<rect x="69.7" y="51.4" class="st0" width="5" height="5"/>
	<rect x="75.8" y="52.9" class="st0" width="6" height="2"/>
	<rect x="69.7" y="43.6" class="st0" width="5" height="5"/>
	<rect x="75.8" y="45.1" class="st0" width="6" height="2"/>
	<rect x="69.7" y="36.3" class="st0" width="5" height="5"/>
	<rect x="75.8" y="37.8" class="st0" width="6" height="2"/>
	<rect x="69.7" y="28.9" class="st0" width="5" height="5"/>
	<rect x="75.8" y="30.4" class="st0" width="6" height="2"/>
	<rect x="69.7" y="21.8" class="st0" width="5" height="5"/>
	<rect x="75.8" y="23.3" class="st0" width="6" height="2"/>
	<rect x="11.5" y="59.5" class="st0" width="5" height="5"/>
	<rect x="4.3" y="61" class="st0" width="6" height="2"/>
	<rect x="11.4" y="51.4" class="st0" width="5" height="5"/>
	<rect x="4.3" y="52.9" class="st0" width="6" height="2"/>
	<rect x="11.4" y="43.6" class="st0" width="5" height="5"/>
	<rect x="4.3" y="45.1" class="st0" width="6" height="2"/>
	<rect x="11.4" y="36.3" class="st0" width="5" height="5"/>
	<rect x="4.3" y="37.8" class="st0" width="6" height="2"/>
	<rect x="11.4" y="28.9" class="st0" width="5" height="5"/>
	<rect x="4.3" y="30.4" class="st0" width="6" height="2"/>
	<rect x="11.4" y="21.8" class="st0" width="5" height="5"/>
	<rect x="4.3" y="23.3" class="st0" width="6" height="2"/>
</g>
<text transform="matrix(1 0 0 1 29.2733 52.5165)" class="st1 st2 st3">AI</text>
</svg>
