<?xml version="1.0" encoding="utf-8"?>
<!-- Generator: Adobe Illustrator 20.1.0, SVG Export Plug-In . SVG Version: 6.00 Build 0)  -->
<svg version="1.1" xmlns="http://www.w3.org/2000/svg" xmlns:xlink="http://www.w3.org/1999/xlink" x="0px" y="0px"
	 viewBox="0 0 800 576" style="enable-background:new 0 0 800 576;" xml:space="preserve">
<style type="text/css">
	.st0{fill:none;stroke:#AEBDC1;stroke-width:3;stroke-miterlimit:10;stroke-dasharray:9,6;}
	.st1{fill:#FFFFFF;stroke:#414042;stroke-width:8;stroke-miterlimit:10;}
	.st2{fill:#414042;}
	.st3{fill:none;stroke:#F7941E;stroke-width:0.75;stroke-miterlimit:10;}
	.st4{fill:none;stroke:#F7941E;stroke-width:2;stroke-linecap:round;stroke-linejoin:round;stroke-miterlimit:10;}
	.st5{fill:none;stroke:#F7941E;stroke-linecap:round;stroke-linejoin:round;stroke-miterlimit:10;}
	.st6{fill:#F7941E;}
	.st7{fill:#FFFFFF;}
	.st8{opacity:0.13;fill:#F2F2F2;}
	.st9{fill:none;stroke:#70D5DA;stroke-width:0.75;stroke-miterlimit:10;}
	.st10{fill:none;stroke:#70D5DA;stroke-width:2;stroke-linecap:round;stroke-linejoin:round;stroke-miterlimit:10;}
	.st11{fill:none;stroke:#70D5DA;stroke-linecap:round;stroke-linejoin:round;stroke-miterlimit:10;}
	.st12{fill:#70D5DA;}
</style>
<g id="Background">
</g>
<g id="Objects">
	<g>
		<g>
			<g>
				<polygon class="st0" points="678,461.8 624.9,505.3 624.9,387 731.1,387 731.1,505.3 				"/>
				<g>
					<defs>
						<polygon id="SVGID_1_" points="747.2,537.5 677.9,480.8 608.7,537.5 608.7,372.7 747.2,372.7 						"/>
					</defs>
					<clipPath id="SVGID_2_">
						<use xlink:href="#SVGID_1_"  style="overflow:visible;"/>
					</clipPath>
					<use xlink:href="#SVGID_1_"  style="overflow:visible;fill:none;stroke:#414042;stroke-width:8;stroke-miterlimit:10;"/>
				</g>
			</g>
			<g>
				<rect x="608.7" y="116.7" class="st1" width="138.5" height="102.3"/>
				
					<rect x="637.4" y="117.7" transform="matrix(-1.836970e-16 1 -1 -1.836970e-16 848.698 -507.2229)" class="st0" width="81.1" height="106.1"/>
			</g>
		</g>
		<g>
			<g>
				<polygon class="st0" points="399.5,459.5 329.9,516.5 329.9,361.6 469,361.6 469,516.5 				"/>
				<g>
					<defs>
						<polygon id="SVGID_3_" points="490,558.7 399.4,484.4 308.7,558.7 308.7,342.9 490,342.9 						"/>
					</defs>
					<clipPath id="SVGID_4_">
						<use xlink:href="#SVGID_3_"  style="overflow:visible;"/>
					</clipPath>
					<use xlink:href="#SVGID_3_"  style="overflow:visible;fill:none;stroke:#414042;stroke-width:8;stroke-miterlimit:10;"/>
				</g>
			</g>
			<g>
				<rect x="308.7" y="7.7" class="st1" width="181.3" height="134"/>
				
					<rect x="346.3" y="9" transform="matrix(-1.836970e-16 1 -1 -1.836970e-16 477.8354 -320.9105)" class="st0" width="106.2" height="138.9"/>
			</g>
		</g>
		<g>
			<g>
				<g>
					<circle class="st2" cx="677.2" cy="297" r="116.6"/>
					<path class="st3" d="M677.2,409.4c-62,0-112.4-50.4-112.4-112.4s50.4-112.4,112.4-112.4S789.6,235,789.6,297
						S739.2,409.4,677.2,409.4z"/>
				</g>
				<g>
					<g>
						<g>
							<path class="st4" d="M618.7,218.7c16.3-12.2,36.5-19.4,58.4-19.4c21.6,0,41.5,7,57.7,18.9"/>
							<path class="st5" d="M633.2,220.7c12.9-7.6,27.9-12,43.9-12c16.2,0,31.3,4.4,44.3,12.2"/>
						</g>
						<g>
							<g>
								<circle class="st6" cx="677.2" cy="297.7" r="50.6"/>
								<polygon class="st7" points="677.2,320.9 650.5,333.5 655.4,305 634.1,283.7 663.7,279.4 677.2,252.1 690.6,279.4 
									720.2,283.7 699,305 703.8,333.5 								"/>
							</g>
							<g>
								<polygon class="st6" points="677.2,232.1 672.2,234.5 673.1,229.1 669.1,225.1 674.6,224.3 677.2,219.2 679.7,224.3 
									685.3,225.1 681.3,229.1 682.2,234.5 								"/>
								<polygon class="st6" points="698.7,236.3 693.7,238.7 694.6,233.3 690.6,229.3 696.2,228.5 698.7,223.4 701.2,228.5 
									706.8,229.3 702.8,233.3 703.7,238.7 								"/>
								<polygon class="st6" points="718.5,247.4 713.4,249.8 714.4,244.4 710.4,240.4 715.9,239.6 718.5,234.5 721,239.6 
									726.5,240.4 722.6,244.4 723.5,249.8 								"/>
								<polygon class="st6" points="637.2,247.4 632.2,249.8 633.1,244.4 629.1,240.4 634.7,239.6 637.2,234.5 639.8,239.6 
									645.3,240.4 641.3,244.4 642.2,249.8 								"/>
								<polygon class="st6" points="655.6,236.3 650.6,238.7 651.5,233.3 647.6,229.3 653.1,228.5 655.6,223.4 658.2,228.5 
									663.7,229.3 659.7,233.3 660.7,238.7 								"/>
							</g>
						</g>
					</g>
					<g>
						<polygon class="st6" points="677.2,390.4 668.8,394.4 670.4,385.4 663.7,378.8 673,377.4 677.2,368.9 681.4,377.4 
							690.6,378.8 684,385.4 685.5,394.4 						"/>
						<g>
							<path class="st6" d="M596.6,263.5c10,1,12.2-9.1,12.2-9.1C599.7,253.6,596.6,263.5,596.6,263.5z"/>
							<path class="st6" d="M660.3,383.6c0,0-2.3-0.5-3.6-0.9c-0.6-0.2-1.4-0.5-2.4-0.8c5.2-6.1,0.7-13.4,0.7-13.4
								c-4.7,3.8-4.4,9-3.6,12.3c-0.1,0-0.1-0.1-0.2-0.1c-2.1-0.8-4.7-2-7.5-3.4c5.8-5.9,1.5-13.5,1.5-13.5c-4.8,3.6-4.7,8.9-4,12.1
								c-2.2-1.2-4.6-2.6-7-4.3c6.5-5.6,2.4-13.6,2.4-13.6c-5.2,3.5-5,9.1-4.4,12.2c-0.6-0.4-1.2-0.8-1.8-1.2
								c-0.9-0.7-1.8-1.4-2.7-2.1c-0.7-0.6-1.5-1.2-2.2-1.8c6.8-5.3,3-13.5,3-13.5c-5.2,3.2-5.4,8.6-5,11.8
								c-0.4-0.4-0.9-0.8-1.3-1.2c-0.9-0.8-1.8-1.7-2.7-2.6c-0.4-0.4-0.9-0.9-1.3-1.3c-0.4-0.5-0.9-0.9-1.3-1.4c0,0,0,0,0,0
								c7.6-4.9,4.1-13.6,4.1-13.6c-5.6,3.2-5.8,9-5.4,12.1c-0.4-0.5-0.9-0.9-1.3-1.4c-0.8-1-1.6-2.1-2.5-3.1
								c-0.9-1-1.6-2.2-2.4-3.3c-0.2-0.2-0.3-0.5-0.5-0.7c7.7-2.8,7.1-11.5,7.1-11.5c-5.8,1.2-7.9,6-8.6,9.2
								c-0.1-0.1-0.2-0.2-0.2-0.4c-0.7-1.2-1.5-2.4-2.2-3.5c-0.7-1.2-1.3-2.5-2-3.7c-0.1-0.2-0.2-0.4-0.3-0.6
								c8.7-1.3,9.3-10.5,9.3-10.5c-6.6,0.5-9.2,6-10.1,8.9c-0.3-0.5-0.5-1.1-0.8-1.6c-0.6-1.3-1.2-2.6-1.7-3.9
								c-0.4-1-0.8-2.1-1.2-3.1c8.5-1.4,9-10.5,9-10.5c-6.1,0.4-8.8,5.1-9.9,8.2l-0.9-2.6c-0.2-0.7-0.5-1.4-0.7-2.1l-0.5-2.1
								c-0.3-1.1-0.6-2.2-0.8-3.3c8.7-0.6,10.1-9.7,10.1-9.7c-6.2-0.1-9.3,4.5-10.6,7.4c-0.4-2.4-0.9-4.7-1.2-7.1
								c-0.1-0.7-0.2-1.4-0.2-2.1c0,0,0.1,0,0.1,0c0,0,0-0.2-0.1-0.4c8.7-0.1,10.6-9,10.6-9c-5.9-0.5-9.3,3.6-10.9,6.4
								c-0.2-3.2-0.3-6.4-0.2-9.6c9.4,0.7,11.7-8.9,11.7-8.9c-6.9-0.6-10.4,4.9-11.6,7.5c0-0.2,0-0.4,0-0.6c0.1-1.4,0.2-2.7,0.3-4
								c0.1-1.3,0.3-2.6,0.5-3.9c0.1-0.8,0.2-1.5,0.3-2.3c9.6,0.2,11.3-9.6,11.3-9.6c-6.4-0.2-9.6,4.6-10.9,7.5
								c0.2-1.1,0.4-2.1,0.6-3.2c0.2-1.2,0.6-2.4,0.9-3.6c0.3-1.2,0.6-2.3,0.9-3.5c0.7-2.2,1.4-4.4,2.2-6.5c0.4-1,0.8-2,1.2-3
								c0.4-1,0.7-1.9,1.2-2.8c0.3-0.6,0.6-1.3,0.9-1.9c0,0.1-0.1,0.2-0.1,0.2c10.1,1.2,12.5-8.9,12.5-8.9c-6-0.6-9.5,3.3-11.2,6.2
								c0.1-0.2,0.1-0.3,0.2-0.5c0-0.1,0.1-0.2,0.1-0.2c0.8-1.6,1.6-3,2.4-4.4c0.8-1.3,1.6-2.5,2.2-3.6c0.3-0.5,0.6-1,0.9-1.5
								c9.9,0.5,11.8-9.5,11.8-9.5c-9.2-0.5-12.2,9.5-12.2,9.5c0.1,0,0.2,0,0.2,0c-0.2,0.2-0.3,0.5-0.5,0.7l0,0l0,0.1
								c-0.1,0.2-0.3,0.4-0.4,0.6c-0.7,1.1-1.5,2.3-2.3,3.6c-0.6,1-1.2,2.2-1.9,3.3c0.8-3.1,0.8-7.3-2.8-10.8c0,0-6.1,8,0.7,14.8
								c-0.3,0.7-0.7,1.4-1,2.1c-0.5,0.9-0.8,1.8-1.2,2.8c-0.4,1-0.8,2-1.2,3c-0.3,0.8-0.6,1.6-0.9,2.5c0.5-3.2,0.6-8.8-4.7-12.1
								c0,0-4.4,9.2,3.9,14.4c-0.2,0.6-0.4,1.1-0.6,1.7c-0.3,1.1-0.6,2.3-1,3.5c-0.3,1.2-0.7,2.4-0.9,3.6c-0.2,1.1-0.5,2.3-0.7,3.4
								c0-3.3-0.9-8.3-6.2-10.7c0,0-3.2,9.6,5.6,13.6c-0.1,0.4-0.2,0.8-0.2,1.3c-0.2,1.3-0.4,2.6-0.5,4c-0.1,1.3-0.2,2.7-0.3,4
								c-1-2.9-3.7-8.2-10.1-8.4c0,0,0.7,9.7,10.1,10.3c-0.1,3-0.2,6,0,9.1c-1.7-2.7-4.8-5.9-10.1-5.5c0,0,1.7,9,10.3,9.1
								c0.1,0.8,0.1,1.5,0.2,2.3c0.2,2.5,0.6,4.9,1.1,7.4c-2-2.4-6.3-6-12.3-4.1c0,0,3.9,8.6,12.7,6.2c0.2,1.1,0.5,2.2,0.8,3.4
								l0.5,2.1c0.2,0.7,0.4,1.4,0.6,2.1l0.8,2.6c-2.8-1.6-7.7-3.4-12.6,0.1c0,0,6.1,6.6,13.5,2.4c0.4,1.1,0.8,2.1,1.2,3.2
								c0.5,1.4,1.1,2.7,1.7,4c0.2,0.4,0.4,0.8,0.5,1.2c-2.6-1.7-7.9-3.9-13.1-0.2c0,0,6.4,6.9,14,2c0.1,0.3,0.3,0.6,0.4,0.9
								c0.7,1.3,1.3,2.5,2,3.8c0.7,1.2,1.5,2.4,2.2,3.7c0,0.1,0.1,0.1,0.1,0.2c-2.8-1.5-8.1-3.2-12.9,0.7c0,0,6.8,6.4,14.1,1.1
								c0.3,0.5,0.7,1,1,1.5c0.8,1.1,1.5,2.3,2.4,3.4c0.8,1.1,1.7,2.2,2.5,3.2c0.4,0.5,0.8,0.9,1.1,1.3c-2.8-1.4-8.3-3.2-13.1,0.9
								c0,0,7.1,6.5,14.5,0.6c0,0.1,0.1,0.1,0.1,0.2c0.4,0.5,0.9,1,1.3,1.5c0.5,0.5,0.9,0.9,1.4,1.4c0.9,0.9,1.8,1.9,2.7,2.7
								c0.3,0.3,0.7,0.6,1,0.9c-3.2-0.5-8.3-0.3-11.6,4.4c0,0,8.1,4.2,13.8-2.4c0.8,0.7,1.5,1.4,2.3,2c0.9,0.7,1.8,1.5,2.7,2.2
								c0.4,0.3,0.8,0.6,1.2,0.9c-3.3,0-8.3,1-10.8,6.2c0,0,8.7,2.8,13.2-4.5c2.3,1.6,4.6,3.1,6.8,4.4c-3.3,0.4-8.2,1.9-10.1,7.4
								c0,0,9,1.9,12.7-5.9c3.1,1.7,5.9,3,8.3,4c0,0,0,0,0,0c-3.3,0-8.4,1-11,6.3c0,0,9.3,3.1,13.8-5.1c1.1,0.4,2,0.7,2.7,1
								c1.3,0.5,2,0.7,2,0.7c6.6,2.3,12.4,3.3,12.4,3.3l2.7-4.7C665.5,384.7,660.3,383.6,660.3,383.6z"/>
						</g>
						<g>
							<path class="st6" d="M756.4,263.5c-10,1-12.2-9.1-12.2-9.1C753.3,253.6,756.4,263.5,756.4,263.5z"/>
							<path class="st6" d="M692.7,383.6c0,0,2.3-0.5,3.6-0.9c0.6-0.2,1.4-0.5,2.4-0.8c-5.2-6.1-0.7-13.4-0.7-13.4
								c4.7,3.8,4.4,9,3.6,12.3c0.1,0,0.1-0.1,0.2-0.1c2.1-0.8,4.7-2,7.5-3.4c-5.8-5.9-1.5-13.5-1.5-13.5c4.8,3.6,4.7,8.9,4,12.1
								c2.2-1.2,4.6-2.6,7-4.3c-6.5-5.6-2.4-13.6-2.4-13.6c5.2,3.5,5,9.1,4.4,12.2c0.6-0.4,1.2-0.8,1.8-1.2c0.9-0.7,1.8-1.4,2.7-2.1
								c0.7-0.6,1.5-1.2,2.2-1.8c-6.8-5.3-3-13.5-3-13.5c5.2,3.2,5.4,8.6,5,11.8c0.4-0.4,0.9-0.8,1.3-1.2c0.9-0.8,1.8-1.7,2.7-2.6
								c0.4-0.4,0.9-0.9,1.3-1.3c0.4-0.5,0.9-0.9,1.3-1.4c0,0,0,0,0,0c-7.6-4.9-4.1-13.6-4.1-13.6c5.6,3.2,5.8,9,5.4,12.1
								c0.4-0.5,0.9-0.9,1.3-1.4c0.8-1,1.6-2.1,2.5-3.1c0.9-1,1.6-2.2,2.4-3.3c0.2-0.2,0.3-0.5,0.5-0.7c-7.7-2.8-7.1-11.5-7.1-11.5
								c5.8,1.2,7.9,6,8.6,9.2c0.1-0.1,0.2-0.2,0.2-0.4c0.7-1.2,1.5-2.4,2.2-3.5c0.7-1.2,1.3-2.5,2-3.7c0.1-0.2,0.2-0.4,0.3-0.6
								c-8.7-1.3-9.3-10.5-9.3-10.5c6.6,0.5,9.2,6,10.1,8.9c0.3-0.5,0.5-1.1,0.8-1.6c0.6-1.3,1.2-2.6,1.7-3.9c0.4-1,0.8-2.1,1.2-3.1
								c-8.5-1.4-9-10.5-9-10.5c6.1,0.4,8.8,5.1,9.9,8.2l0.9-2.6c0.2-0.7,0.5-1.4,0.7-2.1l0.5-2.1c0.3-1.1,0.6-2.2,0.8-3.3
								c-8.7-0.6-10.1-9.7-10.1-9.7c6.2-0.1,9.3,4.5,10.6,7.4c0.4-2.4,0.9-4.7,1.2-7.1c0.1-0.7,0.2-1.4,0.2-2.1c0,0-0.1,0-0.1,0
								c0,0,0-0.2,0.1-0.4c-8.7-0.1-10.6-9-10.6-9c5.9-0.5,9.3,3.6,10.9,6.4c0.2-3.2,0.3-6.4,0.2-9.6c-9.4,0.7-11.7-8.9-11.7-8.9
								c6.9-0.6,10.4,4.9,11.6,7.5c0-0.2,0-0.4,0-0.6c-0.1-1.4-0.2-2.7-0.3-4c-0.1-1.3-0.3-2.6-0.5-3.9c-0.1-0.8-0.2-1.5-0.3-2.3
								c-9.6,0.2-11.3-9.6-11.3-9.6c6.4-0.2,9.6,4.6,10.9,7.5c-0.2-1.1-0.4-2.1-0.6-3.2c-0.2-1.2-0.6-2.4-0.9-3.6
								c-0.3-1.2-0.6-2.3-0.9-3.5c-0.7-2.2-1.4-4.4-2.2-6.5c-0.4-1-0.8-2-1.2-3c-0.4-1-0.7-1.9-1.2-2.8c-0.3-0.6-0.6-1.3-0.9-1.9
								c0,0.1,0.1,0.2,0.1,0.2c-10.1,1.2-12.5-8.9-12.5-8.9c6-0.6,9.5,3.3,11.2,6.2c-0.1-0.2-0.1-0.3-0.2-0.5c0-0.1-0.1-0.2-0.1-0.2
								c-0.8-1.6-1.6-3-2.4-4.4c-0.8-1.3-1.6-2.5-2.2-3.6c-0.3-0.5-0.6-1-0.9-1.5c-9.9,0.5-11.8-9.5-11.8-9.5
								c9.2-0.5,12.2,9.5,12.2,9.5c-0.1,0-0.2,0-0.2,0c0.2,0.2,0.3,0.5,0.5,0.7l0,0l0,0.1c0.1,0.2,0.3,0.4,0.4,0.6
								c0.7,1.1,1.5,2.3,2.3,3.6c0.6,1,1.2,2.2,1.9,3.3c-0.8-3.1-0.8-7.3,2.8-10.8c0,0,6.1,8-0.7,14.8c0.3,0.7,0.7,1.4,1,2.1
								c0.5,0.9,0.8,1.8,1.2,2.8c0.4,1,0.8,2,1.2,3c0.3,0.8,0.6,1.6,0.9,2.5c-0.5-3.2-0.6-8.8,4.7-12.1c0,0,4.4,9.2-3.9,14.4
								c0.2,0.6,0.4,1.1,0.6,1.7c0.3,1.1,0.6,2.3,1,3.5c0.3,1.2,0.7,2.4,0.9,3.6c0.2,1.1,0.5,2.3,0.7,3.4c0-3.3,0.9-8.3,6.1-10.7
								c0,0,3.2,9.6-5.6,13.6c0.1,0.4,0.2,0.8,0.2,1.3c0.2,1.3,0.4,2.6,0.5,4c0.1,1.3,0.2,2.7,0.3,4c1-2.9,3.7-8.2,10.1-8.4
								c0,0-0.7,9.7-10.1,10.3c0.1,3,0.2,6,0,9.1c1.7-2.7,4.8-5.9,10.1-5.5c0,0-1.7,9-10.3,9.1c-0.1,0.8-0.1,1.5-0.2,2.3
								c-0.2,2.5-0.6,4.9-1.1,7.4c2-2.4,6.3-6,12.3-4.1c0,0-3.9,8.6-12.7,6.2c-0.2,1.1-0.5,2.2-0.8,3.4l-0.5,2.1
								c-0.2,0.7-0.4,1.4-0.6,2.1l-0.8,2.6c2.8-1.6,7.7-3.4,12.6,0.1c0,0-6.1,6.6-13.5,2.4c-0.4,1.1-0.8,2.1-1.2,3.2
								c-0.5,1.4-1.1,2.7-1.7,4c-0.2,0.4-0.4,0.8-0.5,1.2c2.6-1.7,7.9-3.9,13.1-0.2c0,0-6.4,6.9-14,2c-0.1,0.3-0.3,0.6-0.4,0.9
								c-0.7,1.3-1.3,2.5-2,3.8c-0.7,1.2-1.5,2.4-2.2,3.7c0,0.1-0.1,0.1-0.1,0.2c2.8-1.5,8.1-3.2,12.9,0.7c0,0-6.8,6.4-14.1,1.1
								c-0.3,0.5-0.7,1-1,1.5c-0.8,1.1-1.5,2.3-2.4,3.4c-0.8,1.1-1.7,2.2-2.5,3.2c-0.4,0.5-0.8,0.9-1.1,1.3
								c2.8-1.4,8.3-3.2,13.1,0.9c0,0-7.1,6.5-14.5,0.6c0,0.1-0.1,0.1-0.1,0.2c-0.4,0.5-0.9,1-1.3,1.5c-0.5,0.5-0.9,0.9-1.4,1.4
								c-0.9,0.9-1.8,1.9-2.7,2.7c-0.3,0.3-0.7,0.6-1,0.9c3.2-0.5,8.3-0.3,11.6,4.4c0,0-8.1,4.2-13.8-2.4c-0.8,0.7-1.5,1.4-2.3,2
								c-0.9,0.7-1.8,1.5-2.7,2.2c-0.4,0.3-0.8,0.6-1.2,0.9c3.3,0,8.3,1,10.8,6.2c0,0-8.7,2.8-13.2-4.5c-2.3,1.6-4.6,3.1-6.8,4.4
								c3.3,0.4,8.2,1.9,10.1,7.4c0,0-9,1.9-12.7-5.9c-3.1,1.7-5.9,3-8.3,4c0,0,0,0,0,0c3.3,0,8.4,1,11,6.3c0,0-9.3,3.1-13.8-5.1
								c-1.1,0.4-2,0.7-2.7,1c-1.3,0.5-2,0.7-2,0.7c-6.6,2.3-12.4,3.3-12.4,3.3l-2.7-4.7C687.5,384.7,692.7,383.6,692.7,383.6z"/>
						</g>
					</g>
				</g>
			</g>
			<path class="st8" d="M675.1,184.3v233.2c29.6-0.2,59.2-11.5,81.8-34.1c45.5-45.5,45.5-119.4,0-165
				C734.3,195.8,704.7,184.4,675.1,184.3z"/>
		</g>
	</g>
	<g>
		<g>
			<g>
				<polygon class="st0" points="122,461.8 68.9,505.3 68.9,387 175.1,387 175.1,505.3 				"/>
				<g>
					<defs>
						<polygon id="SVGID_5_" points="191.2,537.5 121.9,480.8 52.7,537.5 52.7,372.7 191.2,372.7 						"/>
					</defs>
					<clipPath id="SVGID_6_">
						<use xlink:href="#SVGID_5_"  style="overflow:visible;"/>
					</clipPath>
					<use xlink:href="#SVGID_5_"  style="overflow:visible;fill:none;stroke:#414042;stroke-width:8;stroke-miterlimit:10;"/>
				</g>
			</g>
			<g>
				<rect x="52.7" y="116.7" class="st1" width="138.5" height="102.3"/>
				
					<rect x="81.4" y="117.7" transform="matrix(-1.836970e-16 1 -1 -1.836970e-16 292.698 48.7771)" class="st0" width="81.1" height="106.1"/>
			</g>
		</g>
		<g>
			<g>
				<g>
					<circle class="st2" cx="121.2" cy="297" r="116.6"/>
					<path class="st3" d="M121.2,409.4C59.2,409.4,8.7,359,8.7,297s50.4-112.4,112.4-112.4S233.6,235,233.6,297
						S183.2,409.4,121.2,409.4z"/>
				</g>
				<g>
					<g>
						<g>
							<path class="st4" d="M62.7,218.7c16.3-12.2,36.5-19.4,58.4-19.4c21.6,0,41.5,7,57.7,18.9"/>
							<path class="st5" d="M77.2,220.7c12.9-7.6,27.9-12,43.9-12c16.2,0,31.3,4.4,44.3,12.2"/>
						</g>
						<g>
							<g>
								<circle class="st6" cx="121.2" cy="297.7" r="50.6"/>
								<polygon class="st7" points="121.2,320.9 94.5,333.5 99.4,305 78.1,283.7 107.7,279.4 121.2,252.1 134.6,279.4 164.2,283.7 
									143,305 147.8,333.5 								"/>
							</g>
							<g>
								<polygon class="st6" points="121.2,232.1 116.2,234.5 117.1,229.1 113.1,225.1 118.6,224.3 121.2,219.2 123.7,224.3 
									129.3,225.1 125.3,229.1 126.2,234.5 								"/>
								<polygon class="st6" points="142.7,236.3 137.7,238.7 138.6,233.3 134.6,229.3 140.2,228.5 142.7,223.4 145.2,228.5 
									150.8,229.3 146.8,233.3 147.7,238.7 								"/>
								<polygon class="st6" points="162.5,247.4 157.4,249.8 158.4,244.4 154.4,240.4 159.9,239.6 162.5,234.5 165,239.6 
									170.5,240.4 166.6,244.4 167.5,249.8 								"/>
								<polygon class="st6" points="81.2,247.4 76.2,249.8 77.1,244.4 73.1,240.4 78.7,239.6 81.2,234.5 83.8,239.6 89.3,240.4 
									85.3,244.4 86.2,249.8 								"/>
								<polygon class="st6" points="99.6,236.3 94.6,238.7 95.5,233.3 91.6,229.3 97.1,228.5 99.6,223.4 102.2,228.5 107.7,229.3 
									103.7,233.3 104.7,238.7 								"/>
							</g>
						</g>
					</g>
					<g>
						<polygon class="st6" points="121.2,390.4 112.8,394.4 114.4,385.4 107.7,378.8 117,377.4 121.2,368.9 125.4,377.4 
							134.6,378.8 128,385.4 129.5,394.4 						"/>
						<g>
							<path class="st6" d="M40.6,263.5c10,1,12.2-9.1,12.2-9.1C43.7,253.6,40.6,263.5,40.6,263.5z"/>
							<path class="st6" d="M104.3,383.6c0,0-2.3-0.5-3.6-0.9c-0.6-0.2-1.4-0.5-2.4-0.8c5.2-6.1,0.7-13.4,0.7-13.4
								c-4.7,3.8-4.4,9-3.6,12.3c-0.1,0-0.1-0.1-0.2-0.1c-2.1-0.8-4.7-2-7.5-3.4c5.8-5.9,1.5-13.5,1.5-13.5c-4.8,3.6-4.7,8.9-4,12.1
								c-2.2-1.2-4.6-2.6-7-4.3c6.5-5.6,2.4-13.6,2.4-13.6c-5.2,3.5-5,9.1-4.4,12.2c-0.6-0.4-1.2-0.8-1.8-1.2
								c-0.9-0.7-1.8-1.4-2.7-2.1c-0.7-0.6-1.5-1.2-2.2-1.8c6.8-5.3,3-13.5,3-13.5c-5.2,3.2-5.4,8.6-5,11.8
								c-0.4-0.4-0.9-0.8-1.3-1.2c-0.9-0.8-1.8-1.7-2.7-2.6c-0.4-0.4-0.9-0.9-1.3-1.3c-0.4-0.5-0.9-0.9-1.3-1.4c0,0,0,0,0,0
								c7.6-4.9,4.1-13.6,4.1-13.6c-5.6,3.2-5.8,9-5.4,12.1c-0.4-0.5-0.9-0.9-1.3-1.4c-0.8-1-1.6-2.1-2.5-3.1
								c-0.9-1-1.6-2.2-2.4-3.3c-0.2-0.2-0.3-0.5-0.5-0.7c7.7-2.8,7.1-11.5,7.1-11.5c-5.8,1.2-7.9,6-8.6,9.2
								c-0.1-0.1-0.2-0.2-0.2-0.4c-0.7-1.2-1.5-2.4-2.2-3.5c-0.7-1.2-1.3-2.5-2-3.7c-0.1-0.2-0.2-0.4-0.3-0.6
								c8.7-1.3,9.3-10.5,9.3-10.5c-6.6,0.5-9.2,6-10.1,8.9c-0.3-0.5-0.5-1.1-0.8-1.6c-0.6-1.3-1.2-2.6-1.7-3.9
								c-0.4-1-0.8-2.1-1.2-3.1c8.5-1.4,9-10.5,9-10.5c-6.1,0.4-8.8,5.1-9.9,8.2l-0.9-2.6c-0.2-0.7-0.5-1.4-0.7-2.1l-0.5-2.1
								c-0.3-1.1-0.6-2.2-0.8-3.3c8.7-0.6,10.1-9.7,10.1-9.7c-6.2-0.1-9.3,4.5-10.6,7.4c-0.4-2.4-0.9-4.7-1.2-7.1
								c-0.1-0.7-0.2-1.4-0.2-2.1c0,0,0.1,0,0.1,0c0,0,0-0.2-0.1-0.4c8.7-0.1,10.6-9,10.6-9c-5.9-0.5-9.3,3.6-10.9,6.4
								c-0.2-3.2-0.3-6.4-0.2-9.6c9.4,0.7,11.7-8.9,11.7-8.9c-6.9-0.6-10.4,4.9-11.6,7.5c0-0.2,0-0.4,0-0.6c0.1-1.4,0.2-2.7,0.3-4
								c0.1-1.3,0.3-2.6,0.5-3.9c0.1-0.8,0.2-1.5,0.3-2.3c9.6,0.2,11.3-9.6,11.3-9.6c-6.4-0.2-9.6,4.6-10.9,7.5
								c0.2-1.1,0.4-2.1,0.6-3.2c0.2-1.2,0.6-2.4,0.9-3.6c0.3-1.2,0.6-2.3,0.9-3.5c0.7-2.2,1.4-4.4,2.2-6.5c0.4-1,0.8-2,1.2-3
								c0.4-1,0.7-1.9,1.2-2.8c0.3-0.6,0.6-1.3,0.9-1.9c0,0.1-0.1,0.2-0.1,0.2c10.1,1.2,12.5-8.9,12.5-8.9c-6-0.6-9.5,3.3-11.2,6.2
								c0.1-0.2,0.1-0.3,0.2-0.5c0-0.1,0.1-0.2,0.1-0.2c0.8-1.6,1.6-3,2.4-4.4c0.8-1.3,1.6-2.5,2.2-3.6c0.3-0.5,0.6-1,0.9-1.5
								c9.9,0.5,11.8-9.5,11.8-9.5c-9.2-0.5-12.2,9.5-12.2,9.5c0.1,0,0.2,0,0.2,0c-0.2,0.2-0.3,0.5-0.5,0.7l0,0l0,0.1
								c-0.1,0.2-0.3,0.4-0.4,0.6c-0.7,1.1-1.5,2.3-2.3,3.6c-0.6,1-1.2,2.2-1.9,3.3c0.8-3.1,0.8-7.3-2.8-10.8c0,0-6.1,8,0.7,14.8
								c-0.3,0.7-0.7,1.4-1,2.1c-0.5,0.9-0.8,1.8-1.2,2.8c-0.4,1-0.8,2-1.2,3c-0.3,0.8-0.6,1.6-0.9,2.5c0.5-3.2,0.6-8.8-4.7-12.1
								c0,0-4.4,9.2,3.9,14.4c-0.2,0.6-0.4,1.1-0.6,1.7c-0.3,1.1-0.6,2.3-1,3.5c-0.3,1.2-0.7,2.4-0.9,3.6c-0.2,1.1-0.5,2.3-0.7,3.4
								c0-3.3-0.9-8.3-6.2-10.7c0,0-3.2,9.6,5.6,13.6c-0.1,0.4-0.2,0.8-0.2,1.3c-0.2,1.3-0.4,2.6-0.5,4c-0.1,1.3-0.2,2.7-0.3,4
								c-1-2.9-3.7-8.2-10.1-8.4c0,0,0.7,9.7,10.1,10.3c-0.1,3-0.2,6,0,9.1c-1.7-2.7-4.8-5.9-10.1-5.5c0,0,1.7,9,10.3,9.1
								c0.1,0.8,0.1,1.5,0.2,2.3c0.2,2.5,0.6,4.9,1.1,7.4c-2-2.4-6.3-6-12.3-4.1c0,0,3.9,8.6,12.7,6.2c0.2,1.1,0.5,2.2,0.8,3.4
								l0.5,2.1c0.2,0.7,0.4,1.4,0.6,2.1l0.8,2.6c-2.8-1.6-7.7-3.4-12.6,0.1c0,0,6.1,6.6,13.5,2.4c0.4,1.1,0.8,2.1,1.2,3.2
								c0.5,1.4,1.1,2.7,1.7,4c0.2,0.4,0.4,0.8,0.5,1.2c-2.6-1.7-7.9-3.9-13.1-0.2c0,0,6.4,6.9,14,2c0.1,0.3,0.3,0.6,0.4,0.9
								c0.7,1.3,1.3,2.5,2,3.8c0.7,1.2,1.5,2.4,2.2,3.7c0,0.1,0.1,0.1,0.1,0.2c-2.8-1.5-8.1-3.2-12.9,0.7c0,0,6.8,6.4,14.1,1.1
								c0.3,0.5,0.7,1,1,1.5c0.8,1.1,1.5,2.3,2.4,3.4c0.8,1.1,1.7,2.2,2.5,3.2c0.4,0.5,0.8,0.9,1.1,1.3c-2.8-1.4-8.3-3.2-13.1,0.9
								c0,0,7.1,6.5,14.5,0.6c0,0.1,0.1,0.1,0.1,0.2c0.4,0.5,0.9,1,1.3,1.5c0.5,0.5,0.9,0.9,1.4,1.4c0.9,0.9,1.8,1.9,2.7,2.7
								c0.3,0.3,0.7,0.6,1,0.9c-3.2-0.5-8.3-0.3-11.6,4.4c0,0,8.1,4.2,13.8-2.4c0.8,0.7,1.5,1.4,2.3,2c0.9,0.7,1.8,1.5,2.7,2.2
								c0.4,0.3,0.8,0.6,1.2,0.9c-3.3,0-8.3,1-10.8,6.2c0,0,8.7,2.8,13.2-4.5c2.3,1.6,4.6,3.1,6.8,4.4c-3.3,0.4-8.2,1.9-10.1,7.4
								c0,0,9,1.9,12.7-5.9c3.1,1.7,5.9,3,8.3,4c0,0,0,0,0,0c-3.3,0-8.4,1-11,6.3c0,0,9.3,3.1,13.8-5.1c1.1,0.4,2,0.7,2.7,1
								c1.3,0.5,2,0.7,2,0.7c6.6,2.3,12.4,3.3,12.4,3.3l2.7-4.7C109.5,384.7,104.3,383.6,104.3,383.6z"/>
						</g>
						<g>
							<path class="st6" d="M200.4,263.5c-10,1-12.2-9.1-12.2-9.1C197.3,253.6,200.4,263.5,200.4,263.5z"/>
							<path class="st6" d="M136.7,383.6c0,0,2.3-0.5,3.6-0.9c0.6-0.2,1.4-0.5,2.4-0.8c-5.2-6.1-0.7-13.4-0.7-13.4
								c4.7,3.8,4.4,9,3.6,12.3c0.1,0,0.1-0.1,0.2-0.1c2.1-0.8,4.7-2,7.5-3.4c-5.8-5.9-1.5-13.5-1.5-13.5c4.8,3.6,4.7,8.9,4,12.1
								c2.2-1.2,4.6-2.6,7-4.3c-6.5-5.6-2.4-13.6-2.4-13.6c5.2,3.5,5,9.1,4.4,12.2c0.6-0.4,1.2-0.8,1.8-1.2c0.9-0.7,1.8-1.4,2.7-2.1
								c0.7-0.6,1.5-1.2,2.2-1.8c-6.8-5.3-3-13.5-3-13.5c5.2,3.2,5.4,8.6,5,11.8c0.4-0.4,0.9-0.8,1.3-1.2c0.9-0.8,1.8-1.7,2.7-2.6
								c0.4-0.4,0.9-0.9,1.3-1.3c0.4-0.5,0.9-0.9,1.3-1.4c0,0,0,0,0,0c-7.6-4.9-4.1-13.6-4.1-13.6c5.6,3.2,5.8,9,5.4,12.1
								c0.4-0.5,0.9-0.9,1.3-1.4c0.8-1,1.6-2.1,2.5-3.1c0.9-1,1.6-2.2,2.4-3.3c0.2-0.2,0.3-0.5,0.5-0.7c-7.7-2.8-7.1-11.5-7.1-11.5
								c5.8,1.2,7.9,6,8.6,9.2c0.1-0.1,0.2-0.2,0.2-0.4c0.7-1.2,1.5-2.4,2.2-3.5c0.7-1.2,1.3-2.5,2-3.7c0.1-0.2,0.2-0.4,0.3-0.6
								c-8.7-1.3-9.3-10.5-9.3-10.5c6.6,0.5,9.2,6,10.1,8.9c0.3-0.5,0.5-1.1,0.8-1.6c0.6-1.3,1.2-2.6,1.7-3.9c0.4-1,0.8-2.1,1.2-3.1
								c-8.5-1.4-9-10.5-9-10.5c6.1,0.4,8.8,5.1,9.9,8.2l0.9-2.6c0.2-0.7,0.5-1.4,0.7-2.1l0.5-2.1c0.3-1.1,0.6-2.2,0.8-3.3
								c-8.7-0.6-10.1-9.7-10.1-9.7c6.2-0.1,9.3,4.5,10.6,7.4c0.4-2.4,0.9-4.7,1.2-7.1c0.1-0.7,0.2-1.4,0.2-2.1c0,0-0.1,0-0.1,0
								c0,0,0-0.2,0.1-0.4c-8.7-0.1-10.6-9-10.6-9c5.9-0.5,9.3,3.6,10.9,6.4c0.2-3.2,0.3-6.4,0.2-9.6c-9.4,0.7-11.7-8.9-11.7-8.9
								c6.9-0.6,10.4,4.9,11.6,7.5c0-0.2,0-0.4,0-0.6c-0.1-1.4-0.2-2.7-0.3-4c-0.1-1.3-0.3-2.6-0.5-3.9c-0.1-0.8-0.2-1.5-0.3-2.3
								c-9.6,0.2-11.3-9.6-11.3-9.6c6.4-0.2,9.6,4.6,10.9,7.5c-0.2-1.1-0.4-2.1-0.6-3.2c-0.2-1.2-0.6-2.4-0.9-3.6
								c-0.3-1.2-0.6-2.3-0.9-3.5c-0.7-2.2-1.4-4.4-2.2-6.5c-0.4-1-0.8-2-1.2-3c-0.4-1-0.7-1.9-1.2-2.8c-0.3-0.6-0.6-1.3-0.9-1.9
								c0,0.1,0.1,0.2,0.1,0.2c-10.1,1.2-12.5-8.9-12.5-8.9c6-0.6,9.5,3.3,11.2,6.2c-0.1-0.2-0.1-0.3-0.2-0.5c0-0.1-0.1-0.2-0.1-0.2
								c-0.8-1.6-1.6-3-2.4-4.4c-0.8-1.3-1.6-2.5-2.2-3.6c-0.3-0.5-0.6-1-0.9-1.5c-9.9,0.5-11.8-9.5-11.8-9.5
								c9.2-0.5,12.2,9.5,12.2,9.5c-0.1,0-0.2,0-0.2,0c0.2,0.2,0.3,0.5,0.5,0.7l0,0l0,0.1c0.1,0.2,0.3,0.4,0.4,0.6
								c0.7,1.1,1.5,2.3,2.3,3.6c0.6,1,1.2,2.2,1.9,3.3c-0.8-3.1-0.8-7.3,2.8-10.8c0,0,6.1,8-0.7,14.8c0.3,0.7,0.7,1.4,1,2.1
								c0.5,0.9,0.8,1.8,1.2,2.8c0.4,1,0.8,2,1.2,3c0.3,0.8,0.6,1.6,0.9,2.5c-0.5-3.2-0.6-8.8,4.7-12.1c0,0,4.4,9.2-3.9,14.4
								c0.2,0.6,0.4,1.1,0.6,1.7c0.3,1.1,0.6,2.3,1,3.5c0.3,1.2,0.7,2.4,0.9,3.6c0.2,1.1,0.5,2.3,0.7,3.4c0-3.3,0.9-8.3,6.1-10.7
								c0,0,3.2,9.6-5.6,13.6c0.1,0.4,0.2,0.8,0.2,1.3c0.2,1.3,0.4,2.6,0.5,4c0.1,1.3,0.2,2.7,0.3,4c1-2.9,3.7-8.2,10.1-8.4
								c0,0-0.7,9.7-10.1,10.3c0.1,3,0.2,6,0,9.1c1.7-2.7,4.8-5.9,10.1-5.5c0,0-1.7,9-10.3,9.1c-0.1,0.8-0.1,1.5-0.2,2.3
								c-0.2,2.5-0.6,4.9-1.1,7.4c2-2.4,6.3-6,12.3-4.1c0,0-3.9,8.6-12.7,6.2c-0.2,1.1-0.5,2.2-0.8,3.4l-0.5,2.1
								c-0.2,0.7-0.4,1.4-0.6,2.1l-0.8,2.6c2.8-1.6,7.7-3.4,12.6,0.1c0,0-6.1,6.6-13.5,2.4c-0.4,1.1-0.8,2.1-1.2,3.2
								c-0.5,1.4-1.1,2.7-1.7,4c-0.2,0.4-0.4,0.8-0.5,1.2c2.6-1.7,7.9-3.9,13.1-0.2c0,0-6.4,6.9-14,2c-0.1,0.3-0.3,0.6-0.4,0.9
								c-0.7,1.3-1.3,2.5-2,3.8c-0.7,1.2-1.5,2.4-2.2,3.7c0,0.1-0.1,0.1-0.1,0.2c2.8-1.5,8.1-3.2,12.9,0.7c0,0-6.8,6.4-14.1,1.1
								c-0.3,0.5-0.7,1-1,1.5c-0.8,1.1-1.5,2.3-2.4,3.4c-0.8,1.1-1.7,2.2-2.5,3.2c-0.4,0.5-0.8,0.9-1.1,1.3
								c2.8-1.4,8.3-3.2,13.1,0.9c0,0-7.1,6.5-14.5,0.6c0,0.1-0.1,0.1-0.1,0.2c-0.4,0.5-0.9,1-1.3,1.5c-0.5,0.5-0.9,0.9-1.4,1.4
								c-0.9,0.9-1.8,1.9-2.7,2.7c-0.3,0.3-0.7,0.6-1,0.9c3.2-0.5,8.3-0.3,11.6,4.4c0,0-8.1,4.2-13.8-2.4c-0.8,0.7-1.5,1.4-2.3,2
								c-0.9,0.7-1.8,1.5-2.7,2.2c-0.4,0.3-0.8,0.6-1.2,0.9c3.3,0,8.3,1,10.8,6.2c0,0-8.7,2.8-13.2-4.5c-2.3,1.6-4.6,3.1-6.8,4.4
								c3.3,0.4,8.2,1.9,10.1,7.4c0,0-9,1.9-12.7-5.9c-3.1,1.7-5.9,3-8.3,4c0,0,0,0,0,0c3.3,0,8.4,1,11,6.3c0,0-9.3,3.1-13.8-5.1
								c-1.1,0.4-2,0.7-2.7,1c-1.3,0.5-2,0.7-2,0.7c-6.6,2.3-12.4,3.3-12.4,3.3l-2.7-4.7C131.5,384.7,136.7,383.6,136.7,383.6z"/>
						</g>
					</g>
				</g>
			</g>
			<path class="st8" d="M119.1,184.3l0,233.2c29.6-0.2,59.2-11.5,81.8-34.1c45.5-45.5,45.5-119.4,0-165
				C178.3,195.8,148.7,184.4,119.1,184.3z"/>
		</g>
	</g>
	<g>
		<g>
			<g>
				<g>
					<circle class="st2" cx="398.6" cy="245.4" r="154.1"/>
					<path class="st9" d="M398.6,394C316.7,394,250,327.3,250,245.4S316.7,96.8,398.6,96.8s148.6,66.7,148.6,148.6
						S480.5,394,398.6,394z"/>
				</g>
				<g>
					<g>
						<g>
							<path class="st10" d="M321.4,141.9c21.6-16.1,48.3-25.7,77.2-25.7c28.5,0,54.8,9.3,76.2,25"/>
							<path class="st11" d="M340.5,144.6c17-10,36.9-15.8,58.1-15.8c21.4,0,41.4,5.9,58.6,16.1"/>
						</g>
						<g>
							<g>
								<circle class="st12" cx="398.6" cy="246.4" r="66.8"/>
								<polygon class="st7" points="398.6,277 363.3,293.7 369.8,256.1 341.7,227.9 380.8,222.2 398.6,186.1 416.4,222.2 
									455.4,227.9 427.4,256.1 433.9,293.7 								"/>
							</g>
							<g>
								<polygon class="st12" points="398.6,159.7 392,162.8 393.2,155.7 387.9,150.4 395.3,149.4 398.6,142.6 401.9,149.4 
									409.3,150.4 404,155.7 405.2,162.8 								"/>
								<polygon class="st12" points="427,165.2 420.4,168.4 421.6,161.3 416.4,156 423.7,154.9 427,148.2 430.4,154.9 437.7,156 
									432.5,161.3 433.7,168.4 								"/>
								<polygon class="st12" points="453.2,179.9 446.5,183 447.8,175.9 442.5,170.6 449.8,169.6 453.2,162.8 456.5,169.6 
									463.8,170.6 458.6,175.9 459.8,183 								"/>
								<polygon class="st12" points="345.8,179.9 339.2,183 340.4,175.9 335.1,170.6 342.5,169.6 345.8,162.8 349.2,169.6 
									356.5,170.6 351.2,175.9 352.4,183 								"/>
								<polygon class="st12" points="370.2,165.2 363.5,168.4 364.7,161.3 359.5,156 366.8,154.9 370.2,148.2 373.5,154.9 
									380.8,156 375.6,161.3 376.8,168.4 								"/>
							</g>
						</g>
					</g>
					<g>
						<polygon class="st12" points="398.6,368.9 387.6,374.1 389.6,362.3 380.8,353.5 393,351.8 398.6,340.5 404.2,351.8 
							416.4,353.5 407.6,362.3 409.6,374.1 						"/>
						<g>
							<path class="st12" d="M292.1,201.1c13.2,1.3,16.1-12,16.1-12C296.2,188.1,292.1,201.1,292.1,201.1z"/>
							<path class="st12" d="M376.3,359.9c0,0-3.1-0.6-4.8-1.2c-0.8-0.3-1.9-0.6-3.1-1.1c6.9-8.1,0.9-17.7,0.9-17.7
								c-6.2,5-5.8,11.9-4.7,16.2c-0.1,0-0.2-0.1-0.3-0.1c-2.8-1.1-6.2-2.7-9.9-4.5c7.6-7.7,1.9-17.8,1.9-17.8
								c-6.4,4.8-6.2,11.7-5.3,16c-2.9-1.6-6-3.5-9.2-5.6c8.6-7.4,3.2-18,3.2-18c-6.8,4.7-6.7,12-5.9,16.2c-0.8-0.5-1.5-1.1-2.3-1.6
								c-1.2-0.9-2.3-1.8-3.5-2.8c-1-0.7-1.9-1.6-2.9-2.4c9-6.9,4-17.8,4-17.8c-6.9,4.3-7.1,11.4-6.5,15.6c-0.6-0.5-1.2-1-1.8-1.6
								c-1.2-1.1-2.3-2.3-3.5-3.5c-0.6-0.6-1.2-1.2-1.8-1.8c-0.6-0.6-1.1-1.3-1.7-1.9c0,0,0,0,0,0c10-6.5,5.4-17.9,5.4-17.9
								c-7.5,4.2-7.6,11.9-7.1,16c-0.6-0.6-1.1-1.2-1.7-1.9c-1.1-1.4-2.2-2.7-3.3-4.1c-1.1-1.4-2.1-2.9-3.2-4.3
								c-0.2-0.3-0.5-0.7-0.7-1c10.2-3.6,9.4-15.2,9.4-15.2c-7.7,1.6-10.4,8-11.4,12.1c-0.1-0.2-0.2-0.3-0.3-0.5
								c-1-1.5-1.9-3.1-2.9-4.7c-0.9-1.6-1.8-3.2-2.7-4.9c-0.1-0.2-0.3-0.5-0.4-0.8c11.5-1.7,12.3-13.9,12.3-13.9
								c-8.7,0.6-12.2,8-13.4,11.8c-0.3-0.7-0.7-1.4-1-2.1c-0.8-1.7-1.6-3.4-2.3-5.2c-0.5-1.4-1.1-2.7-1.6-4.1
								c11.2-1.9,11.9-13.9,11.9-13.9c-8,0.6-11.6,6.8-13,10.8l-1.1-3.5c-0.3-0.9-0.6-1.8-0.9-2.7l-0.7-2.7
								c-0.4-1.4-0.7-2.9-1.1-4.3c11.5-0.7,13.4-12.8,13.4-12.8c-8.2-0.1-12.3,6-14,9.8c-0.6-3.1-1.2-6.2-1.5-9.3
								c-0.1-0.9-0.2-1.9-0.3-2.8c0,0,0.1,0,0.1,0c0,0-0.1-0.2-0.2-0.5c11.4-0.1,14.1-11.9,14.1-11.9c-7.8-0.6-12.3,4.8-14.4,8.5
								c-0.3-4.3-0.3-8.5-0.2-12.7c12.5,0.9,15.4-11.7,15.4-11.7c-9.1-0.9-13.7,6.5-15.4,9.9c0-0.3,0-0.5,0-0.8
								c0.1-1.8,0.2-3.6,0.4-5.3c0.1-1.8,0.4-3.5,0.6-5.2c0.1-1,0.3-2,0.5-3.1c12.6,0.3,14.9-12.6,14.9-12.6
								c-8.4-0.3-12.7,6.1-14.4,9.9c0.3-1.4,0.5-2.8,0.8-4.2c0.3-1.6,0.7-3.2,1.1-4.7c0.4-1.6,0.8-3.1,1.2-4.6
								c1-2.9,1.8-5.8,2.8-8.5c0.5-1.3,1-2.7,1.6-3.9c0.5-1.3,1-2.5,1.6-3.7c0.4-0.9,0.8-1.7,1.2-2.5c-0.1,0.1-0.1,0.2-0.1,0.2
								c13.3,1.6,16.5-11.7,16.5-11.7c-7.9-0.8-12.5,4.4-14.8,8.2c0.1-0.2,0.1-0.4,0.2-0.6c0.1-0.1,0.1-0.2,0.1-0.3
								c1.1-2.1,2.2-4,3.1-5.8c1-1.7,2.1-3.3,2.9-4.8c0.4-0.7,0.8-1.3,1.2-1.9c13.1,0.7,15.7-12.6,15.7-12.6
								c-12.2-0.7-16.1,12.6-16.1,12.6c0.1,0,0.2,0,0.3,0c-0.2,0.3-0.4,0.7-0.6,1l0-0.1l0,0.1c-0.2,0.3-0.3,0.5-0.5,0.8
								c-0.9,1.4-2,3-3,4.7c-0.8,1.4-1.6,2.9-2.5,4.4c1-4.1,1.1-9.7-3.7-14.3c0,0-8.1,10.6,0.9,19.6c-0.4,0.9-0.9,1.8-1.3,2.8
								c-0.6,1.2-1.1,2.4-1.6,3.7c-0.5,1.3-1.1,2.6-1.6,3.9c-0.4,1.1-0.8,2.2-1.2,3.3c0.7-4.2,0.8-11.6-6.2-16c0,0-5.8,12.1,5.1,19
								c-0.3,0.7-0.5,1.5-0.8,2.2c-0.4,1.5-0.8,3-1.3,4.6c-0.4,1.6-0.9,3.1-1.2,4.8c-0.3,1.5-0.6,3-1,4.5c0-4.3-1.1-10.9-8.1-14.2
								c0,0-4.2,12.7,7.5,18c-0.1,0.6-0.2,1.1-0.3,1.7c-0.2,1.7-0.6,3.5-0.7,5.2c-0.2,1.8-0.3,3.5-0.5,5.3
								c-1.3-3.9-4.8-10.8-13.4-11.2c0,0,0.9,12.8,13.3,13.6c-0.2,4-0.2,8,0,12.1c-2.2-3.6-6.4-7.8-13.3-7.3c0,0,2.2,11.9,13.6,12.1
								c0.1,1,0.2,2,0.3,3c0.2,3.3,0.9,6.5,1.4,9.7c-2.7-3.2-8.3-8-16.2-5.4c0,0,5.2,11.3,16.8,8.3c0.3,1.5,0.7,3,1,4.4l0.7,2.8
								c0.3,0.9,0.6,1.8,0.8,2.7l1.1,3.4c-3.7-2.1-10.2-4.5-16.7,0.1c0,0,8,8.7,17.8,3.1c0.5,1.4,1.1,2.8,1.6,4.2
								c0.6,1.8,1.5,3.5,2.2,5.3c0.2,0.5,0.5,1.1,0.7,1.6c-3.5-2.2-10.5-5.2-17.4-0.3c0,0,8.4,9.1,18.5,2.7c0.2,0.4,0.4,0.8,0.6,1.1
								c0.9,1.7,1.7,3.4,2.6,5c1,1.6,1.9,3.2,2.9,4.8c0,0.1,0.1,0.1,0.1,0.2c-3.7-1.9-10.7-4.2-17.1,1c0,0,9,8.5,18.7,1.5
								c0.4,0.7,0.9,1.3,1.3,2c1,1.5,2,3.1,3.2,4.5c1.1,1.4,2.2,2.9,3.3,4.3c0.5,0.6,1,1.2,1.5,1.8c-3.7-1.9-10.9-4.3-17.4,1.2
								c0,0,9.4,8.6,19.1,0.8c0.1,0.1,0.1,0.2,0.2,0.2c0.6,0.7,1.1,1.3,1.7,2c0.6,0.6,1.2,1.2,1.8,1.8c1.2,1.2,2.3,2.5,3.5,3.6
								c0.5,0.4,0.9,0.8,1.3,1.2c-4.3-0.7-10.9-0.5-15.3,5.8c0,0,10.7,5.6,18.2-3.2c1,0.9,2,1.8,3,2.6c1.2,1,2.4,2,3.6,2.9
								c0.5,0.4,1.1,0.8,1.6,1.2c-4.3,0-10.9,1.3-14.3,8.2c0,0,11.5,3.7,17.5-6c3.1,2.2,6.1,4.1,9,5.8c-4.4,0.5-10.8,2.5-13.4,9.8
								c0,0,11.9,2.5,16.8-7.9c4.1,2.2,7.8,4,10.9,5.3c0,0,0,0,0,0c-4.4,0-11.1,1.3-14.5,8.3c0,0,12.2,4,18.2-6.8
								c1.4,0.5,2.6,1,3.6,1.3c1.7,0.6,2.6,0.9,2.6,0.9c8.7,3,16.4,4.4,16.4,4.4l3.6-6.2C383.2,361.4,376.3,359.9,376.3,359.9z"/>
						</g>
						<g>
							<path class="st12" d="M503.3,201.1c-13.2,1.3-16.1-12-16.1-12C499.2,188.1,503.3,201.1,503.3,201.1z"/>
							<path class="st12" d="M419.1,359.9c0,0,3.1-0.6,4.8-1.2c0.8-0.3,1.9-0.6,3.1-1.1c-6.9-8.1-0.9-17.7-0.9-17.7
								c6.2,5,5.8,11.9,4.7,16.2c0.1,0,0.2-0.1,0.3-0.1c2.8-1.1,6.2-2.7,9.9-4.5c-7.6-7.7-1.9-17.8-1.9-17.8
								c6.4,4.8,6.2,11.7,5.3,16c2.9-1.6,6-3.5,9.2-5.6c-8.6-7.4-3.2-18-3.2-18c6.8,4.7,6.7,12,5.9,16.2c0.8-0.5,1.5-1.1,2.3-1.6
								c1.2-0.9,2.3-1.8,3.5-2.8c1-0.7,1.9-1.6,2.9-2.4c-9-6.9-4-17.8-4-17.8c6.9,4.3,7.1,11.4,6.5,15.6c0.6-0.5,1.2-1,1.8-1.6
								c1.2-1.1,2.3-2.3,3.5-3.5c0.6-0.6,1.2-1.2,1.8-1.8c0.6-0.6,1.1-1.3,1.7-1.9c0,0,0,0,0,0c-10-6.5-5.4-17.9-5.4-17.9
								c7.5,4.2,7.6,11.9,7.1,16c0.6-0.6,1.1-1.2,1.7-1.9c1.1-1.4,2.2-2.7,3.3-4.1c1.1-1.4,2.1-2.9,3.2-4.3c0.2-0.3,0.5-0.7,0.7-1
								c-10.2-3.6-9.4-15.2-9.4-15.2c7.7,1.6,10.4,8,11.4,12.1c0.1-0.2,0.2-0.3,0.3-0.5c1-1.5,1.9-3.1,2.9-4.7
								c0.9-1.6,1.8-3.2,2.7-4.9c0.1-0.2,0.3-0.5,0.4-0.8c-11.5-1.7-12.3-13.9-12.3-13.9c8.7,0.6,12.2,8,13.4,11.8
								c0.3-0.7,0.7-1.4,1-2.1c0.8-1.7,1.6-3.4,2.3-5.2c0.5-1.4,1.1-2.7,1.6-4.1c-11.2-1.9-11.9-13.9-11.9-13.9
								c8,0.6,11.6,6.8,13,10.8l1.1-3.5c0.3-0.9,0.6-1.8,0.9-2.7l0.7-2.7c0.4-1.4,0.7-2.9,1.1-4.3c-11.5-0.7-13.4-12.8-13.4-12.8
								c8.2-0.1,12.3,6,14,9.8c0.6-3.1,1.2-6.2,1.5-9.3c0.1-0.9,0.2-1.9,0.3-2.8c0,0-0.1,0-0.1,0c0,0,0.1-0.2,0.2-0.5
								c-11.4-0.1-14.1-11.9-14.1-11.9c7.8-0.6,12.3,4.8,14.4,8.5c0.3-4.3,0.3-8.5,0.2-12.7c-12.5,0.9-15.4-11.7-15.4-11.7
								c9.1-0.9,13.7,6.5,15.4,9.9c0-0.3,0-0.5,0-0.8c-0.1-1.8-0.2-3.6-0.4-5.3c-0.1-1.8-0.4-3.5-0.6-5.2c-0.1-1-0.3-2-0.5-3.1
								c-12.6,0.3-14.9-12.6-14.9-12.6c8.4-0.3,12.7,6.1,14.4,9.9c-0.3-1.4-0.5-2.8-0.8-4.2c-0.3-1.6-0.7-3.2-1.1-4.7
								c-0.4-1.6-0.8-3.1-1.2-4.6c-1-2.9-1.8-5.8-2.8-8.5c-0.5-1.3-1-2.7-1.6-3.9c-0.5-1.3-1-2.5-1.6-3.7c-0.4-0.9-0.8-1.7-1.2-2.5
								c0.1,0.1,0.1,0.2,0.1,0.2c-13.3,1.6-16.5-11.7-16.5-11.7c7.9-0.8,12.5,4.4,14.8,8.2c-0.1-0.2-0.1-0.4-0.2-0.6
								c-0.1-0.1-0.1-0.2-0.1-0.3c-1.1-2.1-2.2-4-3.1-5.8c-1-1.7-2.1-3.3-2.9-4.8c-0.4-0.7-0.8-1.3-1.2-1.9
								c-13.1,0.7-15.7-12.6-15.7-12.6c12.2-0.7,16.1,12.6,16.1,12.6c-0.1,0-0.2,0-0.3,0c0.2,0.3,0.4,0.7,0.6,1l0-0.1l0,0.1
								c0.2,0.3,0.3,0.5,0.5,0.8c0.9,1.4,2,3,3,4.7c0.8,1.4,1.6,2.9,2.5,4.4c-1-4.1-1.1-9.7,3.7-14.3c0,0,8.1,10.6-0.9,19.6
								c0.4,0.9,0.9,1.8,1.3,2.8c0.6,1.2,1.1,2.4,1.6,3.7c0.5,1.3,1.1,2.6,1.6,3.9c0.4,1.1,0.8,2.2,1.2,3.3
								c-0.7-4.2-0.8-11.6,6.2-16c0,0,5.8,12.1-5.1,19c0.3,0.7,0.5,1.5,0.8,2.2c0.4,1.5,0.8,3,1.3,4.6c0.4,1.6,0.9,3.1,1.2,4.8
								c0.3,1.5,0.6,3,1,4.5c0-4.3,1.1-10.9,8.1-14.2c0,0,4.2,12.7-7.5,18c0.1,0.6,0.2,1.1,0.3,1.7c0.2,1.7,0.6,3.5,0.7,5.2
								c0.2,1.8,0.3,3.5,0.5,5.3c1.3-3.9,4.8-10.8,13.4-11.2c0,0-0.9,12.8-13.3,13.6c0.2,4,0.2,8,0,12.1c2.2-3.6,6.4-7.8,13.3-7.3
								c0,0-2.2,11.9-13.6,12.1c-0.1,1-0.2,2-0.3,3c-0.2,3.3-0.9,6.5-1.4,9.7c2.7-3.2,8.3-8,16.2-5.4c0,0-5.2,11.3-16.8,8.3
								c-0.3,1.5-0.7,3-1,4.4l-0.7,2.8c-0.3,0.9-0.6,1.8-0.8,2.7l-1.1,3.4c3.7-2.1,10.2-4.5,16.7,0.1c0,0-8,8.7-17.8,3.1
								c-0.5,1.4-1.1,2.8-1.6,4.2c-0.6,1.8-1.5,3.5-2.2,5.3c-0.2,0.5-0.5,1.1-0.7,1.6c3.5-2.2,10.5-5.2,17.4-0.3
								c0,0-8.4,9.1-18.5,2.7c-0.2,0.4-0.4,0.8-0.6,1.1c-0.9,1.7-1.7,3.4-2.6,5c-1,1.6-1.9,3.2-2.9,4.8c0,0.1-0.1,0.1-0.1,0.2
								c3.7-1.9,10.7-4.2,17.1,1c0,0-9,8.5-18.7,1.5c-0.4,0.7-0.9,1.3-1.3,2c-1,1.5-2,3.1-3.2,4.5c-1.1,1.4-2.2,2.9-3.3,4.3
								c-0.5,0.6-1,1.2-1.5,1.8c3.7-1.9,10.9-4.3,17.4,1.2c0,0-9.4,8.6-19.1,0.8c-0.1,0.1-0.1,0.2-0.2,0.2c-0.6,0.7-1.1,1.3-1.7,2
								c-0.6,0.6-1.2,1.2-1.8,1.8c-1.2,1.2-2.3,2.5-3.5,3.6c-0.5,0.4-0.9,0.8-1.3,1.2c4.3-0.7,10.9-0.5,15.3,5.8
								c0,0-10.7,5.6-18.2-3.2c-1,0.9-2,1.8-3,2.6c-1.2,1-2.4,2-3.6,2.9c-0.5,0.4-1.1,0.8-1.6,1.2c4.3,0,10.9,1.3,14.3,8.2
								c0,0-11.5,3.7-17.5-6c-3.1,2.2-6.1,4.1-9,5.8c4.4,0.5,10.8,2.5,13.4,9.8c0,0-11.9,2.5-16.8-7.9c-4.1,2.2-7.8,4-10.9,5.3
								c0,0,0,0,0,0c4.4,0,11.1,1.3,14.5,8.3c0,0-12.2,4-18.2-6.8c-1.4,0.5-2.6,1-3.6,1.3c-1.7,0.6-2.6,0.9-2.6,0.9
								c-8.7,3-16.4,4.4-16.4,4.4l-3.6-6.2C412.3,361.4,419.1,359.9,419.1,359.9z"/>
						</g>
					</g>
				</g>
			</g>
			<path class="st8" d="M395.9,96.5v308.2c39.2-0.2,78.3-15.2,108.1-45.1c60.2-60.2,60.2-157.8,0-218
				C474.1,111.7,435,96.7,395.9,96.5z"/>
		</g>
	</g>
</g>
</svg>
