<?xml version="1.0" encoding="utf-8"?>
<!-- Generator: Adobe Illustrator 20.1.0, SVG Export Plug-In . SVG Version: 6.00 Build 0)  -->
<svg version="1.1" id="Layer_1" xmlns="http://www.w3.org/2000/svg" xmlns:xlink="http://www.w3.org/1999/xlink" x="0px" y="0px"
	 viewBox="0 0 504.9 462" style="enable-background:new 0 0 504.9 462;" xml:space="preserve">
<style type="text/css">
	.st0{fill:#E7E4E4;}
</style>
<g>
	<path class="st0" d="M168.4,99.5c72.5,0.9,131,59.9,131.1,132.6c0,26.9-8,51.9-21.7,72.8l1.3,2.2l14.7,25.5H453V47.9H168.4V99.5z"
		/>
	<path class="st0" d="M51.9,232C52,278,79,317.7,118,336.1l16.9-29.1l64.4-111.5l7.7-13.2l60.7,105.2c9-16.3,14.3-35.3,14.3-55.3
		c-0.1-63.5-51.5-114.9-114.9-114.9C103.3,117.2,52,168.6,51.9,232z"/>
	<polygon class="st0" points="263.7,315.8 206.9,217.5 150.1,315.8 93.3,414.1 206.9,414.1 320.4,414.1 	"/>
</g>
</svg>
