<?xml version="1.0" encoding="utf-8"?>
<!-- Generator: Adobe Illustrator 20.1.0, SVG Export Plug-In . SVG Version: 6.00 Build 0)  -->
<svg version="1.1" id="Layer_1" xmlns="http://www.w3.org/2000/svg" xmlns:xlink="http://www.w3.org/1999/xlink" x="0px" y="0px"
	 viewBox="0 0 504.9 462" style="enable-background:new 0 0 504.9 462;" xml:space="preserve">
<style type="text/css">
	.st0{fill:#504E4E;}
</style>
<path class="st0" d="M463.5,137.3C463.5,61.3,402.2,0,326.2,0c-75.5,0-137.3,61.3-137.3,137.3c0,2.2,0,3.8,0,6h0.5
	c2.7-8.1,6.5-15.7,11.4-22.8c30.4-41.3,92.8-46.7,139.5-12.5s60.3,95.5,29.9,136.8c-5.4,7.6-12.5,14.1-20.1,19.5
	c0.5,2.2,1.1,4.9,1.6,7.1C415.7,259.5,463.5,204.1,463.5,137.3z M416.8,84.7c-8.7,17.4-35.3,21.2-59.7,9.2
	c-24.4-11.9-37.5-35.8-28.8-53.2s35.3-21.2,59.7-9.2C412.5,44,425.5,67.3,416.8,84.7z"/>
<path class="st0" d="M197.5,142.8c-2.7,0-4.9,0-7.6,0h-0.5C105.8,147.7,39,216.6,39,301.9C39,389.8,110.1,461,197.5,461
	S356,389.9,356,301.9c0-10.3-1.1-20.1-2.7-29.9c-0.5-2.2-1.1-4.9-1.6-7.1C334.3,194.9,271.9,142.8,197.5,142.8z M186.1,346.9
	c-44,0-79.3-35.3-79.3-79.3s35.3-79.3,79.3-79.3s79.3,35.3,79.3,79.3S230.1,346.9,186.1,346.9z"/>
<path class="st0" d="M193.2,256.2l2.2-4.9c26.1-42.9-20.1-39.6-20.1-39.6c-27.1,2.2-36.4,21.2-36.4,21.2
	c-9.8,29.9,29.9,30.9,29.9,30.9l-4.9,3.8c-31.5,30.9,2.2,44.5,2.2,44.5c46.7,9.2,60.3-22.8,60.3-22.8
	C236.6,250.8,193.2,256.2,193.2,256.2z M159,239.4c-1.1-6,4.3-12.5,12.5-14.1c8.2-1.6,15.7,2.2,16.8,8.1c1.1,6-4.3,12.5-12.5,14.1
	C168.2,249.2,160.6,245.4,159,239.4z M193.2,299.1c-9.2,1.6-17.4-2.2-19-9.2c-1.6-7.1,4.9-14.1,13.6-15.7c9.2-1.6,17.4,2.2,19,9.2
	C207.8,289.9,201.8,297,193.2,299.1z"/>
<polygon class="st0" points="352.8,49.4 393.5,84.1 402.7,74.9 362,40.2 "/>
</svg>
