<?xml version="1.0" encoding="utf-8"?>
<!-- Generator: Adobe Illustrator 20.1.0, SVG Export Plug-In . SVG Version: 6.00 Build 0)  -->
<svg version="1.1" id="Layer_1" xmlns="http://www.w3.org/2000/svg" xmlns:xlink="http://www.w3.org/1999/xlink" x="0px" y="0px"
	 viewBox="0 0 795 462" style="enable-background:new 0 0 795 462;" xml:space="preserve">
<style type="text/css">
	.st0{fill:#DBD3D3;}
</style>
<g>
	<path class="st0" d="M452.5,171.9c-6.2,0.2-12,2.9-16.3,7.4c-4.3,4.6-6.5,10.5-6.3,16.8l0.4,11.9c0.4,12.6,10.7,22.6,23.4,22.6
		l329.3-11.5v-58.7L452.5,171.9z M467.6,218.5l-11.8,0.4c1.1-12.5,1.2-24.2,0-35.5l11.6-0.4C468.5,195.9,468.5,207.7,467.6,218.5z
		 M481.6,218l-10.1,0.3c0.8-10.9,0.8-22.6-0.1-35.5l10-0.4C482.3,195.5,482.4,207.2,481.6,218z M581.8,212.1c0,0.9-0.2,1.6-0.5,2.4
		l-95.8,3.3c0.8-10.9,0.7-22.6-0.2-35.5l95.9-3.3c0.4,0.9,0.6,1.8,0.6,2.9L581.8,212.1L581.8,212.1z"/>
	<path class="st0" d="M161.9,84.2C78.2,84.2,10,152.4,10,236.1S78.2,388,161.9,388s151.9-68.2,151.9-151.9S245.5,84.2,161.9,84.2z
		 M68.6,192.6c-2.8,6.3-4.9,12.9-6.3,19.6c-1.2,5.4-6,9.2-11.3,9.2c-0.8,0-1.6-0.1-2.5-0.3c-6.3-1.4-10.2-7.5-8.9-13.8
		c1.8-8.2,4.4-16.3,7.8-24c2.6-5.9,9.4-8.6,15.3-6S71.2,186.8,68.6,192.6z M161.9,132.7c-22,0-43.9,7.2-61.6,20.4
		c-2.1,1.5-4.5,2.3-6.9,2.3c-3.6,0-7.1-1.6-9.3-4.7c-3.8-5.2-2.8-12.4,2.4-16.2c21.7-16.1,48.5-25,75.5-25c6.4,0,11.6,5.2,11.6,11.6
		C173.5,127.5,168.3,132.7,161.9,132.7z"/>
</g>
</svg>
