<?xml version="1.0" encoding="utf-8"?>
<!-- Generator: Adobe Illustrator 20.1.0, SVG Export Plug-In . SVG Version: 6.00 Build 0)  -->
<svg version="1.1" id="Layer_1" xmlns="http://www.w3.org/2000/svg" xmlns:xlink="http://www.w3.org/1999/xlink" x="0px" y="0px"
	 viewBox="0 0 100 101" style="enable-background:new 0 0 100 101;" xml:space="preserve">
<style type="text/css">
	.st0{display:none;}
	.st1{display:inline;}
	.st2{fill:#FFFFFF;}
</style>
<g class="st0">
	<rect x="-27.9" y="-765.2" class="st1" width="1286.9" height="912.4"/>
</g>
<g>
	<g>
		<path class="st2" d="M27.8,75.1c4.5-0.2,7.3-1.7,8.4-4.4c0.5-1.1,0.5-2.3,0.4-3.5c1,0.5,2.3,1,3.7,1c0.3,0,0.5,0,0.8-0.1
			c1.4-0.2,2.5-1,3.4-2.3c0.4-0.6,0.2-1.4-0.4-1.8c-0.6-0.4-1.4-0.2-1.8,0.4c-0.4,0.7-1,1-1.6,1.1C39.1,66,37,64.5,36.3,64
			c-0.2-0.2-0.5-0.3-0.8-0.3c-0.5-1-1-1.8-1.5-2.3C29,55.8,28.8,51.1,28.8,51c0-0.7-0.6-1.2-1.3-1.2c-0.7,0-1.3,0.6-1.2,1.3
			c0,0.2,0.2,5.6,5.9,12.1c1.1,1.2,2.7,4.4,1.8,6.6c-0.9,2.1-3.8,2.7-6.2,2.8c-0.7,0-1.2,0.6-1.2,1.3C26.5,74.6,27.1,75.1,27.8,75.1
			L27.8,75.1z"/>
		<path class="st2" d="M27.5,48.1c0,0,1.7-0.3,3.5,4c0.1,0.3,1.3,3,3.8,3.8c0.3,0.1,0.7,0.2,1.2,0.2c0.8,0,1.8-0.2,2.9-1
			c0.6-0.4,0.7-1.2,0.3-1.8c-0.4-0.6-1.2-0.7-1.8-0.3c-0.7,0.5-1.3,0.7-1.9,0.5c-1.1-0.3-1.9-1.8-2.1-2.3c-2.7-6.5-6.2-5.6-6.6-5.4
			c-0.7,0.2-1.1,1-0.8,1.6C26.1,48,26.8,48.4,27.5,48.1z"/>
		<path class="st2" d="M39.6,40.8c-0.3,0.7,0,1.4,0.7,1.7l0.5,0.1c0.5,0,1-0.3,1.2-0.8c3.7-8.9,0.5-21.3,0.4-21.8
			c-0.2-0.7-0.9-1.1-1.6-0.9c-0.7,0.2-1.1,0.9-0.9,1.6C39.9,20.8,42.9,32.7,39.6,40.8z"/>
		<path class="st2" d="M38.3,74.3c-0.7-0.1-1.3,0.4-1.5,1.1c-0.1,0.7,0.4,1.4,1.1,1.5c0.1,0,4.8,0.8,6.1,5.6c0.1,0.6,0.7,1,1.2,1
			l0.3,0c0.7-0.2,1.1-0.9,0.9-1.6C44.8,75.4,38.6,74.4,38.3,74.3z"/>
		<path class="st2" d="M40.5,85.6c-3.2,0.7-8.3-5.4-10.7-9.5c-0.4-0.6-1.1-0.8-1.8-0.4c-0.6,0.4-0.8,1.1-0.4,1.8
			c0.7,1.2,6.7,10.7,12.4,10.7c0.4,0,0.7,0,1.1-0.1c0.7-0.2,1.1-0.8,1-1.5C41.9,85.8,41.2,85.4,40.5,85.6z"/>
		<path class="st2" d="M27.2,69.5c0.6,0,1.2-0.5,1.3-1.1c0.1-0.7-0.4-1.3-1.1-1.4c-2.8-0.4-4.2-5.3-4.5-7.4
			c0.6-8.9-2.6-12.2-2.7-12.4c-0.5-0.5-1.3-0.5-1.8,0c-0.5,0.5-0.5,1.3,0,1.8c0,0,2.5,2.8,2,10.6l0,0.3c0.1,0.4,1.4,8.9,6.7,9.6
			L27.2,69.5z"/>
		<path class="st2" d="M32.8,46.7c-0.3,0.6,0,1.4,0.6,1.7l0.5,0.1c0.5,0,1-0.3,1.2-0.8c1.3-3-0.1-8.2-0.2-8.8l-0.1-0.3
			c-3.3-5.6,1.2-11.3,1.4-11.5c0.3-0.3,0.3-0.7,0.2-1.1c0.4,0.5,0.9,1,1.5,1.5c0.2,0.2,0.6,0.3,0.9,0.3c0.3,0,0.7-0.1,0.9-0.4
			c0.5-0.5,0.4-1.3-0.1-1.8c-2.3-2.1-3.4-4.2-3.2-5.8c0.3-2.1,2.5-3.3,2.6-3.3c0.6-0.3,0.9-1.1,0.6-1.7c-0.3-0.6-1.1-0.9-1.7-0.6
			c-0.1,0.1-3.5,1.8-4,5.2c-0.3,1.8,0.4,3.8,1.8,5.7c-0.5-0.2-1.1-0.1-1.5,0.3c-0.2,0.3-5.8,7.2-1.7,14.3
			C32.9,41.1,33.6,44.9,32.8,46.7z"/>
		<path class="st2" d="M45.4,46.3c-0.4,1.6-4,1.7-5.7,1.4c-0.7-0.1-1.3,0.4-1.4,1.1c-0.1,0.7,0.4,1.3,1.1,1.4c0.2,0,1,0.1,2,0.1
			c2.3,0,5.7-0.5,6.5-3.4c0.2-0.7-0.2-1.4-0.9-1.6C46.3,45.2,45.6,45.6,45.4,46.3z"/>
		<path class="st2" d="M85.2,49.4c1.9-11.8-2.9-15.7-4.6-16.7c0.7-7.7-3.7-11-5.1-11.8c-0.1-1.4-0.5-2.7-1.2-4
			c-2.7-4.7-8.8-6.2-9.7-6.4c-2-2.1-4.1-3.2-6.4-3.2l-0.1,0c-3.9,0.1-6.8,3.3-8.2,5.1c-1.4-1.9-4.4-5.1-8.2-5.1l-0.1,0
			c-2.3,0-4.4,1.1-6.4,3.2c-0.9,0.2-7,1.7-9.7,6.4c-0.7,1.2-1.1,2.6-1.2,4c-1.4,0.9-5.8,4.1-5.1,11.8c-1.7,1-6.5,4.9-4.6,16.7
			c-0.5,0.9-3.4,6.8-1.9,12.4c0.4,1.3,1,2.5,1.8,3.5c-0.1,1.5-0.3,8.4,8.2,14.8c3.3,2.4,6.3,6,9.1,10.6L32,91
			c0.2,0.1,3.8,3.1,8.1,3.1c0.8,0,1.7-0.1,2.5-0.4c3-0.9,5.4-3.3,7.2-7.3c1.8,3.9,4.2,6.4,7.2,7.3c0.9,0.3,1.7,0.4,2.5,0.4
			c4.3,0,8-2.9,8.2-3.1l0.3-0.3c2.8-4.6,5.9-8.1,9.1-10.6c8.5-6.4,8.4-13.3,8.2-14.8c0.8-1.1,1.4-2.2,1.8-3.5
			C88.7,56.2,85.7,50.3,85.2,49.4z M48.4,83.3c-1.5,4.5-3.7,7.2-6.4,8c-3.6,1.1-7.4-1.5-8.2-2.1c-2.9-4.8-6.2-8.5-9.7-11.1
			c-5.1-3.8-6.7-7.8-7.1-10.2c0.4,0.3,0.8,0.6,1.3,0.9l0.6,0.2c0.4,0,0.9-0.2,1.1-0.7c0.3-0.6,0.1-1.4-0.5-1.7
			c-6.3-3.5-5.1-9.9-3.9-13.4l0.6,0.2l0.3,0c0.7-0.2,1.1-0.8,1-1.5c-2.4-10.4,0.4-14.6,2-16.1c0.3,1.5,0.8,3,1.5,4.8
			c0.2,0.5,0.7,0.8,1.2,0.8l0.5-0.1c0.7-0.3,1-1,0.7-1.7c-3.7-9.4-0.9-13.8,1-15.5c0.1,0.6,0.2,1.2,0.4,1.9c0.2,0.5,0.7,0.9,1.2,0.9
			l0.4-0.1c0.7-0.2,1-0.9,0.8-1.6c-0.8-2.6-0.7-4.9,0.4-6.8c1.1-2,3.1-3.2,4.8-4c-0.1,0.5,0.1,1,0.6,1.3c0.6,0.4,1.4,0.2,1.8-0.4
			c2.2-3.4,4.5-5.2,6.7-5.2l0.1,0c3.4,0.1,6.1,3.8,6.8,4.9L48.4,83.3L48.4,83.3z M75.6,78.1c-3.5,2.6-6.7,6.3-9.7,11.1
			c-0.8,0.6-4.5,3.2-8.2,2.1c-2.7-0.8-4.9-3.5-6.4-8V14.8c1-1.6,3.7-4.8,6.8-4.9l0.1,0c2.3,0,4.5,1.7,6.7,5.2
			c0.4,0.6,1.2,0.8,1.8,0.4c0.5-0.3,0.7-0.8,0.6-1.3c1.7,0.8,3.7,2.1,4.8,4c1.1,1.9,1.2,4.2,0.4,6.8c-0.2,0.7,0.1,1.4,0.8,1.6
			l0.4,0.1c0.5,0,1-0.3,1.2-0.9c0.2-0.6,0.3-1.3,0.4-1.9c1.9,1.7,4.7,6.1,1,15.5c-0.3,0.7,0.1,1.4,0.7,1.7l0.5,0.1
			c0.5,0,1-0.3,1.2-0.8c0.7-1.7,1.1-3.3,1.5-4.8c1.7,1.5,4.4,5.7,2,16.1c-0.2,0.7,0.3,1.4,1,1.5l0.3,0l0.6-0.2
			c0.7,2.1,1.4,5.2,0.6,8.1c-0.6,2.3-2.1,4.1-4.5,5.4c-0.6,0.3-0.8,1.1-0.5,1.7c0.2,0.4,0.7,0.7,1.1,0.7l0.6-0.2
			c0.5-0.3,0.8-0.6,1.3-0.8C82.2,70.3,80.7,74.3,75.6,78.1z"/>
		<path class="st2" d="M60.7,16.4c0,0,2.3,1.2,2.6,3.3c0.2,1.7-0.9,3.7-3.2,5.9c-0.5,0.5-0.5,1.3-0.1,1.8c0.3,0.3,0.6,0.4,0.9,0.4
			c0.3,0,0.6-0.1,0.9-0.3c0.5-0.5,1-1,1.5-1.5c-0.1,0.4,0,0.8,0.2,1.1c0,0.1,4.7,5.9,1.4,11.5l-0.1,0.3c-0.2,0.6-1.6,5.8-0.2,8.8
			c0.2,0.5,0.7,0.8,1.2,0.8l0.5-0.1c0.6-0.3,0.9-1,0.6-1.7c-0.7-1.6-0.2-5,0.3-7c4.1-7.1-1.4-14-1.7-14.3c-0.4-0.5-1-0.6-1.5-0.3
			c1.5-2,2.1-3.9,1.8-5.7c-0.5-3.4-3.8-5.1-4-5.2c-0.6-0.3-1.4-0.1-1.7,0.6C59.8,15.4,60.1,16.1,60.7,16.4z"/>
		<path class="st2" d="M72,72.5c-2.3-0.1-5.3-0.7-6.2-2.8c-0.9-2.2,0.7-5.4,1.8-6.6c5.8-6.4,5.9-11.8,5.9-12.1
			c0-0.7-0.5-1.3-1.2-1.3c-0.7,0-1.3,0.5-1.3,1.2c0,0-0.2,4.7-5.3,10.4c-0.4,0.5-1,1.3-1.5,2.3c-0.3,0-0.5,0.1-0.8,0.3
			c-0.7,0.6-2.8,2-4.5,1.7c-0.7-0.1-1.2-0.5-1.6-1.1c-0.4-0.6-1.2-0.8-1.8-0.4c-0.6,0.4-0.8,1.2-0.4,1.8c0.8,1.3,2,2.1,3.4,2.3
			c0.3,0,0.5,0.1,0.8,0.1c1.4,0,2.7-0.5,3.7-1c-0.2,1.2-0.1,2.4,0.4,3.5c1.1,2.7,3.9,4.1,8.4,4.4l0.1,0c0.7,0,1.2-0.5,1.3-1.2
			C73.2,73.2,72.7,72.6,72,72.5z"/>
		<path class="st2" d="M64.2,53.4c-0.6,0.2-1.2,0-1.9-0.5c-0.6-0.4-1.4-0.3-1.8,0.3c-0.4,0.6-0.3,1.4,0.3,1.8c1.1,0.8,2.1,1,2.9,1
			c0.4,0,0.8-0.1,1.2-0.2c2.4-0.7,3.6-3.5,3.7-3.8c1.7-4.1,3.4-4,3.5-4c0.7,0.2,1.3-0.2,1.5-0.8c0.2-0.7-0.1-1.4-0.8-1.6
			c-0.4-0.1-3.9-1.1-6.6,5.4C66.1,51.7,65.3,53.1,64.2,53.4z"/>
		<path class="st2" d="M58.9,42.6l0.5-0.1c0.6-0.3,1-1,0.7-1.7c-3.3-8.1-0.3-20-0.2-20.2c0.2-0.7-0.2-1.4-0.9-1.6
			c-0.7-0.2-1.4,0.2-1.6,0.9c-0.1,0.5-3.3,12.9,0.4,21.8C57.9,42.3,58.4,42.6,58.9,42.6z"/>
		<path class="st2" d="M61.8,76.8c0.7-0.1,1.2-0.8,1.1-1.5c-0.1-0.7-0.8-1.2-1.5-1.1c-0.3,0-6.5,1.1-8.1,7.4
			c-0.2,0.7,0.2,1.4,0.9,1.6l0.3,0c0.6,0,1.1-0.4,1.2-1C56.9,77.7,61.5,76.9,61.8,76.8z"/>
		<path class="st2" d="M71.7,75.7c-0.6-0.4-1.4-0.2-1.8,0.4c-2.4,4-7.5,10.2-10.7,9.5c-0.7-0.1-1.4,0.3-1.5,1
			c-0.2,0.7,0.3,1.4,1,1.5c0.4,0.1,0.7,0.1,1.1,0.1c5.7,0,11.7-9.6,12.4-10.7C72.5,76.8,72.3,76,71.7,75.7z"/>
		<path class="st2" d="M81.4,49c0.5-0.5,0.5-1.3,0-1.8c-0.5-0.5-1.3-0.5-1.8,0c-0.1,0.1-3.3,3.4-2.7,12.4c-0.3,1.9-1.7,7-4.5,7.4
			c-0.7,0.1-1.2,0.7-1.1,1.4c0.1,0.6,0.6,1.1,1.3,1.1l0.2,0c5.3-0.7,6.7-9.3,6.7-9.6l0-0.3C78.9,51.9,81.3,49.1,81.4,49z"/>
		<path class="st2" d="M60.3,50.2c0.7-0.1,1.2-0.7,1.1-1.4c-0.1-0.7-0.8-1.2-1.4-1.1c-1.1,0.2-5.2,0.4-5.7-1.4
			c-0.2-0.7-0.9-1.1-1.6-0.9c-0.7,0.2-1.1,0.9-0.9,1.6c0.8,2.9,4.2,3.4,6.5,3.4C59.3,50.4,60,50.3,60.3,50.2z"/>
	</g>
</g>
</svg>
