<?xml version="1.0" encoding="utf-8"?>
<!-- Generator: Adobe Illustrator 20.1.0, SVG Export Plug-In . SVG Version: 6.00 Build 0)  -->
<svg version="1.1" id="Layer_1" xmlns="http://www.w3.org/2000/svg" xmlns:xlink="http://www.w3.org/1999/xlink" x="0px" y="0px"
	 viewBox="0 0 82 97.7" style="enable-background:new 0 0 82 97.7;" xml:space="preserve">
<style type="text/css">
	.st0{fill:#E7E4E4;}
</style>
<g>
	<path class="st0" d="M30.3,52.8H32c0-3.3-2.6-5.9-5.9-5.9s-5.9,2.6-5.9,5.9h1.7c0-2.3,1.9-4.2,4.2-4.2
		C28.4,48.7,30.3,50.5,30.3,52.8z"/>
	<path class="st0" d="M25.5,59.1c0,4,3.3,7.3,7.3,7.3h1.4c4,0,7.3-3.3,7.3-7.3v-2.6h-16V59.1z M26.4,57.4h14.1V59
		c0,3.5-2.8,6.4-6.4,6.4h-1.4c-3.5,0-6.4-2.8-6.4-6.4v-1.6H26.4z"/>
	<path class="st0" d="M59.4,50.8c-1.6,0-2.9,1.3-2.9,2.9s1.3,2.9,2.9,2.9c1.6,0,2.9-1.3,2.9-2.9C62.2,52.1,61,50.8,59.4,50.8z
		 M59.4,55.5c-1.1,0-1.9-0.9-1.9-1.9c0-1.1,0.9-1.9,1.9-1.9c1.1,0,1.9,0.9,1.9,1.9C61.3,54.7,60.4,55.5,59.4,55.5z"/>
	<path class="st0" d="M79.4,60.6v-1.8c0-2.4-1.9-4.3-4.3-4.3H73v-5.6c0-2.4-1.9-4.3-4.3-4.3h-9.5V31.3c5-1.7,8.6-6.4,8.8-11.9h-9.1
		c-0.2-0.3-0.5-0.6-0.8-0.8c1.9-3.1,3.1-6.7,3.2-10.5H18.1c0.1,1.3,0.2,2.5,0.5,3.7H5.9c0.1,2.5,0.8,4.9,2,6.9v2.5H2.1
		c0.2,4.6,2.4,8.6,5.7,11.3v15.4c-2.2,1.7-3.7,4.4-3.7,7.4c0,5.1,4.2,9.3,9.3,9.3h0.7c2.4,4.8,7,8.3,12.4,9.2v1.9H25
		c-6.7,0-12.2,5.5-12.2,12.2c0,0.3,0,0.7,0.1,1l0.1,0.9h37.2l0,0h18.5c2.4,0,4.3-1.9,4.3-4.3V83h2.1c2.4,0,4.3-1.9,4.3-4.3V77
		c0-1.5-0.8-2.9-2-3.6c1.2-0.8,2-2.1,2-3.6V68c0-1.5-0.8-2.9-2-3.6C78.6,63.5,79.4,62.1,79.4,60.6z M12.2,61.8
		c-3-0.6-5.3-3.3-5.3-6.5s2.3-5.9,5.3-6.5V61.8z M14.7,88c0-5.7,4.6-10.4,10.4-10.4h1.6V78c0,3.6,3,6.6,6.6,6.6s6.6-3,6.6-6.6v-0.3
		H42c1.3,0,2.6,0.3,3.8,0.7v7.2c0,0.9,0.3,1.8,0.8,2.5L14.7,88L14.7,88z M28.5,78v-3.9c0.3,0,0.6,0,0.9,0h8.2c0.1,0,0.2,0,0.3,0V78
		c0,2.6-2.1,4.7-4.7,4.7S28.5,80.6,28.5,78z M39.8,75.8V74c2.2-0.3,4.2-0.9,6-2v4.4c-1.2-0.4-2.5-0.6-3.8-0.6H39.8z M45.8,48.9v0.6
		C44.7,48,42.9,47,40.9,47c-3.3,0-5.9,2.6-5.9,5.9h1.7c0-2.3,1.9-4.2,4.2-4.2s4.2,1.9,4.2,4.2h0.7v16c-2.3,1.6-5.1,2.6-8.2,2.6h-8.2
		c-7.9,0-14.3-6.4-14.3-14.3V35.6c0.8,0.1,1.5,0.2,2.3,0.2c6.1,0,11.4-3.6,13.8-8.8c2.6,1.1,5.5,1.7,8.5,1.7c2,0,3.8-0.3,5.6-0.8
		c1.8,1.8,4,3.2,6.6,3.7v12.9h-1.8C47.7,44.6,45.8,46.5,45.8,48.9z M70.1,85.6c0,0.8-0.7,1.5-1.5,1.5H50.1c-0.8,0-1.5-0.7-1.5-1.5
		V48.9c0-0.8,0.7-1.5,1.5-1.5h18.5c0.8,0,1.5,0.7,1.5,1.5v5.6h-3.5c-2.4,0-4.3,1.9-4.3,4.3v1.8c0,1.5,0.8,2.9,2,3.6
		c-1.2,0.8-2,2.1-2,3.6v1.8c0,1.5,0.8,2.9,2,3.6c-1.2,0.8-2,2.1-2,3.6v1.8c0,2.4,1.9,4.3,4.3,4.3h3.5C70.1,82.9,70.1,85.6,70.1,85.6
		z M77.5,77v1.8c0,1.3-1.1,2.4-2.4,2.4h-8.5c-1.3,0-2.4-1.1-2.4-2.4V77c0-1.3,1.1-2.4,2.4-2.4h8.5C76.4,74.5,77.5,75.6,77.5,77z
		 M77.5,67.9v1.8c0,1.3-1.1,2.4-2.4,2.4h-8.5c-1.3,0-2.4-1.1-2.4-2.4v-1.8c0-1.3,1.1-2.4,2.4-2.4h8.5C76.4,65.5,77.5,66.5,77.5,67.9
		z M77.5,60.6c0,1.3-1.1,2.4-2.4,2.4h-8.5c-1.3,0-2.4-1.1-2.4-2.4v-1.8c0-1.3,1.1-2.4,2.4-2.4h8.5c1.3,0,2.4,1.1,2.4,2.4V60.6z"/>
</g>
</svg>
