<?xml version="1.0" encoding="utf-8"?>
<!-- Generator: Adobe Illustrator 20.1.0, SVG Export Plug-In . SVG Version: 6.00 Build 0)  -->
<svg version="1.1" xmlns="http://www.w3.org/2000/svg" xmlns:xlink="http://www.w3.org/1999/xlink" x="0px" y="0px"
	 viewBox="0 0 800 576" style="enable-background:new 0 0 800 576;" xml:space="preserve">
<style type="text/css">
	.st0{fill:none;stroke:#AEBDC1;stroke-width:6;stroke-miterlimit:10;}
	.st1{fill:none;stroke:#AEBDC1;stroke-width:6;stroke-miterlimit:10;stroke-dasharray:11.6621,11.6621;}
	.st2{fill:none;stroke:#AEBDC1;stroke-width:6;stroke-miterlimit:10;stroke-dasharray:11.2138,11.2138;}
	.st3{fill:#AEBDC1;}
	.st4{fill:none;stroke:#AEBDC1;stroke-width:6;stroke-miterlimit:10;stroke-dasharray:11.8903,11.8903;}
	.st5{fill:none;stroke:#AEBDC1;stroke-width:6;stroke-miterlimit:10;stroke-dasharray:11.5199,11.5199;}
	.st6{fill:none;stroke:#AEBDC1;stroke-width:6;stroke-miterlimit:10;stroke-dasharray:11.3905,11.3905;}
	.st7{fill:none;stroke:#AEBDC1;stroke-width:6;stroke-miterlimit:10;stroke-dasharray:12.2237,12.2237;}
	.st8{fill:none;stroke:#AEBDC1;stroke-width:6;stroke-miterlimit:10;stroke-dasharray:9.4285,9.4285;}
	.st9{fill:none;stroke:#AEBDC1;stroke-width:6;stroke-miterlimit:10;stroke-dasharray:11.8008,11.8008;}
	.st10{fill:none;stroke:#AEBDC1;stroke-width:6;stroke-miterlimit:10;stroke-dasharray:10.8458,10.8458;}
	.st11{fill:none;stroke:#AEBDC1;stroke-width:6;stroke-miterlimit:10;stroke-dasharray:12.4959,12.4959;}
	.st12{fill:none;stroke:#AEBDC1;stroke-width:6;stroke-miterlimit:10;stroke-dasharray:14.2582,14.2582;}
	.st13{fill:#DAE1E3;}
	.st14{fill:#0A73BC;}
	.st15{fill:#3492C6;}
	.st16{fill:#FFE5BB;}
	.st17{fill:#F1CFA9;}
	.st18{fill:#FFDAB2;}
	.st19{fill:#E6E6E6;}
	.st20{fill:#D8D8D8;}
	.st21{fill:#57381B;}
	.st22{fill:#F9AE3B;}
	.st23{fill:#F5911E;}
	.st24{fill:#1F95B5;}
	.st25{fill:#21AAD9;}
	.st26{fill:#333333;}
	.st27{fill:#FFFFFF;}
	.st28{fill:#E4E4E4;}
	.st29{fill:#5E4470;}
	.st30{fill:#78578F;}
	.st31{fill:#C17B45;}
	.st32{fill:#D99C67;}
	.st33{fill:#A26A48;}
	.st34{fill:#C8874F;}
	.st35{fill:#D7D7D7;}
	.st36{fill:#F0F0F0;}
	.st37{fill:#E3E3E3;}
	.st38{fill:#BF272D;}
	.st39{fill:#EF5A24;}
	.st40{fill:#2D688D;}
	.st41{fill:#5786A4;}
	.st42{fill:#262626;}
	.st43{fill:#191919;}
	.st44{fill:#A47C52;}
	.st45{fill:#8A6239;}
	.st46{fill:#2B2B2B;}
	.st47{fill:#414042;}
	.st48{opacity:0.4;fill:url(#SVGID_1_);enable-background:new    ;}
</style>
<g id="Background">
</g>
<g id="Objects">
	<g id="Objects_1_">
		<g>
			<g>
				<line class="st0" x1="390.4" y1="519" x2="395.2" y2="519"/>
				<line class="st1" x1="404.6" y1="519" x2="606.3" y2="519"/>
				<polyline class="st0" points="610.9,519 615.8,519 615.8,514.1 				"/>
				<line class="st2" x1="615.8" y1="505" x2="615.8" y2="436.8"/>
				<line class="st0" x1="615.8" y1="432.2" x2="615.8" y2="427.4"/>
				<g>
					<polygon class="st3" points="627.8,430.9 615.8,409.9 603.8,430.9 					"/>
				</g>
			</g>
		</g>
		<g>
			<g>
				<line class="st0" x1="385.4" y1="522.8" x2="380.6" y2="522.8"/>
				<line class="st4" x1="371" y1="522.8" x2="184.6" y2="522.8"/>
				<polyline class="st0" points="179.7,522.8 174.9,522.8 174.9,517.9 				"/>
				<line class="st5" x1="174.9" y1="508.6" x2="174.9" y2="382.5"/>
				<line class="st0" x1="174.9" y1="377.8" x2="174.9" y2="373"/>
				<g>
					<polygon class="st3" points="187,376.5 174.9,355.5 162.9,376.5 					"/>
				</g>
			</g>
		</g>
		<g>
			<g>
				<line class="st0" x1="389.8" y1="481.5" x2="384.9" y2="481.5"/>
				<line class="st6" x1="375.8" y1="481.5" x2="270.4" y2="481.5"/>
				<polyline class="st0" points="265.8,481.5 261,481.5 261,476.6 				"/>
				<line class="st7" x1="261" y1="466.7" x2="261" y2="95"/>
				<polyline class="st0" points="261,90.1 261,85.2 256.2,85.2 				"/>
				<line class="st0" x1="247.1" y1="85.2" x2="242.2" y2="85.2"/>
				<g>
					<polygon class="st3" points="245.8,73 225,85.2 245.8,97.4 					"/>
				</g>
			</g>
		</g>
		<g>
			<g>
				<line class="st0" x1="166.8" y1="137.4" x2="166.8" y2="142.3"/>
				<line class="st8" x1="166.8" y1="149.9" x2="166.8" y2="176.6"/>
				<polyline class="st0" points="166.8,180.5 166.8,185.3 171.6,185.3 				"/>
				<line class="st9" x1="181.1" y1="185.3" x2="423.2" y2="185.3"/>
				<line class="st0" x1="428" y1="185.3" x2="432.8" y2="185.3"/>
				<g>
					<polygon class="st3" points="429.2,197.5 450.1,185.3 429.2,173.2 					"/>
				</g>
			</g>
		</g>
		<line class="st10" x1="507.8" y1="250.4" x2="507.8" y2="259.3"/>
		<line class="st10" x1="507.8" y1="233.4" x2="507.8" y2="242.2"/>
		<line class="st10" x1="507.8" y1="283.7" x2="507.8" y2="292.5"/>
		<line class="st10" x1="507.8" y1="266.7" x2="507.8" y2="275.5"/>
		<line class="st10" x1="507.8" y1="317.5" x2="507.8" y2="326.3"/>
		<line class="st10" x1="507.8" y1="333.7" x2="507.8" y2="342.5"/>
		<line class="st10" x1="507.8" y1="300.4" x2="507.8" y2="309.3"/>
		<polyline class="st10" points="507.8,347.7 507.8,352.5 512.6,352.5 		"/>
		<line class="st10" x1="521.3" y1="352.5" x2="534.4" y2="352.5"/>
		<line class="st10" x1="538.8" y1="352.5" x2="543.6" y2="352.5"/>
		<g>
			<polygon class="st3" points="540.1,364.7 560.9,352.5 540.1,340.4 			"/>
		</g>
		<g>
			<g>
				<line class="st0" x1="611.5" y1="285.4" x2="611.5" y2="280.5"/>
				<line class="st11" x1="611.5" y1="270.4" x2="611.5" y2="214.7"/>
				<polyline class="st0" points="611.5,209.6 611.5,204.8 616.3,204.8 				"/>
				<polyline class="st0" points="628.2,204.8 633,204.8 633,199.9 				"/>
				<line class="st12" x1="633" y1="188.3" x2="633" y2="171"/>
				<line class="st0" x1="633" y1="165.2" x2="633" y2="160.3"/>
				<g>
					<polygon class="st3" points="645,163.9 633,142.8 621,163.9 					"/>
				</g>
			</g>
		</g>
		<circle class="st13" cx="508" cy="181.2" r="46.4"/>
		<g>
			<g>
				<g>
					<path class="st14" d="M426.8,461.1c0,0,103.6-3.8,88.9,111.6h-127l0.3-102.1L426.8,461.1z"/>
					<path class="st15" d="M351.7,461.1c0,0-103.6-3.8-88.9,111.6h127l-0.6-102.1L351.7,461.1z"/>
					<g>
						<rect x="353.7" y="386.7" class="st16" width="71.9" height="84"/>
						<path class="st16" d="M463.1,335.7c-5.7-4.8-9.5,1.9-9.5,1.9v-32.4c-2.9-44.8-63.8-43.8-63.8-43.8s-61-1-63.8,43.8v32.4
							c0,0-3.8-6.6-9.5-1.9c-5.7,4.8,0.9,46.8,12.5,41.8c0,0,14.9,63.8,60.8,63.8s60.8-63.8,60.8-63.8
							C462.2,382.5,468.8,340.5,463.1,335.7z"/>
						<rect x="389.1" y="386.7" class="st17" width="36.6" height="84"/>
						<path class="st18" d="M463.1,335.7c-5.7-4.8-9.5,1.9-9.5,1.9v-32.4c-2.9-44.8-63.8-43.8-63.8-43.8s-0.2,0-0.6,0v180
							c0.2,0,0.4,0.1,0.6,0.1c45.9,0,60.8-63.8,60.8-63.8C462.2,382.5,468.8,340.5,463.1,335.7z"/>
					</g>
					<path class="st19" d="M353.7,461.1c0,0,6.7,9.5,35.4,9.5v7.4c0,0-43.4,2.6-43.4-16.9H353.7z"/>
					<path class="st20" d="M424.8,461.1c0,0-7,9.5-35.7,9.5v7.4c0,0,43.7,2.6,43.7-16.9H424.8z"/>
					<path class="st21" d="M351.7,461.1"/>
					<path class="st22" d="M325.9,337.5l3,40c0,0,8.5,38.5,29.5,58.3c0,0,14.3,11.2,30.6,11.2v-18.4c0,0-23-1.4-21.7-11.6
						c1.2-10.1,11.7-3.4,21.7-3.4v-9.4c0,0-45.2-4.1-50.5-28.1c-5.3-24-11.7-63.4,2.2-78.8c13.9-15.4,48.3,8.5,48.3,8.5l-0.1-44.7
						c0,0-43.3-2.3-59,25c-15.7,27.3-11.7,48.1-11.7,48.1S322.8,334,325.9,337.5z"/>
					<path class="st23" d="M453.6,337.5l-3.1,40.1c0,0-10,38.2-31,58.1c0,0-16.9,11.2-30.3,11.2v-18.4c0,0,22.6-1.4,21.4-11.6
						c-1.2-10.1-13.2-3.4-21.5-3.4v-9.4c0,0,45-4.1,50.3-28.1c5.3-24,11.7-63.4-2.2-78.8c-13.9-15.4-48,8.5-48,8.5l-0.3-44.7
						c0,0,43.3-2.3,59,25c15.6,27.3,11.7,47.6,11.7,47.6S456.7,334,453.6,337.5z"/>
				</g>
			</g>
			<path class="st22" d="M377.1,337.9c0,0-0.2,0-0.4,0.1c-0.2,0.1-0.6,0.2-1.1,0.2c-0.5,0.1-1,0.2-1.7,0.3c-0.6,0.1-1.4,0.2-2.1,0.2
				c-0.7,0.1-1.5,0.1-2.4,0.1c-0.8,0-1.7,0-2.6-0.1c-0.5-0.1-0.9-0.2-1.4-0.2c-0.5-0.1-0.9-0.2-1.4-0.3c-1-0.2-1.9-0.3-2.9-0.4
				c-1,0-1.9-0.2-2.9-0.1c-1,0-1.9,0-2.8,0.1c-0.5,0-0.9,0.1-1.4,0.1s-0.9,0.1-1.3,0.2c-0.8,0.2-1.6,0.2-2.3,0.4
				c-0.7,0.2-1.4,0.3-2,0.4c-0.6,0.2-1.1,0.3-1.5,0.5c-0.9,0.2-1.4,0.4-1.4,0.4l-0.3-0.6c0,0,0.4-0.3,1.1-0.9c0.4-0.2,0.8-0.6,1.4-1
				c0.6-0.3,1.2-0.6,1.8-1c0.7-0.4,1.5-0.7,2.3-1c0.4-0.2,0.9-0.4,1.3-0.6c0.5-0.2,1-0.3,1.4-0.5c1-0.3,1.9-0.6,3-0.8
				c1-0.2,2.1-0.3,3.1-0.6c1-0.2,2.2-0.2,3.2-0.4c1-0.1,2.1-0.2,3.1-0.1c1,0.1,2,0.2,2.9,0.6c0.9,0.2,1.7,0.6,2.5,1
				c0.7,0.3,1.4,0.7,2,1.1c0.6,0.4,1,0.7,1.4,1s0.6,0.6,0.9,0.8c0.2,0.2,0.2,0.3,0.2,0.3L377.1,337.9z"/>
			<path class="st23" d="M401.1,337.9c0,0,0.2,0,0.4,0.1s0.6,0.2,1.1,0.2c0.5,0.1,1,0.2,1.7,0.3c0.6,0.1,1.4,0.2,2.1,0.2
				c0.7,0.1,1.5,0.1,2.4,0.1c0.8,0,1.7,0,2.6-0.1c0.5-0.1,0.9-0.2,1.4-0.2c0.5-0.1,0.9-0.2,1.4-0.3c1-0.2,1.9-0.3,2.9-0.4
				c1,0,1.9-0.2,2.9-0.1c1,0,1.9,0,2.8,0.1c0.5,0,0.9,0.1,1.4,0.1c0.5,0,0.9,0.1,1.3,0.2c0.8,0.2,1.6,0.2,2.3,0.4
				c0.7,0.2,1.4,0.3,2,0.4c0.6,0.2,1.1,0.3,1.5,0.5c0.9,0.2,1.4,0.4,1.4,0.4l0.3-0.6c0,0-0.4-0.3-1.1-0.9c-0.4-0.2-0.8-0.6-1.4-1
				c-0.6-0.3-1.2-0.6-1.8-1c-0.7-0.4-1.5-0.7-2.3-1c-0.4-0.2-0.9-0.4-1.3-0.6c-0.5-0.2-1-0.3-1.4-0.5c-1-0.3-1.9-0.6-3-0.8
				c-1-0.2-2.1-0.3-3.1-0.6c-1-0.2-2.2-0.2-3.2-0.4c-1-0.1-2.1-0.2-3.1-0.1c-1,0.1-2,0.2-2.9,0.6c-0.9,0.2-1.7,0.6-2.5,1
				c-0.7,0.3-1.4,0.7-2,1.1c-0.6,0.4-1,0.7-1.4,1s-0.6,0.6-0.9,0.8c-0.2,0.2-0.3,0.3-0.3,0.3L401.1,337.9z"/>
		</g>
		<g>
			<g>
				<g>
					<g>
						<rect x="503.1" y="178.9" class="st16" width="12.7" height="32.8"/>
						<path class="st16" d="M522.4,169.9c-1-0.8-1.7,0.3-1.7,0.3v-5.7c-0.5-7.9-11.3-7.8-11.3-7.8s-10.8-0.2-11.3,7.8v5.7
							c0,0-0.7-1.2-1.7-0.3c-1,0.8,0.1,8.3,2.2,7.4c0,0,2.6,11.3,10.7,11.3s10.7-11.3,10.7-11.3
							C522.2,178.2,523.4,170.8,522.4,169.9z"/>
						<rect x="509.4" y="178.9" class="st17" width="6.4" height="32.8"/>
						<path class="st18" d="M522.4,169.9c-1-0.8-1.7,0.3-1.7,0.3v-5.7c-0.5-7.9-11.3-7.8-11.3-7.8s-0.1,0-0.1,0v31.7
							c0.1,0,0.1,0,0.1,0c8.1,0,10.7-11.3,10.7-11.3C522.2,178.2,523.4,170.8,522.4,169.9z"/>
					</g>
					<path class="st24" d="M515.8,192c0,0,18.5-0.7,15.9,19.7h-22.4l0.1-5.6C516.4,206.1,515.8,192,515.8,192z"/>
					<path class="st25" d="M503.1,192c0,0-18.6-0.7-16.1,19.7h22.5l-0.1-5.6C503.2,206.1,503.1,192,503.1,192z"/>
					<path class="st21" d="M502.7,192"/>
					<path class="st22" d="M509.4,162.9c0,0-10.7-4.5-11.2,7.3c0,0-1.4-4.5-0.1-10l0.2,0.5c0,0,0.9-2.8,2.1-4.2l0.2,0.6
						c0,0,1.8-4.4,3.2-4.9l0.3,0.7c0,0,1.5-3.2,2.4-4.1l0.6,1.5l0.8-2.2l0.3,1.5l1.3-2L509.4,162.9L509.4,162.9z"/>
					<path class="st23" d="M509.4,162.9c0,0,10.7-4.5,11.2,7.3c0,0,1.4-4.5,0.1-10l-0.2,0.5c0,0-0.9-2.8-2.1-4.2l-0.2,0.6
						c0,0-1.8-4.4-3.2-4.9l-0.3,0.7c0,0-1.5-3.2-2.4-4.1l-0.6,1.5L511,148l-0.3,1.5l-1.3-2L509.4,162.9L509.4,162.9z"/>
				</g>
			</g>
		</g>
		<circle class="st13" cx="614" cy="346.2" r="46.4"/>
		<circle class="st13" cx="176.6" cy="296.2" r="46.4"/>
		<circle class="st13" cx="164.6" cy="80.2" r="46.4"/>
		<circle class="st13" cx="630.6" cy="80.2" r="46.4"/>
		<g>
			<path class="st26" d="M600.4,326.7c0,0,2.6,20.1-2.4,24.7c0,0,1.1,1.1,3-1.8c0,0,0.6,12,9.6,17.2l1.1-45.4L600.4,326.7z"/>
			<path d="M627.7,326.7c0,0-3,22.8,1.8,27.4c0,0-1.1,1.1-3-1.8c0,0-0.1,9.2-9,14.5l-1.1-45.4L627.7,326.7z"/>
			<g>
				<g>
					<g>
						<path class="st23" d="M621.6,354.7c0,0,20.8-0.8,17.9,22.4H614l0.1-20.5L621.6,354.7z"/>
						<path class="st22" d="M606.5,354.7c0,0-20.8-0.8-17.9,22.4h25.5l-0.2-20.5L606.5,354.7z"/>
						<g>
							<polygon class="st16" points="621.3,355.7 614.2,356.5 606.8,354.9 606.9,339.7 621.4,339.7 							"/>
							<path class="st16" d="M628.9,329.5c-1.1-1-1.9,0.4-1.9,0.4v-6.5c-0.6-9-12.8-8.8-12.8-8.8s-12.2-0.2-12.8,8.8v6.5
								c0,0-0.8-1.4-1.9-0.4c-1.1,1,0.2,9.4,2.6,8.4c0,0,3,12.8,12.2,12.8s12.2-12.8,12.2-12.8C628.7,338.9,630,330.4,628.9,329.5z"
								/>
							<polygon class="st17" points="614,339.7 614,356.5 621.4,355.3 621.4,339.7 							"/>
							<path class="st18" d="M628.9,329.5c-1.1-1-1.9,0.4-1.9,0.4v-6.5c-0.6-9-12.8-8.8-12.8-8.8s-0.1,0-0.2,0v36.2
								c0.1,0,0.1,0,0.2,0c9.2,0,12.2-12.8,12.2-12.8C628.7,338.9,630,330.4,628.9,329.5z"/>
						</g>
						<path class="st21" d="M606.5,354.7"/>
					</g>
					<path class="st26" d="M619.5,320.5c0,0-3.4,7.7-18.2,9.3c0,0-7-15.1,12.8-16.7c0,0,18.4-0.8,12.8,16.7
						C626.9,329.9,619.5,324.7,619.5,320.5z"/>
					<path d="M614.2,313.2L614.2,313.2l-0.1,12.8c4.2-2.6,5.5-5.3,5.5-5.3c0,4.1,7.4,9.3,7.4,9.3
						C632.5,312.4,614.2,313.2,614.2,313.2z"/>
					<path class="st27" d="M615.9,356.5c0,1-0.8,1.8-1.8,1.8c-1,0-1.8-0.8-1.8-1.8c0-1,0.8-1.8,1.8-1.8
						C615.1,354.8,615.9,355.6,615.9,356.5z"/>
					<circle class="st27" cx="610.6" cy="356.1" r="1.8"/>
					<circle class="st27" cx="607.4" cy="355.1" r="1.8"/>
					<path class="st28" d="M615.9,356.1c0,1,0.8,1.8,1.8,1.8s1.8-0.8,1.8-1.8c0-1-0.8-1.8-1.8-1.8
						C616.6,354.4,615.9,355.2,615.9,356.1z"/>
					<ellipse class="st28" cx="620.7" cy="355.1" rx="1.8" ry="1.8"/>
					<path class="st28" d="M615.9,356.5c0,1-0.8,1.8-1.8,1.8v-3.5C615.1,354.8,615.9,355.6,615.9,356.5z"/>
				</g>
			</g>
		</g>
		<g>
			<g>
				<g>
					<g>
						<path class="st29" d="M640.2,81.2c0,0,18.7-0.8,18.7,29.6h-28.1V83L640.2,81.2z"/>
						<path class="st30" d="M621.4,81.2c0,0-18.7-0.8-18.7,29.6h28.2V83L621.4,81.2z"/>
						<g>
							<rect x="623.7" y="71" class="st31" width="14.1" height="16.5"/>
							<path class="st32" d="M645.2,61c-1.1-0.9-1.9,0.3-1.9,0.3V55c-0.6-8.8-12.5-8.6-12.5-8.6s-11.9-0.2-12.5,8.6v6.4
								c0,0-0.8-1.3-1.9-0.3c-1.1,0.9,0.1,9.2,2.4,8.2c0,0,2.9,12.6,11.9,12.6s11.9-12.6,11.9-12.6C645,70.2,646.3,61.9,645.2,61z"
								/>
							<rect x="630.7" y="71" class="st33" width="7.2" height="16.5"/>
							<path class="st34" d="M645.2,61c-1.1-0.9-1.9,0.3-1.9,0.3V55c-0.6-8.8-12.5-8.6-12.5-8.6s-0.1,0-0.1,0v35.4
								c0.1,0,0.1,0,0.1,0c9,0,11.9-12.6,11.9-12.6C645,70.2,646.3,61.9,645.2,61z"/>
						</g>
						<path class="st35" d="M640.7,84.5c0,0-2.2,17.8-10.1,17.8l0.1-15.3L640.7,84.5z"/>
						<path class="st28" d="M620.8,84.5c0,0,2.2,17.8,10.1,17.8L630.8,87L620.8,84.5z"/>
						<path class="st21" d="M622.5,84.1"/>
						<path class="st36" d="M623.7,78.6c0,0-3.8,1.3-5.2,3.8l6.4,12.6c0,0-0.1-7,5.9-7.9C630.8,87,623.7,83.9,623.7,78.6z"/>
						<path class="st37" d="M637.8,78.6c0,0,3.8,1.3,5.2,3.8l-6.4,12.6c0,0,0.1-7-5.9-7.9C630.8,87,637.8,83.9,637.8,78.6z"/>
						<path class="st26" d="M618.2,61.3c0,0-0.5-6.7,3.8-9c4.6-2.5,5,2.5,8.7,2.5v-8.7C630.7,46.2,614.9,44.4,618.2,61.3z"/>
						<path d="M643.3,61.3c0,0,0.6-6.6-4.1-9c-4.7-2.4-5,2.5-8.6,2.5v-8.7C630.7,46.2,646.7,44.4,643.3,61.3z"/>
					</g>
				</g>
				<path class="st26" d="M618.2,61.3c0,0,3.7,15.8,12.4,15.8v4.5C630.7,81.7,617.9,82.9,618.2,61.3z"/>
				<path d="M643.3,61.3c0,0-4,15.8-12.7,15.8v4.5C630.7,81.7,643.6,82.9,643.3,61.3z"/>
			</g>
		</g>
		<g>
			<g>
				<g>
					<g>
						<path class="st38" d="M183.8,304.5c0,0,19.7-0.7,17,21.3h-24.2l0.1-19.4L183.8,304.5z"/>
						<path class="st39" d="M169.5,304.5c0,0-19.7-0.7-17,21.3h24.2l-0.1-19.4L169.5,304.5z"/>
						<g>
							<rect x="169.9" y="290.3" class="st16" width="13.7" height="16"/>
							<path class="st16" d="M190.7,280.6c-1.1-0.9-1.8,0.4-1.8,0.4v-6.2c-0.5-8.5-12.2-8.4-12.2-8.4s-11.6-0.2-12.2,8.4v6.2
								c0,0-0.7-1.3-1.8-0.4c-1.1,0.9,0.2,9,2.4,8c0,0,2.8,12.2,11.6,12.2c8.7,0,11.6-12.2,11.6-12.2
								C190.6,289.5,191.8,281.5,190.7,280.6z"/>
							<rect x="176.6" y="290.3" class="st17" width="7" height="16"/>
							<path class="st18" d="M190.7,280.6c-1.1-0.9-1.8,0.4-1.8,0.4v-6.2c-0.5-8.5-12.2-8.4-12.2-8.4s-0.1,0-0.1,0v34.3
								c0.1,0,0.1,0,0.1,0c8.7,0,11.6-12.2,11.6-12.2C190.6,289.5,191.8,281.5,190.7,280.6z"/>
						</g>
						<path class="st19" d="M169.9,304.5c0,0,1.3,1.8,6.7,1.8v1.4c0,0-8.3,0.5-8.3-3.2H169.9z"/>
						<path class="st20" d="M183.4,304.5c0,0-1.3,1.8-6.7,1.8v1.4c0,0,8.2,0.5,8.2-3.2H183.4z"/>
						<path class="st21" d="M169.5,304.5"/>
						<path class="st26" d="M165.2,288.6c0,0,4,10.3,10,9.7v-1.6c0,0,0.7-0.2,1.5-0.2v4.2C176.6,300.7,168.3,301.5,165.2,288.6z"/>
						<path d="M188.3,288.6c0,0-4.2,10.3-10.3,9.7v-1.6c0,0-0.7-0.2-1.5-0.2v4.2C176.6,300.7,185.1,301.5,188.3,288.6z"/>
					</g>
				</g>
				<path class="st26" d="M188.9,281c0,0,1.8-11.3-2.2-15.1v1.4c0,0-1.9-4.7-8.8-5.6l0.7,1.2c0,0-6.6-1.6-11.7,0.9l0.6,0.7
					c0,0-5.7,1.2-9.4,5l3.1,0.5l-1.1,2.1h2.2l0.9,8.3c0,0,0.6,0,1.4,0.7c0,0,0.5-6.6,1.7-7.8l0.2,1.5c0,0,3.8-0.9,7.8-3.5l-0.1,1.8
					c0,0,5.9-0.1,8.6-1.8l0.2,1.5l3.1-0.9c0,0,2.5,5.7,1,9.1C187,281,187.8,280.5,188.9,281z"/>
				<path d="M186.6,265.8v1.4c0,0-1.9-4.7-8.8-5.6l0.7,1.2c0,0-0.8-0.2-1.9-0.4v10.4c1.9-0.2,4.6-0.6,6.2-1.6l0.2,1.5l3.1-0.9
					c0,0,2.5,5.7,1,9.1c0,0,0.8-0.5,1.9,0C188.9,281,190.7,269.7,186.6,265.8z"/>
			</g>
		</g>
		<g>
			<g>
				<g>
					<g>
						<path class="st40" d="M174.1,79.5c0,0,18.7-0.9,18.7,29.6h-28.2V81.4L174.1,79.5z"/>
						<path class="st35" d="M174.6,82.9c0,0-2.2,17.8-10.1,17.8l0.1-15.3L174.6,82.9z"/>
						<path class="st41" d="M155.3,79.5c0,0-18.7-0.9-18.7,29.6h28.2V81.4L155.3,79.5z"/>
						<path class="st28" d="M154.7,82.9c0,0,2.2,17.8,10.1,17.8l-0.1-15.3L154.7,82.9z"/>
						<polygon class="st42" points="165.9,84.8 164.6,85.1 163.4,84.8 159.9,87.5 163.4,92.4 164.6,92.4 165.9,92.4 169.4,87.5 
													"/>
						<polygon class="st43" points="165.9,84.8 164.6,85.1 164.6,92.4 165.9,92.4 169.4,87.5 						"/>
						<g>
							<rect x="157.5" y="68.5" class="st16" width="14.5" height="16.9"/>
							<path class="st16" d="M179.5,58.3c-1.1-0.9-1.9,0.4-1.9,0.4v-6.5c-0.6-9-12.8-8.8-12.8-8.8s-12.3-0.2-12.8,8.8v6.5
								c0,0-0.8-1.3-1.9-0.4c-1.1,0.9,0.1,9.4,2.6,8.4c0,0,3,12.8,12.2,12.8S177,66.7,177,66.7C179.3,67.7,180.7,59.2,179.5,58.3z"
								/>
							<rect x="164.6" y="68.5" class="st17" width="7.4" height="16.9"/>
							<path class="st18" d="M179.5,58.3c-1.1-0.9-1.9,0.4-1.9,0.4v-6.5c-0.6-9-12.8-8.8-12.8-8.8s-0.1,0-0.1,0v36.1
								c0.1,0,0.1,0,0.1,0c9.2,0,12.2-12.8,12.2-12.8C179.3,67.7,180.7,59.2,179.5,58.3z"/>
						</g>
						<path class="st36" d="M157.5,77c0,0-3.8,1.3-5.3,3.8l6.4,12.6c0,0-0.1-7,6-7.9C164.6,85.4,157.6,82.3,157.5,77z"/>
						<path class="st42" d="M164.6,92.4h-1.2l-2.8,6.5c0,0,1.6,1.8,4,1.8c2.3,0,4-1.8,4-1.8l-2.8-6.5H164.6z"/>
						<path class="st43" d="M165.9,92.4h-1.2v8.4c2.7,0,4-1.8,4-1.8L165.9,92.4z"/>
						<path class="st37" d="M171.7,77c0,0,3.8,1.3,5.3,3.8l-6.4,12.6c0,0,0.1-7-6-7.9C164.6,85.4,171.7,82.3,171.7,77z"/>
					</g>
				</g>
				<path class="st44" d="M152,58.7c0,0,3.1,9.6,12.7,9.9v2.2c-3.4,0-3.5-0.9-4.8,0s1,3.5,4.8,3.5v5.3
					C164.6,79.5,151.2,80.5,152,58.7z"/>
				<path class="st45" d="M177.6,58.7c0,0-3.4,9.6-12.9,9.9v2.2c3.4,0,3.5-0.9,4.8,0s-1,3.5-4.8,3.5v5.3
					C164.6,79.5,178.3,80.5,177.6,58.7z"/>
			</g>
		</g>
		<g>
			<g>
				<path class="st46" d="M317.8,573h142.8c5.3-40.1,10.5-80.3,15.7-120.4c0.4-3.1-2.2-5.6-5.9-5.6H308.1c-3.7,0-6.3,2.5-5.9,5.6
					C307.4,492.7,312.6,532.9,317.8,573z"/>
				<path class="st47" d="M317.8,573h142.8c4.9-37.6,9.8-75.2,14.7-112.8c0.4-3.1-2.2-5.6-5.8-5.6H309c-3.7,0-6.2,2.5-5.8,5.6
					C308,497.8,313,535.4,317.8,573z"/>
			</g>
			
				<linearGradient id="SVGID_1_" gradientUnits="userSpaceOnUse" x1="387.0893" y1="-119.0795" x2="387.0893" y2="-29.5468" gradientTransform="matrix(1 0 0 -1 0 354)">
				<stop  offset="0" style="stop-color:#FFFFFF"/>
				<stop  offset="1" style="stop-color:#FFFFFF;stop-opacity:0"/>
			</linearGradient>
			<polygon class="st48" points="308.1,447 290.8,384.8 483.4,384.8 472,447.1 			"/>
		</g>
	</g>
</g>
</svg>
