<svg xmlns="http://www.w3.org/2000/svg" width="40" height="40" viewBox="0 0 40 40">
  <metadata><?xpacket begin="﻿" id="W5M0MpCehiHzreSzNTczkc9d"?>
<x:xmpmeta xmlns:x="adobe:ns:meta/" x:xmptk="Adobe XMP Core 5.6-c138 79.159824, 2016/09/14-01:09:01        ">
   <rdf:RDF xmlns:rdf="http://www.w3.org/1999/02/22-rdf-syntax-ns#">
      <rdf:Description rdf:about=""/>
   </rdf:RDF>
</x:xmpmeta>
                                                                                                    
                                                                                                    
                                                                                                    
                                                                                                    
                                                                                                    
                                                                                                    
                                                                                                    
                                                                                                    
                                                                                                    
                                                                                                    
                                                                                                    
                                                                                                    
                                                                                                    
                                                                                                    
                                                                                                    
                                                                                                    
                                                                                                    
                                                                                                    
                                                                                                    
                                                                                                    
                           
<?xpacket end="w"?></metadata>
<defs>
    <style>
      .cls-1 {
        fill: #333;
        fill-rule: evenodd;
      }
    </style>
  </defs>
  <path id="Forma_1" data-name="Forma 1" class="cls-1" d="M2307.85,470h-25.69a7.121,7.121,0,0,0-7.16,7.067v25.872a7.121,7.121,0,0,0,7.16,7.068h25.69a7.119,7.119,0,0,0,7.15-7.068V477.065A7.118,7.118,0,0,0,2307.85,470Zm5.28,32.94a5.259,5.259,0,0,1-5.28,5.224h-25.69a5.262,5.262,0,0,1-5.29-5.224V477.065a5.262,5.262,0,0,1,5.29-5.224h25.69a5.259,5.259,0,0,1,5.28,5.224v25.873Zm-26.25-25.15a3.483,3.483,0,1,0,3.53,3.483A3.506,3.506,0,0,0,2286.88,477.788Zm0,5.122a1.639,1.639,0,1,1,1.66-1.639A1.655,1.655,0,0,1,2286.88,482.91Zm0,3.609a3.483,3.483,0,1,0,3.53,3.483A3.506,3.506,0,0,0,2286.88,486.519Zm0,5.122a1.64,1.64,0,1,1,1.66-1.639A1.655,1.655,0,0,1,2286.88,491.641Zm0,3.608a3.483,3.483,0,1,0,3.53,3.483A3.507,3.507,0,0,0,2286.88,495.249Zm0,5.122a1.639,1.639,0,1,1,1.66-1.639A1.654,1.654,0,0,1,2286.88,500.371Zm16.14-22.276a3.483,3.483,0,1,0,3.52,3.483A3.515,3.515,0,0,0,2303.02,478.1Zm0,5.122a1.639,1.639,0,1,1,1.66-1.639A1.648,1.648,0,0,1,2303.02,483.217Zm0,3.609a3.483,3.483,0,1,0,3.52,3.483A3.515,3.515,0,0,0,2303.02,486.826Zm0,5.122a1.639,1.639,0,1,1,1.66-1.639A1.648,1.648,0,0,1,2303.02,491.948Zm0,3.609a3.483,3.483,0,1,0,3.52,3.483A3.515,3.515,0,0,0,2303.02,495.557Zm0,5.122a1.639,1.639,0,1,1,1.66-1.639A1.648,1.648,0,0,1,2303.02,500.679Z" transform="translate(-2275 -470)"/>
</svg>
