<?xml version="1.0" encoding="utf-8"?>
<!-- Generator: Adobe Illustrator 20.1.0, SVG Export Plug-In . SVG Version: 6.00 Build 0)  -->
<svg version="1.1"
	 id="Layer_1" xmlns:cc="http://creativecommons.org/ns#" xmlns:dc="http://purl.org/dc/elements/1.1/" xmlns:inkscape="http://www.inkscape.org/namespaces/inkscape" xmlns:rdf="http://www.w3.org/1999/02/22-rdf-syntax-ns#" xmlns:sodipodi="http://sodipodi.sourceforge.net/DTD/sodipodi-0.dtd" xmlns:svg="http://www.w3.org/2000/svg"
	 xmlns="http://www.w3.org/2000/svg" xmlns:xlink="http://www.w3.org/1999/xlink" x="0px" y="0px" viewBox="0 0 100 101.5"
	 style="enable-background:new 0 0 100 101.5;" xml:space="preserve">
<style type="text/css">
	.st0{fill:#333333;}
</style>
<g transform="translate(519.24087,-756.23386)">
	<path class="st0" d="M-459.2,763.9v1.7h-20.2h-20.2v40.5v40.5h20.2h20.2v1.8v1.8h-22h-22v-44v-44h22h22V763.9z M-443.4,797.4
		c6.8,6.8,8.5,8.6,8.5,8.8s-1.8,2-8.5,8.8c-4.7,4.7-8.6,8.5-8.6,8.5c-0.1,0-2.3-2.2-2.3-2.3c0-0.1,3-3,6.6-6.7l6.6-6.6h-21.2h-21.2
		v-1.7v-1.7h21.2h21.2l-6.6-6.6c-3.6-3.6-6.6-6.6-6.6-6.7c0-0.1,2.2-2.3,2.3-2.3C-452,788.9-448.1,792.7-443.4,797.4z"/>
</g>
</svg>
