<?xml version="1.0" encoding="utf-8"?>
<!-- Generator: Adobe Illustrator 20.1.0, SVG Export Plug-In . SVG Version: 6.00 Build 0)  -->
<svg version="1.1" id="Layer_1" xmlns="http://www.w3.org/2000/svg" xmlns:xlink="http://www.w3.org/1999/xlink" x="0px" y="0px"
	 viewBox="0 0 893 462" style="enable-background:new 0 0 893 462;" xml:space="preserve">
<style type="text/css">
	.st0{fill:#DBD3D3;}
</style>
<g>
	<path class="st0" d="M183.6,261.5c-33.8,0-61.2,27.4-61.2,61.2s27.4,61.2,61.2,61.2s61.3-27.4,61.3-61.2
		C244.8,288.9,217.4,261.5,183.6,261.5z M183.6,354.7c-17.6,0-32-14.3-32-32s14.3-32,32-32c17.6,0,32,14.3,32,32
		C215.5,340.4,201.2,354.7,183.6,354.7z"/>
	<path class="st0" d="M709.4,261.5c-33.8,0-61.2,27.4-61.2,61.2s27.4,61.2,61.2,61.2s61.3-27.4,61.3-61.2S743.3,261.5,709.4,261.5z
		 M709.4,354.7c-17.6,0-32-14.3-32-32s14.3-32,32-32c17.6,0,32,14.3,32,32C741.4,340.4,727.1,354.7,709.4,354.7z"/>
	<g>
		<path class="st0" d="M889,288.2c-93.3-80.8-201.1-74.5-201.1-74.5C560.4,145.8,423.7,141,423.7,141C310.6,138.3,13,193.1,13,193.1
			c23.7,35.9,12.3,58.7,12.3,58.7C-1.9,246.5,3.4,257,3.4,257c-0.9,42.1,106.9,64,106.9,64c0.5,0.2,1.2,0.5,1.8,0.7
			c0.5-38.3,31.7-69.1,70.1-69.1c38.7,0,70.1,31.4,70.1,70.1c0,5.4-0.7,10.7-1.8,15.7c109.9,5.7,262.8,6.7,391,6.3
			c-2.3-6.9-3.6-14.3-3.6-22c0-38.7,31.4-70.1,70.1-70.1c38.7,0,70.1,31.4,70.1,70.1c0,7.3-1.1,14.3-3.2,20.9
			c66.9-0.8,110.8-1.6,110.8-1.6l-17.1-24.3L889,288.2z M540.9,314.9l-26.6-1.9l1.9-26.6l-26.6-1.9l-1.9,26.6l-26.6-1.9l1.9-26.6
			l-26.6-1.9l-1.9,26.6l-26.6-1.9l2-26.6l-26.6-1.9l-1.9,26.6l-26.6-1.9l2-26.6l-26.6-2l2-26.6l26.6,1.9l-1.9,26.6l26.6,1.9L385,250
			l26.6,1.9l-1.9,26.6l26.6,1.9l1.9-26.6l26.6,1.9l-1.9,26.6l26.6,1.9l2-26.6l26.6,1.9l-1.9,26.6l26.6,2L540.9,314.9z M315.2,198.1
			c0,0-36.2-5.9-73-2.6c0,0,57.8-26.3,74.3-27.6c0,0,172.9-30.5,333.3,56.1C649.7,223.9,637.9,249.4,315.2,198.1z"/>
		<polygon class="st0" points="436.3,280.5 436.3,280.5 436.3,280.5 		"/>
	</g>
	<g>
		<g>
			<path class="st0" d="M391.2,111.1c3.8,4.5,7.6,9,11.4,13.5c3.2,3.7,8.5-1.7,5.4-5.4c-3.8-4.5-7.6-9-11.4-13.5
				C393.4,102,388.1,107.4,391.2,111.1L391.2,111.1z"/>
		</g>
	</g>
	<g>
		<g>
			<path class="st0" d="M445.5,85.2c-0.5,6.4-1.1,12.7-1.6,19.1c-0.4,4.9,7.2,4.8,7.6,0c0.5-6.4,1.1-12.7,1.6-19.1
				C453.5,80.3,445.9,80.4,445.5,85.2L445.5,85.2z"/>
		</g>
	</g>
	<g>
		<g>
			<path class="st0" d="M490.9,131.5c4.5-3.8,9-7.6,13.4-11.4c3.7-3.2-1.7-8.5-5.4-5.4c-4.5,3.8-9,7.6-13.4,11.4
				C481.8,129.3,487.2,134.6,490.9,131.5L490.9,131.5z"/>
		</g>
	</g>
	<g>
		
			<ellipse transform="matrix(9.719323e-02 -0.9953 0.9953 9.719323e-02 262.5441 570.9321)" class="st0" cx="446" cy="140.8" rx="17.2" ry="30.7"/>
		<path class="st0" d="M142,147.4c0,0-103.4-4.2-119.5-29.5c0,0-8.6-2.5-9.1,4.1c-0.6,6.6,4.7,54.9,13.8,57.3c0,0,13-7.1,35.7-12.4
			v46H86v-50.1c15.8-1.9,34.2-2.4,54.8,0.1c0,0,7.4-2.4,7.8-7.4C148.6,155.5,147.8,147.7,142,147.4z"/>
	</g>
</g>
</svg>
