<?xml version="1.0" encoding="utf-8"?>
<!-- Generator: Adobe Illustrator 20.1.0, SVG Export Plug-In . SVG Version: 6.00 Build 0)  -->
<svg version="1.1" id="Layer_1" xmlns="http://www.w3.org/2000/svg" xmlns:xlink="http://www.w3.org/1999/xlink" x="0px" y="0px"
	 viewBox="0 0 88.9 69.2" style="enable-background:new 0 0 88.9 69.2;" xml:space="preserve">
<style type="text/css">
	.st0{fill:#FFFFFF;}
</style>
<g>
	<path class="st0" d="M79.1,34.9v-0.3C79.1,15.5,63.6,0,44.5,0c-7.6,0-14.8,2.4-20.9,7l-2.8,2.1l4.2,5.6l2.8-2.1
		C32.6,8.9,38.4,7,44.5,7c15.2,0,27.6,12.4,27.6,27.6v0.7l-5-5.1l-5,4.9l12.8,13l14-12.8l-4.7-5.2L79.1,34.9z M74.8,38.1h0.7
		l-0.4,0.3L74.8,38.1z"/>
	<path class="st0" d="M9.9,34.5L9.9,34.5c0,19.1,15.5,34.7,34.6,34.7c7.4,0,14.4-2.3,20.3-6.6l2.8-2.1l-4.1-5.6L60.7,57
		c-4.7,3.4-10.3,5.3-16.2,5.3c-15.2,0-27.6-12.4-27.6-27.6v-0.3l4.9,5l5-4.9L14,21.5L0,34.3l4.7,5.2L9.9,34.5z M13.8,31.1h-0.1H13.8
		L13.8,31.1z"/>
</g>
</svg>
