<?xml version="1.0" encoding="utf-8"?>
<!-- Generator: Adobe Illustrator 20.1.0, SVG Export Plug-In . SVG Version: 6.00 Build 0)  -->
<svg version="1.1" id="Layer_1" xmlns="http://www.w3.org/2000/svg" xmlns:xlink="http://www.w3.org/1999/xlink" x="0px" y="0px"
	 viewBox="0 0 43.9 50" style="enable-background:new 0 0 43.9 50;" xml:space="preserve">
<style type="text/css">
	.st0{fill:#096FBA;}
</style>
<g>
	<path class="st0" d="M21.9,49.7c8,0,14.5-6.4,14.7-14.4H7.2C7.4,43.3,13.9,49.7,21.9,49.7z M16.7,40c0-0.3,0.1-0.5,0.3-0.7
		c0.2-0.2,0.4-0.3,0.7-0.3l8.4,0c0.5,0,0.9,0.4,0.9,0.9v1.3c0,0.3-0.1,0.5-0.3,0.7c-0.2,0.2-0.4,0.3-0.7,0.3l-8.4,0
		c-0.5,0-0.9-0.4-0.9-0.9V40z"/>
	<path class="st0" d="M41.1,26h-0.4v-0.6c0-0.9-0.6-1.6-1.5-1.6h-2.8c-2-3.8-5.1-7.1-8.8-8.8v-2.9l3.6-7C31.9,5,32.6,4.6,33,3.9
		c0.6-1.1,0.1-2.5-1-3c-1.1-0.6-2.5-0.1-3,1c-0.4,0.7-0.3,1.5,0,2.1l-3.6,7h-7l-3.6-7c0.4-0.6,0.4-1.4,0-2.1c-0.6-1.1-1.9-1.5-3-1
		c-1.1,0.6-1.5,1.9-1,3c0.4,0.7,1,1.1,1.8,1.2l3.5,6.8V15c-3.7,1.7-6.7,5-8.8,8.8H4.6c-0.9,0-1.6,0.7-1.6,1.6V26H2.7
		c-1.3,0-2.3,1.1-2.3,2.4c0,1.3,1,2.4,2.3,2.4H3v0.6C3,32.3,3.7,33,4.6,33h34.7c0.9,0,1.5-0.7,1.5-1.6v-0.6h0.4
		c1.3,0,2.3-1.1,2.3-2.4C43.4,27.1,42.4,26,41.1,26z M15.8,30.6c-2.6,0-4.6-2.1-4.6-4.6c0-2.6,2.1-4.6,4.6-4.6
		c2.6,0,4.6,2.1,4.6,4.6C20.4,28.5,18.4,30.6,15.8,30.6z M28,30.6c-2.6,0-4.6-2.1-4.6-4.6c0-2.6,2.1-4.6,4.6-4.6
		c2.6,0,4.6,2.1,4.6,4.6C32.6,28.5,30.5,30.6,28,30.6z"/>
</g>
</svg>
