<?xml version="1.0" encoding="utf-8"?>
<!-- Generator: Adobe Illustrator 20.1.0, SVG Export Plug-In . SVG Version: 6.00 Build 0)  -->
<svg version="1.1" id="Layer_1" xmlns="http://www.w3.org/2000/svg" xmlns:xlink="http://www.w3.org/1999/xlink" x="0px" y="0px"
	 viewBox="0 0 100 101" style="enable-background:new 0 0 100 101;" xml:space="preserve">
<style type="text/css">
	.st0{display:none;}
	.st1{display:inline;}
	.st2{fill:#FFFFFF;}
</style>
<g class="st0">
	<rect x="-27.9" y="-765.2" class="st1" width="1286.9" height="912.4"/>
</g>
<g>
	<path class="st2" d="M52.7,80.3v-4.4h-5.3v4.4c0.8-0.3,1.7-0.4,2.7-0.4C50.9,79.8,51.8,80,52.7,80.3z"/>
	<path class="st2" d="M80,74.9v-7.6c0-4.3-3.5-7.8-7.8-7.8h-7.5C61.8,55,56.8,52,51.2,52h-2.4c-5.6,0-10.6,3-13.5,7.4h-7.5
		c-4.3,0-7.8,3.5-7.8,7.8v7.6c-3.7,1.1-6.4,4.6-6.4,8.7c0,3.1,1.5,5.9,4.1,7.6l2.9-4.5c-1.1-0.7-1.7-1.9-1.7-3.1
		c0-2.1,1.7-3.8,3.7-3.8c2.1,0,3.7,1.7,3.7,3.8c0,1.3-0.6,2.4-1.7,3.1l2.9,4.5c2.6-1.7,4.1-4.5,4.1-7.6c0-4.1-2.7-7.5-6.4-8.7v-7.6
		c0-1.4,1.1-2.5,2.5-2.5h5.3c-0.2,1.1-0.4,2.2-0.4,3.3v5.6h34.5v-5.6c0-1.1-0.1-2.3-0.4-3.3h5.3c1.4,0,2.5,1.1,2.5,2.5v7.6
		c-3.7,1.1-6.4,4.6-6.4,8.7c0,3.1,1.5,5.9,4.1,7.6l2.9-4.5c-1.1-0.7-1.7-1.9-1.7-3.1c0-2.1,1.7-3.8,3.7-3.8c2.1,0,3.7,1.7,3.7,3.8
		c0,1.3-0.6,2.4-1.7,3.1l2.9,4.5c2.6-1.7,4.1-4.5,4.1-7.6C86.4,79.5,83.7,76,80,74.9z M44.8,65.3h-3.3v-3.5h3.3V65.3z M51.7,65.3
		h-3.3v-3.5h3.3V65.3z M58.5,65.3h-3.3v-3.5h3.3V65.3z"/>
	<path class="st2" d="M72.2,19H55.1v-4.2h-3.5v-3.3c1.1-0.6,1.9-1.7,1.9-3.1C53.4,6.5,51.9,5,50,5s-3.4,1.5-3.4,3.4
		c0,1.3,0.8,2.5,1.9,3.1v3.3h-3.5V19H27.8c-1.6,0-2.9,1.3-2.9,2.9v25.6c0,1.6,1.3,2.9,2.9,2.9h44.5c1.6,0,2.9-1.3,2.9-2.9V21.9
		C75.1,20.3,73.8,19,72.2,19z M68.5,34c0,1.5-1.3,2.8-2.8,2.8H34.3c-1.5,0-2.8-1.3-2.8-2.8v-1.3c0-1.5,1.3-2.8,2.8-2.8h31.4
		c1.5,0,2.8,1.2,2.8,2.8V34z"/>
	<path class="st2" d="M50,81.9c-3.6,0-6.6,2.9-6.6,6.6c0,3.6,2.9,6.6,6.6,6.6s6.6-2.9,6.6-6.6S53.6,81.9,50,81.9z M50,90.4
		c-1.1,0-1.9-0.9-1.9-1.9s0.9-1.9,1.9-1.9c1.1,0,1.9,0.9,1.9,1.9C51.9,89.5,51.1,90.4,50,90.4z"/>
</g>
</svg>
