<?xml version="1.0" encoding="utf-8"?>
<!-- Generator: Adobe Illustrator 20.1.0, SVG Export Plug-In . SVG Version: 6.00 Build 0)  -->
<svg version="1.1" id="Layer_1" xmlns="http://www.w3.org/2000/svg" xmlns:xlink="http://www.w3.org/1999/xlink" x="0px" y="0px"
	 viewBox="0 0 90.3 90.3" style="enable-background:new 0 0 90.3 90.3;" xml:space="preserve">
<style type="text/css">
	.st0{fill:#B1A9A9;}
</style>
<path class="st0" d="M55.3,9.5C49.2,3.4,41.1,0,32.4,0S15.6,3.4,9.5,9.5C3.4,15.6,0,23.8,0,32.4s3.4,16.8,9.5,22.9
	c6.1,6.1,14.3,9.5,22.9,9.5s16.8-3.4,22.9-9.5c6.1-6.1,9.5-14.3,9.5-22.9C64.8,23.8,61.5,15.6,55.3,9.5z M48.3,48.3
	c-4.2,4.2-9.9,6.6-15.9,6.6s-11.6-2.3-15.9-6.6C12.3,44,10,38.4,10,32.4s2.3-11.6,6.6-15.9c4.2-4.2,9.9-6.6,15.9-6.6
	s11.6,2.3,15.9,6.6c4.2,4.2,6.6,9.9,6.6,15.9C54.8,38.4,52.5,44,48.3,48.3z M88.2,78.3L75.5,65.6c-1.3-1.3-3.1-2-4.9-2L63,56L56,63
	l7.6,7.6c0,1.8,0.7,3.5,2,4.9l12.7,12.7c1.4,1.4,3.2,2.1,4.9,2.1s3.6-0.7,4.9-2.1C91,85.5,91,81.1,88.2,78.3z"/>
</svg>
