<?xml version="1.0" encoding="utf-8"?>
<!-- Generator: Adobe Illustrator 20.1.0, SVG Export Plug-In . SVG Version: 6.00 Build 0)  -->
<svg version="1.1"
	 id="Layer_1" xmlns:cc="http://creativecommons.org/ns#" xmlns:dc="http://purl.org/dc/elements/1.1/" xmlns:inkscape="http://www.inkscape.org/namespaces/inkscape" xmlns:rdf="http://www.w3.org/1999/02/22-rdf-syntax-ns#" xmlns:sodipodi="http://sodipodi.sourceforge.net/DTD/sodipodi-0.dtd" xmlns:svg="http://www.w3.org/2000/svg"
	 xmlns="http://www.w3.org/2000/svg" xmlns:xlink="http://www.w3.org/1999/xlink" x="0px" y="0px" viewBox="0 0 100 101.5"
	 style="enable-background:new 0 0 100 101.5;" xml:space="preserve">
<style type="text/css">
	.st0{fill:#333333;stroke:#333333;stroke-width:1.25;stroke-miterlimit:10;}
</style>
<g transform="translate(0,-952.36218)">
	<path class="st0" d="M42.1,959.2c-0.5,0-0.8,0.4-1,0.7l-2.6,11.2c-1,0.3-1.9,0.8-2.8,1.2l-9.8-6.1c-0.4-0.2-0.9-0.2-1.2,0.2
		l-11.2,11.2c-0.3,0.3-0.4,0.9-0.1,1.2l6.1,9.8c-0.4,0.9-0.8,1.8-1.1,2.8L7.1,994c-0.4,0.1-0.8,0.5-0.8,1v15.9c0,0.4,0.3,0.9,0.8,1
		l11.2,2.6c0.3,1,0.7,1.9,1.1,2.8l-6.1,9.8c-0.2,0.4-0.2,0.9,0.1,1.2l11.2,11.2c0.3,0.3,0.9,0.4,1.2,0.2l9.8-6.1
		c0.9,0.4,1.8,0.8,2.8,1.2l2.6,11.2c0.1,0.4,0.5,0.8,1,0.8H58c0.4,0,0.9-0.3,1-0.8l2.6-11.2c1-0.3,1.9-0.8,2.8-1.2l9.8,6.1
		c0.4,0.2,0.9,0.2,1.2-0.2l11.2-11.2c0.3-0.3,0.4-0.8,0.1-1.2l-6.1-9.8c0.4-0.9,0.8-1.9,1.1-2.8l11.2-2.6c0.4-0.1,0.8-0.5,0.8-1V995
		c0-0.5-0.3-0.9-0.8-1l-11.2-2.6c-0.3-1-0.7-1.9-1.1-2.8l6.1-9.8c0.2-0.4,0.2-0.9-0.1-1.2l-11.2-11.2c-0.3-0.3-0.9-0.4-1.2-0.2
		l-9.8,6.1c-0.9-0.4-1.8-0.8-2.8-1.2L59,959.9c-0.1-0.4-0.5-0.7-1-0.7H42.1z M42.9,961.2h14.4l2.5,10.9c0.1,0.3,0.3,0.6,0.7,0.7
		c1.3,0.4,2.5,0.9,3.6,1.5c0.3,0.2,0.7,0.1,1,0l9.5-6l10.2,10.2l-6,9.5c-0.2,0.3-0.2,0.7-0.1,1c0.6,1.2,1.1,2.4,1.5,3.6
		c0.1,0.3,0.4,0.6,0.7,0.7l10.9,2.5v14.3l-10.9,2.5c-0.3,0.1-0.6,0.3-0.7,0.7c-0.4,1.3-0.9,2.5-1.5,3.7c-0.1,0.3-0.1,0.7,0.1,1
		l5.9,9.5l-10.1,10.1l-9.5-6c-0.3-0.2-0.7-0.2-1,0c-1.2,0.6-2.4,1.1-3.6,1.5c-0.3,0.1-0.6,0.4-0.7,0.7l-2.5,11H42.9l-2.5-11
		c-0.1-0.3-0.3-0.6-0.7-0.7c-1.3-0.4-2.5-0.9-3.6-1.5c-0.3-0.2-0.7-0.1-1,0l-9.5,6l-10.1-10.1l5.9-9.5c0.2-0.3,0.2-0.7,0.1-1
		c-0.6-1.2-1.1-2.4-1.5-3.7c-0.1-0.3-0.4-0.6-0.7-0.7l-10.9-2.5v-14.3l10.9-2.5c0.3-0.1,0.6-0.3,0.7-0.7c0.4-1.3,0.9-2.5,1.5-3.6
		c0.1-0.3,0.1-0.7-0.1-1l-6-9.5l10.2-10.2l9.5,6c0.3,0.2,0.7,0.2,1,0c1.2-0.6,2.4-1.1,3.6-1.5c0.3-0.1,0.6-0.4,0.7-0.7
		C41.2,968.5,42,964.8,42.9,961.2L42.9,961.2z M50.1,982c-11.5,0-20.9,9.4-20.9,20.9c0,11.5,9.4,20.9,20.9,20.9s20.9-9.4,20.9-20.9
		C70.9,991.4,61.6,982,50.1,982z M50.1,984c10.4,0,18.9,8.4,18.9,18.9c0,10.4-8.4,18.9-18.9,18.9s-18.9-8.4-18.9-18.9
		C31.2,992.5,39.6,984,50.1,984z"/>
</g>
</svg>
