<?xml version="1.0" encoding="utf-8"?>
<!-- Generator: Adobe Illustrator 20.1.0, SVG Export Plug-In . SVG Version: 6.00 Build 0)  -->
<svg version="1.1" id="Layer_1" xmlns="http://www.w3.org/2000/svg" xmlns:xlink="http://www.w3.org/1999/xlink" x="0px" y="0px"
	 viewBox="0 0 504.9 462" style="enable-background:new 0 0 504.9 462;" xml:space="preserve">
<style type="text/css">
	.st0{fill:#504E4E;}
</style>
<g>
	<path class="st0" d="M427.7,412.5H405c-3.2,0-5.8-2.6-5.8-5.8V247c0-81.1-65.5-146.7-146.7-146.7l0,0
		c-81.1,0-146.7,65.5-146.7,146.7v159.7c0,3.2-2.6,5.8-5.8,5.8H77.2c-3.2,0-5.8,2.6-5.8,5.8v37c0,3.2,2.6,5.8,5.8,5.8h350.5
		c3.2,0,5.8-2.6,5.8-5.8v-37C433.5,415.1,430.9,412.5,427.7,412.5z M197.3,380c-27.9,0-50-35.7-50-79.2s22.1-79.2,50-79.2
		s50,35.7,50,79.2S224.5,380,197.3,380z"/>
	<g>
		<path class="st0" d="M255.7-0.3c-6.5,0-12.3,5.2-12.3,12.3v54.5c0,6.5,5.2,12.3,12.3,12.3S268,73.7,268,66.5V12
			C267.4,4.9,262.2-0.3,255.7-0.3z"/>
		<path class="st0" d="M379,22.4c-5.8-3.2-13-0.6-16.2,5.2l-24.7,48.7c-3.2,5.8-0.6,13,5.2,16.2c1.9,0.6,3.9,1.3,5.2,1.3
			c4.5,0,8.4-2.6,11-6.5l24.7-48.7C387.4,32.8,384.8,25.7,379,22.4z"/>
		<path class="st0" d="M460.8,90.6c-5.2-3.9-13-3.2-16.9,1.9l-33.7,42.8c-3.9,5.2-3.2,13,1.9,16.9c1.9,1.9,4.5,2.6,7.8,2.6
			c3.2,0,7.1-1.3,9.1-4.5l33.7-42.8C466.6,102.2,466,95.1,460.8,90.6z"/>
		<path class="st0" d="M142.1,28.3c-3.2-5.8-10.4-8.4-16.2-5.2s-8.4,10.4-5.2,16.2L145.4,88c1.9,3.9,6.5,6.5,11,6.5
			c1.9,0,3.9-0.6,5.2-1.3c5.8-3.2,8.4-10.4,5.2-16.2L142.1,28.3z"/>
		<path class="st0" d="M61,92.5c-3.9-5.2-11.7-5.8-16.9-1.9s-5.8,11.7-1.9,16.9l33.7,42.8c2.6,3.2,5.8,4.5,9.1,4.5
			c2.6,0,5.2-0.6,7.8-2.6c5.2-3.9,5.8-11.7,1.9-16.9L61,92.5z"/>
	</g>
</g>
</svg>
