<?xml version="1.0" encoding="utf-8"?>
<!-- Generator: Adobe Illustrator 20.1.0, SVG Export Plug-In . SVG Version: 6.00 Build 0)  -->
<svg version="1.1"
	 id="Layer_1" xmlns:cc="http://creativecommons.org/ns#" xmlns:dc="http://purl.org/dc/elements/1.1/" xmlns:inkscape="http://www.inkscape.org/namespaces/inkscape" xmlns:rdf="http://www.w3.org/1999/02/22-rdf-syntax-ns#" xmlns:sodipodi="http://sodipodi.sourceforge.net/DTD/sodipodi-0.dtd" xmlns:svg="http://www.w3.org/2000/svg"
	 xmlns="http://www.w3.org/2000/svg" xmlns:xlink="http://www.w3.org/1999/xlink" x="0px" y="0px" viewBox="0 0 100 101.5"
	 style="enable-background:new 0 0 100 101.5;" xml:space="preserve">
<style type="text/css">
	.st0{fill:#333333;stroke:#333333;stroke-width:1.25;stroke-miterlimit:10;}
</style>
<g transform="translate(0,-952.36218)">
	<path class="st0" d="M87.6,962.4c4.2,0,7.6,3.4,7.6,7.6v43.4c0,4.2-3.4,7.6-7.6,7.6H76.3l2.1,20.5c0.1,0.9-1.2,1.5-1.9,0.9L55,1021
		h-8.7v4.4c0,3-2.4,5.4-5.4,5.4H24.2l-11.8,11.6c-0.6,0.6-2-0.1-1.8-1l1.9-10.7h-3c-3,0-5.4-2.4-5.4-5.4v-20.8c0-3,2.4-5.4,5.4-5.4
		H17V970c0-4.2,3.4-7.6,7.6-7.6H87.6z M87.6,964.6h-63c-3,0-5.4,2.4-5.4,5.4v43.4c0,3,2.4,5.4,5.4,5.4h30.9c0.3,0,0.6,0.1,0.8,0.3
		l19.6,19.6l-1.9-18.7c-0.1-0.6,0.5-1.2,1.1-1.2h12.6c3,0,5.4-2.4,5.4-5.4V970C93.1,967,90.7,964.6,87.6,964.6L87.6,964.6z
		 M80,976.5c0.6,0,1.1,0.5,1.1,1.1s-0.5,1.1-1.1,1.1H32.2c-0.6,0-1.1-0.5-1.1-1.1s0.5-1.1,1.1-1.1H80z M80,990.6
		c0.6,0,1.1,0.5,1.1,1.1c0,0.6-0.5,1.1-1.1,1.1H32.2c-0.6,0-1.1-0.5-1.1-1.1c0-0.6,0.5-1.1,1.1-1.1H80z M17,1001.5H9.4
		c-1.8,0-3.2,1.4-3.2,3.2v20.8c0,1.8,1.4,3.2,3.2,3.2h4.3c0.6,0,1.2,0.6,1.1,1.3l-1.5,8.6l9.7-9.6c0.2-0.2,0.5-0.3,0.7-0.3H41
		c1.8,0,3.2-1.4,3.2-3.2v-4.4H24.6c-4.2,0-7.6-3.4-7.6-7.6V1001.5z M80,1004.8c0.6,0,1.1,0.5,1.1,1.1s-0.5,1.1-1.1,1.1H32.2
		c-0.6,0-1.1-0.5-1.1-1.1s0.5-1.1,1.1-1.1H80z"/>
</g>
</svg>
