# Blender v2.92.0 OBJ File: ''
# www.blender.org
mtllib car3.mtl
o car_police.008_Cube.7823
v -0.837421 0.220888 -0.896072
v 0.836906 0.220888 -0.896072
v 0.836906 0.210207 -2.064028
v -0.000248 0.210207 -2.064028
v -0.837421 0.210207 -2.064028
v -0.837421 0.173567 -2.137270
v -0.000248 0.173567 -2.137270
v -0.000248 0.101369 -2.165108
v -0.837421 0.101369 -2.165108
v -0.837421 -0.660593 -2.022190
v -0.837421 -0.230953 -2.150593
v -0.000248 -0.230953 -2.150593
v -0.000248 -0.660593 -2.022190
v -0.505180 -0.660593 -2.022190
v -0.505180 -0.659752 -1.887913
v -0.837421 -0.659752 -1.887913
v -0.837421 -0.654592 -1.068115
v -0.505180 -0.654592 -1.068115
v -0.505180 -0.653472 -0.889788
v -0.837421 -0.653472 -0.889788
v -0.505180 -0.159712 -1.068115
v -0.505180 -0.164873 -1.887913
v -0.505219 -0.653472 0.784330
v -0.505219 -0.653472 1.572409
v -0.505219 -0.158594 1.572409
v -0.505219 -0.158594 0.784330
v -0.285416 0.035768 -2.111435
v -0.765972 0.035768 -2.111435
v -0.765972 -0.165352 -2.102633
v -0.285416 -0.165352 -2.102633
v -0.837421 -0.531993 -0.890589
v -0.837421 -0.463473 -1.910668
v -0.837421 -0.383231 -1.901951
v -0.837421 -0.299513 -1.844387
v -0.837421 -0.252392 -1.797276
v -0.837421 -0.220992 -1.580992
v -0.837421 -0.229711 -1.315870
v -0.837421 -0.262873 -1.270514
v -0.837421 -0.330913 -1.228628
v -0.837421 -0.480912 -1.136189
v -0.000248 0.225687 1.356649
v -0.837421 0.225687 1.356649
v -0.837421 0.159688 1.890726
v -0.000248 0.159688 1.890726
v 0.836906 0.159688 1.890726
v 0.836906 0.225687 1.356649
v -0.837421 0.090208 1.986847
v -0.317574 0.090208 1.986847
v -0.000248 0.090208 1.986847
v 0.317059 0.090208 1.986847
v 0.836906 0.090208 1.986885
v -0.837421 -0.354793 1.444645
v -0.837421 -0.371833 1.464605
v -0.837421 -0.632553 1.512289
v -0.837460 -0.461114 2.022085
v -0.837460 -0.016232 2.026005
v -0.688171 0.887208 1.009445
v -0.688171 0.999408 0.785847
v -0.688171 0.999408 -0.438156
v -0.688171 0.974047 -0.525951
v -0.688171 0.912728 -0.589390
v -0.837021 0.221207 -0.795507
v -0.712090 0.853808 -0.536308
v -0.703773 0.896487 -0.460873
v -0.705128 0.896487 0.116530
v -0.833530 0.223927 0.116530
v -0.832729 0.224528 0.322008
v -0.702019 0.914566 0.322008
v -0.704823 0.908008 0.781250
v -0.725861 0.803046 0.922289
v -0.832024 0.226447 1.148605
v -0.829887 0.226726 1.066732
v -0.837421 -0.205512 1.065407
v -0.837421 -0.257514 0.838489
v -0.837421 -0.359752 0.739689
v -0.837421 -0.453713 0.689011
v -0.837421 -0.531993 0.678492
v -0.837421 -0.653472 0.752926
v -0.837421 -0.546272 0.772133
v -0.837421 -0.471273 0.784330
v -0.837421 -0.415433 0.807009
v -0.837421 -0.366593 0.843649
v -0.837421 -0.322993 0.916891
v -0.837421 -0.286353 1.096573
v -0.837421 -0.274153 1.248331
v -0.837421 -0.300312 1.380892
v 0.836906 0.173567 -2.137270
v 0.836906 0.101369 -2.165108
v 0.836906 -0.660593 -2.022190
v 0.504665 -0.660593 -2.022190
v 0.836906 -0.230953 -2.150593
v 0.784817 -0.653472 1.573210
v -0.837421 -0.653472 0.784330
v -0.000248 -0.653472 -0.889788
v 0.504665 -0.653472 -0.889788
v 0.836906 -0.653472 -0.889788
v 0.836906 -0.653472 0.752964
v 0.836906 -0.653472 0.784330
v 0.504665 -0.653472 0.784330
v 0.504665 -0.653472 1.572409
v 0.836906 -0.659752 -1.887913
v 0.504665 -0.659752 -1.887913
v 0.836906 -0.654592 -1.068115
v 0.504665 -0.654592 -1.068115
v 0.504665 -0.164873 -1.887913
v 0.504665 -0.159712 -1.068115
v 0.504665 -0.158594 0.784330
v 0.504665 -0.158594 1.572409
v 0.284901 0.035768 -2.111435
v 0.765457 0.035768 -2.111435
v 0.765457 -0.165352 -2.102633
v 0.284901 -0.165352 -2.102633
v 0.836906 -0.480912 -1.136189
v 0.836906 -0.330913 -1.228628
v 0.836906 -0.262873 -1.270514
v 0.836906 -0.229711 -1.315870
v 0.836906 -0.220992 -1.580992
v 0.836906 -0.252392 -1.797276
v 0.836906 -0.299513 -1.844349
v 0.836906 -0.383231 -1.901913
v 0.836906 -0.463473 -1.910668
v 0.836906 -0.531993 -0.890551
v 0.836906 -0.354793 1.444693
v 0.836906 -0.300312 1.380892
v 0.836906 -0.274153 1.248331
v 0.836906 -0.286353 1.096573
v 0.836906 -0.322993 0.916929
v 0.836906 -0.366593 0.843649
v 0.836906 -0.415433 0.807009
v 0.836906 -0.471273 0.784368
v 0.836906 -0.546272 0.772133
v 0.836906 -0.531993 0.678492
v 0.836906 -0.453713 0.689011
v 0.836906 -0.359752 0.739727
v 0.836906 -0.257514 0.838489
v 0.836906 -0.205512 1.065407
v 0.829353 0.226726 1.066732
v 0.831470 0.226447 1.148605
v 0.725307 0.803046 0.922289
v 0.704269 0.908008 0.781250
v 0.701466 0.914566 0.322046
v 0.832214 0.224528 0.322046
v 0.832977 0.223927 0.116568
v 0.704575 0.896487 0.116568
v 0.703259 0.896487 -0.460873
v 0.711575 0.853808 -0.536308
v 0.836506 0.221207 -0.795469
v 0.687656 0.912728 -0.589390
v 0.687656 0.974047 -0.525951
v 0.687656 0.999408 -0.438156
v 0.687618 0.999408 0.785847
v 0.687618 0.887208 1.009493
v 0.836906 -0.016232 2.026005
v 0.836906 -0.461114 2.022085
v 0.836906 -0.632553 1.541767
v 0.836906 -0.371833 1.464605
v -0.837421 -0.653472 1.572409
v -0.000248 -0.016232 2.026005
v -0.312061 -0.016232 2.026005
v 0.311508 -0.016232 2.026005
v -0.000248 0.999408 0.785847
v -0.000248 0.999408 -0.438156
v -0.000248 0.887208 1.009493
v -0.000248 0.974047 -0.525951
v -0.000248 0.912728 -0.589390
v 0.017223 1.000407 0.016804
v 0.017223 1.196208 0.147886
v 0.394459 1.196208 0.147886
v 0.394459 1.000407 0.016804
v 0.017223 1.000407 0.368853
v -0.400734 1.000407 0.368853
v -0.400734 1.000407 0.016766
v 0.394459 1.196208 0.237732
v 0.394459 1.000407 0.368853
v 0.017223 1.196208 0.237732
v -0.400734 1.196208 0.147886
v -0.400734 1.196208 0.237732
v -0.861015 -0.890913 -1.519871
v -0.673656 -0.890913 -1.519871
v -0.673656 -0.842752 -1.355915
v -0.861015 -0.842752 -1.355915
v -0.673656 -0.713591 -1.243992
v -0.861015 -0.713591 -1.243992
v -0.673656 -0.544433 -1.219673
v -0.861015 -0.544433 -1.219673
v -0.673656 -0.388953 -1.290674
v -0.861015 -0.388953 -1.290674
v -0.673656 -0.296552 -1.434431
v -0.861015 -0.296552 -1.434431
v -0.673656 -0.296552 -1.605349
v -0.861015 -0.296552 -1.605349
v -0.673656 -0.388953 -1.749115
v -0.861015 -0.388953 -1.749115
v -0.673656 -0.544433 -1.820116
v -0.861015 -0.544433 -1.820116
v -0.673656 -0.713591 -1.795788
v -0.861015 -0.713591 -1.795788
v -0.673656 -0.842752 -1.683874
v -0.861015 -0.842752 -1.683874
v -0.856171 -0.801472 -1.382427
v -0.856171 -0.841832 -1.519871
v -0.856171 -0.693233 -1.288633
v -0.856171 -0.551433 -1.268234
v -0.856171 -0.421111 -1.327753
v -0.856171 -0.343632 -1.448269
v -0.856171 -0.343632 -1.591511
v -0.856171 -0.421111 -1.712036
v -0.856171 -0.551433 -1.771555
v -0.856171 -0.693233 -1.751156
v -0.856171 -0.801472 -1.657353
v -0.845890 -0.766153 -1.405153
v -0.845890 -0.799832 -1.519871
v -0.845890 -0.675752 -1.326828
v -0.845890 -0.557391 -1.309795
v -0.845890 -0.448592 -1.359472
v -0.845890 -0.383951 -1.460114
v -0.845890 -0.383951 -1.579676
v -0.845890 -0.448591 -1.680308
v -0.845890 -0.557391 -1.729994
v -0.845890 -0.675752 -1.712952
v -0.845890 -0.766153 -1.634636
v -0.857582 -0.890913 1.146049
v -0.670223 -0.890913 1.146049
v -0.670223 -0.842753 1.310053
v -0.857582 -0.842753 1.310053
v -0.670223 -0.713592 1.421966
v -0.857582 -0.713592 1.421966
v -0.670223 -0.544434 1.446285
v -0.857582 -0.544434 1.446285
v -0.670223 -0.388954 1.375284
v -0.857582 -0.388954 1.375284
v -0.670223 -0.296552 1.231527
v -0.857582 -0.296552 1.231527
v -0.670223 -0.296552 1.060610
v -0.857582 -0.296552 1.060610
v -0.670223 -0.388954 0.916805
v -0.857582 -0.388954 0.916805
v -0.670223 -0.544434 0.845804
v -0.857582 -0.544434 0.845804
v -0.670223 -0.713592 0.870132
v -0.857582 -0.713592 0.870132
v -0.670223 -0.842753 0.982046
v -0.857582 -0.842753 0.982046
v -0.852737 -0.801473 1.283483
v -0.852737 -0.841832 1.146049
v -0.852737 -0.693233 1.377325
v -0.852737 -0.551434 1.397686
v -0.852737 -0.421112 1.338205
v -0.852737 -0.343633 1.217690
v -0.852737 -0.343633 1.074409
v -0.852737 -0.421112 0.953884
v -0.852737 -0.551434 0.894403
v -0.852737 -0.693233 0.914764
v -0.852737 -0.801473 1.008606
v -0.842457 -0.766154 1.260805
v -0.842457 -0.799833 1.146049
v -0.842457 -0.675752 1.339130
v -0.842457 -0.557392 1.356125
v -0.842457 -0.448592 1.306448
v -0.842457 -0.383952 1.205845
v -0.842457 -0.383952 1.086244
v -0.842457 -0.448592 0.985651
v -0.842457 -0.557392 0.935964
v -0.842457 -0.675752 0.952968
v -0.842457 -0.766154 1.031284
v 0.867023 -0.890913 -1.523790
v 0.679665 -0.890913 -1.523790
v 0.679665 -0.842752 -1.687794
v 0.867023 -0.842752 -1.687794
v 0.679665 -0.713591 -1.799708
v 0.867023 -0.713591 -1.799708
v 0.679665 -0.544433 -1.824036
v 0.867023 -0.544433 -1.824036
v 0.679665 -0.388953 -1.753035
v 0.867023 -0.388953 -1.753035
v 0.679665 -0.296552 -1.609230
v 0.867023 -0.296552 -1.609230
v 0.679665 -0.296552 -1.438313
v 0.867023 -0.296552 -1.438313
v 0.679665 -0.388953 -1.294556
v 0.867023 -0.388953 -1.294556
v 0.679665 -0.544433 -1.223555
v 0.867023 -0.544433 -1.223555
v 0.679665 -0.713591 -1.247873
v 0.867023 -0.713591 -1.247873
v 0.679665 -0.842752 -1.359797
v 0.867023 -0.842752 -1.359797
v 0.862179 -0.801472 -1.661234
v 0.862179 -0.841832 -1.523790
v 0.862179 -0.693233 -1.755076
v 0.862179 -0.551433 -1.775437
v 0.862179 -0.421111 -1.715908
v 0.862179 -0.343632 -1.595392
v 0.862179 -0.343632 -1.452150
v 0.862179 -0.421111 -1.331635
v 0.862179 -0.551433 -1.272116
v 0.862179 -0.693233 -1.292515
v 0.862179 -0.801472 -1.386309
v 0.851898 -0.766153 -1.638556
v 0.851898 -0.799832 -1.523790
v 0.851898 -0.675752 -1.716871
v 0.851898 -0.557391 -1.733875
v 0.851898 -0.448591 -1.684189
v 0.851898 -0.383951 -1.583595
v 0.851898 -0.383951 -1.463995
v 0.851898 -0.448592 -1.363392
v 0.851898 -0.557391 -1.313667
v 0.851898 -0.675752 -1.330710
v 0.851898 -0.766153 -1.409035
v 0.867023 -0.890913 1.142206
v 0.679665 -0.890913 1.142206
v 0.679665 -0.842753 0.978212
v 0.867023 -0.842753 0.978212
v 0.679665 -0.713592 0.866289
v 0.867023 -0.713592 0.866289
v 0.679665 -0.544434 0.841970
v 0.867023 -0.544434 0.841970
v 0.679665 -0.388954 0.912971
v 0.867023 -0.388954 0.912971
v 0.679665 -0.296552 1.056728
v 0.867023 -0.296552 1.056728
v 0.679665 -0.296552 1.227646
v 0.867023 -0.296552 1.227646
v 0.679665 -0.388954 1.371450
v 0.867023 -0.388954 1.371450
v 0.679665 -0.544434 1.442451
v 0.867023 -0.544434 1.442451
v 0.679665 -0.713592 1.418085
v 0.867023 -0.713592 1.418085
v 0.679665 -0.842753 1.306171
v 0.867023 -0.842753 1.306171
v 0.862179 -0.801473 1.004724
v 0.862179 -0.841832 1.142206
v 0.862179 -0.693233 0.910931
v 0.862179 -0.551434 0.890531
v 0.862179 -0.421112 0.950050
v 0.862179 -0.343633 1.070566
v 0.862179 -0.343633 1.213808
v 0.862179 -0.421112 1.334324
v 0.862179 -0.551434 1.393852
v 0.862179 -0.693233 1.373443
v 0.862179 -0.801473 1.279650
v 0.851898 -0.766154 1.027450
v 0.851898 -0.799833 1.142206
v 0.851898 -0.675752 0.949125
v 0.851898 -0.557392 0.932093
v 0.851898 -0.448592 0.981808
v 0.851898 -0.383952 1.082411
v 0.851898 -0.383952 1.202011
v 0.851898 -0.448592 1.302605
v 0.851898 -0.557392 1.352291
v 0.851898 -0.675752 1.335249
v 0.851898 -0.766154 1.256924
vn 0.0000 1.0000 -0.0091
vn 0.0000 0.3598 -0.9330
vn 0.0000 0.8943 -0.4474
vn -0.0000 0.8945 -0.4471
vn 0.0000 -0.2863 -0.9581
vn 0.0000 -1.0000 0.0063
vn 0.0000 -1.0000 0.0031
vn -1.0000 0.0000 0.0000
vn 0.0000 -0.6332 -0.7740
vn 0.5792 -0.0356 -0.8144
vn 0.0000 0.5902 -0.8073
vn -1.0000 0.0045 0.0011
vn -1.0000 0.0027 0.0006
vn 0.0000 0.9925 0.1226
vn -0.0000 0.8105 0.5858
vn -0.9975 0.0707 0.0002
vn 0.0000 -1.0000 -0.0000
vn 1.0000 0.0000 0.0000
vn -0.0000 -0.6335 -0.7737
vn -0.5792 -0.0356 -0.8144
vn 1.0000 0.0027 0.0006
vn 1.0000 0.0046 0.0011
vn 0.9975 0.0708 0.0002
vn -0.0035 -0.9197 0.3926
vn 0.0000 -0.0088 1.0000
vn 0.0000 1.0000 0.0000
vn -0.0000 0.8938 0.4484
vn -0.0000 0.8938 0.4485
vn 0.0000 0.7193 -0.6946
vn 0.0000 0.7190 -0.6950
vn -0.0000 0.9606 -0.2778
vn -0.0000 0.9606 -0.2780
vn 0.0000 -0.0437 -0.9990
vn 0.0000 0.3453 0.9385
vn -0.0000 0.3452 0.9385
vn -1.0000 0.0054 0.0012
vn 0.0000 0.9607 -0.2775
vn 1.0000 0.0054 0.0012
vn -0.0000 0.4647 0.8855
vn -0.9833 0.1822 -0.0019
vn -0.9817 0.1905 0.0010
vn 0.9833 0.1822 -0.0019
vn 0.9817 0.1905 0.0010
vn 0.0000 0.4053 -0.9142
vn -0.0000 0.3451 0.9386
vn -0.1753 -0.0430 -0.9836
vn 0.1753 -0.0430 -0.9836
vn 0.0000 0.5563 -0.8310
vn 0.0000 0.5564 0.8309
vn 0.0000 0.5564 -0.8309
vn 0.0000 -0.9595 0.2818
vn 0.0000 -0.6549 0.7557
vn 0.0000 -0.1423 0.9898
vn 0.0000 0.4154 0.9096
vn 0.0000 0.8412 0.5407
vn 0.0000 0.8412 -0.5407
vn 0.0000 0.4154 -0.9096
vn 0.0000 -0.1424 -0.9898
vn 0.0000 -0.6548 -0.7558
vn 0.0000 -0.9595 -0.2818
vn -0.9948 0.0979 -0.0287
vn -0.9948 0.0667 -0.0771
vn -0.9947 0.0146 -0.1013
vn -0.9947 -0.0425 -0.0931
vn -0.9948 -0.0861 -0.0553
vn -0.9948 -0.1016 -0.0000
vn -0.9948 -0.0861 0.0553
vn -0.9947 -0.0425 0.0931
vn -0.9947 0.0146 0.1013
vn -0.9948 0.0665 0.0770
vn -0.9948 0.0982 0.0285
vn -0.9688 0.2378 -0.0696
vn -0.9690 0.1618 -0.1868
vn -0.9690 0.0352 -0.2447
vn -0.9690 -0.1024 -0.2247
vn -0.9690 -0.2080 -0.1336
vn -0.9690 -0.2471 -0.0000
vn -0.9690 -0.2080 0.1336
vn -0.9689 -0.1027 0.2250
vn -0.9690 0.0352 0.2447
vn -0.9690 0.1618 0.1868
vn -0.9690 0.2372 0.0696
vn 0.0000 -0.6548 0.7558
vn 0.0000 0.8413 -0.5406
vn -0.9948 0.0982 -0.0288
vn -0.9947 0.0670 -0.0773
vn -0.9948 0.0146 -0.1013
vn -0.9948 -0.0425 -0.0931
vn -0.9948 -0.0858 -0.0553
vn -0.9947 -0.1024 -0.0000
vn -0.9947 -0.0861 0.0553
vn -0.9948 -0.0423 0.0926
vn -0.9947 0.0670 0.0773
vn -0.9690 0.2372 -0.0696
vn -0.9690 0.1619 -0.1868
vn -0.9690 0.0351 -0.2447
vn -0.9690 -0.1027 -0.2249
vn -0.9690 -0.2079 -0.1336
vn -0.9690 -0.2079 0.1336
vn -0.9690 -0.1027 0.2249
vn -0.9690 0.0351 0.2447
vn -0.9690 0.1619 0.1868
vn 0.9947 0.0982 0.0288
vn 0.9947 0.0670 0.0773
vn 0.9947 0.0146 0.1013
vn 0.9948 -0.0425 0.0930
vn 0.9948 -0.0861 0.0553
vn 0.9947 -0.1024 -0.0000
vn 0.9948 -0.0861 -0.0553
vn 0.9947 -0.0425 -0.0931
vn 0.9947 0.0146 -0.1013
vn 0.9948 0.0666 -0.0771
vn 0.9948 0.0979 -0.0287
vn 0.9690 0.2372 0.0696
vn 0.9689 0.1624 0.1868
vn 0.9690 0.0351 0.2447
vn 0.9689 -0.1028 0.2250
vn 0.9690 -0.2077 0.1337
vn 0.9691 -0.2468 -0.0000
vn 0.9689 -0.2082 -0.1336
vn 0.9689 -0.1027 -0.2249
vn 0.9689 0.0355 -0.2450
vn 0.9690 0.1618 -0.1868
vn 0.9690 0.2372 -0.0696
vn 0.0000 -0.6549 -0.7557
vn 0.0000 -0.1423 -0.9898
vn 0.0000 0.8413 0.5406
vn 0.0000 -0.1426 0.9898
vn 0.9948 0.0979 0.0287
vn 0.9947 0.0670 0.0774
vn 0.9947 -0.0425 0.0931
vn 0.9948 -0.0425 -0.0930
vn 0.9948 0.0144 -0.1010
vn 0.9948 0.0665 -0.0770
vn 0.9947 0.0982 -0.0288
vn 0.9689 0.1623 0.1869
vn 0.9690 0.0352 0.2447
vn 0.9690 -0.1027 0.2249
vn 0.9690 -0.2079 0.1336
vn 0.9691 -0.2075 -0.1336
vn 0.9689 -0.1028 -0.2250
vn 0.9688 0.0354 -0.2451
usemtl Material.5867
s 1
f 1//1 2//1 3//1 4//1 5//1
f 6//2 7//2 8//2 9//2
f 5//3 4//4 7//4 6//3
f 10//5 11//5 12//5 13//5 14//5
f 14//6 15//6 16//6 10//6
f 17//6 18//6 19//6 20//7
f 15//8 18//8 21//8 22//8
f 23//8 24//8 25//8 26//8
f 27//9 28//9 9//9 8//9
f 28//10 29//10 11//10 9//10
f 29//11 30//11 12//11 11//11
f 20//8 31//12 1//13 5//8 6//8 9//8 11//8 10//8 16//8 32//8 33//8 34//8 35//8 36//8 37//8 38//8 39//8 40//8 17//8
f 41//14 42//14 43//14 44//14 45//14 46//14
f 44//15 43//15 47//15 48//15 49//15 50//15 51//15 45//15
f 52//16 53//16 54//16 55//16 56//16 47//16 43//16 42//16 57//16 58//16 59//16 60//16 61//16 1//16 62//16 63//16 64//16 65//16 66//16 67//16 68//16 69//16 70//16 71//16 72//16 73//16 74//16 75//16 76//16 77//16 31//16 20//16 78//16 79//16 80//16 81//16 82//16 83//16 84//16 85//16 86//16
f 87//2 88//2 8//2 7//2
f 3//3 87//3 7//4 4//4
f 89//5 90//5 13//5 12//5 91//5
f 92//17 24//17 23//17 93//17 78//17 20//7 19//6 94//7 95//6 96//7 97//17 98//17 99//17 100//17
f 90//6 89//6 101//6 102//6
f 103//6 96//7 95//6 104//6
f 102//18 105//18 106//18 104//18
f 99//18 107//18 108//18 100//18
f 109//19 8//19 88//19 110//19
f 110//20 88//20 91//20 111//20
f 111//11 91//11 12//11 112//11
f 96//18 103//18 113//18 114//18 115//18 116//18 117//18 118//18 119//18 120//18 121//18 101//18 89//18 91//18 88//18 87//18 3//18 2//21 122//22
f 123//23 124//23 125//23 126//23 127//23 128//23 129//23 130//23 131//23 97//23 96//23 122//23 132//23 133//23 134//23 135//23 136//23 137//23 138//23 139//23 140//23 141//23 142//23 143//23 144//23 145//23 146//23 147//23 2//23 148//23 149//23 150//23 151//23 152//23 46//23 45//23 51//23 153//23 154//23 155//23 156//23
f 94//7 19//6 18//6 15//6 14//6 13//6 90//6 102//6 104//6 95//6
f 92//24 155//24 154//24 55//24 54//24 157//24 24//24
f 158//25 159//25 56//25 55//25 154//25 153//25 160//25
usemtl Material.5868
f 161//26 162//26 59//26 58//26
f 161//27 58//28 57//28 163//27
f 60//29 164//30 165//30 61//29
f 59//31 162//32 164//32 60//31
f 29//33 28//33 27//33 30//33
f 49//34 48//34 159//34 158//34 160//35 50//35
f 77//36 76//36 75//36 74//36 73//36 72//36 67//36 66//36 62//36 1//13 31//12
f 161//26 151//26 150//26 162//26
f 161//27 163//27 152//27 151//27
f 149//30 148//30 165//30 164//30
f 150//37 149//37 164//32 162//32
f 111//33 112//33 109//33 110//33
f 132//38 122//22 2//21 147//38 143//38 142//38 137//38 136//38 135//38 134//38 133//38
usemtl Material.5869
f 163//39 57//39 42//39 41//39 46//39 152//39
f 71//40 70//40 69//40 68//40 67//40 72//40
f 66//41 65//41 64//41 63//41 62//41
f 138//42 137//42 142//42 141//42 140//42 139//42
f 143//43 147//43 146//43 145//43 144//43
f 1//44 61//44 165//44 148//44 2//44
usemtl Material.5870
f 48//34 47//34 56//34 159//34
f 50//35 160//35 153//45 51//45
usemtl Material.5871
f 30//46 27//46 8//46 12//46
f 112//47 12//47 8//47 109//47
usemtl Material.5874
f 166//48 167//48 168//48 169//48
f 166//17 170//17 171//17 172//17
f 169//18 168//18 173//18 174//18
f 175//49 170//49 174//49 173//49
f 170//17 166//17 169//17 174//17
f 167//26 175//26 173//26 168//26
usemtl Material.5875
f 172//50 176//50 167//48 166//48
f 170//49 175//49 177//49 171//49
f 171//8 177//8 176//8 172//8
f 175//26 167//26 176//26 177//26
usemtl Material.5872
f 178//51 179//51 180//51 181//51
f 181//52 180//52 182//52 183//52
f 183//53 182//53 184//53 185//53
f 185//54 184//54 186//54 187//54
f 187//55 186//55 188//55 189//55
f 189//26 188//26 190//26 191//26
f 191//56 190//56 192//56 193//56
f 193//57 192//57 194//57 195//57
f 195//58 194//58 196//58 197//58
f 180//18 179//18 198//18 196//18 194//18 192//18 190//18 188//18 186//18 184//18 182//18
f 197//59 196//59 198//59 199//59
f 199//60 198//60 179//60 178//60
f 200//61 201//61 178//61 181//61
f 202//62 200//62 181//62 183//62
f 203//63 202//63 183//63 185//63
f 204//64 203//64 185//64 187//64
f 205//65 204//65 187//65 189//65
f 206//66 205//66 189//66 191//66
f 207//67 206//67 191//67 193//67
f 208//68 207//68 193//68 195//68
f 209//69 208//69 195//69 197//69
f 210//70 209//70 197//70 199//70
f 201//71 210//71 199//71 178//71
f 211//72 212//72 201//72 200//72
f 213//73 211//73 200//73 202//73
f 214//74 213//74 202//74 203//74
f 215//75 214//75 203//75 204//75
f 216//76 215//76 204//76 205//76
f 217//77 216//77 205//77 206//77
f 218//78 217//78 206//78 207//78
f 219//79 218//79 207//79 208//79
f 220//80 219//80 208//80 209//80
f 221//81 220//81 209//81 210//81
f 212//82 221//82 210//82 201//82
f 222//51 223//51 224//51 225//51
f 225//83 224//83 226//83 227//83
f 227//53 226//53 228//53 229//53
f 229//54 228//54 230//54 231//54
f 231//55 230//55 232//55 233//55
f 233//26 232//26 234//26 235//26
f 235//84 234//84 236//84 237//84
f 237//57 236//57 238//57 239//57
f 239//58 238//58 240//58 241//58
f 224//18 223//18 242//18 240//18 238//18 236//18 234//18 232//18 230//18 228//18 226//18
f 241//59 240//59 242//59 243//59
f 243//60 242//60 223//60 222//60
f 244//85 245//85 222//85 225//85
f 246//86 244//86 225//86 227//86
f 247//87 246//87 227//87 229//87
f 248//88 247//88 229//88 231//88
f 249//89 248//89 231//89 233//89
f 250//90 249//90 233//90 235//90
f 251//91 250//91 235//91 237//91
f 252//92 251//92 237//92 239//92
f 253//69 252//69 239//69 241//69
f 254//93 253//93 241//93 243//93
f 245//71 254//71 243//71 222//71
f 255//94 256//94 245//94 244//94
f 257//95 255//95 244//95 246//95
f 258//96 257//96 246//96 247//96
f 259//97 258//97 247//97 248//97
f 260//98 259//98 248//98 249//98
f 261//77 260//77 249//77 250//77
f 262//99 261//99 250//99 251//99
f 263//100 262//100 251//100 252//100
f 264//101 263//101 252//101 253//101
f 265//102 264//102 253//102 254//102
f 256//82 265//82 254//82 245//82
f 266//60 267//60 268//60 269//60
f 269//59 268//59 270//59 271//59
f 271//58 270//58 272//58 273//58
f 273//57 272//57 274//57 275//57
f 275//84 274//84 276//84 277//84
f 277//26 276//26 278//26 279//26
f 279//55 278//55 280//55 281//55
f 281//54 280//54 282//54 283//54
f 283//53 282//53 284//53 285//53
f 268//8 267//8 286//8 284//8 282//8 280//8 278//8 276//8 274//8 272//8 270//8
f 285//52 284//52 286//52 287//52
f 287//51 286//51 267//51 266//51
f 288//103 289//103 266//103 269//103
f 290//104 288//104 269//104 271//104
f 291//105 290//105 271//105 273//105
f 292//106 291//106 273//106 275//106
f 293//107 292//107 275//107 277//107
f 294//108 293//108 277//108 279//108
f 295//109 294//109 279//109 281//109
f 296//110 295//110 281//110 283//110
f 297//111 296//111 283//111 285//111
f 298//112 297//112 285//112 287//112
f 289//113 298//113 287//113 266//113
f 299//114 300//114 289//114 288//114
f 301//115 299//115 288//115 290//115
f 302//116 301//116 290//116 291//116
f 303//117 302//117 291//117 292//117
f 304//118 303//118 292//118 293//118
f 305//119 304//119 293//119 294//119
f 306//120 305//120 294//120 295//120
f 307//121 306//121 295//121 296//121
f 308//122 307//122 296//122 297//122
f 309//123 308//123 297//123 298//123
f 300//124 309//124 298//124 289//124
f 310//60 311//60 312//60 313//60
f 313//125 312//125 314//125 315//125
f 315//126 314//126 316//126 317//126
f 317//57 316//57 318//57 319//57
f 319//56 318//56 320//56 321//56
f 321//26 320//26 322//26 323//26
f 323//127 322//127 324//127 325//127
f 325//54 324//54 326//54 327//54
f 327//128 326//128 328//128 329//128
f 312//8 311//8 330//8 328//8 326//8 324//8 322//8 320//8 318//8 316//8 314//8
f 329//83 328//83 330//83 331//83
f 331//51 330//51 311//51 310//51
f 332//129 333//129 310//129 313//129
f 334//130 332//130 313//130 315//130
f 335//105 334//105 315//105 317//105
f 336//131 335//131 317//131 319//131
f 337//107 336//107 319//107 321//107
f 338//108 337//108 321//108 323//108
f 339//109 338//109 323//109 325//109
f 340//132 339//132 325//132 327//132
f 341//133 340//133 327//133 329//133
f 342//134 341//134 329//134 331//134
f 333//135 342//135 331//135 310//135
f 343//114 344//114 333//114 332//114
f 345//136 343//136 332//136 334//136
f 346//137 345//137 334//137 335//137
f 347//138 346//138 335//138 336//138
f 348//139 347//139 336//139 337//139
f 349//119 348//119 337//119 338//119
f 350//140 349//140 338//140 339//140
f 351//141 350//141 339//141 340//141
f 352//142 351//142 340//142 341//142
f 353//123 352//123 341//123 342//123
f 344//124 353//124 342//124 333//124
usemtl Material.5873
f 212//8 211//8 213//8 214//8 215//8 216//8 217//8 218//8 219//8 220//8 221//8
f 256//8 255//8 257//8 258//8 259//8 260//8 261//8 262//8 263//8 264//8 265//8
f 300//18 299//18 301//18 302//18 303//18 304//18 305//18 306//18 307//18 308//18 309//18
f 344//18 343//18 345//18 346//18 347//18 348//18 349//18 350//18 351//18 352//18 353//18
